%TF.GenerationSoftware,KiCad,Pcbnew,7.0.11*%
%TF.CreationDate,2025-03-06T22:54:37+09:00*%
%TF.ProjectId,Capasitor,43617061-7369-4746-9f72-2e6b69636164,rev?*%
%TF.SameCoordinates,Original*%
%TF.FileFunction,Drillmap*%
%TF.FilePolarity,Positive*%
%FSLAX45Y45*%
G04 Gerber Fmt 4.5, Leading zero omitted, Abs format (unit mm)*
G04 Created by KiCad (PCBNEW 7.0.11) date 2025-03-06 22:54:37*
%MOMM*%
%LPD*%
G01*
G04 APERTURE LIST*
%ADD10C,0.200000*%
%ADD11C,0.100000*%
%ADD12C,0.120000*%
G04 APERTURE END LIST*
D10*
X20294600Y-10510000D02*
X20294600Y-9810000D01*
X19994600Y-9510000D02*
X9994600Y-9510000D01*
X10104600Y-9810000D02*
G75*
G03*
X9884600Y-9810000I-110000J0D01*
G01*
X9884600Y-9810000D02*
G75*
G03*
X10104600Y-9810000I110000J0D01*
G01*
X10294600Y-10410000D02*
X10294600Y-10510000D01*
X19994600Y-10810000D02*
G75*
G03*
X20294600Y-10510000I0J300000D01*
G01*
X9994600Y-9510000D02*
G75*
G03*
X9994600Y-10110000I0J-300000D01*
G01*
X10294600Y-10510000D02*
G75*
G03*
X10594600Y-10810000I300000J0D01*
G01*
X20104600Y-9810000D02*
G75*
G03*
X19884600Y-9810000I-110000J0D01*
G01*
X19884600Y-9810000D02*
G75*
G03*
X20104600Y-9810000I110000J0D01*
G01*
X10294600Y-10410000D02*
G75*
G03*
X9994600Y-10110000I-300000J0D01*
G01*
X10594600Y-10810000D02*
X19994600Y-10810000D01*
X20294600Y-9810000D02*
G75*
G03*
X19994600Y-9510000I-300000J0D01*
G01*
D11*
X10389400Y-10084100D02*
X10489400Y-10184100D01*
X10489400Y-10084100D02*
X10389400Y-10184100D01*
X10389400Y-10338100D02*
X10489400Y-10438100D01*
X10489400Y-10338100D02*
X10389400Y-10438100D01*
D12*
X12019000Y-9776396D02*
G75*
G03*
X11899000Y-9776396I-60000J0D01*
G01*
X11899000Y-9776396D02*
G75*
G03*
X12019000Y-9776396I60000J0D01*
G01*
X12019000Y-10526396D02*
G75*
G03*
X11899000Y-10526396I-60000J0D01*
G01*
X11899000Y-10526396D02*
G75*
G03*
X12019000Y-10526396I60000J0D01*
G01*
X13341000Y-9787000D02*
G75*
G03*
X13221000Y-9787000I-60000J0D01*
G01*
X13221000Y-9787000D02*
G75*
G03*
X13341000Y-9787000I60000J0D01*
G01*
X13341000Y-10537000D02*
G75*
G03*
X13221000Y-10537000I-60000J0D01*
G01*
X13221000Y-10537000D02*
G75*
G03*
X13341000Y-10537000I60000J0D01*
G01*
X14655000Y-9781396D02*
G75*
G03*
X14535000Y-9781396I-60000J0D01*
G01*
X14535000Y-9781396D02*
G75*
G03*
X14655000Y-9781396I60000J0D01*
G01*
X14655000Y-10531396D02*
G75*
G03*
X14535000Y-10531396I-60000J0D01*
G01*
X14535000Y-10531396D02*
G75*
G03*
X14655000Y-10531396I60000J0D01*
G01*
X15977000Y-9792000D02*
G75*
G03*
X15857000Y-9792000I-60000J0D01*
G01*
X15857000Y-9792000D02*
G75*
G03*
X15977000Y-9792000I60000J0D01*
G01*
X15977000Y-10542000D02*
G75*
G03*
X15857000Y-10542000I-60000J0D01*
G01*
X15857000Y-10542000D02*
G75*
G03*
X15977000Y-10542000I60000J0D01*
G01*
X17269000Y-9783396D02*
G75*
G03*
X17149000Y-9783396I-60000J0D01*
G01*
X17149000Y-9783396D02*
G75*
G03*
X17269000Y-9783396I60000J0D01*
G01*
X17269000Y-10533396D02*
G75*
G03*
X17149000Y-10533396I-60000J0D01*
G01*
X17149000Y-10533396D02*
G75*
G03*
X17269000Y-10533396I60000J0D01*
G01*
X18591000Y-9794000D02*
G75*
G03*
X18471000Y-9794000I-60000J0D01*
G01*
X18471000Y-9794000D02*
G75*
G03*
X18591000Y-9794000I60000J0D01*
G01*
X18591000Y-10544000D02*
G75*
G03*
X18471000Y-10544000I-60000J0D01*
G01*
X18471000Y-10544000D02*
G75*
G03*
X18591000Y-10544000I60000J0D01*
G01*
D10*
X9945377Y-11131484D02*
X9945377Y-10931484D01*
X9945377Y-10931484D02*
X9992996Y-10931484D01*
X9992996Y-10931484D02*
X10021567Y-10941008D01*
X10021567Y-10941008D02*
X10040615Y-10960055D01*
X10040615Y-10960055D02*
X10050139Y-10979103D01*
X10050139Y-10979103D02*
X10059663Y-11017198D01*
X10059663Y-11017198D02*
X10059663Y-11045770D01*
X10059663Y-11045770D02*
X10050139Y-11083865D01*
X10050139Y-11083865D02*
X10040615Y-11102912D01*
X10040615Y-11102912D02*
X10021567Y-11121960D01*
X10021567Y-11121960D02*
X9992996Y-11131484D01*
X9992996Y-11131484D02*
X9945377Y-11131484D01*
X10145377Y-11131484D02*
X10145377Y-10998150D01*
X10145377Y-11036246D02*
X10154901Y-11017198D01*
X10154901Y-11017198D02*
X10164424Y-11007674D01*
X10164424Y-11007674D02*
X10183472Y-10998150D01*
X10183472Y-10998150D02*
X10202520Y-10998150D01*
X10269186Y-11131484D02*
X10269186Y-10998150D01*
X10269186Y-10931484D02*
X10259663Y-10941008D01*
X10259663Y-10941008D02*
X10269186Y-10950531D01*
X10269186Y-10950531D02*
X10278710Y-10941008D01*
X10278710Y-10941008D02*
X10269186Y-10931484D01*
X10269186Y-10931484D02*
X10269186Y-10950531D01*
X10392996Y-11131484D02*
X10373948Y-11121960D01*
X10373948Y-11121960D02*
X10364424Y-11102912D01*
X10364424Y-11102912D02*
X10364424Y-10931484D01*
X10497758Y-11131484D02*
X10478710Y-11121960D01*
X10478710Y-11121960D02*
X10469186Y-11102912D01*
X10469186Y-11102912D02*
X10469186Y-10931484D01*
X10726329Y-11131484D02*
X10726329Y-10931484D01*
X10726329Y-10931484D02*
X10792996Y-11074341D01*
X10792996Y-11074341D02*
X10859663Y-10931484D01*
X10859663Y-10931484D02*
X10859663Y-11131484D01*
X11040615Y-11131484D02*
X11040615Y-11026722D01*
X11040615Y-11026722D02*
X11031091Y-11007674D01*
X11031091Y-11007674D02*
X11012044Y-10998150D01*
X11012044Y-10998150D02*
X10973948Y-10998150D01*
X10973948Y-10998150D02*
X10954901Y-11007674D01*
X11040615Y-11121960D02*
X11021567Y-11131484D01*
X11021567Y-11131484D02*
X10973948Y-11131484D01*
X10973948Y-11131484D02*
X10954901Y-11121960D01*
X10954901Y-11121960D02*
X10945377Y-11102912D01*
X10945377Y-11102912D02*
X10945377Y-11083865D01*
X10945377Y-11083865D02*
X10954901Y-11064817D01*
X10954901Y-11064817D02*
X10973948Y-11055293D01*
X10973948Y-11055293D02*
X11021567Y-11055293D01*
X11021567Y-11055293D02*
X11040615Y-11045770D01*
X11135853Y-10998150D02*
X11135853Y-11198150D01*
X11135853Y-11007674D02*
X11154901Y-10998150D01*
X11154901Y-10998150D02*
X11192996Y-10998150D01*
X11192996Y-10998150D02*
X11212043Y-11007674D01*
X11212043Y-11007674D02*
X11221567Y-11017198D01*
X11221567Y-11017198D02*
X11231091Y-11036246D01*
X11231091Y-11036246D02*
X11231091Y-11093389D01*
X11231091Y-11093389D02*
X11221567Y-11112436D01*
X11221567Y-11112436D02*
X11212043Y-11121960D01*
X11212043Y-11121960D02*
X11192996Y-11131484D01*
X11192996Y-11131484D02*
X11154901Y-11131484D01*
X11154901Y-11131484D02*
X11135853Y-11121960D01*
X11316805Y-11112436D02*
X11326329Y-11121960D01*
X11326329Y-11121960D02*
X11316805Y-11131484D01*
X11316805Y-11131484D02*
X11307282Y-11121960D01*
X11307282Y-11121960D02*
X11316805Y-11112436D01*
X11316805Y-11112436D02*
X11316805Y-11131484D01*
X11316805Y-11007674D02*
X11326329Y-11017198D01*
X11326329Y-11017198D02*
X11316805Y-11026722D01*
X11316805Y-11026722D02*
X11307282Y-11017198D01*
X11307282Y-11017198D02*
X11316805Y-11007674D01*
X11316805Y-11007674D02*
X11316805Y-11026722D01*
D11*
X9584600Y-11410000D02*
X9684600Y-11510000D01*
X9684600Y-11410000D02*
X9584600Y-11510000D01*
D10*
X10050139Y-11551484D02*
X9935853Y-11551484D01*
X9992996Y-11551484D02*
X9992996Y-11351484D01*
X9992996Y-11351484D02*
X9973948Y-11380055D01*
X9973948Y-11380055D02*
X9954901Y-11399103D01*
X9954901Y-11399103D02*
X9935853Y-11408627D01*
X10135853Y-11532436D02*
X10145377Y-11541960D01*
X10145377Y-11541960D02*
X10135853Y-11551484D01*
X10135853Y-11551484D02*
X10126329Y-11541960D01*
X10126329Y-11541960D02*
X10135853Y-11532436D01*
X10135853Y-11532436D02*
X10135853Y-11551484D01*
X10269186Y-11351484D02*
X10288234Y-11351484D01*
X10288234Y-11351484D02*
X10307282Y-11361008D01*
X10307282Y-11361008D02*
X10316805Y-11370531D01*
X10316805Y-11370531D02*
X10326329Y-11389579D01*
X10326329Y-11389579D02*
X10335853Y-11427674D01*
X10335853Y-11427674D02*
X10335853Y-11475293D01*
X10335853Y-11475293D02*
X10326329Y-11513388D01*
X10326329Y-11513388D02*
X10316805Y-11532436D01*
X10316805Y-11532436D02*
X10307282Y-11541960D01*
X10307282Y-11541960D02*
X10288234Y-11551484D01*
X10288234Y-11551484D02*
X10269186Y-11551484D01*
X10269186Y-11551484D02*
X10250139Y-11541960D01*
X10250139Y-11541960D02*
X10240615Y-11532436D01*
X10240615Y-11532436D02*
X10231091Y-11513388D01*
X10231091Y-11513388D02*
X10221567Y-11475293D01*
X10221567Y-11475293D02*
X10221567Y-11427674D01*
X10221567Y-11427674D02*
X10231091Y-11389579D01*
X10231091Y-11389579D02*
X10240615Y-11370531D01*
X10240615Y-11370531D02*
X10250139Y-11361008D01*
X10250139Y-11361008D02*
X10269186Y-11351484D01*
X10459663Y-11351484D02*
X10478710Y-11351484D01*
X10478710Y-11351484D02*
X10497758Y-11361008D01*
X10497758Y-11361008D02*
X10507282Y-11370531D01*
X10507282Y-11370531D02*
X10516805Y-11389579D01*
X10516805Y-11389579D02*
X10526329Y-11427674D01*
X10526329Y-11427674D02*
X10526329Y-11475293D01*
X10526329Y-11475293D02*
X10516805Y-11513388D01*
X10516805Y-11513388D02*
X10507282Y-11532436D01*
X10507282Y-11532436D02*
X10497758Y-11541960D01*
X10497758Y-11541960D02*
X10478710Y-11551484D01*
X10478710Y-11551484D02*
X10459663Y-11551484D01*
X10459663Y-11551484D02*
X10440615Y-11541960D01*
X10440615Y-11541960D02*
X10431091Y-11532436D01*
X10431091Y-11532436D02*
X10421567Y-11513388D01*
X10421567Y-11513388D02*
X10412044Y-11475293D01*
X10412044Y-11475293D02*
X10412044Y-11427674D01*
X10412044Y-11427674D02*
X10421567Y-11389579D01*
X10421567Y-11389579D02*
X10431091Y-11370531D01*
X10431091Y-11370531D02*
X10440615Y-11361008D01*
X10440615Y-11361008D02*
X10459663Y-11351484D01*
X10650139Y-11351484D02*
X10669186Y-11351484D01*
X10669186Y-11351484D02*
X10688234Y-11361008D01*
X10688234Y-11361008D02*
X10697758Y-11370531D01*
X10697758Y-11370531D02*
X10707282Y-11389579D01*
X10707282Y-11389579D02*
X10716805Y-11427674D01*
X10716805Y-11427674D02*
X10716805Y-11475293D01*
X10716805Y-11475293D02*
X10707282Y-11513388D01*
X10707282Y-11513388D02*
X10697758Y-11532436D01*
X10697758Y-11532436D02*
X10688234Y-11541960D01*
X10688234Y-11541960D02*
X10669186Y-11551484D01*
X10669186Y-11551484D02*
X10650139Y-11551484D01*
X10650139Y-11551484D02*
X10631091Y-11541960D01*
X10631091Y-11541960D02*
X10621567Y-11532436D01*
X10621567Y-11532436D02*
X10612044Y-11513388D01*
X10612044Y-11513388D02*
X10602520Y-11475293D01*
X10602520Y-11475293D02*
X10602520Y-11427674D01*
X10602520Y-11427674D02*
X10612044Y-11389579D01*
X10612044Y-11389579D02*
X10621567Y-11370531D01*
X10621567Y-11370531D02*
X10631091Y-11361008D01*
X10631091Y-11361008D02*
X10650139Y-11351484D01*
X10802520Y-11551484D02*
X10802520Y-11418150D01*
X10802520Y-11437198D02*
X10812044Y-11427674D01*
X10812044Y-11427674D02*
X10831091Y-11418150D01*
X10831091Y-11418150D02*
X10859663Y-11418150D01*
X10859663Y-11418150D02*
X10878710Y-11427674D01*
X10878710Y-11427674D02*
X10888234Y-11446722D01*
X10888234Y-11446722D02*
X10888234Y-11551484D01*
X10888234Y-11446722D02*
X10897758Y-11427674D01*
X10897758Y-11427674D02*
X10916805Y-11418150D01*
X10916805Y-11418150D02*
X10945377Y-11418150D01*
X10945377Y-11418150D02*
X10964425Y-11427674D01*
X10964425Y-11427674D02*
X10973948Y-11446722D01*
X10973948Y-11446722D02*
X10973948Y-11551484D01*
X11069186Y-11551484D02*
X11069186Y-11418150D01*
X11069186Y-11437198D02*
X11078710Y-11427674D01*
X11078710Y-11427674D02*
X11097758Y-11418150D01*
X11097758Y-11418150D02*
X11126329Y-11418150D01*
X11126329Y-11418150D02*
X11145377Y-11427674D01*
X11145377Y-11427674D02*
X11154901Y-11446722D01*
X11154901Y-11446722D02*
X11154901Y-11551484D01*
X11154901Y-11446722D02*
X11164425Y-11427674D01*
X11164425Y-11427674D02*
X11183472Y-11418150D01*
X11183472Y-11418150D02*
X11212043Y-11418150D01*
X11212043Y-11418150D02*
X11231091Y-11427674D01*
X11231091Y-11427674D02*
X11240615Y-11446722D01*
X11240615Y-11446722D02*
X11240615Y-11551484D01*
X11631091Y-11341960D02*
X11459663Y-11599103D01*
X11888234Y-11351484D02*
X11907282Y-11351484D01*
X11907282Y-11351484D02*
X11926329Y-11361008D01*
X11926329Y-11361008D02*
X11935853Y-11370531D01*
X11935853Y-11370531D02*
X11945377Y-11389579D01*
X11945377Y-11389579D02*
X11954901Y-11427674D01*
X11954901Y-11427674D02*
X11954901Y-11475293D01*
X11954901Y-11475293D02*
X11945377Y-11513388D01*
X11945377Y-11513388D02*
X11935853Y-11532436D01*
X11935853Y-11532436D02*
X11926329Y-11541960D01*
X11926329Y-11541960D02*
X11907282Y-11551484D01*
X11907282Y-11551484D02*
X11888234Y-11551484D01*
X11888234Y-11551484D02*
X11869186Y-11541960D01*
X11869186Y-11541960D02*
X11859663Y-11532436D01*
X11859663Y-11532436D02*
X11850139Y-11513388D01*
X11850139Y-11513388D02*
X11840615Y-11475293D01*
X11840615Y-11475293D02*
X11840615Y-11427674D01*
X11840615Y-11427674D02*
X11850139Y-11389579D01*
X11850139Y-11389579D02*
X11859663Y-11370531D01*
X11859663Y-11370531D02*
X11869186Y-11361008D01*
X11869186Y-11361008D02*
X11888234Y-11351484D01*
X12040615Y-11532436D02*
X12050139Y-11541960D01*
X12050139Y-11541960D02*
X12040615Y-11551484D01*
X12040615Y-11551484D02*
X12031091Y-11541960D01*
X12031091Y-11541960D02*
X12040615Y-11532436D01*
X12040615Y-11532436D02*
X12040615Y-11551484D01*
X12173948Y-11351484D02*
X12192996Y-11351484D01*
X12192996Y-11351484D02*
X12212044Y-11361008D01*
X12212044Y-11361008D02*
X12221567Y-11370531D01*
X12221567Y-11370531D02*
X12231091Y-11389579D01*
X12231091Y-11389579D02*
X12240615Y-11427674D01*
X12240615Y-11427674D02*
X12240615Y-11475293D01*
X12240615Y-11475293D02*
X12231091Y-11513388D01*
X12231091Y-11513388D02*
X12221567Y-11532436D01*
X12221567Y-11532436D02*
X12212044Y-11541960D01*
X12212044Y-11541960D02*
X12192996Y-11551484D01*
X12192996Y-11551484D02*
X12173948Y-11551484D01*
X12173948Y-11551484D02*
X12154901Y-11541960D01*
X12154901Y-11541960D02*
X12145377Y-11532436D01*
X12145377Y-11532436D02*
X12135853Y-11513388D01*
X12135853Y-11513388D02*
X12126329Y-11475293D01*
X12126329Y-11475293D02*
X12126329Y-11427674D01*
X12126329Y-11427674D02*
X12135853Y-11389579D01*
X12135853Y-11389579D02*
X12145377Y-11370531D01*
X12145377Y-11370531D02*
X12154901Y-11361008D01*
X12154901Y-11361008D02*
X12173948Y-11351484D01*
X12307282Y-11351484D02*
X12431091Y-11351484D01*
X12431091Y-11351484D02*
X12364425Y-11427674D01*
X12364425Y-11427674D02*
X12392996Y-11427674D01*
X12392996Y-11427674D02*
X12412044Y-11437198D01*
X12412044Y-11437198D02*
X12421567Y-11446722D01*
X12421567Y-11446722D02*
X12431091Y-11465769D01*
X12431091Y-11465769D02*
X12431091Y-11513388D01*
X12431091Y-11513388D02*
X12421567Y-11532436D01*
X12421567Y-11532436D02*
X12412044Y-11541960D01*
X12412044Y-11541960D02*
X12392996Y-11551484D01*
X12392996Y-11551484D02*
X12335853Y-11551484D01*
X12335853Y-11551484D02*
X12316806Y-11541960D01*
X12316806Y-11541960D02*
X12307282Y-11532436D01*
X12526329Y-11551484D02*
X12564425Y-11551484D01*
X12564425Y-11551484D02*
X12583472Y-11541960D01*
X12583472Y-11541960D02*
X12592996Y-11532436D01*
X12592996Y-11532436D02*
X12612044Y-11503865D01*
X12612044Y-11503865D02*
X12621567Y-11465769D01*
X12621567Y-11465769D02*
X12621567Y-11389579D01*
X12621567Y-11389579D02*
X12612044Y-11370531D01*
X12612044Y-11370531D02*
X12602520Y-11361008D01*
X12602520Y-11361008D02*
X12583472Y-11351484D01*
X12583472Y-11351484D02*
X12545377Y-11351484D01*
X12545377Y-11351484D02*
X12526329Y-11361008D01*
X12526329Y-11361008D02*
X12516806Y-11370531D01*
X12516806Y-11370531D02*
X12507282Y-11389579D01*
X12507282Y-11389579D02*
X12507282Y-11437198D01*
X12507282Y-11437198D02*
X12516806Y-11456246D01*
X12516806Y-11456246D02*
X12526329Y-11465769D01*
X12526329Y-11465769D02*
X12545377Y-11475293D01*
X12545377Y-11475293D02*
X12583472Y-11475293D01*
X12583472Y-11475293D02*
X12602520Y-11465769D01*
X12602520Y-11465769D02*
X12612044Y-11456246D01*
X12612044Y-11456246D02*
X12621567Y-11437198D01*
X12792996Y-11418150D02*
X12792996Y-11551484D01*
X12745377Y-11341960D02*
X12697758Y-11484817D01*
X12697758Y-11484817D02*
X12821567Y-11484817D01*
X12888234Y-11351484D02*
X12888234Y-11389579D01*
X12964425Y-11351484D02*
X12964425Y-11389579D01*
X13259663Y-11627674D02*
X13250139Y-11618150D01*
X13250139Y-11618150D02*
X13231091Y-11589579D01*
X13231091Y-11589579D02*
X13221568Y-11570531D01*
X13221568Y-11570531D02*
X13212044Y-11541960D01*
X13212044Y-11541960D02*
X13202520Y-11494341D01*
X13202520Y-11494341D02*
X13202520Y-11456246D01*
X13202520Y-11456246D02*
X13212044Y-11408627D01*
X13212044Y-11408627D02*
X13221568Y-11380055D01*
X13221568Y-11380055D02*
X13231091Y-11361008D01*
X13231091Y-11361008D02*
X13250139Y-11332436D01*
X13250139Y-11332436D02*
X13259663Y-11322912D01*
X13326329Y-11370531D02*
X13335853Y-11361008D01*
X13335853Y-11361008D02*
X13354901Y-11351484D01*
X13354901Y-11351484D02*
X13402520Y-11351484D01*
X13402520Y-11351484D02*
X13421568Y-11361008D01*
X13421568Y-11361008D02*
X13431091Y-11370531D01*
X13431091Y-11370531D02*
X13440615Y-11389579D01*
X13440615Y-11389579D02*
X13440615Y-11408627D01*
X13440615Y-11408627D02*
X13431091Y-11437198D01*
X13431091Y-11437198D02*
X13316806Y-11551484D01*
X13316806Y-11551484D02*
X13440615Y-11551484D01*
X13678710Y-11551484D02*
X13678710Y-11351484D01*
X13764425Y-11551484D02*
X13764425Y-11446722D01*
X13764425Y-11446722D02*
X13754901Y-11427674D01*
X13754901Y-11427674D02*
X13735853Y-11418150D01*
X13735853Y-11418150D02*
X13707282Y-11418150D01*
X13707282Y-11418150D02*
X13688234Y-11427674D01*
X13688234Y-11427674D02*
X13678710Y-11437198D01*
X13888234Y-11551484D02*
X13869187Y-11541960D01*
X13869187Y-11541960D02*
X13859663Y-11532436D01*
X13859663Y-11532436D02*
X13850139Y-11513388D01*
X13850139Y-11513388D02*
X13850139Y-11456246D01*
X13850139Y-11456246D02*
X13859663Y-11437198D01*
X13859663Y-11437198D02*
X13869187Y-11427674D01*
X13869187Y-11427674D02*
X13888234Y-11418150D01*
X13888234Y-11418150D02*
X13916806Y-11418150D01*
X13916806Y-11418150D02*
X13935853Y-11427674D01*
X13935853Y-11427674D02*
X13945377Y-11437198D01*
X13945377Y-11437198D02*
X13954901Y-11456246D01*
X13954901Y-11456246D02*
X13954901Y-11513388D01*
X13954901Y-11513388D02*
X13945377Y-11532436D01*
X13945377Y-11532436D02*
X13935853Y-11541960D01*
X13935853Y-11541960D02*
X13916806Y-11551484D01*
X13916806Y-11551484D02*
X13888234Y-11551484D01*
X14069187Y-11551484D02*
X14050139Y-11541960D01*
X14050139Y-11541960D02*
X14040615Y-11522912D01*
X14040615Y-11522912D02*
X14040615Y-11351484D01*
X14221568Y-11541960D02*
X14202520Y-11551484D01*
X14202520Y-11551484D02*
X14164425Y-11551484D01*
X14164425Y-11551484D02*
X14145377Y-11541960D01*
X14145377Y-11541960D02*
X14135853Y-11522912D01*
X14135853Y-11522912D02*
X14135853Y-11446722D01*
X14135853Y-11446722D02*
X14145377Y-11427674D01*
X14145377Y-11427674D02*
X14164425Y-11418150D01*
X14164425Y-11418150D02*
X14202520Y-11418150D01*
X14202520Y-11418150D02*
X14221568Y-11427674D01*
X14221568Y-11427674D02*
X14231091Y-11446722D01*
X14231091Y-11446722D02*
X14231091Y-11465769D01*
X14231091Y-11465769D02*
X14135853Y-11484817D01*
X14307282Y-11541960D02*
X14326330Y-11551484D01*
X14326330Y-11551484D02*
X14364425Y-11551484D01*
X14364425Y-11551484D02*
X14383472Y-11541960D01*
X14383472Y-11541960D02*
X14392996Y-11522912D01*
X14392996Y-11522912D02*
X14392996Y-11513388D01*
X14392996Y-11513388D02*
X14383472Y-11494341D01*
X14383472Y-11494341D02*
X14364425Y-11484817D01*
X14364425Y-11484817D02*
X14335853Y-11484817D01*
X14335853Y-11484817D02*
X14316806Y-11475293D01*
X14316806Y-11475293D02*
X14307282Y-11456246D01*
X14307282Y-11456246D02*
X14307282Y-11446722D01*
X14307282Y-11446722D02*
X14316806Y-11427674D01*
X14316806Y-11427674D02*
X14335853Y-11418150D01*
X14335853Y-11418150D02*
X14364425Y-11418150D01*
X14364425Y-11418150D02*
X14383472Y-11427674D01*
X14459663Y-11627674D02*
X14469187Y-11618150D01*
X14469187Y-11618150D02*
X14488234Y-11589579D01*
X14488234Y-11589579D02*
X14497758Y-11570531D01*
X14497758Y-11570531D02*
X14507282Y-11541960D01*
X14507282Y-11541960D02*
X14516806Y-11494341D01*
X14516806Y-11494341D02*
X14516806Y-11456246D01*
X14516806Y-11456246D02*
X14507282Y-11408627D01*
X14507282Y-11408627D02*
X14497758Y-11380055D01*
X14497758Y-11380055D02*
X14488234Y-11361008D01*
X14488234Y-11361008D02*
X14469187Y-11332436D01*
X14469187Y-11332436D02*
X14459663Y-11322912D01*
D12*
X9684600Y-11724000D02*
G75*
G03*
X9564600Y-11724000I-60000J0D01*
G01*
X9564600Y-11724000D02*
G75*
G03*
X9684600Y-11724000I60000J0D01*
G01*
D10*
X10050139Y-11815484D02*
X9935853Y-11815484D01*
X9992996Y-11815484D02*
X9992996Y-11615484D01*
X9992996Y-11615484D02*
X9973948Y-11644055D01*
X9973948Y-11644055D02*
X9954901Y-11663103D01*
X9954901Y-11663103D02*
X9935853Y-11672627D01*
X10135853Y-11796436D02*
X10145377Y-11805960D01*
X10145377Y-11805960D02*
X10135853Y-11815484D01*
X10135853Y-11815484D02*
X10126329Y-11805960D01*
X10126329Y-11805960D02*
X10135853Y-11796436D01*
X10135853Y-11796436D02*
X10135853Y-11815484D01*
X10221567Y-11634531D02*
X10231091Y-11625008D01*
X10231091Y-11625008D02*
X10250139Y-11615484D01*
X10250139Y-11615484D02*
X10297758Y-11615484D01*
X10297758Y-11615484D02*
X10316805Y-11625008D01*
X10316805Y-11625008D02*
X10326329Y-11634531D01*
X10326329Y-11634531D02*
X10335853Y-11653579D01*
X10335853Y-11653579D02*
X10335853Y-11672627D01*
X10335853Y-11672627D02*
X10326329Y-11701198D01*
X10326329Y-11701198D02*
X10212044Y-11815484D01*
X10212044Y-11815484D02*
X10335853Y-11815484D01*
X10459663Y-11615484D02*
X10478710Y-11615484D01*
X10478710Y-11615484D02*
X10497758Y-11625008D01*
X10497758Y-11625008D02*
X10507282Y-11634531D01*
X10507282Y-11634531D02*
X10516805Y-11653579D01*
X10516805Y-11653579D02*
X10526329Y-11691674D01*
X10526329Y-11691674D02*
X10526329Y-11739293D01*
X10526329Y-11739293D02*
X10516805Y-11777388D01*
X10516805Y-11777388D02*
X10507282Y-11796436D01*
X10507282Y-11796436D02*
X10497758Y-11805960D01*
X10497758Y-11805960D02*
X10478710Y-11815484D01*
X10478710Y-11815484D02*
X10459663Y-11815484D01*
X10459663Y-11815484D02*
X10440615Y-11805960D01*
X10440615Y-11805960D02*
X10431091Y-11796436D01*
X10431091Y-11796436D02*
X10421567Y-11777388D01*
X10421567Y-11777388D02*
X10412044Y-11739293D01*
X10412044Y-11739293D02*
X10412044Y-11691674D01*
X10412044Y-11691674D02*
X10421567Y-11653579D01*
X10421567Y-11653579D02*
X10431091Y-11634531D01*
X10431091Y-11634531D02*
X10440615Y-11625008D01*
X10440615Y-11625008D02*
X10459663Y-11615484D01*
X10650139Y-11615484D02*
X10669186Y-11615484D01*
X10669186Y-11615484D02*
X10688234Y-11625008D01*
X10688234Y-11625008D02*
X10697758Y-11634531D01*
X10697758Y-11634531D02*
X10707282Y-11653579D01*
X10707282Y-11653579D02*
X10716805Y-11691674D01*
X10716805Y-11691674D02*
X10716805Y-11739293D01*
X10716805Y-11739293D02*
X10707282Y-11777388D01*
X10707282Y-11777388D02*
X10697758Y-11796436D01*
X10697758Y-11796436D02*
X10688234Y-11805960D01*
X10688234Y-11805960D02*
X10669186Y-11815484D01*
X10669186Y-11815484D02*
X10650139Y-11815484D01*
X10650139Y-11815484D02*
X10631091Y-11805960D01*
X10631091Y-11805960D02*
X10621567Y-11796436D01*
X10621567Y-11796436D02*
X10612044Y-11777388D01*
X10612044Y-11777388D02*
X10602520Y-11739293D01*
X10602520Y-11739293D02*
X10602520Y-11691674D01*
X10602520Y-11691674D02*
X10612044Y-11653579D01*
X10612044Y-11653579D02*
X10621567Y-11634531D01*
X10621567Y-11634531D02*
X10631091Y-11625008D01*
X10631091Y-11625008D02*
X10650139Y-11615484D01*
X10802520Y-11815484D02*
X10802520Y-11682150D01*
X10802520Y-11701198D02*
X10812044Y-11691674D01*
X10812044Y-11691674D02*
X10831091Y-11682150D01*
X10831091Y-11682150D02*
X10859663Y-11682150D01*
X10859663Y-11682150D02*
X10878710Y-11691674D01*
X10878710Y-11691674D02*
X10888234Y-11710722D01*
X10888234Y-11710722D02*
X10888234Y-11815484D01*
X10888234Y-11710722D02*
X10897758Y-11691674D01*
X10897758Y-11691674D02*
X10916805Y-11682150D01*
X10916805Y-11682150D02*
X10945377Y-11682150D01*
X10945377Y-11682150D02*
X10964425Y-11691674D01*
X10964425Y-11691674D02*
X10973948Y-11710722D01*
X10973948Y-11710722D02*
X10973948Y-11815484D01*
X11069186Y-11815484D02*
X11069186Y-11682150D01*
X11069186Y-11701198D02*
X11078710Y-11691674D01*
X11078710Y-11691674D02*
X11097758Y-11682150D01*
X11097758Y-11682150D02*
X11126329Y-11682150D01*
X11126329Y-11682150D02*
X11145377Y-11691674D01*
X11145377Y-11691674D02*
X11154901Y-11710722D01*
X11154901Y-11710722D02*
X11154901Y-11815484D01*
X11154901Y-11710722D02*
X11164425Y-11691674D01*
X11164425Y-11691674D02*
X11183472Y-11682150D01*
X11183472Y-11682150D02*
X11212043Y-11682150D01*
X11212043Y-11682150D02*
X11231091Y-11691674D01*
X11231091Y-11691674D02*
X11240615Y-11710722D01*
X11240615Y-11710722D02*
X11240615Y-11815484D01*
X11631091Y-11605960D02*
X11459663Y-11863103D01*
X11888234Y-11615484D02*
X11907282Y-11615484D01*
X11907282Y-11615484D02*
X11926329Y-11625008D01*
X11926329Y-11625008D02*
X11935853Y-11634531D01*
X11935853Y-11634531D02*
X11945377Y-11653579D01*
X11945377Y-11653579D02*
X11954901Y-11691674D01*
X11954901Y-11691674D02*
X11954901Y-11739293D01*
X11954901Y-11739293D02*
X11945377Y-11777388D01*
X11945377Y-11777388D02*
X11935853Y-11796436D01*
X11935853Y-11796436D02*
X11926329Y-11805960D01*
X11926329Y-11805960D02*
X11907282Y-11815484D01*
X11907282Y-11815484D02*
X11888234Y-11815484D01*
X11888234Y-11815484D02*
X11869186Y-11805960D01*
X11869186Y-11805960D02*
X11859663Y-11796436D01*
X11859663Y-11796436D02*
X11850139Y-11777388D01*
X11850139Y-11777388D02*
X11840615Y-11739293D01*
X11840615Y-11739293D02*
X11840615Y-11691674D01*
X11840615Y-11691674D02*
X11850139Y-11653579D01*
X11850139Y-11653579D02*
X11859663Y-11634531D01*
X11859663Y-11634531D02*
X11869186Y-11625008D01*
X11869186Y-11625008D02*
X11888234Y-11615484D01*
X12040615Y-11796436D02*
X12050139Y-11805960D01*
X12050139Y-11805960D02*
X12040615Y-11815484D01*
X12040615Y-11815484D02*
X12031091Y-11805960D01*
X12031091Y-11805960D02*
X12040615Y-11796436D01*
X12040615Y-11796436D02*
X12040615Y-11815484D01*
X12173948Y-11615484D02*
X12192996Y-11615484D01*
X12192996Y-11615484D02*
X12212044Y-11625008D01*
X12212044Y-11625008D02*
X12221567Y-11634531D01*
X12221567Y-11634531D02*
X12231091Y-11653579D01*
X12231091Y-11653579D02*
X12240615Y-11691674D01*
X12240615Y-11691674D02*
X12240615Y-11739293D01*
X12240615Y-11739293D02*
X12231091Y-11777388D01*
X12231091Y-11777388D02*
X12221567Y-11796436D01*
X12221567Y-11796436D02*
X12212044Y-11805960D01*
X12212044Y-11805960D02*
X12192996Y-11815484D01*
X12192996Y-11815484D02*
X12173948Y-11815484D01*
X12173948Y-11815484D02*
X12154901Y-11805960D01*
X12154901Y-11805960D02*
X12145377Y-11796436D01*
X12145377Y-11796436D02*
X12135853Y-11777388D01*
X12135853Y-11777388D02*
X12126329Y-11739293D01*
X12126329Y-11739293D02*
X12126329Y-11691674D01*
X12126329Y-11691674D02*
X12135853Y-11653579D01*
X12135853Y-11653579D02*
X12145377Y-11634531D01*
X12145377Y-11634531D02*
X12154901Y-11625008D01*
X12154901Y-11625008D02*
X12173948Y-11615484D01*
X12412044Y-11682150D02*
X12412044Y-11815484D01*
X12364425Y-11605960D02*
X12316806Y-11748817D01*
X12316806Y-11748817D02*
X12440615Y-11748817D01*
X12497758Y-11615484D02*
X12631091Y-11615484D01*
X12631091Y-11615484D02*
X12545377Y-11815484D01*
X12697758Y-11634531D02*
X12707282Y-11625008D01*
X12707282Y-11625008D02*
X12726329Y-11615484D01*
X12726329Y-11615484D02*
X12773948Y-11615484D01*
X12773948Y-11615484D02*
X12792996Y-11625008D01*
X12792996Y-11625008D02*
X12802520Y-11634531D01*
X12802520Y-11634531D02*
X12812044Y-11653579D01*
X12812044Y-11653579D02*
X12812044Y-11672627D01*
X12812044Y-11672627D02*
X12802520Y-11701198D01*
X12802520Y-11701198D02*
X12688234Y-11815484D01*
X12688234Y-11815484D02*
X12812044Y-11815484D01*
X12888234Y-11615484D02*
X12888234Y-11653579D01*
X12964425Y-11615484D02*
X12964425Y-11653579D01*
X13259663Y-11891674D02*
X13250139Y-11882150D01*
X13250139Y-11882150D02*
X13231091Y-11853579D01*
X13231091Y-11853579D02*
X13221568Y-11834531D01*
X13221568Y-11834531D02*
X13212044Y-11805960D01*
X13212044Y-11805960D02*
X13202520Y-11758341D01*
X13202520Y-11758341D02*
X13202520Y-11720246D01*
X13202520Y-11720246D02*
X13212044Y-11672627D01*
X13212044Y-11672627D02*
X13221568Y-11644055D01*
X13221568Y-11644055D02*
X13231091Y-11625008D01*
X13231091Y-11625008D02*
X13250139Y-11596436D01*
X13250139Y-11596436D02*
X13259663Y-11586912D01*
X13440615Y-11815484D02*
X13326329Y-11815484D01*
X13383472Y-11815484D02*
X13383472Y-11615484D01*
X13383472Y-11615484D02*
X13364425Y-11644055D01*
X13364425Y-11644055D02*
X13345377Y-11663103D01*
X13345377Y-11663103D02*
X13326329Y-11672627D01*
X13516806Y-11634531D02*
X13526329Y-11625008D01*
X13526329Y-11625008D02*
X13545377Y-11615484D01*
X13545377Y-11615484D02*
X13592996Y-11615484D01*
X13592996Y-11615484D02*
X13612044Y-11625008D01*
X13612044Y-11625008D02*
X13621568Y-11634531D01*
X13621568Y-11634531D02*
X13631091Y-11653579D01*
X13631091Y-11653579D02*
X13631091Y-11672627D01*
X13631091Y-11672627D02*
X13621568Y-11701198D01*
X13621568Y-11701198D02*
X13507282Y-11815484D01*
X13507282Y-11815484D02*
X13631091Y-11815484D01*
X13869187Y-11815484D02*
X13869187Y-11615484D01*
X13954901Y-11815484D02*
X13954901Y-11710722D01*
X13954901Y-11710722D02*
X13945377Y-11691674D01*
X13945377Y-11691674D02*
X13926330Y-11682150D01*
X13926330Y-11682150D02*
X13897758Y-11682150D01*
X13897758Y-11682150D02*
X13878710Y-11691674D01*
X13878710Y-11691674D02*
X13869187Y-11701198D01*
X14078710Y-11815484D02*
X14059663Y-11805960D01*
X14059663Y-11805960D02*
X14050139Y-11796436D01*
X14050139Y-11796436D02*
X14040615Y-11777388D01*
X14040615Y-11777388D02*
X14040615Y-11720246D01*
X14040615Y-11720246D02*
X14050139Y-11701198D01*
X14050139Y-11701198D02*
X14059663Y-11691674D01*
X14059663Y-11691674D02*
X14078710Y-11682150D01*
X14078710Y-11682150D02*
X14107282Y-11682150D01*
X14107282Y-11682150D02*
X14126330Y-11691674D01*
X14126330Y-11691674D02*
X14135853Y-11701198D01*
X14135853Y-11701198D02*
X14145377Y-11720246D01*
X14145377Y-11720246D02*
X14145377Y-11777388D01*
X14145377Y-11777388D02*
X14135853Y-11796436D01*
X14135853Y-11796436D02*
X14126330Y-11805960D01*
X14126330Y-11805960D02*
X14107282Y-11815484D01*
X14107282Y-11815484D02*
X14078710Y-11815484D01*
X14259663Y-11815484D02*
X14240615Y-11805960D01*
X14240615Y-11805960D02*
X14231091Y-11786912D01*
X14231091Y-11786912D02*
X14231091Y-11615484D01*
X14412044Y-11805960D02*
X14392996Y-11815484D01*
X14392996Y-11815484D02*
X14354901Y-11815484D01*
X14354901Y-11815484D02*
X14335853Y-11805960D01*
X14335853Y-11805960D02*
X14326330Y-11786912D01*
X14326330Y-11786912D02*
X14326330Y-11710722D01*
X14326330Y-11710722D02*
X14335853Y-11691674D01*
X14335853Y-11691674D02*
X14354901Y-11682150D01*
X14354901Y-11682150D02*
X14392996Y-11682150D01*
X14392996Y-11682150D02*
X14412044Y-11691674D01*
X14412044Y-11691674D02*
X14421568Y-11710722D01*
X14421568Y-11710722D02*
X14421568Y-11729769D01*
X14421568Y-11729769D02*
X14326330Y-11748817D01*
X14497758Y-11805960D02*
X14516806Y-11815484D01*
X14516806Y-11815484D02*
X14554901Y-11815484D01*
X14554901Y-11815484D02*
X14573949Y-11805960D01*
X14573949Y-11805960D02*
X14583472Y-11786912D01*
X14583472Y-11786912D02*
X14583472Y-11777388D01*
X14583472Y-11777388D02*
X14573949Y-11758341D01*
X14573949Y-11758341D02*
X14554901Y-11748817D01*
X14554901Y-11748817D02*
X14526330Y-11748817D01*
X14526330Y-11748817D02*
X14507282Y-11739293D01*
X14507282Y-11739293D02*
X14497758Y-11720246D01*
X14497758Y-11720246D02*
X14497758Y-11710722D01*
X14497758Y-11710722D02*
X14507282Y-11691674D01*
X14507282Y-11691674D02*
X14526330Y-11682150D01*
X14526330Y-11682150D02*
X14554901Y-11682150D01*
X14554901Y-11682150D02*
X14573949Y-11691674D01*
X14650139Y-11891674D02*
X14659663Y-11882150D01*
X14659663Y-11882150D02*
X14678711Y-11853579D01*
X14678711Y-11853579D02*
X14688234Y-11834531D01*
X14688234Y-11834531D02*
X14697758Y-11805960D01*
X14697758Y-11805960D02*
X14707282Y-11758341D01*
X14707282Y-11758341D02*
X14707282Y-11720246D01*
X14707282Y-11720246D02*
X14697758Y-11672627D01*
X14697758Y-11672627D02*
X14688234Y-11644055D01*
X14688234Y-11644055D02*
X14678711Y-11625008D01*
X14678711Y-11625008D02*
X14659663Y-11596436D01*
X14659663Y-11596436D02*
X14650139Y-11586912D01*
M02*
