%TF.GenerationSoftware,KiCad,Pcbnew,7.0.11*%
%TF.CreationDate,2025-03-06T22:54:37+09:00*%
%TF.ProjectId,Capasitor,43617061-7369-4746-9f72-2e6b69636164,rev?*%
%TF.SameCoordinates,Original*%
%TF.FileFunction,Drillmap*%
%TF.FilePolarity,Positive*%
%FSLAX45Y45*%
G04 Gerber Fmt 4.5, Leading zero omitted, Abs format (unit mm)*
G04 Created by KiCad (PCBNEW 7.0.11) date 2025-03-06 22:54:37*
%MOMM*%
%LPD*%
G01*
G04 APERTURE LIST*
%ADD10C,0.200000*%
G04 APERTURE END LIST*
D10*
X20294600Y-10510000D02*
X20294600Y-9810000D01*
X19994600Y-9510000D02*
X9994600Y-9510000D01*
X10104600Y-9810000D02*
G75*
G03*
X9884600Y-9810000I-110000J0D01*
G01*
X9884600Y-9810000D02*
G75*
G03*
X10104600Y-9810000I110000J0D01*
G01*
X10294600Y-10410000D02*
X10294600Y-10510000D01*
X19994600Y-10810000D02*
G75*
G03*
X20294600Y-10510000I0J300000D01*
G01*
X9994600Y-9510000D02*
G75*
G03*
X9994600Y-10110000I0J-300000D01*
G01*
X10294600Y-10510000D02*
G75*
G03*
X10594600Y-10810000I300000J0D01*
G01*
X20104600Y-9810000D02*
G75*
G03*
X19884600Y-9810000I-110000J0D01*
G01*
X19884600Y-9810000D02*
G75*
G03*
X20104600Y-9810000I110000J0D01*
G01*
X10294600Y-10410000D02*
G75*
G03*
X9994600Y-10110000I-300000J0D01*
G01*
X10594600Y-10810000D02*
X19994600Y-10810000D01*
X20294600Y-9810000D02*
G75*
G03*
X19994600Y-9510000I-300000J0D01*
G01*
X9945377Y-11131484D02*
X9945377Y-10931484D01*
X9945377Y-10931484D02*
X9992996Y-10931484D01*
X9992996Y-10931484D02*
X10021567Y-10941008D01*
X10021567Y-10941008D02*
X10040615Y-10960055D01*
X10040615Y-10960055D02*
X10050139Y-10979103D01*
X10050139Y-10979103D02*
X10059663Y-11017198D01*
X10059663Y-11017198D02*
X10059663Y-11045770D01*
X10059663Y-11045770D02*
X10050139Y-11083865D01*
X10050139Y-11083865D02*
X10040615Y-11102912D01*
X10040615Y-11102912D02*
X10021567Y-11121960D01*
X10021567Y-11121960D02*
X9992996Y-11131484D01*
X9992996Y-11131484D02*
X9945377Y-11131484D01*
X10145377Y-11131484D02*
X10145377Y-10998150D01*
X10145377Y-11036246D02*
X10154901Y-11017198D01*
X10154901Y-11017198D02*
X10164424Y-11007674D01*
X10164424Y-11007674D02*
X10183472Y-10998150D01*
X10183472Y-10998150D02*
X10202520Y-10998150D01*
X10269186Y-11131484D02*
X10269186Y-10998150D01*
X10269186Y-10931484D02*
X10259663Y-10941008D01*
X10259663Y-10941008D02*
X10269186Y-10950531D01*
X10269186Y-10950531D02*
X10278710Y-10941008D01*
X10278710Y-10941008D02*
X10269186Y-10931484D01*
X10269186Y-10931484D02*
X10269186Y-10950531D01*
X10392996Y-11131484D02*
X10373948Y-11121960D01*
X10373948Y-11121960D02*
X10364424Y-11102912D01*
X10364424Y-11102912D02*
X10364424Y-10931484D01*
X10497758Y-11131484D02*
X10478710Y-11121960D01*
X10478710Y-11121960D02*
X10469186Y-11102912D01*
X10469186Y-11102912D02*
X10469186Y-10931484D01*
X10726329Y-11131484D02*
X10726329Y-10931484D01*
X10726329Y-10931484D02*
X10792996Y-11074341D01*
X10792996Y-11074341D02*
X10859663Y-10931484D01*
X10859663Y-10931484D02*
X10859663Y-11131484D01*
X11040615Y-11131484D02*
X11040615Y-11026722D01*
X11040615Y-11026722D02*
X11031091Y-11007674D01*
X11031091Y-11007674D02*
X11012044Y-10998150D01*
X11012044Y-10998150D02*
X10973948Y-10998150D01*
X10973948Y-10998150D02*
X10954901Y-11007674D01*
X11040615Y-11121960D02*
X11021567Y-11131484D01*
X11021567Y-11131484D02*
X10973948Y-11131484D01*
X10973948Y-11131484D02*
X10954901Y-11121960D01*
X10954901Y-11121960D02*
X10945377Y-11102912D01*
X10945377Y-11102912D02*
X10945377Y-11083865D01*
X10945377Y-11083865D02*
X10954901Y-11064817D01*
X10954901Y-11064817D02*
X10973948Y-11055293D01*
X10973948Y-11055293D02*
X11021567Y-11055293D01*
X11021567Y-11055293D02*
X11040615Y-11045770D01*
X11135853Y-10998150D02*
X11135853Y-11198150D01*
X11135853Y-11007674D02*
X11154901Y-10998150D01*
X11154901Y-10998150D02*
X11192996Y-10998150D01*
X11192996Y-10998150D02*
X11212043Y-11007674D01*
X11212043Y-11007674D02*
X11221567Y-11017198D01*
X11221567Y-11017198D02*
X11231091Y-11036246D01*
X11231091Y-11036246D02*
X11231091Y-11093389D01*
X11231091Y-11093389D02*
X11221567Y-11112436D01*
X11221567Y-11112436D02*
X11212043Y-11121960D01*
X11212043Y-11121960D02*
X11192996Y-11131484D01*
X11192996Y-11131484D02*
X11154901Y-11131484D01*
X11154901Y-11131484D02*
X11135853Y-11121960D01*
X11316805Y-11112436D02*
X11326329Y-11121960D01*
X11326329Y-11121960D02*
X11316805Y-11131484D01*
X11316805Y-11131484D02*
X11307282Y-11121960D01*
X11307282Y-11121960D02*
X11316805Y-11112436D01*
X11316805Y-11112436D02*
X11316805Y-11131484D01*
X11316805Y-11007674D02*
X11326329Y-11017198D01*
X11326329Y-11017198D02*
X11316805Y-11026722D01*
X11316805Y-11026722D02*
X11307282Y-11017198D01*
X11307282Y-11017198D02*
X11316805Y-11007674D01*
X11316805Y-11007674D02*
X11316805Y-11026722D01*
M02*
