%TF.GenerationSoftware,KiCad,Pcbnew,7.0.11*%
%TF.CreationDate,2025-01-20T01:44:00+09:00*%
%TF.ProjectId,Relay,52656c61-792e-46b6-9963-61645f706362,rev?*%
%TF.SameCoordinates,Original*%
%TF.FileFunction,Drillmap*%
%TF.FilePolarity,Positive*%
%FSLAX45Y45*%
G04 Gerber Fmt 4.5, Leading zero omitted, Abs format (unit mm)*
G04 Created by KiCad (PCBNEW 7.0.11) date 2025-01-20 01:44:00*
%MOMM*%
%LPD*%
G01*
G04 APERTURE LIST*
%ADD10C,0.200000*%
%ADD11C,0.100000*%
%ADD12C,0.150000*%
%ADD13C,0.190000*%
G04 APERTURE END LIST*
D10*
X11776701Y-7337700D02*
X11776701Y-10437700D01*
X18696499Y-10437700D02*
X18696499Y-7337700D01*
X11776700Y-10437700D02*
G75*
G03*
X11976701Y-10637700I200000J0D01*
G01*
X18496499Y-7137700D02*
X11976701Y-7137700D01*
X12486701Y-10437700D02*
G75*
G03*
X12266701Y-10437700I-110000J0D01*
G01*
X12266701Y-10437700D02*
G75*
G03*
X12486701Y-10437700I110000J0D01*
G01*
X18496499Y-10637699D02*
G75*
G03*
X18696499Y-10437700I1J199999D01*
G01*
X18206499Y-7337700D02*
G75*
G03*
X17986499Y-7337700I-110000J0D01*
G01*
X17986499Y-7337700D02*
G75*
G03*
X18206499Y-7337700I110000J0D01*
G01*
X12486701Y-7337700D02*
G75*
G03*
X12266701Y-7337700I-110000J0D01*
G01*
X12266701Y-7337700D02*
G75*
G03*
X12486701Y-7337700I110000J0D01*
G01*
X18206499Y-10437700D02*
G75*
G03*
X17986499Y-10437700I-110000J0D01*
G01*
X17986499Y-10437700D02*
G75*
G03*
X18206499Y-10437700I110000J0D01*
G01*
X11976701Y-10637700D02*
X18496499Y-10637700D01*
X18696500Y-7337700D02*
G75*
G03*
X18496499Y-7137700I-200000J0D01*
G01*
X11976701Y-7137701D02*
G75*
G03*
X11776701Y-7337700I-1J-199999D01*
G01*
D11*
X15007500Y-8196700D02*
X15022500Y-8211700D01*
X15022500Y-8196700D02*
X15007500Y-8211700D01*
X15057500Y-8196700D02*
X15072500Y-8211700D01*
X15072500Y-8196700D02*
X15057500Y-8211700D01*
X15357500Y-8196700D02*
X15372500Y-8211700D01*
X15372500Y-8196700D02*
X15357500Y-8211700D01*
X15357500Y-8298300D02*
X15372500Y-8313300D01*
X15372500Y-8298300D02*
X15357500Y-8313300D01*
X12034200Y-10401300D02*
G75*
G03*
X11994200Y-10401300I-20000J0D01*
G01*
X11994200Y-10401300D02*
G75*
G03*
X12034200Y-10401300I20000J0D01*
G01*
X12212000Y-8064500D02*
G75*
G03*
X12172000Y-8064500I-20000J0D01*
G01*
X12172000Y-8064500D02*
G75*
G03*
X12212000Y-8064500I20000J0D01*
G01*
X12224700Y-8966200D02*
G75*
G03*
X12184700Y-8966200I-20000J0D01*
G01*
X12184700Y-8966200D02*
G75*
G03*
X12224700Y-8966200I20000J0D01*
G01*
X12224700Y-9652000D02*
G75*
G03*
X12184700Y-9652000I-20000J0D01*
G01*
X12184700Y-9652000D02*
G75*
G03*
X12224700Y-9652000I20000J0D01*
G01*
X12796200Y-7912100D02*
G75*
G03*
X12756200Y-7912100I-20000J0D01*
G01*
X12756200Y-7912100D02*
G75*
G03*
X12796200Y-7912100I20000J0D01*
G01*
X12796200Y-8724900D02*
G75*
G03*
X12756200Y-8724900I-20000J0D01*
G01*
X12756200Y-8724900D02*
G75*
G03*
X12796200Y-8724900I20000J0D01*
G01*
X12897800Y-10490200D02*
G75*
G03*
X12857800Y-10490200I-20000J0D01*
G01*
X12857800Y-10490200D02*
G75*
G03*
X12897800Y-10490200I20000J0D01*
G01*
X13062900Y-7213600D02*
G75*
G03*
X13022900Y-7213600I-20000J0D01*
G01*
X13022900Y-7213600D02*
G75*
G03*
X13062900Y-7213600I20000J0D01*
G01*
X13189900Y-10109200D02*
G75*
G03*
X13149900Y-10109200I-20000J0D01*
G01*
X13149900Y-10109200D02*
G75*
G03*
X13189900Y-10109200I20000J0D01*
G01*
X13253400Y-9563100D02*
G75*
G03*
X13213400Y-9563100I-20000J0D01*
G01*
X13213400Y-9563100D02*
G75*
G03*
X13253400Y-9563100I20000J0D01*
G01*
X13291500Y-7556500D02*
G75*
G03*
X13251500Y-7556500I-20000J0D01*
G01*
X13251500Y-7556500D02*
G75*
G03*
X13291500Y-7556500I20000J0D01*
G01*
X13329600Y-10566400D02*
G75*
G03*
X13289600Y-10566400I-20000J0D01*
G01*
X13289600Y-10566400D02*
G75*
G03*
X13329600Y-10566400I20000J0D01*
G01*
X13393100Y-8661400D02*
G75*
G03*
X13353100Y-8661400I-20000J0D01*
G01*
X13353100Y-8661400D02*
G75*
G03*
X13393100Y-8661400I20000J0D01*
G01*
X13418500Y-7874000D02*
G75*
G03*
X13378500Y-7874000I-20000J0D01*
G01*
X13378500Y-7874000D02*
G75*
G03*
X13418500Y-7874000I20000J0D01*
G01*
X13443900Y-7632700D02*
G75*
G03*
X13403900Y-7632700I-20000J0D01*
G01*
X13403900Y-7632700D02*
G75*
G03*
X13443900Y-7632700I20000J0D01*
G01*
X13596300Y-10210800D02*
G75*
G03*
X13556300Y-10210800I-20000J0D01*
G01*
X13556300Y-10210800D02*
G75*
G03*
X13596300Y-10210800I20000J0D01*
G01*
X13650800Y-7629000D02*
G75*
G03*
X13610800Y-7629000I-20000J0D01*
G01*
X13610800Y-7629000D02*
G75*
G03*
X13650800Y-7629000I20000J0D01*
G01*
X13672500Y-7340600D02*
G75*
G03*
X13632500Y-7340600I-20000J0D01*
G01*
X13632500Y-7340600D02*
G75*
G03*
X13672500Y-7340600I20000J0D01*
G01*
X13736000Y-8191500D02*
G75*
G03*
X13696000Y-8191500I-20000J0D01*
G01*
X13696000Y-8191500D02*
G75*
G03*
X13736000Y-8191500I20000J0D01*
G01*
X13774100Y-9029700D02*
G75*
G03*
X13734100Y-9029700I-20000J0D01*
G01*
X13734100Y-9029700D02*
G75*
G03*
X13774100Y-9029700I20000J0D01*
G01*
X13924900Y-7629000D02*
G75*
G03*
X13884900Y-7629000I-20000J0D01*
G01*
X13884900Y-7629000D02*
G75*
G03*
X13924900Y-7629000I20000J0D01*
G01*
X14066200Y-9550400D02*
G75*
G03*
X14026200Y-9550400I-20000J0D01*
G01*
X14026200Y-9550400D02*
G75*
G03*
X14066200Y-9550400I20000J0D01*
G01*
X14171500Y-7629000D02*
G75*
G03*
X14131500Y-7629000I-20000J0D01*
G01*
X14131500Y-7629000D02*
G75*
G03*
X14171500Y-7629000I20000J0D01*
G01*
X14180500Y-7874000D02*
G75*
G03*
X14140500Y-7874000I-20000J0D01*
G01*
X14140500Y-7874000D02*
G75*
G03*
X14180500Y-7874000I20000J0D01*
G01*
X14231300Y-8750300D02*
G75*
G03*
X14191300Y-8750300I-20000J0D01*
G01*
X14191300Y-8750300D02*
G75*
G03*
X14231300Y-8750300I20000J0D01*
G01*
X14244000Y-8394700D02*
G75*
G03*
X14204000Y-8394700I-20000J0D01*
G01*
X14204000Y-8394700D02*
G75*
G03*
X14244000Y-8394700I20000J0D01*
G01*
X14244000Y-9347200D02*
G75*
G03*
X14204000Y-9347200I-20000J0D01*
G01*
X14204000Y-9347200D02*
G75*
G03*
X14244000Y-9347200I20000J0D01*
G01*
X14244000Y-9525000D02*
G75*
G03*
X14204000Y-9525000I-20000J0D01*
G01*
X14204000Y-9525000D02*
G75*
G03*
X14244000Y-9525000I20000J0D01*
G01*
X14434500Y-7632700D02*
G75*
G03*
X14394500Y-7632700I-20000J0D01*
G01*
X14394500Y-7632700D02*
G75*
G03*
X14434500Y-7632700I20000J0D01*
G01*
X14637700Y-8064500D02*
G75*
G03*
X14597700Y-8064500I-20000J0D01*
G01*
X14597700Y-8064500D02*
G75*
G03*
X14637700Y-8064500I20000J0D01*
G01*
X14637700Y-8445500D02*
G75*
G03*
X14597700Y-8445500I-20000J0D01*
G01*
X14597700Y-8445500D02*
G75*
G03*
X14637700Y-8445500I20000J0D01*
G01*
X14637700Y-9791700D02*
G75*
G03*
X14597700Y-9791700I-20000J0D01*
G01*
X14597700Y-9791700D02*
G75*
G03*
X14637700Y-9791700I20000J0D01*
G01*
X14650400Y-9169400D02*
G75*
G03*
X14610400Y-9169400I-20000J0D01*
G01*
X14610400Y-9169400D02*
G75*
G03*
X14650400Y-9169400I20000J0D01*
G01*
X14708600Y-7632700D02*
G75*
G03*
X14668600Y-7632700I-20000J0D01*
G01*
X14668600Y-7632700D02*
G75*
G03*
X14708600Y-7632700I20000J0D01*
G01*
X14879000Y-8128000D02*
G75*
G03*
X14839000Y-8128000I-20000J0D01*
G01*
X14839000Y-8128000D02*
G75*
G03*
X14879000Y-8128000I20000J0D01*
G01*
X14879000Y-8382000D02*
G75*
G03*
X14839000Y-8382000I-20000J0D01*
G01*
X14839000Y-8382000D02*
G75*
G03*
X14879000Y-8382000I20000J0D01*
G01*
X14879000Y-9804400D02*
G75*
G03*
X14839000Y-9804400I-20000J0D01*
G01*
X14839000Y-9804400D02*
G75*
G03*
X14879000Y-9804400I20000J0D01*
G01*
X14955200Y-7632700D02*
G75*
G03*
X14915200Y-7632700I-20000J0D01*
G01*
X14915200Y-7632700D02*
G75*
G03*
X14955200Y-7632700I20000J0D01*
G01*
X15185070Y-7872730D02*
G75*
G03*
X15145070Y-7872730I-20000J0D01*
G01*
X15145070Y-7872730D02*
G75*
G03*
X15185070Y-7872730I20000J0D01*
G01*
X15247300Y-7632700D02*
G75*
G03*
X15207300Y-7632700I-20000J0D01*
G01*
X15207300Y-7632700D02*
G75*
G03*
X15247300Y-7632700I20000J0D01*
G01*
X15255781Y-7943441D02*
G75*
G03*
X15215781Y-7943441I-20000J0D01*
G01*
X15215781Y-7943441D02*
G75*
G03*
X15255781Y-7943441I20000J0D01*
G01*
X15272700Y-8623300D02*
G75*
G03*
X15232700Y-8623300I-20000J0D01*
G01*
X15232700Y-8623300D02*
G75*
G03*
X15272700Y-8623300I20000J0D01*
G01*
X15298100Y-9169400D02*
G75*
G03*
X15258100Y-9169400I-20000J0D01*
G01*
X15258100Y-9169400D02*
G75*
G03*
X15298100Y-9169400I20000J0D01*
G01*
X15521400Y-7632700D02*
G75*
G03*
X15481400Y-7632700I-20000J0D01*
G01*
X15481400Y-7632700D02*
G75*
G03*
X15521400Y-7632700I20000J0D01*
G01*
X15564800Y-7823200D02*
G75*
G03*
X15524800Y-7823200I-20000J0D01*
G01*
X15524800Y-7823200D02*
G75*
G03*
X15564800Y-7823200I20000J0D01*
G01*
X15641000Y-8128000D02*
G75*
G03*
X15601000Y-8128000I-20000J0D01*
G01*
X15601000Y-8128000D02*
G75*
G03*
X15641000Y-8128000I20000J0D01*
G01*
X15641000Y-8382000D02*
G75*
G03*
X15601000Y-8382000I-20000J0D01*
G01*
X15601000Y-8382000D02*
G75*
G03*
X15641000Y-8382000I20000J0D01*
G01*
X15691800Y-8597900D02*
G75*
G03*
X15651800Y-8597900I-20000J0D01*
G01*
X15651800Y-8597900D02*
G75*
G03*
X15691800Y-8597900I20000J0D01*
G01*
X15768000Y-7632700D02*
G75*
G03*
X15728000Y-7632700I-20000J0D01*
G01*
X15728000Y-7632700D02*
G75*
G03*
X15768000Y-7632700I20000J0D01*
G01*
X15907700Y-8064500D02*
G75*
G03*
X15867700Y-8064500I-20000J0D01*
G01*
X15867700Y-8064500D02*
G75*
G03*
X15907700Y-8064500I20000J0D01*
G01*
X15958500Y-9804400D02*
G75*
G03*
X15918500Y-9804400I-20000J0D01*
G01*
X15918500Y-9804400D02*
G75*
G03*
X15958500Y-9804400I20000J0D01*
G01*
X16031000Y-7636400D02*
G75*
G03*
X15991000Y-7636400I-20000J0D01*
G01*
X15991000Y-7636400D02*
G75*
G03*
X16031000Y-7636400I20000J0D01*
G01*
X16123600Y-7302500D02*
G75*
G03*
X16083600Y-7302500I-20000J0D01*
G01*
X16083600Y-7302500D02*
G75*
G03*
X16123600Y-7302500I20000J0D01*
G01*
X16212500Y-8724900D02*
G75*
G03*
X16172500Y-8724900I-20000J0D01*
G01*
X16172500Y-8724900D02*
G75*
G03*
X16212500Y-8724900I20000J0D01*
G01*
X16250600Y-7835900D02*
G75*
G03*
X16210600Y-7835900I-20000J0D01*
G01*
X16210600Y-7835900D02*
G75*
G03*
X16250600Y-7835900I20000J0D01*
G01*
X16305100Y-7636400D02*
G75*
G03*
X16265100Y-7636400I-20000J0D01*
G01*
X16265100Y-7636400D02*
G75*
G03*
X16305100Y-7636400I20000J0D01*
G01*
X16314100Y-9740900D02*
G75*
G03*
X16274100Y-9740900I-20000J0D01*
G01*
X16274100Y-9740900D02*
G75*
G03*
X16314100Y-9740900I20000J0D01*
G01*
X16364900Y-9271000D02*
G75*
G03*
X16324900Y-9271000I-20000J0D01*
G01*
X16324900Y-9271000D02*
G75*
G03*
X16364900Y-9271000I20000J0D01*
G01*
X16551700Y-7636400D02*
G75*
G03*
X16511700Y-7636400I-20000J0D01*
G01*
X16511700Y-7636400D02*
G75*
G03*
X16551700Y-7636400I20000J0D01*
G01*
X16644300Y-7848600D02*
G75*
G03*
X16604300Y-7848600I-20000J0D01*
G01*
X16604300Y-7848600D02*
G75*
G03*
X16644300Y-7848600I20000J0D01*
G01*
X16822100Y-7213600D02*
G75*
G03*
X16782100Y-7213600I-20000J0D01*
G01*
X16782100Y-7213600D02*
G75*
G03*
X16822100Y-7213600I20000J0D01*
G01*
X16847500Y-7759700D02*
G75*
G03*
X16807500Y-7759700I-20000J0D01*
G01*
X16807500Y-7759700D02*
G75*
G03*
X16847500Y-7759700I20000J0D01*
G01*
X16923700Y-10210800D02*
G75*
G03*
X16883700Y-10210800I-20000J0D01*
G01*
X16883700Y-10210800D02*
G75*
G03*
X16923700Y-10210800I20000J0D01*
G01*
X17012600Y-7924800D02*
G75*
G03*
X16972600Y-7924800I-20000J0D01*
G01*
X16972600Y-7924800D02*
G75*
G03*
X17012600Y-7924800I20000J0D01*
G01*
X17012600Y-9486900D02*
G75*
G03*
X16972600Y-9486900I-20000J0D01*
G01*
X16972600Y-9486900D02*
G75*
G03*
X17012600Y-9486900I20000J0D01*
G01*
X17063400Y-8267700D02*
G75*
G03*
X17023400Y-8267700I-20000J0D01*
G01*
X17023400Y-8267700D02*
G75*
G03*
X17063400Y-8267700I20000J0D01*
G01*
X17063400Y-8648700D02*
G75*
G03*
X17023400Y-8648700I-20000J0D01*
G01*
X17023400Y-8648700D02*
G75*
G03*
X17063400Y-8648700I20000J0D01*
G01*
X17063400Y-9232900D02*
G75*
G03*
X17023400Y-9232900I-20000J0D01*
G01*
X17023400Y-9232900D02*
G75*
G03*
X17063400Y-9232900I20000J0D01*
G01*
X17076100Y-7658100D02*
G75*
G03*
X17036100Y-7658100I-20000J0D01*
G01*
X17036100Y-7658100D02*
G75*
G03*
X17076100Y-7658100I20000J0D01*
G01*
X17152300Y-10566400D02*
G75*
G03*
X17112300Y-10566400I-20000J0D01*
G01*
X17112300Y-10566400D02*
G75*
G03*
X17152300Y-10566400I20000J0D01*
G01*
X17165000Y-8077200D02*
G75*
G03*
X17125000Y-8077200I-20000J0D01*
G01*
X17125000Y-8077200D02*
G75*
G03*
X17165000Y-8077200I20000J0D01*
G01*
X17419000Y-7353300D02*
G75*
G03*
X17379000Y-7353300I-20000J0D01*
G01*
X17379000Y-7353300D02*
G75*
G03*
X17419000Y-7353300I20000J0D01*
G01*
X17495200Y-8610600D02*
G75*
G03*
X17455200Y-8610600I-20000J0D01*
G01*
X17455200Y-8610600D02*
G75*
G03*
X17495200Y-8610600I20000J0D01*
G01*
X17495200Y-9067800D02*
G75*
G03*
X17455200Y-9067800I-20000J0D01*
G01*
X17455200Y-9067800D02*
G75*
G03*
X17495200Y-9067800I20000J0D01*
G01*
X17495200Y-9728200D02*
G75*
G03*
X17455200Y-9728200I-20000J0D01*
G01*
X17455200Y-9728200D02*
G75*
G03*
X17495200Y-9728200I20000J0D01*
G01*
X17698400Y-8026400D02*
G75*
G03*
X17658400Y-8026400I-20000J0D01*
G01*
X17658400Y-8026400D02*
G75*
G03*
X17698400Y-8026400I20000J0D01*
G01*
X18269900Y-8039100D02*
G75*
G03*
X18229900Y-8039100I-20000J0D01*
G01*
X18229900Y-8039100D02*
G75*
G03*
X18269900Y-8039100I20000J0D01*
G01*
X18511200Y-9334500D02*
G75*
G03*
X18471200Y-9334500I-20000J0D01*
G01*
X18471200Y-9334500D02*
G75*
G03*
X18511200Y-9334500I20000J0D01*
G01*
X18549300Y-10426700D02*
G75*
G03*
X18509300Y-10426700I-20000J0D01*
G01*
X18509300Y-10426700D02*
G75*
G03*
X18549300Y-10426700I20000J0D01*
G01*
X15000000Y-8005000D02*
X15000000Y-8075000D01*
X14965000Y-8040000D02*
X15035000Y-8040000D01*
X15000000Y-8435000D02*
X15000000Y-8505000D01*
X14965000Y-8470000D02*
X15035000Y-8470000D01*
X15480000Y-8005000D02*
X15480000Y-8075000D01*
X15445000Y-8040000D02*
X15515000Y-8040000D01*
X15480000Y-8435000D02*
X15480000Y-8505000D01*
X15445000Y-8470000D02*
X15515000Y-8470000D01*
X13452788Y-9746988D02*
X13452788Y-9679812D01*
X13385612Y-9679812D01*
X13385612Y-9746988D01*
X13452788Y-9746988D01*
X13702788Y-9746988D02*
X13702788Y-9679812D01*
X13635612Y-9679812D01*
X13635612Y-9746988D01*
X13702788Y-9746988D01*
X13952788Y-9746988D02*
X13952788Y-9679812D01*
X13885612Y-9679812D01*
X13885612Y-9746988D01*
X13952788Y-9746988D01*
X14202788Y-9746988D02*
X14202788Y-9679812D01*
X14135612Y-9679812D01*
X14135612Y-9746988D01*
X14202788Y-9746988D01*
X14452788Y-9746988D02*
X14452788Y-9679812D01*
X14385612Y-9679812D01*
X14385612Y-9746988D01*
X14452788Y-9746988D01*
X15023588Y-9623788D02*
X15023588Y-9556612D01*
X14956412Y-9556612D01*
X14956412Y-9623788D01*
X15023588Y-9623788D01*
X15023588Y-10318888D02*
X15023588Y-10251712D01*
X14956412Y-10251712D01*
X14956412Y-10318888D01*
X15023588Y-10318888D01*
X15273588Y-9623788D02*
X15273588Y-9556612D01*
X15206412Y-9556612D01*
X15206412Y-9623788D01*
X15273588Y-9623788D01*
X15273588Y-10318888D02*
X15273588Y-10251712D01*
X15206412Y-10251712D01*
X15206412Y-10318888D01*
X15273588Y-10318888D01*
X15523588Y-9623788D02*
X15523588Y-9556612D01*
X15456412Y-9556612D01*
X15456412Y-9623788D01*
X15523588Y-9623788D01*
X15523588Y-10318888D02*
X15523588Y-10251712D01*
X15456412Y-10251712D01*
X15456412Y-10318888D01*
X15523588Y-10318888D01*
X16530188Y-9736388D02*
X16530188Y-9669212D01*
X16463012Y-9669212D01*
X16463012Y-9736388D01*
X16530188Y-9736388D01*
X16780188Y-9736388D02*
X16780188Y-9669212D01*
X16713012Y-9669212D01*
X16713012Y-9736388D01*
X16780188Y-9736388D01*
X17030188Y-9736388D02*
X17030188Y-9669212D01*
X16963012Y-9669212D01*
X16963012Y-9736388D01*
X17030188Y-9736388D01*
X17280188Y-9736388D02*
X17280188Y-9669212D01*
X17213012Y-9669212D01*
X17213012Y-9736388D01*
X17280188Y-9736388D01*
X12089700Y-7564500D02*
X12139700Y-7514500D01*
X12089700Y-7464500D01*
X12039700Y-7514500D01*
X12089700Y-7564500D01*
X12089700Y-8664500D02*
X12139700Y-8614500D01*
X12089700Y-8564500D01*
X12039700Y-8614500D01*
X12089700Y-8664500D01*
X12767200Y-8990800D02*
X12817200Y-8940800D01*
X12767200Y-8890800D01*
X12717200Y-8940800D01*
X12767200Y-8990800D01*
X12767200Y-9244800D02*
X12817200Y-9194800D01*
X12767200Y-9144800D01*
X12717200Y-9194800D01*
X12767200Y-9244800D01*
X12767200Y-9498800D02*
X12817200Y-9448800D01*
X12767200Y-9398800D01*
X12717200Y-9448800D01*
X12767200Y-9498800D01*
X12767200Y-9752800D02*
X12817200Y-9702800D01*
X12767200Y-9652800D01*
X12717200Y-9702800D01*
X12767200Y-9752800D01*
X12767200Y-10006800D02*
X12817200Y-9956800D01*
X12767200Y-9906800D01*
X12717200Y-9956800D01*
X12767200Y-10006800D01*
X12767200Y-10260800D02*
X12817200Y-10210800D01*
X12767200Y-10160800D01*
X12717200Y-10210800D01*
X12767200Y-10260800D01*
X13021200Y-8990800D02*
X13071200Y-8940800D01*
X13021200Y-8890800D01*
X12971200Y-8940800D01*
X13021200Y-8990800D01*
X13021200Y-9244800D02*
X13071200Y-9194800D01*
X13021200Y-9144800D01*
X12971200Y-9194800D01*
X13021200Y-9244800D01*
X13021200Y-9498800D02*
X13071200Y-9448800D01*
X13021200Y-9398800D01*
X12971200Y-9448800D01*
X13021200Y-9498800D01*
X13021200Y-9752800D02*
X13071200Y-9702800D01*
X13021200Y-9652800D01*
X12971200Y-9702800D01*
X13021200Y-9752800D01*
X13021200Y-10006800D02*
X13071200Y-9956800D01*
X13021200Y-9906800D01*
X12971200Y-9956800D01*
X13021200Y-10006800D01*
X13021200Y-10260800D02*
X13071200Y-10210800D01*
X13021200Y-10160800D01*
X12971200Y-10210800D01*
X13021200Y-10260800D01*
X17695600Y-9007500D02*
X17745600Y-8957500D01*
X17695600Y-8907500D01*
X17645600Y-8957500D01*
X17695600Y-9007500D01*
X17695600Y-9261500D02*
X17745600Y-9211500D01*
X17695600Y-9161500D01*
X17645600Y-9211500D01*
X17695600Y-9261500D01*
X17695600Y-9515500D02*
X17745600Y-9465500D01*
X17695600Y-9415500D01*
X17645600Y-9465500D01*
X17695600Y-9515500D01*
X17695600Y-9769500D02*
X17745600Y-9719500D01*
X17695600Y-9669500D01*
X17645600Y-9719500D01*
X17695600Y-9769500D01*
X18376900Y-7560600D02*
X18426900Y-7510600D01*
X18376900Y-7460600D01*
X18326900Y-7510600D01*
X18376900Y-7560600D01*
X18376900Y-8660600D02*
X18426900Y-8610600D01*
X18376900Y-8560600D01*
X18326900Y-8610600D01*
X18376900Y-8660600D01*
D12*
X13361600Y-7316400D02*
X13511600Y-7466400D01*
X13511600Y-7316400D02*
X13361600Y-7466400D01*
X13511600Y-7391400D02*
G75*
G03*
X13361600Y-7391400I-75000J0D01*
G01*
X13361600Y-7391400D02*
G75*
G03*
X13511600Y-7391400I75000J0D01*
G01*
X14504600Y-7316400D02*
X14654600Y-7466400D01*
X14654600Y-7316400D02*
X14504600Y-7466400D01*
X14654600Y-7391400D02*
G75*
G03*
X14504600Y-7391400I-75000J0D01*
G01*
X14504600Y-7391400D02*
G75*
G03*
X14654600Y-7391400I75000J0D01*
G01*
X15812700Y-7315600D02*
X15962700Y-7465600D01*
X15962700Y-7315600D02*
X15812700Y-7465600D01*
X15962700Y-7390600D02*
G75*
G03*
X15812700Y-7390600I-75000J0D01*
G01*
X15812700Y-7390600D02*
G75*
G03*
X15962700Y-7390600I75000J0D01*
G01*
X16955700Y-7315600D02*
X17105700Y-7465600D01*
X17105700Y-7315600D02*
X16955700Y-7465600D01*
X17105700Y-7390600D02*
G75*
G03*
X16955700Y-7390600I-75000J0D01*
G01*
X16955700Y-7390600D02*
G75*
G03*
X17105700Y-7390600I75000J0D01*
G01*
D13*
X12994700Y-7719500D02*
X13184700Y-7909500D01*
X13184700Y-7719500D02*
X12994700Y-7909500D01*
X13089700Y-7719500D02*
X13089700Y-7909500D01*
X12994700Y-7814500D02*
X13184700Y-7814500D01*
X12994700Y-8219500D02*
X13184700Y-8409500D01*
X13184700Y-8219500D02*
X12994700Y-8409500D01*
X13089700Y-8219500D02*
X13089700Y-8409500D01*
X12994700Y-8314500D02*
X13184700Y-8314500D01*
X17281900Y-7715600D02*
X17471900Y-7905600D01*
X17471900Y-7715600D02*
X17281900Y-7905600D01*
X17376900Y-7715600D02*
X17376900Y-7905600D01*
X17281900Y-7810600D02*
X17471900Y-7810600D01*
X17281900Y-8215600D02*
X17471900Y-8405600D01*
X17471900Y-8215600D02*
X17281900Y-8405600D01*
X17376900Y-8215600D02*
X17376900Y-8405600D01*
X17281900Y-8310600D02*
X17471900Y-8310600D01*
D10*
X12027478Y-10959184D02*
X12027478Y-10759184D01*
X12027478Y-10759184D02*
X12075097Y-10759184D01*
X12075097Y-10759184D02*
X12103668Y-10768708D01*
X12103668Y-10768708D02*
X12122716Y-10787755D01*
X12122716Y-10787755D02*
X12132240Y-10806803D01*
X12132240Y-10806803D02*
X12141763Y-10844898D01*
X12141763Y-10844898D02*
X12141763Y-10873470D01*
X12141763Y-10873470D02*
X12132240Y-10911565D01*
X12132240Y-10911565D02*
X12122716Y-10930612D01*
X12122716Y-10930612D02*
X12103668Y-10949660D01*
X12103668Y-10949660D02*
X12075097Y-10959184D01*
X12075097Y-10959184D02*
X12027478Y-10959184D01*
X12227478Y-10959184D02*
X12227478Y-10825850D01*
X12227478Y-10863946D02*
X12237002Y-10844898D01*
X12237002Y-10844898D02*
X12246525Y-10835374D01*
X12246525Y-10835374D02*
X12265573Y-10825850D01*
X12265573Y-10825850D02*
X12284621Y-10825850D01*
X12351287Y-10959184D02*
X12351287Y-10825850D01*
X12351287Y-10759184D02*
X12341763Y-10768708D01*
X12341763Y-10768708D02*
X12351287Y-10778231D01*
X12351287Y-10778231D02*
X12360811Y-10768708D01*
X12360811Y-10768708D02*
X12351287Y-10759184D01*
X12351287Y-10759184D02*
X12351287Y-10778231D01*
X12475097Y-10959184D02*
X12456049Y-10949660D01*
X12456049Y-10949660D02*
X12446525Y-10930612D01*
X12446525Y-10930612D02*
X12446525Y-10759184D01*
X12579859Y-10959184D02*
X12560811Y-10949660D01*
X12560811Y-10949660D02*
X12551287Y-10930612D01*
X12551287Y-10930612D02*
X12551287Y-10759184D01*
X12808430Y-10959184D02*
X12808430Y-10759184D01*
X12808430Y-10759184D02*
X12875097Y-10902041D01*
X12875097Y-10902041D02*
X12941763Y-10759184D01*
X12941763Y-10759184D02*
X12941763Y-10959184D01*
X13122716Y-10959184D02*
X13122716Y-10854422D01*
X13122716Y-10854422D02*
X13113192Y-10835374D01*
X13113192Y-10835374D02*
X13094144Y-10825850D01*
X13094144Y-10825850D02*
X13056049Y-10825850D01*
X13056049Y-10825850D02*
X13037002Y-10835374D01*
X13122716Y-10949660D02*
X13103668Y-10959184D01*
X13103668Y-10959184D02*
X13056049Y-10959184D01*
X13056049Y-10959184D02*
X13037002Y-10949660D01*
X13037002Y-10949660D02*
X13027478Y-10930612D01*
X13027478Y-10930612D02*
X13027478Y-10911565D01*
X13027478Y-10911565D02*
X13037002Y-10892517D01*
X13037002Y-10892517D02*
X13056049Y-10882993D01*
X13056049Y-10882993D02*
X13103668Y-10882993D01*
X13103668Y-10882993D02*
X13122716Y-10873470D01*
X13217954Y-10825850D02*
X13217954Y-11025850D01*
X13217954Y-10835374D02*
X13237002Y-10825850D01*
X13237002Y-10825850D02*
X13275097Y-10825850D01*
X13275097Y-10825850D02*
X13294144Y-10835374D01*
X13294144Y-10835374D02*
X13303668Y-10844898D01*
X13303668Y-10844898D02*
X13313192Y-10863946D01*
X13313192Y-10863946D02*
X13313192Y-10921089D01*
X13313192Y-10921089D02*
X13303668Y-10940136D01*
X13303668Y-10940136D02*
X13294144Y-10949660D01*
X13294144Y-10949660D02*
X13275097Y-10959184D01*
X13275097Y-10959184D02*
X13237002Y-10959184D01*
X13237002Y-10959184D02*
X13217954Y-10949660D01*
X13398906Y-10940136D02*
X13408430Y-10949660D01*
X13408430Y-10949660D02*
X13398906Y-10959184D01*
X13398906Y-10959184D02*
X13389383Y-10949660D01*
X13389383Y-10949660D02*
X13398906Y-10940136D01*
X13398906Y-10940136D02*
X13398906Y-10959184D01*
X13398906Y-10835374D02*
X13408430Y-10844898D01*
X13408430Y-10844898D02*
X13398906Y-10854422D01*
X13398906Y-10854422D02*
X13389383Y-10844898D01*
X13389383Y-10844898D02*
X13398906Y-10835374D01*
X13398906Y-10835374D02*
X13398906Y-10854422D01*
D11*
X11751701Y-11280200D02*
X11766701Y-11295200D01*
X11766701Y-11280200D02*
X11751701Y-11295200D01*
D10*
X12065573Y-11179184D02*
X12084621Y-11179184D01*
X12084621Y-11179184D02*
X12103668Y-11188708D01*
X12103668Y-11188708D02*
X12113192Y-11198231D01*
X12113192Y-11198231D02*
X12122716Y-11217279D01*
X12122716Y-11217279D02*
X12132240Y-11255374D01*
X12132240Y-11255374D02*
X12132240Y-11302993D01*
X12132240Y-11302993D02*
X12122716Y-11341088D01*
X12122716Y-11341088D02*
X12113192Y-11360136D01*
X12113192Y-11360136D02*
X12103668Y-11369660D01*
X12103668Y-11369660D02*
X12084621Y-11379184D01*
X12084621Y-11379184D02*
X12065573Y-11379184D01*
X12065573Y-11379184D02*
X12046525Y-11369660D01*
X12046525Y-11369660D02*
X12037002Y-11360136D01*
X12037002Y-11360136D02*
X12027478Y-11341088D01*
X12027478Y-11341088D02*
X12017954Y-11302993D01*
X12017954Y-11302993D02*
X12017954Y-11255374D01*
X12017954Y-11255374D02*
X12027478Y-11217279D01*
X12027478Y-11217279D02*
X12037002Y-11198231D01*
X12037002Y-11198231D02*
X12046525Y-11188708D01*
X12046525Y-11188708D02*
X12065573Y-11179184D01*
X12217954Y-11360136D02*
X12227478Y-11369660D01*
X12227478Y-11369660D02*
X12217954Y-11379184D01*
X12217954Y-11379184D02*
X12208430Y-11369660D01*
X12208430Y-11369660D02*
X12217954Y-11360136D01*
X12217954Y-11360136D02*
X12217954Y-11379184D01*
X12417954Y-11379184D02*
X12303668Y-11379184D01*
X12360811Y-11379184D02*
X12360811Y-11179184D01*
X12360811Y-11179184D02*
X12341763Y-11207755D01*
X12341763Y-11207755D02*
X12322716Y-11226803D01*
X12322716Y-11226803D02*
X12303668Y-11236327D01*
X12598906Y-11179184D02*
X12503668Y-11179184D01*
X12503668Y-11179184D02*
X12494144Y-11274422D01*
X12494144Y-11274422D02*
X12503668Y-11264898D01*
X12503668Y-11264898D02*
X12522716Y-11255374D01*
X12522716Y-11255374D02*
X12570335Y-11255374D01*
X12570335Y-11255374D02*
X12589383Y-11264898D01*
X12589383Y-11264898D02*
X12598906Y-11274422D01*
X12598906Y-11274422D02*
X12608430Y-11293469D01*
X12608430Y-11293469D02*
X12608430Y-11341088D01*
X12608430Y-11341088D02*
X12598906Y-11360136D01*
X12598906Y-11360136D02*
X12589383Y-11369660D01*
X12589383Y-11369660D02*
X12570335Y-11379184D01*
X12570335Y-11379184D02*
X12522716Y-11379184D01*
X12522716Y-11379184D02*
X12503668Y-11369660D01*
X12503668Y-11369660D02*
X12494144Y-11360136D01*
X12732240Y-11179184D02*
X12751287Y-11179184D01*
X12751287Y-11179184D02*
X12770335Y-11188708D01*
X12770335Y-11188708D02*
X12779859Y-11198231D01*
X12779859Y-11198231D02*
X12789383Y-11217279D01*
X12789383Y-11217279D02*
X12798906Y-11255374D01*
X12798906Y-11255374D02*
X12798906Y-11302993D01*
X12798906Y-11302993D02*
X12789383Y-11341088D01*
X12789383Y-11341088D02*
X12779859Y-11360136D01*
X12779859Y-11360136D02*
X12770335Y-11369660D01*
X12770335Y-11369660D02*
X12751287Y-11379184D01*
X12751287Y-11379184D02*
X12732240Y-11379184D01*
X12732240Y-11379184D02*
X12713192Y-11369660D01*
X12713192Y-11369660D02*
X12703668Y-11360136D01*
X12703668Y-11360136D02*
X12694144Y-11341088D01*
X12694144Y-11341088D02*
X12684621Y-11302993D01*
X12684621Y-11302993D02*
X12684621Y-11255374D01*
X12684621Y-11255374D02*
X12694144Y-11217279D01*
X12694144Y-11217279D02*
X12703668Y-11198231D01*
X12703668Y-11198231D02*
X12713192Y-11188708D01*
X12713192Y-11188708D02*
X12732240Y-11179184D01*
X12884621Y-11379184D02*
X12884621Y-11245850D01*
X12884621Y-11264898D02*
X12894144Y-11255374D01*
X12894144Y-11255374D02*
X12913192Y-11245850D01*
X12913192Y-11245850D02*
X12941764Y-11245850D01*
X12941764Y-11245850D02*
X12960811Y-11255374D01*
X12960811Y-11255374D02*
X12970335Y-11274422D01*
X12970335Y-11274422D02*
X12970335Y-11379184D01*
X12970335Y-11274422D02*
X12979859Y-11255374D01*
X12979859Y-11255374D02*
X12998906Y-11245850D01*
X12998906Y-11245850D02*
X13027478Y-11245850D01*
X13027478Y-11245850D02*
X13046525Y-11255374D01*
X13046525Y-11255374D02*
X13056049Y-11274422D01*
X13056049Y-11274422D02*
X13056049Y-11379184D01*
X13151287Y-11379184D02*
X13151287Y-11245850D01*
X13151287Y-11264898D02*
X13160811Y-11255374D01*
X13160811Y-11255374D02*
X13179859Y-11245850D01*
X13179859Y-11245850D02*
X13208430Y-11245850D01*
X13208430Y-11245850D02*
X13227478Y-11255374D01*
X13227478Y-11255374D02*
X13237002Y-11274422D01*
X13237002Y-11274422D02*
X13237002Y-11379184D01*
X13237002Y-11274422D02*
X13246525Y-11255374D01*
X13246525Y-11255374D02*
X13265573Y-11245850D01*
X13265573Y-11245850D02*
X13294144Y-11245850D01*
X13294144Y-11245850D02*
X13313192Y-11255374D01*
X13313192Y-11255374D02*
X13322716Y-11274422D01*
X13322716Y-11274422D02*
X13322716Y-11379184D01*
X13713192Y-11169660D02*
X13541764Y-11426803D01*
X13970335Y-11179184D02*
X13989383Y-11179184D01*
X13989383Y-11179184D02*
X14008430Y-11188708D01*
X14008430Y-11188708D02*
X14017954Y-11198231D01*
X14017954Y-11198231D02*
X14027478Y-11217279D01*
X14027478Y-11217279D02*
X14037002Y-11255374D01*
X14037002Y-11255374D02*
X14037002Y-11302993D01*
X14037002Y-11302993D02*
X14027478Y-11341088D01*
X14027478Y-11341088D02*
X14017954Y-11360136D01*
X14017954Y-11360136D02*
X14008430Y-11369660D01*
X14008430Y-11369660D02*
X13989383Y-11379184D01*
X13989383Y-11379184D02*
X13970335Y-11379184D01*
X13970335Y-11379184D02*
X13951287Y-11369660D01*
X13951287Y-11369660D02*
X13941764Y-11360136D01*
X13941764Y-11360136D02*
X13932240Y-11341088D01*
X13932240Y-11341088D02*
X13922716Y-11302993D01*
X13922716Y-11302993D02*
X13922716Y-11255374D01*
X13922716Y-11255374D02*
X13932240Y-11217279D01*
X13932240Y-11217279D02*
X13941764Y-11198231D01*
X13941764Y-11198231D02*
X13951287Y-11188708D01*
X13951287Y-11188708D02*
X13970335Y-11179184D01*
X14122716Y-11360136D02*
X14132240Y-11369660D01*
X14132240Y-11369660D02*
X14122716Y-11379184D01*
X14122716Y-11379184D02*
X14113192Y-11369660D01*
X14113192Y-11369660D02*
X14122716Y-11360136D01*
X14122716Y-11360136D02*
X14122716Y-11379184D01*
X14256049Y-11179184D02*
X14275097Y-11179184D01*
X14275097Y-11179184D02*
X14294145Y-11188708D01*
X14294145Y-11188708D02*
X14303668Y-11198231D01*
X14303668Y-11198231D02*
X14313192Y-11217279D01*
X14313192Y-11217279D02*
X14322716Y-11255374D01*
X14322716Y-11255374D02*
X14322716Y-11302993D01*
X14322716Y-11302993D02*
X14313192Y-11341088D01*
X14313192Y-11341088D02*
X14303668Y-11360136D01*
X14303668Y-11360136D02*
X14294145Y-11369660D01*
X14294145Y-11369660D02*
X14275097Y-11379184D01*
X14275097Y-11379184D02*
X14256049Y-11379184D01*
X14256049Y-11379184D02*
X14237002Y-11369660D01*
X14237002Y-11369660D02*
X14227478Y-11360136D01*
X14227478Y-11360136D02*
X14217954Y-11341088D01*
X14217954Y-11341088D02*
X14208430Y-11302993D01*
X14208430Y-11302993D02*
X14208430Y-11255374D01*
X14208430Y-11255374D02*
X14217954Y-11217279D01*
X14217954Y-11217279D02*
X14227478Y-11198231D01*
X14227478Y-11198231D02*
X14237002Y-11188708D01*
X14237002Y-11188708D02*
X14256049Y-11179184D01*
X14446526Y-11179184D02*
X14465573Y-11179184D01*
X14465573Y-11179184D02*
X14484621Y-11188708D01*
X14484621Y-11188708D02*
X14494145Y-11198231D01*
X14494145Y-11198231D02*
X14503668Y-11217279D01*
X14503668Y-11217279D02*
X14513192Y-11255374D01*
X14513192Y-11255374D02*
X14513192Y-11302993D01*
X14513192Y-11302993D02*
X14503668Y-11341088D01*
X14503668Y-11341088D02*
X14494145Y-11360136D01*
X14494145Y-11360136D02*
X14484621Y-11369660D01*
X14484621Y-11369660D02*
X14465573Y-11379184D01*
X14465573Y-11379184D02*
X14446526Y-11379184D01*
X14446526Y-11379184D02*
X14427478Y-11369660D01*
X14427478Y-11369660D02*
X14417954Y-11360136D01*
X14417954Y-11360136D02*
X14408430Y-11341088D01*
X14408430Y-11341088D02*
X14398907Y-11302993D01*
X14398907Y-11302993D02*
X14398907Y-11255374D01*
X14398907Y-11255374D02*
X14408430Y-11217279D01*
X14408430Y-11217279D02*
X14417954Y-11198231D01*
X14417954Y-11198231D02*
X14427478Y-11188708D01*
X14427478Y-11188708D02*
X14446526Y-11179184D01*
X14694145Y-11179184D02*
X14598907Y-11179184D01*
X14598907Y-11179184D02*
X14589383Y-11274422D01*
X14589383Y-11274422D02*
X14598907Y-11264898D01*
X14598907Y-11264898D02*
X14617954Y-11255374D01*
X14617954Y-11255374D02*
X14665573Y-11255374D01*
X14665573Y-11255374D02*
X14684621Y-11264898D01*
X14684621Y-11264898D02*
X14694145Y-11274422D01*
X14694145Y-11274422D02*
X14703668Y-11293469D01*
X14703668Y-11293469D02*
X14703668Y-11341088D01*
X14703668Y-11341088D02*
X14694145Y-11360136D01*
X14694145Y-11360136D02*
X14684621Y-11369660D01*
X14684621Y-11369660D02*
X14665573Y-11379184D01*
X14665573Y-11379184D02*
X14617954Y-11379184D01*
X14617954Y-11379184D02*
X14598907Y-11369660D01*
X14598907Y-11369660D02*
X14589383Y-11360136D01*
X14798907Y-11379184D02*
X14837002Y-11379184D01*
X14837002Y-11379184D02*
X14856049Y-11369660D01*
X14856049Y-11369660D02*
X14865573Y-11360136D01*
X14865573Y-11360136D02*
X14884621Y-11331565D01*
X14884621Y-11331565D02*
X14894145Y-11293469D01*
X14894145Y-11293469D02*
X14894145Y-11217279D01*
X14894145Y-11217279D02*
X14884621Y-11198231D01*
X14884621Y-11198231D02*
X14875097Y-11188708D01*
X14875097Y-11188708D02*
X14856049Y-11179184D01*
X14856049Y-11179184D02*
X14817954Y-11179184D01*
X14817954Y-11179184D02*
X14798907Y-11188708D01*
X14798907Y-11188708D02*
X14789383Y-11198231D01*
X14789383Y-11198231D02*
X14779859Y-11217279D01*
X14779859Y-11217279D02*
X14779859Y-11264898D01*
X14779859Y-11264898D02*
X14789383Y-11283946D01*
X14789383Y-11283946D02*
X14798907Y-11293469D01*
X14798907Y-11293469D02*
X14817954Y-11302993D01*
X14817954Y-11302993D02*
X14856049Y-11302993D01*
X14856049Y-11302993D02*
X14875097Y-11293469D01*
X14875097Y-11293469D02*
X14884621Y-11283946D01*
X14884621Y-11283946D02*
X14894145Y-11264898D01*
X14970335Y-11179184D02*
X14970335Y-11217279D01*
X15046526Y-11179184D02*
X15046526Y-11217279D01*
X15341764Y-11455374D02*
X15332240Y-11445850D01*
X15332240Y-11445850D02*
X15313192Y-11417279D01*
X15313192Y-11417279D02*
X15303669Y-11398231D01*
X15303669Y-11398231D02*
X15294145Y-11369660D01*
X15294145Y-11369660D02*
X15284621Y-11322041D01*
X15284621Y-11322041D02*
X15284621Y-11283946D01*
X15284621Y-11283946D02*
X15294145Y-11236327D01*
X15294145Y-11236327D02*
X15303669Y-11207755D01*
X15303669Y-11207755D02*
X15313192Y-11188708D01*
X15313192Y-11188708D02*
X15332240Y-11160136D01*
X15332240Y-11160136D02*
X15341764Y-11150612D01*
X15503669Y-11245850D02*
X15503669Y-11379184D01*
X15456049Y-11169660D02*
X15408430Y-11312517D01*
X15408430Y-11312517D02*
X15532240Y-11312517D01*
X15760811Y-11379184D02*
X15760811Y-11179184D01*
X15846526Y-11379184D02*
X15846526Y-11274422D01*
X15846526Y-11274422D02*
X15837002Y-11255374D01*
X15837002Y-11255374D02*
X15817954Y-11245850D01*
X15817954Y-11245850D02*
X15789383Y-11245850D01*
X15789383Y-11245850D02*
X15770335Y-11255374D01*
X15770335Y-11255374D02*
X15760811Y-11264898D01*
X15970335Y-11379184D02*
X15951288Y-11369660D01*
X15951288Y-11369660D02*
X15941764Y-11360136D01*
X15941764Y-11360136D02*
X15932240Y-11341088D01*
X15932240Y-11341088D02*
X15932240Y-11283946D01*
X15932240Y-11283946D02*
X15941764Y-11264898D01*
X15941764Y-11264898D02*
X15951288Y-11255374D01*
X15951288Y-11255374D02*
X15970335Y-11245850D01*
X15970335Y-11245850D02*
X15998907Y-11245850D01*
X15998907Y-11245850D02*
X16017954Y-11255374D01*
X16017954Y-11255374D02*
X16027478Y-11264898D01*
X16027478Y-11264898D02*
X16037002Y-11283946D01*
X16037002Y-11283946D02*
X16037002Y-11341088D01*
X16037002Y-11341088D02*
X16027478Y-11360136D01*
X16027478Y-11360136D02*
X16017954Y-11369660D01*
X16017954Y-11369660D02*
X15998907Y-11379184D01*
X15998907Y-11379184D02*
X15970335Y-11379184D01*
X16151288Y-11379184D02*
X16132240Y-11369660D01*
X16132240Y-11369660D02*
X16122716Y-11350612D01*
X16122716Y-11350612D02*
X16122716Y-11179184D01*
X16303669Y-11369660D02*
X16284621Y-11379184D01*
X16284621Y-11379184D02*
X16246526Y-11379184D01*
X16246526Y-11379184D02*
X16227478Y-11369660D01*
X16227478Y-11369660D02*
X16217954Y-11350612D01*
X16217954Y-11350612D02*
X16217954Y-11274422D01*
X16217954Y-11274422D02*
X16227478Y-11255374D01*
X16227478Y-11255374D02*
X16246526Y-11245850D01*
X16246526Y-11245850D02*
X16284621Y-11245850D01*
X16284621Y-11245850D02*
X16303669Y-11255374D01*
X16303669Y-11255374D02*
X16313192Y-11274422D01*
X16313192Y-11274422D02*
X16313192Y-11293469D01*
X16313192Y-11293469D02*
X16217954Y-11312517D01*
X16389383Y-11369660D02*
X16408431Y-11379184D01*
X16408431Y-11379184D02*
X16446526Y-11379184D01*
X16446526Y-11379184D02*
X16465573Y-11369660D01*
X16465573Y-11369660D02*
X16475097Y-11350612D01*
X16475097Y-11350612D02*
X16475097Y-11341088D01*
X16475097Y-11341088D02*
X16465573Y-11322041D01*
X16465573Y-11322041D02*
X16446526Y-11312517D01*
X16446526Y-11312517D02*
X16417954Y-11312517D01*
X16417954Y-11312517D02*
X16398907Y-11302993D01*
X16398907Y-11302993D02*
X16389383Y-11283946D01*
X16389383Y-11283946D02*
X16389383Y-11274422D01*
X16389383Y-11274422D02*
X16398907Y-11255374D01*
X16398907Y-11255374D02*
X16417954Y-11245850D01*
X16417954Y-11245850D02*
X16446526Y-11245850D01*
X16446526Y-11245850D02*
X16465573Y-11255374D01*
X16541764Y-11455374D02*
X16551288Y-11445850D01*
X16551288Y-11445850D02*
X16570335Y-11417279D01*
X16570335Y-11417279D02*
X16579859Y-11398231D01*
X16579859Y-11398231D02*
X16589383Y-11369660D01*
X16589383Y-11369660D02*
X16598907Y-11322041D01*
X16598907Y-11322041D02*
X16598907Y-11283946D01*
X16598907Y-11283946D02*
X16589383Y-11236327D01*
X16589383Y-11236327D02*
X16579859Y-11207755D01*
X16579859Y-11207755D02*
X16570335Y-11188708D01*
X16570335Y-11188708D02*
X16551288Y-11160136D01*
X16551288Y-11160136D02*
X16541764Y-11150612D01*
D11*
X11766701Y-11551700D02*
G75*
G03*
X11726701Y-11551700I-20000J0D01*
G01*
X11726701Y-11551700D02*
G75*
G03*
X11766701Y-11551700I20000J0D01*
G01*
D10*
X12065573Y-11443184D02*
X12084621Y-11443184D01*
X12084621Y-11443184D02*
X12103668Y-11452708D01*
X12103668Y-11452708D02*
X12113192Y-11462231D01*
X12113192Y-11462231D02*
X12122716Y-11481279D01*
X12122716Y-11481279D02*
X12132240Y-11519374D01*
X12132240Y-11519374D02*
X12132240Y-11566993D01*
X12132240Y-11566993D02*
X12122716Y-11605088D01*
X12122716Y-11605088D02*
X12113192Y-11624136D01*
X12113192Y-11624136D02*
X12103668Y-11633660D01*
X12103668Y-11633660D02*
X12084621Y-11643184D01*
X12084621Y-11643184D02*
X12065573Y-11643184D01*
X12065573Y-11643184D02*
X12046525Y-11633660D01*
X12046525Y-11633660D02*
X12037002Y-11624136D01*
X12037002Y-11624136D02*
X12027478Y-11605088D01*
X12027478Y-11605088D02*
X12017954Y-11566993D01*
X12017954Y-11566993D02*
X12017954Y-11519374D01*
X12017954Y-11519374D02*
X12027478Y-11481279D01*
X12027478Y-11481279D02*
X12037002Y-11462231D01*
X12037002Y-11462231D02*
X12046525Y-11452708D01*
X12046525Y-11452708D02*
X12065573Y-11443184D01*
X12217954Y-11624136D02*
X12227478Y-11633660D01*
X12227478Y-11633660D02*
X12217954Y-11643184D01*
X12217954Y-11643184D02*
X12208430Y-11633660D01*
X12208430Y-11633660D02*
X12217954Y-11624136D01*
X12217954Y-11624136D02*
X12217954Y-11643184D01*
X12398906Y-11509850D02*
X12398906Y-11643184D01*
X12351287Y-11433660D02*
X12303668Y-11576517D01*
X12303668Y-11576517D02*
X12427478Y-11576517D01*
X12541763Y-11443184D02*
X12560811Y-11443184D01*
X12560811Y-11443184D02*
X12579859Y-11452708D01*
X12579859Y-11452708D02*
X12589383Y-11462231D01*
X12589383Y-11462231D02*
X12598906Y-11481279D01*
X12598906Y-11481279D02*
X12608430Y-11519374D01*
X12608430Y-11519374D02*
X12608430Y-11566993D01*
X12608430Y-11566993D02*
X12598906Y-11605088D01*
X12598906Y-11605088D02*
X12589383Y-11624136D01*
X12589383Y-11624136D02*
X12579859Y-11633660D01*
X12579859Y-11633660D02*
X12560811Y-11643184D01*
X12560811Y-11643184D02*
X12541763Y-11643184D01*
X12541763Y-11643184D02*
X12522716Y-11633660D01*
X12522716Y-11633660D02*
X12513192Y-11624136D01*
X12513192Y-11624136D02*
X12503668Y-11605088D01*
X12503668Y-11605088D02*
X12494144Y-11566993D01*
X12494144Y-11566993D02*
X12494144Y-11519374D01*
X12494144Y-11519374D02*
X12503668Y-11481279D01*
X12503668Y-11481279D02*
X12513192Y-11462231D01*
X12513192Y-11462231D02*
X12522716Y-11452708D01*
X12522716Y-11452708D02*
X12541763Y-11443184D01*
X12732240Y-11443184D02*
X12751287Y-11443184D01*
X12751287Y-11443184D02*
X12770335Y-11452708D01*
X12770335Y-11452708D02*
X12779859Y-11462231D01*
X12779859Y-11462231D02*
X12789383Y-11481279D01*
X12789383Y-11481279D02*
X12798906Y-11519374D01*
X12798906Y-11519374D02*
X12798906Y-11566993D01*
X12798906Y-11566993D02*
X12789383Y-11605088D01*
X12789383Y-11605088D02*
X12779859Y-11624136D01*
X12779859Y-11624136D02*
X12770335Y-11633660D01*
X12770335Y-11633660D02*
X12751287Y-11643184D01*
X12751287Y-11643184D02*
X12732240Y-11643184D01*
X12732240Y-11643184D02*
X12713192Y-11633660D01*
X12713192Y-11633660D02*
X12703668Y-11624136D01*
X12703668Y-11624136D02*
X12694144Y-11605088D01*
X12694144Y-11605088D02*
X12684621Y-11566993D01*
X12684621Y-11566993D02*
X12684621Y-11519374D01*
X12684621Y-11519374D02*
X12694144Y-11481279D01*
X12694144Y-11481279D02*
X12703668Y-11462231D01*
X12703668Y-11462231D02*
X12713192Y-11452708D01*
X12713192Y-11452708D02*
X12732240Y-11443184D01*
X12884621Y-11643184D02*
X12884621Y-11509850D01*
X12884621Y-11528898D02*
X12894144Y-11519374D01*
X12894144Y-11519374D02*
X12913192Y-11509850D01*
X12913192Y-11509850D02*
X12941764Y-11509850D01*
X12941764Y-11509850D02*
X12960811Y-11519374D01*
X12960811Y-11519374D02*
X12970335Y-11538422D01*
X12970335Y-11538422D02*
X12970335Y-11643184D01*
X12970335Y-11538422D02*
X12979859Y-11519374D01*
X12979859Y-11519374D02*
X12998906Y-11509850D01*
X12998906Y-11509850D02*
X13027478Y-11509850D01*
X13027478Y-11509850D02*
X13046525Y-11519374D01*
X13046525Y-11519374D02*
X13056049Y-11538422D01*
X13056049Y-11538422D02*
X13056049Y-11643184D01*
X13151287Y-11643184D02*
X13151287Y-11509850D01*
X13151287Y-11528898D02*
X13160811Y-11519374D01*
X13160811Y-11519374D02*
X13179859Y-11509850D01*
X13179859Y-11509850D02*
X13208430Y-11509850D01*
X13208430Y-11509850D02*
X13227478Y-11519374D01*
X13227478Y-11519374D02*
X13237002Y-11538422D01*
X13237002Y-11538422D02*
X13237002Y-11643184D01*
X13237002Y-11538422D02*
X13246525Y-11519374D01*
X13246525Y-11519374D02*
X13265573Y-11509850D01*
X13265573Y-11509850D02*
X13294144Y-11509850D01*
X13294144Y-11509850D02*
X13313192Y-11519374D01*
X13313192Y-11519374D02*
X13322716Y-11538422D01*
X13322716Y-11538422D02*
X13322716Y-11643184D01*
X13713192Y-11433660D02*
X13541764Y-11690803D01*
X13970335Y-11443184D02*
X13989383Y-11443184D01*
X13989383Y-11443184D02*
X14008430Y-11452708D01*
X14008430Y-11452708D02*
X14017954Y-11462231D01*
X14017954Y-11462231D02*
X14027478Y-11481279D01*
X14027478Y-11481279D02*
X14037002Y-11519374D01*
X14037002Y-11519374D02*
X14037002Y-11566993D01*
X14037002Y-11566993D02*
X14027478Y-11605088D01*
X14027478Y-11605088D02*
X14017954Y-11624136D01*
X14017954Y-11624136D02*
X14008430Y-11633660D01*
X14008430Y-11633660D02*
X13989383Y-11643184D01*
X13989383Y-11643184D02*
X13970335Y-11643184D01*
X13970335Y-11643184D02*
X13951287Y-11633660D01*
X13951287Y-11633660D02*
X13941764Y-11624136D01*
X13941764Y-11624136D02*
X13932240Y-11605088D01*
X13932240Y-11605088D02*
X13922716Y-11566993D01*
X13922716Y-11566993D02*
X13922716Y-11519374D01*
X13922716Y-11519374D02*
X13932240Y-11481279D01*
X13932240Y-11481279D02*
X13941764Y-11462231D01*
X13941764Y-11462231D02*
X13951287Y-11452708D01*
X13951287Y-11452708D02*
X13970335Y-11443184D01*
X14122716Y-11624136D02*
X14132240Y-11633660D01*
X14132240Y-11633660D02*
X14122716Y-11643184D01*
X14122716Y-11643184D02*
X14113192Y-11633660D01*
X14113192Y-11633660D02*
X14122716Y-11624136D01*
X14122716Y-11624136D02*
X14122716Y-11643184D01*
X14256049Y-11443184D02*
X14275097Y-11443184D01*
X14275097Y-11443184D02*
X14294145Y-11452708D01*
X14294145Y-11452708D02*
X14303668Y-11462231D01*
X14303668Y-11462231D02*
X14313192Y-11481279D01*
X14313192Y-11481279D02*
X14322716Y-11519374D01*
X14322716Y-11519374D02*
X14322716Y-11566993D01*
X14322716Y-11566993D02*
X14313192Y-11605088D01*
X14313192Y-11605088D02*
X14303668Y-11624136D01*
X14303668Y-11624136D02*
X14294145Y-11633660D01*
X14294145Y-11633660D02*
X14275097Y-11643184D01*
X14275097Y-11643184D02*
X14256049Y-11643184D01*
X14256049Y-11643184D02*
X14237002Y-11633660D01*
X14237002Y-11633660D02*
X14227478Y-11624136D01*
X14227478Y-11624136D02*
X14217954Y-11605088D01*
X14217954Y-11605088D02*
X14208430Y-11566993D01*
X14208430Y-11566993D02*
X14208430Y-11519374D01*
X14208430Y-11519374D02*
X14217954Y-11481279D01*
X14217954Y-11481279D02*
X14227478Y-11462231D01*
X14227478Y-11462231D02*
X14237002Y-11452708D01*
X14237002Y-11452708D02*
X14256049Y-11443184D01*
X14513192Y-11643184D02*
X14398907Y-11643184D01*
X14456049Y-11643184D02*
X14456049Y-11443184D01*
X14456049Y-11443184D02*
X14437002Y-11471755D01*
X14437002Y-11471755D02*
X14417954Y-11490803D01*
X14417954Y-11490803D02*
X14398907Y-11500327D01*
X14694145Y-11443184D02*
X14598907Y-11443184D01*
X14598907Y-11443184D02*
X14589383Y-11538422D01*
X14589383Y-11538422D02*
X14598907Y-11528898D01*
X14598907Y-11528898D02*
X14617954Y-11519374D01*
X14617954Y-11519374D02*
X14665573Y-11519374D01*
X14665573Y-11519374D02*
X14684621Y-11528898D01*
X14684621Y-11528898D02*
X14694145Y-11538422D01*
X14694145Y-11538422D02*
X14703668Y-11557469D01*
X14703668Y-11557469D02*
X14703668Y-11605088D01*
X14703668Y-11605088D02*
X14694145Y-11624136D01*
X14694145Y-11624136D02*
X14684621Y-11633660D01*
X14684621Y-11633660D02*
X14665573Y-11643184D01*
X14665573Y-11643184D02*
X14617954Y-11643184D01*
X14617954Y-11643184D02*
X14598907Y-11633660D01*
X14598907Y-11633660D02*
X14589383Y-11624136D01*
X14770335Y-11443184D02*
X14903668Y-11443184D01*
X14903668Y-11443184D02*
X14817954Y-11643184D01*
X14970335Y-11443184D02*
X14970335Y-11481279D01*
X15046526Y-11443184D02*
X15046526Y-11481279D01*
X15341764Y-11719374D02*
X15332240Y-11709850D01*
X15332240Y-11709850D02*
X15313192Y-11681279D01*
X15313192Y-11681279D02*
X15303669Y-11662231D01*
X15303669Y-11662231D02*
X15294145Y-11633660D01*
X15294145Y-11633660D02*
X15284621Y-11586041D01*
X15284621Y-11586041D02*
X15284621Y-11547946D01*
X15284621Y-11547946D02*
X15294145Y-11500327D01*
X15294145Y-11500327D02*
X15303669Y-11471755D01*
X15303669Y-11471755D02*
X15313192Y-11452708D01*
X15313192Y-11452708D02*
X15332240Y-11424136D01*
X15332240Y-11424136D02*
X15341764Y-11414612D01*
X15398907Y-11443184D02*
X15532240Y-11443184D01*
X15532240Y-11443184D02*
X15446526Y-11643184D01*
X15617954Y-11643184D02*
X15656049Y-11643184D01*
X15656049Y-11643184D02*
X15675097Y-11633660D01*
X15675097Y-11633660D02*
X15684621Y-11624136D01*
X15684621Y-11624136D02*
X15703669Y-11595565D01*
X15703669Y-11595565D02*
X15713192Y-11557469D01*
X15713192Y-11557469D02*
X15713192Y-11481279D01*
X15713192Y-11481279D02*
X15703669Y-11462231D01*
X15703669Y-11462231D02*
X15694145Y-11452708D01*
X15694145Y-11452708D02*
X15675097Y-11443184D01*
X15675097Y-11443184D02*
X15637002Y-11443184D01*
X15637002Y-11443184D02*
X15617954Y-11452708D01*
X15617954Y-11452708D02*
X15608430Y-11462231D01*
X15608430Y-11462231D02*
X15598907Y-11481279D01*
X15598907Y-11481279D02*
X15598907Y-11528898D01*
X15598907Y-11528898D02*
X15608430Y-11547946D01*
X15608430Y-11547946D02*
X15617954Y-11557469D01*
X15617954Y-11557469D02*
X15637002Y-11566993D01*
X15637002Y-11566993D02*
X15675097Y-11566993D01*
X15675097Y-11566993D02*
X15694145Y-11557469D01*
X15694145Y-11557469D02*
X15703669Y-11547946D01*
X15703669Y-11547946D02*
X15713192Y-11528898D01*
X15951288Y-11643184D02*
X15951288Y-11443184D01*
X16037002Y-11643184D02*
X16037002Y-11538422D01*
X16037002Y-11538422D02*
X16027478Y-11519374D01*
X16027478Y-11519374D02*
X16008431Y-11509850D01*
X16008431Y-11509850D02*
X15979859Y-11509850D01*
X15979859Y-11509850D02*
X15960811Y-11519374D01*
X15960811Y-11519374D02*
X15951288Y-11528898D01*
X16160811Y-11643184D02*
X16141764Y-11633660D01*
X16141764Y-11633660D02*
X16132240Y-11624136D01*
X16132240Y-11624136D02*
X16122716Y-11605088D01*
X16122716Y-11605088D02*
X16122716Y-11547946D01*
X16122716Y-11547946D02*
X16132240Y-11528898D01*
X16132240Y-11528898D02*
X16141764Y-11519374D01*
X16141764Y-11519374D02*
X16160811Y-11509850D01*
X16160811Y-11509850D02*
X16189383Y-11509850D01*
X16189383Y-11509850D02*
X16208431Y-11519374D01*
X16208431Y-11519374D02*
X16217954Y-11528898D01*
X16217954Y-11528898D02*
X16227478Y-11547946D01*
X16227478Y-11547946D02*
X16227478Y-11605088D01*
X16227478Y-11605088D02*
X16217954Y-11624136D01*
X16217954Y-11624136D02*
X16208431Y-11633660D01*
X16208431Y-11633660D02*
X16189383Y-11643184D01*
X16189383Y-11643184D02*
X16160811Y-11643184D01*
X16341764Y-11643184D02*
X16322716Y-11633660D01*
X16322716Y-11633660D02*
X16313192Y-11614612D01*
X16313192Y-11614612D02*
X16313192Y-11443184D01*
X16494145Y-11633660D02*
X16475097Y-11643184D01*
X16475097Y-11643184D02*
X16437002Y-11643184D01*
X16437002Y-11643184D02*
X16417954Y-11633660D01*
X16417954Y-11633660D02*
X16408431Y-11614612D01*
X16408431Y-11614612D02*
X16408431Y-11538422D01*
X16408431Y-11538422D02*
X16417954Y-11519374D01*
X16417954Y-11519374D02*
X16437002Y-11509850D01*
X16437002Y-11509850D02*
X16475097Y-11509850D01*
X16475097Y-11509850D02*
X16494145Y-11519374D01*
X16494145Y-11519374D02*
X16503669Y-11538422D01*
X16503669Y-11538422D02*
X16503669Y-11557469D01*
X16503669Y-11557469D02*
X16408431Y-11576517D01*
X16579859Y-11633660D02*
X16598907Y-11643184D01*
X16598907Y-11643184D02*
X16637002Y-11643184D01*
X16637002Y-11643184D02*
X16656050Y-11633660D01*
X16656050Y-11633660D02*
X16665573Y-11614612D01*
X16665573Y-11614612D02*
X16665573Y-11605088D01*
X16665573Y-11605088D02*
X16656050Y-11586041D01*
X16656050Y-11586041D02*
X16637002Y-11576517D01*
X16637002Y-11576517D02*
X16608431Y-11576517D01*
X16608431Y-11576517D02*
X16589383Y-11566993D01*
X16589383Y-11566993D02*
X16579859Y-11547946D01*
X16579859Y-11547946D02*
X16579859Y-11538422D01*
X16579859Y-11538422D02*
X16589383Y-11519374D01*
X16589383Y-11519374D02*
X16608431Y-11509850D01*
X16608431Y-11509850D02*
X16637002Y-11509850D01*
X16637002Y-11509850D02*
X16656050Y-11519374D01*
X16732240Y-11719374D02*
X16741764Y-11709850D01*
X16741764Y-11709850D02*
X16760812Y-11681279D01*
X16760812Y-11681279D02*
X16770335Y-11662231D01*
X16770335Y-11662231D02*
X16779859Y-11633660D01*
X16779859Y-11633660D02*
X16789383Y-11586041D01*
X16789383Y-11586041D02*
X16789383Y-11547946D01*
X16789383Y-11547946D02*
X16779859Y-11500327D01*
X16779859Y-11500327D02*
X16770335Y-11471755D01*
X16770335Y-11471755D02*
X16760812Y-11452708D01*
X16760812Y-11452708D02*
X16741764Y-11424136D01*
X16741764Y-11424136D02*
X16732240Y-11414612D01*
D11*
X11731701Y-11780700D02*
X11731701Y-11850700D01*
X11696701Y-11815700D02*
X11766701Y-11815700D01*
D10*
X12065573Y-11707184D02*
X12084621Y-11707184D01*
X12084621Y-11707184D02*
X12103668Y-11716708D01*
X12103668Y-11716708D02*
X12113192Y-11726231D01*
X12113192Y-11726231D02*
X12122716Y-11745279D01*
X12122716Y-11745279D02*
X12132240Y-11783374D01*
X12132240Y-11783374D02*
X12132240Y-11830993D01*
X12132240Y-11830993D02*
X12122716Y-11869088D01*
X12122716Y-11869088D02*
X12113192Y-11888136D01*
X12113192Y-11888136D02*
X12103668Y-11897660D01*
X12103668Y-11897660D02*
X12084621Y-11907184D01*
X12084621Y-11907184D02*
X12065573Y-11907184D01*
X12065573Y-11907184D02*
X12046525Y-11897660D01*
X12046525Y-11897660D02*
X12037002Y-11888136D01*
X12037002Y-11888136D02*
X12027478Y-11869088D01*
X12027478Y-11869088D02*
X12017954Y-11830993D01*
X12017954Y-11830993D02*
X12017954Y-11783374D01*
X12017954Y-11783374D02*
X12027478Y-11745279D01*
X12027478Y-11745279D02*
X12037002Y-11726231D01*
X12037002Y-11726231D02*
X12046525Y-11716708D01*
X12046525Y-11716708D02*
X12065573Y-11707184D01*
X12217954Y-11888136D02*
X12227478Y-11897660D01*
X12227478Y-11897660D02*
X12217954Y-11907184D01*
X12217954Y-11907184D02*
X12208430Y-11897660D01*
X12208430Y-11897660D02*
X12217954Y-11888136D01*
X12217954Y-11888136D02*
X12217954Y-11907184D01*
X12294144Y-11707184D02*
X12427478Y-11707184D01*
X12427478Y-11707184D02*
X12341763Y-11907184D01*
X12541763Y-11707184D02*
X12560811Y-11707184D01*
X12560811Y-11707184D02*
X12579859Y-11716708D01*
X12579859Y-11716708D02*
X12589383Y-11726231D01*
X12589383Y-11726231D02*
X12598906Y-11745279D01*
X12598906Y-11745279D02*
X12608430Y-11783374D01*
X12608430Y-11783374D02*
X12608430Y-11830993D01*
X12608430Y-11830993D02*
X12598906Y-11869088D01*
X12598906Y-11869088D02*
X12589383Y-11888136D01*
X12589383Y-11888136D02*
X12579859Y-11897660D01*
X12579859Y-11897660D02*
X12560811Y-11907184D01*
X12560811Y-11907184D02*
X12541763Y-11907184D01*
X12541763Y-11907184D02*
X12522716Y-11897660D01*
X12522716Y-11897660D02*
X12513192Y-11888136D01*
X12513192Y-11888136D02*
X12503668Y-11869088D01*
X12503668Y-11869088D02*
X12494144Y-11830993D01*
X12494144Y-11830993D02*
X12494144Y-11783374D01*
X12494144Y-11783374D02*
X12503668Y-11745279D01*
X12503668Y-11745279D02*
X12513192Y-11726231D01*
X12513192Y-11726231D02*
X12522716Y-11716708D01*
X12522716Y-11716708D02*
X12541763Y-11707184D01*
X12732240Y-11707184D02*
X12751287Y-11707184D01*
X12751287Y-11707184D02*
X12770335Y-11716708D01*
X12770335Y-11716708D02*
X12779859Y-11726231D01*
X12779859Y-11726231D02*
X12789383Y-11745279D01*
X12789383Y-11745279D02*
X12798906Y-11783374D01*
X12798906Y-11783374D02*
X12798906Y-11830993D01*
X12798906Y-11830993D02*
X12789383Y-11869088D01*
X12789383Y-11869088D02*
X12779859Y-11888136D01*
X12779859Y-11888136D02*
X12770335Y-11897660D01*
X12770335Y-11897660D02*
X12751287Y-11907184D01*
X12751287Y-11907184D02*
X12732240Y-11907184D01*
X12732240Y-11907184D02*
X12713192Y-11897660D01*
X12713192Y-11897660D02*
X12703668Y-11888136D01*
X12703668Y-11888136D02*
X12694144Y-11869088D01*
X12694144Y-11869088D02*
X12684621Y-11830993D01*
X12684621Y-11830993D02*
X12684621Y-11783374D01*
X12684621Y-11783374D02*
X12694144Y-11745279D01*
X12694144Y-11745279D02*
X12703668Y-11726231D01*
X12703668Y-11726231D02*
X12713192Y-11716708D01*
X12713192Y-11716708D02*
X12732240Y-11707184D01*
X12884621Y-11907184D02*
X12884621Y-11773850D01*
X12884621Y-11792898D02*
X12894144Y-11783374D01*
X12894144Y-11783374D02*
X12913192Y-11773850D01*
X12913192Y-11773850D02*
X12941764Y-11773850D01*
X12941764Y-11773850D02*
X12960811Y-11783374D01*
X12960811Y-11783374D02*
X12970335Y-11802422D01*
X12970335Y-11802422D02*
X12970335Y-11907184D01*
X12970335Y-11802422D02*
X12979859Y-11783374D01*
X12979859Y-11783374D02*
X12998906Y-11773850D01*
X12998906Y-11773850D02*
X13027478Y-11773850D01*
X13027478Y-11773850D02*
X13046525Y-11783374D01*
X13046525Y-11783374D02*
X13056049Y-11802422D01*
X13056049Y-11802422D02*
X13056049Y-11907184D01*
X13151287Y-11907184D02*
X13151287Y-11773850D01*
X13151287Y-11792898D02*
X13160811Y-11783374D01*
X13160811Y-11783374D02*
X13179859Y-11773850D01*
X13179859Y-11773850D02*
X13208430Y-11773850D01*
X13208430Y-11773850D02*
X13227478Y-11783374D01*
X13227478Y-11783374D02*
X13237002Y-11802422D01*
X13237002Y-11802422D02*
X13237002Y-11907184D01*
X13237002Y-11802422D02*
X13246525Y-11783374D01*
X13246525Y-11783374D02*
X13265573Y-11773850D01*
X13265573Y-11773850D02*
X13294144Y-11773850D01*
X13294144Y-11773850D02*
X13313192Y-11783374D01*
X13313192Y-11783374D02*
X13322716Y-11802422D01*
X13322716Y-11802422D02*
X13322716Y-11907184D01*
X13713192Y-11697660D02*
X13541764Y-11954803D01*
X13970335Y-11707184D02*
X13989383Y-11707184D01*
X13989383Y-11707184D02*
X14008430Y-11716708D01*
X14008430Y-11716708D02*
X14017954Y-11726231D01*
X14017954Y-11726231D02*
X14027478Y-11745279D01*
X14027478Y-11745279D02*
X14037002Y-11783374D01*
X14037002Y-11783374D02*
X14037002Y-11830993D01*
X14037002Y-11830993D02*
X14027478Y-11869088D01*
X14027478Y-11869088D02*
X14017954Y-11888136D01*
X14017954Y-11888136D02*
X14008430Y-11897660D01*
X14008430Y-11897660D02*
X13989383Y-11907184D01*
X13989383Y-11907184D02*
X13970335Y-11907184D01*
X13970335Y-11907184D02*
X13951287Y-11897660D01*
X13951287Y-11897660D02*
X13941764Y-11888136D01*
X13941764Y-11888136D02*
X13932240Y-11869088D01*
X13932240Y-11869088D02*
X13922716Y-11830993D01*
X13922716Y-11830993D02*
X13922716Y-11783374D01*
X13922716Y-11783374D02*
X13932240Y-11745279D01*
X13932240Y-11745279D02*
X13941764Y-11726231D01*
X13941764Y-11726231D02*
X13951287Y-11716708D01*
X13951287Y-11716708D02*
X13970335Y-11707184D01*
X14122716Y-11888136D02*
X14132240Y-11897660D01*
X14132240Y-11897660D02*
X14122716Y-11907184D01*
X14122716Y-11907184D02*
X14113192Y-11897660D01*
X14113192Y-11897660D02*
X14122716Y-11888136D01*
X14122716Y-11888136D02*
X14122716Y-11907184D01*
X14256049Y-11707184D02*
X14275097Y-11707184D01*
X14275097Y-11707184D02*
X14294145Y-11716708D01*
X14294145Y-11716708D02*
X14303668Y-11726231D01*
X14303668Y-11726231D02*
X14313192Y-11745279D01*
X14313192Y-11745279D02*
X14322716Y-11783374D01*
X14322716Y-11783374D02*
X14322716Y-11830993D01*
X14322716Y-11830993D02*
X14313192Y-11869088D01*
X14313192Y-11869088D02*
X14303668Y-11888136D01*
X14303668Y-11888136D02*
X14294145Y-11897660D01*
X14294145Y-11897660D02*
X14275097Y-11907184D01*
X14275097Y-11907184D02*
X14256049Y-11907184D01*
X14256049Y-11907184D02*
X14237002Y-11897660D01*
X14237002Y-11897660D02*
X14227478Y-11888136D01*
X14227478Y-11888136D02*
X14217954Y-11869088D01*
X14217954Y-11869088D02*
X14208430Y-11830993D01*
X14208430Y-11830993D02*
X14208430Y-11783374D01*
X14208430Y-11783374D02*
X14217954Y-11745279D01*
X14217954Y-11745279D02*
X14227478Y-11726231D01*
X14227478Y-11726231D02*
X14237002Y-11716708D01*
X14237002Y-11716708D02*
X14256049Y-11707184D01*
X14398907Y-11726231D02*
X14408430Y-11716708D01*
X14408430Y-11716708D02*
X14427478Y-11707184D01*
X14427478Y-11707184D02*
X14475097Y-11707184D01*
X14475097Y-11707184D02*
X14494145Y-11716708D01*
X14494145Y-11716708D02*
X14503668Y-11726231D01*
X14503668Y-11726231D02*
X14513192Y-11745279D01*
X14513192Y-11745279D02*
X14513192Y-11764327D01*
X14513192Y-11764327D02*
X14503668Y-11792898D01*
X14503668Y-11792898D02*
X14389383Y-11907184D01*
X14389383Y-11907184D02*
X14513192Y-11907184D01*
X14579859Y-11707184D02*
X14713192Y-11707184D01*
X14713192Y-11707184D02*
X14627478Y-11907184D01*
X14875097Y-11707184D02*
X14837002Y-11707184D01*
X14837002Y-11707184D02*
X14817954Y-11716708D01*
X14817954Y-11716708D02*
X14808430Y-11726231D01*
X14808430Y-11726231D02*
X14789383Y-11754803D01*
X14789383Y-11754803D02*
X14779859Y-11792898D01*
X14779859Y-11792898D02*
X14779859Y-11869088D01*
X14779859Y-11869088D02*
X14789383Y-11888136D01*
X14789383Y-11888136D02*
X14798907Y-11897660D01*
X14798907Y-11897660D02*
X14817954Y-11907184D01*
X14817954Y-11907184D02*
X14856049Y-11907184D01*
X14856049Y-11907184D02*
X14875097Y-11897660D01*
X14875097Y-11897660D02*
X14884621Y-11888136D01*
X14884621Y-11888136D02*
X14894145Y-11869088D01*
X14894145Y-11869088D02*
X14894145Y-11821469D01*
X14894145Y-11821469D02*
X14884621Y-11802422D01*
X14884621Y-11802422D02*
X14875097Y-11792898D01*
X14875097Y-11792898D02*
X14856049Y-11783374D01*
X14856049Y-11783374D02*
X14817954Y-11783374D01*
X14817954Y-11783374D02*
X14798907Y-11792898D01*
X14798907Y-11792898D02*
X14789383Y-11802422D01*
X14789383Y-11802422D02*
X14779859Y-11821469D01*
X14970335Y-11707184D02*
X14970335Y-11745279D01*
X15046526Y-11707184D02*
X15046526Y-11745279D01*
X15341764Y-11983374D02*
X15332240Y-11973850D01*
X15332240Y-11973850D02*
X15313192Y-11945279D01*
X15313192Y-11945279D02*
X15303669Y-11926231D01*
X15303669Y-11926231D02*
X15294145Y-11897660D01*
X15294145Y-11897660D02*
X15284621Y-11850041D01*
X15284621Y-11850041D02*
X15284621Y-11811946D01*
X15284621Y-11811946D02*
X15294145Y-11764327D01*
X15294145Y-11764327D02*
X15303669Y-11735755D01*
X15303669Y-11735755D02*
X15313192Y-11716708D01*
X15313192Y-11716708D02*
X15332240Y-11688136D01*
X15332240Y-11688136D02*
X15341764Y-11678612D01*
X15503669Y-11773850D02*
X15503669Y-11907184D01*
X15456049Y-11697660D02*
X15408430Y-11840517D01*
X15408430Y-11840517D02*
X15532240Y-11840517D01*
X15760811Y-11907184D02*
X15760811Y-11707184D01*
X15846526Y-11907184D02*
X15846526Y-11802422D01*
X15846526Y-11802422D02*
X15837002Y-11783374D01*
X15837002Y-11783374D02*
X15817954Y-11773850D01*
X15817954Y-11773850D02*
X15789383Y-11773850D01*
X15789383Y-11773850D02*
X15770335Y-11783374D01*
X15770335Y-11783374D02*
X15760811Y-11792898D01*
X15970335Y-11907184D02*
X15951288Y-11897660D01*
X15951288Y-11897660D02*
X15941764Y-11888136D01*
X15941764Y-11888136D02*
X15932240Y-11869088D01*
X15932240Y-11869088D02*
X15932240Y-11811946D01*
X15932240Y-11811946D02*
X15941764Y-11792898D01*
X15941764Y-11792898D02*
X15951288Y-11783374D01*
X15951288Y-11783374D02*
X15970335Y-11773850D01*
X15970335Y-11773850D02*
X15998907Y-11773850D01*
X15998907Y-11773850D02*
X16017954Y-11783374D01*
X16017954Y-11783374D02*
X16027478Y-11792898D01*
X16027478Y-11792898D02*
X16037002Y-11811946D01*
X16037002Y-11811946D02*
X16037002Y-11869088D01*
X16037002Y-11869088D02*
X16027478Y-11888136D01*
X16027478Y-11888136D02*
X16017954Y-11897660D01*
X16017954Y-11897660D02*
X15998907Y-11907184D01*
X15998907Y-11907184D02*
X15970335Y-11907184D01*
X16151288Y-11907184D02*
X16132240Y-11897660D01*
X16132240Y-11897660D02*
X16122716Y-11878612D01*
X16122716Y-11878612D02*
X16122716Y-11707184D01*
X16303669Y-11897660D02*
X16284621Y-11907184D01*
X16284621Y-11907184D02*
X16246526Y-11907184D01*
X16246526Y-11907184D02*
X16227478Y-11897660D01*
X16227478Y-11897660D02*
X16217954Y-11878612D01*
X16217954Y-11878612D02*
X16217954Y-11802422D01*
X16217954Y-11802422D02*
X16227478Y-11783374D01*
X16227478Y-11783374D02*
X16246526Y-11773850D01*
X16246526Y-11773850D02*
X16284621Y-11773850D01*
X16284621Y-11773850D02*
X16303669Y-11783374D01*
X16303669Y-11783374D02*
X16313192Y-11802422D01*
X16313192Y-11802422D02*
X16313192Y-11821469D01*
X16313192Y-11821469D02*
X16217954Y-11840517D01*
X16389383Y-11897660D02*
X16408431Y-11907184D01*
X16408431Y-11907184D02*
X16446526Y-11907184D01*
X16446526Y-11907184D02*
X16465573Y-11897660D01*
X16465573Y-11897660D02*
X16475097Y-11878612D01*
X16475097Y-11878612D02*
X16475097Y-11869088D01*
X16475097Y-11869088D02*
X16465573Y-11850041D01*
X16465573Y-11850041D02*
X16446526Y-11840517D01*
X16446526Y-11840517D02*
X16417954Y-11840517D01*
X16417954Y-11840517D02*
X16398907Y-11830993D01*
X16398907Y-11830993D02*
X16389383Y-11811946D01*
X16389383Y-11811946D02*
X16389383Y-11802422D01*
X16389383Y-11802422D02*
X16398907Y-11783374D01*
X16398907Y-11783374D02*
X16417954Y-11773850D01*
X16417954Y-11773850D02*
X16446526Y-11773850D01*
X16446526Y-11773850D02*
X16465573Y-11783374D01*
X16541764Y-11983374D02*
X16551288Y-11973850D01*
X16551288Y-11973850D02*
X16570335Y-11945279D01*
X16570335Y-11945279D02*
X16579859Y-11926231D01*
X16579859Y-11926231D02*
X16589383Y-11897660D01*
X16589383Y-11897660D02*
X16598907Y-11850041D01*
X16598907Y-11850041D02*
X16598907Y-11811946D01*
X16598907Y-11811946D02*
X16589383Y-11764327D01*
X16589383Y-11764327D02*
X16579859Y-11735755D01*
X16579859Y-11735755D02*
X16570335Y-11716708D01*
X16570335Y-11716708D02*
X16551288Y-11688136D01*
X16551288Y-11688136D02*
X16541764Y-11678612D01*
D11*
X11752789Y-12113288D02*
X11752789Y-12046112D01*
X11685613Y-12046112D01*
X11685613Y-12113288D01*
X11752789Y-12113288D01*
D10*
X12065573Y-11971184D02*
X12084621Y-11971184D01*
X12084621Y-11971184D02*
X12103668Y-11980708D01*
X12103668Y-11980708D02*
X12113192Y-11990231D01*
X12113192Y-11990231D02*
X12122716Y-12009279D01*
X12122716Y-12009279D02*
X12132240Y-12047374D01*
X12132240Y-12047374D02*
X12132240Y-12094993D01*
X12132240Y-12094993D02*
X12122716Y-12133088D01*
X12122716Y-12133088D02*
X12113192Y-12152136D01*
X12113192Y-12152136D02*
X12103668Y-12161660D01*
X12103668Y-12161660D02*
X12084621Y-12171184D01*
X12084621Y-12171184D02*
X12065573Y-12171184D01*
X12065573Y-12171184D02*
X12046525Y-12161660D01*
X12046525Y-12161660D02*
X12037002Y-12152136D01*
X12037002Y-12152136D02*
X12027478Y-12133088D01*
X12027478Y-12133088D02*
X12017954Y-12094993D01*
X12017954Y-12094993D02*
X12017954Y-12047374D01*
X12017954Y-12047374D02*
X12027478Y-12009279D01*
X12027478Y-12009279D02*
X12037002Y-11990231D01*
X12037002Y-11990231D02*
X12046525Y-11980708D01*
X12046525Y-11980708D02*
X12065573Y-11971184D01*
X12217954Y-12152136D02*
X12227478Y-12161660D01*
X12227478Y-12161660D02*
X12217954Y-12171184D01*
X12217954Y-12171184D02*
X12208430Y-12161660D01*
X12208430Y-12161660D02*
X12217954Y-12152136D01*
X12217954Y-12152136D02*
X12217954Y-12171184D01*
X12322716Y-12171184D02*
X12360811Y-12171184D01*
X12360811Y-12171184D02*
X12379859Y-12161660D01*
X12379859Y-12161660D02*
X12389383Y-12152136D01*
X12389383Y-12152136D02*
X12408430Y-12123565D01*
X12408430Y-12123565D02*
X12417954Y-12085469D01*
X12417954Y-12085469D02*
X12417954Y-12009279D01*
X12417954Y-12009279D02*
X12408430Y-11990231D01*
X12408430Y-11990231D02*
X12398906Y-11980708D01*
X12398906Y-11980708D02*
X12379859Y-11971184D01*
X12379859Y-11971184D02*
X12341763Y-11971184D01*
X12341763Y-11971184D02*
X12322716Y-11980708D01*
X12322716Y-11980708D02*
X12313192Y-11990231D01*
X12313192Y-11990231D02*
X12303668Y-12009279D01*
X12303668Y-12009279D02*
X12303668Y-12056898D01*
X12303668Y-12056898D02*
X12313192Y-12075946D01*
X12313192Y-12075946D02*
X12322716Y-12085469D01*
X12322716Y-12085469D02*
X12341763Y-12094993D01*
X12341763Y-12094993D02*
X12379859Y-12094993D01*
X12379859Y-12094993D02*
X12398906Y-12085469D01*
X12398906Y-12085469D02*
X12408430Y-12075946D01*
X12408430Y-12075946D02*
X12417954Y-12056898D01*
X12598906Y-11971184D02*
X12503668Y-11971184D01*
X12503668Y-11971184D02*
X12494144Y-12066422D01*
X12494144Y-12066422D02*
X12503668Y-12056898D01*
X12503668Y-12056898D02*
X12522716Y-12047374D01*
X12522716Y-12047374D02*
X12570335Y-12047374D01*
X12570335Y-12047374D02*
X12589383Y-12056898D01*
X12589383Y-12056898D02*
X12598906Y-12066422D01*
X12598906Y-12066422D02*
X12608430Y-12085469D01*
X12608430Y-12085469D02*
X12608430Y-12133088D01*
X12608430Y-12133088D02*
X12598906Y-12152136D01*
X12598906Y-12152136D02*
X12589383Y-12161660D01*
X12589383Y-12161660D02*
X12570335Y-12171184D01*
X12570335Y-12171184D02*
X12522716Y-12171184D01*
X12522716Y-12171184D02*
X12503668Y-12161660D01*
X12503668Y-12161660D02*
X12494144Y-12152136D01*
X12732240Y-11971184D02*
X12751287Y-11971184D01*
X12751287Y-11971184D02*
X12770335Y-11980708D01*
X12770335Y-11980708D02*
X12779859Y-11990231D01*
X12779859Y-11990231D02*
X12789383Y-12009279D01*
X12789383Y-12009279D02*
X12798906Y-12047374D01*
X12798906Y-12047374D02*
X12798906Y-12094993D01*
X12798906Y-12094993D02*
X12789383Y-12133088D01*
X12789383Y-12133088D02*
X12779859Y-12152136D01*
X12779859Y-12152136D02*
X12770335Y-12161660D01*
X12770335Y-12161660D02*
X12751287Y-12171184D01*
X12751287Y-12171184D02*
X12732240Y-12171184D01*
X12732240Y-12171184D02*
X12713192Y-12161660D01*
X12713192Y-12161660D02*
X12703668Y-12152136D01*
X12703668Y-12152136D02*
X12694144Y-12133088D01*
X12694144Y-12133088D02*
X12684621Y-12094993D01*
X12684621Y-12094993D02*
X12684621Y-12047374D01*
X12684621Y-12047374D02*
X12694144Y-12009279D01*
X12694144Y-12009279D02*
X12703668Y-11990231D01*
X12703668Y-11990231D02*
X12713192Y-11980708D01*
X12713192Y-11980708D02*
X12732240Y-11971184D01*
X12884621Y-12171184D02*
X12884621Y-12037850D01*
X12884621Y-12056898D02*
X12894144Y-12047374D01*
X12894144Y-12047374D02*
X12913192Y-12037850D01*
X12913192Y-12037850D02*
X12941764Y-12037850D01*
X12941764Y-12037850D02*
X12960811Y-12047374D01*
X12960811Y-12047374D02*
X12970335Y-12066422D01*
X12970335Y-12066422D02*
X12970335Y-12171184D01*
X12970335Y-12066422D02*
X12979859Y-12047374D01*
X12979859Y-12047374D02*
X12998906Y-12037850D01*
X12998906Y-12037850D02*
X13027478Y-12037850D01*
X13027478Y-12037850D02*
X13046525Y-12047374D01*
X13046525Y-12047374D02*
X13056049Y-12066422D01*
X13056049Y-12066422D02*
X13056049Y-12171184D01*
X13151287Y-12171184D02*
X13151287Y-12037850D01*
X13151287Y-12056898D02*
X13160811Y-12047374D01*
X13160811Y-12047374D02*
X13179859Y-12037850D01*
X13179859Y-12037850D02*
X13208430Y-12037850D01*
X13208430Y-12037850D02*
X13227478Y-12047374D01*
X13227478Y-12047374D02*
X13237002Y-12066422D01*
X13237002Y-12066422D02*
X13237002Y-12171184D01*
X13237002Y-12066422D02*
X13246525Y-12047374D01*
X13246525Y-12047374D02*
X13265573Y-12037850D01*
X13265573Y-12037850D02*
X13294144Y-12037850D01*
X13294144Y-12037850D02*
X13313192Y-12047374D01*
X13313192Y-12047374D02*
X13322716Y-12066422D01*
X13322716Y-12066422D02*
X13322716Y-12171184D01*
X13713192Y-11961660D02*
X13541764Y-12218803D01*
X13970335Y-11971184D02*
X13989383Y-11971184D01*
X13989383Y-11971184D02*
X14008430Y-11980708D01*
X14008430Y-11980708D02*
X14017954Y-11990231D01*
X14017954Y-11990231D02*
X14027478Y-12009279D01*
X14027478Y-12009279D02*
X14037002Y-12047374D01*
X14037002Y-12047374D02*
X14037002Y-12094993D01*
X14037002Y-12094993D02*
X14027478Y-12133088D01*
X14027478Y-12133088D02*
X14017954Y-12152136D01*
X14017954Y-12152136D02*
X14008430Y-12161660D01*
X14008430Y-12161660D02*
X13989383Y-12171184D01*
X13989383Y-12171184D02*
X13970335Y-12171184D01*
X13970335Y-12171184D02*
X13951287Y-12161660D01*
X13951287Y-12161660D02*
X13941764Y-12152136D01*
X13941764Y-12152136D02*
X13932240Y-12133088D01*
X13932240Y-12133088D02*
X13922716Y-12094993D01*
X13922716Y-12094993D02*
X13922716Y-12047374D01*
X13922716Y-12047374D02*
X13932240Y-12009279D01*
X13932240Y-12009279D02*
X13941764Y-11990231D01*
X13941764Y-11990231D02*
X13951287Y-11980708D01*
X13951287Y-11980708D02*
X13970335Y-11971184D01*
X14122716Y-12152136D02*
X14132240Y-12161660D01*
X14132240Y-12161660D02*
X14122716Y-12171184D01*
X14122716Y-12171184D02*
X14113192Y-12161660D01*
X14113192Y-12161660D02*
X14122716Y-12152136D01*
X14122716Y-12152136D02*
X14122716Y-12171184D01*
X14256049Y-11971184D02*
X14275097Y-11971184D01*
X14275097Y-11971184D02*
X14294145Y-11980708D01*
X14294145Y-11980708D02*
X14303668Y-11990231D01*
X14303668Y-11990231D02*
X14313192Y-12009279D01*
X14313192Y-12009279D02*
X14322716Y-12047374D01*
X14322716Y-12047374D02*
X14322716Y-12094993D01*
X14322716Y-12094993D02*
X14313192Y-12133088D01*
X14313192Y-12133088D02*
X14303668Y-12152136D01*
X14303668Y-12152136D02*
X14294145Y-12161660D01*
X14294145Y-12161660D02*
X14275097Y-12171184D01*
X14275097Y-12171184D02*
X14256049Y-12171184D01*
X14256049Y-12171184D02*
X14237002Y-12161660D01*
X14237002Y-12161660D02*
X14227478Y-12152136D01*
X14227478Y-12152136D02*
X14217954Y-12133088D01*
X14217954Y-12133088D02*
X14208430Y-12094993D01*
X14208430Y-12094993D02*
X14208430Y-12047374D01*
X14208430Y-12047374D02*
X14217954Y-12009279D01*
X14217954Y-12009279D02*
X14227478Y-11990231D01*
X14227478Y-11990231D02*
X14237002Y-11980708D01*
X14237002Y-11980708D02*
X14256049Y-11971184D01*
X14389383Y-11971184D02*
X14513192Y-11971184D01*
X14513192Y-11971184D02*
X14446526Y-12047374D01*
X14446526Y-12047374D02*
X14475097Y-12047374D01*
X14475097Y-12047374D02*
X14494145Y-12056898D01*
X14494145Y-12056898D02*
X14503668Y-12066422D01*
X14503668Y-12066422D02*
X14513192Y-12085469D01*
X14513192Y-12085469D02*
X14513192Y-12133088D01*
X14513192Y-12133088D02*
X14503668Y-12152136D01*
X14503668Y-12152136D02*
X14494145Y-12161660D01*
X14494145Y-12161660D02*
X14475097Y-12171184D01*
X14475097Y-12171184D02*
X14417954Y-12171184D01*
X14417954Y-12171184D02*
X14398907Y-12161660D01*
X14398907Y-12161660D02*
X14389383Y-12152136D01*
X14579859Y-11971184D02*
X14713192Y-11971184D01*
X14713192Y-11971184D02*
X14627478Y-12171184D01*
X14875097Y-12037850D02*
X14875097Y-12171184D01*
X14827478Y-11961660D02*
X14779859Y-12104517D01*
X14779859Y-12104517D02*
X14903668Y-12104517D01*
X14970335Y-11971184D02*
X14970335Y-12009279D01*
X15046526Y-11971184D02*
X15046526Y-12009279D01*
X15341764Y-12247374D02*
X15332240Y-12237850D01*
X15332240Y-12237850D02*
X15313192Y-12209279D01*
X15313192Y-12209279D02*
X15303669Y-12190231D01*
X15303669Y-12190231D02*
X15294145Y-12161660D01*
X15294145Y-12161660D02*
X15284621Y-12114041D01*
X15284621Y-12114041D02*
X15284621Y-12075946D01*
X15284621Y-12075946D02*
X15294145Y-12028327D01*
X15294145Y-12028327D02*
X15303669Y-11999755D01*
X15303669Y-11999755D02*
X15313192Y-11980708D01*
X15313192Y-11980708D02*
X15332240Y-11952136D01*
X15332240Y-11952136D02*
X15341764Y-11942612D01*
X15522716Y-12171184D02*
X15408430Y-12171184D01*
X15465573Y-12171184D02*
X15465573Y-11971184D01*
X15465573Y-11971184D02*
X15446526Y-11999755D01*
X15446526Y-11999755D02*
X15427478Y-12018803D01*
X15427478Y-12018803D02*
X15408430Y-12028327D01*
X15703669Y-11971184D02*
X15608430Y-11971184D01*
X15608430Y-11971184D02*
X15598907Y-12066422D01*
X15598907Y-12066422D02*
X15608430Y-12056898D01*
X15608430Y-12056898D02*
X15627478Y-12047374D01*
X15627478Y-12047374D02*
X15675097Y-12047374D01*
X15675097Y-12047374D02*
X15694145Y-12056898D01*
X15694145Y-12056898D02*
X15703669Y-12066422D01*
X15703669Y-12066422D02*
X15713192Y-12085469D01*
X15713192Y-12085469D02*
X15713192Y-12133088D01*
X15713192Y-12133088D02*
X15703669Y-12152136D01*
X15703669Y-12152136D02*
X15694145Y-12161660D01*
X15694145Y-12161660D02*
X15675097Y-12171184D01*
X15675097Y-12171184D02*
X15627478Y-12171184D01*
X15627478Y-12171184D02*
X15608430Y-12161660D01*
X15608430Y-12161660D02*
X15598907Y-12152136D01*
X15951288Y-12171184D02*
X15951288Y-11971184D01*
X16037002Y-12171184D02*
X16037002Y-12066422D01*
X16037002Y-12066422D02*
X16027478Y-12047374D01*
X16027478Y-12047374D02*
X16008431Y-12037850D01*
X16008431Y-12037850D02*
X15979859Y-12037850D01*
X15979859Y-12037850D02*
X15960811Y-12047374D01*
X15960811Y-12047374D02*
X15951288Y-12056898D01*
X16160811Y-12171184D02*
X16141764Y-12161660D01*
X16141764Y-12161660D02*
X16132240Y-12152136D01*
X16132240Y-12152136D02*
X16122716Y-12133088D01*
X16122716Y-12133088D02*
X16122716Y-12075946D01*
X16122716Y-12075946D02*
X16132240Y-12056898D01*
X16132240Y-12056898D02*
X16141764Y-12047374D01*
X16141764Y-12047374D02*
X16160811Y-12037850D01*
X16160811Y-12037850D02*
X16189383Y-12037850D01*
X16189383Y-12037850D02*
X16208431Y-12047374D01*
X16208431Y-12047374D02*
X16217954Y-12056898D01*
X16217954Y-12056898D02*
X16227478Y-12075946D01*
X16227478Y-12075946D02*
X16227478Y-12133088D01*
X16227478Y-12133088D02*
X16217954Y-12152136D01*
X16217954Y-12152136D02*
X16208431Y-12161660D01*
X16208431Y-12161660D02*
X16189383Y-12171184D01*
X16189383Y-12171184D02*
X16160811Y-12171184D01*
X16341764Y-12171184D02*
X16322716Y-12161660D01*
X16322716Y-12161660D02*
X16313192Y-12142612D01*
X16313192Y-12142612D02*
X16313192Y-11971184D01*
X16494145Y-12161660D02*
X16475097Y-12171184D01*
X16475097Y-12171184D02*
X16437002Y-12171184D01*
X16437002Y-12171184D02*
X16417954Y-12161660D01*
X16417954Y-12161660D02*
X16408431Y-12142612D01*
X16408431Y-12142612D02*
X16408431Y-12066422D01*
X16408431Y-12066422D02*
X16417954Y-12047374D01*
X16417954Y-12047374D02*
X16437002Y-12037850D01*
X16437002Y-12037850D02*
X16475097Y-12037850D01*
X16475097Y-12037850D02*
X16494145Y-12047374D01*
X16494145Y-12047374D02*
X16503669Y-12066422D01*
X16503669Y-12066422D02*
X16503669Y-12085469D01*
X16503669Y-12085469D02*
X16408431Y-12104517D01*
X16579859Y-12161660D02*
X16598907Y-12171184D01*
X16598907Y-12171184D02*
X16637002Y-12171184D01*
X16637002Y-12171184D02*
X16656050Y-12161660D01*
X16656050Y-12161660D02*
X16665573Y-12142612D01*
X16665573Y-12142612D02*
X16665573Y-12133088D01*
X16665573Y-12133088D02*
X16656050Y-12114041D01*
X16656050Y-12114041D02*
X16637002Y-12104517D01*
X16637002Y-12104517D02*
X16608431Y-12104517D01*
X16608431Y-12104517D02*
X16589383Y-12094993D01*
X16589383Y-12094993D02*
X16579859Y-12075946D01*
X16579859Y-12075946D02*
X16579859Y-12066422D01*
X16579859Y-12066422D02*
X16589383Y-12047374D01*
X16589383Y-12047374D02*
X16608431Y-12037850D01*
X16608431Y-12037850D02*
X16637002Y-12037850D01*
X16637002Y-12037850D02*
X16656050Y-12047374D01*
X16732240Y-12247374D02*
X16741764Y-12237850D01*
X16741764Y-12237850D02*
X16760812Y-12209279D01*
X16760812Y-12209279D02*
X16770335Y-12190231D01*
X16770335Y-12190231D02*
X16779859Y-12161660D01*
X16779859Y-12161660D02*
X16789383Y-12114041D01*
X16789383Y-12114041D02*
X16789383Y-12075946D01*
X16789383Y-12075946D02*
X16779859Y-12028327D01*
X16779859Y-12028327D02*
X16770335Y-11999755D01*
X16770335Y-11999755D02*
X16760812Y-11980708D01*
X16760812Y-11980708D02*
X16741764Y-11952136D01*
X16741764Y-11952136D02*
X16732240Y-11942612D01*
D11*
X11716701Y-12393700D02*
X11766701Y-12343700D01*
X11716701Y-12293700D01*
X11666701Y-12343700D01*
X11716701Y-12393700D01*
D10*
X12132240Y-12435184D02*
X12017954Y-12435184D01*
X12075097Y-12435184D02*
X12075097Y-12235184D01*
X12075097Y-12235184D02*
X12056049Y-12263755D01*
X12056049Y-12263755D02*
X12037002Y-12282803D01*
X12037002Y-12282803D02*
X12017954Y-12292327D01*
X12217954Y-12416136D02*
X12227478Y-12425660D01*
X12227478Y-12425660D02*
X12217954Y-12435184D01*
X12217954Y-12435184D02*
X12208430Y-12425660D01*
X12208430Y-12425660D02*
X12217954Y-12416136D01*
X12217954Y-12416136D02*
X12217954Y-12435184D01*
X12351287Y-12235184D02*
X12370335Y-12235184D01*
X12370335Y-12235184D02*
X12389383Y-12244708D01*
X12389383Y-12244708D02*
X12398906Y-12254231D01*
X12398906Y-12254231D02*
X12408430Y-12273279D01*
X12408430Y-12273279D02*
X12417954Y-12311374D01*
X12417954Y-12311374D02*
X12417954Y-12358993D01*
X12417954Y-12358993D02*
X12408430Y-12397088D01*
X12408430Y-12397088D02*
X12398906Y-12416136D01*
X12398906Y-12416136D02*
X12389383Y-12425660D01*
X12389383Y-12425660D02*
X12370335Y-12435184D01*
X12370335Y-12435184D02*
X12351287Y-12435184D01*
X12351287Y-12435184D02*
X12332240Y-12425660D01*
X12332240Y-12425660D02*
X12322716Y-12416136D01*
X12322716Y-12416136D02*
X12313192Y-12397088D01*
X12313192Y-12397088D02*
X12303668Y-12358993D01*
X12303668Y-12358993D02*
X12303668Y-12311374D01*
X12303668Y-12311374D02*
X12313192Y-12273279D01*
X12313192Y-12273279D02*
X12322716Y-12254231D01*
X12322716Y-12254231D02*
X12332240Y-12244708D01*
X12332240Y-12244708D02*
X12351287Y-12235184D01*
X12541763Y-12235184D02*
X12560811Y-12235184D01*
X12560811Y-12235184D02*
X12579859Y-12244708D01*
X12579859Y-12244708D02*
X12589383Y-12254231D01*
X12589383Y-12254231D02*
X12598906Y-12273279D01*
X12598906Y-12273279D02*
X12608430Y-12311374D01*
X12608430Y-12311374D02*
X12608430Y-12358993D01*
X12608430Y-12358993D02*
X12598906Y-12397088D01*
X12598906Y-12397088D02*
X12589383Y-12416136D01*
X12589383Y-12416136D02*
X12579859Y-12425660D01*
X12579859Y-12425660D02*
X12560811Y-12435184D01*
X12560811Y-12435184D02*
X12541763Y-12435184D01*
X12541763Y-12435184D02*
X12522716Y-12425660D01*
X12522716Y-12425660D02*
X12513192Y-12416136D01*
X12513192Y-12416136D02*
X12503668Y-12397088D01*
X12503668Y-12397088D02*
X12494144Y-12358993D01*
X12494144Y-12358993D02*
X12494144Y-12311374D01*
X12494144Y-12311374D02*
X12503668Y-12273279D01*
X12503668Y-12273279D02*
X12513192Y-12254231D01*
X12513192Y-12254231D02*
X12522716Y-12244708D01*
X12522716Y-12244708D02*
X12541763Y-12235184D01*
X12732240Y-12235184D02*
X12751287Y-12235184D01*
X12751287Y-12235184D02*
X12770335Y-12244708D01*
X12770335Y-12244708D02*
X12779859Y-12254231D01*
X12779859Y-12254231D02*
X12789383Y-12273279D01*
X12789383Y-12273279D02*
X12798906Y-12311374D01*
X12798906Y-12311374D02*
X12798906Y-12358993D01*
X12798906Y-12358993D02*
X12789383Y-12397088D01*
X12789383Y-12397088D02*
X12779859Y-12416136D01*
X12779859Y-12416136D02*
X12770335Y-12425660D01*
X12770335Y-12425660D02*
X12751287Y-12435184D01*
X12751287Y-12435184D02*
X12732240Y-12435184D01*
X12732240Y-12435184D02*
X12713192Y-12425660D01*
X12713192Y-12425660D02*
X12703668Y-12416136D01*
X12703668Y-12416136D02*
X12694144Y-12397088D01*
X12694144Y-12397088D02*
X12684621Y-12358993D01*
X12684621Y-12358993D02*
X12684621Y-12311374D01*
X12684621Y-12311374D02*
X12694144Y-12273279D01*
X12694144Y-12273279D02*
X12703668Y-12254231D01*
X12703668Y-12254231D02*
X12713192Y-12244708D01*
X12713192Y-12244708D02*
X12732240Y-12235184D01*
X12884621Y-12435184D02*
X12884621Y-12301850D01*
X12884621Y-12320898D02*
X12894144Y-12311374D01*
X12894144Y-12311374D02*
X12913192Y-12301850D01*
X12913192Y-12301850D02*
X12941764Y-12301850D01*
X12941764Y-12301850D02*
X12960811Y-12311374D01*
X12960811Y-12311374D02*
X12970335Y-12330422D01*
X12970335Y-12330422D02*
X12970335Y-12435184D01*
X12970335Y-12330422D02*
X12979859Y-12311374D01*
X12979859Y-12311374D02*
X12998906Y-12301850D01*
X12998906Y-12301850D02*
X13027478Y-12301850D01*
X13027478Y-12301850D02*
X13046525Y-12311374D01*
X13046525Y-12311374D02*
X13056049Y-12330422D01*
X13056049Y-12330422D02*
X13056049Y-12435184D01*
X13151287Y-12435184D02*
X13151287Y-12301850D01*
X13151287Y-12320898D02*
X13160811Y-12311374D01*
X13160811Y-12311374D02*
X13179859Y-12301850D01*
X13179859Y-12301850D02*
X13208430Y-12301850D01*
X13208430Y-12301850D02*
X13227478Y-12311374D01*
X13227478Y-12311374D02*
X13237002Y-12330422D01*
X13237002Y-12330422D02*
X13237002Y-12435184D01*
X13237002Y-12330422D02*
X13246525Y-12311374D01*
X13246525Y-12311374D02*
X13265573Y-12301850D01*
X13265573Y-12301850D02*
X13294144Y-12301850D01*
X13294144Y-12301850D02*
X13313192Y-12311374D01*
X13313192Y-12311374D02*
X13322716Y-12330422D01*
X13322716Y-12330422D02*
X13322716Y-12435184D01*
X13713192Y-12225660D02*
X13541764Y-12482803D01*
X13970335Y-12235184D02*
X13989383Y-12235184D01*
X13989383Y-12235184D02*
X14008430Y-12244708D01*
X14008430Y-12244708D02*
X14017954Y-12254231D01*
X14017954Y-12254231D02*
X14027478Y-12273279D01*
X14027478Y-12273279D02*
X14037002Y-12311374D01*
X14037002Y-12311374D02*
X14037002Y-12358993D01*
X14037002Y-12358993D02*
X14027478Y-12397088D01*
X14027478Y-12397088D02*
X14017954Y-12416136D01*
X14017954Y-12416136D02*
X14008430Y-12425660D01*
X14008430Y-12425660D02*
X13989383Y-12435184D01*
X13989383Y-12435184D02*
X13970335Y-12435184D01*
X13970335Y-12435184D02*
X13951287Y-12425660D01*
X13951287Y-12425660D02*
X13941764Y-12416136D01*
X13941764Y-12416136D02*
X13932240Y-12397088D01*
X13932240Y-12397088D02*
X13922716Y-12358993D01*
X13922716Y-12358993D02*
X13922716Y-12311374D01*
X13922716Y-12311374D02*
X13932240Y-12273279D01*
X13932240Y-12273279D02*
X13941764Y-12254231D01*
X13941764Y-12254231D02*
X13951287Y-12244708D01*
X13951287Y-12244708D02*
X13970335Y-12235184D01*
X14122716Y-12416136D02*
X14132240Y-12425660D01*
X14132240Y-12425660D02*
X14122716Y-12435184D01*
X14122716Y-12435184D02*
X14113192Y-12425660D01*
X14113192Y-12425660D02*
X14122716Y-12416136D01*
X14122716Y-12416136D02*
X14122716Y-12435184D01*
X14256049Y-12235184D02*
X14275097Y-12235184D01*
X14275097Y-12235184D02*
X14294145Y-12244708D01*
X14294145Y-12244708D02*
X14303668Y-12254231D01*
X14303668Y-12254231D02*
X14313192Y-12273279D01*
X14313192Y-12273279D02*
X14322716Y-12311374D01*
X14322716Y-12311374D02*
X14322716Y-12358993D01*
X14322716Y-12358993D02*
X14313192Y-12397088D01*
X14313192Y-12397088D02*
X14303668Y-12416136D01*
X14303668Y-12416136D02*
X14294145Y-12425660D01*
X14294145Y-12425660D02*
X14275097Y-12435184D01*
X14275097Y-12435184D02*
X14256049Y-12435184D01*
X14256049Y-12435184D02*
X14237002Y-12425660D01*
X14237002Y-12425660D02*
X14227478Y-12416136D01*
X14227478Y-12416136D02*
X14217954Y-12397088D01*
X14217954Y-12397088D02*
X14208430Y-12358993D01*
X14208430Y-12358993D02*
X14208430Y-12311374D01*
X14208430Y-12311374D02*
X14217954Y-12273279D01*
X14217954Y-12273279D02*
X14227478Y-12254231D01*
X14227478Y-12254231D02*
X14237002Y-12244708D01*
X14237002Y-12244708D02*
X14256049Y-12235184D01*
X14389383Y-12235184D02*
X14513192Y-12235184D01*
X14513192Y-12235184D02*
X14446526Y-12311374D01*
X14446526Y-12311374D02*
X14475097Y-12311374D01*
X14475097Y-12311374D02*
X14494145Y-12320898D01*
X14494145Y-12320898D02*
X14503668Y-12330422D01*
X14503668Y-12330422D02*
X14513192Y-12349469D01*
X14513192Y-12349469D02*
X14513192Y-12397088D01*
X14513192Y-12397088D02*
X14503668Y-12416136D01*
X14503668Y-12416136D02*
X14494145Y-12425660D01*
X14494145Y-12425660D02*
X14475097Y-12435184D01*
X14475097Y-12435184D02*
X14417954Y-12435184D01*
X14417954Y-12435184D02*
X14398907Y-12425660D01*
X14398907Y-12425660D02*
X14389383Y-12416136D01*
X14608430Y-12435184D02*
X14646526Y-12435184D01*
X14646526Y-12435184D02*
X14665573Y-12425660D01*
X14665573Y-12425660D02*
X14675097Y-12416136D01*
X14675097Y-12416136D02*
X14694145Y-12387565D01*
X14694145Y-12387565D02*
X14703668Y-12349469D01*
X14703668Y-12349469D02*
X14703668Y-12273279D01*
X14703668Y-12273279D02*
X14694145Y-12254231D01*
X14694145Y-12254231D02*
X14684621Y-12244708D01*
X14684621Y-12244708D02*
X14665573Y-12235184D01*
X14665573Y-12235184D02*
X14627478Y-12235184D01*
X14627478Y-12235184D02*
X14608430Y-12244708D01*
X14608430Y-12244708D02*
X14598907Y-12254231D01*
X14598907Y-12254231D02*
X14589383Y-12273279D01*
X14589383Y-12273279D02*
X14589383Y-12320898D01*
X14589383Y-12320898D02*
X14598907Y-12339946D01*
X14598907Y-12339946D02*
X14608430Y-12349469D01*
X14608430Y-12349469D02*
X14627478Y-12358993D01*
X14627478Y-12358993D02*
X14665573Y-12358993D01*
X14665573Y-12358993D02*
X14684621Y-12349469D01*
X14684621Y-12349469D02*
X14694145Y-12339946D01*
X14694145Y-12339946D02*
X14703668Y-12320898D01*
X14875097Y-12301850D02*
X14875097Y-12435184D01*
X14827478Y-12225660D02*
X14779859Y-12368517D01*
X14779859Y-12368517D02*
X14903668Y-12368517D01*
X14970335Y-12235184D02*
X14970335Y-12273279D01*
X15046526Y-12235184D02*
X15046526Y-12273279D01*
X15341764Y-12511374D02*
X15332240Y-12501850D01*
X15332240Y-12501850D02*
X15313192Y-12473279D01*
X15313192Y-12473279D02*
X15303669Y-12454231D01*
X15303669Y-12454231D02*
X15294145Y-12425660D01*
X15294145Y-12425660D02*
X15284621Y-12378041D01*
X15284621Y-12378041D02*
X15284621Y-12339946D01*
X15284621Y-12339946D02*
X15294145Y-12292327D01*
X15294145Y-12292327D02*
X15303669Y-12263755D01*
X15303669Y-12263755D02*
X15313192Y-12244708D01*
X15313192Y-12244708D02*
X15332240Y-12216136D01*
X15332240Y-12216136D02*
X15341764Y-12206612D01*
X15408430Y-12254231D02*
X15417954Y-12244708D01*
X15417954Y-12244708D02*
X15437002Y-12235184D01*
X15437002Y-12235184D02*
X15484621Y-12235184D01*
X15484621Y-12235184D02*
X15503669Y-12244708D01*
X15503669Y-12244708D02*
X15513192Y-12254231D01*
X15513192Y-12254231D02*
X15522716Y-12273279D01*
X15522716Y-12273279D02*
X15522716Y-12292327D01*
X15522716Y-12292327D02*
X15513192Y-12320898D01*
X15513192Y-12320898D02*
X15398907Y-12435184D01*
X15398907Y-12435184D02*
X15522716Y-12435184D01*
X15646526Y-12235184D02*
X15665573Y-12235184D01*
X15665573Y-12235184D02*
X15684621Y-12244708D01*
X15684621Y-12244708D02*
X15694145Y-12254231D01*
X15694145Y-12254231D02*
X15703669Y-12273279D01*
X15703669Y-12273279D02*
X15713192Y-12311374D01*
X15713192Y-12311374D02*
X15713192Y-12358993D01*
X15713192Y-12358993D02*
X15703669Y-12397088D01*
X15703669Y-12397088D02*
X15694145Y-12416136D01*
X15694145Y-12416136D02*
X15684621Y-12425660D01*
X15684621Y-12425660D02*
X15665573Y-12435184D01*
X15665573Y-12435184D02*
X15646526Y-12435184D01*
X15646526Y-12435184D02*
X15627478Y-12425660D01*
X15627478Y-12425660D02*
X15617954Y-12416136D01*
X15617954Y-12416136D02*
X15608430Y-12397088D01*
X15608430Y-12397088D02*
X15598907Y-12358993D01*
X15598907Y-12358993D02*
X15598907Y-12311374D01*
X15598907Y-12311374D02*
X15608430Y-12273279D01*
X15608430Y-12273279D02*
X15617954Y-12254231D01*
X15617954Y-12254231D02*
X15627478Y-12244708D01*
X15627478Y-12244708D02*
X15646526Y-12235184D01*
X15951288Y-12435184D02*
X15951288Y-12235184D01*
X16037002Y-12435184D02*
X16037002Y-12330422D01*
X16037002Y-12330422D02*
X16027478Y-12311374D01*
X16027478Y-12311374D02*
X16008431Y-12301850D01*
X16008431Y-12301850D02*
X15979859Y-12301850D01*
X15979859Y-12301850D02*
X15960811Y-12311374D01*
X15960811Y-12311374D02*
X15951288Y-12320898D01*
X16160811Y-12435184D02*
X16141764Y-12425660D01*
X16141764Y-12425660D02*
X16132240Y-12416136D01*
X16132240Y-12416136D02*
X16122716Y-12397088D01*
X16122716Y-12397088D02*
X16122716Y-12339946D01*
X16122716Y-12339946D02*
X16132240Y-12320898D01*
X16132240Y-12320898D02*
X16141764Y-12311374D01*
X16141764Y-12311374D02*
X16160811Y-12301850D01*
X16160811Y-12301850D02*
X16189383Y-12301850D01*
X16189383Y-12301850D02*
X16208431Y-12311374D01*
X16208431Y-12311374D02*
X16217954Y-12320898D01*
X16217954Y-12320898D02*
X16227478Y-12339946D01*
X16227478Y-12339946D02*
X16227478Y-12397088D01*
X16227478Y-12397088D02*
X16217954Y-12416136D01*
X16217954Y-12416136D02*
X16208431Y-12425660D01*
X16208431Y-12425660D02*
X16189383Y-12435184D01*
X16189383Y-12435184D02*
X16160811Y-12435184D01*
X16341764Y-12435184D02*
X16322716Y-12425660D01*
X16322716Y-12425660D02*
X16313192Y-12406612D01*
X16313192Y-12406612D02*
X16313192Y-12235184D01*
X16494145Y-12425660D02*
X16475097Y-12435184D01*
X16475097Y-12435184D02*
X16437002Y-12435184D01*
X16437002Y-12435184D02*
X16417954Y-12425660D01*
X16417954Y-12425660D02*
X16408431Y-12406612D01*
X16408431Y-12406612D02*
X16408431Y-12330422D01*
X16408431Y-12330422D02*
X16417954Y-12311374D01*
X16417954Y-12311374D02*
X16437002Y-12301850D01*
X16437002Y-12301850D02*
X16475097Y-12301850D01*
X16475097Y-12301850D02*
X16494145Y-12311374D01*
X16494145Y-12311374D02*
X16503669Y-12330422D01*
X16503669Y-12330422D02*
X16503669Y-12349469D01*
X16503669Y-12349469D02*
X16408431Y-12368517D01*
X16579859Y-12425660D02*
X16598907Y-12435184D01*
X16598907Y-12435184D02*
X16637002Y-12435184D01*
X16637002Y-12435184D02*
X16656050Y-12425660D01*
X16656050Y-12425660D02*
X16665573Y-12406612D01*
X16665573Y-12406612D02*
X16665573Y-12397088D01*
X16665573Y-12397088D02*
X16656050Y-12378041D01*
X16656050Y-12378041D02*
X16637002Y-12368517D01*
X16637002Y-12368517D02*
X16608431Y-12368517D01*
X16608431Y-12368517D02*
X16589383Y-12358993D01*
X16589383Y-12358993D02*
X16579859Y-12339946D01*
X16579859Y-12339946D02*
X16579859Y-12330422D01*
X16579859Y-12330422D02*
X16589383Y-12311374D01*
X16589383Y-12311374D02*
X16608431Y-12301850D01*
X16608431Y-12301850D02*
X16637002Y-12301850D01*
X16637002Y-12301850D02*
X16656050Y-12311374D01*
X16732240Y-12511374D02*
X16741764Y-12501850D01*
X16741764Y-12501850D02*
X16760812Y-12473279D01*
X16760812Y-12473279D02*
X16770335Y-12454231D01*
X16770335Y-12454231D02*
X16779859Y-12425660D01*
X16779859Y-12425660D02*
X16789383Y-12378041D01*
X16789383Y-12378041D02*
X16789383Y-12339946D01*
X16789383Y-12339946D02*
X16779859Y-12292327D01*
X16779859Y-12292327D02*
X16770335Y-12263755D01*
X16770335Y-12263755D02*
X16760812Y-12244708D01*
X16760812Y-12244708D02*
X16741764Y-12216136D01*
X16741764Y-12216136D02*
X16732240Y-12206612D01*
D12*
X11616701Y-12532700D02*
X11766701Y-12682700D01*
X11766701Y-12532700D02*
X11616701Y-12682700D01*
X11766701Y-12607700D02*
G75*
G03*
X11616701Y-12607700I-75000J0D01*
G01*
X11616701Y-12607700D02*
G75*
G03*
X11766701Y-12607700I75000J0D01*
G01*
D10*
X12132240Y-12699184D02*
X12017954Y-12699184D01*
X12075097Y-12699184D02*
X12075097Y-12499184D01*
X12075097Y-12499184D02*
X12056049Y-12527755D01*
X12056049Y-12527755D02*
X12037002Y-12546803D01*
X12037002Y-12546803D02*
X12017954Y-12556327D01*
X12217954Y-12680136D02*
X12227478Y-12689660D01*
X12227478Y-12689660D02*
X12217954Y-12699184D01*
X12217954Y-12699184D02*
X12208430Y-12689660D01*
X12208430Y-12689660D02*
X12217954Y-12680136D01*
X12217954Y-12680136D02*
X12217954Y-12699184D01*
X12408430Y-12499184D02*
X12313192Y-12499184D01*
X12313192Y-12499184D02*
X12303668Y-12594422D01*
X12303668Y-12594422D02*
X12313192Y-12584898D01*
X12313192Y-12584898D02*
X12332240Y-12575374D01*
X12332240Y-12575374D02*
X12379859Y-12575374D01*
X12379859Y-12575374D02*
X12398906Y-12584898D01*
X12398906Y-12584898D02*
X12408430Y-12594422D01*
X12408430Y-12594422D02*
X12417954Y-12613469D01*
X12417954Y-12613469D02*
X12417954Y-12661088D01*
X12417954Y-12661088D02*
X12408430Y-12680136D01*
X12408430Y-12680136D02*
X12398906Y-12689660D01*
X12398906Y-12689660D02*
X12379859Y-12699184D01*
X12379859Y-12699184D02*
X12332240Y-12699184D01*
X12332240Y-12699184D02*
X12313192Y-12689660D01*
X12313192Y-12689660D02*
X12303668Y-12680136D01*
X12541763Y-12499184D02*
X12560811Y-12499184D01*
X12560811Y-12499184D02*
X12579859Y-12508708D01*
X12579859Y-12508708D02*
X12589383Y-12518231D01*
X12589383Y-12518231D02*
X12598906Y-12537279D01*
X12598906Y-12537279D02*
X12608430Y-12575374D01*
X12608430Y-12575374D02*
X12608430Y-12622993D01*
X12608430Y-12622993D02*
X12598906Y-12661088D01*
X12598906Y-12661088D02*
X12589383Y-12680136D01*
X12589383Y-12680136D02*
X12579859Y-12689660D01*
X12579859Y-12689660D02*
X12560811Y-12699184D01*
X12560811Y-12699184D02*
X12541763Y-12699184D01*
X12541763Y-12699184D02*
X12522716Y-12689660D01*
X12522716Y-12689660D02*
X12513192Y-12680136D01*
X12513192Y-12680136D02*
X12503668Y-12661088D01*
X12503668Y-12661088D02*
X12494144Y-12622993D01*
X12494144Y-12622993D02*
X12494144Y-12575374D01*
X12494144Y-12575374D02*
X12503668Y-12537279D01*
X12503668Y-12537279D02*
X12513192Y-12518231D01*
X12513192Y-12518231D02*
X12522716Y-12508708D01*
X12522716Y-12508708D02*
X12541763Y-12499184D01*
X12732240Y-12499184D02*
X12751287Y-12499184D01*
X12751287Y-12499184D02*
X12770335Y-12508708D01*
X12770335Y-12508708D02*
X12779859Y-12518231D01*
X12779859Y-12518231D02*
X12789383Y-12537279D01*
X12789383Y-12537279D02*
X12798906Y-12575374D01*
X12798906Y-12575374D02*
X12798906Y-12622993D01*
X12798906Y-12622993D02*
X12789383Y-12661088D01*
X12789383Y-12661088D02*
X12779859Y-12680136D01*
X12779859Y-12680136D02*
X12770335Y-12689660D01*
X12770335Y-12689660D02*
X12751287Y-12699184D01*
X12751287Y-12699184D02*
X12732240Y-12699184D01*
X12732240Y-12699184D02*
X12713192Y-12689660D01*
X12713192Y-12689660D02*
X12703668Y-12680136D01*
X12703668Y-12680136D02*
X12694144Y-12661088D01*
X12694144Y-12661088D02*
X12684621Y-12622993D01*
X12684621Y-12622993D02*
X12684621Y-12575374D01*
X12684621Y-12575374D02*
X12694144Y-12537279D01*
X12694144Y-12537279D02*
X12703668Y-12518231D01*
X12703668Y-12518231D02*
X12713192Y-12508708D01*
X12713192Y-12508708D02*
X12732240Y-12499184D01*
X12884621Y-12699184D02*
X12884621Y-12565850D01*
X12884621Y-12584898D02*
X12894144Y-12575374D01*
X12894144Y-12575374D02*
X12913192Y-12565850D01*
X12913192Y-12565850D02*
X12941764Y-12565850D01*
X12941764Y-12565850D02*
X12960811Y-12575374D01*
X12960811Y-12575374D02*
X12970335Y-12594422D01*
X12970335Y-12594422D02*
X12970335Y-12699184D01*
X12970335Y-12594422D02*
X12979859Y-12575374D01*
X12979859Y-12575374D02*
X12998906Y-12565850D01*
X12998906Y-12565850D02*
X13027478Y-12565850D01*
X13027478Y-12565850D02*
X13046525Y-12575374D01*
X13046525Y-12575374D02*
X13056049Y-12594422D01*
X13056049Y-12594422D02*
X13056049Y-12699184D01*
X13151287Y-12699184D02*
X13151287Y-12565850D01*
X13151287Y-12584898D02*
X13160811Y-12575374D01*
X13160811Y-12575374D02*
X13179859Y-12565850D01*
X13179859Y-12565850D02*
X13208430Y-12565850D01*
X13208430Y-12565850D02*
X13227478Y-12575374D01*
X13227478Y-12575374D02*
X13237002Y-12594422D01*
X13237002Y-12594422D02*
X13237002Y-12699184D01*
X13237002Y-12594422D02*
X13246525Y-12575374D01*
X13246525Y-12575374D02*
X13265573Y-12565850D01*
X13265573Y-12565850D02*
X13294144Y-12565850D01*
X13294144Y-12565850D02*
X13313192Y-12575374D01*
X13313192Y-12575374D02*
X13322716Y-12594422D01*
X13322716Y-12594422D02*
X13322716Y-12699184D01*
X13713192Y-12489660D02*
X13541764Y-12746803D01*
X13970335Y-12499184D02*
X13989383Y-12499184D01*
X13989383Y-12499184D02*
X14008430Y-12508708D01*
X14008430Y-12508708D02*
X14017954Y-12518231D01*
X14017954Y-12518231D02*
X14027478Y-12537279D01*
X14027478Y-12537279D02*
X14037002Y-12575374D01*
X14037002Y-12575374D02*
X14037002Y-12622993D01*
X14037002Y-12622993D02*
X14027478Y-12661088D01*
X14027478Y-12661088D02*
X14017954Y-12680136D01*
X14017954Y-12680136D02*
X14008430Y-12689660D01*
X14008430Y-12689660D02*
X13989383Y-12699184D01*
X13989383Y-12699184D02*
X13970335Y-12699184D01*
X13970335Y-12699184D02*
X13951287Y-12689660D01*
X13951287Y-12689660D02*
X13941764Y-12680136D01*
X13941764Y-12680136D02*
X13932240Y-12661088D01*
X13932240Y-12661088D02*
X13922716Y-12622993D01*
X13922716Y-12622993D02*
X13922716Y-12575374D01*
X13922716Y-12575374D02*
X13932240Y-12537279D01*
X13932240Y-12537279D02*
X13941764Y-12518231D01*
X13941764Y-12518231D02*
X13951287Y-12508708D01*
X13951287Y-12508708D02*
X13970335Y-12499184D01*
X14122716Y-12680136D02*
X14132240Y-12689660D01*
X14132240Y-12689660D02*
X14122716Y-12699184D01*
X14122716Y-12699184D02*
X14113192Y-12689660D01*
X14113192Y-12689660D02*
X14122716Y-12680136D01*
X14122716Y-12680136D02*
X14122716Y-12699184D01*
X14256049Y-12499184D02*
X14275097Y-12499184D01*
X14275097Y-12499184D02*
X14294145Y-12508708D01*
X14294145Y-12508708D02*
X14303668Y-12518231D01*
X14303668Y-12518231D02*
X14313192Y-12537279D01*
X14313192Y-12537279D02*
X14322716Y-12575374D01*
X14322716Y-12575374D02*
X14322716Y-12622993D01*
X14322716Y-12622993D02*
X14313192Y-12661088D01*
X14313192Y-12661088D02*
X14303668Y-12680136D01*
X14303668Y-12680136D02*
X14294145Y-12689660D01*
X14294145Y-12689660D02*
X14275097Y-12699184D01*
X14275097Y-12699184D02*
X14256049Y-12699184D01*
X14256049Y-12699184D02*
X14237002Y-12689660D01*
X14237002Y-12689660D02*
X14227478Y-12680136D01*
X14227478Y-12680136D02*
X14217954Y-12661088D01*
X14217954Y-12661088D02*
X14208430Y-12622993D01*
X14208430Y-12622993D02*
X14208430Y-12575374D01*
X14208430Y-12575374D02*
X14217954Y-12537279D01*
X14217954Y-12537279D02*
X14227478Y-12518231D01*
X14227478Y-12518231D02*
X14237002Y-12508708D01*
X14237002Y-12508708D02*
X14256049Y-12499184D01*
X14503668Y-12499184D02*
X14408430Y-12499184D01*
X14408430Y-12499184D02*
X14398907Y-12594422D01*
X14398907Y-12594422D02*
X14408430Y-12584898D01*
X14408430Y-12584898D02*
X14427478Y-12575374D01*
X14427478Y-12575374D02*
X14475097Y-12575374D01*
X14475097Y-12575374D02*
X14494145Y-12584898D01*
X14494145Y-12584898D02*
X14503668Y-12594422D01*
X14503668Y-12594422D02*
X14513192Y-12613469D01*
X14513192Y-12613469D02*
X14513192Y-12661088D01*
X14513192Y-12661088D02*
X14503668Y-12680136D01*
X14503668Y-12680136D02*
X14494145Y-12689660D01*
X14494145Y-12689660D02*
X14475097Y-12699184D01*
X14475097Y-12699184D02*
X14427478Y-12699184D01*
X14427478Y-12699184D02*
X14408430Y-12689660D01*
X14408430Y-12689660D02*
X14398907Y-12680136D01*
X14608430Y-12699184D02*
X14646526Y-12699184D01*
X14646526Y-12699184D02*
X14665573Y-12689660D01*
X14665573Y-12689660D02*
X14675097Y-12680136D01*
X14675097Y-12680136D02*
X14694145Y-12651565D01*
X14694145Y-12651565D02*
X14703668Y-12613469D01*
X14703668Y-12613469D02*
X14703668Y-12537279D01*
X14703668Y-12537279D02*
X14694145Y-12518231D01*
X14694145Y-12518231D02*
X14684621Y-12508708D01*
X14684621Y-12508708D02*
X14665573Y-12499184D01*
X14665573Y-12499184D02*
X14627478Y-12499184D01*
X14627478Y-12499184D02*
X14608430Y-12508708D01*
X14608430Y-12508708D02*
X14598907Y-12518231D01*
X14598907Y-12518231D02*
X14589383Y-12537279D01*
X14589383Y-12537279D02*
X14589383Y-12584898D01*
X14589383Y-12584898D02*
X14598907Y-12603946D01*
X14598907Y-12603946D02*
X14608430Y-12613469D01*
X14608430Y-12613469D02*
X14627478Y-12622993D01*
X14627478Y-12622993D02*
X14665573Y-12622993D01*
X14665573Y-12622993D02*
X14684621Y-12613469D01*
X14684621Y-12613469D02*
X14694145Y-12603946D01*
X14694145Y-12603946D02*
X14703668Y-12584898D01*
X14894145Y-12699184D02*
X14779859Y-12699184D01*
X14837002Y-12699184D02*
X14837002Y-12499184D01*
X14837002Y-12499184D02*
X14817954Y-12527755D01*
X14817954Y-12527755D02*
X14798907Y-12546803D01*
X14798907Y-12546803D02*
X14779859Y-12556327D01*
X14970335Y-12499184D02*
X14970335Y-12537279D01*
X15046526Y-12499184D02*
X15046526Y-12537279D01*
X15341764Y-12775374D02*
X15332240Y-12765850D01*
X15332240Y-12765850D02*
X15313192Y-12737279D01*
X15313192Y-12737279D02*
X15303669Y-12718231D01*
X15303669Y-12718231D02*
X15294145Y-12689660D01*
X15294145Y-12689660D02*
X15284621Y-12642041D01*
X15284621Y-12642041D02*
X15284621Y-12603946D01*
X15284621Y-12603946D02*
X15294145Y-12556327D01*
X15294145Y-12556327D02*
X15303669Y-12527755D01*
X15303669Y-12527755D02*
X15313192Y-12508708D01*
X15313192Y-12508708D02*
X15332240Y-12480136D01*
X15332240Y-12480136D02*
X15341764Y-12470612D01*
X15503669Y-12565850D02*
X15503669Y-12699184D01*
X15456049Y-12489660D02*
X15408430Y-12632517D01*
X15408430Y-12632517D02*
X15532240Y-12632517D01*
X15760811Y-12699184D02*
X15760811Y-12499184D01*
X15846526Y-12699184D02*
X15846526Y-12594422D01*
X15846526Y-12594422D02*
X15837002Y-12575374D01*
X15837002Y-12575374D02*
X15817954Y-12565850D01*
X15817954Y-12565850D02*
X15789383Y-12565850D01*
X15789383Y-12565850D02*
X15770335Y-12575374D01*
X15770335Y-12575374D02*
X15760811Y-12584898D01*
X15970335Y-12699184D02*
X15951288Y-12689660D01*
X15951288Y-12689660D02*
X15941764Y-12680136D01*
X15941764Y-12680136D02*
X15932240Y-12661088D01*
X15932240Y-12661088D02*
X15932240Y-12603946D01*
X15932240Y-12603946D02*
X15941764Y-12584898D01*
X15941764Y-12584898D02*
X15951288Y-12575374D01*
X15951288Y-12575374D02*
X15970335Y-12565850D01*
X15970335Y-12565850D02*
X15998907Y-12565850D01*
X15998907Y-12565850D02*
X16017954Y-12575374D01*
X16017954Y-12575374D02*
X16027478Y-12584898D01*
X16027478Y-12584898D02*
X16037002Y-12603946D01*
X16037002Y-12603946D02*
X16037002Y-12661088D01*
X16037002Y-12661088D02*
X16027478Y-12680136D01*
X16027478Y-12680136D02*
X16017954Y-12689660D01*
X16017954Y-12689660D02*
X15998907Y-12699184D01*
X15998907Y-12699184D02*
X15970335Y-12699184D01*
X16151288Y-12699184D02*
X16132240Y-12689660D01*
X16132240Y-12689660D02*
X16122716Y-12670612D01*
X16122716Y-12670612D02*
X16122716Y-12499184D01*
X16303669Y-12689660D02*
X16284621Y-12699184D01*
X16284621Y-12699184D02*
X16246526Y-12699184D01*
X16246526Y-12699184D02*
X16227478Y-12689660D01*
X16227478Y-12689660D02*
X16217954Y-12670612D01*
X16217954Y-12670612D02*
X16217954Y-12594422D01*
X16217954Y-12594422D02*
X16227478Y-12575374D01*
X16227478Y-12575374D02*
X16246526Y-12565850D01*
X16246526Y-12565850D02*
X16284621Y-12565850D01*
X16284621Y-12565850D02*
X16303669Y-12575374D01*
X16303669Y-12575374D02*
X16313192Y-12594422D01*
X16313192Y-12594422D02*
X16313192Y-12613469D01*
X16313192Y-12613469D02*
X16217954Y-12632517D01*
X16389383Y-12689660D02*
X16408431Y-12699184D01*
X16408431Y-12699184D02*
X16446526Y-12699184D01*
X16446526Y-12699184D02*
X16465573Y-12689660D01*
X16465573Y-12689660D02*
X16475097Y-12670612D01*
X16475097Y-12670612D02*
X16475097Y-12661088D01*
X16475097Y-12661088D02*
X16465573Y-12642041D01*
X16465573Y-12642041D02*
X16446526Y-12632517D01*
X16446526Y-12632517D02*
X16417954Y-12632517D01*
X16417954Y-12632517D02*
X16398907Y-12622993D01*
X16398907Y-12622993D02*
X16389383Y-12603946D01*
X16389383Y-12603946D02*
X16389383Y-12594422D01*
X16389383Y-12594422D02*
X16398907Y-12575374D01*
X16398907Y-12575374D02*
X16417954Y-12565850D01*
X16417954Y-12565850D02*
X16446526Y-12565850D01*
X16446526Y-12565850D02*
X16465573Y-12575374D01*
X16541764Y-12775374D02*
X16551288Y-12765850D01*
X16551288Y-12765850D02*
X16570335Y-12737279D01*
X16570335Y-12737279D02*
X16579859Y-12718231D01*
X16579859Y-12718231D02*
X16589383Y-12689660D01*
X16589383Y-12689660D02*
X16598907Y-12642041D01*
X16598907Y-12642041D02*
X16598907Y-12603946D01*
X16598907Y-12603946D02*
X16589383Y-12556327D01*
X16589383Y-12556327D02*
X16579859Y-12527755D01*
X16579859Y-12527755D02*
X16570335Y-12508708D01*
X16570335Y-12508708D02*
X16551288Y-12480136D01*
X16551288Y-12480136D02*
X16541764Y-12470612D01*
D13*
X11576701Y-12782700D02*
X11766701Y-12972700D01*
X11766701Y-12782700D02*
X11576701Y-12972700D01*
X11671701Y-12782700D02*
X11671701Y-12972700D01*
X11576701Y-12877700D02*
X11766701Y-12877700D01*
D10*
X12132240Y-12969184D02*
X12017954Y-12969184D01*
X12075097Y-12969184D02*
X12075097Y-12769184D01*
X12075097Y-12769184D02*
X12056049Y-12797755D01*
X12056049Y-12797755D02*
X12037002Y-12816803D01*
X12037002Y-12816803D02*
X12017954Y-12826327D01*
X12217954Y-12950136D02*
X12227478Y-12959660D01*
X12227478Y-12959660D02*
X12217954Y-12969184D01*
X12217954Y-12969184D02*
X12208430Y-12959660D01*
X12208430Y-12959660D02*
X12217954Y-12950136D01*
X12217954Y-12950136D02*
X12217954Y-12969184D01*
X12322716Y-12969184D02*
X12360811Y-12969184D01*
X12360811Y-12969184D02*
X12379859Y-12959660D01*
X12379859Y-12959660D02*
X12389383Y-12950136D01*
X12389383Y-12950136D02*
X12408430Y-12921565D01*
X12408430Y-12921565D02*
X12417954Y-12883469D01*
X12417954Y-12883469D02*
X12417954Y-12807279D01*
X12417954Y-12807279D02*
X12408430Y-12788231D01*
X12408430Y-12788231D02*
X12398906Y-12778708D01*
X12398906Y-12778708D02*
X12379859Y-12769184D01*
X12379859Y-12769184D02*
X12341763Y-12769184D01*
X12341763Y-12769184D02*
X12322716Y-12778708D01*
X12322716Y-12778708D02*
X12313192Y-12788231D01*
X12313192Y-12788231D02*
X12303668Y-12807279D01*
X12303668Y-12807279D02*
X12303668Y-12854898D01*
X12303668Y-12854898D02*
X12313192Y-12873946D01*
X12313192Y-12873946D02*
X12322716Y-12883469D01*
X12322716Y-12883469D02*
X12341763Y-12892993D01*
X12341763Y-12892993D02*
X12379859Y-12892993D01*
X12379859Y-12892993D02*
X12398906Y-12883469D01*
X12398906Y-12883469D02*
X12408430Y-12873946D01*
X12408430Y-12873946D02*
X12417954Y-12854898D01*
X12541763Y-12769184D02*
X12560811Y-12769184D01*
X12560811Y-12769184D02*
X12579859Y-12778708D01*
X12579859Y-12778708D02*
X12589383Y-12788231D01*
X12589383Y-12788231D02*
X12598906Y-12807279D01*
X12598906Y-12807279D02*
X12608430Y-12845374D01*
X12608430Y-12845374D02*
X12608430Y-12892993D01*
X12608430Y-12892993D02*
X12598906Y-12931088D01*
X12598906Y-12931088D02*
X12589383Y-12950136D01*
X12589383Y-12950136D02*
X12579859Y-12959660D01*
X12579859Y-12959660D02*
X12560811Y-12969184D01*
X12560811Y-12969184D02*
X12541763Y-12969184D01*
X12541763Y-12969184D02*
X12522716Y-12959660D01*
X12522716Y-12959660D02*
X12513192Y-12950136D01*
X12513192Y-12950136D02*
X12503668Y-12931088D01*
X12503668Y-12931088D02*
X12494144Y-12892993D01*
X12494144Y-12892993D02*
X12494144Y-12845374D01*
X12494144Y-12845374D02*
X12503668Y-12807279D01*
X12503668Y-12807279D02*
X12513192Y-12788231D01*
X12513192Y-12788231D02*
X12522716Y-12778708D01*
X12522716Y-12778708D02*
X12541763Y-12769184D01*
X12732240Y-12769184D02*
X12751287Y-12769184D01*
X12751287Y-12769184D02*
X12770335Y-12778708D01*
X12770335Y-12778708D02*
X12779859Y-12788231D01*
X12779859Y-12788231D02*
X12789383Y-12807279D01*
X12789383Y-12807279D02*
X12798906Y-12845374D01*
X12798906Y-12845374D02*
X12798906Y-12892993D01*
X12798906Y-12892993D02*
X12789383Y-12931088D01*
X12789383Y-12931088D02*
X12779859Y-12950136D01*
X12779859Y-12950136D02*
X12770335Y-12959660D01*
X12770335Y-12959660D02*
X12751287Y-12969184D01*
X12751287Y-12969184D02*
X12732240Y-12969184D01*
X12732240Y-12969184D02*
X12713192Y-12959660D01*
X12713192Y-12959660D02*
X12703668Y-12950136D01*
X12703668Y-12950136D02*
X12694144Y-12931088D01*
X12694144Y-12931088D02*
X12684621Y-12892993D01*
X12684621Y-12892993D02*
X12684621Y-12845374D01*
X12684621Y-12845374D02*
X12694144Y-12807279D01*
X12694144Y-12807279D02*
X12703668Y-12788231D01*
X12703668Y-12788231D02*
X12713192Y-12778708D01*
X12713192Y-12778708D02*
X12732240Y-12769184D01*
X12884621Y-12969184D02*
X12884621Y-12835850D01*
X12884621Y-12854898D02*
X12894144Y-12845374D01*
X12894144Y-12845374D02*
X12913192Y-12835850D01*
X12913192Y-12835850D02*
X12941764Y-12835850D01*
X12941764Y-12835850D02*
X12960811Y-12845374D01*
X12960811Y-12845374D02*
X12970335Y-12864422D01*
X12970335Y-12864422D02*
X12970335Y-12969184D01*
X12970335Y-12864422D02*
X12979859Y-12845374D01*
X12979859Y-12845374D02*
X12998906Y-12835850D01*
X12998906Y-12835850D02*
X13027478Y-12835850D01*
X13027478Y-12835850D02*
X13046525Y-12845374D01*
X13046525Y-12845374D02*
X13056049Y-12864422D01*
X13056049Y-12864422D02*
X13056049Y-12969184D01*
X13151287Y-12969184D02*
X13151287Y-12835850D01*
X13151287Y-12854898D02*
X13160811Y-12845374D01*
X13160811Y-12845374D02*
X13179859Y-12835850D01*
X13179859Y-12835850D02*
X13208430Y-12835850D01*
X13208430Y-12835850D02*
X13227478Y-12845374D01*
X13227478Y-12845374D02*
X13237002Y-12864422D01*
X13237002Y-12864422D02*
X13237002Y-12969184D01*
X13237002Y-12864422D02*
X13246525Y-12845374D01*
X13246525Y-12845374D02*
X13265573Y-12835850D01*
X13265573Y-12835850D02*
X13294144Y-12835850D01*
X13294144Y-12835850D02*
X13313192Y-12845374D01*
X13313192Y-12845374D02*
X13322716Y-12864422D01*
X13322716Y-12864422D02*
X13322716Y-12969184D01*
X13713192Y-12759660D02*
X13541764Y-13016803D01*
X13970335Y-12769184D02*
X13989383Y-12769184D01*
X13989383Y-12769184D02*
X14008430Y-12778708D01*
X14008430Y-12778708D02*
X14017954Y-12788231D01*
X14017954Y-12788231D02*
X14027478Y-12807279D01*
X14027478Y-12807279D02*
X14037002Y-12845374D01*
X14037002Y-12845374D02*
X14037002Y-12892993D01*
X14037002Y-12892993D02*
X14027478Y-12931088D01*
X14027478Y-12931088D02*
X14017954Y-12950136D01*
X14017954Y-12950136D02*
X14008430Y-12959660D01*
X14008430Y-12959660D02*
X13989383Y-12969184D01*
X13989383Y-12969184D02*
X13970335Y-12969184D01*
X13970335Y-12969184D02*
X13951287Y-12959660D01*
X13951287Y-12959660D02*
X13941764Y-12950136D01*
X13941764Y-12950136D02*
X13932240Y-12931088D01*
X13932240Y-12931088D02*
X13922716Y-12892993D01*
X13922716Y-12892993D02*
X13922716Y-12845374D01*
X13922716Y-12845374D02*
X13932240Y-12807279D01*
X13932240Y-12807279D02*
X13941764Y-12788231D01*
X13941764Y-12788231D02*
X13951287Y-12778708D01*
X13951287Y-12778708D02*
X13970335Y-12769184D01*
X14122716Y-12950136D02*
X14132240Y-12959660D01*
X14132240Y-12959660D02*
X14122716Y-12969184D01*
X14122716Y-12969184D02*
X14113192Y-12959660D01*
X14113192Y-12959660D02*
X14122716Y-12950136D01*
X14122716Y-12950136D02*
X14122716Y-12969184D01*
X14256049Y-12769184D02*
X14275097Y-12769184D01*
X14275097Y-12769184D02*
X14294145Y-12778708D01*
X14294145Y-12778708D02*
X14303668Y-12788231D01*
X14303668Y-12788231D02*
X14313192Y-12807279D01*
X14313192Y-12807279D02*
X14322716Y-12845374D01*
X14322716Y-12845374D02*
X14322716Y-12892993D01*
X14322716Y-12892993D02*
X14313192Y-12931088D01*
X14313192Y-12931088D02*
X14303668Y-12950136D01*
X14303668Y-12950136D02*
X14294145Y-12959660D01*
X14294145Y-12959660D02*
X14275097Y-12969184D01*
X14275097Y-12969184D02*
X14256049Y-12969184D01*
X14256049Y-12969184D02*
X14237002Y-12959660D01*
X14237002Y-12959660D02*
X14227478Y-12950136D01*
X14227478Y-12950136D02*
X14217954Y-12931088D01*
X14217954Y-12931088D02*
X14208430Y-12892993D01*
X14208430Y-12892993D02*
X14208430Y-12845374D01*
X14208430Y-12845374D02*
X14217954Y-12807279D01*
X14217954Y-12807279D02*
X14227478Y-12788231D01*
X14227478Y-12788231D02*
X14237002Y-12778708D01*
X14237002Y-12778708D02*
X14256049Y-12769184D01*
X14389383Y-12769184D02*
X14522716Y-12769184D01*
X14522716Y-12769184D02*
X14437002Y-12969184D01*
X14684621Y-12835850D02*
X14684621Y-12969184D01*
X14637002Y-12759660D02*
X14589383Y-12902517D01*
X14589383Y-12902517D02*
X14713192Y-12902517D01*
X14817954Y-12854898D02*
X14798907Y-12845374D01*
X14798907Y-12845374D02*
X14789383Y-12835850D01*
X14789383Y-12835850D02*
X14779859Y-12816803D01*
X14779859Y-12816803D02*
X14779859Y-12807279D01*
X14779859Y-12807279D02*
X14789383Y-12788231D01*
X14789383Y-12788231D02*
X14798907Y-12778708D01*
X14798907Y-12778708D02*
X14817954Y-12769184D01*
X14817954Y-12769184D02*
X14856049Y-12769184D01*
X14856049Y-12769184D02*
X14875097Y-12778708D01*
X14875097Y-12778708D02*
X14884621Y-12788231D01*
X14884621Y-12788231D02*
X14894145Y-12807279D01*
X14894145Y-12807279D02*
X14894145Y-12816803D01*
X14894145Y-12816803D02*
X14884621Y-12835850D01*
X14884621Y-12835850D02*
X14875097Y-12845374D01*
X14875097Y-12845374D02*
X14856049Y-12854898D01*
X14856049Y-12854898D02*
X14817954Y-12854898D01*
X14817954Y-12854898D02*
X14798907Y-12864422D01*
X14798907Y-12864422D02*
X14789383Y-12873946D01*
X14789383Y-12873946D02*
X14779859Y-12892993D01*
X14779859Y-12892993D02*
X14779859Y-12931088D01*
X14779859Y-12931088D02*
X14789383Y-12950136D01*
X14789383Y-12950136D02*
X14798907Y-12959660D01*
X14798907Y-12959660D02*
X14817954Y-12969184D01*
X14817954Y-12969184D02*
X14856049Y-12969184D01*
X14856049Y-12969184D02*
X14875097Y-12959660D01*
X14875097Y-12959660D02*
X14884621Y-12950136D01*
X14884621Y-12950136D02*
X14894145Y-12931088D01*
X14894145Y-12931088D02*
X14894145Y-12892993D01*
X14894145Y-12892993D02*
X14884621Y-12873946D01*
X14884621Y-12873946D02*
X14875097Y-12864422D01*
X14875097Y-12864422D02*
X14856049Y-12854898D01*
X14970335Y-12769184D02*
X14970335Y-12807279D01*
X15046526Y-12769184D02*
X15046526Y-12807279D01*
X15341764Y-13045374D02*
X15332240Y-13035850D01*
X15332240Y-13035850D02*
X15313192Y-13007279D01*
X15313192Y-13007279D02*
X15303669Y-12988231D01*
X15303669Y-12988231D02*
X15294145Y-12959660D01*
X15294145Y-12959660D02*
X15284621Y-12912041D01*
X15284621Y-12912041D02*
X15284621Y-12873946D01*
X15284621Y-12873946D02*
X15294145Y-12826327D01*
X15294145Y-12826327D02*
X15303669Y-12797755D01*
X15303669Y-12797755D02*
X15313192Y-12778708D01*
X15313192Y-12778708D02*
X15332240Y-12750136D01*
X15332240Y-12750136D02*
X15341764Y-12740612D01*
X15503669Y-12835850D02*
X15503669Y-12969184D01*
X15456049Y-12759660D02*
X15408430Y-12902517D01*
X15408430Y-12902517D02*
X15532240Y-12902517D01*
X15760811Y-12969184D02*
X15760811Y-12769184D01*
X15846526Y-12969184D02*
X15846526Y-12864422D01*
X15846526Y-12864422D02*
X15837002Y-12845374D01*
X15837002Y-12845374D02*
X15817954Y-12835850D01*
X15817954Y-12835850D02*
X15789383Y-12835850D01*
X15789383Y-12835850D02*
X15770335Y-12845374D01*
X15770335Y-12845374D02*
X15760811Y-12854898D01*
X15970335Y-12969184D02*
X15951288Y-12959660D01*
X15951288Y-12959660D02*
X15941764Y-12950136D01*
X15941764Y-12950136D02*
X15932240Y-12931088D01*
X15932240Y-12931088D02*
X15932240Y-12873946D01*
X15932240Y-12873946D02*
X15941764Y-12854898D01*
X15941764Y-12854898D02*
X15951288Y-12845374D01*
X15951288Y-12845374D02*
X15970335Y-12835850D01*
X15970335Y-12835850D02*
X15998907Y-12835850D01*
X15998907Y-12835850D02*
X16017954Y-12845374D01*
X16017954Y-12845374D02*
X16027478Y-12854898D01*
X16027478Y-12854898D02*
X16037002Y-12873946D01*
X16037002Y-12873946D02*
X16037002Y-12931088D01*
X16037002Y-12931088D02*
X16027478Y-12950136D01*
X16027478Y-12950136D02*
X16017954Y-12959660D01*
X16017954Y-12959660D02*
X15998907Y-12969184D01*
X15998907Y-12969184D02*
X15970335Y-12969184D01*
X16151288Y-12969184D02*
X16132240Y-12959660D01*
X16132240Y-12959660D02*
X16122716Y-12940612D01*
X16122716Y-12940612D02*
X16122716Y-12769184D01*
X16303669Y-12959660D02*
X16284621Y-12969184D01*
X16284621Y-12969184D02*
X16246526Y-12969184D01*
X16246526Y-12969184D02*
X16227478Y-12959660D01*
X16227478Y-12959660D02*
X16217954Y-12940612D01*
X16217954Y-12940612D02*
X16217954Y-12864422D01*
X16217954Y-12864422D02*
X16227478Y-12845374D01*
X16227478Y-12845374D02*
X16246526Y-12835850D01*
X16246526Y-12835850D02*
X16284621Y-12835850D01*
X16284621Y-12835850D02*
X16303669Y-12845374D01*
X16303669Y-12845374D02*
X16313192Y-12864422D01*
X16313192Y-12864422D02*
X16313192Y-12883469D01*
X16313192Y-12883469D02*
X16217954Y-12902517D01*
X16389383Y-12959660D02*
X16408431Y-12969184D01*
X16408431Y-12969184D02*
X16446526Y-12969184D01*
X16446526Y-12969184D02*
X16465573Y-12959660D01*
X16465573Y-12959660D02*
X16475097Y-12940612D01*
X16475097Y-12940612D02*
X16475097Y-12931088D01*
X16475097Y-12931088D02*
X16465573Y-12912041D01*
X16465573Y-12912041D02*
X16446526Y-12902517D01*
X16446526Y-12902517D02*
X16417954Y-12902517D01*
X16417954Y-12902517D02*
X16398907Y-12892993D01*
X16398907Y-12892993D02*
X16389383Y-12873946D01*
X16389383Y-12873946D02*
X16389383Y-12864422D01*
X16389383Y-12864422D02*
X16398907Y-12845374D01*
X16398907Y-12845374D02*
X16417954Y-12835850D01*
X16417954Y-12835850D02*
X16446526Y-12835850D01*
X16446526Y-12835850D02*
X16465573Y-12845374D01*
X16541764Y-13045374D02*
X16551288Y-13035850D01*
X16551288Y-13035850D02*
X16570335Y-13007279D01*
X16570335Y-13007279D02*
X16579859Y-12988231D01*
X16579859Y-12988231D02*
X16589383Y-12959660D01*
X16589383Y-12959660D02*
X16598907Y-12912041D01*
X16598907Y-12912041D02*
X16598907Y-12873946D01*
X16598907Y-12873946D02*
X16589383Y-12826327D01*
X16589383Y-12826327D02*
X16579859Y-12797755D01*
X16579859Y-12797755D02*
X16570335Y-12778708D01*
X16570335Y-12778708D02*
X16551288Y-12750136D01*
X16551288Y-12750136D02*
X16541764Y-12740612D01*
M02*
