%TF.GenerationSoftware,KiCad,Pcbnew,7.0.11*%
%TF.CreationDate,2025-01-20T01:43:57+09:00*%
%TF.ProjectId,Relay,52656c61-792e-46b6-9963-61645f706362,rev?*%
%TF.SameCoordinates,Original*%
%TF.FileFunction,Copper,L1,Top*%
%TF.FilePolarity,Positive*%
%FSLAX46Y46*%
G04 Gerber Fmt 4.6, Leading zero omitted, Abs format (unit mm)*
G04 Created by KiCad (PCBNEW 7.0.11) date 2025-01-20 01:43:57*
%MOMM*%
%LPD*%
G01*
G04 APERTURE LIST*
G04 Aperture macros list*
%AMRoundRect*
0 Rectangle with rounded corners*
0 $1 Rounding radius*
0 $2 $3 $4 $5 $6 $7 $8 $9 X,Y pos of 4 corners*
0 Add a 4 corners polygon primitive as box body*
4,1,4,$2,$3,$4,$5,$6,$7,$8,$9,$2,$3,0*
0 Add four circle primitives for the rounded corners*
1,1,$1+$1,$2,$3*
1,1,$1+$1,$4,$5*
1,1,$1+$1,$6,$7*
1,1,$1+$1,$8,$9*
0 Add four rect primitives between the rounded corners*
20,1,$1+$1,$2,$3,$4,$5,0*
20,1,$1+$1,$4,$5,$6,$7,0*
20,1,$1+$1,$6,$7,$8,$9,0*
20,1,$1+$1,$8,$9,$2,$3,0*%
G04 Aperture macros list end*
%TA.AperFunction,ComponentPad*%
%ADD10C,1.400000*%
%TD*%
%TA.AperFunction,ComponentPad*%
%ADD11R,3.500000X3.500000*%
%TD*%
%TA.AperFunction,ComponentPad*%
%ADD12C,3.500000*%
%TD*%
%TA.AperFunction,ComponentPad*%
%ADD13RoundRect,0.250000X-0.600000X-0.725000X0.600000X-0.725000X0.600000X0.725000X-0.600000X0.725000X0*%
%TD*%
%TA.AperFunction,ComponentPad*%
%ADD14O,1.700000X1.950000*%
%TD*%
%TA.AperFunction,SMDPad,CuDef*%
%ADD15R,0.300000X0.850000*%
%TD*%
%TA.AperFunction,ComponentPad*%
%ADD16C,1.100000*%
%TD*%
%TA.AperFunction,ComponentPad*%
%ADD17C,2.500000*%
%TD*%
%TA.AperFunction,SMDPad,CuDef*%
%ADD18RoundRect,0.375000X0.375000X0.625000X-0.375000X0.625000X-0.375000X-0.625000X0.375000X-0.625000X0*%
%TD*%
%TA.AperFunction,SMDPad,CuDef*%
%ADD19C,2.500000*%
%TD*%
%TA.AperFunction,ComponentPad*%
%ADD20RoundRect,0.250000X0.600000X0.725000X-0.600000X0.725000X-0.600000X-0.725000X0.600000X-0.725000X0*%
%TD*%
%TA.AperFunction,ComponentPad*%
%ADD21R,1.700000X1.700000*%
%TD*%
%TA.AperFunction,ComponentPad*%
%ADD22O,1.700000X1.700000*%
%TD*%
%TA.AperFunction,ViaPad*%
%ADD23C,0.800000*%
%TD*%
%TA.AperFunction,ViaPad*%
%ADD24C,0.300000*%
%TD*%
%TA.AperFunction,Conductor*%
%ADD25C,0.200000*%
%TD*%
%TA.AperFunction,Conductor*%
%ADD26C,2.000000*%
%TD*%
%TA.AperFunction,Conductor*%
%ADD27C,1.000000*%
%TD*%
G04 APERTURE END LIST*
D10*
%TO.P,J4,*%
%TO.N,*%
X120897000Y-86145000D03*
X120897000Y-75145000D03*
D11*
%TO.P,J4,1,Pin_1*%
%TO.N,+12V*%
X130897000Y-78145000D03*
D12*
%TO.P,J4,2,Pin_2*%
%TO.N,GND*%
X130897000Y-83145000D03*
%TD*%
D13*
%TO.P,J5,1,Pin_1*%
%TO.N,/OUT1A*%
X149900000Y-102853000D03*
D14*
%TO.P,J5,2,Pin_2*%
%TO.N,/OUT1B*%
X152400000Y-102853000D03*
%TO.P,J5,3,Pin_3*%
%TO.N,/OUT1C*%
X154900000Y-102853000D03*
%TD*%
D15*
%TO.P,J1,A1,GND*%
%TO.N,GND*%
X149650000Y-81715000D03*
%TO.P,J1,A2,SSTXP1*%
%TO.N,/MDTX*%
X150150000Y-81715000D03*
%TO.P,J1,A3,SSTXN1*%
%TO.N,/MDRX*%
X150650000Y-81715000D03*
%TO.P,J1,A4,VBUS*%
%TO.N,+12V*%
X151150000Y-81715000D03*
%TO.P,J1,A5,CC1*%
%TO.N,/FET3*%
X151650000Y-81715000D03*
%TO.P,J1,A6,DP1*%
%TO.N,/FET1*%
X152150000Y-81715000D03*
%TO.P,J1,A7,DN1*%
%TO.N,/FET2*%
X152650000Y-81715000D03*
%TO.P,J1,A8,SBU1*%
%TO.N,/UART_RX*%
X153150000Y-81715000D03*
%TO.P,J1,A9,VBUS*%
%TO.N,+12V*%
X153650000Y-81715000D03*
%TO.P,J1,A10,SSRXN2*%
%TO.N,/UART_TX*%
X154150000Y-81715000D03*
%TO.P,J1,A11,SSRXP2*%
%TO.N,unconnected-(J1-SSRXP2-PadA11)*%
X154650000Y-81715000D03*
%TO.P,J1,A12,GND*%
%TO.N,GND*%
X155150000Y-81715000D03*
%TO.P,J1,B1,GND*%
X155150000Y-83385000D03*
%TO.P,J1,B2,SSTXP2*%
%TO.N,unconnected-(J1-SSTXP2-PadB2)*%
X154650000Y-83385000D03*
%TO.P,J1,B3,SSTXN2*%
%TO.N,/MouseRX*%
X154150000Y-83385000D03*
%TO.P,J1,B4,VBUS*%
%TO.N,+12V*%
X153650000Y-83385000D03*
%TO.P,J1,B5,CC2*%
%TO.N,/MouseTX*%
X153150000Y-83385000D03*
%TO.P,J1,B6,DP2*%
%TO.N,/LineRX*%
X152650000Y-83385000D03*
%TO.P,J1,B7,DN2*%
%TO.N,/LineTX*%
X152150000Y-83385000D03*
%TO.P,J1,B8,SBU2*%
%TO.N,/Line_NeoPixel*%
X151650000Y-83385000D03*
%TO.P,J1,B9,VBUS*%
%TO.N,+12V*%
X151150000Y-83385000D03*
%TO.P,J1,B10,SSRXN1*%
%TO.N,unconnected-(J1-SSRXN1-PadB10)*%
X150650000Y-83385000D03*
%TO.P,J1,B11,SSRXP1*%
%TO.N,unconnected-(J1-SSRXP1-PadB11)*%
X150150000Y-83385000D03*
%TO.P,J1,B12,GND*%
%TO.N,GND*%
X149650000Y-83385000D03*
D16*
%TO.P,J1,S1*%
%TO.N,N/C*%
X150000000Y-80400000D03*
X150000000Y-84700000D03*
X154800000Y-80400000D03*
X154800000Y-84700000D03*
%TD*%
D17*
%TO.P,U2,1,VDDM*%
%TO.N,+12V*%
X158877000Y-73906000D03*
%TO.P,U2,2,GND*%
%TO.N,GND*%
X170307000Y-73906000D03*
D18*
%TO.P,U2,3,PWM*%
%TO.N,/BLDC2*%
X166497000Y-73906000D03*
%TO.P,U2,4,VDD*%
%TO.N,unconnected-(U2-VDD-Pad4)*%
X164592000Y-73906000D03*
%TO.P,U2,5,GND*%
%TO.N,GND*%
X162687000Y-73906000D03*
D19*
%TO.P,U2,6,OUT_A*%
%TO.N,/OUT2A*%
X169037000Y-104386000D03*
%TO.P,U2,7,OUT_B*%
%TO.N,/OUT2B*%
X164592000Y-104386000D03*
%TO.P,U2,8,OUT_C*%
%TO.N,/OUT2C*%
X160147000Y-104386000D03*
%TD*%
D20*
%TO.P,J6,1,Pin_1*%
%TO.N,/OUT2A*%
X154900000Y-95902000D03*
D14*
%TO.P,J6,2,Pin_2*%
%TO.N,/OUT2B*%
X152400000Y-95902000D03*
%TO.P,J6,3,Pin_3*%
%TO.N,/OUT2C*%
X149900000Y-95902000D03*
%TD*%
D21*
%TO.P,J8,1,Pin_1*%
%TO.N,/MDTX*%
X130212000Y-89408000D03*
D22*
%TO.P,J8,2,Pin_2*%
%TO.N,/MDRX*%
X127672000Y-89408000D03*
%TO.P,J8,3,Pin_3*%
%TO.N,/FET1*%
X130212000Y-91948000D03*
%TO.P,J8,4,Pin_4*%
%TO.N,/FET2*%
X127672000Y-91948000D03*
%TO.P,J8,5,Pin_5*%
%TO.N,/FET3*%
X130212000Y-94488000D03*
%TO.P,J8,6,Pin_6*%
%TO.N,/BLDC1*%
X127672000Y-94488000D03*
%TO.P,J8,7,Pin_7*%
%TO.N,+48V*%
X130212000Y-97028000D03*
%TO.P,J8,8,Pin_8*%
%TO.N,/BLDC2*%
X127672000Y-97028000D03*
%TO.P,J8,9*%
%TO.N,N/C*%
X130212000Y-99568000D03*
%TO.P,J8,10*%
X127672000Y-99568000D03*
%TO.P,J8,11*%
X130212000Y-102108000D03*
%TO.P,J8,12*%
X127672000Y-102108000D03*
%TD*%
D10*
%TO.P,J3,*%
%TO.N,*%
X183769000Y-75106000D03*
X183769000Y-86106000D03*
D11*
%TO.P,J3,1,Pin_1*%
%TO.N,+12V*%
X173769000Y-83106000D03*
D12*
%TO.P,J3,2,Pin_2*%
%TO.N,GND*%
X173769000Y-78106000D03*
%TD*%
D17*
%TO.P,U1,1,VDDM*%
%TO.N,+12V*%
X134366000Y-73914000D03*
%TO.P,U1,2,GND*%
%TO.N,GND*%
X145796000Y-73914000D03*
D18*
%TO.P,U1,3,PWM*%
%TO.N,/BLDC1*%
X141986000Y-73914000D03*
%TO.P,U1,4,VDD*%
%TO.N,unconnected-(U1-VDD-Pad4)*%
X140081000Y-73914000D03*
%TO.P,U1,5,GND*%
%TO.N,GND*%
X138176000Y-73914000D03*
D19*
%TO.P,U1,6,OUT_A*%
%TO.N,/OUT1A*%
X144526000Y-104394000D03*
%TO.P,U1,7,OUT_B*%
%TO.N,/OUT1B*%
X140081000Y-104394000D03*
%TO.P,U1,8,OUT_C*%
%TO.N,/OUT1C*%
X135636000Y-104394000D03*
%TD*%
D21*
%TO.P,J7,1,Pin_1*%
%TO.N,/UART_TX*%
X176956000Y-97195000D03*
D22*
%TO.P,J7,2,Pin_2*%
%TO.N,/UART_RX*%
X176956000Y-94655000D03*
%TO.P,J7,3,Pin_3*%
%TO.N,+48V*%
X176956000Y-92115000D03*
%TO.P,J7,4,Pin_4*%
X176956000Y-89575000D03*
%TD*%
D20*
%TO.P,J9,1,Pin_1*%
%TO.N,+12V*%
X172466000Y-97028000D03*
D14*
%TO.P,J9,2,Pin_2*%
%TO.N,GND*%
X169966000Y-97028000D03*
%TO.P,J9,3,Pin_3*%
%TO.N,/MouseRX*%
X167466000Y-97028000D03*
%TO.P,J9,4,Pin_4*%
%TO.N,/MouseTX*%
X164966000Y-97028000D03*
%TD*%
D20*
%TO.P,J2,1,Pin_1*%
%TO.N,+12V*%
X144192000Y-97134000D03*
D14*
%TO.P,J2,2,Pin_2*%
%TO.N,GND*%
X141692000Y-97134000D03*
%TO.P,J2,3,Pin_3*%
%TO.N,/LineRX*%
X139192000Y-97134000D03*
%TO.P,J2,4,Pin_4*%
%TO.N,/LineTX*%
X136692000Y-97134000D03*
%TO.P,J2,5,Pin_5*%
%TO.N,/Line_NeoPixel*%
X134192000Y-97134000D03*
%TD*%
D23*
%TO.N,GND*%
X162306000Y-78359000D03*
X146177000Y-97917000D03*
X152527000Y-86233000D03*
X127762000Y-79121000D03*
X141605000Y-78740000D03*
X182499000Y-80391000D03*
X152781000Y-91694000D03*
X174752000Y-90678000D03*
X170434000Y-92329000D03*
X169037000Y-102108000D03*
X148590000Y-81280000D03*
X146177000Y-84455000D03*
X176784000Y-80264000D03*
X140462000Y-95504000D03*
X135763000Y-102108000D03*
X128778000Y-104902000D03*
X122047000Y-89662000D03*
X148590000Y-98044000D03*
X156210000Y-81280000D03*
X146177000Y-80645000D03*
X166243000Y-78486000D03*
X174752000Y-86106000D03*
X146304000Y-91694000D03*
X137160000Y-81915000D03*
X163449000Y-92710000D03*
X171323000Y-105664000D03*
X170434000Y-82677000D03*
X133096000Y-105664000D03*
X127762000Y-87249000D03*
X122047000Y-96520000D03*
X131699000Y-101092000D03*
X137541000Y-90297000D03*
X133985000Y-78740000D03*
X132334000Y-95631000D03*
X161925000Y-87249000D03*
X120142000Y-104013000D03*
X142240000Y-83947000D03*
X142240000Y-93472000D03*
X158877000Y-80645000D03*
X136525000Y-73406000D03*
X185293000Y-104267000D03*
X169926000Y-94869000D03*
X130429000Y-72136000D03*
X133731000Y-86614000D03*
X162941000Y-97409000D03*
X161036000Y-73025000D03*
X159385000Y-98044000D03*
X156210000Y-83820000D03*
X155448000Y-78232000D03*
X142113000Y-87503000D03*
X148590000Y-83820000D03*
X170434000Y-86487000D03*
X173990000Y-73533000D03*
X168021000Y-72136000D03*
X174752000Y-97282000D03*
X170561000Y-76581000D03*
X142240000Y-95250000D03*
X156718000Y-85979000D03*
X121920000Y-80645000D03*
X184912000Y-93345000D03*
%TO.N,+12V*%
X171450000Y-80772000D03*
X157480000Y-76327000D03*
X141515000Y-76290000D03*
X168275000Y-77597000D03*
X165317000Y-76364000D03*
X139049000Y-76290000D03*
X132715000Y-75565000D03*
X152273000Y-76327000D03*
X149352000Y-76327000D03*
D24*
X153650000Y-82042000D03*
D23*
X146886000Y-76327000D03*
X169926000Y-79248000D03*
D24*
X153650000Y-83058000D03*
D23*
X155014000Y-76327000D03*
X134239000Y-76327000D03*
X162851000Y-76364000D03*
X136308000Y-76290000D03*
X144145000Y-76327000D03*
X160110000Y-76364000D03*
%TO.N,/MDRX*%
X152357811Y-79434407D03*
D24*
X150649998Y-82042000D03*
%TO.N,/MDTX*%
X150150002Y-82042000D03*
D23*
X151650702Y-78727298D03*
%TD*%
D25*
%TO.N,GND*%
X149025000Y-81715000D02*
X148590000Y-81280000D01*
X155150000Y-81715000D02*
X155775000Y-81715000D01*
X149025000Y-83385000D02*
X148590000Y-83820000D01*
X155775000Y-83385000D02*
X156210000Y-83820000D01*
X155775000Y-81715000D02*
X156210000Y-81280000D01*
X149650000Y-83385000D02*
X149025000Y-83385000D01*
X149650000Y-81715000D02*
X149025000Y-81715000D01*
X155150000Y-83385000D02*
X155775000Y-83385000D01*
%TO.N,/UART_TX*%
X154150000Y-81715000D02*
X154150000Y-80952082D01*
X153924000Y-80726082D02*
X153924000Y-80010000D01*
X154150000Y-80952082D02*
X153924000Y-80726082D01*
X154384000Y-79550000D02*
X159311000Y-79550000D01*
X159311000Y-79550000D02*
X176956000Y-97195000D01*
X153924000Y-80010000D02*
X154384000Y-79550000D01*
%TO.N,/UART_RX*%
X154218314Y-79150000D02*
X153150000Y-80218314D01*
X161451000Y-79150000D02*
X154218314Y-79150000D01*
X176956000Y-94655000D02*
X161451000Y-79150000D01*
X153150000Y-80218314D02*
X153150000Y-81715000D01*
D26*
%TO.N,+12V*%
X171435000Y-80772000D02*
X171450000Y-80772000D01*
X158877000Y-73906000D02*
X161335000Y-76364000D01*
X160110000Y-76364000D02*
X159004000Y-76364000D01*
X138811000Y-76364000D02*
X155321000Y-76364000D01*
X134202000Y-76364000D02*
X134239000Y-76327000D01*
X130897000Y-78145000D02*
X130897000Y-77383000D01*
X134366000Y-73914000D02*
X136816000Y-76364000D01*
D25*
X151150000Y-82550000D02*
X151150000Y-83385000D01*
D26*
X134239000Y-76327000D02*
X134276000Y-76364000D01*
X132715000Y-75565000D02*
X134366000Y-73914000D01*
X169911000Y-79248000D02*
X169926000Y-79248000D01*
X158877000Y-73906000D02*
X158877000Y-76237000D01*
D25*
X153650000Y-83058000D02*
X153650000Y-83385000D01*
D26*
X165317000Y-76364000D02*
X167027000Y-76364000D01*
D25*
X153650000Y-82042000D02*
X153650000Y-82550000D01*
D26*
X161335000Y-76364000D02*
X161925000Y-76364000D01*
X158877000Y-73906000D02*
X156419000Y-76364000D01*
D25*
X151150000Y-82550000D02*
X153650000Y-82550000D01*
D26*
X171450000Y-80787000D02*
X173769000Y-83106000D01*
X168260000Y-77597000D02*
X168275000Y-77597000D01*
X132678000Y-76364000D02*
X134202000Y-76364000D01*
D25*
X153650000Y-82550000D02*
X153650000Y-83058000D01*
D26*
X134366000Y-76364000D02*
X138811000Y-76364000D01*
X168275000Y-77597000D02*
X168275000Y-77612000D01*
X168275000Y-77612000D02*
X169911000Y-79248000D01*
X160110000Y-76364000D02*
X160491000Y-76364000D01*
X156419000Y-76364000D02*
X155321000Y-76364000D01*
X167027000Y-76364000D02*
X168260000Y-77597000D01*
X130897000Y-78145000D02*
X132678000Y-76364000D01*
X171450000Y-80772000D02*
X171450000Y-80787000D01*
X136816000Y-76364000D02*
X138811000Y-76364000D01*
X162851000Y-76364000D02*
X161925000Y-76364000D01*
X160491000Y-76364000D02*
X161925000Y-76364000D01*
D25*
X153650000Y-81715000D02*
X153650000Y-82042000D01*
D26*
X155321000Y-76364000D02*
X159004000Y-76364000D01*
X158877000Y-76237000D02*
X159004000Y-76364000D01*
X162851000Y-76364000D02*
X165317000Y-76364000D01*
X169926000Y-79263000D02*
X171435000Y-80772000D01*
X169926000Y-79248000D02*
X169926000Y-79263000D01*
X134366000Y-73914000D02*
X134366000Y-76364000D01*
X130897000Y-77383000D02*
X132715000Y-75565000D01*
D25*
X151150000Y-81715000D02*
X151150000Y-82550000D01*
D26*
X134276000Y-76364000D02*
X134366000Y-76364000D01*
D25*
%TO.N,/MDRX*%
X144487256Y-77950000D02*
X134179256Y-88258000D01*
X152357811Y-78444457D02*
X151863354Y-77950000D01*
X128822000Y-88258000D02*
X127672000Y-89408000D01*
X134179256Y-88258000D02*
X128822000Y-88258000D01*
X151863354Y-77950000D02*
X144487256Y-77950000D01*
X150650000Y-81715000D02*
X150650000Y-82041998D01*
X152357811Y-79434407D02*
X152357811Y-78444457D01*
X150650000Y-82041998D02*
X150649998Y-82042000D01*
%TO.N,/MDTX*%
X150150000Y-81715000D02*
X150150000Y-82041998D01*
X151650702Y-78727298D02*
X151273404Y-78350000D01*
X144652942Y-78350000D02*
X133594942Y-89408000D01*
X133594942Y-89408000D02*
X130212000Y-89408000D01*
X151273404Y-78350000D02*
X144652942Y-78350000D01*
X150150000Y-82041998D02*
X150150002Y-82042000D01*
%TO.N,/FET1*%
X132186314Y-91948000D02*
X144984315Y-79150000D01*
X144984315Y-79150000D02*
X150517768Y-79150000D01*
X150517768Y-79150000D02*
X152150000Y-80782232D01*
X130212000Y-91948000D02*
X132186314Y-91948000D01*
X152150000Y-80782232D02*
X152150000Y-81715000D01*
%TO.N,/FET2*%
X128822000Y-90798000D02*
X132770628Y-90798000D01*
X144818630Y-78750000D02*
X150683454Y-78750000D01*
X152650000Y-80716546D02*
X152650000Y-81715000D01*
X132770628Y-90798000D02*
X144818630Y-78750000D01*
X127672000Y-91948000D02*
X128822000Y-90798000D01*
X150683454Y-78750000D02*
X152650000Y-80716546D01*
%TO.N,/Line_NeoPixel*%
X145776000Y-85550000D02*
X150352082Y-85550000D01*
X150352082Y-85550000D02*
X151650000Y-84252082D01*
X151650000Y-84252082D02*
X151650000Y-83385000D01*
X134192000Y-97134000D02*
X145776000Y-85550000D01*
%TO.N,/FET3*%
X151650000Y-80847918D02*
X150352082Y-79550000D01*
X151650000Y-81715000D02*
X151650000Y-80847918D01*
X145150000Y-79550000D02*
X130212000Y-94488000D01*
X150352082Y-79550000D02*
X145150000Y-79550000D01*
%TO.N,/MouseRX*%
X165481000Y-93980000D02*
X167466000Y-95965000D01*
X154150000Y-83385000D02*
X154150000Y-84147918D01*
X153950000Y-85116000D02*
X162814000Y-93980000D01*
X167466000Y-95965000D02*
X167466000Y-97028000D01*
X154150000Y-84147918D02*
X153950000Y-84347918D01*
X162814000Y-93980000D02*
X165481000Y-93980000D01*
X153950000Y-84347918D02*
X153950000Y-85116000D01*
%TO.N,/MouseTX*%
X153150000Y-85212000D02*
X164966000Y-97028000D01*
X153150000Y-83385000D02*
X153150000Y-85212000D01*
%TO.N,/LineRX*%
X139192000Y-95009843D02*
X143637000Y-90564843D01*
X139192000Y-97134000D02*
X139397685Y-97134000D01*
X146468610Y-90564843D02*
X152650000Y-84383452D01*
X139192000Y-97134000D02*
X139192000Y-95009843D01*
X152650000Y-84383452D02*
X152650000Y-83385000D01*
X143637000Y-90564843D02*
X146468610Y-90564843D01*
%TO.N,/LineTX*%
X136692000Y-97134000D02*
X136692000Y-95199686D01*
X152150000Y-84317767D02*
X152150000Y-83385000D01*
X146302924Y-90164843D02*
X152150000Y-84317767D01*
X136692000Y-95199686D02*
X141726843Y-90164843D01*
X141726843Y-90164843D02*
X146302924Y-90164843D01*
D27*
%TO.N,/OUT1A*%
X149900000Y-102853000D02*
X148359000Y-104394000D01*
X148359000Y-104394000D02*
X144526000Y-104394000D01*
%TO.N,/OUT1B*%
X152400000Y-102853000D02*
X152400000Y-102677570D01*
X150900430Y-101178000D02*
X143297000Y-101178000D01*
X143297000Y-101178000D02*
X140081000Y-104394000D01*
X152400000Y-102677570D02*
X150900430Y-101178000D01*
%TO.N,/OUT1C*%
X140138000Y-99892000D02*
X135636000Y-104394000D01*
X151939000Y-99892000D02*
X140138000Y-99892000D01*
X154900000Y-102853000D02*
X151939000Y-99892000D01*
%TO.N,/OUT2A*%
X165559000Y-100908000D02*
X169037000Y-104386000D01*
X159906000Y-100908000D02*
X165559000Y-100908000D01*
X154900000Y-95902000D02*
X159906000Y-100908000D01*
%TO.N,/OUT2B*%
X162314000Y-102108000D02*
X158430570Y-102108000D01*
X152400000Y-96077430D02*
X152400000Y-95902000D01*
X158430570Y-102108000D02*
X152400000Y-96077430D01*
X164592000Y-104386000D02*
X162314000Y-102108000D01*
%TO.N,/OUT2C*%
X151270000Y-98692000D02*
X149900000Y-97322000D01*
X160147000Y-104386000D02*
X159011514Y-104386000D01*
X149900000Y-97322000D02*
X149900000Y-95902000D01*
X153317514Y-98692000D02*
X151270000Y-98692000D01*
X159011514Y-104386000D02*
X153317514Y-98692000D01*
D25*
%TO.N,/BLDC1*%
X141986000Y-72914000D02*
X141436000Y-72364000D01*
X132741000Y-72364000D02*
X126492000Y-78613000D01*
X126492000Y-78613000D02*
X126492000Y-93308000D01*
X126492000Y-93308000D02*
X127672000Y-94488000D01*
X141436000Y-72364000D02*
X132741000Y-72364000D01*
X141986000Y-73914000D02*
X141986000Y-72914000D01*
%TO.N,/BLDC2*%
X166497000Y-73906000D02*
X166497000Y-72906000D01*
X132575314Y-71964000D02*
X126092000Y-78447315D01*
X166497000Y-72906000D02*
X165555000Y-71964000D01*
X126092000Y-95448000D02*
X127672000Y-97028000D01*
X126092000Y-78447315D02*
X126092000Y-95448000D01*
X165555000Y-71964000D02*
X132575314Y-71964000D01*
%TD*%
%TA.AperFunction,Conductor*%
%TO.N,/UART_TX*%
G36*
X154249380Y-81143427D02*
G01*
X154252380Y-81148569D01*
X154259998Y-81175997D01*
X154269992Y-81208978D01*
X154279998Y-81238999D01*
X154290003Y-81266011D01*
X154298271Y-81285852D01*
X154298507Y-81294238D01*
X154161036Y-81684657D01*
X154155056Y-81691322D01*
X154146114Y-81691807D01*
X154139449Y-81685827D01*
X154138964Y-81684657D01*
X154001492Y-81294238D01*
X154001728Y-81285852D01*
X154009995Y-81266011D01*
X154010000Y-81266000D01*
X154020000Y-81239000D01*
X154029999Y-81209000D01*
X154039999Y-81176000D01*
X154040000Y-81175997D01*
X154047620Y-81148568D01*
X154053136Y-81141514D01*
X154058893Y-81140000D01*
X154241107Y-81140000D01*
X154249380Y-81143427D01*
G37*
%TD.AperFunction*%
%TD*%
%TA.AperFunction,Conductor*%
%TO.N,/FET2*%
G36*
X128891834Y-90701608D02*
G01*
X128895642Y-90709713D01*
X128895655Y-90710257D01*
X128895655Y-90889011D01*
X128892228Y-90897284D01*
X128886971Y-90900316D01*
X128599436Y-90977017D01*
X128509110Y-91190063D01*
X128509110Y-91190064D01*
X128523057Y-91501129D01*
X128523057Y-91501133D01*
X128539594Y-91872743D01*
X128539365Y-91875628D01*
X128460157Y-92259426D01*
X128455128Y-92266836D01*
X128446333Y-92268520D01*
X128444225Y-92267872D01*
X127675487Y-91949856D01*
X127669153Y-91943527D01*
X127669146Y-91943511D01*
X127641114Y-91875628D01*
X127351042Y-91173170D01*
X127351051Y-91164216D01*
X127357041Y-91158043D01*
X127717041Y-90995553D01*
X127981395Y-90865647D01*
X127982203Y-90865289D01*
X128215291Y-90772847D01*
X128217303Y-90772253D01*
X128494934Y-90716794D01*
X128496657Y-90716583D01*
X128883411Y-90698570D01*
X128891834Y-90701608D01*
G37*
%TD.AperFunction*%
%TD*%
%TA.AperFunction,Conductor*%
%TO.N,/LineTX*%
G36*
X152160550Y-83414172D02*
G01*
X152161035Y-83415342D01*
X152296469Y-83799973D01*
X152296992Y-83805667D01*
X152296072Y-83811543D01*
X152296209Y-83816415D01*
X152295314Y-83821241D01*
X152290007Y-83833980D01*
X152289999Y-83834000D01*
X152286282Y-83844033D01*
X152279998Y-83861000D01*
X152269992Y-83891021D01*
X152259998Y-83924002D01*
X152252380Y-83951431D01*
X152246864Y-83958486D01*
X152241107Y-83960000D01*
X152058893Y-83960000D01*
X152050620Y-83956573D01*
X152047620Y-83951432D01*
X152039997Y-83923991D01*
X152030006Y-83891021D01*
X152020000Y-83861000D01*
X152010000Y-83834000D01*
X152004682Y-83821238D01*
X152003788Y-83816413D01*
X152003926Y-83811542D01*
X152003247Y-83807202D01*
X152003007Y-83805667D01*
X152003529Y-83799975D01*
X152138964Y-83415340D01*
X152144943Y-83408677D01*
X152153885Y-83408192D01*
X152160550Y-83414172D01*
G37*
%TD.AperFunction*%
%TD*%
%TA.AperFunction,Conductor*%
%TO.N,/UART_TX*%
G36*
X175583611Y-95678391D02*
G01*
X175922152Y-95897599D01*
X175922159Y-95897603D01*
X176034151Y-95955573D01*
X176268634Y-96076949D01*
X176615117Y-96211299D01*
X176961599Y-96300649D01*
X177292917Y-96343058D01*
X177300688Y-96347507D01*
X177303036Y-96356148D01*
X177302245Y-96359130D01*
X176958562Y-97191215D01*
X176952236Y-97197553D01*
X176952215Y-97197562D01*
X176117870Y-97542178D01*
X176108915Y-97542169D01*
X176102589Y-97535831D01*
X176102221Y-97534806D01*
X175971649Y-97110599D01*
X175837299Y-96719117D01*
X175702949Y-96372634D01*
X175631053Y-96211298D01*
X175568603Y-96071160D01*
X175438240Y-95822289D01*
X175437437Y-95813370D01*
X175440329Y-95808589D01*
X175568980Y-95679938D01*
X175577252Y-95676512D01*
X175583611Y-95678391D01*
G37*
%TD.AperFunction*%
%TD*%
%TA.AperFunction,Conductor*%
%TO.N,/OUT1B*%
G36*
X141316180Y-102467405D02*
G01*
X142007597Y-103158822D01*
X142011024Y-103167095D01*
X142008027Y-103174915D01*
X141731817Y-103482287D01*
X141542554Y-103763833D01*
X141542550Y-103763840D01*
X141423140Y-104030237D01*
X141423138Y-104030243D01*
X141349070Y-104300443D01*
X141297900Y-104582058D01*
X141293049Y-104589585D01*
X141284501Y-104591513D01*
X140088727Y-104396085D01*
X140081115Y-104391368D01*
X140079040Y-104386253D01*
X139899477Y-103174332D01*
X139901655Y-103165648D01*
X139909103Y-103161083D01*
X140189683Y-103113761D01*
X140457336Y-103042610D01*
X140720099Y-102925731D01*
X140997317Y-102739316D01*
X141300086Y-102466977D01*
X141308525Y-102463994D01*
X141316180Y-102467405D01*
G37*
%TD.AperFunction*%
%TD*%
%TA.AperFunction,Conductor*%
%TO.N,/OUT2A*%
G36*
X167817914Y-102458978D02*
G01*
X167981851Y-102606439D01*
X168120679Y-102731314D01*
X168120680Y-102731314D01*
X168120682Y-102731316D01*
X168397899Y-102917731D01*
X168660662Y-103034610D01*
X168928315Y-103105761D01*
X169208895Y-103153082D01*
X169216482Y-103157837D01*
X169218522Y-103166334D01*
X169038959Y-104378253D01*
X169034356Y-104385934D01*
X169029272Y-104388085D01*
X167833497Y-104583513D01*
X167824780Y-104581465D01*
X167820098Y-104574058D01*
X167785915Y-104385934D01*
X167768928Y-104292444D01*
X167694860Y-104022244D01*
X167694858Y-104022241D01*
X167694857Y-104022236D01*
X167575447Y-103755839D01*
X167575443Y-103755832D01*
X167386180Y-103474287D01*
X167109972Y-103166915D01*
X167106992Y-103158471D01*
X167110401Y-103150823D01*
X167801820Y-102459404D01*
X167810092Y-102455978D01*
X167817914Y-102458978D01*
G37*
%TD.AperFunction*%
%TD*%
%TA.AperFunction,Conductor*%
%TO.N,/MDRX*%
G36*
X150747356Y-81745427D02*
G01*
X150750755Y-81752891D01*
X150755198Y-81816993D01*
X150767598Y-81869495D01*
X150782239Y-81914017D01*
X150782511Y-81914983D01*
X150794579Y-81966077D01*
X150794864Y-81967957D01*
X150799136Y-82029573D01*
X150796290Y-82038063D01*
X150788273Y-82042054D01*
X150787542Y-82042082D01*
X150650076Y-82042999D01*
X150649920Y-82042999D01*
X150514801Y-82042098D01*
X150506551Y-82038616D01*
X150503323Y-82032229D01*
X150501688Y-82021908D01*
X150501573Y-82019280D01*
X150505132Y-81967945D01*
X150505414Y-81966088D01*
X150517484Y-81914980D01*
X150517757Y-81914018D01*
X150517758Y-81914017D01*
X150532399Y-81869497D01*
X150544799Y-81816995D01*
X150549245Y-81752890D01*
X150553236Y-81744874D01*
X150560917Y-81742000D01*
X150739083Y-81742000D01*
X150747356Y-81745427D01*
G37*
%TD.AperFunction*%
%TD*%
%TA.AperFunction,Conductor*%
%TO.N,/OUT2B*%
G36*
X163372914Y-102458978D02*
G01*
X163536851Y-102606439D01*
X163675679Y-102731314D01*
X163675680Y-102731314D01*
X163675682Y-102731316D01*
X163952899Y-102917731D01*
X164215662Y-103034610D01*
X164483315Y-103105761D01*
X164763895Y-103153082D01*
X164771482Y-103157837D01*
X164773522Y-103166334D01*
X164593959Y-104378253D01*
X164589356Y-104385934D01*
X164584272Y-104388085D01*
X163388497Y-104583513D01*
X163379780Y-104581465D01*
X163375098Y-104574058D01*
X163340915Y-104385934D01*
X163323928Y-104292444D01*
X163249860Y-104022244D01*
X163249858Y-104022241D01*
X163249857Y-104022236D01*
X163130447Y-103755839D01*
X163130443Y-103755832D01*
X162941180Y-103474287D01*
X162664972Y-103166915D01*
X162661992Y-103158471D01*
X162665401Y-103150823D01*
X163356820Y-102459404D01*
X163365092Y-102455978D01*
X163372914Y-102458978D01*
G37*
%TD.AperFunction*%
%TD*%
%TA.AperFunction,Conductor*%
%TO.N,/BLDC1*%
G36*
X141534499Y-72321387D02*
G01*
X141534651Y-72321542D01*
X141666416Y-72458282D01*
X141708867Y-72502335D01*
X141891354Y-72658674D01*
X142073841Y-72781978D01*
X142073850Y-72781982D01*
X142073851Y-72781983D01*
X142256321Y-72872242D01*
X142256328Y-72872245D01*
X142426144Y-72925504D01*
X142433012Y-72931249D01*
X142433806Y-72940168D01*
X142433276Y-72941547D01*
X141993084Y-73900808D01*
X141986519Y-73906898D01*
X141977570Y-73906562D01*
X141974959Y-73904915D01*
X141241680Y-73293734D01*
X141237519Y-73285805D01*
X141237838Y-73281838D01*
X141265791Y-73172944D01*
X141295583Y-73031454D01*
X141325376Y-72864530D01*
X141355168Y-72672172D01*
X141384426Y-72458280D01*
X141387744Y-72451596D01*
X141517954Y-72321386D01*
X141526226Y-72317960D01*
X141534499Y-72321387D01*
G37*
%TD.AperFunction*%
%TD*%
%TA.AperFunction,Conductor*%
%TO.N,/MDRX*%
G36*
X128891834Y-88161608D02*
G01*
X128895642Y-88169713D01*
X128895655Y-88170257D01*
X128895655Y-88349011D01*
X128892228Y-88357284D01*
X128886971Y-88360316D01*
X128599436Y-88437017D01*
X128509110Y-88650063D01*
X128509110Y-88650064D01*
X128523057Y-88961129D01*
X128523057Y-88961133D01*
X128539594Y-89332743D01*
X128539365Y-89335628D01*
X128460157Y-89719426D01*
X128455128Y-89726836D01*
X128446333Y-89728520D01*
X128444225Y-89727872D01*
X127675487Y-89409856D01*
X127669153Y-89403527D01*
X127669146Y-89403511D01*
X127641114Y-89335628D01*
X127351042Y-88633170D01*
X127351051Y-88624216D01*
X127357041Y-88618043D01*
X127717041Y-88455553D01*
X127981395Y-88325647D01*
X127982203Y-88325289D01*
X128215291Y-88232847D01*
X128217303Y-88232253D01*
X128494934Y-88176794D01*
X128496657Y-88176583D01*
X128883411Y-88158570D01*
X128891834Y-88161608D01*
G37*
%TD.AperFunction*%
%TD*%
%TA.AperFunction,Conductor*%
%TO.N,/FET3*%
G36*
X151749380Y-81143427D02*
G01*
X151752380Y-81148569D01*
X151759998Y-81175997D01*
X151769992Y-81208978D01*
X151779998Y-81238999D01*
X151790003Y-81266011D01*
X151795314Y-81278757D01*
X151796209Y-81283584D01*
X151796072Y-81288455D01*
X151796992Y-81294331D01*
X151796469Y-81300025D01*
X151661035Y-81684657D01*
X151655055Y-81691322D01*
X151646113Y-81691807D01*
X151639448Y-81685827D01*
X151638967Y-81684668D01*
X151501492Y-81294237D01*
X151501728Y-81285852D01*
X151502673Y-81283584D01*
X151510000Y-81266000D01*
X151520000Y-81239000D01*
X151529999Y-81209000D01*
X151539999Y-81176000D01*
X151540000Y-81175997D01*
X151547620Y-81148568D01*
X151553136Y-81141514D01*
X151558893Y-81140000D01*
X151741107Y-81140000D01*
X151749380Y-81143427D01*
G37*
%TD.AperFunction*%
%TD*%
%TA.AperFunction,Conductor*%
%TO.N,/BLDC2*%
G36*
X166045499Y-72313387D02*
G01*
X166045651Y-72313542D01*
X166177416Y-72450282D01*
X166219867Y-72494335D01*
X166402354Y-72650674D01*
X166584841Y-72773978D01*
X166584850Y-72773982D01*
X166584851Y-72773983D01*
X166767321Y-72864242D01*
X166767328Y-72864245D01*
X166937144Y-72917504D01*
X166944012Y-72923249D01*
X166944806Y-72932168D01*
X166944276Y-72933547D01*
X166504084Y-73892808D01*
X166497519Y-73898898D01*
X166488570Y-73898562D01*
X166485959Y-73896915D01*
X165752680Y-73285734D01*
X165748519Y-73277805D01*
X165748838Y-73273838D01*
X165776791Y-73164944D01*
X165806583Y-73023454D01*
X165836376Y-72856530D01*
X165866168Y-72664172D01*
X165895426Y-72450280D01*
X165898744Y-72443596D01*
X166028954Y-72313386D01*
X166037226Y-72309960D01*
X166045499Y-72313387D01*
G37*
%TD.AperFunction*%
%TD*%
%TA.AperFunction,Conductor*%
%TO.N,+12V*%
G36*
X153660551Y-81744172D02*
G01*
X153661036Y-81745342D01*
X153798507Y-82135761D01*
X153798271Y-82144147D01*
X153790003Y-82163988D01*
X153779998Y-82191000D01*
X153769992Y-82221021D01*
X153759998Y-82254002D01*
X153752380Y-82281431D01*
X153746864Y-82288486D01*
X153741107Y-82290000D01*
X153558893Y-82290000D01*
X153550620Y-82286573D01*
X153547620Y-82281432D01*
X153539997Y-82253991D01*
X153530006Y-82221021D01*
X153520000Y-82191000D01*
X153510000Y-82164000D01*
X153501728Y-82144147D01*
X153501492Y-82135762D01*
X153638964Y-81745341D01*
X153644944Y-81738677D01*
X153653886Y-81738192D01*
X153660551Y-81744172D01*
G37*
%TD.AperFunction*%
%TD*%
%TA.AperFunction,Conductor*%
%TO.N,/OUT1C*%
G36*
X136871180Y-102467405D02*
G01*
X137562597Y-103158822D01*
X137566024Y-103167095D01*
X137563027Y-103174915D01*
X137286817Y-103482287D01*
X137097554Y-103763833D01*
X137097550Y-103763840D01*
X136978140Y-104030237D01*
X136978138Y-104030243D01*
X136904070Y-104300443D01*
X136852900Y-104582058D01*
X136848049Y-104589585D01*
X136839501Y-104591513D01*
X135643727Y-104396085D01*
X135636115Y-104391368D01*
X135634040Y-104386253D01*
X135454477Y-103174332D01*
X135456655Y-103165648D01*
X135464103Y-103161083D01*
X135744683Y-103113761D01*
X136012336Y-103042610D01*
X136275099Y-102925731D01*
X136552317Y-102739316D01*
X136855086Y-102466977D01*
X136863525Y-102463994D01*
X136871180Y-102467405D01*
G37*
%TD.AperFunction*%
%TD*%
%TA.AperFunction,Conductor*%
%TO.N,/MDRX*%
G36*
X152455377Y-78637834D02*
G01*
X152458758Y-78645072D01*
X152472969Y-78805165D01*
X152472969Y-78805167D01*
X152472970Y-78805168D01*
X152501141Y-78884057D01*
X152514073Y-78920269D01*
X152574545Y-79014673D01*
X152647422Y-79122762D01*
X152648171Y-79124042D01*
X152721711Y-79270109D01*
X152722371Y-79279039D01*
X152716522Y-79285820D01*
X152715763Y-79286169D01*
X152362313Y-79433530D01*
X152353359Y-79433551D01*
X152353309Y-79433530D01*
X151999857Y-79286169D01*
X151993539Y-79279822D01*
X151993560Y-79270868D01*
X151993894Y-79270141D01*
X152033113Y-79192243D01*
X152036437Y-79188227D01*
X152078984Y-79155580D01*
X152175238Y-79030139D01*
X152235746Y-78884060D01*
X152256384Y-78727298D01*
X152252477Y-78697627D01*
X152252424Y-78695083D01*
X152256864Y-78645071D01*
X152261009Y-78637135D01*
X152268518Y-78634407D01*
X152447104Y-78634407D01*
X152455377Y-78637834D01*
G37*
%TD.AperFunction*%
%TD*%
%TA.AperFunction,Conductor*%
%TO.N,/OUT1C*%
G36*
X154009532Y-101253465D02*
G01*
X154237816Y-101426714D01*
X154474228Y-101585131D01*
X154710640Y-101722549D01*
X154947052Y-101838966D01*
X155113497Y-101906144D01*
X155173502Y-101930363D01*
X155179891Y-101936638D01*
X155180306Y-101944653D01*
X154902157Y-102848991D01*
X154896449Y-102855891D01*
X154896317Y-102855960D01*
X154116614Y-103256213D01*
X154107689Y-103256942D01*
X154100957Y-103251326D01*
X153943966Y-102958052D01*
X153781549Y-102675640D01*
X153619131Y-102414228D01*
X153456714Y-102173816D01*
X153456711Y-102173811D01*
X153387568Y-102080406D01*
X153300294Y-101962506D01*
X153298127Y-101953820D01*
X153301424Y-101947276D01*
X153994188Y-101254512D01*
X154002460Y-101251086D01*
X154009532Y-101253465D01*
G37*
%TD.AperFunction*%
%TD*%
%TA.AperFunction,Conductor*%
%TO.N,/BLDC1*%
G36*
X126591320Y-93280198D02*
G01*
X126594339Y-93285412D01*
X126673030Y-93576029D01*
X126891303Y-93662956D01*
X127209588Y-93642846D01*
X127589155Y-93621082D01*
X127592130Y-93621292D01*
X127983338Y-93699900D01*
X127990774Y-93704890D01*
X127992504Y-93713676D01*
X127991844Y-93715844D01*
X127673856Y-94484512D01*
X127667527Y-94490846D01*
X127667511Y-94490853D01*
X126897086Y-94808992D01*
X126888131Y-94808983D01*
X126881996Y-94803079D01*
X126716652Y-94444637D01*
X126716641Y-94444615D01*
X126579321Y-94183097D01*
X126578975Y-94182379D01*
X126477632Y-93952556D01*
X126476933Y-93950448D01*
X126414021Y-93675881D01*
X126413744Y-93673922D01*
X126392676Y-93289111D01*
X126395646Y-93280662D01*
X126403719Y-93276788D01*
X126404359Y-93276771D01*
X126583047Y-93276771D01*
X126591320Y-93280198D01*
G37*
%TD.AperFunction*%
%TD*%
%TA.AperFunction,Conductor*%
%TO.N,+12V*%
G36*
X153787546Y-83057916D02*
G01*
X153795794Y-83061398D01*
X153799166Y-83069694D01*
X153799138Y-83070425D01*
X153794866Y-83132040D01*
X153794581Y-83133921D01*
X153782514Y-83185007D01*
X153782242Y-83185971D01*
X153767599Y-83230503D01*
X153755199Y-83283005D01*
X153750755Y-83347109D01*
X153746764Y-83355126D01*
X153739083Y-83358000D01*
X153560917Y-83358000D01*
X153552644Y-83354573D01*
X153549245Y-83347109D01*
X153544800Y-83283005D01*
X153544800Y-83283004D01*
X153532399Y-83230502D01*
X153517756Y-83185970D01*
X153517484Y-83185007D01*
X153505416Y-83133912D01*
X153505134Y-83132051D01*
X153500861Y-83070423D01*
X153503707Y-83061935D01*
X153511724Y-83057944D01*
X153512424Y-83057917D01*
X153650000Y-83057000D01*
X153787546Y-83057916D01*
G37*
%TD.AperFunction*%
%TD*%
%TA.AperFunction,Conductor*%
%TO.N,/MDTX*%
G36*
X150247356Y-81745427D02*
G01*
X150250755Y-81752891D01*
X150255199Y-81816993D01*
X150267602Y-81869505D01*
X150267602Y-81869506D01*
X150282241Y-81914018D01*
X150282514Y-81914984D01*
X150294582Y-81966077D01*
X150294867Y-81967957D01*
X150296946Y-81997943D01*
X150296946Y-81999559D01*
X150296564Y-82005074D01*
X150296269Y-82028251D01*
X150296269Y-82028275D01*
X150296340Y-82029892D01*
X150293276Y-82038306D01*
X150285160Y-82042090D01*
X150284729Y-82042101D01*
X150150079Y-82042999D01*
X150149923Y-82042999D01*
X150012457Y-82042082D01*
X150004207Y-82038600D01*
X150000835Y-82030304D01*
X150000863Y-82029573D01*
X150000955Y-82028251D01*
X150005135Y-81967945D01*
X150005417Y-81966088D01*
X150017487Y-81914979D01*
X150017760Y-81914017D01*
X150032397Y-81869506D01*
X150032397Y-81869505D01*
X150032400Y-81869497D01*
X150044800Y-81816995D01*
X150049245Y-81752891D01*
X150053236Y-81744874D01*
X150060917Y-81742000D01*
X150239083Y-81742000D01*
X150247356Y-81745427D01*
G37*
%TD.AperFunction*%
%TD*%
%TA.AperFunction,Conductor*%
%TO.N,/MDTX*%
G36*
X151019267Y-78250615D02*
G01*
X151166601Y-78258003D01*
X151167965Y-78258152D01*
X151279894Y-78277147D01*
X151280595Y-78277288D01*
X151377431Y-78300089D01*
X151490393Y-78319259D01*
X151639615Y-78326742D01*
X151647706Y-78330579D01*
X151650729Y-78338398D01*
X151651682Y-78719451D01*
X151648276Y-78727732D01*
X151644449Y-78730294D01*
X151293030Y-78875463D01*
X151284075Y-78875454D01*
X151277749Y-78869116D01*
X151277378Y-78868081D01*
X151239808Y-78745652D01*
X151239522Y-78744522D01*
X151234490Y-78719451D01*
X151215943Y-78627049D01*
X151185590Y-78533603D01*
X151124096Y-78472129D01*
X151068709Y-78461663D01*
X151016511Y-78451800D01*
X151009018Y-78446896D01*
X151006983Y-78440303D01*
X151006983Y-78262301D01*
X151010410Y-78254028D01*
X151018683Y-78250601D01*
X151019267Y-78250615D01*
G37*
%TD.AperFunction*%
%TD*%
%TA.AperFunction,Conductor*%
%TO.N,/UART_RX*%
G36*
X153249380Y-81143427D02*
G01*
X153252380Y-81148569D01*
X153259998Y-81175997D01*
X153269992Y-81208978D01*
X153279998Y-81238999D01*
X153290003Y-81266011D01*
X153298271Y-81285852D01*
X153298507Y-81294238D01*
X153161035Y-81684657D01*
X153155055Y-81691322D01*
X153146113Y-81691807D01*
X153139448Y-81685827D01*
X153138967Y-81684668D01*
X153003528Y-81300021D01*
X153003006Y-81294333D01*
X153003926Y-81288457D01*
X153003788Y-81283584D01*
X153004681Y-81278763D01*
X153010000Y-81266000D01*
X153020000Y-81239000D01*
X153029999Y-81209000D01*
X153039999Y-81176000D01*
X153040000Y-81175997D01*
X153047620Y-81148568D01*
X153053136Y-81141514D01*
X153058893Y-81140000D01*
X153241107Y-81140000D01*
X153249380Y-81143427D01*
G37*
%TD.AperFunction*%
%TD*%
%TA.AperFunction,Conductor*%
%TO.N,/FET1*%
G36*
X152249380Y-81143427D02*
G01*
X152252380Y-81148569D01*
X152259998Y-81175997D01*
X152269992Y-81208978D01*
X152279998Y-81238999D01*
X152290003Y-81266011D01*
X152295314Y-81278757D01*
X152296209Y-81283584D01*
X152296072Y-81288457D01*
X152296992Y-81294331D01*
X152296469Y-81300026D01*
X152161035Y-81684657D01*
X152155055Y-81691322D01*
X152146113Y-81691807D01*
X152139448Y-81685827D01*
X152138967Y-81684668D01*
X152001492Y-81294237D01*
X152001728Y-81285852D01*
X152002673Y-81283584D01*
X152010000Y-81266000D01*
X152020000Y-81239000D01*
X152029999Y-81209000D01*
X152039999Y-81176000D01*
X152040000Y-81175997D01*
X152047620Y-81148568D01*
X152053136Y-81141514D01*
X152058893Y-81140000D01*
X152241107Y-81140000D01*
X152249380Y-81143427D01*
G37*
%TD.AperFunction*%
%TD*%
%TA.AperFunction,Conductor*%
%TO.N,/FET2*%
G36*
X152749380Y-81143427D02*
G01*
X152752380Y-81148569D01*
X152759998Y-81175997D01*
X152769992Y-81208978D01*
X152779998Y-81238999D01*
X152790003Y-81266011D01*
X152798271Y-81285852D01*
X152798507Y-81294238D01*
X152661036Y-81684657D01*
X152655056Y-81691322D01*
X152646114Y-81691807D01*
X152639449Y-81685827D01*
X152638964Y-81684657D01*
X152501492Y-81294238D01*
X152501728Y-81285852D01*
X152509995Y-81266011D01*
X152510000Y-81266000D01*
X152520000Y-81239000D01*
X152529999Y-81209000D01*
X152539999Y-81176000D01*
X152540000Y-81175997D01*
X152547620Y-81148568D01*
X152553136Y-81141514D01*
X152558893Y-81140000D01*
X152741107Y-81140000D01*
X152749380Y-81143427D01*
G37*
%TD.AperFunction*%
%TD*%
%TA.AperFunction,Conductor*%
%TO.N,/OUT1A*%
G36*
X145258779Y-103400544D02*
G01*
X145495507Y-103564984D01*
X145495513Y-103564988D01*
X145495518Y-103564991D01*
X145495527Y-103564996D01*
X145740469Y-103703865D01*
X146015000Y-103807242D01*
X146015004Y-103807242D01*
X146015005Y-103807243D01*
X146349918Y-103871747D01*
X146764911Y-103893420D01*
X146772993Y-103897274D01*
X146776000Y-103905104D01*
X146776000Y-104882895D01*
X146772573Y-104891168D01*
X146764910Y-104894579D01*
X146349926Y-104916251D01*
X146349917Y-104916252D01*
X146015000Y-104980756D01*
X145740469Y-105084133D01*
X145495527Y-105223002D01*
X145495507Y-105223014D01*
X145258779Y-105387455D01*
X145250029Y-105389361D01*
X145242629Y-105384710D01*
X144903297Y-104916252D01*
X144529970Y-104400861D01*
X144527893Y-104392153D01*
X144529969Y-104387139D01*
X145242629Y-103403288D01*
X145250257Y-103398600D01*
X145258779Y-103400544D01*
G37*
%TD.AperFunction*%
%TD*%
%TA.AperFunction,Conductor*%
%TO.N,/OUT2C*%
G36*
X159851318Y-103187188D02*
G01*
X159857283Y-103193867D01*
X159857606Y-103194961D01*
X160145698Y-104378456D01*
X160144325Y-104387305D01*
X160140485Y-104391173D01*
X159109022Y-105029177D01*
X159100183Y-105030615D01*
X159093631Y-105026410D01*
X159033049Y-104948511D01*
X158916437Y-104798565D01*
X158706321Y-104616424D01*
X158706320Y-104616423D01*
X158706314Y-104616418D01*
X158463468Y-104442464D01*
X158463257Y-104442309D01*
X158181637Y-104230896D01*
X158180826Y-104230228D01*
X157862653Y-103943346D01*
X157858805Y-103935263D01*
X157861800Y-103926824D01*
X157862197Y-103926405D01*
X158553822Y-103234780D01*
X158562094Y-103231354D01*
X158568595Y-103233326D01*
X158623480Y-103270003D01*
X158831069Y-103408725D01*
X158831071Y-103408725D01*
X158831073Y-103408726D01*
X159048418Y-103433558D01*
X159094153Y-103438784D01*
X159094153Y-103438783D01*
X159094154Y-103438784D01*
X159131264Y-103429426D01*
X159351403Y-103373920D01*
X159604093Y-103269991D01*
X159604624Y-103269789D01*
X159842378Y-103186683D01*
X159851318Y-103187188D01*
G37*
%TD.AperFunction*%
%TD*%
%TA.AperFunction,Conductor*%
%TO.N,/MouseTX*%
G36*
X153160551Y-83414172D02*
G01*
X153161036Y-83415342D01*
X153298507Y-83805761D01*
X153298271Y-83814147D01*
X153290003Y-83833988D01*
X153279998Y-83861000D01*
X153269992Y-83891021D01*
X153259998Y-83924002D01*
X153252380Y-83951431D01*
X153246864Y-83958486D01*
X153241107Y-83960000D01*
X153058893Y-83960000D01*
X153050620Y-83956573D01*
X153047620Y-83951432D01*
X153039997Y-83923991D01*
X153030006Y-83891021D01*
X153020000Y-83861000D01*
X153010000Y-83834000D01*
X153001728Y-83814147D01*
X153001492Y-83805762D01*
X153138964Y-83415341D01*
X153144944Y-83408677D01*
X153153886Y-83408192D01*
X153160551Y-83414172D01*
G37*
%TD.AperFunction*%
%TD*%
%TA.AperFunction,Conductor*%
%TO.N,/Line_NeoPixel*%
G36*
X151660551Y-83414172D02*
G01*
X151661036Y-83415342D01*
X151798507Y-83805761D01*
X151798271Y-83814147D01*
X151790003Y-83833988D01*
X151779998Y-83861000D01*
X151769992Y-83891021D01*
X151759998Y-83924002D01*
X151752380Y-83951431D01*
X151746864Y-83958486D01*
X151741107Y-83960000D01*
X151558893Y-83960000D01*
X151550620Y-83956573D01*
X151547620Y-83951432D01*
X151539997Y-83923991D01*
X151530006Y-83891021D01*
X151520000Y-83861000D01*
X151510000Y-83834000D01*
X151501728Y-83814147D01*
X151501492Y-83805762D01*
X151638964Y-83415341D01*
X151644944Y-83408677D01*
X151653886Y-83408192D01*
X151660551Y-83414172D01*
G37*
%TD.AperFunction*%
%TD*%
%TA.AperFunction,Conductor*%
%TO.N,/MouseTX*%
G36*
X163792348Y-95709681D02*
G01*
X164077541Y-95875988D01*
X164370522Y-96001837D01*
X164663503Y-96082686D01*
X164956479Y-96118535D01*
X164956480Y-96118535D01*
X164956483Y-96118534D01*
X164956484Y-96118535D01*
X165233107Y-96109894D01*
X165241481Y-96113061D01*
X165245164Y-96121223D01*
X165244653Y-96125028D01*
X164968157Y-97023991D01*
X164962449Y-97030891D01*
X164962317Y-97030960D01*
X164185382Y-97429792D01*
X164176457Y-97430521D01*
X164169630Y-97424726D01*
X164168714Y-97422321D01*
X164066533Y-97028477D01*
X163960687Y-96665504D01*
X163918191Y-96537845D01*
X163854837Y-96347522D01*
X163748988Y-96074541D01*
X163646582Y-95853976D01*
X163646207Y-95845031D01*
X163648920Y-95840780D01*
X163778185Y-95711515D01*
X163786457Y-95708089D01*
X163792348Y-95709681D01*
G37*
%TD.AperFunction*%
%TD*%
%TA.AperFunction,Conductor*%
%TO.N,/LineRX*%
G36*
X152660550Y-83414172D02*
G01*
X152661035Y-83415342D01*
X152796469Y-83799973D01*
X152796992Y-83805667D01*
X152796072Y-83811543D01*
X152796209Y-83816415D01*
X152795314Y-83821241D01*
X152790007Y-83833980D01*
X152789999Y-83834000D01*
X152786282Y-83844033D01*
X152779998Y-83861000D01*
X152769992Y-83891021D01*
X152759998Y-83924002D01*
X152752380Y-83951431D01*
X152746864Y-83958486D01*
X152741107Y-83960000D01*
X152558893Y-83960000D01*
X152550620Y-83956573D01*
X152547620Y-83951432D01*
X152539997Y-83923991D01*
X152530006Y-83891021D01*
X152520000Y-83861000D01*
X152510000Y-83834000D01*
X152501728Y-83814147D01*
X152501492Y-83805762D01*
X152638964Y-83415340D01*
X152644943Y-83408677D01*
X152653885Y-83408192D01*
X152660550Y-83414172D01*
G37*
%TD.AperFunction*%
%TD*%
%TA.AperFunction,Conductor*%
%TO.N,/MDTX*%
G36*
X131069185Y-88567358D02*
G01*
X131070131Y-88568428D01*
X131231999Y-88776014D01*
X131232005Y-88776020D01*
X131402005Y-88960027D01*
X131572000Y-89110021D01*
X131742000Y-89226014D01*
X131905384Y-89304809D01*
X131911346Y-89311488D01*
X131912000Y-89315346D01*
X131912000Y-89500653D01*
X131908573Y-89508926D01*
X131905383Y-89511190D01*
X131837053Y-89544144D01*
X131742001Y-89589984D01*
X131572001Y-89705976D01*
X131402005Y-89855971D01*
X131401999Y-89855978D01*
X131231999Y-90039985D01*
X131070133Y-90247568D01*
X131062345Y-90251984D01*
X131053713Y-90249600D01*
X131052640Y-90248651D01*
X130219287Y-89416277D01*
X130215855Y-89408006D01*
X130219275Y-89399733D01*
X131052642Y-88567346D01*
X131060914Y-88563926D01*
X131069185Y-88567358D01*
G37*
%TD.AperFunction*%
%TD*%
%TA.AperFunction,Conductor*%
%TO.N,+12V*%
G36*
X151160551Y-81744172D02*
G01*
X151161036Y-81745342D01*
X151298507Y-82135761D01*
X151298271Y-82144147D01*
X151290003Y-82163988D01*
X151279998Y-82191000D01*
X151269992Y-82221021D01*
X151259998Y-82254002D01*
X151252380Y-82281431D01*
X151246864Y-82288486D01*
X151241107Y-82290000D01*
X151058893Y-82290000D01*
X151050620Y-82286573D01*
X151047620Y-82281432D01*
X151039997Y-82253991D01*
X151030006Y-82221021D01*
X151020000Y-82191000D01*
X151010000Y-82164000D01*
X151001728Y-82144147D01*
X151001492Y-82135762D01*
X151138964Y-81745341D01*
X151144944Y-81738677D01*
X151153886Y-81738192D01*
X151160551Y-81744172D01*
G37*
%TD.AperFunction*%
%TD*%
%TA.AperFunction,Conductor*%
%TO.N,/MouseRX*%
G36*
X154160551Y-83414172D02*
G01*
X154161036Y-83415342D01*
X154298507Y-83805761D01*
X154298271Y-83814147D01*
X154290003Y-83833988D01*
X154279998Y-83861000D01*
X154269992Y-83891021D01*
X154259998Y-83924002D01*
X154252380Y-83951431D01*
X154246864Y-83958486D01*
X154241107Y-83960000D01*
X154058893Y-83960000D01*
X154050620Y-83956573D01*
X154047620Y-83951432D01*
X154039997Y-83923991D01*
X154030006Y-83891021D01*
X154020000Y-83861000D01*
X154010000Y-83834000D01*
X154001728Y-83814147D01*
X154001492Y-83805762D01*
X154138964Y-83415341D01*
X154144944Y-83408677D01*
X154153886Y-83408192D01*
X154160551Y-83414172D01*
G37*
%TD.AperFunction*%
%TD*%
%TA.AperFunction,Conductor*%
%TO.N,/OUT2B*%
G36*
X153205148Y-95537602D02*
G01*
X153205182Y-95537675D01*
X153345291Y-95842719D01*
X153490315Y-96137465D01*
X153635350Y-96411227D01*
X153780373Y-96663970D01*
X153920463Y-96887832D01*
X153921947Y-96896663D01*
X153918818Y-96902312D01*
X153226018Y-97595112D01*
X153217745Y-97598539D01*
X153210062Y-97595662D01*
X152985015Y-97399675D01*
X152751733Y-97217517D01*
X152518452Y-97056359D01*
X152285170Y-96916201D01*
X152285169Y-96916200D01*
X152285165Y-96916198D01*
X152061293Y-96801846D01*
X152055484Y-96795031D01*
X152055706Y-96787198D01*
X152397594Y-95905672D01*
X152403547Y-95899304D01*
X153189597Y-95531957D01*
X153198542Y-95531560D01*
X153205148Y-95537602D01*
G37*
%TD.AperFunction*%
%TD*%
%TA.AperFunction,Conductor*%
%TO.N,/FET3*%
G36*
X131350736Y-93222573D02*
G01*
X131477426Y-93349263D01*
X131480853Y-93357536D01*
X131478327Y-93364797D01*
X131253763Y-93648545D01*
X131163230Y-93899621D01*
X131139459Y-94150393D01*
X131139446Y-94150518D01*
X131108837Y-94440361D01*
X131108410Y-94442491D01*
X131001011Y-94800887D01*
X130995353Y-94807828D01*
X130986444Y-94808736D01*
X130985337Y-94808342D01*
X130984092Y-94807828D01*
X130215784Y-94490561D01*
X130209447Y-94484238D01*
X129891657Y-93714660D01*
X129891666Y-93705706D01*
X129898005Y-93699381D01*
X129899091Y-93698994D01*
X130257509Y-93591586D01*
X130259635Y-93591160D01*
X130549586Y-93560540D01*
X130800374Y-93536769D01*
X130925914Y-93491501D01*
X131051453Y-93446235D01*
X131051453Y-93446234D01*
X131051455Y-93446234D01*
X131335204Y-93221671D01*
X131343816Y-93219225D01*
X131350736Y-93222573D01*
G37*
%TD.AperFunction*%
%TD*%
%TA.AperFunction,Conductor*%
%TO.N,/OUT2C*%
G36*
X150737749Y-96025189D02*
G01*
X150745432Y-96029788D01*
X150747612Y-96038473D01*
X150747497Y-96039124D01*
X150707986Y-96230565D01*
X150707979Y-96230601D01*
X150707977Y-96230612D01*
X150665971Y-96455134D01*
X150623960Y-96700681D01*
X150581944Y-96967250D01*
X150540491Y-97250986D01*
X150537187Y-97257568D01*
X149845434Y-97949321D01*
X149837161Y-97952748D01*
X149828888Y-97949321D01*
X149826279Y-97945345D01*
X149689200Y-97598001D01*
X149545575Y-97255071D01*
X149401951Y-96933141D01*
X149258326Y-96632211D01*
X149119793Y-96362205D01*
X149119067Y-96353281D01*
X149124371Y-96346722D01*
X149895774Y-95903315D01*
X149903309Y-95901886D01*
X150737749Y-96025189D01*
G37*
%TD.AperFunction*%
%TD*%
%TA.AperFunction,Conductor*%
%TO.N,+12V*%
G36*
X153787546Y-82041916D02*
G01*
X153795794Y-82045398D01*
X153799166Y-82053694D01*
X153799138Y-82054425D01*
X153794866Y-82116040D01*
X153794581Y-82117921D01*
X153782514Y-82169007D01*
X153782242Y-82169971D01*
X153767599Y-82214503D01*
X153755199Y-82267005D01*
X153750755Y-82331109D01*
X153746764Y-82339126D01*
X153739083Y-82342000D01*
X153560917Y-82342000D01*
X153552644Y-82338573D01*
X153549245Y-82331109D01*
X153544800Y-82267005D01*
X153544800Y-82267004D01*
X153532399Y-82214502D01*
X153517756Y-82169970D01*
X153517484Y-82169007D01*
X153505416Y-82117912D01*
X153505134Y-82116051D01*
X153500861Y-82054423D01*
X153503707Y-82045935D01*
X153511724Y-82041944D01*
X153512424Y-82041917D01*
X153650000Y-82041000D01*
X153787546Y-82041916D01*
G37*
%TD.AperFunction*%
%TD*%
%TA.AperFunction,Conductor*%
%TO.N,/BLDC2*%
G36*
X126548797Y-95761672D02*
G01*
X126832545Y-95986235D01*
X126958084Y-96031501D01*
X127083621Y-96076768D01*
X127083624Y-96076769D01*
X127334412Y-96100540D01*
X127619096Y-96130604D01*
X127624361Y-96131160D01*
X127626491Y-96131587D01*
X127984888Y-96238988D01*
X127991828Y-96244645D01*
X127992736Y-96253554D01*
X127992342Y-96254661D01*
X127674562Y-97024214D01*
X127668237Y-97030553D01*
X127668214Y-97030562D01*
X126898661Y-97348342D01*
X126889706Y-97348333D01*
X126883381Y-97341994D01*
X126882992Y-97340902D01*
X126775587Y-96982491D01*
X126775160Y-96980361D01*
X126744551Y-96690518D01*
X126744538Y-96690393D01*
X126720769Y-96439624D01*
X126654075Y-96254661D01*
X126630235Y-96188545D01*
X126534413Y-96067469D01*
X126405671Y-95904796D01*
X126403225Y-95896183D01*
X126406572Y-95889264D01*
X126533264Y-95762572D01*
X126541536Y-95759146D01*
X126548797Y-95761672D01*
G37*
%TD.AperFunction*%
%TD*%
%TA.AperFunction,Conductor*%
%TO.N,/LineTX*%
G36*
X136792169Y-95312427D02*
G01*
X136794849Y-95316586D01*
X136929060Y-95673946D01*
X137066121Y-95993891D01*
X137203184Y-96268843D01*
X137340240Y-96498778D01*
X137340240Y-96498779D01*
X137469471Y-96673158D01*
X137471644Y-96681845D01*
X137467037Y-96689524D01*
X137465901Y-96690268D01*
X136697830Y-97131649D01*
X136688949Y-97132800D01*
X136686170Y-97131649D01*
X135918098Y-96690268D01*
X135912633Y-96683175D01*
X135913784Y-96674294D01*
X135914523Y-96673164D01*
X136043761Y-96498775D01*
X136180821Y-96268831D01*
X136317880Y-95993887D01*
X136454940Y-95673943D01*
X136589151Y-95316586D01*
X136595268Y-95310046D01*
X136600104Y-95309000D01*
X136783896Y-95309000D01*
X136792169Y-95312427D01*
G37*
%TD.AperFunction*%
%TD*%
%TA.AperFunction,Conductor*%
%TO.N,/Line_NeoPixel*%
G36*
X135379815Y-95817516D02*
G01*
X135509077Y-95946778D01*
X135512504Y-95955051D01*
X135511416Y-95959978D01*
X135409014Y-96180533D01*
X135409013Y-96180535D01*
X135303159Y-96453528D01*
X135303158Y-96453534D01*
X135197311Y-96771505D01*
X135091465Y-97134478D01*
X134989284Y-97528322D01*
X134983889Y-97535470D01*
X134975021Y-97536709D01*
X134972616Y-97535793D01*
X134195682Y-97136960D01*
X134189887Y-97130133D01*
X134189842Y-97129991D01*
X133913345Y-96231026D01*
X133914188Y-96222113D01*
X133921088Y-96216405D01*
X133924887Y-96215894D01*
X134201515Y-96224535D01*
X134201515Y-96224534D01*
X134201518Y-96224535D01*
X134201519Y-96224535D01*
X134396835Y-96200635D01*
X134494496Y-96188686D01*
X134787476Y-96107837D01*
X135080457Y-95981988D01*
X135365650Y-95815681D01*
X135374521Y-95814475D01*
X135379815Y-95817516D01*
G37*
%TD.AperFunction*%
%TD*%
%TA.AperFunction,Conductor*%
%TO.N,/OUT1A*%
G36*
X149059532Y-102504855D02*
G01*
X149895138Y-102849993D01*
X149901476Y-102856319D01*
X149902068Y-102858163D01*
X150124923Y-103818698D01*
X150123455Y-103827531D01*
X150118401Y-103831978D01*
X149866784Y-103947294D01*
X149606526Y-104087569D01*
X149606506Y-104087580D01*
X149346237Y-104248859D01*
X149346235Y-104248860D01*
X149085953Y-104431148D01*
X148833824Y-104628068D01*
X148825194Y-104630460D01*
X148818349Y-104627120D01*
X148125808Y-103934579D01*
X148122381Y-103926306D01*
X148124791Y-103919195D01*
X148304848Y-103684049D01*
X148491136Y-103419766D01*
X148677424Y-103134483D01*
X148863712Y-102828200D01*
X149044899Y-102509879D01*
X149051967Y-102504386D01*
X149059532Y-102504855D01*
G37*
%TD.AperFunction*%
%TD*%
%TA.AperFunction,Conductor*%
%TO.N,+12V*%
G36*
X151249380Y-82813427D02*
G01*
X151252380Y-82818569D01*
X151259998Y-82845997D01*
X151269992Y-82878978D01*
X151279998Y-82908999D01*
X151290003Y-82936011D01*
X151298271Y-82955852D01*
X151298507Y-82964238D01*
X151161036Y-83354657D01*
X151155056Y-83361322D01*
X151146114Y-83361807D01*
X151139449Y-83355827D01*
X151138964Y-83354657D01*
X151001492Y-82964238D01*
X151001728Y-82955852D01*
X151009995Y-82936011D01*
X151010000Y-82936000D01*
X151020000Y-82909000D01*
X151029999Y-82879000D01*
X151039999Y-82846000D01*
X151040000Y-82845997D01*
X151047620Y-82818568D01*
X151053136Y-82811514D01*
X151058893Y-82810000D01*
X151241107Y-82810000D01*
X151249380Y-82813427D01*
G37*
%TD.AperFunction*%
%TD*%
%TA.AperFunction,Conductor*%
%TO.N,/MouseRX*%
G36*
X167005069Y-95364846D02*
G01*
X167006032Y-95365937D01*
X167211718Y-95630435D01*
X167211733Y-95630453D01*
X167425549Y-95862574D01*
X167425554Y-95862579D01*
X167639375Y-96051870D01*
X167639380Y-96051874D01*
X167639382Y-96051875D01*
X167853211Y-96198335D01*
X168022823Y-96280530D01*
X168053636Y-96295463D01*
X168059587Y-96302155D01*
X168059063Y-96311094D01*
X168057554Y-96313443D01*
X167470909Y-97023619D01*
X167462998Y-97027815D01*
X167460179Y-97027742D01*
X166628721Y-96904879D01*
X166621037Y-96900280D01*
X166618857Y-96891595D01*
X166619064Y-96890533D01*
X166664094Y-96707370D01*
X166712189Y-96468944D01*
X166760284Y-96187723D01*
X166808379Y-95863707D01*
X166855957Y-95500834D01*
X166859284Y-95494085D01*
X166988524Y-95364845D01*
X166996796Y-95361419D01*
X167005069Y-95364846D01*
G37*
%TD.AperFunction*%
%TD*%
%TA.AperFunction,Conductor*%
%TO.N,/LineRX*%
G36*
X139292169Y-95312427D02*
G01*
X139294849Y-95316586D01*
X139429060Y-95673946D01*
X139566121Y-95993891D01*
X139703184Y-96268843D01*
X139840240Y-96498778D01*
X139840240Y-96498779D01*
X139969471Y-96673158D01*
X139971644Y-96681845D01*
X139967037Y-96689524D01*
X139965901Y-96690268D01*
X139197830Y-97131649D01*
X139188949Y-97132800D01*
X139186170Y-97131649D01*
X138418098Y-96690268D01*
X138412633Y-96683175D01*
X138413784Y-96674294D01*
X138414523Y-96673164D01*
X138543761Y-96498775D01*
X138680821Y-96268831D01*
X138817880Y-95993887D01*
X138954940Y-95673943D01*
X139089151Y-95316586D01*
X139095268Y-95310046D01*
X139100104Y-95309000D01*
X139283896Y-95309000D01*
X139292169Y-95312427D01*
G37*
%TD.AperFunction*%
%TD*%
%TA.AperFunction,Conductor*%
%TO.N,+12V*%
G36*
X153747356Y-81745427D02*
G01*
X153750755Y-81752891D01*
X153755199Y-81816993D01*
X153767600Y-81869501D01*
X153767604Y-81869516D01*
X153782240Y-81914018D01*
X153782513Y-81914984D01*
X153794581Y-81966077D01*
X153794866Y-81967957D01*
X153799138Y-82029573D01*
X153796292Y-82038063D01*
X153788275Y-82042054D01*
X153787544Y-82042082D01*
X153650078Y-82042999D01*
X153649922Y-82042999D01*
X153512455Y-82042082D01*
X153504205Y-82038600D01*
X153500833Y-82030304D01*
X153500860Y-82029593D01*
X153505134Y-81967945D01*
X153505416Y-81966087D01*
X153517486Y-81914980D01*
X153517758Y-81914018D01*
X153532397Y-81869506D01*
X153532397Y-81869505D01*
X153532400Y-81869497D01*
X153544800Y-81816995D01*
X153549245Y-81752891D01*
X153553236Y-81744874D01*
X153560917Y-81742000D01*
X153739083Y-81742000D01*
X153747356Y-81745427D01*
G37*
%TD.AperFunction*%
%TD*%
%TA.AperFunction,Conductor*%
%TO.N,/OUT1B*%
G36*
X151589936Y-101159336D02*
G01*
X151814984Y-101355324D01*
X152048266Y-101537482D01*
X152281548Y-101698640D01*
X152514830Y-101838798D01*
X152514834Y-101838800D01*
X152738707Y-101953153D01*
X152744516Y-101959968D01*
X152744293Y-101967803D01*
X152402405Y-102849326D01*
X152396451Y-102855695D01*
X151610402Y-103223040D01*
X151601456Y-103223438D01*
X151594849Y-103217395D01*
X151454705Y-102912276D01*
X151409866Y-102821147D01*
X151309683Y-102617533D01*
X151242423Y-102490578D01*
X151164650Y-102343774D01*
X151019623Y-102091023D01*
X150879536Y-101867167D01*
X150878052Y-101858336D01*
X150881179Y-101852689D01*
X151573982Y-101159886D01*
X151582254Y-101156460D01*
X151589936Y-101159336D01*
G37*
%TD.AperFunction*%
%TD*%
%TA.AperFunction,Conductor*%
%TO.N,/FET1*%
G36*
X130547610Y-91168334D02*
G01*
X130548662Y-91168834D01*
X130878033Y-91346317D01*
X130879842Y-91347521D01*
X131106522Y-91530896D01*
X131300665Y-91691421D01*
X131542223Y-91804944D01*
X131901653Y-91846795D01*
X131909474Y-91851155D01*
X131912000Y-91858416D01*
X131912000Y-92037583D01*
X131908573Y-92045856D01*
X131901653Y-92049204D01*
X131542225Y-92091054D01*
X131300669Y-92204574D01*
X131300662Y-92204578D01*
X131106550Y-92365077D01*
X131106454Y-92365156D01*
X130879842Y-92548477D01*
X130878033Y-92549681D01*
X130548671Y-92727160D01*
X130539762Y-92728068D01*
X130532821Y-92722410D01*
X130532316Y-92721349D01*
X130460990Y-92549681D01*
X130212864Y-91952488D01*
X130212856Y-91943534D01*
X130212865Y-91943511D01*
X130251238Y-91851155D01*
X130532317Y-91174648D01*
X130538655Y-91168325D01*
X130547610Y-91168334D01*
G37*
%TD.AperFunction*%
%TD*%
%TA.AperFunction,Conductor*%
%TO.N,/OUT2A*%
G36*
X155749421Y-95553864D02*
G01*
X155755101Y-95558881D01*
X155936289Y-95877203D01*
X156122576Y-96183486D01*
X156308856Y-96468757D01*
X156495158Y-96733059D01*
X156675207Y-96968193D01*
X156677516Y-96976845D01*
X156674191Y-96983579D01*
X155981650Y-97676120D01*
X155973377Y-97679547D01*
X155966175Y-97677068D01*
X155714045Y-97480148D01*
X155453763Y-97297860D01*
X155453761Y-97297859D01*
X155193493Y-97136580D01*
X155193473Y-97136569D01*
X154933215Y-96996294D01*
X154933208Y-96996290D01*
X154933201Y-96996287D01*
X154681599Y-96880978D01*
X154675506Y-96874416D01*
X154675077Y-96867698D01*
X154767636Y-96468757D01*
X154897931Y-95907162D01*
X154903139Y-95899878D01*
X154904861Y-95898993D01*
X155740468Y-95553855D01*
X155749421Y-95553864D01*
G37*
%TD.AperFunction*%
%TD*%
%TA.AperFunction,Conductor*%
%TO.N,/UART_RX*%
G36*
X175832797Y-93388672D02*
G01*
X176116545Y-93613235D01*
X176242084Y-93658501D01*
X176367621Y-93703768D01*
X176367624Y-93703769D01*
X176618412Y-93727540D01*
X176903096Y-93757604D01*
X176908361Y-93758160D01*
X176910491Y-93758587D01*
X177268888Y-93865988D01*
X177275828Y-93871645D01*
X177276736Y-93880554D01*
X177276342Y-93881661D01*
X176958562Y-94651214D01*
X176952237Y-94657553D01*
X176952214Y-94657562D01*
X176182661Y-94975342D01*
X176173706Y-94975333D01*
X176167381Y-94968994D01*
X176166992Y-94967902D01*
X176059587Y-94609491D01*
X176059160Y-94607361D01*
X176028551Y-94317518D01*
X176028538Y-94317393D01*
X176004769Y-94066624D01*
X175938075Y-93881661D01*
X175914235Y-93815545D01*
X175818413Y-93694469D01*
X175689671Y-93531796D01*
X175687225Y-93523183D01*
X175690572Y-93516264D01*
X175817264Y-93389572D01*
X175825536Y-93386146D01*
X175832797Y-93388672D01*
G37*
%TD.AperFunction*%
%TD*%
%TA.AperFunction,Conductor*%
%TO.N,+12V*%
G36*
X153747356Y-82761427D02*
G01*
X153750755Y-82768891D01*
X153755199Y-82832993D01*
X153767600Y-82885501D01*
X153767604Y-82885516D01*
X153782240Y-82930018D01*
X153782513Y-82930984D01*
X153794581Y-82982077D01*
X153794866Y-82983957D01*
X153799138Y-83045573D01*
X153796292Y-83054063D01*
X153788275Y-83058054D01*
X153787544Y-83058082D01*
X153650078Y-83058999D01*
X153649922Y-83058999D01*
X153512455Y-83058082D01*
X153504205Y-83054600D01*
X153500833Y-83046304D01*
X153500860Y-83045593D01*
X153505134Y-82983945D01*
X153505416Y-82982087D01*
X153517486Y-82930980D01*
X153517758Y-82930018D01*
X153532397Y-82885506D01*
X153532397Y-82885505D01*
X153532400Y-82885497D01*
X153544800Y-82832995D01*
X153549245Y-82768891D01*
X153553236Y-82760874D01*
X153560917Y-82758000D01*
X153739083Y-82758000D01*
X153747356Y-82761427D01*
G37*
%TD.AperFunction*%
%TD*%
%TA.AperFunction,Conductor*%
%TO.N,GND*%
G36*
X132080255Y-71397185D02*
G01*
X132126010Y-71449989D01*
X132135954Y-71519147D01*
X132106929Y-71582703D01*
X132100897Y-71589181D01*
X125700965Y-77989113D01*
X125688775Y-77999804D01*
X125663720Y-78019030D01*
X125663718Y-78019033D01*
X125590795Y-78114068D01*
X125590794Y-78114068D01*
X125567464Y-78144472D01*
X125506956Y-78290552D01*
X125506955Y-78290554D01*
X125486318Y-78447313D01*
X125486318Y-78447314D01*
X125490439Y-78478616D01*
X125491500Y-78494802D01*
X125491500Y-95400512D01*
X125490439Y-95416697D01*
X125487916Y-95435865D01*
X125486318Y-95448000D01*
X125491250Y-95485465D01*
X125491500Y-95487360D01*
X125491500Y-95487361D01*
X125506955Y-95604760D01*
X125506956Y-95604762D01*
X125561138Y-95735570D01*
X125567464Y-95750841D01*
X125663718Y-95876282D01*
X125663719Y-95876283D01*
X125688769Y-95895504D01*
X125700964Y-95906199D01*
X125992545Y-96197780D01*
X126007341Y-96215644D01*
X126009286Y-96218499D01*
X126039126Y-96256203D01*
X126170120Y-96421721D01*
X126189535Y-96456612D01*
X126218237Y-96536213D01*
X126225035Y-96566571D01*
X126241310Y-96738257D01*
X126241828Y-96743443D01*
X126272451Y-97033414D01*
X126272455Y-97033449D01*
X126279520Y-97079713D01*
X126279522Y-97079725D01*
X126279949Y-97081855D01*
X126291358Y-97127587D01*
X126291361Y-97127597D01*
X126377598Y-97415374D01*
X126378591Y-97418872D01*
X126386466Y-97448258D01*
X126398097Y-97491663D01*
X126403383Y-97503000D01*
X126404443Y-97505272D01*
X126407151Y-97511522D01*
X126407195Y-97511633D01*
X126439444Y-97583759D01*
X126442917Y-97589672D01*
X126442465Y-97589937D01*
X126449090Y-97601019D01*
X126497966Y-97705832D01*
X126566015Y-97803016D01*
X126633501Y-97899396D01*
X126633506Y-97899402D01*
X126800597Y-98066493D01*
X126800603Y-98066498D01*
X126986158Y-98196425D01*
X127029783Y-98251002D01*
X127036977Y-98320500D01*
X127005454Y-98382855D01*
X126986158Y-98399575D01*
X126800597Y-98529505D01*
X126633505Y-98696597D01*
X126497965Y-98890169D01*
X126497964Y-98890171D01*
X126398098Y-99104335D01*
X126398094Y-99104344D01*
X126336938Y-99332586D01*
X126336936Y-99332596D01*
X126316341Y-99567999D01*
X126316341Y-99568000D01*
X126336936Y-99803403D01*
X126336938Y-99803413D01*
X126398094Y-100031655D01*
X126398096Y-100031659D01*
X126398097Y-100031663D01*
X126478004Y-100203023D01*
X126497965Y-100245830D01*
X126497967Y-100245834D01*
X126606281Y-100400521D01*
X126633501Y-100439396D01*
X126633506Y-100439402D01*
X126800597Y-100606493D01*
X126800603Y-100606498D01*
X126986158Y-100736425D01*
X127029783Y-100791002D01*
X127036977Y-100860500D01*
X127005454Y-100922855D01*
X126986158Y-100939575D01*
X126800597Y-101069505D01*
X126633505Y-101236597D01*
X126497965Y-101430169D01*
X126497964Y-101430171D01*
X126398098Y-101644335D01*
X126398094Y-101644344D01*
X126336938Y-101872586D01*
X126336936Y-101872596D01*
X126316341Y-102107999D01*
X126316341Y-102108000D01*
X126336936Y-102343403D01*
X126336938Y-102343413D01*
X126398094Y-102571655D01*
X126398096Y-102571659D01*
X126398097Y-102571663D01*
X126449831Y-102682606D01*
X126497965Y-102785830D01*
X126497967Y-102785834D01*
X126606281Y-102940521D01*
X126633505Y-102979401D01*
X126800599Y-103146495D01*
X126843352Y-103176431D01*
X126994165Y-103282032D01*
X126994167Y-103282033D01*
X126994170Y-103282035D01*
X127208337Y-103381903D01*
X127208343Y-103381904D01*
X127208344Y-103381905D01*
X127242848Y-103391150D01*
X127436592Y-103443063D01*
X127624918Y-103459539D01*
X127671999Y-103463659D01*
X127672000Y-103463659D01*
X127672001Y-103463659D01*
X127711234Y-103460226D01*
X127907408Y-103443063D01*
X128135663Y-103381903D01*
X128349830Y-103282035D01*
X128543401Y-103146495D01*
X128710495Y-102979401D01*
X128840425Y-102793842D01*
X128895002Y-102750217D01*
X128964500Y-102743023D01*
X129026855Y-102774546D01*
X129043575Y-102793842D01*
X129173500Y-102979395D01*
X129173505Y-102979401D01*
X129340599Y-103146495D01*
X129383352Y-103176431D01*
X129534165Y-103282032D01*
X129534167Y-103282033D01*
X129534170Y-103282035D01*
X129748337Y-103381903D01*
X129748343Y-103381904D01*
X129748344Y-103381905D01*
X129782848Y-103391150D01*
X129976592Y-103443063D01*
X130164918Y-103459539D01*
X130211999Y-103463659D01*
X130212000Y-103463659D01*
X130212001Y-103463659D01*
X130251234Y-103460226D01*
X130447408Y-103443063D01*
X130675663Y-103381903D01*
X130889830Y-103282035D01*
X131083401Y-103146495D01*
X131250495Y-102979401D01*
X131386035Y-102785830D01*
X131485903Y-102571663D01*
X131547063Y-102343408D01*
X131567659Y-102108000D01*
X131563916Y-102065224D01*
X131562890Y-102053492D01*
X131547063Y-101872592D01*
X131485903Y-101644337D01*
X131386035Y-101430171D01*
X131380425Y-101422158D01*
X131250494Y-101236597D01*
X131083402Y-101069506D01*
X131083396Y-101069501D01*
X130897842Y-100939575D01*
X130854217Y-100884998D01*
X130847023Y-100815500D01*
X130878546Y-100753145D01*
X130897842Y-100736425D01*
X130920026Y-100720891D01*
X131083401Y-100606495D01*
X131250495Y-100439401D01*
X131386035Y-100245830D01*
X131485903Y-100031663D01*
X131547063Y-99803408D01*
X131567659Y-99568000D01*
X131547063Y-99332592D01*
X131488117Y-99112598D01*
X131485905Y-99104344D01*
X131485904Y-99104343D01*
X131485903Y-99104337D01*
X131386035Y-98890171D01*
X131380425Y-98882158D01*
X131250494Y-98696597D01*
X131083402Y-98529506D01*
X131083396Y-98529501D01*
X130897842Y-98399575D01*
X130854217Y-98344998D01*
X130847023Y-98275500D01*
X130878546Y-98213145D01*
X130897842Y-98196425D01*
X130923676Y-98178336D01*
X131083401Y-98066495D01*
X131250495Y-97899401D01*
X131386035Y-97705830D01*
X131485903Y-97491663D01*
X131547063Y-97263408D01*
X131567659Y-97028000D01*
X131547063Y-96792592D01*
X131485903Y-96564337D01*
X131386035Y-96350171D01*
X131382705Y-96345414D01*
X131250494Y-96156597D01*
X131083402Y-95989506D01*
X131083396Y-95989501D01*
X130897842Y-95859575D01*
X130854217Y-95804998D01*
X130847023Y-95735500D01*
X130878546Y-95673145D01*
X130897842Y-95656425D01*
X131017893Y-95572364D01*
X131083401Y-95526495D01*
X131250495Y-95359401D01*
X131386035Y-95165830D01*
X131485903Y-94951663D01*
X131505430Y-94878779D01*
X131506394Y-94875386D01*
X131592636Y-94587597D01*
X131604049Y-94541851D01*
X131604476Y-94539721D01*
X131611542Y-94493449D01*
X131642151Y-94203606D01*
X131642155Y-94203563D01*
X131642678Y-94198349D01*
X131643343Y-94191335D01*
X131658961Y-94026564D01*
X131665758Y-93996212D01*
X131694461Y-93916612D01*
X131713873Y-93881726D01*
X131874710Y-93678502D01*
X131881542Y-93669418D01*
X131892947Y-93656286D01*
X145362416Y-80186819D01*
X145423739Y-80153334D01*
X145450097Y-80150500D01*
X148832178Y-80150500D01*
X148899217Y-80170185D01*
X148944972Y-80222989D01*
X148955580Y-80286653D01*
X148947299Y-80370738D01*
X148944417Y-80400000D01*
X148964699Y-80605932D01*
X149024769Y-80803957D01*
X149076927Y-80901535D01*
X149091169Y-80969938D01*
X149066838Y-81034297D01*
X149056646Y-81047912D01*
X149056645Y-81047913D01*
X149006403Y-81182620D01*
X149006401Y-81182627D01*
X149000000Y-81242155D01*
X149000000Y-81565000D01*
X149375500Y-81565000D01*
X149442539Y-81584685D01*
X149488294Y-81637489D01*
X149499500Y-81689000D01*
X149499500Y-81741000D01*
X149479815Y-81808039D01*
X149427011Y-81853794D01*
X149375500Y-81865000D01*
X149000000Y-81865000D01*
X149000000Y-81881067D01*
X148980315Y-81948106D01*
X148927511Y-81993861D01*
X148858353Y-82003805D01*
X148828549Y-81995629D01*
X148826103Y-81994616D01*
X148801541Y-81984442D01*
X148787354Y-81982574D01*
X148688054Y-81969500D01*
X148688047Y-81969500D01*
X148611953Y-81969500D01*
X148611945Y-81969500D01*
X148498459Y-81984442D01*
X148498455Y-81984443D01*
X148357247Y-82042932D01*
X148357244Y-82042934D01*
X148235981Y-82135984D01*
X148142934Y-82257243D01*
X148142933Y-82257246D01*
X148084443Y-82398455D01*
X148084442Y-82398459D01*
X148064491Y-82550000D01*
X148084442Y-82701540D01*
X148084443Y-82701544D01*
X148142932Y-82842752D01*
X148142934Y-82842755D01*
X148235982Y-82964016D01*
X148235983Y-82964017D01*
X148357244Y-83057065D01*
X148357247Y-83057067D01*
X148437963Y-83090500D01*
X148498459Y-83115558D01*
X148611953Y-83130500D01*
X148611960Y-83130500D01*
X148688040Y-83130500D01*
X148688047Y-83130500D01*
X148801541Y-83115558D01*
X148828550Y-83104370D01*
X148898015Y-83096902D01*
X148960495Y-83128176D01*
X148996148Y-83188265D01*
X149000000Y-83218932D01*
X149000000Y-83235000D01*
X149375500Y-83235000D01*
X149442539Y-83254685D01*
X149488294Y-83307489D01*
X149499500Y-83359000D01*
X149499500Y-83411000D01*
X149479815Y-83478039D01*
X149427011Y-83523794D01*
X149375500Y-83535000D01*
X149000000Y-83535000D01*
X149000000Y-83857844D01*
X149006401Y-83917372D01*
X149006403Y-83917379D01*
X149056645Y-84052086D01*
X149056648Y-84052092D01*
X149066836Y-84065701D01*
X149091252Y-84131165D01*
X149076926Y-84198463D01*
X149024771Y-84296038D01*
X149024770Y-84296041D01*
X148964699Y-84494067D01*
X148944417Y-84699999D01*
X148955581Y-84813346D01*
X148942562Y-84881992D01*
X148894498Y-84932702D01*
X148832178Y-84949500D01*
X145823487Y-84949500D01*
X145807302Y-84948439D01*
X145776000Y-84944318D01*
X145736639Y-84949500D01*
X145619239Y-84964955D01*
X145619237Y-84964956D01*
X145473160Y-85025463D01*
X145347714Y-85121721D01*
X145328495Y-85146769D01*
X145317800Y-85158964D01*
X135090583Y-95386180D01*
X135065367Y-95405616D01*
X134859088Y-95525906D01*
X134845562Y-95532723D01*
X134627486Y-95626396D01*
X134611532Y-95631994D01*
X134473341Y-95670128D01*
X134429549Y-95674124D01*
X134192002Y-95653341D01*
X134191999Y-95653341D01*
X133956596Y-95673936D01*
X133956586Y-95673938D01*
X133728344Y-95735094D01*
X133728335Y-95735098D01*
X133514171Y-95834964D01*
X133514169Y-95834965D01*
X133320597Y-95970505D01*
X133153505Y-96137597D01*
X133017965Y-96331169D01*
X133017964Y-96331171D01*
X132918098Y-96545335D01*
X132918094Y-96545344D01*
X132856938Y-96773586D01*
X132856936Y-96773596D01*
X132841500Y-96950032D01*
X132841500Y-97317967D01*
X132856936Y-97494403D01*
X132856938Y-97494413D01*
X132918094Y-97722655D01*
X132918096Y-97722659D01*
X132918097Y-97722663D01*
X132948386Y-97787617D01*
X133017964Y-97936828D01*
X133017965Y-97936830D01*
X133153505Y-98130402D01*
X133244760Y-98221656D01*
X133320599Y-98297495D01*
X133363675Y-98327657D01*
X133514165Y-98433032D01*
X133514167Y-98433033D01*
X133514170Y-98433035D01*
X133728337Y-98532903D01*
X133956592Y-98594063D01*
X134133034Y-98609500D01*
X134191999Y-98614659D01*
X134192000Y-98614659D01*
X134192001Y-98614659D01*
X134250966Y-98609500D01*
X134427408Y-98594063D01*
X134655663Y-98532903D01*
X134869829Y-98433035D01*
X135063401Y-98297495D01*
X135230495Y-98130401D01*
X135340426Y-97973401D01*
X135395001Y-97929778D01*
X135464500Y-97922584D01*
X135526855Y-97954106D01*
X135543571Y-97973398D01*
X135597833Y-98050893D01*
X135653506Y-98130403D01*
X135744760Y-98221656D01*
X135820599Y-98297495D01*
X135863675Y-98327657D01*
X136014165Y-98433032D01*
X136014167Y-98433033D01*
X136014170Y-98433035D01*
X136228337Y-98532903D01*
X136456592Y-98594063D01*
X136633034Y-98609500D01*
X136691999Y-98614659D01*
X136692000Y-98614659D01*
X136692001Y-98614659D01*
X136750966Y-98609500D01*
X136927408Y-98594063D01*
X137155663Y-98532903D01*
X137369829Y-98433035D01*
X137563401Y-98297495D01*
X137730495Y-98130401D01*
X137840426Y-97973401D01*
X137895001Y-97929778D01*
X137964500Y-97922584D01*
X138026855Y-97954106D01*
X138043571Y-97973398D01*
X138097833Y-98050893D01*
X138153506Y-98130403D01*
X138244760Y-98221656D01*
X138320599Y-98297495D01*
X138363675Y-98327657D01*
X138514165Y-98433032D01*
X138514167Y-98433033D01*
X138514170Y-98433035D01*
X138728337Y-98532903D01*
X138956592Y-98594063D01*
X139133034Y-98609500D01*
X139191999Y-98614659D01*
X139192000Y-98614659D01*
X139192001Y-98614659D01*
X139250966Y-98609500D01*
X139427408Y-98594063D01*
X139655663Y-98532903D01*
X139869829Y-98433035D01*
X140063401Y-98297495D01*
X140230495Y-98130401D01*
X140340732Y-97972965D01*
X140395306Y-97929342D01*
X140464805Y-97922148D01*
X140527159Y-97953670D01*
X140543880Y-97972967D01*
X140653886Y-98130073D01*
X140653891Y-98130079D01*
X140820917Y-98297105D01*
X141014421Y-98432600D01*
X141228507Y-98532429D01*
X141228516Y-98532433D01*
X141442000Y-98589634D01*
X141442000Y-97542018D01*
X141556801Y-97594446D01*
X141658025Y-97609000D01*
X141725975Y-97609000D01*
X141827199Y-97594446D01*
X141942000Y-97542018D01*
X141942000Y-98589633D01*
X142155483Y-98532433D01*
X142155492Y-98532429D01*
X142369577Y-98432600D01*
X142369579Y-98432599D01*
X142563073Y-98297113D01*
X142563079Y-98297108D01*
X142710331Y-98149857D01*
X142771654Y-98116372D01*
X142841346Y-98121356D01*
X142897279Y-98163228D01*
X142903551Y-98172441D01*
X142921805Y-98202035D01*
X142999288Y-98327656D01*
X143123344Y-98451712D01*
X143272666Y-98543814D01*
X143439203Y-98598999D01*
X143541991Y-98609500D01*
X144842008Y-98609499D01*
X144944797Y-98598999D01*
X145111334Y-98543814D01*
X145260656Y-98451712D01*
X145384712Y-98327656D01*
X145476814Y-98178334D01*
X145531999Y-98011797D01*
X145542500Y-97909009D01*
X145542499Y-96358992D01*
X145541156Y-96345849D01*
X145531999Y-96256203D01*
X145531998Y-96256200D01*
X145512639Y-96197780D01*
X145476814Y-96089666D01*
X145384712Y-95940344D01*
X145260656Y-95816288D01*
X145129677Y-95735500D01*
X145111336Y-95724187D01*
X145111331Y-95724185D01*
X145109862Y-95723698D01*
X144944797Y-95669001D01*
X144944795Y-95669000D01*
X144842010Y-95658500D01*
X143541998Y-95658500D01*
X143541981Y-95658501D01*
X143439203Y-95669000D01*
X143439200Y-95669001D01*
X143272668Y-95724185D01*
X143272663Y-95724187D01*
X143123342Y-95816289D01*
X142999288Y-95940343D01*
X142999285Y-95940347D01*
X142903550Y-96095558D01*
X142851602Y-96142283D01*
X142782640Y-96153504D01*
X142718558Y-96125661D01*
X142710331Y-96118143D01*
X142563078Y-95970891D01*
X142369578Y-95835399D01*
X142155492Y-95735570D01*
X142155486Y-95735567D01*
X141942000Y-95678364D01*
X141942000Y-96725981D01*
X141827199Y-96673554D01*
X141725975Y-96659000D01*
X141658025Y-96659000D01*
X141556801Y-96673554D01*
X141442000Y-96725981D01*
X141442000Y-95678364D01*
X141441999Y-95678364D01*
X141228513Y-95735567D01*
X141228507Y-95735570D01*
X141014422Y-95835399D01*
X141014420Y-95835400D01*
X140820926Y-95970886D01*
X140820920Y-95970891D01*
X140653891Y-96137920D01*
X140653890Y-96137922D01*
X140543880Y-96295032D01*
X140489303Y-96338657D01*
X140419804Y-96345849D01*
X140357450Y-96314327D01*
X140340730Y-96295031D01*
X140230494Y-96137597D01*
X140199200Y-96106304D01*
X140180366Y-96082110D01*
X140154922Y-96039423D01*
X140149503Y-96030331D01*
X140145044Y-96022169D01*
X140125851Y-95983668D01*
X140059671Y-95850909D01*
X140026629Y-95784625D01*
X140023623Y-95778132D01*
X139922292Y-95541592D01*
X139899352Y-95488043D01*
X139897255Y-95482821D01*
X139835516Y-95318432D01*
X139830374Y-95248755D01*
X139863718Y-95187358D01*
X143849416Y-91201662D01*
X143910739Y-91168177D01*
X143937097Y-91165343D01*
X146421123Y-91165343D01*
X146437307Y-91166403D01*
X146468610Y-91170525D01*
X146468611Y-91170525D01*
X146520864Y-91163645D01*
X146625372Y-91149887D01*
X146771451Y-91089379D01*
X146798394Y-91068705D01*
X146896892Y-90993125D01*
X146916119Y-90968066D01*
X146926800Y-90955886D01*
X152418787Y-85463898D01*
X152480108Y-85430415D01*
X152549800Y-85435399D01*
X152605733Y-85477271D01*
X152621025Y-85504125D01*
X152625464Y-85514841D01*
X152673686Y-85577685D01*
X152721719Y-85640283D01*
X152746769Y-85659504D01*
X152758964Y-85670199D01*
X163200699Y-96111935D01*
X163225487Y-96147398D01*
X163281905Y-96268912D01*
X163285049Y-96276301D01*
X163377994Y-96516002D01*
X163380034Y-96521667D01*
X163477326Y-96813940D01*
X163478715Y-96818390D01*
X163486193Y-96844034D01*
X163555543Y-97081855D01*
X163578618Y-97160983D01*
X163579602Y-97164557D01*
X163624906Y-97339176D01*
X163628408Y-97359506D01*
X163630937Y-97388408D01*
X163692094Y-97616655D01*
X163692096Y-97616659D01*
X163692097Y-97616663D01*
X163737413Y-97713842D01*
X163791964Y-97830828D01*
X163791965Y-97830830D01*
X163927505Y-98024402D01*
X164019476Y-98116372D01*
X164094599Y-98191495D01*
X164137675Y-98221657D01*
X164288165Y-98327032D01*
X164288167Y-98327033D01*
X164288170Y-98327035D01*
X164502337Y-98426903D01*
X164502343Y-98426904D01*
X164502344Y-98426905D01*
X164525211Y-98433032D01*
X164730592Y-98488063D01*
X164907034Y-98503500D01*
X164965999Y-98508659D01*
X164966000Y-98508659D01*
X164966001Y-98508659D01*
X165024966Y-98503500D01*
X165201408Y-98488063D01*
X165429663Y-98426903D01*
X165643829Y-98327035D01*
X165837401Y-98191495D01*
X166004495Y-98024401D01*
X166114426Y-97867401D01*
X166169001Y-97823778D01*
X166238500Y-97816584D01*
X166300855Y-97848106D01*
X166317571Y-97867398D01*
X166377979Y-97953670D01*
X166427506Y-98024403D01*
X166519476Y-98116372D01*
X166594599Y-98191495D01*
X166637675Y-98221657D01*
X166788165Y-98327032D01*
X166788167Y-98327033D01*
X166788170Y-98327035D01*
X167002337Y-98426903D01*
X167002343Y-98426904D01*
X167002344Y-98426905D01*
X167025211Y-98433032D01*
X167230592Y-98488063D01*
X167407034Y-98503500D01*
X167465999Y-98508659D01*
X167466000Y-98508659D01*
X167466001Y-98508659D01*
X167524966Y-98503500D01*
X167701408Y-98488063D01*
X167929663Y-98426903D01*
X168143829Y-98327035D01*
X168337401Y-98191495D01*
X168504495Y-98024401D01*
X168614732Y-97866965D01*
X168669306Y-97823342D01*
X168738805Y-97816148D01*
X168801159Y-97847670D01*
X168817880Y-97866967D01*
X168927886Y-98024073D01*
X168927891Y-98024079D01*
X169094917Y-98191105D01*
X169288421Y-98326600D01*
X169502507Y-98426429D01*
X169502516Y-98426433D01*
X169716000Y-98483634D01*
X169716000Y-97436018D01*
X169830801Y-97488446D01*
X169932025Y-97503000D01*
X169999975Y-97503000D01*
X170101199Y-97488446D01*
X170216000Y-97436018D01*
X170216000Y-98483633D01*
X170429483Y-98426433D01*
X170429492Y-98426429D01*
X170643577Y-98326600D01*
X170643579Y-98326599D01*
X170837073Y-98191113D01*
X170837079Y-98191108D01*
X170984331Y-98043857D01*
X171045654Y-98010372D01*
X171115346Y-98015356D01*
X171171279Y-98057228D01*
X171177551Y-98066441D01*
X171181186Y-98072334D01*
X171273288Y-98221656D01*
X171397344Y-98345712D01*
X171546666Y-98437814D01*
X171713203Y-98492999D01*
X171815991Y-98503500D01*
X173116008Y-98503499D01*
X173218797Y-98492999D01*
X173385334Y-98437814D01*
X173534656Y-98345712D01*
X173658712Y-98221656D01*
X173750814Y-98072334D01*
X173805999Y-97905797D01*
X173816500Y-97803009D01*
X173816499Y-96252992D01*
X173815156Y-96239849D01*
X173805999Y-96150203D01*
X173805998Y-96150200D01*
X173750814Y-95983666D01*
X173658712Y-95834344D01*
X173534656Y-95710288D01*
X173434197Y-95648325D01*
X173385336Y-95618187D01*
X173385331Y-95618185D01*
X173344817Y-95604760D01*
X173218797Y-95563001D01*
X173218795Y-95563000D01*
X173116010Y-95552500D01*
X171815998Y-95552500D01*
X171815981Y-95552501D01*
X171713203Y-95563000D01*
X171713200Y-95563001D01*
X171546668Y-95618185D01*
X171546663Y-95618187D01*
X171397342Y-95710289D01*
X171273288Y-95834343D01*
X171273285Y-95834347D01*
X171177550Y-95989558D01*
X171125602Y-96036283D01*
X171056640Y-96047504D01*
X170992558Y-96019661D01*
X170984331Y-96012143D01*
X170837078Y-95864891D01*
X170643578Y-95729399D01*
X170429492Y-95629570D01*
X170429486Y-95629567D01*
X170216000Y-95572364D01*
X170216000Y-96619981D01*
X170101199Y-96567554D01*
X169999975Y-96553000D01*
X169932025Y-96553000D01*
X169830801Y-96567554D01*
X169716000Y-96619981D01*
X169716000Y-95572364D01*
X169715999Y-95572364D01*
X169502513Y-95629567D01*
X169502507Y-95629570D01*
X169288422Y-95729399D01*
X169288420Y-95729400D01*
X169094926Y-95864886D01*
X169094920Y-95864891D01*
X168927891Y-96031920D01*
X168927890Y-96031922D01*
X168817880Y-96189032D01*
X168763303Y-96232657D01*
X168693804Y-96239849D01*
X168631450Y-96208327D01*
X168614730Y-96189031D01*
X168504494Y-96031597D01*
X168337402Y-95864506D01*
X168337395Y-95864501D01*
X168143834Y-95728967D01*
X168143830Y-95728965D01*
X168012447Y-95667700D01*
X167966476Y-95630804D01*
X167958787Y-95620784D01*
X167956794Y-95618186D01*
X167894282Y-95536718D01*
X167889076Y-95532723D01*
X167869228Y-95517493D01*
X167857034Y-95506799D01*
X167405382Y-95055147D01*
X167397589Y-95046590D01*
X167385015Y-95031418D01*
X167384065Y-95030342D01*
X167384063Y-95030339D01*
X167384053Y-95030330D01*
X167384051Y-95030327D01*
X167322263Y-94971250D01*
X167322262Y-94971249D01*
X167317524Y-94966719D01*
X167313054Y-94962819D01*
X165939199Y-93588964D01*
X165928503Y-93576767D01*
X165909286Y-93551722D01*
X165909283Y-93551720D01*
X165909282Y-93551718D01*
X165783841Y-93455464D01*
X165769457Y-93449506D01*
X165637762Y-93394956D01*
X165637760Y-93394955D01*
X165481001Y-93374318D01*
X165481000Y-93374318D01*
X165449697Y-93378439D01*
X165433513Y-93379500D01*
X163114097Y-93379500D01*
X163047058Y-93359815D01*
X163026416Y-93343181D01*
X155414244Y-85731009D01*
X155380759Y-85669686D01*
X155385743Y-85599994D01*
X155423258Y-85547476D01*
X155546410Y-85446410D01*
X155677685Y-85286450D01*
X155775232Y-85103954D01*
X155835300Y-84905934D01*
X155855583Y-84700000D01*
X155835300Y-84494066D01*
X155775232Y-84296046D01*
X155723071Y-84198461D01*
X155708830Y-84130062D01*
X155733166Y-84065695D01*
X155743351Y-84052089D01*
X155793597Y-83917376D01*
X155793598Y-83917372D01*
X155799999Y-83857844D01*
X155800000Y-83857827D01*
X155800000Y-83535000D01*
X155424499Y-83535000D01*
X155357460Y-83515315D01*
X155311705Y-83462511D01*
X155300499Y-83411000D01*
X155300499Y-83359000D01*
X155320184Y-83291961D01*
X155372988Y-83246206D01*
X155424499Y-83235000D01*
X155800000Y-83235000D01*
X155800000Y-83214500D01*
X155819685Y-83147461D01*
X155872489Y-83101706D01*
X155924000Y-83090500D01*
X156396975Y-83090500D01*
X156424529Y-83086712D01*
X156507196Y-83075350D01*
X156643476Y-83016156D01*
X156758731Y-82922389D01*
X156770545Y-82905652D01*
X156844413Y-82801005D01*
X156844414Y-82801003D01*
X156894171Y-82661002D01*
X156904310Y-82512768D01*
X156874081Y-82367296D01*
X156805724Y-82235374D01*
X156805721Y-82235371D01*
X156805720Y-82235369D01*
X156704309Y-82126785D01*
X156577362Y-82049587D01*
X156577361Y-82049586D01*
X156577360Y-82049586D01*
X156434290Y-82009500D01*
X155924000Y-82009500D01*
X155856961Y-81989815D01*
X155811206Y-81937011D01*
X155800000Y-81885500D01*
X155800000Y-81865000D01*
X155424500Y-81865000D01*
X155357461Y-81845315D01*
X155311706Y-81792511D01*
X155300500Y-81741002D01*
X155300499Y-81689002D01*
X155320182Y-81621963D01*
X155372985Y-81576207D01*
X155424499Y-81565000D01*
X155800000Y-81565000D01*
X155800000Y-81242172D01*
X155799999Y-81242155D01*
X155793598Y-81182627D01*
X155793596Y-81182620D01*
X155743354Y-81047913D01*
X155743350Y-81047906D01*
X155733164Y-81034299D01*
X155708747Y-80968835D01*
X155723073Y-80901535D01*
X155744254Y-80861909D01*
X155775232Y-80803954D01*
X155835300Y-80605934D01*
X155855583Y-80400000D01*
X155844419Y-80286653D01*
X155857438Y-80218008D01*
X155905502Y-80167298D01*
X155967822Y-80150500D01*
X159010903Y-80150500D01*
X159077942Y-80170185D01*
X159098584Y-80186819D01*
X175001098Y-96089333D01*
X175023258Y-96119474D01*
X175111568Y-96288063D01*
X175114982Y-96295115D01*
X175234901Y-96564214D01*
X175237251Y-96569858D01*
X175361514Y-96890328D01*
X175363186Y-96894904D01*
X175489652Y-97263413D01*
X175490256Y-97265171D01*
X175491481Y-97268937D01*
X175598509Y-97616655D01*
X175600013Y-97621539D01*
X175605500Y-97658018D01*
X175605500Y-98092870D01*
X175605501Y-98092876D01*
X175611908Y-98152483D01*
X175662202Y-98287328D01*
X175662206Y-98287335D01*
X175748452Y-98402544D01*
X175748455Y-98402547D01*
X175863664Y-98488793D01*
X175863671Y-98488797D01*
X175998517Y-98539091D01*
X175998516Y-98539091D01*
X176005444Y-98539835D01*
X176058127Y-98545500D01*
X177853872Y-98545499D01*
X177913483Y-98539091D01*
X178048331Y-98488796D01*
X178163546Y-98402546D01*
X178249796Y-98287331D01*
X178300091Y-98152483D01*
X178306500Y-98092873D01*
X178306499Y-96297128D01*
X178300091Y-96237517D01*
X178298278Y-96232657D01*
X178249797Y-96102671D01*
X178249793Y-96102664D01*
X178163547Y-95987455D01*
X178163544Y-95987452D01*
X178048335Y-95901206D01*
X178048328Y-95901202D01*
X177916917Y-95852189D01*
X177860983Y-95810318D01*
X177836566Y-95744853D01*
X177851418Y-95676580D01*
X177872563Y-95648332D01*
X177994495Y-95526401D01*
X178130035Y-95332830D01*
X178229903Y-95118663D01*
X178291063Y-94890408D01*
X178311659Y-94655000D01*
X178309599Y-94631460D01*
X178301760Y-94541859D01*
X178291063Y-94419592D01*
X178244626Y-94246285D01*
X178229905Y-94191344D01*
X178229904Y-94191343D01*
X178229903Y-94191337D01*
X178130035Y-93977171D01*
X178087634Y-93916615D01*
X177994494Y-93783597D01*
X177827402Y-93616506D01*
X177827396Y-93616501D01*
X177641842Y-93486575D01*
X177598217Y-93431998D01*
X177591023Y-93362500D01*
X177622546Y-93300145D01*
X177641842Y-93283425D01*
X177727835Y-93223212D01*
X177827401Y-93153495D01*
X177994495Y-92986401D01*
X178130035Y-92792830D01*
X178229903Y-92578663D01*
X178291063Y-92350408D01*
X178311659Y-92115000D01*
X178291063Y-91879592D01*
X178229903Y-91651337D01*
X178130035Y-91437171D01*
X177994495Y-91243599D01*
X177994494Y-91243597D01*
X177827402Y-91076506D01*
X177827396Y-91076501D01*
X177641842Y-90946575D01*
X177598217Y-90891998D01*
X177591023Y-90822500D01*
X177622546Y-90760145D01*
X177641842Y-90743425D01*
X177737940Y-90676136D01*
X177827401Y-90613495D01*
X177994495Y-90446401D01*
X178130035Y-90252830D01*
X178229903Y-90038663D01*
X178291063Y-89810408D01*
X178311659Y-89575000D01*
X178291063Y-89339592D01*
X178229903Y-89111337D01*
X178130035Y-88897171D01*
X177994495Y-88703599D01*
X177994494Y-88703597D01*
X177827402Y-88536506D01*
X177827395Y-88536501D01*
X177633834Y-88400967D01*
X177633830Y-88400965D01*
X177633828Y-88400964D01*
X177419663Y-88301097D01*
X177419659Y-88301096D01*
X177419655Y-88301094D01*
X177191413Y-88239938D01*
X177191403Y-88239936D01*
X176956001Y-88219341D01*
X176955999Y-88219341D01*
X176720596Y-88239936D01*
X176720586Y-88239938D01*
X176492344Y-88301094D01*
X176492335Y-88301098D01*
X176278171Y-88400964D01*
X176278169Y-88400965D01*
X176084597Y-88536505D01*
X175917505Y-88703597D01*
X175781965Y-88897169D01*
X175781964Y-88897171D01*
X175682098Y-89111335D01*
X175682094Y-89111344D01*
X175620938Y-89339586D01*
X175620936Y-89339596D01*
X175600341Y-89574999D01*
X175600341Y-89575000D01*
X175620936Y-89810403D01*
X175620938Y-89810413D01*
X175682094Y-90038655D01*
X175682096Y-90038659D01*
X175682097Y-90038663D01*
X175756164Y-90197500D01*
X175781965Y-90252830D01*
X175781967Y-90252834D01*
X175917501Y-90446395D01*
X175917506Y-90446402D01*
X176084597Y-90613493D01*
X176084603Y-90613498D01*
X176270158Y-90743425D01*
X176313783Y-90798002D01*
X176320977Y-90867500D01*
X176289454Y-90929855D01*
X176270158Y-90946575D01*
X176084597Y-91076505D01*
X175917505Y-91243597D01*
X175781965Y-91437169D01*
X175781964Y-91437171D01*
X175682098Y-91651335D01*
X175682094Y-91651344D01*
X175620938Y-91879586D01*
X175620936Y-91879596D01*
X175600341Y-92114999D01*
X175600341Y-92115000D01*
X175602777Y-92142844D01*
X175589010Y-92211344D01*
X175540395Y-92261528D01*
X175472367Y-92277461D01*
X175406523Y-92254086D01*
X175391568Y-92241333D01*
X169256235Y-86106000D01*
X182563357Y-86106000D01*
X182583884Y-86327535D01*
X182583885Y-86327537D01*
X182644769Y-86541523D01*
X182644775Y-86541538D01*
X182743938Y-86740683D01*
X182743943Y-86740691D01*
X182878020Y-86918238D01*
X183042437Y-87068123D01*
X183042439Y-87068125D01*
X183231595Y-87185245D01*
X183231596Y-87185245D01*
X183231599Y-87185247D01*
X183439060Y-87265618D01*
X183657757Y-87306500D01*
X183657759Y-87306500D01*
X183880241Y-87306500D01*
X183880243Y-87306500D01*
X184098940Y-87265618D01*
X184306401Y-87185247D01*
X184495562Y-87068124D01*
X184659981Y-86918236D01*
X184794058Y-86740689D01*
X184893229Y-86541528D01*
X184954115Y-86327536D01*
X184974643Y-86106000D01*
X184954115Y-85884464D01*
X184893229Y-85670472D01*
X184893224Y-85670461D01*
X184794061Y-85471316D01*
X184794056Y-85471308D01*
X184659979Y-85293761D01*
X184495562Y-85143876D01*
X184495560Y-85143874D01*
X184306404Y-85026754D01*
X184306398Y-85026752D01*
X184098940Y-84946382D01*
X183880243Y-84905500D01*
X183657757Y-84905500D01*
X183439060Y-84946382D01*
X183338390Y-84985382D01*
X183231601Y-85026752D01*
X183231595Y-85026754D01*
X183042439Y-85143874D01*
X183042437Y-85143876D01*
X182878020Y-85293761D01*
X182743943Y-85471308D01*
X182743938Y-85471316D01*
X182644775Y-85670461D01*
X182644769Y-85670476D01*
X182583885Y-85884462D01*
X182583884Y-85884464D01*
X182563357Y-86105999D01*
X182563357Y-86106000D01*
X169256235Y-86106000D01*
X161909199Y-78758964D01*
X161898504Y-78746769D01*
X161879283Y-78721719D01*
X161879235Y-78721682D01*
X161753841Y-78625464D01*
X161719180Y-78611107D01*
X161607762Y-78564956D01*
X161607760Y-78564955D01*
X161490361Y-78549500D01*
X161451000Y-78544318D01*
X161419697Y-78548439D01*
X161403513Y-78549500D01*
X154265801Y-78549500D01*
X154249616Y-78548439D01*
X154218314Y-78544318D01*
X154178953Y-78549500D01*
X154061553Y-78564955D01*
X154061551Y-78564956D01*
X153915471Y-78625464D01*
X153790032Y-78721716D01*
X153770803Y-78746775D01*
X153760112Y-78758965D01*
X153393787Y-79125290D01*
X153332464Y-79158775D01*
X153262772Y-79153791D01*
X153206839Y-79111919D01*
X153188175Y-79075926D01*
X153184990Y-79066123D01*
X153181619Y-79060284D01*
X153174560Y-79046013D01*
X153173218Y-79042796D01*
X153173217Y-79042794D01*
X153173216Y-79042791D01*
X153107919Y-78913096D01*
X153099674Y-78896719D01*
X153084475Y-78868760D01*
X153084471Y-78868754D01*
X153084465Y-78868742D01*
X153083716Y-78867462D01*
X153078939Y-78859866D01*
X153066554Y-78840168D01*
X152997844Y-78738262D01*
X152996243Y-78735827D01*
X152987182Y-78721682D01*
X152968082Y-78665759D01*
X152962279Y-78600385D01*
X152959202Y-78574853D01*
X152958311Y-78560015D01*
X152958311Y-78491944D01*
X152959372Y-78475758D01*
X152963493Y-78444457D01*
X152957681Y-78400313D01*
X152942855Y-78287696D01*
X152942855Y-78287695D01*
X152882347Y-78141616D01*
X152882346Y-78141615D01*
X152882346Y-78141614D01*
X152861209Y-78114068D01*
X152822780Y-78063986D01*
X152797586Y-77998817D01*
X152811625Y-77930372D01*
X152860439Y-77880382D01*
X152921156Y-77864500D01*
X155258933Y-77864500D01*
X156318136Y-77864500D01*
X156333473Y-77865452D01*
X156356779Y-77868357D01*
X156356779Y-77868356D01*
X156356780Y-77868357D01*
X156447472Y-77864606D01*
X156452596Y-77864500D01*
X158941933Y-77864500D01*
X158970412Y-77864500D01*
X158975536Y-77864605D01*
X159066221Y-77868357D01*
X159089526Y-77865452D01*
X159104863Y-77864500D01*
X160047933Y-77864500D01*
X160428933Y-77864500D01*
X161272933Y-77864500D01*
X161301404Y-77864500D01*
X161306528Y-77864606D01*
X161397219Y-77868357D01*
X161397219Y-77868356D01*
X161397221Y-77868357D01*
X161420527Y-77865452D01*
X161435864Y-77864500D01*
X161862933Y-77864500D01*
X162788933Y-77864500D01*
X165254933Y-77864500D01*
X166354110Y-77864500D01*
X166421149Y-77884185D01*
X166441791Y-77900819D01*
X167127665Y-78586692D01*
X167137838Y-78598212D01*
X167152261Y-78616744D01*
X167202115Y-78662638D01*
X167209360Y-78669883D01*
X167255252Y-78719734D01*
X167255256Y-78719738D01*
X167273787Y-78734161D01*
X167285306Y-78744334D01*
X168778665Y-80237692D01*
X168788838Y-80249212D01*
X168803261Y-80267744D01*
X168853115Y-80313638D01*
X168860360Y-80320883D01*
X168906252Y-80370734D01*
X168906256Y-80370738D01*
X168924787Y-80385161D01*
X168936306Y-80395334D01*
X170302665Y-81761693D01*
X170312837Y-81773211D01*
X170327263Y-81791745D01*
X170377115Y-81837638D01*
X170384360Y-81844883D01*
X170430252Y-81894734D01*
X170430256Y-81894738D01*
X170448787Y-81909161D01*
X170460306Y-81919334D01*
X171482181Y-82941209D01*
X171515666Y-83002532D01*
X171518500Y-83028890D01*
X171518500Y-84903870D01*
X171518501Y-84903876D01*
X171524908Y-84963483D01*
X171575202Y-85098328D01*
X171575206Y-85098335D01*
X171661452Y-85213544D01*
X171661455Y-85213547D01*
X171776664Y-85299793D01*
X171776671Y-85299797D01*
X171911517Y-85350091D01*
X171911516Y-85350091D01*
X171918444Y-85350835D01*
X171971127Y-85356500D01*
X175566872Y-85356499D01*
X175626483Y-85350091D01*
X175761331Y-85299796D01*
X175876546Y-85213546D01*
X175962796Y-85098331D01*
X176013091Y-84963483D01*
X176019500Y-84903873D01*
X176019499Y-81308128D01*
X176013091Y-81248517D01*
X176010724Y-81242172D01*
X175962797Y-81113671D01*
X175962793Y-81113664D01*
X175876547Y-80998455D01*
X175876544Y-80998452D01*
X175761335Y-80912206D01*
X175761328Y-80912202D01*
X175626482Y-80861908D01*
X175626483Y-80861908D01*
X175566883Y-80855501D01*
X175566881Y-80855500D01*
X175566873Y-80855500D01*
X175566865Y-80855500D01*
X173691890Y-80855500D01*
X173624851Y-80835815D01*
X173604209Y-80819181D01*
X173329172Y-80544144D01*
X173295687Y-80482821D01*
X173300671Y-80413129D01*
X173342543Y-80357196D01*
X173408007Y-80332779D01*
X173441045Y-80334846D01*
X173474678Y-80341536D01*
X173474687Y-80341537D01*
X173769000Y-80360827D01*
X174063312Y-80341537D01*
X174063324Y-80341535D01*
X174352584Y-80283998D01*
X174352599Y-80283994D01*
X174631888Y-80189187D01*
X174896406Y-80058741D01*
X174896419Y-80058734D01*
X175141648Y-79894877D01*
X175175039Y-79865593D01*
X174240350Y-78930904D01*
X174314503Y-78889746D01*
X174461104Y-78763894D01*
X174579370Y-78611107D01*
X174595262Y-78578708D01*
X175528593Y-79512039D01*
X175557877Y-79478648D01*
X175721734Y-79233419D01*
X175721741Y-79233406D01*
X175852187Y-78968888D01*
X175946994Y-78689599D01*
X175946998Y-78689584D01*
X176004535Y-78400324D01*
X176004537Y-78400312D01*
X176023827Y-78106000D01*
X176004537Y-77811687D01*
X176004535Y-77811675D01*
X175946998Y-77522415D01*
X175946994Y-77522400D01*
X175852187Y-77243111D01*
X175721741Y-76978593D01*
X175721734Y-76978580D01*
X175557876Y-76733350D01*
X175528593Y-76699958D01*
X174594355Y-77634196D01*
X174524111Y-77521501D01*
X174390995Y-77381463D01*
X174242994Y-77278451D01*
X175175040Y-76346405D01*
X175141649Y-76317123D01*
X174896419Y-76153265D01*
X174896406Y-76153258D01*
X174631888Y-76022812D01*
X174352599Y-75928005D01*
X174352584Y-75928001D01*
X174063324Y-75870464D01*
X174063312Y-75870462D01*
X173769000Y-75851172D01*
X173474687Y-75870462D01*
X173474675Y-75870464D01*
X173185415Y-75928001D01*
X173185400Y-75928005D01*
X172906111Y-76022812D01*
X172641593Y-76153258D01*
X172641580Y-76153265D01*
X172396346Y-76317126D01*
X172396339Y-76317131D01*
X172362959Y-76346403D01*
X172362959Y-76346405D01*
X173297649Y-77281095D01*
X173223497Y-77322254D01*
X173076896Y-77448106D01*
X172958630Y-77600893D01*
X172942737Y-77633291D01*
X172009405Y-76699959D01*
X172009403Y-76699959D01*
X171980131Y-76733339D01*
X171980126Y-76733346D01*
X171816265Y-76978580D01*
X171816258Y-76978593D01*
X171685812Y-77243111D01*
X171591005Y-77522400D01*
X171591001Y-77522415D01*
X171533464Y-77811675D01*
X171533462Y-77811687D01*
X171514172Y-78106000D01*
X171533462Y-78400312D01*
X171533462Y-78400313D01*
X171540154Y-78433956D01*
X171533925Y-78503548D01*
X171491062Y-78558725D01*
X171425171Y-78581968D01*
X171357175Y-78565899D01*
X171330855Y-78545827D01*
X171134415Y-78349387D01*
X171118288Y-78329528D01*
X171114164Y-78323215D01*
X171075458Y-78281169D01*
X171068842Y-78273358D01*
X171033738Y-78228256D01*
X171033731Y-78228248D01*
X171005350Y-78202123D01*
X170991685Y-78189543D01*
X170984455Y-78182313D01*
X170958727Y-78154365D01*
X170945751Y-78140269D01*
X170945747Y-78140265D01*
X170945746Y-78140264D01*
X170945744Y-78140262D01*
X170900644Y-78105159D01*
X170892826Y-78098538D01*
X170850784Y-78059835D01*
X170844465Y-78055707D01*
X170824607Y-78039580D01*
X169483415Y-76698387D01*
X169467288Y-76678528D01*
X169463164Y-76672215D01*
X169424458Y-76630169D01*
X169417842Y-76622358D01*
X169382738Y-76577256D01*
X169382731Y-76577248D01*
X169354350Y-76551123D01*
X169340685Y-76538543D01*
X169333455Y-76531313D01*
X169310220Y-76506074D01*
X169294751Y-76489269D01*
X169294747Y-76489265D01*
X169294746Y-76489264D01*
X169294744Y-76489262D01*
X169249644Y-76454159D01*
X169241826Y-76447538D01*
X169199784Y-76408835D01*
X169193465Y-76404707D01*
X169173607Y-76388580D01*
X168159334Y-75374306D01*
X168149162Y-75362788D01*
X168148942Y-75362505D01*
X168134738Y-75344256D01*
X168134734Y-75344252D01*
X168067954Y-75282776D01*
X168064254Y-75279226D01*
X168044133Y-75259104D01*
X168022387Y-75240686D01*
X168018546Y-75237294D01*
X167951786Y-75175837D01*
X167951785Y-75175836D01*
X167932123Y-75162990D01*
X167919811Y-75153808D01*
X167901894Y-75138634D01*
X167823891Y-75092153D01*
X167819583Y-75089464D01*
X167743602Y-75039824D01*
X167743602Y-75039823D01*
X167742135Y-75039180D01*
X167741632Y-75038757D01*
X167739096Y-75037385D01*
X167739378Y-75036862D01*
X167688652Y-74994220D01*
X167667967Y-74927483D01*
X167680866Y-74870532D01*
X167698640Y-74834695D01*
X167698641Y-74834693D01*
X167744600Y-74649889D01*
X167747500Y-74607123D01*
X167747500Y-73906004D01*
X168552093Y-73906004D01*
X168571692Y-74167545D01*
X168571693Y-74167550D01*
X168630058Y-74423270D01*
X168725883Y-74667426D01*
X168725882Y-74667426D01*
X168857027Y-74894573D01*
X168904874Y-74954571D01*
X169629804Y-74229642D01*
X169653059Y-74283553D01*
X169757756Y-74424185D01*
X169892062Y-74536882D01*
X169983665Y-74582886D01*
X169257830Y-75308720D01*
X169429546Y-75425793D01*
X169429550Y-75425795D01*
X169665854Y-75539594D01*
X169665858Y-75539595D01*
X169916494Y-75616907D01*
X169916500Y-75616909D01*
X170175848Y-75655999D01*
X170175857Y-75656000D01*
X170438143Y-75656000D01*
X170438151Y-75655999D01*
X170697499Y-75616909D01*
X170697505Y-75616907D01*
X170948143Y-75539595D01*
X171184445Y-75425798D01*
X171184447Y-75425797D01*
X171356168Y-75308720D01*
X171153448Y-75106000D01*
X182563357Y-75106000D01*
X182583884Y-75327535D01*
X182583885Y-75327537D01*
X182644769Y-75541523D01*
X182644775Y-75541538D01*
X182743938Y-75740683D01*
X182743943Y-75740691D01*
X182878020Y-75918238D01*
X183042437Y-76068123D01*
X183042439Y-76068125D01*
X183231595Y-76185245D01*
X183231596Y-76185245D01*
X183231599Y-76185247D01*
X183439060Y-76265618D01*
X183657757Y-76306500D01*
X183657759Y-76306500D01*
X183880241Y-76306500D01*
X183880243Y-76306500D01*
X184098940Y-76265618D01*
X184306401Y-76185247D01*
X184495562Y-76068124D01*
X184659981Y-75918236D01*
X184794058Y-75740689D01*
X184893229Y-75541528D01*
X184954115Y-75327536D01*
X184974643Y-75106000D01*
X184954115Y-74884464D01*
X184893229Y-74670472D01*
X184893224Y-74670461D01*
X184794061Y-74471316D01*
X184794056Y-74471308D01*
X184659979Y-74293761D01*
X184495562Y-74143876D01*
X184495560Y-74143874D01*
X184306404Y-74026754D01*
X184306398Y-74026752D01*
X184098940Y-73946382D01*
X183880243Y-73905500D01*
X183657757Y-73905500D01*
X183439060Y-73946382D01*
X183338390Y-73985382D01*
X183231601Y-74026752D01*
X183231595Y-74026754D01*
X183042439Y-74143874D01*
X183042437Y-74143876D01*
X182878020Y-74293761D01*
X182743943Y-74471308D01*
X182743938Y-74471316D01*
X182644775Y-74670461D01*
X182644769Y-74670476D01*
X182583885Y-74884462D01*
X182583884Y-74884464D01*
X182563357Y-75105999D01*
X182563357Y-75106000D01*
X171153448Y-75106000D01*
X170632945Y-74585498D01*
X170645891Y-74580787D01*
X170792373Y-74484445D01*
X170912688Y-74356918D01*
X170985447Y-74230894D01*
X171709125Y-74954572D01*
X171756971Y-74894573D01*
X171888116Y-74667426D01*
X171983941Y-74423270D01*
X172042306Y-74167550D01*
X172042307Y-74167545D01*
X172061907Y-73906004D01*
X172061907Y-73905995D01*
X172042307Y-73644454D01*
X172042306Y-73644449D01*
X171983941Y-73388729D01*
X171979338Y-73377000D01*
X179859775Y-73377000D01*
X179878592Y-73580082D01*
X179934407Y-73776247D01*
X179934412Y-73776260D01*
X180025317Y-73958821D01*
X180148227Y-74121581D01*
X180298948Y-74258980D01*
X180298950Y-74258982D01*
X180398131Y-74320392D01*
X180472353Y-74366348D01*
X180662534Y-74440024D01*
X180863014Y-74477500D01*
X180863016Y-74477500D01*
X181066964Y-74477500D01*
X181066966Y-74477500D01*
X181267446Y-74440024D01*
X181457627Y-74366348D01*
X181631031Y-74258981D01*
X181781754Y-74121579D01*
X181904663Y-73958821D01*
X181995572Y-73776250D01*
X182051387Y-73580083D01*
X182070205Y-73377000D01*
X182051387Y-73173917D01*
X181995572Y-72977750D01*
X181995351Y-72977307D01*
X181936686Y-72859490D01*
X181904663Y-72795179D01*
X181781754Y-72632421D01*
X181781752Y-72632418D01*
X181631031Y-72495019D01*
X181631029Y-72495017D01*
X181457632Y-72387655D01*
X181457625Y-72387651D01*
X181333912Y-72339725D01*
X181267446Y-72313976D01*
X181066966Y-72276500D01*
X180863014Y-72276500D01*
X180662534Y-72313976D01*
X180662531Y-72313976D01*
X180662531Y-72313977D01*
X180472354Y-72387651D01*
X180472347Y-72387655D01*
X180298950Y-72495017D01*
X180298948Y-72495019D01*
X180148227Y-72632418D01*
X180025317Y-72795178D01*
X179934412Y-72977739D01*
X179934407Y-72977752D01*
X179878592Y-73173917D01*
X179859775Y-73376999D01*
X179859775Y-73377000D01*
X171979338Y-73377000D01*
X171888116Y-73144573D01*
X171888117Y-73144573D01*
X171756972Y-72917426D01*
X171709124Y-72857427D01*
X170984195Y-73582356D01*
X170960941Y-73528447D01*
X170856244Y-73387815D01*
X170721938Y-73275118D01*
X170630334Y-73229113D01*
X171356168Y-72503278D01*
X171184454Y-72386206D01*
X171184445Y-72386201D01*
X170948142Y-72272404D01*
X170948144Y-72272404D01*
X170697505Y-72195092D01*
X170697499Y-72195090D01*
X170438151Y-72156000D01*
X170175848Y-72156000D01*
X169916500Y-72195090D01*
X169916494Y-72195092D01*
X169665858Y-72272404D01*
X169665854Y-72272405D01*
X169429547Y-72386205D01*
X169429539Y-72386210D01*
X169257830Y-72503277D01*
X169981054Y-73226501D01*
X169968109Y-73231213D01*
X169821627Y-73327555D01*
X169701312Y-73455082D01*
X169628553Y-73581105D01*
X168904875Y-72857427D01*
X168904874Y-72857427D01*
X168857028Y-72917425D01*
X168725883Y-73144573D01*
X168630058Y-73388729D01*
X168571693Y-73644449D01*
X168571692Y-73644454D01*
X168552093Y-73905995D01*
X168552093Y-73906004D01*
X167747500Y-73906004D01*
X167747499Y-73204878D01*
X167744600Y-73162111D01*
X167698641Y-72977307D01*
X167692289Y-72964500D01*
X167614032Y-72806707D01*
X167614030Y-72806704D01*
X167494722Y-72658278D01*
X167494721Y-72658277D01*
X167346295Y-72538969D01*
X167346292Y-72538967D01*
X167175697Y-72454360D01*
X167175693Y-72454359D01*
X167053295Y-72423920D01*
X167046122Y-72421904D01*
X166965385Y-72396582D01*
X166947515Y-72389411D01*
X166847068Y-72339725D01*
X166832624Y-72331324D01*
X166823267Y-72325002D01*
X166715174Y-72251966D01*
X166703923Y-72243391D01*
X166571588Y-72130018D01*
X166562992Y-72121911D01*
X166409653Y-71962782D01*
X166406569Y-71959609D01*
X166406417Y-71959454D01*
X166398297Y-71952088D01*
X166362695Y-71919792D01*
X166359947Y-71917763D01*
X166345933Y-71905698D01*
X166029416Y-71589181D01*
X165995931Y-71527858D01*
X166000915Y-71458166D01*
X166042787Y-71402233D01*
X166108251Y-71377816D01*
X166117097Y-71377500D01*
X184956199Y-71377500D01*
X184958319Y-71377518D01*
X184962815Y-71377598D01*
X184967129Y-71377752D01*
X184975938Y-71378225D01*
X184977131Y-71378295D01*
X185048454Y-71382970D01*
X185048798Y-71382994D01*
X185176074Y-71392096D01*
X185180457Y-71392487D01*
X185243388Y-71399253D01*
X185244857Y-71399411D01*
X185253616Y-71400671D01*
X185269937Y-71403615D01*
X185283305Y-71406027D01*
X185285312Y-71406407D01*
X185353465Y-71419963D01*
X185355379Y-71420362D01*
X185456455Y-71442348D01*
X185460667Y-71443344D01*
X185516919Y-71457701D01*
X185526049Y-71460411D01*
X185622757Y-71493239D01*
X185626043Y-71494409D01*
X185726747Y-71531969D01*
X185730865Y-71533590D01*
X185772051Y-71550649D01*
X185779432Y-71553994D01*
X185830047Y-71578954D01*
X185875628Y-71601432D01*
X185880210Y-71603811D01*
X185981579Y-71659162D01*
X185985395Y-71661335D01*
X186011380Y-71676752D01*
X186016965Y-71680271D01*
X186110283Y-71742624D01*
X186115649Y-71746421D01*
X186196350Y-71806832D01*
X186215700Y-71821318D01*
X186219172Y-71824014D01*
X186230094Y-71832816D01*
X186233988Y-71836091D01*
X186322964Y-71914120D01*
X186328886Y-71919666D01*
X186422318Y-72013097D01*
X186427865Y-72019020D01*
X186505878Y-72107977D01*
X186509198Y-72111926D01*
X186517964Y-72122803D01*
X186520683Y-72126302D01*
X186595547Y-72226307D01*
X186599383Y-72231728D01*
X186661706Y-72325002D01*
X186665243Y-72330615D01*
X186680648Y-72356577D01*
X186682840Y-72360428D01*
X186738185Y-72461786D01*
X186740565Y-72466367D01*
X186787998Y-72562550D01*
X186791347Y-72569943D01*
X186808414Y-72611147D01*
X186810035Y-72615266D01*
X186847544Y-72715833D01*
X186848781Y-72719307D01*
X186881571Y-72815902D01*
X186884300Y-72825094D01*
X186898643Y-72881287D01*
X186899661Y-72885596D01*
X186921607Y-72986479D01*
X186922058Y-72988645D01*
X186935551Y-73056477D01*
X186935964Y-73058652D01*
X186941326Y-73088371D01*
X186942586Y-73097137D01*
X186949508Y-73161541D01*
X186949902Y-73165950D01*
X186959057Y-73294010D01*
X186959107Y-73294741D01*
X186963643Y-73363942D01*
X186963732Y-73365426D01*
X186964235Y-73374824D01*
X186964392Y-73379222D01*
X186964470Y-73383560D01*
X186964490Y-73385789D01*
X186964490Y-104368208D01*
X186964470Y-104370445D01*
X186964392Y-104374767D01*
X186964234Y-104379168D01*
X186963770Y-104387823D01*
X186963682Y-104389296D01*
X186959025Y-104460341D01*
X186958975Y-104461075D01*
X186949893Y-104588068D01*
X186949499Y-104592477D01*
X186942577Y-104656867D01*
X186941316Y-104665633D01*
X186935966Y-104695281D01*
X186935554Y-104697452D01*
X186922055Y-104765317D01*
X186921605Y-104767483D01*
X186908026Y-104829906D01*
X186899649Y-104868418D01*
X186898633Y-104872716D01*
X186884291Y-104928903D01*
X186881562Y-104938094D01*
X186848776Y-105034676D01*
X186847539Y-105038150D01*
X186810020Y-105138744D01*
X186808398Y-105142865D01*
X186791338Y-105184050D01*
X186787990Y-105191440D01*
X186740544Y-105287650D01*
X186738164Y-105292233D01*
X186682851Y-105393532D01*
X186680660Y-105397379D01*
X186665232Y-105423381D01*
X186661694Y-105428997D01*
X186599381Y-105522256D01*
X186595545Y-105527676D01*
X186520691Y-105627670D01*
X186517969Y-105631175D01*
X186509182Y-105642077D01*
X186505865Y-105646021D01*
X186427862Y-105734966D01*
X186422316Y-105740888D01*
X186328894Y-105834311D01*
X186322971Y-105839858D01*
X186233998Y-105917886D01*
X186230047Y-105921208D01*
X186219193Y-105929955D01*
X186215695Y-105932673D01*
X186115659Y-106007558D01*
X186110238Y-106011393D01*
X186016983Y-106073702D01*
X186011370Y-106077239D01*
X185985394Y-106092652D01*
X185981544Y-106094845D01*
X185880228Y-106150167D01*
X185875645Y-106152546D01*
X185779433Y-106199992D01*
X185772046Y-106203340D01*
X185730858Y-106220402D01*
X185726735Y-106222024D01*
X185626159Y-106259536D01*
X185622683Y-106260774D01*
X185526072Y-106293568D01*
X185516884Y-106296296D01*
X185470905Y-106308032D01*
X185460706Y-106310635D01*
X185456408Y-106311651D01*
X185355484Y-106333604D01*
X185353317Y-106334055D01*
X185285367Y-106347570D01*
X185283202Y-106347981D01*
X185260206Y-106352131D01*
X185253605Y-106353322D01*
X185244847Y-106354581D01*
X185180511Y-106361499D01*
X185176103Y-106361894D01*
X185050230Y-106370900D01*
X185049489Y-106370951D01*
X184976546Y-106375731D01*
X184975082Y-106375818D01*
X184967162Y-106376243D01*
X184962759Y-106376401D01*
X184960576Y-106376440D01*
X184958337Y-106376480D01*
X184956147Y-106376500D01*
X169230553Y-106376500D01*
X169163514Y-106356815D01*
X169117759Y-106304011D01*
X169107815Y-106234853D01*
X169136840Y-106171297D01*
X169195618Y-106133523D01*
X169212071Y-106129885D01*
X169281527Y-106119415D01*
X169427615Y-106097396D01*
X169678323Y-106020063D01*
X169883625Y-105921195D01*
X169914696Y-105906232D01*
X169914696Y-105906231D01*
X169914704Y-105906228D01*
X170131479Y-105758433D01*
X170323805Y-105579981D01*
X170487386Y-105374857D01*
X170618568Y-105147643D01*
X170714420Y-104903416D01*
X170772802Y-104647630D01*
X170776935Y-104592477D01*
X170792408Y-104386004D01*
X170792408Y-104385995D01*
X170791734Y-104377000D01*
X179859775Y-104377000D01*
X179878592Y-104580082D01*
X179934407Y-104776247D01*
X179934412Y-104776260D01*
X180025317Y-104958821D01*
X180148227Y-105121581D01*
X180298948Y-105258980D01*
X180298950Y-105258982D01*
X180370680Y-105303395D01*
X180472353Y-105366348D01*
X180662534Y-105440024D01*
X180863014Y-105477500D01*
X180863016Y-105477500D01*
X181066964Y-105477500D01*
X181066966Y-105477500D01*
X181267446Y-105440024D01*
X181457627Y-105366348D01*
X181631031Y-105258981D01*
X181774319Y-105128357D01*
X181781752Y-105121581D01*
X181784662Y-105117728D01*
X181904663Y-104958821D01*
X181995572Y-104776250D01*
X182051387Y-104580083D01*
X182070205Y-104377000D01*
X182066755Y-104339773D01*
X182051387Y-104173917D01*
X182037292Y-104124379D01*
X181995572Y-103977750D01*
X181904663Y-103795179D01*
X181827050Y-103692403D01*
X181781752Y-103632418D01*
X181631031Y-103495019D01*
X181631029Y-103495017D01*
X181457632Y-103387655D01*
X181457625Y-103387651D01*
X181362536Y-103350814D01*
X181267446Y-103313976D01*
X181066966Y-103276500D01*
X180863014Y-103276500D01*
X180662534Y-103313976D01*
X180662531Y-103313976D01*
X180662531Y-103313977D01*
X180472354Y-103387651D01*
X180472347Y-103387655D01*
X180298950Y-103495017D01*
X180298948Y-103495019D01*
X180148227Y-103632418D01*
X180025317Y-103795178D01*
X179934412Y-103977739D01*
X179934407Y-103977752D01*
X179878592Y-104173917D01*
X179859775Y-104376999D01*
X179859775Y-104377000D01*
X170791734Y-104377000D01*
X170772803Y-104124379D01*
X170772802Y-104124374D01*
X170772802Y-104124370D01*
X170714420Y-103868584D01*
X170618568Y-103624357D01*
X170487386Y-103397143D01*
X170323805Y-103192019D01*
X170323804Y-103192018D01*
X170323801Y-103192014D01*
X170131479Y-103013567D01*
X170081358Y-102979395D01*
X169914704Y-102865772D01*
X169914700Y-102865770D01*
X169914697Y-102865768D01*
X169914696Y-102865767D01*
X169678325Y-102751938D01*
X169678327Y-102751938D01*
X169427619Y-102674605D01*
X169427617Y-102674604D01*
X169427615Y-102674604D01*
X169276552Y-102651834D01*
X169274412Y-102651492D01*
X169041184Y-102612157D01*
X169029949Y-102609722D01*
X168838900Y-102558935D01*
X168820362Y-102552394D01*
X168653359Y-102478110D01*
X168634565Y-102467715D01*
X168439526Y-102336560D01*
X168425799Y-102325857D01*
X168399832Y-102302500D01*
X168155971Y-102083148D01*
X168148776Y-102077183D01*
X168120199Y-102053492D01*
X168120526Y-102053097D01*
X168111575Y-102045655D01*
X166276567Y-100210647D01*
X166274374Y-100208398D01*
X166214061Y-100144949D01*
X166214060Y-100144948D01*
X166214059Y-100144947D01*
X166165640Y-100111246D01*
X166158120Y-100105575D01*
X166112413Y-100068305D01*
X166112406Y-100068301D01*
X166085441Y-100054216D01*
X166072026Y-100046089D01*
X166047049Y-100028705D01*
X166047046Y-100028703D01*
X166047045Y-100028703D01*
X166047041Y-100028701D01*
X165992845Y-100005443D01*
X165984336Y-100001402D01*
X165932057Y-99974094D01*
X165932046Y-99974090D01*
X165902806Y-99965723D01*
X165888021Y-99960459D01*
X165860058Y-99948459D01*
X165802273Y-99936583D01*
X165793127Y-99934338D01*
X165736423Y-99918113D01*
X165712699Y-99916306D01*
X165706072Y-99915801D01*
X165690533Y-99913622D01*
X165660742Y-99907500D01*
X165660741Y-99907500D01*
X165601759Y-99907500D01*
X165592344Y-99907142D01*
X165589643Y-99906936D01*
X165533524Y-99902662D01*
X165503349Y-99906506D01*
X165487682Y-99907500D01*
X160371783Y-99907500D01*
X160304744Y-99887815D01*
X160284102Y-99871181D01*
X157090833Y-96677913D01*
X157079595Y-96664121D01*
X157079250Y-96664386D01*
X157076559Y-96660872D01*
X157076557Y-96660868D01*
X156904037Y-96435567D01*
X156901186Y-96431687D01*
X156799939Y-96288050D01*
X156728461Y-96186645D01*
X156725988Y-96183001D01*
X156551338Y-95915540D01*
X156549220Y-95912180D01*
X156545582Y-95906199D01*
X156372916Y-95622311D01*
X156371112Y-95619245D01*
X156266733Y-95435865D01*
X156250499Y-95374525D01*
X156250499Y-95126998D01*
X156250498Y-95126981D01*
X156239999Y-95024203D01*
X156239998Y-95024200D01*
X156184814Y-94857666D01*
X156092712Y-94708344D01*
X155968656Y-94584288D01*
X155875888Y-94527069D01*
X155819336Y-94492187D01*
X155819331Y-94492185D01*
X155817862Y-94491698D01*
X155652797Y-94437001D01*
X155652795Y-94437000D01*
X155550010Y-94426500D01*
X154249998Y-94426500D01*
X154249981Y-94426501D01*
X154147203Y-94437000D01*
X154147200Y-94437001D01*
X153980668Y-94492185D01*
X153980663Y-94492187D01*
X153831342Y-94584289D01*
X153707289Y-94708342D01*
X153611821Y-94863121D01*
X153559873Y-94909845D01*
X153490910Y-94921068D01*
X153426828Y-94893224D01*
X153418601Y-94885705D01*
X153271402Y-94738506D01*
X153271395Y-94738501D01*
X153262343Y-94732163D01*
X153152144Y-94655000D01*
X153077834Y-94602967D01*
X153077830Y-94602965D01*
X153029654Y-94580500D01*
X152863663Y-94503097D01*
X152863659Y-94503096D01*
X152863655Y-94503094D01*
X152635413Y-94441938D01*
X152635403Y-94441936D01*
X152400001Y-94421341D01*
X152399999Y-94421341D01*
X152164596Y-94441936D01*
X152164586Y-94441938D01*
X151936344Y-94503094D01*
X151936335Y-94503098D01*
X151722171Y-94602964D01*
X151722169Y-94602965D01*
X151528597Y-94738505D01*
X151361505Y-94905597D01*
X151251575Y-95062595D01*
X151196998Y-95106220D01*
X151127500Y-95113414D01*
X151065145Y-95081891D01*
X151048425Y-95062595D01*
X150938494Y-94905597D01*
X150771402Y-94738506D01*
X150771395Y-94738501D01*
X150762343Y-94732163D01*
X150652144Y-94655000D01*
X150577834Y-94602967D01*
X150577830Y-94602965D01*
X150529654Y-94580500D01*
X150363663Y-94503097D01*
X150363659Y-94503096D01*
X150363655Y-94503094D01*
X150135413Y-94441938D01*
X150135403Y-94441936D01*
X149900001Y-94421341D01*
X149899999Y-94421341D01*
X149664596Y-94441936D01*
X149664586Y-94441938D01*
X149436344Y-94503094D01*
X149436335Y-94503098D01*
X149222171Y-94602964D01*
X149222169Y-94602965D01*
X149028597Y-94738505D01*
X148861505Y-94905597D01*
X148725965Y-95099169D01*
X148725964Y-95099171D01*
X148626098Y-95313335D01*
X148626094Y-95313344D01*
X148564938Y-95541586D01*
X148564936Y-95541596D01*
X148549500Y-95718032D01*
X148549500Y-96085967D01*
X148564936Y-96262403D01*
X148564938Y-96262413D01*
X148626094Y-96490655D01*
X148626096Y-96490660D01*
X148626097Y-96490663D01*
X148647113Y-96535732D01*
X148656703Y-96556298D01*
X148661577Y-96568368D01*
X148670038Y-96592966D01*
X148670038Y-96592967D01*
X148710256Y-96671353D01*
X148712311Y-96675550D01*
X148725964Y-96704827D01*
X148726583Y-96705711D01*
X148735335Y-96720231D01*
X148804418Y-96854877D01*
X148805991Y-96858053D01*
X148887408Y-97028642D01*
X148899500Y-97082051D01*
X148899500Y-97307721D01*
X148899460Y-97310861D01*
X148897243Y-97398362D01*
X148897243Y-97398371D01*
X148907648Y-97456420D01*
X148908956Y-97465748D01*
X148914925Y-97524430D01*
X148914927Y-97524444D01*
X148924033Y-97553468D01*
X148927772Y-97568701D01*
X148933142Y-97598653D01*
X148933142Y-97598655D01*
X148955020Y-97653424D01*
X148958177Y-97662292D01*
X148975841Y-97718588D01*
X148975842Y-97718589D01*
X148975844Y-97718595D01*
X148990603Y-97745185D01*
X148997336Y-97759361D01*
X149008622Y-97787614D01*
X149008627Y-97787624D01*
X149041080Y-97836866D01*
X149045962Y-97844923D01*
X149074588Y-97896498D01*
X149074589Y-97896500D01*
X149079433Y-97902142D01*
X149094410Y-97919588D01*
X149103855Y-97932115D01*
X149120599Y-97957521D01*
X149162299Y-97999220D01*
X149168704Y-98006131D01*
X149201092Y-98043857D01*
X149207134Y-98050895D01*
X149231187Y-98069513D01*
X149242968Y-98079889D01*
X149842898Y-98679819D01*
X149876383Y-98741142D01*
X149871399Y-98810834D01*
X149829527Y-98866767D01*
X149764063Y-98891184D01*
X149755217Y-98891500D01*
X140152237Y-98891500D01*
X140149097Y-98891460D01*
X140112912Y-98890543D01*
X140061636Y-98889244D01*
X140061635Y-98889244D01*
X140061626Y-98889244D01*
X140003582Y-98899648D01*
X139994253Y-98900957D01*
X139935564Y-98906925D01*
X139906527Y-98916035D01*
X139891288Y-98919775D01*
X139861349Y-98925141D01*
X139806567Y-98947022D01*
X139797698Y-98950179D01*
X139741414Y-98967840D01*
X139741410Y-98967842D01*
X139714811Y-98982605D01*
X139700638Y-98989336D01*
X139672382Y-99000623D01*
X139672378Y-99000625D01*
X139623122Y-99033086D01*
X139615069Y-99037965D01*
X139563501Y-99066588D01*
X139540413Y-99086408D01*
X139527887Y-99095852D01*
X139502485Y-99112594D01*
X139502478Y-99112600D01*
X139460774Y-99154303D01*
X139453869Y-99160703D01*
X139409102Y-99199136D01*
X139390480Y-99223193D01*
X139380108Y-99234969D01*
X136546501Y-102068577D01*
X136527787Y-102083947D01*
X136517035Y-102091142D01*
X136517025Y-102091150D01*
X136247198Y-102333855D01*
X136233467Y-102344562D01*
X136038436Y-102475711D01*
X136019637Y-102486109D01*
X135852631Y-102560394D01*
X135834093Y-102566935D01*
X135643039Y-102617724D01*
X135631805Y-102620159D01*
X135398655Y-102659482D01*
X135396514Y-102659824D01*
X135310930Y-102672724D01*
X135245385Y-102682604D01*
X135245383Y-102682604D01*
X135245380Y-102682605D01*
X134994673Y-102759938D01*
X134758303Y-102873767D01*
X134758302Y-102873768D01*
X134541520Y-103021567D01*
X134349198Y-103200014D01*
X134185614Y-103405143D01*
X134054432Y-103632356D01*
X133958582Y-103876578D01*
X133958576Y-103876597D01*
X133900197Y-104132374D01*
X133900196Y-104132379D01*
X133880592Y-104393995D01*
X133880592Y-104394004D01*
X133900196Y-104655620D01*
X133900197Y-104655625D01*
X133958576Y-104911402D01*
X133958577Y-104911404D01*
X133958580Y-104911416D01*
X134054432Y-105155643D01*
X134185614Y-105382857D01*
X134296781Y-105522256D01*
X134349198Y-105587985D01*
X134507620Y-105734978D01*
X134541521Y-105766433D01*
X134758296Y-105914228D01*
X134758301Y-105914230D01*
X134758302Y-105914231D01*
X134758303Y-105914232D01*
X134860224Y-105963314D01*
X134994673Y-106028061D01*
X134994674Y-106028061D01*
X134994677Y-106028063D01*
X135245385Y-106105396D01*
X135381227Y-106125871D01*
X135407855Y-106129885D01*
X135471212Y-106159342D01*
X135508585Y-106218376D01*
X135508110Y-106288244D01*
X135469936Y-106346764D01*
X135406184Y-106375355D01*
X135389373Y-106376500D01*
X119775801Y-106376500D01*
X119773608Y-106376480D01*
X119771381Y-106376440D01*
X119769238Y-106376402D01*
X119764835Y-106376244D01*
X119756196Y-106375781D01*
X119754723Y-106375694D01*
X119683680Y-106371038D01*
X119682943Y-106370987D01*
X119555940Y-106361904D01*
X119551533Y-106361510D01*
X119487138Y-106354588D01*
X119478372Y-106353327D01*
X119448761Y-106347984D01*
X119446591Y-106347573D01*
X119378656Y-106334061D01*
X119376488Y-106333609D01*
X119275606Y-106311664D01*
X119271296Y-106310646D01*
X119215095Y-106296301D01*
X119205911Y-106293575D01*
X119109320Y-106260787D01*
X119105881Y-106259562D01*
X119005263Y-106222034D01*
X119001143Y-106220413D01*
X118959947Y-106203349D01*
X118952556Y-106200000D01*
X118856370Y-106152566D01*
X118851789Y-106150187D01*
X118750425Y-106094840D01*
X118746615Y-106092670D01*
X118720627Y-106077251D01*
X118715024Y-106073721D01*
X118670421Y-106043919D01*
X118621721Y-106011379D01*
X118616345Y-106007574D01*
X118516288Y-105932673D01*
X118512822Y-105929980D01*
X118510083Y-105927773D01*
X118501920Y-105921195D01*
X118498015Y-105917912D01*
X118409034Y-105839878D01*
X118403112Y-105834332D01*
X118309680Y-105740901D01*
X118304133Y-105734978D01*
X118304122Y-105734966D01*
X118226109Y-105646009D01*
X118222803Y-105642077D01*
X118214015Y-105631172D01*
X118211328Y-105627712D01*
X118173505Y-105577188D01*
X118136446Y-105527684D01*
X118132616Y-105522270D01*
X118070288Y-105428989D01*
X118066763Y-105423397D01*
X118051326Y-105397379D01*
X118049154Y-105393564D01*
X118041242Y-105379074D01*
X117993800Y-105292191D01*
X117991443Y-105287650D01*
X117943984Y-105191413D01*
X117940662Y-105184083D01*
X117923568Y-105142815D01*
X117921986Y-105138792D01*
X117884453Y-105038163D01*
X117883217Y-105034690D01*
X117850427Y-104938093D01*
X117847698Y-104928902D01*
X117833359Y-104872725D01*
X117832341Y-104868418D01*
X117832338Y-104868405D01*
X117810357Y-104767363D01*
X117809969Y-104765498D01*
X117796409Y-104697329D01*
X117796067Y-104695527D01*
X117790667Y-104665592D01*
X117789414Y-104656871D01*
X117789280Y-104655627D01*
X117782491Y-104592458D01*
X117782097Y-104588049D01*
X117781527Y-104580082D01*
X117772923Y-104459726D01*
X117772874Y-104459003D01*
X117768355Y-104390064D01*
X117768282Y-104388844D01*
X117767764Y-104379161D01*
X117767687Y-104377000D01*
X122661795Y-104377000D01*
X122680612Y-104580082D01*
X122736427Y-104776247D01*
X122736432Y-104776260D01*
X122827337Y-104958821D01*
X122950247Y-105121581D01*
X123100968Y-105258980D01*
X123100970Y-105258982D01*
X123172700Y-105303395D01*
X123274373Y-105366348D01*
X123464554Y-105440024D01*
X123665034Y-105477500D01*
X123665036Y-105477500D01*
X123868984Y-105477500D01*
X123868986Y-105477500D01*
X124069466Y-105440024D01*
X124259647Y-105366348D01*
X124433051Y-105258981D01*
X124576339Y-105128357D01*
X124583772Y-105121581D01*
X124586682Y-105117728D01*
X124706683Y-104958821D01*
X124797592Y-104776250D01*
X124853407Y-104580083D01*
X124872225Y-104377000D01*
X124868775Y-104339773D01*
X124853407Y-104173917D01*
X124839312Y-104124379D01*
X124797592Y-103977750D01*
X124706683Y-103795179D01*
X124629070Y-103692403D01*
X124583772Y-103632418D01*
X124433051Y-103495019D01*
X124433049Y-103495017D01*
X124259652Y-103387655D01*
X124259645Y-103387651D01*
X124164556Y-103350814D01*
X124069466Y-103313976D01*
X123868986Y-103276500D01*
X123665034Y-103276500D01*
X123464554Y-103313976D01*
X123464551Y-103313976D01*
X123464551Y-103313977D01*
X123274374Y-103387651D01*
X123274367Y-103387655D01*
X123100970Y-103495017D01*
X123100968Y-103495019D01*
X122950247Y-103632418D01*
X122827337Y-103795178D01*
X122736432Y-103977739D01*
X122736427Y-103977752D01*
X122680612Y-104173917D01*
X122661795Y-104376999D01*
X122661795Y-104377000D01*
X117767687Y-104377000D01*
X117767607Y-104374744D01*
X117767530Y-104370416D01*
X117767510Y-104368210D01*
X117767510Y-86145000D01*
X119691357Y-86145000D01*
X119711884Y-86366535D01*
X119711885Y-86366537D01*
X119772769Y-86580523D01*
X119772775Y-86580538D01*
X119871938Y-86779683D01*
X119871943Y-86779691D01*
X120006020Y-86957238D01*
X120170437Y-87107123D01*
X120170439Y-87107125D01*
X120359595Y-87224245D01*
X120359596Y-87224245D01*
X120359599Y-87224247D01*
X120567060Y-87304618D01*
X120785757Y-87345500D01*
X120785759Y-87345500D01*
X121008241Y-87345500D01*
X121008243Y-87345500D01*
X121226940Y-87304618D01*
X121434401Y-87224247D01*
X121623562Y-87107124D01*
X121787981Y-86957236D01*
X121922058Y-86779689D01*
X122021229Y-86580528D01*
X122082115Y-86366536D01*
X122102643Y-86145000D01*
X122082115Y-85923464D01*
X122021229Y-85709472D01*
X122021224Y-85709461D01*
X121922061Y-85510316D01*
X121922056Y-85510308D01*
X121787979Y-85332761D01*
X121623562Y-85182876D01*
X121623560Y-85182874D01*
X121434404Y-85065754D01*
X121434398Y-85065752D01*
X121226940Y-84985382D01*
X121008243Y-84944500D01*
X120785757Y-84944500D01*
X120567060Y-84985382D01*
X120460267Y-85026754D01*
X120359601Y-85065752D01*
X120359595Y-85065754D01*
X120170439Y-85182874D01*
X120170437Y-85182876D01*
X120006020Y-85332761D01*
X119871943Y-85510308D01*
X119871938Y-85510316D01*
X119772775Y-85709461D01*
X119772769Y-85709476D01*
X119711885Y-85923462D01*
X119711884Y-85923464D01*
X119691357Y-86144999D01*
X119691357Y-86145000D01*
X117767510Y-86145000D01*
X117767510Y-75145000D01*
X119691357Y-75145000D01*
X119711884Y-75366535D01*
X119711885Y-75366537D01*
X119772769Y-75580523D01*
X119772775Y-75580538D01*
X119871938Y-75779683D01*
X119871943Y-75779691D01*
X120006020Y-75957238D01*
X120170437Y-76107123D01*
X120170439Y-76107125D01*
X120359595Y-76224245D01*
X120359596Y-76224245D01*
X120359599Y-76224247D01*
X120567060Y-76304618D01*
X120785757Y-76345500D01*
X120785759Y-76345500D01*
X121008241Y-76345500D01*
X121008243Y-76345500D01*
X121226940Y-76304618D01*
X121434401Y-76224247D01*
X121623562Y-76107124D01*
X121787981Y-75957236D01*
X121922058Y-75779689D01*
X122021229Y-75580528D01*
X122082115Y-75366536D01*
X122102643Y-75145000D01*
X122092837Y-75039180D01*
X122082115Y-74923464D01*
X122082114Y-74923462D01*
X122073894Y-74894573D01*
X122021229Y-74709472D01*
X122021224Y-74709461D01*
X121922061Y-74510316D01*
X121922056Y-74510308D01*
X121787979Y-74332761D01*
X121623562Y-74182876D01*
X121623560Y-74182874D01*
X121434404Y-74065754D01*
X121434398Y-74065752D01*
X121226940Y-73985382D01*
X121008243Y-73944500D01*
X120785757Y-73944500D01*
X120567060Y-73985382D01*
X120460267Y-74026754D01*
X120359601Y-74065752D01*
X120359595Y-74065754D01*
X120170439Y-74182874D01*
X120170437Y-74182876D01*
X120006020Y-74332761D01*
X119871943Y-74510308D01*
X119871938Y-74510316D01*
X119772775Y-74709461D01*
X119772769Y-74709476D01*
X119711885Y-74923462D01*
X119711884Y-74923464D01*
X119691357Y-75144999D01*
X119691357Y-75145000D01*
X117767510Y-75145000D01*
X117767510Y-73385791D01*
X117767528Y-73383673D01*
X117767608Y-73379177D01*
X117767686Y-73377000D01*
X122661795Y-73377000D01*
X122680612Y-73580082D01*
X122736427Y-73776247D01*
X122736432Y-73776260D01*
X122827337Y-73958821D01*
X122950247Y-74121581D01*
X123100968Y-74258980D01*
X123100970Y-74258982D01*
X123200151Y-74320392D01*
X123274373Y-74366348D01*
X123464554Y-74440024D01*
X123665034Y-74477500D01*
X123665036Y-74477500D01*
X123868984Y-74477500D01*
X123868986Y-74477500D01*
X124069466Y-74440024D01*
X124259647Y-74366348D01*
X124433051Y-74258981D01*
X124583774Y-74121579D01*
X124706683Y-73958821D01*
X124797592Y-73776250D01*
X124853407Y-73580083D01*
X124872225Y-73377000D01*
X124853407Y-73173917D01*
X124797592Y-72977750D01*
X124797371Y-72977307D01*
X124738706Y-72859490D01*
X124706683Y-72795179D01*
X124583774Y-72632421D01*
X124583772Y-72632418D01*
X124433051Y-72495019D01*
X124433049Y-72495017D01*
X124259652Y-72387655D01*
X124259645Y-72387651D01*
X124135932Y-72339725D01*
X124069466Y-72313976D01*
X123868986Y-72276500D01*
X123665034Y-72276500D01*
X123464554Y-72313976D01*
X123464551Y-72313976D01*
X123464551Y-72313977D01*
X123274374Y-72387651D01*
X123274367Y-72387655D01*
X123100970Y-72495017D01*
X123100968Y-72495019D01*
X122950247Y-72632418D01*
X122827337Y-72795178D01*
X122736432Y-72977739D01*
X122736427Y-72977752D01*
X122680612Y-73173917D01*
X122661795Y-73376999D01*
X122661795Y-73377000D01*
X117767686Y-73377000D01*
X117767761Y-73374889D01*
X117768240Y-73365947D01*
X117768313Y-73364746D01*
X117772972Y-73293670D01*
X117773010Y-73293109D01*
X117782108Y-73165903D01*
X117782498Y-73161541D01*
X117789422Y-73097127D01*
X117790682Y-73088374D01*
X117794417Y-73067671D01*
X117796048Y-73058631D01*
X117796408Y-73056726D01*
X117809990Y-72988444D01*
X117810353Y-72986702D01*
X117832353Y-72885570D01*
X117833366Y-72881287D01*
X117847717Y-72825059D01*
X117850425Y-72815938D01*
X117883247Y-72719249D01*
X117884439Y-72715903D01*
X117921985Y-72615238D01*
X117923600Y-72611136D01*
X117940668Y-72569929D01*
X117943990Y-72562597D01*
X117991492Y-72466273D01*
X117993782Y-72461863D01*
X118049191Y-72360387D01*
X118051338Y-72356618D01*
X118066779Y-72330594D01*
X118070289Y-72325026D01*
X118132629Y-72231728D01*
X118136422Y-72226365D01*
X118211356Y-72126265D01*
X118214013Y-72122846D01*
X118222840Y-72111892D01*
X118226087Y-72108030D01*
X118304165Y-72019000D01*
X118309653Y-72013140D01*
X118403136Y-71919656D01*
X118408994Y-71914170D01*
X118498033Y-71836084D01*
X118501914Y-71832822D01*
X118512841Y-71824016D01*
X118516283Y-71821342D01*
X118616374Y-71746415D01*
X118621718Y-71742635D01*
X118715026Y-71680289D01*
X118720620Y-71676765D01*
X118725191Y-71674052D01*
X118746614Y-71661341D01*
X118750389Y-71659191D01*
X118851859Y-71603784D01*
X118856282Y-71601487D01*
X118952610Y-71553984D01*
X118959917Y-71550673D01*
X119001193Y-71533576D01*
X119005203Y-71531998D01*
X119105915Y-71494434D01*
X119109239Y-71493250D01*
X119205953Y-71460421D01*
X119215093Y-71457708D01*
X119271316Y-71443358D01*
X119275597Y-71442347D01*
X119376647Y-71420366D01*
X119378491Y-71419981D01*
X119446738Y-71406407D01*
X119448670Y-71406040D01*
X119478417Y-71400673D01*
X119487132Y-71399421D01*
X119551506Y-71392499D01*
X119555874Y-71392107D01*
X119681984Y-71383083D01*
X119682212Y-71383067D01*
X119755567Y-71378259D01*
X119756848Y-71378184D01*
X119764863Y-71377754D01*
X119769242Y-71377598D01*
X119771386Y-71377560D01*
X119773653Y-71377520D01*
X119775853Y-71377500D01*
X132013216Y-71377500D01*
X132080255Y-71397185D01*
G37*
%TD.AperFunction*%
%TA.AperFunction,Conductor*%
G36*
X128565834Y-77490914D02*
G01*
X128621767Y-77532786D01*
X128646184Y-77598250D01*
X128646500Y-77607096D01*
X128646500Y-79942870D01*
X128646501Y-79942876D01*
X128652908Y-80002483D01*
X128703202Y-80137328D01*
X128703206Y-80137335D01*
X128789452Y-80252544D01*
X128789455Y-80252547D01*
X128904664Y-80338793D01*
X128904671Y-80338797D01*
X129039517Y-80389091D01*
X129039516Y-80389091D01*
X129046444Y-80389835D01*
X129099127Y-80395500D01*
X132694872Y-80395499D01*
X132754483Y-80389091D01*
X132889331Y-80338796D01*
X133004546Y-80252546D01*
X133090796Y-80137331D01*
X133141091Y-80002483D01*
X133147500Y-79942873D01*
X133147499Y-78067889D01*
X133167184Y-78000851D01*
X133183818Y-77980208D01*
X133263209Y-77900818D01*
X133324533Y-77867334D01*
X133350890Y-77864500D01*
X134101136Y-77864500D01*
X134116473Y-77865452D01*
X134139779Y-77868357D01*
X134139779Y-77868356D01*
X134139780Y-77868357D01*
X134230472Y-77864606D01*
X134235596Y-77864500D01*
X134241665Y-77864500D01*
X134242404Y-77864500D01*
X134247528Y-77864606D01*
X134338219Y-77868357D01*
X134338219Y-77868356D01*
X134338221Y-77868357D01*
X134361527Y-77865452D01*
X134376864Y-77864500D01*
X136753933Y-77864500D01*
X136782412Y-77864500D01*
X136787536Y-77864605D01*
X136878221Y-77868357D01*
X136901526Y-77865452D01*
X136916863Y-77864500D01*
X138748933Y-77864500D01*
X143424159Y-77864500D01*
X143491198Y-77884185D01*
X143536953Y-77936989D01*
X143546897Y-78006147D01*
X143517872Y-78069703D01*
X143511840Y-78076181D01*
X133966840Y-87621181D01*
X133905517Y-87654666D01*
X133879159Y-87657500D01*
X128906080Y-87657500D01*
X128894162Y-87656926D01*
X128892551Y-87656770D01*
X128859894Y-87653616D01*
X128850204Y-87654068D01*
X128828251Y-87653141D01*
X128822000Y-87652318D01*
X128821997Y-87652318D01*
X128791179Y-87656375D01*
X128780764Y-87657302D01*
X128553606Y-87667882D01*
X128473139Y-87671630D01*
X128454861Y-87673172D01*
X128435198Y-87674832D01*
X128433488Y-87675042D01*
X128395915Y-87681086D01*
X128118295Y-87736543D01*
X128118277Y-87736547D01*
X128074183Y-87747437D01*
X128074165Y-87747442D01*
X128072165Y-87748032D01*
X128072164Y-87748032D01*
X128028949Y-87762947D01*
X128028920Y-87762957D01*
X127795840Y-87855396D01*
X127777444Y-87863116D01*
X127776612Y-87863485D01*
X127758453Y-87871964D01*
X127503335Y-87997331D01*
X127499660Y-87999062D01*
X127267513Y-88103845D01*
X127198312Y-88113484D01*
X127134885Y-88084179D01*
X127097370Y-88025235D01*
X127092500Y-87990825D01*
X127092500Y-83145000D01*
X128642172Y-83145000D01*
X128661462Y-83439312D01*
X128661464Y-83439324D01*
X128719001Y-83728584D01*
X128719005Y-83728599D01*
X128813812Y-84007888D01*
X128944258Y-84272406D01*
X128944265Y-84272419D01*
X129108123Y-84517649D01*
X129137405Y-84551040D01*
X130071643Y-83616801D01*
X130141889Y-83729499D01*
X130275005Y-83869537D01*
X130423004Y-83972547D01*
X129490958Y-84904593D01*
X129524350Y-84933876D01*
X129769580Y-85097734D01*
X129769593Y-85097741D01*
X130034111Y-85228187D01*
X130313400Y-85322994D01*
X130313415Y-85322998D01*
X130602675Y-85380535D01*
X130602687Y-85380537D01*
X130897000Y-85399827D01*
X131191312Y-85380537D01*
X131191324Y-85380535D01*
X131480584Y-85322998D01*
X131480599Y-85322994D01*
X131759888Y-85228187D01*
X132024406Y-85097741D01*
X132024419Y-85097734D01*
X132269648Y-84933877D01*
X132303039Y-84904593D01*
X131368351Y-83969903D01*
X131442503Y-83928746D01*
X131589104Y-83802894D01*
X131707370Y-83650107D01*
X131723262Y-83617708D01*
X132656593Y-84551039D01*
X132685877Y-84517648D01*
X132849734Y-84272419D01*
X132849741Y-84272406D01*
X132980187Y-84007888D01*
X133074994Y-83728599D01*
X133074998Y-83728584D01*
X133132535Y-83439324D01*
X133132537Y-83439312D01*
X133151827Y-83145000D01*
X133132537Y-82850687D01*
X133132535Y-82850675D01*
X133074998Y-82561415D01*
X133074994Y-82561400D01*
X132980187Y-82282111D01*
X132849741Y-82017593D01*
X132849734Y-82017580D01*
X132685876Y-81772350D01*
X132656593Y-81738958D01*
X131722355Y-82673196D01*
X131652111Y-82560501D01*
X131518995Y-82420463D01*
X131370994Y-82317451D01*
X132303040Y-81385405D01*
X132269649Y-81356123D01*
X132024419Y-81192265D01*
X132024406Y-81192258D01*
X131759888Y-81061812D01*
X131480599Y-80967005D01*
X131480584Y-80967001D01*
X131191324Y-80909464D01*
X131191312Y-80909462D01*
X130897000Y-80890172D01*
X130602687Y-80909462D01*
X130602675Y-80909464D01*
X130313415Y-80967001D01*
X130313400Y-80967005D01*
X130034111Y-81061812D01*
X129769593Y-81192258D01*
X129769580Y-81192265D01*
X129524346Y-81356126D01*
X129524339Y-81356131D01*
X129490959Y-81385403D01*
X129490959Y-81385405D01*
X130425649Y-82320095D01*
X130351497Y-82361254D01*
X130204896Y-82487106D01*
X130086630Y-82639893D01*
X130070737Y-82672291D01*
X129137405Y-81738959D01*
X129137403Y-81738959D01*
X129108131Y-81772339D01*
X129108126Y-81772346D01*
X128944265Y-82017580D01*
X128944258Y-82017593D01*
X128813812Y-82282111D01*
X128719005Y-82561400D01*
X128719001Y-82561415D01*
X128661464Y-82850675D01*
X128661462Y-82850687D01*
X128642172Y-83145000D01*
X127092500Y-83145000D01*
X127092500Y-78913096D01*
X127112185Y-78846057D01*
X127128814Y-78825420D01*
X128434819Y-77519414D01*
X128496142Y-77485930D01*
X128565834Y-77490914D01*
G37*
%TD.AperFunction*%
%TA.AperFunction,Conductor*%
G36*
X136888471Y-72984185D02*
G01*
X136934226Y-73036989D01*
X136944170Y-73106147D01*
X136941767Y-73118426D01*
X136928897Y-73170173D01*
X136926000Y-73212903D01*
X136926000Y-73664000D01*
X138302000Y-73664000D01*
X138369039Y-73683685D01*
X138414794Y-73736489D01*
X138426000Y-73788000D01*
X138426000Y-74040000D01*
X138406315Y-74107039D01*
X138353511Y-74152794D01*
X138302000Y-74164000D01*
X136926000Y-74164000D01*
X136919695Y-74170305D01*
X136858372Y-74203790D01*
X136788680Y-74198806D01*
X136744333Y-74170305D01*
X136090213Y-73516185D01*
X136057003Y-73456095D01*
X136043424Y-73396600D01*
X136043422Y-73396596D01*
X136043420Y-73396584D01*
X135952903Y-73165950D01*
X135947569Y-73152359D01*
X135946496Y-73150501D01*
X135946314Y-73149754D01*
X135945553Y-73148172D01*
X135945891Y-73148009D01*
X135930023Y-73082601D01*
X135952875Y-73016574D01*
X136007796Y-72973383D01*
X136053883Y-72964500D01*
X136821432Y-72964500D01*
X136888471Y-72984185D01*
G37*
%TD.AperFunction*%
%TA.AperFunction,Conductor*%
G36*
X161573571Y-72584185D02*
G01*
X161619326Y-72636989D01*
X161629270Y-72706147D01*
X161603179Y-72766188D01*
X161570389Y-72806978D01*
X161485831Y-72977476D01*
X161439897Y-73162175D01*
X161437000Y-73204903D01*
X161437000Y-73656000D01*
X162813000Y-73656000D01*
X162880039Y-73675685D01*
X162925794Y-73728489D01*
X162937000Y-73780000D01*
X162937000Y-74032000D01*
X162917315Y-74099039D01*
X162864511Y-74144794D01*
X162813000Y-74156000D01*
X161437000Y-74156000D01*
X161430695Y-74162305D01*
X161369372Y-74195790D01*
X161299680Y-74190806D01*
X161255333Y-74162305D01*
X160601213Y-73508185D01*
X160568003Y-73448095D01*
X160554424Y-73388600D01*
X160554422Y-73388596D01*
X160554420Y-73388584D01*
X160458568Y-73144357D01*
X160327386Y-72917143D01*
X160206703Y-72765812D01*
X160180295Y-72701126D01*
X160193052Y-72632431D01*
X160240922Y-72581537D01*
X160303651Y-72564500D01*
X161506532Y-72564500D01*
X161573571Y-72584185D01*
G37*
%TD.AperFunction*%
%TD*%
M02*
