%TF.GenerationSoftware,KiCad,Pcbnew,7.0.11*%
%TF.CreationDate,2025-01-20T01:44:00+09:00*%
%TF.ProjectId,Relay,52656c61-792e-46b6-9963-61645f706362,rev?*%
%TF.SameCoordinates,Original*%
%TF.FileFunction,Drillmap*%
%TF.FilePolarity,Positive*%
%FSLAX45Y45*%
G04 Gerber Fmt 4.5, Leading zero omitted, Abs format (unit mm)*
G04 Created by KiCad (PCBNEW 7.0.11) date 2025-01-20 01:44:00*
%MOMM*%
%LPD*%
G01*
G04 APERTURE LIST*
%ADD10C,0.200000*%
%ADD11C,0.100000*%
G04 APERTURE END LIST*
D10*
X11776701Y-7337700D02*
X11776701Y-10437700D01*
X18696499Y-10437700D02*
X18696499Y-7337700D01*
X11776700Y-10437700D02*
G75*
G03*
X11976701Y-10637700I200000J0D01*
G01*
X18496499Y-7137700D02*
X11976701Y-7137700D01*
X12486701Y-10437700D02*
G75*
G03*
X12266701Y-10437700I-110000J0D01*
G01*
X12266701Y-10437700D02*
G75*
G03*
X12486701Y-10437700I110000J0D01*
G01*
X18496499Y-10637699D02*
G75*
G03*
X18696499Y-10437700I1J199999D01*
G01*
X18206499Y-7337700D02*
G75*
G03*
X17986499Y-7337700I-110000J0D01*
G01*
X17986499Y-7337700D02*
G75*
G03*
X18206499Y-7337700I110000J0D01*
G01*
X12486701Y-7337700D02*
G75*
G03*
X12266701Y-7337700I-110000J0D01*
G01*
X12266701Y-7337700D02*
G75*
G03*
X12486701Y-7337700I110000J0D01*
G01*
X18206499Y-10437700D02*
G75*
G03*
X17986499Y-10437700I-110000J0D01*
G01*
X17986499Y-10437700D02*
G75*
G03*
X18206499Y-10437700I110000J0D01*
G01*
X11976701Y-10637700D02*
X18496499Y-10637700D01*
X18696500Y-7337700D02*
G75*
G03*
X18496499Y-7137700I-200000J0D01*
G01*
X11976701Y-7137701D02*
G75*
G03*
X11776701Y-7337700I-1J-199999D01*
G01*
D11*
X15586000Y-8226000D02*
X15644000Y-8284000D01*
X15644000Y-8226000D02*
X15586000Y-8284000D01*
X15594000Y-8284000D02*
X15636000Y-8284000D01*
X15636000Y-8284000D02*
G75*
G03*
X15636000Y-8226000I0J29000D01*
G01*
X15636000Y-8226000D02*
X15594000Y-8226000D01*
X15594000Y-8226000D02*
G75*
G03*
X15594000Y-8284000I0J-29000D01*
G01*
X14898000Y-8255000D02*
G75*
G03*
X14832000Y-8255000I-33000J0D01*
G01*
X14832000Y-8255000D02*
G75*
G03*
X14898000Y-8255000I33000J0D01*
G01*
D10*
X12027478Y-10959184D02*
X12027478Y-10759184D01*
X12027478Y-10759184D02*
X12075097Y-10759184D01*
X12075097Y-10759184D02*
X12103668Y-10768708D01*
X12103668Y-10768708D02*
X12122716Y-10787755D01*
X12122716Y-10787755D02*
X12132240Y-10806803D01*
X12132240Y-10806803D02*
X12141763Y-10844898D01*
X12141763Y-10844898D02*
X12141763Y-10873470D01*
X12141763Y-10873470D02*
X12132240Y-10911565D01*
X12132240Y-10911565D02*
X12122716Y-10930612D01*
X12122716Y-10930612D02*
X12103668Y-10949660D01*
X12103668Y-10949660D02*
X12075097Y-10959184D01*
X12075097Y-10959184D02*
X12027478Y-10959184D01*
X12227478Y-10959184D02*
X12227478Y-10825850D01*
X12227478Y-10863946D02*
X12237002Y-10844898D01*
X12237002Y-10844898D02*
X12246525Y-10835374D01*
X12246525Y-10835374D02*
X12265573Y-10825850D01*
X12265573Y-10825850D02*
X12284621Y-10825850D01*
X12351287Y-10959184D02*
X12351287Y-10825850D01*
X12351287Y-10759184D02*
X12341763Y-10768708D01*
X12341763Y-10768708D02*
X12351287Y-10778231D01*
X12351287Y-10778231D02*
X12360811Y-10768708D01*
X12360811Y-10768708D02*
X12351287Y-10759184D01*
X12351287Y-10759184D02*
X12351287Y-10778231D01*
X12475097Y-10959184D02*
X12456049Y-10949660D01*
X12456049Y-10949660D02*
X12446525Y-10930612D01*
X12446525Y-10930612D02*
X12446525Y-10759184D01*
X12579859Y-10959184D02*
X12560811Y-10949660D01*
X12560811Y-10949660D02*
X12551287Y-10930612D01*
X12551287Y-10930612D02*
X12551287Y-10759184D01*
X12808430Y-10959184D02*
X12808430Y-10759184D01*
X12808430Y-10759184D02*
X12875097Y-10902041D01*
X12875097Y-10902041D02*
X12941763Y-10759184D01*
X12941763Y-10759184D02*
X12941763Y-10959184D01*
X13122716Y-10959184D02*
X13122716Y-10854422D01*
X13122716Y-10854422D02*
X13113192Y-10835374D01*
X13113192Y-10835374D02*
X13094144Y-10825850D01*
X13094144Y-10825850D02*
X13056049Y-10825850D01*
X13056049Y-10825850D02*
X13037002Y-10835374D01*
X13122716Y-10949660D02*
X13103668Y-10959184D01*
X13103668Y-10959184D02*
X13056049Y-10959184D01*
X13056049Y-10959184D02*
X13037002Y-10949660D01*
X13037002Y-10949660D02*
X13027478Y-10930612D01*
X13027478Y-10930612D02*
X13027478Y-10911565D01*
X13027478Y-10911565D02*
X13037002Y-10892517D01*
X13037002Y-10892517D02*
X13056049Y-10882993D01*
X13056049Y-10882993D02*
X13103668Y-10882993D01*
X13103668Y-10882993D02*
X13122716Y-10873470D01*
X13217954Y-10825850D02*
X13217954Y-11025850D01*
X13217954Y-10835374D02*
X13237002Y-10825850D01*
X13237002Y-10825850D02*
X13275097Y-10825850D01*
X13275097Y-10825850D02*
X13294144Y-10835374D01*
X13294144Y-10835374D02*
X13303668Y-10844898D01*
X13303668Y-10844898D02*
X13313192Y-10863946D01*
X13313192Y-10863946D02*
X13313192Y-10921089D01*
X13313192Y-10921089D02*
X13303668Y-10940136D01*
X13303668Y-10940136D02*
X13294144Y-10949660D01*
X13294144Y-10949660D02*
X13275097Y-10959184D01*
X13275097Y-10959184D02*
X13237002Y-10959184D01*
X13237002Y-10959184D02*
X13217954Y-10949660D01*
X13398906Y-10940136D02*
X13408430Y-10949660D01*
X13408430Y-10949660D02*
X13398906Y-10959184D01*
X13398906Y-10959184D02*
X13389383Y-10949660D01*
X13389383Y-10949660D02*
X13398906Y-10940136D01*
X13398906Y-10940136D02*
X13398906Y-10959184D01*
X13398906Y-10835374D02*
X13408430Y-10844898D01*
X13408430Y-10844898D02*
X13398906Y-10854422D01*
X13398906Y-10854422D02*
X13389383Y-10844898D01*
X13389383Y-10844898D02*
X13398906Y-10835374D01*
X13398906Y-10835374D02*
X13398906Y-10854422D01*
D11*
X11708701Y-11258700D02*
X11766701Y-11316700D01*
X11766701Y-11258700D02*
X11708701Y-11316700D01*
D10*
X12065573Y-11179184D02*
X12084621Y-11179184D01*
X12084621Y-11179184D02*
X12103668Y-11188708D01*
X12103668Y-11188708D02*
X12113192Y-11198231D01*
X12113192Y-11198231D02*
X12122716Y-11217279D01*
X12122716Y-11217279D02*
X12132240Y-11255374D01*
X12132240Y-11255374D02*
X12132240Y-11302993D01*
X12132240Y-11302993D02*
X12122716Y-11341088D01*
X12122716Y-11341088D02*
X12113192Y-11360136D01*
X12113192Y-11360136D02*
X12103668Y-11369660D01*
X12103668Y-11369660D02*
X12084621Y-11379184D01*
X12084621Y-11379184D02*
X12065573Y-11379184D01*
X12065573Y-11379184D02*
X12046525Y-11369660D01*
X12046525Y-11369660D02*
X12037002Y-11360136D01*
X12037002Y-11360136D02*
X12027478Y-11341088D01*
X12027478Y-11341088D02*
X12017954Y-11302993D01*
X12017954Y-11302993D02*
X12017954Y-11255374D01*
X12017954Y-11255374D02*
X12027478Y-11217279D01*
X12027478Y-11217279D02*
X12037002Y-11198231D01*
X12037002Y-11198231D02*
X12046525Y-11188708D01*
X12046525Y-11188708D02*
X12065573Y-11179184D01*
X12217954Y-11360136D02*
X12227478Y-11369660D01*
X12227478Y-11369660D02*
X12217954Y-11379184D01*
X12217954Y-11379184D02*
X12208430Y-11369660D01*
X12208430Y-11369660D02*
X12217954Y-11360136D01*
X12217954Y-11360136D02*
X12217954Y-11379184D01*
X12408430Y-11179184D02*
X12313192Y-11179184D01*
X12313192Y-11179184D02*
X12303668Y-11274422D01*
X12303668Y-11274422D02*
X12313192Y-11264898D01*
X12313192Y-11264898D02*
X12332240Y-11255374D01*
X12332240Y-11255374D02*
X12379859Y-11255374D01*
X12379859Y-11255374D02*
X12398906Y-11264898D01*
X12398906Y-11264898D02*
X12408430Y-11274422D01*
X12408430Y-11274422D02*
X12417954Y-11293469D01*
X12417954Y-11293469D02*
X12417954Y-11341088D01*
X12417954Y-11341088D02*
X12408430Y-11360136D01*
X12408430Y-11360136D02*
X12398906Y-11369660D01*
X12398906Y-11369660D02*
X12379859Y-11379184D01*
X12379859Y-11379184D02*
X12332240Y-11379184D01*
X12332240Y-11379184D02*
X12313192Y-11369660D01*
X12313192Y-11369660D02*
X12303668Y-11360136D01*
X12532240Y-11264898D02*
X12513192Y-11255374D01*
X12513192Y-11255374D02*
X12503668Y-11245850D01*
X12503668Y-11245850D02*
X12494144Y-11226803D01*
X12494144Y-11226803D02*
X12494144Y-11217279D01*
X12494144Y-11217279D02*
X12503668Y-11198231D01*
X12503668Y-11198231D02*
X12513192Y-11188708D01*
X12513192Y-11188708D02*
X12532240Y-11179184D01*
X12532240Y-11179184D02*
X12570335Y-11179184D01*
X12570335Y-11179184D02*
X12589383Y-11188708D01*
X12589383Y-11188708D02*
X12598906Y-11198231D01*
X12598906Y-11198231D02*
X12608430Y-11217279D01*
X12608430Y-11217279D02*
X12608430Y-11226803D01*
X12608430Y-11226803D02*
X12598906Y-11245850D01*
X12598906Y-11245850D02*
X12589383Y-11255374D01*
X12589383Y-11255374D02*
X12570335Y-11264898D01*
X12570335Y-11264898D02*
X12532240Y-11264898D01*
X12532240Y-11264898D02*
X12513192Y-11274422D01*
X12513192Y-11274422D02*
X12503668Y-11283946D01*
X12503668Y-11283946D02*
X12494144Y-11302993D01*
X12494144Y-11302993D02*
X12494144Y-11341088D01*
X12494144Y-11341088D02*
X12503668Y-11360136D01*
X12503668Y-11360136D02*
X12513192Y-11369660D01*
X12513192Y-11369660D02*
X12532240Y-11379184D01*
X12532240Y-11379184D02*
X12570335Y-11379184D01*
X12570335Y-11379184D02*
X12589383Y-11369660D01*
X12589383Y-11369660D02*
X12598906Y-11360136D01*
X12598906Y-11360136D02*
X12608430Y-11341088D01*
X12608430Y-11341088D02*
X12608430Y-11302993D01*
X12608430Y-11302993D02*
X12598906Y-11283946D01*
X12598906Y-11283946D02*
X12589383Y-11274422D01*
X12589383Y-11274422D02*
X12570335Y-11264898D01*
X12732240Y-11179184D02*
X12751287Y-11179184D01*
X12751287Y-11179184D02*
X12770335Y-11188708D01*
X12770335Y-11188708D02*
X12779859Y-11198231D01*
X12779859Y-11198231D02*
X12789383Y-11217279D01*
X12789383Y-11217279D02*
X12798906Y-11255374D01*
X12798906Y-11255374D02*
X12798906Y-11302993D01*
X12798906Y-11302993D02*
X12789383Y-11341088D01*
X12789383Y-11341088D02*
X12779859Y-11360136D01*
X12779859Y-11360136D02*
X12770335Y-11369660D01*
X12770335Y-11369660D02*
X12751287Y-11379184D01*
X12751287Y-11379184D02*
X12732240Y-11379184D01*
X12732240Y-11379184D02*
X12713192Y-11369660D01*
X12713192Y-11369660D02*
X12703668Y-11360136D01*
X12703668Y-11360136D02*
X12694144Y-11341088D01*
X12694144Y-11341088D02*
X12684621Y-11302993D01*
X12684621Y-11302993D02*
X12684621Y-11255374D01*
X12684621Y-11255374D02*
X12694144Y-11217279D01*
X12694144Y-11217279D02*
X12703668Y-11198231D01*
X12703668Y-11198231D02*
X12713192Y-11188708D01*
X12713192Y-11188708D02*
X12732240Y-11179184D01*
X12884621Y-11379184D02*
X12884621Y-11245850D01*
X12884621Y-11264898D02*
X12894144Y-11255374D01*
X12894144Y-11255374D02*
X12913192Y-11245850D01*
X12913192Y-11245850D02*
X12941764Y-11245850D01*
X12941764Y-11245850D02*
X12960811Y-11255374D01*
X12960811Y-11255374D02*
X12970335Y-11274422D01*
X12970335Y-11274422D02*
X12970335Y-11379184D01*
X12970335Y-11274422D02*
X12979859Y-11255374D01*
X12979859Y-11255374D02*
X12998906Y-11245850D01*
X12998906Y-11245850D02*
X13027478Y-11245850D01*
X13027478Y-11245850D02*
X13046525Y-11255374D01*
X13046525Y-11255374D02*
X13056049Y-11274422D01*
X13056049Y-11274422D02*
X13056049Y-11379184D01*
X13151287Y-11379184D02*
X13151287Y-11245850D01*
X13151287Y-11264898D02*
X13160811Y-11255374D01*
X13160811Y-11255374D02*
X13179859Y-11245850D01*
X13179859Y-11245850D02*
X13208430Y-11245850D01*
X13208430Y-11245850D02*
X13227478Y-11255374D01*
X13227478Y-11255374D02*
X13237002Y-11274422D01*
X13237002Y-11274422D02*
X13237002Y-11379184D01*
X13237002Y-11274422D02*
X13246525Y-11255374D01*
X13246525Y-11255374D02*
X13265573Y-11245850D01*
X13265573Y-11245850D02*
X13294144Y-11245850D01*
X13294144Y-11245850D02*
X13313192Y-11255374D01*
X13313192Y-11255374D02*
X13322716Y-11274422D01*
X13322716Y-11274422D02*
X13322716Y-11379184D01*
X13713192Y-11169660D02*
X13541764Y-11426803D01*
X13970335Y-11179184D02*
X13989383Y-11179184D01*
X13989383Y-11179184D02*
X14008430Y-11188708D01*
X14008430Y-11188708D02*
X14017954Y-11198231D01*
X14017954Y-11198231D02*
X14027478Y-11217279D01*
X14027478Y-11217279D02*
X14037002Y-11255374D01*
X14037002Y-11255374D02*
X14037002Y-11302993D01*
X14037002Y-11302993D02*
X14027478Y-11341088D01*
X14027478Y-11341088D02*
X14017954Y-11360136D01*
X14017954Y-11360136D02*
X14008430Y-11369660D01*
X14008430Y-11369660D02*
X13989383Y-11379184D01*
X13989383Y-11379184D02*
X13970335Y-11379184D01*
X13970335Y-11379184D02*
X13951287Y-11369660D01*
X13951287Y-11369660D02*
X13941764Y-11360136D01*
X13941764Y-11360136D02*
X13932240Y-11341088D01*
X13932240Y-11341088D02*
X13922716Y-11302993D01*
X13922716Y-11302993D02*
X13922716Y-11255374D01*
X13922716Y-11255374D02*
X13932240Y-11217279D01*
X13932240Y-11217279D02*
X13941764Y-11198231D01*
X13941764Y-11198231D02*
X13951287Y-11188708D01*
X13951287Y-11188708D02*
X13970335Y-11179184D01*
X14122716Y-11360136D02*
X14132240Y-11369660D01*
X14132240Y-11369660D02*
X14122716Y-11379184D01*
X14122716Y-11379184D02*
X14113192Y-11369660D01*
X14113192Y-11369660D02*
X14122716Y-11360136D01*
X14122716Y-11360136D02*
X14122716Y-11379184D01*
X14256049Y-11179184D02*
X14275097Y-11179184D01*
X14275097Y-11179184D02*
X14294145Y-11188708D01*
X14294145Y-11188708D02*
X14303668Y-11198231D01*
X14303668Y-11198231D02*
X14313192Y-11217279D01*
X14313192Y-11217279D02*
X14322716Y-11255374D01*
X14322716Y-11255374D02*
X14322716Y-11302993D01*
X14322716Y-11302993D02*
X14313192Y-11341088D01*
X14313192Y-11341088D02*
X14303668Y-11360136D01*
X14303668Y-11360136D02*
X14294145Y-11369660D01*
X14294145Y-11369660D02*
X14275097Y-11379184D01*
X14275097Y-11379184D02*
X14256049Y-11379184D01*
X14256049Y-11379184D02*
X14237002Y-11369660D01*
X14237002Y-11369660D02*
X14227478Y-11360136D01*
X14227478Y-11360136D02*
X14217954Y-11341088D01*
X14217954Y-11341088D02*
X14208430Y-11302993D01*
X14208430Y-11302993D02*
X14208430Y-11255374D01*
X14208430Y-11255374D02*
X14217954Y-11217279D01*
X14217954Y-11217279D02*
X14227478Y-11198231D01*
X14227478Y-11198231D02*
X14237002Y-11188708D01*
X14237002Y-11188708D02*
X14256049Y-11179184D01*
X14398907Y-11198231D02*
X14408430Y-11188708D01*
X14408430Y-11188708D02*
X14427478Y-11179184D01*
X14427478Y-11179184D02*
X14475097Y-11179184D01*
X14475097Y-11179184D02*
X14494145Y-11188708D01*
X14494145Y-11188708D02*
X14503668Y-11198231D01*
X14503668Y-11198231D02*
X14513192Y-11217279D01*
X14513192Y-11217279D02*
X14513192Y-11236327D01*
X14513192Y-11236327D02*
X14503668Y-11264898D01*
X14503668Y-11264898D02*
X14389383Y-11379184D01*
X14389383Y-11379184D02*
X14513192Y-11379184D01*
X14589383Y-11198231D02*
X14598907Y-11188708D01*
X14598907Y-11188708D02*
X14617954Y-11179184D01*
X14617954Y-11179184D02*
X14665573Y-11179184D01*
X14665573Y-11179184D02*
X14684621Y-11188708D01*
X14684621Y-11188708D02*
X14694145Y-11198231D01*
X14694145Y-11198231D02*
X14703668Y-11217279D01*
X14703668Y-11217279D02*
X14703668Y-11236327D01*
X14703668Y-11236327D02*
X14694145Y-11264898D01*
X14694145Y-11264898D02*
X14579859Y-11379184D01*
X14579859Y-11379184D02*
X14703668Y-11379184D01*
X14817954Y-11264898D02*
X14798907Y-11255374D01*
X14798907Y-11255374D02*
X14789383Y-11245850D01*
X14789383Y-11245850D02*
X14779859Y-11226803D01*
X14779859Y-11226803D02*
X14779859Y-11217279D01*
X14779859Y-11217279D02*
X14789383Y-11198231D01*
X14789383Y-11198231D02*
X14798907Y-11188708D01*
X14798907Y-11188708D02*
X14817954Y-11179184D01*
X14817954Y-11179184D02*
X14856049Y-11179184D01*
X14856049Y-11179184D02*
X14875097Y-11188708D01*
X14875097Y-11188708D02*
X14884621Y-11198231D01*
X14884621Y-11198231D02*
X14894145Y-11217279D01*
X14894145Y-11217279D02*
X14894145Y-11226803D01*
X14894145Y-11226803D02*
X14884621Y-11245850D01*
X14884621Y-11245850D02*
X14875097Y-11255374D01*
X14875097Y-11255374D02*
X14856049Y-11264898D01*
X14856049Y-11264898D02*
X14817954Y-11264898D01*
X14817954Y-11264898D02*
X14798907Y-11274422D01*
X14798907Y-11274422D02*
X14789383Y-11283946D01*
X14789383Y-11283946D02*
X14779859Y-11302993D01*
X14779859Y-11302993D02*
X14779859Y-11341088D01*
X14779859Y-11341088D02*
X14789383Y-11360136D01*
X14789383Y-11360136D02*
X14798907Y-11369660D01*
X14798907Y-11369660D02*
X14817954Y-11379184D01*
X14817954Y-11379184D02*
X14856049Y-11379184D01*
X14856049Y-11379184D02*
X14875097Y-11369660D01*
X14875097Y-11369660D02*
X14884621Y-11360136D01*
X14884621Y-11360136D02*
X14894145Y-11341088D01*
X14894145Y-11341088D02*
X14894145Y-11302993D01*
X14894145Y-11302993D02*
X14884621Y-11283946D01*
X14884621Y-11283946D02*
X14875097Y-11274422D01*
X14875097Y-11274422D02*
X14856049Y-11264898D01*
X14970335Y-11179184D02*
X14970335Y-11217279D01*
X15046526Y-11179184D02*
X15046526Y-11217279D01*
X15341764Y-11455374D02*
X15332240Y-11445850D01*
X15332240Y-11445850D02*
X15313192Y-11417279D01*
X15313192Y-11417279D02*
X15303669Y-11398231D01*
X15303669Y-11398231D02*
X15294145Y-11369660D01*
X15294145Y-11369660D02*
X15284621Y-11322041D01*
X15284621Y-11322041D02*
X15284621Y-11283946D01*
X15284621Y-11283946D02*
X15294145Y-11236327D01*
X15294145Y-11236327D02*
X15303669Y-11207755D01*
X15303669Y-11207755D02*
X15313192Y-11188708D01*
X15313192Y-11188708D02*
X15332240Y-11160136D01*
X15332240Y-11160136D02*
X15341764Y-11150612D01*
X15522716Y-11379184D02*
X15408430Y-11379184D01*
X15465573Y-11379184D02*
X15465573Y-11179184D01*
X15465573Y-11179184D02*
X15446526Y-11207755D01*
X15446526Y-11207755D02*
X15427478Y-11226803D01*
X15427478Y-11226803D02*
X15408430Y-11236327D01*
X15751288Y-11369660D02*
X15770335Y-11379184D01*
X15770335Y-11379184D02*
X15808430Y-11379184D01*
X15808430Y-11379184D02*
X15827478Y-11369660D01*
X15827478Y-11369660D02*
X15837002Y-11350612D01*
X15837002Y-11350612D02*
X15837002Y-11341088D01*
X15837002Y-11341088D02*
X15827478Y-11322041D01*
X15827478Y-11322041D02*
X15808430Y-11312517D01*
X15808430Y-11312517D02*
X15779859Y-11312517D01*
X15779859Y-11312517D02*
X15760811Y-11302993D01*
X15760811Y-11302993D02*
X15751288Y-11283946D01*
X15751288Y-11283946D02*
X15751288Y-11274422D01*
X15751288Y-11274422D02*
X15760811Y-11255374D01*
X15760811Y-11255374D02*
X15779859Y-11245850D01*
X15779859Y-11245850D02*
X15808430Y-11245850D01*
X15808430Y-11245850D02*
X15827478Y-11255374D01*
X15951288Y-11379184D02*
X15932240Y-11369660D01*
X15932240Y-11369660D02*
X15922716Y-11350612D01*
X15922716Y-11350612D02*
X15922716Y-11179184D01*
X16056050Y-11379184D02*
X16037002Y-11369660D01*
X16037002Y-11369660D02*
X16027478Y-11360136D01*
X16027478Y-11360136D02*
X16017954Y-11341088D01*
X16017954Y-11341088D02*
X16017954Y-11283946D01*
X16017954Y-11283946D02*
X16027478Y-11264898D01*
X16027478Y-11264898D02*
X16037002Y-11255374D01*
X16037002Y-11255374D02*
X16056050Y-11245850D01*
X16056050Y-11245850D02*
X16084621Y-11245850D01*
X16084621Y-11245850D02*
X16103669Y-11255374D01*
X16103669Y-11255374D02*
X16113192Y-11264898D01*
X16113192Y-11264898D02*
X16122716Y-11283946D01*
X16122716Y-11283946D02*
X16122716Y-11341088D01*
X16122716Y-11341088D02*
X16113192Y-11360136D01*
X16113192Y-11360136D02*
X16103669Y-11369660D01*
X16103669Y-11369660D02*
X16084621Y-11379184D01*
X16084621Y-11379184D02*
X16056050Y-11379184D01*
X16179859Y-11245850D02*
X16256050Y-11245850D01*
X16208431Y-11179184D02*
X16208431Y-11350612D01*
X16208431Y-11350612D02*
X16217954Y-11369660D01*
X16217954Y-11369660D02*
X16237002Y-11379184D01*
X16237002Y-11379184D02*
X16256050Y-11379184D01*
X16303669Y-11455374D02*
X16313192Y-11445850D01*
X16313192Y-11445850D02*
X16332240Y-11417279D01*
X16332240Y-11417279D02*
X16341764Y-11398231D01*
X16341764Y-11398231D02*
X16351288Y-11369660D01*
X16351288Y-11369660D02*
X16360811Y-11322041D01*
X16360811Y-11322041D02*
X16360811Y-11283946D01*
X16360811Y-11283946D02*
X16351288Y-11236327D01*
X16351288Y-11236327D02*
X16341764Y-11207755D01*
X16341764Y-11207755D02*
X16332240Y-11188708D01*
X16332240Y-11188708D02*
X16313192Y-11160136D01*
X16313192Y-11160136D02*
X16303669Y-11150612D01*
X16665573Y-11455374D02*
X16656050Y-11445850D01*
X16656050Y-11445850D02*
X16637002Y-11417279D01*
X16637002Y-11417279D02*
X16627478Y-11398231D01*
X16627478Y-11398231D02*
X16617954Y-11369660D01*
X16617954Y-11369660D02*
X16608431Y-11322041D01*
X16608431Y-11322041D02*
X16608431Y-11283946D01*
X16608431Y-11283946D02*
X16617954Y-11236327D01*
X16617954Y-11236327D02*
X16627478Y-11207755D01*
X16627478Y-11207755D02*
X16637002Y-11188708D01*
X16637002Y-11188708D02*
X16656050Y-11160136D01*
X16656050Y-11160136D02*
X16665573Y-11150612D01*
X16741764Y-11245850D02*
X16741764Y-11379184D01*
X16741764Y-11264898D02*
X16751288Y-11255374D01*
X16751288Y-11255374D02*
X16770335Y-11245850D01*
X16770335Y-11245850D02*
X16798907Y-11245850D01*
X16798907Y-11245850D02*
X16817954Y-11255374D01*
X16817954Y-11255374D02*
X16827478Y-11274422D01*
X16827478Y-11274422D02*
X16827478Y-11379184D01*
X16951288Y-11379184D02*
X16932240Y-11369660D01*
X16932240Y-11369660D02*
X16922716Y-11360136D01*
X16922716Y-11360136D02*
X16913193Y-11341088D01*
X16913193Y-11341088D02*
X16913193Y-11283946D01*
X16913193Y-11283946D02*
X16922716Y-11264898D01*
X16922716Y-11264898D02*
X16932240Y-11255374D01*
X16932240Y-11255374D02*
X16951288Y-11245850D01*
X16951288Y-11245850D02*
X16979859Y-11245850D01*
X16979859Y-11245850D02*
X16998907Y-11255374D01*
X16998907Y-11255374D02*
X17008431Y-11264898D01*
X17008431Y-11264898D02*
X17017954Y-11283946D01*
X17017954Y-11283946D02*
X17017954Y-11341088D01*
X17017954Y-11341088D02*
X17008431Y-11360136D01*
X17008431Y-11360136D02*
X16998907Y-11369660D01*
X16998907Y-11369660D02*
X16979859Y-11379184D01*
X16979859Y-11379184D02*
X16951288Y-11379184D01*
X17075097Y-11245850D02*
X17151288Y-11245850D01*
X17103669Y-11179184D02*
X17103669Y-11350612D01*
X17103669Y-11350612D02*
X17113193Y-11369660D01*
X17113193Y-11369660D02*
X17132240Y-11379184D01*
X17132240Y-11379184D02*
X17151288Y-11379184D01*
X17370335Y-11245850D02*
X17370335Y-11445850D01*
X17370335Y-11255374D02*
X17389383Y-11245850D01*
X17389383Y-11245850D02*
X17427478Y-11245850D01*
X17427478Y-11245850D02*
X17446526Y-11255374D01*
X17446526Y-11255374D02*
X17456050Y-11264898D01*
X17456050Y-11264898D02*
X17465574Y-11283946D01*
X17465574Y-11283946D02*
X17465574Y-11341088D01*
X17465574Y-11341088D02*
X17456050Y-11360136D01*
X17456050Y-11360136D02*
X17446526Y-11369660D01*
X17446526Y-11369660D02*
X17427478Y-11379184D01*
X17427478Y-11379184D02*
X17389383Y-11379184D01*
X17389383Y-11379184D02*
X17370335Y-11369660D01*
X17579859Y-11379184D02*
X17560812Y-11369660D01*
X17560812Y-11369660D02*
X17551288Y-11350612D01*
X17551288Y-11350612D02*
X17551288Y-11179184D01*
X17741764Y-11379184D02*
X17741764Y-11274422D01*
X17741764Y-11274422D02*
X17732240Y-11255374D01*
X17732240Y-11255374D02*
X17713193Y-11245850D01*
X17713193Y-11245850D02*
X17675097Y-11245850D01*
X17675097Y-11245850D02*
X17656050Y-11255374D01*
X17741764Y-11369660D02*
X17722716Y-11379184D01*
X17722716Y-11379184D02*
X17675097Y-11379184D01*
X17675097Y-11379184D02*
X17656050Y-11369660D01*
X17656050Y-11369660D02*
X17646526Y-11350612D01*
X17646526Y-11350612D02*
X17646526Y-11331565D01*
X17646526Y-11331565D02*
X17656050Y-11312517D01*
X17656050Y-11312517D02*
X17675097Y-11302993D01*
X17675097Y-11302993D02*
X17722716Y-11302993D01*
X17722716Y-11302993D02*
X17741764Y-11293469D01*
X17808431Y-11245850D02*
X17884621Y-11245850D01*
X17837002Y-11179184D02*
X17837002Y-11350612D01*
X17837002Y-11350612D02*
X17846526Y-11369660D01*
X17846526Y-11369660D02*
X17865574Y-11379184D01*
X17865574Y-11379184D02*
X17884621Y-11379184D01*
X18027478Y-11369660D02*
X18008431Y-11379184D01*
X18008431Y-11379184D02*
X17970335Y-11379184D01*
X17970335Y-11379184D02*
X17951288Y-11369660D01*
X17951288Y-11369660D02*
X17941764Y-11350612D01*
X17941764Y-11350612D02*
X17941764Y-11274422D01*
X17941764Y-11274422D02*
X17951288Y-11255374D01*
X17951288Y-11255374D02*
X17970335Y-11245850D01*
X17970335Y-11245850D02*
X18008431Y-11245850D01*
X18008431Y-11245850D02*
X18027478Y-11255374D01*
X18027478Y-11255374D02*
X18037002Y-11274422D01*
X18037002Y-11274422D02*
X18037002Y-11293469D01*
X18037002Y-11293469D02*
X17941764Y-11312517D01*
X18208431Y-11379184D02*
X18208431Y-11179184D01*
X18208431Y-11369660D02*
X18189383Y-11379184D01*
X18189383Y-11379184D02*
X18151288Y-11379184D01*
X18151288Y-11379184D02*
X18132240Y-11369660D01*
X18132240Y-11369660D02*
X18122716Y-11360136D01*
X18122716Y-11360136D02*
X18113193Y-11341088D01*
X18113193Y-11341088D02*
X18113193Y-11283946D01*
X18113193Y-11283946D02*
X18122716Y-11264898D01*
X18122716Y-11264898D02*
X18132240Y-11255374D01*
X18132240Y-11255374D02*
X18151288Y-11245850D01*
X18151288Y-11245850D02*
X18189383Y-11245850D01*
X18189383Y-11245850D02*
X18208431Y-11255374D01*
X18284621Y-11455374D02*
X18294145Y-11445850D01*
X18294145Y-11445850D02*
X18313193Y-11417279D01*
X18313193Y-11417279D02*
X18322716Y-11398231D01*
X18322716Y-11398231D02*
X18332240Y-11369660D01*
X18332240Y-11369660D02*
X18341764Y-11322041D01*
X18341764Y-11322041D02*
X18341764Y-11283946D01*
X18341764Y-11283946D02*
X18332240Y-11236327D01*
X18332240Y-11236327D02*
X18322716Y-11207755D01*
X18322716Y-11207755D02*
X18313193Y-11188708D01*
X18313193Y-11188708D02*
X18294145Y-11160136D01*
X18294145Y-11160136D02*
X18284621Y-11150612D01*
D11*
X11766701Y-11551700D02*
G75*
G03*
X11700701Y-11551700I-33000J0D01*
G01*
X11700701Y-11551700D02*
G75*
G03*
X11766701Y-11551700I33000J0D01*
G01*
D10*
X12065573Y-11443184D02*
X12084621Y-11443184D01*
X12084621Y-11443184D02*
X12103668Y-11452708D01*
X12103668Y-11452708D02*
X12113192Y-11462231D01*
X12113192Y-11462231D02*
X12122716Y-11481279D01*
X12122716Y-11481279D02*
X12132240Y-11519374D01*
X12132240Y-11519374D02*
X12132240Y-11566993D01*
X12132240Y-11566993D02*
X12122716Y-11605088D01*
X12122716Y-11605088D02*
X12113192Y-11624136D01*
X12113192Y-11624136D02*
X12103668Y-11633660D01*
X12103668Y-11633660D02*
X12084621Y-11643184D01*
X12084621Y-11643184D02*
X12065573Y-11643184D01*
X12065573Y-11643184D02*
X12046525Y-11633660D01*
X12046525Y-11633660D02*
X12037002Y-11624136D01*
X12037002Y-11624136D02*
X12027478Y-11605088D01*
X12027478Y-11605088D02*
X12017954Y-11566993D01*
X12017954Y-11566993D02*
X12017954Y-11519374D01*
X12017954Y-11519374D02*
X12027478Y-11481279D01*
X12027478Y-11481279D02*
X12037002Y-11462231D01*
X12037002Y-11462231D02*
X12046525Y-11452708D01*
X12046525Y-11452708D02*
X12065573Y-11443184D01*
X12217954Y-11624136D02*
X12227478Y-11633660D01*
X12227478Y-11633660D02*
X12217954Y-11643184D01*
X12217954Y-11643184D02*
X12208430Y-11633660D01*
X12208430Y-11633660D02*
X12217954Y-11624136D01*
X12217954Y-11624136D02*
X12217954Y-11643184D01*
X12398906Y-11443184D02*
X12360811Y-11443184D01*
X12360811Y-11443184D02*
X12341763Y-11452708D01*
X12341763Y-11452708D02*
X12332240Y-11462231D01*
X12332240Y-11462231D02*
X12313192Y-11490803D01*
X12313192Y-11490803D02*
X12303668Y-11528898D01*
X12303668Y-11528898D02*
X12303668Y-11605088D01*
X12303668Y-11605088D02*
X12313192Y-11624136D01*
X12313192Y-11624136D02*
X12322716Y-11633660D01*
X12322716Y-11633660D02*
X12341763Y-11643184D01*
X12341763Y-11643184D02*
X12379859Y-11643184D01*
X12379859Y-11643184D02*
X12398906Y-11633660D01*
X12398906Y-11633660D02*
X12408430Y-11624136D01*
X12408430Y-11624136D02*
X12417954Y-11605088D01*
X12417954Y-11605088D02*
X12417954Y-11557469D01*
X12417954Y-11557469D02*
X12408430Y-11538422D01*
X12408430Y-11538422D02*
X12398906Y-11528898D01*
X12398906Y-11528898D02*
X12379859Y-11519374D01*
X12379859Y-11519374D02*
X12341763Y-11519374D01*
X12341763Y-11519374D02*
X12322716Y-11528898D01*
X12322716Y-11528898D02*
X12313192Y-11538422D01*
X12313192Y-11538422D02*
X12303668Y-11557469D01*
X12589383Y-11443184D02*
X12551287Y-11443184D01*
X12551287Y-11443184D02*
X12532240Y-11452708D01*
X12532240Y-11452708D02*
X12522716Y-11462231D01*
X12522716Y-11462231D02*
X12503668Y-11490803D01*
X12503668Y-11490803D02*
X12494144Y-11528898D01*
X12494144Y-11528898D02*
X12494144Y-11605088D01*
X12494144Y-11605088D02*
X12503668Y-11624136D01*
X12503668Y-11624136D02*
X12513192Y-11633660D01*
X12513192Y-11633660D02*
X12532240Y-11643184D01*
X12532240Y-11643184D02*
X12570335Y-11643184D01*
X12570335Y-11643184D02*
X12589383Y-11633660D01*
X12589383Y-11633660D02*
X12598906Y-11624136D01*
X12598906Y-11624136D02*
X12608430Y-11605088D01*
X12608430Y-11605088D02*
X12608430Y-11557469D01*
X12608430Y-11557469D02*
X12598906Y-11538422D01*
X12598906Y-11538422D02*
X12589383Y-11528898D01*
X12589383Y-11528898D02*
X12570335Y-11519374D01*
X12570335Y-11519374D02*
X12532240Y-11519374D01*
X12532240Y-11519374D02*
X12513192Y-11528898D01*
X12513192Y-11528898D02*
X12503668Y-11538422D01*
X12503668Y-11538422D02*
X12494144Y-11557469D01*
X12732240Y-11443184D02*
X12751287Y-11443184D01*
X12751287Y-11443184D02*
X12770335Y-11452708D01*
X12770335Y-11452708D02*
X12779859Y-11462231D01*
X12779859Y-11462231D02*
X12789383Y-11481279D01*
X12789383Y-11481279D02*
X12798906Y-11519374D01*
X12798906Y-11519374D02*
X12798906Y-11566993D01*
X12798906Y-11566993D02*
X12789383Y-11605088D01*
X12789383Y-11605088D02*
X12779859Y-11624136D01*
X12779859Y-11624136D02*
X12770335Y-11633660D01*
X12770335Y-11633660D02*
X12751287Y-11643184D01*
X12751287Y-11643184D02*
X12732240Y-11643184D01*
X12732240Y-11643184D02*
X12713192Y-11633660D01*
X12713192Y-11633660D02*
X12703668Y-11624136D01*
X12703668Y-11624136D02*
X12694144Y-11605088D01*
X12694144Y-11605088D02*
X12684621Y-11566993D01*
X12684621Y-11566993D02*
X12684621Y-11519374D01*
X12684621Y-11519374D02*
X12694144Y-11481279D01*
X12694144Y-11481279D02*
X12703668Y-11462231D01*
X12703668Y-11462231D02*
X12713192Y-11452708D01*
X12713192Y-11452708D02*
X12732240Y-11443184D01*
X12884621Y-11643184D02*
X12884621Y-11509850D01*
X12884621Y-11528898D02*
X12894144Y-11519374D01*
X12894144Y-11519374D02*
X12913192Y-11509850D01*
X12913192Y-11509850D02*
X12941764Y-11509850D01*
X12941764Y-11509850D02*
X12960811Y-11519374D01*
X12960811Y-11519374D02*
X12970335Y-11538422D01*
X12970335Y-11538422D02*
X12970335Y-11643184D01*
X12970335Y-11538422D02*
X12979859Y-11519374D01*
X12979859Y-11519374D02*
X12998906Y-11509850D01*
X12998906Y-11509850D02*
X13027478Y-11509850D01*
X13027478Y-11509850D02*
X13046525Y-11519374D01*
X13046525Y-11519374D02*
X13056049Y-11538422D01*
X13056049Y-11538422D02*
X13056049Y-11643184D01*
X13151287Y-11643184D02*
X13151287Y-11509850D01*
X13151287Y-11528898D02*
X13160811Y-11519374D01*
X13160811Y-11519374D02*
X13179859Y-11509850D01*
X13179859Y-11509850D02*
X13208430Y-11509850D01*
X13208430Y-11509850D02*
X13227478Y-11519374D01*
X13227478Y-11519374D02*
X13237002Y-11538422D01*
X13237002Y-11538422D02*
X13237002Y-11643184D01*
X13237002Y-11538422D02*
X13246525Y-11519374D01*
X13246525Y-11519374D02*
X13265573Y-11509850D01*
X13265573Y-11509850D02*
X13294144Y-11509850D01*
X13294144Y-11509850D02*
X13313192Y-11519374D01*
X13313192Y-11519374D02*
X13322716Y-11538422D01*
X13322716Y-11538422D02*
X13322716Y-11643184D01*
X13713192Y-11433660D02*
X13541764Y-11690803D01*
X13970335Y-11443184D02*
X13989383Y-11443184D01*
X13989383Y-11443184D02*
X14008430Y-11452708D01*
X14008430Y-11452708D02*
X14017954Y-11462231D01*
X14017954Y-11462231D02*
X14027478Y-11481279D01*
X14027478Y-11481279D02*
X14037002Y-11519374D01*
X14037002Y-11519374D02*
X14037002Y-11566993D01*
X14037002Y-11566993D02*
X14027478Y-11605088D01*
X14027478Y-11605088D02*
X14017954Y-11624136D01*
X14017954Y-11624136D02*
X14008430Y-11633660D01*
X14008430Y-11633660D02*
X13989383Y-11643184D01*
X13989383Y-11643184D02*
X13970335Y-11643184D01*
X13970335Y-11643184D02*
X13951287Y-11633660D01*
X13951287Y-11633660D02*
X13941764Y-11624136D01*
X13941764Y-11624136D02*
X13932240Y-11605088D01*
X13932240Y-11605088D02*
X13922716Y-11566993D01*
X13922716Y-11566993D02*
X13922716Y-11519374D01*
X13922716Y-11519374D02*
X13932240Y-11481279D01*
X13932240Y-11481279D02*
X13941764Y-11462231D01*
X13941764Y-11462231D02*
X13951287Y-11452708D01*
X13951287Y-11452708D02*
X13970335Y-11443184D01*
X14122716Y-11624136D02*
X14132240Y-11633660D01*
X14132240Y-11633660D02*
X14122716Y-11643184D01*
X14122716Y-11643184D02*
X14113192Y-11633660D01*
X14113192Y-11633660D02*
X14122716Y-11624136D01*
X14122716Y-11624136D02*
X14122716Y-11643184D01*
X14256049Y-11443184D02*
X14275097Y-11443184D01*
X14275097Y-11443184D02*
X14294145Y-11452708D01*
X14294145Y-11452708D02*
X14303668Y-11462231D01*
X14303668Y-11462231D02*
X14313192Y-11481279D01*
X14313192Y-11481279D02*
X14322716Y-11519374D01*
X14322716Y-11519374D02*
X14322716Y-11566993D01*
X14322716Y-11566993D02*
X14313192Y-11605088D01*
X14313192Y-11605088D02*
X14303668Y-11624136D01*
X14303668Y-11624136D02*
X14294145Y-11633660D01*
X14294145Y-11633660D02*
X14275097Y-11643184D01*
X14275097Y-11643184D02*
X14256049Y-11643184D01*
X14256049Y-11643184D02*
X14237002Y-11633660D01*
X14237002Y-11633660D02*
X14227478Y-11624136D01*
X14227478Y-11624136D02*
X14217954Y-11605088D01*
X14217954Y-11605088D02*
X14208430Y-11566993D01*
X14208430Y-11566993D02*
X14208430Y-11519374D01*
X14208430Y-11519374D02*
X14217954Y-11481279D01*
X14217954Y-11481279D02*
X14227478Y-11462231D01*
X14227478Y-11462231D02*
X14237002Y-11452708D01*
X14237002Y-11452708D02*
X14256049Y-11443184D01*
X14398907Y-11462231D02*
X14408430Y-11452708D01*
X14408430Y-11452708D02*
X14427478Y-11443184D01*
X14427478Y-11443184D02*
X14475097Y-11443184D01*
X14475097Y-11443184D02*
X14494145Y-11452708D01*
X14494145Y-11452708D02*
X14503668Y-11462231D01*
X14503668Y-11462231D02*
X14513192Y-11481279D01*
X14513192Y-11481279D02*
X14513192Y-11500327D01*
X14513192Y-11500327D02*
X14503668Y-11528898D01*
X14503668Y-11528898D02*
X14389383Y-11643184D01*
X14389383Y-11643184D02*
X14513192Y-11643184D01*
X14684621Y-11443184D02*
X14646526Y-11443184D01*
X14646526Y-11443184D02*
X14627478Y-11452708D01*
X14627478Y-11452708D02*
X14617954Y-11462231D01*
X14617954Y-11462231D02*
X14598907Y-11490803D01*
X14598907Y-11490803D02*
X14589383Y-11528898D01*
X14589383Y-11528898D02*
X14589383Y-11605088D01*
X14589383Y-11605088D02*
X14598907Y-11624136D01*
X14598907Y-11624136D02*
X14608430Y-11633660D01*
X14608430Y-11633660D02*
X14627478Y-11643184D01*
X14627478Y-11643184D02*
X14665573Y-11643184D01*
X14665573Y-11643184D02*
X14684621Y-11633660D01*
X14684621Y-11633660D02*
X14694145Y-11624136D01*
X14694145Y-11624136D02*
X14703668Y-11605088D01*
X14703668Y-11605088D02*
X14703668Y-11557469D01*
X14703668Y-11557469D02*
X14694145Y-11538422D01*
X14694145Y-11538422D02*
X14684621Y-11528898D01*
X14684621Y-11528898D02*
X14665573Y-11519374D01*
X14665573Y-11519374D02*
X14627478Y-11519374D01*
X14627478Y-11519374D02*
X14608430Y-11528898D01*
X14608430Y-11528898D02*
X14598907Y-11538422D01*
X14598907Y-11538422D02*
X14589383Y-11557469D01*
X14827478Y-11443184D02*
X14846526Y-11443184D01*
X14846526Y-11443184D02*
X14865573Y-11452708D01*
X14865573Y-11452708D02*
X14875097Y-11462231D01*
X14875097Y-11462231D02*
X14884621Y-11481279D01*
X14884621Y-11481279D02*
X14894145Y-11519374D01*
X14894145Y-11519374D02*
X14894145Y-11566993D01*
X14894145Y-11566993D02*
X14884621Y-11605088D01*
X14884621Y-11605088D02*
X14875097Y-11624136D01*
X14875097Y-11624136D02*
X14865573Y-11633660D01*
X14865573Y-11633660D02*
X14846526Y-11643184D01*
X14846526Y-11643184D02*
X14827478Y-11643184D01*
X14827478Y-11643184D02*
X14808430Y-11633660D01*
X14808430Y-11633660D02*
X14798907Y-11624136D01*
X14798907Y-11624136D02*
X14789383Y-11605088D01*
X14789383Y-11605088D02*
X14779859Y-11566993D01*
X14779859Y-11566993D02*
X14779859Y-11519374D01*
X14779859Y-11519374D02*
X14789383Y-11481279D01*
X14789383Y-11481279D02*
X14798907Y-11462231D01*
X14798907Y-11462231D02*
X14808430Y-11452708D01*
X14808430Y-11452708D02*
X14827478Y-11443184D01*
X14970335Y-11443184D02*
X14970335Y-11481279D01*
X15046526Y-11443184D02*
X15046526Y-11481279D01*
X15341764Y-11719374D02*
X15332240Y-11709850D01*
X15332240Y-11709850D02*
X15313192Y-11681279D01*
X15313192Y-11681279D02*
X15303669Y-11662231D01*
X15303669Y-11662231D02*
X15294145Y-11633660D01*
X15294145Y-11633660D02*
X15284621Y-11586041D01*
X15284621Y-11586041D02*
X15284621Y-11547946D01*
X15284621Y-11547946D02*
X15294145Y-11500327D01*
X15294145Y-11500327D02*
X15303669Y-11471755D01*
X15303669Y-11471755D02*
X15313192Y-11452708D01*
X15313192Y-11452708D02*
X15332240Y-11424136D01*
X15332240Y-11424136D02*
X15341764Y-11414612D01*
X15522716Y-11643184D02*
X15408430Y-11643184D01*
X15465573Y-11643184D02*
X15465573Y-11443184D01*
X15465573Y-11443184D02*
X15446526Y-11471755D01*
X15446526Y-11471755D02*
X15427478Y-11490803D01*
X15427478Y-11490803D02*
X15408430Y-11500327D01*
X15760811Y-11643184D02*
X15760811Y-11443184D01*
X15846526Y-11643184D02*
X15846526Y-11538422D01*
X15846526Y-11538422D02*
X15837002Y-11519374D01*
X15837002Y-11519374D02*
X15817954Y-11509850D01*
X15817954Y-11509850D02*
X15789383Y-11509850D01*
X15789383Y-11509850D02*
X15770335Y-11519374D01*
X15770335Y-11519374D02*
X15760811Y-11528898D01*
X15970335Y-11643184D02*
X15951288Y-11633660D01*
X15951288Y-11633660D02*
X15941764Y-11624136D01*
X15941764Y-11624136D02*
X15932240Y-11605088D01*
X15932240Y-11605088D02*
X15932240Y-11547946D01*
X15932240Y-11547946D02*
X15941764Y-11528898D01*
X15941764Y-11528898D02*
X15951288Y-11519374D01*
X15951288Y-11519374D02*
X15970335Y-11509850D01*
X15970335Y-11509850D02*
X15998907Y-11509850D01*
X15998907Y-11509850D02*
X16017954Y-11519374D01*
X16017954Y-11519374D02*
X16027478Y-11528898D01*
X16027478Y-11528898D02*
X16037002Y-11547946D01*
X16037002Y-11547946D02*
X16037002Y-11605088D01*
X16037002Y-11605088D02*
X16027478Y-11624136D01*
X16027478Y-11624136D02*
X16017954Y-11633660D01*
X16017954Y-11633660D02*
X15998907Y-11643184D01*
X15998907Y-11643184D02*
X15970335Y-11643184D01*
X16151288Y-11643184D02*
X16132240Y-11633660D01*
X16132240Y-11633660D02*
X16122716Y-11614612D01*
X16122716Y-11614612D02*
X16122716Y-11443184D01*
X16303669Y-11633660D02*
X16284621Y-11643184D01*
X16284621Y-11643184D02*
X16246526Y-11643184D01*
X16246526Y-11643184D02*
X16227478Y-11633660D01*
X16227478Y-11633660D02*
X16217954Y-11614612D01*
X16217954Y-11614612D02*
X16217954Y-11538422D01*
X16217954Y-11538422D02*
X16227478Y-11519374D01*
X16227478Y-11519374D02*
X16246526Y-11509850D01*
X16246526Y-11509850D02*
X16284621Y-11509850D01*
X16284621Y-11509850D02*
X16303669Y-11519374D01*
X16303669Y-11519374D02*
X16313192Y-11538422D01*
X16313192Y-11538422D02*
X16313192Y-11557469D01*
X16313192Y-11557469D02*
X16217954Y-11576517D01*
X16379859Y-11719374D02*
X16389383Y-11709850D01*
X16389383Y-11709850D02*
X16408431Y-11681279D01*
X16408431Y-11681279D02*
X16417954Y-11662231D01*
X16417954Y-11662231D02*
X16427478Y-11633660D01*
X16427478Y-11633660D02*
X16437002Y-11586041D01*
X16437002Y-11586041D02*
X16437002Y-11547946D01*
X16437002Y-11547946D02*
X16427478Y-11500327D01*
X16427478Y-11500327D02*
X16417954Y-11471755D01*
X16417954Y-11471755D02*
X16408431Y-11452708D01*
X16408431Y-11452708D02*
X16389383Y-11424136D01*
X16389383Y-11424136D02*
X16379859Y-11414612D01*
X16741764Y-11719374D02*
X16732240Y-11709850D01*
X16732240Y-11709850D02*
X16713192Y-11681279D01*
X16713192Y-11681279D02*
X16703669Y-11662231D01*
X16703669Y-11662231D02*
X16694145Y-11633660D01*
X16694145Y-11633660D02*
X16684621Y-11586041D01*
X16684621Y-11586041D02*
X16684621Y-11547946D01*
X16684621Y-11547946D02*
X16694145Y-11500327D01*
X16694145Y-11500327D02*
X16703669Y-11471755D01*
X16703669Y-11471755D02*
X16713192Y-11452708D01*
X16713192Y-11452708D02*
X16732240Y-11424136D01*
X16732240Y-11424136D02*
X16741764Y-11414612D01*
X16817954Y-11509850D02*
X16817954Y-11643184D01*
X16817954Y-11528898D02*
X16827478Y-11519374D01*
X16827478Y-11519374D02*
X16846526Y-11509850D01*
X16846526Y-11509850D02*
X16875097Y-11509850D01*
X16875097Y-11509850D02*
X16894145Y-11519374D01*
X16894145Y-11519374D02*
X16903669Y-11538422D01*
X16903669Y-11538422D02*
X16903669Y-11643184D01*
X17027478Y-11643184D02*
X17008431Y-11633660D01*
X17008431Y-11633660D02*
X16998907Y-11624136D01*
X16998907Y-11624136D02*
X16989383Y-11605088D01*
X16989383Y-11605088D02*
X16989383Y-11547946D01*
X16989383Y-11547946D02*
X16998907Y-11528898D01*
X16998907Y-11528898D02*
X17008431Y-11519374D01*
X17008431Y-11519374D02*
X17027478Y-11509850D01*
X17027478Y-11509850D02*
X17056050Y-11509850D01*
X17056050Y-11509850D02*
X17075097Y-11519374D01*
X17075097Y-11519374D02*
X17084621Y-11528898D01*
X17084621Y-11528898D02*
X17094145Y-11547946D01*
X17094145Y-11547946D02*
X17094145Y-11605088D01*
X17094145Y-11605088D02*
X17084621Y-11624136D01*
X17084621Y-11624136D02*
X17075097Y-11633660D01*
X17075097Y-11633660D02*
X17056050Y-11643184D01*
X17056050Y-11643184D02*
X17027478Y-11643184D01*
X17151288Y-11509850D02*
X17227478Y-11509850D01*
X17179859Y-11443184D02*
X17179859Y-11614612D01*
X17179859Y-11614612D02*
X17189383Y-11633660D01*
X17189383Y-11633660D02*
X17208431Y-11643184D01*
X17208431Y-11643184D02*
X17227478Y-11643184D01*
X17446526Y-11509850D02*
X17446526Y-11709850D01*
X17446526Y-11519374D02*
X17465574Y-11509850D01*
X17465574Y-11509850D02*
X17503669Y-11509850D01*
X17503669Y-11509850D02*
X17522716Y-11519374D01*
X17522716Y-11519374D02*
X17532240Y-11528898D01*
X17532240Y-11528898D02*
X17541764Y-11547946D01*
X17541764Y-11547946D02*
X17541764Y-11605088D01*
X17541764Y-11605088D02*
X17532240Y-11624136D01*
X17532240Y-11624136D02*
X17522716Y-11633660D01*
X17522716Y-11633660D02*
X17503669Y-11643184D01*
X17503669Y-11643184D02*
X17465574Y-11643184D01*
X17465574Y-11643184D02*
X17446526Y-11633660D01*
X17656050Y-11643184D02*
X17637002Y-11633660D01*
X17637002Y-11633660D02*
X17627478Y-11614612D01*
X17627478Y-11614612D02*
X17627478Y-11443184D01*
X17817955Y-11643184D02*
X17817955Y-11538422D01*
X17817955Y-11538422D02*
X17808431Y-11519374D01*
X17808431Y-11519374D02*
X17789383Y-11509850D01*
X17789383Y-11509850D02*
X17751288Y-11509850D01*
X17751288Y-11509850D02*
X17732240Y-11519374D01*
X17817955Y-11633660D02*
X17798907Y-11643184D01*
X17798907Y-11643184D02*
X17751288Y-11643184D01*
X17751288Y-11643184D02*
X17732240Y-11633660D01*
X17732240Y-11633660D02*
X17722716Y-11614612D01*
X17722716Y-11614612D02*
X17722716Y-11595565D01*
X17722716Y-11595565D02*
X17732240Y-11576517D01*
X17732240Y-11576517D02*
X17751288Y-11566993D01*
X17751288Y-11566993D02*
X17798907Y-11566993D01*
X17798907Y-11566993D02*
X17817955Y-11557469D01*
X17884621Y-11509850D02*
X17960812Y-11509850D01*
X17913193Y-11443184D02*
X17913193Y-11614612D01*
X17913193Y-11614612D02*
X17922716Y-11633660D01*
X17922716Y-11633660D02*
X17941764Y-11643184D01*
X17941764Y-11643184D02*
X17960812Y-11643184D01*
X18103669Y-11633660D02*
X18084621Y-11643184D01*
X18084621Y-11643184D02*
X18046526Y-11643184D01*
X18046526Y-11643184D02*
X18027478Y-11633660D01*
X18027478Y-11633660D02*
X18017955Y-11614612D01*
X18017955Y-11614612D02*
X18017955Y-11538422D01*
X18017955Y-11538422D02*
X18027478Y-11519374D01*
X18027478Y-11519374D02*
X18046526Y-11509850D01*
X18046526Y-11509850D02*
X18084621Y-11509850D01*
X18084621Y-11509850D02*
X18103669Y-11519374D01*
X18103669Y-11519374D02*
X18113193Y-11538422D01*
X18113193Y-11538422D02*
X18113193Y-11557469D01*
X18113193Y-11557469D02*
X18017955Y-11576517D01*
X18284621Y-11643184D02*
X18284621Y-11443184D01*
X18284621Y-11633660D02*
X18265574Y-11643184D01*
X18265574Y-11643184D02*
X18227478Y-11643184D01*
X18227478Y-11643184D02*
X18208431Y-11633660D01*
X18208431Y-11633660D02*
X18198907Y-11624136D01*
X18198907Y-11624136D02*
X18189383Y-11605088D01*
X18189383Y-11605088D02*
X18189383Y-11547946D01*
X18189383Y-11547946D02*
X18198907Y-11528898D01*
X18198907Y-11528898D02*
X18208431Y-11519374D01*
X18208431Y-11519374D02*
X18227478Y-11509850D01*
X18227478Y-11509850D02*
X18265574Y-11509850D01*
X18265574Y-11509850D02*
X18284621Y-11519374D01*
X18360812Y-11719374D02*
X18370336Y-11709850D01*
X18370336Y-11709850D02*
X18389383Y-11681279D01*
X18389383Y-11681279D02*
X18398907Y-11662231D01*
X18398907Y-11662231D02*
X18408431Y-11633660D01*
X18408431Y-11633660D02*
X18417955Y-11586041D01*
X18417955Y-11586041D02*
X18417955Y-11547946D01*
X18417955Y-11547946D02*
X18408431Y-11500327D01*
X18408431Y-11500327D02*
X18398907Y-11471755D01*
X18398907Y-11471755D02*
X18389383Y-11452708D01*
X18389383Y-11452708D02*
X18370336Y-11424136D01*
X18370336Y-11424136D02*
X18360812Y-11414612D01*
M02*
