%TF.GenerationSoftware,KiCad,Pcbnew,7.0.11*%
%TF.CreationDate,2025-01-20T01:56:26+09:00*%
%TF.ProjectId,Main,4d61696e-2e6b-4696-9361-645f70636258,rev?*%
%TF.SameCoordinates,Original*%
%TF.FileFunction,Soldermask,Top*%
%TF.FilePolarity,Negative*%
%FSLAX46Y46*%
G04 Gerber Fmt 4.6, Leading zero omitted, Abs format (unit mm)*
G04 Created by KiCad (PCBNEW 7.0.11) date 2025-01-20 01:56:26*
%MOMM*%
%LPD*%
G01*
G04 APERTURE LIST*
G04 Aperture macros list*
%AMRoundRect*
0 Rectangle with rounded corners*
0 $1 Rounding radius*
0 $2 $3 $4 $5 $6 $7 $8 $9 X,Y pos of 4 corners*
0 Add a 4 corners polygon primitive as box body*
4,1,4,$2,$3,$4,$5,$6,$7,$8,$9,$2,$3,0*
0 Add four circle primitives for the rounded corners*
1,1,$1+$1,$2,$3*
1,1,$1+$1,$4,$5*
1,1,$1+$1,$6,$7*
1,1,$1+$1,$8,$9*
0 Add four rect primitives between the rounded corners*
20,1,$1+$1,$2,$3,$4,$5,0*
20,1,$1+$1,$4,$5,$6,$7,0*
20,1,$1+$1,$6,$7,$8,$9,0*
20,1,$1+$1,$8,$9,$2,$3,0*%
%AMHorizOval*
0 Thick line with rounded ends*
0 $1 width*
0 $2 $3 position (X,Y) of the first rounded end (center of the circle)*
0 $4 $5 position (X,Y) of the second rounded end (center of the circle)*
0 Add line between two ends*
20,1,$1,$2,$3,$4,$5,0*
0 Add two circle primitives to create the rounded ends*
1,1,$1,$2,$3*
1,1,$1,$4,$5*%
%AMRotRect*
0 Rectangle, with rotation*
0 The origin of the aperture is its center*
0 $1 length*
0 $2 width*
0 $3 Rotation angle, in degrees counterclockwise*
0 Add horizontal line*
21,1,$1,$2,0,0,$3*%
G04 Aperture macros list end*
%ADD10C,3.200000*%
%ADD11C,2.000000*%
%ADD12RoundRect,0.250000X-0.725000X0.600000X-0.725000X-0.600000X0.725000X-0.600000X0.725000X0.600000X0*%
%ADD13O,1.950000X1.700000*%
%ADD14R,1.200000X4.000000*%
%ADD15R,1.600000X1.600000*%
%ADD16C,1.600000*%
%ADD17R,1.500000X0.900000*%
%ADD18C,1.700000*%
%ADD19RotRect,1.700000X1.700000X135.000000*%
%ADD20HorizOval,1.700000X0.000000X0.000000X0.000000X0.000000X0*%
%ADD21R,1.700000X1.700000*%
%ADD22O,1.700000X1.700000*%
%ADD23RotRect,1.700000X1.700000X315.000000*%
%ADD24HorizOval,1.700000X0.000000X0.000000X0.000000X0.000000X0*%
%ADD25C,0.650000*%
%ADD26HorizOval,1.000000X-0.116114X0.382776X0.116114X-0.382776X0*%
%ADD27HorizOval,1.000000X-0.159657X0.526317X0.159657X-0.526317X0*%
%ADD28C,2.100000*%
%ADD29C,1.750000*%
%ADD30RotRect,1.700000X1.700000X337.500000*%
%ADD31HorizOval,1.700000X0.000000X0.000000X0.000000X0.000000X0*%
%ADD32RoundRect,0.250000X-0.600000X-0.725000X0.600000X-0.725000X0.600000X0.725000X-0.600000X0.725000X0*%
%ADD33O,1.700000X1.950000*%
%ADD34RotRect,1.700000X1.700000X157.500000*%
%ADD35HorizOval,1.700000X0.000000X0.000000X0.000000X0.000000X0*%
%ADD36C,0.660000*%
%ADD37O,1.000000X0.580000*%
%ADD38C,1.100000*%
%ADD39RotRect,1.700000X1.700000X292.500000*%
%ADD40HorizOval,1.700000X0.000000X0.000000X0.000000X0.000000X0*%
%ADD41HorizOval,1.000000X0.116114X0.382776X-0.116114X-0.382776X0*%
%ADD42HorizOval,1.000000X0.159657X0.526317X-0.159657X-0.526317X0*%
%ADD43RotRect,1.700000X1.700000X225.000000*%
%ADD44HorizOval,1.700000X0.000000X0.000000X0.000000X0.000000X0*%
%ADD45RotRect,1.700000X1.700000X247.500000*%
%ADD46HorizOval,1.700000X0.000000X0.000000X0.000000X0.000000X0*%
%ADD47RotRect,1.700000X1.700000X22.500000*%
%ADD48HorizOval,1.700000X0.000000X0.000000X0.000000X0.000000X0*%
%ADD49RotRect,1.700000X1.700000X112.500000*%
%ADD50HorizOval,1.700000X0.000000X0.000000X0.000000X0.000000X0*%
%ADD51RotRect,1.700000X1.700000X67.500000*%
%ADD52HorizOval,1.700000X0.000000X0.000000X0.000000X0.000000X0*%
%ADD53RotRect,1.700000X1.700000X202.500000*%
%ADD54HorizOval,1.700000X0.000000X0.000000X0.000000X0.000000X0*%
%ADD55RotRect,1.700000X1.700000X45.000000*%
%ADD56HorizOval,1.700000X0.000000X0.000000X0.000000X0.000000X0*%
G04 APERTURE END LIST*
D10*
%TO.C,REF\u002A\u002A*%
X189550000Y-64490000D03*
%TD*%
%TO.C,REF\u002A\u002A*%
X99920000Y-101600000D03*
%TD*%
D11*
%TO.C,SW3*%
X173460000Y-72020000D03*
X166960000Y-72020000D03*
X173460000Y-67520000D03*
X166960000Y-67520000D03*
%TD*%
D10*
%TO.C,REF\u002A\u002A*%
X115300000Y-64480000D03*
%TD*%
%TO.C,REF\u002A\u002A*%
X166760000Y-126410000D03*
%TD*%
%TO.C,REF\u002A\u002A*%
X204920000Y-101600000D03*
%TD*%
%TO.C,REF\u002A\u002A*%
X181080000Y-101590000D03*
%TD*%
D12*
%TO.C,J21*%
X167975000Y-111130000D03*
D13*
X167975000Y-113630000D03*
X167975000Y-116130000D03*
X167975000Y-118630000D03*
%TD*%
D10*
%TO.C,REF\u002A\u002A*%
X115310000Y-138720000D03*
%TD*%
%TO.C,REF\u002A\u002A*%
X138090000Y-76790000D03*
%TD*%
%TO.C,REF\u002A\u002A*%
X138100000Y-126400000D03*
%TD*%
D14*
%TO.C,BZ1*%
X172454000Y-112776000D03*
X183654000Y-112776000D03*
%TD*%
D10*
%TO.C,REF\u002A\u002A*%
X166750000Y-76780000D03*
%TD*%
%TO.C,REF\u002A\u002A*%
X152420000Y-49100000D03*
%TD*%
D15*
%TO.C,U6*%
X148595000Y-97790000D03*
D16*
X148595000Y-100330000D03*
X148595000Y-102870000D03*
X148595000Y-105410000D03*
X156215000Y-105410000D03*
X156215000Y-102870000D03*
X156215000Y-100330000D03*
X156215000Y-97790000D03*
%TD*%
D17*
%TO.C,D1*%
X178640000Y-78780000D03*
X178640000Y-75480000D03*
X173740000Y-75480000D03*
X173740000Y-78780000D03*
%TD*%
D10*
%TO.C,REF\u002A\u002A*%
X123780000Y-101600000D03*
%TD*%
D18*
%TO.C,U5*%
X162560000Y-112570000D03*
X160020000Y-117650000D03*
X144780000Y-115110000D03*
X142240000Y-110030000D03*
X142240000Y-107490000D03*
X142240000Y-89710000D03*
X160020000Y-115110000D03*
X160020000Y-112570000D03*
X160020000Y-110030000D03*
X160020000Y-107490000D03*
X160020000Y-104950000D03*
X160020000Y-102410000D03*
X160020000Y-99870000D03*
X160020000Y-97330000D03*
X160020000Y-94790000D03*
X160020000Y-92250000D03*
X160020000Y-89710000D03*
X160020000Y-87170000D03*
X160020000Y-84630000D03*
X162560000Y-84630000D03*
X142240000Y-87170000D03*
X142240000Y-84630000D03*
X144780000Y-84630000D03*
X144780000Y-87170000D03*
X144780000Y-89710000D03*
X144780000Y-92250000D03*
X144780000Y-94790000D03*
X144780000Y-97330000D03*
X144780000Y-99870000D03*
X144780000Y-102410000D03*
X144780000Y-104950000D03*
X144780000Y-107490000D03*
X144780000Y-110030000D03*
X162560000Y-107490000D03*
X144780000Y-112570000D03*
X142240000Y-92250000D03*
X144780000Y-117650000D03*
X142240000Y-117650000D03*
X142240000Y-94790000D03*
X142240000Y-102410000D03*
X142240000Y-99870000D03*
X142240000Y-104950000D03*
X142240000Y-97330000D03*
X162560000Y-97330000D03*
X162560000Y-87170000D03*
X162560000Y-94790000D03*
X162560000Y-89710000D03*
X162560000Y-92250000D03*
X162560000Y-117650000D03*
X162560000Y-115110000D03*
X162560000Y-110030000D03*
X162560000Y-104950000D03*
X162560000Y-102410000D03*
X162560000Y-99870000D03*
X142240000Y-115110000D03*
X142240000Y-112570000D03*
%TD*%
D19*
%TO.C,J13*%
X125583433Y-65785280D03*
D20*
X123787382Y-67581331D03*
X121991331Y-69377382D03*
X120195279Y-71173434D03*
X118399228Y-72969485D03*
X116603177Y-74765536D03*
%TD*%
D21*
%TO.C,J2*%
X158770000Y-57295000D03*
D22*
X156230000Y-57295000D03*
X153690000Y-57295000D03*
X151150000Y-57295000D03*
X148610000Y-57295000D03*
X146070000Y-57295000D03*
%TD*%
D23*
%TO.C,J11*%
X179267352Y-137414462D03*
D24*
X181063403Y-135618411D03*
X182859454Y-133822360D03*
X184655506Y-132026308D03*
X186451557Y-130230257D03*
X188247608Y-128434206D03*
%TD*%
D25*
%TO.C,J1*%
X169278558Y-147185695D03*
X163747443Y-148863540D03*
D26*
X171715230Y-150292128D03*
D27*
X170501840Y-146292117D03*
D26*
X163447266Y-152800188D03*
D27*
X162233876Y-148800177D03*
%TD*%
D21*
%TO.C,J3*%
X196730264Y-107944480D03*
D22*
X196730264Y-105404480D03*
X196730264Y-102864480D03*
X196730264Y-100324480D03*
X196730264Y-97784480D03*
X196730264Y-95244480D03*
%TD*%
D28*
%TO.C,SW1*%
X144073727Y-150785737D03*
X151049972Y-151472837D03*
D29*
X145073645Y-153386268D03*
X149551976Y-153827345D03*
%TD*%
D30*
%TO.C,J7*%
X190929780Y-124416266D03*
D31*
X191901796Y-122069612D03*
X192873812Y-119722958D03*
X193845828Y-117376304D03*
X194817844Y-115029650D03*
X195789860Y-112682996D03*
%TD*%
D32*
%TO.C,J23*%
X146110000Y-63470000D03*
D33*
X148610000Y-63470000D03*
X151110000Y-63470000D03*
X153610000Y-63470000D03*
X156110000Y-63470000D03*
X158610000Y-63470000D03*
%TD*%
D34*
%TO.C,J9*%
X113921005Y-78783477D03*
D35*
X112948989Y-81130131D03*
X111976973Y-83476785D03*
X111004957Y-85823439D03*
X110032941Y-88170093D03*
X109060925Y-90516747D03*
%TD*%
D36*
%TO.C,J19*%
X162760000Y-130785000D03*
D37*
X155260000Y-130785000D03*
D38*
X161410000Y-132935000D03*
X161410000Y-128635000D03*
X156610000Y-132935000D03*
X156610000Y-128635000D03*
%TD*%
D39*
%TO.C,J16*%
X163518479Y-144960212D03*
D40*
X165865133Y-143988196D03*
X168211787Y-143016180D03*
X170558441Y-142044164D03*
X172905095Y-141072148D03*
X175251749Y-140100132D03*
%TD*%
D25*
%TO.C,J20*%
X141112161Y-148866215D03*
X135581046Y-147188370D03*
D41*
X141412338Y-152802863D03*
D42*
X142625728Y-148802852D03*
D41*
X133144374Y-150294803D03*
D42*
X134357764Y-146294792D03*
%TD*%
D43*
%TO.C,J12*%
X116610802Y-128441831D03*
D44*
X118406853Y-130237882D03*
X120202904Y-132033933D03*
X121998956Y-133829985D03*
X123795007Y-135626036D03*
X125591058Y-137422087D03*
%TD*%
D45*
%TO.C,J8*%
X129608998Y-140104259D03*
D46*
X131955652Y-141076275D03*
X134302306Y-142048291D03*
X136648960Y-143020307D03*
X138995614Y-143992323D03*
X141342268Y-144964339D03*
%TD*%
D21*
%TO.C,J5*%
X108120521Y-95255263D03*
D22*
X108120521Y-97795263D03*
X108120521Y-100335263D03*
X108120521Y-102875263D03*
X108120521Y-105415263D03*
X108120521Y-107955263D03*
%TD*%
D47*
%TO.C,J15*%
X195785733Y-90506785D03*
D48*
X194813717Y-88160131D03*
X193841701Y-85813477D03*
X192869685Y-83466823D03*
X191897669Y-81120169D03*
X190925653Y-78773515D03*
%TD*%
D49*
%TO.C,J18*%
X141332307Y-58239530D03*
D50*
X138985653Y-59211546D03*
X136638999Y-60183562D03*
X134292345Y-61155578D03*
X131945691Y-62127594D03*
X129599037Y-63099610D03*
%TD*%
D51*
%TO.C,J6*%
X175241786Y-63095484D03*
D52*
X172895132Y-62123468D03*
X170548478Y-61151452D03*
X168201824Y-60179436D03*
X165855170Y-59207420D03*
X163508516Y-58235404D03*
%TD*%
D21*
%TO.C,J4*%
X146080784Y-145904743D03*
D22*
X148620784Y-145904743D03*
X151160784Y-145904743D03*
X153700784Y-145904743D03*
X156240784Y-145904743D03*
X158780784Y-145904743D03*
%TD*%
D53*
%TO.C,J17*%
X109065052Y-112692958D03*
D54*
X110037068Y-115039612D03*
X111009084Y-117386266D03*
X111981100Y-119732920D03*
X112953116Y-122079574D03*
X113925132Y-124426228D03*
%TD*%
D28*
%TO.C,SW2*%
X153829887Y-151469973D03*
X160806132Y-150782873D03*
D29*
X155317931Y-153825462D03*
X159796262Y-153384385D03*
%TD*%
D36*
%TO.C,J14*%
X148680000Y-76610000D03*
D37*
X156180000Y-76610000D03*
D38*
X150030000Y-74460000D03*
X150030000Y-78760000D03*
X154830000Y-74460000D03*
X154830000Y-78760000D03*
%TD*%
D55*
%TO.C,J10*%
X188239983Y-74757912D03*
D56*
X186443932Y-72961861D03*
X184647881Y-71165810D03*
X182851829Y-69369758D03*
X181055778Y-67573707D03*
X179259727Y-65777656D03*
%TD*%
D32*
%TO.C,J22*%
X146100000Y-69660000D03*
D33*
X148600000Y-69660000D03*
X151100000Y-69660000D03*
X153600000Y-69660000D03*
X156100000Y-69660000D03*
X158600000Y-69660000D03*
%TD*%
M02*
