%TF.GenerationSoftware,KiCad,Pcbnew,7.0.11*%
%TF.CreationDate,2025-01-20T01:56:26+09:00*%
%TF.ProjectId,Main,4d61696e-2e6b-4696-9361-645f70636258,rev?*%
%TF.SameCoordinates,Original*%
%TF.FileFunction,Soldermask,Bot*%
%TF.FilePolarity,Negative*%
%FSLAX46Y46*%
G04 Gerber Fmt 4.6, Leading zero omitted, Abs format (unit mm)*
G04 Created by KiCad (PCBNEW 7.0.11) date 2025-01-20 01:56:26*
%MOMM*%
%LPD*%
G01*
G04 APERTURE LIST*
G04 Aperture macros list*
%AMRoundRect*
0 Rectangle with rounded corners*
0 $1 Rounding radius*
0 $2 $3 $4 $5 $6 $7 $8 $9 X,Y pos of 4 corners*
0 Add a 4 corners polygon primitive as box body*
4,1,4,$2,$3,$4,$5,$6,$7,$8,$9,$2,$3,0*
0 Add four circle primitives for the rounded corners*
1,1,$1+$1,$2,$3*
1,1,$1+$1,$4,$5*
1,1,$1+$1,$6,$7*
1,1,$1+$1,$8,$9*
0 Add four rect primitives between the rounded corners*
20,1,$1+$1,$2,$3,$4,$5,0*
20,1,$1+$1,$4,$5,$6,$7,0*
20,1,$1+$1,$6,$7,$8,$9,0*
20,1,$1+$1,$8,$9,$2,$3,0*%
%AMHorizOval*
0 Thick line with rounded ends*
0 $1 width*
0 $2 $3 position (X,Y) of the first rounded end (center of the circle)*
0 $4 $5 position (X,Y) of the second rounded end (center of the circle)*
0 Add line between two ends*
20,1,$1,$2,$3,$4,$5,0*
0 Add two circle primitives to create the rounded ends*
1,1,$1,$2,$3*
1,1,$1,$4,$5*%
%AMRotRect*
0 Rectangle, with rotation*
0 The origin of the aperture is its center*
0 $1 length*
0 $2 width*
0 $3 Rotation angle, in degrees counterclockwise*
0 Add horizontal line*
21,1,$1,$2,0,0,$3*%
G04 Aperture macros list end*
%ADD10C,3.200000*%
%ADD11C,2.000000*%
%ADD12RoundRect,0.250000X-0.725000X0.600000X-0.725000X-0.600000X0.725000X-0.600000X0.725000X0.600000X0*%
%ADD13O,1.950000X1.700000*%
%ADD14R,1.600000X1.600000*%
%ADD15C,1.600000*%
%ADD16C,1.700000*%
%ADD17RoundRect,0.135000X0.185000X-0.135000X0.185000X0.135000X-0.185000X0.135000X-0.185000X-0.135000X0*%
%ADD18RoundRect,0.140000X0.140000X0.170000X-0.140000X0.170000X-0.140000X-0.170000X0.140000X-0.170000X0*%
%ADD19RotRect,1.700000X1.700000X135.000000*%
%ADD20HorizOval,1.700000X0.000000X0.000000X0.000000X0.000000X0*%
%ADD21RoundRect,0.140000X-0.140000X-0.170000X0.140000X-0.170000X0.140000X0.170000X-0.140000X0.170000X0*%
%ADD22RoundRect,0.135000X0.035355X-0.226274X0.226274X-0.035355X-0.035355X0.226274X-0.226274X0.035355X0*%
%ADD23R,1.700000X1.700000*%
%ADD24O,1.700000X1.700000*%
%ADD25RoundRect,0.135000X0.226274X0.035355X0.035355X0.226274X-0.226274X-0.035355X-0.035355X-0.226274X0*%
%ADD26RotRect,1.700000X1.700000X315.000000*%
%ADD27HorizOval,1.700000X0.000000X0.000000X0.000000X0.000000X0*%
%ADD28RoundRect,0.135000X-0.135000X-0.185000X0.135000X-0.185000X0.135000X0.185000X-0.135000X0.185000X0*%
%ADD29RoundRect,0.050000X0.050000X-0.387500X0.050000X0.387500X-0.050000X0.387500X-0.050000X-0.387500X0*%
%ADD30RoundRect,0.050000X0.387500X-0.050000X0.387500X0.050000X-0.387500X0.050000X-0.387500X-0.050000X0*%
%ADD31R,3.200000X3.200000*%
%ADD32C,0.650000*%
%ADD33RoundRect,0.150000X0.020170X0.450242X-0.266912X0.363157X-0.020170X-0.450242X0.266912X-0.363157X0*%
%ADD34RoundRect,0.075000X-0.073372X0.500242X-0.216913X0.456699X0.073372X-0.500242X0.216913X-0.456699X0*%
%ADD35HorizOval,1.000000X-0.116114X0.382776X0.116114X-0.382776X0*%
%ADD36HorizOval,1.000000X-0.159657X0.526317X0.159657X-0.526317X0*%
%ADD37C,2.100000*%
%ADD38C,1.750000*%
%ADD39R,1.000000X1.150000*%
%ADD40RoundRect,0.140000X-0.170000X0.140000X-0.170000X-0.140000X0.170000X-0.140000X0.170000X0.140000X0*%
%ADD41RoundRect,0.135000X0.135000X0.185000X-0.135000X0.185000X-0.135000X-0.185000X0.135000X-0.185000X0*%
%ADD42RotRect,1.700000X1.700000X337.500000*%
%ADD43HorizOval,1.700000X0.000000X0.000000X0.000000X0.000000X0*%
%ADD44RoundRect,0.250000X-0.600000X-0.725000X0.600000X-0.725000X0.600000X0.725000X-0.600000X0.725000X0*%
%ADD45O,1.700000X1.950000*%
%ADD46RotRect,1.700000X1.700000X157.500000*%
%ADD47HorizOval,1.700000X0.000000X0.000000X0.000000X0.000000X0*%
%ADD48C,0.660000*%
%ADD49O,1.000000X0.580000*%
%ADD50R,0.300000X0.850000*%
%ADD51C,1.100000*%
%ADD52RoundRect,0.250000X0.850000X0.350000X-0.850000X0.350000X-0.850000X-0.350000X0.850000X-0.350000X0*%
%ADD53RoundRect,0.249997X2.950003X2.650003X-2.950003X2.650003X-2.950003X-2.650003X2.950003X-2.650003X0*%
%ADD54RoundRect,0.150000X0.650000X0.150000X-0.650000X0.150000X-0.650000X-0.150000X0.650000X-0.150000X0*%
%ADD55RoundRect,0.150000X0.266912X0.363157X-0.020170X0.450242X-0.266912X-0.363157X0.020170X-0.450242X0*%
%ADD56RoundRect,0.075000X0.216913X0.456699X0.073372X0.500242X-0.216913X-0.456699X-0.073372X-0.500242X0*%
%ADD57HorizOval,1.000000X0.116114X0.382776X-0.116114X-0.382776X0*%
%ADD58HorizOval,1.000000X0.159657X0.526317X-0.159657X-0.526317X0*%
%ADD59RotRect,1.700000X1.700000X225.000000*%
%ADD60HorizOval,1.700000X0.000000X0.000000X0.000000X0.000000X0*%
%ADD61RotRect,1.700000X1.700000X22.500000*%
%ADD62HorizOval,1.700000X0.000000X0.000000X0.000000X0.000000X0*%
%ADD63RoundRect,0.250000X1.100000X-0.412500X1.100000X0.412500X-1.100000X0.412500X-1.100000X-0.412500X0*%
%ADD64RotRect,1.700000X1.700000X112.500000*%
%ADD65HorizOval,1.700000X0.000000X0.000000X0.000000X0.000000X0*%
%ADD66RotRect,1.700000X1.700000X67.500000*%
%ADD67HorizOval,1.700000X0.000000X0.000000X0.000000X0.000000X0*%
%ADD68RotRect,1.700000X1.700000X202.500000*%
%ADD69HorizOval,1.700000X0.000000X0.000000X0.000000X0.000000X0*%
%ADD70RotRect,1.700000X1.700000X45.000000*%
%ADD71HorizOval,1.700000X0.000000X0.000000X0.000000X0.000000X0*%
%ADD72RoundRect,0.250000X0.412500X1.100000X-0.412500X1.100000X-0.412500X-1.100000X0.412500X-1.100000X0*%
G04 APERTURE END LIST*
D10*
%TO.C,REF\u002A\u002A*%
X189550000Y-64490000D03*
%TD*%
%TO.C,REF\u002A\u002A*%
X99920000Y-101600000D03*
%TD*%
D11*
%TO.C,SW3*%
X173460000Y-72020000D03*
X166960000Y-72020000D03*
X173460000Y-67520000D03*
X166960000Y-67520000D03*
%TD*%
D10*
%TO.C,REF\u002A\u002A*%
X115300000Y-64480000D03*
%TD*%
%TO.C,REF\u002A\u002A*%
X166760000Y-126410000D03*
%TD*%
%TO.C,REF\u002A\u002A*%
X204920000Y-101600000D03*
%TD*%
%TO.C,REF\u002A\u002A*%
X181080000Y-101590000D03*
%TD*%
D12*
%TO.C,J21*%
X167975000Y-111130000D03*
D13*
X167975000Y-113630000D03*
X167975000Y-116130000D03*
X167975000Y-118630000D03*
%TD*%
D10*
%TO.C,REF\u002A\u002A*%
X115310000Y-138720000D03*
%TD*%
%TO.C,REF\u002A\u002A*%
X138090000Y-76790000D03*
%TD*%
%TO.C,REF\u002A\u002A*%
X138100000Y-126400000D03*
%TD*%
%TO.C,REF\u002A\u002A*%
X166750000Y-76780000D03*
%TD*%
%TO.C,REF\u002A\u002A*%
X152420000Y-49100000D03*
%TD*%
D14*
%TO.C,U6*%
X148595000Y-97790000D03*
D15*
X148595000Y-100330000D03*
X148595000Y-102870000D03*
X148595000Y-105410000D03*
X156215000Y-105410000D03*
X156215000Y-102870000D03*
X156215000Y-100330000D03*
X156215000Y-97790000D03*
%TD*%
D10*
%TO.C,REF\u002A\u002A*%
X123780000Y-101600000D03*
%TD*%
D16*
%TO.C,U5*%
X162560000Y-112570000D03*
X160020000Y-117650000D03*
X144780000Y-115110000D03*
X142240000Y-110030000D03*
X142240000Y-107490000D03*
X142240000Y-89710000D03*
X160020000Y-115110000D03*
X160020000Y-112570000D03*
X160020000Y-110030000D03*
X160020000Y-107490000D03*
X160020000Y-104950000D03*
X160020000Y-102410000D03*
X160020000Y-99870000D03*
X160020000Y-97330000D03*
X160020000Y-94790000D03*
X160020000Y-92250000D03*
X160020000Y-89710000D03*
X160020000Y-87170000D03*
X160020000Y-84630000D03*
X162560000Y-84630000D03*
X142240000Y-87170000D03*
X142240000Y-84630000D03*
X144780000Y-84630000D03*
X144780000Y-87170000D03*
X144780000Y-89710000D03*
X144780000Y-92250000D03*
X144780000Y-94790000D03*
X144780000Y-97330000D03*
X144780000Y-99870000D03*
X144780000Y-102410000D03*
X144780000Y-104950000D03*
X144780000Y-107490000D03*
X144780000Y-110030000D03*
X162560000Y-107490000D03*
X144780000Y-112570000D03*
X142240000Y-92250000D03*
X144780000Y-117650000D03*
X142240000Y-117650000D03*
X142240000Y-94790000D03*
X142240000Y-102410000D03*
X142240000Y-99870000D03*
X142240000Y-104950000D03*
X142240000Y-97330000D03*
X162560000Y-97330000D03*
X162560000Y-87170000D03*
X162560000Y-94790000D03*
X162560000Y-89710000D03*
X162560000Y-92250000D03*
X162560000Y-117650000D03*
X162560000Y-115110000D03*
X162560000Y-110030000D03*
X162560000Y-104950000D03*
X162560000Y-102410000D03*
X162560000Y-99870000D03*
X142240000Y-115110000D03*
X142240000Y-112570000D03*
%TD*%
D17*
%TO.C,R1*%
X156130000Y-142520000D03*
X156130000Y-141500000D03*
%TD*%
D18*
%TO.C,C10*%
X146108000Y-141480000D03*
X145148000Y-141480000D03*
%TD*%
D19*
%TO.C,J13*%
X125583433Y-65785280D03*
D20*
X123787382Y-67581331D03*
X121991331Y-69377382D03*
X120195279Y-71173434D03*
X118399228Y-72969485D03*
X116603177Y-74765536D03*
%TD*%
D21*
%TO.C,C2*%
X139440000Y-134720000D03*
X140400000Y-134720000D03*
%TD*%
D22*
%TO.C,R3*%
X167309376Y-140760624D03*
X168030624Y-140039376D03*
%TD*%
D23*
%TO.C,J2*%
X158770000Y-57295000D03*
D24*
X156230000Y-57295000D03*
X153690000Y-57295000D03*
X151150000Y-57295000D03*
X148610000Y-57295000D03*
X146070000Y-57295000D03*
%TD*%
D25*
%TO.C,R10*%
X135500624Y-139910624D03*
X134779376Y-139189376D03*
%TD*%
D26*
%TO.C,J11*%
X179267352Y-137414462D03*
D27*
X181063403Y-135618411D03*
X182859454Y-133822360D03*
X184655506Y-132026308D03*
X186451557Y-130230257D03*
X188247608Y-128434206D03*
%TD*%
D28*
%TO.C,R8*%
X148740000Y-141478000D03*
X149760000Y-141478000D03*
%TD*%
D25*
%TO.C,R9*%
X140870624Y-142170624D03*
X140149376Y-141449376D03*
%TD*%
D29*
%TO.C,U2*%
X150546500Y-139559500D03*
X150146500Y-139559500D03*
X149746500Y-139559500D03*
X149346500Y-139559500D03*
X148946500Y-139559500D03*
X148546500Y-139559500D03*
X148146500Y-139559500D03*
X147746500Y-139559500D03*
X147346500Y-139559500D03*
X146946500Y-139559500D03*
X146546500Y-139559500D03*
X146146500Y-139559500D03*
X145746500Y-139559500D03*
X145346500Y-139559500D03*
D30*
X144509000Y-138722000D03*
X144509000Y-138322000D03*
X144509000Y-137922000D03*
X144509000Y-137522000D03*
X144509000Y-137122000D03*
X144509000Y-136722000D03*
X144509000Y-136322000D03*
X144509000Y-135922000D03*
X144509000Y-135522000D03*
X144509000Y-135122000D03*
X144509000Y-134722000D03*
X144509000Y-134322000D03*
X144509000Y-133922000D03*
X144509000Y-133522000D03*
D29*
X145346500Y-132684500D03*
X145746500Y-132684500D03*
X146146500Y-132684500D03*
X146546500Y-132684500D03*
X146946500Y-132684500D03*
X147346500Y-132684500D03*
X147746500Y-132684500D03*
X148146500Y-132684500D03*
X148546500Y-132684500D03*
X148946500Y-132684500D03*
X149346500Y-132684500D03*
X149746500Y-132684500D03*
X150146500Y-132684500D03*
X150546500Y-132684500D03*
D30*
X151384000Y-133522000D03*
X151384000Y-133922000D03*
X151384000Y-134322000D03*
X151384000Y-134722000D03*
X151384000Y-135122000D03*
X151384000Y-135522000D03*
X151384000Y-135922000D03*
X151384000Y-136322000D03*
X151384000Y-136722000D03*
X151384000Y-137122000D03*
X151384000Y-137522000D03*
X151384000Y-137922000D03*
X151384000Y-138322000D03*
X151384000Y-138722000D03*
D31*
X147946500Y-136122000D03*
%TD*%
D32*
%TO.C,J1*%
X169278558Y-147185695D03*
X163747443Y-148863540D03*
D33*
X169263153Y-146066996D03*
X168497601Y-146299223D03*
D34*
X167397120Y-146633051D03*
X166440179Y-146923335D03*
X165961709Y-147068478D03*
X165004769Y-147358762D03*
D33*
X163904288Y-147692590D03*
X163138735Y-147924818D03*
X163138735Y-147924818D03*
X163904288Y-147692590D03*
D34*
X164526299Y-147503905D03*
X165483239Y-147213620D03*
X166918650Y-146778193D03*
X167875590Y-146487908D03*
D33*
X168497601Y-146299223D03*
X169263153Y-146066996D03*
D35*
X171715230Y-150292128D03*
D36*
X170501840Y-146292117D03*
D35*
X163447266Y-152800188D03*
D36*
X162233876Y-148800177D03*
%TD*%
D23*
%TO.C,J3*%
X196730264Y-107944480D03*
D24*
X196730264Y-105404480D03*
X196730264Y-102864480D03*
X196730264Y-100324480D03*
X196730264Y-97784480D03*
X196730264Y-95244480D03*
%TD*%
D21*
%TO.C,C11*%
X150770000Y-131490000D03*
X151730000Y-131490000D03*
%TD*%
D37*
%TO.C,SW1*%
X144073727Y-150785737D03*
X151049972Y-151472837D03*
D38*
X145073645Y-153386268D03*
X149551976Y-153827345D03*
%TD*%
D39*
%TO.C,Y1*%
X140390000Y-135985000D03*
X140390000Y-137735000D03*
X138990000Y-137735000D03*
X138990000Y-135985000D03*
%TD*%
D40*
%TO.C,C5*%
X133930000Y-113110000D03*
X133930000Y-114070000D03*
%TD*%
D25*
%TO.C,R11*%
X139380624Y-140700624D03*
X138659376Y-139979376D03*
%TD*%
D40*
%TO.C,C6*%
X130620000Y-120300000D03*
X130620000Y-121260000D03*
%TD*%
D41*
%TO.C,R2*%
X142750000Y-136040000D03*
X141730000Y-136040000D03*
%TD*%
D25*
%TO.C,R4*%
X162730000Y-143470000D03*
X162008752Y-142748752D03*
%TD*%
D42*
%TO.C,J7*%
X190929780Y-124416266D03*
D43*
X191901796Y-122069612D03*
X192873812Y-119722958D03*
X193845828Y-117376304D03*
X194817844Y-115029650D03*
X195789860Y-112682996D03*
%TD*%
D21*
%TO.C,C12*%
X152520000Y-133720000D03*
X153480000Y-133720000D03*
%TD*%
D44*
%TO.C,J23*%
X146110000Y-63470000D03*
D45*
X148610000Y-63470000D03*
X151110000Y-63470000D03*
X153610000Y-63470000D03*
X156110000Y-63470000D03*
X158610000Y-63470000D03*
%TD*%
D22*
%TO.C,R5*%
X165079376Y-142380624D03*
X165800624Y-141659376D03*
%TD*%
D21*
%TO.C,C8*%
X153220000Y-136360000D03*
X154180000Y-136360000D03*
%TD*%
D46*
%TO.C,J9*%
X113921005Y-78783477D03*
D47*
X112948989Y-81130131D03*
X111976973Y-83476785D03*
X111004957Y-85823439D03*
X110032941Y-88170093D03*
X109060925Y-90516747D03*
%TD*%
D48*
%TO.C,J19*%
X162760000Y-130785000D03*
D49*
X155260000Y-130785000D03*
D50*
X161760000Y-129950000D03*
X161260000Y-129950000D03*
X160760000Y-129950000D03*
X160260000Y-129950000D03*
X159760000Y-129950000D03*
X159260000Y-129950000D03*
X158760000Y-129950000D03*
X158260000Y-129950000D03*
X157760000Y-129950000D03*
X157260000Y-129950000D03*
X156760000Y-129950000D03*
X156260000Y-129950000D03*
X156260000Y-131620000D03*
X156760000Y-131620000D03*
X157260000Y-131620000D03*
X157760000Y-131620000D03*
X158260000Y-131620000D03*
X158760000Y-131620000D03*
X159260000Y-131620000D03*
X159760000Y-131620000D03*
X160260000Y-131620000D03*
X160760000Y-131620000D03*
X161260000Y-131620000D03*
X161760000Y-131620000D03*
D51*
X161410000Y-132935000D03*
X161410000Y-128635000D03*
X156610000Y-132935000D03*
X156610000Y-128635000D03*
%TD*%
D52*
%TO.C,U3*%
X133930000Y-115922500D03*
X133930000Y-111362500D03*
D53*
X127630000Y-113642500D03*
%TD*%
D18*
%TO.C,C7*%
X142720000Y-135020000D03*
X141760000Y-135020000D03*
%TD*%
D17*
%TO.C,R14*%
X146350000Y-99850000D03*
X146350000Y-98830000D03*
%TD*%
D54*
%TO.C,U1*%
X162960500Y-136113500D03*
X162960500Y-137383500D03*
X162960500Y-138653500D03*
X162960500Y-139923500D03*
X155760500Y-139923500D03*
X155760500Y-138653500D03*
X155760500Y-137383500D03*
X155760500Y-136113500D03*
%TD*%
D52*
%TO.C,U4*%
X130625000Y-123105000D03*
X130625000Y-118545000D03*
D53*
X124325000Y-120825000D03*
%TD*%
D40*
%TO.C,C1*%
X141770000Y-136940000D03*
X141770000Y-137900000D03*
%TD*%
D32*
%TO.C,J20*%
X141112161Y-148866215D03*
X135581046Y-147188370D03*
D55*
X141720869Y-147927493D03*
X140955316Y-147695265D03*
D56*
X139854835Y-147361437D03*
X138897895Y-147071153D03*
X138419425Y-146926010D03*
X137462484Y-146635726D03*
D55*
X136362003Y-146301898D03*
X135596451Y-146069671D03*
X135596451Y-146069671D03*
X136362003Y-146301898D03*
D56*
X136984014Y-146490583D03*
X137940954Y-146780868D03*
X139376365Y-147216295D03*
X140333305Y-147506580D03*
D55*
X140955316Y-147695265D03*
X141720869Y-147927493D03*
D57*
X141412338Y-152802863D03*
D58*
X142625728Y-148802852D03*
D57*
X133144374Y-150294803D03*
D58*
X134357764Y-146294792D03*
%TD*%
D59*
%TO.C,J12*%
X116610802Y-128441831D03*
D60*
X118406853Y-130237882D03*
X120202904Y-132033933D03*
X121998956Y-133829985D03*
X123795007Y-135626036D03*
X125591058Y-137422087D03*
%TD*%
D41*
%TO.C,R7*%
X147970000Y-141478000D03*
X146950000Y-141478000D03*
%TD*%
D22*
%TO.C,R6*%
X163977376Y-142092624D03*
X164698624Y-141371376D03*
%TD*%
D23*
%TO.C,J5*%
X108120521Y-95255263D03*
D24*
X108120521Y-97795263D03*
X108120521Y-100335263D03*
X108120521Y-102875263D03*
X108120521Y-105415263D03*
X108120521Y-107955263D03*
%TD*%
D61*
%TO.C,J15*%
X195785733Y-90506785D03*
D62*
X194813717Y-88160131D03*
X193841701Y-85813477D03*
X192869685Y-83466823D03*
X191897669Y-81120169D03*
X190925653Y-78773515D03*
%TD*%
D63*
%TO.C,C4*%
X122450000Y-111332500D03*
X122450000Y-108207500D03*
%TD*%
D64*
%TO.C,J18*%
X141332307Y-58239530D03*
D65*
X138985653Y-59211546D03*
X136638999Y-60183562D03*
X134292345Y-61155578D03*
X131945691Y-62127594D03*
X129599037Y-63099610D03*
%TD*%
D66*
%TO.C,J6*%
X175241786Y-63095484D03*
D67*
X172895132Y-62123468D03*
X170548478Y-61151452D03*
X168201824Y-60179436D03*
X165855170Y-59207420D03*
X163508516Y-58235404D03*
%TD*%
D68*
%TO.C,J17*%
X109065052Y-112692958D03*
D69*
X110037068Y-115039612D03*
X111009084Y-117386266D03*
X111981100Y-119732920D03*
X112953116Y-122079574D03*
X113925132Y-124426228D03*
%TD*%
D17*
%TO.C,R13*%
X146350000Y-97340000D03*
X146350000Y-96320000D03*
%TD*%
D25*
%TO.C,R12*%
X138120624Y-140950624D03*
X137399376Y-140229376D03*
%TD*%
D37*
%TO.C,SW2*%
X153829887Y-151469973D03*
X160806132Y-150782873D03*
D38*
X155317931Y-153825462D03*
X159796262Y-153384385D03*
%TD*%
D21*
%TO.C,C9*%
X153220000Y-135530000D03*
X154180000Y-135530000D03*
%TD*%
D48*
%TO.C,J14*%
X148680000Y-76610000D03*
D49*
X156180000Y-76610000D03*
D50*
X149680000Y-77445000D03*
X150180000Y-77445000D03*
X150680000Y-77445000D03*
X151180000Y-77445000D03*
X151680000Y-77445000D03*
X152180000Y-77445000D03*
X152680000Y-77445000D03*
X153180000Y-77445000D03*
X153680000Y-77445000D03*
X154180000Y-77445000D03*
X154680000Y-77445000D03*
X155180000Y-77445000D03*
X155180000Y-75775000D03*
X154680000Y-75775000D03*
X154180000Y-75775000D03*
X153680000Y-75775000D03*
X153180000Y-75775000D03*
X152680000Y-75775000D03*
X152180000Y-75775000D03*
X151680000Y-75775000D03*
X151180000Y-75775000D03*
X150680000Y-75775000D03*
X150180000Y-75775000D03*
X149680000Y-75775000D03*
D51*
X150030000Y-74460000D03*
X150030000Y-78760000D03*
X154830000Y-74460000D03*
X154830000Y-78760000D03*
%TD*%
D70*
%TO.C,J10*%
X188239983Y-74757912D03*
D71*
X186443932Y-72961861D03*
X184647881Y-71165810D03*
X182851829Y-69369758D03*
X181055778Y-67573707D03*
X179259727Y-65777656D03*
%TD*%
D44*
%TO.C,J22*%
X146100000Y-69660000D03*
D45*
X148600000Y-69660000D03*
X151100000Y-69660000D03*
X153600000Y-69660000D03*
X156100000Y-69660000D03*
X158600000Y-69660000D03*
%TD*%
D72*
%TO.C,C3*%
X121612500Y-115540000D03*
X118487500Y-115540000D03*
%TD*%
M02*
