%TF.GenerationSoftware,KiCad,Pcbnew,7.0.11*%
%TF.CreationDate,2025-01-20T01:56:26+09:00*%
%TF.ProjectId,Main,4d61696e-2e6b-4696-9361-645f70636258,rev?*%
%TF.SameCoordinates,Original*%
%TF.FileFunction,Paste,Bot*%
%TF.FilePolarity,Positive*%
%FSLAX46Y46*%
G04 Gerber Fmt 4.6, Leading zero omitted, Abs format (unit mm)*
G04 Created by KiCad (PCBNEW 7.0.11) date 2025-01-20 01:56:26*
%MOMM*%
%LPD*%
G01*
G04 APERTURE LIST*
G04 Aperture macros list*
%AMRoundRect*
0 Rectangle with rounded corners*
0 $1 Rounding radius*
0 $2 $3 $4 $5 $6 $7 $8 $9 X,Y pos of 4 corners*
0 Add a 4 corners polygon primitive as box body*
4,1,4,$2,$3,$4,$5,$6,$7,$8,$9,$2,$3,0*
0 Add four circle primitives for the rounded corners*
1,1,$1+$1,$2,$3*
1,1,$1+$1,$4,$5*
1,1,$1+$1,$6,$7*
1,1,$1+$1,$8,$9*
0 Add four rect primitives between the rounded corners*
20,1,$1+$1,$2,$3,$4,$5,0*
20,1,$1+$1,$4,$5,$6,$7,0*
20,1,$1+$1,$6,$7,$8,$9,0*
20,1,$1+$1,$8,$9,$2,$3,0*%
%AMHorizOval*
0 Thick line with rounded ends*
0 $1 width*
0 $2 $3 position (X,Y) of the first rounded end (center of the circle)*
0 $4 $5 position (X,Y) of the second rounded end (center of the circle)*
0 Add line between two ends*
20,1,$1,$2,$3,$4,$5,0*
0 Add two circle primitives to create the rounded ends*
1,1,$1,$2,$3*
1,1,$1,$4,$5*%
G04 Aperture macros list end*
%ADD10RoundRect,0.135000X0.185000X-0.135000X0.185000X0.135000X-0.185000X0.135000X-0.185000X-0.135000X0*%
%ADD11RoundRect,0.140000X0.140000X0.170000X-0.140000X0.170000X-0.140000X-0.170000X0.140000X-0.170000X0*%
%ADD12RoundRect,0.140000X-0.140000X-0.170000X0.140000X-0.170000X0.140000X0.170000X-0.140000X0.170000X0*%
%ADD13RoundRect,0.135000X0.035355X-0.226274X0.226274X-0.035355X-0.035355X0.226274X-0.226274X0.035355X0*%
%ADD14RoundRect,0.135000X0.226274X0.035355X0.035355X0.226274X-0.226274X-0.035355X-0.035355X-0.226274X0*%
%ADD15RoundRect,0.135000X-0.135000X-0.185000X0.135000X-0.185000X0.135000X0.185000X-0.135000X0.185000X0*%
%ADD16RoundRect,0.249999X0.395001X-0.395001X0.395001X0.395001X-0.395001X0.395001X-0.395001X-0.395001X0*%
%ADD17RoundRect,0.050000X0.050000X-0.387500X0.050000X0.387500X-0.050000X0.387500X-0.050000X-0.387500X0*%
%ADD18RoundRect,0.050000X0.387500X-0.050000X0.387500X0.050000X-0.387500X0.050000X-0.387500X-0.050000X0*%
%ADD19RoundRect,0.150000X0.020170X0.450242X-0.266912X0.363157X-0.020170X-0.450242X0.266912X-0.363157X0*%
%ADD20RoundRect,0.075000X-0.073372X0.500242X-0.216913X0.456699X0.073372X-0.500242X0.216913X-0.456699X0*%
%ADD21HorizOval,1.000000X-0.116114X0.382776X0.116114X-0.382776X0*%
%ADD22HorizOval,1.000000X-0.159657X0.526317X0.159657X-0.526317X0*%
%ADD23R,1.000000X1.150000*%
%ADD24RoundRect,0.140000X-0.170000X0.140000X-0.170000X-0.140000X0.170000X-0.140000X0.170000X0.140000X0*%
%ADD25RoundRect,0.135000X0.135000X0.185000X-0.135000X0.185000X-0.135000X-0.185000X0.135000X-0.185000X0*%
%ADD26R,0.300000X0.850000*%
%ADD27C,1.100000*%
%ADD28RoundRect,0.250000X0.850000X0.350000X-0.850000X0.350000X-0.850000X-0.350000X0.850000X-0.350000X0*%
%ADD29RoundRect,0.250000X1.275000X1.125000X-1.275000X1.125000X-1.275000X-1.125000X1.275000X-1.125000X0*%
%ADD30RoundRect,0.150000X0.650000X0.150000X-0.650000X0.150000X-0.650000X-0.150000X0.650000X-0.150000X0*%
%ADD31RoundRect,0.150000X0.266912X0.363157X-0.020170X0.450242X-0.266912X-0.363157X0.020170X-0.450242X0*%
%ADD32RoundRect,0.075000X0.216913X0.456699X0.073372X0.500242X-0.216913X-0.456699X-0.073372X-0.500242X0*%
%ADD33HorizOval,1.000000X0.116114X0.382776X-0.116114X-0.382776X0*%
%ADD34HorizOval,1.000000X0.159657X0.526317X-0.159657X-0.526317X0*%
%ADD35RoundRect,0.250000X1.100000X-0.412500X1.100000X0.412500X-1.100000X0.412500X-1.100000X-0.412500X0*%
%ADD36RoundRect,0.250000X0.412500X1.100000X-0.412500X1.100000X-0.412500X-1.100000X0.412500X-1.100000X0*%
G04 APERTURE END LIST*
D10*
%TO.C,R1*%
X156130000Y-142520000D03*
X156130000Y-141500000D03*
%TD*%
D11*
%TO.C,C10*%
X146108000Y-141480000D03*
X145148000Y-141480000D03*
%TD*%
D12*
%TO.C,C2*%
X139440000Y-134720000D03*
X140400000Y-134720000D03*
%TD*%
D13*
%TO.C,R3*%
X167309376Y-140760624D03*
X168030624Y-140039376D03*
%TD*%
D14*
%TO.C,R10*%
X135500624Y-139910624D03*
X134779376Y-139189376D03*
%TD*%
D15*
%TO.C,R8*%
X148740000Y-141478000D03*
X149760000Y-141478000D03*
%TD*%
D14*
%TO.C,R9*%
X140870624Y-142170624D03*
X140149376Y-141449376D03*
%TD*%
D16*
%TO.C,U2*%
X147146500Y-136922000D03*
X148746500Y-136922000D03*
X147146500Y-135322000D03*
X148746500Y-135322000D03*
D17*
X150546500Y-139559500D03*
X150146500Y-139559500D03*
X149746500Y-139559500D03*
X149346500Y-139559500D03*
X148946500Y-139559500D03*
X148546500Y-139559500D03*
X148146500Y-139559500D03*
X147746500Y-139559500D03*
X147346500Y-139559500D03*
X146946500Y-139559500D03*
X146546500Y-139559500D03*
X146146500Y-139559500D03*
X145746500Y-139559500D03*
X145346500Y-139559500D03*
D18*
X144509000Y-138722000D03*
X144509000Y-138322000D03*
X144509000Y-137922000D03*
X144509000Y-137522000D03*
X144509000Y-137122000D03*
X144509000Y-136722000D03*
X144509000Y-136322000D03*
X144509000Y-135922000D03*
X144509000Y-135522000D03*
X144509000Y-135122000D03*
X144509000Y-134722000D03*
X144509000Y-134322000D03*
X144509000Y-133922000D03*
X144509000Y-133522000D03*
D17*
X145346500Y-132684500D03*
X145746500Y-132684500D03*
X146146500Y-132684500D03*
X146546500Y-132684500D03*
X146946500Y-132684500D03*
X147346500Y-132684500D03*
X147746500Y-132684500D03*
X148146500Y-132684500D03*
X148546500Y-132684500D03*
X148946500Y-132684500D03*
X149346500Y-132684500D03*
X149746500Y-132684500D03*
X150146500Y-132684500D03*
X150546500Y-132684500D03*
D18*
X151384000Y-133522000D03*
X151384000Y-133922000D03*
X151384000Y-134322000D03*
X151384000Y-134722000D03*
X151384000Y-135122000D03*
X151384000Y-135522000D03*
X151384000Y-135922000D03*
X151384000Y-136322000D03*
X151384000Y-136722000D03*
X151384000Y-137122000D03*
X151384000Y-137522000D03*
X151384000Y-137922000D03*
X151384000Y-138322000D03*
X151384000Y-138722000D03*
%TD*%
D19*
%TO.C,J1*%
X169263153Y-146066996D03*
X168497601Y-146299223D03*
D20*
X167397120Y-146633051D03*
X166440179Y-146923335D03*
X165961709Y-147068478D03*
X165004769Y-147358762D03*
D19*
X163904288Y-147692590D03*
X163138735Y-147924818D03*
X163138735Y-147924818D03*
X163904288Y-147692590D03*
D20*
X164526299Y-147503905D03*
X165483239Y-147213620D03*
X166918650Y-146778193D03*
X167875590Y-146487908D03*
D19*
X168497601Y-146299223D03*
X169263153Y-146066996D03*
D21*
X171715230Y-150292128D03*
D22*
X170501840Y-146292117D03*
D21*
X163447266Y-152800188D03*
D22*
X162233876Y-148800177D03*
%TD*%
D12*
%TO.C,C11*%
X150770000Y-131490000D03*
X151730000Y-131490000D03*
%TD*%
D23*
%TO.C,Y1*%
X140390000Y-135985000D03*
X140390000Y-137735000D03*
X138990000Y-137735000D03*
X138990000Y-135985000D03*
%TD*%
D24*
%TO.C,C5*%
X133930000Y-113110000D03*
X133930000Y-114070000D03*
%TD*%
D14*
%TO.C,R11*%
X139380624Y-140700624D03*
X138659376Y-139979376D03*
%TD*%
D24*
%TO.C,C6*%
X130620000Y-120300000D03*
X130620000Y-121260000D03*
%TD*%
D25*
%TO.C,R2*%
X142750000Y-136040000D03*
X141730000Y-136040000D03*
%TD*%
D14*
%TO.C,R4*%
X162730000Y-143470000D03*
X162008752Y-142748752D03*
%TD*%
D12*
%TO.C,C12*%
X152520000Y-133720000D03*
X153480000Y-133720000D03*
%TD*%
D13*
%TO.C,R5*%
X165079376Y-142380624D03*
X165800624Y-141659376D03*
%TD*%
D12*
%TO.C,C8*%
X153220000Y-136360000D03*
X154180000Y-136360000D03*
%TD*%
D26*
%TO.C,J19*%
X161760000Y-129950000D03*
X161260000Y-129950000D03*
X160760000Y-129950000D03*
X160260000Y-129950000D03*
X159760000Y-129950000D03*
X159260000Y-129950000D03*
X158760000Y-129950000D03*
X158260000Y-129950000D03*
X157760000Y-129950000D03*
X157260000Y-129950000D03*
X156760000Y-129950000D03*
X156260000Y-129950000D03*
X156260000Y-131620000D03*
X156760000Y-131620000D03*
X157260000Y-131620000D03*
X157760000Y-131620000D03*
X158260000Y-131620000D03*
X158760000Y-131620000D03*
X159260000Y-131620000D03*
X159760000Y-131620000D03*
X160260000Y-131620000D03*
X160760000Y-131620000D03*
X161260000Y-131620000D03*
X161760000Y-131620000D03*
D27*
X161410000Y-132935000D03*
X161410000Y-128635000D03*
X156610000Y-132935000D03*
X156610000Y-128635000D03*
%TD*%
D28*
%TO.C,U3*%
X133930000Y-115922500D03*
X133930000Y-111362500D03*
D29*
X129305000Y-115167500D03*
X129305000Y-112117500D03*
X125955000Y-115167500D03*
X125955000Y-112117500D03*
%TD*%
D11*
%TO.C,C7*%
X142720000Y-135020000D03*
X141760000Y-135020000D03*
%TD*%
D10*
%TO.C,R14*%
X146350000Y-99850000D03*
X146350000Y-98830000D03*
%TD*%
D30*
%TO.C,U1*%
X162960500Y-136113500D03*
X162960500Y-137383500D03*
X162960500Y-138653500D03*
X162960500Y-139923500D03*
X155760500Y-139923500D03*
X155760500Y-138653500D03*
X155760500Y-137383500D03*
X155760500Y-136113500D03*
%TD*%
D28*
%TO.C,U4*%
X130625000Y-123105000D03*
X130625000Y-118545000D03*
D29*
X126000000Y-122350000D03*
X126000000Y-119300000D03*
X122650000Y-122350000D03*
X122650000Y-119300000D03*
%TD*%
D24*
%TO.C,C1*%
X141770000Y-136940000D03*
X141770000Y-137900000D03*
%TD*%
D31*
%TO.C,J20*%
X141720869Y-147927493D03*
X140955316Y-147695265D03*
D32*
X139854835Y-147361437D03*
X138897895Y-147071153D03*
X138419425Y-146926010D03*
X137462484Y-146635726D03*
D31*
X136362003Y-146301898D03*
X135596451Y-146069671D03*
X135596451Y-146069671D03*
X136362003Y-146301898D03*
D32*
X136984014Y-146490583D03*
X137940954Y-146780868D03*
X139376365Y-147216295D03*
X140333305Y-147506580D03*
D31*
X140955316Y-147695265D03*
X141720869Y-147927493D03*
D33*
X141412338Y-152802863D03*
D34*
X142625728Y-148802852D03*
D33*
X133144374Y-150294803D03*
D34*
X134357764Y-146294792D03*
%TD*%
D25*
%TO.C,R7*%
X147970000Y-141478000D03*
X146950000Y-141478000D03*
%TD*%
D13*
%TO.C,R6*%
X163977376Y-142092624D03*
X164698624Y-141371376D03*
%TD*%
D35*
%TO.C,C4*%
X122450000Y-111332500D03*
X122450000Y-108207500D03*
%TD*%
D10*
%TO.C,R13*%
X146350000Y-97340000D03*
X146350000Y-96320000D03*
%TD*%
D14*
%TO.C,R12*%
X138120624Y-140950624D03*
X137399376Y-140229376D03*
%TD*%
D12*
%TO.C,C9*%
X153220000Y-135530000D03*
X154180000Y-135530000D03*
%TD*%
D26*
%TO.C,J14*%
X149680000Y-77445000D03*
X150180000Y-77445000D03*
X150680000Y-77445000D03*
X151180000Y-77445000D03*
X151680000Y-77445000D03*
X152180000Y-77445000D03*
X152680000Y-77445000D03*
X153180000Y-77445000D03*
X153680000Y-77445000D03*
X154180000Y-77445000D03*
X154680000Y-77445000D03*
X155180000Y-77445000D03*
X155180000Y-75775000D03*
X154680000Y-75775000D03*
X154180000Y-75775000D03*
X153680000Y-75775000D03*
X153180000Y-75775000D03*
X152680000Y-75775000D03*
X152180000Y-75775000D03*
X151680000Y-75775000D03*
X151180000Y-75775000D03*
X150680000Y-75775000D03*
X150180000Y-75775000D03*
X149680000Y-75775000D03*
D27*
X150030000Y-74460000D03*
X150030000Y-78760000D03*
X154830000Y-74460000D03*
X154830000Y-78760000D03*
%TD*%
D36*
%TO.C,C3*%
X121612500Y-115540000D03*
X118487500Y-115540000D03*
%TD*%
M02*
