%TF.GenerationSoftware,KiCad,Pcbnew,7.0.11*%
%TF.CreationDate,2025-01-20T01:56:28+09:00*%
%TF.ProjectId,Main,4d61696e-2e6b-4696-9361-645f70636258,rev?*%
%TF.SameCoordinates,Original*%
%TF.FileFunction,Drillmap*%
%TF.FilePolarity,Positive*%
%FSLAX45Y45*%
G04 Gerber Fmt 4.5, Leading zero omitted, Abs format (unit mm)*
G04 Created by KiCad (PCBNEW 7.0.11) date 2025-01-20 01:56:28*
%MOMM*%
%LPD*%
G01*
G04 APERTURE LIST*
%ADD10C,0.200000*%
%ADD11C,0.100000*%
%ADD12C,0.320000*%
G04 APERTURE END LIST*
D10*
X20742539Y-10159987D02*
G75*
G03*
X9742539Y-10159987I-5500000J0D01*
G01*
X9742539Y-10159987D02*
G75*
G03*
X20742539Y-10159987I5500000J0D01*
G01*
X10152539Y-10159987D02*
G75*
G03*
X9832539Y-10159987I-160000J0D01*
G01*
X9832539Y-10159987D02*
G75*
G03*
X10152539Y-10159987I160000J0D01*
G01*
X12537439Y-10159974D02*
G75*
G03*
X12217439Y-10159974I-160000J0D01*
G01*
X12217439Y-10159974D02*
G75*
G03*
X12537439Y-10159974I160000J0D01*
G01*
X13970000Y-7678731D02*
G75*
G03*
X13650000Y-7678731I-160000J0D01*
G01*
X13650000Y-7678731D02*
G75*
G03*
X13970000Y-7678731I160000J0D01*
G01*
X11690229Y-13872298D02*
G75*
G03*
X11370229Y-13872298I-160000J0D01*
G01*
X11370229Y-13872298D02*
G75*
G03*
X11690229Y-13872298I160000J0D01*
G01*
X20652539Y-10159987D02*
G75*
G03*
X20332539Y-10159987I-160000J0D01*
G01*
X20332539Y-10159987D02*
G75*
G03*
X20652539Y-10159987I160000J0D01*
G01*
X13969978Y-12641231D02*
G75*
G03*
X13649978Y-12641231I-160000J0D01*
G01*
X13649978Y-12641231D02*
G75*
G03*
X13969978Y-12641231I160000J0D01*
G01*
X11690229Y-6447677D02*
G75*
G03*
X11370229Y-6447677I-160000J0D01*
G01*
X11370229Y-6447677D02*
G75*
G03*
X11690229Y-6447677I160000J0D01*
G01*
X16835079Y-12641244D02*
G75*
G03*
X16515079Y-12641244I-160000J0D01*
G01*
X16515079Y-12641244D02*
G75*
G03*
X16835079Y-12641244I160000J0D01*
G01*
X18267640Y-10160000D02*
G75*
G03*
X17947640Y-10160000I-160000J0D01*
G01*
X17947640Y-10160000D02*
G75*
G03*
X18267640Y-10160000I160000J0D01*
G01*
X19114850Y-13872298D02*
G75*
G03*
X18794850Y-13872298I-160000J0D01*
G01*
X18794850Y-13872298D02*
G75*
G03*
X19114850Y-13872298I160000J0D01*
G01*
X19114850Y-6447677D02*
G75*
G03*
X18794850Y-6447677I-160000J0D01*
G01*
X18794850Y-6447677D02*
G75*
G03*
X19114850Y-6447677I160000J0D01*
G01*
X15200000Y-11942000D02*
X16394000Y-11942000D01*
X16394000Y-12694000D01*
X15200000Y-12694000D01*
X15200000Y-11942000D01*
X16835101Y-7678744D02*
G75*
G03*
X16515101Y-7678744I-160000J0D01*
G01*
X16515101Y-7678744D02*
G75*
G03*
X16835101Y-7678744I160000J0D01*
G01*
X15402539Y-4909987D02*
G75*
G03*
X15082539Y-4909987I-160000J0D01*
G01*
X15082539Y-4909987D02*
G75*
G03*
X15402539Y-4909987I160000J0D01*
G01*
D11*
X15497000Y-13049500D02*
X15555000Y-13107500D01*
X15555000Y-13049500D02*
X15497000Y-13107500D01*
X15547000Y-13049500D02*
X15505000Y-13049500D01*
X15505000Y-13049500D02*
G75*
G03*
X15505000Y-13107500I0J-29000D01*
G01*
X15505000Y-13107500D02*
X15547000Y-13107500D01*
X15547000Y-13107500D02*
G75*
G03*
X15547000Y-13049500I0J29000D01*
G01*
X15589000Y-7632000D02*
X15647000Y-7690000D01*
X15647000Y-7632000D02*
X15589000Y-7690000D01*
X15597000Y-7690000D02*
X15639000Y-7690000D01*
X15639000Y-7690000D02*
G75*
G03*
X15639000Y-7632000I0J29000D01*
G01*
X15639000Y-7632000D02*
X15597000Y-7632000D01*
X15597000Y-7632000D02*
G75*
G03*
X15597000Y-7690000I0J-29000D01*
G01*
X13590605Y-14718837D02*
G75*
G03*
X13525605Y-14718837I-32500J0D01*
G01*
X13525605Y-14718837D02*
G75*
G03*
X13590605Y-14718837I32500J0D01*
G01*
X14143716Y-14886621D02*
G75*
G03*
X14078716Y-14886621I-32500J0D01*
G01*
X14078716Y-14886621D02*
G75*
G03*
X14143716Y-14886621I32500J0D01*
G01*
X16407244Y-14886354D02*
G75*
G03*
X16342244Y-14886354I-32500J0D01*
G01*
X16342244Y-14886354D02*
G75*
G03*
X16407244Y-14886354I32500J0D01*
G01*
X16960356Y-14718569D02*
G75*
G03*
X16895356Y-14718569I-32500J0D01*
G01*
X16895356Y-14718569D02*
G75*
G03*
X16960356Y-14718569I32500J0D01*
G01*
X14868000Y-7628000D02*
X14868000Y-7694000D01*
X14835000Y-7661000D02*
X14901000Y-7661000D01*
X16276000Y-13045500D02*
X16276000Y-13111500D01*
X16243000Y-13078500D02*
X16309000Y-13078500D01*
D12*
X10105138Y-10273138D02*
X10105138Y-10046862D01*
X9878862Y-10046862D01*
X9878862Y-10273138D01*
X10105138Y-10273138D01*
X11643138Y-6561138D02*
X11643138Y-6334862D01*
X11416862Y-6334862D01*
X11416862Y-6561138D01*
X11643138Y-6561138D01*
X11644138Y-13985138D02*
X11644138Y-13758862D01*
X11417862Y-13758862D01*
X11417862Y-13985138D01*
X11644138Y-13985138D01*
X12491138Y-10273138D02*
X12491138Y-10046862D01*
X12264862Y-10046862D01*
X12264862Y-10273138D01*
X12491138Y-10273138D01*
X13922138Y-7792138D02*
X13922138Y-7565862D01*
X13695862Y-7565862D01*
X13695862Y-7792138D01*
X13922138Y-7792138D01*
X13923138Y-12753138D02*
X13923138Y-12526862D01*
X13696862Y-12526862D01*
X13696862Y-12753138D01*
X13923138Y-12753138D01*
X15355138Y-5023138D02*
X15355138Y-4796862D01*
X15128862Y-4796862D01*
X15128862Y-5023138D01*
X15355138Y-5023138D01*
X16788138Y-7791138D02*
X16788138Y-7564862D01*
X16561862Y-7564862D01*
X16561862Y-7791138D01*
X16788138Y-7791138D01*
X16789138Y-12754138D02*
X16789138Y-12527862D01*
X16562862Y-12527862D01*
X16562862Y-12754138D01*
X16789138Y-12754138D01*
X18221138Y-10272138D02*
X18221138Y-10045862D01*
X17994862Y-10045862D01*
X17994862Y-10272138D01*
X18221138Y-10272138D01*
X19068138Y-6562138D02*
X19068138Y-6335862D01*
X18841862Y-6335862D01*
X18841862Y-6562138D01*
X19068138Y-6562138D01*
X20605138Y-10273138D02*
X20605138Y-10046862D01*
X20378862Y-10046862D01*
X20378862Y-10273138D01*
X20605138Y-10273138D01*
D10*
X9993316Y-15981471D02*
X9993316Y-15781471D01*
X9993316Y-15781471D02*
X10040935Y-15781471D01*
X10040935Y-15781471D02*
X10069507Y-15790995D01*
X10069507Y-15790995D02*
X10088554Y-15810042D01*
X10088554Y-15810042D02*
X10098078Y-15829090D01*
X10098078Y-15829090D02*
X10107602Y-15867185D01*
X10107602Y-15867185D02*
X10107602Y-15895757D01*
X10107602Y-15895757D02*
X10098078Y-15933852D01*
X10098078Y-15933852D02*
X10088554Y-15952900D01*
X10088554Y-15952900D02*
X10069507Y-15971947D01*
X10069507Y-15971947D02*
X10040935Y-15981471D01*
X10040935Y-15981471D02*
X9993316Y-15981471D01*
X10193316Y-15981471D02*
X10193316Y-15848138D01*
X10193316Y-15886233D02*
X10202840Y-15867185D01*
X10202840Y-15867185D02*
X10212364Y-15857661D01*
X10212364Y-15857661D02*
X10231411Y-15848138D01*
X10231411Y-15848138D02*
X10250459Y-15848138D01*
X10317126Y-15981471D02*
X10317126Y-15848138D01*
X10317126Y-15781471D02*
X10307602Y-15790995D01*
X10307602Y-15790995D02*
X10317126Y-15800519D01*
X10317126Y-15800519D02*
X10326649Y-15790995D01*
X10326649Y-15790995D02*
X10317126Y-15781471D01*
X10317126Y-15781471D02*
X10317126Y-15800519D01*
X10440935Y-15981471D02*
X10421887Y-15971947D01*
X10421887Y-15971947D02*
X10412364Y-15952900D01*
X10412364Y-15952900D02*
X10412364Y-15781471D01*
X10545697Y-15981471D02*
X10526649Y-15971947D01*
X10526649Y-15971947D02*
X10517126Y-15952900D01*
X10517126Y-15952900D02*
X10517126Y-15781471D01*
X10774268Y-15981471D02*
X10774268Y-15781471D01*
X10774268Y-15781471D02*
X10840935Y-15924328D01*
X10840935Y-15924328D02*
X10907602Y-15781471D01*
X10907602Y-15781471D02*
X10907602Y-15981471D01*
X11088554Y-15981471D02*
X11088554Y-15876709D01*
X11088554Y-15876709D02*
X11079030Y-15857661D01*
X11079030Y-15857661D02*
X11059983Y-15848138D01*
X11059983Y-15848138D02*
X11021887Y-15848138D01*
X11021887Y-15848138D02*
X11002840Y-15857661D01*
X11088554Y-15971947D02*
X11069507Y-15981471D01*
X11069507Y-15981471D02*
X11021887Y-15981471D01*
X11021887Y-15981471D02*
X11002840Y-15971947D01*
X11002840Y-15971947D02*
X10993316Y-15952900D01*
X10993316Y-15952900D02*
X10993316Y-15933852D01*
X10993316Y-15933852D02*
X11002840Y-15914804D01*
X11002840Y-15914804D02*
X11021887Y-15905281D01*
X11021887Y-15905281D02*
X11069507Y-15905281D01*
X11069507Y-15905281D02*
X11088554Y-15895757D01*
X11183792Y-15848138D02*
X11183792Y-16048138D01*
X11183792Y-15857661D02*
X11202840Y-15848138D01*
X11202840Y-15848138D02*
X11240935Y-15848138D01*
X11240935Y-15848138D02*
X11259983Y-15857661D01*
X11259983Y-15857661D02*
X11269506Y-15867185D01*
X11269506Y-15867185D02*
X11279030Y-15886233D01*
X11279030Y-15886233D02*
X11279030Y-15943376D01*
X11279030Y-15943376D02*
X11269506Y-15962423D01*
X11269506Y-15962423D02*
X11259983Y-15971947D01*
X11259983Y-15971947D02*
X11240935Y-15981471D01*
X11240935Y-15981471D02*
X11202840Y-15981471D01*
X11202840Y-15981471D02*
X11183792Y-15971947D01*
X11364745Y-15962423D02*
X11374268Y-15971947D01*
X11374268Y-15971947D02*
X11364745Y-15981471D01*
X11364745Y-15981471D02*
X11355221Y-15971947D01*
X11355221Y-15971947D02*
X11364745Y-15962423D01*
X11364745Y-15962423D02*
X11364745Y-15981471D01*
X11364745Y-15857661D02*
X11374268Y-15867185D01*
X11374268Y-15867185D02*
X11364745Y-15876709D01*
X11364745Y-15876709D02*
X11355221Y-15867185D01*
X11355221Y-15867185D02*
X11364745Y-15857661D01*
X11364745Y-15857661D02*
X11364745Y-15876709D01*
D11*
X9674539Y-16280987D02*
X9732539Y-16338987D01*
X9732539Y-16280987D02*
X9674539Y-16338987D01*
D10*
X10031411Y-16201471D02*
X10050459Y-16201471D01*
X10050459Y-16201471D02*
X10069507Y-16210995D01*
X10069507Y-16210995D02*
X10079030Y-16220519D01*
X10079030Y-16220519D02*
X10088554Y-16239566D01*
X10088554Y-16239566D02*
X10098078Y-16277661D01*
X10098078Y-16277661D02*
X10098078Y-16325281D01*
X10098078Y-16325281D02*
X10088554Y-16363376D01*
X10088554Y-16363376D02*
X10079030Y-16382423D01*
X10079030Y-16382423D02*
X10069507Y-16391947D01*
X10069507Y-16391947D02*
X10050459Y-16401471D01*
X10050459Y-16401471D02*
X10031411Y-16401471D01*
X10031411Y-16401471D02*
X10012364Y-16391947D01*
X10012364Y-16391947D02*
X10002840Y-16382423D01*
X10002840Y-16382423D02*
X9993316Y-16363376D01*
X9993316Y-16363376D02*
X9983792Y-16325281D01*
X9983792Y-16325281D02*
X9983792Y-16277661D01*
X9983792Y-16277661D02*
X9993316Y-16239566D01*
X9993316Y-16239566D02*
X10002840Y-16220519D01*
X10002840Y-16220519D02*
X10012364Y-16210995D01*
X10012364Y-16210995D02*
X10031411Y-16201471D01*
X10183792Y-16382423D02*
X10193316Y-16391947D01*
X10193316Y-16391947D02*
X10183792Y-16401471D01*
X10183792Y-16401471D02*
X10174268Y-16391947D01*
X10174268Y-16391947D02*
X10183792Y-16382423D01*
X10183792Y-16382423D02*
X10183792Y-16401471D01*
X10374268Y-16201471D02*
X10279030Y-16201471D01*
X10279030Y-16201471D02*
X10269507Y-16296709D01*
X10269507Y-16296709D02*
X10279030Y-16287185D01*
X10279030Y-16287185D02*
X10298078Y-16277661D01*
X10298078Y-16277661D02*
X10345697Y-16277661D01*
X10345697Y-16277661D02*
X10364745Y-16287185D01*
X10364745Y-16287185D02*
X10374268Y-16296709D01*
X10374268Y-16296709D02*
X10383792Y-16315757D01*
X10383792Y-16315757D02*
X10383792Y-16363376D01*
X10383792Y-16363376D02*
X10374268Y-16382423D01*
X10374268Y-16382423D02*
X10364745Y-16391947D01*
X10364745Y-16391947D02*
X10345697Y-16401471D01*
X10345697Y-16401471D02*
X10298078Y-16401471D01*
X10298078Y-16401471D02*
X10279030Y-16391947D01*
X10279030Y-16391947D02*
X10269507Y-16382423D01*
X10498078Y-16287185D02*
X10479030Y-16277661D01*
X10479030Y-16277661D02*
X10469507Y-16268138D01*
X10469507Y-16268138D02*
X10459983Y-16249090D01*
X10459983Y-16249090D02*
X10459983Y-16239566D01*
X10459983Y-16239566D02*
X10469507Y-16220519D01*
X10469507Y-16220519D02*
X10479030Y-16210995D01*
X10479030Y-16210995D02*
X10498078Y-16201471D01*
X10498078Y-16201471D02*
X10536173Y-16201471D01*
X10536173Y-16201471D02*
X10555221Y-16210995D01*
X10555221Y-16210995D02*
X10564745Y-16220519D01*
X10564745Y-16220519D02*
X10574268Y-16239566D01*
X10574268Y-16239566D02*
X10574268Y-16249090D01*
X10574268Y-16249090D02*
X10564745Y-16268138D01*
X10564745Y-16268138D02*
X10555221Y-16277661D01*
X10555221Y-16277661D02*
X10536173Y-16287185D01*
X10536173Y-16287185D02*
X10498078Y-16287185D01*
X10498078Y-16287185D02*
X10479030Y-16296709D01*
X10479030Y-16296709D02*
X10469507Y-16306233D01*
X10469507Y-16306233D02*
X10459983Y-16325281D01*
X10459983Y-16325281D02*
X10459983Y-16363376D01*
X10459983Y-16363376D02*
X10469507Y-16382423D01*
X10469507Y-16382423D02*
X10479030Y-16391947D01*
X10479030Y-16391947D02*
X10498078Y-16401471D01*
X10498078Y-16401471D02*
X10536173Y-16401471D01*
X10536173Y-16401471D02*
X10555221Y-16391947D01*
X10555221Y-16391947D02*
X10564745Y-16382423D01*
X10564745Y-16382423D02*
X10574268Y-16363376D01*
X10574268Y-16363376D02*
X10574268Y-16325281D01*
X10574268Y-16325281D02*
X10564745Y-16306233D01*
X10564745Y-16306233D02*
X10555221Y-16296709D01*
X10555221Y-16296709D02*
X10536173Y-16287185D01*
X10698078Y-16201471D02*
X10717126Y-16201471D01*
X10717126Y-16201471D02*
X10736173Y-16210995D01*
X10736173Y-16210995D02*
X10745697Y-16220519D01*
X10745697Y-16220519D02*
X10755221Y-16239566D01*
X10755221Y-16239566D02*
X10764745Y-16277661D01*
X10764745Y-16277661D02*
X10764745Y-16325281D01*
X10764745Y-16325281D02*
X10755221Y-16363376D01*
X10755221Y-16363376D02*
X10745697Y-16382423D01*
X10745697Y-16382423D02*
X10736173Y-16391947D01*
X10736173Y-16391947D02*
X10717126Y-16401471D01*
X10717126Y-16401471D02*
X10698078Y-16401471D01*
X10698078Y-16401471D02*
X10679030Y-16391947D01*
X10679030Y-16391947D02*
X10669507Y-16382423D01*
X10669507Y-16382423D02*
X10659983Y-16363376D01*
X10659983Y-16363376D02*
X10650459Y-16325281D01*
X10650459Y-16325281D02*
X10650459Y-16277661D01*
X10650459Y-16277661D02*
X10659983Y-16239566D01*
X10659983Y-16239566D02*
X10669507Y-16220519D01*
X10669507Y-16220519D02*
X10679030Y-16210995D01*
X10679030Y-16210995D02*
X10698078Y-16201471D01*
X10850459Y-16401471D02*
X10850459Y-16268138D01*
X10850459Y-16287185D02*
X10859983Y-16277661D01*
X10859983Y-16277661D02*
X10879030Y-16268138D01*
X10879030Y-16268138D02*
X10907602Y-16268138D01*
X10907602Y-16268138D02*
X10926649Y-16277661D01*
X10926649Y-16277661D02*
X10936173Y-16296709D01*
X10936173Y-16296709D02*
X10936173Y-16401471D01*
X10936173Y-16296709D02*
X10945697Y-16277661D01*
X10945697Y-16277661D02*
X10964745Y-16268138D01*
X10964745Y-16268138D02*
X10993316Y-16268138D01*
X10993316Y-16268138D02*
X11012364Y-16277661D01*
X11012364Y-16277661D02*
X11021888Y-16296709D01*
X11021888Y-16296709D02*
X11021888Y-16401471D01*
X11117126Y-16401471D02*
X11117126Y-16268138D01*
X11117126Y-16287185D02*
X11126649Y-16277661D01*
X11126649Y-16277661D02*
X11145697Y-16268138D01*
X11145697Y-16268138D02*
X11174269Y-16268138D01*
X11174269Y-16268138D02*
X11193316Y-16277661D01*
X11193316Y-16277661D02*
X11202840Y-16296709D01*
X11202840Y-16296709D02*
X11202840Y-16401471D01*
X11202840Y-16296709D02*
X11212364Y-16277661D01*
X11212364Y-16277661D02*
X11231411Y-16268138D01*
X11231411Y-16268138D02*
X11259983Y-16268138D01*
X11259983Y-16268138D02*
X11279030Y-16277661D01*
X11279030Y-16277661D02*
X11288554Y-16296709D01*
X11288554Y-16296709D02*
X11288554Y-16401471D01*
X11679030Y-16191947D02*
X11507602Y-16449090D01*
X11936173Y-16201471D02*
X11955221Y-16201471D01*
X11955221Y-16201471D02*
X11974269Y-16210995D01*
X11974269Y-16210995D02*
X11983792Y-16220519D01*
X11983792Y-16220519D02*
X11993316Y-16239566D01*
X11993316Y-16239566D02*
X12002840Y-16277661D01*
X12002840Y-16277661D02*
X12002840Y-16325281D01*
X12002840Y-16325281D02*
X11993316Y-16363376D01*
X11993316Y-16363376D02*
X11983792Y-16382423D01*
X11983792Y-16382423D02*
X11974269Y-16391947D01*
X11974269Y-16391947D02*
X11955221Y-16401471D01*
X11955221Y-16401471D02*
X11936173Y-16401471D01*
X11936173Y-16401471D02*
X11917126Y-16391947D01*
X11917126Y-16391947D02*
X11907602Y-16382423D01*
X11907602Y-16382423D02*
X11898078Y-16363376D01*
X11898078Y-16363376D02*
X11888554Y-16325281D01*
X11888554Y-16325281D02*
X11888554Y-16277661D01*
X11888554Y-16277661D02*
X11898078Y-16239566D01*
X11898078Y-16239566D02*
X11907602Y-16220519D01*
X11907602Y-16220519D02*
X11917126Y-16210995D01*
X11917126Y-16210995D02*
X11936173Y-16201471D01*
X12088554Y-16382423D02*
X12098078Y-16391947D01*
X12098078Y-16391947D02*
X12088554Y-16401471D01*
X12088554Y-16401471D02*
X12079030Y-16391947D01*
X12079030Y-16391947D02*
X12088554Y-16382423D01*
X12088554Y-16382423D02*
X12088554Y-16401471D01*
X12221888Y-16201471D02*
X12240935Y-16201471D01*
X12240935Y-16201471D02*
X12259983Y-16210995D01*
X12259983Y-16210995D02*
X12269507Y-16220519D01*
X12269507Y-16220519D02*
X12279030Y-16239566D01*
X12279030Y-16239566D02*
X12288554Y-16277661D01*
X12288554Y-16277661D02*
X12288554Y-16325281D01*
X12288554Y-16325281D02*
X12279030Y-16363376D01*
X12279030Y-16363376D02*
X12269507Y-16382423D01*
X12269507Y-16382423D02*
X12259983Y-16391947D01*
X12259983Y-16391947D02*
X12240935Y-16401471D01*
X12240935Y-16401471D02*
X12221888Y-16401471D01*
X12221888Y-16401471D02*
X12202840Y-16391947D01*
X12202840Y-16391947D02*
X12193316Y-16382423D01*
X12193316Y-16382423D02*
X12183792Y-16363376D01*
X12183792Y-16363376D02*
X12174269Y-16325281D01*
X12174269Y-16325281D02*
X12174269Y-16277661D01*
X12174269Y-16277661D02*
X12183792Y-16239566D01*
X12183792Y-16239566D02*
X12193316Y-16220519D01*
X12193316Y-16220519D02*
X12202840Y-16210995D01*
X12202840Y-16210995D02*
X12221888Y-16201471D01*
X12364745Y-16220519D02*
X12374269Y-16210995D01*
X12374269Y-16210995D02*
X12393316Y-16201471D01*
X12393316Y-16201471D02*
X12440935Y-16201471D01*
X12440935Y-16201471D02*
X12459983Y-16210995D01*
X12459983Y-16210995D02*
X12469507Y-16220519D01*
X12469507Y-16220519D02*
X12479030Y-16239566D01*
X12479030Y-16239566D02*
X12479030Y-16258614D01*
X12479030Y-16258614D02*
X12469507Y-16287185D01*
X12469507Y-16287185D02*
X12355221Y-16401471D01*
X12355221Y-16401471D02*
X12479030Y-16401471D01*
X12555221Y-16220519D02*
X12564745Y-16210995D01*
X12564745Y-16210995D02*
X12583792Y-16201471D01*
X12583792Y-16201471D02*
X12631411Y-16201471D01*
X12631411Y-16201471D02*
X12650459Y-16210995D01*
X12650459Y-16210995D02*
X12659983Y-16220519D01*
X12659983Y-16220519D02*
X12669507Y-16239566D01*
X12669507Y-16239566D02*
X12669507Y-16258614D01*
X12669507Y-16258614D02*
X12659983Y-16287185D01*
X12659983Y-16287185D02*
X12545697Y-16401471D01*
X12545697Y-16401471D02*
X12669507Y-16401471D01*
X12783792Y-16287185D02*
X12764745Y-16277661D01*
X12764745Y-16277661D02*
X12755221Y-16268138D01*
X12755221Y-16268138D02*
X12745697Y-16249090D01*
X12745697Y-16249090D02*
X12745697Y-16239566D01*
X12745697Y-16239566D02*
X12755221Y-16220519D01*
X12755221Y-16220519D02*
X12764745Y-16210995D01*
X12764745Y-16210995D02*
X12783792Y-16201471D01*
X12783792Y-16201471D02*
X12821888Y-16201471D01*
X12821888Y-16201471D02*
X12840935Y-16210995D01*
X12840935Y-16210995D02*
X12850459Y-16220519D01*
X12850459Y-16220519D02*
X12859983Y-16239566D01*
X12859983Y-16239566D02*
X12859983Y-16249090D01*
X12859983Y-16249090D02*
X12850459Y-16268138D01*
X12850459Y-16268138D02*
X12840935Y-16277661D01*
X12840935Y-16277661D02*
X12821888Y-16287185D01*
X12821888Y-16287185D02*
X12783792Y-16287185D01*
X12783792Y-16287185D02*
X12764745Y-16296709D01*
X12764745Y-16296709D02*
X12755221Y-16306233D01*
X12755221Y-16306233D02*
X12745697Y-16325281D01*
X12745697Y-16325281D02*
X12745697Y-16363376D01*
X12745697Y-16363376D02*
X12755221Y-16382423D01*
X12755221Y-16382423D02*
X12764745Y-16391947D01*
X12764745Y-16391947D02*
X12783792Y-16401471D01*
X12783792Y-16401471D02*
X12821888Y-16401471D01*
X12821888Y-16401471D02*
X12840935Y-16391947D01*
X12840935Y-16391947D02*
X12850459Y-16382423D01*
X12850459Y-16382423D02*
X12859983Y-16363376D01*
X12859983Y-16363376D02*
X12859983Y-16325281D01*
X12859983Y-16325281D02*
X12850459Y-16306233D01*
X12850459Y-16306233D02*
X12840935Y-16296709D01*
X12840935Y-16296709D02*
X12821888Y-16287185D01*
X12936173Y-16201471D02*
X12936173Y-16239566D01*
X13012364Y-16201471D02*
X13012364Y-16239566D01*
X13307602Y-16477661D02*
X13298078Y-16468138D01*
X13298078Y-16468138D02*
X13279031Y-16439566D01*
X13279031Y-16439566D02*
X13269507Y-16420519D01*
X13269507Y-16420519D02*
X13259983Y-16391947D01*
X13259983Y-16391947D02*
X13250459Y-16344328D01*
X13250459Y-16344328D02*
X13250459Y-16306233D01*
X13250459Y-16306233D02*
X13259983Y-16258614D01*
X13259983Y-16258614D02*
X13269507Y-16230042D01*
X13269507Y-16230042D02*
X13279031Y-16210995D01*
X13279031Y-16210995D02*
X13298078Y-16182423D01*
X13298078Y-16182423D02*
X13307602Y-16172900D01*
X13421888Y-16201471D02*
X13440935Y-16201471D01*
X13440935Y-16201471D02*
X13459983Y-16210995D01*
X13459983Y-16210995D02*
X13469507Y-16220519D01*
X13469507Y-16220519D02*
X13479031Y-16239566D01*
X13479031Y-16239566D02*
X13488554Y-16277661D01*
X13488554Y-16277661D02*
X13488554Y-16325281D01*
X13488554Y-16325281D02*
X13479031Y-16363376D01*
X13479031Y-16363376D02*
X13469507Y-16382423D01*
X13469507Y-16382423D02*
X13459983Y-16391947D01*
X13459983Y-16391947D02*
X13440935Y-16401471D01*
X13440935Y-16401471D02*
X13421888Y-16401471D01*
X13421888Y-16401471D02*
X13402840Y-16391947D01*
X13402840Y-16391947D02*
X13393316Y-16382423D01*
X13393316Y-16382423D02*
X13383792Y-16363376D01*
X13383792Y-16363376D02*
X13374269Y-16325281D01*
X13374269Y-16325281D02*
X13374269Y-16277661D01*
X13374269Y-16277661D02*
X13383792Y-16239566D01*
X13383792Y-16239566D02*
X13393316Y-16220519D01*
X13393316Y-16220519D02*
X13402840Y-16210995D01*
X13402840Y-16210995D02*
X13421888Y-16201471D01*
X13726650Y-16401471D02*
X13726650Y-16201471D01*
X13812364Y-16401471D02*
X13812364Y-16296709D01*
X13812364Y-16296709D02*
X13802840Y-16277661D01*
X13802840Y-16277661D02*
X13783793Y-16268138D01*
X13783793Y-16268138D02*
X13755221Y-16268138D01*
X13755221Y-16268138D02*
X13736173Y-16277661D01*
X13736173Y-16277661D02*
X13726650Y-16287185D01*
X13936173Y-16401471D02*
X13917126Y-16391947D01*
X13917126Y-16391947D02*
X13907602Y-16382423D01*
X13907602Y-16382423D02*
X13898078Y-16363376D01*
X13898078Y-16363376D02*
X13898078Y-16306233D01*
X13898078Y-16306233D02*
X13907602Y-16287185D01*
X13907602Y-16287185D02*
X13917126Y-16277661D01*
X13917126Y-16277661D02*
X13936173Y-16268138D01*
X13936173Y-16268138D02*
X13964745Y-16268138D01*
X13964745Y-16268138D02*
X13983793Y-16277661D01*
X13983793Y-16277661D02*
X13993316Y-16287185D01*
X13993316Y-16287185D02*
X14002840Y-16306233D01*
X14002840Y-16306233D02*
X14002840Y-16363376D01*
X14002840Y-16363376D02*
X13993316Y-16382423D01*
X13993316Y-16382423D02*
X13983793Y-16391947D01*
X13983793Y-16391947D02*
X13964745Y-16401471D01*
X13964745Y-16401471D02*
X13936173Y-16401471D01*
X14117126Y-16401471D02*
X14098078Y-16391947D01*
X14098078Y-16391947D02*
X14088554Y-16372900D01*
X14088554Y-16372900D02*
X14088554Y-16201471D01*
X14269507Y-16391947D02*
X14250459Y-16401471D01*
X14250459Y-16401471D02*
X14212364Y-16401471D01*
X14212364Y-16401471D02*
X14193316Y-16391947D01*
X14193316Y-16391947D02*
X14183793Y-16372900D01*
X14183793Y-16372900D02*
X14183793Y-16296709D01*
X14183793Y-16296709D02*
X14193316Y-16277661D01*
X14193316Y-16277661D02*
X14212364Y-16268138D01*
X14212364Y-16268138D02*
X14250459Y-16268138D01*
X14250459Y-16268138D02*
X14269507Y-16277661D01*
X14269507Y-16277661D02*
X14279031Y-16296709D01*
X14279031Y-16296709D02*
X14279031Y-16315757D01*
X14279031Y-16315757D02*
X14183793Y-16334804D01*
X14355221Y-16391947D02*
X14374269Y-16401471D01*
X14374269Y-16401471D02*
X14412364Y-16401471D01*
X14412364Y-16401471D02*
X14431412Y-16391947D01*
X14431412Y-16391947D02*
X14440935Y-16372900D01*
X14440935Y-16372900D02*
X14440935Y-16363376D01*
X14440935Y-16363376D02*
X14431412Y-16344328D01*
X14431412Y-16344328D02*
X14412364Y-16334804D01*
X14412364Y-16334804D02*
X14383793Y-16334804D01*
X14383793Y-16334804D02*
X14364745Y-16325281D01*
X14364745Y-16325281D02*
X14355221Y-16306233D01*
X14355221Y-16306233D02*
X14355221Y-16296709D01*
X14355221Y-16296709D02*
X14364745Y-16277661D01*
X14364745Y-16277661D02*
X14383793Y-16268138D01*
X14383793Y-16268138D02*
X14412364Y-16268138D01*
X14412364Y-16268138D02*
X14431412Y-16277661D01*
X14679031Y-16325281D02*
X14831412Y-16325281D01*
X14755221Y-16401471D02*
X14755221Y-16249090D01*
X15069507Y-16220519D02*
X15079031Y-16210995D01*
X15079031Y-16210995D02*
X15098078Y-16201471D01*
X15098078Y-16201471D02*
X15145697Y-16201471D01*
X15145697Y-16201471D02*
X15164745Y-16210995D01*
X15164745Y-16210995D02*
X15174269Y-16220519D01*
X15174269Y-16220519D02*
X15183793Y-16239566D01*
X15183793Y-16239566D02*
X15183793Y-16258614D01*
X15183793Y-16258614D02*
X15174269Y-16287185D01*
X15174269Y-16287185D02*
X15059983Y-16401471D01*
X15059983Y-16401471D02*
X15183793Y-16401471D01*
X15412364Y-16391947D02*
X15431412Y-16401471D01*
X15431412Y-16401471D02*
X15469507Y-16401471D01*
X15469507Y-16401471D02*
X15488555Y-16391947D01*
X15488555Y-16391947D02*
X15498078Y-16372900D01*
X15498078Y-16372900D02*
X15498078Y-16363376D01*
X15498078Y-16363376D02*
X15488555Y-16344328D01*
X15488555Y-16344328D02*
X15469507Y-16334804D01*
X15469507Y-16334804D02*
X15440936Y-16334804D01*
X15440936Y-16334804D02*
X15421888Y-16325281D01*
X15421888Y-16325281D02*
X15412364Y-16306233D01*
X15412364Y-16306233D02*
X15412364Y-16296709D01*
X15412364Y-16296709D02*
X15421888Y-16277661D01*
X15421888Y-16277661D02*
X15440936Y-16268138D01*
X15440936Y-16268138D02*
X15469507Y-16268138D01*
X15469507Y-16268138D02*
X15488555Y-16277661D01*
X15612364Y-16401471D02*
X15593317Y-16391947D01*
X15593317Y-16391947D02*
X15583793Y-16372900D01*
X15583793Y-16372900D02*
X15583793Y-16201471D01*
X15717126Y-16401471D02*
X15698078Y-16391947D01*
X15698078Y-16391947D02*
X15688555Y-16382423D01*
X15688555Y-16382423D02*
X15679031Y-16363376D01*
X15679031Y-16363376D02*
X15679031Y-16306233D01*
X15679031Y-16306233D02*
X15688555Y-16287185D01*
X15688555Y-16287185D02*
X15698078Y-16277661D01*
X15698078Y-16277661D02*
X15717126Y-16268138D01*
X15717126Y-16268138D02*
X15745698Y-16268138D01*
X15745698Y-16268138D02*
X15764745Y-16277661D01*
X15764745Y-16277661D02*
X15774269Y-16287185D01*
X15774269Y-16287185D02*
X15783793Y-16306233D01*
X15783793Y-16306233D02*
X15783793Y-16363376D01*
X15783793Y-16363376D02*
X15774269Y-16382423D01*
X15774269Y-16382423D02*
X15764745Y-16391947D01*
X15764745Y-16391947D02*
X15745698Y-16401471D01*
X15745698Y-16401471D02*
X15717126Y-16401471D01*
X15840936Y-16268138D02*
X15917126Y-16268138D01*
X15869507Y-16201471D02*
X15869507Y-16372900D01*
X15869507Y-16372900D02*
X15879031Y-16391947D01*
X15879031Y-16391947D02*
X15898078Y-16401471D01*
X15898078Y-16401471D02*
X15917126Y-16401471D01*
X15974269Y-16391947D02*
X15993317Y-16401471D01*
X15993317Y-16401471D02*
X16031412Y-16401471D01*
X16031412Y-16401471D02*
X16050459Y-16391947D01*
X16050459Y-16391947D02*
X16059983Y-16372900D01*
X16059983Y-16372900D02*
X16059983Y-16363376D01*
X16059983Y-16363376D02*
X16050459Y-16344328D01*
X16050459Y-16344328D02*
X16031412Y-16334804D01*
X16031412Y-16334804D02*
X16002840Y-16334804D01*
X16002840Y-16334804D02*
X15983793Y-16325281D01*
X15983793Y-16325281D02*
X15974269Y-16306233D01*
X15974269Y-16306233D02*
X15974269Y-16296709D01*
X15974269Y-16296709D02*
X15983793Y-16277661D01*
X15983793Y-16277661D02*
X16002840Y-16268138D01*
X16002840Y-16268138D02*
X16031412Y-16268138D01*
X16031412Y-16268138D02*
X16050459Y-16277661D01*
X16126650Y-16477661D02*
X16136174Y-16468138D01*
X16136174Y-16468138D02*
X16155221Y-16439566D01*
X16155221Y-16439566D02*
X16164745Y-16420519D01*
X16164745Y-16420519D02*
X16174269Y-16391947D01*
X16174269Y-16391947D02*
X16183793Y-16344328D01*
X16183793Y-16344328D02*
X16183793Y-16306233D01*
X16183793Y-16306233D02*
X16174269Y-16258614D01*
X16174269Y-16258614D02*
X16164745Y-16230042D01*
X16164745Y-16230042D02*
X16155221Y-16210995D01*
X16155221Y-16210995D02*
X16136174Y-16182423D01*
X16136174Y-16182423D02*
X16126650Y-16172900D01*
X16488555Y-16477661D02*
X16479031Y-16468138D01*
X16479031Y-16468138D02*
X16459983Y-16439566D01*
X16459983Y-16439566D02*
X16450459Y-16420519D01*
X16450459Y-16420519D02*
X16440936Y-16391947D01*
X16440936Y-16391947D02*
X16431412Y-16344328D01*
X16431412Y-16344328D02*
X16431412Y-16306233D01*
X16431412Y-16306233D02*
X16440936Y-16258614D01*
X16440936Y-16258614D02*
X16450459Y-16230042D01*
X16450459Y-16230042D02*
X16459983Y-16210995D01*
X16459983Y-16210995D02*
X16479031Y-16182423D01*
X16479031Y-16182423D02*
X16488555Y-16172900D01*
X16564745Y-16268138D02*
X16564745Y-16401471D01*
X16564745Y-16287185D02*
X16574269Y-16277661D01*
X16574269Y-16277661D02*
X16593317Y-16268138D01*
X16593317Y-16268138D02*
X16621888Y-16268138D01*
X16621888Y-16268138D02*
X16640936Y-16277661D01*
X16640936Y-16277661D02*
X16650459Y-16296709D01*
X16650459Y-16296709D02*
X16650459Y-16401471D01*
X16774269Y-16401471D02*
X16755221Y-16391947D01*
X16755221Y-16391947D02*
X16745698Y-16382423D01*
X16745698Y-16382423D02*
X16736174Y-16363376D01*
X16736174Y-16363376D02*
X16736174Y-16306233D01*
X16736174Y-16306233D02*
X16745698Y-16287185D01*
X16745698Y-16287185D02*
X16755221Y-16277661D01*
X16755221Y-16277661D02*
X16774269Y-16268138D01*
X16774269Y-16268138D02*
X16802841Y-16268138D01*
X16802841Y-16268138D02*
X16821888Y-16277661D01*
X16821888Y-16277661D02*
X16831412Y-16287185D01*
X16831412Y-16287185D02*
X16840936Y-16306233D01*
X16840936Y-16306233D02*
X16840936Y-16363376D01*
X16840936Y-16363376D02*
X16831412Y-16382423D01*
X16831412Y-16382423D02*
X16821888Y-16391947D01*
X16821888Y-16391947D02*
X16802841Y-16401471D01*
X16802841Y-16401471D02*
X16774269Y-16401471D01*
X16898079Y-16268138D02*
X16974269Y-16268138D01*
X16926650Y-16201471D02*
X16926650Y-16372900D01*
X16926650Y-16372900D02*
X16936174Y-16391947D01*
X16936174Y-16391947D02*
X16955221Y-16401471D01*
X16955221Y-16401471D02*
X16974269Y-16401471D01*
X17193317Y-16268138D02*
X17193317Y-16468138D01*
X17193317Y-16277661D02*
X17212364Y-16268138D01*
X17212364Y-16268138D02*
X17250460Y-16268138D01*
X17250460Y-16268138D02*
X17269507Y-16277661D01*
X17269507Y-16277661D02*
X17279031Y-16287185D01*
X17279031Y-16287185D02*
X17288555Y-16306233D01*
X17288555Y-16306233D02*
X17288555Y-16363376D01*
X17288555Y-16363376D02*
X17279031Y-16382423D01*
X17279031Y-16382423D02*
X17269507Y-16391947D01*
X17269507Y-16391947D02*
X17250460Y-16401471D01*
X17250460Y-16401471D02*
X17212364Y-16401471D01*
X17212364Y-16401471D02*
X17193317Y-16391947D01*
X17402841Y-16401471D02*
X17383793Y-16391947D01*
X17383793Y-16391947D02*
X17374269Y-16372900D01*
X17374269Y-16372900D02*
X17374269Y-16201471D01*
X17564745Y-16401471D02*
X17564745Y-16296709D01*
X17564745Y-16296709D02*
X17555222Y-16277661D01*
X17555222Y-16277661D02*
X17536174Y-16268138D01*
X17536174Y-16268138D02*
X17498079Y-16268138D01*
X17498079Y-16268138D02*
X17479031Y-16277661D01*
X17564745Y-16391947D02*
X17545698Y-16401471D01*
X17545698Y-16401471D02*
X17498079Y-16401471D01*
X17498079Y-16401471D02*
X17479031Y-16391947D01*
X17479031Y-16391947D02*
X17469507Y-16372900D01*
X17469507Y-16372900D02*
X17469507Y-16353852D01*
X17469507Y-16353852D02*
X17479031Y-16334804D01*
X17479031Y-16334804D02*
X17498079Y-16325281D01*
X17498079Y-16325281D02*
X17545698Y-16325281D01*
X17545698Y-16325281D02*
X17564745Y-16315757D01*
X17631412Y-16268138D02*
X17707602Y-16268138D01*
X17659983Y-16201471D02*
X17659983Y-16372900D01*
X17659983Y-16372900D02*
X17669507Y-16391947D01*
X17669507Y-16391947D02*
X17688555Y-16401471D01*
X17688555Y-16401471D02*
X17707602Y-16401471D01*
X17850460Y-16391947D02*
X17831412Y-16401471D01*
X17831412Y-16401471D02*
X17793317Y-16401471D01*
X17793317Y-16401471D02*
X17774269Y-16391947D01*
X17774269Y-16391947D02*
X17764745Y-16372900D01*
X17764745Y-16372900D02*
X17764745Y-16296709D01*
X17764745Y-16296709D02*
X17774269Y-16277661D01*
X17774269Y-16277661D02*
X17793317Y-16268138D01*
X17793317Y-16268138D02*
X17831412Y-16268138D01*
X17831412Y-16268138D02*
X17850460Y-16277661D01*
X17850460Y-16277661D02*
X17859983Y-16296709D01*
X17859983Y-16296709D02*
X17859983Y-16315757D01*
X17859983Y-16315757D02*
X17764745Y-16334804D01*
X18031412Y-16401471D02*
X18031412Y-16201471D01*
X18031412Y-16391947D02*
X18012364Y-16401471D01*
X18012364Y-16401471D02*
X17974269Y-16401471D01*
X17974269Y-16401471D02*
X17955222Y-16391947D01*
X17955222Y-16391947D02*
X17945698Y-16382423D01*
X17945698Y-16382423D02*
X17936174Y-16363376D01*
X17936174Y-16363376D02*
X17936174Y-16306233D01*
X17936174Y-16306233D02*
X17945698Y-16287185D01*
X17945698Y-16287185D02*
X17955222Y-16277661D01*
X17955222Y-16277661D02*
X17974269Y-16268138D01*
X17974269Y-16268138D02*
X18012364Y-16268138D01*
X18012364Y-16268138D02*
X18031412Y-16277661D01*
X18107603Y-16477661D02*
X18117126Y-16468138D01*
X18117126Y-16468138D02*
X18136174Y-16439566D01*
X18136174Y-16439566D02*
X18145698Y-16420519D01*
X18145698Y-16420519D02*
X18155222Y-16391947D01*
X18155222Y-16391947D02*
X18164745Y-16344328D01*
X18164745Y-16344328D02*
X18164745Y-16306233D01*
X18164745Y-16306233D02*
X18155222Y-16258614D01*
X18155222Y-16258614D02*
X18145698Y-16230042D01*
X18145698Y-16230042D02*
X18136174Y-16210995D01*
X18136174Y-16210995D02*
X18117126Y-16182423D01*
X18117126Y-16182423D02*
X18107603Y-16172900D01*
D11*
X9732539Y-16573987D02*
G75*
G03*
X9667539Y-16573987I-32500J0D01*
G01*
X9667539Y-16573987D02*
G75*
G03*
X9732539Y-16573987I32500J0D01*
G01*
D10*
X10031411Y-16465471D02*
X10050459Y-16465471D01*
X10050459Y-16465471D02*
X10069507Y-16474995D01*
X10069507Y-16474995D02*
X10079030Y-16484519D01*
X10079030Y-16484519D02*
X10088554Y-16503566D01*
X10088554Y-16503566D02*
X10098078Y-16541661D01*
X10098078Y-16541661D02*
X10098078Y-16589281D01*
X10098078Y-16589281D02*
X10088554Y-16627376D01*
X10088554Y-16627376D02*
X10079030Y-16646423D01*
X10079030Y-16646423D02*
X10069507Y-16655947D01*
X10069507Y-16655947D02*
X10050459Y-16665471D01*
X10050459Y-16665471D02*
X10031411Y-16665471D01*
X10031411Y-16665471D02*
X10012364Y-16655947D01*
X10012364Y-16655947D02*
X10002840Y-16646423D01*
X10002840Y-16646423D02*
X9993316Y-16627376D01*
X9993316Y-16627376D02*
X9983792Y-16589281D01*
X9983792Y-16589281D02*
X9983792Y-16541661D01*
X9983792Y-16541661D02*
X9993316Y-16503566D01*
X9993316Y-16503566D02*
X10002840Y-16484519D01*
X10002840Y-16484519D02*
X10012364Y-16474995D01*
X10012364Y-16474995D02*
X10031411Y-16465471D01*
X10183792Y-16646423D02*
X10193316Y-16655947D01*
X10193316Y-16655947D02*
X10183792Y-16665471D01*
X10183792Y-16665471D02*
X10174268Y-16655947D01*
X10174268Y-16655947D02*
X10183792Y-16646423D01*
X10183792Y-16646423D02*
X10183792Y-16665471D01*
X10364745Y-16465471D02*
X10326649Y-16465471D01*
X10326649Y-16465471D02*
X10307602Y-16474995D01*
X10307602Y-16474995D02*
X10298078Y-16484519D01*
X10298078Y-16484519D02*
X10279030Y-16513090D01*
X10279030Y-16513090D02*
X10269507Y-16551185D01*
X10269507Y-16551185D02*
X10269507Y-16627376D01*
X10269507Y-16627376D02*
X10279030Y-16646423D01*
X10279030Y-16646423D02*
X10288554Y-16655947D01*
X10288554Y-16655947D02*
X10307602Y-16665471D01*
X10307602Y-16665471D02*
X10345697Y-16665471D01*
X10345697Y-16665471D02*
X10364745Y-16655947D01*
X10364745Y-16655947D02*
X10374268Y-16646423D01*
X10374268Y-16646423D02*
X10383792Y-16627376D01*
X10383792Y-16627376D02*
X10383792Y-16579757D01*
X10383792Y-16579757D02*
X10374268Y-16560709D01*
X10374268Y-16560709D02*
X10364745Y-16551185D01*
X10364745Y-16551185D02*
X10345697Y-16541661D01*
X10345697Y-16541661D02*
X10307602Y-16541661D01*
X10307602Y-16541661D02*
X10288554Y-16551185D01*
X10288554Y-16551185D02*
X10279030Y-16560709D01*
X10279030Y-16560709D02*
X10269507Y-16579757D01*
X10564745Y-16465471D02*
X10469507Y-16465471D01*
X10469507Y-16465471D02*
X10459983Y-16560709D01*
X10459983Y-16560709D02*
X10469507Y-16551185D01*
X10469507Y-16551185D02*
X10488554Y-16541661D01*
X10488554Y-16541661D02*
X10536173Y-16541661D01*
X10536173Y-16541661D02*
X10555221Y-16551185D01*
X10555221Y-16551185D02*
X10564745Y-16560709D01*
X10564745Y-16560709D02*
X10574268Y-16579757D01*
X10574268Y-16579757D02*
X10574268Y-16627376D01*
X10574268Y-16627376D02*
X10564745Y-16646423D01*
X10564745Y-16646423D02*
X10555221Y-16655947D01*
X10555221Y-16655947D02*
X10536173Y-16665471D01*
X10536173Y-16665471D02*
X10488554Y-16665471D01*
X10488554Y-16665471D02*
X10469507Y-16655947D01*
X10469507Y-16655947D02*
X10459983Y-16646423D01*
X10698078Y-16465471D02*
X10717126Y-16465471D01*
X10717126Y-16465471D02*
X10736173Y-16474995D01*
X10736173Y-16474995D02*
X10745697Y-16484519D01*
X10745697Y-16484519D02*
X10755221Y-16503566D01*
X10755221Y-16503566D02*
X10764745Y-16541661D01*
X10764745Y-16541661D02*
X10764745Y-16589281D01*
X10764745Y-16589281D02*
X10755221Y-16627376D01*
X10755221Y-16627376D02*
X10745697Y-16646423D01*
X10745697Y-16646423D02*
X10736173Y-16655947D01*
X10736173Y-16655947D02*
X10717126Y-16665471D01*
X10717126Y-16665471D02*
X10698078Y-16665471D01*
X10698078Y-16665471D02*
X10679030Y-16655947D01*
X10679030Y-16655947D02*
X10669507Y-16646423D01*
X10669507Y-16646423D02*
X10659983Y-16627376D01*
X10659983Y-16627376D02*
X10650459Y-16589281D01*
X10650459Y-16589281D02*
X10650459Y-16541661D01*
X10650459Y-16541661D02*
X10659983Y-16503566D01*
X10659983Y-16503566D02*
X10669507Y-16484519D01*
X10669507Y-16484519D02*
X10679030Y-16474995D01*
X10679030Y-16474995D02*
X10698078Y-16465471D01*
X10850459Y-16665471D02*
X10850459Y-16532138D01*
X10850459Y-16551185D02*
X10859983Y-16541661D01*
X10859983Y-16541661D02*
X10879030Y-16532138D01*
X10879030Y-16532138D02*
X10907602Y-16532138D01*
X10907602Y-16532138D02*
X10926649Y-16541661D01*
X10926649Y-16541661D02*
X10936173Y-16560709D01*
X10936173Y-16560709D02*
X10936173Y-16665471D01*
X10936173Y-16560709D02*
X10945697Y-16541661D01*
X10945697Y-16541661D02*
X10964745Y-16532138D01*
X10964745Y-16532138D02*
X10993316Y-16532138D01*
X10993316Y-16532138D02*
X11012364Y-16541661D01*
X11012364Y-16541661D02*
X11021888Y-16560709D01*
X11021888Y-16560709D02*
X11021888Y-16665471D01*
X11117126Y-16665471D02*
X11117126Y-16532138D01*
X11117126Y-16551185D02*
X11126649Y-16541661D01*
X11126649Y-16541661D02*
X11145697Y-16532138D01*
X11145697Y-16532138D02*
X11174269Y-16532138D01*
X11174269Y-16532138D02*
X11193316Y-16541661D01*
X11193316Y-16541661D02*
X11202840Y-16560709D01*
X11202840Y-16560709D02*
X11202840Y-16665471D01*
X11202840Y-16560709D02*
X11212364Y-16541661D01*
X11212364Y-16541661D02*
X11231411Y-16532138D01*
X11231411Y-16532138D02*
X11259983Y-16532138D01*
X11259983Y-16532138D02*
X11279030Y-16541661D01*
X11279030Y-16541661D02*
X11288554Y-16560709D01*
X11288554Y-16560709D02*
X11288554Y-16665471D01*
X11679030Y-16455947D02*
X11507602Y-16713090D01*
X11936173Y-16465471D02*
X11955221Y-16465471D01*
X11955221Y-16465471D02*
X11974269Y-16474995D01*
X11974269Y-16474995D02*
X11983792Y-16484519D01*
X11983792Y-16484519D02*
X11993316Y-16503566D01*
X11993316Y-16503566D02*
X12002840Y-16541661D01*
X12002840Y-16541661D02*
X12002840Y-16589281D01*
X12002840Y-16589281D02*
X11993316Y-16627376D01*
X11993316Y-16627376D02*
X11983792Y-16646423D01*
X11983792Y-16646423D02*
X11974269Y-16655947D01*
X11974269Y-16655947D02*
X11955221Y-16665471D01*
X11955221Y-16665471D02*
X11936173Y-16665471D01*
X11936173Y-16665471D02*
X11917126Y-16655947D01*
X11917126Y-16655947D02*
X11907602Y-16646423D01*
X11907602Y-16646423D02*
X11898078Y-16627376D01*
X11898078Y-16627376D02*
X11888554Y-16589281D01*
X11888554Y-16589281D02*
X11888554Y-16541661D01*
X11888554Y-16541661D02*
X11898078Y-16503566D01*
X11898078Y-16503566D02*
X11907602Y-16484519D01*
X11907602Y-16484519D02*
X11917126Y-16474995D01*
X11917126Y-16474995D02*
X11936173Y-16465471D01*
X12088554Y-16646423D02*
X12098078Y-16655947D01*
X12098078Y-16655947D02*
X12088554Y-16665471D01*
X12088554Y-16665471D02*
X12079030Y-16655947D01*
X12079030Y-16655947D02*
X12088554Y-16646423D01*
X12088554Y-16646423D02*
X12088554Y-16665471D01*
X12221888Y-16465471D02*
X12240935Y-16465471D01*
X12240935Y-16465471D02*
X12259983Y-16474995D01*
X12259983Y-16474995D02*
X12269507Y-16484519D01*
X12269507Y-16484519D02*
X12279030Y-16503566D01*
X12279030Y-16503566D02*
X12288554Y-16541661D01*
X12288554Y-16541661D02*
X12288554Y-16589281D01*
X12288554Y-16589281D02*
X12279030Y-16627376D01*
X12279030Y-16627376D02*
X12269507Y-16646423D01*
X12269507Y-16646423D02*
X12259983Y-16655947D01*
X12259983Y-16655947D02*
X12240935Y-16665471D01*
X12240935Y-16665471D02*
X12221888Y-16665471D01*
X12221888Y-16665471D02*
X12202840Y-16655947D01*
X12202840Y-16655947D02*
X12193316Y-16646423D01*
X12193316Y-16646423D02*
X12183792Y-16627376D01*
X12183792Y-16627376D02*
X12174269Y-16589281D01*
X12174269Y-16589281D02*
X12174269Y-16541661D01*
X12174269Y-16541661D02*
X12183792Y-16503566D01*
X12183792Y-16503566D02*
X12193316Y-16484519D01*
X12193316Y-16484519D02*
X12202840Y-16474995D01*
X12202840Y-16474995D02*
X12221888Y-16465471D01*
X12364745Y-16484519D02*
X12374269Y-16474995D01*
X12374269Y-16474995D02*
X12393316Y-16465471D01*
X12393316Y-16465471D02*
X12440935Y-16465471D01*
X12440935Y-16465471D02*
X12459983Y-16474995D01*
X12459983Y-16474995D02*
X12469507Y-16484519D01*
X12469507Y-16484519D02*
X12479030Y-16503566D01*
X12479030Y-16503566D02*
X12479030Y-16522614D01*
X12479030Y-16522614D02*
X12469507Y-16551185D01*
X12469507Y-16551185D02*
X12355221Y-16665471D01*
X12355221Y-16665471D02*
X12479030Y-16665471D01*
X12659983Y-16465471D02*
X12564745Y-16465471D01*
X12564745Y-16465471D02*
X12555221Y-16560709D01*
X12555221Y-16560709D02*
X12564745Y-16551185D01*
X12564745Y-16551185D02*
X12583792Y-16541661D01*
X12583792Y-16541661D02*
X12631411Y-16541661D01*
X12631411Y-16541661D02*
X12650459Y-16551185D01*
X12650459Y-16551185D02*
X12659983Y-16560709D01*
X12659983Y-16560709D02*
X12669507Y-16579757D01*
X12669507Y-16579757D02*
X12669507Y-16627376D01*
X12669507Y-16627376D02*
X12659983Y-16646423D01*
X12659983Y-16646423D02*
X12650459Y-16655947D01*
X12650459Y-16655947D02*
X12631411Y-16665471D01*
X12631411Y-16665471D02*
X12583792Y-16665471D01*
X12583792Y-16665471D02*
X12564745Y-16655947D01*
X12564745Y-16655947D02*
X12555221Y-16646423D01*
X12840935Y-16465471D02*
X12802840Y-16465471D01*
X12802840Y-16465471D02*
X12783792Y-16474995D01*
X12783792Y-16474995D02*
X12774269Y-16484519D01*
X12774269Y-16484519D02*
X12755221Y-16513090D01*
X12755221Y-16513090D02*
X12745697Y-16551185D01*
X12745697Y-16551185D02*
X12745697Y-16627376D01*
X12745697Y-16627376D02*
X12755221Y-16646423D01*
X12755221Y-16646423D02*
X12764745Y-16655947D01*
X12764745Y-16655947D02*
X12783792Y-16665471D01*
X12783792Y-16665471D02*
X12821888Y-16665471D01*
X12821888Y-16665471D02*
X12840935Y-16655947D01*
X12840935Y-16655947D02*
X12850459Y-16646423D01*
X12850459Y-16646423D02*
X12859983Y-16627376D01*
X12859983Y-16627376D02*
X12859983Y-16579757D01*
X12859983Y-16579757D02*
X12850459Y-16560709D01*
X12850459Y-16560709D02*
X12840935Y-16551185D01*
X12840935Y-16551185D02*
X12821888Y-16541661D01*
X12821888Y-16541661D02*
X12783792Y-16541661D01*
X12783792Y-16541661D02*
X12764745Y-16551185D01*
X12764745Y-16551185D02*
X12755221Y-16560709D01*
X12755221Y-16560709D02*
X12745697Y-16579757D01*
X12936173Y-16465471D02*
X12936173Y-16503566D01*
X13012364Y-16465471D02*
X13012364Y-16503566D01*
X13307602Y-16741661D02*
X13298078Y-16732138D01*
X13298078Y-16732138D02*
X13279031Y-16703566D01*
X13279031Y-16703566D02*
X13269507Y-16684519D01*
X13269507Y-16684519D02*
X13259983Y-16655947D01*
X13259983Y-16655947D02*
X13250459Y-16608328D01*
X13250459Y-16608328D02*
X13250459Y-16570233D01*
X13250459Y-16570233D02*
X13259983Y-16522614D01*
X13259983Y-16522614D02*
X13269507Y-16494042D01*
X13269507Y-16494042D02*
X13279031Y-16474995D01*
X13279031Y-16474995D02*
X13298078Y-16446423D01*
X13298078Y-16446423D02*
X13307602Y-16436900D01*
X13469507Y-16532138D02*
X13469507Y-16665471D01*
X13421888Y-16455947D02*
X13374269Y-16598804D01*
X13374269Y-16598804D02*
X13498078Y-16598804D01*
X13726650Y-16665471D02*
X13726650Y-16465471D01*
X13812364Y-16665471D02*
X13812364Y-16560709D01*
X13812364Y-16560709D02*
X13802840Y-16541661D01*
X13802840Y-16541661D02*
X13783793Y-16532138D01*
X13783793Y-16532138D02*
X13755221Y-16532138D01*
X13755221Y-16532138D02*
X13736173Y-16541661D01*
X13736173Y-16541661D02*
X13726650Y-16551185D01*
X13936173Y-16665471D02*
X13917126Y-16655947D01*
X13917126Y-16655947D02*
X13907602Y-16646423D01*
X13907602Y-16646423D02*
X13898078Y-16627376D01*
X13898078Y-16627376D02*
X13898078Y-16570233D01*
X13898078Y-16570233D02*
X13907602Y-16551185D01*
X13907602Y-16551185D02*
X13917126Y-16541661D01*
X13917126Y-16541661D02*
X13936173Y-16532138D01*
X13936173Y-16532138D02*
X13964745Y-16532138D01*
X13964745Y-16532138D02*
X13983793Y-16541661D01*
X13983793Y-16541661D02*
X13993316Y-16551185D01*
X13993316Y-16551185D02*
X14002840Y-16570233D01*
X14002840Y-16570233D02*
X14002840Y-16627376D01*
X14002840Y-16627376D02*
X13993316Y-16646423D01*
X13993316Y-16646423D02*
X13983793Y-16655947D01*
X13983793Y-16655947D02*
X13964745Y-16665471D01*
X13964745Y-16665471D02*
X13936173Y-16665471D01*
X14117126Y-16665471D02*
X14098078Y-16655947D01*
X14098078Y-16655947D02*
X14088554Y-16636900D01*
X14088554Y-16636900D02*
X14088554Y-16465471D01*
X14269507Y-16655947D02*
X14250459Y-16665471D01*
X14250459Y-16665471D02*
X14212364Y-16665471D01*
X14212364Y-16665471D02*
X14193316Y-16655947D01*
X14193316Y-16655947D02*
X14183793Y-16636900D01*
X14183793Y-16636900D02*
X14183793Y-16560709D01*
X14183793Y-16560709D02*
X14193316Y-16541661D01*
X14193316Y-16541661D02*
X14212364Y-16532138D01*
X14212364Y-16532138D02*
X14250459Y-16532138D01*
X14250459Y-16532138D02*
X14269507Y-16541661D01*
X14269507Y-16541661D02*
X14279031Y-16560709D01*
X14279031Y-16560709D02*
X14279031Y-16579757D01*
X14279031Y-16579757D02*
X14183793Y-16598804D01*
X14355221Y-16655947D02*
X14374269Y-16665471D01*
X14374269Y-16665471D02*
X14412364Y-16665471D01*
X14412364Y-16665471D02*
X14431412Y-16655947D01*
X14431412Y-16655947D02*
X14440935Y-16636900D01*
X14440935Y-16636900D02*
X14440935Y-16627376D01*
X14440935Y-16627376D02*
X14431412Y-16608328D01*
X14431412Y-16608328D02*
X14412364Y-16598804D01*
X14412364Y-16598804D02*
X14383793Y-16598804D01*
X14383793Y-16598804D02*
X14364745Y-16589281D01*
X14364745Y-16589281D02*
X14355221Y-16570233D01*
X14355221Y-16570233D02*
X14355221Y-16560709D01*
X14355221Y-16560709D02*
X14364745Y-16541661D01*
X14364745Y-16541661D02*
X14383793Y-16532138D01*
X14383793Y-16532138D02*
X14412364Y-16532138D01*
X14412364Y-16532138D02*
X14431412Y-16541661D01*
X14507602Y-16741661D02*
X14517126Y-16732138D01*
X14517126Y-16732138D02*
X14536174Y-16703566D01*
X14536174Y-16703566D02*
X14545697Y-16684519D01*
X14545697Y-16684519D02*
X14555221Y-16655947D01*
X14555221Y-16655947D02*
X14564745Y-16608328D01*
X14564745Y-16608328D02*
X14564745Y-16570233D01*
X14564745Y-16570233D02*
X14555221Y-16522614D01*
X14555221Y-16522614D02*
X14545697Y-16494042D01*
X14545697Y-16494042D02*
X14536174Y-16474995D01*
X14536174Y-16474995D02*
X14517126Y-16446423D01*
X14517126Y-16446423D02*
X14507602Y-16436900D01*
X14869507Y-16741661D02*
X14859983Y-16732138D01*
X14859983Y-16732138D02*
X14840935Y-16703566D01*
X14840935Y-16703566D02*
X14831412Y-16684519D01*
X14831412Y-16684519D02*
X14821888Y-16655947D01*
X14821888Y-16655947D02*
X14812364Y-16608328D01*
X14812364Y-16608328D02*
X14812364Y-16570233D01*
X14812364Y-16570233D02*
X14821888Y-16522614D01*
X14821888Y-16522614D02*
X14831412Y-16494042D01*
X14831412Y-16494042D02*
X14840935Y-16474995D01*
X14840935Y-16474995D02*
X14859983Y-16446423D01*
X14859983Y-16446423D02*
X14869507Y-16436900D01*
X14945697Y-16532138D02*
X14945697Y-16665471D01*
X14945697Y-16551185D02*
X14955221Y-16541661D01*
X14955221Y-16541661D02*
X14974269Y-16532138D01*
X14974269Y-16532138D02*
X15002840Y-16532138D01*
X15002840Y-16532138D02*
X15021888Y-16541661D01*
X15021888Y-16541661D02*
X15031412Y-16560709D01*
X15031412Y-16560709D02*
X15031412Y-16665471D01*
X15155221Y-16665471D02*
X15136174Y-16655947D01*
X15136174Y-16655947D02*
X15126650Y-16646423D01*
X15126650Y-16646423D02*
X15117126Y-16627376D01*
X15117126Y-16627376D02*
X15117126Y-16570233D01*
X15117126Y-16570233D02*
X15126650Y-16551185D01*
X15126650Y-16551185D02*
X15136174Y-16541661D01*
X15136174Y-16541661D02*
X15155221Y-16532138D01*
X15155221Y-16532138D02*
X15183793Y-16532138D01*
X15183793Y-16532138D02*
X15202840Y-16541661D01*
X15202840Y-16541661D02*
X15212364Y-16551185D01*
X15212364Y-16551185D02*
X15221888Y-16570233D01*
X15221888Y-16570233D02*
X15221888Y-16627376D01*
X15221888Y-16627376D02*
X15212364Y-16646423D01*
X15212364Y-16646423D02*
X15202840Y-16655947D01*
X15202840Y-16655947D02*
X15183793Y-16665471D01*
X15183793Y-16665471D02*
X15155221Y-16665471D01*
X15279031Y-16532138D02*
X15355221Y-16532138D01*
X15307602Y-16465471D02*
X15307602Y-16636900D01*
X15307602Y-16636900D02*
X15317126Y-16655947D01*
X15317126Y-16655947D02*
X15336174Y-16665471D01*
X15336174Y-16665471D02*
X15355221Y-16665471D01*
X15574269Y-16532138D02*
X15574269Y-16732138D01*
X15574269Y-16541661D02*
X15593316Y-16532138D01*
X15593316Y-16532138D02*
X15631412Y-16532138D01*
X15631412Y-16532138D02*
X15650459Y-16541661D01*
X15650459Y-16541661D02*
X15659983Y-16551185D01*
X15659983Y-16551185D02*
X15669507Y-16570233D01*
X15669507Y-16570233D02*
X15669507Y-16627376D01*
X15669507Y-16627376D02*
X15659983Y-16646423D01*
X15659983Y-16646423D02*
X15650459Y-16655947D01*
X15650459Y-16655947D02*
X15631412Y-16665471D01*
X15631412Y-16665471D02*
X15593316Y-16665471D01*
X15593316Y-16665471D02*
X15574269Y-16655947D01*
X15783793Y-16665471D02*
X15764745Y-16655947D01*
X15764745Y-16655947D02*
X15755221Y-16636900D01*
X15755221Y-16636900D02*
X15755221Y-16465471D01*
X15945697Y-16665471D02*
X15945697Y-16560709D01*
X15945697Y-16560709D02*
X15936174Y-16541661D01*
X15936174Y-16541661D02*
X15917126Y-16532138D01*
X15917126Y-16532138D02*
X15879031Y-16532138D01*
X15879031Y-16532138D02*
X15859983Y-16541661D01*
X15945697Y-16655947D02*
X15926650Y-16665471D01*
X15926650Y-16665471D02*
X15879031Y-16665471D01*
X15879031Y-16665471D02*
X15859983Y-16655947D01*
X15859983Y-16655947D02*
X15850459Y-16636900D01*
X15850459Y-16636900D02*
X15850459Y-16617852D01*
X15850459Y-16617852D02*
X15859983Y-16598804D01*
X15859983Y-16598804D02*
X15879031Y-16589281D01*
X15879031Y-16589281D02*
X15926650Y-16589281D01*
X15926650Y-16589281D02*
X15945697Y-16579757D01*
X16012364Y-16532138D02*
X16088555Y-16532138D01*
X16040936Y-16465471D02*
X16040936Y-16636900D01*
X16040936Y-16636900D02*
X16050459Y-16655947D01*
X16050459Y-16655947D02*
X16069507Y-16665471D01*
X16069507Y-16665471D02*
X16088555Y-16665471D01*
X16231412Y-16655947D02*
X16212364Y-16665471D01*
X16212364Y-16665471D02*
X16174269Y-16665471D01*
X16174269Y-16665471D02*
X16155221Y-16655947D01*
X16155221Y-16655947D02*
X16145697Y-16636900D01*
X16145697Y-16636900D02*
X16145697Y-16560709D01*
X16145697Y-16560709D02*
X16155221Y-16541661D01*
X16155221Y-16541661D02*
X16174269Y-16532138D01*
X16174269Y-16532138D02*
X16212364Y-16532138D01*
X16212364Y-16532138D02*
X16231412Y-16541661D01*
X16231412Y-16541661D02*
X16240936Y-16560709D01*
X16240936Y-16560709D02*
X16240936Y-16579757D01*
X16240936Y-16579757D02*
X16145697Y-16598804D01*
X16412364Y-16665471D02*
X16412364Y-16465471D01*
X16412364Y-16655947D02*
X16393317Y-16665471D01*
X16393317Y-16665471D02*
X16355221Y-16665471D01*
X16355221Y-16665471D02*
X16336174Y-16655947D01*
X16336174Y-16655947D02*
X16326650Y-16646423D01*
X16326650Y-16646423D02*
X16317126Y-16627376D01*
X16317126Y-16627376D02*
X16317126Y-16570233D01*
X16317126Y-16570233D02*
X16326650Y-16551185D01*
X16326650Y-16551185D02*
X16336174Y-16541661D01*
X16336174Y-16541661D02*
X16355221Y-16532138D01*
X16355221Y-16532138D02*
X16393317Y-16532138D01*
X16393317Y-16532138D02*
X16412364Y-16541661D01*
X16488555Y-16741661D02*
X16498078Y-16732138D01*
X16498078Y-16732138D02*
X16517126Y-16703566D01*
X16517126Y-16703566D02*
X16526650Y-16684519D01*
X16526650Y-16684519D02*
X16536174Y-16655947D01*
X16536174Y-16655947D02*
X16545697Y-16608328D01*
X16545697Y-16608328D02*
X16545697Y-16570233D01*
X16545697Y-16570233D02*
X16536174Y-16522614D01*
X16536174Y-16522614D02*
X16526650Y-16494042D01*
X16526650Y-16494042D02*
X16517126Y-16474995D01*
X16517126Y-16474995D02*
X16498078Y-16446423D01*
X16498078Y-16446423D02*
X16488555Y-16436900D01*
D11*
X9699539Y-16804987D02*
X9699539Y-16870987D01*
X9666539Y-16837987D02*
X9732539Y-16837987D01*
D10*
X10031411Y-16729471D02*
X10050459Y-16729471D01*
X10050459Y-16729471D02*
X10069507Y-16738995D01*
X10069507Y-16738995D02*
X10079030Y-16748519D01*
X10079030Y-16748519D02*
X10088554Y-16767566D01*
X10088554Y-16767566D02*
X10098078Y-16805662D01*
X10098078Y-16805662D02*
X10098078Y-16853281D01*
X10098078Y-16853281D02*
X10088554Y-16891376D01*
X10088554Y-16891376D02*
X10079030Y-16910423D01*
X10079030Y-16910423D02*
X10069507Y-16919947D01*
X10069507Y-16919947D02*
X10050459Y-16929471D01*
X10050459Y-16929471D02*
X10031411Y-16929471D01*
X10031411Y-16929471D02*
X10012364Y-16919947D01*
X10012364Y-16919947D02*
X10002840Y-16910423D01*
X10002840Y-16910423D02*
X9993316Y-16891376D01*
X9993316Y-16891376D02*
X9983792Y-16853281D01*
X9983792Y-16853281D02*
X9983792Y-16805662D01*
X9983792Y-16805662D02*
X9993316Y-16767566D01*
X9993316Y-16767566D02*
X10002840Y-16748519D01*
X10002840Y-16748519D02*
X10012364Y-16738995D01*
X10012364Y-16738995D02*
X10031411Y-16729471D01*
X10183792Y-16910423D02*
X10193316Y-16919947D01*
X10193316Y-16919947D02*
X10183792Y-16929471D01*
X10183792Y-16929471D02*
X10174268Y-16919947D01*
X10174268Y-16919947D02*
X10183792Y-16910423D01*
X10183792Y-16910423D02*
X10183792Y-16929471D01*
X10364745Y-16729471D02*
X10326649Y-16729471D01*
X10326649Y-16729471D02*
X10307602Y-16738995D01*
X10307602Y-16738995D02*
X10298078Y-16748519D01*
X10298078Y-16748519D02*
X10279030Y-16777090D01*
X10279030Y-16777090D02*
X10269507Y-16815185D01*
X10269507Y-16815185D02*
X10269507Y-16891376D01*
X10269507Y-16891376D02*
X10279030Y-16910423D01*
X10279030Y-16910423D02*
X10288554Y-16919947D01*
X10288554Y-16919947D02*
X10307602Y-16929471D01*
X10307602Y-16929471D02*
X10345697Y-16929471D01*
X10345697Y-16929471D02*
X10364745Y-16919947D01*
X10364745Y-16919947D02*
X10374268Y-16910423D01*
X10374268Y-16910423D02*
X10383792Y-16891376D01*
X10383792Y-16891376D02*
X10383792Y-16843757D01*
X10383792Y-16843757D02*
X10374268Y-16824709D01*
X10374268Y-16824709D02*
X10364745Y-16815185D01*
X10364745Y-16815185D02*
X10345697Y-16805662D01*
X10345697Y-16805662D02*
X10307602Y-16805662D01*
X10307602Y-16805662D02*
X10288554Y-16815185D01*
X10288554Y-16815185D02*
X10279030Y-16824709D01*
X10279030Y-16824709D02*
X10269507Y-16843757D01*
X10555221Y-16729471D02*
X10517126Y-16729471D01*
X10517126Y-16729471D02*
X10498078Y-16738995D01*
X10498078Y-16738995D02*
X10488554Y-16748519D01*
X10488554Y-16748519D02*
X10469507Y-16777090D01*
X10469507Y-16777090D02*
X10459983Y-16815185D01*
X10459983Y-16815185D02*
X10459983Y-16891376D01*
X10459983Y-16891376D02*
X10469507Y-16910423D01*
X10469507Y-16910423D02*
X10479030Y-16919947D01*
X10479030Y-16919947D02*
X10498078Y-16929471D01*
X10498078Y-16929471D02*
X10536173Y-16929471D01*
X10536173Y-16929471D02*
X10555221Y-16919947D01*
X10555221Y-16919947D02*
X10564745Y-16910423D01*
X10564745Y-16910423D02*
X10574268Y-16891376D01*
X10574268Y-16891376D02*
X10574268Y-16843757D01*
X10574268Y-16843757D02*
X10564745Y-16824709D01*
X10564745Y-16824709D02*
X10555221Y-16815185D01*
X10555221Y-16815185D02*
X10536173Y-16805662D01*
X10536173Y-16805662D02*
X10498078Y-16805662D01*
X10498078Y-16805662D02*
X10479030Y-16815185D01*
X10479030Y-16815185D02*
X10469507Y-16824709D01*
X10469507Y-16824709D02*
X10459983Y-16843757D01*
X10698078Y-16729471D02*
X10717126Y-16729471D01*
X10717126Y-16729471D02*
X10736173Y-16738995D01*
X10736173Y-16738995D02*
X10745697Y-16748519D01*
X10745697Y-16748519D02*
X10755221Y-16767566D01*
X10755221Y-16767566D02*
X10764745Y-16805662D01*
X10764745Y-16805662D02*
X10764745Y-16853281D01*
X10764745Y-16853281D02*
X10755221Y-16891376D01*
X10755221Y-16891376D02*
X10745697Y-16910423D01*
X10745697Y-16910423D02*
X10736173Y-16919947D01*
X10736173Y-16919947D02*
X10717126Y-16929471D01*
X10717126Y-16929471D02*
X10698078Y-16929471D01*
X10698078Y-16929471D02*
X10679030Y-16919947D01*
X10679030Y-16919947D02*
X10669507Y-16910423D01*
X10669507Y-16910423D02*
X10659983Y-16891376D01*
X10659983Y-16891376D02*
X10650459Y-16853281D01*
X10650459Y-16853281D02*
X10650459Y-16805662D01*
X10650459Y-16805662D02*
X10659983Y-16767566D01*
X10659983Y-16767566D02*
X10669507Y-16748519D01*
X10669507Y-16748519D02*
X10679030Y-16738995D01*
X10679030Y-16738995D02*
X10698078Y-16729471D01*
X10850459Y-16929471D02*
X10850459Y-16796138D01*
X10850459Y-16815185D02*
X10859983Y-16805662D01*
X10859983Y-16805662D02*
X10879030Y-16796138D01*
X10879030Y-16796138D02*
X10907602Y-16796138D01*
X10907602Y-16796138D02*
X10926649Y-16805662D01*
X10926649Y-16805662D02*
X10936173Y-16824709D01*
X10936173Y-16824709D02*
X10936173Y-16929471D01*
X10936173Y-16824709D02*
X10945697Y-16805662D01*
X10945697Y-16805662D02*
X10964745Y-16796138D01*
X10964745Y-16796138D02*
X10993316Y-16796138D01*
X10993316Y-16796138D02*
X11012364Y-16805662D01*
X11012364Y-16805662D02*
X11021888Y-16824709D01*
X11021888Y-16824709D02*
X11021888Y-16929471D01*
X11117126Y-16929471D02*
X11117126Y-16796138D01*
X11117126Y-16815185D02*
X11126649Y-16805662D01*
X11126649Y-16805662D02*
X11145697Y-16796138D01*
X11145697Y-16796138D02*
X11174269Y-16796138D01*
X11174269Y-16796138D02*
X11193316Y-16805662D01*
X11193316Y-16805662D02*
X11202840Y-16824709D01*
X11202840Y-16824709D02*
X11202840Y-16929471D01*
X11202840Y-16824709D02*
X11212364Y-16805662D01*
X11212364Y-16805662D02*
X11231411Y-16796138D01*
X11231411Y-16796138D02*
X11259983Y-16796138D01*
X11259983Y-16796138D02*
X11279030Y-16805662D01*
X11279030Y-16805662D02*
X11288554Y-16824709D01*
X11288554Y-16824709D02*
X11288554Y-16929471D01*
X11679030Y-16719947D02*
X11507602Y-16977090D01*
X11936173Y-16729471D02*
X11955221Y-16729471D01*
X11955221Y-16729471D02*
X11974269Y-16738995D01*
X11974269Y-16738995D02*
X11983792Y-16748519D01*
X11983792Y-16748519D02*
X11993316Y-16767566D01*
X11993316Y-16767566D02*
X12002840Y-16805662D01*
X12002840Y-16805662D02*
X12002840Y-16853281D01*
X12002840Y-16853281D02*
X11993316Y-16891376D01*
X11993316Y-16891376D02*
X11983792Y-16910423D01*
X11983792Y-16910423D02*
X11974269Y-16919947D01*
X11974269Y-16919947D02*
X11955221Y-16929471D01*
X11955221Y-16929471D02*
X11936173Y-16929471D01*
X11936173Y-16929471D02*
X11917126Y-16919947D01*
X11917126Y-16919947D02*
X11907602Y-16910423D01*
X11907602Y-16910423D02*
X11898078Y-16891376D01*
X11898078Y-16891376D02*
X11888554Y-16853281D01*
X11888554Y-16853281D02*
X11888554Y-16805662D01*
X11888554Y-16805662D02*
X11898078Y-16767566D01*
X11898078Y-16767566D02*
X11907602Y-16748519D01*
X11907602Y-16748519D02*
X11917126Y-16738995D01*
X11917126Y-16738995D02*
X11936173Y-16729471D01*
X12088554Y-16910423D02*
X12098078Y-16919947D01*
X12098078Y-16919947D02*
X12088554Y-16929471D01*
X12088554Y-16929471D02*
X12079030Y-16919947D01*
X12079030Y-16919947D02*
X12088554Y-16910423D01*
X12088554Y-16910423D02*
X12088554Y-16929471D01*
X12221888Y-16729471D02*
X12240935Y-16729471D01*
X12240935Y-16729471D02*
X12259983Y-16738995D01*
X12259983Y-16738995D02*
X12269507Y-16748519D01*
X12269507Y-16748519D02*
X12279030Y-16767566D01*
X12279030Y-16767566D02*
X12288554Y-16805662D01*
X12288554Y-16805662D02*
X12288554Y-16853281D01*
X12288554Y-16853281D02*
X12279030Y-16891376D01*
X12279030Y-16891376D02*
X12269507Y-16910423D01*
X12269507Y-16910423D02*
X12259983Y-16919947D01*
X12259983Y-16919947D02*
X12240935Y-16929471D01*
X12240935Y-16929471D02*
X12221888Y-16929471D01*
X12221888Y-16929471D02*
X12202840Y-16919947D01*
X12202840Y-16919947D02*
X12193316Y-16910423D01*
X12193316Y-16910423D02*
X12183792Y-16891376D01*
X12183792Y-16891376D02*
X12174269Y-16853281D01*
X12174269Y-16853281D02*
X12174269Y-16805662D01*
X12174269Y-16805662D02*
X12183792Y-16767566D01*
X12183792Y-16767566D02*
X12193316Y-16748519D01*
X12193316Y-16748519D02*
X12202840Y-16738995D01*
X12202840Y-16738995D02*
X12221888Y-16729471D01*
X12364745Y-16748519D02*
X12374269Y-16738995D01*
X12374269Y-16738995D02*
X12393316Y-16729471D01*
X12393316Y-16729471D02*
X12440935Y-16729471D01*
X12440935Y-16729471D02*
X12459983Y-16738995D01*
X12459983Y-16738995D02*
X12469507Y-16748519D01*
X12469507Y-16748519D02*
X12479030Y-16767566D01*
X12479030Y-16767566D02*
X12479030Y-16786614D01*
X12479030Y-16786614D02*
X12469507Y-16815185D01*
X12469507Y-16815185D02*
X12355221Y-16929471D01*
X12355221Y-16929471D02*
X12479030Y-16929471D01*
X12650459Y-16729471D02*
X12612364Y-16729471D01*
X12612364Y-16729471D02*
X12593316Y-16738995D01*
X12593316Y-16738995D02*
X12583792Y-16748519D01*
X12583792Y-16748519D02*
X12564745Y-16777090D01*
X12564745Y-16777090D02*
X12555221Y-16815185D01*
X12555221Y-16815185D02*
X12555221Y-16891376D01*
X12555221Y-16891376D02*
X12564745Y-16910423D01*
X12564745Y-16910423D02*
X12574269Y-16919947D01*
X12574269Y-16919947D02*
X12593316Y-16929471D01*
X12593316Y-16929471D02*
X12631411Y-16929471D01*
X12631411Y-16929471D02*
X12650459Y-16919947D01*
X12650459Y-16919947D02*
X12659983Y-16910423D01*
X12659983Y-16910423D02*
X12669507Y-16891376D01*
X12669507Y-16891376D02*
X12669507Y-16843757D01*
X12669507Y-16843757D02*
X12659983Y-16824709D01*
X12659983Y-16824709D02*
X12650459Y-16815185D01*
X12650459Y-16815185D02*
X12631411Y-16805662D01*
X12631411Y-16805662D02*
X12593316Y-16805662D01*
X12593316Y-16805662D02*
X12574269Y-16815185D01*
X12574269Y-16815185D02*
X12564745Y-16824709D01*
X12564745Y-16824709D02*
X12555221Y-16843757D01*
X12793316Y-16729471D02*
X12812364Y-16729471D01*
X12812364Y-16729471D02*
X12831411Y-16738995D01*
X12831411Y-16738995D02*
X12840935Y-16748519D01*
X12840935Y-16748519D02*
X12850459Y-16767566D01*
X12850459Y-16767566D02*
X12859983Y-16805662D01*
X12859983Y-16805662D02*
X12859983Y-16853281D01*
X12859983Y-16853281D02*
X12850459Y-16891376D01*
X12850459Y-16891376D02*
X12840935Y-16910423D01*
X12840935Y-16910423D02*
X12831411Y-16919947D01*
X12831411Y-16919947D02*
X12812364Y-16929471D01*
X12812364Y-16929471D02*
X12793316Y-16929471D01*
X12793316Y-16929471D02*
X12774269Y-16919947D01*
X12774269Y-16919947D02*
X12764745Y-16910423D01*
X12764745Y-16910423D02*
X12755221Y-16891376D01*
X12755221Y-16891376D02*
X12745697Y-16853281D01*
X12745697Y-16853281D02*
X12745697Y-16805662D01*
X12745697Y-16805662D02*
X12755221Y-16767566D01*
X12755221Y-16767566D02*
X12764745Y-16748519D01*
X12764745Y-16748519D02*
X12774269Y-16738995D01*
X12774269Y-16738995D02*
X12793316Y-16729471D01*
X12936173Y-16729471D02*
X12936173Y-16767566D01*
X13012364Y-16729471D02*
X13012364Y-16767566D01*
X13307602Y-17005662D02*
X13298078Y-16996138D01*
X13298078Y-16996138D02*
X13279031Y-16967566D01*
X13279031Y-16967566D02*
X13269507Y-16948519D01*
X13269507Y-16948519D02*
X13259983Y-16919947D01*
X13259983Y-16919947D02*
X13250459Y-16872328D01*
X13250459Y-16872328D02*
X13250459Y-16834233D01*
X13250459Y-16834233D02*
X13259983Y-16786614D01*
X13259983Y-16786614D02*
X13269507Y-16758042D01*
X13269507Y-16758042D02*
X13279031Y-16738995D01*
X13279031Y-16738995D02*
X13298078Y-16710423D01*
X13298078Y-16710423D02*
X13307602Y-16700900D01*
X13374269Y-16748519D02*
X13383792Y-16738995D01*
X13383792Y-16738995D02*
X13402840Y-16729471D01*
X13402840Y-16729471D02*
X13450459Y-16729471D01*
X13450459Y-16729471D02*
X13469507Y-16738995D01*
X13469507Y-16738995D02*
X13479031Y-16748519D01*
X13479031Y-16748519D02*
X13488554Y-16767566D01*
X13488554Y-16767566D02*
X13488554Y-16786614D01*
X13488554Y-16786614D02*
X13479031Y-16815185D01*
X13479031Y-16815185D02*
X13364745Y-16929471D01*
X13364745Y-16929471D02*
X13488554Y-16929471D01*
X13726650Y-16929471D02*
X13726650Y-16729471D01*
X13812364Y-16929471D02*
X13812364Y-16824709D01*
X13812364Y-16824709D02*
X13802840Y-16805662D01*
X13802840Y-16805662D02*
X13783793Y-16796138D01*
X13783793Y-16796138D02*
X13755221Y-16796138D01*
X13755221Y-16796138D02*
X13736173Y-16805662D01*
X13736173Y-16805662D02*
X13726650Y-16815185D01*
X13936173Y-16929471D02*
X13917126Y-16919947D01*
X13917126Y-16919947D02*
X13907602Y-16910423D01*
X13907602Y-16910423D02*
X13898078Y-16891376D01*
X13898078Y-16891376D02*
X13898078Y-16834233D01*
X13898078Y-16834233D02*
X13907602Y-16815185D01*
X13907602Y-16815185D02*
X13917126Y-16805662D01*
X13917126Y-16805662D02*
X13936173Y-16796138D01*
X13936173Y-16796138D02*
X13964745Y-16796138D01*
X13964745Y-16796138D02*
X13983793Y-16805662D01*
X13983793Y-16805662D02*
X13993316Y-16815185D01*
X13993316Y-16815185D02*
X14002840Y-16834233D01*
X14002840Y-16834233D02*
X14002840Y-16891376D01*
X14002840Y-16891376D02*
X13993316Y-16910423D01*
X13993316Y-16910423D02*
X13983793Y-16919947D01*
X13983793Y-16919947D02*
X13964745Y-16929471D01*
X13964745Y-16929471D02*
X13936173Y-16929471D01*
X14117126Y-16929471D02*
X14098078Y-16919947D01*
X14098078Y-16919947D02*
X14088554Y-16900900D01*
X14088554Y-16900900D02*
X14088554Y-16729471D01*
X14269507Y-16919947D02*
X14250459Y-16929471D01*
X14250459Y-16929471D02*
X14212364Y-16929471D01*
X14212364Y-16929471D02*
X14193316Y-16919947D01*
X14193316Y-16919947D02*
X14183793Y-16900900D01*
X14183793Y-16900900D02*
X14183793Y-16824709D01*
X14183793Y-16824709D02*
X14193316Y-16805662D01*
X14193316Y-16805662D02*
X14212364Y-16796138D01*
X14212364Y-16796138D02*
X14250459Y-16796138D01*
X14250459Y-16796138D02*
X14269507Y-16805662D01*
X14269507Y-16805662D02*
X14279031Y-16824709D01*
X14279031Y-16824709D02*
X14279031Y-16843757D01*
X14279031Y-16843757D02*
X14183793Y-16862804D01*
X14355221Y-16919947D02*
X14374269Y-16929471D01*
X14374269Y-16929471D02*
X14412364Y-16929471D01*
X14412364Y-16929471D02*
X14431412Y-16919947D01*
X14431412Y-16919947D02*
X14440935Y-16900900D01*
X14440935Y-16900900D02*
X14440935Y-16891376D01*
X14440935Y-16891376D02*
X14431412Y-16872328D01*
X14431412Y-16872328D02*
X14412364Y-16862804D01*
X14412364Y-16862804D02*
X14383793Y-16862804D01*
X14383793Y-16862804D02*
X14364745Y-16853281D01*
X14364745Y-16853281D02*
X14355221Y-16834233D01*
X14355221Y-16834233D02*
X14355221Y-16824709D01*
X14355221Y-16824709D02*
X14364745Y-16805662D01*
X14364745Y-16805662D02*
X14383793Y-16796138D01*
X14383793Y-16796138D02*
X14412364Y-16796138D01*
X14412364Y-16796138D02*
X14431412Y-16805662D01*
X14507602Y-17005662D02*
X14517126Y-16996138D01*
X14517126Y-16996138D02*
X14536174Y-16967566D01*
X14536174Y-16967566D02*
X14545697Y-16948519D01*
X14545697Y-16948519D02*
X14555221Y-16919947D01*
X14555221Y-16919947D02*
X14564745Y-16872328D01*
X14564745Y-16872328D02*
X14564745Y-16834233D01*
X14564745Y-16834233D02*
X14555221Y-16786614D01*
X14555221Y-16786614D02*
X14545697Y-16758042D01*
X14545697Y-16758042D02*
X14536174Y-16738995D01*
X14536174Y-16738995D02*
X14517126Y-16710423D01*
X14517126Y-16710423D02*
X14507602Y-16700900D01*
X14869507Y-17005662D02*
X14859983Y-16996138D01*
X14859983Y-16996138D02*
X14840935Y-16967566D01*
X14840935Y-16967566D02*
X14831412Y-16948519D01*
X14831412Y-16948519D02*
X14821888Y-16919947D01*
X14821888Y-16919947D02*
X14812364Y-16872328D01*
X14812364Y-16872328D02*
X14812364Y-16834233D01*
X14812364Y-16834233D02*
X14821888Y-16786614D01*
X14821888Y-16786614D02*
X14831412Y-16758042D01*
X14831412Y-16758042D02*
X14840935Y-16738995D01*
X14840935Y-16738995D02*
X14859983Y-16710423D01*
X14859983Y-16710423D02*
X14869507Y-16700900D01*
X14945697Y-16796138D02*
X14945697Y-16929471D01*
X14945697Y-16815185D02*
X14955221Y-16805662D01*
X14955221Y-16805662D02*
X14974269Y-16796138D01*
X14974269Y-16796138D02*
X15002840Y-16796138D01*
X15002840Y-16796138D02*
X15021888Y-16805662D01*
X15021888Y-16805662D02*
X15031412Y-16824709D01*
X15031412Y-16824709D02*
X15031412Y-16929471D01*
X15155221Y-16929471D02*
X15136174Y-16919947D01*
X15136174Y-16919947D02*
X15126650Y-16910423D01*
X15126650Y-16910423D02*
X15117126Y-16891376D01*
X15117126Y-16891376D02*
X15117126Y-16834233D01*
X15117126Y-16834233D02*
X15126650Y-16815185D01*
X15126650Y-16815185D02*
X15136174Y-16805662D01*
X15136174Y-16805662D02*
X15155221Y-16796138D01*
X15155221Y-16796138D02*
X15183793Y-16796138D01*
X15183793Y-16796138D02*
X15202840Y-16805662D01*
X15202840Y-16805662D02*
X15212364Y-16815185D01*
X15212364Y-16815185D02*
X15221888Y-16834233D01*
X15221888Y-16834233D02*
X15221888Y-16891376D01*
X15221888Y-16891376D02*
X15212364Y-16910423D01*
X15212364Y-16910423D02*
X15202840Y-16919947D01*
X15202840Y-16919947D02*
X15183793Y-16929471D01*
X15183793Y-16929471D02*
X15155221Y-16929471D01*
X15279031Y-16796138D02*
X15355221Y-16796138D01*
X15307602Y-16729471D02*
X15307602Y-16900900D01*
X15307602Y-16900900D02*
X15317126Y-16919947D01*
X15317126Y-16919947D02*
X15336174Y-16929471D01*
X15336174Y-16929471D02*
X15355221Y-16929471D01*
X15574269Y-16796138D02*
X15574269Y-16996138D01*
X15574269Y-16805662D02*
X15593316Y-16796138D01*
X15593316Y-16796138D02*
X15631412Y-16796138D01*
X15631412Y-16796138D02*
X15650459Y-16805662D01*
X15650459Y-16805662D02*
X15659983Y-16815185D01*
X15659983Y-16815185D02*
X15669507Y-16834233D01*
X15669507Y-16834233D02*
X15669507Y-16891376D01*
X15669507Y-16891376D02*
X15659983Y-16910423D01*
X15659983Y-16910423D02*
X15650459Y-16919947D01*
X15650459Y-16919947D02*
X15631412Y-16929471D01*
X15631412Y-16929471D02*
X15593316Y-16929471D01*
X15593316Y-16929471D02*
X15574269Y-16919947D01*
X15783793Y-16929471D02*
X15764745Y-16919947D01*
X15764745Y-16919947D02*
X15755221Y-16900900D01*
X15755221Y-16900900D02*
X15755221Y-16729471D01*
X15945697Y-16929471D02*
X15945697Y-16824709D01*
X15945697Y-16824709D02*
X15936174Y-16805662D01*
X15936174Y-16805662D02*
X15917126Y-16796138D01*
X15917126Y-16796138D02*
X15879031Y-16796138D01*
X15879031Y-16796138D02*
X15859983Y-16805662D01*
X15945697Y-16919947D02*
X15926650Y-16929471D01*
X15926650Y-16929471D02*
X15879031Y-16929471D01*
X15879031Y-16929471D02*
X15859983Y-16919947D01*
X15859983Y-16919947D02*
X15850459Y-16900900D01*
X15850459Y-16900900D02*
X15850459Y-16881852D01*
X15850459Y-16881852D02*
X15859983Y-16862804D01*
X15859983Y-16862804D02*
X15879031Y-16853281D01*
X15879031Y-16853281D02*
X15926650Y-16853281D01*
X15926650Y-16853281D02*
X15945697Y-16843757D01*
X16012364Y-16796138D02*
X16088555Y-16796138D01*
X16040936Y-16729471D02*
X16040936Y-16900900D01*
X16040936Y-16900900D02*
X16050459Y-16919947D01*
X16050459Y-16919947D02*
X16069507Y-16929471D01*
X16069507Y-16929471D02*
X16088555Y-16929471D01*
X16231412Y-16919947D02*
X16212364Y-16929471D01*
X16212364Y-16929471D02*
X16174269Y-16929471D01*
X16174269Y-16929471D02*
X16155221Y-16919947D01*
X16155221Y-16919947D02*
X16145697Y-16900900D01*
X16145697Y-16900900D02*
X16145697Y-16824709D01*
X16145697Y-16824709D02*
X16155221Y-16805662D01*
X16155221Y-16805662D02*
X16174269Y-16796138D01*
X16174269Y-16796138D02*
X16212364Y-16796138D01*
X16212364Y-16796138D02*
X16231412Y-16805662D01*
X16231412Y-16805662D02*
X16240936Y-16824709D01*
X16240936Y-16824709D02*
X16240936Y-16843757D01*
X16240936Y-16843757D02*
X16145697Y-16862804D01*
X16412364Y-16929471D02*
X16412364Y-16729471D01*
X16412364Y-16919947D02*
X16393317Y-16929471D01*
X16393317Y-16929471D02*
X16355221Y-16929471D01*
X16355221Y-16929471D02*
X16336174Y-16919947D01*
X16336174Y-16919947D02*
X16326650Y-16910423D01*
X16326650Y-16910423D02*
X16317126Y-16891376D01*
X16317126Y-16891376D02*
X16317126Y-16834233D01*
X16317126Y-16834233D02*
X16326650Y-16815185D01*
X16326650Y-16815185D02*
X16336174Y-16805662D01*
X16336174Y-16805662D02*
X16355221Y-16796138D01*
X16355221Y-16796138D02*
X16393317Y-16796138D01*
X16393317Y-16796138D02*
X16412364Y-16805662D01*
X16488555Y-17005662D02*
X16498078Y-16996138D01*
X16498078Y-16996138D02*
X16517126Y-16967566D01*
X16517126Y-16967566D02*
X16526650Y-16948519D01*
X16526650Y-16948519D02*
X16536174Y-16919947D01*
X16536174Y-16919947D02*
X16545697Y-16872328D01*
X16545697Y-16872328D02*
X16545697Y-16834233D01*
X16545697Y-16834233D02*
X16536174Y-16786614D01*
X16536174Y-16786614D02*
X16526650Y-16758042D01*
X16526650Y-16758042D02*
X16517126Y-16738995D01*
X16517126Y-16738995D02*
X16498078Y-16710423D01*
X16498078Y-16710423D02*
X16488555Y-16700900D01*
X9703251Y-17172699D02*
X9703251Y-17031276D01*
X9561828Y-17031276D01*
X9561828Y-17172699D01*
X9703251Y-17172699D01*
X9974268Y-16993471D02*
X10098078Y-16993471D01*
X10098078Y-16993471D02*
X10031411Y-17069662D01*
X10031411Y-17069662D02*
X10059983Y-17069662D01*
X10059983Y-17069662D02*
X10079030Y-17079185D01*
X10079030Y-17079185D02*
X10088554Y-17088709D01*
X10088554Y-17088709D02*
X10098078Y-17107757D01*
X10098078Y-17107757D02*
X10098078Y-17155376D01*
X10098078Y-17155376D02*
X10088554Y-17174423D01*
X10088554Y-17174423D02*
X10079030Y-17183947D01*
X10079030Y-17183947D02*
X10059983Y-17193471D01*
X10059983Y-17193471D02*
X10002840Y-17193471D01*
X10002840Y-17193471D02*
X9983792Y-17183947D01*
X9983792Y-17183947D02*
X9974268Y-17174423D01*
X10183792Y-17174423D02*
X10193316Y-17183947D01*
X10193316Y-17183947D02*
X10183792Y-17193471D01*
X10183792Y-17193471D02*
X10174268Y-17183947D01*
X10174268Y-17183947D02*
X10183792Y-17174423D01*
X10183792Y-17174423D02*
X10183792Y-17193471D01*
X10269507Y-17012519D02*
X10279030Y-17002995D01*
X10279030Y-17002995D02*
X10298078Y-16993471D01*
X10298078Y-16993471D02*
X10345697Y-16993471D01*
X10345697Y-16993471D02*
X10364745Y-17002995D01*
X10364745Y-17002995D02*
X10374268Y-17012519D01*
X10374268Y-17012519D02*
X10383792Y-17031566D01*
X10383792Y-17031566D02*
X10383792Y-17050614D01*
X10383792Y-17050614D02*
X10374268Y-17079185D01*
X10374268Y-17079185D02*
X10259983Y-17193471D01*
X10259983Y-17193471D02*
X10383792Y-17193471D01*
X10507602Y-16993471D02*
X10526649Y-16993471D01*
X10526649Y-16993471D02*
X10545697Y-17002995D01*
X10545697Y-17002995D02*
X10555221Y-17012519D01*
X10555221Y-17012519D02*
X10564745Y-17031566D01*
X10564745Y-17031566D02*
X10574268Y-17069662D01*
X10574268Y-17069662D02*
X10574268Y-17117281D01*
X10574268Y-17117281D02*
X10564745Y-17155376D01*
X10564745Y-17155376D02*
X10555221Y-17174423D01*
X10555221Y-17174423D02*
X10545697Y-17183947D01*
X10545697Y-17183947D02*
X10526649Y-17193471D01*
X10526649Y-17193471D02*
X10507602Y-17193471D01*
X10507602Y-17193471D02*
X10488554Y-17183947D01*
X10488554Y-17183947D02*
X10479030Y-17174423D01*
X10479030Y-17174423D02*
X10469507Y-17155376D01*
X10469507Y-17155376D02*
X10459983Y-17117281D01*
X10459983Y-17117281D02*
X10459983Y-17069662D01*
X10459983Y-17069662D02*
X10469507Y-17031566D01*
X10469507Y-17031566D02*
X10479030Y-17012519D01*
X10479030Y-17012519D02*
X10488554Y-17002995D01*
X10488554Y-17002995D02*
X10507602Y-16993471D01*
X10698078Y-16993471D02*
X10717126Y-16993471D01*
X10717126Y-16993471D02*
X10736173Y-17002995D01*
X10736173Y-17002995D02*
X10745697Y-17012519D01*
X10745697Y-17012519D02*
X10755221Y-17031566D01*
X10755221Y-17031566D02*
X10764745Y-17069662D01*
X10764745Y-17069662D02*
X10764745Y-17117281D01*
X10764745Y-17117281D02*
X10755221Y-17155376D01*
X10755221Y-17155376D02*
X10745697Y-17174423D01*
X10745697Y-17174423D02*
X10736173Y-17183947D01*
X10736173Y-17183947D02*
X10717126Y-17193471D01*
X10717126Y-17193471D02*
X10698078Y-17193471D01*
X10698078Y-17193471D02*
X10679030Y-17183947D01*
X10679030Y-17183947D02*
X10669507Y-17174423D01*
X10669507Y-17174423D02*
X10659983Y-17155376D01*
X10659983Y-17155376D02*
X10650459Y-17117281D01*
X10650459Y-17117281D02*
X10650459Y-17069662D01*
X10650459Y-17069662D02*
X10659983Y-17031566D01*
X10659983Y-17031566D02*
X10669507Y-17012519D01*
X10669507Y-17012519D02*
X10679030Y-17002995D01*
X10679030Y-17002995D02*
X10698078Y-16993471D01*
X10850459Y-17193471D02*
X10850459Y-17060138D01*
X10850459Y-17079185D02*
X10859983Y-17069662D01*
X10859983Y-17069662D02*
X10879030Y-17060138D01*
X10879030Y-17060138D02*
X10907602Y-17060138D01*
X10907602Y-17060138D02*
X10926649Y-17069662D01*
X10926649Y-17069662D02*
X10936173Y-17088709D01*
X10936173Y-17088709D02*
X10936173Y-17193471D01*
X10936173Y-17088709D02*
X10945697Y-17069662D01*
X10945697Y-17069662D02*
X10964745Y-17060138D01*
X10964745Y-17060138D02*
X10993316Y-17060138D01*
X10993316Y-17060138D02*
X11012364Y-17069662D01*
X11012364Y-17069662D02*
X11021888Y-17088709D01*
X11021888Y-17088709D02*
X11021888Y-17193471D01*
X11117126Y-17193471D02*
X11117126Y-17060138D01*
X11117126Y-17079185D02*
X11126649Y-17069662D01*
X11126649Y-17069662D02*
X11145697Y-17060138D01*
X11145697Y-17060138D02*
X11174269Y-17060138D01*
X11174269Y-17060138D02*
X11193316Y-17069662D01*
X11193316Y-17069662D02*
X11202840Y-17088709D01*
X11202840Y-17088709D02*
X11202840Y-17193471D01*
X11202840Y-17088709D02*
X11212364Y-17069662D01*
X11212364Y-17069662D02*
X11231411Y-17060138D01*
X11231411Y-17060138D02*
X11259983Y-17060138D01*
X11259983Y-17060138D02*
X11279030Y-17069662D01*
X11279030Y-17069662D02*
X11288554Y-17088709D01*
X11288554Y-17088709D02*
X11288554Y-17193471D01*
X11679030Y-16983947D02*
X11507602Y-17241090D01*
X11936173Y-16993471D02*
X11955221Y-16993471D01*
X11955221Y-16993471D02*
X11974269Y-17002995D01*
X11974269Y-17002995D02*
X11983792Y-17012519D01*
X11983792Y-17012519D02*
X11993316Y-17031566D01*
X11993316Y-17031566D02*
X12002840Y-17069662D01*
X12002840Y-17069662D02*
X12002840Y-17117281D01*
X12002840Y-17117281D02*
X11993316Y-17155376D01*
X11993316Y-17155376D02*
X11983792Y-17174423D01*
X11983792Y-17174423D02*
X11974269Y-17183947D01*
X11974269Y-17183947D02*
X11955221Y-17193471D01*
X11955221Y-17193471D02*
X11936173Y-17193471D01*
X11936173Y-17193471D02*
X11917126Y-17183947D01*
X11917126Y-17183947D02*
X11907602Y-17174423D01*
X11907602Y-17174423D02*
X11898078Y-17155376D01*
X11898078Y-17155376D02*
X11888554Y-17117281D01*
X11888554Y-17117281D02*
X11888554Y-17069662D01*
X11888554Y-17069662D02*
X11898078Y-17031566D01*
X11898078Y-17031566D02*
X11907602Y-17012519D01*
X11907602Y-17012519D02*
X11917126Y-17002995D01*
X11917126Y-17002995D02*
X11936173Y-16993471D01*
X12088554Y-17174423D02*
X12098078Y-17183947D01*
X12098078Y-17183947D02*
X12088554Y-17193471D01*
X12088554Y-17193471D02*
X12079030Y-17183947D01*
X12079030Y-17183947D02*
X12088554Y-17174423D01*
X12088554Y-17174423D02*
X12088554Y-17193471D01*
X12288554Y-17193471D02*
X12174269Y-17193471D01*
X12231411Y-17193471D02*
X12231411Y-16993471D01*
X12231411Y-16993471D02*
X12212364Y-17022043D01*
X12212364Y-17022043D02*
X12193316Y-17041090D01*
X12193316Y-17041090D02*
X12174269Y-17050614D01*
X12364745Y-17012519D02*
X12374269Y-17002995D01*
X12374269Y-17002995D02*
X12393316Y-16993471D01*
X12393316Y-16993471D02*
X12440935Y-16993471D01*
X12440935Y-16993471D02*
X12459983Y-17002995D01*
X12459983Y-17002995D02*
X12469507Y-17012519D01*
X12469507Y-17012519D02*
X12479030Y-17031566D01*
X12479030Y-17031566D02*
X12479030Y-17050614D01*
X12479030Y-17050614D02*
X12469507Y-17079185D01*
X12469507Y-17079185D02*
X12355221Y-17193471D01*
X12355221Y-17193471D02*
X12479030Y-17193471D01*
X12650459Y-16993471D02*
X12612364Y-16993471D01*
X12612364Y-16993471D02*
X12593316Y-17002995D01*
X12593316Y-17002995D02*
X12583792Y-17012519D01*
X12583792Y-17012519D02*
X12564745Y-17041090D01*
X12564745Y-17041090D02*
X12555221Y-17079185D01*
X12555221Y-17079185D02*
X12555221Y-17155376D01*
X12555221Y-17155376D02*
X12564745Y-17174423D01*
X12564745Y-17174423D02*
X12574269Y-17183947D01*
X12574269Y-17183947D02*
X12593316Y-17193471D01*
X12593316Y-17193471D02*
X12631411Y-17193471D01*
X12631411Y-17193471D02*
X12650459Y-17183947D01*
X12650459Y-17183947D02*
X12659983Y-17174423D01*
X12659983Y-17174423D02*
X12669507Y-17155376D01*
X12669507Y-17155376D02*
X12669507Y-17107757D01*
X12669507Y-17107757D02*
X12659983Y-17088709D01*
X12659983Y-17088709D02*
X12650459Y-17079185D01*
X12650459Y-17079185D02*
X12631411Y-17069662D01*
X12631411Y-17069662D02*
X12593316Y-17069662D01*
X12593316Y-17069662D02*
X12574269Y-17079185D01*
X12574269Y-17079185D02*
X12564745Y-17088709D01*
X12564745Y-17088709D02*
X12555221Y-17107757D01*
X12793316Y-16993471D02*
X12812364Y-16993471D01*
X12812364Y-16993471D02*
X12831411Y-17002995D01*
X12831411Y-17002995D02*
X12840935Y-17012519D01*
X12840935Y-17012519D02*
X12850459Y-17031566D01*
X12850459Y-17031566D02*
X12859983Y-17069662D01*
X12859983Y-17069662D02*
X12859983Y-17117281D01*
X12859983Y-17117281D02*
X12850459Y-17155376D01*
X12850459Y-17155376D02*
X12840935Y-17174423D01*
X12840935Y-17174423D02*
X12831411Y-17183947D01*
X12831411Y-17183947D02*
X12812364Y-17193471D01*
X12812364Y-17193471D02*
X12793316Y-17193471D01*
X12793316Y-17193471D02*
X12774269Y-17183947D01*
X12774269Y-17183947D02*
X12764745Y-17174423D01*
X12764745Y-17174423D02*
X12755221Y-17155376D01*
X12755221Y-17155376D02*
X12745697Y-17117281D01*
X12745697Y-17117281D02*
X12745697Y-17069662D01*
X12745697Y-17069662D02*
X12755221Y-17031566D01*
X12755221Y-17031566D02*
X12764745Y-17012519D01*
X12764745Y-17012519D02*
X12774269Y-17002995D01*
X12774269Y-17002995D02*
X12793316Y-16993471D01*
X12936173Y-16993471D02*
X12936173Y-17031566D01*
X13012364Y-16993471D02*
X13012364Y-17031566D01*
X13307602Y-17269662D02*
X13298078Y-17260138D01*
X13298078Y-17260138D02*
X13279031Y-17231566D01*
X13279031Y-17231566D02*
X13269507Y-17212519D01*
X13269507Y-17212519D02*
X13259983Y-17183947D01*
X13259983Y-17183947D02*
X13250459Y-17136328D01*
X13250459Y-17136328D02*
X13250459Y-17098233D01*
X13250459Y-17098233D02*
X13259983Y-17050614D01*
X13259983Y-17050614D02*
X13269507Y-17022043D01*
X13269507Y-17022043D02*
X13279031Y-17002995D01*
X13279031Y-17002995D02*
X13298078Y-16974423D01*
X13298078Y-16974423D02*
X13307602Y-16964900D01*
X13488554Y-17193471D02*
X13374269Y-17193471D01*
X13431411Y-17193471D02*
X13431411Y-16993471D01*
X13431411Y-16993471D02*
X13412364Y-17022043D01*
X13412364Y-17022043D02*
X13393316Y-17041090D01*
X13393316Y-17041090D02*
X13374269Y-17050614D01*
X13564745Y-17012519D02*
X13574269Y-17002995D01*
X13574269Y-17002995D02*
X13593316Y-16993471D01*
X13593316Y-16993471D02*
X13640935Y-16993471D01*
X13640935Y-16993471D02*
X13659983Y-17002995D01*
X13659983Y-17002995D02*
X13669507Y-17012519D01*
X13669507Y-17012519D02*
X13679031Y-17031566D01*
X13679031Y-17031566D02*
X13679031Y-17050614D01*
X13679031Y-17050614D02*
X13669507Y-17079185D01*
X13669507Y-17079185D02*
X13555221Y-17193471D01*
X13555221Y-17193471D02*
X13679031Y-17193471D01*
X13917126Y-17193471D02*
X13917126Y-16993471D01*
X14002840Y-17193471D02*
X14002840Y-17088709D01*
X14002840Y-17088709D02*
X13993316Y-17069662D01*
X13993316Y-17069662D02*
X13974269Y-17060138D01*
X13974269Y-17060138D02*
X13945697Y-17060138D01*
X13945697Y-17060138D02*
X13926650Y-17069662D01*
X13926650Y-17069662D02*
X13917126Y-17079185D01*
X14126650Y-17193471D02*
X14107602Y-17183947D01*
X14107602Y-17183947D02*
X14098078Y-17174423D01*
X14098078Y-17174423D02*
X14088554Y-17155376D01*
X14088554Y-17155376D02*
X14088554Y-17098233D01*
X14088554Y-17098233D02*
X14098078Y-17079185D01*
X14098078Y-17079185D02*
X14107602Y-17069662D01*
X14107602Y-17069662D02*
X14126650Y-17060138D01*
X14126650Y-17060138D02*
X14155221Y-17060138D01*
X14155221Y-17060138D02*
X14174269Y-17069662D01*
X14174269Y-17069662D02*
X14183793Y-17079185D01*
X14183793Y-17079185D02*
X14193316Y-17098233D01*
X14193316Y-17098233D02*
X14193316Y-17155376D01*
X14193316Y-17155376D02*
X14183793Y-17174423D01*
X14183793Y-17174423D02*
X14174269Y-17183947D01*
X14174269Y-17183947D02*
X14155221Y-17193471D01*
X14155221Y-17193471D02*
X14126650Y-17193471D01*
X14307602Y-17193471D02*
X14288554Y-17183947D01*
X14288554Y-17183947D02*
X14279031Y-17164900D01*
X14279031Y-17164900D02*
X14279031Y-16993471D01*
X14459983Y-17183947D02*
X14440935Y-17193471D01*
X14440935Y-17193471D02*
X14402840Y-17193471D01*
X14402840Y-17193471D02*
X14383793Y-17183947D01*
X14383793Y-17183947D02*
X14374269Y-17164900D01*
X14374269Y-17164900D02*
X14374269Y-17088709D01*
X14374269Y-17088709D02*
X14383793Y-17069662D01*
X14383793Y-17069662D02*
X14402840Y-17060138D01*
X14402840Y-17060138D02*
X14440935Y-17060138D01*
X14440935Y-17060138D02*
X14459983Y-17069662D01*
X14459983Y-17069662D02*
X14469507Y-17088709D01*
X14469507Y-17088709D02*
X14469507Y-17107757D01*
X14469507Y-17107757D02*
X14374269Y-17126804D01*
X14545697Y-17183947D02*
X14564745Y-17193471D01*
X14564745Y-17193471D02*
X14602840Y-17193471D01*
X14602840Y-17193471D02*
X14621888Y-17183947D01*
X14621888Y-17183947D02*
X14631412Y-17164900D01*
X14631412Y-17164900D02*
X14631412Y-17155376D01*
X14631412Y-17155376D02*
X14621888Y-17136328D01*
X14621888Y-17136328D02*
X14602840Y-17126804D01*
X14602840Y-17126804D02*
X14574269Y-17126804D01*
X14574269Y-17126804D02*
X14555221Y-17117281D01*
X14555221Y-17117281D02*
X14545697Y-17098233D01*
X14545697Y-17098233D02*
X14545697Y-17088709D01*
X14545697Y-17088709D02*
X14555221Y-17069662D01*
X14555221Y-17069662D02*
X14574269Y-17060138D01*
X14574269Y-17060138D02*
X14602840Y-17060138D01*
X14602840Y-17060138D02*
X14621888Y-17069662D01*
X14698078Y-17269662D02*
X14707602Y-17260138D01*
X14707602Y-17260138D02*
X14726650Y-17231566D01*
X14726650Y-17231566D02*
X14736174Y-17212519D01*
X14736174Y-17212519D02*
X14745697Y-17183947D01*
X14745697Y-17183947D02*
X14755221Y-17136328D01*
X14755221Y-17136328D02*
X14755221Y-17098233D01*
X14755221Y-17098233D02*
X14745697Y-17050614D01*
X14745697Y-17050614D02*
X14736174Y-17022043D01*
X14736174Y-17022043D02*
X14726650Y-17002995D01*
X14726650Y-17002995D02*
X14707602Y-16974423D01*
X14707602Y-16974423D02*
X14698078Y-16964900D01*
X15059983Y-17269662D02*
X15050459Y-17260138D01*
X15050459Y-17260138D02*
X15031412Y-17231566D01*
X15031412Y-17231566D02*
X15021888Y-17212519D01*
X15021888Y-17212519D02*
X15012364Y-17183947D01*
X15012364Y-17183947D02*
X15002840Y-17136328D01*
X15002840Y-17136328D02*
X15002840Y-17098233D01*
X15002840Y-17098233D02*
X15012364Y-17050614D01*
X15012364Y-17050614D02*
X15021888Y-17022043D01*
X15021888Y-17022043D02*
X15031412Y-17002995D01*
X15031412Y-17002995D02*
X15050459Y-16974423D01*
X15050459Y-16974423D02*
X15059983Y-16964900D01*
X15136174Y-17060138D02*
X15136174Y-17193471D01*
X15136174Y-17079185D02*
X15145697Y-17069662D01*
X15145697Y-17069662D02*
X15164745Y-17060138D01*
X15164745Y-17060138D02*
X15193316Y-17060138D01*
X15193316Y-17060138D02*
X15212364Y-17069662D01*
X15212364Y-17069662D02*
X15221888Y-17088709D01*
X15221888Y-17088709D02*
X15221888Y-17193471D01*
X15345697Y-17193471D02*
X15326650Y-17183947D01*
X15326650Y-17183947D02*
X15317126Y-17174423D01*
X15317126Y-17174423D02*
X15307602Y-17155376D01*
X15307602Y-17155376D02*
X15307602Y-17098233D01*
X15307602Y-17098233D02*
X15317126Y-17079185D01*
X15317126Y-17079185D02*
X15326650Y-17069662D01*
X15326650Y-17069662D02*
X15345697Y-17060138D01*
X15345697Y-17060138D02*
X15374269Y-17060138D01*
X15374269Y-17060138D02*
X15393316Y-17069662D01*
X15393316Y-17069662D02*
X15402840Y-17079185D01*
X15402840Y-17079185D02*
X15412364Y-17098233D01*
X15412364Y-17098233D02*
X15412364Y-17155376D01*
X15412364Y-17155376D02*
X15402840Y-17174423D01*
X15402840Y-17174423D02*
X15393316Y-17183947D01*
X15393316Y-17183947D02*
X15374269Y-17193471D01*
X15374269Y-17193471D02*
X15345697Y-17193471D01*
X15469507Y-17060138D02*
X15545697Y-17060138D01*
X15498078Y-16993471D02*
X15498078Y-17164900D01*
X15498078Y-17164900D02*
X15507602Y-17183947D01*
X15507602Y-17183947D02*
X15526650Y-17193471D01*
X15526650Y-17193471D02*
X15545697Y-17193471D01*
X15764745Y-17060138D02*
X15764745Y-17260138D01*
X15764745Y-17069662D02*
X15783793Y-17060138D01*
X15783793Y-17060138D02*
X15821888Y-17060138D01*
X15821888Y-17060138D02*
X15840936Y-17069662D01*
X15840936Y-17069662D02*
X15850459Y-17079185D01*
X15850459Y-17079185D02*
X15859983Y-17098233D01*
X15859983Y-17098233D02*
X15859983Y-17155376D01*
X15859983Y-17155376D02*
X15850459Y-17174423D01*
X15850459Y-17174423D02*
X15840936Y-17183947D01*
X15840936Y-17183947D02*
X15821888Y-17193471D01*
X15821888Y-17193471D02*
X15783793Y-17193471D01*
X15783793Y-17193471D02*
X15764745Y-17183947D01*
X15974269Y-17193471D02*
X15955221Y-17183947D01*
X15955221Y-17183947D02*
X15945697Y-17164900D01*
X15945697Y-17164900D02*
X15945697Y-16993471D01*
X16136174Y-17193471D02*
X16136174Y-17088709D01*
X16136174Y-17088709D02*
X16126650Y-17069662D01*
X16126650Y-17069662D02*
X16107602Y-17060138D01*
X16107602Y-17060138D02*
X16069507Y-17060138D01*
X16069507Y-17060138D02*
X16050459Y-17069662D01*
X16136174Y-17183947D02*
X16117126Y-17193471D01*
X16117126Y-17193471D02*
X16069507Y-17193471D01*
X16069507Y-17193471D02*
X16050459Y-17183947D01*
X16050459Y-17183947D02*
X16040936Y-17164900D01*
X16040936Y-17164900D02*
X16040936Y-17145852D01*
X16040936Y-17145852D02*
X16050459Y-17126804D01*
X16050459Y-17126804D02*
X16069507Y-17117281D01*
X16069507Y-17117281D02*
X16117126Y-17117281D01*
X16117126Y-17117281D02*
X16136174Y-17107757D01*
X16202840Y-17060138D02*
X16279031Y-17060138D01*
X16231412Y-16993471D02*
X16231412Y-17164900D01*
X16231412Y-17164900D02*
X16240936Y-17183947D01*
X16240936Y-17183947D02*
X16259983Y-17193471D01*
X16259983Y-17193471D02*
X16279031Y-17193471D01*
X16421888Y-17183947D02*
X16402840Y-17193471D01*
X16402840Y-17193471D02*
X16364745Y-17193471D01*
X16364745Y-17193471D02*
X16345697Y-17183947D01*
X16345697Y-17183947D02*
X16336174Y-17164900D01*
X16336174Y-17164900D02*
X16336174Y-17088709D01*
X16336174Y-17088709D02*
X16345697Y-17069662D01*
X16345697Y-17069662D02*
X16364745Y-17060138D01*
X16364745Y-17060138D02*
X16402840Y-17060138D01*
X16402840Y-17060138D02*
X16421888Y-17069662D01*
X16421888Y-17069662D02*
X16431412Y-17088709D01*
X16431412Y-17088709D02*
X16431412Y-17107757D01*
X16431412Y-17107757D02*
X16336174Y-17126804D01*
X16602840Y-17193471D02*
X16602840Y-16993471D01*
X16602840Y-17183947D02*
X16583793Y-17193471D01*
X16583793Y-17193471D02*
X16545697Y-17193471D01*
X16545697Y-17193471D02*
X16526650Y-17183947D01*
X16526650Y-17183947D02*
X16517126Y-17174423D01*
X16517126Y-17174423D02*
X16507602Y-17155376D01*
X16507602Y-17155376D02*
X16507602Y-17098233D01*
X16507602Y-17098233D02*
X16517126Y-17079185D01*
X16517126Y-17079185D02*
X16526650Y-17069662D01*
X16526650Y-17069662D02*
X16545697Y-17060138D01*
X16545697Y-17060138D02*
X16583793Y-17060138D01*
X16583793Y-17060138D02*
X16602840Y-17069662D01*
X16679031Y-17269662D02*
X16688555Y-17260138D01*
X16688555Y-17260138D02*
X16707602Y-17231566D01*
X16707602Y-17231566D02*
X16717126Y-17212519D01*
X16717126Y-17212519D02*
X16726650Y-17183947D01*
X16726650Y-17183947D02*
X16736174Y-17136328D01*
X16736174Y-17136328D02*
X16736174Y-17098233D01*
X16736174Y-17098233D02*
X16726650Y-17050614D01*
X16726650Y-17050614D02*
X16717126Y-17022043D01*
X16717126Y-17022043D02*
X16707602Y-17002995D01*
X16707602Y-17002995D02*
X16688555Y-16974423D01*
X16688555Y-16974423D02*
X16679031Y-16964900D01*
M02*
