%TF.GenerationSoftware,KiCad,Pcbnew,7.0.11*%
%TF.CreationDate,2025-01-20T01:56:26+09:00*%
%TF.ProjectId,Main,4d61696e-2e6b-4696-9361-645f70636258,rev?*%
%TF.SameCoordinates,Original*%
%TF.FileFunction,Legend,Top*%
%TF.FilePolarity,Positive*%
%FSLAX46Y46*%
G04 Gerber Fmt 4.6, Leading zero omitted, Abs format (unit mm)*
G04 Created by KiCad (PCBNEW 7.0.11) date 2025-01-20 01:56:26*
%MOMM*%
%LPD*%
G01*
G04 APERTURE LIST*
%ADD10C,0.120000*%
G04 APERTURE END LIST*
D10*
%TO.C,SW3*%
X173710000Y-70520000D02*
X173710000Y-69020000D01*
X172460000Y-66520000D02*
X167960000Y-66520000D01*
X167960000Y-73020000D02*
X172460000Y-73020000D01*
X166710000Y-69020000D02*
X166710000Y-70520000D01*
%TO.C,J21*%
X170725000Y-108280000D02*
X169475000Y-108280000D01*
X170435000Y-108570000D02*
X164465000Y-108570000D01*
X164465000Y-108570000D02*
X164465000Y-121190000D01*
X170425000Y-108580000D02*
X169675000Y-108580000D01*
X169675000Y-108580000D02*
X169675000Y-110380000D01*
X168175000Y-108580000D02*
X168175000Y-109330000D01*
X168175000Y-109330000D02*
X165225000Y-109330000D01*
X165225000Y-109330000D02*
X165225000Y-114880000D01*
X170725000Y-109530000D02*
X170725000Y-108280000D01*
X170425000Y-110380000D02*
X170425000Y-108580000D01*
X169675000Y-110380000D02*
X170425000Y-110380000D01*
X170425000Y-111880000D02*
X169675000Y-111880000D01*
X169675000Y-111880000D02*
X169675000Y-117880000D01*
X170425000Y-117880000D02*
X170425000Y-111880000D01*
X169675000Y-117880000D02*
X170425000Y-117880000D01*
X170425000Y-119380000D02*
X169675000Y-119380000D01*
X169675000Y-119380000D02*
X169675000Y-121180000D01*
X168175000Y-120430000D02*
X165225000Y-120430000D01*
X165225000Y-120430000D02*
X165225000Y-114880000D01*
X170425000Y-121180000D02*
X170425000Y-119380000D01*
X169675000Y-121180000D02*
X170425000Y-121180000D01*
X168175000Y-121180000D02*
X168175000Y-120430000D01*
X170435000Y-121190000D02*
X170435000Y-108570000D01*
X164465000Y-121190000D02*
X170435000Y-121190000D01*
%TO.C,BZ1*%
X171934000Y-106656000D02*
X184174000Y-106656000D01*
X171934000Y-110516000D02*
X171634000Y-110516000D01*
X171934000Y-110516000D02*
X171934000Y-106656000D01*
X171934000Y-118896000D02*
X171934000Y-115036000D01*
X184174000Y-106656000D02*
X184174000Y-110516000D01*
X184174000Y-115036000D02*
X184174000Y-118896000D01*
X184174000Y-118896000D02*
X171934000Y-118896000D01*
%TO.C,U6*%
X149755000Y-94935000D02*
X149755000Y-108265000D01*
X149755000Y-108265000D02*
X155055000Y-108265000D01*
X151405000Y-94935000D02*
X149755000Y-94935000D01*
X155055000Y-94935000D02*
X153405000Y-94935000D01*
X155055000Y-108265000D02*
X155055000Y-94935000D01*
X151405000Y-94935000D02*
G75*
G03*
X153405000Y-94935000I1000000J0D01*
G01*
%TO.C,D1*%
X179840000Y-79880000D02*
X172540000Y-79880000D01*
X179840000Y-74380000D02*
X172540000Y-74380000D01*
X172540000Y-74380000D02*
X172540000Y-75530000D01*
%TO.C,U5*%
X163830000Y-118920000D02*
X163830000Y-83360000D01*
X163830000Y-83360000D02*
X140970000Y-83360000D01*
X140970000Y-118920000D02*
X163830000Y-118920000D01*
X140970000Y-83360000D02*
X140970000Y-118920000D01*
%TD*%
M02*
