%TF.GenerationSoftware,KiCad,Pcbnew,7.0.11*%
%TF.CreationDate,2025-01-20T01:33:55+09:00*%
%TF.ProjectId,VoltageBooster,566f6c74-6167-4654-926f-6f737465722e,rev?*%
%TF.SameCoordinates,Original*%
%TF.FileFunction,Drillmap*%
%TF.FilePolarity,Positive*%
%FSLAX45Y45*%
G04 Gerber Fmt 4.5, Leading zero omitted, Abs format (unit mm)*
G04 Created by KiCad (PCBNEW 7.0.11) date 2025-01-20 01:33:55*
%MOMM*%
%LPD*%
G01*
G04 APERTURE LIST*
%ADD10C,0.200000*%
%ADD11C,0.100000*%
G04 APERTURE END LIST*
D10*
X17135000Y-11673258D02*
X17135000Y-8636000D01*
X17045000Y-11673258D02*
G75*
G03*
X16825000Y-11673258I-110000J0D01*
G01*
X16825000Y-11673258D02*
G75*
G03*
X17045000Y-11673258I110000J0D01*
G01*
X13676421Y-8211736D02*
X13393579Y-8494579D01*
X16735003Y-11674517D02*
G75*
G03*
X16912600Y-11873258I199997J-3D01*
G01*
X17135000Y-8636000D02*
G75*
G03*
X17076421Y-8494579I-200000J0D01*
G01*
X15835000Y-10174517D02*
X16635000Y-10174517D01*
X15535000Y-11174520D02*
G75*
G03*
X15735000Y-10974517I0J200000D01*
G01*
X13817843Y-8153160D02*
G75*
G03*
X13676421Y-8211736I-3J-200000D01*
G01*
X16652157Y-8153157D02*
X13817843Y-8153157D01*
X13335000Y-8636000D02*
X13335000Y-11673258D01*
X14935000Y-11873260D02*
G75*
G03*
X15135000Y-11673258I0J200000D01*
G01*
X17076421Y-8494579D02*
X16793579Y-8211736D01*
X17045000Y-8636000D02*
G75*
G03*
X16825000Y-8636000I-110000J0D01*
G01*
X16825000Y-8636000D02*
G75*
G03*
X17045000Y-8636000I110000J0D01*
G01*
X16912600Y-11873258D02*
X16935000Y-11873258D01*
X16735003Y-10274517D02*
G75*
G03*
X16635000Y-10174517I-100003J-3D01*
G01*
X16935000Y-11873260D02*
G75*
G03*
X17135000Y-11673258I0J200000D01*
G01*
X13393579Y-8494579D02*
G75*
G03*
X13335000Y-8636000I141421J-141421D01*
G01*
X16793581Y-8211734D02*
G75*
G03*
X16652157Y-8153157I-141421J-141426D01*
G01*
X16735000Y-10274517D02*
X16735000Y-11674517D01*
X13645000Y-8636000D02*
G75*
G03*
X13425000Y-8636000I-110000J0D01*
G01*
X13425000Y-8636000D02*
G75*
G03*
X13645000Y-8636000I110000J0D01*
G01*
X15335000Y-11174517D02*
X15535000Y-11174517D01*
X15135000Y-11673258D02*
X15135000Y-11374517D01*
X15735000Y-10974517D02*
X15735000Y-10274517D01*
X13535000Y-11873258D02*
X14935000Y-11873258D01*
X13335002Y-11673258D02*
G75*
G03*
X13535000Y-11873258I199998J-2D01*
G01*
X15835000Y-10174520D02*
G75*
G03*
X15735000Y-10274517I0J-100000D01*
G01*
X13645000Y-11673258D02*
G75*
G03*
X13425000Y-11673258I-110000J0D01*
G01*
X13425000Y-11673258D02*
G75*
G03*
X13645000Y-11673258I110000J0D01*
G01*
X15335000Y-11174520D02*
G75*
G03*
X15135000Y-11374517I0J-200000D01*
G01*
D11*
X13374000Y-11011000D02*
X13414000Y-11051000D01*
X13414000Y-11011000D02*
X13374000Y-11051000D01*
X13700000Y-9841000D02*
X13740000Y-9881000D01*
X13740000Y-9841000D02*
X13700000Y-9881000D01*
X13751000Y-8790000D02*
X13791000Y-8830000D01*
X13791000Y-8790000D02*
X13751000Y-8830000D01*
X13777000Y-8273000D02*
X13817000Y-8313000D01*
X13817000Y-8273000D02*
X13777000Y-8313000D01*
X13783000Y-10949000D02*
X13823000Y-10989000D01*
X13823000Y-10949000D02*
X13783000Y-10989000D01*
X13784000Y-11783000D02*
X13824000Y-11823000D01*
X13824000Y-11783000D02*
X13784000Y-11823000D01*
X13998000Y-9923000D02*
X14038000Y-9963000D01*
X14038000Y-9923000D02*
X13998000Y-9963000D01*
X14069000Y-8656000D02*
X14109000Y-8696000D01*
X14109000Y-8656000D02*
X14069000Y-8696000D01*
X14170000Y-10939000D02*
X14210000Y-10979000D01*
X14210000Y-10939000D02*
X14170000Y-10979000D01*
X14178600Y-11232200D02*
X14218600Y-11272200D01*
X14218600Y-11232200D02*
X14178600Y-11272200D01*
X14333000Y-8303000D02*
X14373000Y-8343000D01*
X14373000Y-8303000D02*
X14333000Y-8343000D01*
X14558000Y-8783000D02*
X14598000Y-8823000D01*
X14598000Y-8783000D02*
X14558000Y-8823000D01*
X14762800Y-10216200D02*
X14802800Y-10256200D01*
X14802800Y-10216200D02*
X14762800Y-10256200D01*
X14762800Y-10368600D02*
X14802800Y-10408600D01*
X14802800Y-10368600D02*
X14762800Y-10408600D01*
X14762800Y-10521000D02*
X14802800Y-10561000D01*
X14802800Y-10521000D02*
X14762800Y-10561000D01*
X14762800Y-10698800D02*
X14802800Y-10738800D01*
X14802800Y-10698800D02*
X14762800Y-10738800D01*
X14791000Y-11437000D02*
X14831000Y-11477000D01*
X14831000Y-11437000D02*
X14791000Y-11477000D01*
X14879000Y-8201000D02*
X14919000Y-8241000D01*
X14919000Y-8201000D02*
X14879000Y-8241000D01*
X15114000Y-8580000D02*
X15154000Y-8620000D01*
X15154000Y-8580000D02*
X15114000Y-8620000D01*
X15301000Y-8761000D02*
X15341000Y-8801000D01*
X15341000Y-8761000D02*
X15301000Y-8801000D01*
X15522000Y-8762000D02*
X15562000Y-8802000D01*
X15562000Y-8762000D02*
X15522000Y-8802000D01*
X15706000Y-9024000D02*
X15746000Y-9064000D01*
X15746000Y-9024000D02*
X15706000Y-9064000D01*
X15762000Y-8779000D02*
X15802000Y-8819000D01*
X15802000Y-8779000D02*
X15762000Y-8819000D01*
X15931200Y-8260400D02*
X15971200Y-8300400D01*
X15971200Y-8260400D02*
X15931200Y-8300400D01*
X16087400Y-8260400D02*
X16127400Y-8300400D01*
X16127400Y-8260400D02*
X16087400Y-8300400D01*
X16093000Y-9053000D02*
X16133000Y-9093000D01*
X16133000Y-9053000D02*
X16093000Y-9093000D01*
X16236000Y-8260400D02*
X16276000Y-8300400D01*
X16276000Y-8260400D02*
X16236000Y-8300400D01*
X16403000Y-8389000D02*
X16443000Y-8429000D01*
X16443000Y-8389000D02*
X16403000Y-8429000D01*
X16424000Y-9051000D02*
X16464000Y-9091000D01*
X16464000Y-9051000D02*
X16424000Y-9091000D01*
X16426000Y-8194000D02*
X16466000Y-8234000D01*
X16466000Y-8194000D02*
X16426000Y-8234000D01*
X16736000Y-9050000D02*
X16776000Y-9090000D01*
X16776000Y-9050000D02*
X16736000Y-9090000D01*
X16757000Y-10199000D02*
X16797000Y-10239000D01*
X16797000Y-10199000D02*
X16757000Y-10239000D01*
X16759000Y-8847000D02*
X16799000Y-8887000D01*
X16799000Y-8847000D02*
X16759000Y-8887000D01*
X16769000Y-11409000D02*
X16809000Y-11449000D01*
X16809000Y-11409000D02*
X16769000Y-11449000D01*
X16770000Y-10906000D02*
X16810000Y-10946000D01*
X16810000Y-10906000D02*
X16770000Y-10946000D01*
X16843000Y-8351000D02*
X16883000Y-8391000D01*
X16883000Y-8351000D02*
X16843000Y-8391000D01*
X16911000Y-11178000D02*
X16951000Y-11218000D01*
X16951000Y-11178000D02*
X16911000Y-11218000D01*
X17047000Y-10982000D02*
X17087000Y-11022000D01*
X17087000Y-10982000D02*
X17047000Y-11022000D01*
X17056000Y-11411000D02*
X17096000Y-11451000D01*
X17096000Y-11411000D02*
X17056000Y-11451000D01*
X17066000Y-8826000D02*
X17106000Y-8866000D01*
X17106000Y-8826000D02*
X17066000Y-8866000D01*
X15358800Y-8534900D02*
G75*
G03*
X15288800Y-8534900I-35000J0D01*
G01*
X15288800Y-8534900D02*
G75*
G03*
X15358800Y-8534900I35000J0D01*
G01*
X15358800Y-9042900D02*
G75*
G03*
X15288800Y-9042900I-35000J0D01*
G01*
X15288800Y-9042900D02*
G75*
G03*
X15358800Y-9042900I35000J0D01*
G01*
X15579800Y-8534400D02*
G75*
G03*
X15509800Y-8534400I-35000J0D01*
G01*
X15509800Y-8534400D02*
G75*
G03*
X15579800Y-8534400I35000J0D01*
G01*
X15579800Y-9042400D02*
G75*
G03*
X15509800Y-9042400I-35000J0D01*
G01*
X15509800Y-9042400D02*
G75*
G03*
X15579800Y-9042400I35000J0D01*
G01*
X14224000Y-9918800D02*
X14224000Y-9998800D01*
X14184000Y-9958800D02*
X14264000Y-9958800D01*
X14224000Y-10168800D02*
X14224000Y-10248800D01*
X14184000Y-10208800D02*
X14264000Y-10208800D01*
X15062200Y-8750400D02*
X15062200Y-8830400D01*
X15022200Y-8790400D02*
X15102200Y-8790400D01*
X15062200Y-9000400D02*
X15062200Y-9080400D01*
X15022200Y-9040400D02*
X15102200Y-9040400D01*
X13548156Y-9052356D02*
X13548156Y-8981644D01*
X13477444Y-8981644D01*
X13477444Y-9052356D01*
X13548156Y-9052356D01*
X13548156Y-9306356D02*
X13548156Y-9235644D01*
X13477444Y-9235644D01*
X13477444Y-9306356D01*
X13548156Y-9306356D01*
X13548156Y-9560356D02*
X13548156Y-9489644D01*
X13477444Y-9489644D01*
X13477444Y-9560356D01*
X13548156Y-9560356D01*
X13548156Y-9814356D02*
X13548156Y-9743644D01*
X13477444Y-9743644D01*
X13477444Y-9814356D01*
X13548156Y-9814356D01*
X13548156Y-10068356D02*
X13548156Y-9997644D01*
X13477444Y-9997644D01*
X13477444Y-10068356D01*
X13548156Y-10068356D01*
X13548156Y-10322356D02*
X13548156Y-10251644D01*
X13477444Y-10251644D01*
X13477444Y-10322356D01*
X13548156Y-10322356D01*
X13548156Y-10576356D02*
X13548156Y-10505644D01*
X13477444Y-10505644D01*
X13477444Y-10576356D01*
X13548156Y-10576356D01*
X13548156Y-10830356D02*
X13548156Y-10759644D01*
X13477444Y-10759644D01*
X13477444Y-10830356D01*
X13548156Y-10830356D01*
X16992356Y-9052356D02*
X16992356Y-8981644D01*
X16921644Y-8981644D01*
X16921644Y-9052356D01*
X16992356Y-9052356D01*
X16992356Y-9306356D02*
X16992356Y-9235644D01*
X16921644Y-9235644D01*
X16921644Y-9306356D01*
X16992356Y-9306356D01*
X16992356Y-9560356D02*
X16992356Y-9489644D01*
X16921644Y-9489644D01*
X16921644Y-9560356D01*
X16992356Y-9560356D01*
X16992356Y-9814356D02*
X16992356Y-9743644D01*
X16921644Y-9743644D01*
X16921644Y-9814356D01*
X16992356Y-9814356D01*
X16992356Y-10068356D02*
X16992356Y-9997644D01*
X16921644Y-9997644D01*
X16921644Y-10068356D01*
X16992356Y-10068356D01*
X16992356Y-10322356D02*
X16992356Y-10251644D01*
X16921644Y-10251644D01*
X16921644Y-10322356D01*
X16992356Y-10322356D01*
X16992356Y-10576356D02*
X16992356Y-10505644D01*
X16921644Y-10505644D01*
X16921644Y-10576356D01*
X16992356Y-10576356D01*
X16992356Y-10830356D02*
X16992356Y-10759644D01*
X16921644Y-10759644D01*
X16921644Y-10830356D01*
X16992356Y-10830356D01*
D10*
X13585777Y-12194742D02*
X13585777Y-11994742D01*
X13585777Y-11994742D02*
X13633396Y-11994742D01*
X13633396Y-11994742D02*
X13661967Y-12004266D01*
X13661967Y-12004266D02*
X13681015Y-12023314D01*
X13681015Y-12023314D02*
X13690539Y-12042361D01*
X13690539Y-12042361D02*
X13700062Y-12080456D01*
X13700062Y-12080456D02*
X13700062Y-12109028D01*
X13700062Y-12109028D02*
X13690539Y-12147123D01*
X13690539Y-12147123D02*
X13681015Y-12166171D01*
X13681015Y-12166171D02*
X13661967Y-12185218D01*
X13661967Y-12185218D02*
X13633396Y-12194742D01*
X13633396Y-12194742D02*
X13585777Y-12194742D01*
X13785777Y-12194742D02*
X13785777Y-12061409D01*
X13785777Y-12099504D02*
X13795301Y-12080456D01*
X13795301Y-12080456D02*
X13804824Y-12070933D01*
X13804824Y-12070933D02*
X13823872Y-12061409D01*
X13823872Y-12061409D02*
X13842920Y-12061409D01*
X13909586Y-12194742D02*
X13909586Y-12061409D01*
X13909586Y-11994742D02*
X13900062Y-12004266D01*
X13900062Y-12004266D02*
X13909586Y-12013790D01*
X13909586Y-12013790D02*
X13919110Y-12004266D01*
X13919110Y-12004266D02*
X13909586Y-11994742D01*
X13909586Y-11994742D02*
X13909586Y-12013790D01*
X14033396Y-12194742D02*
X14014348Y-12185218D01*
X14014348Y-12185218D02*
X14004824Y-12166171D01*
X14004824Y-12166171D02*
X14004824Y-11994742D01*
X14138158Y-12194742D02*
X14119110Y-12185218D01*
X14119110Y-12185218D02*
X14109586Y-12166171D01*
X14109586Y-12166171D02*
X14109586Y-11994742D01*
X14366729Y-12194742D02*
X14366729Y-11994742D01*
X14366729Y-11994742D02*
X14433396Y-12137599D01*
X14433396Y-12137599D02*
X14500062Y-11994742D01*
X14500062Y-11994742D02*
X14500062Y-12194742D01*
X14681015Y-12194742D02*
X14681015Y-12089980D01*
X14681015Y-12089980D02*
X14671491Y-12070933D01*
X14671491Y-12070933D02*
X14652443Y-12061409D01*
X14652443Y-12061409D02*
X14614348Y-12061409D01*
X14614348Y-12061409D02*
X14595301Y-12070933D01*
X14681015Y-12185218D02*
X14661967Y-12194742D01*
X14661967Y-12194742D02*
X14614348Y-12194742D01*
X14614348Y-12194742D02*
X14595301Y-12185218D01*
X14595301Y-12185218D02*
X14585777Y-12166171D01*
X14585777Y-12166171D02*
X14585777Y-12147123D01*
X14585777Y-12147123D02*
X14595301Y-12128075D01*
X14595301Y-12128075D02*
X14614348Y-12118552D01*
X14614348Y-12118552D02*
X14661967Y-12118552D01*
X14661967Y-12118552D02*
X14681015Y-12109028D01*
X14776253Y-12061409D02*
X14776253Y-12261409D01*
X14776253Y-12070933D02*
X14795301Y-12061409D01*
X14795301Y-12061409D02*
X14833396Y-12061409D01*
X14833396Y-12061409D02*
X14852443Y-12070933D01*
X14852443Y-12070933D02*
X14861967Y-12080456D01*
X14861967Y-12080456D02*
X14871491Y-12099504D01*
X14871491Y-12099504D02*
X14871491Y-12156647D01*
X14871491Y-12156647D02*
X14861967Y-12175694D01*
X14861967Y-12175694D02*
X14852443Y-12185218D01*
X14852443Y-12185218D02*
X14833396Y-12194742D01*
X14833396Y-12194742D02*
X14795301Y-12194742D01*
X14795301Y-12194742D02*
X14776253Y-12185218D01*
X14957205Y-12175694D02*
X14966729Y-12185218D01*
X14966729Y-12185218D02*
X14957205Y-12194742D01*
X14957205Y-12194742D02*
X14947682Y-12185218D01*
X14947682Y-12185218D02*
X14957205Y-12175694D01*
X14957205Y-12175694D02*
X14957205Y-12194742D01*
X14957205Y-12070933D02*
X14966729Y-12080456D01*
X14966729Y-12080456D02*
X14957205Y-12089980D01*
X14957205Y-12089980D02*
X14947682Y-12080456D01*
X14947682Y-12080456D02*
X14957205Y-12070933D01*
X14957205Y-12070933D02*
X14957205Y-12089980D01*
D11*
X13285000Y-12503258D02*
X13325000Y-12543258D01*
X13325000Y-12503258D02*
X13285000Y-12543258D01*
D10*
X13623872Y-12414742D02*
X13642920Y-12414742D01*
X13642920Y-12414742D02*
X13661967Y-12424266D01*
X13661967Y-12424266D02*
X13671491Y-12433790D01*
X13671491Y-12433790D02*
X13681015Y-12452837D01*
X13681015Y-12452837D02*
X13690539Y-12490933D01*
X13690539Y-12490933D02*
X13690539Y-12538552D01*
X13690539Y-12538552D02*
X13681015Y-12576647D01*
X13681015Y-12576647D02*
X13671491Y-12595694D01*
X13671491Y-12595694D02*
X13661967Y-12605218D01*
X13661967Y-12605218D02*
X13642920Y-12614742D01*
X13642920Y-12614742D02*
X13623872Y-12614742D01*
X13623872Y-12614742D02*
X13604824Y-12605218D01*
X13604824Y-12605218D02*
X13595301Y-12595694D01*
X13595301Y-12595694D02*
X13585777Y-12576647D01*
X13585777Y-12576647D02*
X13576253Y-12538552D01*
X13576253Y-12538552D02*
X13576253Y-12490933D01*
X13576253Y-12490933D02*
X13585777Y-12452837D01*
X13585777Y-12452837D02*
X13595301Y-12433790D01*
X13595301Y-12433790D02*
X13604824Y-12424266D01*
X13604824Y-12424266D02*
X13623872Y-12414742D01*
X13776253Y-12595694D02*
X13785777Y-12605218D01*
X13785777Y-12605218D02*
X13776253Y-12614742D01*
X13776253Y-12614742D02*
X13766729Y-12605218D01*
X13766729Y-12605218D02*
X13776253Y-12595694D01*
X13776253Y-12595694D02*
X13776253Y-12614742D01*
X13957205Y-12481409D02*
X13957205Y-12614742D01*
X13909586Y-12405218D02*
X13861967Y-12548075D01*
X13861967Y-12548075D02*
X13985777Y-12548075D01*
X14100062Y-12414742D02*
X14119110Y-12414742D01*
X14119110Y-12414742D02*
X14138158Y-12424266D01*
X14138158Y-12424266D02*
X14147682Y-12433790D01*
X14147682Y-12433790D02*
X14157205Y-12452837D01*
X14157205Y-12452837D02*
X14166729Y-12490933D01*
X14166729Y-12490933D02*
X14166729Y-12538552D01*
X14166729Y-12538552D02*
X14157205Y-12576647D01*
X14157205Y-12576647D02*
X14147682Y-12595694D01*
X14147682Y-12595694D02*
X14138158Y-12605218D01*
X14138158Y-12605218D02*
X14119110Y-12614742D01*
X14119110Y-12614742D02*
X14100062Y-12614742D01*
X14100062Y-12614742D02*
X14081015Y-12605218D01*
X14081015Y-12605218D02*
X14071491Y-12595694D01*
X14071491Y-12595694D02*
X14061967Y-12576647D01*
X14061967Y-12576647D02*
X14052443Y-12538552D01*
X14052443Y-12538552D02*
X14052443Y-12490933D01*
X14052443Y-12490933D02*
X14061967Y-12452837D01*
X14061967Y-12452837D02*
X14071491Y-12433790D01*
X14071491Y-12433790D02*
X14081015Y-12424266D01*
X14081015Y-12424266D02*
X14100062Y-12414742D01*
X14290539Y-12414742D02*
X14309586Y-12414742D01*
X14309586Y-12414742D02*
X14328634Y-12424266D01*
X14328634Y-12424266D02*
X14338158Y-12433790D01*
X14338158Y-12433790D02*
X14347682Y-12452837D01*
X14347682Y-12452837D02*
X14357205Y-12490933D01*
X14357205Y-12490933D02*
X14357205Y-12538552D01*
X14357205Y-12538552D02*
X14347682Y-12576647D01*
X14347682Y-12576647D02*
X14338158Y-12595694D01*
X14338158Y-12595694D02*
X14328634Y-12605218D01*
X14328634Y-12605218D02*
X14309586Y-12614742D01*
X14309586Y-12614742D02*
X14290539Y-12614742D01*
X14290539Y-12614742D02*
X14271491Y-12605218D01*
X14271491Y-12605218D02*
X14261967Y-12595694D01*
X14261967Y-12595694D02*
X14252443Y-12576647D01*
X14252443Y-12576647D02*
X14242920Y-12538552D01*
X14242920Y-12538552D02*
X14242920Y-12490933D01*
X14242920Y-12490933D02*
X14252443Y-12452837D01*
X14252443Y-12452837D02*
X14261967Y-12433790D01*
X14261967Y-12433790D02*
X14271491Y-12424266D01*
X14271491Y-12424266D02*
X14290539Y-12414742D01*
X14442920Y-12614742D02*
X14442920Y-12481409D01*
X14442920Y-12500456D02*
X14452443Y-12490933D01*
X14452443Y-12490933D02*
X14471491Y-12481409D01*
X14471491Y-12481409D02*
X14500063Y-12481409D01*
X14500063Y-12481409D02*
X14519110Y-12490933D01*
X14519110Y-12490933D02*
X14528634Y-12509980D01*
X14528634Y-12509980D02*
X14528634Y-12614742D01*
X14528634Y-12509980D02*
X14538158Y-12490933D01*
X14538158Y-12490933D02*
X14557205Y-12481409D01*
X14557205Y-12481409D02*
X14585777Y-12481409D01*
X14585777Y-12481409D02*
X14604824Y-12490933D01*
X14604824Y-12490933D02*
X14614348Y-12509980D01*
X14614348Y-12509980D02*
X14614348Y-12614742D01*
X14709586Y-12614742D02*
X14709586Y-12481409D01*
X14709586Y-12500456D02*
X14719110Y-12490933D01*
X14719110Y-12490933D02*
X14738158Y-12481409D01*
X14738158Y-12481409D02*
X14766729Y-12481409D01*
X14766729Y-12481409D02*
X14785777Y-12490933D01*
X14785777Y-12490933D02*
X14795301Y-12509980D01*
X14795301Y-12509980D02*
X14795301Y-12614742D01*
X14795301Y-12509980D02*
X14804824Y-12490933D01*
X14804824Y-12490933D02*
X14823872Y-12481409D01*
X14823872Y-12481409D02*
X14852443Y-12481409D01*
X14852443Y-12481409D02*
X14871491Y-12490933D01*
X14871491Y-12490933D02*
X14881015Y-12509980D01*
X14881015Y-12509980D02*
X14881015Y-12614742D01*
X15271491Y-12405218D02*
X15100063Y-12662361D01*
X15528634Y-12414742D02*
X15547682Y-12414742D01*
X15547682Y-12414742D02*
X15566729Y-12424266D01*
X15566729Y-12424266D02*
X15576253Y-12433790D01*
X15576253Y-12433790D02*
X15585777Y-12452837D01*
X15585777Y-12452837D02*
X15595301Y-12490933D01*
X15595301Y-12490933D02*
X15595301Y-12538552D01*
X15595301Y-12538552D02*
X15585777Y-12576647D01*
X15585777Y-12576647D02*
X15576253Y-12595694D01*
X15576253Y-12595694D02*
X15566729Y-12605218D01*
X15566729Y-12605218D02*
X15547682Y-12614742D01*
X15547682Y-12614742D02*
X15528634Y-12614742D01*
X15528634Y-12614742D02*
X15509586Y-12605218D01*
X15509586Y-12605218D02*
X15500063Y-12595694D01*
X15500063Y-12595694D02*
X15490539Y-12576647D01*
X15490539Y-12576647D02*
X15481015Y-12538552D01*
X15481015Y-12538552D02*
X15481015Y-12490933D01*
X15481015Y-12490933D02*
X15490539Y-12452837D01*
X15490539Y-12452837D02*
X15500063Y-12433790D01*
X15500063Y-12433790D02*
X15509586Y-12424266D01*
X15509586Y-12424266D02*
X15528634Y-12414742D01*
X15681015Y-12595694D02*
X15690539Y-12605218D01*
X15690539Y-12605218D02*
X15681015Y-12614742D01*
X15681015Y-12614742D02*
X15671491Y-12605218D01*
X15671491Y-12605218D02*
X15681015Y-12595694D01*
X15681015Y-12595694D02*
X15681015Y-12614742D01*
X15814348Y-12414742D02*
X15833396Y-12414742D01*
X15833396Y-12414742D02*
X15852444Y-12424266D01*
X15852444Y-12424266D02*
X15861967Y-12433790D01*
X15861967Y-12433790D02*
X15871491Y-12452837D01*
X15871491Y-12452837D02*
X15881015Y-12490933D01*
X15881015Y-12490933D02*
X15881015Y-12538552D01*
X15881015Y-12538552D02*
X15871491Y-12576647D01*
X15871491Y-12576647D02*
X15861967Y-12595694D01*
X15861967Y-12595694D02*
X15852444Y-12605218D01*
X15852444Y-12605218D02*
X15833396Y-12614742D01*
X15833396Y-12614742D02*
X15814348Y-12614742D01*
X15814348Y-12614742D02*
X15795301Y-12605218D01*
X15795301Y-12605218D02*
X15785777Y-12595694D01*
X15785777Y-12595694D02*
X15776253Y-12576647D01*
X15776253Y-12576647D02*
X15766729Y-12538552D01*
X15766729Y-12538552D02*
X15766729Y-12490933D01*
X15766729Y-12490933D02*
X15776253Y-12452837D01*
X15776253Y-12452837D02*
X15785777Y-12433790D01*
X15785777Y-12433790D02*
X15795301Y-12424266D01*
X15795301Y-12424266D02*
X15814348Y-12414742D01*
X16071491Y-12614742D02*
X15957206Y-12614742D01*
X16014348Y-12614742D02*
X16014348Y-12414742D01*
X16014348Y-12414742D02*
X15995301Y-12443314D01*
X15995301Y-12443314D02*
X15976253Y-12462361D01*
X15976253Y-12462361D02*
X15957206Y-12471885D01*
X16252444Y-12414742D02*
X16157206Y-12414742D01*
X16157206Y-12414742D02*
X16147682Y-12509980D01*
X16147682Y-12509980D02*
X16157206Y-12500456D01*
X16157206Y-12500456D02*
X16176253Y-12490933D01*
X16176253Y-12490933D02*
X16223872Y-12490933D01*
X16223872Y-12490933D02*
X16242920Y-12500456D01*
X16242920Y-12500456D02*
X16252444Y-12509980D01*
X16252444Y-12509980D02*
X16261967Y-12529028D01*
X16261967Y-12529028D02*
X16261967Y-12576647D01*
X16261967Y-12576647D02*
X16252444Y-12595694D01*
X16252444Y-12595694D02*
X16242920Y-12605218D01*
X16242920Y-12605218D02*
X16223872Y-12614742D01*
X16223872Y-12614742D02*
X16176253Y-12614742D01*
X16176253Y-12614742D02*
X16157206Y-12605218D01*
X16157206Y-12605218D02*
X16147682Y-12595694D01*
X16328634Y-12414742D02*
X16461967Y-12414742D01*
X16461967Y-12414742D02*
X16376253Y-12614742D01*
X16528634Y-12414742D02*
X16528634Y-12452837D01*
X16604825Y-12414742D02*
X16604825Y-12452837D01*
X16900063Y-12690933D02*
X16890539Y-12681409D01*
X16890539Y-12681409D02*
X16871491Y-12652837D01*
X16871491Y-12652837D02*
X16861968Y-12633790D01*
X16861968Y-12633790D02*
X16852444Y-12605218D01*
X16852444Y-12605218D02*
X16842920Y-12557599D01*
X16842920Y-12557599D02*
X16842920Y-12519504D01*
X16842920Y-12519504D02*
X16852444Y-12471885D01*
X16852444Y-12471885D02*
X16861968Y-12443314D01*
X16861968Y-12443314D02*
X16871491Y-12424266D01*
X16871491Y-12424266D02*
X16890539Y-12395694D01*
X16890539Y-12395694D02*
X16900063Y-12386171D01*
X17061968Y-12481409D02*
X17061968Y-12614742D01*
X17014349Y-12405218D02*
X16966730Y-12548075D01*
X16966730Y-12548075D02*
X17090539Y-12548075D01*
X17204825Y-12414742D02*
X17223872Y-12414742D01*
X17223872Y-12414742D02*
X17242920Y-12424266D01*
X17242920Y-12424266D02*
X17252444Y-12433790D01*
X17252444Y-12433790D02*
X17261968Y-12452837D01*
X17261968Y-12452837D02*
X17271491Y-12490933D01*
X17271491Y-12490933D02*
X17271491Y-12538552D01*
X17271491Y-12538552D02*
X17261968Y-12576647D01*
X17261968Y-12576647D02*
X17252444Y-12595694D01*
X17252444Y-12595694D02*
X17242920Y-12605218D01*
X17242920Y-12605218D02*
X17223872Y-12614742D01*
X17223872Y-12614742D02*
X17204825Y-12614742D01*
X17204825Y-12614742D02*
X17185777Y-12605218D01*
X17185777Y-12605218D02*
X17176253Y-12595694D01*
X17176253Y-12595694D02*
X17166730Y-12576647D01*
X17166730Y-12576647D02*
X17157206Y-12538552D01*
X17157206Y-12538552D02*
X17157206Y-12490933D01*
X17157206Y-12490933D02*
X17166730Y-12452837D01*
X17166730Y-12452837D02*
X17176253Y-12433790D01*
X17176253Y-12433790D02*
X17185777Y-12424266D01*
X17185777Y-12424266D02*
X17204825Y-12414742D01*
X17509587Y-12614742D02*
X17509587Y-12414742D01*
X17595301Y-12614742D02*
X17595301Y-12509980D01*
X17595301Y-12509980D02*
X17585777Y-12490933D01*
X17585777Y-12490933D02*
X17566730Y-12481409D01*
X17566730Y-12481409D02*
X17538158Y-12481409D01*
X17538158Y-12481409D02*
X17519111Y-12490933D01*
X17519111Y-12490933D02*
X17509587Y-12500456D01*
X17719111Y-12614742D02*
X17700063Y-12605218D01*
X17700063Y-12605218D02*
X17690539Y-12595694D01*
X17690539Y-12595694D02*
X17681015Y-12576647D01*
X17681015Y-12576647D02*
X17681015Y-12519504D01*
X17681015Y-12519504D02*
X17690539Y-12500456D01*
X17690539Y-12500456D02*
X17700063Y-12490933D01*
X17700063Y-12490933D02*
X17719111Y-12481409D01*
X17719111Y-12481409D02*
X17747682Y-12481409D01*
X17747682Y-12481409D02*
X17766730Y-12490933D01*
X17766730Y-12490933D02*
X17776253Y-12500456D01*
X17776253Y-12500456D02*
X17785777Y-12519504D01*
X17785777Y-12519504D02*
X17785777Y-12576647D01*
X17785777Y-12576647D02*
X17776253Y-12595694D01*
X17776253Y-12595694D02*
X17766730Y-12605218D01*
X17766730Y-12605218D02*
X17747682Y-12614742D01*
X17747682Y-12614742D02*
X17719111Y-12614742D01*
X17900063Y-12614742D02*
X17881015Y-12605218D01*
X17881015Y-12605218D02*
X17871492Y-12586171D01*
X17871492Y-12586171D02*
X17871492Y-12414742D01*
X18052444Y-12605218D02*
X18033396Y-12614742D01*
X18033396Y-12614742D02*
X17995301Y-12614742D01*
X17995301Y-12614742D02*
X17976253Y-12605218D01*
X17976253Y-12605218D02*
X17966730Y-12586171D01*
X17966730Y-12586171D02*
X17966730Y-12509980D01*
X17966730Y-12509980D02*
X17976253Y-12490933D01*
X17976253Y-12490933D02*
X17995301Y-12481409D01*
X17995301Y-12481409D02*
X18033396Y-12481409D01*
X18033396Y-12481409D02*
X18052444Y-12490933D01*
X18052444Y-12490933D02*
X18061968Y-12509980D01*
X18061968Y-12509980D02*
X18061968Y-12529028D01*
X18061968Y-12529028D02*
X17966730Y-12548075D01*
X18138158Y-12605218D02*
X18157206Y-12614742D01*
X18157206Y-12614742D02*
X18195301Y-12614742D01*
X18195301Y-12614742D02*
X18214349Y-12605218D01*
X18214349Y-12605218D02*
X18223873Y-12586171D01*
X18223873Y-12586171D02*
X18223873Y-12576647D01*
X18223873Y-12576647D02*
X18214349Y-12557599D01*
X18214349Y-12557599D02*
X18195301Y-12548075D01*
X18195301Y-12548075D02*
X18166730Y-12548075D01*
X18166730Y-12548075D02*
X18147682Y-12538552D01*
X18147682Y-12538552D02*
X18138158Y-12519504D01*
X18138158Y-12519504D02*
X18138158Y-12509980D01*
X18138158Y-12509980D02*
X18147682Y-12490933D01*
X18147682Y-12490933D02*
X18166730Y-12481409D01*
X18166730Y-12481409D02*
X18195301Y-12481409D01*
X18195301Y-12481409D02*
X18214349Y-12490933D01*
X18290539Y-12690933D02*
X18300063Y-12681409D01*
X18300063Y-12681409D02*
X18319111Y-12652837D01*
X18319111Y-12652837D02*
X18328634Y-12633790D01*
X18328634Y-12633790D02*
X18338158Y-12605218D01*
X18338158Y-12605218D02*
X18347682Y-12557599D01*
X18347682Y-12557599D02*
X18347682Y-12519504D01*
X18347682Y-12519504D02*
X18338158Y-12471885D01*
X18338158Y-12471885D02*
X18328634Y-12443314D01*
X18328634Y-12443314D02*
X18319111Y-12424266D01*
X18319111Y-12424266D02*
X18300063Y-12395694D01*
X18300063Y-12395694D02*
X18290539Y-12386171D01*
D11*
X13325000Y-12787258D02*
G75*
G03*
X13255000Y-12787258I-35000J0D01*
G01*
X13255000Y-12787258D02*
G75*
G03*
X13325000Y-12787258I35000J0D01*
G01*
D10*
X13623872Y-12678742D02*
X13642920Y-12678742D01*
X13642920Y-12678742D02*
X13661967Y-12688266D01*
X13661967Y-12688266D02*
X13671491Y-12697790D01*
X13671491Y-12697790D02*
X13681015Y-12716837D01*
X13681015Y-12716837D02*
X13690539Y-12754933D01*
X13690539Y-12754933D02*
X13690539Y-12802552D01*
X13690539Y-12802552D02*
X13681015Y-12840647D01*
X13681015Y-12840647D02*
X13671491Y-12859694D01*
X13671491Y-12859694D02*
X13661967Y-12869218D01*
X13661967Y-12869218D02*
X13642920Y-12878742D01*
X13642920Y-12878742D02*
X13623872Y-12878742D01*
X13623872Y-12878742D02*
X13604824Y-12869218D01*
X13604824Y-12869218D02*
X13595301Y-12859694D01*
X13595301Y-12859694D02*
X13585777Y-12840647D01*
X13585777Y-12840647D02*
X13576253Y-12802552D01*
X13576253Y-12802552D02*
X13576253Y-12754933D01*
X13576253Y-12754933D02*
X13585777Y-12716837D01*
X13585777Y-12716837D02*
X13595301Y-12697790D01*
X13595301Y-12697790D02*
X13604824Y-12688266D01*
X13604824Y-12688266D02*
X13623872Y-12678742D01*
X13776253Y-12859694D02*
X13785777Y-12869218D01*
X13785777Y-12869218D02*
X13776253Y-12878742D01*
X13776253Y-12878742D02*
X13766729Y-12869218D01*
X13766729Y-12869218D02*
X13776253Y-12859694D01*
X13776253Y-12859694D02*
X13776253Y-12878742D01*
X13852443Y-12678742D02*
X13985777Y-12678742D01*
X13985777Y-12678742D02*
X13900062Y-12878742D01*
X14100062Y-12678742D02*
X14119110Y-12678742D01*
X14119110Y-12678742D02*
X14138158Y-12688266D01*
X14138158Y-12688266D02*
X14147682Y-12697790D01*
X14147682Y-12697790D02*
X14157205Y-12716837D01*
X14157205Y-12716837D02*
X14166729Y-12754933D01*
X14166729Y-12754933D02*
X14166729Y-12802552D01*
X14166729Y-12802552D02*
X14157205Y-12840647D01*
X14157205Y-12840647D02*
X14147682Y-12859694D01*
X14147682Y-12859694D02*
X14138158Y-12869218D01*
X14138158Y-12869218D02*
X14119110Y-12878742D01*
X14119110Y-12878742D02*
X14100062Y-12878742D01*
X14100062Y-12878742D02*
X14081015Y-12869218D01*
X14081015Y-12869218D02*
X14071491Y-12859694D01*
X14071491Y-12859694D02*
X14061967Y-12840647D01*
X14061967Y-12840647D02*
X14052443Y-12802552D01*
X14052443Y-12802552D02*
X14052443Y-12754933D01*
X14052443Y-12754933D02*
X14061967Y-12716837D01*
X14061967Y-12716837D02*
X14071491Y-12697790D01*
X14071491Y-12697790D02*
X14081015Y-12688266D01*
X14081015Y-12688266D02*
X14100062Y-12678742D01*
X14290539Y-12678742D02*
X14309586Y-12678742D01*
X14309586Y-12678742D02*
X14328634Y-12688266D01*
X14328634Y-12688266D02*
X14338158Y-12697790D01*
X14338158Y-12697790D02*
X14347682Y-12716837D01*
X14347682Y-12716837D02*
X14357205Y-12754933D01*
X14357205Y-12754933D02*
X14357205Y-12802552D01*
X14357205Y-12802552D02*
X14347682Y-12840647D01*
X14347682Y-12840647D02*
X14338158Y-12859694D01*
X14338158Y-12859694D02*
X14328634Y-12869218D01*
X14328634Y-12869218D02*
X14309586Y-12878742D01*
X14309586Y-12878742D02*
X14290539Y-12878742D01*
X14290539Y-12878742D02*
X14271491Y-12869218D01*
X14271491Y-12869218D02*
X14261967Y-12859694D01*
X14261967Y-12859694D02*
X14252443Y-12840647D01*
X14252443Y-12840647D02*
X14242920Y-12802552D01*
X14242920Y-12802552D02*
X14242920Y-12754933D01*
X14242920Y-12754933D02*
X14252443Y-12716837D01*
X14252443Y-12716837D02*
X14261967Y-12697790D01*
X14261967Y-12697790D02*
X14271491Y-12688266D01*
X14271491Y-12688266D02*
X14290539Y-12678742D01*
X14442920Y-12878742D02*
X14442920Y-12745409D01*
X14442920Y-12764456D02*
X14452443Y-12754933D01*
X14452443Y-12754933D02*
X14471491Y-12745409D01*
X14471491Y-12745409D02*
X14500063Y-12745409D01*
X14500063Y-12745409D02*
X14519110Y-12754933D01*
X14519110Y-12754933D02*
X14528634Y-12773980D01*
X14528634Y-12773980D02*
X14528634Y-12878742D01*
X14528634Y-12773980D02*
X14538158Y-12754933D01*
X14538158Y-12754933D02*
X14557205Y-12745409D01*
X14557205Y-12745409D02*
X14585777Y-12745409D01*
X14585777Y-12745409D02*
X14604824Y-12754933D01*
X14604824Y-12754933D02*
X14614348Y-12773980D01*
X14614348Y-12773980D02*
X14614348Y-12878742D01*
X14709586Y-12878742D02*
X14709586Y-12745409D01*
X14709586Y-12764456D02*
X14719110Y-12754933D01*
X14719110Y-12754933D02*
X14738158Y-12745409D01*
X14738158Y-12745409D02*
X14766729Y-12745409D01*
X14766729Y-12745409D02*
X14785777Y-12754933D01*
X14785777Y-12754933D02*
X14795301Y-12773980D01*
X14795301Y-12773980D02*
X14795301Y-12878742D01*
X14795301Y-12773980D02*
X14804824Y-12754933D01*
X14804824Y-12754933D02*
X14823872Y-12745409D01*
X14823872Y-12745409D02*
X14852443Y-12745409D01*
X14852443Y-12745409D02*
X14871491Y-12754933D01*
X14871491Y-12754933D02*
X14881015Y-12773980D01*
X14881015Y-12773980D02*
X14881015Y-12878742D01*
X15271491Y-12669218D02*
X15100063Y-12926361D01*
X15528634Y-12678742D02*
X15547682Y-12678742D01*
X15547682Y-12678742D02*
X15566729Y-12688266D01*
X15566729Y-12688266D02*
X15576253Y-12697790D01*
X15576253Y-12697790D02*
X15585777Y-12716837D01*
X15585777Y-12716837D02*
X15595301Y-12754933D01*
X15595301Y-12754933D02*
X15595301Y-12802552D01*
X15595301Y-12802552D02*
X15585777Y-12840647D01*
X15585777Y-12840647D02*
X15576253Y-12859694D01*
X15576253Y-12859694D02*
X15566729Y-12869218D01*
X15566729Y-12869218D02*
X15547682Y-12878742D01*
X15547682Y-12878742D02*
X15528634Y-12878742D01*
X15528634Y-12878742D02*
X15509586Y-12869218D01*
X15509586Y-12869218D02*
X15500063Y-12859694D01*
X15500063Y-12859694D02*
X15490539Y-12840647D01*
X15490539Y-12840647D02*
X15481015Y-12802552D01*
X15481015Y-12802552D02*
X15481015Y-12754933D01*
X15481015Y-12754933D02*
X15490539Y-12716837D01*
X15490539Y-12716837D02*
X15500063Y-12697790D01*
X15500063Y-12697790D02*
X15509586Y-12688266D01*
X15509586Y-12688266D02*
X15528634Y-12678742D01*
X15681015Y-12859694D02*
X15690539Y-12869218D01*
X15690539Y-12869218D02*
X15681015Y-12878742D01*
X15681015Y-12878742D02*
X15671491Y-12869218D01*
X15671491Y-12869218D02*
X15681015Y-12859694D01*
X15681015Y-12859694D02*
X15681015Y-12878742D01*
X15814348Y-12678742D02*
X15833396Y-12678742D01*
X15833396Y-12678742D02*
X15852444Y-12688266D01*
X15852444Y-12688266D02*
X15861967Y-12697790D01*
X15861967Y-12697790D02*
X15871491Y-12716837D01*
X15871491Y-12716837D02*
X15881015Y-12754933D01*
X15881015Y-12754933D02*
X15881015Y-12802552D01*
X15881015Y-12802552D02*
X15871491Y-12840647D01*
X15871491Y-12840647D02*
X15861967Y-12859694D01*
X15861967Y-12859694D02*
X15852444Y-12869218D01*
X15852444Y-12869218D02*
X15833396Y-12878742D01*
X15833396Y-12878742D02*
X15814348Y-12878742D01*
X15814348Y-12878742D02*
X15795301Y-12869218D01*
X15795301Y-12869218D02*
X15785777Y-12859694D01*
X15785777Y-12859694D02*
X15776253Y-12840647D01*
X15776253Y-12840647D02*
X15766729Y-12802552D01*
X15766729Y-12802552D02*
X15766729Y-12754933D01*
X15766729Y-12754933D02*
X15776253Y-12716837D01*
X15776253Y-12716837D02*
X15785777Y-12697790D01*
X15785777Y-12697790D02*
X15795301Y-12688266D01*
X15795301Y-12688266D02*
X15814348Y-12678742D01*
X15957206Y-12697790D02*
X15966729Y-12688266D01*
X15966729Y-12688266D02*
X15985777Y-12678742D01*
X15985777Y-12678742D02*
X16033396Y-12678742D01*
X16033396Y-12678742D02*
X16052444Y-12688266D01*
X16052444Y-12688266D02*
X16061967Y-12697790D01*
X16061967Y-12697790D02*
X16071491Y-12716837D01*
X16071491Y-12716837D02*
X16071491Y-12735885D01*
X16071491Y-12735885D02*
X16061967Y-12764456D01*
X16061967Y-12764456D02*
X15947682Y-12878742D01*
X15947682Y-12878742D02*
X16071491Y-12878742D01*
X16138158Y-12678742D02*
X16271491Y-12678742D01*
X16271491Y-12678742D02*
X16185777Y-12878742D01*
X16433396Y-12678742D02*
X16395301Y-12678742D01*
X16395301Y-12678742D02*
X16376253Y-12688266D01*
X16376253Y-12688266D02*
X16366729Y-12697790D01*
X16366729Y-12697790D02*
X16347682Y-12726361D01*
X16347682Y-12726361D02*
X16338158Y-12764456D01*
X16338158Y-12764456D02*
X16338158Y-12840647D01*
X16338158Y-12840647D02*
X16347682Y-12859694D01*
X16347682Y-12859694D02*
X16357206Y-12869218D01*
X16357206Y-12869218D02*
X16376253Y-12878742D01*
X16376253Y-12878742D02*
X16414348Y-12878742D01*
X16414348Y-12878742D02*
X16433396Y-12869218D01*
X16433396Y-12869218D02*
X16442920Y-12859694D01*
X16442920Y-12859694D02*
X16452444Y-12840647D01*
X16452444Y-12840647D02*
X16452444Y-12793028D01*
X16452444Y-12793028D02*
X16442920Y-12773980D01*
X16442920Y-12773980D02*
X16433396Y-12764456D01*
X16433396Y-12764456D02*
X16414348Y-12754933D01*
X16414348Y-12754933D02*
X16376253Y-12754933D01*
X16376253Y-12754933D02*
X16357206Y-12764456D01*
X16357206Y-12764456D02*
X16347682Y-12773980D01*
X16347682Y-12773980D02*
X16338158Y-12793028D01*
X16528634Y-12678742D02*
X16528634Y-12716837D01*
X16604825Y-12678742D02*
X16604825Y-12716837D01*
X16900063Y-12954933D02*
X16890539Y-12945409D01*
X16890539Y-12945409D02*
X16871491Y-12916837D01*
X16871491Y-12916837D02*
X16861968Y-12897790D01*
X16861968Y-12897790D02*
X16852444Y-12869218D01*
X16852444Y-12869218D02*
X16842920Y-12821599D01*
X16842920Y-12821599D02*
X16842920Y-12783504D01*
X16842920Y-12783504D02*
X16852444Y-12735885D01*
X16852444Y-12735885D02*
X16861968Y-12707314D01*
X16861968Y-12707314D02*
X16871491Y-12688266D01*
X16871491Y-12688266D02*
X16890539Y-12659694D01*
X16890539Y-12659694D02*
X16900063Y-12650171D01*
X17061968Y-12745409D02*
X17061968Y-12878742D01*
X17014349Y-12669218D02*
X16966730Y-12812075D01*
X16966730Y-12812075D02*
X17090539Y-12812075D01*
X17319111Y-12878742D02*
X17319111Y-12678742D01*
X17404825Y-12878742D02*
X17404825Y-12773980D01*
X17404825Y-12773980D02*
X17395301Y-12754933D01*
X17395301Y-12754933D02*
X17376253Y-12745409D01*
X17376253Y-12745409D02*
X17347682Y-12745409D01*
X17347682Y-12745409D02*
X17328634Y-12754933D01*
X17328634Y-12754933D02*
X17319111Y-12764456D01*
X17528634Y-12878742D02*
X17509587Y-12869218D01*
X17509587Y-12869218D02*
X17500063Y-12859694D01*
X17500063Y-12859694D02*
X17490539Y-12840647D01*
X17490539Y-12840647D02*
X17490539Y-12783504D01*
X17490539Y-12783504D02*
X17500063Y-12764456D01*
X17500063Y-12764456D02*
X17509587Y-12754933D01*
X17509587Y-12754933D02*
X17528634Y-12745409D01*
X17528634Y-12745409D02*
X17557206Y-12745409D01*
X17557206Y-12745409D02*
X17576253Y-12754933D01*
X17576253Y-12754933D02*
X17585777Y-12764456D01*
X17585777Y-12764456D02*
X17595301Y-12783504D01*
X17595301Y-12783504D02*
X17595301Y-12840647D01*
X17595301Y-12840647D02*
X17585777Y-12859694D01*
X17585777Y-12859694D02*
X17576253Y-12869218D01*
X17576253Y-12869218D02*
X17557206Y-12878742D01*
X17557206Y-12878742D02*
X17528634Y-12878742D01*
X17709587Y-12878742D02*
X17690539Y-12869218D01*
X17690539Y-12869218D02*
X17681015Y-12850171D01*
X17681015Y-12850171D02*
X17681015Y-12678742D01*
X17861968Y-12869218D02*
X17842920Y-12878742D01*
X17842920Y-12878742D02*
X17804825Y-12878742D01*
X17804825Y-12878742D02*
X17785777Y-12869218D01*
X17785777Y-12869218D02*
X17776253Y-12850171D01*
X17776253Y-12850171D02*
X17776253Y-12773980D01*
X17776253Y-12773980D02*
X17785777Y-12754933D01*
X17785777Y-12754933D02*
X17804825Y-12745409D01*
X17804825Y-12745409D02*
X17842920Y-12745409D01*
X17842920Y-12745409D02*
X17861968Y-12754933D01*
X17861968Y-12754933D02*
X17871492Y-12773980D01*
X17871492Y-12773980D02*
X17871492Y-12793028D01*
X17871492Y-12793028D02*
X17776253Y-12812075D01*
X17947682Y-12869218D02*
X17966730Y-12878742D01*
X17966730Y-12878742D02*
X18004825Y-12878742D01*
X18004825Y-12878742D02*
X18023873Y-12869218D01*
X18023873Y-12869218D02*
X18033396Y-12850171D01*
X18033396Y-12850171D02*
X18033396Y-12840647D01*
X18033396Y-12840647D02*
X18023873Y-12821599D01*
X18023873Y-12821599D02*
X18004825Y-12812075D01*
X18004825Y-12812075D02*
X17976253Y-12812075D01*
X17976253Y-12812075D02*
X17957206Y-12802552D01*
X17957206Y-12802552D02*
X17947682Y-12783504D01*
X17947682Y-12783504D02*
X17947682Y-12773980D01*
X17947682Y-12773980D02*
X17957206Y-12754933D01*
X17957206Y-12754933D02*
X17976253Y-12745409D01*
X17976253Y-12745409D02*
X18004825Y-12745409D01*
X18004825Y-12745409D02*
X18023873Y-12754933D01*
X18100063Y-12954933D02*
X18109587Y-12945409D01*
X18109587Y-12945409D02*
X18128634Y-12916837D01*
X18128634Y-12916837D02*
X18138158Y-12897790D01*
X18138158Y-12897790D02*
X18147682Y-12869218D01*
X18147682Y-12869218D02*
X18157206Y-12821599D01*
X18157206Y-12821599D02*
X18157206Y-12783504D01*
X18157206Y-12783504D02*
X18147682Y-12735885D01*
X18147682Y-12735885D02*
X18138158Y-12707314D01*
X18138158Y-12707314D02*
X18128634Y-12688266D01*
X18128634Y-12688266D02*
X18109587Y-12659694D01*
X18109587Y-12659694D02*
X18100063Y-12650171D01*
D11*
X13285000Y-13011258D02*
X13285000Y-13091258D01*
X13245000Y-13051258D02*
X13325000Y-13051258D01*
D10*
X13623872Y-12942742D02*
X13642920Y-12942742D01*
X13642920Y-12942742D02*
X13661967Y-12952266D01*
X13661967Y-12952266D02*
X13671491Y-12961790D01*
X13671491Y-12961790D02*
X13681015Y-12980837D01*
X13681015Y-12980837D02*
X13690539Y-13018933D01*
X13690539Y-13018933D02*
X13690539Y-13066552D01*
X13690539Y-13066552D02*
X13681015Y-13104647D01*
X13681015Y-13104647D02*
X13671491Y-13123694D01*
X13671491Y-13123694D02*
X13661967Y-13133218D01*
X13661967Y-13133218D02*
X13642920Y-13142742D01*
X13642920Y-13142742D02*
X13623872Y-13142742D01*
X13623872Y-13142742D02*
X13604824Y-13133218D01*
X13604824Y-13133218D02*
X13595301Y-13123694D01*
X13595301Y-13123694D02*
X13585777Y-13104647D01*
X13585777Y-13104647D02*
X13576253Y-13066552D01*
X13576253Y-13066552D02*
X13576253Y-13018933D01*
X13576253Y-13018933D02*
X13585777Y-12980837D01*
X13585777Y-12980837D02*
X13595301Y-12961790D01*
X13595301Y-12961790D02*
X13604824Y-12952266D01*
X13604824Y-12952266D02*
X13623872Y-12942742D01*
X13776253Y-13123694D02*
X13785777Y-13133218D01*
X13785777Y-13133218D02*
X13776253Y-13142742D01*
X13776253Y-13142742D02*
X13766729Y-13133218D01*
X13766729Y-13133218D02*
X13776253Y-13123694D01*
X13776253Y-13123694D02*
X13776253Y-13142742D01*
X13900062Y-13028456D02*
X13881015Y-13018933D01*
X13881015Y-13018933D02*
X13871491Y-13009409D01*
X13871491Y-13009409D02*
X13861967Y-12990361D01*
X13861967Y-12990361D02*
X13861967Y-12980837D01*
X13861967Y-12980837D02*
X13871491Y-12961790D01*
X13871491Y-12961790D02*
X13881015Y-12952266D01*
X13881015Y-12952266D02*
X13900062Y-12942742D01*
X13900062Y-12942742D02*
X13938158Y-12942742D01*
X13938158Y-12942742D02*
X13957205Y-12952266D01*
X13957205Y-12952266D02*
X13966729Y-12961790D01*
X13966729Y-12961790D02*
X13976253Y-12980837D01*
X13976253Y-12980837D02*
X13976253Y-12990361D01*
X13976253Y-12990361D02*
X13966729Y-13009409D01*
X13966729Y-13009409D02*
X13957205Y-13018933D01*
X13957205Y-13018933D02*
X13938158Y-13028456D01*
X13938158Y-13028456D02*
X13900062Y-13028456D01*
X13900062Y-13028456D02*
X13881015Y-13037980D01*
X13881015Y-13037980D02*
X13871491Y-13047504D01*
X13871491Y-13047504D02*
X13861967Y-13066552D01*
X13861967Y-13066552D02*
X13861967Y-13104647D01*
X13861967Y-13104647D02*
X13871491Y-13123694D01*
X13871491Y-13123694D02*
X13881015Y-13133218D01*
X13881015Y-13133218D02*
X13900062Y-13142742D01*
X13900062Y-13142742D02*
X13938158Y-13142742D01*
X13938158Y-13142742D02*
X13957205Y-13133218D01*
X13957205Y-13133218D02*
X13966729Y-13123694D01*
X13966729Y-13123694D02*
X13976253Y-13104647D01*
X13976253Y-13104647D02*
X13976253Y-13066552D01*
X13976253Y-13066552D02*
X13966729Y-13047504D01*
X13966729Y-13047504D02*
X13957205Y-13037980D01*
X13957205Y-13037980D02*
X13938158Y-13028456D01*
X14100062Y-12942742D02*
X14119110Y-12942742D01*
X14119110Y-12942742D02*
X14138158Y-12952266D01*
X14138158Y-12952266D02*
X14147682Y-12961790D01*
X14147682Y-12961790D02*
X14157205Y-12980837D01*
X14157205Y-12980837D02*
X14166729Y-13018933D01*
X14166729Y-13018933D02*
X14166729Y-13066552D01*
X14166729Y-13066552D02*
X14157205Y-13104647D01*
X14157205Y-13104647D02*
X14147682Y-13123694D01*
X14147682Y-13123694D02*
X14138158Y-13133218D01*
X14138158Y-13133218D02*
X14119110Y-13142742D01*
X14119110Y-13142742D02*
X14100062Y-13142742D01*
X14100062Y-13142742D02*
X14081015Y-13133218D01*
X14081015Y-13133218D02*
X14071491Y-13123694D01*
X14071491Y-13123694D02*
X14061967Y-13104647D01*
X14061967Y-13104647D02*
X14052443Y-13066552D01*
X14052443Y-13066552D02*
X14052443Y-13018933D01*
X14052443Y-13018933D02*
X14061967Y-12980837D01*
X14061967Y-12980837D02*
X14071491Y-12961790D01*
X14071491Y-12961790D02*
X14081015Y-12952266D01*
X14081015Y-12952266D02*
X14100062Y-12942742D01*
X14290539Y-12942742D02*
X14309586Y-12942742D01*
X14309586Y-12942742D02*
X14328634Y-12952266D01*
X14328634Y-12952266D02*
X14338158Y-12961790D01*
X14338158Y-12961790D02*
X14347682Y-12980837D01*
X14347682Y-12980837D02*
X14357205Y-13018933D01*
X14357205Y-13018933D02*
X14357205Y-13066552D01*
X14357205Y-13066552D02*
X14347682Y-13104647D01*
X14347682Y-13104647D02*
X14338158Y-13123694D01*
X14338158Y-13123694D02*
X14328634Y-13133218D01*
X14328634Y-13133218D02*
X14309586Y-13142742D01*
X14309586Y-13142742D02*
X14290539Y-13142742D01*
X14290539Y-13142742D02*
X14271491Y-13133218D01*
X14271491Y-13133218D02*
X14261967Y-13123694D01*
X14261967Y-13123694D02*
X14252443Y-13104647D01*
X14252443Y-13104647D02*
X14242920Y-13066552D01*
X14242920Y-13066552D02*
X14242920Y-13018933D01*
X14242920Y-13018933D02*
X14252443Y-12980837D01*
X14252443Y-12980837D02*
X14261967Y-12961790D01*
X14261967Y-12961790D02*
X14271491Y-12952266D01*
X14271491Y-12952266D02*
X14290539Y-12942742D01*
X14442920Y-13142742D02*
X14442920Y-13009409D01*
X14442920Y-13028456D02*
X14452443Y-13018933D01*
X14452443Y-13018933D02*
X14471491Y-13009409D01*
X14471491Y-13009409D02*
X14500063Y-13009409D01*
X14500063Y-13009409D02*
X14519110Y-13018933D01*
X14519110Y-13018933D02*
X14528634Y-13037980D01*
X14528634Y-13037980D02*
X14528634Y-13142742D01*
X14528634Y-13037980D02*
X14538158Y-13018933D01*
X14538158Y-13018933D02*
X14557205Y-13009409D01*
X14557205Y-13009409D02*
X14585777Y-13009409D01*
X14585777Y-13009409D02*
X14604824Y-13018933D01*
X14604824Y-13018933D02*
X14614348Y-13037980D01*
X14614348Y-13037980D02*
X14614348Y-13142742D01*
X14709586Y-13142742D02*
X14709586Y-13009409D01*
X14709586Y-13028456D02*
X14719110Y-13018933D01*
X14719110Y-13018933D02*
X14738158Y-13009409D01*
X14738158Y-13009409D02*
X14766729Y-13009409D01*
X14766729Y-13009409D02*
X14785777Y-13018933D01*
X14785777Y-13018933D02*
X14795301Y-13037980D01*
X14795301Y-13037980D02*
X14795301Y-13142742D01*
X14795301Y-13037980D02*
X14804824Y-13018933D01*
X14804824Y-13018933D02*
X14823872Y-13009409D01*
X14823872Y-13009409D02*
X14852443Y-13009409D01*
X14852443Y-13009409D02*
X14871491Y-13018933D01*
X14871491Y-13018933D02*
X14881015Y-13037980D01*
X14881015Y-13037980D02*
X14881015Y-13142742D01*
X15271491Y-12933218D02*
X15100063Y-13190361D01*
X15528634Y-12942742D02*
X15547682Y-12942742D01*
X15547682Y-12942742D02*
X15566729Y-12952266D01*
X15566729Y-12952266D02*
X15576253Y-12961790D01*
X15576253Y-12961790D02*
X15585777Y-12980837D01*
X15585777Y-12980837D02*
X15595301Y-13018933D01*
X15595301Y-13018933D02*
X15595301Y-13066552D01*
X15595301Y-13066552D02*
X15585777Y-13104647D01*
X15585777Y-13104647D02*
X15576253Y-13123694D01*
X15576253Y-13123694D02*
X15566729Y-13133218D01*
X15566729Y-13133218D02*
X15547682Y-13142742D01*
X15547682Y-13142742D02*
X15528634Y-13142742D01*
X15528634Y-13142742D02*
X15509586Y-13133218D01*
X15509586Y-13133218D02*
X15500063Y-13123694D01*
X15500063Y-13123694D02*
X15490539Y-13104647D01*
X15490539Y-13104647D02*
X15481015Y-13066552D01*
X15481015Y-13066552D02*
X15481015Y-13018933D01*
X15481015Y-13018933D02*
X15490539Y-12980837D01*
X15490539Y-12980837D02*
X15500063Y-12961790D01*
X15500063Y-12961790D02*
X15509586Y-12952266D01*
X15509586Y-12952266D02*
X15528634Y-12942742D01*
X15681015Y-13123694D02*
X15690539Y-13133218D01*
X15690539Y-13133218D02*
X15681015Y-13142742D01*
X15681015Y-13142742D02*
X15671491Y-13133218D01*
X15671491Y-13133218D02*
X15681015Y-13123694D01*
X15681015Y-13123694D02*
X15681015Y-13142742D01*
X15814348Y-12942742D02*
X15833396Y-12942742D01*
X15833396Y-12942742D02*
X15852444Y-12952266D01*
X15852444Y-12952266D02*
X15861967Y-12961790D01*
X15861967Y-12961790D02*
X15871491Y-12980837D01*
X15871491Y-12980837D02*
X15881015Y-13018933D01*
X15881015Y-13018933D02*
X15881015Y-13066552D01*
X15881015Y-13066552D02*
X15871491Y-13104647D01*
X15871491Y-13104647D02*
X15861967Y-13123694D01*
X15861967Y-13123694D02*
X15852444Y-13133218D01*
X15852444Y-13133218D02*
X15833396Y-13142742D01*
X15833396Y-13142742D02*
X15814348Y-13142742D01*
X15814348Y-13142742D02*
X15795301Y-13133218D01*
X15795301Y-13133218D02*
X15785777Y-13123694D01*
X15785777Y-13123694D02*
X15776253Y-13104647D01*
X15776253Y-13104647D02*
X15766729Y-13066552D01*
X15766729Y-13066552D02*
X15766729Y-13018933D01*
X15766729Y-13018933D02*
X15776253Y-12980837D01*
X15776253Y-12980837D02*
X15785777Y-12961790D01*
X15785777Y-12961790D02*
X15795301Y-12952266D01*
X15795301Y-12952266D02*
X15814348Y-12942742D01*
X15947682Y-12942742D02*
X16071491Y-12942742D01*
X16071491Y-12942742D02*
X16004825Y-13018933D01*
X16004825Y-13018933D02*
X16033396Y-13018933D01*
X16033396Y-13018933D02*
X16052444Y-13028456D01*
X16052444Y-13028456D02*
X16061967Y-13037980D01*
X16061967Y-13037980D02*
X16071491Y-13057028D01*
X16071491Y-13057028D02*
X16071491Y-13104647D01*
X16071491Y-13104647D02*
X16061967Y-13123694D01*
X16061967Y-13123694D02*
X16052444Y-13133218D01*
X16052444Y-13133218D02*
X16033396Y-13142742D01*
X16033396Y-13142742D02*
X15976253Y-13142742D01*
X15976253Y-13142742D02*
X15957206Y-13133218D01*
X15957206Y-13133218D02*
X15947682Y-13123694D01*
X16261967Y-13142742D02*
X16147682Y-13142742D01*
X16204825Y-13142742D02*
X16204825Y-12942742D01*
X16204825Y-12942742D02*
X16185777Y-12971314D01*
X16185777Y-12971314D02*
X16166729Y-12990361D01*
X16166729Y-12990361D02*
X16147682Y-12999885D01*
X16442920Y-12942742D02*
X16347682Y-12942742D01*
X16347682Y-12942742D02*
X16338158Y-13037980D01*
X16338158Y-13037980D02*
X16347682Y-13028456D01*
X16347682Y-13028456D02*
X16366729Y-13018933D01*
X16366729Y-13018933D02*
X16414348Y-13018933D01*
X16414348Y-13018933D02*
X16433396Y-13028456D01*
X16433396Y-13028456D02*
X16442920Y-13037980D01*
X16442920Y-13037980D02*
X16452444Y-13057028D01*
X16452444Y-13057028D02*
X16452444Y-13104647D01*
X16452444Y-13104647D02*
X16442920Y-13123694D01*
X16442920Y-13123694D02*
X16433396Y-13133218D01*
X16433396Y-13133218D02*
X16414348Y-13142742D01*
X16414348Y-13142742D02*
X16366729Y-13142742D01*
X16366729Y-13142742D02*
X16347682Y-13133218D01*
X16347682Y-13133218D02*
X16338158Y-13123694D01*
X16528634Y-12942742D02*
X16528634Y-12980837D01*
X16604825Y-12942742D02*
X16604825Y-12980837D01*
X16900063Y-13218933D02*
X16890539Y-13209409D01*
X16890539Y-13209409D02*
X16871491Y-13180837D01*
X16871491Y-13180837D02*
X16861968Y-13161790D01*
X16861968Y-13161790D02*
X16852444Y-13133218D01*
X16852444Y-13133218D02*
X16842920Y-13085599D01*
X16842920Y-13085599D02*
X16842920Y-13047504D01*
X16842920Y-13047504D02*
X16852444Y-12999885D01*
X16852444Y-12999885D02*
X16861968Y-12971314D01*
X16861968Y-12971314D02*
X16871491Y-12952266D01*
X16871491Y-12952266D02*
X16890539Y-12923694D01*
X16890539Y-12923694D02*
X16900063Y-12914171D01*
X17061968Y-13009409D02*
X17061968Y-13142742D01*
X17014349Y-12933218D02*
X16966730Y-13076075D01*
X16966730Y-13076075D02*
X17090539Y-13076075D01*
X17319111Y-13142742D02*
X17319111Y-12942742D01*
X17404825Y-13142742D02*
X17404825Y-13037980D01*
X17404825Y-13037980D02*
X17395301Y-13018933D01*
X17395301Y-13018933D02*
X17376253Y-13009409D01*
X17376253Y-13009409D02*
X17347682Y-13009409D01*
X17347682Y-13009409D02*
X17328634Y-13018933D01*
X17328634Y-13018933D02*
X17319111Y-13028456D01*
X17528634Y-13142742D02*
X17509587Y-13133218D01*
X17509587Y-13133218D02*
X17500063Y-13123694D01*
X17500063Y-13123694D02*
X17490539Y-13104647D01*
X17490539Y-13104647D02*
X17490539Y-13047504D01*
X17490539Y-13047504D02*
X17500063Y-13028456D01*
X17500063Y-13028456D02*
X17509587Y-13018933D01*
X17509587Y-13018933D02*
X17528634Y-13009409D01*
X17528634Y-13009409D02*
X17557206Y-13009409D01*
X17557206Y-13009409D02*
X17576253Y-13018933D01*
X17576253Y-13018933D02*
X17585777Y-13028456D01*
X17585777Y-13028456D02*
X17595301Y-13047504D01*
X17595301Y-13047504D02*
X17595301Y-13104647D01*
X17595301Y-13104647D02*
X17585777Y-13123694D01*
X17585777Y-13123694D02*
X17576253Y-13133218D01*
X17576253Y-13133218D02*
X17557206Y-13142742D01*
X17557206Y-13142742D02*
X17528634Y-13142742D01*
X17709587Y-13142742D02*
X17690539Y-13133218D01*
X17690539Y-13133218D02*
X17681015Y-13114171D01*
X17681015Y-13114171D02*
X17681015Y-12942742D01*
X17861968Y-13133218D02*
X17842920Y-13142742D01*
X17842920Y-13142742D02*
X17804825Y-13142742D01*
X17804825Y-13142742D02*
X17785777Y-13133218D01*
X17785777Y-13133218D02*
X17776253Y-13114171D01*
X17776253Y-13114171D02*
X17776253Y-13037980D01*
X17776253Y-13037980D02*
X17785777Y-13018933D01*
X17785777Y-13018933D02*
X17804825Y-13009409D01*
X17804825Y-13009409D02*
X17842920Y-13009409D01*
X17842920Y-13009409D02*
X17861968Y-13018933D01*
X17861968Y-13018933D02*
X17871492Y-13037980D01*
X17871492Y-13037980D02*
X17871492Y-13057028D01*
X17871492Y-13057028D02*
X17776253Y-13076075D01*
X17947682Y-13133218D02*
X17966730Y-13142742D01*
X17966730Y-13142742D02*
X18004825Y-13142742D01*
X18004825Y-13142742D02*
X18023873Y-13133218D01*
X18023873Y-13133218D02*
X18033396Y-13114171D01*
X18033396Y-13114171D02*
X18033396Y-13104647D01*
X18033396Y-13104647D02*
X18023873Y-13085599D01*
X18023873Y-13085599D02*
X18004825Y-13076075D01*
X18004825Y-13076075D02*
X17976253Y-13076075D01*
X17976253Y-13076075D02*
X17957206Y-13066552D01*
X17957206Y-13066552D02*
X17947682Y-13047504D01*
X17947682Y-13047504D02*
X17947682Y-13037980D01*
X17947682Y-13037980D02*
X17957206Y-13018933D01*
X17957206Y-13018933D02*
X17976253Y-13009409D01*
X17976253Y-13009409D02*
X18004825Y-13009409D01*
X18004825Y-13009409D02*
X18023873Y-13018933D01*
X18100063Y-13218933D02*
X18109587Y-13209409D01*
X18109587Y-13209409D02*
X18128634Y-13180837D01*
X18128634Y-13180837D02*
X18138158Y-13161790D01*
X18138158Y-13161790D02*
X18147682Y-13133218D01*
X18147682Y-13133218D02*
X18157206Y-13085599D01*
X18157206Y-13085599D02*
X18157206Y-13047504D01*
X18157206Y-13047504D02*
X18147682Y-12999885D01*
X18147682Y-12999885D02*
X18138158Y-12971314D01*
X18138158Y-12971314D02*
X18128634Y-12952266D01*
X18128634Y-12952266D02*
X18109587Y-12923694D01*
X18109587Y-12923694D02*
X18100063Y-12914171D01*
D11*
X13310356Y-13350614D02*
X13310356Y-13279903D01*
X13239644Y-13279903D01*
X13239644Y-13350614D01*
X13310356Y-13350614D01*
D10*
X13690539Y-13406742D02*
X13576253Y-13406742D01*
X13633396Y-13406742D02*
X13633396Y-13206742D01*
X13633396Y-13206742D02*
X13614348Y-13235314D01*
X13614348Y-13235314D02*
X13595301Y-13254361D01*
X13595301Y-13254361D02*
X13576253Y-13263885D01*
X13776253Y-13387694D02*
X13785777Y-13397218D01*
X13785777Y-13397218D02*
X13776253Y-13406742D01*
X13776253Y-13406742D02*
X13766729Y-13397218D01*
X13766729Y-13397218D02*
X13776253Y-13387694D01*
X13776253Y-13387694D02*
X13776253Y-13406742D01*
X13909586Y-13206742D02*
X13928634Y-13206742D01*
X13928634Y-13206742D02*
X13947682Y-13216266D01*
X13947682Y-13216266D02*
X13957205Y-13225790D01*
X13957205Y-13225790D02*
X13966729Y-13244837D01*
X13966729Y-13244837D02*
X13976253Y-13282933D01*
X13976253Y-13282933D02*
X13976253Y-13330552D01*
X13976253Y-13330552D02*
X13966729Y-13368647D01*
X13966729Y-13368647D02*
X13957205Y-13387694D01*
X13957205Y-13387694D02*
X13947682Y-13397218D01*
X13947682Y-13397218D02*
X13928634Y-13406742D01*
X13928634Y-13406742D02*
X13909586Y-13406742D01*
X13909586Y-13406742D02*
X13890539Y-13397218D01*
X13890539Y-13397218D02*
X13881015Y-13387694D01*
X13881015Y-13387694D02*
X13871491Y-13368647D01*
X13871491Y-13368647D02*
X13861967Y-13330552D01*
X13861967Y-13330552D02*
X13861967Y-13282933D01*
X13861967Y-13282933D02*
X13871491Y-13244837D01*
X13871491Y-13244837D02*
X13881015Y-13225790D01*
X13881015Y-13225790D02*
X13890539Y-13216266D01*
X13890539Y-13216266D02*
X13909586Y-13206742D01*
X14100062Y-13206742D02*
X14119110Y-13206742D01*
X14119110Y-13206742D02*
X14138158Y-13216266D01*
X14138158Y-13216266D02*
X14147682Y-13225790D01*
X14147682Y-13225790D02*
X14157205Y-13244837D01*
X14157205Y-13244837D02*
X14166729Y-13282933D01*
X14166729Y-13282933D02*
X14166729Y-13330552D01*
X14166729Y-13330552D02*
X14157205Y-13368647D01*
X14157205Y-13368647D02*
X14147682Y-13387694D01*
X14147682Y-13387694D02*
X14138158Y-13397218D01*
X14138158Y-13397218D02*
X14119110Y-13406742D01*
X14119110Y-13406742D02*
X14100062Y-13406742D01*
X14100062Y-13406742D02*
X14081015Y-13397218D01*
X14081015Y-13397218D02*
X14071491Y-13387694D01*
X14071491Y-13387694D02*
X14061967Y-13368647D01*
X14061967Y-13368647D02*
X14052443Y-13330552D01*
X14052443Y-13330552D02*
X14052443Y-13282933D01*
X14052443Y-13282933D02*
X14061967Y-13244837D01*
X14061967Y-13244837D02*
X14071491Y-13225790D01*
X14071491Y-13225790D02*
X14081015Y-13216266D01*
X14081015Y-13216266D02*
X14100062Y-13206742D01*
X14290539Y-13206742D02*
X14309586Y-13206742D01*
X14309586Y-13206742D02*
X14328634Y-13216266D01*
X14328634Y-13216266D02*
X14338158Y-13225790D01*
X14338158Y-13225790D02*
X14347682Y-13244837D01*
X14347682Y-13244837D02*
X14357205Y-13282933D01*
X14357205Y-13282933D02*
X14357205Y-13330552D01*
X14357205Y-13330552D02*
X14347682Y-13368647D01*
X14347682Y-13368647D02*
X14338158Y-13387694D01*
X14338158Y-13387694D02*
X14328634Y-13397218D01*
X14328634Y-13397218D02*
X14309586Y-13406742D01*
X14309586Y-13406742D02*
X14290539Y-13406742D01*
X14290539Y-13406742D02*
X14271491Y-13397218D01*
X14271491Y-13397218D02*
X14261967Y-13387694D01*
X14261967Y-13387694D02*
X14252443Y-13368647D01*
X14252443Y-13368647D02*
X14242920Y-13330552D01*
X14242920Y-13330552D02*
X14242920Y-13282933D01*
X14242920Y-13282933D02*
X14252443Y-13244837D01*
X14252443Y-13244837D02*
X14261967Y-13225790D01*
X14261967Y-13225790D02*
X14271491Y-13216266D01*
X14271491Y-13216266D02*
X14290539Y-13206742D01*
X14442920Y-13406742D02*
X14442920Y-13273409D01*
X14442920Y-13292456D02*
X14452443Y-13282933D01*
X14452443Y-13282933D02*
X14471491Y-13273409D01*
X14471491Y-13273409D02*
X14500063Y-13273409D01*
X14500063Y-13273409D02*
X14519110Y-13282933D01*
X14519110Y-13282933D02*
X14528634Y-13301980D01*
X14528634Y-13301980D02*
X14528634Y-13406742D01*
X14528634Y-13301980D02*
X14538158Y-13282933D01*
X14538158Y-13282933D02*
X14557205Y-13273409D01*
X14557205Y-13273409D02*
X14585777Y-13273409D01*
X14585777Y-13273409D02*
X14604824Y-13282933D01*
X14604824Y-13282933D02*
X14614348Y-13301980D01*
X14614348Y-13301980D02*
X14614348Y-13406742D01*
X14709586Y-13406742D02*
X14709586Y-13273409D01*
X14709586Y-13292456D02*
X14719110Y-13282933D01*
X14719110Y-13282933D02*
X14738158Y-13273409D01*
X14738158Y-13273409D02*
X14766729Y-13273409D01*
X14766729Y-13273409D02*
X14785777Y-13282933D01*
X14785777Y-13282933D02*
X14795301Y-13301980D01*
X14795301Y-13301980D02*
X14795301Y-13406742D01*
X14795301Y-13301980D02*
X14804824Y-13282933D01*
X14804824Y-13282933D02*
X14823872Y-13273409D01*
X14823872Y-13273409D02*
X14852443Y-13273409D01*
X14852443Y-13273409D02*
X14871491Y-13282933D01*
X14871491Y-13282933D02*
X14881015Y-13301980D01*
X14881015Y-13301980D02*
X14881015Y-13406742D01*
X15271491Y-13197218D02*
X15100063Y-13454361D01*
X15528634Y-13206742D02*
X15547682Y-13206742D01*
X15547682Y-13206742D02*
X15566729Y-13216266D01*
X15566729Y-13216266D02*
X15576253Y-13225790D01*
X15576253Y-13225790D02*
X15585777Y-13244837D01*
X15585777Y-13244837D02*
X15595301Y-13282933D01*
X15595301Y-13282933D02*
X15595301Y-13330552D01*
X15595301Y-13330552D02*
X15585777Y-13368647D01*
X15585777Y-13368647D02*
X15576253Y-13387694D01*
X15576253Y-13387694D02*
X15566729Y-13397218D01*
X15566729Y-13397218D02*
X15547682Y-13406742D01*
X15547682Y-13406742D02*
X15528634Y-13406742D01*
X15528634Y-13406742D02*
X15509586Y-13397218D01*
X15509586Y-13397218D02*
X15500063Y-13387694D01*
X15500063Y-13387694D02*
X15490539Y-13368647D01*
X15490539Y-13368647D02*
X15481015Y-13330552D01*
X15481015Y-13330552D02*
X15481015Y-13282933D01*
X15481015Y-13282933D02*
X15490539Y-13244837D01*
X15490539Y-13244837D02*
X15500063Y-13225790D01*
X15500063Y-13225790D02*
X15509586Y-13216266D01*
X15509586Y-13216266D02*
X15528634Y-13206742D01*
X15681015Y-13387694D02*
X15690539Y-13397218D01*
X15690539Y-13397218D02*
X15681015Y-13406742D01*
X15681015Y-13406742D02*
X15671491Y-13397218D01*
X15671491Y-13397218D02*
X15681015Y-13387694D01*
X15681015Y-13387694D02*
X15681015Y-13406742D01*
X15814348Y-13206742D02*
X15833396Y-13206742D01*
X15833396Y-13206742D02*
X15852444Y-13216266D01*
X15852444Y-13216266D02*
X15861967Y-13225790D01*
X15861967Y-13225790D02*
X15871491Y-13244837D01*
X15871491Y-13244837D02*
X15881015Y-13282933D01*
X15881015Y-13282933D02*
X15881015Y-13330552D01*
X15881015Y-13330552D02*
X15871491Y-13368647D01*
X15871491Y-13368647D02*
X15861967Y-13387694D01*
X15861967Y-13387694D02*
X15852444Y-13397218D01*
X15852444Y-13397218D02*
X15833396Y-13406742D01*
X15833396Y-13406742D02*
X15814348Y-13406742D01*
X15814348Y-13406742D02*
X15795301Y-13397218D01*
X15795301Y-13397218D02*
X15785777Y-13387694D01*
X15785777Y-13387694D02*
X15776253Y-13368647D01*
X15776253Y-13368647D02*
X15766729Y-13330552D01*
X15766729Y-13330552D02*
X15766729Y-13282933D01*
X15766729Y-13282933D02*
X15776253Y-13244837D01*
X15776253Y-13244837D02*
X15785777Y-13225790D01*
X15785777Y-13225790D02*
X15795301Y-13216266D01*
X15795301Y-13216266D02*
X15814348Y-13206742D01*
X15947682Y-13206742D02*
X16071491Y-13206742D01*
X16071491Y-13206742D02*
X16004825Y-13282933D01*
X16004825Y-13282933D02*
X16033396Y-13282933D01*
X16033396Y-13282933D02*
X16052444Y-13292456D01*
X16052444Y-13292456D02*
X16061967Y-13301980D01*
X16061967Y-13301980D02*
X16071491Y-13321028D01*
X16071491Y-13321028D02*
X16071491Y-13368647D01*
X16071491Y-13368647D02*
X16061967Y-13387694D01*
X16061967Y-13387694D02*
X16052444Y-13397218D01*
X16052444Y-13397218D02*
X16033396Y-13406742D01*
X16033396Y-13406742D02*
X15976253Y-13406742D01*
X15976253Y-13406742D02*
X15957206Y-13397218D01*
X15957206Y-13397218D02*
X15947682Y-13387694D01*
X16166729Y-13406742D02*
X16204825Y-13406742D01*
X16204825Y-13406742D02*
X16223872Y-13397218D01*
X16223872Y-13397218D02*
X16233396Y-13387694D01*
X16233396Y-13387694D02*
X16252444Y-13359123D01*
X16252444Y-13359123D02*
X16261967Y-13321028D01*
X16261967Y-13321028D02*
X16261967Y-13244837D01*
X16261967Y-13244837D02*
X16252444Y-13225790D01*
X16252444Y-13225790D02*
X16242920Y-13216266D01*
X16242920Y-13216266D02*
X16223872Y-13206742D01*
X16223872Y-13206742D02*
X16185777Y-13206742D01*
X16185777Y-13206742D02*
X16166729Y-13216266D01*
X16166729Y-13216266D02*
X16157206Y-13225790D01*
X16157206Y-13225790D02*
X16147682Y-13244837D01*
X16147682Y-13244837D02*
X16147682Y-13292456D01*
X16147682Y-13292456D02*
X16157206Y-13311504D01*
X16157206Y-13311504D02*
X16166729Y-13321028D01*
X16166729Y-13321028D02*
X16185777Y-13330552D01*
X16185777Y-13330552D02*
X16223872Y-13330552D01*
X16223872Y-13330552D02*
X16242920Y-13321028D01*
X16242920Y-13321028D02*
X16252444Y-13311504D01*
X16252444Y-13311504D02*
X16261967Y-13292456D01*
X16433396Y-13273409D02*
X16433396Y-13406742D01*
X16385777Y-13197218D02*
X16338158Y-13340075D01*
X16338158Y-13340075D02*
X16461967Y-13340075D01*
X16528634Y-13206742D02*
X16528634Y-13244837D01*
X16604825Y-13206742D02*
X16604825Y-13244837D01*
X16900063Y-13482933D02*
X16890539Y-13473409D01*
X16890539Y-13473409D02*
X16871491Y-13444837D01*
X16871491Y-13444837D02*
X16861968Y-13425790D01*
X16861968Y-13425790D02*
X16852444Y-13397218D01*
X16852444Y-13397218D02*
X16842920Y-13349599D01*
X16842920Y-13349599D02*
X16842920Y-13311504D01*
X16842920Y-13311504D02*
X16852444Y-13263885D01*
X16852444Y-13263885D02*
X16861968Y-13235314D01*
X16861968Y-13235314D02*
X16871491Y-13216266D01*
X16871491Y-13216266D02*
X16890539Y-13187694D01*
X16890539Y-13187694D02*
X16900063Y-13178171D01*
X17081015Y-13406742D02*
X16966730Y-13406742D01*
X17023872Y-13406742D02*
X17023872Y-13206742D01*
X17023872Y-13206742D02*
X17004825Y-13235314D01*
X17004825Y-13235314D02*
X16985777Y-13254361D01*
X16985777Y-13254361D02*
X16966730Y-13263885D01*
X17252444Y-13206742D02*
X17214349Y-13206742D01*
X17214349Y-13206742D02*
X17195301Y-13216266D01*
X17195301Y-13216266D02*
X17185777Y-13225790D01*
X17185777Y-13225790D02*
X17166730Y-13254361D01*
X17166730Y-13254361D02*
X17157206Y-13292456D01*
X17157206Y-13292456D02*
X17157206Y-13368647D01*
X17157206Y-13368647D02*
X17166730Y-13387694D01*
X17166730Y-13387694D02*
X17176253Y-13397218D01*
X17176253Y-13397218D02*
X17195301Y-13406742D01*
X17195301Y-13406742D02*
X17233396Y-13406742D01*
X17233396Y-13406742D02*
X17252444Y-13397218D01*
X17252444Y-13397218D02*
X17261968Y-13387694D01*
X17261968Y-13387694D02*
X17271491Y-13368647D01*
X17271491Y-13368647D02*
X17271491Y-13321028D01*
X17271491Y-13321028D02*
X17261968Y-13301980D01*
X17261968Y-13301980D02*
X17252444Y-13292456D01*
X17252444Y-13292456D02*
X17233396Y-13282933D01*
X17233396Y-13282933D02*
X17195301Y-13282933D01*
X17195301Y-13282933D02*
X17176253Y-13292456D01*
X17176253Y-13292456D02*
X17166730Y-13301980D01*
X17166730Y-13301980D02*
X17157206Y-13321028D01*
X17509587Y-13406742D02*
X17509587Y-13206742D01*
X17595301Y-13406742D02*
X17595301Y-13301980D01*
X17595301Y-13301980D02*
X17585777Y-13282933D01*
X17585777Y-13282933D02*
X17566730Y-13273409D01*
X17566730Y-13273409D02*
X17538158Y-13273409D01*
X17538158Y-13273409D02*
X17519111Y-13282933D01*
X17519111Y-13282933D02*
X17509587Y-13292456D01*
X17719111Y-13406742D02*
X17700063Y-13397218D01*
X17700063Y-13397218D02*
X17690539Y-13387694D01*
X17690539Y-13387694D02*
X17681015Y-13368647D01*
X17681015Y-13368647D02*
X17681015Y-13311504D01*
X17681015Y-13311504D02*
X17690539Y-13292456D01*
X17690539Y-13292456D02*
X17700063Y-13282933D01*
X17700063Y-13282933D02*
X17719111Y-13273409D01*
X17719111Y-13273409D02*
X17747682Y-13273409D01*
X17747682Y-13273409D02*
X17766730Y-13282933D01*
X17766730Y-13282933D02*
X17776253Y-13292456D01*
X17776253Y-13292456D02*
X17785777Y-13311504D01*
X17785777Y-13311504D02*
X17785777Y-13368647D01*
X17785777Y-13368647D02*
X17776253Y-13387694D01*
X17776253Y-13387694D02*
X17766730Y-13397218D01*
X17766730Y-13397218D02*
X17747682Y-13406742D01*
X17747682Y-13406742D02*
X17719111Y-13406742D01*
X17900063Y-13406742D02*
X17881015Y-13397218D01*
X17881015Y-13397218D02*
X17871492Y-13378171D01*
X17871492Y-13378171D02*
X17871492Y-13206742D01*
X18052444Y-13397218D02*
X18033396Y-13406742D01*
X18033396Y-13406742D02*
X17995301Y-13406742D01*
X17995301Y-13406742D02*
X17976253Y-13397218D01*
X17976253Y-13397218D02*
X17966730Y-13378171D01*
X17966730Y-13378171D02*
X17966730Y-13301980D01*
X17966730Y-13301980D02*
X17976253Y-13282933D01*
X17976253Y-13282933D02*
X17995301Y-13273409D01*
X17995301Y-13273409D02*
X18033396Y-13273409D01*
X18033396Y-13273409D02*
X18052444Y-13282933D01*
X18052444Y-13282933D02*
X18061968Y-13301980D01*
X18061968Y-13301980D02*
X18061968Y-13321028D01*
X18061968Y-13321028D02*
X17966730Y-13340075D01*
X18138158Y-13397218D02*
X18157206Y-13406742D01*
X18157206Y-13406742D02*
X18195301Y-13406742D01*
X18195301Y-13406742D02*
X18214349Y-13397218D01*
X18214349Y-13397218D02*
X18223873Y-13378171D01*
X18223873Y-13378171D02*
X18223873Y-13368647D01*
X18223873Y-13368647D02*
X18214349Y-13349599D01*
X18214349Y-13349599D02*
X18195301Y-13340075D01*
X18195301Y-13340075D02*
X18166730Y-13340075D01*
X18166730Y-13340075D02*
X18147682Y-13330552D01*
X18147682Y-13330552D02*
X18138158Y-13311504D01*
X18138158Y-13311504D02*
X18138158Y-13301980D01*
X18138158Y-13301980D02*
X18147682Y-13282933D01*
X18147682Y-13282933D02*
X18166730Y-13273409D01*
X18166730Y-13273409D02*
X18195301Y-13273409D01*
X18195301Y-13273409D02*
X18214349Y-13282933D01*
X18290539Y-13482933D02*
X18300063Y-13473409D01*
X18300063Y-13473409D02*
X18319111Y-13444837D01*
X18319111Y-13444837D02*
X18328634Y-13425790D01*
X18328634Y-13425790D02*
X18338158Y-13397218D01*
X18338158Y-13397218D02*
X18347682Y-13349599D01*
X18347682Y-13349599D02*
X18347682Y-13311504D01*
X18347682Y-13311504D02*
X18338158Y-13263885D01*
X18338158Y-13263885D02*
X18328634Y-13235314D01*
X18328634Y-13235314D02*
X18319111Y-13216266D01*
X18319111Y-13216266D02*
X18300063Y-13187694D01*
X18300063Y-13187694D02*
X18290539Y-13178171D01*
M02*
