%TF.GenerationSoftware,KiCad,Pcbnew,7.0.11*%
%TF.CreationDate,2025-01-20T01:33:55+09:00*%
%TF.ProjectId,VoltageBooster,566f6c74-6167-4654-926f-6f737465722e,rev?*%
%TF.SameCoordinates,Original*%
%TF.FileFunction,Drillmap*%
%TF.FilePolarity,Positive*%
%FSLAX45Y45*%
G04 Gerber Fmt 4.5, Leading zero omitted, Abs format (unit mm)*
G04 Created by KiCad (PCBNEW 7.0.11) date 2025-01-20 01:33:55*
%MOMM*%
%LPD*%
G01*
G04 APERTURE LIST*
%ADD10C,0.200000*%
%ADD11C,0.210000*%
G04 APERTURE END LIST*
D10*
X17135000Y-11673258D02*
X17135000Y-8636000D01*
X17045000Y-11673258D02*
G75*
G03*
X16825000Y-11673258I-110000J0D01*
G01*
X16825000Y-11673258D02*
G75*
G03*
X17045000Y-11673258I110000J0D01*
G01*
X13676421Y-8211736D02*
X13393579Y-8494579D01*
X16735003Y-11674517D02*
G75*
G03*
X16912600Y-11873258I199997J-3D01*
G01*
X17135000Y-8636000D02*
G75*
G03*
X17076421Y-8494579I-200000J0D01*
G01*
X15835000Y-10174517D02*
X16635000Y-10174517D01*
X15535000Y-11174520D02*
G75*
G03*
X15735000Y-10974517I0J200000D01*
G01*
X13817843Y-8153160D02*
G75*
G03*
X13676421Y-8211736I-3J-200000D01*
G01*
X16652157Y-8153157D02*
X13817843Y-8153157D01*
X13335000Y-8636000D02*
X13335000Y-11673258D01*
X14935000Y-11873260D02*
G75*
G03*
X15135000Y-11673258I0J200000D01*
G01*
X17076421Y-8494579D02*
X16793579Y-8211736D01*
X17045000Y-8636000D02*
G75*
G03*
X16825000Y-8636000I-110000J0D01*
G01*
X16825000Y-8636000D02*
G75*
G03*
X17045000Y-8636000I110000J0D01*
G01*
X16912600Y-11873258D02*
X16935000Y-11873258D01*
X16735003Y-10274517D02*
G75*
G03*
X16635000Y-10174517I-100003J-3D01*
G01*
X16935000Y-11873260D02*
G75*
G03*
X17135000Y-11673258I0J200000D01*
G01*
X13393579Y-8494579D02*
G75*
G03*
X13335000Y-8636000I141421J-141421D01*
G01*
X16793581Y-8211734D02*
G75*
G03*
X16652157Y-8153157I-141421J-141426D01*
G01*
X16735000Y-10274517D02*
X16735000Y-11674517D01*
X13645000Y-8636000D02*
G75*
G03*
X13425000Y-8636000I-110000J0D01*
G01*
X13425000Y-8636000D02*
G75*
G03*
X13645000Y-8636000I110000J0D01*
G01*
X15335000Y-11174517D02*
X15535000Y-11174517D01*
X15135000Y-11673258D02*
X15135000Y-11374517D01*
X15735000Y-10974517D02*
X15735000Y-10274517D01*
X13535000Y-11873258D02*
X14935000Y-11873258D01*
X13335002Y-11673258D02*
G75*
G03*
X13535000Y-11873258I199998J-2D01*
G01*
X15835000Y-10174520D02*
G75*
G03*
X15735000Y-10274517I0J-100000D01*
G01*
X13645000Y-11673258D02*
G75*
G03*
X13425000Y-11673258I-110000J0D01*
G01*
X13425000Y-11673258D02*
G75*
G03*
X13645000Y-11673258I110000J0D01*
G01*
X15335000Y-11174520D02*
G75*
G03*
X15135000Y-11374517I0J-200000D01*
G01*
D11*
X13431000Y-8531000D02*
X13641000Y-8741000D01*
X13641000Y-8531000D02*
X13431000Y-8741000D01*
X13431000Y-11567000D02*
X13641000Y-11777000D01*
X13641000Y-11567000D02*
X13431000Y-11777000D01*
X16830000Y-8530000D02*
X17040000Y-8740000D01*
X17040000Y-8530000D02*
X16830000Y-8740000D01*
X16832000Y-11569000D02*
X17042000Y-11779000D01*
X17042000Y-11569000D02*
X16832000Y-11779000D01*
D10*
X13585777Y-12194742D02*
X13585777Y-11994742D01*
X13585777Y-11994742D02*
X13633396Y-11994742D01*
X13633396Y-11994742D02*
X13661967Y-12004266D01*
X13661967Y-12004266D02*
X13681015Y-12023314D01*
X13681015Y-12023314D02*
X13690539Y-12042361D01*
X13690539Y-12042361D02*
X13700062Y-12080456D01*
X13700062Y-12080456D02*
X13700062Y-12109028D01*
X13700062Y-12109028D02*
X13690539Y-12147123D01*
X13690539Y-12147123D02*
X13681015Y-12166171D01*
X13681015Y-12166171D02*
X13661967Y-12185218D01*
X13661967Y-12185218D02*
X13633396Y-12194742D01*
X13633396Y-12194742D02*
X13585777Y-12194742D01*
X13785777Y-12194742D02*
X13785777Y-12061409D01*
X13785777Y-12099504D02*
X13795301Y-12080456D01*
X13795301Y-12080456D02*
X13804824Y-12070933D01*
X13804824Y-12070933D02*
X13823872Y-12061409D01*
X13823872Y-12061409D02*
X13842920Y-12061409D01*
X13909586Y-12194742D02*
X13909586Y-12061409D01*
X13909586Y-11994742D02*
X13900062Y-12004266D01*
X13900062Y-12004266D02*
X13909586Y-12013790D01*
X13909586Y-12013790D02*
X13919110Y-12004266D01*
X13919110Y-12004266D02*
X13909586Y-11994742D01*
X13909586Y-11994742D02*
X13909586Y-12013790D01*
X14033396Y-12194742D02*
X14014348Y-12185218D01*
X14014348Y-12185218D02*
X14004824Y-12166171D01*
X14004824Y-12166171D02*
X14004824Y-11994742D01*
X14138158Y-12194742D02*
X14119110Y-12185218D01*
X14119110Y-12185218D02*
X14109586Y-12166171D01*
X14109586Y-12166171D02*
X14109586Y-11994742D01*
X14366729Y-12194742D02*
X14366729Y-11994742D01*
X14366729Y-11994742D02*
X14433396Y-12137599D01*
X14433396Y-12137599D02*
X14500062Y-11994742D01*
X14500062Y-11994742D02*
X14500062Y-12194742D01*
X14681015Y-12194742D02*
X14681015Y-12089980D01*
X14681015Y-12089980D02*
X14671491Y-12070933D01*
X14671491Y-12070933D02*
X14652443Y-12061409D01*
X14652443Y-12061409D02*
X14614348Y-12061409D01*
X14614348Y-12061409D02*
X14595301Y-12070933D01*
X14681015Y-12185218D02*
X14661967Y-12194742D01*
X14661967Y-12194742D02*
X14614348Y-12194742D01*
X14614348Y-12194742D02*
X14595301Y-12185218D01*
X14595301Y-12185218D02*
X14585777Y-12166171D01*
X14585777Y-12166171D02*
X14585777Y-12147123D01*
X14585777Y-12147123D02*
X14595301Y-12128075D01*
X14595301Y-12128075D02*
X14614348Y-12118552D01*
X14614348Y-12118552D02*
X14661967Y-12118552D01*
X14661967Y-12118552D02*
X14681015Y-12109028D01*
X14776253Y-12061409D02*
X14776253Y-12261409D01*
X14776253Y-12070933D02*
X14795301Y-12061409D01*
X14795301Y-12061409D02*
X14833396Y-12061409D01*
X14833396Y-12061409D02*
X14852443Y-12070933D01*
X14852443Y-12070933D02*
X14861967Y-12080456D01*
X14861967Y-12080456D02*
X14871491Y-12099504D01*
X14871491Y-12099504D02*
X14871491Y-12156647D01*
X14871491Y-12156647D02*
X14861967Y-12175694D01*
X14861967Y-12175694D02*
X14852443Y-12185218D01*
X14852443Y-12185218D02*
X14833396Y-12194742D01*
X14833396Y-12194742D02*
X14795301Y-12194742D01*
X14795301Y-12194742D02*
X14776253Y-12185218D01*
X14957205Y-12175694D02*
X14966729Y-12185218D01*
X14966729Y-12185218D02*
X14957205Y-12194742D01*
X14957205Y-12194742D02*
X14947682Y-12185218D01*
X14947682Y-12185218D02*
X14957205Y-12175694D01*
X14957205Y-12175694D02*
X14957205Y-12194742D01*
X14957205Y-12070933D02*
X14966729Y-12080456D01*
X14966729Y-12080456D02*
X14957205Y-12089980D01*
X14957205Y-12089980D02*
X14947682Y-12080456D01*
X14947682Y-12080456D02*
X14957205Y-12070933D01*
X14957205Y-12070933D02*
X14957205Y-12089980D01*
X13125000Y-12423258D02*
X13325000Y-12623258D01*
X13325000Y-12423258D02*
X13125000Y-12623258D01*
X13576253Y-12433790D02*
X13585777Y-12424266D01*
X13585777Y-12424266D02*
X13604824Y-12414742D01*
X13604824Y-12414742D02*
X13652443Y-12414742D01*
X13652443Y-12414742D02*
X13671491Y-12424266D01*
X13671491Y-12424266D02*
X13681015Y-12433790D01*
X13681015Y-12433790D02*
X13690539Y-12452837D01*
X13690539Y-12452837D02*
X13690539Y-12471885D01*
X13690539Y-12471885D02*
X13681015Y-12500456D01*
X13681015Y-12500456D02*
X13566729Y-12614742D01*
X13566729Y-12614742D02*
X13690539Y-12614742D01*
X13776253Y-12595694D02*
X13785777Y-12605218D01*
X13785777Y-12605218D02*
X13776253Y-12614742D01*
X13776253Y-12614742D02*
X13766729Y-12605218D01*
X13766729Y-12605218D02*
X13776253Y-12595694D01*
X13776253Y-12595694D02*
X13776253Y-12614742D01*
X13976253Y-12614742D02*
X13861967Y-12614742D01*
X13919110Y-12614742D02*
X13919110Y-12414742D01*
X13919110Y-12414742D02*
X13900062Y-12443314D01*
X13900062Y-12443314D02*
X13881015Y-12462361D01*
X13881015Y-12462361D02*
X13861967Y-12471885D01*
X14100062Y-12414742D02*
X14119110Y-12414742D01*
X14119110Y-12414742D02*
X14138158Y-12424266D01*
X14138158Y-12424266D02*
X14147682Y-12433790D01*
X14147682Y-12433790D02*
X14157205Y-12452837D01*
X14157205Y-12452837D02*
X14166729Y-12490933D01*
X14166729Y-12490933D02*
X14166729Y-12538552D01*
X14166729Y-12538552D02*
X14157205Y-12576647D01*
X14157205Y-12576647D02*
X14147682Y-12595694D01*
X14147682Y-12595694D02*
X14138158Y-12605218D01*
X14138158Y-12605218D02*
X14119110Y-12614742D01*
X14119110Y-12614742D02*
X14100062Y-12614742D01*
X14100062Y-12614742D02*
X14081015Y-12605218D01*
X14081015Y-12605218D02*
X14071491Y-12595694D01*
X14071491Y-12595694D02*
X14061967Y-12576647D01*
X14061967Y-12576647D02*
X14052443Y-12538552D01*
X14052443Y-12538552D02*
X14052443Y-12490933D01*
X14052443Y-12490933D02*
X14061967Y-12452837D01*
X14061967Y-12452837D02*
X14071491Y-12433790D01*
X14071491Y-12433790D02*
X14081015Y-12424266D01*
X14081015Y-12424266D02*
X14100062Y-12414742D01*
X14290539Y-12414742D02*
X14309586Y-12414742D01*
X14309586Y-12414742D02*
X14328634Y-12424266D01*
X14328634Y-12424266D02*
X14338158Y-12433790D01*
X14338158Y-12433790D02*
X14347682Y-12452837D01*
X14347682Y-12452837D02*
X14357205Y-12490933D01*
X14357205Y-12490933D02*
X14357205Y-12538552D01*
X14357205Y-12538552D02*
X14347682Y-12576647D01*
X14347682Y-12576647D02*
X14338158Y-12595694D01*
X14338158Y-12595694D02*
X14328634Y-12605218D01*
X14328634Y-12605218D02*
X14309586Y-12614742D01*
X14309586Y-12614742D02*
X14290539Y-12614742D01*
X14290539Y-12614742D02*
X14271491Y-12605218D01*
X14271491Y-12605218D02*
X14261967Y-12595694D01*
X14261967Y-12595694D02*
X14252443Y-12576647D01*
X14252443Y-12576647D02*
X14242920Y-12538552D01*
X14242920Y-12538552D02*
X14242920Y-12490933D01*
X14242920Y-12490933D02*
X14252443Y-12452837D01*
X14252443Y-12452837D02*
X14261967Y-12433790D01*
X14261967Y-12433790D02*
X14271491Y-12424266D01*
X14271491Y-12424266D02*
X14290539Y-12414742D01*
X14442920Y-12614742D02*
X14442920Y-12481409D01*
X14442920Y-12500456D02*
X14452443Y-12490933D01*
X14452443Y-12490933D02*
X14471491Y-12481409D01*
X14471491Y-12481409D02*
X14500063Y-12481409D01*
X14500063Y-12481409D02*
X14519110Y-12490933D01*
X14519110Y-12490933D02*
X14528634Y-12509980D01*
X14528634Y-12509980D02*
X14528634Y-12614742D01*
X14528634Y-12509980D02*
X14538158Y-12490933D01*
X14538158Y-12490933D02*
X14557205Y-12481409D01*
X14557205Y-12481409D02*
X14585777Y-12481409D01*
X14585777Y-12481409D02*
X14604824Y-12490933D01*
X14604824Y-12490933D02*
X14614348Y-12509980D01*
X14614348Y-12509980D02*
X14614348Y-12614742D01*
X14709586Y-12614742D02*
X14709586Y-12481409D01*
X14709586Y-12500456D02*
X14719110Y-12490933D01*
X14719110Y-12490933D02*
X14738158Y-12481409D01*
X14738158Y-12481409D02*
X14766729Y-12481409D01*
X14766729Y-12481409D02*
X14785777Y-12490933D01*
X14785777Y-12490933D02*
X14795301Y-12509980D01*
X14795301Y-12509980D02*
X14795301Y-12614742D01*
X14795301Y-12509980D02*
X14804824Y-12490933D01*
X14804824Y-12490933D02*
X14823872Y-12481409D01*
X14823872Y-12481409D02*
X14852443Y-12481409D01*
X14852443Y-12481409D02*
X14871491Y-12490933D01*
X14871491Y-12490933D02*
X14881015Y-12509980D01*
X14881015Y-12509980D02*
X14881015Y-12614742D01*
X15271491Y-12405218D02*
X15100063Y-12662361D01*
X15528634Y-12414742D02*
X15547682Y-12414742D01*
X15547682Y-12414742D02*
X15566729Y-12424266D01*
X15566729Y-12424266D02*
X15576253Y-12433790D01*
X15576253Y-12433790D02*
X15585777Y-12452837D01*
X15585777Y-12452837D02*
X15595301Y-12490933D01*
X15595301Y-12490933D02*
X15595301Y-12538552D01*
X15595301Y-12538552D02*
X15585777Y-12576647D01*
X15585777Y-12576647D02*
X15576253Y-12595694D01*
X15576253Y-12595694D02*
X15566729Y-12605218D01*
X15566729Y-12605218D02*
X15547682Y-12614742D01*
X15547682Y-12614742D02*
X15528634Y-12614742D01*
X15528634Y-12614742D02*
X15509586Y-12605218D01*
X15509586Y-12605218D02*
X15500063Y-12595694D01*
X15500063Y-12595694D02*
X15490539Y-12576647D01*
X15490539Y-12576647D02*
X15481015Y-12538552D01*
X15481015Y-12538552D02*
X15481015Y-12490933D01*
X15481015Y-12490933D02*
X15490539Y-12452837D01*
X15490539Y-12452837D02*
X15500063Y-12433790D01*
X15500063Y-12433790D02*
X15509586Y-12424266D01*
X15509586Y-12424266D02*
X15528634Y-12414742D01*
X15681015Y-12595694D02*
X15690539Y-12605218D01*
X15690539Y-12605218D02*
X15681015Y-12614742D01*
X15681015Y-12614742D02*
X15671491Y-12605218D01*
X15671491Y-12605218D02*
X15681015Y-12595694D01*
X15681015Y-12595694D02*
X15681015Y-12614742D01*
X15814348Y-12414742D02*
X15833396Y-12414742D01*
X15833396Y-12414742D02*
X15852444Y-12424266D01*
X15852444Y-12424266D02*
X15861967Y-12433790D01*
X15861967Y-12433790D02*
X15871491Y-12452837D01*
X15871491Y-12452837D02*
X15881015Y-12490933D01*
X15881015Y-12490933D02*
X15881015Y-12538552D01*
X15881015Y-12538552D02*
X15871491Y-12576647D01*
X15871491Y-12576647D02*
X15861967Y-12595694D01*
X15861967Y-12595694D02*
X15852444Y-12605218D01*
X15852444Y-12605218D02*
X15833396Y-12614742D01*
X15833396Y-12614742D02*
X15814348Y-12614742D01*
X15814348Y-12614742D02*
X15795301Y-12605218D01*
X15795301Y-12605218D02*
X15785777Y-12595694D01*
X15785777Y-12595694D02*
X15776253Y-12576647D01*
X15776253Y-12576647D02*
X15766729Y-12538552D01*
X15766729Y-12538552D02*
X15766729Y-12490933D01*
X15766729Y-12490933D02*
X15776253Y-12452837D01*
X15776253Y-12452837D02*
X15785777Y-12433790D01*
X15785777Y-12433790D02*
X15795301Y-12424266D01*
X15795301Y-12424266D02*
X15814348Y-12414742D01*
X15995301Y-12500456D02*
X15976253Y-12490933D01*
X15976253Y-12490933D02*
X15966729Y-12481409D01*
X15966729Y-12481409D02*
X15957206Y-12462361D01*
X15957206Y-12462361D02*
X15957206Y-12452837D01*
X15957206Y-12452837D02*
X15966729Y-12433790D01*
X15966729Y-12433790D02*
X15976253Y-12424266D01*
X15976253Y-12424266D02*
X15995301Y-12414742D01*
X15995301Y-12414742D02*
X16033396Y-12414742D01*
X16033396Y-12414742D02*
X16052444Y-12424266D01*
X16052444Y-12424266D02*
X16061967Y-12433790D01*
X16061967Y-12433790D02*
X16071491Y-12452837D01*
X16071491Y-12452837D02*
X16071491Y-12462361D01*
X16071491Y-12462361D02*
X16061967Y-12481409D01*
X16061967Y-12481409D02*
X16052444Y-12490933D01*
X16052444Y-12490933D02*
X16033396Y-12500456D01*
X16033396Y-12500456D02*
X15995301Y-12500456D01*
X15995301Y-12500456D02*
X15976253Y-12509980D01*
X15976253Y-12509980D02*
X15966729Y-12519504D01*
X15966729Y-12519504D02*
X15957206Y-12538552D01*
X15957206Y-12538552D02*
X15957206Y-12576647D01*
X15957206Y-12576647D02*
X15966729Y-12595694D01*
X15966729Y-12595694D02*
X15976253Y-12605218D01*
X15976253Y-12605218D02*
X15995301Y-12614742D01*
X15995301Y-12614742D02*
X16033396Y-12614742D01*
X16033396Y-12614742D02*
X16052444Y-12605218D01*
X16052444Y-12605218D02*
X16061967Y-12595694D01*
X16061967Y-12595694D02*
X16071491Y-12576647D01*
X16071491Y-12576647D02*
X16071491Y-12538552D01*
X16071491Y-12538552D02*
X16061967Y-12519504D01*
X16061967Y-12519504D02*
X16052444Y-12509980D01*
X16052444Y-12509980D02*
X16033396Y-12500456D01*
X16147682Y-12433790D02*
X16157206Y-12424266D01*
X16157206Y-12424266D02*
X16176253Y-12414742D01*
X16176253Y-12414742D02*
X16223872Y-12414742D01*
X16223872Y-12414742D02*
X16242920Y-12424266D01*
X16242920Y-12424266D02*
X16252444Y-12433790D01*
X16252444Y-12433790D02*
X16261967Y-12452837D01*
X16261967Y-12452837D02*
X16261967Y-12471885D01*
X16261967Y-12471885D02*
X16252444Y-12500456D01*
X16252444Y-12500456D02*
X16138158Y-12614742D01*
X16138158Y-12614742D02*
X16261967Y-12614742D01*
X16328634Y-12414742D02*
X16461967Y-12414742D01*
X16461967Y-12414742D02*
X16376253Y-12614742D01*
X16528634Y-12414742D02*
X16528634Y-12452837D01*
X16604825Y-12414742D02*
X16604825Y-12452837D01*
X16900063Y-12690933D02*
X16890539Y-12681409D01*
X16890539Y-12681409D02*
X16871491Y-12652837D01*
X16871491Y-12652837D02*
X16861968Y-12633790D01*
X16861968Y-12633790D02*
X16852444Y-12605218D01*
X16852444Y-12605218D02*
X16842920Y-12557599D01*
X16842920Y-12557599D02*
X16842920Y-12519504D01*
X16842920Y-12519504D02*
X16852444Y-12471885D01*
X16852444Y-12471885D02*
X16861968Y-12443314D01*
X16861968Y-12443314D02*
X16871491Y-12424266D01*
X16871491Y-12424266D02*
X16890539Y-12395694D01*
X16890539Y-12395694D02*
X16900063Y-12386171D01*
X17061968Y-12481409D02*
X17061968Y-12614742D01*
X17014349Y-12405218D02*
X16966730Y-12548075D01*
X16966730Y-12548075D02*
X17090539Y-12548075D01*
X17319111Y-12614742D02*
X17319111Y-12414742D01*
X17404825Y-12614742D02*
X17404825Y-12509980D01*
X17404825Y-12509980D02*
X17395301Y-12490933D01*
X17395301Y-12490933D02*
X17376253Y-12481409D01*
X17376253Y-12481409D02*
X17347682Y-12481409D01*
X17347682Y-12481409D02*
X17328634Y-12490933D01*
X17328634Y-12490933D02*
X17319111Y-12500456D01*
X17528634Y-12614742D02*
X17509587Y-12605218D01*
X17509587Y-12605218D02*
X17500063Y-12595694D01*
X17500063Y-12595694D02*
X17490539Y-12576647D01*
X17490539Y-12576647D02*
X17490539Y-12519504D01*
X17490539Y-12519504D02*
X17500063Y-12500456D01*
X17500063Y-12500456D02*
X17509587Y-12490933D01*
X17509587Y-12490933D02*
X17528634Y-12481409D01*
X17528634Y-12481409D02*
X17557206Y-12481409D01*
X17557206Y-12481409D02*
X17576253Y-12490933D01*
X17576253Y-12490933D02*
X17585777Y-12500456D01*
X17585777Y-12500456D02*
X17595301Y-12519504D01*
X17595301Y-12519504D02*
X17595301Y-12576647D01*
X17595301Y-12576647D02*
X17585777Y-12595694D01*
X17585777Y-12595694D02*
X17576253Y-12605218D01*
X17576253Y-12605218D02*
X17557206Y-12614742D01*
X17557206Y-12614742D02*
X17528634Y-12614742D01*
X17709587Y-12614742D02*
X17690539Y-12605218D01*
X17690539Y-12605218D02*
X17681015Y-12586171D01*
X17681015Y-12586171D02*
X17681015Y-12414742D01*
X17861968Y-12605218D02*
X17842920Y-12614742D01*
X17842920Y-12614742D02*
X17804825Y-12614742D01*
X17804825Y-12614742D02*
X17785777Y-12605218D01*
X17785777Y-12605218D02*
X17776253Y-12586171D01*
X17776253Y-12586171D02*
X17776253Y-12509980D01*
X17776253Y-12509980D02*
X17785777Y-12490933D01*
X17785777Y-12490933D02*
X17804825Y-12481409D01*
X17804825Y-12481409D02*
X17842920Y-12481409D01*
X17842920Y-12481409D02*
X17861968Y-12490933D01*
X17861968Y-12490933D02*
X17871492Y-12509980D01*
X17871492Y-12509980D02*
X17871492Y-12529028D01*
X17871492Y-12529028D02*
X17776253Y-12548075D01*
X17947682Y-12605218D02*
X17966730Y-12614742D01*
X17966730Y-12614742D02*
X18004825Y-12614742D01*
X18004825Y-12614742D02*
X18023873Y-12605218D01*
X18023873Y-12605218D02*
X18033396Y-12586171D01*
X18033396Y-12586171D02*
X18033396Y-12576647D01*
X18033396Y-12576647D02*
X18023873Y-12557599D01*
X18023873Y-12557599D02*
X18004825Y-12548075D01*
X18004825Y-12548075D02*
X17976253Y-12548075D01*
X17976253Y-12548075D02*
X17957206Y-12538552D01*
X17957206Y-12538552D02*
X17947682Y-12519504D01*
X17947682Y-12519504D02*
X17947682Y-12509980D01*
X17947682Y-12509980D02*
X17957206Y-12490933D01*
X17957206Y-12490933D02*
X17976253Y-12481409D01*
X17976253Y-12481409D02*
X18004825Y-12481409D01*
X18004825Y-12481409D02*
X18023873Y-12490933D01*
X18100063Y-12690933D02*
X18109587Y-12681409D01*
X18109587Y-12681409D02*
X18128634Y-12652837D01*
X18128634Y-12652837D02*
X18138158Y-12633790D01*
X18138158Y-12633790D02*
X18147682Y-12605218D01*
X18147682Y-12605218D02*
X18157206Y-12557599D01*
X18157206Y-12557599D02*
X18157206Y-12519504D01*
X18157206Y-12519504D02*
X18147682Y-12471885D01*
X18147682Y-12471885D02*
X18138158Y-12443314D01*
X18138158Y-12443314D02*
X18128634Y-12424266D01*
X18128634Y-12424266D02*
X18109587Y-12395694D01*
X18109587Y-12395694D02*
X18100063Y-12386171D01*
X18461968Y-12690933D02*
X18452444Y-12681409D01*
X18452444Y-12681409D02*
X18433396Y-12652837D01*
X18433396Y-12652837D02*
X18423873Y-12633790D01*
X18423873Y-12633790D02*
X18414349Y-12605218D01*
X18414349Y-12605218D02*
X18404825Y-12557599D01*
X18404825Y-12557599D02*
X18404825Y-12519504D01*
X18404825Y-12519504D02*
X18414349Y-12471885D01*
X18414349Y-12471885D02*
X18423873Y-12443314D01*
X18423873Y-12443314D02*
X18433396Y-12424266D01*
X18433396Y-12424266D02*
X18452444Y-12395694D01*
X18452444Y-12395694D02*
X18461968Y-12386171D01*
X18538158Y-12481409D02*
X18538158Y-12614742D01*
X18538158Y-12500456D02*
X18547682Y-12490933D01*
X18547682Y-12490933D02*
X18566730Y-12481409D01*
X18566730Y-12481409D02*
X18595301Y-12481409D01*
X18595301Y-12481409D02*
X18614349Y-12490933D01*
X18614349Y-12490933D02*
X18623873Y-12509980D01*
X18623873Y-12509980D02*
X18623873Y-12614742D01*
X18747682Y-12614742D02*
X18728634Y-12605218D01*
X18728634Y-12605218D02*
X18719111Y-12595694D01*
X18719111Y-12595694D02*
X18709587Y-12576647D01*
X18709587Y-12576647D02*
X18709587Y-12519504D01*
X18709587Y-12519504D02*
X18719111Y-12500456D01*
X18719111Y-12500456D02*
X18728634Y-12490933D01*
X18728634Y-12490933D02*
X18747682Y-12481409D01*
X18747682Y-12481409D02*
X18776254Y-12481409D01*
X18776254Y-12481409D02*
X18795301Y-12490933D01*
X18795301Y-12490933D02*
X18804825Y-12500456D01*
X18804825Y-12500456D02*
X18814349Y-12519504D01*
X18814349Y-12519504D02*
X18814349Y-12576647D01*
X18814349Y-12576647D02*
X18804825Y-12595694D01*
X18804825Y-12595694D02*
X18795301Y-12605218D01*
X18795301Y-12605218D02*
X18776254Y-12614742D01*
X18776254Y-12614742D02*
X18747682Y-12614742D01*
X18871492Y-12481409D02*
X18947682Y-12481409D01*
X18900063Y-12414742D02*
X18900063Y-12586171D01*
X18900063Y-12586171D02*
X18909587Y-12605218D01*
X18909587Y-12605218D02*
X18928634Y-12614742D01*
X18928634Y-12614742D02*
X18947682Y-12614742D01*
X19166730Y-12481409D02*
X19166730Y-12681409D01*
X19166730Y-12490933D02*
X19185777Y-12481409D01*
X19185777Y-12481409D02*
X19223873Y-12481409D01*
X19223873Y-12481409D02*
X19242920Y-12490933D01*
X19242920Y-12490933D02*
X19252444Y-12500456D01*
X19252444Y-12500456D02*
X19261968Y-12519504D01*
X19261968Y-12519504D02*
X19261968Y-12576647D01*
X19261968Y-12576647D02*
X19252444Y-12595694D01*
X19252444Y-12595694D02*
X19242920Y-12605218D01*
X19242920Y-12605218D02*
X19223873Y-12614742D01*
X19223873Y-12614742D02*
X19185777Y-12614742D01*
X19185777Y-12614742D02*
X19166730Y-12605218D01*
X19376254Y-12614742D02*
X19357206Y-12605218D01*
X19357206Y-12605218D02*
X19347682Y-12586171D01*
X19347682Y-12586171D02*
X19347682Y-12414742D01*
X19538158Y-12614742D02*
X19538158Y-12509980D01*
X19538158Y-12509980D02*
X19528635Y-12490933D01*
X19528635Y-12490933D02*
X19509587Y-12481409D01*
X19509587Y-12481409D02*
X19471492Y-12481409D01*
X19471492Y-12481409D02*
X19452444Y-12490933D01*
X19538158Y-12605218D02*
X19519111Y-12614742D01*
X19519111Y-12614742D02*
X19471492Y-12614742D01*
X19471492Y-12614742D02*
X19452444Y-12605218D01*
X19452444Y-12605218D02*
X19442920Y-12586171D01*
X19442920Y-12586171D02*
X19442920Y-12567123D01*
X19442920Y-12567123D02*
X19452444Y-12548075D01*
X19452444Y-12548075D02*
X19471492Y-12538552D01*
X19471492Y-12538552D02*
X19519111Y-12538552D01*
X19519111Y-12538552D02*
X19538158Y-12529028D01*
X19604825Y-12481409D02*
X19681015Y-12481409D01*
X19633396Y-12414742D02*
X19633396Y-12586171D01*
X19633396Y-12586171D02*
X19642920Y-12605218D01*
X19642920Y-12605218D02*
X19661968Y-12614742D01*
X19661968Y-12614742D02*
X19681015Y-12614742D01*
X19823873Y-12605218D02*
X19804825Y-12614742D01*
X19804825Y-12614742D02*
X19766730Y-12614742D01*
X19766730Y-12614742D02*
X19747682Y-12605218D01*
X19747682Y-12605218D02*
X19738158Y-12586171D01*
X19738158Y-12586171D02*
X19738158Y-12509980D01*
X19738158Y-12509980D02*
X19747682Y-12490933D01*
X19747682Y-12490933D02*
X19766730Y-12481409D01*
X19766730Y-12481409D02*
X19804825Y-12481409D01*
X19804825Y-12481409D02*
X19823873Y-12490933D01*
X19823873Y-12490933D02*
X19833396Y-12509980D01*
X19833396Y-12509980D02*
X19833396Y-12529028D01*
X19833396Y-12529028D02*
X19738158Y-12548075D01*
X20004825Y-12614742D02*
X20004825Y-12414742D01*
X20004825Y-12605218D02*
X19985777Y-12614742D01*
X19985777Y-12614742D02*
X19947682Y-12614742D01*
X19947682Y-12614742D02*
X19928635Y-12605218D01*
X19928635Y-12605218D02*
X19919111Y-12595694D01*
X19919111Y-12595694D02*
X19909587Y-12576647D01*
X19909587Y-12576647D02*
X19909587Y-12519504D01*
X19909587Y-12519504D02*
X19919111Y-12500456D01*
X19919111Y-12500456D02*
X19928635Y-12490933D01*
X19928635Y-12490933D02*
X19947682Y-12481409D01*
X19947682Y-12481409D02*
X19985777Y-12481409D01*
X19985777Y-12481409D02*
X20004825Y-12490933D01*
X20081016Y-12690933D02*
X20090539Y-12681409D01*
X20090539Y-12681409D02*
X20109587Y-12652837D01*
X20109587Y-12652837D02*
X20119111Y-12633790D01*
X20119111Y-12633790D02*
X20128635Y-12605218D01*
X20128635Y-12605218D02*
X20138158Y-12557599D01*
X20138158Y-12557599D02*
X20138158Y-12519504D01*
X20138158Y-12519504D02*
X20128635Y-12471885D01*
X20128635Y-12471885D02*
X20119111Y-12443314D01*
X20119111Y-12443314D02*
X20109587Y-12424266D01*
X20109587Y-12424266D02*
X20090539Y-12395694D01*
X20090539Y-12395694D02*
X20081016Y-12386171D01*
M02*
