%TF.GenerationSoftware,KiCad,Pcbnew,7.0.11*%
%TF.CreationDate,2025-01-20T01:33:53+09:00*%
%TF.ProjectId,VoltageBooster,566f6c74-6167-4654-926f-6f737465722e,rev?*%
%TF.SameCoordinates,Original*%
%TF.FileFunction,Legend,Top*%
%TF.FilePolarity,Positive*%
%FSLAX46Y46*%
G04 Gerber Fmt 4.6, Leading zero omitted, Abs format (unit mm)*
G04 Created by KiCad (PCBNEW 7.0.11) date 2025-01-20 01:33:53*
%MOMM*%
%LPD*%
G01*
G04 APERTURE LIST*
%ADD10C,0.200000*%
%ADD11C,0.150000*%
%ADD12C,0.120000*%
G04 APERTURE END LIST*
D10*
X138546816Y-117427219D02*
X138880149Y-118427219D01*
X138880149Y-118427219D02*
X139213482Y-117427219D01*
X139737292Y-117427219D02*
X139927768Y-117427219D01*
X139927768Y-117427219D02*
X140023006Y-117474838D01*
X140023006Y-117474838D02*
X140118244Y-117570076D01*
X140118244Y-117570076D02*
X140165863Y-117760552D01*
X140165863Y-117760552D02*
X140165863Y-118093885D01*
X140165863Y-118093885D02*
X140118244Y-118284361D01*
X140118244Y-118284361D02*
X140023006Y-118379600D01*
X140023006Y-118379600D02*
X139927768Y-118427219D01*
X139927768Y-118427219D02*
X139737292Y-118427219D01*
X139737292Y-118427219D02*
X139642054Y-118379600D01*
X139642054Y-118379600D02*
X139546816Y-118284361D01*
X139546816Y-118284361D02*
X139499197Y-118093885D01*
X139499197Y-118093885D02*
X139499197Y-117760552D01*
X139499197Y-117760552D02*
X139546816Y-117570076D01*
X139546816Y-117570076D02*
X139642054Y-117474838D01*
X139642054Y-117474838D02*
X139737292Y-117427219D01*
X141070625Y-118427219D02*
X140594435Y-118427219D01*
X140594435Y-118427219D02*
X140594435Y-117427219D01*
X141261102Y-117427219D02*
X141832530Y-117427219D01*
X141546816Y-118427219D02*
X141546816Y-117427219D01*
X142118245Y-118141504D02*
X142594435Y-118141504D01*
X142023007Y-118427219D02*
X142356340Y-117427219D01*
X142356340Y-117427219D02*
X142689673Y-118427219D01*
X143546816Y-117474838D02*
X143451578Y-117427219D01*
X143451578Y-117427219D02*
X143308721Y-117427219D01*
X143308721Y-117427219D02*
X143165864Y-117474838D01*
X143165864Y-117474838D02*
X143070626Y-117570076D01*
X143070626Y-117570076D02*
X143023007Y-117665314D01*
X143023007Y-117665314D02*
X142975388Y-117855790D01*
X142975388Y-117855790D02*
X142975388Y-117998647D01*
X142975388Y-117998647D02*
X143023007Y-118189123D01*
X143023007Y-118189123D02*
X143070626Y-118284361D01*
X143070626Y-118284361D02*
X143165864Y-118379600D01*
X143165864Y-118379600D02*
X143308721Y-118427219D01*
X143308721Y-118427219D02*
X143403959Y-118427219D01*
X143403959Y-118427219D02*
X143546816Y-118379600D01*
X143546816Y-118379600D02*
X143594435Y-118331980D01*
X143594435Y-118331980D02*
X143594435Y-117998647D01*
X143594435Y-117998647D02*
X143403959Y-117998647D01*
X144023007Y-117903409D02*
X144356340Y-117903409D01*
X144499197Y-118427219D02*
X144023007Y-118427219D01*
X144023007Y-118427219D02*
X144023007Y-117427219D01*
X144023007Y-117427219D02*
X144499197Y-117427219D01*
X146261102Y-118331980D02*
X146213483Y-118379600D01*
X146213483Y-118379600D02*
X146070626Y-118427219D01*
X146070626Y-118427219D02*
X145975388Y-118427219D01*
X145975388Y-118427219D02*
X145832531Y-118379600D01*
X145832531Y-118379600D02*
X145737293Y-118284361D01*
X145737293Y-118284361D02*
X145689674Y-118189123D01*
X145689674Y-118189123D02*
X145642055Y-117998647D01*
X145642055Y-117998647D02*
X145642055Y-117855790D01*
X145642055Y-117855790D02*
X145689674Y-117665314D01*
X145689674Y-117665314D02*
X145737293Y-117570076D01*
X145737293Y-117570076D02*
X145832531Y-117474838D01*
X145832531Y-117474838D02*
X145975388Y-117427219D01*
X145975388Y-117427219D02*
X146070626Y-117427219D01*
X146070626Y-117427219D02*
X146213483Y-117474838D01*
X146213483Y-117474838D02*
X146261102Y-117522457D01*
X146689674Y-118427219D02*
X146689674Y-117427219D01*
X146689674Y-117903409D02*
X147261102Y-117903409D01*
X147261102Y-118427219D02*
X147261102Y-117427219D01*
X147737293Y-117903409D02*
X148070626Y-117903409D01*
X148213483Y-118427219D02*
X147737293Y-118427219D01*
X147737293Y-118427219D02*
X147737293Y-117427219D01*
X147737293Y-117427219D02*
X148213483Y-117427219D01*
X149213483Y-118331980D02*
X149165864Y-118379600D01*
X149165864Y-118379600D02*
X149023007Y-118427219D01*
X149023007Y-118427219D02*
X148927769Y-118427219D01*
X148927769Y-118427219D02*
X148784912Y-118379600D01*
X148784912Y-118379600D02*
X148689674Y-118284361D01*
X148689674Y-118284361D02*
X148642055Y-118189123D01*
X148642055Y-118189123D02*
X148594436Y-117998647D01*
X148594436Y-117998647D02*
X148594436Y-117855790D01*
X148594436Y-117855790D02*
X148642055Y-117665314D01*
X148642055Y-117665314D02*
X148689674Y-117570076D01*
X148689674Y-117570076D02*
X148784912Y-117474838D01*
X148784912Y-117474838D02*
X148927769Y-117427219D01*
X148927769Y-117427219D02*
X149023007Y-117427219D01*
X149023007Y-117427219D02*
X149165864Y-117474838D01*
X149165864Y-117474838D02*
X149213483Y-117522457D01*
X149642055Y-118427219D02*
X149642055Y-117427219D01*
X150213483Y-118427219D02*
X149784912Y-117855790D01*
X150213483Y-117427219D02*
X149642055Y-117998647D01*
D11*
X142589160Y-116499533D02*
X143198684Y-116499533D01*
X142893922Y-116804295D02*
X142893922Y-116194771D01*
X143998683Y-116804295D02*
X143541540Y-116804295D01*
X143770112Y-116804295D02*
X143770112Y-116004295D01*
X143770112Y-116004295D02*
X143693921Y-116118580D01*
X143693921Y-116118580D02*
X143617731Y-116194771D01*
X143617731Y-116194771D02*
X143541540Y-116232866D01*
X144303445Y-116080485D02*
X144341541Y-116042390D01*
X144341541Y-116042390D02*
X144417731Y-116004295D01*
X144417731Y-116004295D02*
X144608207Y-116004295D01*
X144608207Y-116004295D02*
X144684398Y-116042390D01*
X144684398Y-116042390D02*
X144722493Y-116080485D01*
X144722493Y-116080485D02*
X144760588Y-116156676D01*
X144760588Y-116156676D02*
X144760588Y-116232866D01*
X144760588Y-116232866D02*
X144722493Y-116347152D01*
X144722493Y-116347152D02*
X144265350Y-116804295D01*
X144265350Y-116804295D02*
X144760588Y-116804295D01*
X145027255Y-116270961D02*
X145217731Y-116804295D01*
X145217731Y-116804295D02*
X145408208Y-116270961D01*
X146679160Y-116539533D02*
X147288684Y-116539533D01*
X146983922Y-116844295D02*
X146983922Y-116234771D01*
X148012493Y-116310961D02*
X148012493Y-116844295D01*
X147822017Y-116006200D02*
X147631540Y-116577628D01*
X147631540Y-116577628D02*
X148126779Y-116577628D01*
X148545826Y-116387152D02*
X148469636Y-116349057D01*
X148469636Y-116349057D02*
X148431541Y-116310961D01*
X148431541Y-116310961D02*
X148393445Y-116234771D01*
X148393445Y-116234771D02*
X148393445Y-116196676D01*
X148393445Y-116196676D02*
X148431541Y-116120485D01*
X148431541Y-116120485D02*
X148469636Y-116082390D01*
X148469636Y-116082390D02*
X148545826Y-116044295D01*
X148545826Y-116044295D02*
X148698207Y-116044295D01*
X148698207Y-116044295D02*
X148774398Y-116082390D01*
X148774398Y-116082390D02*
X148812493Y-116120485D01*
X148812493Y-116120485D02*
X148850588Y-116196676D01*
X148850588Y-116196676D02*
X148850588Y-116234771D01*
X148850588Y-116234771D02*
X148812493Y-116310961D01*
X148812493Y-116310961D02*
X148774398Y-116349057D01*
X148774398Y-116349057D02*
X148698207Y-116387152D01*
X148698207Y-116387152D02*
X148545826Y-116387152D01*
X148545826Y-116387152D02*
X148469636Y-116425247D01*
X148469636Y-116425247D02*
X148431541Y-116463342D01*
X148431541Y-116463342D02*
X148393445Y-116539533D01*
X148393445Y-116539533D02*
X148393445Y-116691914D01*
X148393445Y-116691914D02*
X148431541Y-116768104D01*
X148431541Y-116768104D02*
X148469636Y-116806200D01*
X148469636Y-116806200D02*
X148545826Y-116844295D01*
X148545826Y-116844295D02*
X148698207Y-116844295D01*
X148698207Y-116844295D02*
X148774398Y-116806200D01*
X148774398Y-116806200D02*
X148812493Y-116768104D01*
X148812493Y-116768104D02*
X148850588Y-116691914D01*
X148850588Y-116691914D02*
X148850588Y-116539533D01*
X148850588Y-116539533D02*
X148812493Y-116463342D01*
X148812493Y-116463342D02*
X148774398Y-116425247D01*
X148774398Y-116425247D02*
X148698207Y-116387152D01*
X149117255Y-116310961D02*
X149307731Y-116844295D01*
X149307731Y-116844295D02*
X149498208Y-116310961D01*
X139388207Y-116072390D02*
X139312017Y-116034295D01*
X139312017Y-116034295D02*
X139197731Y-116034295D01*
X139197731Y-116034295D02*
X139083445Y-116072390D01*
X139083445Y-116072390D02*
X139007255Y-116148580D01*
X139007255Y-116148580D02*
X138969160Y-116224771D01*
X138969160Y-116224771D02*
X138931064Y-116377152D01*
X138931064Y-116377152D02*
X138931064Y-116491438D01*
X138931064Y-116491438D02*
X138969160Y-116643819D01*
X138969160Y-116643819D02*
X139007255Y-116720009D01*
X139007255Y-116720009D02*
X139083445Y-116796200D01*
X139083445Y-116796200D02*
X139197731Y-116834295D01*
X139197731Y-116834295D02*
X139273922Y-116834295D01*
X139273922Y-116834295D02*
X139388207Y-116796200D01*
X139388207Y-116796200D02*
X139426303Y-116758104D01*
X139426303Y-116758104D02*
X139426303Y-116491438D01*
X139426303Y-116491438D02*
X139273922Y-116491438D01*
X139769160Y-116834295D02*
X139769160Y-116034295D01*
X139769160Y-116034295D02*
X140226303Y-116834295D01*
X140226303Y-116834295D02*
X140226303Y-116034295D01*
X140607255Y-116834295D02*
X140607255Y-116034295D01*
X140607255Y-116034295D02*
X140797731Y-116034295D01*
X140797731Y-116034295D02*
X140912017Y-116072390D01*
X140912017Y-116072390D02*
X140988207Y-116148580D01*
X140988207Y-116148580D02*
X141026302Y-116224771D01*
X141026302Y-116224771D02*
X141064398Y-116377152D01*
X141064398Y-116377152D02*
X141064398Y-116491438D01*
X141064398Y-116491438D02*
X141026302Y-116643819D01*
X141026302Y-116643819D02*
X140988207Y-116720009D01*
X140988207Y-116720009D02*
X140912017Y-116796200D01*
X140912017Y-116796200D02*
X140797731Y-116834295D01*
X140797731Y-116834295D02*
X140607255Y-116834295D01*
D12*
%TO.C,C1*%
X141801500Y-103258500D02*
X141801500Y-104046000D01*
X142195250Y-103652250D02*
X141407750Y-103652250D01*
X142299563Y-104286000D02*
X141014000Y-104286000D01*
X142299563Y-104286000D02*
X143364000Y-105350437D01*
X137608437Y-104286000D02*
X138894000Y-104286000D01*
X137608437Y-104286000D02*
X136544000Y-105350437D01*
X143364000Y-105350437D02*
X143364000Y-111106000D01*
X136544000Y-105350437D02*
X136544000Y-111106000D01*
X143364000Y-111106000D02*
X141014000Y-111106000D01*
X136544000Y-111106000D02*
X138894000Y-111106000D01*
%TO.C,REF\u002A\u002A*%
X142818000Y-113354000D02*
X145218000Y-113354000D01*
X142818000Y-115754000D02*
X142818000Y-113354000D01*
X145218000Y-113354000D02*
X145218000Y-115754000D01*
X145218000Y-115754000D02*
X142818000Y-115754000D01*
%TO.C,D1*%
X150380000Y-97300000D02*
X156380000Y-97300000D01*
X150380000Y-91975000D02*
X156380000Y-91975000D01*
X157396827Y-96765000D02*
X157066827Y-96525000D01*
X157396827Y-96285000D01*
X157396827Y-96765000D01*
G36*
X157396827Y-96765000D02*
G01*
X157066827Y-96525000D01*
X157396827Y-96285000D01*
X157396827Y-96765000D01*
G37*
%TO.C,L1*%
X144068000Y-98602000D02*
X156668000Y-98602000D01*
X144068000Y-101602000D02*
X144068000Y-98602000D01*
X144068000Y-111202000D02*
X144068000Y-108202000D01*
X156668000Y-98602000D02*
X156668000Y-101602000D01*
X156668000Y-108202000D02*
X156668000Y-111202000D01*
X156668000Y-111202000D02*
X144068000Y-111202000D01*
%TO.C,R2*%
X156368000Y-85964000D02*
X156368000Y-89804000D01*
X154528000Y-85964000D02*
X154528000Y-89804000D01*
%TO.C,C4*%
X140750000Y-97782000D02*
X140750000Y-96532000D01*
X140125000Y-97157000D02*
X141375000Y-97157000D01*
X139214437Y-96292000D02*
X142000000Y-96292000D01*
X139214437Y-96292000D02*
X138150000Y-95227563D01*
X147805563Y-96292000D02*
X145020000Y-96292000D01*
X147805563Y-96292000D02*
X148870000Y-95227563D01*
X138150000Y-95227563D02*
X138150000Y-85572000D01*
X148870000Y-95227563D02*
X148870000Y-85572000D01*
X138150000Y-85572000D02*
X142000000Y-85572000D01*
X148870000Y-85572000D02*
X145020000Y-85572000D01*
%TO.C,VR1*%
X168014000Y-90195000D02*
X167064000Y-90195000D01*
X157614000Y-90195000D02*
X158564000Y-90195000D01*
X168014000Y-91695000D02*
X168014000Y-90195000D01*
X157614000Y-91695000D02*
X157614000Y-90195000D01*
X167394000Y-87872500D02*
X167064000Y-87632500D01*
X167394000Y-87392500D01*
X167394000Y-87872500D01*
G36*
X167394000Y-87872500D02*
G01*
X167064000Y-87632500D01*
X167394000Y-87392500D01*
X167394000Y-87872500D01*
G37*
%TO.C,J2*%
X136458000Y-109280000D02*
X135128000Y-109280000D01*
X136458000Y-107950000D02*
X136458000Y-109280000D01*
X136458000Y-106680000D02*
X136458000Y-88840000D01*
X136458000Y-106680000D02*
X133798000Y-106680000D01*
X136458000Y-88840000D02*
X133798000Y-88840000D01*
X133798000Y-106680000D02*
X133798000Y-88840000D01*
%TO.C,C3*%
X149702000Y-89783000D02*
X149702000Y-88525000D01*
X151542000Y-89783000D02*
X151542000Y-88525000D01*
%TO.C,REF\u002A\u002A*%
X146882000Y-113354000D02*
X149282000Y-113354000D01*
X146882000Y-115754000D02*
X146882000Y-113354000D01*
X149282000Y-113354000D02*
X149282000Y-115754000D01*
X149282000Y-115754000D02*
X146882000Y-115754000D01*
%TO.C,J1*%
X168240000Y-88840000D02*
X169570000Y-88840000D01*
X168240000Y-90170000D02*
X168240000Y-88840000D01*
X168240000Y-91440000D02*
X168240000Y-109280000D01*
X168240000Y-91440000D02*
X170900000Y-91440000D01*
X168240000Y-109280000D02*
X170900000Y-109280000D01*
X170900000Y-91440000D02*
X170900000Y-109280000D01*
%TO.C,C2*%
X141320000Y-101467000D02*
X141320000Y-100209000D01*
X143160000Y-101467000D02*
X143160000Y-100209000D01*
%TO.C,R1*%
X152318000Y-89809000D02*
X152318000Y-85969000D01*
X154158000Y-89809000D02*
X154158000Y-85969000D01*
%TO.C,REF\u002A\u002A*%
X138754000Y-113354000D02*
X141154000Y-113354000D01*
X138754000Y-115754000D02*
X138754000Y-113354000D01*
X141154000Y-113354000D02*
X141154000Y-115754000D01*
X141154000Y-115754000D02*
X138754000Y-115754000D01*
%TD*%
M02*
