%TF.GenerationSoftware,KiCad,Pcbnew,7.0.11*%
%TF.CreationDate,2025-01-20T01:35:25+09:00*%
%TF.ProjectId,Kicker,4b69636b-6572-42e6-9b69-6361645f7063,rev?*%
%TF.SameCoordinates,Original*%
%TF.FileFunction,Soldermask,Top*%
%TF.FilePolarity,Negative*%
%FSLAX46Y46*%
G04 Gerber Fmt 4.6, Leading zero omitted, Abs format (unit mm)*
G04 Created by KiCad (PCBNEW 7.0.11) date 2025-01-20 01:35:25*
%MOMM*%
%LPD*%
G01*
G04 APERTURE LIST*
G04 Aperture macros list*
%AMRoundRect*
0 Rectangle with rounded corners*
0 $1 Rounding radius*
0 $2 $3 $4 $5 $6 $7 $8 $9 X,Y pos of 4 corners*
0 Add a 4 corners polygon primitive as box body*
4,1,4,$2,$3,$4,$5,$6,$7,$8,$9,$2,$3,0*
0 Add four circle primitives for the rounded corners*
1,1,$1+$1,$2,$3*
1,1,$1+$1,$4,$5*
1,1,$1+$1,$6,$7*
1,1,$1+$1,$8,$9*
0 Add four rect primitives between the rounded corners*
20,1,$1+$1,$2,$3,$4,$5,0*
20,1,$1+$1,$4,$5,$6,$7,0*
20,1,$1+$1,$6,$7,$8,$9,0*
20,1,$1+$1,$8,$9,$2,$3,0*%
%AMFreePoly0*
4,1,9,2.975000,-2.350000,1.425000,-2.350000,1.425000,-2.100000,-1.650000,-2.100000,-1.650000,2.100000,1.425000,2.100000,1.425000,2.350000,2.975000,2.350000,2.975000,-2.350000,2.975000,-2.350000,$1*%
G04 Aperture macros list end*
%ADD10C,1.400000*%
%ADD11R,3.500000X3.500000*%
%ADD12C,3.500000*%
%ADD13R,1.700000X1.700000*%
%ADD14O,1.700000X1.700000*%
%ADD15O,1.400000X1.400000*%
%ADD16FreePoly0,0.000000*%
%ADD17RoundRect,0.175000X-0.400000X0.175000X-0.400000X-0.175000X0.400000X-0.175000X0.400000X0.175000X0*%
%ADD18RoundRect,0.250000X-0.750000X0.600000X-0.750000X-0.600000X0.750000X-0.600000X0.750000X0.600000X0*%
%ADD19O,2.000000X1.700000*%
%ADD20R,1.600000X1.600000*%
%ADD21O,1.600000X1.600000*%
%ADD22RoundRect,0.249997X2.950003X2.650003X-2.950003X2.650003X-2.950003X-2.650003X2.950003X-2.650003X0*%
%ADD23RoundRect,0.250000X0.850000X0.350000X-0.850000X0.350000X-0.850000X-0.350000X0.850000X-0.350000X0*%
%ADD24C,2.100000*%
G04 APERTURE END LIST*
D10*
%TO.C,J3*%
X151345000Y-80398000D03*
X162345000Y-80398000D03*
D11*
X154345000Y-85398000D03*
D12*
X159345000Y-85398000D03*
%TD*%
D13*
%TO.C,J2*%
X182320000Y-103517416D03*
D14*
X182320000Y-100977416D03*
X182320000Y-98437416D03*
X182320000Y-95897416D03*
X182320000Y-93357416D03*
X182320000Y-90817416D03*
X182320000Y-88277416D03*
X182320000Y-85737416D03*
%TD*%
D10*
%TO.C,R1*%
X167640000Y-95808000D03*
D15*
X167640000Y-98348000D03*
%TD*%
D10*
%TO.C,R7*%
X165618000Y-99563000D03*
D15*
X165618000Y-97023000D03*
%TD*%
D16*
%TO.C,Q3*%
X155924000Y-104020000D03*
D17*
X152654000Y-105930000D03*
X152654000Y-102110000D03*
X152654000Y-103380000D03*
X152654000Y-104660000D03*
%TD*%
D18*
%TO.C,C1*%
X177292000Y-108478000D03*
D19*
X177292000Y-110978000D03*
%TD*%
D10*
%TO.C,R9*%
X151394000Y-96819000D03*
D15*
X151394000Y-99359000D03*
%TD*%
D18*
%TO.C,J6*%
X164101000Y-108478000D03*
D19*
X164101000Y-110978000D03*
%TD*%
D10*
%TO.C,R8*%
X153426000Y-96819000D03*
D15*
X153426000Y-99359000D03*
%TD*%
D20*
%TO.C,U1*%
X169936000Y-95753000D03*
D21*
X169936000Y-98293000D03*
X177556000Y-98293000D03*
X177556000Y-95753000D03*
%TD*%
D16*
%TO.C,Q2*%
X155924000Y-110866000D03*
D17*
X152654000Y-112776000D03*
X152654000Y-108956000D03*
X152654000Y-110226000D03*
X152654000Y-111506000D03*
%TD*%
D22*
%TO.C,Q1*%
X170738000Y-90421500D03*
D23*
X177038000Y-92701500D03*
X177038000Y-88141500D03*
%TD*%
D10*
%TO.C,R6*%
X151384000Y-91648000D03*
D15*
X151384000Y-94188000D03*
%TD*%
D10*
%TO.C,R3*%
X179578000Y-87884000D03*
D15*
X179578000Y-92964000D03*
%TD*%
D13*
%TO.C,J4*%
X165608000Y-83882000D03*
D14*
X165608000Y-81342000D03*
X168148000Y-83882000D03*
X168148000Y-81342000D03*
X170688000Y-83882000D03*
X170688000Y-81342000D03*
X173228000Y-83882000D03*
X173228000Y-81342000D03*
X175768000Y-83882000D03*
X175768000Y-81342000D03*
X178308000Y-83882000D03*
X178308000Y-81342000D03*
%TD*%
D24*
%TO.C,REF\u002A\u002A*%
X148110000Y-112300000D03*
%TD*%
D13*
%TO.C,J1*%
X147878000Y-103517416D03*
D14*
X147878000Y-100977416D03*
X147878000Y-98437416D03*
X147878000Y-95897416D03*
X147878000Y-93357416D03*
X147878000Y-90817416D03*
X147878000Y-88277416D03*
X147878000Y-85737416D03*
%TD*%
D24*
%TO.C,REF\u002A\u002A*%
X148100000Y-81930000D03*
%TD*%
%TO.C,REF\u002A\u002A*%
X182100000Y-81940000D03*
%TD*%
D20*
%TO.C,U3*%
X163332000Y-99563000D03*
D21*
X163332000Y-97023000D03*
X155712000Y-97023000D03*
X155712000Y-99563000D03*
%TD*%
D10*
%TO.C,R4*%
X165608000Y-94342000D03*
D15*
X165608000Y-91802000D03*
%TD*%
D18*
%TO.C,J5*%
X170705000Y-108478000D03*
D19*
X170705000Y-110978000D03*
%TD*%
D10*
%TO.C,R2*%
X179832000Y-95808000D03*
D15*
X179832000Y-98348000D03*
%TD*%
D10*
%TO.C,R5*%
X153416000Y-91648000D03*
D15*
X153416000Y-94188000D03*
%TD*%
D24*
%TO.C,REF\u002A\u002A*%
X182100000Y-112300000D03*
%TD*%
D20*
%TO.C,U2*%
X163322000Y-94234000D03*
D21*
X163322000Y-91694000D03*
X155702000Y-91694000D03*
X155702000Y-94234000D03*
%TD*%
M02*
