%TF.GenerationSoftware,KiCad,Pcbnew,7.0.11*%
%TF.CreationDate,2025-01-20T01:35:28+09:00*%
%TF.ProjectId,Kicker,4b69636b-6572-42e6-9b69-6361645f7063,rev?*%
%TF.SameCoordinates,Original*%
%TF.FileFunction,Drillmap*%
%TF.FilePolarity,Positive*%
%FSLAX45Y45*%
G04 Gerber Fmt 4.5, Leading zero omitted, Abs format (unit mm)*
G04 Created by KiCad (PCBNEW 7.0.11) date 2025-01-20 01:35:28*
%MOMM*%
%LPD*%
G01*
G04 APERTURE LIST*
%ADD10C,0.200000*%
%ADD11C,0.100000*%
%ADD12C,0.190000*%
G04 APERTURE END LIST*
D10*
X14610000Y-8192742D02*
X14610000Y-11230000D01*
X14668578Y-8051319D02*
G75*
G03*
X14610000Y-8192742I141422J-141421D01*
G01*
X18351421Y-8051320D02*
X18068579Y-7768478D01*
X14951421Y-7768478D02*
X14668579Y-8051320D01*
X14610000Y-11230000D02*
G75*
G03*
X14810000Y-11430000I200000J0D01*
G01*
X18320000Y-11230000D02*
G75*
G03*
X18100000Y-11230000I-110000J0D01*
G01*
X18100000Y-11230000D02*
G75*
G03*
X18320000Y-11230000I110000J0D01*
G01*
X18068580Y-7768476D02*
G75*
G03*
X17927157Y-7709899I-141420J-141424D01*
G01*
X14810000Y-11430000D02*
X18210000Y-11430000D01*
X18210000Y-11430000D02*
G75*
G03*
X18410000Y-11230000I0J200000D01*
G01*
X15092843Y-7709901D02*
G75*
G03*
X14951421Y-7768478I-3J-199999D01*
G01*
X18410000Y-11230000D02*
X18410000Y-8192742D01*
X14920000Y-11230000D02*
G75*
G03*
X14700000Y-11230000I-110000J0D01*
G01*
X14700000Y-11230000D02*
G75*
G03*
X14920000Y-11230000I110000J0D01*
G01*
X17927157Y-7709899D02*
X15092843Y-7709899D01*
X18409999Y-8192742D02*
G75*
G03*
X18351421Y-8051320I-199999J2D01*
G01*
X14920000Y-8192742D02*
G75*
G03*
X14700000Y-8192742I-110000J0D01*
G01*
X14700000Y-8192742D02*
G75*
G03*
X14920000Y-8192742I110000J0D01*
G01*
X18320000Y-8192742D02*
G75*
G03*
X18100000Y-8192742I-110000J0D01*
G01*
X18100000Y-8192742D02*
G75*
G03*
X18320000Y-8192742I110000J0D01*
G01*
D11*
X14732000Y-10875000D02*
X14772000Y-10915000D01*
X14772000Y-10875000D02*
X14732000Y-10915000D01*
X14734000Y-10562000D02*
X14774000Y-10602000D01*
X14774000Y-10562000D02*
X14734000Y-10602000D01*
X14978000Y-11342000D02*
X15018000Y-11382000D01*
X15018000Y-11342000D02*
X14978000Y-11382000D01*
X14980000Y-9267000D02*
X15020000Y-9307000D01*
X15020000Y-9267000D02*
X14980000Y-9307000D01*
X15043000Y-7802000D02*
X15083000Y-7842000D01*
X15083000Y-7802000D02*
X15043000Y-7842000D01*
X15103000Y-11004000D02*
X15143000Y-11044000D01*
X15143000Y-11004000D02*
X15103000Y-11044000D01*
X15109000Y-8255000D02*
X15149000Y-8295000D01*
X15149000Y-8255000D02*
X15109000Y-8295000D01*
X15109000Y-10690000D02*
X15149000Y-10730000D01*
X15149000Y-10690000D02*
X15109000Y-10730000D01*
X15245400Y-10063800D02*
X15285400Y-10103800D01*
X15285400Y-10063800D02*
X15245400Y-10103800D01*
X15358000Y-11361000D02*
X15398000Y-11401000D01*
X15398000Y-11361000D02*
X15358000Y-11401000D01*
X15400000Y-10723000D02*
X15440000Y-10763000D01*
X15440000Y-10723000D02*
X15400000Y-10763000D01*
X15423200Y-10063800D02*
X15463200Y-10103800D01*
X15463200Y-10063800D02*
X15423200Y-10103800D01*
X15600000Y-11370000D02*
X15640000Y-11410000D01*
X15640000Y-11370000D02*
X15600000Y-11410000D01*
X15658000Y-7916000D02*
X15698000Y-7956000D01*
X15698000Y-7916000D02*
X15658000Y-7956000D01*
X15686000Y-10741000D02*
X15726000Y-10781000D01*
X15726000Y-10741000D02*
X15686000Y-10781000D01*
X15689000Y-8338000D02*
X15729000Y-8378000D01*
X15729000Y-8338000D02*
X15689000Y-8378000D01*
X15697000Y-10047000D02*
X15737000Y-10087000D01*
X15737000Y-10047000D02*
X15697000Y-10087000D01*
X15925000Y-9801000D02*
X15965000Y-9841000D01*
X15965000Y-9801000D02*
X15925000Y-9841000D01*
X15927000Y-9359000D02*
X15967000Y-9399000D01*
X15967000Y-9359000D02*
X15927000Y-9399000D01*
X15932000Y-8897000D02*
X15972000Y-8937000D01*
X15972000Y-8897000D02*
X15932000Y-8937000D01*
X15976000Y-10205000D02*
X16016000Y-10245000D01*
X16016000Y-10205000D02*
X15976000Y-10245000D01*
X16222000Y-8723000D02*
X16262000Y-8763000D01*
X16262000Y-8723000D02*
X16222000Y-8763000D01*
X16224000Y-8187000D02*
X16264000Y-8227000D01*
X16264000Y-8187000D02*
X16224000Y-8227000D01*
X16269000Y-8977000D02*
X16309000Y-9017000D01*
X16309000Y-8977000D02*
X16269000Y-9017000D01*
X16287000Y-7790000D02*
X16327000Y-7830000D01*
X16327000Y-7790000D02*
X16287000Y-7830000D01*
X16297000Y-10289000D02*
X16337000Y-10329000D01*
X16337000Y-10289000D02*
X16297000Y-10329000D01*
X16342000Y-10572000D02*
X16382000Y-10612000D01*
X16382000Y-10572000D02*
X16342000Y-10612000D01*
X16630000Y-10287000D02*
X16670000Y-10327000D01*
X16670000Y-10287000D02*
X16630000Y-10327000D01*
X16638000Y-9023000D02*
X16678000Y-9063000D01*
X16678000Y-9023000D02*
X16638000Y-9063000D01*
X16639000Y-9294000D02*
X16679000Y-9334000D01*
X16679000Y-9294000D02*
X16639000Y-9334000D01*
X16704000Y-9983000D02*
X16744000Y-10023000D01*
X16744000Y-9983000D02*
X16704000Y-10023000D01*
X16819000Y-9409000D02*
X16859000Y-9449000D01*
X16859000Y-9409000D02*
X16819000Y-9449000D01*
X16954000Y-9982000D02*
X16994000Y-10022000D01*
X16994000Y-9982000D02*
X16954000Y-10022000D01*
X16998000Y-7796000D02*
X17038000Y-7836000D01*
X17038000Y-7796000D02*
X16998000Y-7836000D01*
X17255000Y-11351000D02*
X17295000Y-11391000D01*
X17295000Y-11351000D02*
X17255000Y-11391000D01*
X17257000Y-11036000D02*
X17297000Y-11076000D01*
X17297000Y-11036000D02*
X17257000Y-11076000D01*
X17584000Y-8951000D02*
X17624000Y-8991000D01*
X17624000Y-8951000D02*
X17584000Y-8991000D01*
X17655000Y-10445000D02*
X17695000Y-10485000D01*
X17695000Y-10445000D02*
X17655000Y-10485000D01*
X17830000Y-7799000D02*
X17870000Y-7839000D01*
X17870000Y-7799000D02*
X17830000Y-7839000D01*
X17831000Y-9034000D02*
X17871000Y-9074000D01*
X17871000Y-9034000D02*
X17831000Y-9074000D01*
X17832000Y-8620000D02*
X17872000Y-8660000D01*
X17872000Y-8620000D02*
X17832000Y-8660000D01*
X17898000Y-11346000D02*
X17938000Y-11386000D01*
X17938000Y-11346000D02*
X17898000Y-11386000D01*
X18005000Y-10441000D02*
X18045000Y-10481000D01*
X18045000Y-10441000D02*
X18005000Y-10481000D01*
X18011000Y-8397000D02*
X18051000Y-8437000D01*
X18051000Y-8397000D02*
X18011000Y-8437000D01*
X18069000Y-8933000D02*
X18109000Y-8973000D01*
X18109000Y-8933000D02*
X18069000Y-8973000D01*
X18078000Y-8677000D02*
X18118000Y-8717000D01*
X18118000Y-8677000D02*
X18078000Y-8717000D01*
X18083000Y-9191000D02*
X18123000Y-9231000D01*
X18123000Y-9191000D02*
X18083000Y-9231000D01*
X18179000Y-10595000D02*
X18219000Y-10635000D01*
X18219000Y-10595000D02*
X18179000Y-10635000D01*
X18179000Y-10912000D02*
X18219000Y-10952000D01*
X18219000Y-10912000D02*
X18179000Y-10952000D01*
X15173400Y-9164800D02*
G75*
G03*
X15103400Y-9164800I-35000J0D01*
G01*
X15103400Y-9164800D02*
G75*
G03*
X15173400Y-9164800I35000J0D01*
G01*
X15173400Y-9418800D02*
G75*
G03*
X15103400Y-9418800I-35000J0D01*
G01*
X15103400Y-9418800D02*
G75*
G03*
X15173400Y-9418800I35000J0D01*
G01*
X15174400Y-9681900D02*
G75*
G03*
X15104400Y-9681900I-35000J0D01*
G01*
X15104400Y-9681900D02*
G75*
G03*
X15174400Y-9681900I35000J0D01*
G01*
X15174400Y-9935900D02*
G75*
G03*
X15104400Y-9935900I-35000J0D01*
G01*
X15104400Y-9935900D02*
G75*
G03*
X15174400Y-9935900I35000J0D01*
G01*
X15376600Y-9164800D02*
G75*
G03*
X15306600Y-9164800I-35000J0D01*
G01*
X15306600Y-9164800D02*
G75*
G03*
X15376600Y-9164800I35000J0D01*
G01*
X15376600Y-9418800D02*
G75*
G03*
X15306600Y-9418800I-35000J0D01*
G01*
X15306600Y-9418800D02*
G75*
G03*
X15376600Y-9418800I35000J0D01*
G01*
X15377600Y-9681900D02*
G75*
G03*
X15307600Y-9681900I-35000J0D01*
G01*
X15307600Y-9681900D02*
G75*
G03*
X15377600Y-9681900I35000J0D01*
G01*
X15377600Y-9935900D02*
G75*
G03*
X15307600Y-9935900I-35000J0D01*
G01*
X15307600Y-9935900D02*
G75*
G03*
X15377600Y-9935900I35000J0D01*
G01*
X16595800Y-9180200D02*
G75*
G03*
X16525800Y-9180200I-35000J0D01*
G01*
X16525800Y-9180200D02*
G75*
G03*
X16595800Y-9180200I35000J0D01*
G01*
X16595800Y-9434200D02*
G75*
G03*
X16525800Y-9434200I-35000J0D01*
G01*
X16525800Y-9434200D02*
G75*
G03*
X16595800Y-9434200I35000J0D01*
G01*
X16596800Y-9702300D02*
G75*
G03*
X16526800Y-9702300I-35000J0D01*
G01*
X16526800Y-9702300D02*
G75*
G03*
X16596800Y-9702300I35000J0D01*
G01*
X16596800Y-9956300D02*
G75*
G03*
X16526800Y-9956300I-35000J0D01*
G01*
X16526800Y-9956300D02*
G75*
G03*
X16596800Y-9956300I35000J0D01*
G01*
X16799000Y-9580800D02*
G75*
G03*
X16729000Y-9580800I-35000J0D01*
G01*
X16729000Y-9580800D02*
G75*
G03*
X16799000Y-9580800I35000J0D01*
G01*
X16799000Y-9834800D02*
G75*
G03*
X16729000Y-9834800I-35000J0D01*
G01*
X16729000Y-9834800D02*
G75*
G03*
X16799000Y-9834800I35000J0D01*
G01*
X17992800Y-8788400D02*
G75*
G03*
X17922800Y-8788400I-35000J0D01*
G01*
X17922800Y-8788400D02*
G75*
G03*
X17992800Y-8788400I35000J0D01*
G01*
X17992800Y-9296400D02*
G75*
G03*
X17922800Y-9296400I-35000J0D01*
G01*
X17922800Y-9296400D02*
G75*
G03*
X17992800Y-9296400I35000J0D01*
G01*
X18018200Y-9580800D02*
G75*
G03*
X17948200Y-9580800I-35000J0D01*
G01*
X17948200Y-9580800D02*
G75*
G03*
X18018200Y-9580800I35000J0D01*
G01*
X18018200Y-9834800D02*
G75*
G03*
X17948200Y-9834800I-35000J0D01*
G01*
X17948200Y-9834800D02*
G75*
G03*
X18018200Y-9834800I35000J0D01*
G01*
X15570200Y-9129400D02*
X15570200Y-9209400D01*
X15530200Y-9169400D02*
X15610200Y-9169400D01*
X15570200Y-9383400D02*
X15570200Y-9463400D01*
X15530200Y-9423400D02*
X15610200Y-9423400D01*
X15571200Y-9662300D02*
X15571200Y-9742300D01*
X15531200Y-9702300D02*
X15611200Y-9702300D01*
X15571200Y-9916300D02*
X15571200Y-9996300D01*
X15531200Y-9956300D02*
X15611200Y-9956300D01*
X16332200Y-9129400D02*
X16332200Y-9209400D01*
X16292200Y-9169400D02*
X16372200Y-9169400D01*
X16332200Y-9383400D02*
X16332200Y-9463400D01*
X16292200Y-9423400D02*
X16372200Y-9423400D01*
X16333200Y-9662300D02*
X16333200Y-9742300D01*
X16293200Y-9702300D02*
X16373200Y-9702300D01*
X16333200Y-9916300D02*
X16333200Y-9996300D01*
X16293200Y-9956300D02*
X16373200Y-9956300D01*
X16993600Y-9535300D02*
X16993600Y-9615300D01*
X16953600Y-9575300D02*
X17033600Y-9575300D01*
X16993600Y-9789300D02*
X16993600Y-9869300D01*
X16953600Y-9829300D02*
X17033600Y-9829300D01*
X17755600Y-9535300D02*
X17755600Y-9615300D01*
X17715600Y-9575300D02*
X17795600Y-9575300D01*
X17755600Y-9789300D02*
X17755600Y-9869300D01*
X17715600Y-9829300D02*
X17795600Y-9829300D01*
X14823156Y-8609097D02*
X14823156Y-8538386D01*
X14752444Y-8538386D01*
X14752444Y-8609097D01*
X14823156Y-8609097D01*
X14823156Y-8863097D02*
X14823156Y-8792386D01*
X14752444Y-8792386D01*
X14752444Y-8863097D01*
X14823156Y-8863097D01*
X14823156Y-9117097D02*
X14823156Y-9046386D01*
X14752444Y-9046386D01*
X14752444Y-9117097D01*
X14823156Y-9117097D01*
X14823156Y-9371097D02*
X14823156Y-9300386D01*
X14752444Y-9300386D01*
X14752444Y-9371097D01*
X14823156Y-9371097D01*
X14823156Y-9625097D02*
X14823156Y-9554386D01*
X14752444Y-9554386D01*
X14752444Y-9625097D01*
X14823156Y-9625097D01*
X14823156Y-9879097D02*
X14823156Y-9808386D01*
X14752444Y-9808386D01*
X14752444Y-9879097D01*
X14823156Y-9879097D01*
X14823156Y-10133097D02*
X14823156Y-10062386D01*
X14752444Y-10062386D01*
X14752444Y-10133097D01*
X14823156Y-10133097D01*
X14823156Y-10387097D02*
X14823156Y-10316386D01*
X14752444Y-10316386D01*
X14752444Y-10387097D01*
X14823156Y-10387097D01*
X15169856Y-8075156D02*
X15169856Y-8004444D01*
X15099144Y-8004444D01*
X15099144Y-8075156D01*
X15169856Y-8075156D01*
X16269856Y-8075156D02*
X16269856Y-8004444D01*
X16199144Y-8004444D01*
X16199144Y-8075156D01*
X16269856Y-8075156D01*
X16445456Y-10883156D02*
X16445456Y-10812444D01*
X16374744Y-10812444D01*
X16374744Y-10883156D01*
X16445456Y-10883156D01*
X16445456Y-11133156D02*
X16445456Y-11062444D01*
X16374744Y-11062444D01*
X16374744Y-11133156D01*
X16445456Y-11133156D01*
X16596156Y-8169556D02*
X16596156Y-8098844D01*
X16525444Y-8098844D01*
X16525444Y-8169556D01*
X16596156Y-8169556D01*
X16596156Y-8423556D02*
X16596156Y-8352844D01*
X16525444Y-8352844D01*
X16525444Y-8423556D01*
X16596156Y-8423556D01*
X16850156Y-8169556D02*
X16850156Y-8098844D01*
X16779444Y-8098844D01*
X16779444Y-8169556D01*
X16850156Y-8169556D01*
X16850156Y-8423556D02*
X16850156Y-8352844D01*
X16779444Y-8352844D01*
X16779444Y-8423556D01*
X16850156Y-8423556D01*
X17104156Y-8169556D02*
X17104156Y-8098844D01*
X17033444Y-8098844D01*
X17033444Y-8169556D01*
X17104156Y-8169556D01*
X17104156Y-8423556D02*
X17104156Y-8352844D01*
X17033444Y-8352844D01*
X17033444Y-8423556D01*
X17104156Y-8423556D01*
X17105856Y-10883156D02*
X17105856Y-10812444D01*
X17035144Y-10812444D01*
X17035144Y-10883156D01*
X17105856Y-10883156D01*
X17105856Y-11133156D02*
X17105856Y-11062444D01*
X17035144Y-11062444D01*
X17035144Y-11133156D01*
X17105856Y-11133156D01*
X17358156Y-8169556D02*
X17358156Y-8098844D01*
X17287444Y-8098844D01*
X17287444Y-8169556D01*
X17358156Y-8169556D01*
X17358156Y-8423556D02*
X17358156Y-8352844D01*
X17287444Y-8352844D01*
X17287444Y-8423556D01*
X17358156Y-8423556D01*
X17612156Y-8169556D02*
X17612156Y-8098844D01*
X17541444Y-8098844D01*
X17541444Y-8169556D01*
X17612156Y-8169556D01*
X17612156Y-8423556D02*
X17612156Y-8352844D01*
X17541444Y-8352844D01*
X17541444Y-8423556D01*
X17612156Y-8423556D01*
X17764556Y-10883156D02*
X17764556Y-10812444D01*
X17693844Y-10812444D01*
X17693844Y-10883156D01*
X17764556Y-10883156D01*
X17764556Y-11133156D02*
X17764556Y-11062444D01*
X17693844Y-11062444D01*
X17693844Y-11133156D01*
X17764556Y-11133156D01*
X17866156Y-8169556D02*
X17866156Y-8098844D01*
X17795444Y-8098844D01*
X17795444Y-8169556D01*
X17866156Y-8169556D01*
X17866156Y-8423556D02*
X17866156Y-8352844D01*
X17795444Y-8352844D01*
X17795444Y-8423556D01*
X17866156Y-8423556D01*
X18267356Y-8609097D02*
X18267356Y-8538386D01*
X18196644Y-8538386D01*
X18196644Y-8609097D01*
X18267356Y-8609097D01*
X18267356Y-8863097D02*
X18267356Y-8792386D01*
X18196644Y-8792386D01*
X18196644Y-8863097D01*
X18267356Y-8863097D01*
X18267356Y-9117097D02*
X18267356Y-9046386D01*
X18196644Y-9046386D01*
X18196644Y-9117097D01*
X18267356Y-9117097D01*
X18267356Y-9371097D02*
X18267356Y-9300386D01*
X18196644Y-9300386D01*
X18196644Y-9371097D01*
X18267356Y-9371097D01*
X18267356Y-9625097D02*
X18267356Y-9554386D01*
X18196644Y-9554386D01*
X18196644Y-9625097D01*
X18267356Y-9625097D01*
X18267356Y-9879097D02*
X18267356Y-9808386D01*
X18196644Y-9808386D01*
X18196644Y-9879097D01*
X18267356Y-9879097D01*
X18267356Y-10133097D02*
X18267356Y-10062386D01*
X18196644Y-10062386D01*
X18196644Y-10133097D01*
X18267356Y-10133097D01*
X18267356Y-10387097D02*
X18267356Y-10316386D01*
X18196644Y-10316386D01*
X18196644Y-10387097D01*
X18267356Y-10387097D01*
D12*
X15434500Y-8634800D02*
X15529500Y-8539800D01*
X15434500Y-8444800D01*
X15339500Y-8539800D01*
X15434500Y-8634800D01*
X15934500Y-8634800D02*
X16029500Y-8539800D01*
X15934500Y-8444800D01*
X15839500Y-8539800D01*
X15934500Y-8634800D01*
D10*
X14860777Y-11751484D02*
X14860777Y-11551484D01*
X14860777Y-11551484D02*
X14908396Y-11551484D01*
X14908396Y-11551484D02*
X14936967Y-11561008D01*
X14936967Y-11561008D02*
X14956015Y-11580055D01*
X14956015Y-11580055D02*
X14965539Y-11599103D01*
X14965539Y-11599103D02*
X14975062Y-11637198D01*
X14975062Y-11637198D02*
X14975062Y-11665769D01*
X14975062Y-11665769D02*
X14965539Y-11703865D01*
X14965539Y-11703865D02*
X14956015Y-11722912D01*
X14956015Y-11722912D02*
X14936967Y-11741960D01*
X14936967Y-11741960D02*
X14908396Y-11751484D01*
X14908396Y-11751484D02*
X14860777Y-11751484D01*
X15060777Y-11751484D02*
X15060777Y-11618150D01*
X15060777Y-11656246D02*
X15070301Y-11637198D01*
X15070301Y-11637198D02*
X15079824Y-11627674D01*
X15079824Y-11627674D02*
X15098872Y-11618150D01*
X15098872Y-11618150D02*
X15117920Y-11618150D01*
X15184586Y-11751484D02*
X15184586Y-11618150D01*
X15184586Y-11551484D02*
X15175062Y-11561008D01*
X15175062Y-11561008D02*
X15184586Y-11570531D01*
X15184586Y-11570531D02*
X15194110Y-11561008D01*
X15194110Y-11561008D02*
X15184586Y-11551484D01*
X15184586Y-11551484D02*
X15184586Y-11570531D01*
X15308396Y-11751484D02*
X15289348Y-11741960D01*
X15289348Y-11741960D02*
X15279824Y-11722912D01*
X15279824Y-11722912D02*
X15279824Y-11551484D01*
X15413158Y-11751484D02*
X15394110Y-11741960D01*
X15394110Y-11741960D02*
X15384586Y-11722912D01*
X15384586Y-11722912D02*
X15384586Y-11551484D01*
X15641729Y-11751484D02*
X15641729Y-11551484D01*
X15641729Y-11551484D02*
X15708396Y-11694341D01*
X15708396Y-11694341D02*
X15775062Y-11551484D01*
X15775062Y-11551484D02*
X15775062Y-11751484D01*
X15956015Y-11751484D02*
X15956015Y-11646722D01*
X15956015Y-11646722D02*
X15946491Y-11627674D01*
X15946491Y-11627674D02*
X15927443Y-11618150D01*
X15927443Y-11618150D02*
X15889348Y-11618150D01*
X15889348Y-11618150D02*
X15870301Y-11627674D01*
X15956015Y-11741960D02*
X15936967Y-11751484D01*
X15936967Y-11751484D02*
X15889348Y-11751484D01*
X15889348Y-11751484D02*
X15870301Y-11741960D01*
X15870301Y-11741960D02*
X15860777Y-11722912D01*
X15860777Y-11722912D02*
X15860777Y-11703865D01*
X15860777Y-11703865D02*
X15870301Y-11684817D01*
X15870301Y-11684817D02*
X15889348Y-11675293D01*
X15889348Y-11675293D02*
X15936967Y-11675293D01*
X15936967Y-11675293D02*
X15956015Y-11665769D01*
X16051253Y-11618150D02*
X16051253Y-11818150D01*
X16051253Y-11627674D02*
X16070301Y-11618150D01*
X16070301Y-11618150D02*
X16108396Y-11618150D01*
X16108396Y-11618150D02*
X16127443Y-11627674D01*
X16127443Y-11627674D02*
X16136967Y-11637198D01*
X16136967Y-11637198D02*
X16146491Y-11656246D01*
X16146491Y-11656246D02*
X16146491Y-11713388D01*
X16146491Y-11713388D02*
X16136967Y-11732436D01*
X16136967Y-11732436D02*
X16127443Y-11741960D01*
X16127443Y-11741960D02*
X16108396Y-11751484D01*
X16108396Y-11751484D02*
X16070301Y-11751484D01*
X16070301Y-11751484D02*
X16051253Y-11741960D01*
X16232205Y-11732436D02*
X16241729Y-11741960D01*
X16241729Y-11741960D02*
X16232205Y-11751484D01*
X16232205Y-11751484D02*
X16222682Y-11741960D01*
X16222682Y-11741960D02*
X16232205Y-11732436D01*
X16232205Y-11732436D02*
X16232205Y-11751484D01*
X16232205Y-11627674D02*
X16241729Y-11637198D01*
X16241729Y-11637198D02*
X16232205Y-11646722D01*
X16232205Y-11646722D02*
X16222682Y-11637198D01*
X16222682Y-11637198D02*
X16232205Y-11627674D01*
X16232205Y-11627674D02*
X16232205Y-11646722D01*
D11*
X14560000Y-12060000D02*
X14600000Y-12100000D01*
X14600000Y-12060000D02*
X14560000Y-12100000D01*
D10*
X14898872Y-11971484D02*
X14917920Y-11971484D01*
X14917920Y-11971484D02*
X14936967Y-11981008D01*
X14936967Y-11981008D02*
X14946491Y-11990531D01*
X14946491Y-11990531D02*
X14956015Y-12009579D01*
X14956015Y-12009579D02*
X14965539Y-12047674D01*
X14965539Y-12047674D02*
X14965539Y-12095293D01*
X14965539Y-12095293D02*
X14956015Y-12133388D01*
X14956015Y-12133388D02*
X14946491Y-12152436D01*
X14946491Y-12152436D02*
X14936967Y-12161960D01*
X14936967Y-12161960D02*
X14917920Y-12171484D01*
X14917920Y-12171484D02*
X14898872Y-12171484D01*
X14898872Y-12171484D02*
X14879824Y-12161960D01*
X14879824Y-12161960D02*
X14870301Y-12152436D01*
X14870301Y-12152436D02*
X14860777Y-12133388D01*
X14860777Y-12133388D02*
X14851253Y-12095293D01*
X14851253Y-12095293D02*
X14851253Y-12047674D01*
X14851253Y-12047674D02*
X14860777Y-12009579D01*
X14860777Y-12009579D02*
X14870301Y-11990531D01*
X14870301Y-11990531D02*
X14879824Y-11981008D01*
X14879824Y-11981008D02*
X14898872Y-11971484D01*
X15051253Y-12152436D02*
X15060777Y-12161960D01*
X15060777Y-12161960D02*
X15051253Y-12171484D01*
X15051253Y-12171484D02*
X15041729Y-12161960D01*
X15041729Y-12161960D02*
X15051253Y-12152436D01*
X15051253Y-12152436D02*
X15051253Y-12171484D01*
X15232205Y-12038150D02*
X15232205Y-12171484D01*
X15184586Y-11961960D02*
X15136967Y-12104817D01*
X15136967Y-12104817D02*
X15260777Y-12104817D01*
X15375062Y-11971484D02*
X15394110Y-11971484D01*
X15394110Y-11971484D02*
X15413158Y-11981008D01*
X15413158Y-11981008D02*
X15422682Y-11990531D01*
X15422682Y-11990531D02*
X15432205Y-12009579D01*
X15432205Y-12009579D02*
X15441729Y-12047674D01*
X15441729Y-12047674D02*
X15441729Y-12095293D01*
X15441729Y-12095293D02*
X15432205Y-12133388D01*
X15432205Y-12133388D02*
X15422682Y-12152436D01*
X15422682Y-12152436D02*
X15413158Y-12161960D01*
X15413158Y-12161960D02*
X15394110Y-12171484D01*
X15394110Y-12171484D02*
X15375062Y-12171484D01*
X15375062Y-12171484D02*
X15356015Y-12161960D01*
X15356015Y-12161960D02*
X15346491Y-12152436D01*
X15346491Y-12152436D02*
X15336967Y-12133388D01*
X15336967Y-12133388D02*
X15327443Y-12095293D01*
X15327443Y-12095293D02*
X15327443Y-12047674D01*
X15327443Y-12047674D02*
X15336967Y-12009579D01*
X15336967Y-12009579D02*
X15346491Y-11990531D01*
X15346491Y-11990531D02*
X15356015Y-11981008D01*
X15356015Y-11981008D02*
X15375062Y-11971484D01*
X15565539Y-11971484D02*
X15584586Y-11971484D01*
X15584586Y-11971484D02*
X15603634Y-11981008D01*
X15603634Y-11981008D02*
X15613158Y-11990531D01*
X15613158Y-11990531D02*
X15622682Y-12009579D01*
X15622682Y-12009579D02*
X15632205Y-12047674D01*
X15632205Y-12047674D02*
X15632205Y-12095293D01*
X15632205Y-12095293D02*
X15622682Y-12133388D01*
X15622682Y-12133388D02*
X15613158Y-12152436D01*
X15613158Y-12152436D02*
X15603634Y-12161960D01*
X15603634Y-12161960D02*
X15584586Y-12171484D01*
X15584586Y-12171484D02*
X15565539Y-12171484D01*
X15565539Y-12171484D02*
X15546491Y-12161960D01*
X15546491Y-12161960D02*
X15536967Y-12152436D01*
X15536967Y-12152436D02*
X15527443Y-12133388D01*
X15527443Y-12133388D02*
X15517920Y-12095293D01*
X15517920Y-12095293D02*
X15517920Y-12047674D01*
X15517920Y-12047674D02*
X15527443Y-12009579D01*
X15527443Y-12009579D02*
X15536967Y-11990531D01*
X15536967Y-11990531D02*
X15546491Y-11981008D01*
X15546491Y-11981008D02*
X15565539Y-11971484D01*
X15717920Y-12171484D02*
X15717920Y-12038150D01*
X15717920Y-12057198D02*
X15727443Y-12047674D01*
X15727443Y-12047674D02*
X15746491Y-12038150D01*
X15746491Y-12038150D02*
X15775063Y-12038150D01*
X15775063Y-12038150D02*
X15794110Y-12047674D01*
X15794110Y-12047674D02*
X15803634Y-12066722D01*
X15803634Y-12066722D02*
X15803634Y-12171484D01*
X15803634Y-12066722D02*
X15813158Y-12047674D01*
X15813158Y-12047674D02*
X15832205Y-12038150D01*
X15832205Y-12038150D02*
X15860777Y-12038150D01*
X15860777Y-12038150D02*
X15879824Y-12047674D01*
X15879824Y-12047674D02*
X15889348Y-12066722D01*
X15889348Y-12066722D02*
X15889348Y-12171484D01*
X15984586Y-12171484D02*
X15984586Y-12038150D01*
X15984586Y-12057198D02*
X15994110Y-12047674D01*
X15994110Y-12047674D02*
X16013158Y-12038150D01*
X16013158Y-12038150D02*
X16041729Y-12038150D01*
X16041729Y-12038150D02*
X16060777Y-12047674D01*
X16060777Y-12047674D02*
X16070301Y-12066722D01*
X16070301Y-12066722D02*
X16070301Y-12171484D01*
X16070301Y-12066722D02*
X16079824Y-12047674D01*
X16079824Y-12047674D02*
X16098872Y-12038150D01*
X16098872Y-12038150D02*
X16127443Y-12038150D01*
X16127443Y-12038150D02*
X16146491Y-12047674D01*
X16146491Y-12047674D02*
X16156015Y-12066722D01*
X16156015Y-12066722D02*
X16156015Y-12171484D01*
X16546491Y-11961960D02*
X16375063Y-12219103D01*
X16803634Y-11971484D02*
X16822682Y-11971484D01*
X16822682Y-11971484D02*
X16841729Y-11981008D01*
X16841729Y-11981008D02*
X16851253Y-11990531D01*
X16851253Y-11990531D02*
X16860777Y-12009579D01*
X16860777Y-12009579D02*
X16870301Y-12047674D01*
X16870301Y-12047674D02*
X16870301Y-12095293D01*
X16870301Y-12095293D02*
X16860777Y-12133388D01*
X16860777Y-12133388D02*
X16851253Y-12152436D01*
X16851253Y-12152436D02*
X16841729Y-12161960D01*
X16841729Y-12161960D02*
X16822682Y-12171484D01*
X16822682Y-12171484D02*
X16803634Y-12171484D01*
X16803634Y-12171484D02*
X16784587Y-12161960D01*
X16784587Y-12161960D02*
X16775063Y-12152436D01*
X16775063Y-12152436D02*
X16765539Y-12133388D01*
X16765539Y-12133388D02*
X16756015Y-12095293D01*
X16756015Y-12095293D02*
X16756015Y-12047674D01*
X16756015Y-12047674D02*
X16765539Y-12009579D01*
X16765539Y-12009579D02*
X16775063Y-11990531D01*
X16775063Y-11990531D02*
X16784587Y-11981008D01*
X16784587Y-11981008D02*
X16803634Y-11971484D01*
X16956015Y-12152436D02*
X16965539Y-12161960D01*
X16965539Y-12161960D02*
X16956015Y-12171484D01*
X16956015Y-12171484D02*
X16946491Y-12161960D01*
X16946491Y-12161960D02*
X16956015Y-12152436D01*
X16956015Y-12152436D02*
X16956015Y-12171484D01*
X17089348Y-11971484D02*
X17108396Y-11971484D01*
X17108396Y-11971484D02*
X17127444Y-11981008D01*
X17127444Y-11981008D02*
X17136968Y-11990531D01*
X17136968Y-11990531D02*
X17146491Y-12009579D01*
X17146491Y-12009579D02*
X17156015Y-12047674D01*
X17156015Y-12047674D02*
X17156015Y-12095293D01*
X17156015Y-12095293D02*
X17146491Y-12133388D01*
X17146491Y-12133388D02*
X17136968Y-12152436D01*
X17136968Y-12152436D02*
X17127444Y-12161960D01*
X17127444Y-12161960D02*
X17108396Y-12171484D01*
X17108396Y-12171484D02*
X17089348Y-12171484D01*
X17089348Y-12171484D02*
X17070301Y-12161960D01*
X17070301Y-12161960D02*
X17060777Y-12152436D01*
X17060777Y-12152436D02*
X17051253Y-12133388D01*
X17051253Y-12133388D02*
X17041729Y-12095293D01*
X17041729Y-12095293D02*
X17041729Y-12047674D01*
X17041729Y-12047674D02*
X17051253Y-12009579D01*
X17051253Y-12009579D02*
X17060777Y-11990531D01*
X17060777Y-11990531D02*
X17070301Y-11981008D01*
X17070301Y-11981008D02*
X17089348Y-11971484D01*
X17346491Y-12171484D02*
X17232206Y-12171484D01*
X17289348Y-12171484D02*
X17289348Y-11971484D01*
X17289348Y-11971484D02*
X17270301Y-12000055D01*
X17270301Y-12000055D02*
X17251253Y-12019103D01*
X17251253Y-12019103D02*
X17232206Y-12028627D01*
X17527444Y-11971484D02*
X17432206Y-11971484D01*
X17432206Y-11971484D02*
X17422682Y-12066722D01*
X17422682Y-12066722D02*
X17432206Y-12057198D01*
X17432206Y-12057198D02*
X17451253Y-12047674D01*
X17451253Y-12047674D02*
X17498872Y-12047674D01*
X17498872Y-12047674D02*
X17517920Y-12057198D01*
X17517920Y-12057198D02*
X17527444Y-12066722D01*
X17527444Y-12066722D02*
X17536968Y-12085769D01*
X17536968Y-12085769D02*
X17536968Y-12133388D01*
X17536968Y-12133388D02*
X17527444Y-12152436D01*
X17527444Y-12152436D02*
X17517920Y-12161960D01*
X17517920Y-12161960D02*
X17498872Y-12171484D01*
X17498872Y-12171484D02*
X17451253Y-12171484D01*
X17451253Y-12171484D02*
X17432206Y-12161960D01*
X17432206Y-12161960D02*
X17422682Y-12152436D01*
X17603634Y-11971484D02*
X17736968Y-11971484D01*
X17736968Y-11971484D02*
X17651253Y-12171484D01*
X17803634Y-11971484D02*
X17803634Y-12009579D01*
X17879825Y-11971484D02*
X17879825Y-12009579D01*
X18175063Y-12247674D02*
X18165539Y-12238150D01*
X18165539Y-12238150D02*
X18146491Y-12209579D01*
X18146491Y-12209579D02*
X18136968Y-12190531D01*
X18136968Y-12190531D02*
X18127444Y-12161960D01*
X18127444Y-12161960D02*
X18117920Y-12114341D01*
X18117920Y-12114341D02*
X18117920Y-12076246D01*
X18117920Y-12076246D02*
X18127444Y-12028627D01*
X18127444Y-12028627D02*
X18136968Y-12000055D01*
X18136968Y-12000055D02*
X18146491Y-11981008D01*
X18146491Y-11981008D02*
X18165539Y-11952436D01*
X18165539Y-11952436D02*
X18175063Y-11942912D01*
X18336968Y-12038150D02*
X18336968Y-12171484D01*
X18289349Y-11961960D02*
X18241730Y-12104817D01*
X18241730Y-12104817D02*
X18365539Y-12104817D01*
X18451253Y-12171484D02*
X18489349Y-12171484D01*
X18489349Y-12171484D02*
X18508396Y-12161960D01*
X18508396Y-12161960D02*
X18517920Y-12152436D01*
X18517920Y-12152436D02*
X18536968Y-12123865D01*
X18536968Y-12123865D02*
X18546491Y-12085769D01*
X18546491Y-12085769D02*
X18546491Y-12009579D01*
X18546491Y-12009579D02*
X18536968Y-11990531D01*
X18536968Y-11990531D02*
X18527444Y-11981008D01*
X18527444Y-11981008D02*
X18508396Y-11971484D01*
X18508396Y-11971484D02*
X18470301Y-11971484D01*
X18470301Y-11971484D02*
X18451253Y-11981008D01*
X18451253Y-11981008D02*
X18441730Y-11990531D01*
X18441730Y-11990531D02*
X18432206Y-12009579D01*
X18432206Y-12009579D02*
X18432206Y-12057198D01*
X18432206Y-12057198D02*
X18441730Y-12076246D01*
X18441730Y-12076246D02*
X18451253Y-12085769D01*
X18451253Y-12085769D02*
X18470301Y-12095293D01*
X18470301Y-12095293D02*
X18508396Y-12095293D01*
X18508396Y-12095293D02*
X18527444Y-12085769D01*
X18527444Y-12085769D02*
X18536968Y-12076246D01*
X18536968Y-12076246D02*
X18546491Y-12057198D01*
X18784587Y-12171484D02*
X18784587Y-11971484D01*
X18870301Y-12171484D02*
X18870301Y-12066722D01*
X18870301Y-12066722D02*
X18860777Y-12047674D01*
X18860777Y-12047674D02*
X18841730Y-12038150D01*
X18841730Y-12038150D02*
X18813158Y-12038150D01*
X18813158Y-12038150D02*
X18794111Y-12047674D01*
X18794111Y-12047674D02*
X18784587Y-12057198D01*
X18994111Y-12171484D02*
X18975063Y-12161960D01*
X18975063Y-12161960D02*
X18965539Y-12152436D01*
X18965539Y-12152436D02*
X18956015Y-12133388D01*
X18956015Y-12133388D02*
X18956015Y-12076246D01*
X18956015Y-12076246D02*
X18965539Y-12057198D01*
X18965539Y-12057198D02*
X18975063Y-12047674D01*
X18975063Y-12047674D02*
X18994111Y-12038150D01*
X18994111Y-12038150D02*
X19022682Y-12038150D01*
X19022682Y-12038150D02*
X19041730Y-12047674D01*
X19041730Y-12047674D02*
X19051253Y-12057198D01*
X19051253Y-12057198D02*
X19060777Y-12076246D01*
X19060777Y-12076246D02*
X19060777Y-12133388D01*
X19060777Y-12133388D02*
X19051253Y-12152436D01*
X19051253Y-12152436D02*
X19041730Y-12161960D01*
X19041730Y-12161960D02*
X19022682Y-12171484D01*
X19022682Y-12171484D02*
X18994111Y-12171484D01*
X19175063Y-12171484D02*
X19156015Y-12161960D01*
X19156015Y-12161960D02*
X19146492Y-12142912D01*
X19146492Y-12142912D02*
X19146492Y-11971484D01*
X19327444Y-12161960D02*
X19308396Y-12171484D01*
X19308396Y-12171484D02*
X19270301Y-12171484D01*
X19270301Y-12171484D02*
X19251253Y-12161960D01*
X19251253Y-12161960D02*
X19241730Y-12142912D01*
X19241730Y-12142912D02*
X19241730Y-12066722D01*
X19241730Y-12066722D02*
X19251253Y-12047674D01*
X19251253Y-12047674D02*
X19270301Y-12038150D01*
X19270301Y-12038150D02*
X19308396Y-12038150D01*
X19308396Y-12038150D02*
X19327444Y-12047674D01*
X19327444Y-12047674D02*
X19336968Y-12066722D01*
X19336968Y-12066722D02*
X19336968Y-12085769D01*
X19336968Y-12085769D02*
X19241730Y-12104817D01*
X19413158Y-12161960D02*
X19432206Y-12171484D01*
X19432206Y-12171484D02*
X19470301Y-12171484D01*
X19470301Y-12171484D02*
X19489349Y-12161960D01*
X19489349Y-12161960D02*
X19498873Y-12142912D01*
X19498873Y-12142912D02*
X19498873Y-12133388D01*
X19498873Y-12133388D02*
X19489349Y-12114341D01*
X19489349Y-12114341D02*
X19470301Y-12104817D01*
X19470301Y-12104817D02*
X19441730Y-12104817D01*
X19441730Y-12104817D02*
X19422682Y-12095293D01*
X19422682Y-12095293D02*
X19413158Y-12076246D01*
X19413158Y-12076246D02*
X19413158Y-12066722D01*
X19413158Y-12066722D02*
X19422682Y-12047674D01*
X19422682Y-12047674D02*
X19441730Y-12038150D01*
X19441730Y-12038150D02*
X19470301Y-12038150D01*
X19470301Y-12038150D02*
X19489349Y-12047674D01*
X19565539Y-12247674D02*
X19575063Y-12238150D01*
X19575063Y-12238150D02*
X19594111Y-12209579D01*
X19594111Y-12209579D02*
X19603634Y-12190531D01*
X19603634Y-12190531D02*
X19613158Y-12161960D01*
X19613158Y-12161960D02*
X19622682Y-12114341D01*
X19622682Y-12114341D02*
X19622682Y-12076246D01*
X19622682Y-12076246D02*
X19613158Y-12028627D01*
X19613158Y-12028627D02*
X19603634Y-12000055D01*
X19603634Y-12000055D02*
X19594111Y-11981008D01*
X19594111Y-11981008D02*
X19575063Y-11952436D01*
X19575063Y-11952436D02*
X19565539Y-11942912D01*
D11*
X14600000Y-12344000D02*
G75*
G03*
X14530000Y-12344000I-35000J0D01*
G01*
X14530000Y-12344000D02*
G75*
G03*
X14600000Y-12344000I35000J0D01*
G01*
D10*
X14898872Y-12235484D02*
X14917920Y-12235484D01*
X14917920Y-12235484D02*
X14936967Y-12245008D01*
X14936967Y-12245008D02*
X14946491Y-12254531D01*
X14946491Y-12254531D02*
X14956015Y-12273579D01*
X14956015Y-12273579D02*
X14965539Y-12311674D01*
X14965539Y-12311674D02*
X14965539Y-12359293D01*
X14965539Y-12359293D02*
X14956015Y-12397388D01*
X14956015Y-12397388D02*
X14946491Y-12416436D01*
X14946491Y-12416436D02*
X14936967Y-12425960D01*
X14936967Y-12425960D02*
X14917920Y-12435484D01*
X14917920Y-12435484D02*
X14898872Y-12435484D01*
X14898872Y-12435484D02*
X14879824Y-12425960D01*
X14879824Y-12425960D02*
X14870301Y-12416436D01*
X14870301Y-12416436D02*
X14860777Y-12397388D01*
X14860777Y-12397388D02*
X14851253Y-12359293D01*
X14851253Y-12359293D02*
X14851253Y-12311674D01*
X14851253Y-12311674D02*
X14860777Y-12273579D01*
X14860777Y-12273579D02*
X14870301Y-12254531D01*
X14870301Y-12254531D02*
X14879824Y-12245008D01*
X14879824Y-12245008D02*
X14898872Y-12235484D01*
X15051253Y-12416436D02*
X15060777Y-12425960D01*
X15060777Y-12425960D02*
X15051253Y-12435484D01*
X15051253Y-12435484D02*
X15041729Y-12425960D01*
X15041729Y-12425960D02*
X15051253Y-12416436D01*
X15051253Y-12416436D02*
X15051253Y-12435484D01*
X15127443Y-12235484D02*
X15260777Y-12235484D01*
X15260777Y-12235484D02*
X15175062Y-12435484D01*
X15375062Y-12235484D02*
X15394110Y-12235484D01*
X15394110Y-12235484D02*
X15413158Y-12245008D01*
X15413158Y-12245008D02*
X15422682Y-12254531D01*
X15422682Y-12254531D02*
X15432205Y-12273579D01*
X15432205Y-12273579D02*
X15441729Y-12311674D01*
X15441729Y-12311674D02*
X15441729Y-12359293D01*
X15441729Y-12359293D02*
X15432205Y-12397388D01*
X15432205Y-12397388D02*
X15422682Y-12416436D01*
X15422682Y-12416436D02*
X15413158Y-12425960D01*
X15413158Y-12425960D02*
X15394110Y-12435484D01*
X15394110Y-12435484D02*
X15375062Y-12435484D01*
X15375062Y-12435484D02*
X15356015Y-12425960D01*
X15356015Y-12425960D02*
X15346491Y-12416436D01*
X15346491Y-12416436D02*
X15336967Y-12397388D01*
X15336967Y-12397388D02*
X15327443Y-12359293D01*
X15327443Y-12359293D02*
X15327443Y-12311674D01*
X15327443Y-12311674D02*
X15336967Y-12273579D01*
X15336967Y-12273579D02*
X15346491Y-12254531D01*
X15346491Y-12254531D02*
X15356015Y-12245008D01*
X15356015Y-12245008D02*
X15375062Y-12235484D01*
X15565539Y-12235484D02*
X15584586Y-12235484D01*
X15584586Y-12235484D02*
X15603634Y-12245008D01*
X15603634Y-12245008D02*
X15613158Y-12254531D01*
X15613158Y-12254531D02*
X15622682Y-12273579D01*
X15622682Y-12273579D02*
X15632205Y-12311674D01*
X15632205Y-12311674D02*
X15632205Y-12359293D01*
X15632205Y-12359293D02*
X15622682Y-12397388D01*
X15622682Y-12397388D02*
X15613158Y-12416436D01*
X15613158Y-12416436D02*
X15603634Y-12425960D01*
X15603634Y-12425960D02*
X15584586Y-12435484D01*
X15584586Y-12435484D02*
X15565539Y-12435484D01*
X15565539Y-12435484D02*
X15546491Y-12425960D01*
X15546491Y-12425960D02*
X15536967Y-12416436D01*
X15536967Y-12416436D02*
X15527443Y-12397388D01*
X15527443Y-12397388D02*
X15517920Y-12359293D01*
X15517920Y-12359293D02*
X15517920Y-12311674D01*
X15517920Y-12311674D02*
X15527443Y-12273579D01*
X15527443Y-12273579D02*
X15536967Y-12254531D01*
X15536967Y-12254531D02*
X15546491Y-12245008D01*
X15546491Y-12245008D02*
X15565539Y-12235484D01*
X15717920Y-12435484D02*
X15717920Y-12302150D01*
X15717920Y-12321198D02*
X15727443Y-12311674D01*
X15727443Y-12311674D02*
X15746491Y-12302150D01*
X15746491Y-12302150D02*
X15775063Y-12302150D01*
X15775063Y-12302150D02*
X15794110Y-12311674D01*
X15794110Y-12311674D02*
X15803634Y-12330722D01*
X15803634Y-12330722D02*
X15803634Y-12435484D01*
X15803634Y-12330722D02*
X15813158Y-12311674D01*
X15813158Y-12311674D02*
X15832205Y-12302150D01*
X15832205Y-12302150D02*
X15860777Y-12302150D01*
X15860777Y-12302150D02*
X15879824Y-12311674D01*
X15879824Y-12311674D02*
X15889348Y-12330722D01*
X15889348Y-12330722D02*
X15889348Y-12435484D01*
X15984586Y-12435484D02*
X15984586Y-12302150D01*
X15984586Y-12321198D02*
X15994110Y-12311674D01*
X15994110Y-12311674D02*
X16013158Y-12302150D01*
X16013158Y-12302150D02*
X16041729Y-12302150D01*
X16041729Y-12302150D02*
X16060777Y-12311674D01*
X16060777Y-12311674D02*
X16070301Y-12330722D01*
X16070301Y-12330722D02*
X16070301Y-12435484D01*
X16070301Y-12330722D02*
X16079824Y-12311674D01*
X16079824Y-12311674D02*
X16098872Y-12302150D01*
X16098872Y-12302150D02*
X16127443Y-12302150D01*
X16127443Y-12302150D02*
X16146491Y-12311674D01*
X16146491Y-12311674D02*
X16156015Y-12330722D01*
X16156015Y-12330722D02*
X16156015Y-12435484D01*
X16546491Y-12225960D02*
X16375063Y-12483103D01*
X16803634Y-12235484D02*
X16822682Y-12235484D01*
X16822682Y-12235484D02*
X16841729Y-12245008D01*
X16841729Y-12245008D02*
X16851253Y-12254531D01*
X16851253Y-12254531D02*
X16860777Y-12273579D01*
X16860777Y-12273579D02*
X16870301Y-12311674D01*
X16870301Y-12311674D02*
X16870301Y-12359293D01*
X16870301Y-12359293D02*
X16860777Y-12397388D01*
X16860777Y-12397388D02*
X16851253Y-12416436D01*
X16851253Y-12416436D02*
X16841729Y-12425960D01*
X16841729Y-12425960D02*
X16822682Y-12435484D01*
X16822682Y-12435484D02*
X16803634Y-12435484D01*
X16803634Y-12435484D02*
X16784587Y-12425960D01*
X16784587Y-12425960D02*
X16775063Y-12416436D01*
X16775063Y-12416436D02*
X16765539Y-12397388D01*
X16765539Y-12397388D02*
X16756015Y-12359293D01*
X16756015Y-12359293D02*
X16756015Y-12311674D01*
X16756015Y-12311674D02*
X16765539Y-12273579D01*
X16765539Y-12273579D02*
X16775063Y-12254531D01*
X16775063Y-12254531D02*
X16784587Y-12245008D01*
X16784587Y-12245008D02*
X16803634Y-12235484D01*
X16956015Y-12416436D02*
X16965539Y-12425960D01*
X16965539Y-12425960D02*
X16956015Y-12435484D01*
X16956015Y-12435484D02*
X16946491Y-12425960D01*
X16946491Y-12425960D02*
X16956015Y-12416436D01*
X16956015Y-12416436D02*
X16956015Y-12435484D01*
X17089348Y-12235484D02*
X17108396Y-12235484D01*
X17108396Y-12235484D02*
X17127444Y-12245008D01*
X17127444Y-12245008D02*
X17136968Y-12254531D01*
X17136968Y-12254531D02*
X17146491Y-12273579D01*
X17146491Y-12273579D02*
X17156015Y-12311674D01*
X17156015Y-12311674D02*
X17156015Y-12359293D01*
X17156015Y-12359293D02*
X17146491Y-12397388D01*
X17146491Y-12397388D02*
X17136968Y-12416436D01*
X17136968Y-12416436D02*
X17127444Y-12425960D01*
X17127444Y-12425960D02*
X17108396Y-12435484D01*
X17108396Y-12435484D02*
X17089348Y-12435484D01*
X17089348Y-12435484D02*
X17070301Y-12425960D01*
X17070301Y-12425960D02*
X17060777Y-12416436D01*
X17060777Y-12416436D02*
X17051253Y-12397388D01*
X17051253Y-12397388D02*
X17041729Y-12359293D01*
X17041729Y-12359293D02*
X17041729Y-12311674D01*
X17041729Y-12311674D02*
X17051253Y-12273579D01*
X17051253Y-12273579D02*
X17060777Y-12254531D01*
X17060777Y-12254531D02*
X17070301Y-12245008D01*
X17070301Y-12245008D02*
X17089348Y-12235484D01*
X17232206Y-12254531D02*
X17241729Y-12245008D01*
X17241729Y-12245008D02*
X17260777Y-12235484D01*
X17260777Y-12235484D02*
X17308396Y-12235484D01*
X17308396Y-12235484D02*
X17327444Y-12245008D01*
X17327444Y-12245008D02*
X17336968Y-12254531D01*
X17336968Y-12254531D02*
X17346491Y-12273579D01*
X17346491Y-12273579D02*
X17346491Y-12292627D01*
X17346491Y-12292627D02*
X17336968Y-12321198D01*
X17336968Y-12321198D02*
X17222682Y-12435484D01*
X17222682Y-12435484D02*
X17346491Y-12435484D01*
X17413158Y-12235484D02*
X17546491Y-12235484D01*
X17546491Y-12235484D02*
X17460777Y-12435484D01*
X17708396Y-12235484D02*
X17670301Y-12235484D01*
X17670301Y-12235484D02*
X17651253Y-12245008D01*
X17651253Y-12245008D02*
X17641729Y-12254531D01*
X17641729Y-12254531D02*
X17622682Y-12283103D01*
X17622682Y-12283103D02*
X17613158Y-12321198D01*
X17613158Y-12321198D02*
X17613158Y-12397388D01*
X17613158Y-12397388D02*
X17622682Y-12416436D01*
X17622682Y-12416436D02*
X17632206Y-12425960D01*
X17632206Y-12425960D02*
X17651253Y-12435484D01*
X17651253Y-12435484D02*
X17689349Y-12435484D01*
X17689349Y-12435484D02*
X17708396Y-12425960D01*
X17708396Y-12425960D02*
X17717920Y-12416436D01*
X17717920Y-12416436D02*
X17727444Y-12397388D01*
X17727444Y-12397388D02*
X17727444Y-12349769D01*
X17727444Y-12349769D02*
X17717920Y-12330722D01*
X17717920Y-12330722D02*
X17708396Y-12321198D01*
X17708396Y-12321198D02*
X17689349Y-12311674D01*
X17689349Y-12311674D02*
X17651253Y-12311674D01*
X17651253Y-12311674D02*
X17632206Y-12321198D01*
X17632206Y-12321198D02*
X17622682Y-12330722D01*
X17622682Y-12330722D02*
X17613158Y-12349769D01*
X17803634Y-12235484D02*
X17803634Y-12273579D01*
X17879825Y-12235484D02*
X17879825Y-12273579D01*
X18175063Y-12511674D02*
X18165539Y-12502150D01*
X18165539Y-12502150D02*
X18146491Y-12473579D01*
X18146491Y-12473579D02*
X18136968Y-12454531D01*
X18136968Y-12454531D02*
X18127444Y-12425960D01*
X18127444Y-12425960D02*
X18117920Y-12378341D01*
X18117920Y-12378341D02*
X18117920Y-12340246D01*
X18117920Y-12340246D02*
X18127444Y-12292627D01*
X18127444Y-12292627D02*
X18136968Y-12264055D01*
X18136968Y-12264055D02*
X18146491Y-12245008D01*
X18146491Y-12245008D02*
X18165539Y-12216436D01*
X18165539Y-12216436D02*
X18175063Y-12206912D01*
X18356015Y-12435484D02*
X18241730Y-12435484D01*
X18298872Y-12435484D02*
X18298872Y-12235484D01*
X18298872Y-12235484D02*
X18279825Y-12264055D01*
X18279825Y-12264055D02*
X18260777Y-12283103D01*
X18260777Y-12283103D02*
X18241730Y-12292627D01*
X18470301Y-12321198D02*
X18451253Y-12311674D01*
X18451253Y-12311674D02*
X18441730Y-12302150D01*
X18441730Y-12302150D02*
X18432206Y-12283103D01*
X18432206Y-12283103D02*
X18432206Y-12273579D01*
X18432206Y-12273579D02*
X18441730Y-12254531D01*
X18441730Y-12254531D02*
X18451253Y-12245008D01*
X18451253Y-12245008D02*
X18470301Y-12235484D01*
X18470301Y-12235484D02*
X18508396Y-12235484D01*
X18508396Y-12235484D02*
X18527444Y-12245008D01*
X18527444Y-12245008D02*
X18536968Y-12254531D01*
X18536968Y-12254531D02*
X18546491Y-12273579D01*
X18546491Y-12273579D02*
X18546491Y-12283103D01*
X18546491Y-12283103D02*
X18536968Y-12302150D01*
X18536968Y-12302150D02*
X18527444Y-12311674D01*
X18527444Y-12311674D02*
X18508396Y-12321198D01*
X18508396Y-12321198D02*
X18470301Y-12321198D01*
X18470301Y-12321198D02*
X18451253Y-12330722D01*
X18451253Y-12330722D02*
X18441730Y-12340246D01*
X18441730Y-12340246D02*
X18432206Y-12359293D01*
X18432206Y-12359293D02*
X18432206Y-12397388D01*
X18432206Y-12397388D02*
X18441730Y-12416436D01*
X18441730Y-12416436D02*
X18451253Y-12425960D01*
X18451253Y-12425960D02*
X18470301Y-12435484D01*
X18470301Y-12435484D02*
X18508396Y-12435484D01*
X18508396Y-12435484D02*
X18527444Y-12425960D01*
X18527444Y-12425960D02*
X18536968Y-12416436D01*
X18536968Y-12416436D02*
X18546491Y-12397388D01*
X18546491Y-12397388D02*
X18546491Y-12359293D01*
X18546491Y-12359293D02*
X18536968Y-12340246D01*
X18536968Y-12340246D02*
X18527444Y-12330722D01*
X18527444Y-12330722D02*
X18508396Y-12321198D01*
X18784587Y-12435484D02*
X18784587Y-12235484D01*
X18870301Y-12435484D02*
X18870301Y-12330722D01*
X18870301Y-12330722D02*
X18860777Y-12311674D01*
X18860777Y-12311674D02*
X18841730Y-12302150D01*
X18841730Y-12302150D02*
X18813158Y-12302150D01*
X18813158Y-12302150D02*
X18794111Y-12311674D01*
X18794111Y-12311674D02*
X18784587Y-12321198D01*
X18994111Y-12435484D02*
X18975063Y-12425960D01*
X18975063Y-12425960D02*
X18965539Y-12416436D01*
X18965539Y-12416436D02*
X18956015Y-12397388D01*
X18956015Y-12397388D02*
X18956015Y-12340246D01*
X18956015Y-12340246D02*
X18965539Y-12321198D01*
X18965539Y-12321198D02*
X18975063Y-12311674D01*
X18975063Y-12311674D02*
X18994111Y-12302150D01*
X18994111Y-12302150D02*
X19022682Y-12302150D01*
X19022682Y-12302150D02*
X19041730Y-12311674D01*
X19041730Y-12311674D02*
X19051253Y-12321198D01*
X19051253Y-12321198D02*
X19060777Y-12340246D01*
X19060777Y-12340246D02*
X19060777Y-12397388D01*
X19060777Y-12397388D02*
X19051253Y-12416436D01*
X19051253Y-12416436D02*
X19041730Y-12425960D01*
X19041730Y-12425960D02*
X19022682Y-12435484D01*
X19022682Y-12435484D02*
X18994111Y-12435484D01*
X19175063Y-12435484D02*
X19156015Y-12425960D01*
X19156015Y-12425960D02*
X19146492Y-12406912D01*
X19146492Y-12406912D02*
X19146492Y-12235484D01*
X19327444Y-12425960D02*
X19308396Y-12435484D01*
X19308396Y-12435484D02*
X19270301Y-12435484D01*
X19270301Y-12435484D02*
X19251253Y-12425960D01*
X19251253Y-12425960D02*
X19241730Y-12406912D01*
X19241730Y-12406912D02*
X19241730Y-12330722D01*
X19241730Y-12330722D02*
X19251253Y-12311674D01*
X19251253Y-12311674D02*
X19270301Y-12302150D01*
X19270301Y-12302150D02*
X19308396Y-12302150D01*
X19308396Y-12302150D02*
X19327444Y-12311674D01*
X19327444Y-12311674D02*
X19336968Y-12330722D01*
X19336968Y-12330722D02*
X19336968Y-12349769D01*
X19336968Y-12349769D02*
X19241730Y-12368817D01*
X19413158Y-12425960D02*
X19432206Y-12435484D01*
X19432206Y-12435484D02*
X19470301Y-12435484D01*
X19470301Y-12435484D02*
X19489349Y-12425960D01*
X19489349Y-12425960D02*
X19498873Y-12406912D01*
X19498873Y-12406912D02*
X19498873Y-12397388D01*
X19498873Y-12397388D02*
X19489349Y-12378341D01*
X19489349Y-12378341D02*
X19470301Y-12368817D01*
X19470301Y-12368817D02*
X19441730Y-12368817D01*
X19441730Y-12368817D02*
X19422682Y-12359293D01*
X19422682Y-12359293D02*
X19413158Y-12340246D01*
X19413158Y-12340246D02*
X19413158Y-12330722D01*
X19413158Y-12330722D02*
X19422682Y-12311674D01*
X19422682Y-12311674D02*
X19441730Y-12302150D01*
X19441730Y-12302150D02*
X19470301Y-12302150D01*
X19470301Y-12302150D02*
X19489349Y-12311674D01*
X19565539Y-12511674D02*
X19575063Y-12502150D01*
X19575063Y-12502150D02*
X19594111Y-12473579D01*
X19594111Y-12473579D02*
X19603634Y-12454531D01*
X19603634Y-12454531D02*
X19613158Y-12425960D01*
X19613158Y-12425960D02*
X19622682Y-12378341D01*
X19622682Y-12378341D02*
X19622682Y-12340246D01*
X19622682Y-12340246D02*
X19613158Y-12292627D01*
X19613158Y-12292627D02*
X19603634Y-12264055D01*
X19603634Y-12264055D02*
X19594111Y-12245008D01*
X19594111Y-12245008D02*
X19575063Y-12216436D01*
X19575063Y-12216436D02*
X19565539Y-12206912D01*
D11*
X14560000Y-12568000D02*
X14560000Y-12648000D01*
X14520000Y-12608000D02*
X14600000Y-12608000D01*
D10*
X14898872Y-12499484D02*
X14917920Y-12499484D01*
X14917920Y-12499484D02*
X14936967Y-12509008D01*
X14936967Y-12509008D02*
X14946491Y-12518531D01*
X14946491Y-12518531D02*
X14956015Y-12537579D01*
X14956015Y-12537579D02*
X14965539Y-12575674D01*
X14965539Y-12575674D02*
X14965539Y-12623293D01*
X14965539Y-12623293D02*
X14956015Y-12661388D01*
X14956015Y-12661388D02*
X14946491Y-12680436D01*
X14946491Y-12680436D02*
X14936967Y-12689960D01*
X14936967Y-12689960D02*
X14917920Y-12699484D01*
X14917920Y-12699484D02*
X14898872Y-12699484D01*
X14898872Y-12699484D02*
X14879824Y-12689960D01*
X14879824Y-12689960D02*
X14870301Y-12680436D01*
X14870301Y-12680436D02*
X14860777Y-12661388D01*
X14860777Y-12661388D02*
X14851253Y-12623293D01*
X14851253Y-12623293D02*
X14851253Y-12575674D01*
X14851253Y-12575674D02*
X14860777Y-12537579D01*
X14860777Y-12537579D02*
X14870301Y-12518531D01*
X14870301Y-12518531D02*
X14879824Y-12509008D01*
X14879824Y-12509008D02*
X14898872Y-12499484D01*
X15051253Y-12680436D02*
X15060777Y-12689960D01*
X15060777Y-12689960D02*
X15051253Y-12699484D01*
X15051253Y-12699484D02*
X15041729Y-12689960D01*
X15041729Y-12689960D02*
X15051253Y-12680436D01*
X15051253Y-12680436D02*
X15051253Y-12699484D01*
X15175062Y-12585198D02*
X15156015Y-12575674D01*
X15156015Y-12575674D02*
X15146491Y-12566150D01*
X15146491Y-12566150D02*
X15136967Y-12547103D01*
X15136967Y-12547103D02*
X15136967Y-12537579D01*
X15136967Y-12537579D02*
X15146491Y-12518531D01*
X15146491Y-12518531D02*
X15156015Y-12509008D01*
X15156015Y-12509008D02*
X15175062Y-12499484D01*
X15175062Y-12499484D02*
X15213158Y-12499484D01*
X15213158Y-12499484D02*
X15232205Y-12509008D01*
X15232205Y-12509008D02*
X15241729Y-12518531D01*
X15241729Y-12518531D02*
X15251253Y-12537579D01*
X15251253Y-12537579D02*
X15251253Y-12547103D01*
X15251253Y-12547103D02*
X15241729Y-12566150D01*
X15241729Y-12566150D02*
X15232205Y-12575674D01*
X15232205Y-12575674D02*
X15213158Y-12585198D01*
X15213158Y-12585198D02*
X15175062Y-12585198D01*
X15175062Y-12585198D02*
X15156015Y-12594722D01*
X15156015Y-12594722D02*
X15146491Y-12604246D01*
X15146491Y-12604246D02*
X15136967Y-12623293D01*
X15136967Y-12623293D02*
X15136967Y-12661388D01*
X15136967Y-12661388D02*
X15146491Y-12680436D01*
X15146491Y-12680436D02*
X15156015Y-12689960D01*
X15156015Y-12689960D02*
X15175062Y-12699484D01*
X15175062Y-12699484D02*
X15213158Y-12699484D01*
X15213158Y-12699484D02*
X15232205Y-12689960D01*
X15232205Y-12689960D02*
X15241729Y-12680436D01*
X15241729Y-12680436D02*
X15251253Y-12661388D01*
X15251253Y-12661388D02*
X15251253Y-12623293D01*
X15251253Y-12623293D02*
X15241729Y-12604246D01*
X15241729Y-12604246D02*
X15232205Y-12594722D01*
X15232205Y-12594722D02*
X15213158Y-12585198D01*
X15375062Y-12499484D02*
X15394110Y-12499484D01*
X15394110Y-12499484D02*
X15413158Y-12509008D01*
X15413158Y-12509008D02*
X15422682Y-12518531D01*
X15422682Y-12518531D02*
X15432205Y-12537579D01*
X15432205Y-12537579D02*
X15441729Y-12575674D01*
X15441729Y-12575674D02*
X15441729Y-12623293D01*
X15441729Y-12623293D02*
X15432205Y-12661388D01*
X15432205Y-12661388D02*
X15422682Y-12680436D01*
X15422682Y-12680436D02*
X15413158Y-12689960D01*
X15413158Y-12689960D02*
X15394110Y-12699484D01*
X15394110Y-12699484D02*
X15375062Y-12699484D01*
X15375062Y-12699484D02*
X15356015Y-12689960D01*
X15356015Y-12689960D02*
X15346491Y-12680436D01*
X15346491Y-12680436D02*
X15336967Y-12661388D01*
X15336967Y-12661388D02*
X15327443Y-12623293D01*
X15327443Y-12623293D02*
X15327443Y-12575674D01*
X15327443Y-12575674D02*
X15336967Y-12537579D01*
X15336967Y-12537579D02*
X15346491Y-12518531D01*
X15346491Y-12518531D02*
X15356015Y-12509008D01*
X15356015Y-12509008D02*
X15375062Y-12499484D01*
X15565539Y-12499484D02*
X15584586Y-12499484D01*
X15584586Y-12499484D02*
X15603634Y-12509008D01*
X15603634Y-12509008D02*
X15613158Y-12518531D01*
X15613158Y-12518531D02*
X15622682Y-12537579D01*
X15622682Y-12537579D02*
X15632205Y-12575674D01*
X15632205Y-12575674D02*
X15632205Y-12623293D01*
X15632205Y-12623293D02*
X15622682Y-12661388D01*
X15622682Y-12661388D02*
X15613158Y-12680436D01*
X15613158Y-12680436D02*
X15603634Y-12689960D01*
X15603634Y-12689960D02*
X15584586Y-12699484D01*
X15584586Y-12699484D02*
X15565539Y-12699484D01*
X15565539Y-12699484D02*
X15546491Y-12689960D01*
X15546491Y-12689960D02*
X15536967Y-12680436D01*
X15536967Y-12680436D02*
X15527443Y-12661388D01*
X15527443Y-12661388D02*
X15517920Y-12623293D01*
X15517920Y-12623293D02*
X15517920Y-12575674D01*
X15517920Y-12575674D02*
X15527443Y-12537579D01*
X15527443Y-12537579D02*
X15536967Y-12518531D01*
X15536967Y-12518531D02*
X15546491Y-12509008D01*
X15546491Y-12509008D02*
X15565539Y-12499484D01*
X15717920Y-12699484D02*
X15717920Y-12566150D01*
X15717920Y-12585198D02*
X15727443Y-12575674D01*
X15727443Y-12575674D02*
X15746491Y-12566150D01*
X15746491Y-12566150D02*
X15775063Y-12566150D01*
X15775063Y-12566150D02*
X15794110Y-12575674D01*
X15794110Y-12575674D02*
X15803634Y-12594722D01*
X15803634Y-12594722D02*
X15803634Y-12699484D01*
X15803634Y-12594722D02*
X15813158Y-12575674D01*
X15813158Y-12575674D02*
X15832205Y-12566150D01*
X15832205Y-12566150D02*
X15860777Y-12566150D01*
X15860777Y-12566150D02*
X15879824Y-12575674D01*
X15879824Y-12575674D02*
X15889348Y-12594722D01*
X15889348Y-12594722D02*
X15889348Y-12699484D01*
X15984586Y-12699484D02*
X15984586Y-12566150D01*
X15984586Y-12585198D02*
X15994110Y-12575674D01*
X15994110Y-12575674D02*
X16013158Y-12566150D01*
X16013158Y-12566150D02*
X16041729Y-12566150D01*
X16041729Y-12566150D02*
X16060777Y-12575674D01*
X16060777Y-12575674D02*
X16070301Y-12594722D01*
X16070301Y-12594722D02*
X16070301Y-12699484D01*
X16070301Y-12594722D02*
X16079824Y-12575674D01*
X16079824Y-12575674D02*
X16098872Y-12566150D01*
X16098872Y-12566150D02*
X16127443Y-12566150D01*
X16127443Y-12566150D02*
X16146491Y-12575674D01*
X16146491Y-12575674D02*
X16156015Y-12594722D01*
X16156015Y-12594722D02*
X16156015Y-12699484D01*
X16546491Y-12489960D02*
X16375063Y-12747103D01*
X16803634Y-12499484D02*
X16822682Y-12499484D01*
X16822682Y-12499484D02*
X16841729Y-12509008D01*
X16841729Y-12509008D02*
X16851253Y-12518531D01*
X16851253Y-12518531D02*
X16860777Y-12537579D01*
X16860777Y-12537579D02*
X16870301Y-12575674D01*
X16870301Y-12575674D02*
X16870301Y-12623293D01*
X16870301Y-12623293D02*
X16860777Y-12661388D01*
X16860777Y-12661388D02*
X16851253Y-12680436D01*
X16851253Y-12680436D02*
X16841729Y-12689960D01*
X16841729Y-12689960D02*
X16822682Y-12699484D01*
X16822682Y-12699484D02*
X16803634Y-12699484D01*
X16803634Y-12699484D02*
X16784587Y-12689960D01*
X16784587Y-12689960D02*
X16775063Y-12680436D01*
X16775063Y-12680436D02*
X16765539Y-12661388D01*
X16765539Y-12661388D02*
X16756015Y-12623293D01*
X16756015Y-12623293D02*
X16756015Y-12575674D01*
X16756015Y-12575674D02*
X16765539Y-12537579D01*
X16765539Y-12537579D02*
X16775063Y-12518531D01*
X16775063Y-12518531D02*
X16784587Y-12509008D01*
X16784587Y-12509008D02*
X16803634Y-12499484D01*
X16956015Y-12680436D02*
X16965539Y-12689960D01*
X16965539Y-12689960D02*
X16956015Y-12699484D01*
X16956015Y-12699484D02*
X16946491Y-12689960D01*
X16946491Y-12689960D02*
X16956015Y-12680436D01*
X16956015Y-12680436D02*
X16956015Y-12699484D01*
X17089348Y-12499484D02*
X17108396Y-12499484D01*
X17108396Y-12499484D02*
X17127444Y-12509008D01*
X17127444Y-12509008D02*
X17136968Y-12518531D01*
X17136968Y-12518531D02*
X17146491Y-12537579D01*
X17146491Y-12537579D02*
X17156015Y-12575674D01*
X17156015Y-12575674D02*
X17156015Y-12623293D01*
X17156015Y-12623293D02*
X17146491Y-12661388D01*
X17146491Y-12661388D02*
X17136968Y-12680436D01*
X17136968Y-12680436D02*
X17127444Y-12689960D01*
X17127444Y-12689960D02*
X17108396Y-12699484D01*
X17108396Y-12699484D02*
X17089348Y-12699484D01*
X17089348Y-12699484D02*
X17070301Y-12689960D01*
X17070301Y-12689960D02*
X17060777Y-12680436D01*
X17060777Y-12680436D02*
X17051253Y-12661388D01*
X17051253Y-12661388D02*
X17041729Y-12623293D01*
X17041729Y-12623293D02*
X17041729Y-12575674D01*
X17041729Y-12575674D02*
X17051253Y-12537579D01*
X17051253Y-12537579D02*
X17060777Y-12518531D01*
X17060777Y-12518531D02*
X17070301Y-12509008D01*
X17070301Y-12509008D02*
X17089348Y-12499484D01*
X17222682Y-12499484D02*
X17346491Y-12499484D01*
X17346491Y-12499484D02*
X17279825Y-12575674D01*
X17279825Y-12575674D02*
X17308396Y-12575674D01*
X17308396Y-12575674D02*
X17327444Y-12585198D01*
X17327444Y-12585198D02*
X17336968Y-12594722D01*
X17336968Y-12594722D02*
X17346491Y-12613769D01*
X17346491Y-12613769D02*
X17346491Y-12661388D01*
X17346491Y-12661388D02*
X17336968Y-12680436D01*
X17336968Y-12680436D02*
X17327444Y-12689960D01*
X17327444Y-12689960D02*
X17308396Y-12699484D01*
X17308396Y-12699484D02*
X17251253Y-12699484D01*
X17251253Y-12699484D02*
X17232206Y-12689960D01*
X17232206Y-12689960D02*
X17222682Y-12680436D01*
X17536968Y-12699484D02*
X17422682Y-12699484D01*
X17479825Y-12699484D02*
X17479825Y-12499484D01*
X17479825Y-12499484D02*
X17460777Y-12528055D01*
X17460777Y-12528055D02*
X17441729Y-12547103D01*
X17441729Y-12547103D02*
X17422682Y-12556627D01*
X17717920Y-12499484D02*
X17622682Y-12499484D01*
X17622682Y-12499484D02*
X17613158Y-12594722D01*
X17613158Y-12594722D02*
X17622682Y-12585198D01*
X17622682Y-12585198D02*
X17641729Y-12575674D01*
X17641729Y-12575674D02*
X17689349Y-12575674D01*
X17689349Y-12575674D02*
X17708396Y-12585198D01*
X17708396Y-12585198D02*
X17717920Y-12594722D01*
X17717920Y-12594722D02*
X17727444Y-12613769D01*
X17727444Y-12613769D02*
X17727444Y-12661388D01*
X17727444Y-12661388D02*
X17717920Y-12680436D01*
X17717920Y-12680436D02*
X17708396Y-12689960D01*
X17708396Y-12689960D02*
X17689349Y-12699484D01*
X17689349Y-12699484D02*
X17641729Y-12699484D01*
X17641729Y-12699484D02*
X17622682Y-12689960D01*
X17622682Y-12689960D02*
X17613158Y-12680436D01*
X17803634Y-12499484D02*
X17803634Y-12537579D01*
X17879825Y-12499484D02*
X17879825Y-12537579D01*
X18175063Y-12775674D02*
X18165539Y-12766150D01*
X18165539Y-12766150D02*
X18146491Y-12737579D01*
X18146491Y-12737579D02*
X18136968Y-12718531D01*
X18136968Y-12718531D02*
X18127444Y-12689960D01*
X18127444Y-12689960D02*
X18117920Y-12642341D01*
X18117920Y-12642341D02*
X18117920Y-12604246D01*
X18117920Y-12604246D02*
X18127444Y-12556627D01*
X18127444Y-12556627D02*
X18136968Y-12528055D01*
X18136968Y-12528055D02*
X18146491Y-12509008D01*
X18146491Y-12509008D02*
X18165539Y-12480436D01*
X18165539Y-12480436D02*
X18175063Y-12470912D01*
X18356015Y-12699484D02*
X18241730Y-12699484D01*
X18298872Y-12699484D02*
X18298872Y-12499484D01*
X18298872Y-12499484D02*
X18279825Y-12528055D01*
X18279825Y-12528055D02*
X18260777Y-12547103D01*
X18260777Y-12547103D02*
X18241730Y-12556627D01*
X18432206Y-12518531D02*
X18441730Y-12509008D01*
X18441730Y-12509008D02*
X18460777Y-12499484D01*
X18460777Y-12499484D02*
X18508396Y-12499484D01*
X18508396Y-12499484D02*
X18527444Y-12509008D01*
X18527444Y-12509008D02*
X18536968Y-12518531D01*
X18536968Y-12518531D02*
X18546491Y-12537579D01*
X18546491Y-12537579D02*
X18546491Y-12556627D01*
X18546491Y-12556627D02*
X18536968Y-12585198D01*
X18536968Y-12585198D02*
X18422682Y-12699484D01*
X18422682Y-12699484D02*
X18546491Y-12699484D01*
X18784587Y-12699484D02*
X18784587Y-12499484D01*
X18870301Y-12699484D02*
X18870301Y-12594722D01*
X18870301Y-12594722D02*
X18860777Y-12575674D01*
X18860777Y-12575674D02*
X18841730Y-12566150D01*
X18841730Y-12566150D02*
X18813158Y-12566150D01*
X18813158Y-12566150D02*
X18794111Y-12575674D01*
X18794111Y-12575674D02*
X18784587Y-12585198D01*
X18994111Y-12699484D02*
X18975063Y-12689960D01*
X18975063Y-12689960D02*
X18965539Y-12680436D01*
X18965539Y-12680436D02*
X18956015Y-12661388D01*
X18956015Y-12661388D02*
X18956015Y-12604246D01*
X18956015Y-12604246D02*
X18965539Y-12585198D01*
X18965539Y-12585198D02*
X18975063Y-12575674D01*
X18975063Y-12575674D02*
X18994111Y-12566150D01*
X18994111Y-12566150D02*
X19022682Y-12566150D01*
X19022682Y-12566150D02*
X19041730Y-12575674D01*
X19041730Y-12575674D02*
X19051253Y-12585198D01*
X19051253Y-12585198D02*
X19060777Y-12604246D01*
X19060777Y-12604246D02*
X19060777Y-12661388D01*
X19060777Y-12661388D02*
X19051253Y-12680436D01*
X19051253Y-12680436D02*
X19041730Y-12689960D01*
X19041730Y-12689960D02*
X19022682Y-12699484D01*
X19022682Y-12699484D02*
X18994111Y-12699484D01*
X19175063Y-12699484D02*
X19156015Y-12689960D01*
X19156015Y-12689960D02*
X19146492Y-12670912D01*
X19146492Y-12670912D02*
X19146492Y-12499484D01*
X19327444Y-12689960D02*
X19308396Y-12699484D01*
X19308396Y-12699484D02*
X19270301Y-12699484D01*
X19270301Y-12699484D02*
X19251253Y-12689960D01*
X19251253Y-12689960D02*
X19241730Y-12670912D01*
X19241730Y-12670912D02*
X19241730Y-12594722D01*
X19241730Y-12594722D02*
X19251253Y-12575674D01*
X19251253Y-12575674D02*
X19270301Y-12566150D01*
X19270301Y-12566150D02*
X19308396Y-12566150D01*
X19308396Y-12566150D02*
X19327444Y-12575674D01*
X19327444Y-12575674D02*
X19336968Y-12594722D01*
X19336968Y-12594722D02*
X19336968Y-12613769D01*
X19336968Y-12613769D02*
X19241730Y-12632817D01*
X19413158Y-12689960D02*
X19432206Y-12699484D01*
X19432206Y-12699484D02*
X19470301Y-12699484D01*
X19470301Y-12699484D02*
X19489349Y-12689960D01*
X19489349Y-12689960D02*
X19498873Y-12670912D01*
X19498873Y-12670912D02*
X19498873Y-12661388D01*
X19498873Y-12661388D02*
X19489349Y-12642341D01*
X19489349Y-12642341D02*
X19470301Y-12632817D01*
X19470301Y-12632817D02*
X19441730Y-12632817D01*
X19441730Y-12632817D02*
X19422682Y-12623293D01*
X19422682Y-12623293D02*
X19413158Y-12604246D01*
X19413158Y-12604246D02*
X19413158Y-12594722D01*
X19413158Y-12594722D02*
X19422682Y-12575674D01*
X19422682Y-12575674D02*
X19441730Y-12566150D01*
X19441730Y-12566150D02*
X19470301Y-12566150D01*
X19470301Y-12566150D02*
X19489349Y-12575674D01*
X19565539Y-12775674D02*
X19575063Y-12766150D01*
X19575063Y-12766150D02*
X19594111Y-12737579D01*
X19594111Y-12737579D02*
X19603634Y-12718531D01*
X19603634Y-12718531D02*
X19613158Y-12689960D01*
X19613158Y-12689960D02*
X19622682Y-12642341D01*
X19622682Y-12642341D02*
X19622682Y-12604246D01*
X19622682Y-12604246D02*
X19613158Y-12556627D01*
X19613158Y-12556627D02*
X19603634Y-12528055D01*
X19603634Y-12528055D02*
X19594111Y-12509008D01*
X19594111Y-12509008D02*
X19575063Y-12480436D01*
X19575063Y-12480436D02*
X19565539Y-12470912D01*
D11*
X14585356Y-12907356D02*
X14585356Y-12836644D01*
X14514644Y-12836644D01*
X14514644Y-12907356D01*
X14585356Y-12907356D01*
D10*
X14965539Y-12963484D02*
X14851253Y-12963484D01*
X14908396Y-12963484D02*
X14908396Y-12763484D01*
X14908396Y-12763484D02*
X14889348Y-12792055D01*
X14889348Y-12792055D02*
X14870301Y-12811103D01*
X14870301Y-12811103D02*
X14851253Y-12820627D01*
X15051253Y-12944436D02*
X15060777Y-12953960D01*
X15060777Y-12953960D02*
X15051253Y-12963484D01*
X15051253Y-12963484D02*
X15041729Y-12953960D01*
X15041729Y-12953960D02*
X15051253Y-12944436D01*
X15051253Y-12944436D02*
X15051253Y-12963484D01*
X15184586Y-12763484D02*
X15203634Y-12763484D01*
X15203634Y-12763484D02*
X15222682Y-12773008D01*
X15222682Y-12773008D02*
X15232205Y-12782531D01*
X15232205Y-12782531D02*
X15241729Y-12801579D01*
X15241729Y-12801579D02*
X15251253Y-12839674D01*
X15251253Y-12839674D02*
X15251253Y-12887293D01*
X15251253Y-12887293D02*
X15241729Y-12925388D01*
X15241729Y-12925388D02*
X15232205Y-12944436D01*
X15232205Y-12944436D02*
X15222682Y-12953960D01*
X15222682Y-12953960D02*
X15203634Y-12963484D01*
X15203634Y-12963484D02*
X15184586Y-12963484D01*
X15184586Y-12963484D02*
X15165539Y-12953960D01*
X15165539Y-12953960D02*
X15156015Y-12944436D01*
X15156015Y-12944436D02*
X15146491Y-12925388D01*
X15146491Y-12925388D02*
X15136967Y-12887293D01*
X15136967Y-12887293D02*
X15136967Y-12839674D01*
X15136967Y-12839674D02*
X15146491Y-12801579D01*
X15146491Y-12801579D02*
X15156015Y-12782531D01*
X15156015Y-12782531D02*
X15165539Y-12773008D01*
X15165539Y-12773008D02*
X15184586Y-12763484D01*
X15375062Y-12763484D02*
X15394110Y-12763484D01*
X15394110Y-12763484D02*
X15413158Y-12773008D01*
X15413158Y-12773008D02*
X15422682Y-12782531D01*
X15422682Y-12782531D02*
X15432205Y-12801579D01*
X15432205Y-12801579D02*
X15441729Y-12839674D01*
X15441729Y-12839674D02*
X15441729Y-12887293D01*
X15441729Y-12887293D02*
X15432205Y-12925388D01*
X15432205Y-12925388D02*
X15422682Y-12944436D01*
X15422682Y-12944436D02*
X15413158Y-12953960D01*
X15413158Y-12953960D02*
X15394110Y-12963484D01*
X15394110Y-12963484D02*
X15375062Y-12963484D01*
X15375062Y-12963484D02*
X15356015Y-12953960D01*
X15356015Y-12953960D02*
X15346491Y-12944436D01*
X15346491Y-12944436D02*
X15336967Y-12925388D01*
X15336967Y-12925388D02*
X15327443Y-12887293D01*
X15327443Y-12887293D02*
X15327443Y-12839674D01*
X15327443Y-12839674D02*
X15336967Y-12801579D01*
X15336967Y-12801579D02*
X15346491Y-12782531D01*
X15346491Y-12782531D02*
X15356015Y-12773008D01*
X15356015Y-12773008D02*
X15375062Y-12763484D01*
X15565539Y-12763484D02*
X15584586Y-12763484D01*
X15584586Y-12763484D02*
X15603634Y-12773008D01*
X15603634Y-12773008D02*
X15613158Y-12782531D01*
X15613158Y-12782531D02*
X15622682Y-12801579D01*
X15622682Y-12801579D02*
X15632205Y-12839674D01*
X15632205Y-12839674D02*
X15632205Y-12887293D01*
X15632205Y-12887293D02*
X15622682Y-12925388D01*
X15622682Y-12925388D02*
X15613158Y-12944436D01*
X15613158Y-12944436D02*
X15603634Y-12953960D01*
X15603634Y-12953960D02*
X15584586Y-12963484D01*
X15584586Y-12963484D02*
X15565539Y-12963484D01*
X15565539Y-12963484D02*
X15546491Y-12953960D01*
X15546491Y-12953960D02*
X15536967Y-12944436D01*
X15536967Y-12944436D02*
X15527443Y-12925388D01*
X15527443Y-12925388D02*
X15517920Y-12887293D01*
X15517920Y-12887293D02*
X15517920Y-12839674D01*
X15517920Y-12839674D02*
X15527443Y-12801579D01*
X15527443Y-12801579D02*
X15536967Y-12782531D01*
X15536967Y-12782531D02*
X15546491Y-12773008D01*
X15546491Y-12773008D02*
X15565539Y-12763484D01*
X15717920Y-12963484D02*
X15717920Y-12830150D01*
X15717920Y-12849198D02*
X15727443Y-12839674D01*
X15727443Y-12839674D02*
X15746491Y-12830150D01*
X15746491Y-12830150D02*
X15775063Y-12830150D01*
X15775063Y-12830150D02*
X15794110Y-12839674D01*
X15794110Y-12839674D02*
X15803634Y-12858722D01*
X15803634Y-12858722D02*
X15803634Y-12963484D01*
X15803634Y-12858722D02*
X15813158Y-12839674D01*
X15813158Y-12839674D02*
X15832205Y-12830150D01*
X15832205Y-12830150D02*
X15860777Y-12830150D01*
X15860777Y-12830150D02*
X15879824Y-12839674D01*
X15879824Y-12839674D02*
X15889348Y-12858722D01*
X15889348Y-12858722D02*
X15889348Y-12963484D01*
X15984586Y-12963484D02*
X15984586Y-12830150D01*
X15984586Y-12849198D02*
X15994110Y-12839674D01*
X15994110Y-12839674D02*
X16013158Y-12830150D01*
X16013158Y-12830150D02*
X16041729Y-12830150D01*
X16041729Y-12830150D02*
X16060777Y-12839674D01*
X16060777Y-12839674D02*
X16070301Y-12858722D01*
X16070301Y-12858722D02*
X16070301Y-12963484D01*
X16070301Y-12858722D02*
X16079824Y-12839674D01*
X16079824Y-12839674D02*
X16098872Y-12830150D01*
X16098872Y-12830150D02*
X16127443Y-12830150D01*
X16127443Y-12830150D02*
X16146491Y-12839674D01*
X16146491Y-12839674D02*
X16156015Y-12858722D01*
X16156015Y-12858722D02*
X16156015Y-12963484D01*
X16546491Y-12753960D02*
X16375063Y-13011103D01*
X16803634Y-12763484D02*
X16822682Y-12763484D01*
X16822682Y-12763484D02*
X16841729Y-12773008D01*
X16841729Y-12773008D02*
X16851253Y-12782531D01*
X16851253Y-12782531D02*
X16860777Y-12801579D01*
X16860777Y-12801579D02*
X16870301Y-12839674D01*
X16870301Y-12839674D02*
X16870301Y-12887293D01*
X16870301Y-12887293D02*
X16860777Y-12925388D01*
X16860777Y-12925388D02*
X16851253Y-12944436D01*
X16851253Y-12944436D02*
X16841729Y-12953960D01*
X16841729Y-12953960D02*
X16822682Y-12963484D01*
X16822682Y-12963484D02*
X16803634Y-12963484D01*
X16803634Y-12963484D02*
X16784587Y-12953960D01*
X16784587Y-12953960D02*
X16775063Y-12944436D01*
X16775063Y-12944436D02*
X16765539Y-12925388D01*
X16765539Y-12925388D02*
X16756015Y-12887293D01*
X16756015Y-12887293D02*
X16756015Y-12839674D01*
X16756015Y-12839674D02*
X16765539Y-12801579D01*
X16765539Y-12801579D02*
X16775063Y-12782531D01*
X16775063Y-12782531D02*
X16784587Y-12773008D01*
X16784587Y-12773008D02*
X16803634Y-12763484D01*
X16956015Y-12944436D02*
X16965539Y-12953960D01*
X16965539Y-12953960D02*
X16956015Y-12963484D01*
X16956015Y-12963484D02*
X16946491Y-12953960D01*
X16946491Y-12953960D02*
X16956015Y-12944436D01*
X16956015Y-12944436D02*
X16956015Y-12963484D01*
X17089348Y-12763484D02*
X17108396Y-12763484D01*
X17108396Y-12763484D02*
X17127444Y-12773008D01*
X17127444Y-12773008D02*
X17136968Y-12782531D01*
X17136968Y-12782531D02*
X17146491Y-12801579D01*
X17146491Y-12801579D02*
X17156015Y-12839674D01*
X17156015Y-12839674D02*
X17156015Y-12887293D01*
X17156015Y-12887293D02*
X17146491Y-12925388D01*
X17146491Y-12925388D02*
X17136968Y-12944436D01*
X17136968Y-12944436D02*
X17127444Y-12953960D01*
X17127444Y-12953960D02*
X17108396Y-12963484D01*
X17108396Y-12963484D02*
X17089348Y-12963484D01*
X17089348Y-12963484D02*
X17070301Y-12953960D01*
X17070301Y-12953960D02*
X17060777Y-12944436D01*
X17060777Y-12944436D02*
X17051253Y-12925388D01*
X17051253Y-12925388D02*
X17041729Y-12887293D01*
X17041729Y-12887293D02*
X17041729Y-12839674D01*
X17041729Y-12839674D02*
X17051253Y-12801579D01*
X17051253Y-12801579D02*
X17060777Y-12782531D01*
X17060777Y-12782531D02*
X17070301Y-12773008D01*
X17070301Y-12773008D02*
X17089348Y-12763484D01*
X17222682Y-12763484D02*
X17346491Y-12763484D01*
X17346491Y-12763484D02*
X17279825Y-12839674D01*
X17279825Y-12839674D02*
X17308396Y-12839674D01*
X17308396Y-12839674D02*
X17327444Y-12849198D01*
X17327444Y-12849198D02*
X17336968Y-12858722D01*
X17336968Y-12858722D02*
X17346491Y-12877769D01*
X17346491Y-12877769D02*
X17346491Y-12925388D01*
X17346491Y-12925388D02*
X17336968Y-12944436D01*
X17336968Y-12944436D02*
X17327444Y-12953960D01*
X17327444Y-12953960D02*
X17308396Y-12963484D01*
X17308396Y-12963484D02*
X17251253Y-12963484D01*
X17251253Y-12963484D02*
X17232206Y-12953960D01*
X17232206Y-12953960D02*
X17222682Y-12944436D01*
X17441729Y-12963484D02*
X17479825Y-12963484D01*
X17479825Y-12963484D02*
X17498872Y-12953960D01*
X17498872Y-12953960D02*
X17508396Y-12944436D01*
X17508396Y-12944436D02*
X17527444Y-12915865D01*
X17527444Y-12915865D02*
X17536968Y-12877769D01*
X17536968Y-12877769D02*
X17536968Y-12801579D01*
X17536968Y-12801579D02*
X17527444Y-12782531D01*
X17527444Y-12782531D02*
X17517920Y-12773008D01*
X17517920Y-12773008D02*
X17498872Y-12763484D01*
X17498872Y-12763484D02*
X17460777Y-12763484D01*
X17460777Y-12763484D02*
X17441729Y-12773008D01*
X17441729Y-12773008D02*
X17432206Y-12782531D01*
X17432206Y-12782531D02*
X17422682Y-12801579D01*
X17422682Y-12801579D02*
X17422682Y-12849198D01*
X17422682Y-12849198D02*
X17432206Y-12868246D01*
X17432206Y-12868246D02*
X17441729Y-12877769D01*
X17441729Y-12877769D02*
X17460777Y-12887293D01*
X17460777Y-12887293D02*
X17498872Y-12887293D01*
X17498872Y-12887293D02*
X17517920Y-12877769D01*
X17517920Y-12877769D02*
X17527444Y-12868246D01*
X17527444Y-12868246D02*
X17536968Y-12849198D01*
X17708396Y-12830150D02*
X17708396Y-12963484D01*
X17660777Y-12753960D02*
X17613158Y-12896817D01*
X17613158Y-12896817D02*
X17736968Y-12896817D01*
X17803634Y-12763484D02*
X17803634Y-12801579D01*
X17879825Y-12763484D02*
X17879825Y-12801579D01*
X18175063Y-13039674D02*
X18165539Y-13030150D01*
X18165539Y-13030150D02*
X18146491Y-13001579D01*
X18146491Y-13001579D02*
X18136968Y-12982531D01*
X18136968Y-12982531D02*
X18127444Y-12953960D01*
X18127444Y-12953960D02*
X18117920Y-12906341D01*
X18117920Y-12906341D02*
X18117920Y-12868246D01*
X18117920Y-12868246D02*
X18127444Y-12820627D01*
X18127444Y-12820627D02*
X18136968Y-12792055D01*
X18136968Y-12792055D02*
X18146491Y-12773008D01*
X18146491Y-12773008D02*
X18165539Y-12744436D01*
X18165539Y-12744436D02*
X18175063Y-12734912D01*
X18232206Y-12763484D02*
X18356015Y-12763484D01*
X18356015Y-12763484D02*
X18289349Y-12839674D01*
X18289349Y-12839674D02*
X18317920Y-12839674D01*
X18317920Y-12839674D02*
X18336968Y-12849198D01*
X18336968Y-12849198D02*
X18346491Y-12858722D01*
X18346491Y-12858722D02*
X18356015Y-12877769D01*
X18356015Y-12877769D02*
X18356015Y-12925388D01*
X18356015Y-12925388D02*
X18346491Y-12944436D01*
X18346491Y-12944436D02*
X18336968Y-12953960D01*
X18336968Y-12953960D02*
X18317920Y-12963484D01*
X18317920Y-12963484D02*
X18260777Y-12963484D01*
X18260777Y-12963484D02*
X18241730Y-12953960D01*
X18241730Y-12953960D02*
X18232206Y-12944436D01*
X18527444Y-12763484D02*
X18489349Y-12763484D01*
X18489349Y-12763484D02*
X18470301Y-12773008D01*
X18470301Y-12773008D02*
X18460777Y-12782531D01*
X18460777Y-12782531D02*
X18441730Y-12811103D01*
X18441730Y-12811103D02*
X18432206Y-12849198D01*
X18432206Y-12849198D02*
X18432206Y-12925388D01*
X18432206Y-12925388D02*
X18441730Y-12944436D01*
X18441730Y-12944436D02*
X18451253Y-12953960D01*
X18451253Y-12953960D02*
X18470301Y-12963484D01*
X18470301Y-12963484D02*
X18508396Y-12963484D01*
X18508396Y-12963484D02*
X18527444Y-12953960D01*
X18527444Y-12953960D02*
X18536968Y-12944436D01*
X18536968Y-12944436D02*
X18546491Y-12925388D01*
X18546491Y-12925388D02*
X18546491Y-12877769D01*
X18546491Y-12877769D02*
X18536968Y-12858722D01*
X18536968Y-12858722D02*
X18527444Y-12849198D01*
X18527444Y-12849198D02*
X18508396Y-12839674D01*
X18508396Y-12839674D02*
X18470301Y-12839674D01*
X18470301Y-12839674D02*
X18451253Y-12849198D01*
X18451253Y-12849198D02*
X18441730Y-12858722D01*
X18441730Y-12858722D02*
X18432206Y-12877769D01*
X18784587Y-12963484D02*
X18784587Y-12763484D01*
X18870301Y-12963484D02*
X18870301Y-12858722D01*
X18870301Y-12858722D02*
X18860777Y-12839674D01*
X18860777Y-12839674D02*
X18841730Y-12830150D01*
X18841730Y-12830150D02*
X18813158Y-12830150D01*
X18813158Y-12830150D02*
X18794111Y-12839674D01*
X18794111Y-12839674D02*
X18784587Y-12849198D01*
X18994111Y-12963484D02*
X18975063Y-12953960D01*
X18975063Y-12953960D02*
X18965539Y-12944436D01*
X18965539Y-12944436D02*
X18956015Y-12925388D01*
X18956015Y-12925388D02*
X18956015Y-12868246D01*
X18956015Y-12868246D02*
X18965539Y-12849198D01*
X18965539Y-12849198D02*
X18975063Y-12839674D01*
X18975063Y-12839674D02*
X18994111Y-12830150D01*
X18994111Y-12830150D02*
X19022682Y-12830150D01*
X19022682Y-12830150D02*
X19041730Y-12839674D01*
X19041730Y-12839674D02*
X19051253Y-12849198D01*
X19051253Y-12849198D02*
X19060777Y-12868246D01*
X19060777Y-12868246D02*
X19060777Y-12925388D01*
X19060777Y-12925388D02*
X19051253Y-12944436D01*
X19051253Y-12944436D02*
X19041730Y-12953960D01*
X19041730Y-12953960D02*
X19022682Y-12963484D01*
X19022682Y-12963484D02*
X18994111Y-12963484D01*
X19175063Y-12963484D02*
X19156015Y-12953960D01*
X19156015Y-12953960D02*
X19146492Y-12934912D01*
X19146492Y-12934912D02*
X19146492Y-12763484D01*
X19327444Y-12953960D02*
X19308396Y-12963484D01*
X19308396Y-12963484D02*
X19270301Y-12963484D01*
X19270301Y-12963484D02*
X19251253Y-12953960D01*
X19251253Y-12953960D02*
X19241730Y-12934912D01*
X19241730Y-12934912D02*
X19241730Y-12858722D01*
X19241730Y-12858722D02*
X19251253Y-12839674D01*
X19251253Y-12839674D02*
X19270301Y-12830150D01*
X19270301Y-12830150D02*
X19308396Y-12830150D01*
X19308396Y-12830150D02*
X19327444Y-12839674D01*
X19327444Y-12839674D02*
X19336968Y-12858722D01*
X19336968Y-12858722D02*
X19336968Y-12877769D01*
X19336968Y-12877769D02*
X19241730Y-12896817D01*
X19413158Y-12953960D02*
X19432206Y-12963484D01*
X19432206Y-12963484D02*
X19470301Y-12963484D01*
X19470301Y-12963484D02*
X19489349Y-12953960D01*
X19489349Y-12953960D02*
X19498873Y-12934912D01*
X19498873Y-12934912D02*
X19498873Y-12925388D01*
X19498873Y-12925388D02*
X19489349Y-12906341D01*
X19489349Y-12906341D02*
X19470301Y-12896817D01*
X19470301Y-12896817D02*
X19441730Y-12896817D01*
X19441730Y-12896817D02*
X19422682Y-12887293D01*
X19422682Y-12887293D02*
X19413158Y-12868246D01*
X19413158Y-12868246D02*
X19413158Y-12858722D01*
X19413158Y-12858722D02*
X19422682Y-12839674D01*
X19422682Y-12839674D02*
X19441730Y-12830150D01*
X19441730Y-12830150D02*
X19470301Y-12830150D01*
X19470301Y-12830150D02*
X19489349Y-12839674D01*
X19565539Y-13039674D02*
X19575063Y-13030150D01*
X19575063Y-13030150D02*
X19594111Y-13001579D01*
X19594111Y-13001579D02*
X19603634Y-12982531D01*
X19603634Y-12982531D02*
X19613158Y-12953960D01*
X19613158Y-12953960D02*
X19622682Y-12906341D01*
X19622682Y-12906341D02*
X19622682Y-12868246D01*
X19622682Y-12868246D02*
X19613158Y-12820627D01*
X19613158Y-12820627D02*
X19603634Y-12792055D01*
X19603634Y-12792055D02*
X19594111Y-12773008D01*
X19594111Y-12773008D02*
X19575063Y-12744436D01*
X19575063Y-12744436D02*
X19565539Y-12734912D01*
D12*
X14505000Y-13231000D02*
X14600000Y-13136000D01*
X14505000Y-13041000D01*
X14410000Y-13136000D01*
X14505000Y-13231000D01*
D10*
X14965539Y-13227484D02*
X14851253Y-13227484D01*
X14908396Y-13227484D02*
X14908396Y-13027484D01*
X14908396Y-13027484D02*
X14889348Y-13056055D01*
X14889348Y-13056055D02*
X14870301Y-13075103D01*
X14870301Y-13075103D02*
X14851253Y-13084627D01*
X15051253Y-13208436D02*
X15060777Y-13217960D01*
X15060777Y-13217960D02*
X15051253Y-13227484D01*
X15051253Y-13227484D02*
X15041729Y-13217960D01*
X15041729Y-13217960D02*
X15051253Y-13208436D01*
X15051253Y-13208436D02*
X15051253Y-13227484D01*
X15156015Y-13227484D02*
X15194110Y-13227484D01*
X15194110Y-13227484D02*
X15213158Y-13217960D01*
X15213158Y-13217960D02*
X15222682Y-13208436D01*
X15222682Y-13208436D02*
X15241729Y-13179865D01*
X15241729Y-13179865D02*
X15251253Y-13141769D01*
X15251253Y-13141769D02*
X15251253Y-13065579D01*
X15251253Y-13065579D02*
X15241729Y-13046531D01*
X15241729Y-13046531D02*
X15232205Y-13037008D01*
X15232205Y-13037008D02*
X15213158Y-13027484D01*
X15213158Y-13027484D02*
X15175062Y-13027484D01*
X15175062Y-13027484D02*
X15156015Y-13037008D01*
X15156015Y-13037008D02*
X15146491Y-13046531D01*
X15146491Y-13046531D02*
X15136967Y-13065579D01*
X15136967Y-13065579D02*
X15136967Y-13113198D01*
X15136967Y-13113198D02*
X15146491Y-13132246D01*
X15146491Y-13132246D02*
X15156015Y-13141769D01*
X15156015Y-13141769D02*
X15175062Y-13151293D01*
X15175062Y-13151293D02*
X15213158Y-13151293D01*
X15213158Y-13151293D02*
X15232205Y-13141769D01*
X15232205Y-13141769D02*
X15241729Y-13132246D01*
X15241729Y-13132246D02*
X15251253Y-13113198D01*
X15375062Y-13027484D02*
X15394110Y-13027484D01*
X15394110Y-13027484D02*
X15413158Y-13037008D01*
X15413158Y-13037008D02*
X15422682Y-13046531D01*
X15422682Y-13046531D02*
X15432205Y-13065579D01*
X15432205Y-13065579D02*
X15441729Y-13103674D01*
X15441729Y-13103674D02*
X15441729Y-13151293D01*
X15441729Y-13151293D02*
X15432205Y-13189388D01*
X15432205Y-13189388D02*
X15422682Y-13208436D01*
X15422682Y-13208436D02*
X15413158Y-13217960D01*
X15413158Y-13217960D02*
X15394110Y-13227484D01*
X15394110Y-13227484D02*
X15375062Y-13227484D01*
X15375062Y-13227484D02*
X15356015Y-13217960D01*
X15356015Y-13217960D02*
X15346491Y-13208436D01*
X15346491Y-13208436D02*
X15336967Y-13189388D01*
X15336967Y-13189388D02*
X15327443Y-13151293D01*
X15327443Y-13151293D02*
X15327443Y-13103674D01*
X15327443Y-13103674D02*
X15336967Y-13065579D01*
X15336967Y-13065579D02*
X15346491Y-13046531D01*
X15346491Y-13046531D02*
X15356015Y-13037008D01*
X15356015Y-13037008D02*
X15375062Y-13027484D01*
X15565539Y-13027484D02*
X15584586Y-13027484D01*
X15584586Y-13027484D02*
X15603634Y-13037008D01*
X15603634Y-13037008D02*
X15613158Y-13046531D01*
X15613158Y-13046531D02*
X15622682Y-13065579D01*
X15622682Y-13065579D02*
X15632205Y-13103674D01*
X15632205Y-13103674D02*
X15632205Y-13151293D01*
X15632205Y-13151293D02*
X15622682Y-13189388D01*
X15622682Y-13189388D02*
X15613158Y-13208436D01*
X15613158Y-13208436D02*
X15603634Y-13217960D01*
X15603634Y-13217960D02*
X15584586Y-13227484D01*
X15584586Y-13227484D02*
X15565539Y-13227484D01*
X15565539Y-13227484D02*
X15546491Y-13217960D01*
X15546491Y-13217960D02*
X15536967Y-13208436D01*
X15536967Y-13208436D02*
X15527443Y-13189388D01*
X15527443Y-13189388D02*
X15517920Y-13151293D01*
X15517920Y-13151293D02*
X15517920Y-13103674D01*
X15517920Y-13103674D02*
X15527443Y-13065579D01*
X15527443Y-13065579D02*
X15536967Y-13046531D01*
X15536967Y-13046531D02*
X15546491Y-13037008D01*
X15546491Y-13037008D02*
X15565539Y-13027484D01*
X15717920Y-13227484D02*
X15717920Y-13094150D01*
X15717920Y-13113198D02*
X15727443Y-13103674D01*
X15727443Y-13103674D02*
X15746491Y-13094150D01*
X15746491Y-13094150D02*
X15775063Y-13094150D01*
X15775063Y-13094150D02*
X15794110Y-13103674D01*
X15794110Y-13103674D02*
X15803634Y-13122722D01*
X15803634Y-13122722D02*
X15803634Y-13227484D01*
X15803634Y-13122722D02*
X15813158Y-13103674D01*
X15813158Y-13103674D02*
X15832205Y-13094150D01*
X15832205Y-13094150D02*
X15860777Y-13094150D01*
X15860777Y-13094150D02*
X15879824Y-13103674D01*
X15879824Y-13103674D02*
X15889348Y-13122722D01*
X15889348Y-13122722D02*
X15889348Y-13227484D01*
X15984586Y-13227484D02*
X15984586Y-13094150D01*
X15984586Y-13113198D02*
X15994110Y-13103674D01*
X15994110Y-13103674D02*
X16013158Y-13094150D01*
X16013158Y-13094150D02*
X16041729Y-13094150D01*
X16041729Y-13094150D02*
X16060777Y-13103674D01*
X16060777Y-13103674D02*
X16070301Y-13122722D01*
X16070301Y-13122722D02*
X16070301Y-13227484D01*
X16070301Y-13122722D02*
X16079824Y-13103674D01*
X16079824Y-13103674D02*
X16098872Y-13094150D01*
X16098872Y-13094150D02*
X16127443Y-13094150D01*
X16127443Y-13094150D02*
X16146491Y-13103674D01*
X16146491Y-13103674D02*
X16156015Y-13122722D01*
X16156015Y-13122722D02*
X16156015Y-13227484D01*
X16546491Y-13017960D02*
X16375063Y-13275103D01*
X16803634Y-13027484D02*
X16822682Y-13027484D01*
X16822682Y-13027484D02*
X16841729Y-13037008D01*
X16841729Y-13037008D02*
X16851253Y-13046531D01*
X16851253Y-13046531D02*
X16860777Y-13065579D01*
X16860777Y-13065579D02*
X16870301Y-13103674D01*
X16870301Y-13103674D02*
X16870301Y-13151293D01*
X16870301Y-13151293D02*
X16860777Y-13189388D01*
X16860777Y-13189388D02*
X16851253Y-13208436D01*
X16851253Y-13208436D02*
X16841729Y-13217960D01*
X16841729Y-13217960D02*
X16822682Y-13227484D01*
X16822682Y-13227484D02*
X16803634Y-13227484D01*
X16803634Y-13227484D02*
X16784587Y-13217960D01*
X16784587Y-13217960D02*
X16775063Y-13208436D01*
X16775063Y-13208436D02*
X16765539Y-13189388D01*
X16765539Y-13189388D02*
X16756015Y-13151293D01*
X16756015Y-13151293D02*
X16756015Y-13103674D01*
X16756015Y-13103674D02*
X16765539Y-13065579D01*
X16765539Y-13065579D02*
X16775063Y-13046531D01*
X16775063Y-13046531D02*
X16784587Y-13037008D01*
X16784587Y-13037008D02*
X16803634Y-13027484D01*
X16956015Y-13208436D02*
X16965539Y-13217960D01*
X16965539Y-13217960D02*
X16956015Y-13227484D01*
X16956015Y-13227484D02*
X16946491Y-13217960D01*
X16946491Y-13217960D02*
X16956015Y-13208436D01*
X16956015Y-13208436D02*
X16956015Y-13227484D01*
X17089348Y-13027484D02*
X17108396Y-13027484D01*
X17108396Y-13027484D02*
X17127444Y-13037008D01*
X17127444Y-13037008D02*
X17136968Y-13046531D01*
X17136968Y-13046531D02*
X17146491Y-13065579D01*
X17146491Y-13065579D02*
X17156015Y-13103674D01*
X17156015Y-13103674D02*
X17156015Y-13151293D01*
X17156015Y-13151293D02*
X17146491Y-13189388D01*
X17146491Y-13189388D02*
X17136968Y-13208436D01*
X17136968Y-13208436D02*
X17127444Y-13217960D01*
X17127444Y-13217960D02*
X17108396Y-13227484D01*
X17108396Y-13227484D02*
X17089348Y-13227484D01*
X17089348Y-13227484D02*
X17070301Y-13217960D01*
X17070301Y-13217960D02*
X17060777Y-13208436D01*
X17060777Y-13208436D02*
X17051253Y-13189388D01*
X17051253Y-13189388D02*
X17041729Y-13151293D01*
X17041729Y-13151293D02*
X17041729Y-13103674D01*
X17041729Y-13103674D02*
X17051253Y-13065579D01*
X17051253Y-13065579D02*
X17060777Y-13046531D01*
X17060777Y-13046531D02*
X17070301Y-13037008D01*
X17070301Y-13037008D02*
X17089348Y-13027484D01*
X17222682Y-13027484D02*
X17356015Y-13027484D01*
X17356015Y-13027484D02*
X17270301Y-13227484D01*
X17517920Y-13094150D02*
X17517920Y-13227484D01*
X17470301Y-13017960D02*
X17422682Y-13160817D01*
X17422682Y-13160817D02*
X17546491Y-13160817D01*
X17651253Y-13113198D02*
X17632206Y-13103674D01*
X17632206Y-13103674D02*
X17622682Y-13094150D01*
X17622682Y-13094150D02*
X17613158Y-13075103D01*
X17613158Y-13075103D02*
X17613158Y-13065579D01*
X17613158Y-13065579D02*
X17622682Y-13046531D01*
X17622682Y-13046531D02*
X17632206Y-13037008D01*
X17632206Y-13037008D02*
X17651253Y-13027484D01*
X17651253Y-13027484D02*
X17689349Y-13027484D01*
X17689349Y-13027484D02*
X17708396Y-13037008D01*
X17708396Y-13037008D02*
X17717920Y-13046531D01*
X17717920Y-13046531D02*
X17727444Y-13065579D01*
X17727444Y-13065579D02*
X17727444Y-13075103D01*
X17727444Y-13075103D02*
X17717920Y-13094150D01*
X17717920Y-13094150D02*
X17708396Y-13103674D01*
X17708396Y-13103674D02*
X17689349Y-13113198D01*
X17689349Y-13113198D02*
X17651253Y-13113198D01*
X17651253Y-13113198D02*
X17632206Y-13122722D01*
X17632206Y-13122722D02*
X17622682Y-13132246D01*
X17622682Y-13132246D02*
X17613158Y-13151293D01*
X17613158Y-13151293D02*
X17613158Y-13189388D01*
X17613158Y-13189388D02*
X17622682Y-13208436D01*
X17622682Y-13208436D02*
X17632206Y-13217960D01*
X17632206Y-13217960D02*
X17651253Y-13227484D01*
X17651253Y-13227484D02*
X17689349Y-13227484D01*
X17689349Y-13227484D02*
X17708396Y-13217960D01*
X17708396Y-13217960D02*
X17717920Y-13208436D01*
X17717920Y-13208436D02*
X17727444Y-13189388D01*
X17727444Y-13189388D02*
X17727444Y-13151293D01*
X17727444Y-13151293D02*
X17717920Y-13132246D01*
X17717920Y-13132246D02*
X17708396Y-13122722D01*
X17708396Y-13122722D02*
X17689349Y-13113198D01*
X17803634Y-13027484D02*
X17803634Y-13065579D01*
X17879825Y-13027484D02*
X17879825Y-13065579D01*
X18175063Y-13303674D02*
X18165539Y-13294150D01*
X18165539Y-13294150D02*
X18146491Y-13265579D01*
X18146491Y-13265579D02*
X18136968Y-13246531D01*
X18136968Y-13246531D02*
X18127444Y-13217960D01*
X18127444Y-13217960D02*
X18117920Y-13170341D01*
X18117920Y-13170341D02*
X18117920Y-13132246D01*
X18117920Y-13132246D02*
X18127444Y-13084627D01*
X18127444Y-13084627D02*
X18136968Y-13056055D01*
X18136968Y-13056055D02*
X18146491Y-13037008D01*
X18146491Y-13037008D02*
X18165539Y-13008436D01*
X18165539Y-13008436D02*
X18175063Y-12998912D01*
X18241730Y-13046531D02*
X18251253Y-13037008D01*
X18251253Y-13037008D02*
X18270301Y-13027484D01*
X18270301Y-13027484D02*
X18317920Y-13027484D01*
X18317920Y-13027484D02*
X18336968Y-13037008D01*
X18336968Y-13037008D02*
X18346491Y-13046531D01*
X18346491Y-13046531D02*
X18356015Y-13065579D01*
X18356015Y-13065579D02*
X18356015Y-13084627D01*
X18356015Y-13084627D02*
X18346491Y-13113198D01*
X18346491Y-13113198D02*
X18232206Y-13227484D01*
X18232206Y-13227484D02*
X18356015Y-13227484D01*
X18594111Y-13227484D02*
X18594111Y-13027484D01*
X18679825Y-13227484D02*
X18679825Y-13122722D01*
X18679825Y-13122722D02*
X18670301Y-13103674D01*
X18670301Y-13103674D02*
X18651253Y-13094150D01*
X18651253Y-13094150D02*
X18622682Y-13094150D01*
X18622682Y-13094150D02*
X18603634Y-13103674D01*
X18603634Y-13103674D02*
X18594111Y-13113198D01*
X18803634Y-13227484D02*
X18784587Y-13217960D01*
X18784587Y-13217960D02*
X18775063Y-13208436D01*
X18775063Y-13208436D02*
X18765539Y-13189388D01*
X18765539Y-13189388D02*
X18765539Y-13132246D01*
X18765539Y-13132246D02*
X18775063Y-13113198D01*
X18775063Y-13113198D02*
X18784587Y-13103674D01*
X18784587Y-13103674D02*
X18803634Y-13094150D01*
X18803634Y-13094150D02*
X18832206Y-13094150D01*
X18832206Y-13094150D02*
X18851253Y-13103674D01*
X18851253Y-13103674D02*
X18860777Y-13113198D01*
X18860777Y-13113198D02*
X18870301Y-13132246D01*
X18870301Y-13132246D02*
X18870301Y-13189388D01*
X18870301Y-13189388D02*
X18860777Y-13208436D01*
X18860777Y-13208436D02*
X18851253Y-13217960D01*
X18851253Y-13217960D02*
X18832206Y-13227484D01*
X18832206Y-13227484D02*
X18803634Y-13227484D01*
X18984587Y-13227484D02*
X18965539Y-13217960D01*
X18965539Y-13217960D02*
X18956015Y-13198912D01*
X18956015Y-13198912D02*
X18956015Y-13027484D01*
X19136968Y-13217960D02*
X19117920Y-13227484D01*
X19117920Y-13227484D02*
X19079825Y-13227484D01*
X19079825Y-13227484D02*
X19060777Y-13217960D01*
X19060777Y-13217960D02*
X19051253Y-13198912D01*
X19051253Y-13198912D02*
X19051253Y-13122722D01*
X19051253Y-13122722D02*
X19060777Y-13103674D01*
X19060777Y-13103674D02*
X19079825Y-13094150D01*
X19079825Y-13094150D02*
X19117920Y-13094150D01*
X19117920Y-13094150D02*
X19136968Y-13103674D01*
X19136968Y-13103674D02*
X19146492Y-13122722D01*
X19146492Y-13122722D02*
X19146492Y-13141769D01*
X19146492Y-13141769D02*
X19051253Y-13160817D01*
X19222682Y-13217960D02*
X19241730Y-13227484D01*
X19241730Y-13227484D02*
X19279825Y-13227484D01*
X19279825Y-13227484D02*
X19298873Y-13217960D01*
X19298873Y-13217960D02*
X19308396Y-13198912D01*
X19308396Y-13198912D02*
X19308396Y-13189388D01*
X19308396Y-13189388D02*
X19298873Y-13170341D01*
X19298873Y-13170341D02*
X19279825Y-13160817D01*
X19279825Y-13160817D02*
X19251253Y-13160817D01*
X19251253Y-13160817D02*
X19232206Y-13151293D01*
X19232206Y-13151293D02*
X19222682Y-13132246D01*
X19222682Y-13132246D02*
X19222682Y-13122722D01*
X19222682Y-13122722D02*
X19232206Y-13103674D01*
X19232206Y-13103674D02*
X19251253Y-13094150D01*
X19251253Y-13094150D02*
X19279825Y-13094150D01*
X19279825Y-13094150D02*
X19298873Y-13103674D01*
X19375063Y-13303674D02*
X19384587Y-13294150D01*
X19384587Y-13294150D02*
X19403634Y-13265579D01*
X19403634Y-13265579D02*
X19413158Y-13246531D01*
X19413158Y-13246531D02*
X19422682Y-13217960D01*
X19422682Y-13217960D02*
X19432206Y-13170341D01*
X19432206Y-13170341D02*
X19432206Y-13132246D01*
X19432206Y-13132246D02*
X19422682Y-13084627D01*
X19422682Y-13084627D02*
X19413158Y-13056055D01*
X19413158Y-13056055D02*
X19403634Y-13037008D01*
X19403634Y-13037008D02*
X19384587Y-13008436D01*
X19384587Y-13008436D02*
X19375063Y-12998912D01*
M02*
