%TF.GenerationSoftware,KiCad,Pcbnew,7.0.11*%
%TF.CreationDate,2025-01-20T01:35:25+09:00*%
%TF.ProjectId,Kicker,4b69636b-6572-42e6-9b69-6361645f7063,rev?*%
%TF.SameCoordinates,Original*%
%TF.FileFunction,Paste,Top*%
%TF.FilePolarity,Positive*%
%FSLAX46Y46*%
G04 Gerber Fmt 4.6, Leading zero omitted, Abs format (unit mm)*
G04 Created by KiCad (PCBNEW 7.0.11) date 2025-01-20 01:35:25*
%MOMM*%
%LPD*%
G01*
G04 APERTURE LIST*
G04 Aperture macros list*
%AMRoundRect*
0 Rectangle with rounded corners*
0 $1 Rounding radius*
0 $2 $3 $4 $5 $6 $7 $8 $9 X,Y pos of 4 corners*
0 Add a 4 corners polygon primitive as box body*
4,1,4,$2,$3,$4,$5,$6,$7,$8,$9,$2,$3,0*
0 Add four circle primitives for the rounded corners*
1,1,$1+$1,$2,$3*
1,1,$1+$1,$4,$5*
1,1,$1+$1,$6,$7*
1,1,$1+$1,$8,$9*
0 Add four rect primitives between the rounded corners*
20,1,$1+$1,$2,$3,$4,$5,0*
20,1,$1+$1,$4,$5,$6,$7,0*
20,1,$1+$1,$6,$7,$8,$9,0*
20,1,$1+$1,$8,$9,$2,$3,0*%
G04 Aperture macros list end*
%ADD10RoundRect,0.150000X-0.150000X-0.300000X0.150000X-0.300000X0.150000X0.300000X-0.150000X0.300000X0*%
%ADD11RoundRect,0.150000X-0.300000X0.150000X-0.300000X-0.150000X0.300000X-0.150000X0.300000X0.150000X0*%
%ADD12RoundRect,0.150000X-0.375000X0.150000X-0.375000X-0.150000X0.375000X-0.150000X0.375000X0.150000X0*%
%ADD13RoundRect,0.250000X1.275000X1.125000X-1.275000X1.125000X-1.275000X-1.125000X1.275000X-1.125000X0*%
%ADD14RoundRect,0.250000X0.850000X0.350000X-0.850000X0.350000X-0.850000X-0.350000X0.850000X-0.350000X0*%
G04 APERTURE END LIST*
D10*
%TO.C,Q3*%
X154824000Y-102870000D03*
X154824000Y-104020000D03*
X154824000Y-105170000D03*
X155674000Y-102870000D03*
X155674000Y-104020000D03*
X155674000Y-105170000D03*
X156524000Y-102870000D03*
X156524000Y-104020000D03*
X156524000Y-105170000D03*
D11*
X158374000Y-102140000D03*
X158374000Y-103420000D03*
X158374000Y-104620000D03*
X158374000Y-105900000D03*
D12*
X152654000Y-105930000D03*
X152654000Y-102110000D03*
X152654000Y-103380000D03*
X152654000Y-104660000D03*
%TD*%
D10*
%TO.C,Q2*%
X154824000Y-109716000D03*
X154824000Y-110866000D03*
X154824000Y-112016000D03*
X155674000Y-109716000D03*
X155674000Y-110866000D03*
X155674000Y-112016000D03*
X156524000Y-109716000D03*
X156524000Y-110866000D03*
X156524000Y-112016000D03*
D11*
X158374000Y-108986000D03*
X158374000Y-110266000D03*
X158374000Y-111466000D03*
X158374000Y-112746000D03*
D12*
X152654000Y-112776000D03*
X152654000Y-108956000D03*
X152654000Y-110226000D03*
X152654000Y-111506000D03*
%TD*%
D13*
%TO.C,Q1*%
X172413000Y-91946500D03*
X172413000Y-88896500D03*
X169063000Y-91946500D03*
X169063000Y-88896500D03*
D14*
X177038000Y-92701500D03*
X177038000Y-88141500D03*
%TD*%
M02*
