%TF.GenerationSoftware,KiCad,Pcbnew,7.0.11*%
%TF.CreationDate,2025-01-20T01:35:25+09:00*%
%TF.ProjectId,Kicker,4b69636b-6572-42e6-9b69-6361645f7063,rev?*%
%TF.SameCoordinates,Original*%
%TF.FileFunction,Copper,L1,Top*%
%TF.FilePolarity,Positive*%
%FSLAX46Y46*%
G04 Gerber Fmt 4.6, Leading zero omitted, Abs format (unit mm)*
G04 Created by KiCad (PCBNEW 7.0.11) date 2025-01-20 01:35:25*
%MOMM*%
%LPD*%
G01*
G04 APERTURE LIST*
G04 Aperture macros list*
%AMRoundRect*
0 Rectangle with rounded corners*
0 $1 Rounding radius*
0 $2 $3 $4 $5 $6 $7 $8 $9 X,Y pos of 4 corners*
0 Add a 4 corners polygon primitive as box body*
4,1,4,$2,$3,$4,$5,$6,$7,$8,$9,$2,$3,0*
0 Add four circle primitives for the rounded corners*
1,1,$1+$1,$2,$3*
1,1,$1+$1,$4,$5*
1,1,$1+$1,$6,$7*
1,1,$1+$1,$8,$9*
0 Add four rect primitives between the rounded corners*
20,1,$1+$1,$2,$3,$4,$5,0*
20,1,$1+$1,$4,$5,$6,$7,0*
20,1,$1+$1,$6,$7,$8,$9,0*
20,1,$1+$1,$8,$9,$2,$3,0*%
%AMFreePoly0*
4,1,9,2.975000,-2.350000,1.425000,-2.350000,1.425000,-2.100000,-1.650000,-2.100000,-1.650000,2.100000,1.425000,2.100000,1.425000,2.350000,2.975000,2.350000,2.975000,-2.350000,2.975000,-2.350000,$1*%
G04 Aperture macros list end*
%TA.AperFunction,ComponentPad*%
%ADD10C,1.400000*%
%TD*%
%TA.AperFunction,ComponentPad*%
%ADD11R,3.500000X3.500000*%
%TD*%
%TA.AperFunction,ComponentPad*%
%ADD12C,3.500000*%
%TD*%
%TA.AperFunction,ComponentPad*%
%ADD13R,1.700000X1.700000*%
%TD*%
%TA.AperFunction,ComponentPad*%
%ADD14O,1.700000X1.700000*%
%TD*%
%TA.AperFunction,ComponentPad*%
%ADD15O,1.400000X1.400000*%
%TD*%
%TA.AperFunction,SMDPad,CuDef*%
%ADD16FreePoly0,0.000000*%
%TD*%
%TA.AperFunction,SMDPad,CuDef*%
%ADD17RoundRect,0.175000X-0.400000X0.175000X-0.400000X-0.175000X0.400000X-0.175000X0.400000X0.175000X0*%
%TD*%
%TA.AperFunction,ComponentPad*%
%ADD18RoundRect,0.250000X-0.750000X0.600000X-0.750000X-0.600000X0.750000X-0.600000X0.750000X0.600000X0*%
%TD*%
%TA.AperFunction,ComponentPad*%
%ADD19O,2.000000X1.700000*%
%TD*%
%TA.AperFunction,ComponentPad*%
%ADD20R,1.600000X1.600000*%
%TD*%
%TA.AperFunction,ComponentPad*%
%ADD21O,1.600000X1.600000*%
%TD*%
%TA.AperFunction,SMDPad,CuDef*%
%ADD22RoundRect,0.250000X1.275000X1.125000X-1.275000X1.125000X-1.275000X-1.125000X1.275000X-1.125000X0*%
%TD*%
%TA.AperFunction,SMDPad,CuDef*%
%ADD23RoundRect,0.249997X2.950003X2.650003X-2.950003X2.650003X-2.950003X-2.650003X2.950003X-2.650003X0*%
%TD*%
%TA.AperFunction,SMDPad,CuDef*%
%ADD24RoundRect,0.250000X0.850000X0.350000X-0.850000X0.350000X-0.850000X-0.350000X0.850000X-0.350000X0*%
%TD*%
%TA.AperFunction,ViaPad*%
%ADD25C,0.800000*%
%TD*%
%TA.AperFunction,Conductor*%
%ADD26C,2.000000*%
%TD*%
%TA.AperFunction,Conductor*%
%ADD27C,1.000000*%
%TD*%
G04 APERTURE END LIST*
D10*
%TO.P,J3,*%
%TO.N,*%
X151345000Y-80398000D03*
X162345000Y-80398000D03*
D11*
%TO.P,J3,1,Pin_1*%
%TO.N,+12V*%
X154345000Y-85398000D03*
D12*
%TO.P,J3,2,Pin_2*%
%TO.N,GND*%
X159345000Y-85398000D03*
%TD*%
D13*
%TO.P,J2,1,Pin_1*%
%TO.N,/MDTX*%
X182320000Y-103517416D03*
D14*
%TO.P,J2,2,Pin_2*%
%TO.N,/MDRX*%
X182320000Y-100977416D03*
%TO.P,J2,3,Pin_3*%
%TO.N,/BLDC1*%
X182320000Y-98437416D03*
%TO.P,J2,4,Pin_4*%
%TO.N,/BLDC2*%
X182320000Y-95897416D03*
%TO.P,J2,5,Pin_5*%
%TO.N,GND*%
X182320000Y-93357416D03*
%TO.P,J2,6,Pin_6*%
X182320000Y-90817416D03*
%TO.P,J2,7,Pin_7*%
X182320000Y-88277416D03*
%TO.P,J2,8,Pin_8*%
X182320000Y-85737416D03*
%TD*%
D10*
%TO.P,R1,1*%
%TO.N,GND*%
X167640000Y-95808000D03*
D15*
%TO.P,R1,2*%
%TO.N,Net-(R1-Pad2)*%
X167640000Y-98348000D03*
%TD*%
D10*
%TO.P,R7,1*%
%TO.N,GND*%
X165618000Y-99563000D03*
D15*
%TO.P,R7,2*%
%TO.N,Net-(R7-Pad2)*%
X165618000Y-97023000D03*
%TD*%
D16*
%TO.P,Q3,1,D*%
%TO.N,/SOLE2-*%
X155924000Y-104020000D03*
D17*
%TO.P,Q3,2,G*%
%TO.N,Net-(Q3-G)*%
X152654000Y-105930000D03*
%TO.P,Q3,3,S*%
%TO.N,GND*%
X152654000Y-102110000D03*
X152654000Y-103380000D03*
X152654000Y-104660000D03*
%TD*%
D18*
%TO.P,C1,1*%
%TO.N,/SOLE1+*%
X177292000Y-108478000D03*
D19*
%TO.P,C1,2*%
%TO.N,GND*%
X177292000Y-110978000D03*
%TD*%
D10*
%TO.P,R9,1*%
%TO.N,GND*%
X151394000Y-96819000D03*
D15*
%TO.P,R9,2*%
%TO.N,Net-(Q3-G)*%
X151394000Y-99359000D03*
%TD*%
D18*
%TO.P,J6,1,Pin_1*%
%TO.N,/SOLE1+*%
X164101000Y-108478000D03*
D19*
%TO.P,J6,2,Pin_2*%
%TO.N,/SOLE2-*%
X164101000Y-110978000D03*
%TD*%
D10*
%TO.P,R8,1*%
%TO.N,Net-(R8-Pad1)*%
X153426000Y-96819000D03*
D15*
%TO.P,R8,2*%
%TO.N,Net-(Q3-G)*%
X153426000Y-99359000D03*
%TD*%
D20*
%TO.P,U1,1*%
%TO.N,/FET1*%
X169936000Y-95753000D03*
D21*
%TO.P,U1,2*%
%TO.N,Net-(R1-Pad2)*%
X169936000Y-98293000D03*
%TO.P,U1,3*%
%TO.N,Net-(R2-Pad2)*%
X177556000Y-98293000D03*
%TO.P,U1,4*%
%TO.N,Net-(Q1-G)*%
X177556000Y-95753000D03*
%TD*%
D16*
%TO.P,Q2,1,D*%
%TO.N,/SOLE1-*%
X155924000Y-110866000D03*
D17*
%TO.P,Q2,2,G*%
%TO.N,Net-(Q2-G)*%
X152654000Y-112776000D03*
%TO.P,Q2,3,S*%
%TO.N,GND*%
X152654000Y-108956000D03*
X152654000Y-110226000D03*
X152654000Y-111506000D03*
%TD*%
D22*
%TO.P,Q1,1,D*%
%TO.N,/SOLE1+*%
X172413000Y-91946500D03*
X172413000Y-88896500D03*
D23*
X170738000Y-90421500D03*
D22*
X169063000Y-91946500D03*
X169063000Y-88896500D03*
D24*
%TO.P,Q1,2,G*%
%TO.N,Net-(Q1-G)*%
X177038000Y-92701500D03*
%TO.P,Q1,3,S*%
%TO.N,+48V*%
X177038000Y-88141500D03*
%TD*%
D10*
%TO.P,R6,1*%
%TO.N,GND*%
X151384000Y-91648000D03*
D15*
%TO.P,R6,2*%
%TO.N,Net-(Q2-G)*%
X151384000Y-94188000D03*
%TD*%
D10*
%TO.P,R3,1*%
%TO.N,+48V*%
X179578000Y-87884000D03*
D15*
%TO.P,R3,2*%
%TO.N,Net-(Q1-G)*%
X179578000Y-92964000D03*
%TD*%
D13*
%TO.P,J4,1,Pin_1*%
%TO.N,/MDTX*%
X165608000Y-83882000D03*
D14*
%TO.P,J4,2,Pin_2*%
%TO.N,/MDRX*%
X165608000Y-81342000D03*
%TO.P,J4,3,Pin_3*%
%TO.N,/FET1*%
X168148000Y-83882000D03*
%TO.P,J4,4,Pin_4*%
%TO.N,/FET2*%
X168148000Y-81342000D03*
%TO.P,J4,5,Pin_5*%
%TO.N,/FET3*%
X170688000Y-83882000D03*
%TO.P,J4,6,Pin_6*%
%TO.N,/BLDC1*%
X170688000Y-81342000D03*
%TO.P,J4,7,Pin_7*%
%TO.N,+48V*%
X173228000Y-83882000D03*
%TO.P,J4,8,Pin_8*%
%TO.N,/BLDC2*%
X173228000Y-81342000D03*
%TO.P,J4,9*%
%TO.N,N/C*%
X175768000Y-83882000D03*
%TO.P,J4,10*%
X175768000Y-81342000D03*
%TO.P,J4,11*%
X178308000Y-83882000D03*
%TO.P,J4,12*%
X178308000Y-81342000D03*
%TD*%
D13*
%TO.P,J1,1,Pin_1*%
%TO.N,+12V*%
X147878000Y-103517416D03*
D14*
%TO.P,J1,2,Pin_2*%
X147878000Y-100977416D03*
%TO.P,J1,3,Pin_3*%
X147878000Y-98437416D03*
%TO.P,J1,4,Pin_4*%
X147878000Y-95897416D03*
%TO.P,J1,5,Pin_5*%
X147878000Y-93357416D03*
%TO.P,J1,6,Pin_6*%
X147878000Y-90817416D03*
%TO.P,J1,7,Pin_7*%
X147878000Y-88277416D03*
%TO.P,J1,8,Pin_8*%
X147878000Y-85737416D03*
%TD*%
D20*
%TO.P,U3,1*%
%TO.N,/FET3*%
X163332000Y-99563000D03*
D21*
%TO.P,U3,2*%
%TO.N,Net-(R7-Pad2)*%
X163332000Y-97023000D03*
%TO.P,U3,3*%
%TO.N,Net-(R8-Pad1)*%
X155712000Y-97023000D03*
%TO.P,U3,4*%
%TO.N,+12V*%
X155712000Y-99563000D03*
%TD*%
D10*
%TO.P,R4,1*%
%TO.N,GND*%
X165608000Y-94342000D03*
D15*
%TO.P,R4,2*%
%TO.N,Net-(R4-Pad2)*%
X165608000Y-91802000D03*
%TD*%
D18*
%TO.P,J5,1,Pin_1*%
%TO.N,/SOLE1+*%
X170705000Y-108478000D03*
D19*
%TO.P,J5,2,Pin_2*%
%TO.N,/SOLE1-*%
X170705000Y-110978000D03*
%TD*%
D10*
%TO.P,R2,1*%
%TO.N,GND*%
X179832000Y-95808000D03*
D15*
%TO.P,R2,2*%
%TO.N,Net-(R2-Pad2)*%
X179832000Y-98348000D03*
%TD*%
D10*
%TO.P,R5,1*%
%TO.N,Net-(R5-Pad1)*%
X153416000Y-91648000D03*
D15*
%TO.P,R5,2*%
%TO.N,Net-(Q2-G)*%
X153416000Y-94188000D03*
%TD*%
D20*
%TO.P,U2,1*%
%TO.N,/FET2*%
X163322000Y-94234000D03*
D21*
%TO.P,U2,2*%
%TO.N,Net-(R4-Pad2)*%
X163322000Y-91694000D03*
%TO.P,U2,3*%
%TO.N,Net-(R5-Pad1)*%
X155702000Y-91694000D03*
%TO.P,U2,4*%
%TO.N,+12V*%
X155702000Y-94234000D03*
%TD*%
D25*
%TO.N,GND*%
X159450000Y-98210000D03*
X166590000Y-93140000D03*
X181990000Y-109320000D03*
X147540000Y-105820000D03*
X154432000Y-100838000D03*
X180310000Y-84170000D03*
X151230000Y-110240000D03*
X159470000Y-93790000D03*
X176750000Y-104650000D03*
X157060000Y-107610000D03*
X162890000Y-89970000D03*
X178510000Y-90540000D03*
X168390000Y-94290000D03*
X147520000Y-108950000D03*
X154200000Y-107430000D03*
X172770000Y-110560000D03*
X150000000Y-92870000D03*
X178520000Y-86400000D03*
X149980000Y-113620000D03*
X153780000Y-113810000D03*
X162420000Y-87430000D03*
X150630000Y-78220000D03*
X162440000Y-82070000D03*
X166500000Y-103070000D03*
X152654000Y-100838000D03*
X157170000Y-100670000D03*
X156200000Y-113900000D03*
X159520000Y-89170000D03*
X180890000Y-89530000D03*
X151290000Y-82750000D03*
X180980000Y-86970000D03*
X166580000Y-90430000D03*
X163170000Y-103090000D03*
X169740000Y-100020000D03*
X180250000Y-104610000D03*
X151290000Y-107100000D03*
X181990000Y-106150000D03*
X179180000Y-113660000D03*
X163070000Y-78100000D03*
X170180000Y-78160000D03*
X167240000Y-100030000D03*
X159960000Y-102250000D03*
X178500000Y-78190000D03*
X156780000Y-79360000D03*
X172750000Y-113710000D03*
X163620000Y-105920000D03*
X181030000Y-92110000D03*
X176040000Y-89710000D03*
X157090000Y-83580000D03*
%TD*%
D26*
%TO.N,/SOLE1+*%
X169418000Y-105684000D02*
X169418000Y-108478000D01*
X171936000Y-93294500D02*
X171936000Y-100643000D01*
X164101000Y-108478000D02*
X166624000Y-108478000D01*
X172212000Y-102890000D02*
X172212000Y-108478000D01*
X170698000Y-104404000D02*
X169809000Y-105293000D01*
X170705000Y-104411000D02*
X170705000Y-108478000D01*
X174752000Y-108478000D02*
X177292000Y-108478000D01*
X170588000Y-91946500D02*
X171936000Y-93294500D01*
X169063000Y-91946500D02*
X170588000Y-91946500D01*
X171936000Y-100643000D02*
X164101000Y-108478000D01*
X173482000Y-101620000D02*
X173482000Y-107208000D01*
X172222000Y-102880000D02*
X172212000Y-102890000D01*
X169363000Y-91946500D02*
X172413000Y-88896500D01*
X169063000Y-91946500D02*
X169363000Y-91946500D01*
X172212000Y-108478000D02*
X174752000Y-108478000D01*
X170698000Y-104404000D02*
X170705000Y-104411000D01*
X174738000Y-91221500D02*
X172413000Y-88896500D01*
X173482000Y-93726000D02*
X173482000Y-101620000D01*
X177292000Y-108478000D02*
X174738000Y-105924000D01*
X169418000Y-108478000D02*
X172212000Y-108478000D01*
X172222000Y-102880000D02*
X170698000Y-104404000D01*
X169809000Y-105293000D02*
X166624000Y-108478000D01*
X174738000Y-105924000D02*
X174738000Y-91221500D01*
X170738000Y-90421500D02*
X170738000Y-90982000D01*
X169063000Y-88896500D02*
X172413000Y-88896500D01*
X170738000Y-90982000D02*
X173482000Y-93726000D01*
X166624000Y-108478000D02*
X169418000Y-108478000D01*
X173482000Y-107208000D02*
X174752000Y-108478000D01*
X173482000Y-101620000D02*
X172222000Y-102880000D01*
X169809000Y-105293000D02*
X169418000Y-105684000D01*
X169063000Y-88896500D02*
X169063000Y-91946500D01*
D27*
%TO.N,GND*%
X153416000Y-100838000D02*
X152654000Y-101600000D01*
X152654000Y-104660000D02*
X152654000Y-102110000D01*
X153924000Y-100838000D02*
X153416000Y-100838000D01*
X153924000Y-100838000D02*
X154432000Y-100838000D01*
X152654000Y-102110000D02*
X152654000Y-101600000D01*
X152654000Y-100838000D02*
X153924000Y-100838000D01*
X152654000Y-101600000D02*
X152654000Y-100838000D01*
%TO.N,+12V*%
X157212000Y-91082679D02*
X156520500Y-90391179D01*
X157212000Y-95744000D02*
X155702000Y-94234000D01*
D26*
X154345000Y-88225000D02*
X154083292Y-88486708D01*
X150368000Y-85398000D02*
X148217416Y-85398000D01*
D27*
X157212000Y-91082679D02*
X155758500Y-89629179D01*
D26*
X151675416Y-87020000D02*
X152806000Y-87020000D01*
D27*
X157212000Y-91186000D02*
X157212000Y-91082679D01*
X157212000Y-98063000D02*
X157212000Y-94234000D01*
D26*
X150774000Y-89052000D02*
X147878000Y-91948000D01*
X150716708Y-87978708D02*
X151675416Y-87020000D01*
X147878000Y-88277416D02*
X150418000Y-88277416D01*
X154345000Y-85481000D02*
X152806000Y-87020000D01*
D27*
X156520500Y-87573500D02*
X155758500Y-86811500D01*
X157212000Y-98063000D02*
X157212000Y-95744000D01*
D26*
X154083292Y-88486708D02*
X150208708Y-88486708D01*
D27*
X155702000Y-94234000D02*
X157212000Y-94234000D01*
X157212000Y-91082679D02*
X155181321Y-89052000D01*
X155712000Y-99563000D02*
X157212000Y-98063000D01*
D26*
X150418000Y-88277416D02*
X150716708Y-87978708D01*
D27*
X157212000Y-94234000D02*
X157212000Y-92710000D01*
X155758500Y-86811500D02*
X154345000Y-85398000D01*
D26*
X147878000Y-90817416D02*
X150208708Y-88486708D01*
D27*
X155181321Y-89052000D02*
X150774000Y-89052000D01*
X157212000Y-92710000D02*
X157212000Y-91186000D01*
D26*
X147878000Y-88277416D02*
X150368000Y-85787416D01*
D27*
X155758500Y-89629179D02*
X155758500Y-86811500D01*
X157212000Y-88265000D02*
X156520500Y-87573500D01*
D26*
X150368000Y-85787416D02*
X150368000Y-85398000D01*
X154345000Y-85398000D02*
X154345000Y-85481000D01*
X147878000Y-91948000D02*
X147878000Y-103517416D01*
X150208708Y-88486708D02*
X150716708Y-87978708D01*
X147878000Y-85737416D02*
X147878000Y-91948000D01*
D27*
X156520500Y-90391179D02*
X156520500Y-87573500D01*
X155702000Y-94234000D02*
X157212000Y-92724000D01*
D26*
X154345000Y-85398000D02*
X154345000Y-88225000D01*
X154345000Y-85398000D02*
X150368000Y-85398000D01*
X148217416Y-85398000D02*
X147878000Y-85737416D01*
D27*
X157212000Y-91186000D02*
X157212000Y-88265000D01*
X157212000Y-92724000D02*
X157212000Y-92710000D01*
D26*
X152806000Y-87020000D02*
X150774000Y-89052000D01*
D27*
%TO.N,+48V*%
X178308000Y-88141500D02*
X179320500Y-88141500D01*
X179320500Y-88141500D02*
X179578000Y-87884000D01*
X178308000Y-88141500D02*
X177803500Y-88141500D01*
X177038000Y-88141500D02*
X178308000Y-88141500D01*
X177038000Y-87376000D02*
X177038000Y-87045025D01*
X175844975Y-85852000D02*
X175197992Y-85852000D01*
X177038000Y-88141500D02*
X177038000Y-87376000D01*
X173228000Y-83882000D02*
G75*
G03*
X175197992Y-85852000I1970000J0D01*
G01*
X177038000Y-87045025D02*
G75*
G03*
X175844975Y-85852000I-1193000J25D01*
G01*
D26*
%TO.N,/SOLE1-*%
X163068000Y-113300000D02*
X158358000Y-113300000D01*
X169708000Y-110978000D02*
X167386000Y-113300000D01*
X170705000Y-110978000D02*
X170705000Y-113300000D01*
X160950096Y-111845904D02*
X162404192Y-113300000D01*
X167386000Y-113300000D02*
X163068000Y-113300000D01*
X162404192Y-113300000D02*
X163068000Y-113300000D01*
X155924000Y-110866000D02*
X156903904Y-111845904D01*
X170705000Y-110978000D02*
X169708000Y-110978000D01*
X156903904Y-111845904D02*
X160950096Y-111845904D01*
X159848192Y-110744000D02*
X160950096Y-111845904D01*
X170705000Y-113300000D02*
X167386000Y-113300000D01*
X155924000Y-110866000D02*
X156046000Y-110744000D01*
X158358000Y-113300000D02*
X155924000Y-110866000D01*
X156046000Y-110744000D02*
X159848192Y-110744000D01*
%TO.N,/SOLE2-*%
X163193462Y-110978000D02*
X156235462Y-104020000D01*
X163193462Y-110978000D02*
X161901000Y-109685538D01*
X161901000Y-109685538D02*
X161901000Y-107037000D01*
X164101000Y-110978000D02*
X163193462Y-110978000D01*
X156235462Y-104020000D02*
X155924000Y-104020000D01*
X161901000Y-107037000D02*
X158884000Y-104020000D01*
X158884000Y-104020000D02*
X155924000Y-104020000D01*
D27*
%TO.N,Net-(Q1-G)*%
X177038000Y-92701500D02*
X179315500Y-92701500D01*
X179315500Y-92701500D02*
X179578000Y-92964000D01*
X177038000Y-95235000D02*
X177556000Y-95753000D01*
X177038000Y-92701500D02*
X177038000Y-95235000D01*
%TO.N,Net-(Q2-G)*%
X149860000Y-110206255D02*
X149860000Y-95712002D01*
X152654000Y-112776000D02*
X152429745Y-112776000D01*
X151384000Y-94188000D02*
X153416000Y-94188000D01*
X149860000Y-110206255D02*
G75*
G03*
X152429745Y-112776000I2569700J-45D01*
G01*
X151384000Y-94188000D02*
G75*
G03*
X149860000Y-95712002I0J-1524000D01*
G01*
%TO.N,Net-(Q3-G)*%
X151379000Y-100330000D02*
X151379000Y-99374000D01*
X151379000Y-104909598D02*
X151379000Y-100330000D01*
X151379000Y-99374000D02*
X151394000Y-99359000D01*
X152654000Y-105930000D02*
X152399402Y-105930000D01*
X152350000Y-99359000D02*
X151379000Y-100330000D01*
X152400000Y-99359000D02*
X153426000Y-99359000D01*
X151394000Y-99359000D02*
X152400000Y-99359000D01*
X152400000Y-99359000D02*
X152350000Y-99359000D01*
X151379000Y-104909598D02*
G75*
G03*
X152399402Y-105930000I1020400J-2D01*
G01*
%TO.N,Net-(R1-Pad2)*%
X167695000Y-98293000D02*
X167640000Y-98348000D01*
X169936000Y-98293000D02*
X167695000Y-98293000D01*
%TO.N,Net-(R2-Pad2)*%
X179777000Y-98293000D02*
X179832000Y-98348000D01*
X177556000Y-98293000D02*
X179777000Y-98293000D01*
%TO.N,Net-(R4-Pad2)*%
X163322000Y-91694000D02*
X165500000Y-91694000D01*
X165500000Y-91694000D02*
X165608000Y-91802000D01*
%TO.N,Net-(R5-Pad1)*%
X155656000Y-91648000D02*
X155702000Y-91694000D01*
X153416000Y-91648000D02*
X155656000Y-91648000D01*
%TO.N,Net-(R7-Pad2)*%
X163332000Y-97023000D02*
X165618000Y-97023000D01*
%TO.N,Net-(R8-Pad1)*%
X153426000Y-96819000D02*
X155508000Y-96819000D01*
X155508000Y-96819000D02*
X155712000Y-97023000D01*
%TD*%
%TA.AperFunction,Conductor*%
%TO.N,Net-(Q1-G)*%
G36*
X177535748Y-94358880D02*
G01*
X177539110Y-94365919D01*
X177564211Y-94602587D01*
X177612361Y-94705345D01*
X177639984Y-94764297D01*
X177761013Y-94885618D01*
X177761017Y-94885622D01*
X177922731Y-95011392D01*
X177923299Y-95011864D01*
X178112375Y-95179081D01*
X178116302Y-95187129D01*
X178113388Y-95195596D01*
X178112904Y-95196111D01*
X177559434Y-95750559D01*
X177551164Y-95753993D01*
X177551139Y-95753993D01*
X176766950Y-95753013D01*
X176758682Y-95749576D01*
X176755290Y-95742071D01*
X176733328Y-95403978D01*
X176733328Y-95403974D01*
X176679264Y-95159222D01*
X176614870Y-94949665D01*
X176614639Y-94948790D01*
X176560862Y-94705338D01*
X176560614Y-94703586D01*
X176538809Y-94367910D01*
X176541692Y-94359434D01*
X176549726Y-94355478D01*
X176550484Y-94355453D01*
X177527475Y-94355453D01*
X177535748Y-94358880D01*
G37*
%TD.AperFunction*%
%TD*%
%TA.AperFunction,Conductor*%
%TO.N,Net-(R4-Pad2)*%
G36*
X163334587Y-90894979D02*
G01*
X163721754Y-90925117D01*
X163723840Y-90925472D01*
X163987331Y-90995588D01*
X164001877Y-90999459D01*
X164002942Y-90999798D01*
X164241592Y-91088400D01*
X164521184Y-91162800D01*
X164911210Y-91193160D01*
X164919190Y-91197218D01*
X164922000Y-91204824D01*
X164922000Y-92183175D01*
X164918573Y-92191448D01*
X164911208Y-92194840D01*
X164521183Y-92225200D01*
X164521181Y-92225200D01*
X164241592Y-92299600D01*
X164241581Y-92299603D01*
X164241580Y-92299603D01*
X164002940Y-92388201D01*
X164001877Y-92388540D01*
X163723847Y-92462525D01*
X163721746Y-92462883D01*
X163334592Y-92493019D01*
X163326078Y-92490244D01*
X163322019Y-92482262D01*
X163321984Y-92481369D01*
X163321960Y-92462525D01*
X163321000Y-91694000D01*
X163321984Y-90906629D01*
X163325421Y-90898362D01*
X163333699Y-90894945D01*
X163334587Y-90894979D01*
G37*
%TD.AperFunction*%
%TD*%
%TA.AperFunction,Conductor*%
%TO.N,+48V*%
G36*
X174065139Y-83881989D02*
G01*
X174073409Y-83885423D01*
X174076829Y-83893699D01*
X174076776Y-83894802D01*
X174051791Y-84156203D01*
X174051548Y-84157704D01*
X174002770Y-84370469D01*
X174002767Y-84370483D01*
X173975978Y-84551212D01*
X174016188Y-84727801D01*
X174016189Y-84727802D01*
X174162087Y-84920775D01*
X174164343Y-84929441D01*
X174161027Y-84936104D01*
X173469967Y-85627161D01*
X173461694Y-85630588D01*
X173453421Y-85627161D01*
X173452898Y-85626602D01*
X173230072Y-85371884D01*
X173228979Y-85370417D01*
X173095297Y-85158108D01*
X173094827Y-85157288D01*
X172993036Y-84961334D01*
X172858614Y-84747851D01*
X172841075Y-84727802D01*
X172634156Y-84491268D01*
X172631288Y-84482785D01*
X172634678Y-84475303D01*
X173223860Y-83884733D01*
X173232128Y-83881297D01*
X174065139Y-83881989D01*
G37*
%TD.AperFunction*%
%TD*%
%TA.AperFunction,Conductor*%
%TO.N,Net-(Q1-G)*%
G36*
X177046264Y-92708778D02*
G01*
X177498107Y-93161374D01*
X177633656Y-93297149D01*
X177637076Y-93305425D01*
X177636880Y-93307545D01*
X177618009Y-93409445D01*
X177618010Y-93409446D01*
X177618000Y-93409500D01*
X177606678Y-93474032D01*
X177597991Y-93523549D01*
X177577992Y-93643544D01*
X177558004Y-93769459D01*
X177558005Y-93769460D01*
X177539507Y-93891553D01*
X177534879Y-93899219D01*
X177527939Y-93901500D01*
X176548061Y-93901500D01*
X176539788Y-93898073D01*
X176536493Y-93891553D01*
X176517994Y-93769460D01*
X176517994Y-93769459D01*
X176498007Y-93643544D01*
X176478008Y-93523549D01*
X176469320Y-93474032D01*
X176457999Y-93409500D01*
X176439119Y-93307544D01*
X176440982Y-93298787D01*
X176442339Y-93297153D01*
X177029721Y-92708792D01*
X177037990Y-92705359D01*
X177046264Y-92708778D01*
G37*
%TD.AperFunction*%
%TD*%
%TA.AperFunction,Conductor*%
%TO.N,+12V*%
G36*
X155266846Y-85019865D02*
G01*
X155273173Y-85026203D01*
X155273243Y-85026376D01*
X155422629Y-85405039D01*
X155422628Y-85405039D01*
X155533648Y-85686421D01*
X155533650Y-85686425D01*
X155533653Y-85686432D01*
X155533654Y-85686433D01*
X155652121Y-85917228D01*
X155828198Y-86155155D01*
X155984496Y-86321880D01*
X156104304Y-86449681D01*
X156107462Y-86458060D01*
X156104041Y-86465956D01*
X155412956Y-87157041D01*
X155404683Y-87160468D01*
X155396681Y-87157304D01*
X155102155Y-86881198D01*
X154864228Y-86705121D01*
X154633433Y-86586654D01*
X154633432Y-86586653D01*
X154633425Y-86586650D01*
X154633421Y-86586648D01*
X154352039Y-86475628D01*
X154352039Y-86475629D01*
X153973375Y-86326242D01*
X153966938Y-86320019D01*
X153966786Y-86311065D01*
X153966856Y-86310892D01*
X154031196Y-86155155D01*
X154342438Y-85401782D01*
X154348764Y-85395446D01*
X154348767Y-85395444D01*
X155257893Y-85019856D01*
X155266846Y-85019865D01*
G37*
%TD.AperFunction*%
%TD*%
%TA.AperFunction,Conductor*%
%TO.N,Net-(R5-Pad1)*%
G36*
X153428371Y-90948736D02*
G01*
X153764428Y-90968751D01*
X153766046Y-90968961D01*
X154010206Y-91018315D01*
X154011029Y-91018514D01*
X154221376Y-91077600D01*
X154466753Y-91127200D01*
X154804997Y-91147344D01*
X154813050Y-91151256D01*
X154816000Y-91159023D01*
X154816000Y-92136976D01*
X154812573Y-92145249D01*
X154804996Y-92148655D01*
X154466761Y-92168799D01*
X154466749Y-92168800D01*
X154221372Y-92218400D01*
X154011040Y-92277482D01*
X154010194Y-92277686D01*
X153766048Y-92327037D01*
X153764426Y-92327248D01*
X153428378Y-92347262D01*
X153419915Y-92344333D01*
X153416003Y-92336279D01*
X153415982Y-92335600D01*
X153415899Y-92277686D01*
X153415000Y-91648000D01*
X153415982Y-90960398D01*
X153419421Y-90952131D01*
X153427699Y-90948716D01*
X153428371Y-90948736D01*
G37*
%TD.AperFunction*%
%TD*%
%TA.AperFunction,Conductor*%
%TO.N,+12V*%
G36*
X156487470Y-92756730D02*
G01*
X157179268Y-93448528D01*
X157182695Y-93456801D01*
X157179885Y-93464407D01*
X156925567Y-93761659D01*
X156925560Y-93761669D01*
X156780475Y-94011966D01*
X156780467Y-94011982D01*
X156674366Y-94243385D01*
X156673853Y-94244376D01*
X156529578Y-94493276D01*
X156528346Y-94495015D01*
X156275895Y-94790088D01*
X156267913Y-94794147D01*
X156259399Y-94791372D01*
X156258751Y-94790773D01*
X155701293Y-94234707D01*
X155145233Y-93677255D01*
X155141817Y-93668979D01*
X155145254Y-93660711D01*
X155145896Y-93660117D01*
X155440987Y-93407647D01*
X155442716Y-93406422D01*
X155691629Y-93262139D01*
X155692602Y-93261635D01*
X155924025Y-93155526D01*
X156174336Y-93010433D01*
X156471594Y-92756111D01*
X156480105Y-92753338D01*
X156487470Y-92756730D01*
G37*
%TD.AperFunction*%
%TD*%
%TA.AperFunction,Conductor*%
%TO.N,+12V*%
G36*
X156275288Y-93677254D02*
G01*
X156275895Y-93677911D01*
X156528346Y-93972983D01*
X156529578Y-93974722D01*
X156673853Y-94223621D01*
X156674366Y-94224612D01*
X156780467Y-94456015D01*
X156780475Y-94456031D01*
X156925561Y-94706330D01*
X156925562Y-94706332D01*
X156925564Y-94706334D01*
X156925565Y-94706336D01*
X157179886Y-95003592D01*
X157182661Y-95012105D01*
X157179269Y-95019470D01*
X156487470Y-95711269D01*
X156479197Y-95714696D01*
X156471592Y-95711886D01*
X156174336Y-95457565D01*
X156174334Y-95457564D01*
X156174332Y-95457562D01*
X156174330Y-95457561D01*
X155924031Y-95312475D01*
X155924015Y-95312467D01*
X155692612Y-95206366D01*
X155691621Y-95205853D01*
X155442722Y-95061578D01*
X155440983Y-95060346D01*
X155145911Y-94807895D01*
X155141852Y-94799913D01*
X155144627Y-94791399D01*
X155145212Y-94790764D01*
X155701293Y-94233293D01*
X156258744Y-93677232D01*
X156267020Y-93673817D01*
X156275288Y-93677254D01*
G37*
%TD.AperFunction*%
%TD*%
%TA.AperFunction,Conductor*%
%TO.N,Net-(Q2-G)*%
G36*
X151396371Y-93488736D02*
G01*
X151732428Y-93508751D01*
X151734046Y-93508961D01*
X151978206Y-93558315D01*
X151979029Y-93558514D01*
X152189376Y-93617600D01*
X152434753Y-93667200D01*
X152772997Y-93687344D01*
X152781050Y-93691256D01*
X152784000Y-93699023D01*
X152784000Y-94676976D01*
X152780573Y-94685249D01*
X152772996Y-94688655D01*
X152434761Y-94708799D01*
X152434749Y-94708800D01*
X152189372Y-94758400D01*
X151979040Y-94817482D01*
X151978194Y-94817686D01*
X151734048Y-94867037D01*
X151732426Y-94867248D01*
X151396378Y-94887262D01*
X151387915Y-94884333D01*
X151384003Y-94876279D01*
X151383982Y-94875600D01*
X151383899Y-94817686D01*
X151383000Y-94188000D01*
X151383982Y-93500398D01*
X151387421Y-93492131D01*
X151395699Y-93488716D01*
X151396371Y-93488736D01*
G37*
%TD.AperFunction*%
%TD*%
%TA.AperFunction,Conductor*%
%TO.N,+12V*%
G36*
X154361452Y-85403607D02*
G01*
X154680201Y-85531611D01*
X156088471Y-86097149D01*
X156094870Y-86103411D01*
X156095744Y-86106766D01*
X156127701Y-86406956D01*
X156160395Y-86684072D01*
X156160400Y-86684109D01*
X156193100Y-86931279D01*
X156225559Y-87146847D01*
X156225805Y-87148479D01*
X156256104Y-87321904D01*
X156254153Y-87330644D01*
X156246593Y-87335443D01*
X156244579Y-87335618D01*
X155261366Y-87335618D01*
X155255957Y-87334292D01*
X155083631Y-87244440D01*
X155083621Y-87244436D01*
X154908748Y-87180085D01*
X154908747Y-87180084D01*
X154908745Y-87180084D01*
X154733867Y-87142561D01*
X154733864Y-87142560D01*
X154733861Y-87142560D01*
X154558999Y-87131865D01*
X154558991Y-87131866D01*
X154558990Y-87131866D01*
X154537070Y-87133888D01*
X154396604Y-87146847D01*
X154388051Y-87144194D01*
X154383878Y-87136271D01*
X154383833Y-87135481D01*
X154345395Y-85414722D01*
X154348636Y-85406378D01*
X154356831Y-85402767D01*
X154361452Y-85403607D01*
G37*
%TD.AperFunction*%
%TD*%
%TA.AperFunction,Conductor*%
%TO.N,Net-(Q3-G)*%
G36*
X153422084Y-98662666D02*
G01*
X153425996Y-98670720D01*
X153426017Y-98671399D01*
X153427000Y-99359000D01*
X153427000Y-99359034D01*
X153426017Y-100046600D01*
X153422578Y-100054868D01*
X153414300Y-100058283D01*
X153413621Y-100058262D01*
X153077572Y-100038248D01*
X153075950Y-100038037D01*
X152831803Y-99988686D01*
X152830957Y-99988482D01*
X152620625Y-99929400D01*
X152375249Y-99879800D01*
X152375237Y-99879799D01*
X152037004Y-99859655D01*
X152028950Y-99855743D01*
X152026000Y-99847976D01*
X152026000Y-98870023D01*
X152029427Y-98861750D01*
X152037002Y-98858344D01*
X152375246Y-98838200D01*
X152620622Y-98788600D01*
X152830974Y-98729512D01*
X152831785Y-98729317D01*
X153075954Y-98679961D01*
X153077568Y-98679751D01*
X153413621Y-98659737D01*
X153422084Y-98662666D01*
G37*
%TD.AperFunction*%
%TD*%
%TA.AperFunction,Conductor*%
%TO.N,Net-(R7-Pad2)*%
G36*
X165614084Y-96326666D02*
G01*
X165617996Y-96334720D01*
X165618017Y-96335399D01*
X165619000Y-97023000D01*
X165619000Y-97023034D01*
X165618017Y-97710600D01*
X165614578Y-97718868D01*
X165606300Y-97722283D01*
X165605621Y-97722262D01*
X165269572Y-97702248D01*
X165267950Y-97702037D01*
X165023803Y-97652686D01*
X165022957Y-97652482D01*
X164812625Y-97593400D01*
X164567249Y-97543800D01*
X164567237Y-97543799D01*
X164229004Y-97523655D01*
X164220950Y-97519743D01*
X164218000Y-97511976D01*
X164218000Y-96534023D01*
X164221427Y-96525750D01*
X164229002Y-96522344D01*
X164567246Y-96502200D01*
X164812622Y-96452600D01*
X165022974Y-96393512D01*
X165023785Y-96393317D01*
X165267954Y-96343961D01*
X165269568Y-96343751D01*
X165605621Y-96323737D01*
X165614084Y-96326666D01*
G37*
%TD.AperFunction*%
%TD*%
%TA.AperFunction,Conductor*%
%TO.N,Net-(R8-Pad1)*%
G36*
X153438371Y-96119736D02*
G01*
X153774428Y-96139751D01*
X153776046Y-96139961D01*
X154020206Y-96189315D01*
X154021029Y-96189514D01*
X154231376Y-96248600D01*
X154476753Y-96298200D01*
X154814997Y-96318344D01*
X154823050Y-96322256D01*
X154826000Y-96330023D01*
X154826000Y-97307976D01*
X154822573Y-97316249D01*
X154814996Y-97319655D01*
X154476761Y-97339799D01*
X154476749Y-97339800D01*
X154231372Y-97389400D01*
X154021040Y-97448482D01*
X154020194Y-97448686D01*
X153776048Y-97498037D01*
X153774426Y-97498248D01*
X153438378Y-97518262D01*
X153429915Y-97515333D01*
X153426003Y-97507279D01*
X153425982Y-97506600D01*
X153425899Y-97448686D01*
X153425000Y-96819000D01*
X153425982Y-96131398D01*
X153429421Y-96123131D01*
X153437699Y-96119716D01*
X153438371Y-96119736D01*
G37*
%TD.AperFunction*%
%TD*%
%TA.AperFunction,Conductor*%
%TO.N,+48V*%
G36*
X177892831Y-87542409D02*
G01*
X178057999Y-87573499D01*
X178227999Y-87599499D01*
X178390595Y-87618628D01*
X178397991Y-87619499D01*
X178397992Y-87619499D01*
X178398000Y-87619500D01*
X178568000Y-87633500D01*
X178726850Y-87640975D01*
X178734953Y-87644787D01*
X178738000Y-87652662D01*
X178738000Y-88630337D01*
X178734573Y-88638610D01*
X178726850Y-88642024D01*
X178568014Y-88649498D01*
X178568004Y-88649498D01*
X178568000Y-88649499D01*
X178538931Y-88651892D01*
X178397991Y-88663499D01*
X178264966Y-88679150D01*
X178227999Y-88683500D01*
X178057999Y-88709500D01*
X178057996Y-88709500D01*
X178057980Y-88709503D01*
X177892862Y-88740584D01*
X177884098Y-88738747D01*
X177883956Y-88738648D01*
X177050562Y-88151062D01*
X177045775Y-88143494D01*
X177047742Y-88134758D01*
X177050562Y-88131938D01*
X177730335Y-87652662D01*
X177883956Y-87544350D01*
X177892692Y-87542384D01*
X177892831Y-87542409D01*
G37*
%TD.AperFunction*%
%TD*%
%TA.AperFunction,Conductor*%
%TO.N,+12V*%
G36*
X155266846Y-85019865D02*
G01*
X155273173Y-85026203D01*
X155273243Y-85026376D01*
X155422629Y-85405039D01*
X155422628Y-85405039D01*
X155533648Y-85686421D01*
X155533650Y-85686425D01*
X155533653Y-85686432D01*
X155533654Y-85686433D01*
X155652121Y-85917228D01*
X155828198Y-86155155D01*
X155984496Y-86321880D01*
X156104304Y-86449681D01*
X156107462Y-86458060D01*
X156104041Y-86465956D01*
X155412956Y-87157041D01*
X155404683Y-87160468D01*
X155396681Y-87157304D01*
X155102155Y-86881198D01*
X154864228Y-86705121D01*
X154633433Y-86586654D01*
X154633432Y-86586653D01*
X154633425Y-86586650D01*
X154633421Y-86586648D01*
X154352039Y-86475628D01*
X154352039Y-86475629D01*
X153973375Y-86326242D01*
X153966938Y-86320019D01*
X153966786Y-86311065D01*
X153966856Y-86310892D01*
X154031196Y-86155155D01*
X154342438Y-85401782D01*
X154348764Y-85395446D01*
X154348767Y-85395444D01*
X155257893Y-85019856D01*
X155266846Y-85019865D01*
G37*
%TD.AperFunction*%
%TD*%
%TA.AperFunction,Conductor*%
%TO.N,+12V*%
G36*
X151167415Y-88132780D02*
G01*
X151167522Y-88132825D01*
X151388587Y-88228794D01*
X151541206Y-88295049D01*
X151818856Y-88415522D01*
X151818868Y-88415527D01*
X152065997Y-88494928D01*
X152066000Y-88494928D01*
X152066002Y-88494929D01*
X152147662Y-88507110D01*
X152358930Y-88538627D01*
X152762677Y-88551635D01*
X152770835Y-88555327D01*
X152774000Y-88563329D01*
X152774000Y-89540670D01*
X152770573Y-89548943D01*
X152762677Y-89552364D01*
X152358936Y-89565370D01*
X152358921Y-89565372D01*
X152065999Y-89609070D01*
X152065997Y-89609070D01*
X151818873Y-89688470D01*
X151818856Y-89688476D01*
X151541206Y-89808950D01*
X151167587Y-89971146D01*
X151158634Y-89971297D01*
X151152196Y-89965073D01*
X151152123Y-89964901D01*
X151087357Y-89808950D01*
X150774862Y-89056485D01*
X150774854Y-89047535D01*
X151152124Y-88139096D01*
X151158461Y-88132771D01*
X151167415Y-88132780D01*
G37*
%TD.AperFunction*%
%TD*%
%TA.AperFunction,Conductor*%
%TO.N,Net-(Q3-G)*%
G36*
X151406371Y-98659736D02*
G01*
X151742428Y-98679751D01*
X151744046Y-98679961D01*
X151988206Y-98729315D01*
X151989029Y-98729514D01*
X152199376Y-98788600D01*
X152444753Y-98838200D01*
X152782997Y-98858344D01*
X152791050Y-98862256D01*
X152794000Y-98870023D01*
X152794000Y-99847976D01*
X152790573Y-99856249D01*
X152782996Y-99859655D01*
X152444761Y-99879799D01*
X152444749Y-99879800D01*
X152199372Y-99929400D01*
X151989040Y-99988482D01*
X151988194Y-99988686D01*
X151744048Y-100038037D01*
X151742426Y-100038248D01*
X151406378Y-100058262D01*
X151397915Y-100055333D01*
X151394003Y-100047279D01*
X151393982Y-100046600D01*
X151393899Y-99988686D01*
X151393000Y-99359000D01*
X151393982Y-98671398D01*
X151397421Y-98663131D01*
X151405699Y-98659716D01*
X151406371Y-98659736D01*
G37*
%TD.AperFunction*%
%TD*%
%TA.AperFunction,Conductor*%
%TO.N,Net-(R1-Pad2)*%
G36*
X169931921Y-97496755D02*
G01*
X169935980Y-97504737D01*
X169936015Y-97505630D01*
X169937000Y-98293000D01*
X169937000Y-98293030D01*
X169936015Y-99080369D01*
X169932578Y-99088637D01*
X169924300Y-99092054D01*
X169923407Y-99092019D01*
X169536252Y-99061883D01*
X169534151Y-99061525D01*
X169256121Y-98987540D01*
X169255058Y-98987201D01*
X169016417Y-98898603D01*
X169016410Y-98898601D01*
X169016407Y-98898600D01*
X168736815Y-98824200D01*
X168346792Y-98793840D01*
X168338810Y-98789781D01*
X168336000Y-98782175D01*
X168336000Y-97803824D01*
X168339427Y-97795551D01*
X168346789Y-97792160D01*
X168736815Y-97761800D01*
X169016407Y-97687400D01*
X169255062Y-97598796D01*
X169256116Y-97598460D01*
X169534160Y-97524472D01*
X169536242Y-97524117D01*
X169923407Y-97493980D01*
X169931921Y-97496755D01*
G37*
%TD.AperFunction*%
%TD*%
%TA.AperFunction,Conductor*%
%TO.N,Net-(Q2-G)*%
G36*
X150896547Y-93700526D02*
G01*
X151230762Y-94033790D01*
X151382993Y-94185589D01*
X151385547Y-94189410D01*
X151646623Y-94821983D01*
X151646612Y-94830938D01*
X151640272Y-94837262D01*
X151638464Y-94837842D01*
X151389642Y-94895842D01*
X151386163Y-94896118D01*
X151172777Y-94881064D01*
X151172063Y-94880992D01*
X150984509Y-94856146D01*
X150984508Y-94856146D01*
X150984507Y-94856146D01*
X150803369Y-94888610D01*
X150803367Y-94888610D01*
X150803367Y-94888611D01*
X150615776Y-95039358D01*
X150607180Y-95041869D01*
X150600785Y-95039080D01*
X150350241Y-94821983D01*
X149862157Y-94399057D01*
X149858150Y-94391051D01*
X149860978Y-94382554D01*
X149861748Y-94381747D01*
X150073913Y-94180121D01*
X150076111Y-94178478D01*
X150266123Y-94068720D01*
X150267554Y-94068021D01*
X150451124Y-93993437D01*
X150650858Y-93889882D01*
X150880836Y-93699793D01*
X150889394Y-93697164D01*
X150896547Y-93700526D01*
G37*
%TD.AperFunction*%
%TD*%
%TA.AperFunction,Conductor*%
%TO.N,Net-(R5-Pad1)*%
G36*
X155698021Y-90897698D02*
G01*
X155701989Y-90905726D01*
X155702015Y-90906487D01*
X155702997Y-91691658D01*
X155702101Y-91696163D01*
X155400343Y-92422298D01*
X155394004Y-92428623D01*
X155385049Y-92428612D01*
X155385047Y-92428611D01*
X155091980Y-92306762D01*
X154870531Y-92223972D01*
X154870529Y-92223971D01*
X154870525Y-92223970D01*
X154672538Y-92175838D01*
X154439055Y-92153476D01*
X154122655Y-92148192D01*
X154114440Y-92144628D01*
X154111150Y-92136494D01*
X154111150Y-91158947D01*
X154114577Y-91150674D01*
X154122071Y-91147274D01*
X154508582Y-91121584D01*
X154787120Y-91058592D01*
X155025572Y-90983551D01*
X155026478Y-90983306D01*
X155303680Y-90920616D01*
X155305479Y-90920355D01*
X155689539Y-90894828D01*
X155698021Y-90897698D01*
G37*
%TD.AperFunction*%
%TD*%
%TA.AperFunction,Conductor*%
%TO.N,+12V*%
G36*
X156497470Y-98085730D02*
G01*
X157189268Y-98777528D01*
X157192695Y-98785801D01*
X157189885Y-98793407D01*
X156935567Y-99090659D01*
X156935560Y-99090669D01*
X156790475Y-99340966D01*
X156790467Y-99340982D01*
X156684366Y-99572385D01*
X156683853Y-99573376D01*
X156539578Y-99822276D01*
X156538346Y-99824015D01*
X156285895Y-100119088D01*
X156277913Y-100123147D01*
X156269399Y-100120372D01*
X156268751Y-100119773D01*
X155711293Y-99563707D01*
X155155233Y-99006255D01*
X155151817Y-98997979D01*
X155155254Y-98989711D01*
X155155896Y-98989117D01*
X155450987Y-98736647D01*
X155452716Y-98735422D01*
X155701629Y-98591139D01*
X155702602Y-98590635D01*
X155934025Y-98484526D01*
X156184336Y-98339433D01*
X156481594Y-98085111D01*
X156490105Y-98082338D01*
X156497470Y-98085730D01*
G37*
%TD.AperFunction*%
%TD*%
%TA.AperFunction,Conductor*%
%TO.N,Net-(R2-Pad2)*%
G36*
X179828222Y-97651595D02*
G01*
X179832006Y-97659711D01*
X179832017Y-97660204D01*
X179833000Y-98348000D01*
X179833000Y-98348034D01*
X179832018Y-99035392D01*
X179828579Y-99043660D01*
X179820301Y-99047075D01*
X179819429Y-99047041D01*
X179485215Y-99021559D01*
X179483155Y-99021215D01*
X179241901Y-98958379D01*
X179240855Y-98958054D01*
X179236425Y-98956445D01*
X179033572Y-98882760D01*
X178980933Y-98869049D01*
X178790774Y-98819521D01*
X178790771Y-98819520D01*
X178790769Y-98819520D01*
X178671330Y-98810413D01*
X178453751Y-98793824D01*
X178445762Y-98789778D01*
X178442940Y-98782158D01*
X178442940Y-97804200D01*
X178446367Y-97795927D01*
X178454128Y-97792511D01*
X178768745Y-97778782D01*
X178788514Y-97777920D01*
X178835272Y-97771026D01*
X179032444Y-97741960D01*
X179242193Y-97699101D01*
X179242789Y-97698996D01*
X179485846Y-97663165D01*
X179487010Y-97663054D01*
X179819807Y-97648532D01*
X179828222Y-97651595D01*
G37*
%TD.AperFunction*%
%TD*%
%TA.AperFunction,Conductor*%
%TO.N,Net-(Q3-G)*%
G36*
X152081544Y-99358982D02*
G01*
X152089812Y-99362421D01*
X152093227Y-99370699D01*
X152093203Y-99371430D01*
X152071696Y-99706944D01*
X152071452Y-99708687D01*
X152018417Y-99952063D01*
X152018182Y-99952965D01*
X151954682Y-100162487D01*
X151954680Y-100162495D01*
X151954680Y-100162496D01*
X151954613Y-100162803D01*
X151901359Y-100407186D01*
X151879702Y-100745064D01*
X151875753Y-100753101D01*
X151868026Y-100756016D01*
X150890071Y-100756016D01*
X150881798Y-100752589D01*
X150878389Y-100744961D01*
X150859760Y-100407801D01*
X150859759Y-100407796D01*
X150813882Y-100162819D01*
X150813881Y-100162818D01*
X150813879Y-100162803D01*
X150759218Y-99952590D01*
X150759050Y-99951842D01*
X150713377Y-99707949D01*
X150713198Y-99706467D01*
X150694681Y-99371326D01*
X150697646Y-99362878D01*
X150705718Y-99359000D01*
X150706332Y-99358982D01*
X151394000Y-99358000D01*
X152081544Y-99358982D01*
G37*
%TD.AperFunction*%
%TD*%
%TA.AperFunction,Conductor*%
%TO.N,Net-(Q2-G)*%
G36*
X153412084Y-93491666D02*
G01*
X153415996Y-93499720D01*
X153416017Y-93500399D01*
X153417000Y-94188000D01*
X153417000Y-94188034D01*
X153416017Y-94875600D01*
X153412578Y-94883868D01*
X153404300Y-94887283D01*
X153403621Y-94887262D01*
X153067572Y-94867248D01*
X153065950Y-94867037D01*
X152821803Y-94817686D01*
X152820957Y-94817482D01*
X152610625Y-94758400D01*
X152365249Y-94708800D01*
X152365237Y-94708799D01*
X152027004Y-94688655D01*
X152018950Y-94684743D01*
X152016000Y-94676976D01*
X152016000Y-93699023D01*
X152019427Y-93690750D01*
X152027002Y-93687344D01*
X152365246Y-93667200D01*
X152610622Y-93617600D01*
X152820974Y-93558512D01*
X152821785Y-93558317D01*
X153065954Y-93508961D01*
X153067568Y-93508751D01*
X153403621Y-93488737D01*
X153412084Y-93491666D01*
G37*
%TD.AperFunction*%
%TD*%
%TA.AperFunction,Conductor*%
%TO.N,+12V*%
G36*
X156333344Y-93580102D02*
G01*
X156521463Y-93629393D01*
X156521465Y-93629393D01*
X156521468Y-93629394D01*
X156985695Y-93670477D01*
X156986379Y-93670559D01*
X157361561Y-93726866D01*
X157366615Y-93728909D01*
X157615185Y-93906165D01*
X157619808Y-93913129D01*
X157708800Y-94309738D01*
X157707268Y-94318561D01*
X157699946Y-94323716D01*
X157697384Y-94324000D01*
X156721318Y-94324000D01*
X156713045Y-94320573D01*
X156709915Y-94314918D01*
X156708726Y-94309738D01*
X156681259Y-94190085D01*
X156681258Y-94190085D01*
X156591627Y-94292901D01*
X156591623Y-94292907D01*
X156447248Y-94527152D01*
X156446656Y-94528022D01*
X156252179Y-94787961D01*
X156249869Y-94790284D01*
X156020227Y-94963967D01*
X156011561Y-94966224D01*
X156003837Y-94961693D01*
X156002357Y-94959107D01*
X155703852Y-94237477D01*
X155703857Y-94228522D01*
X155834674Y-93913129D01*
X156004241Y-93504312D01*
X156010574Y-93497986D01*
X156018009Y-93497480D01*
X156333344Y-93580102D01*
G37*
%TD.AperFunction*%
%TD*%
%TA.AperFunction,Conductor*%
%TO.N,Net-(R8-Pad1)*%
G36*
X155708371Y-96226521D02*
G01*
X155712010Y-96234703D01*
X155712014Y-96234990D01*
X155712997Y-97020658D01*
X155712101Y-97025163D01*
X155410572Y-97750746D01*
X155404233Y-97757071D01*
X155395278Y-97757060D01*
X155394744Y-97756822D01*
X155103930Y-97618545D01*
X155103133Y-97618128D01*
X154890858Y-97496257D01*
X154868168Y-97484776D01*
X154704011Y-97401719D01*
X154704008Y-97401718D01*
X154479193Y-97340664D01*
X154163504Y-97319724D01*
X154155475Y-97315757D01*
X154152578Y-97308050D01*
X154152578Y-96330402D01*
X154156005Y-96322129D01*
X154163975Y-96318706D01*
X154539739Y-96309016D01*
X154813985Y-96285208D01*
X155050461Y-96256807D01*
X155050750Y-96256778D01*
X155324511Y-96233012D01*
X155325163Y-96232975D01*
X155700012Y-96223309D01*
X155708371Y-96226521D01*
G37*
%TD.AperFunction*%
%TD*%
%TA.AperFunction,Conductor*%
%TO.N,+48V*%
G36*
X179314604Y-87248113D02*
G01*
X179314878Y-87248723D01*
X179578099Y-87881834D01*
X179578996Y-87886343D01*
X179578016Y-88572524D01*
X179574577Y-88580792D01*
X179566525Y-88584205D01*
X179243329Y-88589979D01*
X179006033Y-88604239D01*
X178801318Y-88621249D01*
X178801051Y-88621268D01*
X178564134Y-88635505D01*
X178563641Y-88635524D01*
X178241129Y-88641287D01*
X178232796Y-88638009D01*
X178229222Y-88629798D01*
X178229220Y-88629589D01*
X178229220Y-87652369D01*
X178232647Y-87644096D01*
X178240059Y-87640701D01*
X178296099Y-87636571D01*
X178512022Y-87620660D01*
X178512022Y-87620659D01*
X178512027Y-87620659D01*
X178705435Y-87562808D01*
X178865529Y-87474957D01*
X179047941Y-87364388D01*
X179048869Y-87363883D01*
X179298974Y-87242685D01*
X179307912Y-87242162D01*
X179314604Y-87248113D01*
G37*
%TD.AperFunction*%
%TD*%
%TA.AperFunction,Conductor*%
%TO.N,+12V*%
G36*
X151167415Y-88132780D02*
G01*
X151167522Y-88132825D01*
X151388587Y-88228794D01*
X151541206Y-88295049D01*
X151818856Y-88415522D01*
X151818868Y-88415527D01*
X152065997Y-88494928D01*
X152066000Y-88494928D01*
X152066002Y-88494929D01*
X152147662Y-88507110D01*
X152358930Y-88538627D01*
X152762677Y-88551635D01*
X152770835Y-88555327D01*
X152774000Y-88563329D01*
X152774000Y-89540670D01*
X152770573Y-89548943D01*
X152762677Y-89552364D01*
X152358936Y-89565370D01*
X152358921Y-89565372D01*
X152065999Y-89609070D01*
X152065997Y-89609070D01*
X151818873Y-89688470D01*
X151818856Y-89688476D01*
X151541206Y-89808950D01*
X151167587Y-89971146D01*
X151158634Y-89971297D01*
X151152196Y-89965073D01*
X151152123Y-89964901D01*
X151087357Y-89808950D01*
X150774862Y-89056485D01*
X150774854Y-89047535D01*
X151152124Y-88139096D01*
X151158461Y-88132771D01*
X151167415Y-88132780D01*
G37*
%TD.AperFunction*%
%TD*%
%TA.AperFunction,Conductor*%
%TO.N,+12V*%
G36*
X155266846Y-85019865D02*
G01*
X155273173Y-85026203D01*
X155273243Y-85026376D01*
X155422629Y-85405039D01*
X155422628Y-85405039D01*
X155533648Y-85686421D01*
X155533650Y-85686425D01*
X155533653Y-85686432D01*
X155533654Y-85686433D01*
X155652121Y-85917228D01*
X155828198Y-86155155D01*
X155984496Y-86321880D01*
X156104304Y-86449681D01*
X156107462Y-86458060D01*
X156104041Y-86465956D01*
X155412956Y-87157041D01*
X155404683Y-87160468D01*
X155396681Y-87157304D01*
X155102155Y-86881198D01*
X154864228Y-86705121D01*
X154633433Y-86586654D01*
X154633432Y-86586653D01*
X154633425Y-86586650D01*
X154633421Y-86586648D01*
X154352039Y-86475628D01*
X154352039Y-86475629D01*
X153973375Y-86326242D01*
X153966938Y-86320019D01*
X153966786Y-86311065D01*
X153966856Y-86310892D01*
X154031196Y-86155155D01*
X154342438Y-85401782D01*
X154348764Y-85395446D01*
X154348767Y-85395444D01*
X155257893Y-85019856D01*
X155266846Y-85019865D01*
G37*
%TD.AperFunction*%
%TD*%
%TA.AperFunction,Conductor*%
%TO.N,+48V*%
G36*
X177536488Y-87048452D02*
G01*
X177539730Y-87054654D01*
X177557999Y-87156320D01*
X177577999Y-87261615D01*
X177598000Y-87360909D01*
X177598008Y-87360945D01*
X177617982Y-87454124D01*
X177636556Y-87535197D01*
X177635063Y-87544027D01*
X177633431Y-87546076D01*
X177046280Y-88134206D01*
X177038010Y-88137640D01*
X177029734Y-88134220D01*
X177029720Y-88134206D01*
X176442568Y-87546076D01*
X176439148Y-87537800D01*
X176439442Y-87535205D01*
X176457999Y-87454204D01*
X176458003Y-87454181D01*
X176458017Y-87454124D01*
X176465978Y-87416981D01*
X176477999Y-87360909D01*
X176498000Y-87261615D01*
X176518000Y-87156320D01*
X176536269Y-87054655D01*
X176541106Y-87047119D01*
X176547785Y-87045025D01*
X177528215Y-87045025D01*
X177536488Y-87048452D01*
G37*
%TD.AperFunction*%
%TD*%
%TA.AperFunction,Conductor*%
%TO.N,Net-(R7-Pad2)*%
G36*
X163344587Y-96223979D02*
G01*
X163731754Y-96254117D01*
X163733840Y-96254472D01*
X163997331Y-96324588D01*
X164011877Y-96328459D01*
X164012942Y-96328798D01*
X164251592Y-96417400D01*
X164531184Y-96491800D01*
X164921210Y-96522160D01*
X164929190Y-96526218D01*
X164932000Y-96533824D01*
X164932000Y-97512175D01*
X164928573Y-97520448D01*
X164921208Y-97523840D01*
X164531183Y-97554200D01*
X164531181Y-97554200D01*
X164251592Y-97628600D01*
X164251581Y-97628603D01*
X164251580Y-97628603D01*
X164012940Y-97717201D01*
X164011877Y-97717540D01*
X163733847Y-97791525D01*
X163731746Y-97791883D01*
X163344592Y-97822019D01*
X163336078Y-97819244D01*
X163332019Y-97811262D01*
X163331984Y-97810369D01*
X163331960Y-97791525D01*
X163331000Y-97023000D01*
X163331984Y-96235629D01*
X163335421Y-96227362D01*
X163343699Y-96223945D01*
X163344587Y-96223979D01*
G37*
%TD.AperFunction*%
%TD*%
%TA.AperFunction,Conductor*%
%TO.N,Net-(R1-Pad2)*%
G36*
X167652190Y-97648531D02*
G01*
X167984986Y-97663054D01*
X167986154Y-97663165D01*
X168229202Y-97698995D01*
X168229810Y-97699102D01*
X168439554Y-97741960D01*
X168589966Y-97764133D01*
X168683484Y-97777920D01*
X168720746Y-97779545D01*
X169017871Y-97792511D01*
X169025986Y-97796295D01*
X169029060Y-97804200D01*
X169029060Y-98782158D01*
X169025633Y-98790431D01*
X169018249Y-98793824D01*
X168754299Y-98813948D01*
X168681230Y-98819520D01*
X168681228Y-98819520D01*
X168681224Y-98819521D01*
X168438434Y-98882758D01*
X168438432Y-98882758D01*
X168438427Y-98882760D01*
X168316910Y-98926899D01*
X168231143Y-98958054D01*
X168230097Y-98958379D01*
X167988843Y-99021215D01*
X167986783Y-99021559D01*
X167652570Y-99047041D01*
X167644061Y-99044253D01*
X167640015Y-99036264D01*
X167639982Y-99035418D01*
X167639000Y-98348000D01*
X167639982Y-97660202D01*
X167643421Y-97651936D01*
X167651699Y-97648521D01*
X167652190Y-97648531D01*
G37*
%TD.AperFunction*%
%TD*%
%TA.AperFunction,Conductor*%
%TO.N,Net-(Q1-G)*%
G36*
X178242066Y-92201730D02*
G01*
X178564447Y-92207995D01*
X178564908Y-92208015D01*
X178801690Y-92223494D01*
X178801890Y-92223510D01*
X178905775Y-92232900D01*
X179006417Y-92241999D01*
X179043123Y-92244398D01*
X179243525Y-92257499D01*
X179243528Y-92257499D01*
X179243540Y-92257500D01*
X179566543Y-92263777D01*
X179574748Y-92267364D01*
X179578016Y-92275458D01*
X179578996Y-92961656D01*
X179578099Y-92966165D01*
X179314886Y-93599255D01*
X179308546Y-93605578D01*
X179299591Y-93605566D01*
X179298962Y-93605283D01*
X179178301Y-93546545D01*
X179048902Y-93483553D01*
X179047912Y-93483010D01*
X178865833Y-93371213D01*
X178865832Y-93371212D01*
X178865815Y-93371202D01*
X178706146Y-93281902D01*
X178513042Y-93222845D01*
X178513043Y-93222845D01*
X178241033Y-93202316D01*
X178233042Y-93198276D01*
X178230214Y-93190649D01*
X178230214Y-92213429D01*
X178233641Y-92205156D01*
X178241914Y-92201729D01*
X178242066Y-92201730D01*
G37*
%TD.AperFunction*%
%TD*%
%TA.AperFunction,Conductor*%
%TO.N,Net-(Q1-G)*%
G36*
X177892831Y-92102409D02*
G01*
X178057999Y-92133499D01*
X178227999Y-92159499D01*
X178390595Y-92178628D01*
X178397991Y-92179499D01*
X178397992Y-92179499D01*
X178398000Y-92179500D01*
X178568000Y-92193500D01*
X178726850Y-92200975D01*
X178734953Y-92204787D01*
X178738000Y-92212662D01*
X178738000Y-93190337D01*
X178734573Y-93198610D01*
X178726850Y-93202024D01*
X178568014Y-93209498D01*
X178568004Y-93209498D01*
X178568000Y-93209499D01*
X178538931Y-93211892D01*
X178397991Y-93223499D01*
X178264966Y-93239150D01*
X178227999Y-93243500D01*
X178057999Y-93269500D01*
X178057996Y-93269500D01*
X178057980Y-93269503D01*
X177892862Y-93300584D01*
X177884098Y-93298747D01*
X177883956Y-93298648D01*
X177050562Y-92711062D01*
X177045775Y-92703494D01*
X177047742Y-92694758D01*
X177050562Y-92691938D01*
X177730335Y-92212662D01*
X177883956Y-92104350D01*
X177892692Y-92102384D01*
X177892831Y-92102409D01*
G37*
%TD.AperFunction*%
%TD*%
%TA.AperFunction,Conductor*%
%TO.N,Net-(R4-Pad2)*%
G36*
X165604356Y-91105529D02*
G01*
X165608012Y-91113703D01*
X165608017Y-91114013D01*
X165608996Y-91799656D01*
X165608099Y-91804165D01*
X165344626Y-92437881D01*
X165338286Y-92444204D01*
X165329331Y-92444192D01*
X165329300Y-92444179D01*
X165077195Y-92338506D01*
X165024505Y-92318226D01*
X164885869Y-92264867D01*
X164782492Y-92238253D01*
X164714957Y-92220866D01*
X164513254Y-92199560D01*
X164513237Y-92199559D01*
X164513236Y-92199559D01*
X164499316Y-92199286D01*
X164240953Y-92194224D01*
X164232748Y-92190635D01*
X164229482Y-92182526D01*
X164229482Y-91205377D01*
X164232909Y-91197104D01*
X164240854Y-91193682D01*
X164571795Y-91184432D01*
X164814194Y-91161616D01*
X165023105Y-91134407D01*
X165023448Y-91134368D01*
X165265341Y-91111600D01*
X165266056Y-91111557D01*
X165595991Y-91102335D01*
X165604356Y-91105529D01*
G37*
%TD.AperFunction*%
%TD*%
%TA.AperFunction,Conductor*%
%TO.N,Net-(R2-Pad2)*%
G36*
X177568587Y-97493979D02*
G01*
X177955754Y-97524117D01*
X177957840Y-97524472D01*
X178221331Y-97594588D01*
X178235877Y-97598459D01*
X178236942Y-97598798D01*
X178475592Y-97687400D01*
X178755184Y-97761800D01*
X179145210Y-97792160D01*
X179153190Y-97796218D01*
X179156000Y-97803824D01*
X179156000Y-98782175D01*
X179152573Y-98790448D01*
X179145208Y-98793840D01*
X178755183Y-98824200D01*
X178755181Y-98824200D01*
X178475592Y-98898600D01*
X178475581Y-98898603D01*
X178475580Y-98898603D01*
X178236940Y-98987201D01*
X178235877Y-98987540D01*
X177957847Y-99061525D01*
X177955746Y-99061883D01*
X177568592Y-99092019D01*
X177560078Y-99089244D01*
X177556019Y-99081262D01*
X177555984Y-99080369D01*
X177555960Y-99061525D01*
X177555000Y-98293000D01*
X177555984Y-97505629D01*
X177559421Y-97497362D01*
X177567699Y-97493945D01*
X177568587Y-97493979D01*
G37*
%TD.AperFunction*%
%TD*%
%TA.AperFunction,Conductor*%
%TO.N,GND*%
G36*
X146305703Y-82944382D02*
G01*
X146327296Y-82968749D01*
X146480238Y-83195496D01*
X146502306Y-83220005D01*
X146672120Y-83408603D01*
X146672127Y-83408610D01*
X146891797Y-83592936D01*
X146891801Y-83592939D01*
X146891803Y-83592940D01*
X147134998Y-83744905D01*
X147254823Y-83798255D01*
X147396962Y-83861540D01*
X147396967Y-83861541D01*
X147396975Y-83861545D01*
X147434349Y-83872261D01*
X147493365Y-83909662D01*
X147522793Y-83973032D01*
X147513289Y-84042252D01*
X147467991Y-84095267D01*
X147424827Y-84123467D01*
X147420481Y-84126180D01*
X147342519Y-84172635D01*
X147324599Y-84187813D01*
X147312286Y-84196994D01*
X147292630Y-84209835D01*
X147292627Y-84209838D01*
X147225864Y-84271298D01*
X147222024Y-84274689D01*
X147200293Y-84293094D01*
X147200281Y-84293104D01*
X147180155Y-84313231D01*
X147176461Y-84316776D01*
X147109678Y-84378255D01*
X147095248Y-84396794D01*
X147085080Y-84408306D01*
X146888306Y-84605080D01*
X146876794Y-84615248D01*
X146858255Y-84629678D01*
X146796776Y-84696461D01*
X146793231Y-84700155D01*
X146773104Y-84720281D01*
X146773094Y-84720293D01*
X146754689Y-84742024D01*
X146751298Y-84745864D01*
X146689838Y-84812627D01*
X146689835Y-84812630D01*
X146676994Y-84832286D01*
X146667813Y-84844599D01*
X146652635Y-84862520D01*
X146606174Y-84940490D01*
X146603462Y-84944833D01*
X146553829Y-85020805D01*
X146553824Y-85020813D01*
X146544397Y-85042305D01*
X146537367Y-85055962D01*
X146525348Y-85076132D01*
X146525343Y-85076142D01*
X146492347Y-85160704D01*
X146490386Y-85165437D01*
X146453937Y-85248534D01*
X146453935Y-85248539D01*
X146448169Y-85271306D01*
X146443484Y-85285931D01*
X146434953Y-85307795D01*
X146434948Y-85307811D01*
X146416324Y-85396627D01*
X146415170Y-85401617D01*
X146392892Y-85489591D01*
X146392890Y-85489602D01*
X146390952Y-85512993D01*
X146388737Y-85528194D01*
X146383920Y-85551166D01*
X146383919Y-85551179D01*
X146380168Y-85641856D01*
X146379851Y-85646966D01*
X146377500Y-85675350D01*
X146377500Y-85703818D01*
X146377394Y-85708942D01*
X146373642Y-85799635D01*
X146376548Y-85822942D01*
X146377500Y-85838279D01*
X146377500Y-88243818D01*
X146377394Y-88248942D01*
X146373642Y-88339635D01*
X146376548Y-88362942D01*
X146377500Y-88378279D01*
X146377500Y-90783818D01*
X146377394Y-90788942D01*
X146373642Y-90879635D01*
X146376548Y-90902942D01*
X146377500Y-90918279D01*
X146377500Y-91914402D01*
X146377394Y-91919526D01*
X146373642Y-92010219D01*
X146376548Y-92033526D01*
X146377500Y-92048863D01*
X146377500Y-103579493D01*
X146392890Y-103765229D01*
X146392892Y-103765240D01*
X146453936Y-104006295D01*
X146517056Y-104150195D01*
X146527500Y-104200004D01*
X146527500Y-104415285D01*
X146527501Y-104415292D01*
X146533908Y-104474899D01*
X146584202Y-104609744D01*
X146584206Y-104609751D01*
X146670452Y-104724960D01*
X146670455Y-104724963D01*
X146785664Y-104811209D01*
X146785671Y-104811213D01*
X146830618Y-104827977D01*
X146920517Y-104861507D01*
X146980127Y-104867916D01*
X147189441Y-104867915D01*
X147248458Y-104882859D01*
X147273190Y-104896244D01*
X147273193Y-104896245D01*
X147273195Y-104896246D01*
X147508383Y-104976986D01*
X147508386Y-104976987D01*
X147753665Y-105017916D01*
X148002335Y-105017916D01*
X148247614Y-104976987D01*
X148482810Y-104896244D01*
X148507541Y-104882859D01*
X148566559Y-104867915D01*
X148735500Y-104867915D01*
X148802539Y-104887600D01*
X148848294Y-104940404D01*
X148859500Y-104991915D01*
X148859500Y-110196687D01*
X148859500Y-110206237D01*
X148859497Y-110381634D01*
X148870082Y-110489119D01*
X148884633Y-110636891D01*
X148871613Y-110705537D01*
X148823547Y-110756246D01*
X148755696Y-110772919D01*
X148713777Y-110763604D01*
X148696013Y-110756246D01*
X148621610Y-110725427D01*
X148621611Y-110725427D01*
X148410659Y-110674782D01*
X148368994Y-110664779D01*
X148368992Y-110664778D01*
X148368991Y-110664778D01*
X148174858Y-110649500D01*
X148174853Y-110649500D01*
X148045147Y-110649500D01*
X148045141Y-110649500D01*
X147851009Y-110664778D01*
X147598389Y-110725427D01*
X147358376Y-110824843D01*
X147136859Y-110960588D01*
X146939311Y-111129311D01*
X146770588Y-111326859D01*
X146634843Y-111548376D01*
X146535427Y-111788389D01*
X146474778Y-112041009D01*
X146454396Y-112300000D01*
X146474778Y-112558990D01*
X146535427Y-112811610D01*
X146634843Y-113051623D01*
X146634845Y-113051627D01*
X146634846Y-113051628D01*
X146770588Y-113273140D01*
X146939311Y-113470689D01*
X147136860Y-113639412D01*
X147358372Y-113775154D01*
X147358374Y-113775154D01*
X147358376Y-113775156D01*
X147391519Y-113788884D01*
X147598390Y-113874573D01*
X147851006Y-113935221D01*
X148045147Y-113950500D01*
X148045155Y-113950500D01*
X148174845Y-113950500D01*
X148174853Y-113950500D01*
X148368994Y-113935221D01*
X148621610Y-113874573D01*
X148861628Y-113775154D01*
X149083140Y-113639412D01*
X149280689Y-113470689D01*
X149449412Y-113273140D01*
X149585154Y-113051628D01*
X149684573Y-112811610D01*
X149688015Y-112797273D01*
X149691237Y-112783854D01*
X149726027Y-112723262D01*
X149788053Y-112691097D01*
X149857622Y-112697573D01*
X149899492Y-112725119D01*
X150029204Y-112854831D01*
X150029209Y-112854835D01*
X150029211Y-112854837D01*
X150300379Y-113077377D01*
X150592053Y-113272266D01*
X150783755Y-113374731D01*
X150876549Y-113424330D01*
X150901427Y-113437627D01*
X151225518Y-113571867D01*
X151448194Y-113639412D01*
X151547760Y-113669614D01*
X151561208Y-113673693D01*
X151905261Y-113742125D01*
X152254366Y-113776503D01*
X152429763Y-113776500D01*
X152704742Y-113776500D01*
X152704743Y-113776500D01*
X152856439Y-113761074D01*
X153050579Y-113700162D01*
X153050579Y-113700161D01*
X153050588Y-113700159D01*
X153206078Y-113613854D01*
X153229348Y-113603895D01*
X153333270Y-113571512D01*
X153473653Y-113486648D01*
X153589648Y-113370653D01*
X153656136Y-113260666D01*
X153707661Y-113213480D01*
X153776520Y-113201641D01*
X153840850Y-113228909D01*
X153866567Y-113257777D01*
X153891855Y-113297125D01*
X153891857Y-113297128D01*
X154000627Y-113391377D01*
X154131543Y-113451165D01*
X154274000Y-113471647D01*
X156356257Y-113471647D01*
X156423296Y-113491332D01*
X156443938Y-113507966D01*
X157023791Y-114087819D01*
X157057276Y-114149142D01*
X157052292Y-114218834D01*
X157010420Y-114274767D01*
X156944956Y-114299184D01*
X156936110Y-114299500D01*
X148144506Y-114299500D01*
X148142295Y-114299480D01*
X148140227Y-114299443D01*
X148102262Y-114298765D01*
X148097838Y-114298607D01*
X148035651Y-114295273D01*
X148034176Y-114295185D01*
X148016819Y-114294047D01*
X148016088Y-114293997D01*
X147959911Y-114289980D01*
X147955500Y-114289586D01*
X147820495Y-114275072D01*
X147811733Y-114273812D01*
X147680293Y-114250097D01*
X147671644Y-114248215D01*
X147542259Y-114215191D01*
X147533766Y-114212697D01*
X147407056Y-114170524D01*
X147398774Y-114167435D01*
X147275377Y-114116323D01*
X147267328Y-114112647D01*
X147147912Y-114052872D01*
X147140143Y-114048630D01*
X147025280Y-113980479D01*
X147017833Y-113975693D01*
X147001399Y-113964283D01*
X146908138Y-113899530D01*
X146901057Y-113894229D01*
X146797063Y-113810425D01*
X146790373Y-113804628D01*
X146692631Y-113713626D01*
X146686372Y-113707368D01*
X146595362Y-113609617D01*
X146589566Y-113602927D01*
X146505779Y-113498954D01*
X146500474Y-113491868D01*
X146472213Y-113451165D01*
X146424298Y-113382154D01*
X146419528Y-113374731D01*
X146351361Y-113259842D01*
X146347127Y-113252087D01*
X146318053Y-113194005D01*
X146287351Y-113132669D01*
X146283677Y-113124624D01*
X146232572Y-113001245D01*
X146229479Y-112992952D01*
X146216896Y-112955149D01*
X146187297Y-112866219D01*
X146184808Y-112857740D01*
X146184066Y-112854831D01*
X146151777Y-112728325D01*
X146149904Y-112719717D01*
X146126183Y-112588243D01*
X146124929Y-112579523D01*
X146110413Y-112444500D01*
X146110020Y-112440095D01*
X146105979Y-112383599D01*
X146104799Y-112365603D01*
X146104731Y-112364447D01*
X146101390Y-112302135D01*
X146101234Y-112297738D01*
X146100520Y-112257703D01*
X146100500Y-112255492D01*
X146100500Y-83038095D01*
X146120185Y-82971056D01*
X146172989Y-82925301D01*
X146242147Y-82915357D01*
X146305703Y-82944382D01*
G37*
%TD.AperFunction*%
%TA.AperFunction,Conductor*%
G36*
X179237722Y-77099506D02*
G01*
X179240910Y-77099558D01*
X179269511Y-77100025D01*
X179273516Y-77100156D01*
X179335991Y-77103224D01*
X179337884Y-77103333D01*
X179400097Y-77107411D01*
X179404068Y-77107736D01*
X179528036Y-77119944D01*
X179536072Y-77121003D01*
X179656912Y-77140951D01*
X179664849Y-77142529D01*
X179775675Y-77168368D01*
X179784148Y-77170344D01*
X179791986Y-77172444D01*
X179862578Y-77193856D01*
X179909201Y-77207999D01*
X179916868Y-77210601D01*
X180021541Y-77249995D01*
X180031511Y-77253748D01*
X180039008Y-77256853D01*
X180150591Y-77307409D01*
X180157822Y-77310975D01*
X180265876Y-77368729D01*
X180272877Y-77372771D01*
X180316761Y-77400058D01*
X180376899Y-77437454D01*
X180383648Y-77441964D01*
X180483193Y-77513298D01*
X180489632Y-77518239D01*
X180585888Y-77597243D01*
X180585890Y-77597244D01*
X180588942Y-77599833D01*
X180635926Y-77641042D01*
X180637292Y-77642260D01*
X180683560Y-77684200D01*
X180686486Y-77686940D01*
X180708327Y-77708079D01*
X180709338Y-77709057D01*
X180710781Y-77710478D01*
X182752431Y-79752127D01*
X182785916Y-79813450D01*
X182780932Y-79883142D01*
X182739060Y-79939075D01*
X182673596Y-79963492D01*
X182630572Y-79959005D01*
X182580976Y-79944784D01*
X182527364Y-79929411D01*
X182527360Y-79929410D01*
X182527355Y-79929409D01*
X182243389Y-79889500D01*
X182243385Y-79889500D01*
X182028396Y-79889500D01*
X182028383Y-79889500D01*
X181813925Y-79904497D01*
X181813921Y-79904497D01*
X181533427Y-79964119D01*
X181263954Y-80062199D01*
X181010752Y-80196827D01*
X181010745Y-80196832D01*
X180778753Y-80365383D01*
X180778746Y-80365389D01*
X180572459Y-80564599D01*
X180395907Y-80790574D01*
X180252525Y-81038920D01*
X180252519Y-81038932D01*
X180145097Y-81304811D01*
X180110711Y-81442728D01*
X180075721Y-81583065D01*
X180061840Y-81715137D01*
X180045744Y-81868274D01*
X180055752Y-82154855D01*
X180055753Y-82154862D01*
X180105549Y-82437269D01*
X180105550Y-82437273D01*
X180194168Y-82710010D01*
X180319874Y-82967745D01*
X180319877Y-82967749D01*
X180319879Y-82967753D01*
X180480238Y-83205496D01*
X180493302Y-83220005D01*
X180672120Y-83418603D01*
X180672127Y-83418610D01*
X180891797Y-83602936D01*
X181118994Y-83744905D01*
X181134998Y-83754905D01*
X181253800Y-83807799D01*
X181396962Y-83871540D01*
X181396967Y-83871541D01*
X181396975Y-83871545D01*
X181672636Y-83950589D01*
X181672641Y-83950589D01*
X181672646Y-83950591D01*
X181861955Y-83977196D01*
X181956610Y-83990499D01*
X181956612Y-83990500D01*
X181956615Y-83990500D01*
X182171592Y-83990500D01*
X182171604Y-83990500D01*
X182386071Y-83975503D01*
X182386076Y-83975502D01*
X182386078Y-83975502D01*
X182550328Y-83940589D01*
X182666575Y-83915880D01*
X182936050Y-83817799D01*
X183189253Y-83683169D01*
X183421254Y-83514610D01*
X183627539Y-83315403D01*
X183804093Y-83089425D01*
X183868113Y-82978537D01*
X183918679Y-82930323D01*
X183987286Y-82917099D01*
X184052151Y-82943067D01*
X184092680Y-82999981D01*
X184099500Y-83040538D01*
X184099500Y-111191904D01*
X184079815Y-111258943D01*
X184027011Y-111304698D01*
X183957853Y-111314642D01*
X183894297Y-111285617D01*
X183872699Y-111261244D01*
X183865086Y-111249957D01*
X183719762Y-111034504D01*
X183563009Y-110860412D01*
X183527879Y-110821396D01*
X183527872Y-110821389D01*
X183308202Y-110637063D01*
X183065006Y-110485097D01*
X183065004Y-110485096D01*
X182803037Y-110368459D01*
X182803027Y-110368456D01*
X182803025Y-110368455D01*
X182527364Y-110289411D01*
X182527362Y-110289410D01*
X182527353Y-110289408D01*
X182243389Y-110249500D01*
X182243385Y-110249500D01*
X182028396Y-110249500D01*
X182028383Y-110249500D01*
X181813925Y-110264497D01*
X181813921Y-110264497D01*
X181533427Y-110324119D01*
X181263954Y-110422199D01*
X181010752Y-110556827D01*
X181010745Y-110556832D01*
X180778753Y-110725383D01*
X180778746Y-110725389D01*
X180572459Y-110924599D01*
X180395907Y-111150574D01*
X180252525Y-111398920D01*
X180252519Y-111398932D01*
X180145097Y-111664811D01*
X180075721Y-111943065D01*
X180045744Y-112228274D01*
X180055752Y-112514855D01*
X180055753Y-112514862D01*
X180105549Y-112797269D01*
X180105550Y-112797273D01*
X180194168Y-113070010D01*
X180319874Y-113327745D01*
X180319877Y-113327749D01*
X180319879Y-113327753D01*
X180480238Y-113565496D01*
X180530980Y-113621851D01*
X180672120Y-113778603D01*
X180672127Y-113778610D01*
X180891797Y-113962936D01*
X180891801Y-113962939D01*
X180891803Y-113962940D01*
X180977688Y-114016607D01*
X181063682Y-114070342D01*
X181110104Y-114122561D01*
X181120924Y-114191588D01*
X181092708Y-114255507D01*
X181034414Y-114294024D01*
X180997972Y-114299500D01*
X172078331Y-114299500D01*
X172011292Y-114279815D01*
X171965537Y-114227011D01*
X171955593Y-114157853D01*
X171969275Y-114116485D01*
X171979255Y-114098043D01*
X171992679Y-114073236D01*
X171997911Y-114064455D01*
X172029173Y-114016607D01*
X172052126Y-113964275D01*
X172056617Y-113955089D01*
X172083828Y-113904810D01*
X172102387Y-113850745D01*
X172106103Y-113841220D01*
X172129063Y-113788881D01*
X172132198Y-113776503D01*
X172143088Y-113733494D01*
X172146005Y-113723690D01*
X172164571Y-113669614D01*
X172173978Y-113613237D01*
X172176079Y-113603218D01*
X172184019Y-113571867D01*
X172190108Y-113547821D01*
X172194827Y-113490859D01*
X172196094Y-113480696D01*
X172205500Y-113424335D01*
X172205500Y-113175665D01*
X172205500Y-111042379D01*
X172205972Y-111031571D01*
X172210659Y-110978000D01*
X172210659Y-110977999D01*
X172205972Y-110924428D01*
X172205500Y-110913620D01*
X172205500Y-110853669D01*
X172205500Y-110853666D01*
X172205500Y-110853665D01*
X172196093Y-110797296D01*
X172194826Y-110787130D01*
X172192877Y-110763604D01*
X172190108Y-110730179D01*
X172176076Y-110674768D01*
X172173976Y-110664749D01*
X172164572Y-110608391D01*
X172164571Y-110608390D01*
X172164571Y-110608386D01*
X172146008Y-110554315D01*
X172143088Y-110544505D01*
X172129064Y-110489122D01*
X172127298Y-110485097D01*
X172106109Y-110436791D01*
X172102384Y-110427245D01*
X172083828Y-110373190D01*
X172081265Y-110368455D01*
X172056623Y-110322921D01*
X172052126Y-110313723D01*
X172029173Y-110261393D01*
X172021403Y-110249500D01*
X171997918Y-110213553D01*
X171992676Y-110204757D01*
X171969275Y-110161516D01*
X171954681Y-110093188D01*
X171979344Y-110027816D01*
X172035435Y-109986156D01*
X172078331Y-109978500D01*
X172087665Y-109978500D01*
X172149933Y-109978500D01*
X174689933Y-109978500D01*
X174718412Y-109978500D01*
X174723536Y-109978605D01*
X174814221Y-109982357D01*
X174837526Y-109979452D01*
X174852863Y-109978500D01*
X175955611Y-109978500D01*
X176022650Y-109998185D01*
X176068405Y-110050989D01*
X176078349Y-110120147D01*
X176057185Y-110173624D01*
X175968404Y-110300414D01*
X175968400Y-110300420D01*
X175868570Y-110514507D01*
X175868567Y-110514513D01*
X175811364Y-110727999D01*
X175811364Y-110728000D01*
X176858314Y-110728000D01*
X176832507Y-110768156D01*
X176792000Y-110906111D01*
X176792000Y-111049889D01*
X176832507Y-111187844D01*
X176858314Y-111228000D01*
X175811364Y-111228000D01*
X175868567Y-111441486D01*
X175868570Y-111441492D01*
X175968399Y-111655577D01*
X175968400Y-111655579D01*
X176103886Y-111849073D01*
X176103891Y-111849079D01*
X176270920Y-112016108D01*
X176270926Y-112016113D01*
X176464420Y-112151599D01*
X176464422Y-112151600D01*
X176678507Y-112251429D01*
X176678516Y-112251433D01*
X176906673Y-112312567D01*
X176906684Y-112312569D01*
X177041999Y-112324407D01*
X177042000Y-112324407D01*
X177042000Y-111413501D01*
X177149685Y-111462680D01*
X177256237Y-111478000D01*
X177327763Y-111478000D01*
X177434315Y-111462680D01*
X177542000Y-111413501D01*
X177542000Y-112324407D01*
X177677315Y-112312569D01*
X177677326Y-112312567D01*
X177905483Y-112251433D01*
X177905492Y-112251429D01*
X178119577Y-112151600D01*
X178119579Y-112151599D01*
X178313073Y-112016113D01*
X178313079Y-112016108D01*
X178480105Y-111849082D01*
X178615600Y-111655578D01*
X178715429Y-111441492D01*
X178715432Y-111441486D01*
X178772636Y-111228000D01*
X177725686Y-111228000D01*
X177751493Y-111187844D01*
X177792000Y-111049889D01*
X177792000Y-110906111D01*
X177751493Y-110768156D01*
X177725686Y-110728000D01*
X178772636Y-110728000D01*
X178772635Y-110727999D01*
X178715432Y-110514513D01*
X178715429Y-110514507D01*
X178615600Y-110300422D01*
X178615599Y-110300420D01*
X178480113Y-110106926D01*
X178332856Y-109959668D01*
X178299372Y-109898345D01*
X178304356Y-109828653D01*
X178346228Y-109772720D01*
X178355442Y-109766448D01*
X178361334Y-109762814D01*
X178510656Y-109670712D01*
X178634712Y-109546656D01*
X178726814Y-109397334D01*
X178781999Y-109230797D01*
X178792500Y-109128009D01*
X178792499Y-108578862D01*
X178793452Y-108563521D01*
X178796357Y-108540221D01*
X178792606Y-108449535D01*
X178792500Y-108444410D01*
X178792500Y-108346070D01*
X178792499Y-108346052D01*
X178792499Y-107827998D01*
X178792498Y-107827981D01*
X178781999Y-107725203D01*
X178781998Y-107725200D01*
X178726814Y-107558666D01*
X178634712Y-107409344D01*
X178510656Y-107285288D01*
X178361334Y-107193186D01*
X178194797Y-107138001D01*
X178194794Y-107138000D01*
X178104170Y-107128742D01*
X178039478Y-107102346D01*
X178029092Y-107093065D01*
X176274819Y-105338791D01*
X176241334Y-105277468D01*
X176238500Y-105251110D01*
X176238500Y-99072045D01*
X176258185Y-99005006D01*
X176310989Y-98959251D01*
X176380147Y-98949307D01*
X176443703Y-98978332D01*
X176464073Y-99000920D01*
X176503245Y-99056864D01*
X176555954Y-99132141D01*
X176716858Y-99293045D01*
X176741248Y-99310123D01*
X176903266Y-99423568D01*
X177109504Y-99519739D01*
X177109509Y-99519740D01*
X177109511Y-99519741D01*
X177131366Y-99525597D01*
X177329308Y-99578635D01*
X177556000Y-99598468D01*
X177584899Y-99595938D01*
X177603777Y-99595731D01*
X177607821Y-99595995D01*
X177994975Y-99565859D01*
X178040657Y-99560201D01*
X178042758Y-99559843D01*
X178087839Y-99550025D01*
X178365869Y-99476040D01*
X178389464Y-99469143D01*
X178390527Y-99468804D01*
X178412879Y-99461095D01*
X178623362Y-99382949D01*
X178634596Y-99379379D01*
X178751503Y-99348268D01*
X178814640Y-99348102D01*
X178877649Y-99364513D01*
X178888683Y-99367946D01*
X179068269Y-99433180D01*
X179090866Y-99440789D01*
X179090872Y-99440791D01*
X179091930Y-99441120D01*
X179111054Y-99446578D01*
X179114491Y-99447559D01*
X179345079Y-99507617D01*
X179355749Y-99510396D01*
X179361475Y-99511617D01*
X179399894Y-99519811D01*
X179401258Y-99520038D01*
X179401941Y-99520153D01*
X179401944Y-99520153D01*
X179401954Y-99520155D01*
X179446785Y-99525596D01*
X179446792Y-99525596D01*
X179446796Y-99525597D01*
X179500320Y-99529677D01*
X179695827Y-99544583D01*
X179709178Y-99546335D01*
X179720757Y-99548500D01*
X179742468Y-99548500D01*
X179751893Y-99548858D01*
X179763293Y-99549728D01*
X179780997Y-99551078D01*
X179793489Y-99551797D01*
X179799734Y-99552157D01*
X179800606Y-99552191D01*
X179873618Y-99549755D01*
X179873627Y-99549752D01*
X179873805Y-99549728D01*
X179891215Y-99548500D01*
X179943241Y-99548500D01*
X179943243Y-99548500D01*
X180161940Y-99507618D01*
X180369401Y-99427247D01*
X180558562Y-99310124D01*
X180722981Y-99160236D01*
X180857058Y-98982689D01*
X180859661Y-98977460D01*
X180907158Y-98926221D01*
X180974820Y-98908794D01*
X181041162Y-98930713D01*
X181083047Y-98980319D01*
X181094559Y-99005006D01*
X181137565Y-99097233D01*
X181145965Y-99115245D01*
X181145967Y-99115250D01*
X181281501Y-99308811D01*
X181281506Y-99308818D01*
X181448597Y-99475909D01*
X181448603Y-99475914D01*
X181634158Y-99605841D01*
X181677783Y-99660418D01*
X181684977Y-99729916D01*
X181653454Y-99792271D01*
X181634158Y-99808991D01*
X181448597Y-99938921D01*
X181281505Y-100106013D01*
X181145965Y-100299585D01*
X181145964Y-100299587D01*
X181046098Y-100513751D01*
X181046094Y-100513760D01*
X180984938Y-100742002D01*
X180984936Y-100742012D01*
X180964341Y-100977415D01*
X180964341Y-100977416D01*
X180984936Y-101212819D01*
X180984938Y-101212829D01*
X181046094Y-101441071D01*
X181046096Y-101441075D01*
X181046097Y-101441079D01*
X181138990Y-101640288D01*
X181145965Y-101655246D01*
X181145967Y-101655250D01*
X181231598Y-101777543D01*
X181281501Y-101848812D01*
X181281506Y-101848818D01*
X181403430Y-101970742D01*
X181436915Y-102032065D01*
X181431931Y-102101757D01*
X181390059Y-102157690D01*
X181359083Y-102174605D01*
X181227669Y-102223619D01*
X181227664Y-102223622D01*
X181112455Y-102309868D01*
X181112452Y-102309871D01*
X181026206Y-102425080D01*
X181026202Y-102425087D01*
X180975908Y-102559933D01*
X180971541Y-102600559D01*
X180969501Y-102619539D01*
X180969500Y-102619551D01*
X180969500Y-104415286D01*
X180969501Y-104415292D01*
X180975908Y-104474899D01*
X181026202Y-104609744D01*
X181026206Y-104609751D01*
X181112452Y-104724960D01*
X181112455Y-104724963D01*
X181227664Y-104811209D01*
X181227671Y-104811213D01*
X181362517Y-104861507D01*
X181362516Y-104861507D01*
X181369444Y-104862251D01*
X181422127Y-104867916D01*
X183217872Y-104867915D01*
X183277483Y-104861507D01*
X183412331Y-104811212D01*
X183527546Y-104724962D01*
X183613796Y-104609747D01*
X183664091Y-104474899D01*
X183670500Y-104415289D01*
X183670499Y-102619544D01*
X183664091Y-102559933D01*
X183613796Y-102425085D01*
X183613795Y-102425084D01*
X183613793Y-102425080D01*
X183527547Y-102309871D01*
X183527544Y-102309868D01*
X183412335Y-102223622D01*
X183412328Y-102223618D01*
X183280917Y-102174605D01*
X183224983Y-102132734D01*
X183200566Y-102067269D01*
X183215418Y-101998996D01*
X183236563Y-101970748D01*
X183358495Y-101848817D01*
X183494035Y-101655246D01*
X183593903Y-101441079D01*
X183655063Y-101212824D01*
X183675659Y-100977416D01*
X183655063Y-100742008D01*
X183608626Y-100568701D01*
X183593905Y-100513760D01*
X183593904Y-100513759D01*
X183593903Y-100513753D01*
X183494035Y-100299587D01*
X183435322Y-100215735D01*
X183358494Y-100106013D01*
X183191402Y-99938922D01*
X183191396Y-99938917D01*
X183005842Y-99808991D01*
X182962217Y-99754414D01*
X182955023Y-99684916D01*
X182986546Y-99622561D01*
X183005842Y-99605841D01*
X183067025Y-99563000D01*
X183191401Y-99475911D01*
X183358495Y-99308817D01*
X183494035Y-99115246D01*
X183593903Y-98901079D01*
X183655063Y-98672824D01*
X183675659Y-98437416D01*
X183655063Y-98202008D01*
X183606161Y-98019500D01*
X183593905Y-97973760D01*
X183593904Y-97973759D01*
X183593903Y-97973753D01*
X183494035Y-97759587D01*
X183461633Y-97713311D01*
X183358494Y-97566013D01*
X183191402Y-97398922D01*
X183191396Y-97398917D01*
X183005842Y-97268991D01*
X182962217Y-97214414D01*
X182955023Y-97144916D01*
X182986546Y-97082561D01*
X183005842Y-97065841D01*
X183067025Y-97023000D01*
X183191401Y-96935911D01*
X183358495Y-96768817D01*
X183494035Y-96575246D01*
X183593903Y-96361079D01*
X183655063Y-96132824D01*
X183675659Y-95897416D01*
X183655063Y-95662008D01*
X183597143Y-95445845D01*
X183593905Y-95433760D01*
X183593904Y-95433759D01*
X183593903Y-95433753D01*
X183494035Y-95219587D01*
X183491737Y-95216304D01*
X183358494Y-95026013D01*
X183191402Y-94858922D01*
X183191401Y-94858921D01*
X183005405Y-94728685D01*
X182961781Y-94674108D01*
X182954588Y-94604609D01*
X182986110Y-94542255D01*
X183005405Y-94525535D01*
X183191082Y-94395521D01*
X183358105Y-94228498D01*
X183493600Y-94034994D01*
X183593429Y-93820908D01*
X183593432Y-93820902D01*
X183650636Y-93607416D01*
X182753686Y-93607416D01*
X182779493Y-93567260D01*
X182820000Y-93429305D01*
X182820000Y-93285527D01*
X182779493Y-93147572D01*
X182753686Y-93107416D01*
X183650636Y-93107416D01*
X183650635Y-93107415D01*
X183593432Y-92893929D01*
X183593429Y-92893923D01*
X183493600Y-92679838D01*
X183493599Y-92679836D01*
X183358113Y-92486342D01*
X183358108Y-92486336D01*
X183191082Y-92319310D01*
X183004968Y-92188991D01*
X182961344Y-92134414D01*
X182954151Y-92064915D01*
X182985673Y-92002561D01*
X183004968Y-91985841D01*
X183191082Y-91855521D01*
X183358105Y-91688498D01*
X183493600Y-91494994D01*
X183593429Y-91280908D01*
X183593432Y-91280902D01*
X183650636Y-91067416D01*
X182753686Y-91067416D01*
X182779493Y-91027260D01*
X182820000Y-90889305D01*
X182820000Y-90745527D01*
X182779493Y-90607572D01*
X182753686Y-90567416D01*
X183650636Y-90567416D01*
X183650635Y-90567415D01*
X183593432Y-90353929D01*
X183593429Y-90353923D01*
X183493600Y-90139838D01*
X183493599Y-90139836D01*
X183358113Y-89946342D01*
X183358108Y-89946336D01*
X183191082Y-89779310D01*
X183004968Y-89648991D01*
X182961344Y-89594414D01*
X182954151Y-89524915D01*
X182985673Y-89462561D01*
X183004968Y-89445841D01*
X183191082Y-89315521D01*
X183358105Y-89148498D01*
X183493600Y-88954994D01*
X183593429Y-88740908D01*
X183593432Y-88740902D01*
X183650636Y-88527416D01*
X182753686Y-88527416D01*
X182779493Y-88487260D01*
X182820000Y-88349305D01*
X182820000Y-88205527D01*
X182779493Y-88067572D01*
X182753686Y-88027416D01*
X183650636Y-88027416D01*
X183650635Y-88027415D01*
X183593432Y-87813929D01*
X183593429Y-87813923D01*
X183493600Y-87599838D01*
X183493599Y-87599836D01*
X183358113Y-87406342D01*
X183358108Y-87406336D01*
X183191082Y-87239310D01*
X183004968Y-87108991D01*
X182961344Y-87054414D01*
X182954151Y-86984915D01*
X182985673Y-86922561D01*
X183004968Y-86905841D01*
X183191082Y-86775521D01*
X183358105Y-86608498D01*
X183493600Y-86414994D01*
X183593429Y-86200908D01*
X183593432Y-86200902D01*
X183650636Y-85987416D01*
X182753686Y-85987416D01*
X182779493Y-85947260D01*
X182820000Y-85809305D01*
X182820000Y-85665527D01*
X182779493Y-85527572D01*
X182753686Y-85487416D01*
X183650636Y-85487416D01*
X183650635Y-85487415D01*
X183593432Y-85273929D01*
X183593429Y-85273923D01*
X183493600Y-85059838D01*
X183493599Y-85059836D01*
X183358113Y-84866342D01*
X183358108Y-84866336D01*
X183191082Y-84699310D01*
X182997578Y-84563815D01*
X182783492Y-84463986D01*
X182783486Y-84463983D01*
X182570000Y-84406780D01*
X182570000Y-85301914D01*
X182462315Y-85252736D01*
X182355763Y-85237416D01*
X182284237Y-85237416D01*
X182177685Y-85252736D01*
X182070000Y-85301914D01*
X182070000Y-84406780D01*
X182069999Y-84406780D01*
X181856513Y-84463983D01*
X181856507Y-84463986D01*
X181642422Y-84563815D01*
X181642420Y-84563816D01*
X181448926Y-84699302D01*
X181448920Y-84699307D01*
X181281891Y-84866336D01*
X181281886Y-84866342D01*
X181146400Y-85059836D01*
X181146399Y-85059838D01*
X181046570Y-85273923D01*
X181046567Y-85273929D01*
X180989364Y-85487415D01*
X180989364Y-85487416D01*
X181886314Y-85487416D01*
X181860507Y-85527572D01*
X181820000Y-85665527D01*
X181820000Y-85809305D01*
X181860507Y-85947260D01*
X181886314Y-85987416D01*
X180989364Y-85987416D01*
X181046567Y-86200902D01*
X181046570Y-86200908D01*
X181146399Y-86414994D01*
X181281894Y-86608498D01*
X181448917Y-86775521D01*
X181635031Y-86905841D01*
X181678656Y-86960419D01*
X181685848Y-87029917D01*
X181654326Y-87092272D01*
X181635031Y-87108991D01*
X181448922Y-87239306D01*
X181448920Y-87239307D01*
X181281891Y-87406336D01*
X181281886Y-87406342D01*
X181146400Y-87599836D01*
X181146399Y-87599838D01*
X181046570Y-87813923D01*
X181046567Y-87813930D01*
X181025699Y-87891811D01*
X180989333Y-87951471D01*
X180926486Y-87982000D01*
X180921885Y-87981449D01*
X180977722Y-88013475D01*
X180986598Y-88023812D01*
X180989364Y-88027416D01*
X181886314Y-88027416D01*
X181860507Y-88067572D01*
X181820000Y-88205527D01*
X181820000Y-88349305D01*
X181860507Y-88487260D01*
X181886314Y-88527416D01*
X180989364Y-88527416D01*
X181046567Y-88740902D01*
X181046570Y-88740908D01*
X181146399Y-88954994D01*
X181281894Y-89148498D01*
X181448917Y-89315521D01*
X181635031Y-89445841D01*
X181678656Y-89500419D01*
X181685848Y-89569917D01*
X181654326Y-89632272D01*
X181635031Y-89648991D01*
X181448922Y-89779306D01*
X181448920Y-89779307D01*
X181281891Y-89946336D01*
X181281886Y-89946342D01*
X181146400Y-90139836D01*
X181146399Y-90139838D01*
X181046570Y-90353923D01*
X181046567Y-90353929D01*
X180989364Y-90567415D01*
X180989364Y-90567416D01*
X181886314Y-90567416D01*
X181860507Y-90607572D01*
X181820000Y-90745527D01*
X181820000Y-90889305D01*
X181860507Y-91027260D01*
X181886314Y-91067416D01*
X180989364Y-91067416D01*
X181046567Y-91280902D01*
X181046570Y-91280908D01*
X181146399Y-91494994D01*
X181281894Y-91688498D01*
X181448917Y-91855521D01*
X181635031Y-91985841D01*
X181678656Y-92040419D01*
X181685848Y-92109917D01*
X181654326Y-92172272D01*
X181635031Y-92188991D01*
X181448922Y-92319306D01*
X181448920Y-92319307D01*
X181281891Y-92486336D01*
X181281886Y-92486342D01*
X181146400Y-92679836D01*
X181146399Y-92679838D01*
X181046570Y-92893923D01*
X181046567Y-92893930D01*
X181025699Y-92971811D01*
X180989333Y-93031471D01*
X180926486Y-93062000D01*
X180921885Y-93061449D01*
X180977722Y-93093475D01*
X180986598Y-93103812D01*
X180989364Y-93107416D01*
X181886314Y-93107416D01*
X181860507Y-93147572D01*
X181820000Y-93285527D01*
X181820000Y-93429305D01*
X181860507Y-93567260D01*
X181886314Y-93607416D01*
X180989364Y-93607416D01*
X181046567Y-93820902D01*
X181046570Y-93820908D01*
X181146399Y-94034994D01*
X181281894Y-94228498D01*
X181448917Y-94395521D01*
X181634595Y-94525535D01*
X181678219Y-94580112D01*
X181685412Y-94649611D01*
X181653890Y-94711965D01*
X181634595Y-94728685D01*
X181448594Y-94858924D01*
X181281505Y-95026013D01*
X181145965Y-95219585D01*
X181145961Y-95219592D01*
X181125840Y-95262742D01*
X181079667Y-95315181D01*
X181012474Y-95334332D01*
X180945593Y-95314115D01*
X180902459Y-95265607D01*
X180856637Y-95173584D01*
X180856630Y-95173572D01*
X180840860Y-95152690D01*
X180185553Y-95807999D01*
X180185553Y-95808000D01*
X180840861Y-96463308D01*
X180856631Y-96442425D01*
X180856634Y-96442420D01*
X180859394Y-96436879D01*
X180906895Y-96385640D01*
X180974557Y-96368216D01*
X181040898Y-96390139D01*
X181082777Y-96439740D01*
X181093767Y-96463308D01*
X181145965Y-96575246D01*
X181145967Y-96575250D01*
X181281501Y-96768811D01*
X181281506Y-96768818D01*
X181448597Y-96935909D01*
X181448603Y-96935914D01*
X181634158Y-97065841D01*
X181677783Y-97120418D01*
X181684977Y-97189916D01*
X181653454Y-97252271D01*
X181634158Y-97268991D01*
X181448597Y-97398921D01*
X181281505Y-97566013D01*
X181145965Y-97759585D01*
X181145961Y-97759592D01*
X181126110Y-97802163D01*
X181079937Y-97854602D01*
X181012744Y-97873753D01*
X180945863Y-97853536D01*
X180902729Y-97805029D01*
X180857061Y-97713316D01*
X180857056Y-97713308D01*
X180722979Y-97535761D01*
X180558562Y-97385876D01*
X180558560Y-97385874D01*
X180369404Y-97268754D01*
X180369398Y-97268751D01*
X180229136Y-97214414D01*
X180174784Y-97193358D01*
X180119385Y-97150786D01*
X180095794Y-97085019D01*
X180111505Y-97016939D01*
X180161529Y-96968160D01*
X180174786Y-96962105D01*
X180369177Y-96886797D01*
X180369181Y-96886795D01*
X180485326Y-96814879D01*
X179832001Y-96161553D01*
X179832000Y-96161553D01*
X179178672Y-96814879D01*
X179178672Y-96814880D01*
X179294821Y-96886797D01*
X179294822Y-96886798D01*
X179405514Y-96929680D01*
X179460915Y-96972253D01*
X179484506Y-97038020D01*
X179468795Y-97106100D01*
X179418771Y-97154879D01*
X179378805Y-97167981D01*
X179206660Y-97193359D01*
X179169066Y-97198901D01*
X179169060Y-97198902D01*
X179155120Y-97201156D01*
X179154709Y-97201228D01*
X179154487Y-97201268D01*
X179154466Y-97201271D01*
X179154449Y-97201275D01*
X179141015Y-97203830D01*
X178948267Y-97243215D01*
X178941527Y-97244399D01*
X178860655Y-97256321D01*
X178810684Y-97253477D01*
X178648275Y-97210260D01*
X178634622Y-97206627D01*
X178623359Y-97203046D01*
X178556198Y-97178112D01*
X178412865Y-97124897D01*
X178390287Y-97117117D01*
X178389227Y-97116780D01*
X178365881Y-97109962D01*
X178294115Y-97090865D01*
X178275275Y-97085851D01*
X178215554Y-97049589D01*
X178184916Y-96986795D01*
X178193092Y-96917405D01*
X178236039Y-96864448D01*
X178395139Y-96753047D01*
X178556047Y-96592139D01*
X178633570Y-96481423D01*
X178688144Y-96437800D01*
X178757642Y-96430606D01*
X178819997Y-96462128D01*
X178820919Y-96463154D01*
X178823138Y-96463308D01*
X179449145Y-95837302D01*
X179478372Y-95837302D01*
X179507047Y-95950538D01*
X179570936Y-96048327D01*
X179663115Y-96120072D01*
X179773595Y-96158000D01*
X179861005Y-96158000D01*
X179947216Y-96143614D01*
X180049947Y-96088019D01*
X180129060Y-96002079D01*
X180175982Y-95895108D01*
X180185628Y-95778698D01*
X180156953Y-95665462D01*
X180093064Y-95567673D01*
X180000885Y-95495928D01*
X179890405Y-95458000D01*
X179802995Y-95458000D01*
X179716784Y-95472386D01*
X179614053Y-95527981D01*
X179534940Y-95613921D01*
X179488018Y-95720892D01*
X179478372Y-95837302D01*
X179449145Y-95837302D01*
X179478447Y-95808000D01*
X178823137Y-95152690D01*
X178797850Y-95154446D01*
X178729608Y-95139451D01*
X178687687Y-95101867D01*
X178686572Y-95100274D01*
X178686568Y-95100266D01*
X178556047Y-94913861D01*
X178476960Y-94834774D01*
X178470123Y-94827355D01*
X178469850Y-94827034D01*
X178447851Y-94801119D01*
X179178671Y-94801119D01*
X179832000Y-95454447D01*
X179832001Y-95454447D01*
X180485327Y-94801119D01*
X180369178Y-94729202D01*
X180369177Y-94729201D01*
X180161804Y-94648865D01*
X179943193Y-94608000D01*
X179720807Y-94608000D01*
X179502195Y-94648865D01*
X179294824Y-94729200D01*
X179294823Y-94729201D01*
X179178671Y-94801119D01*
X178447851Y-94801119D01*
X178447258Y-94800421D01*
X178447249Y-94800413D01*
X178409865Y-94767350D01*
X178404344Y-94762158D01*
X178395139Y-94752953D01*
X178395138Y-94752952D01*
X178395136Y-94752950D01*
X178395134Y-94752949D01*
X178393425Y-94751752D01*
X178382413Y-94743072D01*
X178258182Y-94633204D01*
X178246373Y-94623080D01*
X178245805Y-94622608D01*
X178233066Y-94612365D01*
X178102596Y-94510894D01*
X178090921Y-94500573D01*
X178089142Y-94498789D01*
X178055743Y-94437419D01*
X178053640Y-94424328D01*
X178041791Y-94312605D01*
X178039593Y-94296157D01*
X178038500Y-94279730D01*
X178038500Y-93981913D01*
X178039899Y-93963339D01*
X178043279Y-93941032D01*
X178054103Y-93869587D01*
X178083606Y-93806255D01*
X178142668Y-93768926D01*
X178157947Y-93765591D01*
X178293682Y-93744831D01*
X178297910Y-93744260D01*
X178410423Y-93731022D01*
X178461174Y-93735593D01*
X178493905Y-93745604D01*
X178518165Y-93755957D01*
X178607890Y-93806138D01*
X178612224Y-93808679D01*
X178783413Y-93913789D01*
X178797472Y-93921954D01*
X178804802Y-93926211D01*
X178804810Y-93926215D01*
X178804818Y-93926220D01*
X178805808Y-93926763D01*
X178827647Y-93938060D01*
X179023465Y-94033384D01*
X179034451Y-94039440D01*
X179040599Y-94043247D01*
X179040602Y-94043248D01*
X179051073Y-94047305D01*
X179060541Y-94051434D01*
X179077707Y-94059790D01*
X179091553Y-94066273D01*
X179092182Y-94066556D01*
X179156525Y-94090398D01*
X179156527Y-94090398D01*
X179162858Y-94092011D01*
X179162715Y-94092572D01*
X179178860Y-94096809D01*
X179248060Y-94123618D01*
X179466757Y-94164500D01*
X179466759Y-94164500D01*
X179689241Y-94164500D01*
X179689243Y-94164500D01*
X179907940Y-94123618D01*
X180115401Y-94043247D01*
X180304562Y-93926124D01*
X180468981Y-93776236D01*
X180603058Y-93598689D01*
X180702229Y-93399528D01*
X180763115Y-93185536D01*
X180764752Y-93167858D01*
X180790535Y-93102926D01*
X180847334Y-93062236D01*
X180904374Y-93059356D01*
X180857111Y-93053705D01*
X180803233Y-93009219D01*
X180782453Y-92951158D01*
X180777149Y-92893923D01*
X180763115Y-92742464D01*
X180702229Y-92528472D01*
X180681248Y-92486336D01*
X180603061Y-92329316D01*
X180603056Y-92329308D01*
X180468979Y-92151761D01*
X180304562Y-92001876D01*
X180304560Y-92001874D01*
X180115404Y-91884754D01*
X180115398Y-91884752D01*
X180076121Y-91869536D01*
X179907940Y-91804382D01*
X179757092Y-91776183D01*
X179689239Y-91763499D01*
X179683534Y-91762971D01*
X179683648Y-91761735D01*
X179643335Y-91753451D01*
X179616556Y-91741959D01*
X179558773Y-91730083D01*
X179549627Y-91727838D01*
X179492923Y-91711613D01*
X179469199Y-91709806D01*
X179462572Y-91709301D01*
X179447033Y-91707122D01*
X179417242Y-91701000D01*
X179417241Y-91701000D01*
X179358259Y-91701000D01*
X179348844Y-91700642D01*
X179346143Y-91700436D01*
X179290024Y-91696162D01*
X179259849Y-91700006D01*
X179244182Y-91701000D01*
X178788262Y-91701000D01*
X178764867Y-91698773D01*
X178750614Y-91696034D01*
X178750602Y-91696033D01*
X178602838Y-91689079D01*
X178598491Y-91688798D01*
X178450432Y-91676606D01*
X178446118Y-91676174D01*
X178297911Y-91658736D01*
X178293655Y-91658161D01*
X178145083Y-91635439D01*
X178140890Y-91634724D01*
X178079585Y-91623184D01*
X178063523Y-91619031D01*
X178040797Y-91611501D01*
X177995010Y-91606823D01*
X177985186Y-91605420D01*
X177982363Y-91604900D01*
X177982176Y-91604867D01*
X177953659Y-91601397D01*
X177925144Y-91597927D01*
X177925142Y-91597927D01*
X177890958Y-91600618D01*
X177881227Y-91601000D01*
X176362500Y-91601000D01*
X176295461Y-91581315D01*
X176249706Y-91528511D01*
X176238500Y-91477000D01*
X176238500Y-91322363D01*
X176239452Y-91307026D01*
X176242357Y-91283721D01*
X176238606Y-91193026D01*
X176238500Y-91187902D01*
X176238500Y-91159434D01*
X176238500Y-91159433D01*
X176236148Y-91131060D01*
X176235831Y-91125949D01*
X176234632Y-91096956D01*
X176232081Y-91035263D01*
X176227262Y-91012280D01*
X176225047Y-90997074D01*
X176223109Y-90973688D01*
X176223108Y-90973684D01*
X176223108Y-90973679D01*
X176200827Y-90885693D01*
X176199675Y-90880713D01*
X176181050Y-90791886D01*
X176172509Y-90770001D01*
X176167825Y-90755377D01*
X176162063Y-90732619D01*
X176125603Y-90649499D01*
X176123642Y-90644764D01*
X176119102Y-90633130D01*
X176090656Y-90560227D01*
X176078633Y-90540049D01*
X176071606Y-90526397D01*
X176062174Y-90504895D01*
X176062169Y-90504887D01*
X176012529Y-90428906D01*
X176009827Y-90424578D01*
X175963366Y-90346606D01*
X175948187Y-90328684D01*
X175939002Y-90316365D01*
X175926167Y-90296719D01*
X175926165Y-90296717D01*
X175926164Y-90296715D01*
X175893665Y-90261412D01*
X175864695Y-90229941D01*
X175861303Y-90226101D01*
X175842895Y-90204367D01*
X175822783Y-90184256D01*
X175819233Y-90180556D01*
X175757747Y-90113765D01*
X175757739Y-90113758D01*
X175739212Y-90099338D01*
X175727692Y-90089165D01*
X174474819Y-88836291D01*
X174441334Y-88774968D01*
X174438500Y-88748610D01*
X174438500Y-87721493D01*
X174438499Y-87721480D01*
X174435334Y-87690498D01*
X174427999Y-87618700D01*
X174372815Y-87452164D01*
X174372811Y-87452158D01*
X174372810Y-87452155D01*
X174280714Y-87302846D01*
X174280711Y-87302842D01*
X174156657Y-87178788D01*
X174156653Y-87178785D01*
X174007344Y-87086689D01*
X174007338Y-87086686D01*
X174007336Y-87086685D01*
X173983275Y-87078712D01*
X173840801Y-87031501D01*
X173738019Y-87021000D01*
X173738012Y-87021000D01*
X167737988Y-87021000D01*
X167737980Y-87021000D01*
X167635198Y-87031501D01*
X167468666Y-87086684D01*
X167468655Y-87086689D01*
X167319346Y-87178785D01*
X167319342Y-87178788D01*
X167195288Y-87302842D01*
X167195285Y-87302846D01*
X167103189Y-87452155D01*
X167103184Y-87452166D01*
X167048001Y-87618698D01*
X167037500Y-87721480D01*
X167037500Y-91550462D01*
X167017815Y-91617501D01*
X166965011Y-91663256D01*
X166895853Y-91673200D01*
X166832297Y-91644175D01*
X166794523Y-91585397D01*
X166794234Y-91584396D01*
X166732230Y-91366476D01*
X166732229Y-91366472D01*
X166717020Y-91335928D01*
X166633061Y-91167316D01*
X166633056Y-91167308D01*
X166498979Y-90989761D01*
X166334562Y-90839876D01*
X166334560Y-90839874D01*
X166145404Y-90722754D01*
X166145398Y-90722752D01*
X165937940Y-90642382D01*
X165719243Y-90601500D01*
X165719241Y-90601500D01*
X165627725Y-90601500D01*
X165613514Y-90600683D01*
X165607672Y-90600009D01*
X165581873Y-90597032D01*
X165581868Y-90597032D01*
X165581867Y-90597032D01*
X165334415Y-90603948D01*
X165251930Y-90606254D01*
X165235656Y-90606971D01*
X165234989Y-90607011D01*
X165217969Y-90608323D01*
X164976099Y-90631089D01*
X164966420Y-90632095D01*
X164966359Y-90632101D01*
X164966339Y-90632104D01*
X164965996Y-90632143D01*
X164965979Y-90632145D01*
X164965918Y-90632152D01*
X164957905Y-90633130D01*
X164957843Y-90633138D01*
X164957819Y-90633141D01*
X164925563Y-90637342D01*
X164760009Y-90658903D01*
X164755614Y-90659395D01*
X164681192Y-90666399D01*
X164659954Y-90666571D01*
X164617811Y-90663292D01*
X164595545Y-90659496D01*
X164400622Y-90607627D01*
X164389359Y-90604046D01*
X164350446Y-90589599D01*
X164178865Y-90525897D01*
X164156287Y-90518117D01*
X164155227Y-90517780D01*
X164141304Y-90513714D01*
X164131869Y-90510959D01*
X163969178Y-90467666D01*
X163853850Y-90436976D01*
X163853832Y-90436972D01*
X163808648Y-90427137D01*
X163806562Y-90426782D01*
X163806557Y-90426781D01*
X163806549Y-90426780D01*
X163760998Y-90421143D01*
X163760961Y-90421139D01*
X163373839Y-90391005D01*
X163353881Y-90389846D01*
X163353050Y-90389815D01*
X163353027Y-90389814D01*
X163348738Y-90389960D01*
X163333742Y-90389559D01*
X163322002Y-90388532D01*
X163321998Y-90388532D01*
X163095312Y-90408364D01*
X163095302Y-90408366D01*
X162875511Y-90467258D01*
X162875502Y-90467261D01*
X162669267Y-90563431D01*
X162669265Y-90563432D01*
X162482858Y-90693954D01*
X162321954Y-90854858D01*
X162191432Y-91041265D01*
X162191431Y-91041267D01*
X162095261Y-91247502D01*
X162095258Y-91247511D01*
X162036366Y-91467302D01*
X162036364Y-91467313D01*
X162016532Y-91693998D01*
X162016532Y-91694001D01*
X162036364Y-91920686D01*
X162036366Y-91920697D01*
X162095258Y-92140488D01*
X162095261Y-92140497D01*
X162191431Y-92346732D01*
X162191432Y-92346734D01*
X162321954Y-92533141D01*
X162482858Y-92694045D01*
X162507462Y-92711273D01*
X162551087Y-92765849D01*
X162558281Y-92835348D01*
X162526758Y-92897703D01*
X162466529Y-92933117D01*
X162449593Y-92936138D01*
X162414516Y-92939908D01*
X162279671Y-92990202D01*
X162279664Y-92990206D01*
X162164455Y-93076452D01*
X162164452Y-93076455D01*
X162078206Y-93191664D01*
X162078202Y-93191671D01*
X162027908Y-93326517D01*
X162022614Y-93375762D01*
X162021501Y-93386123D01*
X162021500Y-93386135D01*
X162021500Y-95081870D01*
X162021501Y-95081876D01*
X162027908Y-95141483D01*
X162078202Y-95276328D01*
X162078206Y-95276335D01*
X162164452Y-95391544D01*
X162164455Y-95391547D01*
X162279664Y-95477793D01*
X162279671Y-95477797D01*
X162414517Y-95528091D01*
X162414516Y-95528091D01*
X162421444Y-95528835D01*
X162474127Y-95534500D01*
X162920538Y-95534499D01*
X162987575Y-95554183D01*
X163033330Y-95606987D01*
X163043274Y-95676146D01*
X163014249Y-95739702D01*
X162955471Y-95777476D01*
X162952630Y-95778274D01*
X162885509Y-95796259D01*
X162885502Y-95796261D01*
X162679267Y-95892431D01*
X162679265Y-95892432D01*
X162492858Y-96022954D01*
X162331954Y-96183858D01*
X162201432Y-96370265D01*
X162201431Y-96370267D01*
X162105261Y-96576502D01*
X162105258Y-96576511D01*
X162046366Y-96796302D01*
X162046364Y-96796313D01*
X162026532Y-97022998D01*
X162026532Y-97023001D01*
X162046364Y-97249686D01*
X162046366Y-97249697D01*
X162105258Y-97469488D01*
X162105261Y-97469497D01*
X162201431Y-97675732D01*
X162201432Y-97675734D01*
X162331954Y-97862141D01*
X162492858Y-98023045D01*
X162517462Y-98040273D01*
X162561087Y-98094849D01*
X162568281Y-98164348D01*
X162536758Y-98226703D01*
X162476529Y-98262117D01*
X162459593Y-98265138D01*
X162424516Y-98268908D01*
X162289671Y-98319202D01*
X162289664Y-98319206D01*
X162174455Y-98405452D01*
X162174452Y-98405455D01*
X162088206Y-98520664D01*
X162088202Y-98520671D01*
X162037908Y-98655517D01*
X162031501Y-98715116D01*
X162031501Y-98715123D01*
X162031500Y-98715135D01*
X162031500Y-100410870D01*
X162031501Y-100410876D01*
X162037908Y-100470483D01*
X162088202Y-100605328D01*
X162088206Y-100605335D01*
X162174452Y-100720544D01*
X162174455Y-100720547D01*
X162289664Y-100806793D01*
X162289671Y-100806797D01*
X162424517Y-100857091D01*
X162424516Y-100857091D01*
X162431444Y-100857835D01*
X162484127Y-100863500D01*
X164179872Y-100863499D01*
X164239483Y-100857091D01*
X164374331Y-100806796D01*
X164489546Y-100720546D01*
X164575796Y-100605331D01*
X164589018Y-100569880D01*
X164964672Y-100569880D01*
X165080821Y-100641797D01*
X165080822Y-100641798D01*
X165288195Y-100722134D01*
X165506807Y-100763000D01*
X165729193Y-100763000D01*
X165947809Y-100722133D01*
X166155168Y-100641801D01*
X166155181Y-100641795D01*
X166271326Y-100569879D01*
X165618001Y-99916553D01*
X165618000Y-99916553D01*
X164964672Y-100569879D01*
X164964672Y-100569880D01*
X164589018Y-100569880D01*
X164626091Y-100470483D01*
X164632500Y-100410873D01*
X164632499Y-100246305D01*
X164652183Y-100179269D01*
X164668818Y-100158627D01*
X165264447Y-99563000D01*
X164668818Y-98967371D01*
X164635333Y-98906048D01*
X164632499Y-98879690D01*
X164632499Y-98715129D01*
X164632498Y-98715123D01*
X164632497Y-98715116D01*
X164627194Y-98665776D01*
X164626091Y-98655516D01*
X164575797Y-98520671D01*
X164575793Y-98520664D01*
X164489547Y-98405455D01*
X164489544Y-98405452D01*
X164381853Y-98324834D01*
X164339982Y-98268900D01*
X164334998Y-98199209D01*
X164368484Y-98137886D01*
X164424275Y-98105738D01*
X164556668Y-98070507D01*
X164613121Y-98068796D01*
X164689516Y-98084238D01*
X164698465Y-98086397D01*
X164750594Y-98101040D01*
X164886254Y-98139147D01*
X164897168Y-98141994D01*
X164904459Y-98143897D01*
X164905263Y-98144091D01*
X164905281Y-98144095D01*
X164905306Y-98144101D01*
X164923649Y-98148165D01*
X165167796Y-98197516D01*
X165177819Y-98199178D01*
X165240731Y-98229567D01*
X165277228Y-98289146D01*
X165275721Y-98359000D01*
X165236687Y-98416949D01*
X165202320Y-98437132D01*
X165080830Y-98484198D01*
X165080823Y-98484201D01*
X164964671Y-98556119D01*
X165618000Y-99209447D01*
X165621553Y-99213000D01*
X165588995Y-99213000D01*
X165502784Y-99227386D01*
X165400053Y-99282981D01*
X165320940Y-99368921D01*
X165274018Y-99475892D01*
X165264372Y-99592302D01*
X165293047Y-99705538D01*
X165356936Y-99803327D01*
X165449115Y-99875072D01*
X165559595Y-99913000D01*
X165647005Y-99913000D01*
X165733216Y-99898614D01*
X165835947Y-99843019D01*
X165915060Y-99757079D01*
X165961982Y-99650108D01*
X165969380Y-99560827D01*
X166626861Y-100218308D01*
X166642631Y-100197425D01*
X166642633Y-100197422D01*
X166741759Y-99998350D01*
X166802621Y-99784439D01*
X166823141Y-99563000D01*
X166815763Y-99483383D01*
X166829178Y-99414813D01*
X166877534Y-99364381D01*
X166945480Y-99348098D01*
X167004511Y-99366514D01*
X167102595Y-99427245D01*
X167102596Y-99427245D01*
X167102599Y-99427247D01*
X167310060Y-99507618D01*
X167528757Y-99548500D01*
X167648275Y-99548500D01*
X167656539Y-99548776D01*
X167657782Y-99548859D01*
X167691000Y-99551078D01*
X167720104Y-99548858D01*
X167729531Y-99548500D01*
X167751243Y-99548500D01*
X167762821Y-99546334D01*
X167776173Y-99544583D01*
X167989654Y-99528307D01*
X168025201Y-99525597D01*
X168025202Y-99525596D01*
X168025213Y-99525596D01*
X168070044Y-99520155D01*
X168072104Y-99519811D01*
X168116253Y-99510395D01*
X168357507Y-99447559D01*
X168380086Y-99441114D01*
X168381132Y-99440789D01*
X168403728Y-99433180D01*
X168583330Y-99367940D01*
X168594346Y-99364513D01*
X168667462Y-99345469D01*
X168730599Y-99345636D01*
X168857379Y-99379373D01*
X168868631Y-99382950D01*
X169079121Y-99461096D01*
X169101471Y-99468804D01*
X169102534Y-99469143D01*
X169126129Y-99476040D01*
X169404159Y-99550025D01*
X169449240Y-99559843D01*
X169451341Y-99560201D01*
X169497023Y-99565859D01*
X169884178Y-99595995D01*
X169903610Y-99597131D01*
X169904503Y-99597166D01*
X169909044Y-99597014D01*
X169923989Y-99597416D01*
X169936000Y-99598468D01*
X170162692Y-99578635D01*
X170279408Y-99547361D01*
X170349256Y-99549024D01*
X170407119Y-99588186D01*
X170434623Y-99652415D01*
X170435500Y-99667136D01*
X170435500Y-99970109D01*
X170415815Y-100037148D01*
X170399181Y-100057790D01*
X163596730Y-106860241D01*
X163535407Y-106893726D01*
X163465715Y-106888742D01*
X163409782Y-106846870D01*
X163386739Y-106792961D01*
X163386108Y-106789181D01*
X163386108Y-106789179D01*
X163363823Y-106701180D01*
X163362669Y-106696189D01*
X163352005Y-106645332D01*
X163344049Y-106607386D01*
X163335514Y-106585513D01*
X163330827Y-106570881D01*
X163325064Y-106548123D01*
X163325063Y-106548119D01*
X163288589Y-106464969D01*
X163286650Y-106460287D01*
X163253655Y-106375726D01*
X163248742Y-106367480D01*
X163241633Y-106355549D01*
X163234603Y-106341890D01*
X163225176Y-106320399D01*
X163225173Y-106320393D01*
X163175871Y-106244931D01*
X163175515Y-106244385D01*
X163172833Y-106240089D01*
X163126366Y-106162106D01*
X163111189Y-106144187D01*
X163102002Y-106131865D01*
X163089166Y-106112218D01*
X163089165Y-106112217D01*
X163089164Y-106112215D01*
X163027692Y-106045439D01*
X163024301Y-106041598D01*
X163005902Y-106019874D01*
X163005897Y-106019870D01*
X162985783Y-105999756D01*
X162982233Y-105996056D01*
X162920747Y-105929265D01*
X162920739Y-105929258D01*
X162902212Y-105914838D01*
X162890692Y-105904665D01*
X160016334Y-103030306D01*
X160006162Y-103018788D01*
X160005942Y-103018505D01*
X159991738Y-103000256D01*
X159991734Y-103000252D01*
X159924954Y-102938776D01*
X159921254Y-102935226D01*
X159901133Y-102915104D01*
X159879387Y-102896686D01*
X159875546Y-102893294D01*
X159808786Y-102831837D01*
X159808785Y-102831836D01*
X159789123Y-102818990D01*
X159776811Y-102809808D01*
X159758894Y-102794634D01*
X159680891Y-102748153D01*
X159676583Y-102745464D01*
X159600604Y-102695824D01*
X159579109Y-102686396D01*
X159565447Y-102679364D01*
X159545275Y-102667344D01*
X159483571Y-102643267D01*
X159428274Y-102600559D01*
X159404844Y-102534735D01*
X159404647Y-102527750D01*
X159404647Y-101670000D01*
X159399500Y-101598039D01*
X159381829Y-101537857D01*
X159358954Y-101459949D01*
X159332959Y-101419500D01*
X159281143Y-101338872D01*
X159172373Y-101244623D01*
X159102733Y-101212819D01*
X159041456Y-101184834D01*
X158934792Y-101169499D01*
X158899000Y-101164353D01*
X157349000Y-101164353D01*
X157348997Y-101164353D01*
X157277039Y-101169499D01*
X157277034Y-101169500D01*
X157138949Y-101210045D01*
X157017873Y-101287856D01*
X156945347Y-101371556D01*
X156886569Y-101409330D01*
X156851634Y-101414353D01*
X154273997Y-101414353D01*
X154202039Y-101419499D01*
X154202034Y-101419500D01*
X154063949Y-101460045D01*
X153942873Y-101537856D01*
X153854115Y-101640288D01*
X153795336Y-101678062D01*
X153725467Y-101678062D01*
X153666689Y-101640287D01*
X153654285Y-101623234D01*
X153589256Y-101515662D01*
X153589252Y-101515657D01*
X153473342Y-101399747D01*
X153473337Y-101399743D01*
X153333065Y-101314947D01*
X153176562Y-101266179D01*
X153108556Y-101260000D01*
X152904000Y-101260000D01*
X152904000Y-104786000D01*
X152884315Y-104853039D01*
X152831511Y-104898794D01*
X152780000Y-104910000D01*
X152528000Y-104910000D01*
X152460961Y-104890315D01*
X152415206Y-104837511D01*
X152404000Y-104786000D01*
X152404000Y-101250174D01*
X152382334Y-101210496D01*
X152379500Y-101184138D01*
X152379500Y-100812511D01*
X152382142Y-100787051D01*
X152384164Y-100777411D01*
X152384167Y-100777399D01*
X152384168Y-100777380D01*
X152384462Y-100775225D01*
X152384765Y-100774547D01*
X152385076Y-100773066D01*
X152385398Y-100773133D01*
X152413011Y-100711453D01*
X152419635Y-100704284D01*
X152608327Y-100515592D01*
X152669648Y-100482109D01*
X152722833Y-100482212D01*
X152731629Y-100484161D01*
X152731649Y-100484165D01*
X152975796Y-100533516D01*
X153007173Y-100538721D01*
X153010746Y-100539314D01*
X153012361Y-100539524D01*
X153029440Y-100541141D01*
X153047519Y-100542854D01*
X153301269Y-100557966D01*
X153310656Y-100559119D01*
X153314757Y-100559500D01*
X153323323Y-100559500D01*
X153330693Y-100559719D01*
X153334846Y-100559966D01*
X153383568Y-100562868D01*
X153397994Y-100563520D01*
X153398673Y-100563541D01*
X153398677Y-100563540D01*
X153398683Y-100563541D01*
X153467605Y-100560964D01*
X153467610Y-100560963D01*
X153467617Y-100560963D01*
X153467623Y-100560961D01*
X153468989Y-100560765D01*
X153486659Y-100559500D01*
X153537241Y-100559500D01*
X153537243Y-100559500D01*
X153755940Y-100518618D01*
X153963401Y-100438247D01*
X154152562Y-100321124D01*
X154316981Y-100171236D01*
X154343425Y-100136218D01*
X154399532Y-100094582D01*
X154469244Y-100089889D01*
X154530426Y-100123630D01*
X154554760Y-100158537D01*
X154581432Y-100215734D01*
X154602841Y-100246309D01*
X154711954Y-100402141D01*
X154872858Y-100563045D01*
X154882618Y-100569879D01*
X155059266Y-100693568D01*
X155265504Y-100789739D01*
X155485308Y-100848635D01*
X155647230Y-100862801D01*
X155711998Y-100868468D01*
X155712000Y-100868468D01*
X155712002Y-100868468D01*
X155768807Y-100863498D01*
X155938692Y-100848635D01*
X156158496Y-100789739D01*
X156364734Y-100693568D01*
X156551139Y-100563047D01*
X156638358Y-100475826D01*
X156644217Y-100470336D01*
X156670001Y-100447711D01*
X156687761Y-100426950D01*
X156694290Y-100419894D01*
X156712047Y-100402139D01*
X156722378Y-100387383D01*
X156729735Y-100377890D01*
X156922429Y-100152665D01*
X156922430Y-100152663D01*
X156922452Y-100152638D01*
X156950823Y-100116236D01*
X156952055Y-100114497D01*
X156976918Y-100075780D01*
X157121193Y-99826880D01*
X157132771Y-99805762D01*
X157133284Y-99804771D01*
X157143867Y-99783072D01*
X157237449Y-99578970D01*
X157242873Y-99568491D01*
X157344031Y-99393975D01*
X157357089Y-99375550D01*
X157365285Y-99365971D01*
X157463711Y-99250928D01*
X157573980Y-99122043D01*
X157579406Y-99115245D01*
X157593790Y-99097222D01*
X157603010Y-99086909D01*
X157909409Y-98780510D01*
X157911578Y-98778395D01*
X157975053Y-98718059D01*
X158008750Y-98669644D01*
X158014417Y-98662126D01*
X158051698Y-98616407D01*
X158065788Y-98589430D01*
X158073909Y-98576026D01*
X158091295Y-98551049D01*
X158114563Y-98496825D01*
X158118582Y-98488361D01*
X158145909Y-98436049D01*
X158154275Y-98406808D01*
X158159544Y-98392009D01*
X158171538Y-98364062D01*
X158171540Y-98364058D01*
X158183421Y-98306238D01*
X158185650Y-98297155D01*
X158201886Y-98240418D01*
X158204196Y-98210080D01*
X158206376Y-98194540D01*
X158212500Y-98164743D01*
X158212500Y-98105754D01*
X158212858Y-98096339D01*
X158214825Y-98070508D01*
X158217337Y-98037524D01*
X158213493Y-98007339D01*
X158212500Y-97991675D01*
X158212500Y-95758237D01*
X158212540Y-95755097D01*
X158212593Y-95753000D01*
X158214756Y-95667636D01*
X158214445Y-95665900D01*
X158212500Y-95644023D01*
X158212500Y-94356052D01*
X158213201Y-94344210D01*
X158213235Y-94342519D01*
X158213237Y-94342508D01*
X158212876Y-94337883D01*
X158212500Y-94328232D01*
X158212500Y-94262499D01*
X158212659Y-94256219D01*
X158212726Y-94254892D01*
X158216369Y-94183064D01*
X158213930Y-94167142D01*
X158212500Y-94148366D01*
X158212500Y-92766754D01*
X158212858Y-92757339D01*
X158215149Y-92727249D01*
X158217337Y-92698524D01*
X158213870Y-92671299D01*
X158213493Y-92668339D01*
X158212500Y-92652675D01*
X158212500Y-91096956D01*
X158212540Y-91093816D01*
X158214023Y-91035269D01*
X158214757Y-91006316D01*
X158214445Y-91004575D01*
X158212500Y-90982697D01*
X158212500Y-88279277D01*
X158212540Y-88276135D01*
X158214757Y-88188641D01*
X158214756Y-88188640D01*
X158214757Y-88188637D01*
X158204350Y-88130574D01*
X158203041Y-88121242D01*
X158197074Y-88062566D01*
X158197074Y-88062564D01*
X158197074Y-88062562D01*
X158187962Y-88033524D01*
X158184225Y-88018295D01*
X158178858Y-87988348D01*
X158156972Y-87933556D01*
X158153824Y-87924714D01*
X158136159Y-87868412D01*
X158121398Y-87841817D01*
X158114663Y-87827635D01*
X158103379Y-87799384D01*
X158103377Y-87799380D01*
X158070915Y-87750127D01*
X158066040Y-87742082D01*
X158037409Y-87690498D01*
X158017590Y-87667412D01*
X158008145Y-87654884D01*
X157991404Y-87629484D01*
X157949699Y-87587779D01*
X157943306Y-87580882D01*
X157904866Y-87536105D01*
X157880800Y-87517476D01*
X157869022Y-87507102D01*
X157258198Y-86896278D01*
X157251806Y-86889382D01*
X157213366Y-86844605D01*
X157189300Y-86825976D01*
X157177522Y-86815602D01*
X156651216Y-86289296D01*
X156617731Y-86227973D01*
X156615595Y-86214749D01*
X156604853Y-86113844D01*
X156598404Y-86053252D01*
X156597513Y-86048368D01*
X156595499Y-86026113D01*
X156595499Y-85398000D01*
X157090172Y-85398000D01*
X157109462Y-85692312D01*
X157109464Y-85692324D01*
X157167001Y-85981584D01*
X157167005Y-85981599D01*
X157261812Y-86260888D01*
X157392258Y-86525406D01*
X157392265Y-86525419D01*
X157556123Y-86770649D01*
X157585405Y-86804040D01*
X158519643Y-85869801D01*
X158589889Y-85982499D01*
X158723005Y-86122537D01*
X158871004Y-86225547D01*
X157938958Y-87157593D01*
X157972350Y-87186876D01*
X158217580Y-87350734D01*
X158217593Y-87350741D01*
X158482111Y-87481187D01*
X158761400Y-87575994D01*
X158761415Y-87575998D01*
X159050675Y-87633535D01*
X159050687Y-87633537D01*
X159345000Y-87652827D01*
X159639312Y-87633537D01*
X159639324Y-87633535D01*
X159928584Y-87575998D01*
X159928599Y-87575994D01*
X160207888Y-87481187D01*
X160472406Y-87350741D01*
X160472419Y-87350734D01*
X160717648Y-87186877D01*
X160751039Y-87157593D01*
X159816351Y-86222903D01*
X159890503Y-86181746D01*
X160037104Y-86055894D01*
X160155370Y-85903107D01*
X160171262Y-85870708D01*
X161104593Y-86804039D01*
X161133877Y-86770648D01*
X161297734Y-86525419D01*
X161297741Y-86525406D01*
X161428187Y-86260888D01*
X161522994Y-85981599D01*
X161522998Y-85981584D01*
X161580535Y-85692324D01*
X161580537Y-85692312D01*
X161599827Y-85398000D01*
X161580537Y-85103687D01*
X161580535Y-85103675D01*
X161522998Y-84814415D01*
X161522994Y-84814400D01*
X161428187Y-84535111D01*
X161297741Y-84270593D01*
X161297734Y-84270580D01*
X161133876Y-84025350D01*
X161104593Y-83991958D01*
X160170355Y-84926196D01*
X160100111Y-84813501D01*
X159966995Y-84673463D01*
X159818994Y-84570451D01*
X160751040Y-83638405D01*
X160717649Y-83609123D01*
X160472419Y-83445265D01*
X160472406Y-83445258D01*
X160207888Y-83314812D01*
X159928599Y-83220005D01*
X159928584Y-83220001D01*
X159639324Y-83162464D01*
X159639312Y-83162462D01*
X159345000Y-83143172D01*
X159050687Y-83162462D01*
X159050675Y-83162464D01*
X158761415Y-83220001D01*
X158761400Y-83220005D01*
X158482111Y-83314812D01*
X158217593Y-83445258D01*
X158217580Y-83445265D01*
X157972346Y-83609126D01*
X157972339Y-83609131D01*
X157938959Y-83638403D01*
X157938959Y-83638405D01*
X158873649Y-84573095D01*
X158799497Y-84614254D01*
X158652896Y-84740106D01*
X158534630Y-84892893D01*
X158518737Y-84925291D01*
X157585405Y-83991959D01*
X157585403Y-83991959D01*
X157556131Y-84025339D01*
X157556126Y-84025346D01*
X157392265Y-84270580D01*
X157392258Y-84270593D01*
X157261812Y-84535111D01*
X157167005Y-84814400D01*
X157167001Y-84814415D01*
X157109464Y-85103675D01*
X157109462Y-85103687D01*
X157090172Y-85398000D01*
X156595499Y-85398000D01*
X156595499Y-83600129D01*
X156595498Y-83600123D01*
X156595497Y-83600116D01*
X156589091Y-83540517D01*
X156579428Y-83514610D01*
X156538797Y-83405671D01*
X156538793Y-83405664D01*
X156452547Y-83290455D01*
X156452544Y-83290452D01*
X156337335Y-83204206D01*
X156337328Y-83204202D01*
X156202482Y-83153908D01*
X156202483Y-83153908D01*
X156142883Y-83147501D01*
X156142881Y-83147500D01*
X156142873Y-83147500D01*
X156142864Y-83147500D01*
X152547129Y-83147500D01*
X152547123Y-83147501D01*
X152487516Y-83153908D01*
X152352671Y-83204202D01*
X152352664Y-83204206D01*
X152237455Y-83290452D01*
X152237452Y-83290455D01*
X152151206Y-83405664D01*
X152151202Y-83405671D01*
X152100908Y-83540517D01*
X152094501Y-83600116D01*
X152094501Y-83600123D01*
X152094500Y-83600135D01*
X152094500Y-83773500D01*
X152074815Y-83840539D01*
X152022011Y-83886294D01*
X151970500Y-83897500D01*
X149262120Y-83897500D01*
X149195081Y-83877815D01*
X149149326Y-83825011D01*
X149139382Y-83755853D01*
X149168407Y-83692297D01*
X149189235Y-83673182D01*
X149225828Y-83646596D01*
X149289802Y-83600116D01*
X149421246Y-83504616D01*
X149421247Y-83504614D01*
X149421254Y-83504610D01*
X149627539Y-83305403D01*
X149804093Y-83079425D01*
X149947477Y-82831075D01*
X150054903Y-82565187D01*
X150124279Y-82286935D01*
X150154255Y-82001736D01*
X150153643Y-81984217D01*
X150144247Y-81715144D01*
X150144246Y-81715137D01*
X150102300Y-81477247D01*
X150094450Y-81432728D01*
X150005833Y-81159994D01*
X149979787Y-81106592D01*
X149880125Y-80902254D01*
X149880123Y-80902251D01*
X149880121Y-80902247D01*
X149719762Y-80664504D01*
X149545169Y-80470599D01*
X149527879Y-80451396D01*
X149527872Y-80451389D01*
X149464246Y-80398000D01*
X150139357Y-80398000D01*
X150159884Y-80619535D01*
X150159885Y-80619537D01*
X150220769Y-80833523D01*
X150220775Y-80833538D01*
X150319938Y-81032683D01*
X150319943Y-81032691D01*
X150454020Y-81210238D01*
X150618437Y-81360123D01*
X150618439Y-81360125D01*
X150807595Y-81477245D01*
X150807596Y-81477245D01*
X150807599Y-81477247D01*
X151015060Y-81557618D01*
X151233757Y-81598500D01*
X151233759Y-81598500D01*
X151456241Y-81598500D01*
X151456243Y-81598500D01*
X151674940Y-81557618D01*
X151882401Y-81477247D01*
X152071562Y-81360124D01*
X152235981Y-81210236D01*
X152370058Y-81032689D01*
X152469229Y-80833528D01*
X152530115Y-80619536D01*
X152550643Y-80398000D01*
X161139357Y-80398000D01*
X161159884Y-80619535D01*
X161159885Y-80619537D01*
X161220769Y-80833523D01*
X161220775Y-80833538D01*
X161319938Y-81032683D01*
X161319943Y-81032691D01*
X161454020Y-81210238D01*
X161618437Y-81360123D01*
X161618439Y-81360125D01*
X161807595Y-81477245D01*
X161807596Y-81477245D01*
X161807599Y-81477247D01*
X162015060Y-81557618D01*
X162233757Y-81598500D01*
X162233759Y-81598500D01*
X162456241Y-81598500D01*
X162456243Y-81598500D01*
X162674940Y-81557618D01*
X162882401Y-81477247D01*
X163071562Y-81360124D01*
X163091443Y-81342000D01*
X164252341Y-81342000D01*
X164272936Y-81577403D01*
X164272938Y-81577413D01*
X164334094Y-81805655D01*
X164334096Y-81805659D01*
X164334097Y-81805663D01*
X164425528Y-82001736D01*
X164433965Y-82019830D01*
X164433967Y-82019834D01*
X164542281Y-82174521D01*
X164569501Y-82213396D01*
X164569506Y-82213402D01*
X164691430Y-82335326D01*
X164724915Y-82396649D01*
X164719931Y-82466341D01*
X164678059Y-82522274D01*
X164647083Y-82539189D01*
X164515669Y-82588203D01*
X164515664Y-82588206D01*
X164400455Y-82674452D01*
X164400452Y-82674455D01*
X164314206Y-82789664D01*
X164314202Y-82789671D01*
X164263908Y-82924517D01*
X164257501Y-82984116D01*
X164257500Y-82984135D01*
X164257500Y-84779870D01*
X164257501Y-84779876D01*
X164263908Y-84839483D01*
X164314202Y-84974328D01*
X164314206Y-84974335D01*
X164400452Y-85089544D01*
X164400455Y-85089547D01*
X164515664Y-85175793D01*
X164515671Y-85175797D01*
X164650517Y-85226091D01*
X164650516Y-85226091D01*
X164657444Y-85226835D01*
X164710127Y-85232500D01*
X166505872Y-85232499D01*
X166565483Y-85226091D01*
X166700331Y-85175796D01*
X166815546Y-85089546D01*
X166901796Y-84974331D01*
X166950810Y-84842916D01*
X166992681Y-84786984D01*
X167058145Y-84762566D01*
X167126418Y-84777417D01*
X167154673Y-84798569D01*
X167276599Y-84920495D01*
X167357965Y-84977468D01*
X167470165Y-85056032D01*
X167470167Y-85056033D01*
X167470170Y-85056035D01*
X167684337Y-85155903D01*
X167684343Y-85155904D01*
X167684344Y-85155905D01*
X167711122Y-85163080D01*
X167912592Y-85217063D01*
X168089034Y-85232500D01*
X168147999Y-85237659D01*
X168148000Y-85237659D01*
X168148001Y-85237659D01*
X168206966Y-85232500D01*
X168383408Y-85217063D01*
X168611663Y-85155903D01*
X168825830Y-85056035D01*
X169019401Y-84920495D01*
X169186495Y-84753401D01*
X169316425Y-84567842D01*
X169371002Y-84524217D01*
X169440500Y-84517023D01*
X169502855Y-84548546D01*
X169519575Y-84567842D01*
X169649500Y-84753395D01*
X169649505Y-84753401D01*
X169816599Y-84920495D01*
X169897965Y-84977468D01*
X170010165Y-85056032D01*
X170010167Y-85056033D01*
X170010170Y-85056035D01*
X170224337Y-85155903D01*
X170224343Y-85155904D01*
X170224344Y-85155905D01*
X170251122Y-85163080D01*
X170452592Y-85217063D01*
X170629034Y-85232500D01*
X170687999Y-85237659D01*
X170688000Y-85237659D01*
X170688001Y-85237659D01*
X170746966Y-85232500D01*
X170923408Y-85217063D01*
X171151663Y-85155903D01*
X171365830Y-85056035D01*
X171559401Y-84920495D01*
X171726495Y-84753401D01*
X171856425Y-84567842D01*
X171911002Y-84524217D01*
X171980500Y-84517023D01*
X172042855Y-84548546D01*
X172059575Y-84567842D01*
X172189501Y-84753396D01*
X172189506Y-84753402D01*
X172232412Y-84796308D01*
X172248728Y-84816456D01*
X172253692Y-84824101D01*
X172445589Y-85043462D01*
X172457192Y-85059035D01*
X172497660Y-85123305D01*
X172506007Y-85138940D01*
X172547626Y-85232417D01*
X172547634Y-85232433D01*
X172703304Y-85502063D01*
X172703307Y-85502068D01*
X172784920Y-85614399D01*
X172789533Y-85621212D01*
X172801210Y-85639757D01*
X172823617Y-85672431D01*
X172824156Y-85673154D01*
X172824712Y-85673900D01*
X172849606Y-85704714D01*
X172851424Y-85706792D01*
X172858396Y-85715530D01*
X172886316Y-85753958D01*
X173094652Y-85985339D01*
X173326033Y-86193676D01*
X173577923Y-86376686D01*
X173847563Y-86532364D01*
X174131998Y-86659004D01*
X174428113Y-86755218D01*
X174428116Y-86755218D01*
X174428117Y-86755219D01*
X174470076Y-86764137D01*
X174732663Y-86819953D01*
X175042311Y-86852500D01*
X175096251Y-86852500D01*
X175746687Y-86852500D01*
X175746731Y-86852501D01*
X175752280Y-86852500D01*
X175752286Y-86852502D01*
X175832783Y-86852500D01*
X175856966Y-86854880D01*
X175878554Y-86859174D01*
X175940465Y-86891555D01*
X175975043Y-86952268D01*
X175971307Y-87022038D01*
X175930444Y-87078712D01*
X175893377Y-87098496D01*
X175868669Y-87106684D01*
X175719342Y-87198789D01*
X175595289Y-87322842D01*
X175503187Y-87472163D01*
X175503185Y-87472168D01*
X175491609Y-87507102D01*
X175448001Y-87638703D01*
X175448001Y-87638704D01*
X175448000Y-87638704D01*
X175437500Y-87741483D01*
X175437500Y-88541501D01*
X175437501Y-88541519D01*
X175448000Y-88644296D01*
X175448001Y-88644299D01*
X175503185Y-88810831D01*
X175503187Y-88810836D01*
X175538069Y-88867388D01*
X175595288Y-88960156D01*
X175719344Y-89084212D01*
X175868666Y-89176314D01*
X176035203Y-89231499D01*
X176137991Y-89242000D01*
X177822855Y-89241999D01*
X177841764Y-89243449D01*
X177841965Y-89243479D01*
X177842627Y-89243582D01*
X177876518Y-89242114D01*
X177881879Y-89241999D01*
X177938004Y-89241999D01*
X177938008Y-89241999D01*
X177977663Y-89237947D01*
X177984874Y-89237424D01*
X177986373Y-89237360D01*
X177986386Y-89237357D01*
X177988780Y-89237082D01*
X177995088Y-89236167D01*
X178040797Y-89231499D01*
X178063546Y-89223960D01*
X178079580Y-89219814D01*
X178140928Y-89208266D01*
X178145026Y-89207567D01*
X178293655Y-89184835D01*
X178297903Y-89184262D01*
X178428991Y-89168837D01*
X178446129Y-89166821D01*
X178450389Y-89166394D01*
X178598493Y-89154198D01*
X178602824Y-89153918D01*
X178750611Y-89146965D01*
X178792695Y-89143217D01*
X178792695Y-89143216D01*
X178798398Y-89142709D01*
X178798433Y-89143104D01*
X178810600Y-89142000D01*
X179306221Y-89142000D01*
X179309363Y-89142040D01*
X179396858Y-89144257D01*
X179396858Y-89144256D01*
X179396863Y-89144257D01*
X179454925Y-89133849D01*
X179464254Y-89132541D01*
X179522938Y-89126574D01*
X179551971Y-89117464D01*
X179567200Y-89113726D01*
X179597153Y-89108358D01*
X179634732Y-89093347D01*
X179680730Y-89084500D01*
X179689241Y-89084500D01*
X179689243Y-89084500D01*
X179907940Y-89043618D01*
X180115401Y-88963247D01*
X180304562Y-88846124D01*
X180468981Y-88696236D01*
X180603058Y-88518689D01*
X180702229Y-88319528D01*
X180763115Y-88105536D01*
X180764752Y-88087858D01*
X180790535Y-88022926D01*
X180847334Y-87982236D01*
X180904374Y-87979356D01*
X180857111Y-87973705D01*
X180803233Y-87929219D01*
X180782453Y-87871158D01*
X180777149Y-87813923D01*
X180763115Y-87662464D01*
X180702229Y-87448472D01*
X180681248Y-87406336D01*
X180603061Y-87249316D01*
X180603056Y-87249308D01*
X180468979Y-87071761D01*
X180304562Y-86921876D01*
X180304560Y-86921874D01*
X180115404Y-86804754D01*
X180115398Y-86804752D01*
X179907940Y-86724382D01*
X179689243Y-86683500D01*
X179466757Y-86683500D01*
X179301731Y-86714348D01*
X179248054Y-86724383D01*
X179115124Y-86775880D01*
X179107980Y-86778399D01*
X179078539Y-86787780D01*
X179078535Y-86787782D01*
X179059693Y-86796913D01*
X179050419Y-86800948D01*
X179040599Y-86804752D01*
X179040597Y-86804753D01*
X179035538Y-86807886D01*
X179024343Y-86814042D01*
X178828425Y-86908983D01*
X178807243Y-86919869D01*
X178806320Y-86920371D01*
X178785888Y-86932115D01*
X178615099Y-87035640D01*
X178610475Y-87038309D01*
X178520758Y-87087540D01*
X178496641Y-87097630D01*
X178462447Y-87107858D01*
X178412422Y-87112210D01*
X178297911Y-87098737D01*
X178293655Y-87098161D01*
X178145083Y-87075439D01*
X178140889Y-87074723D01*
X178139561Y-87074473D01*
X178077320Y-87042726D01*
X178042124Y-86982369D01*
X178038501Y-86952611D01*
X178038501Y-86952268D01*
X178038502Y-86912360D01*
X178006520Y-86648923D01*
X177977793Y-86532364D01*
X177943020Y-86391273D01*
X177943017Y-86391265D01*
X177943016Y-86391261D01*
X177848917Y-86143134D01*
X177725594Y-85908158D01*
X177725592Y-85908154D01*
X177574855Y-85689770D01*
X177574851Y-85689766D01*
X177574847Y-85689760D01*
X177398874Y-85491126D01*
X177200240Y-85315153D01*
X177200233Y-85315148D01*
X177200229Y-85315144D01*
X176981845Y-85164407D01*
X176746525Y-85040904D01*
X176696312Y-84992320D01*
X176680337Y-84924301D01*
X176703671Y-84858443D01*
X176716457Y-84843438D01*
X176806495Y-84753401D01*
X176936425Y-84567842D01*
X176991002Y-84524217D01*
X177060500Y-84517023D01*
X177122855Y-84548546D01*
X177139575Y-84567842D01*
X177269500Y-84753395D01*
X177269505Y-84753401D01*
X177436599Y-84920495D01*
X177517965Y-84977468D01*
X177630165Y-85056032D01*
X177630167Y-85056033D01*
X177630170Y-85056035D01*
X177844337Y-85155903D01*
X177844343Y-85155904D01*
X177844344Y-85155905D01*
X177871122Y-85163080D01*
X178072592Y-85217063D01*
X178249034Y-85232500D01*
X178307999Y-85237659D01*
X178308000Y-85237659D01*
X178308001Y-85237659D01*
X178366966Y-85232500D01*
X178543408Y-85217063D01*
X178771663Y-85155903D01*
X178985830Y-85056035D01*
X179179401Y-84920495D01*
X179346495Y-84753401D01*
X179482035Y-84559830D01*
X179581903Y-84345663D01*
X179643063Y-84117408D01*
X179663659Y-83882000D01*
X179643063Y-83646592D01*
X179581903Y-83418337D01*
X179482035Y-83204171D01*
X179476425Y-83196158D01*
X179346494Y-83010597D01*
X179179402Y-82843506D01*
X179179396Y-82843501D01*
X178993842Y-82713575D01*
X178950217Y-82658998D01*
X178943023Y-82589500D01*
X178974546Y-82527145D01*
X178993842Y-82510425D01*
X179056800Y-82466341D01*
X179179401Y-82380495D01*
X179346495Y-82213401D01*
X179482035Y-82019830D01*
X179581903Y-81805663D01*
X179643063Y-81577408D01*
X179663659Y-81342000D01*
X179660405Y-81304813D01*
X179647735Y-81159994D01*
X179643063Y-81106592D01*
X179590989Y-80912247D01*
X179581905Y-80878344D01*
X179581904Y-80878343D01*
X179581903Y-80878337D01*
X179482035Y-80664171D01*
X179476425Y-80656158D01*
X179346494Y-80470597D01*
X179179402Y-80303506D01*
X179179395Y-80303501D01*
X178985834Y-80167967D01*
X178985830Y-80167965D01*
X178893895Y-80125095D01*
X178771663Y-80068097D01*
X178771659Y-80068096D01*
X178771655Y-80068094D01*
X178543413Y-80006938D01*
X178543403Y-80006936D01*
X178308001Y-79986341D01*
X178307999Y-79986341D01*
X178072596Y-80006936D01*
X178072586Y-80006938D01*
X177844344Y-80068094D01*
X177844335Y-80068098D01*
X177630171Y-80167964D01*
X177630169Y-80167965D01*
X177436597Y-80303505D01*
X177269505Y-80470597D01*
X177139575Y-80656158D01*
X177084998Y-80699783D01*
X177015500Y-80706977D01*
X176953145Y-80675454D01*
X176936425Y-80656158D01*
X176806494Y-80470597D01*
X176639402Y-80303506D01*
X176639395Y-80303501D01*
X176445834Y-80167967D01*
X176445830Y-80167965D01*
X176353895Y-80125095D01*
X176231663Y-80068097D01*
X176231659Y-80068096D01*
X176231655Y-80068094D01*
X176003413Y-80006938D01*
X176003403Y-80006936D01*
X175768001Y-79986341D01*
X175767999Y-79986341D01*
X175532596Y-80006936D01*
X175532586Y-80006938D01*
X175304344Y-80068094D01*
X175304335Y-80068098D01*
X175090171Y-80167964D01*
X175090169Y-80167965D01*
X174896597Y-80303505D01*
X174729505Y-80470597D01*
X174599575Y-80656158D01*
X174544998Y-80699783D01*
X174475500Y-80706977D01*
X174413145Y-80675454D01*
X174396425Y-80656158D01*
X174266494Y-80470597D01*
X174099402Y-80303506D01*
X174099395Y-80303501D01*
X173905834Y-80167967D01*
X173905830Y-80167965D01*
X173813895Y-80125095D01*
X173691663Y-80068097D01*
X173691659Y-80068096D01*
X173691655Y-80068094D01*
X173463413Y-80006938D01*
X173463403Y-80006936D01*
X173228001Y-79986341D01*
X173227999Y-79986341D01*
X172992596Y-80006936D01*
X172992586Y-80006938D01*
X172764344Y-80068094D01*
X172764335Y-80068098D01*
X172550171Y-80167964D01*
X172550169Y-80167965D01*
X172356597Y-80303505D01*
X172189505Y-80470597D01*
X172059575Y-80656158D01*
X172004998Y-80699783D01*
X171935500Y-80706977D01*
X171873145Y-80675454D01*
X171856425Y-80656158D01*
X171726494Y-80470597D01*
X171559402Y-80303506D01*
X171559395Y-80303501D01*
X171365834Y-80167967D01*
X171365830Y-80167965D01*
X171273895Y-80125095D01*
X171151663Y-80068097D01*
X171151659Y-80068096D01*
X171151655Y-80068094D01*
X170923413Y-80006938D01*
X170923403Y-80006936D01*
X170688001Y-79986341D01*
X170687999Y-79986341D01*
X170452596Y-80006936D01*
X170452586Y-80006938D01*
X170224344Y-80068094D01*
X170224335Y-80068098D01*
X170010171Y-80167964D01*
X170010169Y-80167965D01*
X169816597Y-80303505D01*
X169649505Y-80470597D01*
X169519575Y-80656158D01*
X169464998Y-80699783D01*
X169395500Y-80706977D01*
X169333145Y-80675454D01*
X169316425Y-80656158D01*
X169186494Y-80470597D01*
X169019402Y-80303506D01*
X169019395Y-80303501D01*
X168825834Y-80167967D01*
X168825830Y-80167965D01*
X168733895Y-80125095D01*
X168611663Y-80068097D01*
X168611659Y-80068096D01*
X168611655Y-80068094D01*
X168383413Y-80006938D01*
X168383403Y-80006936D01*
X168148001Y-79986341D01*
X168147999Y-79986341D01*
X167912596Y-80006936D01*
X167912586Y-80006938D01*
X167684344Y-80068094D01*
X167684335Y-80068098D01*
X167470171Y-80167964D01*
X167470169Y-80167965D01*
X167276597Y-80303505D01*
X167109505Y-80470597D01*
X166979575Y-80656158D01*
X166924998Y-80699783D01*
X166855500Y-80706977D01*
X166793145Y-80675454D01*
X166776425Y-80656158D01*
X166646494Y-80470597D01*
X166479402Y-80303506D01*
X166479395Y-80303501D01*
X166285834Y-80167967D01*
X166285830Y-80167965D01*
X166193895Y-80125095D01*
X166071663Y-80068097D01*
X166071659Y-80068096D01*
X166071655Y-80068094D01*
X165843413Y-80006938D01*
X165843403Y-80006936D01*
X165608001Y-79986341D01*
X165607999Y-79986341D01*
X165372596Y-80006936D01*
X165372586Y-80006938D01*
X165144344Y-80068094D01*
X165144335Y-80068098D01*
X164930171Y-80167964D01*
X164930169Y-80167965D01*
X164736597Y-80303505D01*
X164569505Y-80470597D01*
X164433965Y-80664169D01*
X164433964Y-80664171D01*
X164334098Y-80878335D01*
X164334094Y-80878344D01*
X164272938Y-81106586D01*
X164272936Y-81106596D01*
X164252341Y-81341999D01*
X164252341Y-81342000D01*
X163091443Y-81342000D01*
X163235981Y-81210236D01*
X163370058Y-81032689D01*
X163469229Y-80833528D01*
X163530115Y-80619536D01*
X163550643Y-80398000D01*
X163530115Y-80176464D01*
X163469229Y-79962472D01*
X163467503Y-79959005D01*
X163370061Y-79763316D01*
X163370056Y-79763308D01*
X163235979Y-79585761D01*
X163071562Y-79435876D01*
X163071560Y-79435874D01*
X162882404Y-79318754D01*
X162882398Y-79318752D01*
X162674940Y-79238382D01*
X162456243Y-79197500D01*
X162233757Y-79197500D01*
X162015060Y-79238382D01*
X161883864Y-79289207D01*
X161807601Y-79318752D01*
X161807595Y-79318754D01*
X161618439Y-79435874D01*
X161618437Y-79435876D01*
X161454020Y-79585761D01*
X161319943Y-79763308D01*
X161319938Y-79763316D01*
X161220775Y-79962461D01*
X161220769Y-79962476D01*
X161159885Y-80176462D01*
X161159884Y-80176464D01*
X161139357Y-80397999D01*
X161139357Y-80398000D01*
X152550643Y-80398000D01*
X152530115Y-80176464D01*
X152469229Y-79962472D01*
X152467503Y-79959005D01*
X152370061Y-79763316D01*
X152370056Y-79763308D01*
X152235979Y-79585761D01*
X152071562Y-79435876D01*
X152071560Y-79435874D01*
X151882404Y-79318754D01*
X151882398Y-79318752D01*
X151674940Y-79238382D01*
X151456243Y-79197500D01*
X151233757Y-79197500D01*
X151015060Y-79238382D01*
X150883864Y-79289207D01*
X150807601Y-79318752D01*
X150807595Y-79318754D01*
X150618439Y-79435874D01*
X150618437Y-79435876D01*
X150454020Y-79585761D01*
X150319943Y-79763308D01*
X150319938Y-79763316D01*
X150220775Y-79962461D01*
X150220769Y-79962476D01*
X150159885Y-80176462D01*
X150159884Y-80176464D01*
X150139357Y-80397999D01*
X150139357Y-80398000D01*
X149464246Y-80398000D01*
X149308202Y-80267063D01*
X149065006Y-80115097D01*
X149065004Y-80115096D01*
X148803037Y-79998459D01*
X148803027Y-79998456D01*
X148803025Y-79998455D01*
X148527364Y-79919411D01*
X148527362Y-79919410D01*
X148527353Y-79919408D01*
X148243389Y-79879500D01*
X148243385Y-79879500D01*
X148028396Y-79879500D01*
X148028383Y-79879500D01*
X147813925Y-79894497D01*
X147813921Y-79894497D01*
X147577344Y-79944784D01*
X147507677Y-79939468D01*
X147451943Y-79897331D01*
X147427838Y-79831751D01*
X147443015Y-79763550D01*
X147463878Y-79735817D01*
X149489256Y-77710439D01*
X149490450Y-77709264D01*
X149513503Y-77686955D01*
X149516436Y-77684208D01*
X149562719Y-77642260D01*
X149564185Y-77640952D01*
X149611075Y-77599831D01*
X149614128Y-77597243D01*
X149710373Y-77518259D01*
X149716794Y-77513330D01*
X149816401Y-77441956D01*
X149823079Y-77437493D01*
X149927148Y-77372781D01*
X149934121Y-77368755D01*
X150042186Y-77310996D01*
X150049422Y-77307428D01*
X150161018Y-77256865D01*
X150168476Y-77253776D01*
X150283155Y-77210615D01*
X150290807Y-77208019D01*
X150408019Y-77172465D01*
X150415843Y-77170368D01*
X150535149Y-77142552D01*
X150543061Y-77140978D01*
X150663946Y-77121019D01*
X150671975Y-77119962D01*
X150795878Y-77107753D01*
X150799904Y-77107422D01*
X150862041Y-77103345D01*
X150864033Y-77103231D01*
X150926482Y-77100159D01*
X150930460Y-77100029D01*
X150960504Y-77099537D01*
X150962410Y-77099506D01*
X150964438Y-77099489D01*
X179235696Y-77099489D01*
X179237722Y-77099506D01*
G37*
%TD.AperFunction*%
%TA.AperFunction,Conductor*%
G36*
X153840850Y-106382909D02*
G01*
X153866567Y-106411777D01*
X153891855Y-106451125D01*
X153891857Y-106451128D01*
X154000627Y-106545377D01*
X154131543Y-106605165D01*
X154274000Y-106625647D01*
X156667719Y-106625647D01*
X156734758Y-106645332D01*
X156755400Y-106661966D01*
X157892106Y-107798672D01*
X157925591Y-107859995D01*
X157920607Y-107929687D01*
X157878735Y-107985620D01*
X157813271Y-108010037D01*
X157804425Y-108010353D01*
X157348997Y-108010353D01*
X157277039Y-108015499D01*
X157277034Y-108015500D01*
X157138949Y-108056045D01*
X157017873Y-108133856D01*
X157017872Y-108133856D01*
X157017872Y-108133857D01*
X156994399Y-108160947D01*
X156945347Y-108217556D01*
X156886569Y-108255330D01*
X156851634Y-108260353D01*
X154273997Y-108260353D01*
X154202039Y-108265499D01*
X154202034Y-108265500D01*
X154063949Y-108306045D01*
X153942873Y-108383856D01*
X153854115Y-108486288D01*
X153795336Y-108524062D01*
X153725467Y-108524062D01*
X153666689Y-108486287D01*
X153654285Y-108469234D01*
X153589256Y-108361662D01*
X153589252Y-108361657D01*
X153473342Y-108245747D01*
X153473337Y-108245743D01*
X153333065Y-108160947D01*
X153176562Y-108112179D01*
X153108556Y-108106000D01*
X152904000Y-108106000D01*
X152904000Y-111632000D01*
X152884315Y-111699039D01*
X152831511Y-111744794D01*
X152780000Y-111756000D01*
X152528000Y-111756000D01*
X152460961Y-111736315D01*
X152415206Y-111683511D01*
X152404000Y-111632000D01*
X152404000Y-110476000D01*
X151580857Y-110476000D01*
X151585178Y-110523558D01*
X151633947Y-110680065D01*
X151707568Y-110801851D01*
X151725404Y-110869406D01*
X151707568Y-110930149D01*
X151633947Y-111051934D01*
X151585179Y-111208437D01*
X151578746Y-111279239D01*
X151577819Y-111279154D01*
X151556300Y-111341685D01*
X151501455Y-111384972D01*
X151431913Y-111391735D01*
X151369754Y-111359828D01*
X151367486Y-111357616D01*
X151250051Y-111240181D01*
X151238464Y-111226810D01*
X151114911Y-111061760D01*
X151105347Y-111046876D01*
X151006551Y-110865943D01*
X150999201Y-110849849D01*
X150964290Y-110756246D01*
X150927159Y-110656690D01*
X150922175Y-110639718D01*
X150921597Y-110637063D01*
X150878353Y-110438259D01*
X150875836Y-110420746D01*
X150872435Y-110373190D01*
X150860816Y-110210692D01*
X150860500Y-110201847D01*
X150860500Y-110161517D01*
X150860501Y-110113563D01*
X150860500Y-110113557D01*
X150860500Y-109206000D01*
X151580857Y-109206000D01*
X151585178Y-109253558D01*
X151633947Y-109410065D01*
X151704545Y-109526851D01*
X151722381Y-109594406D01*
X151704545Y-109655149D01*
X151633947Y-109771934D01*
X151585178Y-109928441D01*
X151580857Y-109975999D01*
X151580857Y-109976000D01*
X152404000Y-109976000D01*
X152404000Y-109206000D01*
X151580857Y-109206000D01*
X150860500Y-109206000D01*
X150860500Y-108706000D01*
X151580857Y-108706000D01*
X152404000Y-108706000D01*
X152404000Y-108106000D01*
X152199433Y-108106000D01*
X152131438Y-108112178D01*
X152131427Y-108112181D01*
X151974939Y-108160944D01*
X151974935Y-108160946D01*
X151834662Y-108245743D01*
X151834657Y-108245747D01*
X151718747Y-108361657D01*
X151718743Y-108361662D01*
X151633947Y-108501934D01*
X151585178Y-108658441D01*
X151580857Y-108705999D01*
X151580857Y-108706000D01*
X150860500Y-108706000D01*
X150860500Y-106527402D01*
X150880185Y-106460363D01*
X150932989Y-106414608D01*
X151002147Y-106404664D01*
X151059887Y-106431033D01*
X151060848Y-106429782D01*
X151274240Y-106593523D01*
X151503659Y-106725978D01*
X151503660Y-106725978D01*
X151503663Y-106725980D01*
X151748411Y-106827358D01*
X152004299Y-106895922D01*
X152266947Y-106930500D01*
X152266954Y-106930500D01*
X152704743Y-106930500D01*
X152856439Y-106915074D01*
X153050579Y-106854162D01*
X153050579Y-106854161D01*
X153050588Y-106854159D01*
X153206078Y-106767854D01*
X153229348Y-106757895D01*
X153333270Y-106725512D01*
X153473653Y-106640648D01*
X153589648Y-106524653D01*
X153656136Y-106414666D01*
X153707661Y-106367480D01*
X153776520Y-106355641D01*
X153840850Y-106382909D01*
G37*
%TD.AperFunction*%
%TA.AperFunction,Conductor*%
G36*
X152487499Y-95249235D02*
G01*
X152496467Y-95251397D01*
X152684254Y-95304147D01*
X152691591Y-95306061D01*
X152702459Y-95308897D01*
X152703263Y-95309091D01*
X152703281Y-95309095D01*
X152703306Y-95309101D01*
X152721649Y-95313165D01*
X152965796Y-95362516D01*
X152997173Y-95367721D01*
X153000746Y-95368314D01*
X153002361Y-95368524D01*
X153019440Y-95370141D01*
X153037519Y-95371854D01*
X153240046Y-95383915D01*
X153305795Y-95407550D01*
X153348330Y-95462981D01*
X153354145Y-95532608D01*
X153321393Y-95594326D01*
X153260473Y-95628540D01*
X153255466Y-95629583D01*
X153096060Y-95659382D01*
X152983869Y-95702845D01*
X152888601Y-95739752D01*
X152888595Y-95739754D01*
X152699439Y-95856874D01*
X152699437Y-95856876D01*
X152535022Y-96006759D01*
X152456331Y-96110963D01*
X152441213Y-96122180D01*
X152442792Y-96123759D01*
X151747553Y-96818999D01*
X151747553Y-96819001D01*
X152442792Y-97514240D01*
X152442205Y-97514826D01*
X152456330Y-97527035D01*
X152533105Y-97628702D01*
X152535021Y-97631238D01*
X152535025Y-97631242D01*
X152699437Y-97781123D01*
X152699439Y-97781125D01*
X152888595Y-97898245D01*
X152888597Y-97898246D01*
X152888599Y-97898247D01*
X153009349Y-97945026D01*
X153064750Y-97987598D01*
X153088341Y-98053364D01*
X153072630Y-98121445D01*
X153022607Y-98170224D01*
X152984857Y-98182979D01*
X152980542Y-98183695D01*
X152975799Y-98184482D01*
X152731630Y-98233838D01*
X152731623Y-98233839D01*
X152731591Y-98233846D01*
X152713620Y-98237822D01*
X152712809Y-98238017D01*
X152694290Y-98242842D01*
X152506478Y-98295598D01*
X152497511Y-98297760D01*
X152434563Y-98310483D01*
X152385429Y-98310483D01*
X152322495Y-98297762D01*
X152313531Y-98295600D01*
X152150260Y-98249739D01*
X152125732Y-98242849D01*
X152123288Y-98242210D01*
X152107869Y-98238181D01*
X152107448Y-98238079D01*
X152107011Y-98237974D01*
X152096591Y-98235662D01*
X152088354Y-98233834D01*
X151844202Y-98184482D01*
X151839452Y-98183695D01*
X151834193Y-98182823D01*
X151771277Y-98152441D01*
X151734773Y-98092866D01*
X151736273Y-98023012D01*
X151775301Y-97965058D01*
X151809679Y-97944866D01*
X151931177Y-97897797D01*
X151931181Y-97897795D01*
X152047326Y-97825879D01*
X151390447Y-97169000D01*
X151423005Y-97169000D01*
X151509216Y-97154614D01*
X151611947Y-97099019D01*
X151691060Y-97013079D01*
X151737982Y-96906108D01*
X151747628Y-96789698D01*
X151718953Y-96676462D01*
X151655064Y-96578673D01*
X151562885Y-96506928D01*
X151452405Y-96469000D01*
X151390447Y-96469000D01*
X152047327Y-95812119D01*
X151931178Y-95740202D01*
X151931177Y-95740201D01*
X151723804Y-95659865D01*
X151557646Y-95628805D01*
X151495365Y-95597137D01*
X151460092Y-95536825D01*
X151463026Y-95467017D01*
X151503234Y-95409876D01*
X151567953Y-95383545D01*
X151573049Y-95383135D01*
X151762479Y-95371854D01*
X151789096Y-95369332D01*
X151797636Y-95368524D01*
X151799267Y-95368312D01*
X151834181Y-95362520D01*
X151834190Y-95362518D01*
X151834203Y-95362516D01*
X152078349Y-95313165D01*
X152096691Y-95309101D01*
X152096720Y-95309093D01*
X152096729Y-95309092D01*
X152097541Y-95308896D01*
X152098682Y-95308598D01*
X152115743Y-95304147D01*
X152303527Y-95251398D01*
X152312475Y-95249239D01*
X152375430Y-95236514D01*
X152424565Y-95236514D01*
X152487499Y-95249235D01*
G37*
%TD.AperFunction*%
%TA.AperFunction,Conductor*%
G36*
X166964062Y-91940314D02*
G01*
X167017249Y-91985624D01*
X167037496Y-92052495D01*
X167037500Y-92053537D01*
X167037500Y-93121519D01*
X167048001Y-93224301D01*
X167103184Y-93390833D01*
X167103189Y-93390844D01*
X167195285Y-93540153D01*
X167195288Y-93540157D01*
X167319342Y-93664211D01*
X167319346Y-93664214D01*
X167468655Y-93756310D01*
X167468658Y-93756311D01*
X167468664Y-93756315D01*
X167635200Y-93811499D01*
X167737988Y-93822000D01*
X167737991Y-93822000D01*
X170290110Y-93822000D01*
X170357149Y-93841685D01*
X170377791Y-93858319D01*
X170399181Y-93879709D01*
X170432666Y-93941032D01*
X170435500Y-93967390D01*
X170435500Y-94328500D01*
X170415815Y-94395539D01*
X170363011Y-94441294D01*
X170311500Y-94452500D01*
X169088129Y-94452500D01*
X169088123Y-94452501D01*
X169028516Y-94458908D01*
X168893671Y-94509202D01*
X168893664Y-94509206D01*
X168778455Y-94595452D01*
X168778452Y-94595455D01*
X168692206Y-94710664D01*
X168692202Y-94710671D01*
X168641908Y-94845517D01*
X168635501Y-94905116D01*
X168635500Y-94905135D01*
X168635500Y-95114690D01*
X168615815Y-95181729D01*
X168599181Y-95202371D01*
X167993553Y-95807999D01*
X167993553Y-95808000D01*
X168599181Y-96413628D01*
X168632666Y-96474951D01*
X168635500Y-96501308D01*
X168635500Y-96600869D01*
X168635501Y-96600876D01*
X168641908Y-96660483D01*
X168692202Y-96795328D01*
X168692206Y-96795335D01*
X168758258Y-96883568D01*
X168778454Y-96910546D01*
X168886145Y-96991164D01*
X168928016Y-97047097D01*
X168933000Y-97116789D01*
X168899515Y-97178112D01*
X168843721Y-97210260D01*
X168674184Y-97255374D01*
X168624213Y-97258218D01*
X168530472Y-97244399D01*
X168523732Y-97243215D01*
X168337225Y-97205106D01*
X168331010Y-97203836D01*
X168331000Y-97203834D01*
X168330980Y-97203830D01*
X168317422Y-97201252D01*
X168316815Y-97201145D01*
X168302916Y-97198898D01*
X168093193Y-97167981D01*
X168029741Y-97138730D01*
X167992177Y-97079817D01*
X167992426Y-97009948D01*
X168030410Y-96951305D01*
X168066484Y-96929680D01*
X168177177Y-96886797D01*
X168177181Y-96886795D01*
X168293326Y-96814879D01*
X167636447Y-96158000D01*
X167669005Y-96158000D01*
X167755216Y-96143614D01*
X167857947Y-96088019D01*
X167937060Y-96002079D01*
X167983982Y-95895108D01*
X167993628Y-95778698D01*
X167964953Y-95665462D01*
X167901064Y-95567673D01*
X167808885Y-95495928D01*
X167698405Y-95458000D01*
X167636447Y-95458000D01*
X168293327Y-94801119D01*
X168177178Y-94729202D01*
X168177177Y-94729201D01*
X167969804Y-94648865D01*
X167751193Y-94608000D01*
X167528807Y-94608000D01*
X167310195Y-94648865D01*
X167102822Y-94729201D01*
X167102815Y-94729205D01*
X166941177Y-94829287D01*
X166873817Y-94847842D01*
X166807117Y-94827034D01*
X166762256Y-94773469D01*
X166753476Y-94704153D01*
X166756634Y-94689926D01*
X166792620Y-94563446D01*
X166792621Y-94563443D01*
X166813141Y-94342000D01*
X166813141Y-94341999D01*
X166792621Y-94120560D01*
X166731759Y-93906649D01*
X166632635Y-93707580D01*
X166632630Y-93707572D01*
X166616860Y-93686690D01*
X165958987Y-94344564D01*
X165961628Y-94312698D01*
X165932953Y-94199462D01*
X165869064Y-94101673D01*
X165776885Y-94029928D01*
X165666405Y-93992000D01*
X165578995Y-93992000D01*
X165492784Y-94006386D01*
X165390053Y-94061981D01*
X165310940Y-94147921D01*
X165264018Y-94254892D01*
X165254372Y-94371302D01*
X165283047Y-94484538D01*
X165346936Y-94582327D01*
X165439115Y-94654072D01*
X165549595Y-94692000D01*
X165611553Y-94692000D01*
X165608000Y-94695553D01*
X164954672Y-95348879D01*
X164954672Y-95348880D01*
X165070821Y-95420797D01*
X165070822Y-95420798D01*
X165278195Y-95501134D01*
X165496807Y-95542000D01*
X165719193Y-95542000D01*
X165937804Y-95501134D01*
X166145177Y-95420798D01*
X166145178Y-95420797D01*
X166306821Y-95320712D01*
X166374182Y-95302156D01*
X166440881Y-95322964D01*
X166485743Y-95376529D01*
X166494523Y-95445845D01*
X166491366Y-95460072D01*
X166455378Y-95586558D01*
X166434859Y-95807999D01*
X166434859Y-95808001D01*
X166442236Y-95887617D01*
X166428821Y-95956187D01*
X166380463Y-96006619D01*
X166312517Y-96022901D01*
X166253488Y-96004485D01*
X166155404Y-95943754D01*
X166155398Y-95943752D01*
X166137009Y-95936628D01*
X165947940Y-95863382D01*
X165729243Y-95822500D01*
X165729241Y-95822500D01*
X165621083Y-95822500D01*
X165610766Y-95822070D01*
X165596233Y-95820856D01*
X165575569Y-95819131D01*
X165575567Y-95819131D01*
X165522677Y-95822281D01*
X165515306Y-95822500D01*
X165506757Y-95822500D01*
X165506752Y-95822500D01*
X165502658Y-95822880D01*
X165493273Y-95824032D01*
X165239494Y-95839146D01*
X165204356Y-95842474D01*
X165202745Y-95842684D01*
X165202736Y-95842685D01*
X165202732Y-95842686D01*
X165194367Y-95844073D01*
X165167796Y-95848482D01*
X164974194Y-95887617D01*
X164923630Y-95897838D01*
X164923623Y-95897839D01*
X164923591Y-95897846D01*
X164905620Y-95901822D01*
X164904809Y-95902017D01*
X164886290Y-95906842D01*
X164698478Y-95959598D01*
X164689512Y-95961760D01*
X164613120Y-95977201D01*
X164556666Y-95975489D01*
X164437398Y-95943752D01*
X164410623Y-95936627D01*
X164399359Y-95933046D01*
X164360446Y-95918599D01*
X164188865Y-95854897D01*
X164166287Y-95847117D01*
X164165227Y-95846780D01*
X164141881Y-95839962D01*
X163910269Y-95778329D01*
X163850547Y-95742066D01*
X163819909Y-95679272D01*
X163828085Y-95609882D01*
X163872478Y-95555928D01*
X163938993Y-95534539D01*
X163942146Y-95534499D01*
X164169872Y-95534499D01*
X164229483Y-95528091D01*
X164364331Y-95477796D01*
X164479546Y-95391546D01*
X164565796Y-95276331D01*
X164616091Y-95141483D01*
X164618972Y-95114690D01*
X164622499Y-95081886D01*
X164622499Y-95081882D01*
X164622500Y-95081873D01*
X164622499Y-95025306D01*
X164642182Y-94958270D01*
X164658818Y-94937627D01*
X165254447Y-94342000D01*
X164658818Y-93746371D01*
X164625333Y-93685048D01*
X164622499Y-93658690D01*
X164622499Y-93386129D01*
X164622498Y-93386123D01*
X164622497Y-93386116D01*
X164616091Y-93326517D01*
X164609990Y-93310160D01*
X164565797Y-93191671D01*
X164565793Y-93191664D01*
X164479547Y-93076455D01*
X164479544Y-93076452D01*
X164371853Y-92995834D01*
X164329982Y-92939900D01*
X164324998Y-92870209D01*
X164358484Y-92808886D01*
X164414275Y-92776739D01*
X164595497Y-92728514D01*
X164658293Y-92728261D01*
X164724616Y-92745335D01*
X164738236Y-92749694D01*
X164886979Y-92806943D01*
X164890297Y-92808276D01*
X165133917Y-92910393D01*
X165186265Y-92929024D01*
X165186272Y-92929025D01*
X165192227Y-92930502D01*
X165192161Y-92930767D01*
X165211598Y-92935870D01*
X165265215Y-92956642D01*
X165320614Y-92999213D01*
X165344205Y-93064980D01*
X165328494Y-93133060D01*
X165278470Y-93181839D01*
X165265213Y-93187893D01*
X165070833Y-93263196D01*
X165070823Y-93263201D01*
X164954671Y-93335119D01*
X165608000Y-93988447D01*
X165608001Y-93988447D01*
X166261327Y-93335119D01*
X166145178Y-93263202D01*
X166145177Y-93263201D01*
X165950786Y-93187894D01*
X165895384Y-93145321D01*
X165871794Y-93079554D01*
X165887505Y-93011474D01*
X165937529Y-92962695D01*
X165950772Y-92956646D01*
X166145401Y-92881247D01*
X166334562Y-92764124D01*
X166498981Y-92614236D01*
X166633058Y-92436689D01*
X166732229Y-92237528D01*
X166793115Y-92023536D01*
X166793115Y-92023535D01*
X166794234Y-92019603D01*
X166831513Y-91960509D01*
X166894823Y-91930952D01*
X166964062Y-91940314D01*
G37*
%TD.AperFunction*%
%TA.AperFunction,Conductor*%
G36*
X154782577Y-90072185D02*
G01*
X154803219Y-90088819D01*
X154992207Y-90277807D01*
X155025692Y-90339130D01*
X155020708Y-90408822D01*
X154978836Y-90464755D01*
X154931884Y-90486432D01*
X154914999Y-90490251D01*
X154914983Y-90490254D01*
X154914974Y-90490257D01*
X154911522Y-90491113D01*
X154894521Y-90495332D01*
X154893626Y-90495575D01*
X154893615Y-90495578D01*
X154873828Y-90501364D01*
X154873794Y-90501374D01*
X154660156Y-90568606D01*
X154650285Y-90571271D01*
X154495688Y-90606233D01*
X154443768Y-90606829D01*
X154344495Y-90586762D01*
X154335531Y-90584600D01*
X154197400Y-90545800D01*
X154147732Y-90531849D01*
X154145288Y-90531210D01*
X154129869Y-90527181D01*
X154129448Y-90527079D01*
X154129011Y-90526974D01*
X154119714Y-90524911D01*
X154110354Y-90522834D01*
X153975512Y-90495578D01*
X153866201Y-90473482D01*
X153843194Y-90469669D01*
X153831104Y-90467665D01*
X153829494Y-90467456D01*
X153794499Y-90464146D01*
X153540721Y-90449031D01*
X153531348Y-90447880D01*
X153527246Y-90447500D01*
X153527243Y-90447500D01*
X153527239Y-90447500D01*
X153518702Y-90447500D01*
X153511330Y-90447281D01*
X153458415Y-90444129D01*
X153443397Y-90443459D01*
X153442749Y-90443440D01*
X153442743Y-90443440D01*
X153442737Y-90443440D01*
X153388053Y-90445516D01*
X153374379Y-90446036D01*
X153373036Y-90446230D01*
X153355335Y-90447500D01*
X153304757Y-90447500D01*
X153086060Y-90488382D01*
X152973869Y-90531845D01*
X152878601Y-90568752D01*
X152878595Y-90568754D01*
X152689439Y-90685874D01*
X152689437Y-90685876D01*
X152525022Y-90835759D01*
X152446331Y-90939963D01*
X152431213Y-90951180D01*
X152432792Y-90952759D01*
X151737553Y-91647999D01*
X151737553Y-91648000D01*
X152432792Y-92343240D01*
X152432205Y-92343826D01*
X152446330Y-92356035D01*
X152507237Y-92436689D01*
X152525021Y-92460238D01*
X152525025Y-92460242D01*
X152689437Y-92610123D01*
X152689439Y-92610125D01*
X152878595Y-92727245D01*
X152878597Y-92727246D01*
X152878599Y-92727247D01*
X152999349Y-92774026D01*
X153054750Y-92816598D01*
X153078341Y-92882364D01*
X153062630Y-92950445D01*
X153012607Y-92999224D01*
X152974857Y-93011979D01*
X152965799Y-93013482D01*
X152721630Y-93062838D01*
X152721623Y-93062839D01*
X152721591Y-93062846D01*
X152703620Y-93066822D01*
X152702809Y-93067017D01*
X152684290Y-93071842D01*
X152496478Y-93124598D01*
X152487511Y-93126760D01*
X152424563Y-93139483D01*
X152375429Y-93139483D01*
X152312495Y-93126762D01*
X152303531Y-93124600D01*
X152165400Y-93085800D01*
X152115732Y-93071849D01*
X152113288Y-93071210D01*
X152097869Y-93067181D01*
X152097448Y-93067079D01*
X152097011Y-93066974D01*
X152087714Y-93064911D01*
X152078354Y-93062834D01*
X151834202Y-93013482D01*
X151830999Y-93012951D01*
X151824193Y-93011823D01*
X151761277Y-92981441D01*
X151724773Y-92921866D01*
X151726273Y-92852012D01*
X151765301Y-92794058D01*
X151799679Y-92773866D01*
X151921177Y-92726797D01*
X151921181Y-92726795D01*
X152037326Y-92654879D01*
X151384001Y-92001553D01*
X151384000Y-92001553D01*
X150730672Y-92654879D01*
X150730672Y-92654880D01*
X150846821Y-92726797D01*
X150846822Y-92726798D01*
X151041213Y-92802105D01*
X151096614Y-92844678D01*
X151120205Y-92910445D01*
X151104494Y-92978525D01*
X151054470Y-93027304D01*
X151041213Y-93033359D01*
X150846601Y-93108751D01*
X150846595Y-93108754D01*
X150657435Y-93225877D01*
X150586314Y-93290711D01*
X150567383Y-93304913D01*
X150558785Y-93310160D01*
X150541413Y-93324519D01*
X150506389Y-93344880D01*
X150346010Y-93405705D01*
X150075596Y-93547630D01*
X149824241Y-93721128D01*
X149595658Y-93923635D01*
X149595639Y-93923654D01*
X149595309Y-93924027D01*
X149595195Y-93924098D01*
X149593005Y-93926289D01*
X149592844Y-93926128D01*
X149592840Y-93926132D01*
X149592778Y-93926062D01*
X149592502Y-93925786D01*
X149536117Y-93961149D01*
X149466252Y-93960377D01*
X149407895Y-93921954D01*
X149379574Y-93858082D01*
X149378500Y-93841793D01*
X149378500Y-92620888D01*
X149398185Y-92553849D01*
X149414814Y-92533212D01*
X150023423Y-91924602D01*
X150084741Y-91891121D01*
X150154432Y-91896105D01*
X150210366Y-91937976D01*
X150230365Y-91978353D01*
X150260236Y-92083342D01*
X150260239Y-92083348D01*
X150359369Y-92282428D01*
X150375137Y-92303308D01*
X150375138Y-92303308D01*
X151033012Y-91645433D01*
X151030372Y-91677302D01*
X151059047Y-91790538D01*
X151122936Y-91888327D01*
X151215115Y-91960072D01*
X151325595Y-91998000D01*
X151413005Y-91998000D01*
X151499216Y-91983614D01*
X151601947Y-91928019D01*
X151681060Y-91842079D01*
X151727982Y-91735108D01*
X151737628Y-91618698D01*
X151708953Y-91505462D01*
X151645064Y-91407673D01*
X151552885Y-91335928D01*
X151442405Y-91298000D01*
X151380446Y-91298000D01*
X152037327Y-90641119D01*
X151921178Y-90569202D01*
X151921177Y-90569201D01*
X151747395Y-90501878D01*
X151691993Y-90459305D01*
X151668403Y-90393538D01*
X151684114Y-90325458D01*
X151734138Y-90276679D01*
X151742815Y-90272505D01*
X151745079Y-90271521D01*
X151991607Y-90164551D01*
X152003008Y-90160258D01*
X152171751Y-90106042D01*
X152191363Y-90101460D01*
X152397392Y-90070725D01*
X152411677Y-90069433D01*
X152778954Y-90057602D01*
X152824820Y-90054030D01*
X152824822Y-90054029D01*
X152830644Y-90053576D01*
X152830651Y-90053677D01*
X152844316Y-90052500D01*
X154715538Y-90052500D01*
X154782577Y-90072185D01*
G37*
%TD.AperFunction*%
%TA.AperFunction,Conductor*%
G36*
X182570000Y-92921914D02*
G01*
X182462315Y-92872736D01*
X182355763Y-92857416D01*
X182284237Y-92857416D01*
X182177685Y-92872736D01*
X182070000Y-92921914D01*
X182070000Y-91252917D01*
X182177685Y-91302096D01*
X182284237Y-91317416D01*
X182355763Y-91317416D01*
X182462315Y-91302096D01*
X182570000Y-91252917D01*
X182570000Y-92921914D01*
G37*
%TD.AperFunction*%
%TA.AperFunction,Conductor*%
G36*
X182570000Y-90381914D02*
G01*
X182462315Y-90332736D01*
X182355763Y-90317416D01*
X182284237Y-90317416D01*
X182177685Y-90332736D01*
X182070000Y-90381914D01*
X182070000Y-88712917D01*
X182177685Y-88762096D01*
X182284237Y-88777416D01*
X182355763Y-88777416D01*
X182462315Y-88762096D01*
X182570000Y-88712917D01*
X182570000Y-90381914D01*
G37*
%TD.AperFunction*%
%TA.AperFunction,Conductor*%
G36*
X182570000Y-87841914D02*
G01*
X182462315Y-87792736D01*
X182355763Y-87777416D01*
X182284237Y-87777416D01*
X182177685Y-87792736D01*
X182070000Y-87841914D01*
X182070000Y-86172917D01*
X182177685Y-86222096D01*
X182284237Y-86237416D01*
X182355763Y-86237416D01*
X182462315Y-86222096D01*
X182570000Y-86172917D01*
X182570000Y-87841914D01*
G37*
%TD.AperFunction*%
%TD*%
M02*
