0
SECTION
2
HEADER
9
$INSUNITS
70
4
9
$ACADVER
1
AC1014
9
$HANDSEED
5
FFFF
0
ENDSEC
0
SECTION
2
TABLES
0
TABLE
2
VPORT
5
8
100
AcDbSymbolTable
0
ENDTAB
0
TABLE
2
LTYPE
5
5
100
AcDbSymbolTable
0
LTYPE
5
14
100
AcDbSymbolTableRecord
100
AcDbLinetypeTableRecord
2
BYBLOCK
70
0
0
LTYPE
5
15
100
AcDbSymbolTableRecord
100
AcDbLinetypeTableRecord
2
BYLAYER
70
0
0
LTYPE
5
16
100
AcDbSymbolTableRecord
100
AcDbLinetypeTableRecord
2
DASHED
70
0
3
Dashed __ __ __ __ __ __ __ __ __ __ __ __ __ _
72
65
73
2
40
0.75
49
0.5
74
0
49
-0.25
74
0
0
ENDTAB
0
TABLE
2
LAYER
5
2
100
AcDbSymbolTable
70
3
0
LAYER
5
50
100
AcDbSymbolTableRecord
100
AcDbLayerTableRecord
2
1
70
0
62
7
6
DASHED
0
LAYER
5
51
100
AcDbSymbolTableRecord
100
AcDbLayerTableRecord
2
0
70
0
62
7
6
CONTINUOUS
0
ENDTAB
0
TABLE
2
STYLE
5
3
100
AcDbSymbolTable
70
1
0
STYLE
5
11
100
AcDbSymbolTableRecord
100
AcDbTextStyleTableRecord
2
STANDARD
70
0
0
ENDTAB
0
TABLE
2
VIEW
5
6
100
AcDbSymbolTable
70
0
0
ENDTAB
0
TABLE
2
UCS
5
7
100
AcDbSymbolTable
70
0
0
ENDTAB
0
TABLE
2
APPID
5
9
100
AcDbSymbolTable
70
2
0
APPID
5
12
100
AcDbSymbolTableRecord
100
AcDbRegAppTableRecord
2
ACAD
70
0
0
ENDTAB
0
TABLE
2
DIMSTYLE
5
A
100
AcDbSymbolTable
70
1
0
ENDTAB
0
TABLE
2
BLOCK_RECORD
5
1
100
AcDbSymbolTable
70
1
0
BLOCK_RECORD
5
1F
100
AcDbSymbolTableRecord
100
AcDbBlockTableRecord
2
*MODEL_SPACE
0
BLOCK_RECORD
5
1B
100
AcDbSymbolTableRecord
100
AcDbBlockTableRecord
2
*PAPER_SPACE
0
ENDTAB
0
ENDSEC
0
SECTION
2
BLOCKS
0
BLOCK
5
20
100
AcDbEntity
100
AcDbBlockBegin
2
*MODEL_SPACE
0
ENDBLK
5
21
100
AcDbEntity
100
AcDbBlockEnd
0
BLOCK
5
1C
100
AcDbEntity
100
AcDbBlockBegin
2
*PAPER_SPACE
0
ENDBLK
5
1D
100
AcDbEntity
100
AcDbBlockEnd
0
ENDSEC
0
SECTION
2
ENTITIES
0
LWPOLYLINE
5
100
100
AcDbEntity
8
0
100
AcDbPolyline
90
28
70
1
43
0.0
10
-30.304176297098557
20
7.0000000745058069
10
-30.304176297098557
20
12.899824507564155
42
0.41421356237309509
10
-32.000176297098555
20
14.595824507564155
10
-40.597979746446612
20
14.595824507564153
42
-0.41421356237309509
10
-42.902155522004534
20
16.900000283122068
10
-42.902155522004534
20
24.748737341529107
42
-0.14056478739971517
10
-42.399915200254426
20
26.499947000158954
42
-0.013952839109895938
10
-40.855770531381779
20
28.823705769506397
42
-0.24376017466704397
10
-38.155877585750886
20
30.223109737756065
10
-33.018933962198112
20
30.223109737756065
42
0.41421356237309415
10
-30.223109737756047
20
33.018933962198133
10
-30.223109737756054
20
38.155877415665266
42
-0.24376018830069773
10
-28.823705769506411
20
40.855770531381793
42
-0.31724683639715112
10
28.823705769506379
20
40.855770531381793
42
-0.24376018830069926
10
30.223109737756062
20
38.155877415665266
10
30.223109737756047
20
33.018933962198133
42
0.41421356237309509
10
33.018933962198112
20
30.223109737756065
10
38.155877585750886
20
30.223109737756062
42
-0.24376017466704453
10
40.855770531381815
20
28.823705769506368
42
-0.013952839109895938
10
42.399915200254448
20
26.499947000158915
42
-0.14056478739971437
10
42.902155522004534
20
24.748737341529107
10
42.902155522004541
20
16.900000283122068
42
-0.41421356237309676
10
40.597979746446612
20
14.595824507564153
10
32.000176297098555
20
14.595824507564155
42
0.41421356237309387
10
30.304176297098557
20
12.899824507564155
10
30.304176297098557
20
7.0000000745058069
42
-0.41421356237309509
10
28.304176297098557
20
5.000000074505806
10
-28.304176297098557
20
5.0000000745058051
42
-0.41421356237309509
0
LWPOLYLINE
5
101
100
AcDbEntity
8
0
100
AcDbPolyline
90
28
70
1
43
0.0
10
30.304176297098557
20
-7.000000074505806
10
30.304176297098557
20
-12.899824507564155
42
0.41421356237309315
10
32.000176297098555
20
-14.595824507564156
10
40.597979746446612
20
-14.595824507564156
42
-0.41421356237309676
10
42.902155522004534
20
-16.900000283122068
10
42.902155522004534
20
-24.748737341529107
42
-0.14056478739971032
10
42.399915200254398
20
-26.499947000159029
42
-0.013952839109895381
10
40.855770531381793
20
-28.823705769506379
42
-0.2437601746670475
10
38.155877585750886
20
-30.223109737756065
10
33.018933962198112
20
-30.223109737756065
42
0.41421356237309509
10
30.223109737756047
20
-33.018933962198133
10
30.223109737756062
20
-38.155877415665266
42
-0.24376018830069668
10
28.823705769506404
20
-40.855770531381779
42
-0.31724683639715134
10
-28.8237057695064
20
-40.855770531381779
42
-0.24376018830069679
10
-30.223109737756062
20
-38.155877415665266
10
-30.223109737756047
20
-33.018933962198133
42
0.41421356237309415
10
-33.018933962198112
20
-30.223109737756065
10
-38.155877585750886
20
-30.223109737756065
42
-0.2437601746670455
10
-40.855770531381921
20
-28.823705769506191
42
-0.013952839109894937
10
-42.399915200254455
20
-26.499947000158901
42
-0.14056478739971268
10
-42.902155522004534
20
-24.748737341529107
10
-42.902155522004534
20
-16.900000283122068
42
-0.41421356237309509
10
-40.597979746446612
20
-14.595824507564153
10
-32.000176297098555
20
-14.595824507564153
42
0.41421356237309509
10
-30.304176297098557
20
-12.899824507564155
10
-30.304176297098557
20
-7.000000074505806
42
-0.41421356237309509
10
-28.304176297098557
20
-5.0000000745058051
10
28.304176297098557
20
-5.0000000745058042
42
-0.41421356237309509
0
CIRCLE
5
102
100
AcDbEntity
8
0
100
AcDbCircle
10
-33.018933962198119
20
-33.018933962198133
30
0
40
1.4999999999999991
210
0
220
-0
230
1
0
CIRCLE
5
103
100
AcDbEntity
8
0
100
AcDbCircle
10
-33.018933962198119
20
33.018933962198133
30
0
40
1.4999999999999991
210
0
220
-0
230
1
0
CIRCLE
5
104
100
AcDbEntity
8
0
100
AcDbCircle
10
0
20
0
30
0
40
58.000000000000007
210
0
220
0
230
1
0
CIRCLE
5
105
100
AcDbEntity
8
0
100
AcDbCircle
10
33.018933962198112
20
33.018933962198133
30
0
40
1.4999999999999991
210
0
220
-0
230
1
0
CIRCLE
5
106
100
AcDbEntity
8
0
100
AcDbCircle
10
33.018933962198112
20
-33.018933962198133
30
0
40
1.4999999999999991
210
0
220
-0
230
1
0
ENDSEC
0
SECTION
2
OBJECTS
0
DICTIONARY
5
C
100
AcDbDictionary
3
ACAD_GROUP
350
D
3
ACAD_MLINESTYLE
350
17
0
DICTIONARY
5
D
100
AcDbDictionary
0
DICTIONARY
5
1A
330
C
100
AcDbDictionary
0
DICTIONARY
5
17
100
AcDbDictionary
0
ENDSEC
0
EOF
