%TF.GenerationSoftware,KiCad,Pcbnew,7.0.11*%
%TF.CreationDate,2025-03-06T21:23:03+09:00*%
%TF.ProjectId,USBC_Board,55534243-5f42-46f6-9172-642e6b696361,rev?*%
%TF.SameCoordinates,Original*%
%TF.FileFunction,Copper,L2,Bot*%
%TF.FilePolarity,Positive*%
%FSLAX46Y46*%
G04 Gerber Fmt 4.6, Leading zero omitted, Abs format (unit mm)*
G04 Created by KiCad (PCBNEW 7.0.11) date 2025-03-06 21:23:03*
%MOMM*%
%LPD*%
G01*
G04 APERTURE LIST*
G04 Aperture macros list*
%AMFreePoly0*
4,1,22,0.012646,2.300439,0.012796,2.300403,0.012816,2.300369,0.012854,2.300354,0.012914,2.300207,0.012994,2.300076,0.287994,0.500075,0.287984,0.500037,0.288000,0.500000,0.288000,-0.250000,0.287854,-0.250354,0.287500,-0.250500,0.287500,-0.500000,-0.287500,-0.500000,-0.287500,-0.250500,-0.287854,-0.250354,-0.288000,-0.250000,-0.288000,2.300000,-0.287854,2.300354,-0.287500,2.300500,
0.012500,2.300500,0.012646,2.300439,0.012646,2.300439,$1*%
G04 Aperture macros list end*
%TA.AperFunction,SMDPad,CuDef*%
%ADD10R,0.410000X2.000000*%
%TD*%
%TA.AperFunction,SMDPad,CuDef*%
%ADD11R,0.260000X2.000000*%
%TD*%
%TA.AperFunction,SMDPad,CuDef*%
%ADD12R,1.000000X2.700000*%
%TD*%
%TA.AperFunction,SMDPad,CuDef*%
%ADD13R,1.000000X1.800000*%
%TD*%
%TA.AperFunction,SMDPad,CuDef*%
%ADD14R,0.575000X2.800000*%
%TD*%
%TA.AperFunction,SMDPad,CuDef*%
%ADD15FreePoly0,180.000000*%
%TD*%
%TA.AperFunction,SMDPad,CuDef*%
%ADD16C,1.000000*%
%TD*%
%TA.AperFunction,ViaPad*%
%ADD17C,0.600000*%
%TD*%
%TA.AperFunction,Conductor*%
%ADD18C,0.200000*%
%TD*%
G04 APERTURE END LIST*
D10*
%TO.P,J11,B1,GNDB*%
%TO.N,Net-(J21-Pin_1)*%
X171362500Y-111675000D03*
D11*
%TO.P,J11,B2,TX2+*%
%TO.N,Net-(J11-TX2+)*%
X170787500Y-111675000D03*
%TO.P,J11,B3,TX2-*%
%TO.N,Net-(J11-TX2-)*%
X170287500Y-111675000D03*
%TO.P,J11,B4,B_VBUS*%
%TO.N,Net-(J12-Pin_1)*%
X169787500Y-111675000D03*
%TO.P,J11,B5,CC2*%
%TO.N,Net-(J11-CC2)*%
X169287500Y-111675000D03*
%TO.P,J11,B6,DB+*%
%TO.N,Net-(J11-DB+)*%
X168787500Y-111675000D03*
%TO.P,J11,B7,DB-*%
%TO.N,Net-(J11-DB-)*%
X168287500Y-111675000D03*
%TO.P,J11,B8,SBU2*%
%TO.N,Net-(J11-SBU2)*%
X167787500Y-111675000D03*
%TO.P,J11,B9,B_VBUS*%
%TO.N,Net-(J12-Pin_1)*%
X167287500Y-111675000D03*
%TO.P,J11,B10,RX1-*%
%TO.N,Net-(J11-RX1-)*%
X166787500Y-111675000D03*
%TO.P,J11,B11,RX1+*%
%TO.N,Net-(J11-RX1+)*%
X166287500Y-111675000D03*
D10*
%TO.P,J11,B12,GNDB*%
%TO.N,Net-(J21-Pin_1)*%
X165712500Y-111675000D03*
D12*
%TO.P,J11,S5,SHIELD*%
%TO.N,Net-(J22-Pin_1)*%
X164537500Y-114350000D03*
D13*
%TO.P,J11,S6,SHIELD*%
X172562500Y-114800000D03*
D14*
%TO.P,J11,S7*%
%TO.N,N/C*%
X172050000Y-111125000D03*
D15*
%TO.P,J11,S8*%
X165025000Y-110225000D03*
%TD*%
D16*
%TO.P,J14,1,Pin_1*%
%TO.N,Net-(J11-DB-)*%
X169400000Y-117500000D03*
%TD*%
%TO.P,J16,1,Pin_1*%
%TO.N,Net-(J11-TX2+)*%
X172900000Y-117500000D03*
%TD*%
%TO.P,J21,1,Pin_1*%
%TO.N,Net-(J21-Pin_1)*%
X164150000Y-119200000D03*
%TD*%
%TO.P,J17,1,Pin_1*%
%TO.N,Net-(J11-TX2-)*%
X171200000Y-119250000D03*
%TD*%
%TO.P,J18,1,Pin_1*%
%TO.N,Net-(J11-SBU2)*%
X167650000Y-119250000D03*
%TD*%
%TO.P,J20,1,Pin_1*%
%TO.N,Net-(J11-RX1-)*%
X165900000Y-119250000D03*
%TD*%
%TO.P,J15,1,Pin_1*%
%TO.N,Net-(J11-CC2)*%
X171150000Y-117500000D03*
%TD*%
%TO.P,J19,1,Pin_1*%
%TO.N,Net-(J11-RX1+)*%
X165900000Y-117500000D03*
%TD*%
%TO.P,J13,1,Pin_1*%
%TO.N,Net-(J11-DB+)*%
X169400000Y-119250000D03*
%TD*%
%TO.P,J12,1,Pin_1*%
%TO.N,Net-(J12-Pin_1)*%
X167650000Y-117500000D03*
%TD*%
D17*
%TO.N,Net-(J22-Pin_1)*%
X164550000Y-115250000D03*
%TD*%
D18*
%TO.N,Net-(J12-Pin_1)*%
X169787500Y-111675000D02*
X169787500Y-110445000D01*
X167287500Y-110445000D02*
X167287500Y-111675000D01*
X167357500Y-110375000D02*
X167287500Y-110445000D01*
X167287500Y-111700000D02*
X167287500Y-117137500D01*
X169787500Y-110445000D02*
X169717500Y-110375000D01*
X167287500Y-117137500D02*
X167650000Y-117500000D01*
X169717500Y-110375000D02*
X167357500Y-110375000D01*
%TO.N,Net-(J21-Pin_1)*%
X171362500Y-115446814D02*
X171362500Y-111675000D01*
X164150000Y-119200000D02*
X165000000Y-120050000D01*
X173950000Y-117050000D02*
X173350000Y-116450000D01*
X165712500Y-111700000D02*
X165712500Y-116037500D01*
X164950000Y-118400000D02*
X164150000Y-119200000D01*
X172365686Y-116450000D02*
X171362500Y-115446814D01*
X171900000Y-120050000D02*
X173950000Y-118000000D01*
X173950000Y-118000000D02*
X173950000Y-117050000D01*
X164950000Y-116800000D02*
X164950000Y-118400000D01*
X173350000Y-116450000D02*
X172365686Y-116450000D01*
X165000000Y-120050000D02*
X171900000Y-120050000D01*
X165712500Y-116037500D02*
X164950000Y-116800000D01*
%TO.N,Net-(J11-TX2+)*%
X172850000Y-117500000D02*
X170787500Y-115437500D01*
X170787500Y-115437500D02*
X170787500Y-111700000D01*
%TO.N,Net-(J11-TX2-)*%
X171200000Y-119250000D02*
X171950000Y-118500000D01*
X171950000Y-117165686D02*
X170287500Y-115503186D01*
X171950000Y-118500000D02*
X171950000Y-117165686D01*
X170287500Y-115503186D02*
X170287500Y-111700000D01*
%TO.N,Net-(J11-CC2)*%
X169287500Y-115637500D02*
X169287500Y-111700000D01*
X171150000Y-117500000D02*
X169287500Y-115637500D01*
%TO.N,Net-(J11-DB+)*%
X168787500Y-115703186D02*
X168787500Y-111700000D01*
X169400000Y-119250000D02*
X170200000Y-118450000D01*
X170200000Y-117115686D02*
X168787500Y-115703186D01*
X170200000Y-118450000D02*
X170200000Y-117115686D01*
%TO.N,Net-(J11-DB-)*%
X168287500Y-111700000D02*
X168287500Y-116387500D01*
X168287500Y-116387500D02*
X169400000Y-117500000D01*
%TO.N,Net-(J11-SBU2)*%
X167787500Y-116506129D02*
X168450000Y-117168629D01*
X168450000Y-118450000D02*
X167650000Y-119250000D01*
X168450000Y-117168629D02*
X168450000Y-118450000D01*
X167787500Y-111700000D02*
X167787500Y-116506129D01*
%TO.N,Net-(J11-RX1-)*%
X166787500Y-118362500D02*
X166787500Y-111700000D01*
X165900000Y-119250000D02*
X166787500Y-118362500D01*
%TO.N,Net-(J11-RX1+)*%
X166287500Y-117112500D02*
X166287500Y-111700000D01*
X165900000Y-117500000D02*
X166287500Y-117112500D01*
%TD*%
%TA.AperFunction,Conductor*%
%TO.N,Net-(J12-Pin_1)*%
G36*
X167390713Y-116652740D02*
G01*
X167993422Y-117138285D01*
X167997715Y-117146144D01*
X167995193Y-117154736D01*
X167994367Y-117155657D01*
X167653439Y-117497551D01*
X167645171Y-117500990D01*
X167645131Y-117500990D01*
X167162203Y-117500024D01*
X167153936Y-117496581D01*
X167150526Y-117488301D01*
X167150535Y-117487852D01*
X167187006Y-116661334D01*
X167190795Y-116653222D01*
X167198695Y-116650152D01*
X167383374Y-116650152D01*
X167390713Y-116652740D01*
G37*
%TD.AperFunction*%
%TD*%
%TA.AperFunction,Conductor*%
%TO.N,Net-(J21-Pin_1)*%
G36*
X164609788Y-119013250D02*
G01*
X164616109Y-119019594D01*
X164616222Y-119019880D01*
X164683987Y-119197453D01*
X164862876Y-119666222D01*
X164925114Y-119829311D01*
X164924862Y-119838262D01*
X164922456Y-119841755D01*
X164791755Y-119972456D01*
X164783482Y-119975883D01*
X164779312Y-119975114D01*
X164397244Y-119829311D01*
X163969880Y-119666222D01*
X163963372Y-119660071D01*
X163963120Y-119651120D01*
X163963203Y-119650908D01*
X164147437Y-119203795D01*
X164153755Y-119197454D01*
X164600837Y-119013233D01*
X164609788Y-119013250D01*
G37*
%TD.AperFunction*%
%TD*%
%TA.AperFunction,Conductor*%
%TO.N,Net-(J21-Pin_1)*%
G36*
X164788262Y-118425137D02*
G01*
X164791755Y-118427543D01*
X164922456Y-118558244D01*
X164925883Y-118566517D01*
X164925114Y-118570688D01*
X164616222Y-119380119D01*
X164610071Y-119386627D01*
X164601120Y-119386879D01*
X164600849Y-119386772D01*
X164153796Y-119202562D01*
X164147453Y-119196242D01*
X163963233Y-118749162D01*
X163963250Y-118740211D01*
X163969594Y-118733890D01*
X163969841Y-118733792D01*
X164779314Y-118424885D01*
X164788262Y-118425137D01*
G37*
%TD.AperFunction*%
%TD*%
%TA.AperFunction,Conductor*%
%TO.N,Net-(J11-TX2+)*%
G36*
X172250452Y-116754474D02*
G01*
X173079503Y-117034067D01*
X173086247Y-117039958D01*
X173086851Y-117048893D01*
X173086582Y-117049611D01*
X172902563Y-117496202D01*
X172896242Y-117502546D01*
X172896202Y-117502563D01*
X172448794Y-117686918D01*
X172439840Y-117686901D01*
X172433554Y-117680640D01*
X172251417Y-117248068D01*
X172250500Y-117243528D01*
X172250500Y-117216610D01*
X172251107Y-117212891D01*
X172252773Y-117207921D01*
X172250512Y-117159010D01*
X172250500Y-117158470D01*
X172250500Y-117137844D01*
X172249364Y-117131771D01*
X172249177Y-117130160D01*
X172247585Y-117095694D01*
X172239523Y-117077435D01*
X172238726Y-117074862D01*
X172235061Y-117055253D01*
X172216898Y-117025918D01*
X172216143Y-117024485D01*
X172202206Y-116992921D01*
X172202205Y-116992920D01*
X172202204Y-116992918D01*
X172188098Y-116978813D01*
X172186423Y-116976699D01*
X172175919Y-116959734D01*
X172148382Y-116938939D01*
X172147160Y-116937875D01*
X172110782Y-116901497D01*
X172107355Y-116893224D01*
X172110781Y-116884952D01*
X172238445Y-116757288D01*
X172246717Y-116753862D01*
X172250452Y-116754474D01*
G37*
%TD.AperFunction*%
%TD*%
%TA.AperFunction,Conductor*%
%TO.N,Net-(J11-TX2-)*%
G36*
X171838262Y-118475137D02*
G01*
X171841755Y-118477543D01*
X171972456Y-118608244D01*
X171975883Y-118616517D01*
X171975114Y-118620688D01*
X171666222Y-119430119D01*
X171660071Y-119436627D01*
X171651120Y-119436879D01*
X171650849Y-119436772D01*
X171203796Y-119252562D01*
X171197453Y-119246242D01*
X171013233Y-118799162D01*
X171013250Y-118790211D01*
X171019594Y-118783890D01*
X171019841Y-118783792D01*
X171829314Y-118474885D01*
X171838262Y-118475137D01*
G37*
%TD.AperFunction*%
%TD*%
%TA.AperFunction,Conductor*%
%TO.N,Net-(J11-CC2)*%
G36*
X170520683Y-116724884D02*
G01*
X171306760Y-117024863D01*
X171330119Y-117033777D01*
X171336627Y-117039928D01*
X171336879Y-117048879D01*
X171336766Y-117049165D01*
X171152563Y-117496202D01*
X171146242Y-117502546D01*
X171146202Y-117502563D01*
X170699165Y-117686766D01*
X170690211Y-117686749D01*
X170683890Y-117680405D01*
X170683777Y-117680119D01*
X170501269Y-117201867D01*
X170500500Y-117197696D01*
X170500500Y-117166611D01*
X170501107Y-117162892D01*
X170502773Y-117157922D01*
X170500512Y-117109011D01*
X170500500Y-117108471D01*
X170500500Y-117087844D01*
X170499364Y-117081771D01*
X170499177Y-117080160D01*
X170497585Y-117045695D01*
X170489523Y-117027436D01*
X170488726Y-117024863D01*
X170485061Y-117005253D01*
X170466897Y-116975917D01*
X170466142Y-116974484D01*
X170452206Y-116942921D01*
X170452205Y-116942920D01*
X170452204Y-116942918D01*
X170438098Y-116928813D01*
X170436423Y-116926699D01*
X170431821Y-116919266D01*
X170425919Y-116909734D01*
X170398382Y-116888939D01*
X170397160Y-116887875D01*
X170380809Y-116871524D01*
X170377382Y-116863251D01*
X170380808Y-116854979D01*
X170508246Y-116727541D01*
X170516516Y-116724116D01*
X170520683Y-116724884D01*
G37*
%TD.AperFunction*%
%TD*%
%TA.AperFunction,Conductor*%
%TO.N,Net-(J11-DB+)*%
G36*
X170038262Y-118475137D02*
G01*
X170041755Y-118477543D01*
X170172456Y-118608244D01*
X170175883Y-118616517D01*
X170175114Y-118620688D01*
X169866222Y-119430119D01*
X169860071Y-119436627D01*
X169851120Y-119436879D01*
X169850849Y-119436772D01*
X169403796Y-119252562D01*
X169397453Y-119246242D01*
X169213233Y-118799162D01*
X169213250Y-118790211D01*
X169219594Y-118783890D01*
X169219841Y-118783792D01*
X170029314Y-118474885D01*
X170038262Y-118475137D01*
G37*
%TD.AperFunction*%
%TD*%
%TA.AperFunction,Conductor*%
%TO.N,Net-(J11-DB-)*%
G36*
X168770683Y-116724884D02*
G01*
X169480765Y-116995862D01*
X169580119Y-117033777D01*
X169586627Y-117039928D01*
X169586879Y-117048879D01*
X169586766Y-117049165D01*
X169402563Y-117496202D01*
X169396242Y-117502546D01*
X169396202Y-117502563D01*
X168949165Y-117686766D01*
X168940211Y-117686749D01*
X168933890Y-117680405D01*
X168933777Y-117680119D01*
X168753177Y-117206867D01*
X168752420Y-117203236D01*
X168750512Y-117161953D01*
X168750500Y-117161413D01*
X168750500Y-117140787D01*
X168749364Y-117134714D01*
X168749177Y-117133103D01*
X168747585Y-117098637D01*
X168739522Y-117080375D01*
X168738727Y-117077810D01*
X168735061Y-117058196D01*
X168716899Y-117028863D01*
X168716144Y-117027430D01*
X168702206Y-116995863D01*
X168702205Y-116995862D01*
X168702204Y-116995860D01*
X168688096Y-116981753D01*
X168686421Y-116979639D01*
X168675918Y-116962676D01*
X168656222Y-116947803D01*
X168652343Y-116942639D01*
X168624885Y-116870685D01*
X168625137Y-116861737D01*
X168627540Y-116858247D01*
X168758245Y-116727542D01*
X168766517Y-116724116D01*
X168770683Y-116724884D01*
G37*
%TD.AperFunction*%
%TD*%
%TA.AperFunction,Conductor*%
%TO.N,Net-(J11-SBU2)*%
G36*
X168288262Y-118475137D02*
G01*
X168291755Y-118477543D01*
X168422456Y-118608244D01*
X168425883Y-118616517D01*
X168425114Y-118620688D01*
X168116222Y-119430119D01*
X168110071Y-119436627D01*
X168101120Y-119436879D01*
X168100849Y-119436772D01*
X167653796Y-119252562D01*
X167647453Y-119246242D01*
X167463233Y-118799162D01*
X167463250Y-118790211D01*
X167469594Y-118783890D01*
X167469841Y-118783792D01*
X168279314Y-118474885D01*
X168288262Y-118475137D01*
G37*
%TD.AperFunction*%
%TD*%
%TA.AperFunction,Conductor*%
%TO.N,Net-(J11-RX1-)*%
G36*
X166538262Y-118475137D02*
G01*
X166541755Y-118477543D01*
X166672456Y-118608244D01*
X166675883Y-118616517D01*
X166675114Y-118620688D01*
X166366222Y-119430119D01*
X166360071Y-119436627D01*
X166351120Y-119436879D01*
X166350849Y-119436772D01*
X165903796Y-119252562D01*
X165897453Y-119246242D01*
X165713233Y-118799162D01*
X165713250Y-118790211D01*
X165719594Y-118783890D01*
X165719841Y-118783792D01*
X166529314Y-118474885D01*
X166538262Y-118475137D01*
G37*
%TD.AperFunction*%
%TD*%
%TA.AperFunction,Conductor*%
%TO.N,Net-(J11-RX1+)*%
G36*
X166384246Y-116663935D02*
G01*
X166387672Y-116672034D01*
X166399823Y-117488149D01*
X166396519Y-117496472D01*
X166388298Y-117500022D01*
X166388147Y-117500023D01*
X165904868Y-117500990D01*
X165896590Y-117497581D01*
X165555908Y-117155935D01*
X165552494Y-117147658D01*
X165555933Y-117139390D01*
X165557117Y-117138358D01*
X166172295Y-116672034D01*
X166184366Y-116662884D01*
X166191434Y-116660508D01*
X166375973Y-116660508D01*
X166384246Y-116663935D01*
G37*
%TD.AperFunction*%
%TD*%
M02*
