%TF.GenerationSoftware,KiCad,Pcbnew,7.0.11*%
%TF.CreationDate,2025-03-06T21:23:03+09:00*%
%TF.ProjectId,USBC_Board,55534243-5f42-46f6-9172-642e6b696361,rev?*%
%TF.SameCoordinates,Original*%
%TF.FileFunction,Copper,L1,Top*%
%TF.FilePolarity,Positive*%
%FSLAX46Y46*%
G04 Gerber Fmt 4.6, Leading zero omitted, Abs format (unit mm)*
G04 Created by KiCad (PCBNEW 7.0.11) date 2025-03-06 21:23:03*
%MOMM*%
%LPD*%
G01*
G04 APERTURE LIST*
G04 Aperture macros list*
%AMFreePoly0*
4,1,22,0.012646,2.300439,0.012796,2.300403,0.012816,2.300369,0.012854,2.300354,0.012914,2.300207,0.012994,2.300076,0.287994,0.500075,0.287984,0.500037,0.288000,0.500000,0.288000,-0.250000,0.287854,-0.250354,0.287500,-0.250500,0.287500,-0.500000,-0.287500,-0.500000,-0.287500,-0.250500,-0.287854,-0.250354,-0.288000,-0.250000,-0.288000,2.300000,-0.287854,2.300354,-0.287500,2.300500,
0.012500,2.300500,0.012646,2.300439,0.012646,2.300439,$1*%
G04 Aperture macros list end*
%TA.AperFunction,SMDPad,CuDef*%
%ADD10C,1.000000*%
%TD*%
%TA.AperFunction,SMDPad,CuDef*%
%ADD11R,0.410000X2.000000*%
%TD*%
%TA.AperFunction,SMDPad,CuDef*%
%ADD12R,0.260000X2.000000*%
%TD*%
%TA.AperFunction,SMDPad,CuDef*%
%ADD13R,0.575000X2.800000*%
%TD*%
%TA.AperFunction,SMDPad,CuDef*%
%ADD14FreePoly0,180.000000*%
%TD*%
%TA.AperFunction,SMDPad,CuDef*%
%ADD15R,1.000000X1.800000*%
%TD*%
%TA.AperFunction,SMDPad,CuDef*%
%ADD16R,1.000000X2.700000*%
%TD*%
%TA.AperFunction,ViaPad*%
%ADD17C,0.600000*%
%TD*%
%TA.AperFunction,Conductor*%
%ADD18C,0.200000*%
%TD*%
G04 APERTURE END LIST*
D10*
%TO.P,J8,1,Pin_1*%
%TO.N,Net-(J11-RX2+)*%
X172900000Y-117500000D03*
%TD*%
%TO.P,J1,1,Pin_1*%
%TO.N,Net-(J1-Pin_1)*%
X167650000Y-117500000D03*
%TD*%
%TO.P,J10,1,Pin_1*%
%TO.N,Net-(J10-Pin_1)*%
X164150000Y-119200000D03*
%TD*%
%TO.P,J22,1,Pin_1*%
%TO.N,Net-(J22-Pin_1)*%
X164150000Y-117450000D03*
%TD*%
D11*
%TO.P,J11,A1,GNDA*%
%TO.N,Net-(J10-Pin_1)*%
X165712500Y-111675000D03*
D12*
%TO.P,J11,A2,TX1+*%
%TO.N,Net-(J11-TX1+)*%
X166287500Y-111675000D03*
%TO.P,J11,A3,TX1-*%
%TO.N,Net-(J11-TX1-)*%
X166787500Y-111675000D03*
%TO.P,J11,A4,A_VBUS*%
%TO.N,Net-(J1-Pin_1)*%
X167287500Y-111675000D03*
%TO.P,J11,A5,CC1*%
%TO.N,Net-(J11-CC1)*%
X167787500Y-111675000D03*
%TO.P,J11,A6,DA+*%
%TO.N,Net-(J11-DA+)*%
X168287500Y-111675000D03*
%TO.P,J11,A7,DA-*%
%TO.N,Net-(J11-DA-)*%
X168787500Y-111675000D03*
%TO.P,J11,A8,SBU1*%
%TO.N,Net-(J11-SBU1)*%
X169287500Y-111675000D03*
%TO.P,J11,A9,A_VBUS*%
%TO.N,Net-(J1-Pin_1)*%
X169787500Y-111675000D03*
%TO.P,J11,A10,RX2-*%
%TO.N,Net-(J11-RX2-)*%
X170287500Y-111675000D03*
%TO.P,J11,A11,RX2+*%
%TO.N,Net-(J11-RX2+)*%
X170787500Y-111675000D03*
D11*
%TO.P,J11,A12,GNDA*%
%TO.N,Net-(J10-Pin_1)*%
X171362500Y-111675000D03*
D13*
%TO.P,J11,S1*%
%TO.N,N/C*%
X172050000Y-111125000D03*
D14*
%TO.P,J11,S2*%
X165025000Y-110225000D03*
D15*
%TO.P,J11,S3,SHIELD*%
%TO.N,Net-(J22-Pin_1)*%
X172562500Y-114800000D03*
D16*
%TO.P,J11,S4,SHIELD*%
X164537500Y-114350000D03*
%TD*%
D10*
%TO.P,J2,1,Pin_1*%
%TO.N,Net-(J11-DA+)*%
X169400000Y-117500000D03*
%TD*%
%TO.P,J7,1,Pin_1*%
%TO.N,Net-(J11-SBU1)*%
X171150000Y-117500000D03*
%TD*%
%TO.P,J4,1,Pin_1*%
%TO.N,Net-(J11-CC1)*%
X167650000Y-119250000D03*
%TD*%
%TO.P,J3,1,Pin_1*%
%TO.N,Net-(J11-DA-)*%
X169400000Y-119250000D03*
%TD*%
%TO.P,J9,1,Pin_1*%
%TO.N,Net-(J11-RX2-)*%
X171150000Y-119250000D03*
%TD*%
%TO.P,J6,1,Pin_1*%
%TO.N,Net-(J11-TX1-)*%
X165900000Y-119250000D03*
%TD*%
%TO.P,J5,1,Pin_1*%
%TO.N,Net-(J11-TX1+)*%
X165900000Y-117500000D03*
%TD*%
D17*
%TO.N,Net-(J22-Pin_1)*%
X164550000Y-115250000D03*
%TD*%
D18*
%TO.N,Net-(J1-Pin_1)*%
X169787500Y-110470000D02*
X169717500Y-110400000D01*
X167357500Y-110400000D02*
X167287500Y-110470000D01*
X167287500Y-117137500D02*
X167287500Y-111700000D01*
X167287500Y-110470000D02*
X167287500Y-111700000D01*
X167650000Y-117500000D02*
X167287500Y-117137500D01*
X169717500Y-110400000D02*
X167357500Y-110400000D01*
X169787500Y-111700000D02*
X169787500Y-110470000D01*
%TO.N,Net-(J10-Pin_1)*%
X164950000Y-118400000D02*
X164150000Y-119200000D01*
X165725000Y-112119250D02*
X165725000Y-116025000D01*
X165725000Y-116025000D02*
X164950000Y-116800000D01*
X171900000Y-120050000D02*
X165000000Y-120050000D01*
X165000000Y-120050000D02*
X164150000Y-119200000D01*
X173950000Y-118000000D02*
X171900000Y-120050000D01*
X173950000Y-117050000D02*
X173950000Y-118000000D01*
X171362500Y-115449757D02*
X172362743Y-116450000D01*
X164950000Y-116800000D02*
X164950000Y-118400000D01*
X171362500Y-111700000D02*
X171362500Y-115449757D01*
X172362743Y-116450000D02*
X173350000Y-116450000D01*
X173350000Y-116450000D02*
X173950000Y-117050000D01*
%TO.N,Net-(J11-DA+)*%
X169400000Y-117500000D02*
X168300000Y-116400000D01*
X168300000Y-116400000D02*
X168300000Y-112119250D01*
%TO.N,Net-(J11-DA-)*%
X169400000Y-119250000D02*
X170200000Y-118450000D01*
X168800000Y-115700000D02*
X168800000Y-112119250D01*
X170200000Y-118450000D02*
X170200000Y-117100000D01*
X170200000Y-117100000D02*
X168800000Y-115700000D01*
%TO.N,Net-(J11-CC1)*%
X168450000Y-117150000D02*
X168450000Y-118450000D01*
X168450000Y-118450000D02*
X167650000Y-119250000D01*
X167800000Y-112119250D02*
X167800000Y-116500000D01*
X167800000Y-116500000D02*
X168450000Y-117150000D01*
%TO.N,Net-(J11-TX1+)*%
X166300000Y-112119250D02*
X166300000Y-117100000D01*
X166300000Y-117100000D02*
X165900000Y-117500000D01*
%TO.N,Net-(J11-TX1-)*%
X166800000Y-112119250D02*
X166800000Y-118350000D01*
X166800000Y-118350000D02*
X165900000Y-119250000D01*
%TO.N,Net-(J11-SBU1)*%
X169300000Y-115634314D02*
X169300000Y-112119250D01*
X171150000Y-117484314D02*
X169300000Y-115634314D01*
X171150000Y-117500000D02*
X171150000Y-117484314D01*
%TO.N,Net-(J11-RX2+)*%
X172847057Y-117500000D02*
X170787500Y-115440443D01*
X172900000Y-117500000D02*
X172847057Y-117500000D01*
X170787500Y-115440443D02*
X170787500Y-111700000D01*
%TO.N,Net-(J11-RX2-)*%
X171950000Y-118450000D02*
X171950000Y-117168629D01*
X170300000Y-115518629D02*
X170300000Y-112119250D01*
X171950000Y-117168629D02*
X170300000Y-115518629D01*
X171150000Y-119250000D02*
X171950000Y-118450000D01*
%TO.N,Net-(J22-Pin_1)*%
X164550000Y-117050000D02*
X164550000Y-115250000D01*
X164150000Y-117450000D02*
X164550000Y-117050000D01*
X164550000Y-115250000D02*
X164550000Y-114794250D01*
%TD*%
%TA.AperFunction,Conductor*%
%TO.N,Net-(J1-Pin_1)*%
G36*
X167390714Y-116652741D02*
G01*
X167993422Y-117138286D01*
X167997715Y-117146145D01*
X167995193Y-117154737D01*
X167994367Y-117155658D01*
X167653439Y-117497551D01*
X167645171Y-117500990D01*
X167645131Y-117500990D01*
X167162203Y-117500024D01*
X167153936Y-117496581D01*
X167150526Y-117488301D01*
X167150535Y-117487852D01*
X167187006Y-116661334D01*
X167190795Y-116653222D01*
X167198695Y-116650152D01*
X167383374Y-116650152D01*
X167390714Y-116652741D01*
G37*
%TD.AperFunction*%
%TD*%
%TA.AperFunction,Conductor*%
%TO.N,Net-(J10-Pin_1)*%
G36*
X164788262Y-118425137D02*
G01*
X164791755Y-118427543D01*
X164922456Y-118558244D01*
X164925883Y-118566517D01*
X164925114Y-118570688D01*
X164616222Y-119380119D01*
X164610071Y-119386627D01*
X164601120Y-119386879D01*
X164600849Y-119386772D01*
X164153796Y-119202562D01*
X164147453Y-119196242D01*
X163963233Y-118749162D01*
X163963250Y-118740211D01*
X163969594Y-118733890D01*
X163969841Y-118733792D01*
X164779314Y-118424885D01*
X164788262Y-118425137D01*
G37*
%TD.AperFunction*%
%TD*%
%TA.AperFunction,Conductor*%
%TO.N,Net-(J10-Pin_1)*%
G36*
X164609788Y-119013250D02*
G01*
X164616109Y-119019594D01*
X164616222Y-119019880D01*
X164683987Y-119197453D01*
X164862876Y-119666222D01*
X164925114Y-119829311D01*
X164924862Y-119838262D01*
X164922456Y-119841755D01*
X164791755Y-119972456D01*
X164783482Y-119975883D01*
X164779312Y-119975114D01*
X164397244Y-119829311D01*
X163969880Y-119666222D01*
X163963372Y-119660071D01*
X163963120Y-119651120D01*
X163963203Y-119650908D01*
X164147437Y-119203795D01*
X164153755Y-119197454D01*
X164600837Y-119013233D01*
X164609788Y-119013250D01*
G37*
%TD.AperFunction*%
%TD*%
%TA.AperFunction,Conductor*%
%TO.N,Net-(J11-DA+)*%
G36*
X168770683Y-116724884D02*
G01*
X169514663Y-117008798D01*
X169580119Y-117033777D01*
X169586627Y-117039928D01*
X169586879Y-117048879D01*
X169586766Y-117049165D01*
X169402563Y-117496202D01*
X169396242Y-117502546D01*
X169396202Y-117502563D01*
X168949165Y-117686766D01*
X168940211Y-117686749D01*
X168933890Y-117680405D01*
X168933777Y-117680119D01*
X168866019Y-117502563D01*
X168751844Y-117203376D01*
X168751683Y-117195487D01*
X168752773Y-117192236D01*
X168750512Y-117143325D01*
X168750500Y-117142785D01*
X168750500Y-117122158D01*
X168749364Y-117116085D01*
X168749177Y-117114474D01*
X168747585Y-117080009D01*
X168739523Y-117061750D01*
X168738726Y-117059177D01*
X168736855Y-117049165D01*
X168735061Y-117039567D01*
X168716897Y-117010231D01*
X168716142Y-117008798D01*
X168702206Y-116977235D01*
X168702205Y-116977234D01*
X168702204Y-116977232D01*
X168688098Y-116963127D01*
X168686423Y-116961013D01*
X168675919Y-116944048D01*
X168648382Y-116923253D01*
X168647160Y-116922189D01*
X168644688Y-116919717D01*
X168642032Y-116915620D01*
X168624885Y-116870685D01*
X168625137Y-116861737D01*
X168627540Y-116858247D01*
X168758245Y-116727542D01*
X168766517Y-116724116D01*
X168770683Y-116724884D01*
G37*
%TD.AperFunction*%
%TD*%
%TA.AperFunction,Conductor*%
%TO.N,Net-(J11-DA-)*%
G36*
X170038262Y-118475137D02*
G01*
X170041755Y-118477543D01*
X170172456Y-118608244D01*
X170175883Y-118616517D01*
X170175114Y-118620688D01*
X169866222Y-119430119D01*
X169860071Y-119436627D01*
X169851120Y-119436879D01*
X169850849Y-119436772D01*
X169403796Y-119252562D01*
X169397453Y-119246242D01*
X169213233Y-118799162D01*
X169213250Y-118790211D01*
X169219594Y-118783890D01*
X169219841Y-118783792D01*
X170029314Y-118474885D01*
X170038262Y-118475137D01*
G37*
%TD.AperFunction*%
%TD*%
%TA.AperFunction,Conductor*%
%TO.N,Net-(J11-CC1)*%
G36*
X168288262Y-118475137D02*
G01*
X168291755Y-118477543D01*
X168422456Y-118608244D01*
X168425883Y-118616517D01*
X168425114Y-118620688D01*
X168116222Y-119430119D01*
X168110071Y-119436627D01*
X168101120Y-119436879D01*
X168100849Y-119436772D01*
X167653796Y-119252562D01*
X167647453Y-119246242D01*
X167463233Y-118799162D01*
X167463250Y-118790211D01*
X167469594Y-118783890D01*
X167469841Y-118783792D01*
X168279314Y-118474885D01*
X168288262Y-118475137D01*
G37*
%TD.AperFunction*%
%TD*%
%TA.AperFunction,Conductor*%
%TO.N,Net-(J11-TX1+)*%
G36*
X166396573Y-116669112D02*
G01*
X166400000Y-116677385D01*
X166400000Y-117488323D01*
X166396573Y-117496596D01*
X166388323Y-117500023D01*
X165904868Y-117500990D01*
X165896590Y-117497581D01*
X165556048Y-117156075D01*
X165552633Y-117147797D01*
X165556072Y-117139529D01*
X165557393Y-117138394D01*
X166196907Y-116667959D01*
X166203840Y-116665685D01*
X166388300Y-116665685D01*
X166396573Y-116669112D01*
G37*
%TD.AperFunction*%
%TD*%
%TA.AperFunction,Conductor*%
%TO.N,Net-(J11-TX1-)*%
G36*
X166538262Y-118475137D02*
G01*
X166541755Y-118477543D01*
X166672456Y-118608244D01*
X166675883Y-118616517D01*
X166675114Y-118620688D01*
X166366222Y-119430119D01*
X166360071Y-119436627D01*
X166351120Y-119436879D01*
X166350849Y-119436772D01*
X165903796Y-119252562D01*
X165897453Y-119246242D01*
X165713233Y-118799162D01*
X165713250Y-118790211D01*
X165719594Y-118783890D01*
X165719841Y-118783792D01*
X166529314Y-118474885D01*
X166538262Y-118475137D01*
G37*
%TD.AperFunction*%
%TD*%
%TA.AperFunction,Conductor*%
%TO.N,Net-(J11-SBU1)*%
G36*
X170530143Y-116718709D02*
G01*
X171330281Y-117033705D01*
X171336724Y-117039924D01*
X171336882Y-117048878D01*
X171336813Y-117049049D01*
X171152563Y-117496202D01*
X171146242Y-117502546D01*
X171146202Y-117502563D01*
X170699304Y-117686708D01*
X170690350Y-117686691D01*
X170684029Y-117680347D01*
X170683865Y-117679926D01*
X170501218Y-117182880D01*
X170500500Y-117178844D01*
X170500500Y-117150924D01*
X170501107Y-117147205D01*
X170502773Y-117142235D01*
X170500512Y-117093324D01*
X170500500Y-117092784D01*
X170500500Y-117072158D01*
X170499364Y-117066085D01*
X170499177Y-117064474D01*
X170497585Y-117030008D01*
X170489523Y-117011749D01*
X170488726Y-117009176D01*
X170485061Y-116989567D01*
X170466898Y-116960232D01*
X170466143Y-116958799D01*
X170452206Y-116927235D01*
X170452205Y-116927234D01*
X170452204Y-116927232D01*
X170438098Y-116913127D01*
X170436423Y-116911013D01*
X170425919Y-116894048D01*
X170398382Y-116873253D01*
X170397160Y-116872189D01*
X170390212Y-116865241D01*
X170386785Y-116856968D01*
X170390211Y-116848696D01*
X170517585Y-116721322D01*
X170525857Y-116717896D01*
X170530143Y-116718709D01*
G37*
%TD.AperFunction*%
%TD*%
%TA.AperFunction,Conductor*%
%TO.N,Net-(J11-RX2+)*%
G36*
X172249264Y-116756218D02*
G01*
X172800815Y-116940821D01*
X172965264Y-116995862D01*
X173079466Y-117034085D01*
X173086224Y-117039960D01*
X173086848Y-117048893D01*
X173086571Y-117049637D01*
X172902563Y-117496202D01*
X172896242Y-117502546D01*
X172896202Y-117502563D01*
X172448772Y-117686927D01*
X172439818Y-117686910D01*
X172433541Y-117680671D01*
X172251426Y-117250617D01*
X172250500Y-117246055D01*
X172250500Y-117219553D01*
X172251107Y-117215834D01*
X172252773Y-117210864D01*
X172250512Y-117161953D01*
X172250500Y-117161413D01*
X172250500Y-117140787D01*
X172249364Y-117134714D01*
X172249177Y-117133103D01*
X172247585Y-117098637D01*
X172239522Y-117080375D01*
X172238727Y-117077810D01*
X172235061Y-117058196D01*
X172216899Y-117028863D01*
X172216144Y-117027430D01*
X172202206Y-116995863D01*
X172202205Y-116995862D01*
X172202204Y-116995860D01*
X172188096Y-116981753D01*
X172186421Y-116979639D01*
X172175919Y-116962677D01*
X172148386Y-116941885D01*
X172147164Y-116940821D01*
X172109603Y-116903260D01*
X172106176Y-116894987D01*
X172109601Y-116886717D01*
X172237279Y-116759039D01*
X172245551Y-116755613D01*
X172249264Y-116756218D01*
G37*
%TD.AperFunction*%
%TD*%
%TA.AperFunction,Conductor*%
%TO.N,Net-(J11-RX2-)*%
G36*
X171788262Y-118475137D02*
G01*
X171791755Y-118477543D01*
X171922456Y-118608244D01*
X171925883Y-118616517D01*
X171925114Y-118620688D01*
X171616222Y-119430119D01*
X171610071Y-119436627D01*
X171601120Y-119436879D01*
X171600849Y-119436772D01*
X171153796Y-119252562D01*
X171147453Y-119246242D01*
X170963233Y-118799162D01*
X170963250Y-118790211D01*
X170969594Y-118783890D01*
X170969841Y-118783792D01*
X171779314Y-118474885D01*
X171788262Y-118475137D01*
G37*
%TD.AperFunction*%
%TD*%
%TA.AperFunction,Conductor*%
%TO.N,Net-(J22-Pin_1)*%
G36*
X164554484Y-115250873D02*
G01*
X164680647Y-115303587D01*
X164816851Y-115360496D01*
X164823163Y-115366848D01*
X164823330Y-115375305D01*
X164704348Y-115701160D01*
X164652807Y-115842313D01*
X164646751Y-115848909D01*
X164641817Y-115850000D01*
X164458183Y-115850000D01*
X164449910Y-115846573D01*
X164447193Y-115842313D01*
X164403485Y-115722612D01*
X164403250Y-115715308D01*
X164407408Y-115701146D01*
X164407980Y-115699609D01*
X164422665Y-115667457D01*
X164427693Y-115632480D01*
X164428048Y-115630853D01*
X164438000Y-115596961D01*
X164438000Y-115303587D01*
X164441427Y-115295314D01*
X164445184Y-115292794D01*
X164545490Y-115250883D01*
X164554443Y-115250857D01*
X164554484Y-115250873D01*
G37*
%TD.AperFunction*%
%TD*%
%TA.AperFunction,Conductor*%
%TO.N,Net-(J22-Pin_1)*%
G36*
X164646573Y-116619112D02*
G01*
X164650000Y-116627385D01*
X164650000Y-116740348D01*
X164649555Y-116742733D01*
X164649699Y-116742760D01*
X164649500Y-116743825D01*
X164649500Y-116763780D01*
X164649189Y-116766459D01*
X164644621Y-116785882D01*
X164649388Y-116820052D01*
X164649500Y-116821669D01*
X164649500Y-117438324D01*
X164646073Y-117446597D01*
X164637823Y-117450024D01*
X164154868Y-117450990D01*
X164146590Y-117447581D01*
X163806048Y-117106075D01*
X163802633Y-117097797D01*
X163806072Y-117089529D01*
X163807393Y-117088394D01*
X164446907Y-116617959D01*
X164453840Y-116615685D01*
X164638300Y-116615685D01*
X164646573Y-116619112D01*
G37*
%TD.AperFunction*%
%TD*%
%TA.AperFunction,Conductor*%
%TO.N,Net-(J22-Pin_1)*%
G36*
X164651167Y-114797677D02*
G01*
X164653276Y-114800555D01*
X164821298Y-115123907D01*
X164822072Y-115132829D01*
X164816311Y-115139684D01*
X164815427Y-115140098D01*
X164554511Y-115249115D01*
X164545556Y-115249142D01*
X164545489Y-115249115D01*
X164445189Y-115207207D01*
X164438877Y-115200855D01*
X164438000Y-115196411D01*
X164438000Y-114820201D01*
X164439317Y-114814808D01*
X164446724Y-114800555D01*
X164453580Y-114794794D01*
X164457106Y-114794250D01*
X164642894Y-114794250D01*
X164651167Y-114797677D01*
G37*
%TD.AperFunction*%
%TD*%
M02*
