%TF.GenerationSoftware,KiCad,Pcbnew,7.0.11*%
%TF.CreationDate,2025-03-06T21:23:06+09:00*%
%TF.ProjectId,USBC_Board,55534243-5f42-46f6-9172-642e6b696361,rev?*%
%TF.SameCoordinates,Original*%
%TF.FileFunction,Drillmap*%
%TF.FilePolarity,Positive*%
%FSLAX45Y45*%
G04 Gerber Fmt 4.5, Leading zero omitted, Abs format (unit mm)*
G04 Created by KiCad (PCBNEW 7.0.11) date 2025-03-06 21:23:06*
%MOMM*%
%LPD*%
G01*
G04 APERTURE LIST*
%ADD10C,0.050000*%
%ADD11C,0.200000*%
G04 APERTURE END LIST*
D10*
X17313750Y-11552500D02*
X17425000Y-11552500D01*
X17425000Y-12050000D02*
X17425000Y-11552500D01*
X16456250Y-10952500D02*
G75*
G03*
X16436250Y-10972500I0J-20000D01*
G01*
X16436250Y-11287500D02*
X16393750Y-11287500D01*
X16436250Y-10972500D02*
X16436250Y-11207500D01*
X16300000Y-11552500D02*
X16300000Y-12050000D01*
X17271250Y-11362500D02*
X17271250Y-10972500D01*
X16393750Y-11287500D02*
X16393750Y-11552500D01*
X17313750Y-11552500D02*
X17313750Y-11382500D01*
X16436250Y-11287500D02*
G75*
G03*
X16436250Y-11207500I0J40000D01*
G01*
X16300000Y-12050000D02*
X17425000Y-12050000D01*
X17271250Y-10972500D02*
G75*
G03*
X17251250Y-10952500I-20000J0D01*
G01*
X17271250Y-11362500D02*
G75*
G03*
X17291250Y-11382500I20000J0D01*
G01*
X17313750Y-11382500D02*
X17291250Y-11382500D01*
X17251250Y-10952500D02*
X16456250Y-10952500D01*
X16393750Y-11552500D02*
X16300000Y-11552500D01*
D11*
X16558277Y-12363984D02*
X16558277Y-12163984D01*
X16558277Y-12163984D02*
X16605896Y-12163984D01*
X16605896Y-12163984D02*
X16634467Y-12173508D01*
X16634467Y-12173508D02*
X16653515Y-12192555D01*
X16653515Y-12192555D02*
X16663039Y-12211603D01*
X16663039Y-12211603D02*
X16672562Y-12249698D01*
X16672562Y-12249698D02*
X16672562Y-12278269D01*
X16672562Y-12278269D02*
X16663039Y-12316365D01*
X16663039Y-12316365D02*
X16653515Y-12335412D01*
X16653515Y-12335412D02*
X16634467Y-12354460D01*
X16634467Y-12354460D02*
X16605896Y-12363984D01*
X16605896Y-12363984D02*
X16558277Y-12363984D01*
X16758277Y-12363984D02*
X16758277Y-12230650D01*
X16758277Y-12268746D02*
X16767801Y-12249698D01*
X16767801Y-12249698D02*
X16777324Y-12240174D01*
X16777324Y-12240174D02*
X16796372Y-12230650D01*
X16796372Y-12230650D02*
X16815420Y-12230650D01*
X16882086Y-12363984D02*
X16882086Y-12230650D01*
X16882086Y-12163984D02*
X16872563Y-12173508D01*
X16872563Y-12173508D02*
X16882086Y-12183031D01*
X16882086Y-12183031D02*
X16891610Y-12173508D01*
X16891610Y-12173508D02*
X16882086Y-12163984D01*
X16882086Y-12163984D02*
X16882086Y-12183031D01*
X17005896Y-12363984D02*
X16986848Y-12354460D01*
X16986848Y-12354460D02*
X16977324Y-12335412D01*
X16977324Y-12335412D02*
X16977324Y-12163984D01*
X17110658Y-12363984D02*
X17091610Y-12354460D01*
X17091610Y-12354460D02*
X17082086Y-12335412D01*
X17082086Y-12335412D02*
X17082086Y-12163984D01*
X17339229Y-12363984D02*
X17339229Y-12163984D01*
X17339229Y-12163984D02*
X17405896Y-12306841D01*
X17405896Y-12306841D02*
X17472563Y-12163984D01*
X17472563Y-12163984D02*
X17472563Y-12363984D01*
X17653515Y-12363984D02*
X17653515Y-12259222D01*
X17653515Y-12259222D02*
X17643991Y-12240174D01*
X17643991Y-12240174D02*
X17624944Y-12230650D01*
X17624944Y-12230650D02*
X17586848Y-12230650D01*
X17586848Y-12230650D02*
X17567801Y-12240174D01*
X17653515Y-12354460D02*
X17634467Y-12363984D01*
X17634467Y-12363984D02*
X17586848Y-12363984D01*
X17586848Y-12363984D02*
X17567801Y-12354460D01*
X17567801Y-12354460D02*
X17558277Y-12335412D01*
X17558277Y-12335412D02*
X17558277Y-12316365D01*
X17558277Y-12316365D02*
X17567801Y-12297317D01*
X17567801Y-12297317D02*
X17586848Y-12287793D01*
X17586848Y-12287793D02*
X17634467Y-12287793D01*
X17634467Y-12287793D02*
X17653515Y-12278269D01*
X17748753Y-12230650D02*
X17748753Y-12430650D01*
X17748753Y-12240174D02*
X17767801Y-12230650D01*
X17767801Y-12230650D02*
X17805896Y-12230650D01*
X17805896Y-12230650D02*
X17824944Y-12240174D01*
X17824944Y-12240174D02*
X17834467Y-12249698D01*
X17834467Y-12249698D02*
X17843991Y-12268746D01*
X17843991Y-12268746D02*
X17843991Y-12325888D01*
X17843991Y-12325888D02*
X17834467Y-12344936D01*
X17834467Y-12344936D02*
X17824944Y-12354460D01*
X17824944Y-12354460D02*
X17805896Y-12363984D01*
X17805896Y-12363984D02*
X17767801Y-12363984D01*
X17767801Y-12363984D02*
X17748753Y-12354460D01*
X17929705Y-12344936D02*
X17939229Y-12354460D01*
X17939229Y-12354460D02*
X17929705Y-12363984D01*
X17929705Y-12363984D02*
X17920182Y-12354460D01*
X17920182Y-12354460D02*
X17929705Y-12344936D01*
X17929705Y-12344936D02*
X17929705Y-12363984D01*
X17929705Y-12240174D02*
X17939229Y-12249698D01*
X17939229Y-12249698D02*
X17929705Y-12259222D01*
X17929705Y-12259222D02*
X17920182Y-12249698D01*
X17920182Y-12249698D02*
X17929705Y-12240174D01*
X17929705Y-12240174D02*
X17929705Y-12259222D01*
M02*
