%TF.GenerationSoftware,KiCad,Pcbnew,7.0.11*%
%TF.CreationDate,2025-01-11T16:00:57+09:00*%
%TF.ProjectId,Kicker,4b69636b-6572-42e6-9b69-6361645f7063,rev?*%
%TF.SameCoordinates,Original*%
%TF.FileFunction,Profile,NP*%
%FSLAX46Y46*%
G04 Gerber Fmt 4.6, Leading zero omitted, Abs format (unit mm)*
G04 Created by KiCad (PCBNEW 7.0.11) date 2025-01-11 16:00:57*
%MOMM*%
%LPD*%
G01*
G04 APERTURE LIST*
%TA.AperFunction,Profile*%
%ADD10C,0.200000*%
%TD*%
G04 APERTURE END LIST*
D10*
X146100000Y-81927416D02*
X146100000Y-112300000D01*
X146685778Y-80513195D02*
G75*
G03*
X146100000Y-81927416I1414222J-1414205D01*
G01*
X183514214Y-80513203D02*
X180685787Y-77684776D01*
X149514213Y-77684776D02*
X146685786Y-80513203D01*
X146100000Y-112300000D02*
G75*
G03*
X148100000Y-114300000I2000000J0D01*
G01*
X183200000Y-112300000D02*
G75*
G03*
X181000000Y-112300000I-1100000J0D01*
G01*
X181000000Y-112300000D02*
G75*
G03*
X183200000Y-112300000I1100000J0D01*
G01*
X180685803Y-77684760D02*
G75*
G03*
X179271573Y-77098989I-1414203J-1414240D01*
G01*
X148100000Y-114300000D02*
X182100000Y-114300000D01*
X182100000Y-114300000D02*
G75*
G03*
X184100000Y-112300000I0J2000000D01*
G01*
X150928427Y-77099012D02*
G75*
G03*
X149514213Y-77684776I-27J-1999988D01*
G01*
X184100000Y-112300000D02*
X184100000Y-81927416D01*
X149200000Y-112300000D02*
G75*
G03*
X147000000Y-112300000I-1100000J0D01*
G01*
X147000000Y-112300000D02*
G75*
G03*
X149200000Y-112300000I1100000J0D01*
G01*
X179271573Y-77098989D02*
X150928427Y-77098989D01*
X184099988Y-81927416D02*
G75*
G03*
X183514214Y-80513203I-1999988J16D01*
G01*
X149200000Y-81927416D02*
G75*
G03*
X147000000Y-81927416I-1100000J0D01*
G01*
X147000000Y-81927416D02*
G75*
G03*
X149200000Y-81927416I1100000J0D01*
G01*
X183200000Y-81927416D02*
G75*
G03*
X181000000Y-81927416I-1100000J0D01*
G01*
X181000000Y-81927416D02*
G75*
G03*
X183200000Y-81927416I1100000J0D01*
G01*
M02*
