%TF.GenerationSoftware,KiCad,Pcbnew,7.0.11*%
%TF.CreationDate,2025-01-11T16:00:57+09:00*%
%TF.ProjectId,Kicker,4b69636b-6572-42e6-9b69-6361645f7063,rev?*%
%TF.SameCoordinates,Original*%
%TF.FileFunction,Legend,Top*%
%TF.FilePolarity,Positive*%
%FSLAX46Y46*%
G04 Gerber Fmt 4.6, Leading zero omitted, Abs format (unit mm)*
G04 Created by KiCad (PCBNEW 7.0.11) date 2025-01-11 16:00:57*
%MOMM*%
%LPD*%
G01*
G04 APERTURE LIST*
%ADD10C,0.120000*%
G04 APERTURE END LIST*
D10*
%TO.C,R9*%
X151394000Y-97739000D02*
X151394000Y-98359000D01*
X152314000Y-96819000D02*
G75*
G03*
X150474000Y-96819000I-920000J0D01*
G01*
X150474000Y-96819000D02*
G75*
G03*
X152314000Y-96819000I920000J0D01*
G01*
%TO.C,R6*%
X151384000Y-92568000D02*
X151384000Y-93188000D01*
X152304000Y-91648000D02*
G75*
G03*
X150464000Y-91648000I-920000J0D01*
G01*
X150464000Y-91648000D02*
G75*
G03*
X152304000Y-91648000I920000J0D01*
G01*
%TO.C,R8*%
X153426000Y-97739000D02*
X153426000Y-98359000D01*
X154346000Y-96819000D02*
G75*
G03*
X152506000Y-96819000I-920000J0D01*
G01*
X152506000Y-96819000D02*
G75*
G03*
X154346000Y-96819000I920000J0D01*
G01*
%TO.C,R5*%
X153416000Y-92568000D02*
X153416000Y-93188000D01*
X154336000Y-91648000D02*
G75*
G03*
X152496000Y-91648000I-920000J0D01*
G01*
X152496000Y-91648000D02*
G75*
G03*
X154336000Y-91648000I920000J0D01*
G01*
%TO.C,R7*%
X165618000Y-98643000D02*
X165618000Y-98023000D01*
X166538000Y-99563000D02*
G75*
G03*
X164698000Y-99563000I-920000J0D01*
G01*
X164698000Y-99563000D02*
G75*
G03*
X166538000Y-99563000I920000J0D01*
G01*
%TO.C,R4*%
X165608000Y-93422000D02*
X165608000Y-92802000D01*
X166528000Y-94342000D02*
G75*
G03*
X164688000Y-94342000I-920000J0D01*
G01*
X164688000Y-94342000D02*
G75*
G03*
X166528000Y-94342000I920000J0D01*
G01*
%TO.C,Q3*%
X153174000Y-106620000D02*
X157474000Y-106620000D01*
X157474000Y-101420000D02*
X153174000Y-101420000D01*
X152594000Y-101496703D02*
X152354000Y-101166703D01*
X152834000Y-101166703D01*
X152594000Y-101496703D01*
G36*
X152594000Y-101496703D02*
G01*
X152354000Y-101166703D01*
X152834000Y-101166703D01*
X152594000Y-101496703D01*
G37*
%TO.C,Q2*%
X153174000Y-113466000D02*
X157474000Y-113466000D01*
X157474000Y-108266000D02*
X153174000Y-108266000D01*
X152594000Y-108342703D02*
X152354000Y-108012703D01*
X152834000Y-108012703D01*
X152594000Y-108342703D01*
G36*
X152594000Y-108342703D02*
G01*
X152354000Y-108012703D01*
X152834000Y-108012703D01*
X152594000Y-108342703D01*
G37*
%TO.C,R2*%
X179832000Y-96728000D02*
X179832000Y-97348000D01*
X180752000Y-95808000D02*
G75*
G03*
X178912000Y-95808000I-920000J0D01*
G01*
X178912000Y-95808000D02*
G75*
G03*
X180752000Y-95808000I920000J0D01*
G01*
%TO.C,R1*%
X167640000Y-96728000D02*
X167640000Y-97348000D01*
X168560000Y-95808000D02*
G75*
G03*
X166720000Y-95808000I-920000J0D01*
G01*
X166720000Y-95808000D02*
G75*
G03*
X168560000Y-95808000I920000J0D01*
G01*
%TO.C,Q1*%
X176968000Y-93891500D02*
X176488000Y-93891500D01*
X176728000Y-93561500D01*
X176968000Y-93891500D01*
G36*
X176968000Y-93891500D02*
G01*
X176488000Y-93891500D01*
X176728000Y-93561500D01*
X176968000Y-93891500D01*
G37*
X168888000Y-86971500D02*
X175308000Y-86971500D01*
X168888000Y-93871500D02*
X175308000Y-93871500D01*
X175308000Y-86971500D02*
X175308000Y-87241500D01*
X175308000Y-93871500D02*
X175308000Y-93601500D01*
%TO.C,J3*%
X151085000Y-79288000D02*
X151785000Y-79288000D01*
X151085000Y-81508000D02*
X162605000Y-81508000D01*
X151785000Y-77238000D02*
X151785000Y-79288000D01*
X151785000Y-77238000D02*
X152315000Y-77238000D01*
X152315000Y-71238000D02*
X152315000Y-77238000D01*
X152315000Y-71238000D02*
X161345000Y-71238000D01*
X161375000Y-71238000D02*
X161375000Y-77238000D01*
X161375000Y-77238000D02*
X161905000Y-77238000D01*
X161905000Y-77238000D02*
X161905000Y-79288000D01*
X161905000Y-79288000D02*
X162605000Y-79288000D01*
X151195000Y-79288001D02*
G75*
G03*
X151023271Y-81494634I1J-1109999D01*
G01*
X162495000Y-81508000D02*
G75*
G03*
X162495000Y-79288000I0J1110000D01*
G01*
%TO.C,J2*%
X183650000Y-102247416D02*
X183650000Y-84407416D01*
X183650000Y-102247416D02*
X180990000Y-102247416D01*
X183650000Y-84407416D02*
X180990000Y-84407416D01*
X182320000Y-104847416D02*
X180990000Y-104847416D01*
X180990000Y-104847416D02*
X180990000Y-103517416D01*
X180990000Y-102247416D02*
X180990000Y-84407416D01*
%TO.C,C1*%
X180042000Y-105628000D02*
X178792000Y-105628000D01*
X179752000Y-105918000D02*
X173782000Y-105918000D01*
X173782000Y-105918000D02*
X173782000Y-113538000D01*
X179742000Y-105928000D02*
X178992000Y-105928000D01*
X178992000Y-105928000D02*
X178992000Y-107728000D01*
X177492000Y-105928000D02*
X177492000Y-106678000D01*
X177492000Y-106678000D02*
X174542000Y-106678000D01*
X174542000Y-106678000D02*
X174542000Y-109728000D01*
X180042000Y-106878000D02*
X180042000Y-105628000D01*
X179742000Y-107728000D02*
X179742000Y-105928000D01*
X178992000Y-107728000D02*
X179742000Y-107728000D01*
X179742000Y-109228000D02*
X178992000Y-109228000D01*
X178992000Y-109228000D02*
X178992000Y-110228000D01*
X179742000Y-110228000D02*
X179742000Y-109228000D01*
X178992000Y-110228000D02*
X179742000Y-110228000D01*
X179742000Y-111728000D02*
X178992000Y-111728000D01*
X178992000Y-111728000D02*
X178992000Y-113528000D01*
X177492000Y-112778000D02*
X174542000Y-112778000D01*
X174542000Y-112778000D02*
X174542000Y-109728000D01*
X179742000Y-113528000D02*
X179742000Y-111728000D01*
X178992000Y-113528000D02*
X179742000Y-113528000D01*
X177492000Y-113528000D02*
X177492000Y-112778000D01*
X179752000Y-113538000D02*
X179752000Y-105918000D01*
X173782000Y-113538000D02*
X179752000Y-113538000D01*
%TO.C,J6*%
X166851000Y-105628000D02*
X165601000Y-105628000D01*
X166561000Y-105918000D02*
X160591000Y-105918000D01*
X160591000Y-105918000D02*
X160591000Y-113538000D01*
X166551000Y-105928000D02*
X165801000Y-105928000D01*
X165801000Y-105928000D02*
X165801000Y-107728000D01*
X164301000Y-105928000D02*
X164301000Y-106678000D01*
X164301000Y-106678000D02*
X161351000Y-106678000D01*
X161351000Y-106678000D02*
X161351000Y-109728000D01*
X166851000Y-106878000D02*
X166851000Y-105628000D01*
X166551000Y-107728000D02*
X166551000Y-105928000D01*
X165801000Y-107728000D02*
X166551000Y-107728000D01*
X166551000Y-109228000D02*
X165801000Y-109228000D01*
X165801000Y-109228000D02*
X165801000Y-110228000D01*
X166551000Y-110228000D02*
X166551000Y-109228000D01*
X165801000Y-110228000D02*
X166551000Y-110228000D01*
X166551000Y-111728000D02*
X165801000Y-111728000D01*
X165801000Y-111728000D02*
X165801000Y-113528000D01*
X164301000Y-112778000D02*
X161351000Y-112778000D01*
X161351000Y-112778000D02*
X161351000Y-109728000D01*
X166551000Y-113528000D02*
X166551000Y-111728000D01*
X165801000Y-113528000D02*
X166551000Y-113528000D01*
X164301000Y-113528000D02*
X164301000Y-112778000D01*
X166561000Y-113538000D02*
X166561000Y-105918000D01*
X160591000Y-113538000D02*
X166561000Y-113538000D01*
%TO.C,U1*%
X171096000Y-94423000D02*
X171096000Y-99623000D01*
X171096000Y-99623000D02*
X176396000Y-99623000D01*
X172746000Y-94423000D02*
X171096000Y-94423000D01*
X176396000Y-94423000D02*
X174746000Y-94423000D01*
X176396000Y-99623000D02*
X176396000Y-94423000D01*
X172746000Y-94423000D02*
G75*
G03*
X174746000Y-94423000I1000000J0D01*
G01*
%TO.C,R3*%
X178658000Y-88504000D02*
X178658000Y-92344000D01*
X180498000Y-88504000D02*
X180498000Y-92344000D01*
%TO.C,J4*%
X164338000Y-85152000D02*
X164338000Y-83882000D01*
X165608000Y-85152000D02*
X164338000Y-85152000D01*
X167768000Y-82839071D02*
X167768000Y-82384929D01*
X168528000Y-82839071D02*
X168528000Y-82384929D01*
X170308000Y-82839071D02*
X170308000Y-82384929D01*
X171068000Y-82839071D02*
X171068000Y-82384929D01*
X172848000Y-82839071D02*
X172848000Y-82384929D01*
X173608000Y-82839071D02*
X173608000Y-82384929D01*
X175388000Y-82839071D02*
X175388000Y-82384929D01*
X176148000Y-82839071D02*
X176148000Y-82384929D01*
X177928000Y-82839071D02*
X177928000Y-82384929D01*
X178688000Y-82839071D02*
X178688000Y-82384929D01*
X165228000Y-82772000D02*
X165228000Y-82384929D01*
X165988000Y-82772000D02*
X165988000Y-82384929D01*
X165228000Y-80299071D02*
X165228000Y-79902000D01*
X165988000Y-80299071D02*
X165988000Y-79902000D01*
X167768000Y-80299071D02*
X167768000Y-79902000D01*
X168528000Y-80299071D02*
X168528000Y-79902000D01*
X170308000Y-80299071D02*
X170308000Y-79902000D01*
X171068000Y-80299071D02*
X171068000Y-79902000D01*
X172848000Y-80299071D02*
X172848000Y-79902000D01*
X173608000Y-80299071D02*
X173608000Y-79902000D01*
X175388000Y-80299071D02*
X175388000Y-79902000D01*
X176148000Y-80299071D02*
X176148000Y-79902000D01*
X177928000Y-80299071D02*
X177928000Y-79902000D01*
X178688000Y-80299071D02*
X178688000Y-79902000D01*
X164278000Y-79902000D02*
X179638000Y-79902000D01*
X166878000Y-79902000D02*
X166878000Y-77242000D01*
X169418000Y-79902000D02*
X169418000Y-77242000D01*
X171958000Y-79902000D02*
X171958000Y-77242000D01*
X174498000Y-79902000D02*
X174498000Y-77242000D01*
X177038000Y-79902000D02*
X177038000Y-77242000D01*
X179638000Y-79902000D02*
X179638000Y-77242000D01*
X164278000Y-77242000D02*
X164278000Y-79902000D01*
X165228000Y-77242000D02*
X165228000Y-71242000D01*
X165288000Y-77242000D02*
X165288000Y-71242000D01*
X165408000Y-77242000D02*
X165408000Y-71242000D01*
X165528000Y-77242000D02*
X165528000Y-71242000D01*
X165648000Y-77242000D02*
X165648000Y-71242000D01*
X165768000Y-77242000D02*
X165768000Y-71242000D01*
X165888000Y-77242000D02*
X165888000Y-71242000D01*
X167768000Y-77242000D02*
X167768000Y-71242000D01*
X170308000Y-77242000D02*
X170308000Y-71242000D01*
X172848000Y-77242000D02*
X172848000Y-71242000D01*
X175388000Y-77242000D02*
X175388000Y-71242000D01*
X177928000Y-77242000D02*
X177928000Y-71242000D01*
X179638000Y-77242000D02*
X164278000Y-77242000D01*
X165228000Y-71242000D02*
X165988000Y-71242000D01*
X165988000Y-71242000D02*
X165988000Y-77242000D01*
X167768000Y-71242000D02*
X168528000Y-71242000D01*
X168528000Y-71242000D02*
X168528000Y-77242000D01*
X170308000Y-71242000D02*
X171068000Y-71242000D01*
X171068000Y-71242000D02*
X171068000Y-77242000D01*
X172848000Y-71242000D02*
X173608000Y-71242000D01*
X173608000Y-71242000D02*
X173608000Y-77242000D01*
X175388000Y-71242000D02*
X176148000Y-71242000D01*
X176148000Y-71242000D02*
X176148000Y-77242000D01*
X177928000Y-71242000D02*
X178688000Y-71242000D01*
X178688000Y-71242000D02*
X178688000Y-77242000D01*
%TO.C,J1*%
X149208000Y-102247416D02*
X149208000Y-84407416D01*
X149208000Y-102247416D02*
X146548000Y-102247416D01*
X149208000Y-84407416D02*
X146548000Y-84407416D01*
X147878000Y-104847416D02*
X146548000Y-104847416D01*
X146548000Y-104847416D02*
X146548000Y-103517416D01*
X146548000Y-102247416D02*
X146548000Y-84407416D01*
%TO.C,U3*%
X162172000Y-100893000D02*
X162172000Y-95693000D01*
X162172000Y-95693000D02*
X156872000Y-95693000D01*
X160522000Y-100893000D02*
X162172000Y-100893000D01*
X156872000Y-100893000D02*
X158522000Y-100893000D01*
X156872000Y-95693000D02*
X156872000Y-100893000D01*
X160522000Y-100893000D02*
G75*
G03*
X158522000Y-100893000I-1000000J0D01*
G01*
%TO.C,J5*%
X173455000Y-105628000D02*
X172205000Y-105628000D01*
X173165000Y-105918000D02*
X167195000Y-105918000D01*
X167195000Y-105918000D02*
X167195000Y-113538000D01*
X173155000Y-105928000D02*
X172405000Y-105928000D01*
X172405000Y-105928000D02*
X172405000Y-107728000D01*
X170905000Y-105928000D02*
X170905000Y-106678000D01*
X170905000Y-106678000D02*
X167955000Y-106678000D01*
X167955000Y-106678000D02*
X167955000Y-109728000D01*
X173455000Y-106878000D02*
X173455000Y-105628000D01*
X173155000Y-107728000D02*
X173155000Y-105928000D01*
X172405000Y-107728000D02*
X173155000Y-107728000D01*
X173155000Y-109228000D02*
X172405000Y-109228000D01*
X172405000Y-109228000D02*
X172405000Y-110228000D01*
X173155000Y-110228000D02*
X173155000Y-109228000D01*
X172405000Y-110228000D02*
X173155000Y-110228000D01*
X173155000Y-111728000D02*
X172405000Y-111728000D01*
X172405000Y-111728000D02*
X172405000Y-113528000D01*
X170905000Y-112778000D02*
X167955000Y-112778000D01*
X167955000Y-112778000D02*
X167955000Y-109728000D01*
X173155000Y-113528000D02*
X173155000Y-111728000D01*
X172405000Y-113528000D02*
X173155000Y-113528000D01*
X170905000Y-113528000D02*
X170905000Y-112778000D01*
X173165000Y-113538000D02*
X173165000Y-105918000D01*
X167195000Y-113538000D02*
X173165000Y-113538000D01*
%TO.C,U2*%
X162162000Y-95564000D02*
X162162000Y-90364000D01*
X162162000Y-90364000D02*
X156862000Y-90364000D01*
X160512000Y-95564000D02*
X162162000Y-95564000D01*
X156862000Y-95564000D02*
X158512000Y-95564000D01*
X156862000Y-90364000D02*
X156862000Y-95564000D01*
X160512000Y-95564000D02*
G75*
G03*
X158512000Y-95564000I-1000000J0D01*
G01*
%TD*%
M02*
