%TF.GenerationSoftware,KiCad,Pcbnew,7.0.11*%
%TF.CreationDate,2025-01-11T05:46:01+09:00*%
%TF.ProjectId,VoltageBooster,566f6c74-6167-4654-926f-6f737465722e,rev?*%
%TF.SameCoordinates,Original*%
%TF.FileFunction,Copper,L1,Top*%
%TF.FilePolarity,Positive*%
%FSLAX46Y46*%
G04 Gerber Fmt 4.6, Leading zero omitted, Abs format (unit mm)*
G04 Created by KiCad (PCBNEW 7.0.11) date 2025-01-11 05:46:01*
%MOMM*%
%LPD*%
G01*
G04 APERTURE LIST*
G04 Aperture macros list*
%AMRoundRect*
0 Rectangle with rounded corners*
0 $1 Rounding radius*
0 $2 $3 $4 $5 $6 $7 $8 $9 X,Y pos of 4 corners*
0 Add a 4 corners polygon primitive as box body*
4,1,4,$2,$3,$4,$5,$6,$7,$8,$9,$2,$3,0*
0 Add four circle primitives for the rounded corners*
1,1,$1+$1,$2,$3*
1,1,$1+$1,$4,$5*
1,1,$1+$1,$6,$7*
1,1,$1+$1,$8,$9*
0 Add four rect primitives between the rounded corners*
20,1,$1+$1,$2,$3,$4,$5,0*
20,1,$1+$1,$4,$5,$6,$7,0*
20,1,$1+$1,$6,$7,$8,$9,0*
20,1,$1+$1,$8,$9,$2,$3,0*%
G04 Aperture macros list end*
%TA.AperFunction,SMDPad,CuDef*%
%ADD10R,2.000000X2.000000*%
%TD*%
%TA.AperFunction,SMDPad,CuDef*%
%ADD11RoundRect,0.162500X0.437500X0.162500X-0.437500X0.162500X-0.437500X-0.162500X0.437500X-0.162500X0*%
%TD*%
%TA.AperFunction,SMDPad,CuDef*%
%ADD12R,4.500000X4.700000*%
%TD*%
%TA.AperFunction,SMDPad,CuDef*%
%ADD13RoundRect,0.175000X0.325000X0.175000X-0.325000X0.175000X-0.325000X-0.175000X0.325000X-0.175000X0*%
%TD*%
%TA.AperFunction,SMDPad,CuDef*%
%ADD14RoundRect,0.250000X-0.300000X2.050000X-0.300000X-2.050000X0.300000X-2.050000X0.300000X2.050000X0*%
%TD*%
%TA.AperFunction,SMDPad,CuDef*%
%ADD15RoundRect,0.250000X-2.375000X2.025000X-2.375000X-2.025000X2.375000X-2.025000X2.375000X2.025000X0*%
%TD*%
%TA.AperFunction,SMDPad,CuDef*%
%ADD16RoundRect,0.250002X-5.149998X4.449998X-5.149998X-4.449998X5.149998X-4.449998X5.149998X4.449998X0*%
%TD*%
%TA.AperFunction,SMDPad,CuDef*%
%ADD17RoundRect,0.250000X-0.550000X1.500000X-0.550000X-1.500000X0.550000X-1.500000X0.550000X1.500000X0*%
%TD*%
%TA.AperFunction,SMDPad,CuDef*%
%ADD18R,2.900000X5.400000*%
%TD*%
%TA.AperFunction,ComponentPad*%
%ADD19C,1.400000*%
%TD*%
%TA.AperFunction,ComponentPad*%
%ADD20O,1.400000X1.400000*%
%TD*%
%TA.AperFunction,SMDPad,CuDef*%
%ADD21RoundRect,0.250000X1.000000X-1.950000X1.000000X1.950000X-1.000000X1.950000X-1.000000X-1.950000X0*%
%TD*%
%TA.AperFunction,ComponentPad*%
%ADD22R,1.700000X1.700000*%
%TD*%
%TA.AperFunction,ComponentPad*%
%ADD23O,1.700000X1.700000*%
%TD*%
%TA.AperFunction,ComponentPad*%
%ADD24C,1.600000*%
%TD*%
%TA.AperFunction,ViaPad*%
%ADD25C,0.800000*%
%TD*%
%TA.AperFunction,Conductor*%
%ADD26C,1.000000*%
%TD*%
%TA.AperFunction,Conductor*%
%ADD27C,3.000000*%
%TD*%
%TA.AperFunction,Conductor*%
%ADD28C,2.000000*%
%TD*%
G04 APERTURE END LIST*
D10*
%TO.P,REF\u002A\u002A,1*%
%TO.N,+48V*%
X148082000Y-114554000D03*
%TD*%
%TO.P,REF\u002A\u002A,1*%
%TO.N,+12V*%
X144018000Y-114554000D03*
%TD*%
%TO.P,REF\u002A\u002A,1*%
%TO.N,GND*%
X139954000Y-114554000D03*
%TD*%
D11*
%TO.P,D1,2,A*%
%TO.N,Net-(D1-A)*%
X156210000Y-96520000D03*
X156210000Y-95250000D03*
X156210000Y-93980000D03*
X156210000Y-92710000D03*
D12*
%TO.P,D1,1,K*%
%TO.N,+48V*%
X152710000Y-94615000D03*
D13*
X150460000Y-96610000D03*
X150460000Y-95280000D03*
X150460000Y-93950000D03*
X150460000Y-92620000D03*
%TD*%
D14*
%TO.P,VR1,1,GND*%
%TO.N,GND*%
X166214000Y-87370000D03*
%TO.P,VR1,2,EN*%
%TO.N,unconnected-(VR1-EN-Pad2)*%
X164514000Y-87370000D03*
%TO.P,VR1,3,SW*%
%TO.N,Net-(D1-A)*%
X162814000Y-87370000D03*
D15*
X165589000Y-94095000D03*
X160039000Y-94095000D03*
D16*
X162814000Y-96520000D03*
D15*
X165589000Y-98945000D03*
X160039000Y-98945000D03*
D14*
%TO.P,VR1,4,VIN*%
%TO.N,+12V*%
X161114000Y-87370000D03*
%TO.P,VR1,5,FB*%
%TO.N,Net-(VR1-FB)*%
X159414000Y-87370000D03*
%TD*%
D17*
%TO.P,C1,1*%
%TO.N,+12V*%
X139954000Y-104896000D03*
%TO.P,C1,2*%
%TO.N,GND*%
X139954000Y-110496000D03*
%TD*%
D18*
%TO.P,L1,1,1*%
%TO.N,+12V*%
X145418000Y-104902000D03*
%TO.P,L1,2,2*%
%TO.N,Net-(D1-A)*%
X155318000Y-104902000D03*
%TD*%
D19*
%TO.P,R2,1*%
%TO.N,Net-(VR1-FB)*%
X155448000Y-85344000D03*
D20*
%TO.P,R2,2*%
%TO.N,GND*%
X155448000Y-90424000D03*
%TD*%
D21*
%TO.P,C4,1*%
%TO.N,+48V*%
X143510000Y-95132000D03*
%TO.P,C4,2*%
%TO.N,GND*%
X143510000Y-86732000D03*
%TD*%
D22*
%TO.P,J2,1,Pin_1*%
%TO.N,+12V*%
X135128000Y-107950000D03*
D23*
%TO.P,J2,2,Pin_2*%
X135128000Y-105410000D03*
%TO.P,J2,3,Pin_3*%
X135128000Y-102870000D03*
%TO.P,J2,4,Pin_4*%
X135128000Y-100330000D03*
%TO.P,J2,5,Pin_5*%
%TO.N,unconnected-(J2-Pin_5-Pad5)*%
X135128000Y-97790000D03*
%TO.P,J2,6,Pin_6*%
%TO.N,+48V*%
X135128000Y-95250000D03*
%TO.P,J2,7,Pin_7*%
X135128000Y-92710000D03*
%TO.P,J2,8,Pin_8*%
X135128000Y-90170000D03*
%TD*%
D24*
%TO.P,C3,1*%
%TO.N,+48V*%
X150622000Y-90404000D03*
%TO.P,C3,2*%
%TO.N,GND*%
X150622000Y-87904000D03*
%TD*%
D22*
%TO.P,J1,1,Pin_1*%
%TO.N,GND*%
X169570000Y-90170000D03*
D23*
%TO.P,J1,2,Pin_2*%
X169570000Y-92710000D03*
%TO.P,J1,3,Pin_3*%
X169570000Y-95250000D03*
%TO.P,J1,4,Pin_4*%
X169570000Y-97790000D03*
%TO.P,J1,5,Pin_5*%
X169570000Y-100330000D03*
%TO.P,J1,6,Pin_6*%
X169570000Y-102870000D03*
%TO.P,J1,7,Pin_7*%
X169570000Y-105410000D03*
%TO.P,J1,8,Pin_8*%
X169570000Y-107950000D03*
%TD*%
D24*
%TO.P,C2,1*%
%TO.N,+12V*%
X142240000Y-102088000D03*
%TO.P,C2,2*%
%TO.N,GND*%
X142240000Y-99588000D03*
%TD*%
D19*
%TO.P,R1,1*%
%TO.N,+48V*%
X153238000Y-90429000D03*
D20*
%TO.P,R1,2*%
%TO.N,Net-(VR1-FB)*%
X153238000Y-85349000D03*
%TD*%
D25*
%TO.N,GND*%
X147066000Y-112522000D03*
X141986000Y-112522000D03*
X169310000Y-111980000D03*
X170670000Y-110020000D03*
X170760000Y-114310000D03*
X167890000Y-114290000D03*
X167900000Y-109260000D03*
X167770000Y-102190000D03*
X164230000Y-84090000D03*
X164460000Y-82140000D03*
X168630000Y-83710000D03*
X170860000Y-88460000D03*
X167790000Y-88670000D03*
X167560000Y-90700000D03*
X164440000Y-90710000D03*
X157820000Y-87990000D03*
X157260000Y-90440000D03*
X161130000Y-90730000D03*
X155420000Y-87820000D03*
X153210000Y-87810000D03*
X151340000Y-86000000D03*
X143530000Y-83230000D03*
X140890000Y-86760000D03*
X137710000Y-88100000D03*
X137970000Y-82930000D03*
X148990000Y-82210000D03*
X145780000Y-88030000D03*
X145000000Y-99320000D03*
X140180000Y-99430000D03*
X137200000Y-98610000D03*
X145542000Y-109728000D03*
X150114000Y-109590000D03*
X149880000Y-98540000D03*
X151420000Y-104570000D03*
X151560000Y-99780000D03*
X155370000Y-109760000D03*
X150622000Y-114554000D03*
X138040000Y-118030000D03*
X141900000Y-109590000D03*
X138030000Y-109690000D03*
X133940000Y-110310000D03*
%TO.N,+12V*%
X161074000Y-82804000D03*
X162560000Y-82804000D03*
X147828000Y-105410000D03*
X147828000Y-103886000D03*
X147828000Y-102362000D03*
X147828000Y-107188000D03*
X159512000Y-82804000D03*
%TD*%
D26*
%TO.N,+48V*%
X148082000Y-114554000D02*
X148082000Y-113792000D01*
X148082000Y-113792000D02*
X152710000Y-109164000D01*
X152710000Y-109164000D02*
X152710000Y-94615000D01*
%TO.N,+12V*%
X144018000Y-114554000D02*
X144018000Y-113284000D01*
X144018000Y-113284000D02*
X147828000Y-109474000D01*
X147828000Y-109474000D02*
X147828000Y-107188000D01*
X161114000Y-84250000D02*
X161798000Y-83566000D01*
X161798000Y-83566000D02*
X162560000Y-82804000D01*
X159512000Y-82804000D02*
X160274000Y-83566000D01*
X160274000Y-83566000D02*
X161798000Y-83566000D01*
X159512000Y-82804000D02*
X162560000Y-82804000D01*
X161114000Y-87370000D02*
X161114000Y-84250000D01*
X159512000Y-82804000D02*
X161114000Y-84406000D01*
X161114000Y-84406000D02*
X161114000Y-87370000D01*
D27*
X137384000Y-102596000D02*
X147554000Y-102596000D01*
X135128000Y-100340000D02*
X137384000Y-102596000D01*
X147554000Y-102596000D02*
X147686000Y-102728000D01*
X147686000Y-102728000D02*
X147686000Y-107046000D01*
X135128000Y-102870000D02*
X135128000Y-100340000D01*
X147686000Y-107046000D02*
X136032000Y-107046000D01*
X136032000Y-107046000D02*
X135128000Y-107950000D01*
D28*
%TO.N,+48V*%
X135128000Y-95250000D02*
X137758000Y-92620000D01*
X137758000Y-92620000D02*
X150460000Y-92620000D01*
X135128000Y-93980000D02*
X135128000Y-90170000D01*
X135128000Y-93980000D02*
X135763000Y-94615000D01*
X135128000Y-95250000D02*
X135128000Y-93980000D01*
X135763000Y-94615000D02*
X152710000Y-94615000D01*
X136144000Y-91694000D02*
X151638000Y-91694000D01*
X135128000Y-92710000D02*
X136144000Y-91694000D01*
X151638000Y-91694000D02*
X151638000Y-93543000D01*
X151638000Y-93543000D02*
X152710000Y-94615000D01*
X152710000Y-94615000D02*
X153238000Y-94087000D01*
X153238000Y-94087000D02*
X153238000Y-90429000D01*
X135128000Y-90170000D02*
X152979000Y-90170000D01*
X152979000Y-90170000D02*
X153238000Y-90429000D01*
X135128000Y-95250000D02*
X135487138Y-95250000D01*
X135487138Y-95250000D02*
X136757138Y-96520000D01*
X136757138Y-96520000D02*
X150805000Y-96520000D01*
X150805000Y-96520000D02*
X152710000Y-94615000D01*
D26*
X150460000Y-96610000D02*
X150460000Y-90566000D01*
X150460000Y-90566000D02*
X150622000Y-90404000D01*
X153238000Y-90429000D02*
X150647000Y-90429000D01*
X150647000Y-90429000D02*
X150622000Y-90404000D01*
%TO.N,Net-(VR1-FB)*%
X155448000Y-85344000D02*
X157388000Y-85344000D01*
X157388000Y-85344000D02*
X159414000Y-87370000D01*
X153238000Y-85349000D02*
X155443000Y-85349000D01*
X155443000Y-85349000D02*
X155448000Y-85344000D01*
%TO.N,Net-(D1-A)*%
X162814000Y-91320000D02*
X165589000Y-94095000D01*
X162814000Y-87370000D02*
X162814000Y-91320000D01*
X162814000Y-91320000D02*
X160039000Y-94095000D01*
D28*
X157226000Y-92710000D02*
X159004000Y-92710000D01*
X156210000Y-92710000D02*
X157226000Y-92710000D01*
X157480000Y-92964000D02*
X157480000Y-97028000D01*
X157226000Y-92710000D02*
X157480000Y-92964000D01*
D27*
X160039000Y-98945000D02*
X160039000Y-94095000D01*
D28*
X157480000Y-97028000D02*
X156210000Y-98298000D01*
X156210000Y-98298000D02*
X156210000Y-100953717D01*
X156210000Y-100953717D02*
X156406139Y-101149856D01*
X159004000Y-92710000D02*
X162814000Y-96520000D01*
X156210000Y-96520000D02*
X156210000Y-101346005D01*
X156210000Y-101346005D02*
X155318000Y-102238005D01*
X156210000Y-92710000D02*
X156210000Y-96520000D01*
D27*
X155318000Y-104902000D02*
X155318000Y-102238005D01*
X155318000Y-102238005D02*
X156406119Y-101149886D01*
X156406119Y-101149886D02*
X156406139Y-101149856D01*
X156406139Y-101149856D02*
X158610995Y-98945000D01*
X158610995Y-98945000D02*
X160039000Y-98945000D01*
%TO.N,+12V*%
X137414000Y-105156000D02*
X137668000Y-105156000D01*
X135128000Y-102870000D02*
X137414000Y-105156000D01*
X137668000Y-105156000D02*
X137922000Y-104902000D01*
X137922000Y-104902000D02*
X145418000Y-104902000D01*
X135128000Y-102870000D02*
X135128000Y-107950000D01*
%TD*%
%TA.AperFunction,Conductor*%
%TO.N,GND*%
G36*
X151651646Y-97845664D02*
G01*
X151697850Y-97898075D01*
X151709500Y-97950548D01*
X151709500Y-108698217D01*
X151689815Y-108765256D01*
X151673181Y-108785898D01*
X147441897Y-113017181D01*
X147380574Y-113050666D01*
X147354216Y-113053500D01*
X147034130Y-113053500D01*
X147034123Y-113053501D01*
X146974516Y-113059908D01*
X146839671Y-113110202D01*
X146839664Y-113110206D01*
X146724455Y-113196452D01*
X146724452Y-113196455D01*
X146638206Y-113311664D01*
X146638202Y-113311671D01*
X146587908Y-113446517D01*
X146583859Y-113484184D01*
X146581501Y-113506123D01*
X146581500Y-113506135D01*
X146581500Y-115601870D01*
X146581501Y-115601876D01*
X146587908Y-115661483D01*
X146638202Y-115796328D01*
X146638206Y-115796335D01*
X146724452Y-115911544D01*
X146724455Y-115911547D01*
X146839664Y-115997793D01*
X146839671Y-115997797D01*
X146974517Y-116048091D01*
X146974516Y-116048091D01*
X146981444Y-116048835D01*
X147034127Y-116054500D01*
X149129872Y-116054499D01*
X149189483Y-116048091D01*
X149324331Y-115997796D01*
X149439546Y-115911546D01*
X149525796Y-115796331D01*
X149576091Y-115661483D01*
X149582500Y-115601873D01*
X149582499Y-113757781D01*
X149602184Y-113690743D01*
X149618813Y-113670106D01*
X153407409Y-109881510D01*
X153409578Y-109879395D01*
X153473053Y-109819059D01*
X153506750Y-109770644D01*
X153512417Y-109763126D01*
X153549698Y-109717407D01*
X153563788Y-109690430D01*
X153571909Y-109677026D01*
X153589295Y-109652049D01*
X153612563Y-109597825D01*
X153616582Y-109589361D01*
X153643909Y-109537049D01*
X153652275Y-109507808D01*
X153657544Y-109493009D01*
X153669246Y-109465743D01*
X153669540Y-109465058D01*
X153681421Y-109407238D01*
X153683650Y-109398155D01*
X153699886Y-109341418D01*
X153702196Y-109311080D01*
X153704376Y-109295540D01*
X153710500Y-109265743D01*
X153710500Y-109206754D01*
X153710858Y-109197339D01*
X153712674Y-109173488D01*
X153715337Y-109138524D01*
X153711493Y-109108339D01*
X153710500Y-109092675D01*
X153710500Y-108226499D01*
X153730185Y-108159460D01*
X153782989Y-108113705D01*
X153834495Y-108102499D01*
X156815872Y-108102499D01*
X156875483Y-108096091D01*
X157010331Y-108045796D01*
X157125546Y-107959546D01*
X157126233Y-107958628D01*
X157127150Y-107957941D01*
X157131817Y-107953275D01*
X157132487Y-107953945D01*
X157182165Y-107916757D01*
X157251856Y-107911771D01*
X157313180Y-107945255D01*
X157346666Y-108006578D01*
X157349500Y-108032938D01*
X157349500Y-109736377D01*
X157349480Y-109738605D01*
X157349402Y-109742946D01*
X157349244Y-109747351D01*
X157348783Y-109755957D01*
X157348696Y-109757433D01*
X157344039Y-109828491D01*
X157343988Y-109829226D01*
X157334906Y-109956242D01*
X157334512Y-109960650D01*
X157327592Y-110025030D01*
X157326332Y-110033794D01*
X157320982Y-110063448D01*
X157320570Y-110065622D01*
X157307071Y-110133491D01*
X157306620Y-110135657D01*
X157284662Y-110236604D01*
X157283643Y-110240914D01*
X157269309Y-110297075D01*
X157266581Y-110306266D01*
X157233797Y-110402848D01*
X157232560Y-110406323D01*
X157195039Y-110506926D01*
X157193418Y-110511045D01*
X157176363Y-110552221D01*
X157173014Y-110559613D01*
X157125571Y-110655820D01*
X157123191Y-110660402D01*
X157067853Y-110761750D01*
X157065660Y-110765602D01*
X157050252Y-110791569D01*
X157046715Y-110797182D01*
X156984395Y-110890452D01*
X156980560Y-110895871D01*
X156905699Y-110995877D01*
X156902981Y-110999376D01*
X156894225Y-111010241D01*
X156890904Y-111014191D01*
X156812878Y-111103164D01*
X156807331Y-111109086D01*
X156713911Y-111202508D01*
X156707989Y-111208056D01*
X156619021Y-111286080D01*
X156615068Y-111289403D01*
X156604189Y-111298170D01*
X156600692Y-111300886D01*
X156500696Y-111375742D01*
X156495277Y-111379577D01*
X156402014Y-111441894D01*
X156396399Y-111445432D01*
X156370403Y-111460857D01*
X156366555Y-111463049D01*
X156265231Y-111518377D01*
X156260648Y-111520757D01*
X156164463Y-111568191D01*
X156157070Y-111571540D01*
X156115859Y-111588610D01*
X156111741Y-111590231D01*
X156011139Y-111627754D01*
X156007664Y-111628991D01*
X155911104Y-111661769D01*
X155901912Y-111664498D01*
X155845714Y-111678842D01*
X155841405Y-111679860D01*
X155740484Y-111701814D01*
X155738319Y-111702265D01*
X155670645Y-111715727D01*
X155668467Y-111716140D01*
X155638635Y-111721522D01*
X155629864Y-111722783D01*
X155565434Y-111729704D01*
X155561022Y-111730098D01*
X155430177Y-111739441D01*
X155429454Y-111739491D01*
X155364666Y-111743737D01*
X155363195Y-111743824D01*
X155352190Y-111744414D01*
X155347775Y-111744572D01*
X155345708Y-111744609D01*
X155343508Y-111744648D01*
X155341314Y-111744668D01*
X153337959Y-111744668D01*
X153337632Y-111744700D01*
X153218882Y-111744700D01*
X153218876Y-111744700D01*
X153218872Y-111744701D01*
X152958898Y-111778927D01*
X152958891Y-111778928D01*
X152958888Y-111778929D01*
X152705587Y-111846800D01*
X152705577Y-111846803D01*
X152463318Y-111947150D01*
X152463313Y-111947152D01*
X152236211Y-112078267D01*
X152236207Y-112078270D01*
X152028162Y-112237906D01*
X152028155Y-112237912D01*
X151842733Y-112423330D01*
X151842726Y-112423339D01*
X151683090Y-112631377D01*
X151683086Y-112631383D01*
X151572254Y-112823345D01*
X151554273Y-112854490D01*
X151551966Y-112858485D01*
X151551960Y-112858495D01*
X151451611Y-113100752D01*
X151451607Y-113100761D01*
X151383737Y-113354046D01*
X151383734Y-113354062D01*
X151349502Y-113614042D01*
X151349501Y-113614055D01*
X151349500Y-113745069D01*
X151349500Y-116723792D01*
X151349480Y-116726026D01*
X151349402Y-116730354D01*
X151349244Y-116734763D01*
X151348781Y-116743393D01*
X151348694Y-116744859D01*
X151344032Y-116815998D01*
X151343981Y-116816734D01*
X151334905Y-116943653D01*
X151334511Y-116948061D01*
X151327589Y-117012455D01*
X151326328Y-117021221D01*
X151320990Y-117050804D01*
X151320579Y-117052975D01*
X151307059Y-117120949D01*
X151306608Y-117123115D01*
X151284662Y-117224007D01*
X151283643Y-117228319D01*
X151269308Y-117284479D01*
X151266580Y-117293668D01*
X151233789Y-117390270D01*
X151232551Y-117393746D01*
X151195040Y-117494319D01*
X151193420Y-117498436D01*
X151176353Y-117539642D01*
X151173003Y-117547036D01*
X151125567Y-117643226D01*
X151123188Y-117647807D01*
X151067862Y-117749134D01*
X151065669Y-117752986D01*
X151050249Y-117778973D01*
X151046712Y-117784586D01*
X150984389Y-117877861D01*
X150980554Y-117883281D01*
X150905705Y-117983269D01*
X150902987Y-117986768D01*
X150894206Y-117997664D01*
X150890885Y-118001613D01*
X150812877Y-118090565D01*
X150807330Y-118096488D01*
X150713901Y-118189918D01*
X150707978Y-118195465D01*
X150619015Y-118273484D01*
X150615066Y-118276804D01*
X150604184Y-118285574D01*
X150600684Y-118288293D01*
X150500688Y-118363149D01*
X150495269Y-118366984D01*
X150402001Y-118429304D01*
X150396386Y-118432842D01*
X150370422Y-118448248D01*
X150366572Y-118450441D01*
X150265216Y-118505784D01*
X150260634Y-118508163D01*
X150164456Y-118555593D01*
X150157068Y-118558941D01*
X150115863Y-118576010D01*
X150111741Y-118577632D01*
X150011146Y-118615152D01*
X150007671Y-118616389D01*
X149911102Y-118649170D01*
X149901910Y-118651899D01*
X149845712Y-118666243D01*
X149841403Y-118667261D01*
X149740518Y-118689207D01*
X149738352Y-118689658D01*
X149670555Y-118703144D01*
X149668379Y-118703557D01*
X149638625Y-118708925D01*
X149629859Y-118710185D01*
X149565477Y-118717104D01*
X149561066Y-118717499D01*
X149432111Y-118726715D01*
X149431381Y-118726765D01*
X149363449Y-118731217D01*
X149361979Y-118731304D01*
X149352187Y-118731829D01*
X149347775Y-118731987D01*
X149345680Y-118732024D01*
X149343456Y-118732064D01*
X149341261Y-118732084D01*
X136440835Y-118732084D01*
X136373796Y-118712399D01*
X136328041Y-118659595D01*
X136318097Y-118590437D01*
X136347122Y-118526881D01*
X136382621Y-118498598D01*
X136420358Y-118478532D01*
X136449253Y-118463169D01*
X136681254Y-118294610D01*
X136887539Y-118095403D01*
X137064093Y-117869425D01*
X137207477Y-117621075D01*
X137314903Y-117355187D01*
X137384279Y-117076935D01*
X137414255Y-116791736D01*
X137412265Y-116734763D01*
X137404247Y-116505144D01*
X137404246Y-116505137D01*
X137354450Y-116222728D01*
X137265833Y-115949994D01*
X137265831Y-115949989D01*
X137140125Y-115692254D01*
X137140123Y-115692251D01*
X137140121Y-115692247D01*
X136979762Y-115454504D01*
X136805883Y-115261392D01*
X136787879Y-115241396D01*
X136787872Y-115241389D01*
X136568202Y-115057063D01*
X136325006Y-114905097D01*
X136325004Y-114905096D01*
X136097942Y-114804000D01*
X138454000Y-114804000D01*
X138454000Y-115601844D01*
X138460401Y-115661372D01*
X138460403Y-115661379D01*
X138510645Y-115796086D01*
X138510649Y-115796093D01*
X138596809Y-115911187D01*
X138596812Y-115911190D01*
X138711906Y-115997350D01*
X138711913Y-115997354D01*
X138846620Y-116047596D01*
X138846627Y-116047598D01*
X138906155Y-116053999D01*
X138906172Y-116054000D01*
X139704000Y-116054000D01*
X139704000Y-114804000D01*
X140204000Y-114804000D01*
X140204000Y-116054000D01*
X141001828Y-116054000D01*
X141001844Y-116053999D01*
X141061372Y-116047598D01*
X141061379Y-116047596D01*
X141196086Y-115997354D01*
X141196093Y-115997350D01*
X141311187Y-115911190D01*
X141311190Y-115911187D01*
X141397350Y-115796093D01*
X141397354Y-115796086D01*
X141447596Y-115661379D01*
X141447598Y-115661372D01*
X141453999Y-115601844D01*
X141454000Y-115601827D01*
X141454000Y-114804000D01*
X140204000Y-114804000D01*
X139704000Y-114804000D01*
X138454000Y-114804000D01*
X136097942Y-114804000D01*
X136063037Y-114788459D01*
X136063027Y-114788456D01*
X136063025Y-114788455D01*
X135787364Y-114709411D01*
X135787362Y-114709410D01*
X135787353Y-114709408D01*
X135503389Y-114669500D01*
X135503385Y-114669500D01*
X135288396Y-114669500D01*
X135288383Y-114669500D01*
X135073925Y-114684497D01*
X135073921Y-114684497D01*
X134793427Y-114744119D01*
X134523954Y-114842199D01*
X134270752Y-114976827D01*
X134270745Y-114976832D01*
X134038753Y-115145383D01*
X134038746Y-115145389D01*
X133832459Y-115344599D01*
X133655907Y-115570574D01*
X133581887Y-115698782D01*
X133531320Y-115746997D01*
X133462713Y-115760221D01*
X133397849Y-115734253D01*
X133357320Y-115677339D01*
X133350500Y-115636782D01*
X133350500Y-114304000D01*
X138454000Y-114304000D01*
X139704000Y-114304000D01*
X139704000Y-113054000D01*
X140204000Y-113054000D01*
X140204000Y-114304000D01*
X141454000Y-114304000D01*
X141454000Y-113506172D01*
X141453999Y-113506155D01*
X141447598Y-113446627D01*
X141447596Y-113446620D01*
X141397354Y-113311913D01*
X141397350Y-113311906D01*
X141311190Y-113196812D01*
X141311187Y-113196809D01*
X141196093Y-113110649D01*
X141196086Y-113110645D01*
X141061379Y-113060403D01*
X141061372Y-113060401D01*
X141001844Y-113054000D01*
X140204000Y-113054000D01*
X139704000Y-113054000D01*
X138906155Y-113054000D01*
X138846627Y-113060401D01*
X138846620Y-113060403D01*
X138711913Y-113110645D01*
X138711906Y-113110649D01*
X138596812Y-113196809D01*
X138596809Y-113196812D01*
X138510649Y-113311906D01*
X138510645Y-113311913D01*
X138460403Y-113446620D01*
X138460401Y-113446627D01*
X138454000Y-113506155D01*
X138454000Y-114304000D01*
X133350500Y-114304000D01*
X133350500Y-110746000D01*
X138654001Y-110746000D01*
X138654001Y-112045986D01*
X138664494Y-112148697D01*
X138719641Y-112315119D01*
X138719643Y-112315124D01*
X138811684Y-112464345D01*
X138935654Y-112588315D01*
X139084875Y-112680356D01*
X139084880Y-112680358D01*
X139251302Y-112735505D01*
X139251309Y-112735506D01*
X139354019Y-112745999D01*
X139703999Y-112745999D01*
X139704000Y-112745998D01*
X139704000Y-110746000D01*
X140204000Y-110746000D01*
X140204000Y-112745999D01*
X140553972Y-112745999D01*
X140553986Y-112745998D01*
X140656697Y-112735505D01*
X140823119Y-112680358D01*
X140823124Y-112680356D01*
X140972345Y-112588315D01*
X141096315Y-112464345D01*
X141188356Y-112315124D01*
X141188358Y-112315119D01*
X141243505Y-112148697D01*
X141243506Y-112148690D01*
X141253999Y-112045986D01*
X141254000Y-112045973D01*
X141254000Y-110746000D01*
X140204000Y-110746000D01*
X139704000Y-110746000D01*
X138654001Y-110746000D01*
X133350500Y-110746000D01*
X133350500Y-109286282D01*
X133370185Y-109219243D01*
X133422989Y-109173488D01*
X133492147Y-109163544D01*
X133555703Y-109192569D01*
X133573760Y-109211964D01*
X133612261Y-109263395D01*
X133612267Y-109263401D01*
X133612272Y-109263407D01*
X133659776Y-109310910D01*
X133665809Y-109317389D01*
X133709819Y-109368180D01*
X133760609Y-109412189D01*
X133767088Y-109418222D01*
X133814596Y-109465731D01*
X133814612Y-109465745D01*
X133868404Y-109506013D01*
X133875297Y-109511567D01*
X133926083Y-109555574D01*
X133982621Y-109591909D01*
X133989891Y-109596957D01*
X134043682Y-109637224D01*
X134043685Y-109637226D01*
X134102667Y-109669432D01*
X134110272Y-109673945D01*
X134166808Y-109710279D01*
X134166819Y-109710285D01*
X134227944Y-109738200D01*
X134235860Y-109742161D01*
X134294839Y-109774367D01*
X134294846Y-109774369D01*
X134294847Y-109774370D01*
X134357806Y-109797852D01*
X134365975Y-109801235D01*
X134385699Y-109810243D01*
X134427114Y-109829157D01*
X134447750Y-109835215D01*
X134491594Y-109848089D01*
X134499969Y-109850876D01*
X134562954Y-109874369D01*
X134571781Y-109876289D01*
X134628635Y-109888657D01*
X134637210Y-109890845D01*
X134701678Y-109909775D01*
X134768193Y-109919338D01*
X134776871Y-109920903D01*
X134842572Y-109935196D01*
X134909615Y-109939990D01*
X134918384Y-109940933D01*
X134984921Y-109950500D01*
X135052124Y-109950500D01*
X135060970Y-109950816D01*
X135127999Y-109955610D01*
X135128000Y-109955610D01*
X135128001Y-109955610D01*
X135195030Y-109950816D01*
X135203876Y-109950500D01*
X135271076Y-109950500D01*
X135271079Y-109950500D01*
X135337614Y-109940933D01*
X135346385Y-109939990D01*
X135413428Y-109935196D01*
X135479127Y-109920903D01*
X135487805Y-109919338D01*
X135554322Y-109909775D01*
X135601369Y-109895959D01*
X135618786Y-109890846D01*
X135627351Y-109888658D01*
X135693046Y-109874369D01*
X135756030Y-109850876D01*
X135764395Y-109848092D01*
X135828888Y-109829156D01*
X135890047Y-109801224D01*
X135898156Y-109797865D01*
X135961161Y-109774367D01*
X136020150Y-109742155D01*
X136028041Y-109738205D01*
X136089187Y-109710282D01*
X136145738Y-109673937D01*
X136153321Y-109669437D01*
X136212315Y-109637226D01*
X136266114Y-109596950D01*
X136273377Y-109591909D01*
X136329917Y-109555574D01*
X136380710Y-109511560D01*
X136387596Y-109506012D01*
X136404966Y-109493009D01*
X136441395Y-109465739D01*
X136643739Y-109263395D01*
X136824315Y-109082819D01*
X136885638Y-109049334D01*
X136911996Y-109046500D01*
X138530000Y-109046500D01*
X138597039Y-109066185D01*
X138642794Y-109118989D01*
X138654000Y-109170500D01*
X138654000Y-110246000D01*
X141253999Y-110246000D01*
X141253999Y-109170500D01*
X141273684Y-109103461D01*
X141326488Y-109057706D01*
X141377999Y-109046500D01*
X146541218Y-109046500D01*
X146608257Y-109066185D01*
X146654012Y-109118989D01*
X146663956Y-109188147D01*
X146634931Y-109251703D01*
X146628899Y-109258181D01*
X143320646Y-112566432D01*
X143318399Y-112568624D01*
X143254946Y-112628942D01*
X143221245Y-112677361D01*
X143215574Y-112684882D01*
X143178302Y-112730592D01*
X143178298Y-112730598D01*
X143164209Y-112757568D01*
X143156082Y-112770983D01*
X143138702Y-112795955D01*
X143115438Y-112850165D01*
X143111398Y-112858672D01*
X143084090Y-112910951D01*
X143084090Y-112910952D01*
X143075720Y-112940201D01*
X143070458Y-112954981D01*
X143059586Y-112980317D01*
X143015060Y-113034162D01*
X142958888Y-113054709D01*
X142910516Y-113059909D01*
X142775671Y-113110202D01*
X142775664Y-113110206D01*
X142660455Y-113196452D01*
X142660452Y-113196455D01*
X142574206Y-113311664D01*
X142574202Y-113311671D01*
X142523908Y-113446517D01*
X142519859Y-113484184D01*
X142517501Y-113506123D01*
X142517500Y-113506135D01*
X142517500Y-115601870D01*
X142517501Y-115601876D01*
X142523908Y-115661483D01*
X142574202Y-115796328D01*
X142574206Y-115796335D01*
X142660452Y-115911544D01*
X142660455Y-115911547D01*
X142775664Y-115997793D01*
X142775671Y-115997797D01*
X142910517Y-116048091D01*
X142910516Y-116048091D01*
X142917444Y-116048835D01*
X142970127Y-116054500D01*
X145065872Y-116054499D01*
X145125483Y-116048091D01*
X145260331Y-115997796D01*
X145375546Y-115911546D01*
X145461796Y-115796331D01*
X145512091Y-115661483D01*
X145518500Y-115601873D01*
X145518499Y-113506128D01*
X145512091Y-113446517D01*
X145474282Y-113345148D01*
X145469299Y-113275458D01*
X145502782Y-113214137D01*
X148525409Y-110191510D01*
X148527578Y-110189395D01*
X148591053Y-110129059D01*
X148624756Y-110080635D01*
X148630405Y-110073142D01*
X148667698Y-110027407D01*
X148681788Y-110000430D01*
X148689909Y-109987026D01*
X148707295Y-109962049D01*
X148730563Y-109907825D01*
X148734582Y-109899361D01*
X148761909Y-109847049D01*
X148770278Y-109817797D01*
X148775538Y-109803023D01*
X148787540Y-109775058D01*
X148799415Y-109717268D01*
X148801649Y-109708162D01*
X148817887Y-109651418D01*
X148820197Y-109621077D01*
X148822376Y-109605535D01*
X148828500Y-109575741D01*
X148828500Y-109516758D01*
X148828858Y-109507342D01*
X148833337Y-109448526D01*
X148829493Y-109418338D01*
X148828500Y-109402674D01*
X148828500Y-108751738D01*
X148848185Y-108684699D01*
X148878184Y-108652475D01*
X148999395Y-108561739D01*
X149201739Y-108359395D01*
X149373226Y-108130315D01*
X149510367Y-107879161D01*
X149610369Y-107611046D01*
X149671196Y-107331428D01*
X149686500Y-107117448D01*
X149686500Y-107117447D01*
X149691610Y-107046000D01*
X149686816Y-106978970D01*
X149686500Y-106970124D01*
X149686500Y-102584923D01*
X149686500Y-102584921D01*
X149676932Y-102518377D01*
X149675991Y-102509617D01*
X149671196Y-102442572D01*
X149656907Y-102376886D01*
X149655338Y-102368189D01*
X149645775Y-102301680D01*
X149645775Y-102301678D01*
X149629255Y-102245416D01*
X149626843Y-102237202D01*
X149624656Y-102228629D01*
X149610371Y-102162962D01*
X149610371Y-102162961D01*
X149610369Y-102162957D01*
X149610369Y-102162954D01*
X149586877Y-102099972D01*
X149584090Y-102091597D01*
X149567473Y-102035003D01*
X149565158Y-102027117D01*
X149565157Y-102027115D01*
X149565156Y-102027111D01*
X149537230Y-101965963D01*
X149533846Y-101957792D01*
X149527020Y-101939490D01*
X149510367Y-101894839D01*
X149478150Y-101835839D01*
X149474215Y-101827979D01*
X149446282Y-101766813D01*
X149416518Y-101720500D01*
X149409946Y-101710273D01*
X149405429Y-101702660D01*
X149373229Y-101643689D01*
X149373224Y-101643682D01*
X149332948Y-101589879D01*
X149327912Y-101582627D01*
X149291573Y-101526082D01*
X149247561Y-101475289D01*
X149242010Y-101468401D01*
X149214544Y-101431711D01*
X149201739Y-101414605D01*
X149201734Y-101414600D01*
X149201729Y-101414594D01*
X148999395Y-101212261D01*
X148918045Y-101130911D01*
X148867405Y-101080270D01*
X148867399Y-101080265D01*
X148867395Y-101080261D01*
X148813597Y-101039988D01*
X148806706Y-101034434D01*
X148755923Y-100990431D01*
X148755916Y-100990425D01*
X148699374Y-100954088D01*
X148692116Y-100949049D01*
X148638315Y-100908774D01*
X148638310Y-100908771D01*
X148638309Y-100908770D01*
X148579339Y-100876570D01*
X148571726Y-100872053D01*
X148515192Y-100835720D01*
X148515182Y-100835715D01*
X148485027Y-100821944D01*
X148454043Y-100807794D01*
X148446160Y-100803849D01*
X148387161Y-100771633D01*
X148324190Y-100748145D01*
X148316016Y-100744759D01*
X148254891Y-100716845D01*
X148190416Y-100697913D01*
X148182019Y-100695118D01*
X148119048Y-100671631D01*
X148053367Y-100657343D01*
X148044792Y-100655154D01*
X147980331Y-100636227D01*
X147980318Y-100636224D01*
X147913807Y-100626661D01*
X147905096Y-100625089D01*
X147839432Y-100610804D01*
X147772390Y-100606008D01*
X147763594Y-100605062D01*
X147697082Y-100595500D01*
X147697079Y-100595500D01*
X147625448Y-100595500D01*
X143359749Y-100595500D01*
X143292710Y-100575815D01*
X143246955Y-100523011D01*
X143237011Y-100453853D01*
X143258175Y-100400376D01*
X143370129Y-100240489D01*
X143370133Y-100240483D01*
X143466265Y-100034326D01*
X143466269Y-100034317D01*
X143525139Y-99814610D01*
X143525141Y-99814599D01*
X143544966Y-99588002D01*
X143544966Y-99587997D01*
X143525141Y-99361400D01*
X143525139Y-99361389D01*
X143466269Y-99141682D01*
X143466264Y-99141668D01*
X143370136Y-98935521D01*
X143370132Y-98935513D01*
X143319025Y-98862526D01*
X142637953Y-99543597D01*
X142625165Y-99462852D01*
X142567641Y-99349955D01*
X142478045Y-99260359D01*
X142365148Y-99202835D01*
X142284401Y-99190046D01*
X142965472Y-98508974D01*
X142892478Y-98457863D01*
X142686331Y-98361735D01*
X142686317Y-98361730D01*
X142466610Y-98302860D01*
X142466599Y-98302858D01*
X142240002Y-98283034D01*
X142239998Y-98283034D01*
X142013400Y-98302858D01*
X142013389Y-98302860D01*
X141793682Y-98361730D01*
X141793673Y-98361734D01*
X141587516Y-98457866D01*
X141587512Y-98457868D01*
X141514526Y-98508973D01*
X141514526Y-98508974D01*
X142195599Y-99190046D01*
X142114852Y-99202835D01*
X142001955Y-99260359D01*
X141912359Y-99349955D01*
X141854835Y-99462852D01*
X141842046Y-99543598D01*
X141160974Y-98862526D01*
X141160973Y-98862526D01*
X141109868Y-98935512D01*
X141109866Y-98935516D01*
X141013734Y-99141673D01*
X141013730Y-99141682D01*
X140954860Y-99361389D01*
X140954858Y-99361400D01*
X140935034Y-99587997D01*
X140935034Y-99588002D01*
X140954858Y-99814599D01*
X140954860Y-99814610D01*
X141013730Y-100034317D01*
X141013734Y-100034326D01*
X141109866Y-100240483D01*
X141109870Y-100240489D01*
X141221825Y-100400376D01*
X141244153Y-100466582D01*
X141227143Y-100534349D01*
X141176196Y-100582163D01*
X141120251Y-100595500D01*
X138263997Y-100595500D01*
X138196958Y-100575815D01*
X138176316Y-100559181D01*
X136492046Y-98874912D01*
X136492045Y-98874911D01*
X136441405Y-98824270D01*
X136441399Y-98824265D01*
X136441395Y-98824261D01*
X136387596Y-98783987D01*
X136380706Y-98778434D01*
X136329923Y-98734431D01*
X136329916Y-98734425D01*
X136290484Y-98709084D01*
X136244730Y-98656280D01*
X136234786Y-98587122D01*
X136255948Y-98533647D01*
X136302035Y-98467830D01*
X136401903Y-98253663D01*
X136441550Y-98105695D01*
X136477915Y-98046036D01*
X136540761Y-98015506D01*
X136566450Y-98013895D01*
X136570895Y-98014078D01*
X136570901Y-98014080D01*
X136661592Y-98017830D01*
X136666675Y-98018146D01*
X136695071Y-98020500D01*
X136723550Y-98020500D01*
X136728674Y-98020605D01*
X136819359Y-98024357D01*
X136842664Y-98021452D01*
X136858001Y-98020500D01*
X150704136Y-98020500D01*
X150719473Y-98021452D01*
X150742779Y-98024357D01*
X150742779Y-98024356D01*
X150742780Y-98024357D01*
X150833472Y-98020606D01*
X150838596Y-98020500D01*
X150867066Y-98020500D01*
X150867067Y-98020500D01*
X150895444Y-98018147D01*
X150900540Y-98017831D01*
X150991237Y-98014081D01*
X151014227Y-98009259D01*
X151029413Y-98007047D01*
X151052821Y-98005108D01*
X151140848Y-97982815D01*
X151145754Y-97981680D01*
X151234614Y-97963049D01*
X151256486Y-97954513D01*
X151271116Y-97949827D01*
X151293881Y-97944063D01*
X151352025Y-97918558D01*
X151376990Y-97907608D01*
X151381726Y-97905646D01*
X151401129Y-97898075D01*
X151466274Y-97872656D01*
X151486450Y-97860632D01*
X151500114Y-97853599D01*
X151521607Y-97844173D01*
X151521611Y-97844169D01*
X151526118Y-97841732D01*
X151527274Y-97843869D01*
X151584441Y-97826553D01*
X151651646Y-97845664D01*
G37*
%TD.AperFunction*%
%TA.AperFunction,Conductor*%
G36*
X166523836Y-81532220D02*
G01*
X166526530Y-81532352D01*
X166526798Y-81532366D01*
X166574540Y-81535046D01*
X166575126Y-81535082D01*
X166715243Y-81544264D01*
X166719236Y-81544591D01*
X166776578Y-81550238D01*
X166785167Y-81551390D01*
X166859544Y-81564026D01*
X166862824Y-81564630D01*
X166972967Y-81586537D01*
X166976884Y-81587383D01*
X167013789Y-81595988D01*
X167019902Y-81597580D01*
X167103236Y-81621587D01*
X167108720Y-81623306D01*
X167222982Y-81662091D01*
X167226752Y-81663440D01*
X167241358Y-81668937D01*
X167245088Y-81670411D01*
X167326020Y-81703933D01*
X167329703Y-81705530D01*
X167343882Y-81711954D01*
X167347528Y-81713678D01*
X167455719Y-81767029D01*
X167460851Y-81769710D01*
X167533599Y-81809915D01*
X167536748Y-81811655D01*
X167542206Y-81814857D01*
X167574380Y-81834863D01*
X167577743Y-81837032D01*
X167602616Y-81853651D01*
X167657304Y-81890191D01*
X167671074Y-81899391D01*
X167673938Y-81901364D01*
X167735344Y-81944932D01*
X167742262Y-81950215D01*
X167786852Y-81986814D01*
X167789948Y-81989441D01*
X167897016Y-82083353D01*
X167897874Y-82084113D01*
X167928575Y-82111548D01*
X167929152Y-82112066D01*
X167933689Y-82116179D01*
X167938075Y-82120356D01*
X169175128Y-83357409D01*
X169970768Y-84153048D01*
X170004253Y-84214371D01*
X169999269Y-84284063D01*
X169957397Y-84339996D01*
X169891933Y-84364413D01*
X169848909Y-84359926D01*
X169833874Y-84355615D01*
X169777364Y-84339411D01*
X169777360Y-84339410D01*
X169777355Y-84339409D01*
X169493389Y-84299500D01*
X169493385Y-84299500D01*
X169278396Y-84299500D01*
X169278383Y-84299500D01*
X169063925Y-84314497D01*
X169063921Y-84314497D01*
X168783427Y-84374119D01*
X168513954Y-84472199D01*
X168513950Y-84472200D01*
X168513950Y-84472201D01*
X168495143Y-84482201D01*
X168260752Y-84606827D01*
X168260745Y-84606832D01*
X168028753Y-84775383D01*
X168028746Y-84775389D01*
X167822459Y-84974599D01*
X167645907Y-85200574D01*
X167502525Y-85448920D01*
X167500622Y-85452823D01*
X167499458Y-85452255D01*
X167459602Y-85502604D01*
X167393503Y-85525245D01*
X167325656Y-85508555D01*
X167277602Y-85457834D01*
X167263999Y-85401367D01*
X167263999Y-85270028D01*
X167263998Y-85270013D01*
X167253505Y-85167302D01*
X167198358Y-85000880D01*
X167198356Y-85000875D01*
X167106315Y-84851654D01*
X166982345Y-84727684D01*
X166833124Y-84635643D01*
X166833119Y-84635641D01*
X166666697Y-84580494D01*
X166666690Y-84580493D01*
X166563986Y-84570000D01*
X166464000Y-84570000D01*
X166464000Y-87120000D01*
X167265514Y-87120000D01*
X167323495Y-87088339D01*
X167393187Y-87093323D01*
X167449121Y-87135193D01*
X167461305Y-87155146D01*
X167508307Y-87251512D01*
X167569879Y-87377753D01*
X167730238Y-87615496D01*
X167739242Y-87625496D01*
X167922120Y-87828603D01*
X167922127Y-87828610D01*
X168141797Y-88012936D01*
X168141801Y-88012939D01*
X168141803Y-88012940D01*
X168384998Y-88164905D01*
X168504823Y-88218255D01*
X168646962Y-88281540D01*
X168646967Y-88281541D01*
X168646975Y-88281545D01*
X168922636Y-88360589D01*
X168922641Y-88360589D01*
X168922646Y-88360591D01*
X169111955Y-88387196D01*
X169206610Y-88400499D01*
X169206612Y-88400500D01*
X169206615Y-88400500D01*
X169421592Y-88400500D01*
X169421604Y-88400500D01*
X169636071Y-88385503D01*
X169636076Y-88385502D01*
X169636078Y-88385502D01*
X169757663Y-88359657D01*
X169916575Y-88325880D01*
X170186050Y-88227799D01*
X170439253Y-88093169D01*
X170671254Y-87924610D01*
X170877539Y-87725403D01*
X171054093Y-87499425D01*
X171118113Y-87388537D01*
X171168679Y-87340323D01*
X171237286Y-87327099D01*
X171302151Y-87353067D01*
X171342680Y-87409981D01*
X171349500Y-87450538D01*
X171349500Y-115602252D01*
X171329815Y-115669291D01*
X171277011Y-115715046D01*
X171207853Y-115724990D01*
X171144297Y-115695965D01*
X171122699Y-115671592D01*
X171115810Y-115661379D01*
X170989762Y-115474504D01*
X170797875Y-115261392D01*
X170797872Y-115261389D01*
X170578202Y-115077063D01*
X170335006Y-114925097D01*
X170335004Y-114925096D01*
X170073037Y-114808459D01*
X170073027Y-114808456D01*
X170073025Y-114808455D01*
X169797364Y-114729411D01*
X169797362Y-114729410D01*
X169797353Y-114729408D01*
X169513389Y-114689500D01*
X169513385Y-114689500D01*
X169298396Y-114689500D01*
X169298383Y-114689500D01*
X169083925Y-114704497D01*
X169083921Y-114704497D01*
X168803427Y-114764119D01*
X168533954Y-114862199D01*
X168280752Y-114996827D01*
X168280745Y-114996832D01*
X168048753Y-115165383D01*
X168048746Y-115165389D01*
X167842459Y-115364599D01*
X167665907Y-115590574D01*
X167581887Y-115736102D01*
X167531320Y-115784318D01*
X167462713Y-115797541D01*
X167397848Y-115771573D01*
X167357320Y-115714658D01*
X167350500Y-115674102D01*
X167350500Y-102896418D01*
X167352351Y-102890110D01*
X167350537Y-102816195D01*
X167350500Y-102813151D01*
X167350500Y-102796561D01*
X167350533Y-102796445D01*
X167350529Y-102657637D01*
X167350529Y-102657636D01*
X167343892Y-102620000D01*
X167320125Y-102485228D01*
X167260244Y-102320721D01*
X167172707Y-102169110D01*
X167060174Y-102035003D01*
X167050768Y-102027111D01*
X167017171Y-101998920D01*
X166946342Y-101939489D01*
X166907640Y-101881319D01*
X166906530Y-101811458D01*
X166943366Y-101752087D01*
X167006453Y-101722057D01*
X167026044Y-101720499D01*
X168014008Y-101720499D01*
X168116797Y-101709999D01*
X168283334Y-101654814D01*
X168432656Y-101562712D01*
X168556712Y-101438656D01*
X168560996Y-101431709D01*
X168612942Y-101384986D01*
X168681904Y-101373763D01*
X168737658Y-101395233D01*
X168885031Y-101498426D01*
X168928656Y-101553003D01*
X168935848Y-101622501D01*
X168904326Y-101684856D01*
X168885031Y-101701575D01*
X168698922Y-101831890D01*
X168698920Y-101831891D01*
X168531891Y-101998920D01*
X168531886Y-101998926D01*
X168396400Y-102192420D01*
X168396399Y-102192422D01*
X168296570Y-102406507D01*
X168296567Y-102406513D01*
X168239364Y-102619999D01*
X168239364Y-102620000D01*
X169136314Y-102620000D01*
X169110507Y-102660156D01*
X169070000Y-102798111D01*
X169070000Y-102941889D01*
X169110507Y-103079844D01*
X169136314Y-103120000D01*
X168239364Y-103120000D01*
X168296567Y-103333486D01*
X168296570Y-103333492D01*
X168396399Y-103547578D01*
X168531894Y-103741082D01*
X168698917Y-103908105D01*
X168885031Y-104038425D01*
X168928656Y-104093003D01*
X168935848Y-104162501D01*
X168904326Y-104224856D01*
X168885031Y-104241575D01*
X168698922Y-104371890D01*
X168698920Y-104371891D01*
X168531891Y-104538920D01*
X168531886Y-104538926D01*
X168396400Y-104732420D01*
X168396399Y-104732422D01*
X168296570Y-104946507D01*
X168296567Y-104946513D01*
X168239364Y-105159999D01*
X168239364Y-105160000D01*
X169136314Y-105160000D01*
X169110507Y-105200156D01*
X169070000Y-105338111D01*
X169070000Y-105481889D01*
X169110507Y-105619844D01*
X169136314Y-105660000D01*
X168239364Y-105660000D01*
X168296567Y-105873486D01*
X168296570Y-105873492D01*
X168396399Y-106087578D01*
X168531894Y-106281082D01*
X168698917Y-106448105D01*
X168885031Y-106578425D01*
X168928656Y-106633003D01*
X168935848Y-106702501D01*
X168904326Y-106764856D01*
X168885031Y-106781575D01*
X168698922Y-106911890D01*
X168698920Y-106911891D01*
X168531891Y-107078920D01*
X168531886Y-107078926D01*
X168396400Y-107272420D01*
X168396399Y-107272422D01*
X168296570Y-107486507D01*
X168296567Y-107486513D01*
X168239364Y-107699999D01*
X168239364Y-107700000D01*
X169136314Y-107700000D01*
X169110507Y-107740156D01*
X169070000Y-107878111D01*
X169070000Y-108021889D01*
X169110507Y-108159844D01*
X169136314Y-108200000D01*
X168239364Y-108200000D01*
X168296567Y-108413486D01*
X168296570Y-108413492D01*
X168396399Y-108627578D01*
X168531894Y-108821082D01*
X168698917Y-108988105D01*
X168892421Y-109123600D01*
X169106507Y-109223429D01*
X169106516Y-109223433D01*
X169320000Y-109280634D01*
X169320000Y-108385501D01*
X169427685Y-108434680D01*
X169534237Y-108450000D01*
X169605763Y-108450000D01*
X169712315Y-108434680D01*
X169820000Y-108385501D01*
X169820000Y-109280633D01*
X170033483Y-109223433D01*
X170033492Y-109223429D01*
X170247578Y-109123600D01*
X170441082Y-108988105D01*
X170608105Y-108821082D01*
X170743600Y-108627578D01*
X170843429Y-108413492D01*
X170843432Y-108413486D01*
X170900636Y-108200000D01*
X170003686Y-108200000D01*
X170029493Y-108159844D01*
X170070000Y-108021889D01*
X170070000Y-107878111D01*
X170029493Y-107740156D01*
X170003686Y-107700000D01*
X170900636Y-107700000D01*
X170900635Y-107699999D01*
X170843432Y-107486513D01*
X170843429Y-107486507D01*
X170743600Y-107272422D01*
X170743599Y-107272420D01*
X170608113Y-107078926D01*
X170608108Y-107078920D01*
X170441082Y-106911894D01*
X170254968Y-106781575D01*
X170211344Y-106726998D01*
X170204151Y-106657499D01*
X170235673Y-106595145D01*
X170254968Y-106578425D01*
X170441082Y-106448105D01*
X170608105Y-106281082D01*
X170743600Y-106087578D01*
X170843429Y-105873492D01*
X170843432Y-105873486D01*
X170900636Y-105660000D01*
X170003686Y-105660000D01*
X170029493Y-105619844D01*
X170070000Y-105481889D01*
X170070000Y-105338111D01*
X170029493Y-105200156D01*
X170003686Y-105160000D01*
X170900636Y-105160000D01*
X170900635Y-105159999D01*
X170843432Y-104946513D01*
X170843429Y-104946507D01*
X170743600Y-104732422D01*
X170743599Y-104732420D01*
X170608113Y-104538926D01*
X170608108Y-104538920D01*
X170441082Y-104371894D01*
X170254968Y-104241575D01*
X170211344Y-104186998D01*
X170204151Y-104117499D01*
X170235673Y-104055145D01*
X170254968Y-104038425D01*
X170441082Y-103908105D01*
X170608105Y-103741082D01*
X170743600Y-103547578D01*
X170843429Y-103333492D01*
X170843432Y-103333486D01*
X170900636Y-103120000D01*
X170003686Y-103120000D01*
X170029493Y-103079844D01*
X170070000Y-102941889D01*
X170070000Y-102798111D01*
X170029493Y-102660156D01*
X170003686Y-102620000D01*
X170900636Y-102620000D01*
X170900635Y-102619999D01*
X170843432Y-102406513D01*
X170843429Y-102406507D01*
X170743600Y-102192422D01*
X170743599Y-102192420D01*
X170608113Y-101998926D01*
X170608108Y-101998920D01*
X170441082Y-101831894D01*
X170254968Y-101701575D01*
X170211344Y-101646998D01*
X170204151Y-101577499D01*
X170235673Y-101515145D01*
X170254968Y-101498425D01*
X170441082Y-101368105D01*
X170608105Y-101201082D01*
X170743600Y-101007578D01*
X170843429Y-100793492D01*
X170843432Y-100793486D01*
X170900636Y-100580000D01*
X170003686Y-100580000D01*
X170029493Y-100539844D01*
X170070000Y-100401889D01*
X170070000Y-100258111D01*
X170029493Y-100120156D01*
X170003686Y-100080000D01*
X170900636Y-100080000D01*
X170900635Y-100079999D01*
X170843432Y-99866513D01*
X170843429Y-99866507D01*
X170743600Y-99652422D01*
X170743599Y-99652420D01*
X170608113Y-99458926D01*
X170608108Y-99458920D01*
X170441082Y-99291894D01*
X170254968Y-99161575D01*
X170211344Y-99106998D01*
X170204151Y-99037499D01*
X170235673Y-98975145D01*
X170254968Y-98958425D01*
X170441082Y-98828105D01*
X170608105Y-98661082D01*
X170743600Y-98467578D01*
X170843429Y-98253492D01*
X170843432Y-98253486D01*
X170900636Y-98040000D01*
X170003686Y-98040000D01*
X170029493Y-97999844D01*
X170070000Y-97861889D01*
X170070000Y-97718111D01*
X170029493Y-97580156D01*
X170003686Y-97540000D01*
X170900636Y-97540000D01*
X170900635Y-97539999D01*
X170843432Y-97326513D01*
X170843429Y-97326507D01*
X170743600Y-97112422D01*
X170743599Y-97112420D01*
X170608113Y-96918926D01*
X170608108Y-96918920D01*
X170441082Y-96751894D01*
X170254968Y-96621575D01*
X170211344Y-96566998D01*
X170204151Y-96497499D01*
X170235673Y-96435145D01*
X170254968Y-96418425D01*
X170441082Y-96288105D01*
X170608105Y-96121082D01*
X170743600Y-95927578D01*
X170843429Y-95713492D01*
X170843432Y-95713486D01*
X170900636Y-95500000D01*
X170003686Y-95500000D01*
X170029493Y-95459844D01*
X170070000Y-95321889D01*
X170070000Y-95178111D01*
X170029493Y-95040156D01*
X170003686Y-95000000D01*
X170900636Y-95000000D01*
X170900635Y-94999999D01*
X170843432Y-94786513D01*
X170843429Y-94786507D01*
X170743600Y-94572422D01*
X170743599Y-94572420D01*
X170608113Y-94378926D01*
X170608108Y-94378920D01*
X170441082Y-94211894D01*
X170254968Y-94081575D01*
X170211344Y-94026998D01*
X170204151Y-93957499D01*
X170235673Y-93895145D01*
X170254968Y-93878425D01*
X170441082Y-93748105D01*
X170608105Y-93581082D01*
X170743600Y-93387578D01*
X170843429Y-93173492D01*
X170843432Y-93173486D01*
X170900636Y-92960000D01*
X170003686Y-92960000D01*
X170029493Y-92919844D01*
X170070000Y-92781889D01*
X170070000Y-92638111D01*
X170029493Y-92500156D01*
X170003686Y-92460000D01*
X170900636Y-92460000D01*
X170900635Y-92459999D01*
X170843432Y-92246513D01*
X170843429Y-92246507D01*
X170743600Y-92032422D01*
X170743599Y-92032420D01*
X170608113Y-91838926D01*
X170608108Y-91838920D01*
X170485665Y-91716477D01*
X170452180Y-91655154D01*
X170457164Y-91585462D01*
X170499036Y-91529529D01*
X170530013Y-91512614D01*
X170662086Y-91463354D01*
X170662093Y-91463350D01*
X170777187Y-91377190D01*
X170777190Y-91377187D01*
X170863350Y-91262093D01*
X170863354Y-91262086D01*
X170913596Y-91127379D01*
X170913598Y-91127372D01*
X170919999Y-91067844D01*
X170920000Y-91067827D01*
X170920000Y-90420000D01*
X170003686Y-90420000D01*
X170029493Y-90379844D01*
X170070000Y-90241889D01*
X170070000Y-90098111D01*
X170029493Y-89960156D01*
X170003686Y-89920000D01*
X170920000Y-89920000D01*
X170920000Y-89272172D01*
X170919999Y-89272155D01*
X170913598Y-89212627D01*
X170913596Y-89212620D01*
X170863354Y-89077913D01*
X170863350Y-89077906D01*
X170777190Y-88962812D01*
X170777187Y-88962809D01*
X170662093Y-88876649D01*
X170662086Y-88876645D01*
X170527379Y-88826403D01*
X170527372Y-88826401D01*
X170467844Y-88820000D01*
X169820000Y-88820000D01*
X169820000Y-89734498D01*
X169712315Y-89685320D01*
X169605763Y-89670000D01*
X169534237Y-89670000D01*
X169427685Y-89685320D01*
X169320000Y-89734498D01*
X169320000Y-88820000D01*
X168672155Y-88820000D01*
X168612627Y-88826401D01*
X168612620Y-88826403D01*
X168477913Y-88876645D01*
X168477906Y-88876649D01*
X168362812Y-88962809D01*
X168362809Y-88962812D01*
X168276649Y-89077906D01*
X168276645Y-89077913D01*
X168226403Y-89212620D01*
X168226401Y-89212627D01*
X168220000Y-89272155D01*
X168220000Y-89920000D01*
X169136314Y-89920000D01*
X169110507Y-89960156D01*
X169070000Y-90098111D01*
X169070000Y-90241889D01*
X169110507Y-90379844D01*
X169136314Y-90420000D01*
X168220000Y-90420000D01*
X168220000Y-91067844D01*
X168226401Y-91127372D01*
X168226403Y-91127382D01*
X168239575Y-91162697D01*
X168244559Y-91232388D01*
X168211073Y-91293711D01*
X168149750Y-91327195D01*
X168110791Y-91329387D01*
X168014018Y-91319500D01*
X168014009Y-91319500D01*
X168014007Y-91319500D01*
X164279782Y-91319500D01*
X164212743Y-91299815D01*
X164192101Y-91283181D01*
X163850819Y-90941899D01*
X163817334Y-90880576D01*
X163814500Y-90854218D01*
X163814500Y-90249969D01*
X163834185Y-90182930D01*
X163886989Y-90137175D01*
X163956147Y-90127231D01*
X163977492Y-90132260D01*
X164061203Y-90159999D01*
X164163991Y-90170500D01*
X164864008Y-90170499D01*
X164864016Y-90170498D01*
X164864019Y-90170498D01*
X164920302Y-90164748D01*
X164966797Y-90159999D01*
X165133334Y-90104814D01*
X165282656Y-90012712D01*
X165282661Y-90012706D01*
X165287497Y-90008884D01*
X165352293Y-89982745D01*
X165420935Y-89995787D01*
X165441317Y-90008886D01*
X165445653Y-90012314D01*
X165594875Y-90104356D01*
X165594880Y-90104358D01*
X165761302Y-90159505D01*
X165761309Y-90159506D01*
X165864019Y-90169999D01*
X165964000Y-90169998D01*
X165964000Y-87620000D01*
X166464000Y-87620000D01*
X166464000Y-90169999D01*
X166563972Y-90169999D01*
X166563986Y-90169998D01*
X166666697Y-90159505D01*
X166833119Y-90104358D01*
X166833124Y-90104356D01*
X166982345Y-90012315D01*
X167106315Y-89888345D01*
X167198356Y-89739124D01*
X167198358Y-89739119D01*
X167253505Y-89572697D01*
X167253506Y-89572690D01*
X167263999Y-89469986D01*
X167264000Y-89469973D01*
X167264000Y-87620000D01*
X166464000Y-87620000D01*
X165964000Y-87620000D01*
X165964000Y-84569999D01*
X165864028Y-84570000D01*
X165864012Y-84570001D01*
X165761302Y-84580494D01*
X165594880Y-84635641D01*
X165594875Y-84635643D01*
X165445649Y-84727687D01*
X165441305Y-84731122D01*
X165376507Y-84757255D01*
X165307866Y-84744207D01*
X165287497Y-84731116D01*
X165282660Y-84727292D01*
X165282656Y-84727288D01*
X165133334Y-84635186D01*
X164966797Y-84580001D01*
X164966795Y-84580000D01*
X164864010Y-84569500D01*
X164163998Y-84569500D01*
X164163980Y-84569501D01*
X164061203Y-84580000D01*
X164061200Y-84580001D01*
X163894668Y-84635185D01*
X163894663Y-84635187D01*
X163745342Y-84727289D01*
X163740909Y-84730795D01*
X163676113Y-84756934D01*
X163607471Y-84743892D01*
X163587091Y-84730795D01*
X163582657Y-84727289D01*
X163582656Y-84727288D01*
X163480730Y-84664420D01*
X163433336Y-84635187D01*
X163433331Y-84635185D01*
X163377942Y-84616831D01*
X163266797Y-84580001D01*
X163266795Y-84580000D01*
X163164016Y-84569500D01*
X162508780Y-84569500D01*
X162441741Y-84549815D01*
X162395986Y-84497011D01*
X162386042Y-84427853D01*
X162415067Y-84364297D01*
X162421084Y-84357834D01*
X162423308Y-84355610D01*
X162423313Y-84355607D01*
X162433516Y-84345402D01*
X162433519Y-84345402D01*
X162475251Y-84303668D01*
X162482122Y-84297301D01*
X162526895Y-84258866D01*
X162545520Y-84234802D01*
X162555880Y-84223039D01*
X163237239Y-83541680D01*
X163244123Y-83535300D01*
X163288895Y-83496866D01*
X163342501Y-83427611D01*
X163344355Y-83425278D01*
X163399698Y-83357407D01*
X163400509Y-83355852D01*
X163412374Y-83337345D01*
X163413448Y-83335958D01*
X163452030Y-83257300D01*
X163453367Y-83254661D01*
X163493909Y-83177049D01*
X163494393Y-83175354D01*
X163502284Y-83154852D01*
X163503060Y-83153271D01*
X163525006Y-83068505D01*
X163525789Y-83065629D01*
X163549887Y-82981418D01*
X163550020Y-82979660D01*
X163553623Y-82957984D01*
X163554063Y-82956285D01*
X163558495Y-82868862D01*
X163558688Y-82865827D01*
X163565337Y-82778523D01*
X163565115Y-82776779D01*
X163564279Y-82754830D01*
X163564369Y-82753064D01*
X163551121Y-82666594D01*
X163550687Y-82663499D01*
X163539630Y-82576672D01*
X163539059Y-82575001D01*
X163533821Y-82553657D01*
X163533556Y-82551931D01*
X163533556Y-82551929D01*
X163503149Y-82469828D01*
X163502123Y-82466945D01*
X163497950Y-82454737D01*
X163473816Y-82384128D01*
X163473811Y-82384120D01*
X163473809Y-82384115D01*
X163472919Y-82382602D01*
X163463497Y-82362763D01*
X163462886Y-82361114D01*
X163462885Y-82361112D01*
X163416579Y-82286821D01*
X163414977Y-82284175D01*
X163370592Y-82208774D01*
X163370590Y-82208772D01*
X163369407Y-82207462D01*
X163356185Y-82189925D01*
X163355254Y-82188432D01*
X163355255Y-82188432D01*
X163294963Y-82125005D01*
X163292864Y-82122741D01*
X163234179Y-82057786D01*
X163233670Y-82057412D01*
X163232751Y-82056737D01*
X163216276Y-82042227D01*
X163215062Y-82040950D01*
X163215061Y-82040949D01*
X163215059Y-82040947D01*
X163143190Y-81990924D01*
X163140727Y-81989162D01*
X163070167Y-81937351D01*
X163070160Y-81937347D01*
X163070157Y-81937346D01*
X163068558Y-81936611D01*
X163049496Y-81925711D01*
X163048059Y-81924711D01*
X163048052Y-81924707D01*
X163048049Y-81924705D01*
X163048045Y-81924703D01*
X163048041Y-81924701D01*
X162967625Y-81890191D01*
X162964755Y-81888917D01*
X162945000Y-81879840D01*
X162885269Y-81852395D01*
X162885267Y-81852394D01*
X162885266Y-81852394D01*
X162885262Y-81852393D01*
X162883542Y-81851994D01*
X162862687Y-81845158D01*
X162861062Y-81844461D01*
X162861058Y-81844460D01*
X162775343Y-81826844D01*
X162772279Y-81826174D01*
X162687060Y-81806398D01*
X162687056Y-81806397D01*
X162687054Y-81806397D01*
X162687052Y-81806396D01*
X162687045Y-81806396D01*
X162685256Y-81806351D01*
X162663482Y-81803857D01*
X162661748Y-81803500D01*
X162661741Y-81803500D01*
X162574279Y-81803500D01*
X162571137Y-81803460D01*
X162483639Y-81801242D01*
X162483638Y-81801242D01*
X162481895Y-81801555D01*
X162460021Y-81803500D01*
X159554758Y-81803500D01*
X159545344Y-81803142D01*
X159520392Y-81801242D01*
X159486524Y-81798663D01*
X159486523Y-81798663D01*
X159399719Y-81809717D01*
X159396601Y-81810074D01*
X159309559Y-81818926D01*
X159307874Y-81819455D01*
X159286432Y-81824145D01*
X159285764Y-81824230D01*
X159284670Y-81824370D01*
X159201866Y-81852673D01*
X159198883Y-81853651D01*
X159115413Y-81879840D01*
X159113857Y-81880704D01*
X159093814Y-81889607D01*
X159092131Y-81890182D01*
X159092123Y-81890186D01*
X159016747Y-81934557D01*
X159014022Y-81936115D01*
X158937498Y-81978590D01*
X158937491Y-81978595D01*
X158936138Y-81979757D01*
X158918302Y-81992509D01*
X158916777Y-81993406D01*
X158916771Y-81993411D01*
X158851857Y-82052058D01*
X158849519Y-82054117D01*
X158817235Y-82081834D01*
X158783099Y-82111139D01*
X158782016Y-82112539D01*
X158767104Y-82128630D01*
X158765789Y-82129817D01*
X158714013Y-82200327D01*
X158712122Y-82202835D01*
X158658551Y-82272042D01*
X158658548Y-82272047D01*
X158657768Y-82273638D01*
X158646400Y-82292403D01*
X158645351Y-82293830D01*
X158608829Y-82373315D01*
X158607484Y-82376147D01*
X158568941Y-82454725D01*
X158568937Y-82454737D01*
X158568492Y-82456456D01*
X158561138Y-82477112D01*
X158560400Y-82478718D01*
X158560393Y-82478736D01*
X158540613Y-82563970D01*
X158539865Y-82567016D01*
X158517936Y-82651713D01*
X158517936Y-82651718D01*
X158517846Y-82653490D01*
X158514801Y-82675201D01*
X158514396Y-82676943D01*
X158512180Y-82764439D01*
X158512061Y-82767577D01*
X158507631Y-82854935D01*
X158507632Y-82854949D01*
X158507899Y-82856693D01*
X158509288Y-82878579D01*
X158509243Y-82880358D01*
X158509243Y-82880367D01*
X158524680Y-82966499D01*
X158525195Y-82969594D01*
X158538443Y-83056070D01*
X158538444Y-83056074D01*
X158539058Y-83057730D01*
X158544829Y-83078907D01*
X158545141Y-83080651D01*
X158577597Y-83161904D01*
X158578725Y-83164836D01*
X158609109Y-83246877D01*
X158609111Y-83246881D01*
X158609112Y-83246884D01*
X158609114Y-83246887D01*
X158610054Y-83248396D01*
X158619965Y-83267970D01*
X158620623Y-83269618D01*
X158668759Y-83342657D01*
X158670453Y-83345300D01*
X158716743Y-83419564D01*
X158716745Y-83419567D01*
X158716748Y-83419571D01*
X158716751Y-83419574D01*
X158717969Y-83420856D01*
X158731622Y-83438039D01*
X158732595Y-83439516D01*
X158794450Y-83501371D01*
X158796643Y-83503620D01*
X158856941Y-83567053D01*
X158858387Y-83568059D01*
X158875234Y-83582155D01*
X159556449Y-84263370D01*
X159558642Y-84265619D01*
X159590848Y-84299500D01*
X159618941Y-84329053D01*
X159619758Y-84329622D01*
X159620389Y-84330061D01*
X159637237Y-84344157D01*
X159650899Y-84357819D01*
X159684384Y-84419142D01*
X159679400Y-84488834D01*
X159637528Y-84544767D01*
X159572064Y-84569184D01*
X159563218Y-84569500D01*
X159063998Y-84569500D01*
X159063980Y-84569501D01*
X158961203Y-84580000D01*
X158961200Y-84580001D01*
X158794668Y-84635185D01*
X158794663Y-84635187D01*
X158645342Y-84727289D01*
X158521288Y-84851343D01*
X158516807Y-84857011D01*
X158515064Y-84855633D01*
X158471127Y-84895128D01*
X158402161Y-84906329D01*
X158338088Y-84878465D01*
X158329891Y-84870971D01*
X158105567Y-84646647D01*
X158103374Y-84644398D01*
X158043061Y-84580949D01*
X158043060Y-84580948D01*
X158043059Y-84580947D01*
X157994640Y-84547246D01*
X157987120Y-84541575D01*
X157941413Y-84504305D01*
X157941406Y-84504301D01*
X157914441Y-84490216D01*
X157901026Y-84482089D01*
X157876049Y-84464705D01*
X157876046Y-84464703D01*
X157876045Y-84464703D01*
X157876041Y-84464701D01*
X157821845Y-84441443D01*
X157813336Y-84437402D01*
X157761057Y-84410094D01*
X157761046Y-84410090D01*
X157731806Y-84401723D01*
X157717021Y-84396459D01*
X157689058Y-84384459D01*
X157631273Y-84372583D01*
X157622127Y-84370338D01*
X157565423Y-84354113D01*
X157541699Y-84352306D01*
X157535072Y-84351801D01*
X157519533Y-84349622D01*
X157518506Y-84349411D01*
X157499002Y-84345403D01*
X157489742Y-84343500D01*
X157489741Y-84343500D01*
X157430759Y-84343500D01*
X157421344Y-84343142D01*
X157418643Y-84342936D01*
X157362524Y-84338662D01*
X157332349Y-84342506D01*
X157316682Y-84343500D01*
X156147863Y-84343500D01*
X156082586Y-84324927D01*
X155985404Y-84264754D01*
X155985398Y-84264752D01*
X155984714Y-84264487D01*
X155777940Y-84184382D01*
X155559243Y-84143500D01*
X155336757Y-84143500D01*
X155118060Y-84184382D01*
X155040650Y-84214371D01*
X154910601Y-84264752D01*
X154910600Y-84264752D01*
X154902522Y-84269754D01*
X154805337Y-84329927D01*
X154740062Y-84348500D01*
X153937863Y-84348500D01*
X153872586Y-84329927D01*
X153775404Y-84269754D01*
X153775398Y-84269752D01*
X153567940Y-84189382D01*
X153349243Y-84148500D01*
X153126757Y-84148500D01*
X152908060Y-84189382D01*
X152821202Y-84223031D01*
X152700601Y-84269752D01*
X152700595Y-84269754D01*
X152511439Y-84386874D01*
X152511437Y-84386876D01*
X152347020Y-84536761D01*
X152212943Y-84714308D01*
X152212938Y-84714316D01*
X152113775Y-84913461D01*
X152113769Y-84913476D01*
X152052885Y-85127462D01*
X152052884Y-85127464D01*
X152032357Y-85348999D01*
X152032357Y-85349000D01*
X152052884Y-85570535D01*
X152052885Y-85570537D01*
X152113769Y-85784523D01*
X152113775Y-85784538D01*
X152212938Y-85983683D01*
X152212943Y-85983691D01*
X152347020Y-86161238D01*
X152511437Y-86311123D01*
X152511439Y-86311125D01*
X152700595Y-86428245D01*
X152700596Y-86428245D01*
X152700599Y-86428247D01*
X152908060Y-86508618D01*
X153126757Y-86549500D01*
X153126759Y-86549500D01*
X153349241Y-86549500D01*
X153349243Y-86549500D01*
X153567940Y-86508618D01*
X153775401Y-86428247D01*
X153872586Y-86368073D01*
X153937863Y-86349500D01*
X154756212Y-86349500D01*
X154821489Y-86368073D01*
X154910595Y-86423245D01*
X154910596Y-86423245D01*
X154910599Y-86423247D01*
X155118060Y-86503618D01*
X155336757Y-86544500D01*
X155336759Y-86544500D01*
X155559241Y-86544500D01*
X155559243Y-86544500D01*
X155777940Y-86503618D01*
X155985401Y-86423247D01*
X156053925Y-86380819D01*
X156082586Y-86363073D01*
X156147863Y-86344500D01*
X156922217Y-86344500D01*
X156989256Y-86364185D01*
X157009898Y-86380819D01*
X158327181Y-87698102D01*
X158360666Y-87759425D01*
X158363500Y-87785783D01*
X158363500Y-89470001D01*
X158363501Y-89470018D01*
X158374000Y-89572796D01*
X158374001Y-89572799D01*
X158429185Y-89739331D01*
X158429187Y-89739336D01*
X158432710Y-89745048D01*
X158521288Y-89888656D01*
X158645344Y-90012712D01*
X158794666Y-90104814D01*
X158961203Y-90159999D01*
X159063991Y-90170500D01*
X159764008Y-90170499D01*
X159764016Y-90170498D01*
X159764019Y-90170498D01*
X159820302Y-90164748D01*
X159866797Y-90159999D01*
X160033334Y-90104814D01*
X160182656Y-90012712D01*
X160182664Y-90012703D01*
X160187085Y-90009209D01*
X160251879Y-89983066D01*
X160320522Y-89996103D01*
X160340915Y-90009209D01*
X160345339Y-90012707D01*
X160345344Y-90012712D01*
X160494666Y-90104814D01*
X160661203Y-90159999D01*
X160763991Y-90170500D01*
X161464008Y-90170499D01*
X161464016Y-90170498D01*
X161464019Y-90170498D01*
X161520302Y-90164748D01*
X161566797Y-90159999D01*
X161650498Y-90132262D01*
X161720323Y-90129861D01*
X161780365Y-90165592D01*
X161811558Y-90228112D01*
X161813500Y-90249969D01*
X161813500Y-90854217D01*
X161793815Y-90921256D01*
X161777181Y-90941898D01*
X161435898Y-91283181D01*
X161374575Y-91316666D01*
X161348217Y-91319500D01*
X159595398Y-91319500D01*
X159545588Y-91309056D01*
X159492887Y-91285939D01*
X159492872Y-91285934D01*
X159470113Y-91280170D01*
X159455487Y-91275485D01*
X159439962Y-91269427D01*
X159433614Y-91266951D01*
X159433611Y-91266950D01*
X159433607Y-91266949D01*
X159344793Y-91248325D01*
X159339803Y-91247171D01*
X159251820Y-91224891D01*
X159228421Y-91222952D01*
X159213223Y-91220738D01*
X159190237Y-91215919D01*
X159190234Y-91215918D01*
X159190235Y-91215918D01*
X159099558Y-91212168D01*
X159094448Y-91211851D01*
X159074484Y-91210197D01*
X159066067Y-91209500D01*
X159066065Y-91209500D01*
X159037596Y-91209500D01*
X159032472Y-91209394D01*
X158941780Y-91205642D01*
X158918473Y-91208548D01*
X158903136Y-91209500D01*
X157259596Y-91209500D01*
X157254472Y-91209394D01*
X157163780Y-91205642D01*
X157140473Y-91208548D01*
X157125136Y-91209500D01*
X156597672Y-91209500D01*
X156530633Y-91189815D01*
X156484878Y-91137011D01*
X156474934Y-91067853D01*
X156486672Y-91030228D01*
X156571760Y-90859349D01*
X156624495Y-90674000D01*
X155693581Y-90674000D01*
X155745060Y-90618079D01*
X155791982Y-90511108D01*
X155801628Y-90394698D01*
X155772953Y-90281462D01*
X155709064Y-90183673D01*
X155616885Y-90111928D01*
X155506405Y-90074000D01*
X155418995Y-90074000D01*
X155332784Y-90088386D01*
X155230053Y-90143981D01*
X155198000Y-90178799D01*
X155198000Y-89249946D01*
X155698000Y-89249946D01*
X155698000Y-90174000D01*
X156624495Y-90174000D01*
X156571760Y-89988650D01*
X156472631Y-89789574D01*
X156338608Y-89612099D01*
X156174261Y-89462278D01*
X155985179Y-89345202D01*
X155985177Y-89345201D01*
X155777799Y-89264864D01*
X155698000Y-89249946D01*
X155198000Y-89249946D01*
X155118200Y-89264864D01*
X154910822Y-89345201D01*
X154910820Y-89345202D01*
X154721738Y-89462278D01*
X154627092Y-89548559D01*
X154564288Y-89579176D01*
X154494901Y-89570978D01*
X154448935Y-89537067D01*
X154448193Y-89536191D01*
X154439002Y-89523865D01*
X154426166Y-89504218D01*
X154426165Y-89504217D01*
X154426164Y-89504215D01*
X154364693Y-89437440D01*
X154361322Y-89433623D01*
X154342902Y-89411874D01*
X154342894Y-89411866D01*
X154342889Y-89411860D01*
X154322772Y-89391744D01*
X154319222Y-89388044D01*
X154257747Y-89321265D01*
X154257742Y-89321260D01*
X154239211Y-89306837D01*
X154227693Y-89296665D01*
X154111334Y-89180306D01*
X154101162Y-89168788D01*
X154086740Y-89150259D01*
X154086738Y-89150256D01*
X154086734Y-89150252D01*
X154019954Y-89088776D01*
X154016254Y-89085226D01*
X153996133Y-89065104D01*
X153974387Y-89046686D01*
X153970546Y-89043294D01*
X153903786Y-88981837D01*
X153903785Y-88981836D01*
X153884123Y-88968990D01*
X153871811Y-88959808D01*
X153853894Y-88944634D01*
X153775891Y-88898153D01*
X153771583Y-88895464D01*
X153695604Y-88845824D01*
X153674109Y-88836396D01*
X153660447Y-88829364D01*
X153640275Y-88817344D01*
X153555727Y-88784353D01*
X153550995Y-88782393D01*
X153467877Y-88745935D01*
X153445113Y-88740170D01*
X153430487Y-88735485D01*
X153413837Y-88728989D01*
X153408614Y-88726951D01*
X153408611Y-88726950D01*
X153408607Y-88726949D01*
X153319793Y-88708325D01*
X153314803Y-88707171D01*
X153226820Y-88684891D01*
X153203421Y-88682952D01*
X153188223Y-88680738D01*
X153165237Y-88675919D01*
X153165234Y-88675918D01*
X153165235Y-88675918D01*
X153074558Y-88672168D01*
X153069448Y-88671851D01*
X153049484Y-88670197D01*
X153041067Y-88669500D01*
X153041065Y-88669500D01*
X153012596Y-88669500D01*
X153007472Y-88669394D01*
X152916780Y-88665642D01*
X152893473Y-88668548D01*
X152878136Y-88669500D01*
X151894074Y-88669500D01*
X151827035Y-88649815D01*
X151781280Y-88597011D01*
X151771336Y-88527853D01*
X151781692Y-88493095D01*
X151848265Y-88350326D01*
X151848269Y-88350317D01*
X151907139Y-88130610D01*
X151907141Y-88130599D01*
X151926966Y-87904002D01*
X151926966Y-87903997D01*
X151907141Y-87677400D01*
X151907139Y-87677389D01*
X151848269Y-87457682D01*
X151848264Y-87457668D01*
X151752136Y-87251521D01*
X151752132Y-87251513D01*
X151701025Y-87178526D01*
X151019953Y-87859597D01*
X151007165Y-87778852D01*
X150949641Y-87665955D01*
X150860045Y-87576359D01*
X150747148Y-87518835D01*
X150666401Y-87506046D01*
X151347472Y-86824974D01*
X151274478Y-86773863D01*
X151068331Y-86677735D01*
X151068317Y-86677730D01*
X150848610Y-86618860D01*
X150848599Y-86618858D01*
X150622002Y-86599034D01*
X150621998Y-86599034D01*
X150395400Y-86618858D01*
X150395389Y-86618860D01*
X150175682Y-86677730D01*
X150175673Y-86677734D01*
X149969516Y-86773866D01*
X149969512Y-86773868D01*
X149896526Y-86824973D01*
X149896526Y-86824974D01*
X150577599Y-87506046D01*
X150496852Y-87518835D01*
X150383955Y-87576359D01*
X150294359Y-87665955D01*
X150236835Y-87778852D01*
X150224046Y-87859598D01*
X149542974Y-87178526D01*
X149542973Y-87178526D01*
X149491868Y-87251512D01*
X149491866Y-87251516D01*
X149395734Y-87457673D01*
X149395730Y-87457682D01*
X149336860Y-87677389D01*
X149336858Y-87677400D01*
X149317034Y-87903997D01*
X149317034Y-87904002D01*
X149336858Y-88130599D01*
X149336860Y-88130610D01*
X149395730Y-88350317D01*
X149395734Y-88350326D01*
X149462308Y-88493095D01*
X149472800Y-88562173D01*
X149444280Y-88625957D01*
X149385804Y-88664196D01*
X149349926Y-88669500D01*
X145384000Y-88669500D01*
X145316961Y-88649815D01*
X145271206Y-88597011D01*
X145260000Y-88545500D01*
X145260000Y-86982000D01*
X141760001Y-86982000D01*
X141760001Y-88545500D01*
X141740316Y-88612539D01*
X141687512Y-88658294D01*
X141636001Y-88669500D01*
X135003662Y-88669500D01*
X134947292Y-88678905D01*
X134937127Y-88680172D01*
X134880184Y-88684891D01*
X134880176Y-88684892D01*
X134824787Y-88698918D01*
X134814762Y-88701020D01*
X134758382Y-88710429D01*
X134704319Y-88728989D01*
X134694500Y-88731912D01*
X134639122Y-88745936D01*
X134639107Y-88745941D01*
X134586789Y-88768890D01*
X134577243Y-88772615D01*
X134523197Y-88791169D01*
X134523183Y-88791175D01*
X134472928Y-88818372D01*
X134463722Y-88822873D01*
X134411394Y-88845826D01*
X134411390Y-88845828D01*
X134363562Y-88877075D01*
X134354764Y-88882318D01*
X134304486Y-88909528D01*
X134259396Y-88944623D01*
X134251059Y-88950576D01*
X134203217Y-88981833D01*
X134203215Y-88981835D01*
X134161176Y-89020535D01*
X134153358Y-89027156D01*
X134108259Y-89062258D01*
X134108257Y-89062260D01*
X134069550Y-89104307D01*
X134062307Y-89111550D01*
X134020260Y-89150257D01*
X134020258Y-89150259D01*
X133985156Y-89195358D01*
X133978535Y-89203176D01*
X133939835Y-89245215D01*
X133939833Y-89245217D01*
X133908576Y-89293059D01*
X133902623Y-89301396D01*
X133867528Y-89346486D01*
X133840318Y-89396764D01*
X133835075Y-89405562D01*
X133803828Y-89453390D01*
X133803826Y-89453394D01*
X133780873Y-89505722D01*
X133776372Y-89514928D01*
X133749175Y-89565183D01*
X133749169Y-89565197D01*
X133730615Y-89619243D01*
X133726890Y-89628789D01*
X133703941Y-89681107D01*
X133703936Y-89681122D01*
X133689912Y-89736500D01*
X133686989Y-89746319D01*
X133668429Y-89800382D01*
X133659020Y-89856762D01*
X133656918Y-89866787D01*
X133642892Y-89922176D01*
X133642891Y-89922184D01*
X133638172Y-89979127D01*
X133636905Y-89989292D01*
X133627500Y-90045662D01*
X133627500Y-92676402D01*
X133627394Y-92681526D01*
X133623642Y-92772219D01*
X133626548Y-92795526D01*
X133627500Y-92810863D01*
X133627500Y-93879136D01*
X133626548Y-93894472D01*
X133623643Y-93917779D01*
X133627394Y-94008472D01*
X133627500Y-94013596D01*
X133627500Y-95216402D01*
X133627394Y-95221526D01*
X133623642Y-95312219D01*
X133626548Y-95335526D01*
X133627500Y-95350863D01*
X133627500Y-95374336D01*
X133636905Y-95430705D01*
X133638172Y-95440871D01*
X133642890Y-95497813D01*
X133642893Y-95497831D01*
X133648654Y-95520579D01*
X133651495Y-95535675D01*
X133654400Y-95558979D01*
X133661101Y-95581485D01*
X133664565Y-95596458D01*
X133668429Y-95619616D01*
X133686982Y-95673659D01*
X133689906Y-95683480D01*
X133703934Y-95738872D01*
X133703937Y-95738883D01*
X133713369Y-95760387D01*
X133718655Y-95774806D01*
X133725357Y-95797315D01*
X133725358Y-95797319D01*
X133735666Y-95818404D01*
X133741546Y-95832598D01*
X133749171Y-95854808D01*
X133776376Y-95905079D01*
X133780877Y-95914286D01*
X133803824Y-95966602D01*
X133803825Y-95966604D01*
X133803827Y-95966607D01*
X133816666Y-95986259D01*
X133824255Y-95999614D01*
X133834571Y-96020716D01*
X133848218Y-96039830D01*
X133856349Y-96052856D01*
X133867524Y-96073506D01*
X133867526Y-96073510D01*
X133902625Y-96118605D01*
X133908578Y-96126943D01*
X133939835Y-96174784D01*
X133939837Y-96174786D01*
X133955738Y-96192059D01*
X133965425Y-96203989D01*
X133979066Y-96223095D01*
X133979067Y-96223096D01*
X133995664Y-96239692D01*
X134005836Y-96251210D01*
X134020262Y-96269744D01*
X134020264Y-96269746D01*
X134020265Y-96269747D01*
X134062304Y-96308447D01*
X134069543Y-96315685D01*
X134097117Y-96345638D01*
X134108253Y-96357735D01*
X134108260Y-96357742D01*
X134126788Y-96372163D01*
X134138305Y-96382334D01*
X134154898Y-96398927D01*
X134154901Y-96398929D01*
X134154904Y-96398932D01*
X134174014Y-96412576D01*
X134185938Y-96422259D01*
X134203215Y-96438164D01*
X134203217Y-96438165D01*
X134251050Y-96469416D01*
X134259392Y-96475372D01*
X134308539Y-96513625D01*
X134307857Y-96514500D01*
X134349694Y-96563510D01*
X134359126Y-96632740D01*
X134329632Y-96696079D01*
X134307646Y-96715760D01*
X134256598Y-96751504D01*
X134089505Y-96918597D01*
X133953965Y-97112169D01*
X133953964Y-97112171D01*
X133854098Y-97326335D01*
X133854094Y-97326344D01*
X133792938Y-97554586D01*
X133792936Y-97554596D01*
X133772341Y-97789999D01*
X133772341Y-97790000D01*
X133792936Y-98025403D01*
X133792938Y-98025413D01*
X133854094Y-98253655D01*
X133854096Y-98253659D01*
X133854097Y-98253663D01*
X133904492Y-98361735D01*
X133953965Y-98467830D01*
X133953968Y-98467834D01*
X134000049Y-98533646D01*
X134022376Y-98599852D01*
X134005366Y-98667620D01*
X133965515Y-98709084D01*
X133926084Y-98734425D01*
X133875293Y-98778435D01*
X133868403Y-98783987D01*
X133814609Y-98824257D01*
X133814594Y-98824270D01*
X133767083Y-98871782D01*
X133760605Y-98877814D01*
X133709822Y-98921817D01*
X133665808Y-98972610D01*
X133659780Y-98979085D01*
X133612262Y-99026604D01*
X133612254Y-99026613D01*
X133573766Y-99078027D01*
X133517832Y-99119897D01*
X133448141Y-99124881D01*
X133386818Y-99091395D01*
X133353333Y-99030072D01*
X133350500Y-99003715D01*
X133350500Y-87453231D01*
X133370185Y-87386192D01*
X133422989Y-87340437D01*
X133492147Y-87330493D01*
X133555703Y-87359518D01*
X133576552Y-87384773D01*
X133577458Y-87384163D01*
X133579877Y-87387750D01*
X133579879Y-87387753D01*
X133740238Y-87625496D01*
X133786963Y-87677389D01*
X133932120Y-87838603D01*
X133932127Y-87838610D01*
X134151797Y-88022936D01*
X134378994Y-88164905D01*
X134394998Y-88174905D01*
X134513800Y-88227799D01*
X134656962Y-88291540D01*
X134656967Y-88291541D01*
X134656975Y-88291545D01*
X134932636Y-88370589D01*
X134932641Y-88370589D01*
X134932646Y-88370591D01*
X135121955Y-88397196D01*
X135216610Y-88410499D01*
X135216612Y-88410500D01*
X135216615Y-88410500D01*
X135431592Y-88410500D01*
X135431604Y-88410500D01*
X135646071Y-88395503D01*
X135646076Y-88395502D01*
X135646078Y-88395502D01*
X135767663Y-88369657D01*
X135926575Y-88335880D01*
X136196050Y-88237799D01*
X136449253Y-88103169D01*
X136681254Y-87934610D01*
X136887539Y-87735403D01*
X137064093Y-87509425D01*
X137207477Y-87261075D01*
X137314903Y-86995187D01*
X137384279Y-86716935D01*
X137408972Y-86482000D01*
X141760000Y-86482000D01*
X143260000Y-86482000D01*
X143260000Y-84032000D01*
X143760000Y-84032000D01*
X143760000Y-86482000D01*
X145259999Y-86482000D01*
X145259999Y-84732028D01*
X145259998Y-84732013D01*
X145249505Y-84629302D01*
X145194358Y-84462880D01*
X145194356Y-84462875D01*
X145102315Y-84313654D01*
X144978345Y-84189684D01*
X144829124Y-84097643D01*
X144829119Y-84097641D01*
X144662697Y-84042494D01*
X144662690Y-84042493D01*
X144559986Y-84032000D01*
X143760000Y-84032000D01*
X143260000Y-84032000D01*
X142460028Y-84032000D01*
X142460012Y-84032001D01*
X142357302Y-84042494D01*
X142190880Y-84097641D01*
X142190875Y-84097643D01*
X142041654Y-84189684D01*
X141917684Y-84313654D01*
X141825643Y-84462875D01*
X141825641Y-84462880D01*
X141770494Y-84629302D01*
X141770493Y-84629309D01*
X141760000Y-84732013D01*
X141760000Y-86482000D01*
X137408972Y-86482000D01*
X137414255Y-86431736D01*
X137414133Y-86428247D01*
X137404247Y-86145144D01*
X137404246Y-86145137D01*
X137354450Y-85862728D01*
X137265833Y-85589994D01*
X137260956Y-85579994D01*
X137140125Y-85332254D01*
X137140123Y-85332251D01*
X137140121Y-85332247D01*
X136979762Y-85094504D01*
X136816750Y-84913461D01*
X136787879Y-84881396D01*
X136787872Y-84881389D01*
X136568202Y-84697063D01*
X136325006Y-84545097D01*
X136325004Y-84545096D01*
X136063037Y-84428459D01*
X136063027Y-84428456D01*
X136063025Y-84428455D01*
X135787364Y-84349411D01*
X135787362Y-84349410D01*
X135787353Y-84349408D01*
X135503389Y-84309500D01*
X135503385Y-84309500D01*
X135288396Y-84309500D01*
X135288383Y-84309500D01*
X135073925Y-84324497D01*
X135073921Y-84324497D01*
X134827925Y-84376786D01*
X134758258Y-84371470D01*
X134702524Y-84329333D01*
X134678419Y-84263753D01*
X134693596Y-84195552D01*
X134714459Y-84167819D01*
X136761925Y-82120354D01*
X136766253Y-82116233D01*
X136768232Y-82114439D01*
X136768266Y-82114408D01*
X136804028Y-82082450D01*
X136804723Y-82081834D01*
X136910127Y-81989401D01*
X136913199Y-81986796D01*
X136957745Y-81950239D01*
X136964566Y-81945030D01*
X137026250Y-81901264D01*
X137028862Y-81899466D01*
X137122288Y-81837043D01*
X137125620Y-81834895D01*
X137157822Y-81814871D01*
X137163208Y-81811711D01*
X137239182Y-81769723D01*
X137244295Y-81767052D01*
X137352474Y-81713707D01*
X137356084Y-81711998D01*
X137370361Y-81705530D01*
X137373870Y-81704008D01*
X137455042Y-81670388D01*
X137458634Y-81668968D01*
X137473277Y-81663458D01*
X137476980Y-81662132D01*
X137591305Y-81623326D01*
X137596727Y-81621626D01*
X137680138Y-81597597D01*
X137686198Y-81596019D01*
X137723167Y-81587399D01*
X137726993Y-81586573D01*
X137837194Y-81564655D01*
X137840425Y-81564059D01*
X137914931Y-81551401D01*
X137923451Y-81550259D01*
X137980725Y-81544615D01*
X137984697Y-81544288D01*
X138122460Y-81535246D01*
X138123153Y-81535204D01*
X138175464Y-81532267D01*
X138182390Y-81532073D01*
X166517815Y-81532073D01*
X166523836Y-81532220D01*
G37*
%TD.AperFunction*%
%TA.AperFunction,Conductor*%
G36*
X169820000Y-107514498D02*
G01*
X169712315Y-107465320D01*
X169605763Y-107450000D01*
X169534237Y-107450000D01*
X169427685Y-107465320D01*
X169320000Y-107514498D01*
X169320000Y-105845501D01*
X169427685Y-105894680D01*
X169534237Y-105910000D01*
X169605763Y-105910000D01*
X169712315Y-105894680D01*
X169820000Y-105845501D01*
X169820000Y-107514498D01*
G37*
%TD.AperFunction*%
%TA.AperFunction,Conductor*%
G36*
X169820000Y-104974498D02*
G01*
X169712315Y-104925320D01*
X169605763Y-104910000D01*
X169534237Y-104910000D01*
X169427685Y-104925320D01*
X169320000Y-104974498D01*
X169320000Y-103305501D01*
X169427685Y-103354680D01*
X169534237Y-103370000D01*
X169605763Y-103370000D01*
X169712315Y-103354680D01*
X169820000Y-103305501D01*
X169820000Y-104974498D01*
G37*
%TD.AperFunction*%
%TA.AperFunction,Conductor*%
G36*
X169820000Y-102434498D02*
G01*
X169712315Y-102385320D01*
X169605763Y-102370000D01*
X169534237Y-102370000D01*
X169427685Y-102385320D01*
X169320000Y-102434498D01*
X169320000Y-100765501D01*
X169427685Y-100814680D01*
X169534237Y-100830000D01*
X169605763Y-100830000D01*
X169712315Y-100814680D01*
X169820000Y-100765501D01*
X169820000Y-102434498D01*
G37*
%TD.AperFunction*%
%TA.AperFunction,Conductor*%
G36*
X169820000Y-99894498D02*
G01*
X169712315Y-99845320D01*
X169605763Y-99830000D01*
X169534237Y-99830000D01*
X169427685Y-99845320D01*
X169320000Y-99894498D01*
X169320000Y-98225501D01*
X169427685Y-98274680D01*
X169534237Y-98290000D01*
X169605763Y-98290000D01*
X169712315Y-98274680D01*
X169820000Y-98225501D01*
X169820000Y-99894498D01*
G37*
%TD.AperFunction*%
%TA.AperFunction,Conductor*%
G36*
X169820000Y-97354498D02*
G01*
X169712315Y-97305320D01*
X169605763Y-97290000D01*
X169534237Y-97290000D01*
X169427685Y-97305320D01*
X169320000Y-97354498D01*
X169320000Y-95685501D01*
X169427685Y-95734680D01*
X169534237Y-95750000D01*
X169605763Y-95750000D01*
X169712315Y-95734680D01*
X169820000Y-95685501D01*
X169820000Y-97354498D01*
G37*
%TD.AperFunction*%
%TA.AperFunction,Conductor*%
G36*
X169820000Y-94814498D02*
G01*
X169712315Y-94765320D01*
X169605763Y-94750000D01*
X169534237Y-94750000D01*
X169427685Y-94765320D01*
X169320000Y-94814498D01*
X169320000Y-93145501D01*
X169427685Y-93194680D01*
X169534237Y-93210000D01*
X169605763Y-93210000D01*
X169712315Y-93194680D01*
X169820000Y-93145501D01*
X169820000Y-94814498D01*
G37*
%TD.AperFunction*%
%TA.AperFunction,Conductor*%
G36*
X169820000Y-92274498D02*
G01*
X169712315Y-92225320D01*
X169605763Y-92210000D01*
X169534237Y-92210000D01*
X169427685Y-92225320D01*
X169320000Y-92274498D01*
X169320000Y-90605501D01*
X169427685Y-90654680D01*
X169534237Y-90670000D01*
X169605763Y-90670000D01*
X169712315Y-90654680D01*
X169820000Y-90605501D01*
X169820000Y-92274498D01*
G37*
%TD.AperFunction*%
%TD*%
M02*
