%TF.GenerationSoftware,KiCad,Pcbnew,7.0.11*%
%TF.CreationDate,2025-01-11T05:46:01+09:00*%
%TF.ProjectId,VoltageBooster,566f6c74-6167-4654-926f-6f737465722e,rev?*%
%TF.SameCoordinates,Original*%
%TF.FileFunction,Profile,NP*%
%FSLAX46Y46*%
G04 Gerber Fmt 4.6, Leading zero omitted, Abs format (unit mm)*
G04 Created by KiCad (PCBNEW 7.0.11) date 2025-01-11 05:46:01*
%MOMM*%
%LPD*%
G01*
G04 APERTURE LIST*
%TA.AperFunction,Profile*%
%ADD10C,0.200000*%
%TD*%
G04 APERTURE END LIST*
D10*
X171350000Y-116732584D02*
X171350000Y-86360000D01*
X170450000Y-116732584D02*
G75*
G03*
X168250000Y-116732584I-1100000J0D01*
G01*
X168250000Y-116732584D02*
G75*
G03*
X170450000Y-116732584I1100000J0D01*
G01*
X136764213Y-82117360D02*
X133935786Y-84945787D01*
X167350032Y-116745168D02*
G75*
G03*
X169125996Y-118732584I1999968J-32D01*
G01*
X171349999Y-86360000D02*
G75*
G03*
X170764213Y-84945788I-1999999J0D01*
G01*
X158350000Y-101745168D02*
X166350000Y-101745168D01*
X155350000Y-111745200D02*
G75*
G03*
X157350000Y-109745168I0J2000000D01*
G01*
X138178427Y-81531601D02*
G75*
G03*
X136764214Y-82117361I-27J-1999999D01*
G01*
X166521573Y-81531573D02*
X138178427Y-81531573D01*
X133350000Y-86360000D02*
X133350000Y-116732584D01*
X149350000Y-118732600D02*
G75*
G03*
X151350000Y-116732584I0J2000000D01*
G01*
X170764214Y-84945787D02*
X167935787Y-82117360D01*
X170450000Y-86360000D02*
G75*
G03*
X168250000Y-86360000I-1100000J0D01*
G01*
X168250000Y-86360000D02*
G75*
G03*
X170450000Y-86360000I1100000J0D01*
G01*
X169125996Y-118732584D02*
X169350000Y-118732584D01*
X167350032Y-102745168D02*
G75*
G03*
X166350000Y-101745168I-1000032J-32D01*
G01*
X169350000Y-118732600D02*
G75*
G03*
X171350000Y-116732584I0J2000000D01*
G01*
X133935786Y-84945787D02*
G75*
G03*
X133350000Y-86360000I1414214J-1414213D01*
G01*
X167935806Y-82117341D02*
G75*
G03*
X166521573Y-81531573I-1414206J-1414259D01*
G01*
X167350000Y-102745168D02*
X167350000Y-116745168D01*
X136450000Y-86360000D02*
G75*
G03*
X134250000Y-86360000I-1100000J0D01*
G01*
X134250000Y-86360000D02*
G75*
G03*
X136450000Y-86360000I1100000J0D01*
G01*
X153350000Y-111745168D02*
X155350000Y-111745168D01*
X151350000Y-116732584D02*
X151350000Y-113745168D01*
X157350000Y-109745168D02*
X157350000Y-102745168D01*
X135350000Y-118732584D02*
X149350000Y-118732584D01*
X133350016Y-116732584D02*
G75*
G03*
X135350000Y-118732584I1999984J-16D01*
G01*
X158350000Y-101745200D02*
G75*
G03*
X157350000Y-102745168I0J-1000000D01*
G01*
X136450000Y-116732584D02*
G75*
G03*
X134250000Y-116732584I-1100000J0D01*
G01*
X134250000Y-116732584D02*
G75*
G03*
X136450000Y-116732584I1100000J0D01*
G01*
X153350000Y-111745200D02*
G75*
G03*
X151350000Y-113745168I0J-2000000D01*
G01*
M02*
