%TF.GenerationSoftware,KiCad,Pcbnew,7.0.11*%
%TF.CreationDate,2025-01-11T05:46:01+09:00*%
%TF.ProjectId,VoltageBooster,566f6c74-6167-4654-926f-6f737465722e,rev?*%
%TF.SameCoordinates,Original*%
%TF.FileFunction,Copper,L2,Bot*%
%TF.FilePolarity,Positive*%
%FSLAX46Y46*%
G04 Gerber Fmt 4.6, Leading zero omitted, Abs format (unit mm)*
G04 Created by KiCad (PCBNEW 7.0.11) date 2025-01-11 05:46:01*
%MOMM*%
%LPD*%
G01*
G04 APERTURE LIST*
%TA.AperFunction,ComponentPad*%
%ADD10C,1.400000*%
%TD*%
%TA.AperFunction,ComponentPad*%
%ADD11O,1.400000X1.400000*%
%TD*%
%TA.AperFunction,ComponentPad*%
%ADD12R,1.700000X1.700000*%
%TD*%
%TA.AperFunction,ComponentPad*%
%ADD13O,1.700000X1.700000*%
%TD*%
%TA.AperFunction,ComponentPad*%
%ADD14C,1.600000*%
%TD*%
%TA.AperFunction,ViaPad*%
%ADD15C,0.800000*%
%TD*%
%TA.AperFunction,Conductor*%
%ADD16C,2.000000*%
%TD*%
G04 APERTURE END LIST*
D10*
%TO.P,R2,1*%
%TO.N,Net-(VR1-FB)*%
X155448000Y-85344000D03*
D11*
%TO.P,R2,2*%
%TO.N,GND*%
X155448000Y-90424000D03*
%TD*%
D12*
%TO.P,J2,1,Pin_1*%
%TO.N,+12V*%
X135128000Y-107950000D03*
D13*
%TO.P,J2,2,Pin_2*%
X135128000Y-105410000D03*
%TO.P,J2,3,Pin_3*%
X135128000Y-102870000D03*
%TO.P,J2,4,Pin_4*%
X135128000Y-100330000D03*
%TO.P,J2,5,Pin_5*%
%TO.N,unconnected-(J2-Pin_5-Pad5)*%
X135128000Y-97790000D03*
%TO.P,J2,6,Pin_6*%
%TO.N,+48V*%
X135128000Y-95250000D03*
%TO.P,J2,7,Pin_7*%
X135128000Y-92710000D03*
%TO.P,J2,8,Pin_8*%
X135128000Y-90170000D03*
%TD*%
D14*
%TO.P,C3,1*%
%TO.N,+48V*%
X150622000Y-90404000D03*
%TO.P,C3,2*%
%TO.N,GND*%
X150622000Y-87904000D03*
%TD*%
D12*
%TO.P,J1,1,Pin_1*%
%TO.N,GND*%
X169570000Y-90170000D03*
D13*
%TO.P,J1,2,Pin_2*%
X169570000Y-92710000D03*
%TO.P,J1,3,Pin_3*%
X169570000Y-95250000D03*
%TO.P,J1,4,Pin_4*%
X169570000Y-97790000D03*
%TO.P,J1,5,Pin_5*%
X169570000Y-100330000D03*
%TO.P,J1,6,Pin_6*%
X169570000Y-102870000D03*
%TO.P,J1,7,Pin_7*%
X169570000Y-105410000D03*
%TO.P,J1,8,Pin_8*%
X169570000Y-107950000D03*
%TD*%
D14*
%TO.P,C2,1*%
%TO.N,+12V*%
X142240000Y-102088000D03*
%TO.P,C2,2*%
%TO.N,GND*%
X142240000Y-99588000D03*
%TD*%
D10*
%TO.P,R1,1*%
%TO.N,+48V*%
X153238000Y-90429000D03*
D11*
%TO.P,R1,2*%
%TO.N,Net-(VR1-FB)*%
X153238000Y-85349000D03*
%TD*%
D15*
%TO.N,GND*%
X147066000Y-112522000D03*
X141986000Y-112522000D03*
X169310000Y-111980000D03*
X170670000Y-110020000D03*
X170760000Y-114310000D03*
X167890000Y-114290000D03*
X167900000Y-109260000D03*
X167770000Y-102190000D03*
X164230000Y-84090000D03*
X164460000Y-82140000D03*
X168630000Y-83710000D03*
X170860000Y-88460000D03*
X167790000Y-88670000D03*
X167560000Y-90700000D03*
X164440000Y-90710000D03*
X157820000Y-87990000D03*
X157260000Y-90440000D03*
X161130000Y-90730000D03*
X155420000Y-87820000D03*
X153210000Y-87810000D03*
X151340000Y-86000000D03*
X143530000Y-83230000D03*
X140890000Y-86760000D03*
X137710000Y-88100000D03*
X137970000Y-82930000D03*
X148990000Y-82210000D03*
X145780000Y-88030000D03*
X145000000Y-99320000D03*
X140180000Y-99430000D03*
X137200000Y-98610000D03*
X145542000Y-109728000D03*
X150114000Y-109590000D03*
X149880000Y-98540000D03*
X151420000Y-104570000D03*
X151560000Y-99780000D03*
X155370000Y-109760000D03*
X150622000Y-114554000D03*
X138040000Y-118030000D03*
X141900000Y-109590000D03*
X138030000Y-109690000D03*
X133940000Y-110310000D03*
%TO.N,+12V*%
X161074000Y-82804000D03*
X162560000Y-82804000D03*
X147828000Y-105410000D03*
X147828000Y-103886000D03*
X147828000Y-102362000D03*
X147828000Y-107188000D03*
X159512000Y-82804000D03*
%TD*%
D16*
%TO.N,+12V*%
X161074000Y-82804000D02*
X162560000Y-82804000D01*
X161074000Y-82804000D02*
X157988000Y-82804000D01*
X157988000Y-82804000D02*
X159512000Y-82804000D01*
X151384000Y-82804000D02*
X157988000Y-82804000D01*
X147828000Y-102362000D02*
X147828000Y-86360000D01*
X147828000Y-86360000D02*
X151384000Y-82804000D01*
X147828000Y-107188000D02*
X147828000Y-102362000D01*
%TD*%
%TA.AperFunction,Conductor*%
%TO.N,GND*%
G36*
X169820000Y-107514498D02*
G01*
X169712315Y-107465320D01*
X169605763Y-107450000D01*
X169534237Y-107450000D01*
X169427685Y-107465320D01*
X169320000Y-107514498D01*
X169320000Y-105845501D01*
X169427685Y-105894680D01*
X169534237Y-105910000D01*
X169605763Y-105910000D01*
X169712315Y-105894680D01*
X169820000Y-105845501D01*
X169820000Y-107514498D01*
G37*
%TD.AperFunction*%
%TA.AperFunction,Conductor*%
G36*
X169820000Y-104974498D02*
G01*
X169712315Y-104925320D01*
X169605763Y-104910000D01*
X169534237Y-104910000D01*
X169427685Y-104925320D01*
X169320000Y-104974498D01*
X169320000Y-103305501D01*
X169427685Y-103354680D01*
X169534237Y-103370000D01*
X169605763Y-103370000D01*
X169712315Y-103354680D01*
X169820000Y-103305501D01*
X169820000Y-104974498D01*
G37*
%TD.AperFunction*%
%TA.AperFunction,Conductor*%
G36*
X169820000Y-102434498D02*
G01*
X169712315Y-102385320D01*
X169605763Y-102370000D01*
X169534237Y-102370000D01*
X169427685Y-102385320D01*
X169320000Y-102434498D01*
X169320000Y-100765501D01*
X169427685Y-100814680D01*
X169534237Y-100830000D01*
X169605763Y-100830000D01*
X169712315Y-100814680D01*
X169820000Y-100765501D01*
X169820000Y-102434498D01*
G37*
%TD.AperFunction*%
%TA.AperFunction,Conductor*%
G36*
X169820000Y-99894498D02*
G01*
X169712315Y-99845320D01*
X169605763Y-99830000D01*
X169534237Y-99830000D01*
X169427685Y-99845320D01*
X169320000Y-99894498D01*
X169320000Y-98225501D01*
X169427685Y-98274680D01*
X169534237Y-98290000D01*
X169605763Y-98290000D01*
X169712315Y-98274680D01*
X169820000Y-98225501D01*
X169820000Y-99894498D01*
G37*
%TD.AperFunction*%
%TA.AperFunction,Conductor*%
G36*
X169820000Y-97354498D02*
G01*
X169712315Y-97305320D01*
X169605763Y-97290000D01*
X169534237Y-97290000D01*
X169427685Y-97305320D01*
X169320000Y-97354498D01*
X169320000Y-95685501D01*
X169427685Y-95734680D01*
X169534237Y-95750000D01*
X169605763Y-95750000D01*
X169712315Y-95734680D01*
X169820000Y-95685501D01*
X169820000Y-97354498D01*
G37*
%TD.AperFunction*%
%TA.AperFunction,Conductor*%
G36*
X169820000Y-94814498D02*
G01*
X169712315Y-94765320D01*
X169605763Y-94750000D01*
X169534237Y-94750000D01*
X169427685Y-94765320D01*
X169320000Y-94814498D01*
X169320000Y-93145501D01*
X169427685Y-93194680D01*
X169534237Y-93210000D01*
X169605763Y-93210000D01*
X169712315Y-93194680D01*
X169820000Y-93145501D01*
X169820000Y-94814498D01*
G37*
%TD.AperFunction*%
%TA.AperFunction,Conductor*%
G36*
X169820000Y-92274498D02*
G01*
X169712315Y-92225320D01*
X169605763Y-92210000D01*
X169534237Y-92210000D01*
X169427685Y-92225320D01*
X169320000Y-92274498D01*
X169320000Y-90605501D01*
X169427685Y-90654680D01*
X169534237Y-90670000D01*
X169605763Y-90670000D01*
X169712315Y-90654680D01*
X169820000Y-90605501D01*
X169820000Y-92274498D01*
G37*
%TD.AperFunction*%
%TA.AperFunction,Conductor*%
G36*
X150299459Y-81551758D02*
G01*
X150345214Y-81604562D01*
X150355158Y-81673720D01*
X150326133Y-81737276D01*
X150316404Y-81747301D01*
X150276267Y-81784250D01*
X150276255Y-81784263D01*
X150261833Y-81802792D01*
X150251664Y-81814307D01*
X146838306Y-85227664D01*
X146826794Y-85237832D01*
X146808255Y-85252262D01*
X146746776Y-85319045D01*
X146743231Y-85322739D01*
X146723104Y-85342865D01*
X146723094Y-85342877D01*
X146704689Y-85364608D01*
X146701298Y-85368448D01*
X146639838Y-85435211D01*
X146639835Y-85435214D01*
X146626994Y-85454870D01*
X146617813Y-85467183D01*
X146602635Y-85485104D01*
X146556174Y-85563074D01*
X146553462Y-85567417D01*
X146503829Y-85643389D01*
X146503824Y-85643397D01*
X146494397Y-85664889D01*
X146487367Y-85678546D01*
X146475348Y-85698716D01*
X146475343Y-85698726D01*
X146442347Y-85783288D01*
X146440386Y-85788021D01*
X146403937Y-85871118D01*
X146403935Y-85871123D01*
X146398169Y-85893890D01*
X146393484Y-85908515D01*
X146384953Y-85930379D01*
X146384948Y-85930395D01*
X146366324Y-86019211D01*
X146365170Y-86024201D01*
X146342892Y-86112175D01*
X146342890Y-86112186D01*
X146340952Y-86135577D01*
X146338737Y-86150778D01*
X146333920Y-86173750D01*
X146333919Y-86173763D01*
X146330168Y-86264440D01*
X146329851Y-86269550D01*
X146327500Y-86297934D01*
X146327500Y-86326402D01*
X146327394Y-86331526D01*
X146323642Y-86422219D01*
X146326548Y-86445526D01*
X146327500Y-86460863D01*
X146327500Y-107250077D01*
X146342890Y-107435813D01*
X146342892Y-107435824D01*
X146403936Y-107676881D01*
X146503826Y-107904606D01*
X146639833Y-108112782D01*
X146639836Y-108112785D01*
X146808256Y-108295738D01*
X147004491Y-108448474D01*
X147223190Y-108566828D01*
X147458386Y-108647571D01*
X147703665Y-108688500D01*
X147952335Y-108688500D01*
X148197614Y-108647571D01*
X148432810Y-108566828D01*
X148651509Y-108448474D01*
X148847744Y-108295738D01*
X149016164Y-108112785D01*
X149152173Y-107904607D01*
X149252063Y-107676881D01*
X149313108Y-107435821D01*
X149328500Y-107250067D01*
X149328500Y-102299933D01*
X149328500Y-91217321D01*
X149348185Y-91150282D01*
X149400989Y-91104527D01*
X149470147Y-91094583D01*
X149533703Y-91123608D01*
X149554074Y-91146196D01*
X149576843Y-91178715D01*
X149621954Y-91243141D01*
X149782858Y-91404045D01*
X149782861Y-91404047D01*
X149969266Y-91534568D01*
X150175504Y-91630739D01*
X150395308Y-91689635D01*
X150557230Y-91703801D01*
X150621998Y-91709468D01*
X150622000Y-91709468D01*
X150622002Y-91709468D01*
X150678673Y-91704509D01*
X150848692Y-91689635D01*
X151068496Y-91630739D01*
X151274734Y-91534568D01*
X151461139Y-91404047D01*
X151622047Y-91243139D01*
X151752568Y-91056734D01*
X151848739Y-90850496D01*
X151849453Y-90847834D01*
X151859154Y-90811627D01*
X151895518Y-90751966D01*
X151958365Y-90721436D01*
X152027740Y-90729730D01*
X152081619Y-90774215D01*
X152098195Y-90809784D01*
X152113770Y-90864525D01*
X152113775Y-90864538D01*
X152212938Y-91063683D01*
X152212943Y-91063691D01*
X152347020Y-91241238D01*
X152511437Y-91391123D01*
X152511439Y-91391125D01*
X152700595Y-91508245D01*
X152700596Y-91508245D01*
X152700599Y-91508247D01*
X152908060Y-91588618D01*
X153126757Y-91629500D01*
X153126759Y-91629500D01*
X153349241Y-91629500D01*
X153349243Y-91629500D01*
X153567940Y-91588618D01*
X153775401Y-91508247D01*
X153964562Y-91391124D01*
X154128981Y-91241236D01*
X154246248Y-91085948D01*
X154302354Y-91044315D01*
X154372066Y-91039622D01*
X154433248Y-91073364D01*
X154444154Y-91085950D01*
X154557391Y-91235900D01*
X154721738Y-91385721D01*
X154910820Y-91502797D01*
X154910822Y-91502798D01*
X155118195Y-91583135D01*
X155198000Y-91598052D01*
X155198000Y-90672938D01*
X155279115Y-90736072D01*
X155389595Y-90774000D01*
X155477005Y-90774000D01*
X155563216Y-90759614D01*
X155665947Y-90704019D01*
X155693581Y-90674000D01*
X155698000Y-90674000D01*
X155698000Y-91598052D01*
X155777804Y-91583135D01*
X155985177Y-91502798D01*
X155985179Y-91502797D01*
X156174261Y-91385721D01*
X156338608Y-91235900D01*
X156465518Y-91067844D01*
X168220000Y-91067844D01*
X168226401Y-91127372D01*
X168226403Y-91127379D01*
X168276645Y-91262086D01*
X168276649Y-91262093D01*
X168362809Y-91377187D01*
X168362812Y-91377190D01*
X168477906Y-91463350D01*
X168477913Y-91463354D01*
X168609986Y-91512614D01*
X168665920Y-91554485D01*
X168690337Y-91619949D01*
X168675486Y-91688222D01*
X168654335Y-91716477D01*
X168531886Y-91838926D01*
X168396400Y-92032420D01*
X168396399Y-92032422D01*
X168296570Y-92246507D01*
X168296567Y-92246513D01*
X168239364Y-92459999D01*
X168239364Y-92460000D01*
X169136314Y-92460000D01*
X169110507Y-92500156D01*
X169070000Y-92638111D01*
X169070000Y-92781889D01*
X169110507Y-92919844D01*
X169136314Y-92960000D01*
X168239364Y-92960000D01*
X168296567Y-93173486D01*
X168296570Y-93173492D01*
X168396399Y-93387578D01*
X168531894Y-93581082D01*
X168698917Y-93748105D01*
X168885031Y-93878425D01*
X168928656Y-93933003D01*
X168935848Y-94002501D01*
X168904326Y-94064856D01*
X168885031Y-94081575D01*
X168698922Y-94211890D01*
X168698920Y-94211891D01*
X168531891Y-94378920D01*
X168531886Y-94378926D01*
X168396400Y-94572420D01*
X168396399Y-94572422D01*
X168296570Y-94786507D01*
X168296567Y-94786513D01*
X168239364Y-94999999D01*
X168239364Y-95000000D01*
X169136314Y-95000000D01*
X169110507Y-95040156D01*
X169070000Y-95178111D01*
X169070000Y-95321889D01*
X169110507Y-95459844D01*
X169136314Y-95500000D01*
X168239364Y-95500000D01*
X168296567Y-95713486D01*
X168296570Y-95713492D01*
X168396399Y-95927578D01*
X168531894Y-96121082D01*
X168698917Y-96288105D01*
X168885031Y-96418425D01*
X168928656Y-96473003D01*
X168935848Y-96542501D01*
X168904326Y-96604856D01*
X168885031Y-96621575D01*
X168698922Y-96751890D01*
X168698920Y-96751891D01*
X168531891Y-96918920D01*
X168531886Y-96918926D01*
X168396400Y-97112420D01*
X168396399Y-97112422D01*
X168296570Y-97326507D01*
X168296567Y-97326513D01*
X168239364Y-97539999D01*
X168239364Y-97540000D01*
X169136314Y-97540000D01*
X169110507Y-97580156D01*
X169070000Y-97718111D01*
X169070000Y-97861889D01*
X169110507Y-97999844D01*
X169136314Y-98040000D01*
X168239364Y-98040000D01*
X168296567Y-98253486D01*
X168296570Y-98253492D01*
X168396399Y-98467578D01*
X168531894Y-98661082D01*
X168698917Y-98828105D01*
X168885031Y-98958425D01*
X168928656Y-99013003D01*
X168935848Y-99082501D01*
X168904326Y-99144856D01*
X168885031Y-99161575D01*
X168698922Y-99291890D01*
X168698920Y-99291891D01*
X168531891Y-99458920D01*
X168531886Y-99458926D01*
X168396400Y-99652420D01*
X168396399Y-99652422D01*
X168296570Y-99866507D01*
X168296567Y-99866513D01*
X168239364Y-100079999D01*
X168239364Y-100080000D01*
X169136314Y-100080000D01*
X169110507Y-100120156D01*
X169070000Y-100258111D01*
X169070000Y-100401889D01*
X169110507Y-100539844D01*
X169136314Y-100580000D01*
X168239364Y-100580000D01*
X168296567Y-100793486D01*
X168296570Y-100793492D01*
X168396399Y-101007578D01*
X168531894Y-101201082D01*
X168698917Y-101368105D01*
X168885031Y-101498425D01*
X168928656Y-101553003D01*
X168935848Y-101622501D01*
X168904326Y-101684856D01*
X168885031Y-101701575D01*
X168698922Y-101831890D01*
X168698920Y-101831891D01*
X168531891Y-101998920D01*
X168531886Y-101998926D01*
X168396400Y-102192420D01*
X168396399Y-102192422D01*
X168296570Y-102406507D01*
X168296567Y-102406513D01*
X168239364Y-102619999D01*
X168239364Y-102620000D01*
X169136314Y-102620000D01*
X169110507Y-102660156D01*
X169070000Y-102798111D01*
X169070000Y-102941889D01*
X169110507Y-103079844D01*
X169136314Y-103120000D01*
X168239364Y-103120000D01*
X168296567Y-103333486D01*
X168296570Y-103333492D01*
X168396399Y-103547578D01*
X168531894Y-103741082D01*
X168698917Y-103908105D01*
X168885031Y-104038425D01*
X168928656Y-104093003D01*
X168935848Y-104162501D01*
X168904326Y-104224856D01*
X168885031Y-104241575D01*
X168698922Y-104371890D01*
X168698920Y-104371891D01*
X168531891Y-104538920D01*
X168531886Y-104538926D01*
X168396400Y-104732420D01*
X168396399Y-104732422D01*
X168296570Y-104946507D01*
X168296567Y-104946513D01*
X168239364Y-105159999D01*
X168239364Y-105160000D01*
X169136314Y-105160000D01*
X169110507Y-105200156D01*
X169070000Y-105338111D01*
X169070000Y-105481889D01*
X169110507Y-105619844D01*
X169136314Y-105660000D01*
X168239364Y-105660000D01*
X168296567Y-105873486D01*
X168296570Y-105873492D01*
X168396399Y-106087578D01*
X168531894Y-106281082D01*
X168698917Y-106448105D01*
X168885031Y-106578425D01*
X168928656Y-106633003D01*
X168935848Y-106702501D01*
X168904326Y-106764856D01*
X168885031Y-106781575D01*
X168698922Y-106911890D01*
X168698920Y-106911891D01*
X168531891Y-107078920D01*
X168531886Y-107078926D01*
X168396400Y-107272420D01*
X168396399Y-107272422D01*
X168296570Y-107486507D01*
X168296567Y-107486513D01*
X168239364Y-107699999D01*
X168239364Y-107700000D01*
X169136314Y-107700000D01*
X169110507Y-107740156D01*
X169070000Y-107878111D01*
X169070000Y-108021889D01*
X169110507Y-108159844D01*
X169136314Y-108200000D01*
X168239364Y-108200000D01*
X168296567Y-108413486D01*
X168296570Y-108413492D01*
X168396399Y-108627578D01*
X168531894Y-108821082D01*
X168698917Y-108988105D01*
X168892421Y-109123600D01*
X169106507Y-109223429D01*
X169106516Y-109223433D01*
X169320000Y-109280634D01*
X169320000Y-108385501D01*
X169427685Y-108434680D01*
X169534237Y-108450000D01*
X169605763Y-108450000D01*
X169712315Y-108434680D01*
X169820000Y-108385501D01*
X169820000Y-109280633D01*
X170033483Y-109223433D01*
X170033492Y-109223429D01*
X170247578Y-109123600D01*
X170441082Y-108988105D01*
X170608105Y-108821082D01*
X170743600Y-108627578D01*
X170843429Y-108413492D01*
X170843432Y-108413486D01*
X170900636Y-108200000D01*
X170003686Y-108200000D01*
X170029493Y-108159844D01*
X170070000Y-108021889D01*
X170070000Y-107878111D01*
X170029493Y-107740156D01*
X170003686Y-107700000D01*
X170900636Y-107700000D01*
X170900635Y-107699999D01*
X170843432Y-107486513D01*
X170843429Y-107486507D01*
X170743600Y-107272422D01*
X170743599Y-107272420D01*
X170608113Y-107078926D01*
X170608108Y-107078920D01*
X170441082Y-106911894D01*
X170254968Y-106781575D01*
X170211344Y-106726998D01*
X170204151Y-106657499D01*
X170235673Y-106595145D01*
X170254968Y-106578425D01*
X170441082Y-106448105D01*
X170608105Y-106281082D01*
X170743600Y-106087578D01*
X170843429Y-105873492D01*
X170843432Y-105873486D01*
X170900636Y-105660000D01*
X170003686Y-105660000D01*
X170029493Y-105619844D01*
X170070000Y-105481889D01*
X170070000Y-105338111D01*
X170029493Y-105200156D01*
X170003686Y-105160000D01*
X170900636Y-105160000D01*
X170900635Y-105159999D01*
X170843432Y-104946513D01*
X170843429Y-104946507D01*
X170743600Y-104732422D01*
X170743599Y-104732420D01*
X170608113Y-104538926D01*
X170608108Y-104538920D01*
X170441082Y-104371894D01*
X170254968Y-104241575D01*
X170211344Y-104186998D01*
X170204151Y-104117499D01*
X170235673Y-104055145D01*
X170254968Y-104038425D01*
X170441082Y-103908105D01*
X170608105Y-103741082D01*
X170743600Y-103547578D01*
X170843429Y-103333492D01*
X170843432Y-103333486D01*
X170900636Y-103120000D01*
X170003686Y-103120000D01*
X170029493Y-103079844D01*
X170070000Y-102941889D01*
X170070000Y-102798111D01*
X170029493Y-102660156D01*
X170003686Y-102620000D01*
X170900636Y-102620000D01*
X170900635Y-102619999D01*
X170843432Y-102406513D01*
X170843429Y-102406507D01*
X170743600Y-102192422D01*
X170743599Y-102192420D01*
X170608113Y-101998926D01*
X170608108Y-101998920D01*
X170441082Y-101831894D01*
X170254968Y-101701575D01*
X170211344Y-101646998D01*
X170204151Y-101577499D01*
X170235673Y-101515145D01*
X170254968Y-101498425D01*
X170441082Y-101368105D01*
X170608105Y-101201082D01*
X170743600Y-101007578D01*
X170843429Y-100793492D01*
X170843432Y-100793486D01*
X170900636Y-100580000D01*
X170003686Y-100580000D01*
X170029493Y-100539844D01*
X170070000Y-100401889D01*
X170070000Y-100258111D01*
X170029493Y-100120156D01*
X170003686Y-100080000D01*
X170900636Y-100080000D01*
X170900635Y-100079999D01*
X170843432Y-99866513D01*
X170843429Y-99866507D01*
X170743600Y-99652422D01*
X170743599Y-99652420D01*
X170608113Y-99458926D01*
X170608108Y-99458920D01*
X170441082Y-99291894D01*
X170254968Y-99161575D01*
X170211344Y-99106998D01*
X170204151Y-99037499D01*
X170235673Y-98975145D01*
X170254968Y-98958425D01*
X170441082Y-98828105D01*
X170608105Y-98661082D01*
X170743600Y-98467578D01*
X170843429Y-98253492D01*
X170843432Y-98253486D01*
X170900636Y-98040000D01*
X170003686Y-98040000D01*
X170029493Y-97999844D01*
X170070000Y-97861889D01*
X170070000Y-97718111D01*
X170029493Y-97580156D01*
X170003686Y-97540000D01*
X170900636Y-97540000D01*
X170900635Y-97539999D01*
X170843432Y-97326513D01*
X170843429Y-97326507D01*
X170743600Y-97112422D01*
X170743599Y-97112420D01*
X170608113Y-96918926D01*
X170608108Y-96918920D01*
X170441082Y-96751894D01*
X170254968Y-96621575D01*
X170211344Y-96566998D01*
X170204151Y-96497499D01*
X170235673Y-96435145D01*
X170254968Y-96418425D01*
X170441082Y-96288105D01*
X170608105Y-96121082D01*
X170743600Y-95927578D01*
X170843429Y-95713492D01*
X170843432Y-95713486D01*
X170900636Y-95500000D01*
X170003686Y-95500000D01*
X170029493Y-95459844D01*
X170070000Y-95321889D01*
X170070000Y-95178111D01*
X170029493Y-95040156D01*
X170003686Y-95000000D01*
X170900636Y-95000000D01*
X170900635Y-94999999D01*
X170843432Y-94786513D01*
X170843429Y-94786507D01*
X170743600Y-94572422D01*
X170743599Y-94572420D01*
X170608113Y-94378926D01*
X170608108Y-94378920D01*
X170441082Y-94211894D01*
X170254968Y-94081575D01*
X170211344Y-94026998D01*
X170204151Y-93957499D01*
X170235673Y-93895145D01*
X170254968Y-93878425D01*
X170441082Y-93748105D01*
X170608105Y-93581082D01*
X170743600Y-93387578D01*
X170843429Y-93173492D01*
X170843432Y-93173486D01*
X170900636Y-92960000D01*
X170003686Y-92960000D01*
X170029493Y-92919844D01*
X170070000Y-92781889D01*
X170070000Y-92638111D01*
X170029493Y-92500156D01*
X170003686Y-92460000D01*
X170900636Y-92460000D01*
X170900635Y-92459999D01*
X170843432Y-92246513D01*
X170843429Y-92246507D01*
X170743600Y-92032422D01*
X170743599Y-92032420D01*
X170608113Y-91838926D01*
X170608108Y-91838920D01*
X170485665Y-91716477D01*
X170452180Y-91655154D01*
X170457164Y-91585462D01*
X170499036Y-91529529D01*
X170530013Y-91512614D01*
X170662086Y-91463354D01*
X170662093Y-91463350D01*
X170777187Y-91377190D01*
X170777190Y-91377187D01*
X170863350Y-91262093D01*
X170863354Y-91262086D01*
X170913596Y-91127379D01*
X170913598Y-91127372D01*
X170919999Y-91067844D01*
X170920000Y-91067827D01*
X170920000Y-90420000D01*
X170003686Y-90420000D01*
X170029493Y-90379844D01*
X170070000Y-90241889D01*
X170070000Y-90098111D01*
X170029493Y-89960156D01*
X170003686Y-89920000D01*
X170920000Y-89920000D01*
X170920000Y-89272172D01*
X170919999Y-89272155D01*
X170913598Y-89212627D01*
X170913596Y-89212620D01*
X170863354Y-89077913D01*
X170863350Y-89077906D01*
X170777190Y-88962812D01*
X170777187Y-88962809D01*
X170662093Y-88876649D01*
X170662086Y-88876645D01*
X170527379Y-88826403D01*
X170527372Y-88826401D01*
X170467844Y-88820000D01*
X169820000Y-88820000D01*
X169820000Y-89734498D01*
X169712315Y-89685320D01*
X169605763Y-89670000D01*
X169534237Y-89670000D01*
X169427685Y-89685320D01*
X169320000Y-89734498D01*
X169320000Y-88820000D01*
X168672155Y-88820000D01*
X168612627Y-88826401D01*
X168612620Y-88826403D01*
X168477913Y-88876645D01*
X168477906Y-88876649D01*
X168362812Y-88962809D01*
X168362809Y-88962812D01*
X168276649Y-89077906D01*
X168276645Y-89077913D01*
X168226403Y-89212620D01*
X168226401Y-89212627D01*
X168220000Y-89272155D01*
X168220000Y-89920000D01*
X169136314Y-89920000D01*
X169110507Y-89960156D01*
X169070000Y-90098111D01*
X169070000Y-90241889D01*
X169110507Y-90379844D01*
X169136314Y-90420000D01*
X168220000Y-90420000D01*
X168220000Y-91067844D01*
X156465518Y-91067844D01*
X156472631Y-91058425D01*
X156571760Y-90859349D01*
X156624495Y-90674000D01*
X155698000Y-90674000D01*
X155693581Y-90674000D01*
X155745060Y-90618079D01*
X155791982Y-90511108D01*
X155801628Y-90394698D01*
X155772953Y-90281462D01*
X155709064Y-90183673D01*
X155616885Y-90111928D01*
X155506405Y-90074000D01*
X155418995Y-90074000D01*
X155332784Y-90088386D01*
X155230053Y-90143981D01*
X155198000Y-90178799D01*
X155198000Y-89249946D01*
X155698000Y-89249946D01*
X155698000Y-90174000D01*
X156624495Y-90174000D01*
X156571760Y-89988650D01*
X156472631Y-89789574D01*
X156338608Y-89612099D01*
X156174261Y-89462278D01*
X155985179Y-89345202D01*
X155985177Y-89345201D01*
X155777799Y-89264864D01*
X155698000Y-89249946D01*
X155198000Y-89249946D01*
X155118200Y-89264864D01*
X154910822Y-89345201D01*
X154910820Y-89345202D01*
X154721738Y-89462278D01*
X154557391Y-89612100D01*
X154440378Y-89767049D01*
X154384268Y-89808685D01*
X154314556Y-89813376D01*
X154253375Y-89779634D01*
X154242470Y-89767048D01*
X154128982Y-89616765D01*
X154128980Y-89616762D01*
X153964562Y-89466876D01*
X153964560Y-89466874D01*
X153775404Y-89349754D01*
X153775398Y-89349752D01*
X153567940Y-89269382D01*
X153349243Y-89228500D01*
X153126757Y-89228500D01*
X152908060Y-89269382D01*
X152776864Y-89320207D01*
X152700601Y-89349752D01*
X152700595Y-89349754D01*
X152511439Y-89466874D01*
X152511437Y-89466876D01*
X152347020Y-89616761D01*
X152212943Y-89794308D01*
X152212938Y-89794316D01*
X152113775Y-89993461D01*
X152113770Y-89993474D01*
X152105095Y-90023966D01*
X152067816Y-90083059D01*
X152004506Y-90112616D01*
X151935266Y-90103254D01*
X151882080Y-90057944D01*
X151866054Y-90022124D01*
X151848741Y-89957511D01*
X151848738Y-89957502D01*
X151831250Y-89920000D01*
X151752568Y-89751266D01*
X151622047Y-89564861D01*
X151622045Y-89564858D01*
X151461141Y-89403954D01*
X151274734Y-89273432D01*
X151274730Y-89273430D01*
X151259022Y-89266105D01*
X151206583Y-89219931D01*
X151187433Y-89152737D01*
X151207650Y-89085857D01*
X151259028Y-89041340D01*
X151274481Y-89034134D01*
X151347471Y-88983024D01*
X150666400Y-88301953D01*
X150747148Y-88289165D01*
X150860045Y-88231641D01*
X150949641Y-88142045D01*
X151007165Y-88029148D01*
X151019953Y-87948400D01*
X151701024Y-88629471D01*
X151752136Y-88556478D01*
X151848264Y-88350331D01*
X151848269Y-88350317D01*
X151907139Y-88130610D01*
X151907141Y-88130599D01*
X151926966Y-87904002D01*
X151926966Y-87903997D01*
X151907141Y-87677400D01*
X151907139Y-87677389D01*
X151848269Y-87457682D01*
X151848264Y-87457668D01*
X151752136Y-87251521D01*
X151752132Y-87251513D01*
X151701025Y-87178526D01*
X151019953Y-87859598D01*
X151007165Y-87778852D01*
X150949641Y-87665955D01*
X150860045Y-87576359D01*
X150747148Y-87518835D01*
X150666401Y-87506046D01*
X151347472Y-86824974D01*
X151274478Y-86773863D01*
X151068331Y-86677735D01*
X151068317Y-86677730D01*
X150848610Y-86618860D01*
X150848599Y-86618858D01*
X150622002Y-86599034D01*
X150621998Y-86599034D01*
X150395400Y-86618858D01*
X150395389Y-86618860D01*
X150175682Y-86677730D01*
X150175673Y-86677734D01*
X149969516Y-86773866D01*
X149969512Y-86773868D01*
X149896526Y-86824973D01*
X149896526Y-86824974D01*
X150577599Y-87506046D01*
X150496852Y-87518835D01*
X150383955Y-87576359D01*
X150294359Y-87665955D01*
X150236835Y-87778852D01*
X150224046Y-87859598D01*
X149542974Y-87178526D01*
X149533165Y-87179384D01*
X149499497Y-87206297D01*
X149429998Y-87213489D01*
X149367644Y-87181966D01*
X149332231Y-87121736D01*
X149328500Y-87091548D01*
X149328500Y-87032889D01*
X149348185Y-86965850D01*
X149364819Y-86945208D01*
X151969208Y-84340819D01*
X152030531Y-84307334D01*
X152056889Y-84304500D01*
X152281719Y-84304500D01*
X152348758Y-84324185D01*
X152394513Y-84376989D01*
X152404457Y-84446147D01*
X152375432Y-84509703D01*
X152365258Y-84520136D01*
X152347021Y-84536761D01*
X152212943Y-84714308D01*
X152212938Y-84714316D01*
X152113775Y-84913461D01*
X152113769Y-84913476D01*
X152052885Y-85127462D01*
X152052884Y-85127464D01*
X152032357Y-85348999D01*
X152032357Y-85349000D01*
X152052884Y-85570535D01*
X152052885Y-85570537D01*
X152113769Y-85784523D01*
X152113775Y-85784538D01*
X152212938Y-85983683D01*
X152212943Y-85983691D01*
X152347020Y-86161238D01*
X152511437Y-86311123D01*
X152511439Y-86311125D01*
X152700595Y-86428245D01*
X152700596Y-86428245D01*
X152700599Y-86428247D01*
X152908060Y-86508618D01*
X153126757Y-86549500D01*
X153126759Y-86549500D01*
X153349241Y-86549500D01*
X153349243Y-86549500D01*
X153567940Y-86508618D01*
X153775401Y-86428247D01*
X153964562Y-86311124D01*
X154128981Y-86161236D01*
X154245933Y-86006365D01*
X154302041Y-85964729D01*
X154371753Y-85960037D01*
X154432935Y-85993779D01*
X154443841Y-86006365D01*
X154557020Y-86156238D01*
X154721437Y-86306123D01*
X154721439Y-86306125D01*
X154910595Y-86423245D01*
X154910596Y-86423245D01*
X154910599Y-86423247D01*
X155118060Y-86503618D01*
X155336757Y-86544500D01*
X155336759Y-86544500D01*
X155559241Y-86544500D01*
X155559243Y-86544500D01*
X155777940Y-86503618D01*
X155985401Y-86423247D01*
X156174562Y-86306124D01*
X156333496Y-86161236D01*
X156338979Y-86156238D01*
X156343103Y-86150778D01*
X156473058Y-85978689D01*
X156572229Y-85779528D01*
X156633115Y-85565536D01*
X156653643Y-85344000D01*
X156651504Y-85320921D01*
X156633115Y-85122464D01*
X156633114Y-85122462D01*
X156625160Y-85094507D01*
X156572229Y-84908472D01*
X156558745Y-84881392D01*
X156473061Y-84709316D01*
X156473056Y-84709308D01*
X156403220Y-84616831D01*
X156338981Y-84531764D01*
X156326228Y-84520138D01*
X156289946Y-84460427D01*
X156291705Y-84390580D01*
X156330948Y-84332772D01*
X156395215Y-84305357D01*
X156409765Y-84304500D01*
X162622063Y-84304500D01*
X162622067Y-84304500D01*
X162684677Y-84299311D01*
X162807813Y-84289109D01*
X162807816Y-84289108D01*
X162807821Y-84289108D01*
X163048881Y-84228063D01*
X163276607Y-84128173D01*
X163484785Y-83992164D01*
X163667738Y-83823744D01*
X163820474Y-83627509D01*
X163938828Y-83408810D01*
X164019571Y-83173614D01*
X164060500Y-82928335D01*
X164060500Y-82679665D01*
X164019571Y-82434386D01*
X163938828Y-82199190D01*
X163820474Y-81980491D01*
X163667738Y-81784256D01*
X163667734Y-81784252D01*
X163627596Y-81747302D01*
X163591605Y-81687415D01*
X163593706Y-81617577D01*
X163633230Y-81559961D01*
X163697630Y-81532860D01*
X163711579Y-81532073D01*
X166517815Y-81532073D01*
X166523836Y-81532220D01*
X166526530Y-81532352D01*
X166526798Y-81532366D01*
X166574540Y-81535046D01*
X166575126Y-81535082D01*
X166715243Y-81544264D01*
X166719236Y-81544591D01*
X166776578Y-81550238D01*
X166785167Y-81551390D01*
X166859544Y-81564026D01*
X166862824Y-81564630D01*
X166972967Y-81586537D01*
X166976884Y-81587383D01*
X167013789Y-81595988D01*
X167019902Y-81597580D01*
X167103236Y-81621587D01*
X167108720Y-81623306D01*
X167222982Y-81662091D01*
X167226752Y-81663440D01*
X167241358Y-81668937D01*
X167245088Y-81670411D01*
X167326020Y-81703933D01*
X167329703Y-81705530D01*
X167343882Y-81711954D01*
X167347528Y-81713678D01*
X167455719Y-81767029D01*
X167460851Y-81769710D01*
X167531697Y-81808864D01*
X167536748Y-81811655D01*
X167542206Y-81814857D01*
X167574380Y-81834863D01*
X167577743Y-81837032D01*
X167671074Y-81899391D01*
X167673938Y-81901364D01*
X167735344Y-81944932D01*
X167742262Y-81950215D01*
X167786852Y-81986814D01*
X167789948Y-81989441D01*
X167897016Y-82083353D01*
X167897874Y-82084113D01*
X167928575Y-82111548D01*
X167929152Y-82112066D01*
X167933689Y-82116179D01*
X167938075Y-82120356D01*
X168991335Y-83173616D01*
X169970768Y-84153048D01*
X170004253Y-84214371D01*
X169999269Y-84284063D01*
X169957397Y-84339996D01*
X169891933Y-84364413D01*
X169848909Y-84359926D01*
X169841833Y-84357897D01*
X169777364Y-84339411D01*
X169777360Y-84339410D01*
X169777355Y-84339409D01*
X169493389Y-84299500D01*
X169493385Y-84299500D01*
X169278396Y-84299500D01*
X169278383Y-84299500D01*
X169063925Y-84314497D01*
X169063921Y-84314497D01*
X168783427Y-84374119D01*
X168513954Y-84472199D01*
X168260752Y-84606827D01*
X168260745Y-84606832D01*
X168028753Y-84775383D01*
X168028746Y-84775389D01*
X167822459Y-84974599D01*
X167645907Y-85200574D01*
X167502525Y-85448920D01*
X167502519Y-85448932D01*
X167395097Y-85714811D01*
X167350448Y-85893890D01*
X167325721Y-85993065D01*
X167309145Y-86150778D01*
X167295744Y-86278274D01*
X167305752Y-86564855D01*
X167305753Y-86564862D01*
X167355549Y-86847269D01*
X167355550Y-86847273D01*
X167444168Y-87120010D01*
X167569874Y-87377745D01*
X167569877Y-87377749D01*
X167569879Y-87377753D01*
X167730238Y-87615496D01*
X167739242Y-87625496D01*
X167922120Y-87828603D01*
X167922127Y-87828610D01*
X168141797Y-88012936D01*
X168141801Y-88012939D01*
X168141803Y-88012940D01*
X168384998Y-88164905D01*
X168504823Y-88218255D01*
X168646962Y-88281540D01*
X168646967Y-88281541D01*
X168646975Y-88281545D01*
X168922636Y-88360589D01*
X168922641Y-88360589D01*
X168922646Y-88360591D01*
X169111955Y-88387196D01*
X169206610Y-88400499D01*
X169206612Y-88400500D01*
X169206615Y-88400500D01*
X169421592Y-88400500D01*
X169421604Y-88400500D01*
X169636071Y-88385503D01*
X169636076Y-88385502D01*
X169636078Y-88385502D01*
X169757663Y-88359657D01*
X169916575Y-88325880D01*
X170186050Y-88227799D01*
X170439253Y-88093169D01*
X170671254Y-87924610D01*
X170877539Y-87725403D01*
X171054093Y-87499425D01*
X171118113Y-87388537D01*
X171168679Y-87340323D01*
X171237286Y-87327099D01*
X171302151Y-87353067D01*
X171342680Y-87409981D01*
X171349500Y-87450538D01*
X171349500Y-115602252D01*
X171329815Y-115669291D01*
X171277011Y-115715046D01*
X171207853Y-115724990D01*
X171144297Y-115695965D01*
X171122699Y-115671592D01*
X171099219Y-115636782D01*
X170989762Y-115474504D01*
X170797875Y-115261392D01*
X170797872Y-115261389D01*
X170578202Y-115077063D01*
X170335006Y-114925097D01*
X170335004Y-114925096D01*
X170073037Y-114808459D01*
X170073027Y-114808456D01*
X170073025Y-114808455D01*
X169797364Y-114729411D01*
X169797362Y-114729410D01*
X169797353Y-114729408D01*
X169513389Y-114689500D01*
X169513385Y-114689500D01*
X169298396Y-114689500D01*
X169298383Y-114689500D01*
X169083925Y-114704497D01*
X169083921Y-114704497D01*
X168803427Y-114764119D01*
X168533954Y-114862199D01*
X168280752Y-114996827D01*
X168280745Y-114996832D01*
X168048753Y-115165383D01*
X168048746Y-115165389D01*
X167842459Y-115364599D01*
X167665907Y-115590574D01*
X167581887Y-115736102D01*
X167531320Y-115784318D01*
X167462713Y-115797541D01*
X167397848Y-115771573D01*
X167357320Y-115714658D01*
X167350500Y-115674102D01*
X167350500Y-102896418D01*
X167352351Y-102890110D01*
X167350537Y-102816195D01*
X167350500Y-102813151D01*
X167350500Y-102796561D01*
X167350533Y-102796445D01*
X167350531Y-102740734D01*
X167350529Y-102657635D01*
X167320125Y-102485228D01*
X167260244Y-102320721D01*
X167172707Y-102169110D01*
X167060174Y-102035003D01*
X166926064Y-101922474D01*
X166774450Y-101834942D01*
X166774440Y-101834937D01*
X166609944Y-101775067D01*
X166609941Y-101775066D01*
X166437537Y-101744668D01*
X166437533Y-101744668D01*
X166350099Y-101744668D01*
X166281970Y-101744668D01*
X166278923Y-101744631D01*
X166207187Y-101742867D01*
X166198662Y-101744668D01*
X158501242Y-101744668D01*
X158494934Y-101742816D01*
X158421024Y-101744631D01*
X158417980Y-101744668D01*
X158337959Y-101744668D01*
X158337632Y-101744700D01*
X158262466Y-101744700D01*
X158090065Y-101775098D01*
X158090064Y-101775098D01*
X157925572Y-101834966D01*
X157925562Y-101834971D01*
X157773957Y-101922498D01*
X157639846Y-102035026D01*
X157527318Y-102169128D01*
X157439787Y-102320729D01*
X157439785Y-102320733D01*
X157379907Y-102485232D01*
X157349501Y-102657639D01*
X157349500Y-102745070D01*
X157349500Y-102813089D01*
X157349463Y-102816127D01*
X157347705Y-102887817D01*
X157349500Y-102896305D01*
X157349500Y-109736377D01*
X157349480Y-109738605D01*
X157349402Y-109742946D01*
X157349244Y-109747351D01*
X157348783Y-109755957D01*
X157348696Y-109757433D01*
X157344039Y-109828491D01*
X157343988Y-109829226D01*
X157334906Y-109956242D01*
X157334512Y-109960650D01*
X157327592Y-110025030D01*
X157326332Y-110033794D01*
X157320982Y-110063448D01*
X157320570Y-110065622D01*
X157307071Y-110133491D01*
X157306620Y-110135657D01*
X157284662Y-110236604D01*
X157283643Y-110240914D01*
X157269309Y-110297075D01*
X157266581Y-110306266D01*
X157233797Y-110402848D01*
X157232560Y-110406323D01*
X157195039Y-110506926D01*
X157193418Y-110511045D01*
X157176363Y-110552221D01*
X157173014Y-110559613D01*
X157125571Y-110655820D01*
X157123191Y-110660402D01*
X157067853Y-110761750D01*
X157065660Y-110765602D01*
X157050252Y-110791569D01*
X157046715Y-110797182D01*
X156984395Y-110890452D01*
X156980560Y-110895871D01*
X156905699Y-110995877D01*
X156902981Y-110999376D01*
X156894225Y-111010241D01*
X156890904Y-111014191D01*
X156812878Y-111103164D01*
X156807331Y-111109086D01*
X156713911Y-111202508D01*
X156707989Y-111208056D01*
X156619021Y-111286080D01*
X156615068Y-111289403D01*
X156604189Y-111298170D01*
X156600692Y-111300886D01*
X156500696Y-111375742D01*
X156495277Y-111379577D01*
X156402014Y-111441894D01*
X156396399Y-111445432D01*
X156370403Y-111460857D01*
X156366555Y-111463049D01*
X156265231Y-111518377D01*
X156260648Y-111520757D01*
X156164463Y-111568191D01*
X156157070Y-111571540D01*
X156115859Y-111588610D01*
X156111741Y-111590231D01*
X156011139Y-111627754D01*
X156007664Y-111628991D01*
X155911104Y-111661769D01*
X155901912Y-111664498D01*
X155845714Y-111678842D01*
X155841405Y-111679860D01*
X155740484Y-111701814D01*
X155738319Y-111702265D01*
X155670645Y-111715727D01*
X155668467Y-111716140D01*
X155638635Y-111721522D01*
X155629864Y-111722783D01*
X155565434Y-111729704D01*
X155561022Y-111730098D01*
X155430177Y-111739441D01*
X155429454Y-111739491D01*
X155364666Y-111743737D01*
X155363195Y-111743824D01*
X155352190Y-111744414D01*
X155347775Y-111744572D01*
X155345708Y-111744609D01*
X155343508Y-111744648D01*
X155341314Y-111744668D01*
X153337959Y-111744668D01*
X153337632Y-111744700D01*
X153218882Y-111744700D01*
X153218876Y-111744700D01*
X153218872Y-111744701D01*
X152958898Y-111778927D01*
X152958891Y-111778928D01*
X152958888Y-111778929D01*
X152705587Y-111846800D01*
X152705577Y-111846803D01*
X152463318Y-111947150D01*
X152463313Y-111947152D01*
X152236211Y-112078267D01*
X152236207Y-112078270D01*
X152028162Y-112237906D01*
X152028155Y-112237912D01*
X151842733Y-112423330D01*
X151842726Y-112423339D01*
X151683090Y-112631377D01*
X151683086Y-112631383D01*
X151551966Y-112858485D01*
X151551960Y-112858495D01*
X151451611Y-113100752D01*
X151451607Y-113100761D01*
X151383737Y-113354046D01*
X151383734Y-113354062D01*
X151349502Y-113614042D01*
X151349501Y-113614055D01*
X151349500Y-113745069D01*
X151349500Y-116723792D01*
X151349480Y-116726026D01*
X151349402Y-116730354D01*
X151349244Y-116734763D01*
X151348781Y-116743393D01*
X151348694Y-116744859D01*
X151344032Y-116815998D01*
X151343981Y-116816734D01*
X151334905Y-116943653D01*
X151334511Y-116948061D01*
X151327589Y-117012455D01*
X151326328Y-117021221D01*
X151320990Y-117050804D01*
X151320579Y-117052975D01*
X151307059Y-117120949D01*
X151306608Y-117123115D01*
X151284662Y-117224007D01*
X151283643Y-117228319D01*
X151269308Y-117284479D01*
X151266580Y-117293668D01*
X151233789Y-117390270D01*
X151232551Y-117393746D01*
X151195040Y-117494319D01*
X151193420Y-117498436D01*
X151176353Y-117539642D01*
X151173003Y-117547036D01*
X151125567Y-117643226D01*
X151123188Y-117647807D01*
X151067862Y-117749134D01*
X151065669Y-117752986D01*
X151050249Y-117778973D01*
X151046712Y-117784586D01*
X150984389Y-117877861D01*
X150980554Y-117883281D01*
X150905705Y-117983269D01*
X150902987Y-117986768D01*
X150894206Y-117997664D01*
X150890885Y-118001613D01*
X150812877Y-118090565D01*
X150807330Y-118096488D01*
X150713901Y-118189918D01*
X150707978Y-118195465D01*
X150619015Y-118273484D01*
X150615066Y-118276804D01*
X150604184Y-118285574D01*
X150600684Y-118288293D01*
X150500688Y-118363149D01*
X150495269Y-118366984D01*
X150402001Y-118429304D01*
X150396386Y-118432842D01*
X150370422Y-118448248D01*
X150366572Y-118450441D01*
X150265216Y-118505784D01*
X150260634Y-118508163D01*
X150164456Y-118555593D01*
X150157068Y-118558941D01*
X150115863Y-118576010D01*
X150111741Y-118577632D01*
X150011146Y-118615152D01*
X150007671Y-118616389D01*
X149911102Y-118649170D01*
X149901910Y-118651899D01*
X149845712Y-118666243D01*
X149841403Y-118667261D01*
X149740518Y-118689207D01*
X149738352Y-118689658D01*
X149670555Y-118703144D01*
X149668379Y-118703557D01*
X149638625Y-118708925D01*
X149629859Y-118710185D01*
X149565477Y-118717104D01*
X149561066Y-118717499D01*
X149432111Y-118726715D01*
X149431381Y-118726765D01*
X149363449Y-118731217D01*
X149361979Y-118731304D01*
X149352187Y-118731829D01*
X149347775Y-118731987D01*
X149345680Y-118732024D01*
X149343456Y-118732064D01*
X149341261Y-118732084D01*
X136440835Y-118732084D01*
X136373796Y-118712399D01*
X136328041Y-118659595D01*
X136318097Y-118590437D01*
X136347122Y-118526881D01*
X136382621Y-118498598D01*
X136420358Y-118478532D01*
X136449253Y-118463169D01*
X136681254Y-118294610D01*
X136887539Y-118095403D01*
X137064093Y-117869425D01*
X137207477Y-117621075D01*
X137314903Y-117355187D01*
X137384279Y-117076935D01*
X137414255Y-116791736D01*
X137412265Y-116734763D01*
X137404247Y-116505144D01*
X137404246Y-116505137D01*
X137354450Y-116222728D01*
X137265833Y-115949994D01*
X137211661Y-115838925D01*
X137140125Y-115692254D01*
X137140123Y-115692251D01*
X137140121Y-115692247D01*
X136979762Y-115454504D01*
X136805883Y-115261392D01*
X136787879Y-115241396D01*
X136787872Y-115241389D01*
X136568202Y-115057063D01*
X136325006Y-114905097D01*
X136325004Y-114905096D01*
X136063037Y-114788459D01*
X136063027Y-114788456D01*
X136063025Y-114788455D01*
X135787364Y-114709411D01*
X135787362Y-114709410D01*
X135787353Y-114709408D01*
X135503389Y-114669500D01*
X135503385Y-114669500D01*
X135288396Y-114669500D01*
X135288383Y-114669500D01*
X135073925Y-114684497D01*
X135073921Y-114684497D01*
X134793427Y-114744119D01*
X134523954Y-114842199D01*
X134270752Y-114976827D01*
X134270745Y-114976832D01*
X134038753Y-115145383D01*
X134038746Y-115145389D01*
X133832459Y-115344599D01*
X133655907Y-115570574D01*
X133581887Y-115698782D01*
X133531320Y-115746997D01*
X133462713Y-115760221D01*
X133397849Y-115734253D01*
X133357320Y-115677339D01*
X133350500Y-115636782D01*
X133350500Y-105410000D01*
X133772341Y-105410000D01*
X133792936Y-105645403D01*
X133792938Y-105645413D01*
X133854094Y-105873655D01*
X133854096Y-105873659D01*
X133854097Y-105873663D01*
X133953847Y-106087578D01*
X133953965Y-106087830D01*
X133953967Y-106087834D01*
X134062281Y-106242521D01*
X134089501Y-106281396D01*
X134089506Y-106281402D01*
X134211430Y-106403326D01*
X134244915Y-106464649D01*
X134239931Y-106534341D01*
X134198059Y-106590274D01*
X134167083Y-106607189D01*
X134035669Y-106656203D01*
X134035664Y-106656206D01*
X133920455Y-106742452D01*
X133920452Y-106742455D01*
X133834206Y-106857664D01*
X133834202Y-106857671D01*
X133783908Y-106992517D01*
X133777501Y-107052116D01*
X133777501Y-107052123D01*
X133777500Y-107052135D01*
X133777500Y-108847870D01*
X133777501Y-108847876D01*
X133783908Y-108907483D01*
X133834202Y-109042328D01*
X133834206Y-109042335D01*
X133920452Y-109157544D01*
X133920455Y-109157547D01*
X134035664Y-109243793D01*
X134035671Y-109243797D01*
X134170517Y-109294091D01*
X134170516Y-109294091D01*
X134177444Y-109294835D01*
X134230127Y-109300500D01*
X136025872Y-109300499D01*
X136085483Y-109294091D01*
X136220331Y-109243796D01*
X136335546Y-109157546D01*
X136421796Y-109042331D01*
X136472091Y-108907483D01*
X136478500Y-108847873D01*
X136478499Y-107052128D01*
X136472091Y-106992517D01*
X136442019Y-106911891D01*
X136421797Y-106857671D01*
X136421793Y-106857664D01*
X136335547Y-106742455D01*
X136335544Y-106742452D01*
X136220335Y-106656206D01*
X136220328Y-106656202D01*
X136088917Y-106607189D01*
X136032983Y-106565318D01*
X136008566Y-106499853D01*
X136023418Y-106431580D01*
X136044563Y-106403332D01*
X136166495Y-106281401D01*
X136302035Y-106087830D01*
X136401903Y-105873663D01*
X136463063Y-105645408D01*
X136483659Y-105410000D01*
X136463063Y-105174592D01*
X136401903Y-104946337D01*
X136302035Y-104732171D01*
X136166495Y-104538599D01*
X136166494Y-104538597D01*
X135999402Y-104371506D01*
X135999396Y-104371501D01*
X135813842Y-104241575D01*
X135770217Y-104186998D01*
X135763023Y-104117500D01*
X135794546Y-104055145D01*
X135813842Y-104038425D01*
X135836026Y-104022891D01*
X135999401Y-103908495D01*
X136166495Y-103741401D01*
X136302035Y-103547830D01*
X136401903Y-103333663D01*
X136463063Y-103105408D01*
X136483659Y-102870000D01*
X136463063Y-102634592D01*
X136401903Y-102406337D01*
X136302035Y-102192171D01*
X136285901Y-102169128D01*
X136229095Y-102088001D01*
X140934532Y-102088001D01*
X140954364Y-102314686D01*
X140954366Y-102314697D01*
X141013258Y-102534488D01*
X141013261Y-102534497D01*
X141109431Y-102740732D01*
X141109432Y-102740734D01*
X141239954Y-102927141D01*
X141400858Y-103088045D01*
X141400861Y-103088047D01*
X141587266Y-103218568D01*
X141793504Y-103314739D01*
X142013308Y-103373635D01*
X142175230Y-103387801D01*
X142239998Y-103393468D01*
X142240000Y-103393468D01*
X142240002Y-103393468D01*
X142296673Y-103388509D01*
X142466692Y-103373635D01*
X142686496Y-103314739D01*
X142892734Y-103218568D01*
X143079139Y-103088047D01*
X143240047Y-102927139D01*
X143370568Y-102740734D01*
X143466739Y-102534496D01*
X143525635Y-102314692D01*
X143545468Y-102088000D01*
X143525635Y-101861308D01*
X143466739Y-101641504D01*
X143370568Y-101435266D01*
X143240047Y-101248861D01*
X143240045Y-101248858D01*
X143079141Y-101087954D01*
X142892734Y-100957432D01*
X142892730Y-100957430D01*
X142877022Y-100950105D01*
X142824583Y-100903931D01*
X142805433Y-100836737D01*
X142825650Y-100769857D01*
X142877028Y-100725340D01*
X142892481Y-100718134D01*
X142965471Y-100667024D01*
X142284400Y-99985953D01*
X142365148Y-99973165D01*
X142478045Y-99915641D01*
X142567641Y-99826045D01*
X142625165Y-99713148D01*
X142637953Y-99632400D01*
X143319024Y-100313471D01*
X143370136Y-100240478D01*
X143466264Y-100034331D01*
X143466269Y-100034317D01*
X143525139Y-99814610D01*
X143525141Y-99814599D01*
X143544966Y-99588002D01*
X143544966Y-99587997D01*
X143525141Y-99361400D01*
X143525139Y-99361389D01*
X143466269Y-99141682D01*
X143466264Y-99141668D01*
X143370136Y-98935521D01*
X143370132Y-98935513D01*
X143319025Y-98862526D01*
X142637953Y-99543598D01*
X142625165Y-99462852D01*
X142567641Y-99349955D01*
X142478045Y-99260359D01*
X142365148Y-99202835D01*
X142284401Y-99190046D01*
X142965472Y-98508974D01*
X142892478Y-98457863D01*
X142686331Y-98361735D01*
X142686317Y-98361730D01*
X142466610Y-98302860D01*
X142466599Y-98302858D01*
X142240002Y-98283034D01*
X142239998Y-98283034D01*
X142013400Y-98302858D01*
X142013389Y-98302860D01*
X141793682Y-98361730D01*
X141793673Y-98361734D01*
X141587516Y-98457866D01*
X141587512Y-98457868D01*
X141514526Y-98508973D01*
X141514526Y-98508974D01*
X142195599Y-99190046D01*
X142114852Y-99202835D01*
X142001955Y-99260359D01*
X141912359Y-99349955D01*
X141854835Y-99462852D01*
X141842046Y-99543598D01*
X141160974Y-98862526D01*
X141160973Y-98862526D01*
X141109868Y-98935512D01*
X141109866Y-98935516D01*
X141013734Y-99141673D01*
X141013730Y-99141682D01*
X140954860Y-99361389D01*
X140954858Y-99361400D01*
X140935034Y-99587997D01*
X140935034Y-99588002D01*
X140954858Y-99814599D01*
X140954860Y-99814610D01*
X141013730Y-100034317D01*
X141013735Y-100034331D01*
X141109863Y-100240478D01*
X141160974Y-100313472D01*
X141842046Y-99632400D01*
X141854835Y-99713148D01*
X141912359Y-99826045D01*
X142001955Y-99915641D01*
X142114852Y-99973165D01*
X142195599Y-99985953D01*
X141514526Y-100667025D01*
X141587513Y-100718132D01*
X141587515Y-100718133D01*
X141602973Y-100725341D01*
X141655413Y-100771513D01*
X141674566Y-100838706D01*
X141654351Y-100905587D01*
X141602979Y-100950104D01*
X141587270Y-100957429D01*
X141587265Y-100957432D01*
X141400858Y-101087954D01*
X141239954Y-101248858D01*
X141109432Y-101435265D01*
X141109431Y-101435267D01*
X141013261Y-101641502D01*
X141013258Y-101641511D01*
X140954366Y-101861302D01*
X140954364Y-101861313D01*
X140934532Y-102087998D01*
X140934532Y-102088001D01*
X136229095Y-102088001D01*
X136166494Y-101998597D01*
X135999402Y-101831506D01*
X135999396Y-101831501D01*
X135813842Y-101701575D01*
X135770217Y-101646998D01*
X135763023Y-101577500D01*
X135794546Y-101515145D01*
X135813842Y-101498425D01*
X135836026Y-101482891D01*
X135999401Y-101368495D01*
X136166495Y-101201401D01*
X136302035Y-101007830D01*
X136401903Y-100793663D01*
X136463063Y-100565408D01*
X136483659Y-100330000D01*
X136463063Y-100094592D01*
X136401903Y-99866337D01*
X136302035Y-99652171D01*
X136257103Y-99588000D01*
X136166494Y-99458597D01*
X135999402Y-99291506D01*
X135999396Y-99291501D01*
X135813842Y-99161575D01*
X135770217Y-99106998D01*
X135763023Y-99037500D01*
X135794546Y-98975145D01*
X135813842Y-98958425D01*
X135846565Y-98935512D01*
X135999401Y-98828495D01*
X136166495Y-98661401D01*
X136302035Y-98467830D01*
X136401903Y-98253663D01*
X136463063Y-98025408D01*
X136483659Y-97790000D01*
X136463063Y-97554592D01*
X136401903Y-97326337D01*
X136302035Y-97112171D01*
X136166495Y-96918599D01*
X136166494Y-96918597D01*
X135999402Y-96751506D01*
X135999396Y-96751501D01*
X135813842Y-96621575D01*
X135770217Y-96566998D01*
X135763023Y-96497500D01*
X135794546Y-96435145D01*
X135813842Y-96418425D01*
X135836026Y-96402891D01*
X135999401Y-96288495D01*
X136166495Y-96121401D01*
X136302035Y-95927830D01*
X136401903Y-95713663D01*
X136463063Y-95485408D01*
X136483659Y-95250000D01*
X136463063Y-95014592D01*
X136401903Y-94786337D01*
X136302035Y-94572171D01*
X136166495Y-94378599D01*
X136166494Y-94378597D01*
X135999402Y-94211506D01*
X135999396Y-94211501D01*
X135813842Y-94081575D01*
X135770217Y-94026998D01*
X135763023Y-93957500D01*
X135794546Y-93895145D01*
X135813842Y-93878425D01*
X135836026Y-93862891D01*
X135999401Y-93748495D01*
X136166495Y-93581401D01*
X136302035Y-93387830D01*
X136401903Y-93173663D01*
X136463063Y-92945408D01*
X136483659Y-92710000D01*
X136463063Y-92474592D01*
X136401903Y-92246337D01*
X136302035Y-92032171D01*
X136166495Y-91838599D01*
X136166494Y-91838597D01*
X135999402Y-91671506D01*
X135999396Y-91671501D01*
X135813842Y-91541575D01*
X135770217Y-91486998D01*
X135763023Y-91417500D01*
X135794546Y-91355145D01*
X135813842Y-91338425D01*
X135952642Y-91241236D01*
X135999401Y-91208495D01*
X136166495Y-91041401D01*
X136302035Y-90847830D01*
X136401903Y-90633663D01*
X136463063Y-90405408D01*
X136483659Y-90170000D01*
X136463063Y-89934592D01*
X136401903Y-89706337D01*
X136302035Y-89492171D01*
X136284324Y-89466876D01*
X136166494Y-89298597D01*
X135999402Y-89131506D01*
X135999395Y-89131501D01*
X135805834Y-88995967D01*
X135805830Y-88995965D01*
X135734727Y-88962809D01*
X135591663Y-88896097D01*
X135591659Y-88896096D01*
X135591655Y-88896094D01*
X135363413Y-88834938D01*
X135363403Y-88834936D01*
X135128001Y-88814341D01*
X135127999Y-88814341D01*
X134892596Y-88834936D01*
X134892586Y-88834938D01*
X134664344Y-88896094D01*
X134664335Y-88896098D01*
X134450171Y-88995964D01*
X134450169Y-88995965D01*
X134256597Y-89131505D01*
X134089505Y-89298597D01*
X133953965Y-89492169D01*
X133953964Y-89492171D01*
X133854098Y-89706335D01*
X133854094Y-89706344D01*
X133792938Y-89934586D01*
X133792936Y-89934596D01*
X133772341Y-90169999D01*
X133772341Y-90170000D01*
X133792936Y-90405403D01*
X133792938Y-90405413D01*
X133854094Y-90633655D01*
X133854096Y-90633659D01*
X133854097Y-90633663D01*
X133919638Y-90774215D01*
X133953965Y-90847830D01*
X133953967Y-90847834D01*
X134062281Y-91002521D01*
X134088259Y-91039622D01*
X134089501Y-91041395D01*
X134089506Y-91041402D01*
X134256597Y-91208493D01*
X134256603Y-91208498D01*
X134442158Y-91338425D01*
X134485783Y-91393002D01*
X134492977Y-91462500D01*
X134461454Y-91524855D01*
X134442158Y-91541575D01*
X134256597Y-91671505D01*
X134089505Y-91838597D01*
X133953965Y-92032169D01*
X133953964Y-92032171D01*
X133854098Y-92246335D01*
X133854094Y-92246344D01*
X133792938Y-92474586D01*
X133792936Y-92474596D01*
X133772341Y-92709999D01*
X133772341Y-92710000D01*
X133792936Y-92945403D01*
X133792938Y-92945413D01*
X133854094Y-93173655D01*
X133854096Y-93173659D01*
X133854097Y-93173663D01*
X133953847Y-93387578D01*
X133953965Y-93387830D01*
X133953967Y-93387834D01*
X134089501Y-93581395D01*
X134089506Y-93581402D01*
X134256597Y-93748493D01*
X134256603Y-93748498D01*
X134442158Y-93878425D01*
X134485783Y-93933002D01*
X134492977Y-94002500D01*
X134461454Y-94064855D01*
X134442158Y-94081575D01*
X134256597Y-94211505D01*
X134089505Y-94378597D01*
X133953965Y-94572169D01*
X133953964Y-94572171D01*
X133854098Y-94786335D01*
X133854094Y-94786344D01*
X133792938Y-95014586D01*
X133792936Y-95014596D01*
X133772341Y-95249999D01*
X133772341Y-95250000D01*
X133792936Y-95485403D01*
X133792938Y-95485413D01*
X133854094Y-95713655D01*
X133854096Y-95713659D01*
X133854097Y-95713663D01*
X133953847Y-95927578D01*
X133953965Y-95927830D01*
X133953967Y-95927834D01*
X134089501Y-96121395D01*
X134089506Y-96121402D01*
X134256597Y-96288493D01*
X134256603Y-96288498D01*
X134442158Y-96418425D01*
X134485783Y-96473002D01*
X134492977Y-96542500D01*
X134461454Y-96604855D01*
X134442158Y-96621575D01*
X134256597Y-96751505D01*
X134089505Y-96918597D01*
X133953965Y-97112169D01*
X133953964Y-97112171D01*
X133854098Y-97326335D01*
X133854094Y-97326344D01*
X133792938Y-97554586D01*
X133792936Y-97554596D01*
X133772341Y-97789999D01*
X133772341Y-97790000D01*
X133792936Y-98025403D01*
X133792938Y-98025413D01*
X133854094Y-98253655D01*
X133854096Y-98253659D01*
X133854097Y-98253663D01*
X133904492Y-98361735D01*
X133953965Y-98467830D01*
X133953967Y-98467834D01*
X134089501Y-98661395D01*
X134089506Y-98661402D01*
X134256597Y-98828493D01*
X134256603Y-98828498D01*
X134442158Y-98958425D01*
X134485783Y-99013002D01*
X134492977Y-99082500D01*
X134461454Y-99144855D01*
X134442158Y-99161575D01*
X134256597Y-99291505D01*
X134089505Y-99458597D01*
X133953965Y-99652169D01*
X133953964Y-99652171D01*
X133854098Y-99866335D01*
X133854094Y-99866344D01*
X133792938Y-100094586D01*
X133792936Y-100094596D01*
X133772341Y-100329999D01*
X133772341Y-100330000D01*
X133792936Y-100565403D01*
X133792938Y-100565413D01*
X133854094Y-100793655D01*
X133854096Y-100793659D01*
X133854097Y-100793663D01*
X133874183Y-100836737D01*
X133953965Y-101007830D01*
X133953967Y-101007834D01*
X134089501Y-101201395D01*
X134089506Y-101201402D01*
X134256597Y-101368493D01*
X134256603Y-101368498D01*
X134442158Y-101498425D01*
X134485783Y-101553002D01*
X134492977Y-101622500D01*
X134461454Y-101684855D01*
X134442158Y-101701575D01*
X134256597Y-101831505D01*
X134089505Y-101998597D01*
X133953965Y-102192169D01*
X133953964Y-102192171D01*
X133854098Y-102406335D01*
X133854094Y-102406344D01*
X133792938Y-102634586D01*
X133792936Y-102634596D01*
X133772341Y-102869999D01*
X133772341Y-102870000D01*
X133792936Y-103105403D01*
X133792938Y-103105413D01*
X133854094Y-103333655D01*
X133854096Y-103333659D01*
X133854097Y-103333663D01*
X133881985Y-103393468D01*
X133953965Y-103547830D01*
X133953967Y-103547834D01*
X134089501Y-103741395D01*
X134089506Y-103741402D01*
X134256597Y-103908493D01*
X134256603Y-103908498D01*
X134442158Y-104038425D01*
X134485783Y-104093002D01*
X134492977Y-104162500D01*
X134461454Y-104224855D01*
X134442158Y-104241575D01*
X134256597Y-104371505D01*
X134089505Y-104538597D01*
X133953965Y-104732169D01*
X133953964Y-104732171D01*
X133854098Y-104946335D01*
X133854094Y-104946344D01*
X133792938Y-105174586D01*
X133792936Y-105174596D01*
X133772341Y-105409999D01*
X133772341Y-105410000D01*
X133350500Y-105410000D01*
X133350500Y-87453231D01*
X133370185Y-87386192D01*
X133422989Y-87340437D01*
X133492147Y-87330493D01*
X133555703Y-87359518D01*
X133576552Y-87384773D01*
X133577458Y-87384163D01*
X133579877Y-87387750D01*
X133579879Y-87387753D01*
X133740238Y-87625496D01*
X133786963Y-87677389D01*
X133932120Y-87838603D01*
X133932127Y-87838610D01*
X134151797Y-88022936D01*
X134378994Y-88164905D01*
X134394998Y-88174905D01*
X134513800Y-88227799D01*
X134656962Y-88291540D01*
X134656967Y-88291541D01*
X134656975Y-88291545D01*
X134932636Y-88370589D01*
X134932641Y-88370589D01*
X134932646Y-88370591D01*
X135121955Y-88397196D01*
X135216610Y-88410499D01*
X135216612Y-88410500D01*
X135216615Y-88410500D01*
X135431592Y-88410500D01*
X135431604Y-88410500D01*
X135646071Y-88395503D01*
X135646076Y-88395502D01*
X135646078Y-88395502D01*
X135767663Y-88369657D01*
X135926575Y-88335880D01*
X136196050Y-88237799D01*
X136449253Y-88103169D01*
X136681254Y-87934610D01*
X136887539Y-87735403D01*
X137064093Y-87509425D01*
X137207477Y-87261075D01*
X137314903Y-86995187D01*
X137384279Y-86716935D01*
X137414255Y-86431736D01*
X137414133Y-86428247D01*
X137404809Y-86161234D01*
X137404247Y-86145141D01*
X137354450Y-85862728D01*
X137265833Y-85589994D01*
X137260956Y-85579994D01*
X137140125Y-85332254D01*
X137140123Y-85332251D01*
X137140121Y-85332247D01*
X136979762Y-85094504D01*
X136787875Y-84881392D01*
X136787872Y-84881389D01*
X136568202Y-84697063D01*
X136325006Y-84545097D01*
X136325004Y-84545096D01*
X136063037Y-84428459D01*
X136063027Y-84428456D01*
X136063025Y-84428455D01*
X135787364Y-84349411D01*
X135787362Y-84349410D01*
X135787353Y-84349408D01*
X135503389Y-84309500D01*
X135503385Y-84309500D01*
X135288396Y-84309500D01*
X135288383Y-84309500D01*
X135073925Y-84324497D01*
X135073921Y-84324497D01*
X134827925Y-84376786D01*
X134758258Y-84371470D01*
X134702524Y-84329333D01*
X134678419Y-84263753D01*
X134693596Y-84195552D01*
X134714459Y-84167819D01*
X136761925Y-82120354D01*
X136766253Y-82116233D01*
X136768232Y-82114439D01*
X136768266Y-82114408D01*
X136804028Y-82082450D01*
X136804723Y-82081834D01*
X136910127Y-81989401D01*
X136913199Y-81986796D01*
X136957745Y-81950239D01*
X136964566Y-81945030D01*
X137026250Y-81901264D01*
X137028862Y-81899466D01*
X137122288Y-81837043D01*
X137125620Y-81834895D01*
X137157822Y-81814871D01*
X137163208Y-81811711D01*
X137239182Y-81769723D01*
X137244295Y-81767052D01*
X137352474Y-81713707D01*
X137356084Y-81711998D01*
X137370361Y-81705530D01*
X137373870Y-81704008D01*
X137455042Y-81670388D01*
X137458634Y-81668968D01*
X137473277Y-81663458D01*
X137476980Y-81662132D01*
X137591305Y-81623326D01*
X137596727Y-81621626D01*
X137680138Y-81597597D01*
X137686198Y-81596019D01*
X137723167Y-81587399D01*
X137726993Y-81586573D01*
X137837194Y-81564655D01*
X137840425Y-81564059D01*
X137914931Y-81551401D01*
X137923451Y-81550259D01*
X137980725Y-81544615D01*
X137984697Y-81544288D01*
X138122460Y-81535246D01*
X138123153Y-81535204D01*
X138175464Y-81532267D01*
X138182390Y-81532073D01*
X150232420Y-81532073D01*
X150299459Y-81551758D01*
G37*
%TD.AperFunction*%
%TA.AperFunction,Conductor*%
G36*
X150236835Y-88029148D02*
G01*
X150294359Y-88142045D01*
X150383955Y-88231641D01*
X150496852Y-88289165D01*
X150577599Y-88301953D01*
X149896526Y-88983025D01*
X149969513Y-89034132D01*
X149969515Y-89034133D01*
X149984973Y-89041341D01*
X150037413Y-89087513D01*
X150056566Y-89154706D01*
X150036351Y-89221587D01*
X149984979Y-89266104D01*
X149969270Y-89273429D01*
X149969265Y-89273432D01*
X149782858Y-89403954D01*
X149621954Y-89564858D01*
X149554075Y-89661801D01*
X149499498Y-89705426D01*
X149430000Y-89712620D01*
X149367645Y-89681097D01*
X149332231Y-89620868D01*
X149328500Y-89590678D01*
X149328500Y-88716449D01*
X149348185Y-88649410D01*
X149400989Y-88603655D01*
X149470147Y-88593711D01*
X149533703Y-88622736D01*
X149539504Y-88629168D01*
X149542974Y-88629472D01*
X150224046Y-87948400D01*
X150236835Y-88029148D01*
G37*
%TD.AperFunction*%
%TD*%
M02*
