0
SECTION
2
HEADER
9
$INSUNITS
70
4
9
$ACADVER
1
AC1014
9
$HANDSEED
5
FFFF
0
ENDSEC
0
SECTION
2
TABLES
0
TABLE
2
VPORT
5
8
100
AcDbSymbolTable
0
ENDTAB
0
TABLE
2
LTYPE
5
5
100
AcDbSymbolTable
0
LTYPE
5
14
100
AcDbSymbolTableRecord
100
AcDbLinetypeTableRecord
2
BYBLOCK
70
0
0
LTYPE
5
15
100
AcDbSymbolTableRecord
100
AcDbLinetypeTableRecord
2
BYLAYER
70
0
0
LTYPE
5
16
100
AcDbSymbolTableRecord
100
AcDbLinetypeTableRecord
2
DASHED
70
0
3
Dashed __ __ __ __ __ __ __ __ __ __ __ __ __ _
72
65
73
2
40
0.75
49
0.5
74
0
49
-0.25
74
0
0
ENDTAB
0
TABLE
2
LAYER
5
2
100
AcDbSymbolTable
70
3
0
LAYER
5
50
100
AcDbSymbolTableRecord
100
AcDbLayerTableRecord
2
1
70
0
62
7
6
DASHED
0
LAYER
5
51
100
AcDbSymbolTableRecord
100
AcDbLayerTableRecord
2
0
70
0
62
7
6
CONTINUOUS
0
ENDTAB
0
TABLE
2
STYLE
5
3
100
AcDbSymbolTable
70
1
0
STYLE
5
11
100
AcDbSymbolTableRecord
100
AcDbTextStyleTableRecord
2
STANDARD
70
0
0
ENDTAB
0
TABLE
2
VIEW
5
6
100
AcDbSymbolTable
70
0
0
ENDTAB
0
TABLE
2
UCS
5
7
100
AcDbSymbolTable
70
0
0
ENDTAB
0
TABLE
2
APPID
5
9
100
AcDbSymbolTable
70
2
0
APPID
5
12
100
AcDbSymbolTableRecord
100
AcDbRegAppTableRecord
2
ACAD
70
0
0
ENDTAB
0
TABLE
2
DIMSTYLE
5
A
100
AcDbSymbolTable
70
1
0
ENDTAB
0
TABLE
2
BLOCK_RECORD
5
1
100
AcDbSymbolTable
70
1
0
BLOCK_RECORD
5
1F
100
AcDbSymbolTableRecord
100
AcDbBlockTableRecord
2
*MODEL_SPACE
0
BLOCK_RECORD
5
1B
100
AcDbSymbolTableRecord
100
AcDbBlockTableRecord
2
*PAPER_SPACE
0
ENDTAB
0
ENDSEC
0
SECTION
2
BLOCKS
0
BLOCK
5
20
100
AcDbEntity
100
AcDbBlockBegin
2
*MODEL_SPACE
0
ENDBLK
5
21
100
AcDbEntity
100
AcDbBlockEnd
0
BLOCK
5
1C
100
AcDbEntity
100
AcDbBlockBegin
2
*PAPER_SPACE
0
ENDBLK
5
1D
100
AcDbEntity
100
AcDbBlockEnd
0
ENDSEC
0
SECTION
2
ENTITIES
0
CIRCLE
5
100
100
AcDbEntity
8
0
100
AcDbCircle
10
-23.714265445104573
20
-31.589295883243732
30
0
40
1.6000000000000014
210
0
220
0
230
1
0
CIRCLE
5
101
100
AcDbEntity
8
0
100
AcDbCircle
10
-15.499999999999988
20
36.331804249169899
30
0
40
1.6000000000000014
210
0
220
0
230
1
0
CIRCLE
5
102
100
AcDbEntity
8
0
100
AcDbCircle
10
23.714265445104516
20
-31.589295883243778
30
0
40
1.6000000000000014
210
0
220
0
230
1
0
CIRCLE
5
103
100
AcDbEntity
8
0
100
AcDbCircle
10
15.500000000000016
20
36.331804249169899
30
0
40
1.6000000000000014
210
0
220
0
230
1
0
CIRCLE
5
104
100
AcDbEntity
8
0
100
AcDbCircle
10
14.325613966313039
20
24.812436184750325
30
0
40
1.6000000000000014
210
0
220
0
230
1
0
CIRCLE
5
105
100
AcDbEntity
8
0
100
AcDbCircle
10
-28.651007048930541
20
0.00012752726107151391
30
0
40
1.6000000000000014
210
0
220
0
230
1
0
CIRCLE
5
106
100
AcDbEntity
8
0
100
AcDbCircle
10
28.651007048930541
20
-0.00012752726107502263
30
0
40
1.6000000000000014
210
0
220
0
230
1
0
CIRCLE
5
107
100
AcDbEntity
8
0
100
AcDbCircle
10
-14.325393082617488
20
24.812563712011414
30
0
40
1.6000000000000014
210
0
220
0
230
1
0
CIRCLE
5
108
100
AcDbEntity
8
0
100
AcDbCircle
10
-14.325613966313036
20
-24.812436184750336
30
0
40
1.6000000000000014
210
0
220
0
230
1
0
CIRCLE
5
109
100
AcDbEntity
8
0
100
AcDbCircle
10
14.325393082617502
20
-24.812563712011411
30
0
40
1.6000000000000014
210
0
220
0
230
1
0
LWPOLYLINE
5
110
100
AcDbEntity
8
0
100
AcDbPolyline
90
48
70
1
43
0.0
10
-25.214265445104573
20
-28.99121967189042
42
0.53790563166432837
10
-25.515348896631505
20
-33.988482912350854
42
0.060249668076158176
10
-16.67721518987344
20
-39.091181787081531
42
0.53790563166432914
10
-12.500000000000018
20
-36.331804249169892
10
-12.500000000000021
20
-31.999999999999996
42
-0.41421356237309509
10
-10.500000000000021
20
-29.999999999999996
10
10.499999999999986
20
-30.000000000000007
42
-0.4142135623730947
10
12.499999999999982
20
-32.000000000000007
10
12.49999999999998
20
-36.331804249169913
42
0.53790563166432759
10
16.677215189873394
20
-39.091181787081553
42
0.060249668076157829
10
25.51534889663143
20
-33.988482912350904
42
0.53790563166433014
10
25.214265445104516
20
-28.991219671890459
10
21.46281292110201
20
-26.825317547305495
42
-0.41421356237309442
10
20.730762113533139
20
-24.09326673973662
10
31.230762113533149
20
-5.9067332602634171
42
-0.41421356237309531
10
33.962812921102028
20
-5.1746824526945412
10
37.714265445104537
20
-7.3405845772794986
42
0.53790563166432859
10
42.192564086504888
20
-5.1026988747306987
42
0.060249668076157593
10
42.192564086504909
20
5.1026988747305708
42
0.53790563166433214
10
37.714265445104559
20
7.3405845772794169
10
33.962812921102035
20
5.1746824526944701
42
-0.41421356237309453
10
31.230762113533164
20
5.9067332602633495
10
20.730762113533181
20
24.093266739736588
42
-0.41421356237309442
10
21.462812921102064
20
26.825317547305456
10
25.21426544510458
20
28.991219671890399
42
0.53790563166432959
10
25.515348896631515
20
33.98848291235084
42
0.060249668076158058
10
16.677215189873458
20
39.091181787081524
42
0.53790563166433236
10
12.50000000000002
20
36.331804249169892
10
12.500000000000018
20
31.999999999999996
42
-0.41421356237309509
10
10.500000000000016
20
29.999999999999996
10
-10.499999999999989
20
30.000000000000007
42
-0.4142135623730947
10
-12.499999999999986
20
32.000000000000007
10
-12.499999999999984
20
36.331804249169906
42
0.53790563166432714
10
-16.677215189873404
20
39.091181787081553
42
0.060249668076158176
10
-25.515348896631465
20
33.988482912350875
42
0.5379056316643277
10
-25.21426544510453
20
28.991219671890455
10
-21.462812921102024
20
26.825317547305495
42
-0.41421356237309509
10
-20.730762113533146
20
24.09326673973662
10
-31.230762113533153
20
5.9067332602634135
42
-0.41421356237309476
10
-33.962812921102035
20
5.1746824526945385
10
-37.714265445104537
20
7.3405845772794889
42
0.53790563166432881
10
-42.192564086504888
20
5.1026988747306925
42
0.060249668076158058
10
-42.192564086504902
20
-5.1026988747306152
42
0.53790563166433003
10
-37.714265445104559
20
-7.3405845772794365
10
-33.962812921102042
20
-5.1746824526944888
42
-0.41421356237309453
10
-31.230762113533167
20
-5.9067332602633655
10
-20.730762113533171
20
-24.093266739736592
42
-0.41421356237309387
10
-21.462812921102049
20
-26.82531754730546
0
ENDSEC
0
SECTION
2
OBJECTS
0
DICTIONARY
5
C
100
AcDbDictionary
3
ACAD_GROUP
350
D
3
ACAD_MLINESTYLE
350
17
0
DICTIONARY
5
D
100
AcDbDictionary
0
DICTIONARY
5
1A
330
C
100
AcDbDictionary
0
DICTIONARY
5
17
100
AcDbDictionary
0
ENDSEC
0
EOF
