%TF.GenerationSoftware,KiCad,Pcbnew,7.0.11*%
%TF.CreationDate,2025-03-06T22:37:58+09:00*%
%TF.ProjectId,Line_V2,4c696e65-5f56-4322-9e6b-696361645f70,rev?*%
%TF.SameCoordinates,Original*%
%TF.FileFunction,Legend,Top*%
%TF.FilePolarity,Positive*%
%FSLAX46Y46*%
G04 Gerber Fmt 4.6, Leading zero omitted, Abs format (unit mm)*
G04 Created by KiCad (PCBNEW 7.0.11) date 2025-03-06 22:37:58*
%MOMM*%
%LPD*%
G01*
G04 APERTURE LIST*
%ADD10C,0.150000*%
%ADD11C,0.120000*%
%ADD12C,0.100000*%
G04 APERTURE END LIST*
D10*
X64440428Y-108358942D02*
X62440428Y-105358942D01*
X62440428Y-108358942D02*
X64440428Y-105358942D01*
X61297571Y-105358942D02*
X61297571Y-108358942D01*
X60011857Y-106216085D02*
X58583286Y-106216085D01*
X60297571Y-105358942D02*
X59297571Y-108358942D01*
X59297571Y-108358942D02*
X58297571Y-105358942D01*
X56726142Y-108358942D02*
X56154714Y-108358942D01*
X56154714Y-108358942D02*
X55868999Y-108216085D01*
X55868999Y-108216085D02*
X55583285Y-107930371D01*
X55583285Y-107930371D02*
X55440428Y-107358942D01*
X55440428Y-107358942D02*
X55440428Y-106358942D01*
X55440428Y-106358942D02*
X55583285Y-105787514D01*
X55583285Y-105787514D02*
X55868999Y-105501800D01*
X55868999Y-105501800D02*
X56154714Y-105358942D01*
X56154714Y-105358942D02*
X56726142Y-105358942D01*
X56726142Y-105358942D02*
X57011857Y-105501800D01*
X57011857Y-105501800D02*
X57297571Y-105787514D01*
X57297571Y-105787514D02*
X57440428Y-106358942D01*
X57440428Y-106358942D02*
X57440428Y-107358942D01*
X57440428Y-107358942D02*
X57297571Y-107930371D01*
X57297571Y-107930371D02*
X57011857Y-108216085D01*
X57011857Y-108216085D02*
X56726142Y-108358942D01*
D11*
%TO.C,U2*%
X69038400Y-109685400D02*
X51258400Y-109685400D01*
X69038400Y-88679600D02*
X69038400Y-109685400D01*
X66498400Y-88679600D02*
X66498400Y-109685400D01*
X53798400Y-109660000D02*
X53798400Y-88692300D01*
D12*
X53798400Y-88692300D02*
X66510139Y-88674129D01*
D11*
X51258400Y-109685400D02*
X51258400Y-88679600D01*
X51258400Y-88679600D02*
X69038400Y-88679600D01*
D12*
X53823800Y-109380600D02*
X66498400Y-109380600D01*
X66498400Y-109380600D02*
X66498400Y-109672700D01*
X66498400Y-109672700D02*
X53823800Y-109672700D01*
X53823800Y-109672700D02*
X53823800Y-109380600D01*
X53798400Y-88692300D02*
X66473000Y-88692300D01*
X66473000Y-88692300D02*
X66473000Y-88984400D01*
X66473000Y-88984400D02*
X53798400Y-88984400D01*
X53798400Y-88984400D02*
X53798400Y-88692300D01*
X68733934Y-106789466D02*
G75*
G03*
X66802866Y-106789466I-965534J0D01*
G01*
X66802866Y-106789466D02*
G75*
G03*
X68733934Y-106789466I965534J0D01*
G01*
X68733934Y-104249466D02*
G75*
G03*
X66802866Y-104249466I-965534J0D01*
G01*
X66802866Y-104249466D02*
G75*
G03*
X68733934Y-104249466I965534J0D01*
G01*
X68733934Y-101709466D02*
G75*
G03*
X66802866Y-101709466I-965534J0D01*
G01*
X66802866Y-101709466D02*
G75*
G03*
X68733934Y-101709466I965534J0D01*
G01*
X68733934Y-99169466D02*
G75*
G03*
X66802866Y-99169466I-965534J0D01*
G01*
X66802866Y-99169466D02*
G75*
G03*
X68733934Y-99169466I965534J0D01*
G01*
X68733934Y-96629466D02*
G75*
G03*
X66802866Y-96629466I-965534J0D01*
G01*
X66802866Y-96629466D02*
G75*
G03*
X68733934Y-96629466I965534J0D01*
G01*
X68733934Y-94089466D02*
G75*
G03*
X66802866Y-94089466I-965534J0D01*
G01*
X66802866Y-94089466D02*
G75*
G03*
X68733934Y-94089466I965534J0D01*
G01*
X68733934Y-91549466D02*
G75*
G03*
X66802866Y-91549466I-965534J0D01*
G01*
X66802866Y-91549466D02*
G75*
G03*
X68733934Y-91549466I965534J0D01*
G01*
X53493934Y-106789466D02*
G75*
G03*
X51562866Y-106789466I-965534J0D01*
G01*
X51562866Y-106789466D02*
G75*
G03*
X53493934Y-106789466I965534J0D01*
G01*
X53493934Y-104249466D02*
G75*
G03*
X51562866Y-104249466I-965534J0D01*
G01*
X51562866Y-104249466D02*
G75*
G03*
X53493934Y-104249466I965534J0D01*
G01*
X53493934Y-101709466D02*
G75*
G03*
X51562866Y-101709466I-965534J0D01*
G01*
X51562866Y-101709466D02*
G75*
G03*
X53493934Y-101709466I965534J0D01*
G01*
X53493934Y-99169466D02*
G75*
G03*
X51562866Y-99169466I-965534J0D01*
G01*
X51562866Y-99169466D02*
G75*
G03*
X53493934Y-99169466I965534J0D01*
G01*
X53493934Y-96629466D02*
G75*
G03*
X51562866Y-96629466I-965534J0D01*
G01*
X51562866Y-96629466D02*
G75*
G03*
X53493934Y-96629466I965534J0D01*
G01*
X53493934Y-91549800D02*
G75*
G03*
X51562866Y-91549800I-965534J0D01*
G01*
X51562866Y-91549800D02*
G75*
G03*
X53493934Y-91549800I965534J0D01*
G01*
X53493600Y-94089800D02*
G75*
G03*
X51562532Y-94089800I-965534J0D01*
G01*
X51562532Y-94089800D02*
G75*
G03*
X53493600Y-94089800I965534J0D01*
G01*
X66510139Y-109679929D02*
X53823800Y-109672700D01*
X53823800Y-109380600D01*
X66498400Y-109380600D01*
X66510139Y-109679929D01*
G36*
X66510139Y-109679929D02*
G01*
X53823800Y-109672700D01*
X53823800Y-109380600D01*
X66498400Y-109380600D01*
X66510139Y-109679929D01*
G37*
X66473000Y-88984400D02*
X53798400Y-88984400D01*
X53798400Y-88692300D01*
X66473000Y-88692300D01*
X66473000Y-88984400D01*
G36*
X66473000Y-88984400D02*
G01*
X53798400Y-88984400D01*
X53798400Y-88692300D01*
X66473000Y-88692300D01*
X66473000Y-88984400D01*
G37*
X69050139Y-91544329D02*
X68745673Y-91543995D01*
X68745339Y-91315729D01*
X68669139Y-91112529D01*
X68592939Y-90960129D01*
X68338939Y-90731529D01*
X68135739Y-90579129D01*
X69024739Y-90579129D01*
X69050139Y-91544329D01*
G36*
X69050139Y-91544329D02*
G01*
X68745673Y-91543995D01*
X68745339Y-91315729D01*
X68669139Y-91112529D01*
X68592939Y-90960129D01*
X68338939Y-90731529D01*
X68135739Y-90579129D01*
X69024739Y-90579129D01*
X69050139Y-91544329D01*
G37*
X53798400Y-91549800D02*
X53493934Y-91549466D01*
X53493600Y-91321200D01*
X53417400Y-91118000D01*
X53341200Y-90965600D01*
X53087200Y-90737000D01*
X52884000Y-90584600D01*
X53773000Y-90584600D01*
X53798400Y-91549800D01*
G36*
X53798400Y-91549800D02*
G01*
X53493934Y-91549466D01*
X53493600Y-91321200D01*
X53417400Y-91118000D01*
X53341200Y-90965600D01*
X53087200Y-90737000D01*
X52884000Y-90584600D01*
X53773000Y-90584600D01*
X53798400Y-91549800D01*
G37*
X69050139Y-99189729D02*
X69024739Y-101729729D01*
X68745673Y-101729395D01*
X68745339Y-101501129D01*
X68643739Y-101221729D01*
X68440539Y-100967729D01*
X68008739Y-100739129D01*
X67526139Y-100739129D01*
X67145139Y-100942329D01*
X66814939Y-101399529D01*
X66840339Y-99596129D01*
X67195939Y-100027929D01*
X67653139Y-100154929D01*
X67983339Y-100154929D01*
X68389739Y-99977129D01*
X68592939Y-99773929D01*
X68719939Y-99519929D01*
X68745673Y-99189395D01*
X69050139Y-99189729D01*
G36*
X69050139Y-99189729D02*
G01*
X69024739Y-101729729D01*
X68745673Y-101729395D01*
X68745339Y-101501129D01*
X68643739Y-101221729D01*
X68440539Y-100967729D01*
X68008739Y-100739129D01*
X67526139Y-100739129D01*
X67145139Y-100942329D01*
X66814939Y-101399529D01*
X66840339Y-99596129D01*
X67195939Y-100027929D01*
X67653139Y-100154929D01*
X67983339Y-100154929D01*
X68389739Y-99977129D01*
X68592939Y-99773929D01*
X68719939Y-99519929D01*
X68745673Y-99189395D01*
X69050139Y-99189729D01*
G37*
X69050139Y-104244329D02*
X69024739Y-106784329D01*
X68745673Y-106783995D01*
X68745339Y-106555729D01*
X68643739Y-106276329D01*
X68440539Y-106022329D01*
X68008739Y-105793729D01*
X67526139Y-105793729D01*
X67145139Y-105996929D01*
X66814939Y-106454129D01*
X66840339Y-104650729D01*
X66840339Y-104676129D01*
X67195939Y-105107929D01*
X67653139Y-105265800D01*
X67983339Y-105234929D01*
X68389739Y-105057129D01*
X68592939Y-104828529D01*
X68719939Y-104574529D01*
X68745673Y-104243995D01*
X69050139Y-104244329D01*
G36*
X69050139Y-104244329D02*
G01*
X69024739Y-106784329D01*
X68745673Y-106783995D01*
X68745339Y-106555729D01*
X68643739Y-106276329D01*
X68440539Y-106022329D01*
X68008739Y-105793729D01*
X67526139Y-105793729D01*
X67145139Y-105996929D01*
X66814939Y-106454129D01*
X66840339Y-104650729D01*
X66840339Y-104676129D01*
X67195939Y-105107929D01*
X67653139Y-105265800D01*
X67983339Y-105234929D01*
X68389739Y-105057129D01*
X68592939Y-104828529D01*
X68719939Y-104574529D01*
X68745673Y-104243995D01*
X69050139Y-104244329D01*
G37*
X69050139Y-101704329D02*
X69024739Y-104244329D01*
X68745673Y-104243995D01*
X68745339Y-104015729D01*
X68643739Y-103736329D01*
X68440539Y-103482329D01*
X68008739Y-103253729D01*
X67526139Y-103253729D01*
X67145139Y-103456929D01*
X66814939Y-103914129D01*
X66840339Y-102110729D01*
X66840339Y-102161529D01*
X67195939Y-102593329D01*
X67641400Y-102700400D01*
X68008739Y-102694929D01*
X68415139Y-102517129D01*
X68592939Y-102288529D01*
X68719939Y-102034529D01*
X68745673Y-101703995D01*
X69050139Y-101704329D01*
G36*
X69050139Y-101704329D02*
G01*
X69024739Y-104244329D01*
X68745673Y-104243995D01*
X68745339Y-104015729D01*
X68643739Y-103736329D01*
X68440539Y-103482329D01*
X68008739Y-103253729D01*
X67526139Y-103253729D01*
X67145139Y-103456929D01*
X66814939Y-103914129D01*
X66840339Y-102110729D01*
X66840339Y-102161529D01*
X67195939Y-102593329D01*
X67641400Y-102700400D01*
X68008739Y-102694929D01*
X68415139Y-102517129D01*
X68592939Y-102288529D01*
X68719939Y-102034529D01*
X68745673Y-101703995D01*
X69050139Y-101704329D01*
G37*
X69050139Y-96649729D02*
X69024739Y-99189729D01*
X68745673Y-99189395D01*
X68745339Y-98961129D01*
X68643739Y-98681729D01*
X68440539Y-98427729D01*
X68008739Y-98199129D01*
X67526139Y-98199129D01*
X67145139Y-98402329D01*
X66814939Y-98859529D01*
X66840339Y-97056129D01*
X66865739Y-97081529D01*
X67221339Y-97513329D01*
X67653139Y-97614929D01*
X67983339Y-97614929D01*
X68389739Y-97437129D01*
X68592939Y-97233929D01*
X68719939Y-96979929D01*
X68745673Y-96649395D01*
X69050139Y-96649729D01*
G36*
X69050139Y-96649729D02*
G01*
X69024739Y-99189729D01*
X68745673Y-99189395D01*
X68745339Y-98961129D01*
X68643739Y-98681729D01*
X68440539Y-98427729D01*
X68008739Y-98199129D01*
X67526139Y-98199129D01*
X67145139Y-98402329D01*
X66814939Y-98859529D01*
X66840339Y-97056129D01*
X66865739Y-97081529D01*
X67221339Y-97513329D01*
X67653139Y-97614929D01*
X67983339Y-97614929D01*
X68389739Y-97437129D01*
X68592939Y-97233929D01*
X68719939Y-96979929D01*
X68745673Y-96649395D01*
X69050139Y-96649729D01*
G37*
X69050139Y-94084329D02*
X69024739Y-96624329D01*
X68745673Y-96623995D01*
X68745339Y-96395729D01*
X68643739Y-96116329D01*
X68440539Y-95862329D01*
X68008739Y-95633729D01*
X67526139Y-95633729D01*
X67145139Y-95836929D01*
X66814939Y-96294129D01*
X66840339Y-94490729D01*
X66840339Y-94516129D01*
X67195939Y-94947929D01*
X67653139Y-95105800D01*
X68008739Y-95074929D01*
X68415139Y-94897129D01*
X68592939Y-94668529D01*
X68719939Y-94414529D01*
X68745673Y-94083995D01*
X69050139Y-94084329D01*
G36*
X69050139Y-94084329D02*
G01*
X69024739Y-96624329D01*
X68745673Y-96623995D01*
X68745339Y-96395729D01*
X68643739Y-96116329D01*
X68440539Y-95862329D01*
X68008739Y-95633729D01*
X67526139Y-95633729D01*
X67145139Y-95836929D01*
X66814939Y-96294129D01*
X66840339Y-94490729D01*
X66840339Y-94516129D01*
X67195939Y-94947929D01*
X67653139Y-95105800D01*
X68008739Y-95074929D01*
X68415139Y-94897129D01*
X68592939Y-94668529D01*
X68719939Y-94414529D01*
X68745673Y-94083995D01*
X69050139Y-94084329D01*
G37*
X69050139Y-91544329D02*
X69024739Y-94084329D01*
X68745673Y-94083995D01*
X68745339Y-93855729D01*
X68643739Y-93576329D01*
X68440539Y-93322329D01*
X68008739Y-93093729D01*
X67526139Y-93093729D01*
X67145139Y-93296929D01*
X66814939Y-93754129D01*
X66840339Y-91950729D01*
X66840339Y-91976129D01*
X67195939Y-92407929D01*
X67653139Y-92540400D01*
X68008739Y-92534929D01*
X68415139Y-92357129D01*
X68592939Y-92128529D01*
X68719939Y-91874529D01*
X68745673Y-91543995D01*
X69050139Y-91544329D01*
G36*
X69050139Y-91544329D02*
G01*
X69024739Y-94084329D01*
X68745673Y-94083995D01*
X68745339Y-93855729D01*
X68643739Y-93576329D01*
X68440539Y-93322329D01*
X68008739Y-93093729D01*
X67526139Y-93093729D01*
X67145139Y-93296929D01*
X66814939Y-93754129D01*
X66840339Y-91950729D01*
X66840339Y-91976129D01*
X67195939Y-92407929D01*
X67653139Y-92540400D01*
X68008739Y-92534929D01*
X68415139Y-92357129D01*
X68592939Y-92128529D01*
X68719939Y-91874529D01*
X68745673Y-91543995D01*
X69050139Y-91544329D01*
G37*
X53798400Y-104249800D02*
X53773000Y-106789800D01*
X53493934Y-106789466D01*
X53493600Y-106561200D01*
X53392000Y-106281800D01*
X53188800Y-106027800D01*
X52757000Y-105799200D01*
X52274400Y-105799200D01*
X51893400Y-106002400D01*
X51563200Y-106459600D01*
X51588600Y-104656200D01*
X51614000Y-104656200D01*
X51969600Y-105088000D01*
X52401400Y-105215000D01*
X52731600Y-105215000D01*
X53138000Y-105037200D01*
X53341200Y-104834000D01*
X53468200Y-104580000D01*
X53493934Y-104249466D01*
X53798400Y-104249800D01*
G36*
X53798400Y-104249800D02*
G01*
X53773000Y-106789800D01*
X53493934Y-106789466D01*
X53493600Y-106561200D01*
X53392000Y-106281800D01*
X53188800Y-106027800D01*
X52757000Y-105799200D01*
X52274400Y-105799200D01*
X51893400Y-106002400D01*
X51563200Y-106459600D01*
X51588600Y-104656200D01*
X51614000Y-104656200D01*
X51969600Y-105088000D01*
X52401400Y-105215000D01*
X52731600Y-105215000D01*
X53138000Y-105037200D01*
X53341200Y-104834000D01*
X53468200Y-104580000D01*
X53493934Y-104249466D01*
X53798400Y-104249800D01*
G37*
X53798400Y-101709800D02*
X53773000Y-104249800D01*
X53493934Y-104249466D01*
X53493600Y-104021200D01*
X53392000Y-103741800D01*
X53188800Y-103487800D01*
X52757000Y-103259200D01*
X52274400Y-103259200D01*
X51893400Y-103462400D01*
X51563200Y-103919600D01*
X51588600Y-102116200D01*
X51614000Y-102116200D01*
X51969600Y-102548000D01*
X52401400Y-102675000D01*
X52731600Y-102675000D01*
X53138000Y-102497200D01*
X53341200Y-102294000D01*
X53468200Y-102040000D01*
X53493934Y-101709466D01*
X53798400Y-101709800D01*
G36*
X53798400Y-101709800D02*
G01*
X53773000Y-104249800D01*
X53493934Y-104249466D01*
X53493600Y-104021200D01*
X53392000Y-103741800D01*
X53188800Y-103487800D01*
X52757000Y-103259200D01*
X52274400Y-103259200D01*
X51893400Y-103462400D01*
X51563200Y-103919600D01*
X51588600Y-102116200D01*
X51614000Y-102116200D01*
X51969600Y-102548000D01*
X52401400Y-102675000D01*
X52731600Y-102675000D01*
X53138000Y-102497200D01*
X53341200Y-102294000D01*
X53468200Y-102040000D01*
X53493934Y-101709466D01*
X53798400Y-101709800D01*
G37*
X53798400Y-99195200D02*
X53773000Y-101735200D01*
X53493934Y-101734866D01*
X53493600Y-101506600D01*
X53392000Y-101227200D01*
X53188800Y-100973200D01*
X52757000Y-100744600D01*
X52274400Y-100744600D01*
X51893400Y-100947800D01*
X51563200Y-101405000D01*
X51588600Y-99601600D01*
X51614000Y-99601600D01*
X51969600Y-100033400D01*
X52401400Y-100160400D01*
X52731600Y-100160400D01*
X53138000Y-99982600D01*
X53341200Y-99779400D01*
X53468200Y-99525400D01*
X53493934Y-99194866D01*
X53798400Y-99195200D01*
G36*
X53798400Y-99195200D02*
G01*
X53773000Y-101735200D01*
X53493934Y-101734866D01*
X53493600Y-101506600D01*
X53392000Y-101227200D01*
X53188800Y-100973200D01*
X52757000Y-100744600D01*
X52274400Y-100744600D01*
X51893400Y-100947800D01*
X51563200Y-101405000D01*
X51588600Y-99601600D01*
X51614000Y-99601600D01*
X51969600Y-100033400D01*
X52401400Y-100160400D01*
X52731600Y-100160400D01*
X53138000Y-99982600D01*
X53341200Y-99779400D01*
X53468200Y-99525400D01*
X53493934Y-99194866D01*
X53798400Y-99195200D01*
G37*
X53798400Y-96655200D02*
X53773000Y-99195200D01*
X53493934Y-99194866D01*
X53493600Y-98966600D01*
X53392000Y-98687200D01*
X53188800Y-98433200D01*
X52757000Y-98204600D01*
X52274400Y-98204600D01*
X51893400Y-98407800D01*
X51563200Y-98865000D01*
X51588600Y-97061600D01*
X51614000Y-97061600D01*
X51969600Y-97493400D01*
X52401400Y-97620400D01*
X52731600Y-97620400D01*
X53138000Y-97442600D01*
X53341200Y-97239400D01*
X53468200Y-96985400D01*
X53493934Y-96654866D01*
X53798400Y-96655200D01*
G36*
X53798400Y-96655200D02*
G01*
X53773000Y-99195200D01*
X53493934Y-99194866D01*
X53493600Y-98966600D01*
X53392000Y-98687200D01*
X53188800Y-98433200D01*
X52757000Y-98204600D01*
X52274400Y-98204600D01*
X51893400Y-98407800D01*
X51563200Y-98865000D01*
X51588600Y-97061600D01*
X51614000Y-97061600D01*
X51969600Y-97493400D01*
X52401400Y-97620400D01*
X52731600Y-97620400D01*
X53138000Y-97442600D01*
X53341200Y-97239400D01*
X53468200Y-96985400D01*
X53493934Y-96654866D01*
X53798400Y-96655200D01*
G37*
X53798400Y-94089800D02*
X53773000Y-96629800D01*
X53493934Y-96629466D01*
X53493600Y-96401200D01*
X53392000Y-96121800D01*
X53188800Y-95867800D01*
X52757000Y-95639200D01*
X52274400Y-95639200D01*
X51893400Y-95842400D01*
X51563200Y-96299600D01*
X51588600Y-94496200D01*
X51614000Y-94496200D01*
X51969600Y-94928000D01*
X52401400Y-95055000D01*
X52731600Y-95055000D01*
X53138000Y-94877200D01*
X53341200Y-94674000D01*
X53468200Y-94420000D01*
X53493934Y-94089466D01*
X53798400Y-94089800D01*
G36*
X53798400Y-94089800D02*
G01*
X53773000Y-96629800D01*
X53493934Y-96629466D01*
X53493600Y-96401200D01*
X53392000Y-96121800D01*
X53188800Y-95867800D01*
X52757000Y-95639200D01*
X52274400Y-95639200D01*
X51893400Y-95842400D01*
X51563200Y-96299600D01*
X51588600Y-94496200D01*
X51614000Y-94496200D01*
X51969600Y-94928000D01*
X52401400Y-95055000D01*
X52731600Y-95055000D01*
X53138000Y-94877200D01*
X53341200Y-94674000D01*
X53468200Y-94420000D01*
X53493934Y-94089466D01*
X53798400Y-94089800D01*
G37*
X53798400Y-91549800D02*
X53773000Y-94089800D01*
X53493934Y-94089466D01*
X53493600Y-93861200D01*
X53392000Y-93581800D01*
X53188800Y-93327800D01*
X52757000Y-93099200D01*
X52274400Y-93099200D01*
X51893400Y-93302400D01*
X51563200Y-93759600D01*
X51588600Y-91956200D01*
X51614000Y-91956200D01*
X51969600Y-92388000D01*
X52401400Y-92515000D01*
X52731600Y-92515000D01*
X53138000Y-92337200D01*
X53341200Y-92134000D01*
X53468200Y-91880000D01*
X53493934Y-91549466D01*
X53798400Y-91549800D01*
G36*
X53798400Y-91549800D02*
G01*
X53773000Y-94089800D01*
X53493934Y-94089466D01*
X53493600Y-93861200D01*
X53392000Y-93581800D01*
X53188800Y-93327800D01*
X52757000Y-93099200D01*
X52274400Y-93099200D01*
X51893400Y-93302400D01*
X51563200Y-93759600D01*
X51588600Y-91956200D01*
X51614000Y-91956200D01*
X51969600Y-92388000D01*
X52401400Y-92515000D01*
X52731600Y-92515000D01*
X53138000Y-92337200D01*
X53341200Y-92134000D01*
X53468200Y-91880000D01*
X53493934Y-91549466D01*
X53798400Y-91549800D01*
G37*
X69050139Y-88686829D02*
X69024739Y-90579129D01*
X67780139Y-90578795D01*
X67526139Y-90579129D01*
X67119739Y-90782329D01*
X66840339Y-91163329D01*
X66789205Y-91544329D01*
X66814271Y-94084329D01*
X66814605Y-96623995D01*
X66814605Y-104243995D01*
X66789539Y-106631929D01*
X66789539Y-107114529D01*
X67094339Y-107597129D01*
X67526139Y-107774929D01*
X68008739Y-107774929D01*
X68364339Y-107571729D01*
X68694539Y-107292329D01*
X68796473Y-106783995D01*
X69024739Y-106784329D01*
X69050139Y-109692629D01*
X66510139Y-109679929D01*
X66510139Y-88674129D01*
X69050139Y-88686829D01*
G36*
X69050139Y-88686829D02*
G01*
X69024739Y-90579129D01*
X67780139Y-90578795D01*
X67526139Y-90579129D01*
X67119739Y-90782329D01*
X66840339Y-91163329D01*
X66789205Y-91544329D01*
X66814271Y-94084329D01*
X66814605Y-96623995D01*
X66814605Y-104243995D01*
X66789539Y-106631929D01*
X66789539Y-107114529D01*
X67094339Y-107597129D01*
X67526139Y-107774929D01*
X68008739Y-107774929D01*
X68364339Y-107571729D01*
X68694539Y-107292329D01*
X68796473Y-106783995D01*
X69024739Y-106784329D01*
X69050139Y-109692629D01*
X66510139Y-109679929D01*
X66510139Y-88674129D01*
X69050139Y-88686829D01*
G37*
X53798400Y-88692300D02*
X53773000Y-90584600D01*
X52528400Y-90584266D01*
X52274400Y-90584600D01*
X51868000Y-90787800D01*
X51614000Y-91168800D01*
X51562866Y-91549800D01*
X51562532Y-94089800D01*
X51562866Y-96629466D01*
X51562866Y-104249466D01*
X51537800Y-106637400D01*
X51563200Y-107069200D01*
X51868000Y-107551800D01*
X52274400Y-107780400D01*
X52757000Y-107780400D01*
X53112600Y-107577200D01*
X53442800Y-107297800D01*
X53544734Y-106789466D01*
X53773000Y-106789800D01*
X53798400Y-109660000D01*
X51258400Y-109685400D01*
X51258400Y-88679600D01*
X53798400Y-88692300D01*
G36*
X53798400Y-88692300D02*
G01*
X53773000Y-90584600D01*
X52528400Y-90584266D01*
X52274400Y-90584600D01*
X51868000Y-90787800D01*
X51614000Y-91168800D01*
X51562866Y-91549800D01*
X51562532Y-94089800D01*
X51562866Y-96629466D01*
X51562866Y-104249466D01*
X51537800Y-106637400D01*
X51563200Y-107069200D01*
X51868000Y-107551800D01*
X52274400Y-107780400D01*
X52757000Y-107780400D01*
X53112600Y-107577200D01*
X53442800Y-107297800D01*
X53544734Y-106789466D01*
X53773000Y-106789800D01*
X53798400Y-109660000D01*
X51258400Y-109685400D01*
X51258400Y-88679600D01*
X53798400Y-88692300D01*
G37*
D11*
%TO.C,J1*%
X134330000Y-106155000D02*
X133000000Y-106155000D01*
X134330000Y-104825000D02*
X134330000Y-106155000D01*
X134330000Y-103555000D02*
X134330000Y-93335000D01*
X134330000Y-103555000D02*
X131670000Y-103555000D01*
X134330000Y-93335000D02*
X131670000Y-93335000D01*
X131670000Y-103555000D02*
X131670000Y-93335000D01*
%TO.C,C2*%
X138342164Y-110390000D02*
X138557836Y-110390000D01*
X138342164Y-111110000D02*
X138557836Y-111110000D01*
%TO.C,C1*%
X131890000Y-112461252D02*
X131890000Y-111038748D01*
X134610000Y-112461252D02*
X134610000Y-111038748D01*
D10*
%TO.C,U1*%
X145875000Y-95825000D02*
X145875000Y-95600000D01*
X145875000Y-95825000D02*
X140125000Y-95825000D01*
X145875000Y-87175000D02*
X145875000Y-87400000D01*
X145875000Y-87175000D02*
X140125000Y-87175000D01*
X140125000Y-95825000D02*
X140125000Y-95600000D01*
X140125000Y-87175000D02*
X140125000Y-87400000D01*
D11*
X146615000Y-95905000D02*
X146135000Y-95905000D01*
X146375000Y-95575000D01*
X146615000Y-95905000D01*
G36*
X146615000Y-95905000D02*
G01*
X146135000Y-95905000D01*
X146375000Y-95575000D01*
X146615000Y-95905000D01*
G37*
%TO.C,U3*%
X135052500Y-108970000D02*
X135322500Y-108970000D01*
X141952500Y-108970000D02*
X141682500Y-108970000D01*
X135052500Y-102550000D02*
X135052500Y-108970000D01*
X141952500Y-102550000D02*
X141952500Y-108970000D01*
X135362500Y-110390000D02*
X135032500Y-110630000D01*
X135032500Y-110150000D01*
X135362500Y-110390000D01*
G36*
X135362500Y-110390000D02*
G01*
X135032500Y-110630000D01*
X135032500Y-110150000D01*
X135362500Y-110390000D01*
G37*
%TD*%
M02*
