%TF.GenerationSoftware,KiCad,Pcbnew,7.0.11*%
%TF.CreationDate,2025-03-06T22:38:01+09:00*%
%TF.ProjectId,Line_V2,4c696e65-5f56-4322-9e6b-696361645f70,rev?*%
%TF.SameCoordinates,Original*%
%TF.FileFunction,Drillmap*%
%TF.FilePolarity,Positive*%
%FSLAX45Y45*%
G04 Gerber Fmt 4.5, Leading zero omitted, Abs format (unit mm)*
G04 Created by KiCad (PCBNEW 7.0.11) date 2025-03-06 22:38:01*
%MOMM*%
%LPD*%
G01*
G04 APERTURE LIST*
%ADD10C,0.200000*%
G04 APERTURE END LIST*
D10*
X6977689Y-13301893D02*
G75*
G03*
X6698107Y-13022311I-279579J3D01*
G01*
X13022311Y-13301893D02*
X13022311Y-13815588D01*
X13022311Y-6184412D02*
X13022311Y-6698107D01*
X7117627Y-5914420D02*
G75*
G03*
X6977689Y-6184412I190483J-269990D01*
G01*
X6184412Y-6977692D02*
G75*
G03*
X5914423Y-7117629I-2J-330418D01*
G01*
X5914420Y-12882372D02*
G75*
G03*
X6184412Y-13022311I269990J190483D01*
G01*
X12882370Y-14085576D02*
G75*
G03*
X13022311Y-13815588I-190470J269986D01*
G01*
X13451893Y-13301893D02*
G75*
G03*
X13151893Y-13301893I-150000J0D01*
G01*
X13151893Y-13301893D02*
G75*
G03*
X13451893Y-13301893I150000J0D01*
G01*
X13030418Y-8710018D02*
X13030418Y-9300000D01*
X6969580Y-9300000D02*
G75*
G03*
X7169582Y-9500000I200000J0D01*
G01*
X7169582Y-10500002D02*
G75*
G03*
X6969582Y-10700000I-2J-199998D01*
G01*
X5709784Y-8310000D02*
X5709784Y-7525126D01*
X14290217Y-7525126D02*
G75*
G03*
X14239991Y-7350005I-330387J6D01*
G01*
X5709782Y-12474874D02*
G75*
G03*
X5760008Y-12649995I330418J4D01*
G01*
X6799982Y-8540418D02*
X5940202Y-8540418D01*
X14239991Y-12649995D02*
X14085577Y-12882371D01*
X6977692Y-13815588D02*
G75*
G03*
X7117629Y-14085577I330418J-2D01*
G01*
X13030417Y-11289982D02*
G75*
G03*
X13200018Y-11459582I169603J3D01*
G01*
X5709784Y-12474874D02*
X5709784Y-11690000D01*
X14290216Y-7525126D02*
X14290216Y-8310000D01*
X5914423Y-12882371D02*
X5760008Y-12649995D01*
X13815588Y-13022312D02*
G75*
G03*
X14085577Y-12882370I-8J330432D01*
G01*
X5709782Y-8310000D02*
G75*
G03*
X5940202Y-8540418I230418J0D01*
G01*
X6977689Y-13815588D02*
X6977689Y-13301893D01*
X6969582Y-9300000D02*
X6969582Y-8710018D01*
X6698107Y-6977689D02*
G75*
G03*
X6977689Y-6698107I0J279582D01*
G01*
X14290217Y-11690000D02*
G75*
G03*
X14059798Y-11459582I-230418J0D01*
G01*
X13451893Y-6698107D02*
G75*
G03*
X13151893Y-6698107I-150000J0D01*
G01*
X13151893Y-6698107D02*
G75*
G03*
X13451893Y-6698107I150000J0D01*
G01*
X13301893Y-6977689D02*
X13815588Y-6977689D01*
X7169582Y-10500000D02*
X12830418Y-10500000D01*
X14059798Y-8540418D02*
X13200018Y-8540418D01*
X6799982Y-11459582D02*
G75*
G03*
X6969582Y-11289982I-2J169602D01*
G01*
X6969582Y-8710018D02*
G75*
G03*
X6799982Y-8540418I-169603J-3D01*
G01*
X6698107Y-13022311D02*
X6184412Y-13022311D01*
X7117629Y-14085577D02*
G75*
G03*
X12882370Y-14085577I2882371J4085577D01*
G01*
X13030420Y-10700000D02*
G75*
G03*
X12830418Y-10500000I-200000J0D01*
G01*
X13200018Y-8540418D02*
G75*
G03*
X13030418Y-8710018I2J-169602D01*
G01*
X14239993Y-12649996D02*
G75*
G03*
X14290216Y-12474874I-280224J175126D01*
G01*
X13030418Y-10700000D02*
X13030418Y-11289982D01*
X5940202Y-11459584D02*
G75*
G03*
X5709784Y-11690000I-2J-230416D01*
G01*
X13815588Y-13022311D02*
X13301893Y-13022311D01*
X14085577Y-7117629D02*
X14239991Y-7350005D01*
X15800000Y-10000000D02*
G75*
G03*
X4200000Y-10000000I-5800000J0D01*
G01*
X4200000Y-10000000D02*
G75*
G03*
X15800000Y-10000000I5800000J0D01*
G01*
X5760010Y-7350006D02*
G75*
G03*
X5709784Y-7525126I280190J-175124D01*
G01*
X13200018Y-11459582D02*
X14059798Y-11459582D01*
X14059798Y-8540416D02*
G75*
G03*
X14290216Y-8310000I2J230416D01*
G01*
X6969582Y-11289982D02*
X6969582Y-10700000D01*
X13301893Y-13022311D02*
G75*
G03*
X13022311Y-13301893I-3J-279579D01*
G01*
X12830418Y-9499998D02*
G75*
G03*
X13030418Y-9300000I2J199998D01*
G01*
X6977689Y-6698107D02*
X6977689Y-6184412D01*
X5760008Y-7350005D02*
X5914423Y-7117629D01*
X5940202Y-11459582D02*
X6799982Y-11459582D01*
X13022311Y-6698107D02*
G75*
G03*
X13301893Y-6977689I279579J-3D01*
G01*
X6848107Y-13301893D02*
G75*
G03*
X6548107Y-13301893I-150000J0D01*
G01*
X6548107Y-13301893D02*
G75*
G03*
X6848107Y-13301893I150000J0D01*
G01*
X12830418Y-9500000D02*
X7169582Y-9500000D01*
X14085576Y-7117630D02*
G75*
G03*
X13815588Y-6977689I-269986J-190470D01*
G01*
X14290216Y-11690000D02*
X14290216Y-12474874D01*
X6184412Y-6977689D02*
X6698107Y-6977689D01*
X6848107Y-6698107D02*
G75*
G03*
X6548107Y-6698107I-150000J0D01*
G01*
X6548107Y-6698107D02*
G75*
G03*
X6848107Y-6698107I150000J0D01*
G01*
X13022308Y-6184412D02*
G75*
G03*
X12882371Y-5914423I-330418J2D01*
G01*
X12882370Y-5914423D02*
G75*
G03*
X7117629Y-5914423I-2882370J-4085577D01*
G01*
X4450777Y-16121484D02*
X4450777Y-15921484D01*
X4450777Y-15921484D02*
X4498396Y-15921484D01*
X4498396Y-15921484D02*
X4526967Y-15931008D01*
X4526967Y-15931008D02*
X4546015Y-15950055D01*
X4546015Y-15950055D02*
X4555539Y-15969103D01*
X4555539Y-15969103D02*
X4565063Y-16007198D01*
X4565063Y-16007198D02*
X4565063Y-16035769D01*
X4565063Y-16035769D02*
X4555539Y-16073865D01*
X4555539Y-16073865D02*
X4546015Y-16092912D01*
X4546015Y-16092912D02*
X4526967Y-16111960D01*
X4526967Y-16111960D02*
X4498396Y-16121484D01*
X4498396Y-16121484D02*
X4450777Y-16121484D01*
X4650777Y-16121484D02*
X4650777Y-15988150D01*
X4650777Y-16026246D02*
X4660301Y-16007198D01*
X4660301Y-16007198D02*
X4669824Y-15997674D01*
X4669824Y-15997674D02*
X4688872Y-15988150D01*
X4688872Y-15988150D02*
X4707920Y-15988150D01*
X4774586Y-16121484D02*
X4774586Y-15988150D01*
X4774586Y-15921484D02*
X4765063Y-15931008D01*
X4765063Y-15931008D02*
X4774586Y-15940531D01*
X4774586Y-15940531D02*
X4784110Y-15931008D01*
X4784110Y-15931008D02*
X4774586Y-15921484D01*
X4774586Y-15921484D02*
X4774586Y-15940531D01*
X4898396Y-16121484D02*
X4879348Y-16111960D01*
X4879348Y-16111960D02*
X4869824Y-16092912D01*
X4869824Y-16092912D02*
X4869824Y-15921484D01*
X5003158Y-16121484D02*
X4984110Y-16111960D01*
X4984110Y-16111960D02*
X4974586Y-16092912D01*
X4974586Y-16092912D02*
X4974586Y-15921484D01*
X5231729Y-16121484D02*
X5231729Y-15921484D01*
X5231729Y-15921484D02*
X5298396Y-16064341D01*
X5298396Y-16064341D02*
X5365063Y-15921484D01*
X5365063Y-15921484D02*
X5365063Y-16121484D01*
X5546015Y-16121484D02*
X5546015Y-16016722D01*
X5546015Y-16016722D02*
X5536491Y-15997674D01*
X5536491Y-15997674D02*
X5517444Y-15988150D01*
X5517444Y-15988150D02*
X5479348Y-15988150D01*
X5479348Y-15988150D02*
X5460301Y-15997674D01*
X5546015Y-16111960D02*
X5526967Y-16121484D01*
X5526967Y-16121484D02*
X5479348Y-16121484D01*
X5479348Y-16121484D02*
X5460301Y-16111960D01*
X5460301Y-16111960D02*
X5450777Y-16092912D01*
X5450777Y-16092912D02*
X5450777Y-16073865D01*
X5450777Y-16073865D02*
X5460301Y-16054817D01*
X5460301Y-16054817D02*
X5479348Y-16045293D01*
X5479348Y-16045293D02*
X5526967Y-16045293D01*
X5526967Y-16045293D02*
X5546015Y-16035769D01*
X5641253Y-15988150D02*
X5641253Y-16188150D01*
X5641253Y-15997674D02*
X5660301Y-15988150D01*
X5660301Y-15988150D02*
X5698396Y-15988150D01*
X5698396Y-15988150D02*
X5717443Y-15997674D01*
X5717443Y-15997674D02*
X5726967Y-16007198D01*
X5726967Y-16007198D02*
X5736491Y-16026246D01*
X5736491Y-16026246D02*
X5736491Y-16083388D01*
X5736491Y-16083388D02*
X5726967Y-16102436D01*
X5726967Y-16102436D02*
X5717443Y-16111960D01*
X5717443Y-16111960D02*
X5698396Y-16121484D01*
X5698396Y-16121484D02*
X5660301Y-16121484D01*
X5660301Y-16121484D02*
X5641253Y-16111960D01*
X5822205Y-16102436D02*
X5831729Y-16111960D01*
X5831729Y-16111960D02*
X5822205Y-16121484D01*
X5822205Y-16121484D02*
X5812682Y-16111960D01*
X5812682Y-16111960D02*
X5822205Y-16102436D01*
X5822205Y-16102436D02*
X5822205Y-16121484D01*
X5822205Y-15997674D02*
X5831729Y-16007198D01*
X5831729Y-16007198D02*
X5822205Y-16016722D01*
X5822205Y-16016722D02*
X5812682Y-16007198D01*
X5812682Y-16007198D02*
X5822205Y-15997674D01*
X5822205Y-15997674D02*
X5822205Y-16016722D01*
M02*
