%TF.GenerationSoftware,KiCad,Pcbnew,7.0.11*%
%TF.CreationDate,2025-03-06T22:37:58+09:00*%
%TF.ProjectId,Line_V2,4c696e65-5f56-4322-9e6b-696361645f70,rev?*%
%TF.SameCoordinates,Original*%
%TF.FileFunction,Soldermask,Top*%
%TF.FilePolarity,Negative*%
%FSLAX46Y46*%
G04 Gerber Fmt 4.6, Leading zero omitted, Abs format (unit mm)*
G04 Created by KiCad (PCBNEW 7.0.11) date 2025-03-06 22:37:58*
%MOMM*%
%LPD*%
G01*
G04 APERTURE LIST*
G04 Aperture macros list*
%AMRoundRect*
0 Rectangle with rounded corners*
0 $1 Rounding radius*
0 $2 $3 $4 $5 $6 $7 $8 $9 X,Y pos of 4 corners*
0 Add a 4 corners polygon primitive as box body*
4,1,4,$2,$3,$4,$5,$6,$7,$8,$9,$2,$3,0*
0 Add four circle primitives for the rounded corners*
1,1,$1+$1,$2,$3*
1,1,$1+$1,$4,$5*
1,1,$1+$1,$6,$7*
1,1,$1+$1,$8,$9*
0 Add four rect primitives between the rounded corners*
20,1,$1+$1,$2,$3,$4,$5,0*
20,1,$1+$1,$4,$5,$6,$7,0*
20,1,$1+$1,$6,$7,$8,$9,0*
20,1,$1+$1,$8,$9,$2,$3,0*%
%AMRotRect*
0 Rectangle, with rotation*
0 The origin of the aperture is its center*
0 $1 length*
0 $2 width*
0 $3 Rotation angle, in degrees counterclockwise*
0 Add horizontal line*
21,1,$1,$2,0,0,$3*%
G04 Aperture macros list end*
%ADD10C,1.700000*%
%ADD11R,1.700000X1.700000*%
%ADD12O,1.700000X1.700000*%
%ADD13RoundRect,0.140000X-0.140000X-0.170000X0.140000X-0.170000X0.140000X0.170000X-0.140000X0.170000X0*%
%ADD14RoundRect,0.250000X1.100000X-0.325000X1.100000X0.325000X-1.100000X0.325000X-1.100000X-0.325000X0*%
%ADD15R,1.750000X0.450000*%
%ADD16RoundRect,0.249997X2.650003X-2.950003X2.650003X2.950003X-2.650003X2.950003X-2.650003X-2.950003X0*%
%ADD17RoundRect,0.250000X0.350000X-0.850000X0.350000X0.850000X-0.350000X0.850000X-0.350000X-0.850000X0*%
%ADD18RotRect,1.800000X1.800000X33.750000*%
%ADD19C,1.800000*%
%ADD20RotRect,1.800000X1.800000X292.500000*%
%ADD21RotRect,1.800000X1.800000X168.750000*%
%ADD22RotRect,1.800000X1.800000X337.500000*%
%ADD23RotRect,1.800000X1.800000X123.750000*%
%ADD24RotRect,1.800000X1.800000X191.250000*%
%ADD25RotRect,1.800000X1.800000X78.750000*%
%ADD26RotRect,1.800000X1.800000X56.250000*%
%ADD27R,1.800000X1.800000*%
%ADD28RotRect,1.800000X1.800000X112.500000*%
%ADD29RotRect,1.800000X1.800000X258.750000*%
%ADD30RotRect,1.800000X1.800000X348.750000*%
%ADD31RotRect,1.800000X1.800000X236.250000*%
%ADD32RotRect,1.800000X1.800000X22.500000*%
%ADD33RotRect,1.800000X1.800000X303.750000*%
%ADD34RotRect,1.800000X1.800000X45.000000*%
%ADD35RotRect,1.800000X1.800000X315.000000*%
%ADD36RotRect,1.800000X1.800000X157.500000*%
%ADD37RotRect,1.800000X1.800000X11.250000*%
%ADD38RotRect,1.800000X1.800000X202.500000*%
%ADD39RotRect,1.800000X1.800000X135.000000*%
%ADD40RotRect,1.800000X1.800000X146.250000*%
%ADD41RotRect,1.800000X1.800000X326.250000*%
%ADD42RotRect,1.800000X1.800000X213.750000*%
%ADD43RotRect,1.800000X1.800000X67.500000*%
%ADD44RotRect,1.800000X1.800000X101.250000*%
%ADD45RotRect,1.800000X1.800000X247.500000*%
%ADD46RotRect,1.800000X1.800000X281.250000*%
%ADD47RotRect,1.800000X1.800000X225.000000*%
G04 APERTURE END LIST*
D10*
%TO.C,U2*%
X67768400Y-106789800D03*
X67768400Y-104249800D03*
X67768400Y-101709800D03*
X67768400Y-99169800D03*
X67768400Y-96629800D03*
X67768400Y-94089800D03*
X67768400Y-91549800D03*
X52528400Y-91549800D03*
X52528400Y-94089800D03*
X52528400Y-96629800D03*
X52528400Y-99169800D03*
X52528400Y-101709800D03*
X52528400Y-104249800D03*
X52528400Y-106789800D03*
%TD*%
D11*
%TO.C,J1*%
X133000000Y-104825000D03*
D12*
X133000000Y-102285000D03*
X133000000Y-99745000D03*
X133000000Y-97205000D03*
X133000000Y-94665000D03*
%TD*%
D13*
%TO.C,C2*%
X137970000Y-110750000D03*
X138930000Y-110750000D03*
%TD*%
D14*
%TO.C,C1*%
X133250000Y-113225000D03*
X133250000Y-110275000D03*
%TD*%
D15*
%TO.C,U1*%
X146600000Y-95075000D03*
X146600000Y-94425000D03*
X146600000Y-93775000D03*
X146600000Y-93125000D03*
X146600000Y-92475000D03*
X146600000Y-91825000D03*
X146600000Y-91175000D03*
X146600000Y-90525000D03*
X146600000Y-89875000D03*
X146600000Y-89225000D03*
X146600000Y-88575000D03*
X146600000Y-87925000D03*
X139400000Y-87925000D03*
X139400000Y-88575000D03*
X139400000Y-89225000D03*
X139400000Y-89875000D03*
X139400000Y-90525000D03*
X139400000Y-91175000D03*
X139400000Y-91825000D03*
X139400000Y-92475000D03*
X139400000Y-93125000D03*
X139400000Y-93775000D03*
X139400000Y-94425000D03*
X139400000Y-95075000D03*
%TD*%
D16*
%TO.C,U3*%
X138502500Y-104400000D03*
D17*
X140782500Y-110700000D03*
X136222500Y-110700000D03*
%TD*%
D18*
%TO.C,Q6*%
X142799898Y-71402023D03*
D19*
X144911831Y-69990875D03*
%TD*%
D20*
%TO.C,Q15*%
X119698629Y-147556699D03*
D19*
X120670645Y-149903353D03*
%TD*%
D21*
%TO.C,Q26*%
X49514078Y-89957726D03*
D19*
X47022883Y-89462197D03*
%TD*%
D22*
%TO.C,Q11*%
X147556699Y-119698629D03*
D19*
X149903353Y-120670645D03*
%TD*%
D23*
%TO.C,Q30*%
X71402023Y-57200102D03*
D19*
X69990875Y-55088169D03*
%TD*%
D24*
%TO.C,Q24*%
X49528789Y-110039347D03*
D19*
X47037594Y-110534876D03*
%TD*%
D25*
%TO.C,Q2*%
X110042274Y-49514077D03*
D19*
X110537803Y-47022882D03*
%TD*%
D26*
%TO.C,Q4*%
X128597977Y-57200102D03*
D19*
X130009125Y-55088169D03*
%TD*%
D27*
%TO.C,Q17*%
X100000000Y-151475000D03*
D19*
X100000000Y-154015000D03*
%TD*%
D28*
%TO.C,Q31*%
X80301371Y-52443301D03*
D19*
X79329355Y-50096647D03*
%TD*%
D29*
%TO.C,Q18*%
X89957726Y-150485922D03*
D19*
X89462197Y-152977117D03*
%TD*%
D30*
%TO.C,Q10*%
X150485922Y-110042274D03*
D19*
X152977117Y-110537803D03*
%TD*%
D31*
%TO.C,Q20*%
X71402023Y-142799898D03*
D19*
X69990875Y-144911831D03*
%TD*%
D32*
%TO.C,Q7*%
X147556699Y-80301371D03*
D19*
X149903353Y-79329355D03*
%TD*%
D33*
%TO.C,Q14*%
X128597977Y-142799898D03*
D19*
X130009125Y-144911831D03*
%TD*%
D34*
%TO.C,Q5*%
X136398321Y-63601679D03*
D19*
X138194372Y-61805628D03*
%TD*%
D35*
%TO.C,Q13*%
X136398321Y-136398321D03*
D19*
X138194372Y-138194372D03*
%TD*%
D27*
%TO.C,Q25*%
X48525000Y-100000000D03*
D19*
X45985000Y-100000000D03*
%TD*%
D36*
%TO.C,Q27*%
X52443301Y-80301371D03*
D19*
X50096647Y-79329355D03*
%TD*%
D37*
%TO.C,Q8*%
X150485922Y-89957726D03*
D19*
X152977117Y-89462197D03*
%TD*%
D27*
%TO.C,Q9*%
X151475000Y-100000000D03*
D19*
X154015000Y-100000000D03*
%TD*%
D38*
%TO.C,Q23*%
X52443301Y-119698629D03*
D19*
X50096647Y-120670645D03*
%TD*%
D39*
%TO.C,Q29*%
X63601679Y-63601679D03*
D19*
X61805628Y-61805628D03*
%TD*%
D40*
%TO.C,Q28*%
X57200102Y-71402023D03*
D19*
X55088169Y-69990875D03*
%TD*%
D41*
%TO.C,Q12*%
X142799898Y-128597977D03*
D19*
X144911831Y-130009125D03*
%TD*%
D42*
%TO.C,Q22*%
X57200102Y-128597977D03*
D19*
X55088169Y-130009125D03*
%TD*%
D43*
%TO.C,Q3*%
X119698629Y-52443301D03*
D19*
X120670645Y-50096647D03*
%TD*%
D44*
%TO.C,Q32*%
X89957726Y-49514078D03*
D19*
X89462197Y-47022883D03*
%TD*%
D27*
%TO.C,Q1*%
X100000000Y-48525000D03*
D19*
X100000000Y-45985000D03*
%TD*%
D45*
%TO.C,Q19*%
X80301371Y-147556699D03*
D19*
X79329355Y-149903353D03*
%TD*%
D46*
%TO.C,Q16*%
X110042274Y-150485922D03*
D19*
X110537803Y-152977117D03*
%TD*%
D47*
%TO.C,Q21*%
X63601679Y-136398321D03*
D19*
X61805628Y-138194372D03*
%TD*%
M02*
