%TF.GenerationSoftware,KiCad,Pcbnew,7.0.11*%
%TF.CreationDate,2025-03-06T22:37:58+09:00*%
%TF.ProjectId,Line_V2,4c696e65-5f56-4322-9e6b-696361645f70,rev?*%
%TF.SameCoordinates,Original*%
%TF.FileFunction,Legend,Bot*%
%TF.FilePolarity,Positive*%
%FSLAX46Y46*%
G04 Gerber Fmt 4.6, Leading zero omitted, Abs format (unit mm)*
G04 Created by KiCad (PCBNEW 7.0.11) date 2025-03-06 22:37:58*
%MOMM*%
%LPD*%
G01*
G04 APERTURE LIST*
%ADD10C,0.120000*%
G04 APERTURE END LIST*
D10*
%TO.C,Q6*%
X141958756Y-70665151D02*
X141872087Y-70535442D01*
X143245457Y-72590835D02*
X143158788Y-72461126D01*
X144647117Y-68870521D02*
G75*
G03*
X141872356Y-70535844I-791253J-1825928D01*
G01*
X144121607Y-69220177D02*
G75*
G03*
X142390322Y-70376789I-265743J-1476272D01*
G01*
X143590353Y-72172763D02*
G75*
G03*
X145321457Y-71015880I265511J1476314D01*
G01*
X143245188Y-72590433D02*
G75*
G03*
X145845602Y-70664179I610676J1893984D01*
G01*
%TO.C,Q15*%
X120585441Y-146875476D02*
X120729566Y-146815777D01*
X118445736Y-147761771D02*
X118589861Y-147702072D01*
X121821116Y-149862297D02*
G75*
G03*
X120729119Y-146815962I-1636479J1132271D01*
G01*
X121580700Y-149278669D02*
G75*
G03*
X120784068Y-147355005I-1396063J548643D01*
G01*
X118788489Y-148181602D02*
G75*
G03*
X119585421Y-150105140I1396148J-548424D01*
G01*
X118446184Y-147761586D02*
G75*
G03*
X119828108Y-150687827I1738453J-968440D01*
G01*
%TO.C,Q26*%
X49587808Y-91073550D02*
X49557374Y-91226553D01*
X50039637Y-88802052D02*
X50009203Y-88955054D01*
X46417853Y-90441588D02*
G75*
G03*
X49557469Y-91226078I1850628J731627D01*
G01*
X47036691Y-90565934D02*
G75*
G03*
X49078741Y-90972290I1231790J855973D01*
G01*
X49500137Y-88853795D02*
G75*
G03*
X47458021Y-88447760I-1231656J-856166D01*
G01*
X50039543Y-88802526D02*
G75*
G03*
X46838705Y-88325822I-1771062J-907435D01*
G01*
%TO.C,D16*%
X57053651Y-61456054D02*
X62696628Y-66087125D01*
X53564488Y-65707611D02*
X59207465Y-70338682D01*
X62696628Y-66087125D02*
X61967075Y-66976087D01*
%TO.C,D26*%
X114294715Y-155907834D02*
X112175637Y-148922170D01*
X119557887Y-154311268D02*
X117438809Y-147325604D01*
X112175637Y-148922170D02*
X113276118Y-148588342D01*
%TO.C,D17*%
X146181755Y-65398403D02*
X140538778Y-70029474D01*
X142692592Y-61146846D02*
X137049615Y-65777917D01*
X140538778Y-70029474D02*
X139809226Y-69140512D01*
%TO.C,D1*%
X108188410Y-42877544D02*
X107472884Y-50142392D01*
X102714894Y-42338450D02*
X101999368Y-49603298D01*
X107472884Y-50142392D02*
X106328422Y-50029673D01*
%TO.C,Q11*%
X147702072Y-118589861D02*
X147761771Y-118445736D01*
X146815777Y-120729566D02*
X146875476Y-120585441D01*
X150687828Y-119828108D02*
G75*
G03*
X147761585Y-118446183I-1957802J-356529D01*
G01*
X150105140Y-119585421D02*
G75*
G03*
X148181602Y-118788489I-1375114J-599216D01*
G01*
X147355006Y-120784068D02*
G75*
G03*
X149278669Y-121580699I1375020J599431D01*
G01*
X146815962Y-120729119D02*
G75*
G03*
X149862297Y-121821116I1914064J544482D01*
G01*
%TO.C,R8*%
X122013546Y-151780043D02*
X122195136Y-152218439D01*
X121048092Y-152179947D02*
X121229682Y-152618343D01*
%TO.C,R4*%
X151780043Y-77986454D02*
X152218439Y-77804864D01*
X152179947Y-78951908D02*
X152618343Y-78770318D01*
%TO.C,Q30*%
X70665151Y-58041244D02*
X70535442Y-58127913D01*
X72590835Y-56754543D02*
X72461126Y-56841212D01*
X68870521Y-55352883D02*
G75*
G03*
X70535844Y-58127644I1825928J-791253D01*
G01*
X69220177Y-55878393D02*
G75*
G03*
X70376789Y-57609678I1476272J-265743D01*
G01*
X72172763Y-56409647D02*
G75*
G03*
X71015880Y-54678543I-1476314J265511D01*
G01*
X72590433Y-56754812D02*
G75*
G03*
X70664179Y-54154398I-1893984J610676D01*
G01*
%TO.C,Q24*%
X50023914Y-111042019D02*
X50054348Y-111195021D01*
X49572085Y-108770520D02*
X49602519Y-108923523D01*
X46853417Y-111671250D02*
G75*
G03*
X50054253Y-111194547I1429775J1384138D01*
G01*
X47472733Y-111549313D02*
G75*
G03*
X49514847Y-111143277I810459J1262201D01*
G01*
X49093453Y-109024782D02*
G75*
G03*
X47051401Y-109431138I-810261J-1262330D01*
G01*
X49572180Y-108770995D02*
G75*
G03*
X46432564Y-109555485I-1288988J-1516117D01*
G01*
%TO.C,D12*%
X50359301Y-70575082D02*
X56797327Y-74016279D01*
X47766619Y-75425649D02*
X54204645Y-78866846D01*
X56797327Y-74016279D02*
X56255220Y-75030488D01*
%TO.C,Q2*%
X108926450Y-49587807D02*
X108773447Y-49557373D01*
X111197948Y-50039636D02*
X111044946Y-50009202D01*
X109558412Y-46417852D02*
G75*
G03*
X108773922Y-49557468I731627J-1850628D01*
G01*
X109434066Y-47036690D02*
G75*
G03*
X109027710Y-49078740I855973J-1231790D01*
G01*
X111146205Y-49500136D02*
G75*
G03*
X111552240Y-47458020I-856166J1231656D01*
G01*
X111197474Y-50039542D02*
G75*
G03*
X111674178Y-46838704I-907435J1771062D01*
G01*
%TO.C,D24*%
X75072876Y-47955181D02*
X78514073Y-54393207D01*
X70222309Y-50547863D02*
X73663506Y-56985889D01*
X78514073Y-54393207D02*
X77499863Y-54935313D01*
%TO.C,Q4*%
X127538874Y-56841212D02*
X127409165Y-56754543D01*
X129464558Y-58127913D02*
X129334849Y-58041244D01*
X129335821Y-54154399D02*
G75*
G03*
X127409568Y-56754812I-32270J-1989737D01*
G01*
X128984120Y-54678544D02*
G75*
G03*
X127827238Y-56409647I319431J-1465592D01*
G01*
X129623211Y-57609679D02*
G75*
G03*
X130779824Y-55878393I-319660J1465543D01*
G01*
X129464156Y-58127645D02*
G75*
G03*
X131129480Y-55352882I-160605J1983509D01*
G01*
%TO.C,R12*%
X48219957Y-122013546D02*
X47781561Y-122195136D01*
X47820053Y-121048092D02*
X47381657Y-121229682D01*
%TO.C,Q17*%
X101080000Y-151185000D02*
X101236000Y-151185000D01*
X98764000Y-151185000D02*
X98920000Y-151185000D01*
X101078608Y-154417334D02*
G75*
G03*
X101235515Y-151185001I-1078608J1672334D01*
G01*
X101079836Y-153786129D02*
G75*
G03*
X101079999Y-151704040I-1079836J1041129D01*
G01*
X98920001Y-151704040D02*
G75*
G03*
X98920164Y-153786129I1079999J-1040960D01*
G01*
X98764485Y-151185001D02*
G75*
G03*
X98921392Y-154417334I1235515J-1559999D01*
G01*
%TO.C,D4*%
X42877547Y-91811594D02*
X50142395Y-92527120D01*
X42338453Y-97285110D02*
X49603301Y-98000636D01*
X50142395Y-92527120D02*
X50029676Y-93671582D01*
%TO.C,Q31*%
X79414559Y-53124524D02*
X79270434Y-53184223D01*
X81554264Y-52238229D02*
X81410139Y-52297928D01*
X78178884Y-50137703D02*
G75*
G03*
X79270881Y-53184038I1636479J-1132271D01*
G01*
X78419300Y-50721331D02*
G75*
G03*
X79215932Y-52644995I1396063J-548643D01*
G01*
X81211511Y-51818398D02*
G75*
G03*
X80414579Y-49894860I-1396148J548424D01*
G01*
X81553816Y-52238414D02*
G75*
G03*
X80171892Y-49312173I-1738453J968440D01*
G01*
%TO.C,D2*%
X157122456Y-108188412D02*
X149857608Y-107472886D01*
X157661550Y-102714896D02*
X150396702Y-101999370D01*
X149857608Y-107472886D02*
X149970327Y-106328424D01*
%TO.C,R10*%
X78951908Y-152179947D02*
X78770318Y-152618343D01*
X77986454Y-151780043D02*
X77804864Y-152218439D01*
%TO.C,Q18*%
X91073550Y-150412192D02*
X91226553Y-150442626D01*
X88802052Y-149960363D02*
X88955054Y-149990797D01*
X90441588Y-153582147D02*
G75*
G03*
X91226078Y-150442531I-731627J1850628D01*
G01*
X90565934Y-152963309D02*
G75*
G03*
X90972290Y-150921259I-855973J1231790D01*
G01*
X88853795Y-150499863D02*
G75*
G03*
X88447760Y-152541979I856166J-1231656D01*
G01*
X88802526Y-149960457D02*
G75*
G03*
X88325822Y-153161295I907435J-1771062D01*
G01*
%TO.C,D20*%
X65398404Y-53818248D02*
X70029475Y-59461225D01*
X61146847Y-57307411D02*
X65777918Y-62950388D01*
X70029475Y-59461225D02*
X69140513Y-60190777D01*
%TO.C,Q10*%
X150412192Y-108926450D02*
X150442626Y-108773447D01*
X149960363Y-111197948D02*
X149990797Y-111044946D01*
X153582147Y-109558412D02*
G75*
G03*
X150442531Y-108773922I-1850628J-731627D01*
G01*
X152963309Y-109434066D02*
G75*
G03*
X150921259Y-109027710I-1231790J-855973D01*
G01*
X150499863Y-111146205D02*
G75*
G03*
X152541979Y-111552240I1231656J856166D01*
G01*
X149960457Y-111197474D02*
G75*
G03*
X153161295Y-111674178I1771062J907435D01*
G01*
%TO.C,Q20*%
X72461126Y-143158788D02*
X72590835Y-143245457D01*
X70535442Y-141872087D02*
X70665151Y-141958756D01*
X70664179Y-145845601D02*
G75*
G03*
X72590432Y-143245188I32270J1989737D01*
G01*
X71015880Y-145321456D02*
G75*
G03*
X72172762Y-143590353I-319431J1465592D01*
G01*
X70376789Y-142390321D02*
G75*
G03*
X69220176Y-144121607I319660J-1465543D01*
G01*
X70535844Y-141872355D02*
G75*
G03*
X68870520Y-144647118I160605J-1983509D01*
G01*
%TO.C,Q7*%
X146875476Y-79414559D02*
X146815777Y-79270434D01*
X147761771Y-81554264D02*
X147702072Y-81410139D01*
X149862297Y-78178884D02*
G75*
G03*
X146815962Y-79270881I-1132271J-1636479D01*
G01*
X149278669Y-78419300D02*
G75*
G03*
X147355005Y-79215932I-548643J-1396063D01*
G01*
X148181602Y-81211511D02*
G75*
G03*
X150105140Y-80414579I548424J1396148D01*
G01*
X147761586Y-81553816D02*
G75*
G03*
X150687827Y-80171892I968440J1738453D01*
G01*
%TO.C,R3*%
X139414303Y-59846770D02*
X139749836Y-59511237D01*
X140153230Y-60585697D02*
X140488763Y-60250164D01*
%TO.C,D6*%
X154427383Y-119175108D02*
X147441719Y-117056030D01*
X156023949Y-113911936D02*
X149038285Y-111792858D01*
X147441719Y-117056030D02*
X147775546Y-115955548D01*
%TO.C,R1*%
X99477500Y-43737258D02*
X99477500Y-43262742D01*
X100522500Y-43737258D02*
X100522500Y-43262742D01*
%TO.C,D22*%
X124927124Y-152044821D02*
X121485927Y-145606795D01*
X129777691Y-149452139D02*
X126336494Y-143014113D01*
X121485927Y-145606795D02*
X122500137Y-145064689D01*
%TO.C,R14*%
X47820053Y-78951908D02*
X47381657Y-78770318D01*
X48219957Y-77986454D02*
X47781561Y-77804864D01*
%TO.C,Q14*%
X129334849Y-141958756D02*
X129464558Y-141872087D01*
X127409165Y-143245457D02*
X127538874Y-143158788D01*
X131129479Y-144647117D02*
G75*
G03*
X129464156Y-141872356I-1825928J791253D01*
G01*
X130779823Y-144121607D02*
G75*
G03*
X129623211Y-142390322I-1476272J265743D01*
G01*
X127827237Y-143590353D02*
G75*
G03*
X128984120Y-145321457I1476314J-265511D01*
G01*
X127409567Y-143245188D02*
G75*
G03*
X129335821Y-145845602I1893984J-610676D01*
G01*
%TO.C,D18*%
X134601597Y-146181754D02*
X129970526Y-140538777D01*
X138853154Y-142692591D02*
X134222083Y-137049614D01*
X129970526Y-140538777D02*
X130859488Y-139809225D01*
%TO.C,Q5*%
X135429585Y-63043065D02*
X135319276Y-62932756D01*
X137067244Y-64680724D02*
X136956935Y-64570415D01*
X137716175Y-60758442D02*
G75*
G03*
X135319619Y-62933098I-419828J-1945211D01*
G01*
X137268977Y-61203903D02*
G75*
G03*
X135796601Y-62676049I27370J-1499750D01*
G01*
X137323951Y-64203398D02*
G75*
G03*
X138796096Y-62731023I-27604J1499745D01*
G01*
X137066902Y-64680380D02*
G75*
G03*
X139241557Y-62283825I229445J1976727D01*
G01*
%TO.C,D15*%
X61456053Y-142946350D02*
X66087124Y-137303373D01*
X65707610Y-146435513D02*
X70338681Y-140792536D01*
X66087124Y-137303373D02*
X66976086Y-138032926D01*
%TO.C,R6*%
X152179947Y-121048092D02*
X152618343Y-121229682D01*
X151780043Y-122013546D02*
X152218439Y-122195136D01*
%TO.C,R11*%
X60585697Y-140153230D02*
X60250164Y-140488763D01*
X59846770Y-139414303D02*
X59511237Y-139749836D01*
%TO.C,Q13*%
X136956935Y-135429585D02*
X137067244Y-135319276D01*
X135319276Y-137067244D02*
X135429585Y-136956935D01*
X139241558Y-137716175D02*
G75*
G03*
X137066902Y-135319619I-1945211J419828D01*
G01*
X138796097Y-137268977D02*
G75*
G03*
X137323951Y-135796601I-1499750J-27370D01*
G01*
X135796602Y-137323951D02*
G75*
G03*
X137268977Y-138796096I1499745J27604D01*
G01*
X135319620Y-137066902D02*
G75*
G03*
X137716175Y-139241557I1976727J-229445D01*
G01*
%TO.C,R13*%
X43737258Y-100522500D02*
X43262742Y-100522500D01*
X43737258Y-99477500D02*
X43262742Y-99477500D01*
%TO.C,D23*%
X47955180Y-124927125D02*
X54393206Y-121485928D01*
X50547862Y-129777692D02*
X56985888Y-126336495D01*
X54393206Y-121485928D02*
X54935312Y-122500138D01*
%TO.C,R15*%
X59846770Y-60585697D02*
X59511237Y-60250164D01*
X60585697Y-59846770D02*
X60250164Y-59511237D01*
%TO.C,R2*%
X121048092Y-47820053D02*
X121229682Y-47381657D01*
X122013546Y-48219957D02*
X122195136Y-47781561D01*
%TO.C,D13*%
X138543949Y-57053650D02*
X133912878Y-62696627D01*
X134292392Y-53564487D02*
X129661321Y-59207464D01*
X133912878Y-62696627D02*
X133023916Y-61967074D01*
%TO.C,D9*%
X129424921Y-50359301D02*
X125983724Y-56797327D01*
X124574354Y-47766619D02*
X121133157Y-54204645D01*
X125983724Y-56797327D02*
X124969515Y-56255220D01*
%TO.C,R7*%
X140153230Y-139414303D02*
X140488763Y-139749836D01*
X139414303Y-140153230D02*
X139749836Y-140488763D01*
%TO.C,Q25*%
X48815000Y-101080000D02*
X48815000Y-101236000D01*
X48815000Y-98764000D02*
X48815000Y-98920000D01*
X45582666Y-101078608D02*
G75*
G03*
X48814999Y-101235515I1672334J1078608D01*
G01*
X46213871Y-101079836D02*
G75*
G03*
X48295960Y-101079999I1041129J1079836D01*
G01*
X48295960Y-98920001D02*
G75*
G03*
X46213871Y-98920164I-1040960J-1079999D01*
G01*
X48814999Y-98764485D02*
G75*
G03*
X45582666Y-98921392I-1559999J-1235515D01*
G01*
%TO.C,D28*%
X85705284Y-44092168D02*
X87824362Y-51077832D01*
X80442112Y-45688734D02*
X82561190Y-52674398D01*
X87824362Y-51077832D02*
X86723881Y-51411660D01*
%TO.C,D31*%
X42377660Y-103112970D02*
X49642508Y-102397444D01*
X42916754Y-108586486D02*
X50181602Y-107870960D01*
X49642508Y-102397444D02*
X49755228Y-103541907D01*
%TO.C,Q27*%
X52297928Y-81410139D02*
X52238229Y-81554264D01*
X53184223Y-79270434D02*
X53124524Y-79414559D01*
X49312172Y-80171892D02*
G75*
G03*
X52238415Y-81553817I1957802J356529D01*
G01*
X49894860Y-80414579D02*
G75*
G03*
X51818398Y-81211511I1375114J599216D01*
G01*
X52644994Y-79215932D02*
G75*
G03*
X50721331Y-78419301I-1375020J-599431D01*
G01*
X53184038Y-79270881D02*
G75*
G03*
X50137703Y-78178884I-1914064J-544482D01*
G01*
%TO.C,Q8*%
X149990797Y-88955054D02*
X149960363Y-88802052D01*
X150442626Y-91226553D02*
X150412192Y-91073550D01*
X153161294Y-88325823D02*
G75*
G03*
X149960458Y-88802526I-1429775J-1384138D01*
G01*
X152541978Y-88447760D02*
G75*
G03*
X150499864Y-88853796I-810459J-1262201D01*
G01*
X150921258Y-90972291D02*
G75*
G03*
X152963310Y-90565935I810261J1262330D01*
G01*
X150442531Y-91226078D02*
G75*
G03*
X153582147Y-90441588I1288988J1516117D01*
G01*
%TO.C,Q9*%
X151185000Y-98920000D02*
X151185000Y-98764000D01*
X151185000Y-101236000D02*
X151185000Y-101080000D01*
X154417334Y-98921392D02*
G75*
G03*
X151185001Y-98764485I-1672334J-1078608D01*
G01*
X153786129Y-98920164D02*
G75*
G03*
X151704040Y-98920001I-1041129J-1079836D01*
G01*
X151704040Y-101079999D02*
G75*
G03*
X153786129Y-101079836I1040960J1079999D01*
G01*
X151185001Y-101235515D02*
G75*
G03*
X154417334Y-101078608I1559999J1235515D01*
G01*
%TO.C,Q23*%
X53124524Y-120585441D02*
X53184223Y-120729566D01*
X52238229Y-118445736D02*
X52297928Y-118589861D01*
X50137703Y-121821116D02*
G75*
G03*
X53184038Y-120729119I1132271J1636479D01*
G01*
X50721331Y-121580700D02*
G75*
G03*
X52644995Y-120784068I548643J1396063D01*
G01*
X51818398Y-118788489D02*
G75*
G03*
X49894860Y-119585421I-548424J-1396148D01*
G01*
X52238414Y-118446184D02*
G75*
G03*
X49312173Y-119828108I-968440J-1738453D01*
G01*
%TO.C,D19*%
X53818247Y-134601597D02*
X59461224Y-129970526D01*
X57307410Y-138853154D02*
X62950387Y-134222083D01*
X59461224Y-129970526D02*
X60190776Y-130859488D01*
%TO.C,Q29*%
X63043065Y-64570415D02*
X62932756Y-64680724D01*
X64680724Y-62932756D02*
X64570415Y-63043065D01*
X60758442Y-62283825D02*
G75*
G03*
X62933098Y-64680381I1945211J-419828D01*
G01*
X61203903Y-62731023D02*
G75*
G03*
X62676049Y-64203399I1499750J27370D01*
G01*
X64203398Y-62676049D02*
G75*
G03*
X62731023Y-61203904I-1499745J-27604D01*
G01*
X64680380Y-62933098D02*
G75*
G03*
X62283825Y-60758443I-1976727J229445D01*
G01*
%TO.C,D32*%
X96887030Y-42377661D02*
X97602556Y-49642509D01*
X91413514Y-42916755D02*
X92129040Y-50181603D01*
X97602556Y-49642509D02*
X96458093Y-49755229D01*
%TO.C,Q28*%
X56841212Y-72461126D02*
X56754543Y-72590835D01*
X58127913Y-70535442D02*
X58041244Y-70665151D01*
X54154399Y-70664179D02*
G75*
G03*
X56754812Y-72590432I1989737J-32270D01*
G01*
X54678544Y-71015880D02*
G75*
G03*
X56409647Y-72172762I1465592J319431D01*
G01*
X57609679Y-70376789D02*
G75*
G03*
X55878393Y-69220176I-1465543J-319660D01*
G01*
X58127645Y-70535844D02*
G75*
G03*
X55352882Y-68870520I-1983509J-160605D01*
G01*
%TO.C,Q12*%
X143158788Y-127538874D02*
X143245457Y-127409165D01*
X141872087Y-129464558D02*
X141958756Y-129334849D01*
X145845601Y-129335821D02*
G75*
G03*
X143245188Y-127409568I-1989737J32270D01*
G01*
X145321456Y-128984120D02*
G75*
G03*
X143590353Y-127827238I-1465592J-319431D01*
G01*
X142390321Y-129623211D02*
G75*
G03*
X144121607Y-130779824I1465543J319660D01*
G01*
X141872355Y-129464156D02*
G75*
G03*
X144647118Y-131129480I1983509J160605D01*
G01*
%TO.C,D14*%
X142946350Y-138543948D02*
X137303373Y-133912877D01*
X146435513Y-134292391D02*
X140792536Y-129661320D01*
X137303373Y-133912877D02*
X138032926Y-133023915D01*
%TO.C,D30*%
X103112969Y-157622341D02*
X102397443Y-150357493D01*
X108586485Y-157083247D02*
X107870959Y-149818399D01*
X102397443Y-150357493D02*
X103541906Y-150244773D01*
%TO.C,Q22*%
X58041244Y-129334849D02*
X58127913Y-129464558D01*
X56754543Y-127409165D02*
X56841212Y-127538874D01*
X55352883Y-131129479D02*
G75*
G03*
X58127644Y-129464156I791253J1825928D01*
G01*
X55878393Y-130779823D02*
G75*
G03*
X57609678Y-129623211I265743J1476272D01*
G01*
X56409647Y-127827237D02*
G75*
G03*
X54678543Y-128984120I-265511J-1476314D01*
G01*
X56754812Y-127409567D02*
G75*
G03*
X54154398Y-129335821I-610676J-1893984D01*
G01*
%TO.C,D25*%
X155907835Y-85705286D02*
X148922171Y-87824364D01*
X154311269Y-80442114D02*
X147325605Y-82561192D01*
X148922171Y-87824364D02*
X148588343Y-86723883D01*
%TO.C,D21*%
X152044822Y-75072876D02*
X145606796Y-78514073D01*
X149452140Y-70222309D02*
X143014114Y-73663506D01*
X145606796Y-78514073D02*
X145064690Y-77499863D01*
%TO.C,Q3*%
X118589861Y-52297928D02*
X118445736Y-52238229D01*
X120729566Y-53184223D02*
X120585441Y-53124524D01*
X119828108Y-49312172D02*
G75*
G03*
X118446183Y-52238415I356529J-1957802D01*
G01*
X119585421Y-49894860D02*
G75*
G03*
X118788489Y-51818398I599216J-1375114D01*
G01*
X120784068Y-52644994D02*
G75*
G03*
X121580699Y-50721331I-599431J1375020D01*
G01*
X120729119Y-53184038D02*
G75*
G03*
X121821116Y-50137703I-544482J1914064D01*
G01*
%TO.C,D5*%
X119175109Y-45572616D02*
X117056031Y-52558280D01*
X113911937Y-43976050D02*
X111792859Y-50961714D01*
X117056031Y-52558280D02*
X115955549Y-52224453D01*
%TO.C,D10*%
X149640699Y-129424920D02*
X143202673Y-125983723D01*
X152233381Y-124574353D02*
X145795355Y-121133156D01*
X143202673Y-125983723D02*
X143744780Y-124969514D01*
%TO.C,Q32*%
X88955054Y-50009203D02*
X88802052Y-50039637D01*
X91226553Y-49557374D02*
X91073550Y-49587808D01*
X88325823Y-46838706D02*
G75*
G03*
X88802526Y-50039542I1384138J-1429775D01*
G01*
X88447760Y-47458022D02*
G75*
G03*
X88853796Y-49500136I1262201J-810459D01*
G01*
X90972291Y-49078742D02*
G75*
G03*
X90565935Y-47036690I-1262330J810261D01*
G01*
X91226078Y-49557469D02*
G75*
G03*
X90441588Y-46417853I-1516117J1288988D01*
G01*
%TO.C,R9*%
X100522500Y-156262742D02*
X100522500Y-156737258D01*
X99477500Y-156262742D02*
X99477500Y-156737258D01*
%TO.C,D7*%
X80824893Y-154427383D02*
X82943971Y-147441719D01*
X86088065Y-156023949D02*
X88207143Y-149038285D01*
X82943971Y-147441719D02*
X84044453Y-147775546D01*
%TO.C,Q1*%
X98920000Y-48815000D02*
X98764000Y-48815000D01*
X101236000Y-48815000D02*
X101080000Y-48815000D01*
X98921392Y-45582666D02*
G75*
G03*
X98764485Y-48814999I1078608J-1672334D01*
G01*
X98920164Y-46213871D02*
G75*
G03*
X98920001Y-48295960I1079836J-1041129D01*
G01*
X101079999Y-48295960D02*
G75*
G03*
X101079836Y-46213871I-1079999J1040960D01*
G01*
X101235515Y-48814999D02*
G75*
G03*
X101078608Y-45582666I-1235515J1559999D01*
G01*
%TO.C,Q19*%
X81410139Y-147702072D02*
X81554264Y-147761771D01*
X79270434Y-146815777D02*
X79414559Y-146875476D01*
X80171892Y-150687828D02*
G75*
G03*
X81553817Y-147761585I-356529J1957802D01*
G01*
X80414579Y-150105140D02*
G75*
G03*
X81211511Y-148181602I-599216J1375114D01*
G01*
X79215932Y-147355006D02*
G75*
G03*
X78419301Y-149278669I599431J-1375020D01*
G01*
X79270881Y-146815962D02*
G75*
G03*
X78178884Y-149862297I544482J-1914064D01*
G01*
%TO.C,R5*%
X156262742Y-99477500D02*
X156737258Y-99477500D01*
X156262742Y-100522500D02*
X156737258Y-100522500D01*
%TO.C,D29*%
X157622342Y-96887032D02*
X150357494Y-97602558D01*
X157083248Y-91413516D02*
X149818400Y-92129042D01*
X150357494Y-97602558D02*
X150244774Y-96458095D01*
%TO.C,Q16*%
X111044946Y-149990797D02*
X111197948Y-149960363D01*
X108773447Y-150442626D02*
X108926450Y-150412192D01*
X111674177Y-153161294D02*
G75*
G03*
X111197474Y-149960458I-1384138J1429775D01*
G01*
X111552240Y-152541978D02*
G75*
G03*
X111146204Y-150499864I-1262201J810459D01*
G01*
X109027709Y-150921258D02*
G75*
G03*
X109434065Y-152963310I1262330J-810261D01*
G01*
X108773922Y-150442531D02*
G75*
G03*
X109558412Y-153582147I1516117J-1288988D01*
G01*
%TO.C,Q21*%
X64570415Y-136956935D02*
X64680724Y-137067244D01*
X62932756Y-135319276D02*
X63043065Y-135429585D01*
X62283825Y-139241558D02*
G75*
G03*
X64680381Y-137066902I419828J1945211D01*
G01*
X62731023Y-138796097D02*
G75*
G03*
X64203399Y-137323951I-27370J1499750D01*
G01*
X62676049Y-135796602D02*
G75*
G03*
X61203904Y-137268977I27604J-1499745D01*
G01*
X62933098Y-135319620D02*
G75*
G03*
X60758443Y-137716175I-229445J-1976727D01*
G01*
%TO.C,D11*%
X70575081Y-149640699D02*
X74016278Y-143202673D01*
X75425648Y-152233381D02*
X78866845Y-145795355D01*
X74016278Y-143202673D02*
X75030487Y-143744780D01*
%TO.C,D3*%
X91811593Y-157122454D02*
X92527119Y-149857606D01*
X97285109Y-157661548D02*
X98000635Y-150396700D01*
X92527119Y-149857606D02*
X93671581Y-149970325D01*
%TO.C,D27*%
X44092167Y-114294716D02*
X51077831Y-112175638D01*
X45688733Y-119557888D02*
X52674397Y-117438810D01*
X51077831Y-112175638D02*
X51411659Y-113276119D01*
%TO.C,R16*%
X77986454Y-48219957D02*
X77804864Y-47781561D01*
X78951908Y-47820053D02*
X78770318Y-47381657D01*
%TO.C,D8*%
X45572618Y-80824894D02*
X52558282Y-82943972D01*
X43976052Y-86088066D02*
X50961716Y-88207144D01*
X52558282Y-82943972D02*
X52224455Y-84044454D01*
%TD*%
M02*
