%TF.GenerationSoftware,KiCad,Pcbnew,7.0.11*%
%TF.CreationDate,2025-03-06T22:38:01+09:00*%
%TF.ProjectId,Line_V2,4c696e65-5f56-4322-9e6b-696361645f70,rev?*%
%TF.SameCoordinates,Original*%
%TF.FileFunction,Drillmap*%
%TF.FilePolarity,Positive*%
%FSLAX45Y45*%
G04 Gerber Fmt 4.5, Leading zero omitted, Abs format (unit mm)*
G04 Created by KiCad (PCBNEW 7.0.11) date 2025-03-06 22:38:01*
%MOMM*%
%LPD*%
G01*
G04 APERTURE LIST*
%ADD10C,0.200000*%
%ADD11C,0.100000*%
G04 APERTURE END LIST*
D10*
X6977689Y-13301893D02*
G75*
G03*
X6698107Y-13022311I-279579J3D01*
G01*
X13022311Y-13301893D02*
X13022311Y-13815588D01*
X13022311Y-6184412D02*
X13022311Y-6698107D01*
X7117627Y-5914420D02*
G75*
G03*
X6977689Y-6184412I190483J-269990D01*
G01*
X6184412Y-6977692D02*
G75*
G03*
X5914423Y-7117629I-2J-330418D01*
G01*
X5914420Y-12882372D02*
G75*
G03*
X6184412Y-13022311I269990J190483D01*
G01*
X12882370Y-14085576D02*
G75*
G03*
X13022311Y-13815588I-190470J269986D01*
G01*
X13451893Y-13301893D02*
G75*
G03*
X13151893Y-13301893I-150000J0D01*
G01*
X13151893Y-13301893D02*
G75*
G03*
X13451893Y-13301893I150000J0D01*
G01*
X13030418Y-8710018D02*
X13030418Y-9300000D01*
X6969580Y-9300000D02*
G75*
G03*
X7169582Y-9500000I200000J0D01*
G01*
X7169582Y-10500002D02*
G75*
G03*
X6969582Y-10700000I-2J-199998D01*
G01*
X5709784Y-8310000D02*
X5709784Y-7525126D01*
X14290217Y-7525126D02*
G75*
G03*
X14239991Y-7350005I-330387J6D01*
G01*
X5709782Y-12474874D02*
G75*
G03*
X5760008Y-12649995I330418J4D01*
G01*
X6799982Y-8540418D02*
X5940202Y-8540418D01*
X14239991Y-12649995D02*
X14085577Y-12882371D01*
X6977692Y-13815588D02*
G75*
G03*
X7117629Y-14085577I330418J-2D01*
G01*
X13030417Y-11289982D02*
G75*
G03*
X13200018Y-11459582I169603J3D01*
G01*
X5709784Y-12474874D02*
X5709784Y-11690000D01*
X14290216Y-7525126D02*
X14290216Y-8310000D01*
X5914423Y-12882371D02*
X5760008Y-12649995D01*
X13815588Y-13022312D02*
G75*
G03*
X14085577Y-12882370I-8J330432D01*
G01*
X5709782Y-8310000D02*
G75*
G03*
X5940202Y-8540418I230418J0D01*
G01*
X6977689Y-13815588D02*
X6977689Y-13301893D01*
X6969582Y-9300000D02*
X6969582Y-8710018D01*
X6698107Y-6977689D02*
G75*
G03*
X6977689Y-6698107I0J279582D01*
G01*
X14290217Y-11690000D02*
G75*
G03*
X14059798Y-11459582I-230418J0D01*
G01*
X13451893Y-6698107D02*
G75*
G03*
X13151893Y-6698107I-150000J0D01*
G01*
X13151893Y-6698107D02*
G75*
G03*
X13451893Y-6698107I150000J0D01*
G01*
X13301893Y-6977689D02*
X13815588Y-6977689D01*
X7169582Y-10500000D02*
X12830418Y-10500000D01*
X14059798Y-8540418D02*
X13200018Y-8540418D01*
X6799982Y-11459582D02*
G75*
G03*
X6969582Y-11289982I-2J169602D01*
G01*
X6969582Y-8710018D02*
G75*
G03*
X6799982Y-8540418I-169603J-3D01*
G01*
X6698107Y-13022311D02*
X6184412Y-13022311D01*
X7117629Y-14085577D02*
G75*
G03*
X12882370Y-14085577I2882371J4085577D01*
G01*
X13030420Y-10700000D02*
G75*
G03*
X12830418Y-10500000I-200000J0D01*
G01*
X13200018Y-8540418D02*
G75*
G03*
X13030418Y-8710018I2J-169602D01*
G01*
X14239993Y-12649996D02*
G75*
G03*
X14290216Y-12474874I-280224J175126D01*
G01*
X13030418Y-10700000D02*
X13030418Y-11289982D01*
X5940202Y-11459584D02*
G75*
G03*
X5709784Y-11690000I-2J-230416D01*
G01*
X13815588Y-13022311D02*
X13301893Y-13022311D01*
X14085577Y-7117629D02*
X14239991Y-7350005D01*
X15800000Y-10000000D02*
G75*
G03*
X4200000Y-10000000I-5800000J0D01*
G01*
X4200000Y-10000000D02*
G75*
G03*
X15800000Y-10000000I5800000J0D01*
G01*
X5760010Y-7350006D02*
G75*
G03*
X5709784Y-7525126I280190J-175124D01*
G01*
X13200018Y-11459582D02*
X14059798Y-11459582D01*
X14059798Y-8540416D02*
G75*
G03*
X14290216Y-8310000I2J230416D01*
G01*
X6969582Y-11289982D02*
X6969582Y-10700000D01*
X13301893Y-13022311D02*
G75*
G03*
X13022311Y-13301893I-3J-279579D01*
G01*
X12830418Y-9499998D02*
G75*
G03*
X13030418Y-9300000I2J199998D01*
G01*
X6977689Y-6698107D02*
X6977689Y-6184412D01*
X5760008Y-7350005D02*
X5914423Y-7117629D01*
X5940202Y-11459582D02*
X6799982Y-11459582D01*
X13022311Y-6698107D02*
G75*
G03*
X13301893Y-6977689I279579J-3D01*
G01*
X6848107Y-13301893D02*
G75*
G03*
X6548107Y-13301893I-150000J0D01*
G01*
X6548107Y-13301893D02*
G75*
G03*
X6848107Y-13301893I150000J0D01*
G01*
X12830418Y-9500000D02*
X7169582Y-9500000D01*
X14085576Y-7117630D02*
G75*
G03*
X13815588Y-6977689I-269986J-190470D01*
G01*
X14290216Y-11690000D02*
X14290216Y-12474874D01*
X6184412Y-6977689D02*
X6698107Y-6977689D01*
X6848107Y-6698107D02*
G75*
G03*
X6548107Y-6698107I-150000J0D01*
G01*
X6548107Y-6698107D02*
G75*
G03*
X6848107Y-6698107I150000J0D01*
G01*
X13022308Y-6184412D02*
G75*
G03*
X12882371Y-5914423I-330418J2D01*
G01*
X12882370Y-5914423D02*
G75*
G03*
X7117629Y-5914423I-2882370J-4085577D01*
G01*
D11*
X4295000Y-9605000D02*
X4325000Y-9635000D01*
X4325000Y-9605000D02*
X4295000Y-9635000D01*
X4325000Y-10730000D02*
X4355000Y-10760000D01*
X4355000Y-10730000D02*
X4325000Y-10760000D01*
X4470000Y-10140000D02*
X4500000Y-10170000D01*
X4500000Y-10140000D02*
X4470000Y-10170000D01*
X4470000Y-10520000D02*
X4500000Y-10550000D01*
X4500000Y-10520000D02*
X4470000Y-10550000D01*
X4475000Y-8510000D02*
X4505000Y-8540000D01*
X4505000Y-8510000D02*
X4475000Y-8540000D01*
X4505000Y-10885000D02*
X4535000Y-10915000D01*
X4535000Y-10885000D02*
X4505000Y-10915000D01*
X4520000Y-9595000D02*
X4550000Y-9625000D01*
X4550000Y-9595000D02*
X4520000Y-9625000D01*
X4550000Y-9120000D02*
X4580000Y-9150000D01*
X4580000Y-9120000D02*
X4550000Y-9150000D01*
X4590000Y-8715000D02*
X4620000Y-8745000D01*
X4620000Y-8715000D02*
X4590000Y-8745000D01*
X4590000Y-11820000D02*
X4620000Y-11850000D01*
X4620000Y-11820000D02*
X4590000Y-11850000D01*
X4660000Y-11265000D02*
X4690000Y-11295000D01*
X4690000Y-11265000D02*
X4660000Y-11295000D01*
X4825000Y-11760000D02*
X4855000Y-11790000D01*
X4855000Y-11760000D02*
X4825000Y-11790000D01*
X4860000Y-10200000D02*
X4890000Y-10230000D01*
X4890000Y-10200000D02*
X4860000Y-10230000D01*
X4865000Y-9500000D02*
X4895000Y-9530000D01*
X4895000Y-9500000D02*
X4865000Y-9530000D01*
X4870000Y-7455000D02*
X4900000Y-7485000D01*
X4900000Y-7455000D02*
X4870000Y-7485000D01*
X4875000Y-8100000D02*
X4905000Y-8130000D01*
X4905000Y-8100000D02*
X4875000Y-8130000D01*
X4910000Y-7665000D02*
X4940000Y-7695000D01*
X4940000Y-7665000D02*
X4910000Y-7695000D01*
X5005000Y-12245000D02*
X5035000Y-12275000D01*
X5035000Y-12245000D02*
X5005000Y-12275000D01*
X5050000Y-8505000D02*
X5080000Y-8535000D01*
X5080000Y-8505000D02*
X5050000Y-8535000D01*
X5050000Y-12835000D02*
X5080000Y-12865000D01*
X5080000Y-12835000D02*
X5050000Y-12865000D01*
X5075000Y-7350000D02*
X5105000Y-7380000D01*
X5105000Y-7350000D02*
X5075000Y-7380000D01*
X5155000Y-11460000D02*
X5185000Y-11490000D01*
X5185000Y-11460000D02*
X5155000Y-11490000D01*
X5185000Y-7635000D02*
X5215000Y-7665000D01*
X5215000Y-7635000D02*
X5185000Y-7665000D01*
X5255000Y-12550000D02*
X5285000Y-12580000D01*
X5285000Y-12550000D02*
X5255000Y-12580000D01*
X5265000Y-12930000D02*
X5295000Y-12960000D01*
X5295000Y-12930000D02*
X5265000Y-12960000D01*
X5270000Y-12185000D02*
X5300000Y-12215000D01*
X5300000Y-12185000D02*
X5270000Y-12215000D01*
X5295000Y-7115000D02*
X5325000Y-7145000D01*
X5325000Y-7115000D02*
X5295000Y-7145000D01*
X5295000Y-7395000D02*
X5325000Y-7425000D01*
X5325000Y-7395000D02*
X5295000Y-7425000D01*
X5405000Y-9500000D02*
X5435000Y-9530000D01*
X5435000Y-9500000D02*
X5405000Y-9530000D01*
X5405000Y-11925000D02*
X5435000Y-11955000D01*
X5435000Y-11925000D02*
X5405000Y-11955000D01*
X5465000Y-6510000D02*
X5495000Y-6540000D01*
X5495000Y-6510000D02*
X5465000Y-6540000D01*
X5475000Y-11275000D02*
X5505000Y-11305000D01*
X5505000Y-11275000D02*
X5475000Y-11305000D01*
X5500000Y-6745000D02*
X5530000Y-6775000D01*
X5530000Y-6745000D02*
X5500000Y-6775000D01*
X5515000Y-10195000D02*
X5545000Y-10225000D01*
X5545000Y-10195000D02*
X5515000Y-10225000D01*
X5530000Y-13220000D02*
X5560000Y-13250000D01*
X5560000Y-13220000D02*
X5530000Y-13250000D01*
X5595000Y-7600000D02*
X5625000Y-7630000D01*
X5625000Y-7600000D02*
X5595000Y-7630000D01*
X5595000Y-7715000D02*
X5625000Y-7745000D01*
X5625000Y-7715000D02*
X5595000Y-7745000D01*
X5614784Y-12345000D02*
X5644784Y-12375000D01*
X5644784Y-12345000D02*
X5614784Y-12375000D01*
X5614784Y-12450000D02*
X5644784Y-12480000D01*
X5644784Y-12450000D02*
X5614784Y-12480000D01*
X5690000Y-6480000D02*
X5720000Y-6510000D01*
X5720000Y-6480000D02*
X5690000Y-6510000D01*
X5695000Y-13745000D02*
X5725000Y-13775000D01*
X5725000Y-13745000D02*
X5695000Y-13775000D01*
X5720000Y-11005000D02*
X5750000Y-11035000D01*
X5750000Y-11005000D02*
X5720000Y-11035000D01*
X5835000Y-13515000D02*
X5865000Y-13545000D01*
X5865000Y-13515000D02*
X5835000Y-13545000D01*
X5845000Y-13000000D02*
X5875000Y-13030000D01*
X5875000Y-13000000D02*
X5845000Y-13030000D01*
X5935000Y-6235000D02*
X5965000Y-6265000D01*
X5965000Y-6235000D02*
X5935000Y-6265000D01*
X6230000Y-5700000D02*
X6260000Y-5730000D01*
X6260000Y-5700000D02*
X6230000Y-5730000D01*
X6230000Y-14040000D02*
X6260000Y-14070000D01*
X6260000Y-14040000D02*
X6230000Y-14070000D01*
X6300000Y-9645000D02*
X6330000Y-9675000D01*
X6330000Y-9645000D02*
X6300000Y-9675000D01*
X6415000Y-13855000D02*
X6445000Y-13885000D01*
X6445000Y-13855000D02*
X6415000Y-13885000D01*
X6490000Y-5765000D02*
X6520000Y-5795000D01*
X6520000Y-5765000D02*
X6490000Y-5795000D01*
X6515000Y-14505000D02*
X6545000Y-14535000D01*
X6545000Y-14505000D02*
X6515000Y-14535000D01*
X6530000Y-10155000D02*
X6560000Y-10185000D01*
X6560000Y-10155000D02*
X6530000Y-10185000D01*
X6715000Y-13995000D02*
X6745000Y-14025000D01*
X6745000Y-13995000D02*
X6715000Y-14025000D01*
X6730000Y-14475000D02*
X6760000Y-14505000D01*
X6760000Y-14475000D02*
X6730000Y-14505000D01*
X6740000Y-5540000D02*
X6770000Y-5570000D01*
X6770000Y-5540000D02*
X6740000Y-5570000D01*
X6800000Y-13835000D02*
X6830000Y-13865000D01*
X6830000Y-13835000D02*
X6800000Y-13865000D01*
X6885000Y-13920000D02*
X6915000Y-13950000D01*
X6915000Y-13920000D02*
X6885000Y-13950000D01*
X7035000Y-14685000D02*
X7065000Y-14715000D01*
X7065000Y-14685000D02*
X7035000Y-14715000D01*
X7080000Y-5260000D02*
X7110000Y-5290000D01*
X7110000Y-5260000D02*
X7080000Y-5290000D01*
X7135000Y-5045000D02*
X7165000Y-5075000D01*
X7165000Y-5045000D02*
X7135000Y-5075000D01*
X7465000Y-15095000D02*
X7495000Y-15125000D01*
X7495000Y-15095000D02*
X7465000Y-15125000D01*
X7585000Y-14900000D02*
X7615000Y-14930000D01*
X7615000Y-14900000D02*
X7585000Y-14930000D01*
X7695000Y-5040000D02*
X7725000Y-5070000D01*
X7725000Y-5040000D02*
X7695000Y-5070000D01*
X8080000Y-15100000D02*
X8110000Y-15130000D01*
X8110000Y-15100000D02*
X8080000Y-15130000D01*
X8090000Y-4790000D02*
X8120000Y-4820000D01*
X8120000Y-4790000D02*
X8090000Y-4820000D01*
X8155000Y-4580000D02*
X8185000Y-4610000D01*
X8185000Y-4580000D02*
X8155000Y-4610000D01*
X8435000Y-15155000D02*
X8465000Y-15185000D01*
X8465000Y-15155000D02*
X8435000Y-15185000D01*
X8510000Y-15490000D02*
X8540000Y-15520000D01*
X8540000Y-15490000D02*
X8510000Y-15520000D01*
X8610000Y-4675000D02*
X8640000Y-4705000D01*
X8640000Y-4675000D02*
X8610000Y-4705000D01*
X8730000Y-15415000D02*
X8760000Y-15445000D01*
X8760000Y-15415000D02*
X8730000Y-15445000D01*
X9135000Y-4530000D02*
X9165000Y-4560000D01*
X9165000Y-4530000D02*
X9135000Y-4560000D01*
X9140000Y-15410000D02*
X9170000Y-15440000D01*
X9170000Y-15410000D02*
X9140000Y-15440000D01*
X9240000Y-4330000D02*
X9270000Y-4360000D01*
X9270000Y-4330000D02*
X9240000Y-4360000D01*
X9415000Y-4550000D02*
X9445000Y-4580000D01*
X9445000Y-4550000D02*
X9415000Y-4580000D01*
X9605000Y-15450000D02*
X9635000Y-15480000D01*
X9635000Y-15450000D02*
X9605000Y-15480000D01*
X9610000Y-15670000D02*
X9640000Y-15700000D01*
X9640000Y-15670000D02*
X9610000Y-15700000D01*
X10190000Y-4435000D02*
X10220000Y-4465000D01*
X10220000Y-4435000D02*
X10190000Y-4465000D01*
X10205000Y-15505000D02*
X10235000Y-15535000D01*
X10235000Y-15505000D02*
X10205000Y-15535000D01*
X10360000Y-4300000D02*
X10390000Y-4330000D01*
X10390000Y-4300000D02*
X10360000Y-4330000D01*
X10450000Y-4725000D02*
X10480000Y-4755000D01*
X10480000Y-4725000D02*
X10450000Y-4755000D01*
X10540000Y-15505000D02*
X10570000Y-15535000D01*
X10570000Y-15505000D02*
X10540000Y-15535000D01*
X10730000Y-15640000D02*
X10760000Y-15670000D01*
X10760000Y-15640000D02*
X10730000Y-15670000D01*
X10850000Y-4480000D02*
X10880000Y-4510000D01*
X10880000Y-4480000D02*
X10850000Y-4510000D01*
X10860000Y-15450000D02*
X10890000Y-15480000D01*
X10890000Y-15450000D02*
X10860000Y-15480000D01*
X11235000Y-4540000D02*
X11265000Y-4570000D01*
X11265000Y-4540000D02*
X11235000Y-4570000D01*
X11330000Y-15305000D02*
X11360000Y-15335000D01*
X11360000Y-15305000D02*
X11330000Y-15335000D01*
X11430000Y-4715000D02*
X11460000Y-4745000D01*
X11460000Y-4715000D02*
X11430000Y-4745000D01*
X11465000Y-4480000D02*
X11495000Y-4510000D01*
X11495000Y-4480000D02*
X11465000Y-4510000D01*
X11745000Y-15145000D02*
X11775000Y-15175000D01*
X11775000Y-15145000D02*
X11745000Y-15175000D01*
X11815000Y-15380000D02*
X11845000Y-15410000D01*
X11845000Y-15380000D02*
X11815000Y-15410000D01*
X12230000Y-14990000D02*
X12260000Y-15020000D01*
X12260000Y-14990000D02*
X12230000Y-15020000D01*
X12505000Y-4870000D02*
X12535000Y-4900000D01*
X12535000Y-4870000D02*
X12505000Y-4900000D01*
X12545000Y-5115000D02*
X12575000Y-5145000D01*
X12575000Y-5115000D02*
X12545000Y-5145000D01*
X12625000Y-14880000D02*
X12655000Y-14910000D01*
X12655000Y-14880000D02*
X12625000Y-14910000D01*
X12810000Y-5235000D02*
X12840000Y-5265000D01*
X12840000Y-5235000D02*
X12810000Y-5265000D01*
X12835000Y-14920000D02*
X12865000Y-14950000D01*
X12865000Y-14920000D02*
X12835000Y-14950000D01*
X12895000Y-14715000D02*
X12925000Y-14745000D01*
X12925000Y-14715000D02*
X12895000Y-14745000D01*
X13100000Y-11245000D02*
X13130000Y-11275000D01*
X13130000Y-11245000D02*
X13100000Y-11275000D01*
X13260000Y-5450000D02*
X13290000Y-5480000D01*
X13290000Y-5450000D02*
X13260000Y-5480000D01*
X13280000Y-14465000D02*
X13310000Y-14495000D01*
X13310000Y-14465000D02*
X13280000Y-14495000D01*
X13300000Y-11325000D02*
X13330000Y-11355000D01*
X13330000Y-11325000D02*
X13300000Y-11355000D01*
X13310000Y-11015000D02*
X13340000Y-11045000D01*
X13340000Y-11015000D02*
X13310000Y-11045000D01*
X13455000Y-5470000D02*
X13485000Y-5500000D01*
X13485000Y-5470000D02*
X13455000Y-5500000D01*
X13560000Y-11305000D02*
X13590000Y-11335000D01*
X13590000Y-11305000D02*
X13560000Y-11335000D01*
X13580000Y-10185000D02*
X13610000Y-10215000D01*
X13610000Y-10185000D02*
X13580000Y-10215000D01*
X13595000Y-8845000D02*
X13625000Y-8875000D01*
X13625000Y-8845000D02*
X13595000Y-8875000D01*
X13600000Y-10045000D02*
X13630000Y-10075000D01*
X13630000Y-10045000D02*
X13600000Y-10075000D01*
X13690000Y-8840000D02*
X13720000Y-8870000D01*
X13720000Y-8840000D02*
X13690000Y-8870000D01*
X13740000Y-14265000D02*
X13770000Y-14295000D01*
X13770000Y-14265000D02*
X13740000Y-14295000D01*
X13772426Y-9492427D02*
X13802426Y-9522427D01*
X13802426Y-9492427D02*
X13772426Y-9522427D01*
X13920000Y-10925000D02*
X13950000Y-10955000D01*
X13950000Y-10925000D02*
X13920000Y-10955000D01*
X13985000Y-13760000D02*
X14015000Y-13790000D01*
X14015000Y-13760000D02*
X13985000Y-13790000D01*
X14070000Y-11060000D02*
X14100000Y-11090000D01*
X14100000Y-11060000D02*
X14070000Y-11090000D01*
X14110000Y-8960000D02*
X14140000Y-8990000D01*
X14140000Y-8960000D02*
X14110000Y-8990000D01*
X14215000Y-11100000D02*
X14245000Y-11130000D01*
X14245000Y-11100000D02*
X14215000Y-11130000D01*
X14240000Y-11345000D02*
X14270000Y-11375000D01*
X14270000Y-11345000D02*
X14240000Y-11375000D01*
X14260000Y-10585000D02*
X14290000Y-10615000D01*
X14290000Y-10585000D02*
X14260000Y-10615000D01*
X14260000Y-10925000D02*
X14290000Y-10955000D01*
X14290000Y-10925000D02*
X14260000Y-10955000D01*
X14270000Y-6225000D02*
X14300000Y-6255000D01*
X14300000Y-6225000D02*
X14270000Y-6255000D01*
X14350000Y-8415000D02*
X14380000Y-8445000D01*
X14380000Y-8415000D02*
X14350000Y-8445000D01*
X14380000Y-12310000D02*
X14410000Y-12340000D01*
X14410000Y-12310000D02*
X14380000Y-12340000D01*
X14500000Y-10330000D02*
X14530000Y-10360000D01*
X14530000Y-10330000D02*
X14500000Y-10360000D01*
X14510000Y-13455000D02*
X14540000Y-13485000D01*
X14540000Y-13455000D02*
X14510000Y-13485000D01*
X14515000Y-10950000D02*
X14545000Y-10980000D01*
X14545000Y-10950000D02*
X14515000Y-10980000D01*
X14540000Y-12075000D02*
X14570000Y-12105000D01*
X14570000Y-12075000D02*
X14540000Y-12105000D01*
X14550000Y-8510000D02*
X14580000Y-8540000D01*
X14580000Y-8510000D02*
X14550000Y-8540000D01*
X14555000Y-11100000D02*
X14585000Y-11130000D01*
X14585000Y-11100000D02*
X14555000Y-11130000D01*
X14635000Y-8205000D02*
X14665000Y-8235000D01*
X14665000Y-8205000D02*
X14635000Y-8235000D01*
X14635000Y-11180000D02*
X14665000Y-11210000D01*
X14665000Y-11180000D02*
X14635000Y-11210000D01*
X14760000Y-11075000D02*
X14790000Y-11105000D01*
X14790000Y-11075000D02*
X14760000Y-11105000D01*
X14780000Y-8845000D02*
X14810000Y-8875000D01*
X14810000Y-8845000D02*
X14780000Y-8875000D01*
X14825000Y-10585000D02*
X14855000Y-10615000D01*
X14855000Y-10585000D02*
X14825000Y-10615000D01*
X14840000Y-8995000D02*
X14870000Y-9025000D01*
X14870000Y-8995000D02*
X14840000Y-9025000D01*
X14870000Y-11785000D02*
X14900000Y-11815000D01*
X14900000Y-11785000D02*
X14870000Y-11815000D01*
X14890000Y-9990000D02*
X14920000Y-10020000D01*
X14920000Y-9990000D02*
X14890000Y-10020000D01*
X14900000Y-11450000D02*
X14930000Y-11480000D01*
X14930000Y-11450000D02*
X14900000Y-11480000D01*
X14910000Y-8470000D02*
X14940000Y-8500000D01*
X14940000Y-8470000D02*
X14910000Y-8500000D01*
X14910000Y-9495000D02*
X14940000Y-9525000D01*
X14940000Y-9495000D02*
X14910000Y-9525000D01*
X14925000Y-7135000D02*
X14955000Y-7165000D01*
X14955000Y-7135000D02*
X14925000Y-7165000D01*
X14985000Y-11460000D02*
X15015000Y-11490000D01*
X15015000Y-11460000D02*
X14985000Y-11490000D01*
X15095000Y-12505000D02*
X15125000Y-12535000D01*
X15125000Y-12505000D02*
X15095000Y-12535000D01*
X15115000Y-8760000D02*
X15145000Y-8790000D01*
X15145000Y-8760000D02*
X15115000Y-8790000D01*
X15130000Y-10475000D02*
X15160000Y-10505000D01*
X15160000Y-10475000D02*
X15130000Y-10505000D01*
X15145000Y-8235000D02*
X15175000Y-8265000D01*
X15175000Y-8235000D02*
X15145000Y-8265000D01*
X15155000Y-9785000D02*
X15185000Y-9815000D01*
X15185000Y-9785000D02*
X15155000Y-9815000D01*
X15170000Y-10810000D02*
X15200000Y-10840000D01*
X15200000Y-10810000D02*
X15170000Y-10840000D01*
X15355000Y-9435000D02*
X15385000Y-9465000D01*
X15385000Y-9435000D02*
X15355000Y-9465000D01*
X15375000Y-8715000D02*
X15405000Y-8745000D01*
X15405000Y-8715000D02*
X15375000Y-8745000D01*
X15385000Y-8150000D02*
X15415000Y-8180000D01*
X15415000Y-8150000D02*
X15385000Y-8180000D01*
X15490000Y-11460000D02*
X15520000Y-11490000D01*
X15520000Y-11460000D02*
X15490000Y-11490000D01*
X15500000Y-9075000D02*
X15530000Y-9105000D01*
X15530000Y-9075000D02*
X15500000Y-9105000D01*
X15510000Y-9785000D02*
X15540000Y-9815000D01*
X15540000Y-9785000D02*
X15510000Y-9815000D01*
X15640000Y-9240000D02*
X15670000Y-9270000D01*
X15670000Y-9240000D02*
X15640000Y-9270000D01*
X15670000Y-10360000D02*
X15700000Y-10390000D01*
X15700000Y-10360000D02*
X15670000Y-10390000D01*
X4643500Y-10000000D02*
G75*
G03*
X4553500Y-10000000I-45000J0D01*
G01*
X4553500Y-10000000D02*
G75*
G03*
X4643500Y-10000000I45000J0D01*
G01*
X4747288Y-8946220D02*
G75*
G03*
X4657288Y-8946220I-45000J0D01*
G01*
X4657288Y-8946220D02*
G75*
G03*
X4747288Y-8946220I45000J0D01*
G01*
X4748759Y-11053488D02*
G75*
G03*
X4658759Y-11053488I-45000J0D01*
G01*
X4658759Y-11053488D02*
G75*
G03*
X4748759Y-11053488I45000J0D01*
G01*
X4897500Y-10000000D02*
G75*
G03*
X4807500Y-10000000I-45000J0D01*
G01*
X4807500Y-10000000D02*
G75*
G03*
X4897500Y-10000000I45000J0D01*
G01*
X4996408Y-8995773D02*
G75*
G03*
X4906408Y-8995773I-45000J0D01*
G01*
X4906408Y-8995773D02*
G75*
G03*
X4996408Y-8995773I45000J0D01*
G01*
X4997879Y-11003935D02*
G75*
G03*
X4907879Y-11003935I-45000J0D01*
G01*
X4907879Y-11003935D02*
G75*
G03*
X4997879Y-11003935I45000J0D01*
G01*
X5054665Y-7932935D02*
G75*
G03*
X4964665Y-7932935I-45000J0D01*
G01*
X4964665Y-7932935D02*
G75*
G03*
X5054665Y-7932935I45000J0D01*
G01*
X5054665Y-12067064D02*
G75*
G03*
X4964665Y-12067064I-45000J0D01*
G01*
X4964665Y-12067064D02*
G75*
G03*
X5054665Y-12067064I45000J0D01*
G01*
X5289330Y-8030137D02*
G75*
G03*
X5199330Y-8030137I-45000J0D01*
G01*
X5199330Y-8030137D02*
G75*
G03*
X5289330Y-8030137I45000J0D01*
G01*
X5289330Y-11969863D02*
G75*
G03*
X5199330Y-11969863I-45000J0D01*
G01*
X5199330Y-11969863D02*
G75*
G03*
X5289330Y-11969863I45000J0D01*
G01*
X5553817Y-6999087D02*
G75*
G03*
X5463817Y-6999087I-45000J0D01*
G01*
X5463817Y-6999087D02*
G75*
G03*
X5553817Y-6999087I45000J0D01*
G01*
X5553817Y-13000912D02*
G75*
G03*
X5463817Y-13000912I-45000J0D01*
G01*
X5463817Y-13000912D02*
G75*
G03*
X5553817Y-13000912I45000J0D01*
G01*
X5765010Y-7140202D02*
G75*
G03*
X5675010Y-7140202I-45000J0D01*
G01*
X5675010Y-7140202D02*
G75*
G03*
X5765010Y-7140202I45000J0D01*
G01*
X5765010Y-12859798D02*
G75*
G03*
X5675010Y-12859798I-45000J0D01*
G01*
X5675010Y-12859798D02*
G75*
G03*
X5765010Y-12859798I45000J0D01*
G01*
X6225563Y-6180563D02*
G75*
G03*
X6135563Y-6180563I-45000J0D01*
G01*
X6135563Y-6180563D02*
G75*
G03*
X6225563Y-6180563I45000J0D01*
G01*
X6225563Y-13819437D02*
G75*
G03*
X6135563Y-13819437I-45000J0D01*
G01*
X6135563Y-13819437D02*
G75*
G03*
X6225563Y-13819437I45000J0D01*
G01*
X6405168Y-6360168D02*
G75*
G03*
X6315168Y-6360168I-45000J0D01*
G01*
X6315168Y-6360168D02*
G75*
G03*
X6405168Y-6360168I45000J0D01*
G01*
X6405168Y-13639832D02*
G75*
G03*
X6315168Y-13639832I-45000J0D01*
G01*
X6315168Y-13639832D02*
G75*
G03*
X6405168Y-13639832I45000J0D01*
G01*
X7044087Y-5508817D02*
G75*
G03*
X6954087Y-5508817I-45000J0D01*
G01*
X6954087Y-5508817D02*
G75*
G03*
X7044087Y-5508817I45000J0D01*
G01*
X7044087Y-14491183D02*
G75*
G03*
X6954087Y-14491183I-45000J0D01*
G01*
X6954087Y-14491183D02*
G75*
G03*
X7044087Y-14491183I45000J0D01*
G01*
X7185202Y-5720010D02*
G75*
G03*
X7095202Y-5720010I-45000J0D01*
G01*
X7095202Y-5720010D02*
G75*
G03*
X7185202Y-5720010I45000J0D01*
G01*
X7185202Y-14279990D02*
G75*
G03*
X7095202Y-14279990I-45000J0D01*
G01*
X7095202Y-14279990D02*
G75*
G03*
X7185202Y-14279990I45000J0D01*
G01*
X7977935Y-5009665D02*
G75*
G03*
X7887935Y-5009665I-45000J0D01*
G01*
X7887935Y-5009665D02*
G75*
G03*
X7977935Y-5009665I45000J0D01*
G01*
X7977935Y-14990335D02*
G75*
G03*
X7887935Y-14990335I-45000J0D01*
G01*
X7887935Y-14990335D02*
G75*
G03*
X7977935Y-14990335I45000J0D01*
G01*
X8075137Y-5244330D02*
G75*
G03*
X7985137Y-5244330I-45000J0D01*
G01*
X7985137Y-5244330D02*
G75*
G03*
X8075137Y-5244330I45000J0D01*
G01*
X8075137Y-14755670D02*
G75*
G03*
X7985137Y-14755670I-45000J0D01*
G01*
X7985137Y-14755670D02*
G75*
G03*
X8075137Y-14755670I45000J0D01*
G01*
X8991220Y-4702288D02*
G75*
G03*
X8901220Y-4702288I-45000J0D01*
G01*
X8901220Y-4702288D02*
G75*
G03*
X8991220Y-4702288I45000J0D01*
G01*
X8991220Y-15297712D02*
G75*
G03*
X8901220Y-15297712I-45000J0D01*
G01*
X8901220Y-15297712D02*
G75*
G03*
X8991220Y-15297712I45000J0D01*
G01*
X9040773Y-4951408D02*
G75*
G03*
X8950773Y-4951408I-45000J0D01*
G01*
X8950773Y-4951408D02*
G75*
G03*
X9040773Y-4951408I45000J0D01*
G01*
X9040773Y-15048592D02*
G75*
G03*
X8950773Y-15048592I-45000J0D01*
G01*
X8950773Y-15048592D02*
G75*
G03*
X9040773Y-15048592I45000J0D01*
G01*
X10045000Y-4598500D02*
G75*
G03*
X9955000Y-4598500I-45000J0D01*
G01*
X9955000Y-4598500D02*
G75*
G03*
X10045000Y-4598500I45000J0D01*
G01*
X10045000Y-4852500D02*
G75*
G03*
X9955000Y-4852500I-45000J0D01*
G01*
X9955000Y-4852500D02*
G75*
G03*
X10045000Y-4852500I45000J0D01*
G01*
X10045000Y-15147500D02*
G75*
G03*
X9955000Y-15147500I-45000J0D01*
G01*
X9955000Y-15147500D02*
G75*
G03*
X10045000Y-15147500I45000J0D01*
G01*
X10045000Y-15401500D02*
G75*
G03*
X9955000Y-15401500I-45000J0D01*
G01*
X9955000Y-15401500D02*
G75*
G03*
X10045000Y-15401500I45000J0D01*
G01*
X11049227Y-4951408D02*
G75*
G03*
X10959227Y-4951408I-45000J0D01*
G01*
X10959227Y-4951408D02*
G75*
G03*
X11049227Y-4951408I45000J0D01*
G01*
X11049227Y-15048592D02*
G75*
G03*
X10959227Y-15048592I-45000J0D01*
G01*
X10959227Y-15048592D02*
G75*
G03*
X11049227Y-15048592I45000J0D01*
G01*
X11098780Y-4702288D02*
G75*
G03*
X11008780Y-4702288I-45000J0D01*
G01*
X11008780Y-4702288D02*
G75*
G03*
X11098780Y-4702288I45000J0D01*
G01*
X11098780Y-15297712D02*
G75*
G03*
X11008780Y-15297712I-45000J0D01*
G01*
X11008780Y-15297712D02*
G75*
G03*
X11098780Y-15297712I45000J0D01*
G01*
X12014863Y-5244330D02*
G75*
G03*
X11924863Y-5244330I-45000J0D01*
G01*
X11924863Y-5244330D02*
G75*
G03*
X12014863Y-5244330I45000J0D01*
G01*
X12014863Y-14755670D02*
G75*
G03*
X11924863Y-14755670I-45000J0D01*
G01*
X11924863Y-14755670D02*
G75*
G03*
X12014863Y-14755670I45000J0D01*
G01*
X12112064Y-5009665D02*
G75*
G03*
X12022064Y-5009665I-45000J0D01*
G01*
X12022064Y-5009665D02*
G75*
G03*
X12112064Y-5009665I45000J0D01*
G01*
X12112064Y-14990335D02*
G75*
G03*
X12022064Y-14990335I-45000J0D01*
G01*
X12022064Y-14990335D02*
G75*
G03*
X12112064Y-14990335I45000J0D01*
G01*
X12904798Y-5720010D02*
G75*
G03*
X12814798Y-5720010I-45000J0D01*
G01*
X12814798Y-5720010D02*
G75*
G03*
X12904798Y-5720010I45000J0D01*
G01*
X12904798Y-14279990D02*
G75*
G03*
X12814798Y-14279990I-45000J0D01*
G01*
X12814798Y-14279990D02*
G75*
G03*
X12904798Y-14279990I45000J0D01*
G01*
X13045912Y-5508817D02*
G75*
G03*
X12955912Y-5508817I-45000J0D01*
G01*
X12955912Y-5508817D02*
G75*
G03*
X13045912Y-5508817I45000J0D01*
G01*
X13045912Y-14491183D02*
G75*
G03*
X12955912Y-14491183I-45000J0D01*
G01*
X12955912Y-14491183D02*
G75*
G03*
X13045912Y-14491183I45000J0D01*
G01*
X13684832Y-6360168D02*
G75*
G03*
X13594832Y-6360168I-45000J0D01*
G01*
X13594832Y-6360168D02*
G75*
G03*
X13684832Y-6360168I45000J0D01*
G01*
X13684832Y-13639832D02*
G75*
G03*
X13594832Y-13639832I-45000J0D01*
G01*
X13594832Y-13639832D02*
G75*
G03*
X13684832Y-13639832I45000J0D01*
G01*
X13864437Y-6180563D02*
G75*
G03*
X13774437Y-6180563I-45000J0D01*
G01*
X13774437Y-6180563D02*
G75*
G03*
X13864437Y-6180563I45000J0D01*
G01*
X13864437Y-13819437D02*
G75*
G03*
X13774437Y-13819437I-45000J0D01*
G01*
X13774437Y-13819437D02*
G75*
G03*
X13864437Y-13819437I45000J0D01*
G01*
X14324990Y-7140202D02*
G75*
G03*
X14234990Y-7140202I-45000J0D01*
G01*
X14234990Y-7140202D02*
G75*
G03*
X14324990Y-7140202I45000J0D01*
G01*
X14324990Y-12859798D02*
G75*
G03*
X14234990Y-12859798I-45000J0D01*
G01*
X14234990Y-12859798D02*
G75*
G03*
X14324990Y-12859798I45000J0D01*
G01*
X14536183Y-6999087D02*
G75*
G03*
X14446183Y-6999087I-45000J0D01*
G01*
X14446183Y-6999087D02*
G75*
G03*
X14536183Y-6999087I45000J0D01*
G01*
X14536183Y-13000912D02*
G75*
G03*
X14446183Y-13000912I-45000J0D01*
G01*
X14446183Y-13000912D02*
G75*
G03*
X14536183Y-13000912I45000J0D01*
G01*
X14800670Y-8030137D02*
G75*
G03*
X14710670Y-8030137I-45000J0D01*
G01*
X14710670Y-8030137D02*
G75*
G03*
X14800670Y-8030137I45000J0D01*
G01*
X14800670Y-11969863D02*
G75*
G03*
X14710670Y-11969863I-45000J0D01*
G01*
X14710670Y-11969863D02*
G75*
G03*
X14800670Y-11969863I45000J0D01*
G01*
X15035335Y-7932935D02*
G75*
G03*
X14945335Y-7932935I-45000J0D01*
G01*
X14945335Y-7932935D02*
G75*
G03*
X15035335Y-7932935I45000J0D01*
G01*
X15035335Y-12067064D02*
G75*
G03*
X14945335Y-12067064I-45000J0D01*
G01*
X14945335Y-12067064D02*
G75*
G03*
X15035335Y-12067064I45000J0D01*
G01*
X15093592Y-8995773D02*
G75*
G03*
X15003592Y-8995773I-45000J0D01*
G01*
X15003592Y-8995773D02*
G75*
G03*
X15093592Y-8995773I45000J0D01*
G01*
X15093592Y-11004227D02*
G75*
G03*
X15003592Y-11004227I-45000J0D01*
G01*
X15003592Y-11004227D02*
G75*
G03*
X15093592Y-11004227I45000J0D01*
G01*
X15192500Y-10000000D02*
G75*
G03*
X15102500Y-10000000I-45000J0D01*
G01*
X15102500Y-10000000D02*
G75*
G03*
X15192500Y-10000000I45000J0D01*
G01*
X15342712Y-8946220D02*
G75*
G03*
X15252712Y-8946220I-45000J0D01*
G01*
X15252712Y-8946220D02*
G75*
G03*
X15342712Y-8946220I45000J0D01*
G01*
X15342712Y-11053780D02*
G75*
G03*
X15252712Y-11053780I-45000J0D01*
G01*
X15252712Y-11053780D02*
G75*
G03*
X15342712Y-11053780I45000J0D01*
G01*
X15446500Y-10000000D02*
G75*
G03*
X15356500Y-10000000I-45000J0D01*
G01*
X15356500Y-10000000D02*
G75*
G03*
X15446500Y-10000000I45000J0D01*
G01*
X5252840Y-9104980D02*
X5252840Y-9204980D01*
X5202840Y-9154980D02*
X5302840Y-9154980D01*
X5252840Y-9358980D02*
X5252840Y-9458980D01*
X5202840Y-9408980D02*
X5302840Y-9408980D01*
X5252840Y-9612980D02*
X5252840Y-9712980D01*
X5202840Y-9662980D02*
X5302840Y-9662980D01*
X5252840Y-9866980D02*
X5252840Y-9966980D01*
X5202840Y-9916980D02*
X5302840Y-9916980D01*
X5252840Y-10120980D02*
X5252840Y-10220980D01*
X5202840Y-10170980D02*
X5302840Y-10170980D01*
X5252840Y-10374980D02*
X5252840Y-10474980D01*
X5202840Y-10424980D02*
X5302840Y-10424980D01*
X5252840Y-10628980D02*
X5252840Y-10728980D01*
X5202840Y-10678980D02*
X5302840Y-10678980D01*
X6776840Y-9104980D02*
X6776840Y-9204980D01*
X6726840Y-9154980D02*
X6826840Y-9154980D01*
X6776840Y-9358980D02*
X6776840Y-9458980D01*
X6726840Y-9408980D02*
X6826840Y-9408980D01*
X6776840Y-9612980D02*
X6776840Y-9712980D01*
X6726840Y-9662980D02*
X6826840Y-9662980D01*
X6776840Y-9866980D02*
X6776840Y-9966980D01*
X6726840Y-9916980D02*
X6826840Y-9916980D01*
X6776840Y-10120980D02*
X6776840Y-10220980D01*
X6726840Y-10170980D02*
X6826840Y-10170980D01*
X6776840Y-10374980D02*
X6776840Y-10474980D01*
X6726840Y-10424980D02*
X6826840Y-10424980D01*
X6776840Y-10628980D02*
X6776840Y-10728980D01*
X6726840Y-10678980D02*
X6826840Y-10678980D01*
X13300000Y-9416500D02*
X13300000Y-9516500D01*
X13250000Y-9466500D02*
X13350000Y-9466500D01*
X13300000Y-9670500D02*
X13300000Y-9770500D01*
X13250000Y-9720500D02*
X13350000Y-9720500D01*
X13300000Y-9924500D02*
X13300000Y-10024500D01*
X13250000Y-9974500D02*
X13350000Y-9974500D01*
X13300000Y-10178500D02*
X13300000Y-10278500D01*
X13250000Y-10228500D02*
X13350000Y-10228500D01*
X13300000Y-10432500D02*
X13300000Y-10532500D01*
X13250000Y-10482500D02*
X13350000Y-10482500D01*
D10*
X4450777Y-16121484D02*
X4450777Y-15921484D01*
X4450777Y-15921484D02*
X4498396Y-15921484D01*
X4498396Y-15921484D02*
X4526967Y-15931008D01*
X4526967Y-15931008D02*
X4546015Y-15950055D01*
X4546015Y-15950055D02*
X4555539Y-15969103D01*
X4555539Y-15969103D02*
X4565063Y-16007198D01*
X4565063Y-16007198D02*
X4565063Y-16035769D01*
X4565063Y-16035769D02*
X4555539Y-16073865D01*
X4555539Y-16073865D02*
X4546015Y-16092912D01*
X4546015Y-16092912D02*
X4526967Y-16111960D01*
X4526967Y-16111960D02*
X4498396Y-16121484D01*
X4498396Y-16121484D02*
X4450777Y-16121484D01*
X4650777Y-16121484D02*
X4650777Y-15988150D01*
X4650777Y-16026246D02*
X4660301Y-16007198D01*
X4660301Y-16007198D02*
X4669824Y-15997674D01*
X4669824Y-15997674D02*
X4688872Y-15988150D01*
X4688872Y-15988150D02*
X4707920Y-15988150D01*
X4774586Y-16121484D02*
X4774586Y-15988150D01*
X4774586Y-15921484D02*
X4765063Y-15931008D01*
X4765063Y-15931008D02*
X4774586Y-15940531D01*
X4774586Y-15940531D02*
X4784110Y-15931008D01*
X4784110Y-15931008D02*
X4774586Y-15921484D01*
X4774586Y-15921484D02*
X4774586Y-15940531D01*
X4898396Y-16121484D02*
X4879348Y-16111960D01*
X4879348Y-16111960D02*
X4869824Y-16092912D01*
X4869824Y-16092912D02*
X4869824Y-15921484D01*
X5003158Y-16121484D02*
X4984110Y-16111960D01*
X4984110Y-16111960D02*
X4974586Y-16092912D01*
X4974586Y-16092912D02*
X4974586Y-15921484D01*
X5231729Y-16121484D02*
X5231729Y-15921484D01*
X5231729Y-15921484D02*
X5298396Y-16064341D01*
X5298396Y-16064341D02*
X5365063Y-15921484D01*
X5365063Y-15921484D02*
X5365063Y-16121484D01*
X5546015Y-16121484D02*
X5546015Y-16016722D01*
X5546015Y-16016722D02*
X5536491Y-15997674D01*
X5536491Y-15997674D02*
X5517444Y-15988150D01*
X5517444Y-15988150D02*
X5479348Y-15988150D01*
X5479348Y-15988150D02*
X5460301Y-15997674D01*
X5546015Y-16111960D02*
X5526967Y-16121484D01*
X5526967Y-16121484D02*
X5479348Y-16121484D01*
X5479348Y-16121484D02*
X5460301Y-16111960D01*
X5460301Y-16111960D02*
X5450777Y-16092912D01*
X5450777Y-16092912D02*
X5450777Y-16073865D01*
X5450777Y-16073865D02*
X5460301Y-16054817D01*
X5460301Y-16054817D02*
X5479348Y-16045293D01*
X5479348Y-16045293D02*
X5526967Y-16045293D01*
X5526967Y-16045293D02*
X5546015Y-16035769D01*
X5641253Y-15988150D02*
X5641253Y-16188150D01*
X5641253Y-15997674D02*
X5660301Y-15988150D01*
X5660301Y-15988150D02*
X5698396Y-15988150D01*
X5698396Y-15988150D02*
X5717443Y-15997674D01*
X5717443Y-15997674D02*
X5726967Y-16007198D01*
X5726967Y-16007198D02*
X5736491Y-16026246D01*
X5736491Y-16026246D02*
X5736491Y-16083388D01*
X5736491Y-16083388D02*
X5726967Y-16102436D01*
X5726967Y-16102436D02*
X5717443Y-16111960D01*
X5717443Y-16111960D02*
X5698396Y-16121484D01*
X5698396Y-16121484D02*
X5660301Y-16121484D01*
X5660301Y-16121484D02*
X5641253Y-16111960D01*
X5822205Y-16102436D02*
X5831729Y-16111960D01*
X5831729Y-16111960D02*
X5822205Y-16121484D01*
X5822205Y-16121484D02*
X5812682Y-16111960D01*
X5812682Y-16111960D02*
X5822205Y-16102436D01*
X5822205Y-16102436D02*
X5822205Y-16121484D01*
X5822205Y-15997674D02*
X5831729Y-16007198D01*
X5831729Y-16007198D02*
X5822205Y-16016722D01*
X5822205Y-16016722D02*
X5812682Y-16007198D01*
X5812682Y-16007198D02*
X5822205Y-15997674D01*
X5822205Y-15997674D02*
X5822205Y-16016722D01*
D11*
X4160000Y-16435000D02*
X4190000Y-16465000D01*
X4190000Y-16435000D02*
X4160000Y-16465000D01*
D10*
X4488872Y-16341484D02*
X4507920Y-16341484D01*
X4507920Y-16341484D02*
X4526967Y-16351008D01*
X4526967Y-16351008D02*
X4536491Y-16360531D01*
X4536491Y-16360531D02*
X4546015Y-16379579D01*
X4546015Y-16379579D02*
X4555539Y-16417674D01*
X4555539Y-16417674D02*
X4555539Y-16465293D01*
X4555539Y-16465293D02*
X4546015Y-16503388D01*
X4546015Y-16503388D02*
X4536491Y-16522436D01*
X4536491Y-16522436D02*
X4526967Y-16531960D01*
X4526967Y-16531960D02*
X4507920Y-16541484D01*
X4507920Y-16541484D02*
X4488872Y-16541484D01*
X4488872Y-16541484D02*
X4469824Y-16531960D01*
X4469824Y-16531960D02*
X4460301Y-16522436D01*
X4460301Y-16522436D02*
X4450777Y-16503388D01*
X4450777Y-16503388D02*
X4441253Y-16465293D01*
X4441253Y-16465293D02*
X4441253Y-16417674D01*
X4441253Y-16417674D02*
X4450777Y-16379579D01*
X4450777Y-16379579D02*
X4460301Y-16360531D01*
X4460301Y-16360531D02*
X4469824Y-16351008D01*
X4469824Y-16351008D02*
X4488872Y-16341484D01*
X4641253Y-16522436D02*
X4650777Y-16531960D01*
X4650777Y-16531960D02*
X4641253Y-16541484D01*
X4641253Y-16541484D02*
X4631729Y-16531960D01*
X4631729Y-16531960D02*
X4641253Y-16522436D01*
X4641253Y-16522436D02*
X4641253Y-16541484D01*
X4717444Y-16341484D02*
X4841253Y-16341484D01*
X4841253Y-16341484D02*
X4774586Y-16417674D01*
X4774586Y-16417674D02*
X4803158Y-16417674D01*
X4803158Y-16417674D02*
X4822205Y-16427198D01*
X4822205Y-16427198D02*
X4831729Y-16436722D01*
X4831729Y-16436722D02*
X4841253Y-16455769D01*
X4841253Y-16455769D02*
X4841253Y-16503388D01*
X4841253Y-16503388D02*
X4831729Y-16522436D01*
X4831729Y-16522436D02*
X4822205Y-16531960D01*
X4822205Y-16531960D02*
X4803158Y-16541484D01*
X4803158Y-16541484D02*
X4746015Y-16541484D01*
X4746015Y-16541484D02*
X4726967Y-16531960D01*
X4726967Y-16531960D02*
X4717444Y-16522436D01*
X4965063Y-16341484D02*
X4984110Y-16341484D01*
X4984110Y-16341484D02*
X5003158Y-16351008D01*
X5003158Y-16351008D02*
X5012682Y-16360531D01*
X5012682Y-16360531D02*
X5022205Y-16379579D01*
X5022205Y-16379579D02*
X5031729Y-16417674D01*
X5031729Y-16417674D02*
X5031729Y-16465293D01*
X5031729Y-16465293D02*
X5022205Y-16503388D01*
X5022205Y-16503388D02*
X5012682Y-16522436D01*
X5012682Y-16522436D02*
X5003158Y-16531960D01*
X5003158Y-16531960D02*
X4984110Y-16541484D01*
X4984110Y-16541484D02*
X4965063Y-16541484D01*
X4965063Y-16541484D02*
X4946015Y-16531960D01*
X4946015Y-16531960D02*
X4936491Y-16522436D01*
X4936491Y-16522436D02*
X4926967Y-16503388D01*
X4926967Y-16503388D02*
X4917444Y-16465293D01*
X4917444Y-16465293D02*
X4917444Y-16417674D01*
X4917444Y-16417674D02*
X4926967Y-16379579D01*
X4926967Y-16379579D02*
X4936491Y-16360531D01*
X4936491Y-16360531D02*
X4946015Y-16351008D01*
X4946015Y-16351008D02*
X4965063Y-16341484D01*
X5155539Y-16341484D02*
X5174586Y-16341484D01*
X5174586Y-16341484D02*
X5193634Y-16351008D01*
X5193634Y-16351008D02*
X5203158Y-16360531D01*
X5203158Y-16360531D02*
X5212682Y-16379579D01*
X5212682Y-16379579D02*
X5222205Y-16417674D01*
X5222205Y-16417674D02*
X5222205Y-16465293D01*
X5222205Y-16465293D02*
X5212682Y-16503388D01*
X5212682Y-16503388D02*
X5203158Y-16522436D01*
X5203158Y-16522436D02*
X5193634Y-16531960D01*
X5193634Y-16531960D02*
X5174586Y-16541484D01*
X5174586Y-16541484D02*
X5155539Y-16541484D01*
X5155539Y-16541484D02*
X5136491Y-16531960D01*
X5136491Y-16531960D02*
X5126967Y-16522436D01*
X5126967Y-16522436D02*
X5117444Y-16503388D01*
X5117444Y-16503388D02*
X5107920Y-16465293D01*
X5107920Y-16465293D02*
X5107920Y-16417674D01*
X5107920Y-16417674D02*
X5117444Y-16379579D01*
X5117444Y-16379579D02*
X5126967Y-16360531D01*
X5126967Y-16360531D02*
X5136491Y-16351008D01*
X5136491Y-16351008D02*
X5155539Y-16341484D01*
X5307920Y-16541484D02*
X5307920Y-16408150D01*
X5307920Y-16427198D02*
X5317444Y-16417674D01*
X5317444Y-16417674D02*
X5336491Y-16408150D01*
X5336491Y-16408150D02*
X5365063Y-16408150D01*
X5365063Y-16408150D02*
X5384110Y-16417674D01*
X5384110Y-16417674D02*
X5393634Y-16436722D01*
X5393634Y-16436722D02*
X5393634Y-16541484D01*
X5393634Y-16436722D02*
X5403158Y-16417674D01*
X5403158Y-16417674D02*
X5422205Y-16408150D01*
X5422205Y-16408150D02*
X5450777Y-16408150D01*
X5450777Y-16408150D02*
X5469825Y-16417674D01*
X5469825Y-16417674D02*
X5479348Y-16436722D01*
X5479348Y-16436722D02*
X5479348Y-16541484D01*
X5574586Y-16541484D02*
X5574586Y-16408150D01*
X5574586Y-16427198D02*
X5584110Y-16417674D01*
X5584110Y-16417674D02*
X5603158Y-16408150D01*
X5603158Y-16408150D02*
X5631729Y-16408150D01*
X5631729Y-16408150D02*
X5650777Y-16417674D01*
X5650777Y-16417674D02*
X5660301Y-16436722D01*
X5660301Y-16436722D02*
X5660301Y-16541484D01*
X5660301Y-16436722D02*
X5669824Y-16417674D01*
X5669824Y-16417674D02*
X5688872Y-16408150D01*
X5688872Y-16408150D02*
X5717443Y-16408150D01*
X5717443Y-16408150D02*
X5736491Y-16417674D01*
X5736491Y-16417674D02*
X5746015Y-16436722D01*
X5746015Y-16436722D02*
X5746015Y-16541484D01*
X6136491Y-16331960D02*
X5965063Y-16589103D01*
X6393634Y-16341484D02*
X6412682Y-16341484D01*
X6412682Y-16341484D02*
X6431729Y-16351008D01*
X6431729Y-16351008D02*
X6441253Y-16360531D01*
X6441253Y-16360531D02*
X6450777Y-16379579D01*
X6450777Y-16379579D02*
X6460301Y-16417674D01*
X6460301Y-16417674D02*
X6460301Y-16465293D01*
X6460301Y-16465293D02*
X6450777Y-16503388D01*
X6450777Y-16503388D02*
X6441253Y-16522436D01*
X6441253Y-16522436D02*
X6431729Y-16531960D01*
X6431729Y-16531960D02*
X6412682Y-16541484D01*
X6412682Y-16541484D02*
X6393634Y-16541484D01*
X6393634Y-16541484D02*
X6374586Y-16531960D01*
X6374586Y-16531960D02*
X6365063Y-16522436D01*
X6365063Y-16522436D02*
X6355539Y-16503388D01*
X6355539Y-16503388D02*
X6346015Y-16465293D01*
X6346015Y-16465293D02*
X6346015Y-16417674D01*
X6346015Y-16417674D02*
X6355539Y-16379579D01*
X6355539Y-16379579D02*
X6365063Y-16360531D01*
X6365063Y-16360531D02*
X6374586Y-16351008D01*
X6374586Y-16351008D02*
X6393634Y-16341484D01*
X6546015Y-16522436D02*
X6555539Y-16531960D01*
X6555539Y-16531960D02*
X6546015Y-16541484D01*
X6546015Y-16541484D02*
X6536491Y-16531960D01*
X6536491Y-16531960D02*
X6546015Y-16522436D01*
X6546015Y-16522436D02*
X6546015Y-16541484D01*
X6679348Y-16341484D02*
X6698396Y-16341484D01*
X6698396Y-16341484D02*
X6717444Y-16351008D01*
X6717444Y-16351008D02*
X6726967Y-16360531D01*
X6726967Y-16360531D02*
X6736491Y-16379579D01*
X6736491Y-16379579D02*
X6746015Y-16417674D01*
X6746015Y-16417674D02*
X6746015Y-16465293D01*
X6746015Y-16465293D02*
X6736491Y-16503388D01*
X6736491Y-16503388D02*
X6726967Y-16522436D01*
X6726967Y-16522436D02*
X6717444Y-16531960D01*
X6717444Y-16531960D02*
X6698396Y-16541484D01*
X6698396Y-16541484D02*
X6679348Y-16541484D01*
X6679348Y-16541484D02*
X6660301Y-16531960D01*
X6660301Y-16531960D02*
X6650777Y-16522436D01*
X6650777Y-16522436D02*
X6641253Y-16503388D01*
X6641253Y-16503388D02*
X6631729Y-16465293D01*
X6631729Y-16465293D02*
X6631729Y-16417674D01*
X6631729Y-16417674D02*
X6641253Y-16379579D01*
X6641253Y-16379579D02*
X6650777Y-16360531D01*
X6650777Y-16360531D02*
X6660301Y-16351008D01*
X6660301Y-16351008D02*
X6679348Y-16341484D01*
X6936491Y-16541484D02*
X6822206Y-16541484D01*
X6879348Y-16541484D02*
X6879348Y-16341484D01*
X6879348Y-16341484D02*
X6860301Y-16370055D01*
X6860301Y-16370055D02*
X6841253Y-16389103D01*
X6841253Y-16389103D02*
X6822206Y-16398627D01*
X7126967Y-16541484D02*
X7012682Y-16541484D01*
X7069825Y-16541484D02*
X7069825Y-16341484D01*
X7069825Y-16341484D02*
X7050777Y-16370055D01*
X7050777Y-16370055D02*
X7031729Y-16389103D01*
X7031729Y-16389103D02*
X7012682Y-16398627D01*
X7241253Y-16427198D02*
X7222206Y-16417674D01*
X7222206Y-16417674D02*
X7212682Y-16408150D01*
X7212682Y-16408150D02*
X7203158Y-16389103D01*
X7203158Y-16389103D02*
X7203158Y-16379579D01*
X7203158Y-16379579D02*
X7212682Y-16360531D01*
X7212682Y-16360531D02*
X7222206Y-16351008D01*
X7222206Y-16351008D02*
X7241253Y-16341484D01*
X7241253Y-16341484D02*
X7279348Y-16341484D01*
X7279348Y-16341484D02*
X7298396Y-16351008D01*
X7298396Y-16351008D02*
X7307920Y-16360531D01*
X7307920Y-16360531D02*
X7317444Y-16379579D01*
X7317444Y-16379579D02*
X7317444Y-16389103D01*
X7317444Y-16389103D02*
X7307920Y-16408150D01*
X7307920Y-16408150D02*
X7298396Y-16417674D01*
X7298396Y-16417674D02*
X7279348Y-16427198D01*
X7279348Y-16427198D02*
X7241253Y-16427198D01*
X7241253Y-16427198D02*
X7222206Y-16436722D01*
X7222206Y-16436722D02*
X7212682Y-16446246D01*
X7212682Y-16446246D02*
X7203158Y-16465293D01*
X7203158Y-16465293D02*
X7203158Y-16503388D01*
X7203158Y-16503388D02*
X7212682Y-16522436D01*
X7212682Y-16522436D02*
X7222206Y-16531960D01*
X7222206Y-16531960D02*
X7241253Y-16541484D01*
X7241253Y-16541484D02*
X7279348Y-16541484D01*
X7279348Y-16541484D02*
X7298396Y-16531960D01*
X7298396Y-16531960D02*
X7307920Y-16522436D01*
X7307920Y-16522436D02*
X7317444Y-16503388D01*
X7317444Y-16503388D02*
X7317444Y-16465293D01*
X7317444Y-16465293D02*
X7307920Y-16446246D01*
X7307920Y-16446246D02*
X7298396Y-16436722D01*
X7298396Y-16436722D02*
X7279348Y-16427198D01*
X7393634Y-16341484D02*
X7393634Y-16379579D01*
X7469825Y-16341484D02*
X7469825Y-16379579D01*
X7765063Y-16617674D02*
X7755539Y-16608150D01*
X7755539Y-16608150D02*
X7736491Y-16579579D01*
X7736491Y-16579579D02*
X7726968Y-16560531D01*
X7726968Y-16560531D02*
X7717444Y-16531960D01*
X7717444Y-16531960D02*
X7707920Y-16484341D01*
X7707920Y-16484341D02*
X7707920Y-16446246D01*
X7707920Y-16446246D02*
X7717444Y-16398627D01*
X7717444Y-16398627D02*
X7726968Y-16370055D01*
X7726968Y-16370055D02*
X7736491Y-16351008D01*
X7736491Y-16351008D02*
X7755539Y-16322436D01*
X7755539Y-16322436D02*
X7765063Y-16312912D01*
X7946015Y-16541484D02*
X7831729Y-16541484D01*
X7888872Y-16541484D02*
X7888872Y-16341484D01*
X7888872Y-16341484D02*
X7869825Y-16370055D01*
X7869825Y-16370055D02*
X7850777Y-16389103D01*
X7850777Y-16389103D02*
X7831729Y-16398627D01*
X8126968Y-16341484D02*
X8031729Y-16341484D01*
X8031729Y-16341484D02*
X8022206Y-16436722D01*
X8022206Y-16436722D02*
X8031729Y-16427198D01*
X8031729Y-16427198D02*
X8050777Y-16417674D01*
X8050777Y-16417674D02*
X8098396Y-16417674D01*
X8098396Y-16417674D02*
X8117444Y-16427198D01*
X8117444Y-16427198D02*
X8126968Y-16436722D01*
X8126968Y-16436722D02*
X8136491Y-16455769D01*
X8136491Y-16455769D02*
X8136491Y-16503388D01*
X8136491Y-16503388D02*
X8126968Y-16522436D01*
X8126968Y-16522436D02*
X8117444Y-16531960D01*
X8117444Y-16531960D02*
X8098396Y-16541484D01*
X8098396Y-16541484D02*
X8050777Y-16541484D01*
X8050777Y-16541484D02*
X8031729Y-16531960D01*
X8031729Y-16531960D02*
X8022206Y-16522436D01*
X8307920Y-16408150D02*
X8307920Y-16541484D01*
X8260301Y-16331960D02*
X8212682Y-16474817D01*
X8212682Y-16474817D02*
X8336491Y-16474817D01*
X8565063Y-16541484D02*
X8565063Y-16341484D01*
X8650777Y-16541484D02*
X8650777Y-16436722D01*
X8650777Y-16436722D02*
X8641253Y-16417674D01*
X8641253Y-16417674D02*
X8622206Y-16408150D01*
X8622206Y-16408150D02*
X8593634Y-16408150D01*
X8593634Y-16408150D02*
X8574587Y-16417674D01*
X8574587Y-16417674D02*
X8565063Y-16427198D01*
X8774587Y-16541484D02*
X8755539Y-16531960D01*
X8755539Y-16531960D02*
X8746015Y-16522436D01*
X8746015Y-16522436D02*
X8736492Y-16503388D01*
X8736492Y-16503388D02*
X8736492Y-16446246D01*
X8736492Y-16446246D02*
X8746015Y-16427198D01*
X8746015Y-16427198D02*
X8755539Y-16417674D01*
X8755539Y-16417674D02*
X8774587Y-16408150D01*
X8774587Y-16408150D02*
X8803158Y-16408150D01*
X8803158Y-16408150D02*
X8822206Y-16417674D01*
X8822206Y-16417674D02*
X8831730Y-16427198D01*
X8831730Y-16427198D02*
X8841253Y-16446246D01*
X8841253Y-16446246D02*
X8841253Y-16503388D01*
X8841253Y-16503388D02*
X8831730Y-16522436D01*
X8831730Y-16522436D02*
X8822206Y-16531960D01*
X8822206Y-16531960D02*
X8803158Y-16541484D01*
X8803158Y-16541484D02*
X8774587Y-16541484D01*
X8955539Y-16541484D02*
X8936492Y-16531960D01*
X8936492Y-16531960D02*
X8926968Y-16512912D01*
X8926968Y-16512912D02*
X8926968Y-16341484D01*
X9107920Y-16531960D02*
X9088873Y-16541484D01*
X9088873Y-16541484D02*
X9050777Y-16541484D01*
X9050777Y-16541484D02*
X9031730Y-16531960D01*
X9031730Y-16531960D02*
X9022206Y-16512912D01*
X9022206Y-16512912D02*
X9022206Y-16436722D01*
X9022206Y-16436722D02*
X9031730Y-16417674D01*
X9031730Y-16417674D02*
X9050777Y-16408150D01*
X9050777Y-16408150D02*
X9088873Y-16408150D01*
X9088873Y-16408150D02*
X9107920Y-16417674D01*
X9107920Y-16417674D02*
X9117444Y-16436722D01*
X9117444Y-16436722D02*
X9117444Y-16455769D01*
X9117444Y-16455769D02*
X9022206Y-16474817D01*
X9193634Y-16531960D02*
X9212682Y-16541484D01*
X9212682Y-16541484D02*
X9250777Y-16541484D01*
X9250777Y-16541484D02*
X9269825Y-16531960D01*
X9269825Y-16531960D02*
X9279349Y-16512912D01*
X9279349Y-16512912D02*
X9279349Y-16503388D01*
X9279349Y-16503388D02*
X9269825Y-16484341D01*
X9269825Y-16484341D02*
X9250777Y-16474817D01*
X9250777Y-16474817D02*
X9222206Y-16474817D01*
X9222206Y-16474817D02*
X9203158Y-16465293D01*
X9203158Y-16465293D02*
X9193634Y-16446246D01*
X9193634Y-16446246D02*
X9193634Y-16436722D01*
X9193634Y-16436722D02*
X9203158Y-16417674D01*
X9203158Y-16417674D02*
X9222206Y-16408150D01*
X9222206Y-16408150D02*
X9250777Y-16408150D01*
X9250777Y-16408150D02*
X9269825Y-16417674D01*
X9346015Y-16617674D02*
X9355539Y-16608150D01*
X9355539Y-16608150D02*
X9374587Y-16579579D01*
X9374587Y-16579579D02*
X9384111Y-16560531D01*
X9384111Y-16560531D02*
X9393634Y-16531960D01*
X9393634Y-16531960D02*
X9403158Y-16484341D01*
X9403158Y-16484341D02*
X9403158Y-16446246D01*
X9403158Y-16446246D02*
X9393634Y-16398627D01*
X9393634Y-16398627D02*
X9384111Y-16370055D01*
X9384111Y-16370055D02*
X9374587Y-16351008D01*
X9374587Y-16351008D02*
X9355539Y-16322436D01*
X9355539Y-16322436D02*
X9346015Y-16312912D01*
D11*
X4190000Y-16714000D02*
G75*
G03*
X4100000Y-16714000I-45000J0D01*
G01*
X4100000Y-16714000D02*
G75*
G03*
X4190000Y-16714000I45000J0D01*
G01*
D10*
X4488872Y-16605484D02*
X4507920Y-16605484D01*
X4507920Y-16605484D02*
X4526967Y-16615008D01*
X4526967Y-16615008D02*
X4536491Y-16624531D01*
X4536491Y-16624531D02*
X4546015Y-16643579D01*
X4546015Y-16643579D02*
X4555539Y-16681674D01*
X4555539Y-16681674D02*
X4555539Y-16729293D01*
X4555539Y-16729293D02*
X4546015Y-16767388D01*
X4546015Y-16767388D02*
X4536491Y-16786436D01*
X4536491Y-16786436D02*
X4526967Y-16795960D01*
X4526967Y-16795960D02*
X4507920Y-16805484D01*
X4507920Y-16805484D02*
X4488872Y-16805484D01*
X4488872Y-16805484D02*
X4469824Y-16795960D01*
X4469824Y-16795960D02*
X4460301Y-16786436D01*
X4460301Y-16786436D02*
X4450777Y-16767388D01*
X4450777Y-16767388D02*
X4441253Y-16729293D01*
X4441253Y-16729293D02*
X4441253Y-16681674D01*
X4441253Y-16681674D02*
X4450777Y-16643579D01*
X4450777Y-16643579D02*
X4460301Y-16624531D01*
X4460301Y-16624531D02*
X4469824Y-16615008D01*
X4469824Y-16615008D02*
X4488872Y-16605484D01*
X4641253Y-16786436D02*
X4650777Y-16795960D01*
X4650777Y-16795960D02*
X4641253Y-16805484D01*
X4641253Y-16805484D02*
X4631729Y-16795960D01*
X4631729Y-16795960D02*
X4641253Y-16786436D01*
X4641253Y-16786436D02*
X4641253Y-16805484D01*
X4746015Y-16805484D02*
X4784110Y-16805484D01*
X4784110Y-16805484D02*
X4803158Y-16795960D01*
X4803158Y-16795960D02*
X4812682Y-16786436D01*
X4812682Y-16786436D02*
X4831729Y-16757865D01*
X4831729Y-16757865D02*
X4841253Y-16719769D01*
X4841253Y-16719769D02*
X4841253Y-16643579D01*
X4841253Y-16643579D02*
X4831729Y-16624531D01*
X4831729Y-16624531D02*
X4822205Y-16615008D01*
X4822205Y-16615008D02*
X4803158Y-16605484D01*
X4803158Y-16605484D02*
X4765063Y-16605484D01*
X4765063Y-16605484D02*
X4746015Y-16615008D01*
X4746015Y-16615008D02*
X4736491Y-16624531D01*
X4736491Y-16624531D02*
X4726967Y-16643579D01*
X4726967Y-16643579D02*
X4726967Y-16691198D01*
X4726967Y-16691198D02*
X4736491Y-16710246D01*
X4736491Y-16710246D02*
X4746015Y-16719769D01*
X4746015Y-16719769D02*
X4765063Y-16729293D01*
X4765063Y-16729293D02*
X4803158Y-16729293D01*
X4803158Y-16729293D02*
X4822205Y-16719769D01*
X4822205Y-16719769D02*
X4831729Y-16710246D01*
X4831729Y-16710246D02*
X4841253Y-16691198D01*
X4965063Y-16605484D02*
X4984110Y-16605484D01*
X4984110Y-16605484D02*
X5003158Y-16615008D01*
X5003158Y-16615008D02*
X5012682Y-16624531D01*
X5012682Y-16624531D02*
X5022205Y-16643579D01*
X5022205Y-16643579D02*
X5031729Y-16681674D01*
X5031729Y-16681674D02*
X5031729Y-16729293D01*
X5031729Y-16729293D02*
X5022205Y-16767388D01*
X5022205Y-16767388D02*
X5012682Y-16786436D01*
X5012682Y-16786436D02*
X5003158Y-16795960D01*
X5003158Y-16795960D02*
X4984110Y-16805484D01*
X4984110Y-16805484D02*
X4965063Y-16805484D01*
X4965063Y-16805484D02*
X4946015Y-16795960D01*
X4946015Y-16795960D02*
X4936491Y-16786436D01*
X4936491Y-16786436D02*
X4926967Y-16767388D01*
X4926967Y-16767388D02*
X4917444Y-16729293D01*
X4917444Y-16729293D02*
X4917444Y-16681674D01*
X4917444Y-16681674D02*
X4926967Y-16643579D01*
X4926967Y-16643579D02*
X4936491Y-16624531D01*
X4936491Y-16624531D02*
X4946015Y-16615008D01*
X4946015Y-16615008D02*
X4965063Y-16605484D01*
X5155539Y-16605484D02*
X5174586Y-16605484D01*
X5174586Y-16605484D02*
X5193634Y-16615008D01*
X5193634Y-16615008D02*
X5203158Y-16624531D01*
X5203158Y-16624531D02*
X5212682Y-16643579D01*
X5212682Y-16643579D02*
X5222205Y-16681674D01*
X5222205Y-16681674D02*
X5222205Y-16729293D01*
X5222205Y-16729293D02*
X5212682Y-16767388D01*
X5212682Y-16767388D02*
X5203158Y-16786436D01*
X5203158Y-16786436D02*
X5193634Y-16795960D01*
X5193634Y-16795960D02*
X5174586Y-16805484D01*
X5174586Y-16805484D02*
X5155539Y-16805484D01*
X5155539Y-16805484D02*
X5136491Y-16795960D01*
X5136491Y-16795960D02*
X5126967Y-16786436D01*
X5126967Y-16786436D02*
X5117444Y-16767388D01*
X5117444Y-16767388D02*
X5107920Y-16729293D01*
X5107920Y-16729293D02*
X5107920Y-16681674D01*
X5107920Y-16681674D02*
X5117444Y-16643579D01*
X5117444Y-16643579D02*
X5126967Y-16624531D01*
X5126967Y-16624531D02*
X5136491Y-16615008D01*
X5136491Y-16615008D02*
X5155539Y-16605484D01*
X5307920Y-16805484D02*
X5307920Y-16672150D01*
X5307920Y-16691198D02*
X5317444Y-16681674D01*
X5317444Y-16681674D02*
X5336491Y-16672150D01*
X5336491Y-16672150D02*
X5365063Y-16672150D01*
X5365063Y-16672150D02*
X5384110Y-16681674D01*
X5384110Y-16681674D02*
X5393634Y-16700722D01*
X5393634Y-16700722D02*
X5393634Y-16805484D01*
X5393634Y-16700722D02*
X5403158Y-16681674D01*
X5403158Y-16681674D02*
X5422205Y-16672150D01*
X5422205Y-16672150D02*
X5450777Y-16672150D01*
X5450777Y-16672150D02*
X5469825Y-16681674D01*
X5469825Y-16681674D02*
X5479348Y-16700722D01*
X5479348Y-16700722D02*
X5479348Y-16805484D01*
X5574586Y-16805484D02*
X5574586Y-16672150D01*
X5574586Y-16691198D02*
X5584110Y-16681674D01*
X5584110Y-16681674D02*
X5603158Y-16672150D01*
X5603158Y-16672150D02*
X5631729Y-16672150D01*
X5631729Y-16672150D02*
X5650777Y-16681674D01*
X5650777Y-16681674D02*
X5660301Y-16700722D01*
X5660301Y-16700722D02*
X5660301Y-16805484D01*
X5660301Y-16700722D02*
X5669824Y-16681674D01*
X5669824Y-16681674D02*
X5688872Y-16672150D01*
X5688872Y-16672150D02*
X5717443Y-16672150D01*
X5717443Y-16672150D02*
X5736491Y-16681674D01*
X5736491Y-16681674D02*
X5746015Y-16700722D01*
X5746015Y-16700722D02*
X5746015Y-16805484D01*
X6136491Y-16595960D02*
X5965063Y-16853103D01*
X6393634Y-16605484D02*
X6412682Y-16605484D01*
X6412682Y-16605484D02*
X6431729Y-16615008D01*
X6431729Y-16615008D02*
X6441253Y-16624531D01*
X6441253Y-16624531D02*
X6450777Y-16643579D01*
X6450777Y-16643579D02*
X6460301Y-16681674D01*
X6460301Y-16681674D02*
X6460301Y-16729293D01*
X6460301Y-16729293D02*
X6450777Y-16767388D01*
X6450777Y-16767388D02*
X6441253Y-16786436D01*
X6441253Y-16786436D02*
X6431729Y-16795960D01*
X6431729Y-16795960D02*
X6412682Y-16805484D01*
X6412682Y-16805484D02*
X6393634Y-16805484D01*
X6393634Y-16805484D02*
X6374586Y-16795960D01*
X6374586Y-16795960D02*
X6365063Y-16786436D01*
X6365063Y-16786436D02*
X6355539Y-16767388D01*
X6355539Y-16767388D02*
X6346015Y-16729293D01*
X6346015Y-16729293D02*
X6346015Y-16681674D01*
X6346015Y-16681674D02*
X6355539Y-16643579D01*
X6355539Y-16643579D02*
X6365063Y-16624531D01*
X6365063Y-16624531D02*
X6374586Y-16615008D01*
X6374586Y-16615008D02*
X6393634Y-16605484D01*
X6546015Y-16786436D02*
X6555539Y-16795960D01*
X6555539Y-16795960D02*
X6546015Y-16805484D01*
X6546015Y-16805484D02*
X6536491Y-16795960D01*
X6536491Y-16795960D02*
X6546015Y-16786436D01*
X6546015Y-16786436D02*
X6546015Y-16805484D01*
X6679348Y-16605484D02*
X6698396Y-16605484D01*
X6698396Y-16605484D02*
X6717444Y-16615008D01*
X6717444Y-16615008D02*
X6726967Y-16624531D01*
X6726967Y-16624531D02*
X6736491Y-16643579D01*
X6736491Y-16643579D02*
X6746015Y-16681674D01*
X6746015Y-16681674D02*
X6746015Y-16729293D01*
X6746015Y-16729293D02*
X6736491Y-16767388D01*
X6736491Y-16767388D02*
X6726967Y-16786436D01*
X6726967Y-16786436D02*
X6717444Y-16795960D01*
X6717444Y-16795960D02*
X6698396Y-16805484D01*
X6698396Y-16805484D02*
X6679348Y-16805484D01*
X6679348Y-16805484D02*
X6660301Y-16795960D01*
X6660301Y-16795960D02*
X6650777Y-16786436D01*
X6650777Y-16786436D02*
X6641253Y-16767388D01*
X6641253Y-16767388D02*
X6631729Y-16729293D01*
X6631729Y-16729293D02*
X6631729Y-16681674D01*
X6631729Y-16681674D02*
X6641253Y-16643579D01*
X6641253Y-16643579D02*
X6650777Y-16624531D01*
X6650777Y-16624531D02*
X6660301Y-16615008D01*
X6660301Y-16615008D02*
X6679348Y-16605484D01*
X6812682Y-16605484D02*
X6936491Y-16605484D01*
X6936491Y-16605484D02*
X6869825Y-16681674D01*
X6869825Y-16681674D02*
X6898396Y-16681674D01*
X6898396Y-16681674D02*
X6917444Y-16691198D01*
X6917444Y-16691198D02*
X6926967Y-16700722D01*
X6926967Y-16700722D02*
X6936491Y-16719769D01*
X6936491Y-16719769D02*
X6936491Y-16767388D01*
X6936491Y-16767388D02*
X6926967Y-16786436D01*
X6926967Y-16786436D02*
X6917444Y-16795960D01*
X6917444Y-16795960D02*
X6898396Y-16805484D01*
X6898396Y-16805484D02*
X6841253Y-16805484D01*
X6841253Y-16805484D02*
X6822206Y-16795960D01*
X6822206Y-16795960D02*
X6812682Y-16786436D01*
X7117444Y-16605484D02*
X7022206Y-16605484D01*
X7022206Y-16605484D02*
X7012682Y-16700722D01*
X7012682Y-16700722D02*
X7022206Y-16691198D01*
X7022206Y-16691198D02*
X7041253Y-16681674D01*
X7041253Y-16681674D02*
X7088872Y-16681674D01*
X7088872Y-16681674D02*
X7107920Y-16691198D01*
X7107920Y-16691198D02*
X7117444Y-16700722D01*
X7117444Y-16700722D02*
X7126967Y-16719769D01*
X7126967Y-16719769D02*
X7126967Y-16767388D01*
X7126967Y-16767388D02*
X7117444Y-16786436D01*
X7117444Y-16786436D02*
X7107920Y-16795960D01*
X7107920Y-16795960D02*
X7088872Y-16805484D01*
X7088872Y-16805484D02*
X7041253Y-16805484D01*
X7041253Y-16805484D02*
X7022206Y-16795960D01*
X7022206Y-16795960D02*
X7012682Y-16786436D01*
X7298396Y-16672150D02*
X7298396Y-16805484D01*
X7250777Y-16595960D02*
X7203158Y-16738817D01*
X7203158Y-16738817D02*
X7326967Y-16738817D01*
X7393634Y-16605484D02*
X7393634Y-16643579D01*
X7469825Y-16605484D02*
X7469825Y-16643579D01*
X7765063Y-16881674D02*
X7755539Y-16872150D01*
X7755539Y-16872150D02*
X7736491Y-16843579D01*
X7736491Y-16843579D02*
X7726968Y-16824531D01*
X7726968Y-16824531D02*
X7717444Y-16795960D01*
X7717444Y-16795960D02*
X7707920Y-16748341D01*
X7707920Y-16748341D02*
X7707920Y-16710246D01*
X7707920Y-16710246D02*
X7717444Y-16662627D01*
X7717444Y-16662627D02*
X7726968Y-16634055D01*
X7726968Y-16634055D02*
X7736491Y-16615008D01*
X7736491Y-16615008D02*
X7755539Y-16586436D01*
X7755539Y-16586436D02*
X7765063Y-16576912D01*
X7926968Y-16605484D02*
X7888872Y-16605484D01*
X7888872Y-16605484D02*
X7869825Y-16615008D01*
X7869825Y-16615008D02*
X7860301Y-16624531D01*
X7860301Y-16624531D02*
X7841253Y-16653103D01*
X7841253Y-16653103D02*
X7831729Y-16691198D01*
X7831729Y-16691198D02*
X7831729Y-16767388D01*
X7831729Y-16767388D02*
X7841253Y-16786436D01*
X7841253Y-16786436D02*
X7850777Y-16795960D01*
X7850777Y-16795960D02*
X7869825Y-16805484D01*
X7869825Y-16805484D02*
X7907920Y-16805484D01*
X7907920Y-16805484D02*
X7926968Y-16795960D01*
X7926968Y-16795960D02*
X7936491Y-16786436D01*
X7936491Y-16786436D02*
X7946015Y-16767388D01*
X7946015Y-16767388D02*
X7946015Y-16719769D01*
X7946015Y-16719769D02*
X7936491Y-16700722D01*
X7936491Y-16700722D02*
X7926968Y-16691198D01*
X7926968Y-16691198D02*
X7907920Y-16681674D01*
X7907920Y-16681674D02*
X7869825Y-16681674D01*
X7869825Y-16681674D02*
X7850777Y-16691198D01*
X7850777Y-16691198D02*
X7841253Y-16700722D01*
X7841253Y-16700722D02*
X7831729Y-16719769D01*
X8117444Y-16672150D02*
X8117444Y-16805484D01*
X8069825Y-16595960D02*
X8022206Y-16738817D01*
X8022206Y-16738817D02*
X8146015Y-16738817D01*
X8374587Y-16805484D02*
X8374587Y-16605484D01*
X8460301Y-16805484D02*
X8460301Y-16700722D01*
X8460301Y-16700722D02*
X8450777Y-16681674D01*
X8450777Y-16681674D02*
X8431730Y-16672150D01*
X8431730Y-16672150D02*
X8403158Y-16672150D01*
X8403158Y-16672150D02*
X8384110Y-16681674D01*
X8384110Y-16681674D02*
X8374587Y-16691198D01*
X8584111Y-16805484D02*
X8565063Y-16795960D01*
X8565063Y-16795960D02*
X8555539Y-16786436D01*
X8555539Y-16786436D02*
X8546015Y-16767388D01*
X8546015Y-16767388D02*
X8546015Y-16710246D01*
X8546015Y-16710246D02*
X8555539Y-16691198D01*
X8555539Y-16691198D02*
X8565063Y-16681674D01*
X8565063Y-16681674D02*
X8584111Y-16672150D01*
X8584111Y-16672150D02*
X8612682Y-16672150D01*
X8612682Y-16672150D02*
X8631730Y-16681674D01*
X8631730Y-16681674D02*
X8641253Y-16691198D01*
X8641253Y-16691198D02*
X8650777Y-16710246D01*
X8650777Y-16710246D02*
X8650777Y-16767388D01*
X8650777Y-16767388D02*
X8641253Y-16786436D01*
X8641253Y-16786436D02*
X8631730Y-16795960D01*
X8631730Y-16795960D02*
X8612682Y-16805484D01*
X8612682Y-16805484D02*
X8584111Y-16805484D01*
X8765063Y-16805484D02*
X8746015Y-16795960D01*
X8746015Y-16795960D02*
X8736492Y-16776912D01*
X8736492Y-16776912D02*
X8736492Y-16605484D01*
X8917444Y-16795960D02*
X8898396Y-16805484D01*
X8898396Y-16805484D02*
X8860301Y-16805484D01*
X8860301Y-16805484D02*
X8841253Y-16795960D01*
X8841253Y-16795960D02*
X8831730Y-16776912D01*
X8831730Y-16776912D02*
X8831730Y-16700722D01*
X8831730Y-16700722D02*
X8841253Y-16681674D01*
X8841253Y-16681674D02*
X8860301Y-16672150D01*
X8860301Y-16672150D02*
X8898396Y-16672150D01*
X8898396Y-16672150D02*
X8917444Y-16681674D01*
X8917444Y-16681674D02*
X8926968Y-16700722D01*
X8926968Y-16700722D02*
X8926968Y-16719769D01*
X8926968Y-16719769D02*
X8831730Y-16738817D01*
X9003158Y-16795960D02*
X9022206Y-16805484D01*
X9022206Y-16805484D02*
X9060301Y-16805484D01*
X9060301Y-16805484D02*
X9079349Y-16795960D01*
X9079349Y-16795960D02*
X9088873Y-16776912D01*
X9088873Y-16776912D02*
X9088873Y-16767388D01*
X9088873Y-16767388D02*
X9079349Y-16748341D01*
X9079349Y-16748341D02*
X9060301Y-16738817D01*
X9060301Y-16738817D02*
X9031730Y-16738817D01*
X9031730Y-16738817D02*
X9012682Y-16729293D01*
X9012682Y-16729293D02*
X9003158Y-16710246D01*
X9003158Y-16710246D02*
X9003158Y-16700722D01*
X9003158Y-16700722D02*
X9012682Y-16681674D01*
X9012682Y-16681674D02*
X9031730Y-16672150D01*
X9031730Y-16672150D02*
X9060301Y-16672150D01*
X9060301Y-16672150D02*
X9079349Y-16681674D01*
X9155539Y-16881674D02*
X9165063Y-16872150D01*
X9165063Y-16872150D02*
X9184111Y-16843579D01*
X9184111Y-16843579D02*
X9193634Y-16824531D01*
X9193634Y-16824531D02*
X9203158Y-16795960D01*
X9203158Y-16795960D02*
X9212682Y-16748341D01*
X9212682Y-16748341D02*
X9212682Y-16710246D01*
X9212682Y-16710246D02*
X9203158Y-16662627D01*
X9203158Y-16662627D02*
X9193634Y-16634055D01*
X9193634Y-16634055D02*
X9184111Y-16615008D01*
X9184111Y-16615008D02*
X9165063Y-16586436D01*
X9165063Y-16586436D02*
X9155539Y-16576912D01*
D11*
X4140000Y-16928000D02*
X4140000Y-17028000D01*
X4090000Y-16978000D02*
X4190000Y-16978000D01*
D10*
X4555539Y-17069484D02*
X4441253Y-17069484D01*
X4498396Y-17069484D02*
X4498396Y-16869484D01*
X4498396Y-16869484D02*
X4479348Y-16898055D01*
X4479348Y-16898055D02*
X4460301Y-16917103D01*
X4460301Y-16917103D02*
X4441253Y-16926627D01*
X4641253Y-17050436D02*
X4650777Y-17059960D01*
X4650777Y-17059960D02*
X4641253Y-17069484D01*
X4641253Y-17069484D02*
X4631729Y-17059960D01*
X4631729Y-17059960D02*
X4641253Y-17050436D01*
X4641253Y-17050436D02*
X4641253Y-17069484D01*
X4774586Y-16869484D02*
X4793634Y-16869484D01*
X4793634Y-16869484D02*
X4812682Y-16879008D01*
X4812682Y-16879008D02*
X4822205Y-16888531D01*
X4822205Y-16888531D02*
X4831729Y-16907579D01*
X4831729Y-16907579D02*
X4841253Y-16945674D01*
X4841253Y-16945674D02*
X4841253Y-16993293D01*
X4841253Y-16993293D02*
X4831729Y-17031389D01*
X4831729Y-17031389D02*
X4822205Y-17050436D01*
X4822205Y-17050436D02*
X4812682Y-17059960D01*
X4812682Y-17059960D02*
X4793634Y-17069484D01*
X4793634Y-17069484D02*
X4774586Y-17069484D01*
X4774586Y-17069484D02*
X4755539Y-17059960D01*
X4755539Y-17059960D02*
X4746015Y-17050436D01*
X4746015Y-17050436D02*
X4736491Y-17031389D01*
X4736491Y-17031389D02*
X4726967Y-16993293D01*
X4726967Y-16993293D02*
X4726967Y-16945674D01*
X4726967Y-16945674D02*
X4736491Y-16907579D01*
X4736491Y-16907579D02*
X4746015Y-16888531D01*
X4746015Y-16888531D02*
X4755539Y-16879008D01*
X4755539Y-16879008D02*
X4774586Y-16869484D01*
X4965063Y-16869484D02*
X4984110Y-16869484D01*
X4984110Y-16869484D02*
X5003158Y-16879008D01*
X5003158Y-16879008D02*
X5012682Y-16888531D01*
X5012682Y-16888531D02*
X5022205Y-16907579D01*
X5022205Y-16907579D02*
X5031729Y-16945674D01*
X5031729Y-16945674D02*
X5031729Y-16993293D01*
X5031729Y-16993293D02*
X5022205Y-17031389D01*
X5022205Y-17031389D02*
X5012682Y-17050436D01*
X5012682Y-17050436D02*
X5003158Y-17059960D01*
X5003158Y-17059960D02*
X4984110Y-17069484D01*
X4984110Y-17069484D02*
X4965063Y-17069484D01*
X4965063Y-17069484D02*
X4946015Y-17059960D01*
X4946015Y-17059960D02*
X4936491Y-17050436D01*
X4936491Y-17050436D02*
X4926967Y-17031389D01*
X4926967Y-17031389D02*
X4917444Y-16993293D01*
X4917444Y-16993293D02*
X4917444Y-16945674D01*
X4917444Y-16945674D02*
X4926967Y-16907579D01*
X4926967Y-16907579D02*
X4936491Y-16888531D01*
X4936491Y-16888531D02*
X4946015Y-16879008D01*
X4946015Y-16879008D02*
X4965063Y-16869484D01*
X5155539Y-16869484D02*
X5174586Y-16869484D01*
X5174586Y-16869484D02*
X5193634Y-16879008D01*
X5193634Y-16879008D02*
X5203158Y-16888531D01*
X5203158Y-16888531D02*
X5212682Y-16907579D01*
X5212682Y-16907579D02*
X5222205Y-16945674D01*
X5222205Y-16945674D02*
X5222205Y-16993293D01*
X5222205Y-16993293D02*
X5212682Y-17031389D01*
X5212682Y-17031389D02*
X5203158Y-17050436D01*
X5203158Y-17050436D02*
X5193634Y-17059960D01*
X5193634Y-17059960D02*
X5174586Y-17069484D01*
X5174586Y-17069484D02*
X5155539Y-17069484D01*
X5155539Y-17069484D02*
X5136491Y-17059960D01*
X5136491Y-17059960D02*
X5126967Y-17050436D01*
X5126967Y-17050436D02*
X5117444Y-17031389D01*
X5117444Y-17031389D02*
X5107920Y-16993293D01*
X5107920Y-16993293D02*
X5107920Y-16945674D01*
X5107920Y-16945674D02*
X5117444Y-16907579D01*
X5117444Y-16907579D02*
X5126967Y-16888531D01*
X5126967Y-16888531D02*
X5136491Y-16879008D01*
X5136491Y-16879008D02*
X5155539Y-16869484D01*
X5307920Y-17069484D02*
X5307920Y-16936150D01*
X5307920Y-16955198D02*
X5317444Y-16945674D01*
X5317444Y-16945674D02*
X5336491Y-16936150D01*
X5336491Y-16936150D02*
X5365063Y-16936150D01*
X5365063Y-16936150D02*
X5384110Y-16945674D01*
X5384110Y-16945674D02*
X5393634Y-16964722D01*
X5393634Y-16964722D02*
X5393634Y-17069484D01*
X5393634Y-16964722D02*
X5403158Y-16945674D01*
X5403158Y-16945674D02*
X5422205Y-16936150D01*
X5422205Y-16936150D02*
X5450777Y-16936150D01*
X5450777Y-16936150D02*
X5469825Y-16945674D01*
X5469825Y-16945674D02*
X5479348Y-16964722D01*
X5479348Y-16964722D02*
X5479348Y-17069484D01*
X5574586Y-17069484D02*
X5574586Y-16936150D01*
X5574586Y-16955198D02*
X5584110Y-16945674D01*
X5584110Y-16945674D02*
X5603158Y-16936150D01*
X5603158Y-16936150D02*
X5631729Y-16936150D01*
X5631729Y-16936150D02*
X5650777Y-16945674D01*
X5650777Y-16945674D02*
X5660301Y-16964722D01*
X5660301Y-16964722D02*
X5660301Y-17069484D01*
X5660301Y-16964722D02*
X5669824Y-16945674D01*
X5669824Y-16945674D02*
X5688872Y-16936150D01*
X5688872Y-16936150D02*
X5717443Y-16936150D01*
X5717443Y-16936150D02*
X5736491Y-16945674D01*
X5736491Y-16945674D02*
X5746015Y-16964722D01*
X5746015Y-16964722D02*
X5746015Y-17069484D01*
X6136491Y-16859960D02*
X5965063Y-17117103D01*
X6393634Y-16869484D02*
X6412682Y-16869484D01*
X6412682Y-16869484D02*
X6431729Y-16879008D01*
X6431729Y-16879008D02*
X6441253Y-16888531D01*
X6441253Y-16888531D02*
X6450777Y-16907579D01*
X6450777Y-16907579D02*
X6460301Y-16945674D01*
X6460301Y-16945674D02*
X6460301Y-16993293D01*
X6460301Y-16993293D02*
X6450777Y-17031389D01*
X6450777Y-17031389D02*
X6441253Y-17050436D01*
X6441253Y-17050436D02*
X6431729Y-17059960D01*
X6431729Y-17059960D02*
X6412682Y-17069484D01*
X6412682Y-17069484D02*
X6393634Y-17069484D01*
X6393634Y-17069484D02*
X6374586Y-17059960D01*
X6374586Y-17059960D02*
X6365063Y-17050436D01*
X6365063Y-17050436D02*
X6355539Y-17031389D01*
X6355539Y-17031389D02*
X6346015Y-16993293D01*
X6346015Y-16993293D02*
X6346015Y-16945674D01*
X6346015Y-16945674D02*
X6355539Y-16907579D01*
X6355539Y-16907579D02*
X6365063Y-16888531D01*
X6365063Y-16888531D02*
X6374586Y-16879008D01*
X6374586Y-16879008D02*
X6393634Y-16869484D01*
X6546015Y-17050436D02*
X6555539Y-17059960D01*
X6555539Y-17059960D02*
X6546015Y-17069484D01*
X6546015Y-17069484D02*
X6536491Y-17059960D01*
X6536491Y-17059960D02*
X6546015Y-17050436D01*
X6546015Y-17050436D02*
X6546015Y-17069484D01*
X6679348Y-16869484D02*
X6698396Y-16869484D01*
X6698396Y-16869484D02*
X6717444Y-16879008D01*
X6717444Y-16879008D02*
X6726967Y-16888531D01*
X6726967Y-16888531D02*
X6736491Y-16907579D01*
X6736491Y-16907579D02*
X6746015Y-16945674D01*
X6746015Y-16945674D02*
X6746015Y-16993293D01*
X6746015Y-16993293D02*
X6736491Y-17031389D01*
X6736491Y-17031389D02*
X6726967Y-17050436D01*
X6726967Y-17050436D02*
X6717444Y-17059960D01*
X6717444Y-17059960D02*
X6698396Y-17069484D01*
X6698396Y-17069484D02*
X6679348Y-17069484D01*
X6679348Y-17069484D02*
X6660301Y-17059960D01*
X6660301Y-17059960D02*
X6650777Y-17050436D01*
X6650777Y-17050436D02*
X6641253Y-17031389D01*
X6641253Y-17031389D02*
X6631729Y-16993293D01*
X6631729Y-16993293D02*
X6631729Y-16945674D01*
X6631729Y-16945674D02*
X6641253Y-16907579D01*
X6641253Y-16907579D02*
X6650777Y-16888531D01*
X6650777Y-16888531D02*
X6660301Y-16879008D01*
X6660301Y-16879008D02*
X6679348Y-16869484D01*
X6812682Y-16869484D02*
X6936491Y-16869484D01*
X6936491Y-16869484D02*
X6869825Y-16945674D01*
X6869825Y-16945674D02*
X6898396Y-16945674D01*
X6898396Y-16945674D02*
X6917444Y-16955198D01*
X6917444Y-16955198D02*
X6926967Y-16964722D01*
X6926967Y-16964722D02*
X6936491Y-16983770D01*
X6936491Y-16983770D02*
X6936491Y-17031389D01*
X6936491Y-17031389D02*
X6926967Y-17050436D01*
X6926967Y-17050436D02*
X6917444Y-17059960D01*
X6917444Y-17059960D02*
X6898396Y-17069484D01*
X6898396Y-17069484D02*
X6841253Y-17069484D01*
X6841253Y-17069484D02*
X6822206Y-17059960D01*
X6822206Y-17059960D02*
X6812682Y-17050436D01*
X7031729Y-17069484D02*
X7069825Y-17069484D01*
X7069825Y-17069484D02*
X7088872Y-17059960D01*
X7088872Y-17059960D02*
X7098396Y-17050436D01*
X7098396Y-17050436D02*
X7117444Y-17021865D01*
X7117444Y-17021865D02*
X7126967Y-16983770D01*
X7126967Y-16983770D02*
X7126967Y-16907579D01*
X7126967Y-16907579D02*
X7117444Y-16888531D01*
X7117444Y-16888531D02*
X7107920Y-16879008D01*
X7107920Y-16879008D02*
X7088872Y-16869484D01*
X7088872Y-16869484D02*
X7050777Y-16869484D01*
X7050777Y-16869484D02*
X7031729Y-16879008D01*
X7031729Y-16879008D02*
X7022206Y-16888531D01*
X7022206Y-16888531D02*
X7012682Y-16907579D01*
X7012682Y-16907579D02*
X7012682Y-16955198D01*
X7012682Y-16955198D02*
X7022206Y-16974246D01*
X7022206Y-16974246D02*
X7031729Y-16983770D01*
X7031729Y-16983770D02*
X7050777Y-16993293D01*
X7050777Y-16993293D02*
X7088872Y-16993293D01*
X7088872Y-16993293D02*
X7107920Y-16983770D01*
X7107920Y-16983770D02*
X7117444Y-16974246D01*
X7117444Y-16974246D02*
X7126967Y-16955198D01*
X7298396Y-16936150D02*
X7298396Y-17069484D01*
X7250777Y-16859960D02*
X7203158Y-17002817D01*
X7203158Y-17002817D02*
X7326967Y-17002817D01*
X7393634Y-16869484D02*
X7393634Y-16907579D01*
X7469825Y-16869484D02*
X7469825Y-16907579D01*
X7765063Y-17145674D02*
X7755539Y-17136150D01*
X7755539Y-17136150D02*
X7736491Y-17107579D01*
X7736491Y-17107579D02*
X7726968Y-17088531D01*
X7726968Y-17088531D02*
X7717444Y-17059960D01*
X7717444Y-17059960D02*
X7707920Y-17012341D01*
X7707920Y-17012341D02*
X7707920Y-16974246D01*
X7707920Y-16974246D02*
X7717444Y-16926627D01*
X7717444Y-16926627D02*
X7726968Y-16898055D01*
X7726968Y-16898055D02*
X7736491Y-16879008D01*
X7736491Y-16879008D02*
X7755539Y-16850436D01*
X7755539Y-16850436D02*
X7765063Y-16840912D01*
X7946015Y-17069484D02*
X7831729Y-17069484D01*
X7888872Y-17069484D02*
X7888872Y-16869484D01*
X7888872Y-16869484D02*
X7869825Y-16898055D01*
X7869825Y-16898055D02*
X7850777Y-16917103D01*
X7850777Y-16917103D02*
X7831729Y-16926627D01*
X8041253Y-17069484D02*
X8079348Y-17069484D01*
X8079348Y-17069484D02*
X8098396Y-17059960D01*
X8098396Y-17059960D02*
X8107920Y-17050436D01*
X8107920Y-17050436D02*
X8126968Y-17021865D01*
X8126968Y-17021865D02*
X8136491Y-16983770D01*
X8136491Y-16983770D02*
X8136491Y-16907579D01*
X8136491Y-16907579D02*
X8126968Y-16888531D01*
X8126968Y-16888531D02*
X8117444Y-16879008D01*
X8117444Y-16879008D02*
X8098396Y-16869484D01*
X8098396Y-16869484D02*
X8060301Y-16869484D01*
X8060301Y-16869484D02*
X8041253Y-16879008D01*
X8041253Y-16879008D02*
X8031729Y-16888531D01*
X8031729Y-16888531D02*
X8022206Y-16907579D01*
X8022206Y-16907579D02*
X8022206Y-16955198D01*
X8022206Y-16955198D02*
X8031729Y-16974246D01*
X8031729Y-16974246D02*
X8041253Y-16983770D01*
X8041253Y-16983770D02*
X8060301Y-16993293D01*
X8060301Y-16993293D02*
X8098396Y-16993293D01*
X8098396Y-16993293D02*
X8117444Y-16983770D01*
X8117444Y-16983770D02*
X8126968Y-16974246D01*
X8126968Y-16974246D02*
X8136491Y-16955198D01*
X8374587Y-17069484D02*
X8374587Y-16869484D01*
X8460301Y-17069484D02*
X8460301Y-16964722D01*
X8460301Y-16964722D02*
X8450777Y-16945674D01*
X8450777Y-16945674D02*
X8431730Y-16936150D01*
X8431730Y-16936150D02*
X8403158Y-16936150D01*
X8403158Y-16936150D02*
X8384110Y-16945674D01*
X8384110Y-16945674D02*
X8374587Y-16955198D01*
X8584111Y-17069484D02*
X8565063Y-17059960D01*
X8565063Y-17059960D02*
X8555539Y-17050436D01*
X8555539Y-17050436D02*
X8546015Y-17031389D01*
X8546015Y-17031389D02*
X8546015Y-16974246D01*
X8546015Y-16974246D02*
X8555539Y-16955198D01*
X8555539Y-16955198D02*
X8565063Y-16945674D01*
X8565063Y-16945674D02*
X8584111Y-16936150D01*
X8584111Y-16936150D02*
X8612682Y-16936150D01*
X8612682Y-16936150D02*
X8631730Y-16945674D01*
X8631730Y-16945674D02*
X8641253Y-16955198D01*
X8641253Y-16955198D02*
X8650777Y-16974246D01*
X8650777Y-16974246D02*
X8650777Y-17031389D01*
X8650777Y-17031389D02*
X8641253Y-17050436D01*
X8641253Y-17050436D02*
X8631730Y-17059960D01*
X8631730Y-17059960D02*
X8612682Y-17069484D01*
X8612682Y-17069484D02*
X8584111Y-17069484D01*
X8765063Y-17069484D02*
X8746015Y-17059960D01*
X8746015Y-17059960D02*
X8736492Y-17040912D01*
X8736492Y-17040912D02*
X8736492Y-16869484D01*
X8917444Y-17059960D02*
X8898396Y-17069484D01*
X8898396Y-17069484D02*
X8860301Y-17069484D01*
X8860301Y-17069484D02*
X8841253Y-17059960D01*
X8841253Y-17059960D02*
X8831730Y-17040912D01*
X8831730Y-17040912D02*
X8831730Y-16964722D01*
X8831730Y-16964722D02*
X8841253Y-16945674D01*
X8841253Y-16945674D02*
X8860301Y-16936150D01*
X8860301Y-16936150D02*
X8898396Y-16936150D01*
X8898396Y-16936150D02*
X8917444Y-16945674D01*
X8917444Y-16945674D02*
X8926968Y-16964722D01*
X8926968Y-16964722D02*
X8926968Y-16983770D01*
X8926968Y-16983770D02*
X8831730Y-17002817D01*
X9003158Y-17059960D02*
X9022206Y-17069484D01*
X9022206Y-17069484D02*
X9060301Y-17069484D01*
X9060301Y-17069484D02*
X9079349Y-17059960D01*
X9079349Y-17059960D02*
X9088873Y-17040912D01*
X9088873Y-17040912D02*
X9088873Y-17031389D01*
X9088873Y-17031389D02*
X9079349Y-17012341D01*
X9079349Y-17012341D02*
X9060301Y-17002817D01*
X9060301Y-17002817D02*
X9031730Y-17002817D01*
X9031730Y-17002817D02*
X9012682Y-16993293D01*
X9012682Y-16993293D02*
X9003158Y-16974246D01*
X9003158Y-16974246D02*
X9003158Y-16964722D01*
X9003158Y-16964722D02*
X9012682Y-16945674D01*
X9012682Y-16945674D02*
X9031730Y-16936150D01*
X9031730Y-16936150D02*
X9060301Y-16936150D01*
X9060301Y-16936150D02*
X9079349Y-16945674D01*
X9155539Y-17145674D02*
X9165063Y-17136150D01*
X9165063Y-17136150D02*
X9184111Y-17107579D01*
X9184111Y-17107579D02*
X9193634Y-17088531D01*
X9193634Y-17088531D02*
X9203158Y-17059960D01*
X9203158Y-17059960D02*
X9212682Y-17012341D01*
X9212682Y-17012341D02*
X9212682Y-16974246D01*
X9212682Y-16974246D02*
X9203158Y-16926627D01*
X9203158Y-16926627D02*
X9193634Y-16898055D01*
X9193634Y-16898055D02*
X9184111Y-16879008D01*
X9184111Y-16879008D02*
X9165063Y-16850436D01*
X9165063Y-16850436D02*
X9155539Y-16840912D01*
M02*
