%TF.GenerationSoftware,KiCad,Pcbnew,7.0.11*%
%TF.CreationDate,2025-01-20T02:06:30+09:00*%
%TF.ProjectId,IO,494f2e6b-6963-4616-945f-706362585858,rev?*%
%TF.SameCoordinates,Original*%
%TF.FileFunction,Paste,Top*%
%TF.FilePolarity,Positive*%
%FSLAX46Y46*%
G04 Gerber Fmt 4.6, Leading zero omitted, Abs format (unit mm)*
G04 Created by KiCad (PCBNEW 7.0.11) date 2025-01-20 02:06:30*
%MOMM*%
%LPD*%
G01*
G04 APERTURE LIST*
G04 Aperture macros list*
%AMRotRect*
0 Rectangle, with rotation*
0 The origin of the aperture is its center*
0 $1 length*
0 $2 width*
0 $3 Rotation angle, in degrees counterclockwise*
0 Add horizontal line*
21,1,$1,$2,0,0,$3*%
G04 Aperture macros list end*
%ADD10RotRect,0.700000X0.700000X348.750000*%
%ADD11RotRect,0.700000X0.700000X196.875000*%
%ADD12RotRect,0.700000X0.700000X292.500000*%
%ADD13RotRect,0.700000X0.700000X140.625000*%
%ADD14RotRect,0.700000X0.700000X303.750000*%
%ADD15RotRect,0.700000X0.700000X50.625000*%
%ADD16RotRect,0.700000X0.700000X320.625000*%
%ADD17RotRect,0.700000X0.700000X45.000000*%
%ADD18RotRect,0.700000X0.700000X185.625000*%
%ADD19RotRect,0.700000X0.700000X101.250000*%
%ADD20RotRect,0.700000X0.700000X275.625000*%
%ADD21RotRect,0.700000X0.700000X236.250000*%
%ADD22RotRect,0.700000X0.700000X264.375000*%
%ADD23RotRect,0.700000X0.700000X174.375000*%
%ADD24R,0.700000X0.700000*%
%ADD25RotRect,0.700000X0.700000X106.875000*%
%ADD26RotRect,0.700000X0.700000X337.500000*%
%ADD27RotRect,0.700000X0.700000X241.875000*%
%ADD28RotRect,0.700000X0.700000X281.250000*%
%ADD29RotRect,0.700000X0.700000X213.750000*%
%ADD30RotRect,0.700000X0.700000X123.750000*%
%ADD31RotRect,0.700000X0.700000X118.125000*%
%ADD32RotRect,0.700000X0.700000X22.500000*%
%ADD33RotRect,0.700000X0.700000X146.250000*%
%ADD34RotRect,0.700000X0.700000X191.250000*%
%ADD35RotRect,0.700000X0.700000X253.125000*%
%ADD36RotRect,0.700000X0.700000X230.625000*%
%ADD37RotRect,0.700000X0.700000X5.625000*%
%ADD38RotRect,0.700000X0.700000X202.500000*%
%ADD39RotRect,0.700000X0.700000X95.625000*%
%ADD40RotRect,0.700000X0.700000X157.500000*%
%ADD41RotRect,0.700000X0.700000X112.500000*%
%ADD42RotRect,0.700000X0.700000X354.375000*%
%ADD43RotRect,0.700000X0.700000X61.875000*%
%ADD44RotRect,0.700000X0.700000X78.750000*%
%ADD45RotRect,0.700000X0.700000X326.250000*%
%ADD46RotRect,0.700000X0.700000X219.375000*%
%ADD47RotRect,0.700000X0.700000X28.125000*%
%ADD48RotRect,0.700000X0.700000X247.500000*%
%ADD49RotRect,0.700000X0.700000X163.125000*%
%ADD50RotRect,0.700000X0.700000X343.125000*%
%ADD51RotRect,0.700000X0.700000X286.875000*%
%ADD52RotRect,0.700000X0.700000X84.375000*%
%ADD53RotRect,0.700000X0.700000X129.375000*%
%ADD54RotRect,0.700000X0.700000X56.250000*%
%ADD55RotRect,0.700000X0.700000X309.375000*%
%ADD56RotRect,0.700000X0.700000X315.000000*%
%ADD57RotRect,0.700000X0.700000X73.125000*%
%ADD58RotRect,0.700000X0.700000X39.375000*%
%ADD59RotRect,0.700000X0.700000X208.125000*%
%ADD60RotRect,0.700000X0.700000X258.750000*%
%ADD61RotRect,0.700000X0.700000X168.750000*%
%ADD62RotRect,0.700000X0.700000X16.875000*%
%ADD63RotRect,0.700000X0.700000X67.500000*%
%ADD64RotRect,0.700000X0.700000X225.000000*%
%ADD65RotRect,0.700000X0.700000X11.250000*%
%ADD66RotRect,0.700000X0.700000X298.125000*%
%ADD67RotRect,0.700000X0.700000X331.875000*%
%ADD68RotRect,0.700000X0.700000X33.750000*%
%ADD69RotRect,0.700000X0.700000X135.000000*%
%ADD70RotRect,0.700000X0.700000X151.875000*%
G04 APERTURE END LIST*
D10*
%TO.C,D23*%
X77219138Y-75730485D03*
X77004539Y-76809349D03*
X78799376Y-77166365D03*
X79013975Y-76087501D03*
%TD*%
D11*
%TO.C,D42*%
X208057349Y-70603527D03*
X207738036Y-69550892D03*
X205986835Y-70082113D03*
X206306148Y-71134748D03*
%TD*%
D12*
%TO.C,D40*%
X118072244Y-26946008D03*
X117055977Y-27366960D03*
X117756288Y-29057660D03*
X118772555Y-28636708D03*
%TD*%
D13*
%TO.C,D59*%
X195024971Y-132885619D03*
X195722804Y-132035307D03*
X194308195Y-130874367D03*
X193610362Y-131724679D03*
%TD*%
D14*
%TO.C,D24*%
X106342469Y-33066856D03*
X105427852Y-33677983D03*
X106444545Y-35199572D03*
X107359162Y-34588445D03*
%TD*%
D15*
%TO.C,D61*%
X99948381Y-141298248D03*
X100798693Y-141996081D03*
X101959633Y-140581472D03*
X101109321Y-139883639D03*
%TD*%
D16*
%TO.C,D63*%
X91535754Y-46221661D03*
X90837921Y-47071973D03*
X92252530Y-48232913D03*
X92950363Y-47382601D03*
%TD*%
D17*
%TO.C,D6*%
X95085179Y-136801807D03*
X95862996Y-137579624D03*
X97157001Y-136285619D03*
X96379184Y-135507802D03*
%TD*%
D18*
%TO.C,D58*%
X210509661Y-83605012D03*
X210401843Y-82510309D03*
X208580655Y-82689680D03*
X208688473Y-83784383D03*
%TD*%
D19*
%TO.C,D52*%
X155789968Y-155876146D03*
X156868832Y-155661547D03*
X156511816Y-153866710D03*
X155432952Y-154081309D03*
%TD*%
D20*
%TO.C,D64*%
X137331734Y-22324342D03*
X136237031Y-22432160D03*
X136416402Y-24253348D03*
X137511105Y-24145530D03*
%TD*%
D21*
%TO.C,D49*%
X181331825Y-33810919D03*
X180417208Y-33199792D03*
X179400515Y-34721381D03*
X180315132Y-35332508D03*
%TD*%
D22*
%TO.C,D9*%
X150561819Y-22455612D03*
X149467116Y-22347794D03*
X149287745Y-24168982D03*
X150382448Y-24276800D03*
%TD*%
D23*
%TO.C,D11*%
X210378390Y-96835099D03*
X210486208Y-95740396D03*
X208665020Y-95561025D03*
X208557202Y-96655728D03*
%TD*%
D24*
%TO.C,D1*%
X143950000Y-22065000D03*
X142850000Y-22065000D03*
X142850000Y-23895000D03*
X143950000Y-23895000D03*
%TD*%
D25*
%TO.C,D44*%
X162230473Y-154330629D03*
X163283108Y-154011316D03*
X162751887Y-152260115D03*
X161699252Y-152579428D03*
%TD*%
D26*
%TO.C,D39*%
X81185250Y-63108188D03*
X80764298Y-64124455D03*
X82454998Y-64824766D03*
X82875950Y-63808499D03*
%TD*%
D27*
%TO.C,D41*%
X175684855Y-30349639D03*
X174714741Y-29831103D03*
X173852085Y-31445019D03*
X174822199Y-31963555D03*
%TD*%
D28*
%TO.C,D56*%
X130770754Y-23231137D03*
X129691890Y-23445736D03*
X130048906Y-25240573D03*
X131127770Y-25025974D03*
%TD*%
D29*
%TO.C,D18*%
X199767145Y-52615746D03*
X199156018Y-51701129D03*
X197634429Y-52717822D03*
X198245556Y-53632439D03*
%TD*%
D30*
%TO.C,D20*%
X180218255Y-146040426D03*
X181132872Y-145429299D03*
X180116179Y-143907710D03*
X179201562Y-144518837D03*
%TD*%
D31*
%TO.C,D28*%
X174503716Y-149388974D03*
X175473830Y-148870438D03*
X174611174Y-147256522D03*
X173641060Y-147775058D03*
%TD*%
D32*
%TO.C,D38*%
X80672728Y-114761757D03*
X81093680Y-115778024D03*
X82784380Y-115077713D03*
X82363428Y-114061446D03*
%TD*%
D33*
%TO.C,D51*%
X199023083Y-127605105D03*
X199634210Y-126690488D03*
X198112621Y-125673795D03*
X197501494Y-126588412D03*
%TD*%
D34*
%TO.C,D50*%
X209602866Y-77044032D03*
X209388267Y-75965168D03*
X207593430Y-76322184D03*
X207808029Y-77401048D03*
%TD*%
D35*
%TO.C,D25*%
X163512084Y-25165424D03*
X162459449Y-24846111D03*
X161928228Y-26597312D03*
X162980863Y-26916625D03*
%TD*%
D36*
%TO.C,D57*%
X186612339Y-37809031D03*
X185762027Y-37111198D03*
X184601087Y-38525807D03*
X185451399Y-39223640D03*
%TD*%
D37*
%TO.C,D62*%
X76051062Y-95502267D03*
X76158880Y-96596970D03*
X77980068Y-96417599D03*
X77872250Y-95322896D03*
%TD*%
D38*
%TO.C,D34*%
X205887994Y-64345521D03*
X205467042Y-63329254D03*
X203776342Y-64029565D03*
X204197294Y-65045832D03*
%TD*%
D39*
%TO.C,D60*%
X149228988Y-156782941D03*
X150323691Y-156675123D03*
X150144320Y-154853935D03*
X149049617Y-154961753D03*
%TD*%
D40*
%TO.C,D35*%
X205375475Y-115999091D03*
X205796427Y-114982824D03*
X204105727Y-114282513D03*
X203684775Y-115298780D03*
%TD*%
D41*
%TO.C,D36*%
X168488479Y-152161275D03*
X169504746Y-151740323D03*
X168804435Y-150049623D03*
X167788168Y-150470575D03*
%TD*%
D42*
%TO.C,D15*%
X76182334Y-82272180D03*
X76074516Y-83366883D03*
X77895704Y-83546254D03*
X78003522Y-82451551D03*
%TD*%
D24*
%TO.C,D7*%
X75791722Y-88883999D03*
X75791722Y-89983999D03*
X77621722Y-89983999D03*
X77621722Y-88883999D03*
%TD*%
D43*
%TO.C,D45*%
X110875865Y-148757641D03*
X111845979Y-149276177D03*
X112708635Y-147662261D03*
X111738521Y-147143725D03*
%TD*%
D44*
%TO.C,D21*%
X129457206Y-155614865D03*
X130536070Y-155829464D03*
X130893086Y-154034627D03*
X129814222Y-153820028D03*
%TD*%
D45*
%TO.C,D55*%
X87537642Y-51502175D03*
X86926515Y-52416792D03*
X88448104Y-53433485D03*
X89059231Y-52518868D03*
%TD*%
D46*
%TO.C,D10*%
X195874599Y-47256939D03*
X195176766Y-46406627D03*
X193762157Y-47567567D03*
X194459990Y-48417879D03*
%TD*%
D47*
%TO.C,D30*%
X83445029Y-120776993D03*
X83963565Y-121747107D03*
X85577481Y-120884451D03*
X85058945Y-119914337D03*
%TD*%
D48*
%TO.C,D33*%
X169725811Y-27458527D03*
X168709544Y-27037575D03*
X168009233Y-28728275D03*
X169025500Y-29149227D03*
%TD*%
D24*
%TO.C,D5*%
X142610720Y-157042281D03*
X143710720Y-157042281D03*
X143710720Y-155212281D03*
X142610720Y-155212281D03*
%TD*%
D49*
%TO.C,D27*%
X207668578Y-109785364D03*
X207987891Y-108732729D03*
X206236690Y-108201508D03*
X205917377Y-109254143D03*
%TD*%
D50*
%TO.C,D31*%
X78892147Y-69321915D03*
X78572834Y-70374550D03*
X80324035Y-70905771D03*
X80643348Y-69853136D03*
%TD*%
D51*
%TO.C,D48*%
X124330250Y-24776654D03*
X123277615Y-25095967D03*
X123808836Y-26847168D03*
X124861471Y-26527855D03*
%TD*%
D52*
%TO.C,D13*%
X135998901Y-156651669D03*
X137093604Y-156759487D03*
X137272975Y-154938299D03*
X136178272Y-154830481D03*
%TD*%
D53*
%TO.C,D12*%
X185577063Y-142147880D03*
X186427375Y-141450047D03*
X185266435Y-140035438D03*
X184416123Y-140733271D03*
%TD*%
D54*
%TO.C,D53*%
X105228895Y-145296361D03*
X106143512Y-145907488D03*
X107160205Y-144385899D03*
X106245588Y-143774772D03*
%TD*%
D55*
%TO.C,D16*%
X100983662Y-36959401D03*
X100133350Y-37657234D03*
X101294290Y-39071843D03*
X102144602Y-38374010D03*
%TD*%
D56*
%TO.C,D8*%
X96032195Y-41358459D03*
X95254378Y-42136276D03*
X96548383Y-43430281D03*
X97326200Y-42652464D03*
%TD*%
D57*
%TO.C,D29*%
X123048636Y-153941856D03*
X124101271Y-154261169D03*
X124632492Y-152509968D03*
X123579857Y-152190655D03*
%TD*%
D58*
%TO.C,D14*%
X90686121Y-131850340D03*
X91383954Y-132700652D03*
X92798563Y-131539712D03*
X92100730Y-130689400D03*
%TD*%
D59*
%TO.C,D26*%
X203115693Y-58330285D03*
X202597157Y-57360171D03*
X200983241Y-58222827D03*
X201501777Y-59192941D03*
%TD*%
D24*
%TO.C,D3*%
X210769002Y-90223280D03*
X210769002Y-89123280D03*
X208939002Y-89123280D03*
X208939002Y-90223280D03*
%TD*%
D60*
%TO.C,D17*%
X157103514Y-23492415D03*
X156024650Y-23277816D03*
X155667634Y-25072653D03*
X156746498Y-25287252D03*
%TD*%
D61*
%TO.C,D19*%
X209341587Y-103376794D03*
X209556186Y-102297930D03*
X207761349Y-101940914D03*
X207546750Y-103019778D03*
%TD*%
D62*
%TO.C,D46*%
X78503374Y-108503751D03*
X78822687Y-109556386D03*
X80573888Y-109025165D03*
X80254575Y-107972530D03*
%TD*%
D63*
%TO.C,D37*%
X116834909Y-151648753D03*
X117851176Y-152069705D03*
X118551487Y-150379005D03*
X117535220Y-149958053D03*
%TD*%
D64*
%TO.C,D2*%
X191475541Y-42305472D03*
X190697724Y-41527655D03*
X189403719Y-42821660D03*
X190181536Y-43599477D03*
%TD*%
D65*
%TO.C,D54*%
X76957857Y-102063247D03*
X77172456Y-103142111D03*
X78967293Y-102785095D03*
X78752694Y-101706231D03*
%TD*%
D66*
%TO.C,D32*%
X112057008Y-29718309D03*
X111086894Y-30236845D03*
X111949550Y-31850761D03*
X112919664Y-31332225D03*
%TD*%
D67*
%TO.C,D47*%
X84076362Y-57149145D03*
X83557826Y-58119259D03*
X85171742Y-58981915D03*
X85690278Y-58011801D03*
%TD*%
D68*
%TO.C,D22*%
X86793576Y-126491532D03*
X87404703Y-127406149D03*
X88926292Y-126389456D03*
X88315165Y-125474839D03*
%TD*%
D69*
%TO.C,D4*%
X190528530Y-137748822D03*
X191306347Y-136971005D03*
X190012342Y-135677000D03*
X189234525Y-136454817D03*
%TD*%
D70*
%TO.C,D43*%
X202484363Y-121958135D03*
X203002899Y-120988021D03*
X201388983Y-120125365D03*
X200870447Y-121095479D03*
%TD*%
M02*
