%TF.GenerationSoftware,KiCad,Pcbnew,7.0.11*%
%TF.CreationDate,2025-01-20T02:06:30+09:00*%
%TF.ProjectId,IO,494f2e6b-6963-4616-945f-706362585858,rev?*%
%TF.SameCoordinates,Original*%
%TF.FileFunction,Legend,Top*%
%TF.FilePolarity,Positive*%
%FSLAX46Y46*%
G04 Gerber Fmt 4.6, Leading zero omitted, Abs format (unit mm)*
G04 Created by KiCad (PCBNEW 7.0.11) date 2025-01-20 02:06:30*
%MOMM*%
%LPD*%
G01*
G04 APERTURE LIST*
%ADD10C,0.120000*%
G04 APERTURE END LIST*
D10*
%TO.C,D23*%
X76840896Y-75043494D02*
X76714087Y-75681004D01*
X76840896Y-75043494D02*
X79626326Y-75597550D01*
X76392188Y-77299300D02*
X79177618Y-77853356D01*
%TO.C,D42*%
X208714775Y-71031097D02*
X208526090Y-70409086D01*
X208714775Y-71031097D02*
X205997064Y-71855506D01*
X208047120Y-68830134D02*
X205329409Y-69654543D01*
%TO.C,D40*%
X118433317Y-26249839D02*
X117832795Y-26498583D01*
X118433317Y-26249839D02*
X119520138Y-28873657D01*
X116308394Y-27130011D02*
X117395215Y-29753829D01*
%TO.C,J3*%
X179110000Y-102690000D02*
X177780000Y-102690000D01*
X179110000Y-101360000D02*
X179110000Y-102690000D01*
X179110000Y-100090000D02*
X179110000Y-92410000D01*
X179110000Y-100090000D02*
X176450000Y-100090000D01*
X179110000Y-92410000D02*
X176450000Y-92410000D01*
X176450000Y-100090000D02*
X176450000Y-92410000D01*
%TO.C,D59*%
X195034706Y-133669793D02*
X195447061Y-133167337D01*
X195034706Y-133669793D02*
X192839356Y-131868117D01*
X196493810Y-131891869D02*
X194298460Y-130090193D01*
%TO.C,D24*%
X106560787Y-32313621D02*
X106020332Y-32674742D01*
X106560787Y-32313621D02*
X108138607Y-34674995D01*
X104648407Y-33591433D02*
X106226227Y-35952807D01*
%TO.C,D61*%
X99164207Y-141307983D02*
X99666663Y-141720338D01*
X99164207Y-141307983D02*
X100965883Y-139112633D01*
X100942131Y-142767087D02*
X102743807Y-140571737D01*
%TO.C,D63*%
X91526019Y-45437487D02*
X91113664Y-45939943D01*
X91526019Y-45437487D02*
X93721369Y-47239163D01*
X90066915Y-47215411D02*
X92262265Y-49017087D01*
%TO.C,D6*%
X94303826Y-136734632D02*
X94763445Y-137194251D01*
X94303826Y-136734632D02*
X96312009Y-134726449D01*
X95930171Y-138360977D02*
X97938354Y-136352794D01*
%TO.C,D58*%
X211071040Y-84152624D02*
X211007329Y-83505754D01*
X211071040Y-84152624D02*
X208244715Y-84430993D01*
X210845601Y-81863699D02*
X208019276Y-82142068D01*
%TO.C,D52*%
X155300017Y-156488497D02*
X155937528Y-156361688D01*
X155300017Y-156488497D02*
X154745961Y-153703067D01*
X157555823Y-156039789D02*
X157001767Y-153254359D01*
%TO.C,D64*%
X137879346Y-21762963D02*
X137232476Y-21826674D01*
X137879346Y-21762963D02*
X138157715Y-24589288D01*
X135590421Y-21988402D02*
X135868790Y-24814727D01*
%TO.C,D49*%
X182111270Y-33724369D02*
X181570815Y-33363248D01*
X182111270Y-33724369D02*
X180533450Y-36085743D01*
X180198890Y-32446557D02*
X178621070Y-34807931D01*
%TO.C,D9*%
X151208429Y-22011854D02*
X150561559Y-21948143D01*
X151208429Y-22011854D02*
X150930060Y-24838179D01*
X148919504Y-21786415D02*
X148641135Y-24612740D01*
%TO.C,D11*%
X210822148Y-97481709D02*
X210885859Y-96834839D01*
X210822148Y-97481709D02*
X207995823Y-97203340D01*
X211047587Y-95192784D02*
X208221262Y-94914415D01*
%TO.C,D1*%
X144550000Y-21560000D02*
X143900000Y-21560000D01*
X144550000Y-21560000D02*
X144550000Y-24400000D01*
X142250000Y-21560000D02*
X142250000Y-24400000D01*
%TO.C,D44*%
X161802903Y-154988055D02*
X162424914Y-154799370D01*
X161802903Y-154988055D02*
X160978494Y-152270344D01*
X164003866Y-154320400D02*
X163179457Y-151602689D01*
%TO.C,D39*%
X80948301Y-62360605D02*
X80699557Y-62961127D01*
X80948301Y-62360605D02*
X83572119Y-63447426D01*
X80068129Y-64485528D02*
X82691947Y-65572349D01*
%TO.C,D41*%
X176452063Y-30187107D02*
X175878814Y-29880699D01*
X176452063Y-30187107D02*
X175113296Y-32691763D01*
X174423644Y-29102895D02*
X173084877Y-31607551D01*
%TO.C,D56*%
X131260705Y-22618786D02*
X130623194Y-22745595D01*
X131260705Y-22618786D02*
X131814761Y-25404216D01*
X129004899Y-23067494D02*
X129558955Y-25852924D01*
%TO.C,D18*%
X200520380Y-52834064D02*
X200159259Y-52293609D01*
X200520380Y-52834064D02*
X198159006Y-54411884D01*
X199242568Y-50921684D02*
X196881194Y-52499504D01*
%TO.C,D20*%
X179999937Y-146793661D02*
X180540392Y-146432540D01*
X179999937Y-146793661D02*
X178422117Y-144432287D01*
X181912317Y-145515849D02*
X180334497Y-143154475D01*
%TO.C,D28*%
X174212619Y-150117182D02*
X174785868Y-149810775D01*
X174212619Y-150117182D02*
X172873852Y-147612526D01*
X176241038Y-149032970D02*
X174902271Y-146528314D01*
%TO.C,D38*%
X79976559Y-114400684D02*
X80225303Y-115001206D01*
X79976559Y-114400684D02*
X82600377Y-113313863D01*
X80856731Y-116525607D02*
X83480549Y-115438786D01*
%TO.C,J1*%
X98110000Y-115400000D02*
X96780000Y-115400000D01*
X98110000Y-114070000D02*
X98110000Y-115400000D01*
X98110000Y-112800000D02*
X98110000Y-79720000D01*
X98110000Y-112800000D02*
X95450000Y-112800000D01*
X98110000Y-79720000D02*
X95450000Y-79720000D01*
X95450000Y-112800000D02*
X95450000Y-79720000D01*
%TO.C,D51*%
X199109633Y-128384550D02*
X199470754Y-127844095D01*
X199109633Y-128384550D02*
X196748259Y-126806730D01*
X200387445Y-126472170D02*
X198026071Y-124894350D01*
%TO.C,D50*%
X210215217Y-77533983D02*
X210088408Y-76896472D01*
X210215217Y-77533983D02*
X207429787Y-78088039D01*
X209766509Y-75278177D02*
X206981079Y-75832233D01*
%TO.C,D25*%
X164232842Y-24856340D02*
X163610830Y-24667655D01*
X164232842Y-24856340D02*
X163408433Y-27574051D01*
X162031879Y-24188685D02*
X161207470Y-26906396D01*
%TO.C,D57*%
X187396513Y-37799296D02*
X186894057Y-37386941D01*
X187396513Y-37799296D02*
X185594837Y-39994646D01*
X185618589Y-36340192D02*
X183816913Y-38535542D01*
%TO.C,D62*%
X75489683Y-94954655D02*
X75553394Y-95601525D01*
X75489683Y-94954655D02*
X78316008Y-94676286D01*
X75715122Y-97243580D02*
X78541447Y-96965211D01*
%TO.C,D34*%
X206584163Y-64706594D02*
X206335419Y-64106072D01*
X206584163Y-64706594D02*
X203960345Y-65793415D01*
X205703991Y-62581671D02*
X203080173Y-63668492D01*
%TO.C,D60*%
X148681376Y-157344320D02*
X149328246Y-157280609D01*
X148681376Y-157344320D02*
X148403007Y-154517995D01*
X150970301Y-157118881D02*
X150691932Y-154292556D01*
%TO.C,D35*%
X205612424Y-116746674D02*
X205861168Y-116146152D01*
X205612424Y-116746674D02*
X202988606Y-115659853D01*
X206492596Y-114621751D02*
X203868778Y-113534930D01*
%TO.C,D36*%
X168127406Y-152857444D02*
X168727928Y-152608700D01*
X168127406Y-152857444D02*
X167040585Y-150233626D01*
X170252329Y-151977272D02*
X169165508Y-149353454D01*
%TO.C,D15*%
X75738576Y-81625570D02*
X75674865Y-82272440D01*
X75738576Y-81625570D02*
X78564901Y-81903939D01*
X75513137Y-83914495D02*
X78339462Y-84192864D01*
%TO.C,D7*%
X75286722Y-88283999D02*
X75286722Y-88933999D01*
X75286722Y-88283999D02*
X78126722Y-88283999D01*
X75286722Y-90583999D02*
X78126722Y-90583999D01*
%TO.C,D45*%
X110108657Y-148920173D02*
X110681906Y-149226581D01*
X110108657Y-148920173D02*
X111447424Y-146415517D01*
X112137076Y-150004385D02*
X113475843Y-147499729D01*
%TO.C,J5*%
X121500000Y-51490000D02*
X120170000Y-51490000D01*
X121500000Y-50160000D02*
X121500000Y-51490000D01*
X121500000Y-48890000D02*
X121500000Y-33590000D01*
X121500000Y-48890000D02*
X118840000Y-48890000D01*
X121500000Y-33590000D02*
X118840000Y-33590000D01*
X118840000Y-48890000D02*
X118840000Y-33590000D01*
%TO.C,D21*%
X128770215Y-155993107D02*
X129407725Y-156119916D01*
X128770215Y-155993107D02*
X129324271Y-153207677D01*
X131026021Y-156441815D02*
X131580077Y-153656385D01*
%TO.C,D55*%
X87451092Y-50722730D02*
X87089971Y-51263185D01*
X87451092Y-50722730D02*
X89812466Y-52300550D01*
X86173280Y-52635110D02*
X88534654Y-54212930D01*
%TO.C,D10*%
X196645605Y-47400377D02*
X196233249Y-46897920D01*
X196645605Y-47400377D02*
X194450255Y-49202053D01*
X195186501Y-45622453D02*
X192991151Y-47424129D01*
%TO.C,D30*%
X82716821Y-120485896D02*
X83023228Y-121059145D01*
X82716821Y-120485896D02*
X85221477Y-119147129D01*
X83801033Y-122514315D02*
X86305689Y-121175548D01*
%TO.C,D33*%
X170473394Y-27221578D02*
X169872872Y-26972834D01*
X170473394Y-27221578D02*
X169386573Y-29845396D01*
X168348471Y-26341406D02*
X167261650Y-28965224D01*
%TO.C,D5*%
X142010720Y-157547281D02*
X142660720Y-157547281D01*
X142010720Y-157547281D02*
X142010720Y-154707281D01*
X144310720Y-157547281D02*
X144310720Y-154707281D01*
%TO.C,D27*%
X207977662Y-110506122D02*
X208166347Y-109884110D01*
X207977662Y-110506122D02*
X205259951Y-109681713D01*
X208645317Y-108305159D02*
X205927606Y-107480750D01*
%TO.C,D31*%
X78583063Y-68601157D02*
X78394378Y-69223169D01*
X78583063Y-68601157D02*
X81300774Y-69425566D01*
X77915408Y-70802120D02*
X80633119Y-71626529D01*
%TO.C,D48*%
X124757820Y-24119228D02*
X124135809Y-24307913D01*
X124757820Y-24119228D02*
X125582229Y-26836939D01*
X122556857Y-24786883D02*
X123381266Y-27504594D01*
%TO.C,D13*%
X135352291Y-157095427D02*
X135999161Y-157159138D01*
X135352291Y-157095427D02*
X135630660Y-154269102D01*
X137641216Y-157320866D02*
X137919585Y-154494541D01*
%TO.C,D12*%
X185433625Y-142918886D02*
X185936082Y-142506530D01*
X185433625Y-142918886D02*
X183631949Y-140723536D01*
X187211549Y-141459782D02*
X185409873Y-139264432D01*
%TO.C,D53*%
X104449450Y-145382911D02*
X104989905Y-145744032D01*
X104449450Y-145382911D02*
X106027270Y-143021537D01*
X106361830Y-146660723D02*
X107939650Y-144299349D01*
%TO.C,D16*%
X101127100Y-36188395D02*
X100624643Y-36600751D01*
X101127100Y-36188395D02*
X102928776Y-38383745D01*
X99349176Y-37647499D02*
X101150852Y-39842849D01*
%TO.C,D8*%
X96099370Y-40577106D02*
X95639751Y-41036725D01*
X96099370Y-40577106D02*
X98107553Y-42585289D01*
X94473025Y-42203451D02*
X96481208Y-44211634D01*
%TO.C,D29*%
X122327878Y-154250940D02*
X122949890Y-154439625D01*
X122327878Y-154250940D02*
X123152287Y-151533229D01*
X124528841Y-154918595D02*
X125353250Y-152200884D01*
%TO.C,D14*%
X89915115Y-131706902D02*
X90327471Y-132209359D01*
X89915115Y-131706902D02*
X92110465Y-129905226D01*
X91374219Y-133484826D02*
X93569569Y-131683150D01*
%TO.C,D26*%
X203843901Y-58621382D02*
X203537494Y-58048133D01*
X203843901Y-58621382D02*
X201339245Y-59960149D01*
X202759689Y-56592963D02*
X200255033Y-57931730D01*
%TO.C,D3*%
X211274002Y-90823280D02*
X211274002Y-90173280D01*
X211274002Y-90823280D02*
X208434002Y-90823280D01*
X211274002Y-88523280D02*
X208434002Y-88523280D01*
%TO.C,D17*%
X157790505Y-23114173D02*
X157152995Y-22987364D01*
X157790505Y-23114173D02*
X157236449Y-25899603D01*
X155534699Y-22665465D02*
X154980643Y-25450895D01*
%TO.C,D19*%
X209719829Y-104063785D02*
X209846638Y-103426275D01*
X209719829Y-104063785D02*
X206934399Y-103509729D01*
X210168537Y-101807979D02*
X207383107Y-101253923D01*
%TO.C,D46*%
X77845948Y-108076181D02*
X78034633Y-108698192D01*
X77845948Y-108076181D02*
X80563659Y-107251772D01*
X78513603Y-110277144D02*
X81231314Y-109452735D01*
%TO.C,D37*%
X116087326Y-151885702D02*
X116687848Y-152134446D01*
X116087326Y-151885702D02*
X117174147Y-149261884D01*
X118212249Y-152765874D02*
X119299070Y-150142056D01*
%TO.C,D2*%
X192256894Y-42372647D02*
X191797275Y-41913028D01*
X192256894Y-42372647D02*
X190248711Y-44380830D01*
X190630549Y-40746302D02*
X188622366Y-42754485D01*
%TO.C,D54*%
X76345506Y-101573296D02*
X76472315Y-102210807D01*
X76345506Y-101573296D02*
X79130936Y-101019240D01*
X76794214Y-103829102D02*
X79579644Y-103275046D01*
%TO.C,D32*%
X112348105Y-28990101D02*
X111774856Y-29296508D01*
X112348105Y-28990101D02*
X113686872Y-31494757D01*
X110319686Y-30074313D02*
X111658453Y-32578969D01*
%TO.C,D47*%
X83913830Y-56381937D02*
X83607422Y-56955186D01*
X83913830Y-56381937D02*
X86418486Y-57720704D01*
X82829618Y-58410356D02*
X85334274Y-59749123D01*
%TO.C,D22*%
X86040341Y-126273214D02*
X86401462Y-126813669D01*
X86040341Y-126273214D02*
X88401715Y-124695394D01*
X87318153Y-128185594D02*
X89679527Y-126607774D01*
%TO.C,D4*%
X190461355Y-138530175D02*
X190920974Y-138070556D01*
X190461355Y-138530175D02*
X188453172Y-136521992D01*
X192087700Y-136903830D02*
X190079517Y-134895647D01*
%TO.C,D43*%
X202646895Y-122725343D02*
X202953303Y-122152094D01*
X202646895Y-122725343D02*
X200142239Y-121386576D01*
X203731107Y-120696924D02*
X201226451Y-119358157D01*
%TD*%
M02*
