%TF.GenerationSoftware,KiCad,Pcbnew,7.0.11*%
%TF.CreationDate,2025-01-20T02:06:32+09:00*%
%TF.ProjectId,IO,494f2e6b-6963-4616-945f-706362585858,rev?*%
%TF.SameCoordinates,Original*%
%TF.FileFunction,Drillmap*%
%TF.FilePolarity,Positive*%
%FSLAX45Y45*%
G04 Gerber Fmt 4.5, Leading zero omitted, Abs format (unit mm)*
G04 Created by KiCad (PCBNEW 7.0.11) date 2025-01-20 02:06:32*
%MOMM*%
%LPD*%
G01*
G04 APERTURE LIST*
%ADD10C,0.200000*%
%ADD11C,0.100000*%
%ADD12C,0.220000*%
%ADD13C,0.310000*%
%ADD14C,0.320000*%
%ADD15C,2.000000*%
G04 APERTURE END LIST*
D10*
X12116610Y-5796434D02*
G75*
G03*
X11796610Y-5796434I-160000J0D01*
G01*
X11796610Y-5796434D02*
G75*
G03*
X12116610Y-5796434I160000J0D01*
G01*
X14848036Y-5255364D02*
X14848036Y-6055364D01*
X13908036Y-5155364D02*
X14748036Y-5155364D01*
X12738036Y-5155364D02*
G75*
G03*
X12518036Y-5155364I-110000J0D01*
G01*
X12518036Y-5155364D02*
G75*
G03*
X12738036Y-5155364I110000J0D01*
G01*
X14848036Y-5255364D02*
G75*
G03*
X14748036Y-5155364I-99996J4D01*
G01*
X18503900Y-4889500D02*
G75*
G03*
X18283900Y-4889500I-110000J0D01*
G01*
X18283900Y-4889500D02*
G75*
G03*
X18503900Y-4889500I110000J0D01*
G01*
X13808036Y-6055364D02*
G75*
G03*
X13908036Y-6155364I100004J4D01*
G01*
X14748036Y-6155364D02*
X13908036Y-6155364D01*
X21328036Y-8955364D02*
G75*
G03*
X7328036Y-8955364I-7000000J0D01*
G01*
X7328036Y-8955364D02*
G75*
G03*
X21328036Y-8955364I7000000J0D01*
G01*
X17468036Y-7225364D02*
X17468036Y-12285364D01*
X13908036Y-5155356D02*
G75*
G03*
X13808036Y-5255364I4J-100004D01*
G01*
X16138036Y-5155364D02*
G75*
G03*
X15918036Y-5155364I-110000J0D01*
G01*
X15918036Y-5155364D02*
G75*
G03*
X16138036Y-5155364I110000J0D01*
G01*
X13808036Y-6055364D02*
X13808036Y-5255364D01*
X12938036Y-12588544D02*
G75*
G03*
X12618036Y-12588544I-160000J0D01*
G01*
X12618036Y-12588544D02*
G75*
G03*
X12938036Y-12588544I160000J0D01*
G01*
X18503900Y-13021228D02*
G75*
G03*
X18283900Y-13021228I-110000J0D01*
G01*
X18283900Y-13021228D02*
G75*
G03*
X18503900Y-13021228I110000J0D01*
G01*
X15328036Y-13655364D02*
G75*
G03*
X13328036Y-13655364I-1000000J0D01*
G01*
X13328036Y-13655364D02*
G75*
G03*
X15328036Y-13655364I1000000J0D01*
G01*
X10488036Y-12285364D02*
X10488036Y-7225364D01*
X17468036Y-12285364D02*
X10488036Y-12285364D01*
X16038036Y-12588544D02*
G75*
G03*
X15718036Y-12588544I-160000J0D01*
G01*
X15718036Y-12588544D02*
G75*
G03*
X16038036Y-12588544I160000J0D01*
G01*
X16859463Y-5796434D02*
G75*
G03*
X16539463Y-5796434I-160000J0D01*
G01*
X16539463Y-5796434D02*
G75*
G03*
X16859463Y-5796434I160000J0D01*
G01*
X14748036Y-6155356D02*
G75*
G03*
X14848036Y-6055364I4J99996D01*
G01*
X10488036Y-7225364D02*
X17468036Y-7225364D01*
X10372172Y-13021228D02*
G75*
G03*
X10152172Y-13021228I-110000J0D01*
G01*
X10152172Y-13021228D02*
G75*
G03*
X10372172Y-13021228I110000J0D01*
G01*
X10372172Y-4889500D02*
G75*
G03*
X10152172Y-4889500I-110000J0D01*
G01*
X10152172Y-4889500D02*
G75*
G03*
X10372172Y-4889500I110000J0D01*
G01*
D11*
X13932000Y-6594500D02*
X13990000Y-6652500D01*
X13990000Y-6594500D02*
X13932000Y-6652500D01*
X13982000Y-6594500D02*
X13940000Y-6594500D01*
X13940000Y-6594500D02*
G75*
G03*
X13940000Y-6652500I0J-29000D01*
G01*
X13940000Y-6652500D02*
X13982000Y-6652500D01*
X13982000Y-6652500D02*
G75*
G03*
X13982000Y-6594500I0J29000D01*
G01*
X14744000Y-6623500D02*
G75*
G03*
X14678000Y-6623500I-33000J0D01*
G01*
X14678000Y-6623500D02*
G75*
G03*
X14744000Y-6623500I33000J0D01*
G01*
D12*
X10262000Y-4779000D02*
X10262000Y-4999000D01*
X10152000Y-4889000D02*
X10372000Y-4889000D01*
X10263000Y-12911000D02*
X10263000Y-13131000D01*
X10153000Y-13021000D02*
X10373000Y-13021000D01*
X12629000Y-5046000D02*
X12629000Y-5266000D01*
X12519000Y-5156000D02*
X12739000Y-5156000D01*
X16029000Y-5047000D02*
X16029000Y-5267000D01*
X15919000Y-5157000D02*
X16139000Y-5157000D01*
X18395000Y-4778000D02*
X18395000Y-4998000D01*
X18285000Y-4888000D02*
X18505000Y-4888000D01*
X18395000Y-12910000D02*
X18395000Y-13130000D01*
X18285000Y-13020000D02*
X18505000Y-13020000D01*
D13*
X14455746Y-4701387D02*
X14455746Y-4482182D01*
X14236541Y-4482182D01*
X14236541Y-4701387D01*
X14455746Y-4701387D01*
D11*
X14501144Y-4651785D02*
X14501144Y-4531785D01*
X14501144Y-4531785D02*
G75*
G03*
X14191144Y-4531785I-155000J0D01*
G01*
X14191144Y-4531785D02*
X14191144Y-4651785D01*
X14191144Y-4651785D02*
G75*
G03*
X14501144Y-4651785I155000J0D01*
G01*
D14*
X11959000Y-5957000D02*
X12119000Y-5797000D01*
X11959000Y-5637000D01*
X11799000Y-5797000D01*
X11959000Y-5957000D01*
X12779000Y-12749000D02*
X12939000Y-12589000D01*
X12779000Y-12429000D01*
X12619000Y-12589000D01*
X12779000Y-12749000D01*
X15879000Y-12749000D02*
X16039000Y-12589000D01*
X15879000Y-12429000D01*
X15719000Y-12589000D01*
X15879000Y-12749000D01*
X16700000Y-5957000D02*
X16860000Y-5797000D01*
X16700000Y-5637000D01*
X16540000Y-5797000D01*
X16700000Y-5957000D01*
D15*
X13329000Y-12657000D02*
X15329000Y-14657000D01*
X15329000Y-12657000D02*
X13329000Y-14657000D01*
X15329000Y-13657000D02*
G75*
G03*
X13329000Y-13657000I-1000000J0D01*
G01*
X13329000Y-13657000D02*
G75*
G03*
X15329000Y-13657000I1000000J0D01*
G01*
D10*
X7578813Y-16276848D02*
X7578813Y-16076848D01*
X7578813Y-16076848D02*
X7626432Y-16076848D01*
X7626432Y-16076848D02*
X7655003Y-16086372D01*
X7655003Y-16086372D02*
X7674051Y-16105419D01*
X7674051Y-16105419D02*
X7683575Y-16124467D01*
X7683575Y-16124467D02*
X7693099Y-16162562D01*
X7693099Y-16162562D02*
X7693099Y-16191133D01*
X7693099Y-16191133D02*
X7683575Y-16229229D01*
X7683575Y-16229229D02*
X7674051Y-16248276D01*
X7674051Y-16248276D02*
X7655003Y-16267324D01*
X7655003Y-16267324D02*
X7626432Y-16276848D01*
X7626432Y-16276848D02*
X7578813Y-16276848D01*
X7778813Y-16276848D02*
X7778813Y-16143514D01*
X7778813Y-16181610D02*
X7788337Y-16162562D01*
X7788337Y-16162562D02*
X7797860Y-16153038D01*
X7797860Y-16153038D02*
X7816908Y-16143514D01*
X7816908Y-16143514D02*
X7835956Y-16143514D01*
X7902622Y-16276848D02*
X7902622Y-16143514D01*
X7902622Y-16076848D02*
X7893099Y-16086372D01*
X7893099Y-16086372D02*
X7902622Y-16095895D01*
X7902622Y-16095895D02*
X7912146Y-16086372D01*
X7912146Y-16086372D02*
X7902622Y-16076848D01*
X7902622Y-16076848D02*
X7902622Y-16095895D01*
X8026432Y-16276848D02*
X8007384Y-16267324D01*
X8007384Y-16267324D02*
X7997860Y-16248276D01*
X7997860Y-16248276D02*
X7997860Y-16076848D01*
X8131194Y-16276848D02*
X8112146Y-16267324D01*
X8112146Y-16267324D02*
X8102622Y-16248276D01*
X8102622Y-16248276D02*
X8102622Y-16076848D01*
X8359765Y-16276848D02*
X8359765Y-16076848D01*
X8359765Y-16076848D02*
X8426432Y-16219705D01*
X8426432Y-16219705D02*
X8493099Y-16076848D01*
X8493099Y-16076848D02*
X8493099Y-16276848D01*
X8674051Y-16276848D02*
X8674051Y-16172086D01*
X8674051Y-16172086D02*
X8664527Y-16153038D01*
X8664527Y-16153038D02*
X8645480Y-16143514D01*
X8645480Y-16143514D02*
X8607384Y-16143514D01*
X8607384Y-16143514D02*
X8588337Y-16153038D01*
X8674051Y-16267324D02*
X8655003Y-16276848D01*
X8655003Y-16276848D02*
X8607384Y-16276848D01*
X8607384Y-16276848D02*
X8588337Y-16267324D01*
X8588337Y-16267324D02*
X8578813Y-16248276D01*
X8578813Y-16248276D02*
X8578813Y-16229229D01*
X8578813Y-16229229D02*
X8588337Y-16210181D01*
X8588337Y-16210181D02*
X8607384Y-16200657D01*
X8607384Y-16200657D02*
X8655003Y-16200657D01*
X8655003Y-16200657D02*
X8674051Y-16191133D01*
X8769289Y-16143514D02*
X8769289Y-16343514D01*
X8769289Y-16153038D02*
X8788337Y-16143514D01*
X8788337Y-16143514D02*
X8826432Y-16143514D01*
X8826432Y-16143514D02*
X8845480Y-16153038D01*
X8845480Y-16153038D02*
X8855003Y-16162562D01*
X8855003Y-16162562D02*
X8864527Y-16181610D01*
X8864527Y-16181610D02*
X8864527Y-16238752D01*
X8864527Y-16238752D02*
X8855003Y-16257800D01*
X8855003Y-16257800D02*
X8845480Y-16267324D01*
X8845480Y-16267324D02*
X8826432Y-16276848D01*
X8826432Y-16276848D02*
X8788337Y-16276848D01*
X8788337Y-16276848D02*
X8769289Y-16267324D01*
X8950242Y-16257800D02*
X8959765Y-16267324D01*
X8959765Y-16267324D02*
X8950242Y-16276848D01*
X8950242Y-16276848D02*
X8940718Y-16267324D01*
X8940718Y-16267324D02*
X8950242Y-16257800D01*
X8950242Y-16257800D02*
X8950242Y-16276848D01*
X8950242Y-16153038D02*
X8959765Y-16162562D01*
X8959765Y-16162562D02*
X8950242Y-16172086D01*
X8950242Y-16172086D02*
X8940718Y-16162562D01*
X8940718Y-16162562D02*
X8950242Y-16153038D01*
X8950242Y-16153038D02*
X8950242Y-16172086D01*
D11*
X7260036Y-16576364D02*
X7318036Y-16634364D01*
X7318036Y-16576364D02*
X7260036Y-16634364D01*
D10*
X7616908Y-16496848D02*
X7635956Y-16496848D01*
X7635956Y-16496848D02*
X7655003Y-16506372D01*
X7655003Y-16506372D02*
X7664527Y-16515895D01*
X7664527Y-16515895D02*
X7674051Y-16534943D01*
X7674051Y-16534943D02*
X7683575Y-16573038D01*
X7683575Y-16573038D02*
X7683575Y-16620657D01*
X7683575Y-16620657D02*
X7674051Y-16658752D01*
X7674051Y-16658752D02*
X7664527Y-16677800D01*
X7664527Y-16677800D02*
X7655003Y-16687324D01*
X7655003Y-16687324D02*
X7635956Y-16696848D01*
X7635956Y-16696848D02*
X7616908Y-16696848D01*
X7616908Y-16696848D02*
X7597860Y-16687324D01*
X7597860Y-16687324D02*
X7588337Y-16677800D01*
X7588337Y-16677800D02*
X7578813Y-16658752D01*
X7578813Y-16658752D02*
X7569289Y-16620657D01*
X7569289Y-16620657D02*
X7569289Y-16573038D01*
X7569289Y-16573038D02*
X7578813Y-16534943D01*
X7578813Y-16534943D02*
X7588337Y-16515895D01*
X7588337Y-16515895D02*
X7597860Y-16506372D01*
X7597860Y-16506372D02*
X7616908Y-16496848D01*
X7769289Y-16677800D02*
X7778813Y-16687324D01*
X7778813Y-16687324D02*
X7769289Y-16696848D01*
X7769289Y-16696848D02*
X7759765Y-16687324D01*
X7759765Y-16687324D02*
X7769289Y-16677800D01*
X7769289Y-16677800D02*
X7769289Y-16696848D01*
X7959765Y-16496848D02*
X7864527Y-16496848D01*
X7864527Y-16496848D02*
X7855003Y-16592086D01*
X7855003Y-16592086D02*
X7864527Y-16582562D01*
X7864527Y-16582562D02*
X7883575Y-16573038D01*
X7883575Y-16573038D02*
X7931194Y-16573038D01*
X7931194Y-16573038D02*
X7950241Y-16582562D01*
X7950241Y-16582562D02*
X7959765Y-16592086D01*
X7959765Y-16592086D02*
X7969289Y-16611133D01*
X7969289Y-16611133D02*
X7969289Y-16658752D01*
X7969289Y-16658752D02*
X7959765Y-16677800D01*
X7959765Y-16677800D02*
X7950241Y-16687324D01*
X7950241Y-16687324D02*
X7931194Y-16696848D01*
X7931194Y-16696848D02*
X7883575Y-16696848D01*
X7883575Y-16696848D02*
X7864527Y-16687324D01*
X7864527Y-16687324D02*
X7855003Y-16677800D01*
X8083575Y-16582562D02*
X8064527Y-16573038D01*
X8064527Y-16573038D02*
X8055003Y-16563514D01*
X8055003Y-16563514D02*
X8045480Y-16544467D01*
X8045480Y-16544467D02*
X8045480Y-16534943D01*
X8045480Y-16534943D02*
X8055003Y-16515895D01*
X8055003Y-16515895D02*
X8064527Y-16506372D01*
X8064527Y-16506372D02*
X8083575Y-16496848D01*
X8083575Y-16496848D02*
X8121670Y-16496848D01*
X8121670Y-16496848D02*
X8140718Y-16506372D01*
X8140718Y-16506372D02*
X8150241Y-16515895D01*
X8150241Y-16515895D02*
X8159765Y-16534943D01*
X8159765Y-16534943D02*
X8159765Y-16544467D01*
X8159765Y-16544467D02*
X8150241Y-16563514D01*
X8150241Y-16563514D02*
X8140718Y-16573038D01*
X8140718Y-16573038D02*
X8121670Y-16582562D01*
X8121670Y-16582562D02*
X8083575Y-16582562D01*
X8083575Y-16582562D02*
X8064527Y-16592086D01*
X8064527Y-16592086D02*
X8055003Y-16601610D01*
X8055003Y-16601610D02*
X8045480Y-16620657D01*
X8045480Y-16620657D02*
X8045480Y-16658752D01*
X8045480Y-16658752D02*
X8055003Y-16677800D01*
X8055003Y-16677800D02*
X8064527Y-16687324D01*
X8064527Y-16687324D02*
X8083575Y-16696848D01*
X8083575Y-16696848D02*
X8121670Y-16696848D01*
X8121670Y-16696848D02*
X8140718Y-16687324D01*
X8140718Y-16687324D02*
X8150241Y-16677800D01*
X8150241Y-16677800D02*
X8159765Y-16658752D01*
X8159765Y-16658752D02*
X8159765Y-16620657D01*
X8159765Y-16620657D02*
X8150241Y-16601610D01*
X8150241Y-16601610D02*
X8140718Y-16592086D01*
X8140718Y-16592086D02*
X8121670Y-16582562D01*
X8283575Y-16496848D02*
X8302622Y-16496848D01*
X8302622Y-16496848D02*
X8321670Y-16506372D01*
X8321670Y-16506372D02*
X8331194Y-16515895D01*
X8331194Y-16515895D02*
X8340718Y-16534943D01*
X8340718Y-16534943D02*
X8350241Y-16573038D01*
X8350241Y-16573038D02*
X8350241Y-16620657D01*
X8350241Y-16620657D02*
X8340718Y-16658752D01*
X8340718Y-16658752D02*
X8331194Y-16677800D01*
X8331194Y-16677800D02*
X8321670Y-16687324D01*
X8321670Y-16687324D02*
X8302622Y-16696848D01*
X8302622Y-16696848D02*
X8283575Y-16696848D01*
X8283575Y-16696848D02*
X8264527Y-16687324D01*
X8264527Y-16687324D02*
X8255003Y-16677800D01*
X8255003Y-16677800D02*
X8245480Y-16658752D01*
X8245480Y-16658752D02*
X8235956Y-16620657D01*
X8235956Y-16620657D02*
X8235956Y-16573038D01*
X8235956Y-16573038D02*
X8245480Y-16534943D01*
X8245480Y-16534943D02*
X8255003Y-16515895D01*
X8255003Y-16515895D02*
X8264527Y-16506372D01*
X8264527Y-16506372D02*
X8283575Y-16496848D01*
X8435956Y-16696848D02*
X8435956Y-16563514D01*
X8435956Y-16582562D02*
X8445480Y-16573038D01*
X8445480Y-16573038D02*
X8464527Y-16563514D01*
X8464527Y-16563514D02*
X8493099Y-16563514D01*
X8493099Y-16563514D02*
X8512146Y-16573038D01*
X8512146Y-16573038D02*
X8521670Y-16592086D01*
X8521670Y-16592086D02*
X8521670Y-16696848D01*
X8521670Y-16592086D02*
X8531194Y-16573038D01*
X8531194Y-16573038D02*
X8550242Y-16563514D01*
X8550242Y-16563514D02*
X8578813Y-16563514D01*
X8578813Y-16563514D02*
X8597861Y-16573038D01*
X8597861Y-16573038D02*
X8607384Y-16592086D01*
X8607384Y-16592086D02*
X8607384Y-16696848D01*
X8702623Y-16696848D02*
X8702623Y-16563514D01*
X8702623Y-16582562D02*
X8712146Y-16573038D01*
X8712146Y-16573038D02*
X8731194Y-16563514D01*
X8731194Y-16563514D02*
X8759765Y-16563514D01*
X8759765Y-16563514D02*
X8778813Y-16573038D01*
X8778813Y-16573038D02*
X8788337Y-16592086D01*
X8788337Y-16592086D02*
X8788337Y-16696848D01*
X8788337Y-16592086D02*
X8797861Y-16573038D01*
X8797861Y-16573038D02*
X8816908Y-16563514D01*
X8816908Y-16563514D02*
X8845480Y-16563514D01*
X8845480Y-16563514D02*
X8864527Y-16573038D01*
X8864527Y-16573038D02*
X8874051Y-16592086D01*
X8874051Y-16592086D02*
X8874051Y-16696848D01*
X9264527Y-16487324D02*
X9093099Y-16744467D01*
X9521670Y-16496848D02*
X9540718Y-16496848D01*
X9540718Y-16496848D02*
X9559766Y-16506372D01*
X9559766Y-16506372D02*
X9569289Y-16515895D01*
X9569289Y-16515895D02*
X9578813Y-16534943D01*
X9578813Y-16534943D02*
X9588337Y-16573038D01*
X9588337Y-16573038D02*
X9588337Y-16620657D01*
X9588337Y-16620657D02*
X9578813Y-16658752D01*
X9578813Y-16658752D02*
X9569289Y-16677800D01*
X9569289Y-16677800D02*
X9559766Y-16687324D01*
X9559766Y-16687324D02*
X9540718Y-16696848D01*
X9540718Y-16696848D02*
X9521670Y-16696848D01*
X9521670Y-16696848D02*
X9502623Y-16687324D01*
X9502623Y-16687324D02*
X9493099Y-16677800D01*
X9493099Y-16677800D02*
X9483575Y-16658752D01*
X9483575Y-16658752D02*
X9474051Y-16620657D01*
X9474051Y-16620657D02*
X9474051Y-16573038D01*
X9474051Y-16573038D02*
X9483575Y-16534943D01*
X9483575Y-16534943D02*
X9493099Y-16515895D01*
X9493099Y-16515895D02*
X9502623Y-16506372D01*
X9502623Y-16506372D02*
X9521670Y-16496848D01*
X9674051Y-16677800D02*
X9683575Y-16687324D01*
X9683575Y-16687324D02*
X9674051Y-16696848D01*
X9674051Y-16696848D02*
X9664527Y-16687324D01*
X9664527Y-16687324D02*
X9674051Y-16677800D01*
X9674051Y-16677800D02*
X9674051Y-16696848D01*
X9807385Y-16496848D02*
X9826432Y-16496848D01*
X9826432Y-16496848D02*
X9845480Y-16506372D01*
X9845480Y-16506372D02*
X9855004Y-16515895D01*
X9855004Y-16515895D02*
X9864527Y-16534943D01*
X9864527Y-16534943D02*
X9874051Y-16573038D01*
X9874051Y-16573038D02*
X9874051Y-16620657D01*
X9874051Y-16620657D02*
X9864527Y-16658752D01*
X9864527Y-16658752D02*
X9855004Y-16677800D01*
X9855004Y-16677800D02*
X9845480Y-16687324D01*
X9845480Y-16687324D02*
X9826432Y-16696848D01*
X9826432Y-16696848D02*
X9807385Y-16696848D01*
X9807385Y-16696848D02*
X9788337Y-16687324D01*
X9788337Y-16687324D02*
X9778813Y-16677800D01*
X9778813Y-16677800D02*
X9769289Y-16658752D01*
X9769289Y-16658752D02*
X9759766Y-16620657D01*
X9759766Y-16620657D02*
X9759766Y-16573038D01*
X9759766Y-16573038D02*
X9769289Y-16534943D01*
X9769289Y-16534943D02*
X9778813Y-16515895D01*
X9778813Y-16515895D02*
X9788337Y-16506372D01*
X9788337Y-16506372D02*
X9807385Y-16496848D01*
X9950242Y-16515895D02*
X9959766Y-16506372D01*
X9959766Y-16506372D02*
X9978813Y-16496848D01*
X9978813Y-16496848D02*
X10026432Y-16496848D01*
X10026432Y-16496848D02*
X10045480Y-16506372D01*
X10045480Y-16506372D02*
X10055004Y-16515895D01*
X10055004Y-16515895D02*
X10064527Y-16534943D01*
X10064527Y-16534943D02*
X10064527Y-16553991D01*
X10064527Y-16553991D02*
X10055004Y-16582562D01*
X10055004Y-16582562D02*
X9940718Y-16696848D01*
X9940718Y-16696848D02*
X10064527Y-16696848D01*
X10140718Y-16515895D02*
X10150242Y-16506372D01*
X10150242Y-16506372D02*
X10169289Y-16496848D01*
X10169289Y-16496848D02*
X10216908Y-16496848D01*
X10216908Y-16496848D02*
X10235956Y-16506372D01*
X10235956Y-16506372D02*
X10245480Y-16515895D01*
X10245480Y-16515895D02*
X10255004Y-16534943D01*
X10255004Y-16534943D02*
X10255004Y-16553991D01*
X10255004Y-16553991D02*
X10245480Y-16582562D01*
X10245480Y-16582562D02*
X10131194Y-16696848D01*
X10131194Y-16696848D02*
X10255004Y-16696848D01*
X10369289Y-16582562D02*
X10350242Y-16573038D01*
X10350242Y-16573038D02*
X10340718Y-16563514D01*
X10340718Y-16563514D02*
X10331194Y-16544467D01*
X10331194Y-16544467D02*
X10331194Y-16534943D01*
X10331194Y-16534943D02*
X10340718Y-16515895D01*
X10340718Y-16515895D02*
X10350242Y-16506372D01*
X10350242Y-16506372D02*
X10369289Y-16496848D01*
X10369289Y-16496848D02*
X10407385Y-16496848D01*
X10407385Y-16496848D02*
X10426432Y-16506372D01*
X10426432Y-16506372D02*
X10435956Y-16515895D01*
X10435956Y-16515895D02*
X10445480Y-16534943D01*
X10445480Y-16534943D02*
X10445480Y-16544467D01*
X10445480Y-16544467D02*
X10435956Y-16563514D01*
X10435956Y-16563514D02*
X10426432Y-16573038D01*
X10426432Y-16573038D02*
X10407385Y-16582562D01*
X10407385Y-16582562D02*
X10369289Y-16582562D01*
X10369289Y-16582562D02*
X10350242Y-16592086D01*
X10350242Y-16592086D02*
X10340718Y-16601610D01*
X10340718Y-16601610D02*
X10331194Y-16620657D01*
X10331194Y-16620657D02*
X10331194Y-16658752D01*
X10331194Y-16658752D02*
X10340718Y-16677800D01*
X10340718Y-16677800D02*
X10350242Y-16687324D01*
X10350242Y-16687324D02*
X10369289Y-16696848D01*
X10369289Y-16696848D02*
X10407385Y-16696848D01*
X10407385Y-16696848D02*
X10426432Y-16687324D01*
X10426432Y-16687324D02*
X10435956Y-16677800D01*
X10435956Y-16677800D02*
X10445480Y-16658752D01*
X10445480Y-16658752D02*
X10445480Y-16620657D01*
X10445480Y-16620657D02*
X10435956Y-16601610D01*
X10435956Y-16601610D02*
X10426432Y-16592086D01*
X10426432Y-16592086D02*
X10407385Y-16582562D01*
X10521670Y-16496848D02*
X10521670Y-16534943D01*
X10597861Y-16496848D02*
X10597861Y-16534943D01*
X10893099Y-16773038D02*
X10883575Y-16763514D01*
X10883575Y-16763514D02*
X10864528Y-16734943D01*
X10864528Y-16734943D02*
X10855004Y-16715895D01*
X10855004Y-16715895D02*
X10845480Y-16687324D01*
X10845480Y-16687324D02*
X10835956Y-16639705D01*
X10835956Y-16639705D02*
X10835956Y-16601610D01*
X10835956Y-16601610D02*
X10845480Y-16553991D01*
X10845480Y-16553991D02*
X10855004Y-16525419D01*
X10855004Y-16525419D02*
X10864528Y-16506372D01*
X10864528Y-16506372D02*
X10883575Y-16477800D01*
X10883575Y-16477800D02*
X10893099Y-16468276D01*
X11074051Y-16696848D02*
X10959766Y-16696848D01*
X11016908Y-16696848D02*
X11016908Y-16496848D01*
X11016908Y-16496848D02*
X10997861Y-16525419D01*
X10997861Y-16525419D02*
X10978813Y-16544467D01*
X10978813Y-16544467D02*
X10959766Y-16553991D01*
X11302623Y-16687324D02*
X11321670Y-16696848D01*
X11321670Y-16696848D02*
X11359766Y-16696848D01*
X11359766Y-16696848D02*
X11378813Y-16687324D01*
X11378813Y-16687324D02*
X11388337Y-16668276D01*
X11388337Y-16668276D02*
X11388337Y-16658752D01*
X11388337Y-16658752D02*
X11378813Y-16639705D01*
X11378813Y-16639705D02*
X11359766Y-16630181D01*
X11359766Y-16630181D02*
X11331194Y-16630181D01*
X11331194Y-16630181D02*
X11312147Y-16620657D01*
X11312147Y-16620657D02*
X11302623Y-16601610D01*
X11302623Y-16601610D02*
X11302623Y-16592086D01*
X11302623Y-16592086D02*
X11312147Y-16573038D01*
X11312147Y-16573038D02*
X11331194Y-16563514D01*
X11331194Y-16563514D02*
X11359766Y-16563514D01*
X11359766Y-16563514D02*
X11378813Y-16573038D01*
X11502623Y-16696848D02*
X11483575Y-16687324D01*
X11483575Y-16687324D02*
X11474051Y-16668276D01*
X11474051Y-16668276D02*
X11474051Y-16496848D01*
X11607385Y-16696848D02*
X11588337Y-16687324D01*
X11588337Y-16687324D02*
X11578813Y-16677800D01*
X11578813Y-16677800D02*
X11569289Y-16658752D01*
X11569289Y-16658752D02*
X11569289Y-16601610D01*
X11569289Y-16601610D02*
X11578813Y-16582562D01*
X11578813Y-16582562D02*
X11588337Y-16573038D01*
X11588337Y-16573038D02*
X11607385Y-16563514D01*
X11607385Y-16563514D02*
X11635956Y-16563514D01*
X11635956Y-16563514D02*
X11655004Y-16573038D01*
X11655004Y-16573038D02*
X11664528Y-16582562D01*
X11664528Y-16582562D02*
X11674051Y-16601610D01*
X11674051Y-16601610D02*
X11674051Y-16658752D01*
X11674051Y-16658752D02*
X11664528Y-16677800D01*
X11664528Y-16677800D02*
X11655004Y-16687324D01*
X11655004Y-16687324D02*
X11635956Y-16696848D01*
X11635956Y-16696848D02*
X11607385Y-16696848D01*
X11731194Y-16563514D02*
X11807385Y-16563514D01*
X11759766Y-16496848D02*
X11759766Y-16668276D01*
X11759766Y-16668276D02*
X11769289Y-16687324D01*
X11769289Y-16687324D02*
X11788337Y-16696848D01*
X11788337Y-16696848D02*
X11807385Y-16696848D01*
X11855004Y-16773038D02*
X11864528Y-16763514D01*
X11864528Y-16763514D02*
X11883575Y-16734943D01*
X11883575Y-16734943D02*
X11893099Y-16715895D01*
X11893099Y-16715895D02*
X11902623Y-16687324D01*
X11902623Y-16687324D02*
X11912147Y-16639705D01*
X11912147Y-16639705D02*
X11912147Y-16601610D01*
X11912147Y-16601610D02*
X11902623Y-16553991D01*
X11902623Y-16553991D02*
X11893099Y-16525419D01*
X11893099Y-16525419D02*
X11883575Y-16506372D01*
X11883575Y-16506372D02*
X11864528Y-16477800D01*
X11864528Y-16477800D02*
X11855004Y-16468276D01*
X12216909Y-16773038D02*
X12207385Y-16763514D01*
X12207385Y-16763514D02*
X12188337Y-16734943D01*
X12188337Y-16734943D02*
X12178813Y-16715895D01*
X12178813Y-16715895D02*
X12169289Y-16687324D01*
X12169289Y-16687324D02*
X12159766Y-16639705D01*
X12159766Y-16639705D02*
X12159766Y-16601610D01*
X12159766Y-16601610D02*
X12169289Y-16553991D01*
X12169289Y-16553991D02*
X12178813Y-16525419D01*
X12178813Y-16525419D02*
X12188337Y-16506372D01*
X12188337Y-16506372D02*
X12207385Y-16477800D01*
X12207385Y-16477800D02*
X12216909Y-16468276D01*
X12293099Y-16563514D02*
X12293099Y-16696848D01*
X12293099Y-16582562D02*
X12302623Y-16573038D01*
X12302623Y-16573038D02*
X12321670Y-16563514D01*
X12321670Y-16563514D02*
X12350242Y-16563514D01*
X12350242Y-16563514D02*
X12369289Y-16573038D01*
X12369289Y-16573038D02*
X12378813Y-16592086D01*
X12378813Y-16592086D02*
X12378813Y-16696848D01*
X12502623Y-16696848D02*
X12483575Y-16687324D01*
X12483575Y-16687324D02*
X12474051Y-16677800D01*
X12474051Y-16677800D02*
X12464528Y-16658752D01*
X12464528Y-16658752D02*
X12464528Y-16601610D01*
X12464528Y-16601610D02*
X12474051Y-16582562D01*
X12474051Y-16582562D02*
X12483575Y-16573038D01*
X12483575Y-16573038D02*
X12502623Y-16563514D01*
X12502623Y-16563514D02*
X12531194Y-16563514D01*
X12531194Y-16563514D02*
X12550242Y-16573038D01*
X12550242Y-16573038D02*
X12559766Y-16582562D01*
X12559766Y-16582562D02*
X12569289Y-16601610D01*
X12569289Y-16601610D02*
X12569289Y-16658752D01*
X12569289Y-16658752D02*
X12559766Y-16677800D01*
X12559766Y-16677800D02*
X12550242Y-16687324D01*
X12550242Y-16687324D02*
X12531194Y-16696848D01*
X12531194Y-16696848D02*
X12502623Y-16696848D01*
X12626432Y-16563514D02*
X12702623Y-16563514D01*
X12655004Y-16496848D02*
X12655004Y-16668276D01*
X12655004Y-16668276D02*
X12664528Y-16687324D01*
X12664528Y-16687324D02*
X12683575Y-16696848D01*
X12683575Y-16696848D02*
X12702623Y-16696848D01*
X12921670Y-16563514D02*
X12921670Y-16763514D01*
X12921670Y-16573038D02*
X12940718Y-16563514D01*
X12940718Y-16563514D02*
X12978813Y-16563514D01*
X12978813Y-16563514D02*
X12997861Y-16573038D01*
X12997861Y-16573038D02*
X13007385Y-16582562D01*
X13007385Y-16582562D02*
X13016909Y-16601610D01*
X13016909Y-16601610D02*
X13016909Y-16658752D01*
X13016909Y-16658752D02*
X13007385Y-16677800D01*
X13007385Y-16677800D02*
X12997861Y-16687324D01*
X12997861Y-16687324D02*
X12978813Y-16696848D01*
X12978813Y-16696848D02*
X12940718Y-16696848D01*
X12940718Y-16696848D02*
X12921670Y-16687324D01*
X13131194Y-16696848D02*
X13112147Y-16687324D01*
X13112147Y-16687324D02*
X13102623Y-16668276D01*
X13102623Y-16668276D02*
X13102623Y-16496848D01*
X13293099Y-16696848D02*
X13293099Y-16592086D01*
X13293099Y-16592086D02*
X13283575Y-16573038D01*
X13283575Y-16573038D02*
X13264528Y-16563514D01*
X13264528Y-16563514D02*
X13226432Y-16563514D01*
X13226432Y-16563514D02*
X13207385Y-16573038D01*
X13293099Y-16687324D02*
X13274051Y-16696848D01*
X13274051Y-16696848D02*
X13226432Y-16696848D01*
X13226432Y-16696848D02*
X13207385Y-16687324D01*
X13207385Y-16687324D02*
X13197861Y-16668276D01*
X13197861Y-16668276D02*
X13197861Y-16649229D01*
X13197861Y-16649229D02*
X13207385Y-16630181D01*
X13207385Y-16630181D02*
X13226432Y-16620657D01*
X13226432Y-16620657D02*
X13274051Y-16620657D01*
X13274051Y-16620657D02*
X13293099Y-16611133D01*
X13359766Y-16563514D02*
X13435956Y-16563514D01*
X13388337Y-16496848D02*
X13388337Y-16668276D01*
X13388337Y-16668276D02*
X13397861Y-16687324D01*
X13397861Y-16687324D02*
X13416909Y-16696848D01*
X13416909Y-16696848D02*
X13435956Y-16696848D01*
X13578813Y-16687324D02*
X13559766Y-16696848D01*
X13559766Y-16696848D02*
X13521670Y-16696848D01*
X13521670Y-16696848D02*
X13502623Y-16687324D01*
X13502623Y-16687324D02*
X13493099Y-16668276D01*
X13493099Y-16668276D02*
X13493099Y-16592086D01*
X13493099Y-16592086D02*
X13502623Y-16573038D01*
X13502623Y-16573038D02*
X13521670Y-16563514D01*
X13521670Y-16563514D02*
X13559766Y-16563514D01*
X13559766Y-16563514D02*
X13578813Y-16573038D01*
X13578813Y-16573038D02*
X13588337Y-16592086D01*
X13588337Y-16592086D02*
X13588337Y-16611133D01*
X13588337Y-16611133D02*
X13493099Y-16630181D01*
X13759766Y-16696848D02*
X13759766Y-16496848D01*
X13759766Y-16687324D02*
X13740718Y-16696848D01*
X13740718Y-16696848D02*
X13702623Y-16696848D01*
X13702623Y-16696848D02*
X13683575Y-16687324D01*
X13683575Y-16687324D02*
X13674051Y-16677800D01*
X13674051Y-16677800D02*
X13664528Y-16658752D01*
X13664528Y-16658752D02*
X13664528Y-16601610D01*
X13664528Y-16601610D02*
X13674051Y-16582562D01*
X13674051Y-16582562D02*
X13683575Y-16573038D01*
X13683575Y-16573038D02*
X13702623Y-16563514D01*
X13702623Y-16563514D02*
X13740718Y-16563514D01*
X13740718Y-16563514D02*
X13759766Y-16573038D01*
X13835956Y-16773038D02*
X13845480Y-16763514D01*
X13845480Y-16763514D02*
X13864528Y-16734943D01*
X13864528Y-16734943D02*
X13874051Y-16715895D01*
X13874051Y-16715895D02*
X13883575Y-16687324D01*
X13883575Y-16687324D02*
X13893099Y-16639705D01*
X13893099Y-16639705D02*
X13893099Y-16601610D01*
X13893099Y-16601610D02*
X13883575Y-16553991D01*
X13883575Y-16553991D02*
X13874051Y-16525419D01*
X13874051Y-16525419D02*
X13864528Y-16506372D01*
X13864528Y-16506372D02*
X13845480Y-16477800D01*
X13845480Y-16477800D02*
X13835956Y-16468276D01*
D11*
X7318036Y-16869364D02*
G75*
G03*
X7252036Y-16869364I-33000J0D01*
G01*
X7252036Y-16869364D02*
G75*
G03*
X7318036Y-16869364I33000J0D01*
G01*
D10*
X7616908Y-16760848D02*
X7635956Y-16760848D01*
X7635956Y-16760848D02*
X7655003Y-16770372D01*
X7655003Y-16770372D02*
X7664527Y-16779895D01*
X7664527Y-16779895D02*
X7674051Y-16798943D01*
X7674051Y-16798943D02*
X7683575Y-16837038D01*
X7683575Y-16837038D02*
X7683575Y-16884657D01*
X7683575Y-16884657D02*
X7674051Y-16922753D01*
X7674051Y-16922753D02*
X7664527Y-16941800D01*
X7664527Y-16941800D02*
X7655003Y-16951324D01*
X7655003Y-16951324D02*
X7635956Y-16960848D01*
X7635956Y-16960848D02*
X7616908Y-16960848D01*
X7616908Y-16960848D02*
X7597860Y-16951324D01*
X7597860Y-16951324D02*
X7588337Y-16941800D01*
X7588337Y-16941800D02*
X7578813Y-16922753D01*
X7578813Y-16922753D02*
X7569289Y-16884657D01*
X7569289Y-16884657D02*
X7569289Y-16837038D01*
X7569289Y-16837038D02*
X7578813Y-16798943D01*
X7578813Y-16798943D02*
X7588337Y-16779895D01*
X7588337Y-16779895D02*
X7597860Y-16770372D01*
X7597860Y-16770372D02*
X7616908Y-16760848D01*
X7769289Y-16941800D02*
X7778813Y-16951324D01*
X7778813Y-16951324D02*
X7769289Y-16960848D01*
X7769289Y-16960848D02*
X7759765Y-16951324D01*
X7759765Y-16951324D02*
X7769289Y-16941800D01*
X7769289Y-16941800D02*
X7769289Y-16960848D01*
X7950241Y-16760848D02*
X7912146Y-16760848D01*
X7912146Y-16760848D02*
X7893099Y-16770372D01*
X7893099Y-16770372D02*
X7883575Y-16779895D01*
X7883575Y-16779895D02*
X7864527Y-16808467D01*
X7864527Y-16808467D02*
X7855003Y-16846562D01*
X7855003Y-16846562D02*
X7855003Y-16922753D01*
X7855003Y-16922753D02*
X7864527Y-16941800D01*
X7864527Y-16941800D02*
X7874051Y-16951324D01*
X7874051Y-16951324D02*
X7893099Y-16960848D01*
X7893099Y-16960848D02*
X7931194Y-16960848D01*
X7931194Y-16960848D02*
X7950241Y-16951324D01*
X7950241Y-16951324D02*
X7959765Y-16941800D01*
X7959765Y-16941800D02*
X7969289Y-16922753D01*
X7969289Y-16922753D02*
X7969289Y-16875134D01*
X7969289Y-16875134D02*
X7959765Y-16856086D01*
X7959765Y-16856086D02*
X7950241Y-16846562D01*
X7950241Y-16846562D02*
X7931194Y-16837038D01*
X7931194Y-16837038D02*
X7893099Y-16837038D01*
X7893099Y-16837038D02*
X7874051Y-16846562D01*
X7874051Y-16846562D02*
X7864527Y-16856086D01*
X7864527Y-16856086D02*
X7855003Y-16875134D01*
X8140718Y-16760848D02*
X8102622Y-16760848D01*
X8102622Y-16760848D02*
X8083575Y-16770372D01*
X8083575Y-16770372D02*
X8074051Y-16779895D01*
X8074051Y-16779895D02*
X8055003Y-16808467D01*
X8055003Y-16808467D02*
X8045480Y-16846562D01*
X8045480Y-16846562D02*
X8045480Y-16922753D01*
X8045480Y-16922753D02*
X8055003Y-16941800D01*
X8055003Y-16941800D02*
X8064527Y-16951324D01*
X8064527Y-16951324D02*
X8083575Y-16960848D01*
X8083575Y-16960848D02*
X8121670Y-16960848D01*
X8121670Y-16960848D02*
X8140718Y-16951324D01*
X8140718Y-16951324D02*
X8150241Y-16941800D01*
X8150241Y-16941800D02*
X8159765Y-16922753D01*
X8159765Y-16922753D02*
X8159765Y-16875134D01*
X8159765Y-16875134D02*
X8150241Y-16856086D01*
X8150241Y-16856086D02*
X8140718Y-16846562D01*
X8140718Y-16846562D02*
X8121670Y-16837038D01*
X8121670Y-16837038D02*
X8083575Y-16837038D01*
X8083575Y-16837038D02*
X8064527Y-16846562D01*
X8064527Y-16846562D02*
X8055003Y-16856086D01*
X8055003Y-16856086D02*
X8045480Y-16875134D01*
X8283575Y-16760848D02*
X8302622Y-16760848D01*
X8302622Y-16760848D02*
X8321670Y-16770372D01*
X8321670Y-16770372D02*
X8331194Y-16779895D01*
X8331194Y-16779895D02*
X8340718Y-16798943D01*
X8340718Y-16798943D02*
X8350241Y-16837038D01*
X8350241Y-16837038D02*
X8350241Y-16884657D01*
X8350241Y-16884657D02*
X8340718Y-16922753D01*
X8340718Y-16922753D02*
X8331194Y-16941800D01*
X8331194Y-16941800D02*
X8321670Y-16951324D01*
X8321670Y-16951324D02*
X8302622Y-16960848D01*
X8302622Y-16960848D02*
X8283575Y-16960848D01*
X8283575Y-16960848D02*
X8264527Y-16951324D01*
X8264527Y-16951324D02*
X8255003Y-16941800D01*
X8255003Y-16941800D02*
X8245480Y-16922753D01*
X8245480Y-16922753D02*
X8235956Y-16884657D01*
X8235956Y-16884657D02*
X8235956Y-16837038D01*
X8235956Y-16837038D02*
X8245480Y-16798943D01*
X8245480Y-16798943D02*
X8255003Y-16779895D01*
X8255003Y-16779895D02*
X8264527Y-16770372D01*
X8264527Y-16770372D02*
X8283575Y-16760848D01*
X8435956Y-16960848D02*
X8435956Y-16827514D01*
X8435956Y-16846562D02*
X8445480Y-16837038D01*
X8445480Y-16837038D02*
X8464527Y-16827514D01*
X8464527Y-16827514D02*
X8493099Y-16827514D01*
X8493099Y-16827514D02*
X8512146Y-16837038D01*
X8512146Y-16837038D02*
X8521670Y-16856086D01*
X8521670Y-16856086D02*
X8521670Y-16960848D01*
X8521670Y-16856086D02*
X8531194Y-16837038D01*
X8531194Y-16837038D02*
X8550242Y-16827514D01*
X8550242Y-16827514D02*
X8578813Y-16827514D01*
X8578813Y-16827514D02*
X8597861Y-16837038D01*
X8597861Y-16837038D02*
X8607384Y-16856086D01*
X8607384Y-16856086D02*
X8607384Y-16960848D01*
X8702623Y-16960848D02*
X8702623Y-16827514D01*
X8702623Y-16846562D02*
X8712146Y-16837038D01*
X8712146Y-16837038D02*
X8731194Y-16827514D01*
X8731194Y-16827514D02*
X8759765Y-16827514D01*
X8759765Y-16827514D02*
X8778813Y-16837038D01*
X8778813Y-16837038D02*
X8788337Y-16856086D01*
X8788337Y-16856086D02*
X8788337Y-16960848D01*
X8788337Y-16856086D02*
X8797861Y-16837038D01*
X8797861Y-16837038D02*
X8816908Y-16827514D01*
X8816908Y-16827514D02*
X8845480Y-16827514D01*
X8845480Y-16827514D02*
X8864527Y-16837038D01*
X8864527Y-16837038D02*
X8874051Y-16856086D01*
X8874051Y-16856086D02*
X8874051Y-16960848D01*
X9264527Y-16751324D02*
X9093099Y-17008467D01*
X9521670Y-16760848D02*
X9540718Y-16760848D01*
X9540718Y-16760848D02*
X9559766Y-16770372D01*
X9559766Y-16770372D02*
X9569289Y-16779895D01*
X9569289Y-16779895D02*
X9578813Y-16798943D01*
X9578813Y-16798943D02*
X9588337Y-16837038D01*
X9588337Y-16837038D02*
X9588337Y-16884657D01*
X9588337Y-16884657D02*
X9578813Y-16922753D01*
X9578813Y-16922753D02*
X9569289Y-16941800D01*
X9569289Y-16941800D02*
X9559766Y-16951324D01*
X9559766Y-16951324D02*
X9540718Y-16960848D01*
X9540718Y-16960848D02*
X9521670Y-16960848D01*
X9521670Y-16960848D02*
X9502623Y-16951324D01*
X9502623Y-16951324D02*
X9493099Y-16941800D01*
X9493099Y-16941800D02*
X9483575Y-16922753D01*
X9483575Y-16922753D02*
X9474051Y-16884657D01*
X9474051Y-16884657D02*
X9474051Y-16837038D01*
X9474051Y-16837038D02*
X9483575Y-16798943D01*
X9483575Y-16798943D02*
X9493099Y-16779895D01*
X9493099Y-16779895D02*
X9502623Y-16770372D01*
X9502623Y-16770372D02*
X9521670Y-16760848D01*
X9674051Y-16941800D02*
X9683575Y-16951324D01*
X9683575Y-16951324D02*
X9674051Y-16960848D01*
X9674051Y-16960848D02*
X9664527Y-16951324D01*
X9664527Y-16951324D02*
X9674051Y-16941800D01*
X9674051Y-16941800D02*
X9674051Y-16960848D01*
X9807385Y-16760848D02*
X9826432Y-16760848D01*
X9826432Y-16760848D02*
X9845480Y-16770372D01*
X9845480Y-16770372D02*
X9855004Y-16779895D01*
X9855004Y-16779895D02*
X9864527Y-16798943D01*
X9864527Y-16798943D02*
X9874051Y-16837038D01*
X9874051Y-16837038D02*
X9874051Y-16884657D01*
X9874051Y-16884657D02*
X9864527Y-16922753D01*
X9864527Y-16922753D02*
X9855004Y-16941800D01*
X9855004Y-16941800D02*
X9845480Y-16951324D01*
X9845480Y-16951324D02*
X9826432Y-16960848D01*
X9826432Y-16960848D02*
X9807385Y-16960848D01*
X9807385Y-16960848D02*
X9788337Y-16951324D01*
X9788337Y-16951324D02*
X9778813Y-16941800D01*
X9778813Y-16941800D02*
X9769289Y-16922753D01*
X9769289Y-16922753D02*
X9759766Y-16884657D01*
X9759766Y-16884657D02*
X9759766Y-16837038D01*
X9759766Y-16837038D02*
X9769289Y-16798943D01*
X9769289Y-16798943D02*
X9778813Y-16779895D01*
X9778813Y-16779895D02*
X9788337Y-16770372D01*
X9788337Y-16770372D02*
X9807385Y-16760848D01*
X9950242Y-16779895D02*
X9959766Y-16770372D01*
X9959766Y-16770372D02*
X9978813Y-16760848D01*
X9978813Y-16760848D02*
X10026432Y-16760848D01*
X10026432Y-16760848D02*
X10045480Y-16770372D01*
X10045480Y-16770372D02*
X10055004Y-16779895D01*
X10055004Y-16779895D02*
X10064527Y-16798943D01*
X10064527Y-16798943D02*
X10064527Y-16817991D01*
X10064527Y-16817991D02*
X10055004Y-16846562D01*
X10055004Y-16846562D02*
X9940718Y-16960848D01*
X9940718Y-16960848D02*
X10064527Y-16960848D01*
X10235956Y-16760848D02*
X10197861Y-16760848D01*
X10197861Y-16760848D02*
X10178813Y-16770372D01*
X10178813Y-16770372D02*
X10169289Y-16779895D01*
X10169289Y-16779895D02*
X10150242Y-16808467D01*
X10150242Y-16808467D02*
X10140718Y-16846562D01*
X10140718Y-16846562D02*
X10140718Y-16922753D01*
X10140718Y-16922753D02*
X10150242Y-16941800D01*
X10150242Y-16941800D02*
X10159766Y-16951324D01*
X10159766Y-16951324D02*
X10178813Y-16960848D01*
X10178813Y-16960848D02*
X10216908Y-16960848D01*
X10216908Y-16960848D02*
X10235956Y-16951324D01*
X10235956Y-16951324D02*
X10245480Y-16941800D01*
X10245480Y-16941800D02*
X10255004Y-16922753D01*
X10255004Y-16922753D02*
X10255004Y-16875134D01*
X10255004Y-16875134D02*
X10245480Y-16856086D01*
X10245480Y-16856086D02*
X10235956Y-16846562D01*
X10235956Y-16846562D02*
X10216908Y-16837038D01*
X10216908Y-16837038D02*
X10178813Y-16837038D01*
X10178813Y-16837038D02*
X10159766Y-16846562D01*
X10159766Y-16846562D02*
X10150242Y-16856086D01*
X10150242Y-16856086D02*
X10140718Y-16875134D01*
X10378813Y-16760848D02*
X10397861Y-16760848D01*
X10397861Y-16760848D02*
X10416908Y-16770372D01*
X10416908Y-16770372D02*
X10426432Y-16779895D01*
X10426432Y-16779895D02*
X10435956Y-16798943D01*
X10435956Y-16798943D02*
X10445480Y-16837038D01*
X10445480Y-16837038D02*
X10445480Y-16884657D01*
X10445480Y-16884657D02*
X10435956Y-16922753D01*
X10435956Y-16922753D02*
X10426432Y-16941800D01*
X10426432Y-16941800D02*
X10416908Y-16951324D01*
X10416908Y-16951324D02*
X10397861Y-16960848D01*
X10397861Y-16960848D02*
X10378813Y-16960848D01*
X10378813Y-16960848D02*
X10359766Y-16951324D01*
X10359766Y-16951324D02*
X10350242Y-16941800D01*
X10350242Y-16941800D02*
X10340718Y-16922753D01*
X10340718Y-16922753D02*
X10331194Y-16884657D01*
X10331194Y-16884657D02*
X10331194Y-16837038D01*
X10331194Y-16837038D02*
X10340718Y-16798943D01*
X10340718Y-16798943D02*
X10350242Y-16779895D01*
X10350242Y-16779895D02*
X10359766Y-16770372D01*
X10359766Y-16770372D02*
X10378813Y-16760848D01*
X10521670Y-16760848D02*
X10521670Y-16798943D01*
X10597861Y-16760848D02*
X10597861Y-16798943D01*
X10893099Y-17037038D02*
X10883575Y-17027514D01*
X10883575Y-17027514D02*
X10864528Y-16998943D01*
X10864528Y-16998943D02*
X10855004Y-16979895D01*
X10855004Y-16979895D02*
X10845480Y-16951324D01*
X10845480Y-16951324D02*
X10835956Y-16903705D01*
X10835956Y-16903705D02*
X10835956Y-16865610D01*
X10835956Y-16865610D02*
X10845480Y-16817991D01*
X10845480Y-16817991D02*
X10855004Y-16789419D01*
X10855004Y-16789419D02*
X10864528Y-16770372D01*
X10864528Y-16770372D02*
X10883575Y-16741800D01*
X10883575Y-16741800D02*
X10893099Y-16732276D01*
X11074051Y-16960848D02*
X10959766Y-16960848D01*
X11016908Y-16960848D02*
X11016908Y-16760848D01*
X11016908Y-16760848D02*
X10997861Y-16789419D01*
X10997861Y-16789419D02*
X10978813Y-16808467D01*
X10978813Y-16808467D02*
X10959766Y-16817991D01*
X11312147Y-16960848D02*
X11312147Y-16760848D01*
X11397861Y-16960848D02*
X11397861Y-16856086D01*
X11397861Y-16856086D02*
X11388337Y-16837038D01*
X11388337Y-16837038D02*
X11369289Y-16827514D01*
X11369289Y-16827514D02*
X11340718Y-16827514D01*
X11340718Y-16827514D02*
X11321670Y-16837038D01*
X11321670Y-16837038D02*
X11312147Y-16846562D01*
X11521670Y-16960848D02*
X11502623Y-16951324D01*
X11502623Y-16951324D02*
X11493099Y-16941800D01*
X11493099Y-16941800D02*
X11483575Y-16922753D01*
X11483575Y-16922753D02*
X11483575Y-16865610D01*
X11483575Y-16865610D02*
X11493099Y-16846562D01*
X11493099Y-16846562D02*
X11502623Y-16837038D01*
X11502623Y-16837038D02*
X11521670Y-16827514D01*
X11521670Y-16827514D02*
X11550242Y-16827514D01*
X11550242Y-16827514D02*
X11569289Y-16837038D01*
X11569289Y-16837038D02*
X11578813Y-16846562D01*
X11578813Y-16846562D02*
X11588337Y-16865610D01*
X11588337Y-16865610D02*
X11588337Y-16922753D01*
X11588337Y-16922753D02*
X11578813Y-16941800D01*
X11578813Y-16941800D02*
X11569289Y-16951324D01*
X11569289Y-16951324D02*
X11550242Y-16960848D01*
X11550242Y-16960848D02*
X11521670Y-16960848D01*
X11702623Y-16960848D02*
X11683575Y-16951324D01*
X11683575Y-16951324D02*
X11674051Y-16932276D01*
X11674051Y-16932276D02*
X11674051Y-16760848D01*
X11855004Y-16951324D02*
X11835956Y-16960848D01*
X11835956Y-16960848D02*
X11797861Y-16960848D01*
X11797861Y-16960848D02*
X11778813Y-16951324D01*
X11778813Y-16951324D02*
X11769289Y-16932276D01*
X11769289Y-16932276D02*
X11769289Y-16856086D01*
X11769289Y-16856086D02*
X11778813Y-16837038D01*
X11778813Y-16837038D02*
X11797861Y-16827514D01*
X11797861Y-16827514D02*
X11835956Y-16827514D01*
X11835956Y-16827514D02*
X11855004Y-16837038D01*
X11855004Y-16837038D02*
X11864528Y-16856086D01*
X11864528Y-16856086D02*
X11864528Y-16875134D01*
X11864528Y-16875134D02*
X11769289Y-16894181D01*
X11931194Y-17037038D02*
X11940718Y-17027514D01*
X11940718Y-17027514D02*
X11959766Y-16998943D01*
X11959766Y-16998943D02*
X11969289Y-16979895D01*
X11969289Y-16979895D02*
X11978813Y-16951324D01*
X11978813Y-16951324D02*
X11988337Y-16903705D01*
X11988337Y-16903705D02*
X11988337Y-16865610D01*
X11988337Y-16865610D02*
X11978813Y-16817991D01*
X11978813Y-16817991D02*
X11969289Y-16789419D01*
X11969289Y-16789419D02*
X11959766Y-16770372D01*
X11959766Y-16770372D02*
X11940718Y-16741800D01*
X11940718Y-16741800D02*
X11931194Y-16732276D01*
X12293099Y-17037038D02*
X12283575Y-17027514D01*
X12283575Y-17027514D02*
X12264528Y-16998943D01*
X12264528Y-16998943D02*
X12255004Y-16979895D01*
X12255004Y-16979895D02*
X12245480Y-16951324D01*
X12245480Y-16951324D02*
X12235956Y-16903705D01*
X12235956Y-16903705D02*
X12235956Y-16865610D01*
X12235956Y-16865610D02*
X12245480Y-16817991D01*
X12245480Y-16817991D02*
X12255004Y-16789419D01*
X12255004Y-16789419D02*
X12264528Y-16770372D01*
X12264528Y-16770372D02*
X12283575Y-16741800D01*
X12283575Y-16741800D02*
X12293099Y-16732276D01*
X12369289Y-16827514D02*
X12369289Y-16960848D01*
X12369289Y-16846562D02*
X12378813Y-16837038D01*
X12378813Y-16837038D02*
X12397861Y-16827514D01*
X12397861Y-16827514D02*
X12426432Y-16827514D01*
X12426432Y-16827514D02*
X12445480Y-16837038D01*
X12445480Y-16837038D02*
X12455004Y-16856086D01*
X12455004Y-16856086D02*
X12455004Y-16960848D01*
X12578813Y-16960848D02*
X12559766Y-16951324D01*
X12559766Y-16951324D02*
X12550242Y-16941800D01*
X12550242Y-16941800D02*
X12540718Y-16922753D01*
X12540718Y-16922753D02*
X12540718Y-16865610D01*
X12540718Y-16865610D02*
X12550242Y-16846562D01*
X12550242Y-16846562D02*
X12559766Y-16837038D01*
X12559766Y-16837038D02*
X12578813Y-16827514D01*
X12578813Y-16827514D02*
X12607385Y-16827514D01*
X12607385Y-16827514D02*
X12626432Y-16837038D01*
X12626432Y-16837038D02*
X12635956Y-16846562D01*
X12635956Y-16846562D02*
X12645480Y-16865610D01*
X12645480Y-16865610D02*
X12645480Y-16922753D01*
X12645480Y-16922753D02*
X12635956Y-16941800D01*
X12635956Y-16941800D02*
X12626432Y-16951324D01*
X12626432Y-16951324D02*
X12607385Y-16960848D01*
X12607385Y-16960848D02*
X12578813Y-16960848D01*
X12702623Y-16827514D02*
X12778813Y-16827514D01*
X12731194Y-16760848D02*
X12731194Y-16932276D01*
X12731194Y-16932276D02*
X12740718Y-16951324D01*
X12740718Y-16951324D02*
X12759766Y-16960848D01*
X12759766Y-16960848D02*
X12778813Y-16960848D01*
X12997861Y-16827514D02*
X12997861Y-17027514D01*
X12997861Y-16837038D02*
X13016909Y-16827514D01*
X13016909Y-16827514D02*
X13055004Y-16827514D01*
X13055004Y-16827514D02*
X13074051Y-16837038D01*
X13074051Y-16837038D02*
X13083575Y-16846562D01*
X13083575Y-16846562D02*
X13093099Y-16865610D01*
X13093099Y-16865610D02*
X13093099Y-16922753D01*
X13093099Y-16922753D02*
X13083575Y-16941800D01*
X13083575Y-16941800D02*
X13074051Y-16951324D01*
X13074051Y-16951324D02*
X13055004Y-16960848D01*
X13055004Y-16960848D02*
X13016909Y-16960848D01*
X13016909Y-16960848D02*
X12997861Y-16951324D01*
X13207385Y-16960848D02*
X13188337Y-16951324D01*
X13188337Y-16951324D02*
X13178813Y-16932276D01*
X13178813Y-16932276D02*
X13178813Y-16760848D01*
X13369290Y-16960848D02*
X13369290Y-16856086D01*
X13369290Y-16856086D02*
X13359766Y-16837038D01*
X13359766Y-16837038D02*
X13340718Y-16827514D01*
X13340718Y-16827514D02*
X13302623Y-16827514D01*
X13302623Y-16827514D02*
X13283575Y-16837038D01*
X13369290Y-16951324D02*
X13350242Y-16960848D01*
X13350242Y-16960848D02*
X13302623Y-16960848D01*
X13302623Y-16960848D02*
X13283575Y-16951324D01*
X13283575Y-16951324D02*
X13274051Y-16932276D01*
X13274051Y-16932276D02*
X13274051Y-16913229D01*
X13274051Y-16913229D02*
X13283575Y-16894181D01*
X13283575Y-16894181D02*
X13302623Y-16884657D01*
X13302623Y-16884657D02*
X13350242Y-16884657D01*
X13350242Y-16884657D02*
X13369290Y-16875134D01*
X13435956Y-16827514D02*
X13512147Y-16827514D01*
X13464528Y-16760848D02*
X13464528Y-16932276D01*
X13464528Y-16932276D02*
X13474051Y-16951324D01*
X13474051Y-16951324D02*
X13493099Y-16960848D01*
X13493099Y-16960848D02*
X13512147Y-16960848D01*
X13655004Y-16951324D02*
X13635956Y-16960848D01*
X13635956Y-16960848D02*
X13597861Y-16960848D01*
X13597861Y-16960848D02*
X13578813Y-16951324D01*
X13578813Y-16951324D02*
X13569290Y-16932276D01*
X13569290Y-16932276D02*
X13569290Y-16856086D01*
X13569290Y-16856086D02*
X13578813Y-16837038D01*
X13578813Y-16837038D02*
X13597861Y-16827514D01*
X13597861Y-16827514D02*
X13635956Y-16827514D01*
X13635956Y-16827514D02*
X13655004Y-16837038D01*
X13655004Y-16837038D02*
X13664528Y-16856086D01*
X13664528Y-16856086D02*
X13664528Y-16875134D01*
X13664528Y-16875134D02*
X13569290Y-16894181D01*
X13835956Y-16960848D02*
X13835956Y-16760848D01*
X13835956Y-16951324D02*
X13816909Y-16960848D01*
X13816909Y-16960848D02*
X13778813Y-16960848D01*
X13778813Y-16960848D02*
X13759766Y-16951324D01*
X13759766Y-16951324D02*
X13750242Y-16941800D01*
X13750242Y-16941800D02*
X13740718Y-16922753D01*
X13740718Y-16922753D02*
X13740718Y-16865610D01*
X13740718Y-16865610D02*
X13750242Y-16846562D01*
X13750242Y-16846562D02*
X13759766Y-16837038D01*
X13759766Y-16837038D02*
X13778813Y-16827514D01*
X13778813Y-16827514D02*
X13816909Y-16827514D01*
X13816909Y-16827514D02*
X13835956Y-16837038D01*
X13912147Y-17037038D02*
X13921671Y-17027514D01*
X13921671Y-17027514D02*
X13940718Y-16998943D01*
X13940718Y-16998943D02*
X13950242Y-16979895D01*
X13950242Y-16979895D02*
X13959766Y-16951324D01*
X13959766Y-16951324D02*
X13969290Y-16903705D01*
X13969290Y-16903705D02*
X13969290Y-16865610D01*
X13969290Y-16865610D02*
X13959766Y-16817991D01*
X13959766Y-16817991D02*
X13950242Y-16789419D01*
X13950242Y-16789419D02*
X13940718Y-16770372D01*
X13940718Y-16770372D02*
X13921671Y-16741800D01*
X13921671Y-16741800D02*
X13912147Y-16732276D01*
X7218036Y-17033364D02*
X7218036Y-17233364D01*
X7118036Y-17133364D02*
X7318036Y-17133364D01*
X7569289Y-17043895D02*
X7578813Y-17034372D01*
X7578813Y-17034372D02*
X7597860Y-17024848D01*
X7597860Y-17024848D02*
X7645480Y-17024848D01*
X7645480Y-17024848D02*
X7664527Y-17034372D01*
X7664527Y-17034372D02*
X7674051Y-17043895D01*
X7674051Y-17043895D02*
X7683575Y-17062943D01*
X7683575Y-17062943D02*
X7683575Y-17081991D01*
X7683575Y-17081991D02*
X7674051Y-17110562D01*
X7674051Y-17110562D02*
X7559765Y-17224848D01*
X7559765Y-17224848D02*
X7683575Y-17224848D01*
X7769289Y-17205800D02*
X7778813Y-17215324D01*
X7778813Y-17215324D02*
X7769289Y-17224848D01*
X7769289Y-17224848D02*
X7759765Y-17215324D01*
X7759765Y-17215324D02*
X7769289Y-17205800D01*
X7769289Y-17205800D02*
X7769289Y-17224848D01*
X7855003Y-17043895D02*
X7864527Y-17034372D01*
X7864527Y-17034372D02*
X7883575Y-17024848D01*
X7883575Y-17024848D02*
X7931194Y-17024848D01*
X7931194Y-17024848D02*
X7950241Y-17034372D01*
X7950241Y-17034372D02*
X7959765Y-17043895D01*
X7959765Y-17043895D02*
X7969289Y-17062943D01*
X7969289Y-17062943D02*
X7969289Y-17081991D01*
X7969289Y-17081991D02*
X7959765Y-17110562D01*
X7959765Y-17110562D02*
X7845480Y-17224848D01*
X7845480Y-17224848D02*
X7969289Y-17224848D01*
X8093099Y-17024848D02*
X8112146Y-17024848D01*
X8112146Y-17024848D02*
X8131194Y-17034372D01*
X8131194Y-17034372D02*
X8140718Y-17043895D01*
X8140718Y-17043895D02*
X8150241Y-17062943D01*
X8150241Y-17062943D02*
X8159765Y-17101038D01*
X8159765Y-17101038D02*
X8159765Y-17148657D01*
X8159765Y-17148657D02*
X8150241Y-17186753D01*
X8150241Y-17186753D02*
X8140718Y-17205800D01*
X8140718Y-17205800D02*
X8131194Y-17215324D01*
X8131194Y-17215324D02*
X8112146Y-17224848D01*
X8112146Y-17224848D02*
X8093099Y-17224848D01*
X8093099Y-17224848D02*
X8074051Y-17215324D01*
X8074051Y-17215324D02*
X8064527Y-17205800D01*
X8064527Y-17205800D02*
X8055003Y-17186753D01*
X8055003Y-17186753D02*
X8045480Y-17148657D01*
X8045480Y-17148657D02*
X8045480Y-17101038D01*
X8045480Y-17101038D02*
X8055003Y-17062943D01*
X8055003Y-17062943D02*
X8064527Y-17043895D01*
X8064527Y-17043895D02*
X8074051Y-17034372D01*
X8074051Y-17034372D02*
X8093099Y-17024848D01*
X8283575Y-17024848D02*
X8302622Y-17024848D01*
X8302622Y-17024848D02*
X8321670Y-17034372D01*
X8321670Y-17034372D02*
X8331194Y-17043895D01*
X8331194Y-17043895D02*
X8340718Y-17062943D01*
X8340718Y-17062943D02*
X8350241Y-17101038D01*
X8350241Y-17101038D02*
X8350241Y-17148657D01*
X8350241Y-17148657D02*
X8340718Y-17186753D01*
X8340718Y-17186753D02*
X8331194Y-17205800D01*
X8331194Y-17205800D02*
X8321670Y-17215324D01*
X8321670Y-17215324D02*
X8302622Y-17224848D01*
X8302622Y-17224848D02*
X8283575Y-17224848D01*
X8283575Y-17224848D02*
X8264527Y-17215324D01*
X8264527Y-17215324D02*
X8255003Y-17205800D01*
X8255003Y-17205800D02*
X8245480Y-17186753D01*
X8245480Y-17186753D02*
X8235956Y-17148657D01*
X8235956Y-17148657D02*
X8235956Y-17101038D01*
X8235956Y-17101038D02*
X8245480Y-17062943D01*
X8245480Y-17062943D02*
X8255003Y-17043895D01*
X8255003Y-17043895D02*
X8264527Y-17034372D01*
X8264527Y-17034372D02*
X8283575Y-17024848D01*
X8435956Y-17224848D02*
X8435956Y-17091514D01*
X8435956Y-17110562D02*
X8445480Y-17101038D01*
X8445480Y-17101038D02*
X8464527Y-17091514D01*
X8464527Y-17091514D02*
X8493099Y-17091514D01*
X8493099Y-17091514D02*
X8512146Y-17101038D01*
X8512146Y-17101038D02*
X8521670Y-17120086D01*
X8521670Y-17120086D02*
X8521670Y-17224848D01*
X8521670Y-17120086D02*
X8531194Y-17101038D01*
X8531194Y-17101038D02*
X8550242Y-17091514D01*
X8550242Y-17091514D02*
X8578813Y-17091514D01*
X8578813Y-17091514D02*
X8597861Y-17101038D01*
X8597861Y-17101038D02*
X8607384Y-17120086D01*
X8607384Y-17120086D02*
X8607384Y-17224848D01*
X8702623Y-17224848D02*
X8702623Y-17091514D01*
X8702623Y-17110562D02*
X8712146Y-17101038D01*
X8712146Y-17101038D02*
X8731194Y-17091514D01*
X8731194Y-17091514D02*
X8759765Y-17091514D01*
X8759765Y-17091514D02*
X8778813Y-17101038D01*
X8778813Y-17101038D02*
X8788337Y-17120086D01*
X8788337Y-17120086D02*
X8788337Y-17224848D01*
X8788337Y-17120086D02*
X8797861Y-17101038D01*
X8797861Y-17101038D02*
X8816908Y-17091514D01*
X8816908Y-17091514D02*
X8845480Y-17091514D01*
X8845480Y-17091514D02*
X8864527Y-17101038D01*
X8864527Y-17101038D02*
X8874051Y-17120086D01*
X8874051Y-17120086D02*
X8874051Y-17224848D01*
X9264527Y-17015324D02*
X9093099Y-17272467D01*
X9521670Y-17024848D02*
X9540718Y-17024848D01*
X9540718Y-17024848D02*
X9559766Y-17034372D01*
X9559766Y-17034372D02*
X9569289Y-17043895D01*
X9569289Y-17043895D02*
X9578813Y-17062943D01*
X9578813Y-17062943D02*
X9588337Y-17101038D01*
X9588337Y-17101038D02*
X9588337Y-17148657D01*
X9588337Y-17148657D02*
X9578813Y-17186753D01*
X9578813Y-17186753D02*
X9569289Y-17205800D01*
X9569289Y-17205800D02*
X9559766Y-17215324D01*
X9559766Y-17215324D02*
X9540718Y-17224848D01*
X9540718Y-17224848D02*
X9521670Y-17224848D01*
X9521670Y-17224848D02*
X9502623Y-17215324D01*
X9502623Y-17215324D02*
X9493099Y-17205800D01*
X9493099Y-17205800D02*
X9483575Y-17186753D01*
X9483575Y-17186753D02*
X9474051Y-17148657D01*
X9474051Y-17148657D02*
X9474051Y-17101038D01*
X9474051Y-17101038D02*
X9483575Y-17062943D01*
X9483575Y-17062943D02*
X9493099Y-17043895D01*
X9493099Y-17043895D02*
X9502623Y-17034372D01*
X9502623Y-17034372D02*
X9521670Y-17024848D01*
X9674051Y-17205800D02*
X9683575Y-17215324D01*
X9683575Y-17215324D02*
X9674051Y-17224848D01*
X9674051Y-17224848D02*
X9664527Y-17215324D01*
X9664527Y-17215324D02*
X9674051Y-17205800D01*
X9674051Y-17205800D02*
X9674051Y-17224848D01*
X9807385Y-17024848D02*
X9826432Y-17024848D01*
X9826432Y-17024848D02*
X9845480Y-17034372D01*
X9845480Y-17034372D02*
X9855004Y-17043895D01*
X9855004Y-17043895D02*
X9864527Y-17062943D01*
X9864527Y-17062943D02*
X9874051Y-17101038D01*
X9874051Y-17101038D02*
X9874051Y-17148657D01*
X9874051Y-17148657D02*
X9864527Y-17186753D01*
X9864527Y-17186753D02*
X9855004Y-17205800D01*
X9855004Y-17205800D02*
X9845480Y-17215324D01*
X9845480Y-17215324D02*
X9826432Y-17224848D01*
X9826432Y-17224848D02*
X9807385Y-17224848D01*
X9807385Y-17224848D02*
X9788337Y-17215324D01*
X9788337Y-17215324D02*
X9778813Y-17205800D01*
X9778813Y-17205800D02*
X9769289Y-17186753D01*
X9769289Y-17186753D02*
X9759766Y-17148657D01*
X9759766Y-17148657D02*
X9759766Y-17101038D01*
X9759766Y-17101038D02*
X9769289Y-17062943D01*
X9769289Y-17062943D02*
X9778813Y-17043895D01*
X9778813Y-17043895D02*
X9788337Y-17034372D01*
X9788337Y-17034372D02*
X9807385Y-17024848D01*
X9988337Y-17110562D02*
X9969289Y-17101038D01*
X9969289Y-17101038D02*
X9959766Y-17091514D01*
X9959766Y-17091514D02*
X9950242Y-17072467D01*
X9950242Y-17072467D02*
X9950242Y-17062943D01*
X9950242Y-17062943D02*
X9959766Y-17043895D01*
X9959766Y-17043895D02*
X9969289Y-17034372D01*
X9969289Y-17034372D02*
X9988337Y-17024848D01*
X9988337Y-17024848D02*
X10026432Y-17024848D01*
X10026432Y-17024848D02*
X10045480Y-17034372D01*
X10045480Y-17034372D02*
X10055004Y-17043895D01*
X10055004Y-17043895D02*
X10064527Y-17062943D01*
X10064527Y-17062943D02*
X10064527Y-17072467D01*
X10064527Y-17072467D02*
X10055004Y-17091514D01*
X10055004Y-17091514D02*
X10045480Y-17101038D01*
X10045480Y-17101038D02*
X10026432Y-17110562D01*
X10026432Y-17110562D02*
X9988337Y-17110562D01*
X9988337Y-17110562D02*
X9969289Y-17120086D01*
X9969289Y-17120086D02*
X9959766Y-17129610D01*
X9959766Y-17129610D02*
X9950242Y-17148657D01*
X9950242Y-17148657D02*
X9950242Y-17186753D01*
X9950242Y-17186753D02*
X9959766Y-17205800D01*
X9959766Y-17205800D02*
X9969289Y-17215324D01*
X9969289Y-17215324D02*
X9988337Y-17224848D01*
X9988337Y-17224848D02*
X10026432Y-17224848D01*
X10026432Y-17224848D02*
X10045480Y-17215324D01*
X10045480Y-17215324D02*
X10055004Y-17205800D01*
X10055004Y-17205800D02*
X10064527Y-17186753D01*
X10064527Y-17186753D02*
X10064527Y-17148657D01*
X10064527Y-17148657D02*
X10055004Y-17129610D01*
X10055004Y-17129610D02*
X10045480Y-17120086D01*
X10045480Y-17120086D02*
X10026432Y-17110562D01*
X10235956Y-17024848D02*
X10197861Y-17024848D01*
X10197861Y-17024848D02*
X10178813Y-17034372D01*
X10178813Y-17034372D02*
X10169289Y-17043895D01*
X10169289Y-17043895D02*
X10150242Y-17072467D01*
X10150242Y-17072467D02*
X10140718Y-17110562D01*
X10140718Y-17110562D02*
X10140718Y-17186753D01*
X10140718Y-17186753D02*
X10150242Y-17205800D01*
X10150242Y-17205800D02*
X10159766Y-17215324D01*
X10159766Y-17215324D02*
X10178813Y-17224848D01*
X10178813Y-17224848D02*
X10216908Y-17224848D01*
X10216908Y-17224848D02*
X10235956Y-17215324D01*
X10235956Y-17215324D02*
X10245480Y-17205800D01*
X10245480Y-17205800D02*
X10255004Y-17186753D01*
X10255004Y-17186753D02*
X10255004Y-17139134D01*
X10255004Y-17139134D02*
X10245480Y-17120086D01*
X10245480Y-17120086D02*
X10235956Y-17110562D01*
X10235956Y-17110562D02*
X10216908Y-17101038D01*
X10216908Y-17101038D02*
X10178813Y-17101038D01*
X10178813Y-17101038D02*
X10159766Y-17110562D01*
X10159766Y-17110562D02*
X10150242Y-17120086D01*
X10150242Y-17120086D02*
X10140718Y-17139134D01*
X10426432Y-17024848D02*
X10388337Y-17024848D01*
X10388337Y-17024848D02*
X10369289Y-17034372D01*
X10369289Y-17034372D02*
X10359766Y-17043895D01*
X10359766Y-17043895D02*
X10340718Y-17072467D01*
X10340718Y-17072467D02*
X10331194Y-17110562D01*
X10331194Y-17110562D02*
X10331194Y-17186753D01*
X10331194Y-17186753D02*
X10340718Y-17205800D01*
X10340718Y-17205800D02*
X10350242Y-17215324D01*
X10350242Y-17215324D02*
X10369289Y-17224848D01*
X10369289Y-17224848D02*
X10407385Y-17224848D01*
X10407385Y-17224848D02*
X10426432Y-17215324D01*
X10426432Y-17215324D02*
X10435956Y-17205800D01*
X10435956Y-17205800D02*
X10445480Y-17186753D01*
X10445480Y-17186753D02*
X10445480Y-17139134D01*
X10445480Y-17139134D02*
X10435956Y-17120086D01*
X10435956Y-17120086D02*
X10426432Y-17110562D01*
X10426432Y-17110562D02*
X10407385Y-17101038D01*
X10407385Y-17101038D02*
X10369289Y-17101038D01*
X10369289Y-17101038D02*
X10350242Y-17110562D01*
X10350242Y-17110562D02*
X10340718Y-17120086D01*
X10340718Y-17120086D02*
X10331194Y-17139134D01*
X10521670Y-17024848D02*
X10521670Y-17062943D01*
X10597861Y-17024848D02*
X10597861Y-17062943D01*
X10893099Y-17301038D02*
X10883575Y-17291514D01*
X10883575Y-17291514D02*
X10864528Y-17262943D01*
X10864528Y-17262943D02*
X10855004Y-17243895D01*
X10855004Y-17243895D02*
X10845480Y-17215324D01*
X10845480Y-17215324D02*
X10835956Y-17167705D01*
X10835956Y-17167705D02*
X10835956Y-17129610D01*
X10835956Y-17129610D02*
X10845480Y-17081991D01*
X10845480Y-17081991D02*
X10855004Y-17053419D01*
X10855004Y-17053419D02*
X10864528Y-17034372D01*
X10864528Y-17034372D02*
X10883575Y-17005800D01*
X10883575Y-17005800D02*
X10893099Y-16996276D01*
X11055004Y-17024848D02*
X11016908Y-17024848D01*
X11016908Y-17024848D02*
X10997861Y-17034372D01*
X10997861Y-17034372D02*
X10988337Y-17043895D01*
X10988337Y-17043895D02*
X10969289Y-17072467D01*
X10969289Y-17072467D02*
X10959766Y-17110562D01*
X10959766Y-17110562D02*
X10959766Y-17186753D01*
X10959766Y-17186753D02*
X10969289Y-17205800D01*
X10969289Y-17205800D02*
X10978813Y-17215324D01*
X10978813Y-17215324D02*
X10997861Y-17224848D01*
X10997861Y-17224848D02*
X11035956Y-17224848D01*
X11035956Y-17224848D02*
X11055004Y-17215324D01*
X11055004Y-17215324D02*
X11064528Y-17205800D01*
X11064528Y-17205800D02*
X11074051Y-17186753D01*
X11074051Y-17186753D02*
X11074051Y-17139134D01*
X11074051Y-17139134D02*
X11064528Y-17120086D01*
X11064528Y-17120086D02*
X11055004Y-17110562D01*
X11055004Y-17110562D02*
X11035956Y-17101038D01*
X11035956Y-17101038D02*
X10997861Y-17101038D01*
X10997861Y-17101038D02*
X10978813Y-17110562D01*
X10978813Y-17110562D02*
X10969289Y-17120086D01*
X10969289Y-17120086D02*
X10959766Y-17139134D01*
X11312147Y-17224848D02*
X11312147Y-17024848D01*
X11397861Y-17224848D02*
X11397861Y-17120086D01*
X11397861Y-17120086D02*
X11388337Y-17101038D01*
X11388337Y-17101038D02*
X11369289Y-17091514D01*
X11369289Y-17091514D02*
X11340718Y-17091514D01*
X11340718Y-17091514D02*
X11321670Y-17101038D01*
X11321670Y-17101038D02*
X11312147Y-17110562D01*
X11521670Y-17224848D02*
X11502623Y-17215324D01*
X11502623Y-17215324D02*
X11493099Y-17205800D01*
X11493099Y-17205800D02*
X11483575Y-17186753D01*
X11483575Y-17186753D02*
X11483575Y-17129610D01*
X11483575Y-17129610D02*
X11493099Y-17110562D01*
X11493099Y-17110562D02*
X11502623Y-17101038D01*
X11502623Y-17101038D02*
X11521670Y-17091514D01*
X11521670Y-17091514D02*
X11550242Y-17091514D01*
X11550242Y-17091514D02*
X11569289Y-17101038D01*
X11569289Y-17101038D02*
X11578813Y-17110562D01*
X11578813Y-17110562D02*
X11588337Y-17129610D01*
X11588337Y-17129610D02*
X11588337Y-17186753D01*
X11588337Y-17186753D02*
X11578813Y-17205800D01*
X11578813Y-17205800D02*
X11569289Y-17215324D01*
X11569289Y-17215324D02*
X11550242Y-17224848D01*
X11550242Y-17224848D02*
X11521670Y-17224848D01*
X11702623Y-17224848D02*
X11683575Y-17215324D01*
X11683575Y-17215324D02*
X11674051Y-17196276D01*
X11674051Y-17196276D02*
X11674051Y-17024848D01*
X11855004Y-17215324D02*
X11835956Y-17224848D01*
X11835956Y-17224848D02*
X11797861Y-17224848D01*
X11797861Y-17224848D02*
X11778813Y-17215324D01*
X11778813Y-17215324D02*
X11769289Y-17196276D01*
X11769289Y-17196276D02*
X11769289Y-17120086D01*
X11769289Y-17120086D02*
X11778813Y-17101038D01*
X11778813Y-17101038D02*
X11797861Y-17091514D01*
X11797861Y-17091514D02*
X11835956Y-17091514D01*
X11835956Y-17091514D02*
X11855004Y-17101038D01*
X11855004Y-17101038D02*
X11864528Y-17120086D01*
X11864528Y-17120086D02*
X11864528Y-17139134D01*
X11864528Y-17139134D02*
X11769289Y-17158181D01*
X11940718Y-17215324D02*
X11959766Y-17224848D01*
X11959766Y-17224848D02*
X11997861Y-17224848D01*
X11997861Y-17224848D02*
X12016909Y-17215324D01*
X12016909Y-17215324D02*
X12026432Y-17196276D01*
X12026432Y-17196276D02*
X12026432Y-17186753D01*
X12026432Y-17186753D02*
X12016909Y-17167705D01*
X12016909Y-17167705D02*
X11997861Y-17158181D01*
X11997861Y-17158181D02*
X11969289Y-17158181D01*
X11969289Y-17158181D02*
X11950242Y-17148657D01*
X11950242Y-17148657D02*
X11940718Y-17129610D01*
X11940718Y-17129610D02*
X11940718Y-17120086D01*
X11940718Y-17120086D02*
X11950242Y-17101038D01*
X11950242Y-17101038D02*
X11969289Y-17091514D01*
X11969289Y-17091514D02*
X11997861Y-17091514D01*
X11997861Y-17091514D02*
X12016909Y-17101038D01*
X12093099Y-17301038D02*
X12102623Y-17291514D01*
X12102623Y-17291514D02*
X12121670Y-17262943D01*
X12121670Y-17262943D02*
X12131194Y-17243895D01*
X12131194Y-17243895D02*
X12140718Y-17215324D01*
X12140718Y-17215324D02*
X12150242Y-17167705D01*
X12150242Y-17167705D02*
X12150242Y-17129610D01*
X12150242Y-17129610D02*
X12140718Y-17081991D01*
X12140718Y-17081991D02*
X12131194Y-17053419D01*
X12131194Y-17053419D02*
X12121670Y-17034372D01*
X12121670Y-17034372D02*
X12102623Y-17005800D01*
X12102623Y-17005800D02*
X12093099Y-16996276D01*
X12455004Y-17301038D02*
X12445480Y-17291514D01*
X12445480Y-17291514D02*
X12426432Y-17262943D01*
X12426432Y-17262943D02*
X12416909Y-17243895D01*
X12416909Y-17243895D02*
X12407385Y-17215324D01*
X12407385Y-17215324D02*
X12397861Y-17167705D01*
X12397861Y-17167705D02*
X12397861Y-17129610D01*
X12397861Y-17129610D02*
X12407385Y-17081991D01*
X12407385Y-17081991D02*
X12416909Y-17053419D01*
X12416909Y-17053419D02*
X12426432Y-17034372D01*
X12426432Y-17034372D02*
X12445480Y-17005800D01*
X12445480Y-17005800D02*
X12455004Y-16996276D01*
X12531194Y-17091514D02*
X12531194Y-17224848D01*
X12531194Y-17110562D02*
X12540718Y-17101038D01*
X12540718Y-17101038D02*
X12559766Y-17091514D01*
X12559766Y-17091514D02*
X12588337Y-17091514D01*
X12588337Y-17091514D02*
X12607385Y-17101038D01*
X12607385Y-17101038D02*
X12616909Y-17120086D01*
X12616909Y-17120086D02*
X12616909Y-17224848D01*
X12740718Y-17224848D02*
X12721670Y-17215324D01*
X12721670Y-17215324D02*
X12712147Y-17205800D01*
X12712147Y-17205800D02*
X12702623Y-17186753D01*
X12702623Y-17186753D02*
X12702623Y-17129610D01*
X12702623Y-17129610D02*
X12712147Y-17110562D01*
X12712147Y-17110562D02*
X12721670Y-17101038D01*
X12721670Y-17101038D02*
X12740718Y-17091514D01*
X12740718Y-17091514D02*
X12769290Y-17091514D01*
X12769290Y-17091514D02*
X12788337Y-17101038D01*
X12788337Y-17101038D02*
X12797861Y-17110562D01*
X12797861Y-17110562D02*
X12807385Y-17129610D01*
X12807385Y-17129610D02*
X12807385Y-17186753D01*
X12807385Y-17186753D02*
X12797861Y-17205800D01*
X12797861Y-17205800D02*
X12788337Y-17215324D01*
X12788337Y-17215324D02*
X12769290Y-17224848D01*
X12769290Y-17224848D02*
X12740718Y-17224848D01*
X12864528Y-17091514D02*
X12940718Y-17091514D01*
X12893099Y-17024848D02*
X12893099Y-17196276D01*
X12893099Y-17196276D02*
X12902623Y-17215324D01*
X12902623Y-17215324D02*
X12921670Y-17224848D01*
X12921670Y-17224848D02*
X12940718Y-17224848D01*
X13159766Y-17091514D02*
X13159766Y-17291514D01*
X13159766Y-17101038D02*
X13178813Y-17091514D01*
X13178813Y-17091514D02*
X13216909Y-17091514D01*
X13216909Y-17091514D02*
X13235956Y-17101038D01*
X13235956Y-17101038D02*
X13245480Y-17110562D01*
X13245480Y-17110562D02*
X13255004Y-17129610D01*
X13255004Y-17129610D02*
X13255004Y-17186753D01*
X13255004Y-17186753D02*
X13245480Y-17205800D01*
X13245480Y-17205800D02*
X13235956Y-17215324D01*
X13235956Y-17215324D02*
X13216909Y-17224848D01*
X13216909Y-17224848D02*
X13178813Y-17224848D01*
X13178813Y-17224848D02*
X13159766Y-17215324D01*
X13369290Y-17224848D02*
X13350242Y-17215324D01*
X13350242Y-17215324D02*
X13340718Y-17196276D01*
X13340718Y-17196276D02*
X13340718Y-17024848D01*
X13531194Y-17224848D02*
X13531194Y-17120086D01*
X13531194Y-17120086D02*
X13521671Y-17101038D01*
X13521671Y-17101038D02*
X13502623Y-17091514D01*
X13502623Y-17091514D02*
X13464528Y-17091514D01*
X13464528Y-17091514D02*
X13445480Y-17101038D01*
X13531194Y-17215324D02*
X13512147Y-17224848D01*
X13512147Y-17224848D02*
X13464528Y-17224848D01*
X13464528Y-17224848D02*
X13445480Y-17215324D01*
X13445480Y-17215324D02*
X13435956Y-17196276D01*
X13435956Y-17196276D02*
X13435956Y-17177229D01*
X13435956Y-17177229D02*
X13445480Y-17158181D01*
X13445480Y-17158181D02*
X13464528Y-17148657D01*
X13464528Y-17148657D02*
X13512147Y-17148657D01*
X13512147Y-17148657D02*
X13531194Y-17139134D01*
X13597861Y-17091514D02*
X13674051Y-17091514D01*
X13626432Y-17024848D02*
X13626432Y-17196276D01*
X13626432Y-17196276D02*
X13635956Y-17215324D01*
X13635956Y-17215324D02*
X13655004Y-17224848D01*
X13655004Y-17224848D02*
X13674051Y-17224848D01*
X13816909Y-17215324D02*
X13797861Y-17224848D01*
X13797861Y-17224848D02*
X13759766Y-17224848D01*
X13759766Y-17224848D02*
X13740718Y-17215324D01*
X13740718Y-17215324D02*
X13731194Y-17196276D01*
X13731194Y-17196276D02*
X13731194Y-17120086D01*
X13731194Y-17120086D02*
X13740718Y-17101038D01*
X13740718Y-17101038D02*
X13759766Y-17091514D01*
X13759766Y-17091514D02*
X13797861Y-17091514D01*
X13797861Y-17091514D02*
X13816909Y-17101038D01*
X13816909Y-17101038D02*
X13826432Y-17120086D01*
X13826432Y-17120086D02*
X13826432Y-17139134D01*
X13826432Y-17139134D02*
X13731194Y-17158181D01*
X13997861Y-17224848D02*
X13997861Y-17024848D01*
X13997861Y-17215324D02*
X13978813Y-17224848D01*
X13978813Y-17224848D02*
X13940718Y-17224848D01*
X13940718Y-17224848D02*
X13921671Y-17215324D01*
X13921671Y-17215324D02*
X13912147Y-17205800D01*
X13912147Y-17205800D02*
X13902623Y-17186753D01*
X13902623Y-17186753D02*
X13902623Y-17129610D01*
X13902623Y-17129610D02*
X13912147Y-17110562D01*
X13912147Y-17110562D02*
X13921671Y-17101038D01*
X13921671Y-17101038D02*
X13940718Y-17091514D01*
X13940718Y-17091514D02*
X13978813Y-17091514D01*
X13978813Y-17091514D02*
X13997861Y-17101038D01*
X14074052Y-17301038D02*
X14083575Y-17291514D01*
X14083575Y-17291514D02*
X14102623Y-17262943D01*
X14102623Y-17262943D02*
X14112147Y-17243895D01*
X14112147Y-17243895D02*
X14121671Y-17215324D01*
X14121671Y-17215324D02*
X14131194Y-17167705D01*
X14131194Y-17167705D02*
X14131194Y-17129610D01*
X14131194Y-17129610D02*
X14121671Y-17081991D01*
X14121671Y-17081991D02*
X14112147Y-17053419D01*
X14112147Y-17053419D02*
X14102623Y-17034372D01*
X14102623Y-17034372D02*
X14083575Y-17005800D01*
X14083575Y-17005800D02*
X14074052Y-16996276D01*
X7288747Y-17524075D02*
X7288747Y-17382653D01*
X7147325Y-17382653D01*
X7147325Y-17524075D01*
X7288747Y-17524075D01*
X7559765Y-17344848D02*
X7683575Y-17344848D01*
X7683575Y-17344848D02*
X7616908Y-17421038D01*
X7616908Y-17421038D02*
X7645480Y-17421038D01*
X7645480Y-17421038D02*
X7664527Y-17430562D01*
X7664527Y-17430562D02*
X7674051Y-17440086D01*
X7674051Y-17440086D02*
X7683575Y-17459134D01*
X7683575Y-17459134D02*
X7683575Y-17506753D01*
X7683575Y-17506753D02*
X7674051Y-17525800D01*
X7674051Y-17525800D02*
X7664527Y-17535324D01*
X7664527Y-17535324D02*
X7645480Y-17544848D01*
X7645480Y-17544848D02*
X7588337Y-17544848D01*
X7588337Y-17544848D02*
X7569289Y-17535324D01*
X7569289Y-17535324D02*
X7559765Y-17525800D01*
X7769289Y-17525800D02*
X7778813Y-17535324D01*
X7778813Y-17535324D02*
X7769289Y-17544848D01*
X7769289Y-17544848D02*
X7759765Y-17535324D01*
X7759765Y-17535324D02*
X7769289Y-17525800D01*
X7769289Y-17525800D02*
X7769289Y-17544848D01*
X7969289Y-17544848D02*
X7855003Y-17544848D01*
X7912146Y-17544848D02*
X7912146Y-17344848D01*
X7912146Y-17344848D02*
X7893099Y-17373419D01*
X7893099Y-17373419D02*
X7874051Y-17392467D01*
X7874051Y-17392467D02*
X7855003Y-17401991D01*
X8093099Y-17344848D02*
X8112146Y-17344848D01*
X8112146Y-17344848D02*
X8131194Y-17354372D01*
X8131194Y-17354372D02*
X8140718Y-17363895D01*
X8140718Y-17363895D02*
X8150241Y-17382943D01*
X8150241Y-17382943D02*
X8159765Y-17421038D01*
X8159765Y-17421038D02*
X8159765Y-17468657D01*
X8159765Y-17468657D02*
X8150241Y-17506753D01*
X8150241Y-17506753D02*
X8140718Y-17525800D01*
X8140718Y-17525800D02*
X8131194Y-17535324D01*
X8131194Y-17535324D02*
X8112146Y-17544848D01*
X8112146Y-17544848D02*
X8093099Y-17544848D01*
X8093099Y-17544848D02*
X8074051Y-17535324D01*
X8074051Y-17535324D02*
X8064527Y-17525800D01*
X8064527Y-17525800D02*
X8055003Y-17506753D01*
X8055003Y-17506753D02*
X8045480Y-17468657D01*
X8045480Y-17468657D02*
X8045480Y-17421038D01*
X8045480Y-17421038D02*
X8055003Y-17382943D01*
X8055003Y-17382943D02*
X8064527Y-17363895D01*
X8064527Y-17363895D02*
X8074051Y-17354372D01*
X8074051Y-17354372D02*
X8093099Y-17344848D01*
X8283575Y-17344848D02*
X8302622Y-17344848D01*
X8302622Y-17344848D02*
X8321670Y-17354372D01*
X8321670Y-17354372D02*
X8331194Y-17363895D01*
X8331194Y-17363895D02*
X8340718Y-17382943D01*
X8340718Y-17382943D02*
X8350241Y-17421038D01*
X8350241Y-17421038D02*
X8350241Y-17468657D01*
X8350241Y-17468657D02*
X8340718Y-17506753D01*
X8340718Y-17506753D02*
X8331194Y-17525800D01*
X8331194Y-17525800D02*
X8321670Y-17535324D01*
X8321670Y-17535324D02*
X8302622Y-17544848D01*
X8302622Y-17544848D02*
X8283575Y-17544848D01*
X8283575Y-17544848D02*
X8264527Y-17535324D01*
X8264527Y-17535324D02*
X8255003Y-17525800D01*
X8255003Y-17525800D02*
X8245480Y-17506753D01*
X8245480Y-17506753D02*
X8235956Y-17468657D01*
X8235956Y-17468657D02*
X8235956Y-17421038D01*
X8235956Y-17421038D02*
X8245480Y-17382943D01*
X8245480Y-17382943D02*
X8255003Y-17363895D01*
X8255003Y-17363895D02*
X8264527Y-17354372D01*
X8264527Y-17354372D02*
X8283575Y-17344848D01*
X8435956Y-17544848D02*
X8435956Y-17411514D01*
X8435956Y-17430562D02*
X8445480Y-17421038D01*
X8445480Y-17421038D02*
X8464527Y-17411514D01*
X8464527Y-17411514D02*
X8493099Y-17411514D01*
X8493099Y-17411514D02*
X8512146Y-17421038D01*
X8512146Y-17421038D02*
X8521670Y-17440086D01*
X8521670Y-17440086D02*
X8521670Y-17544848D01*
X8521670Y-17440086D02*
X8531194Y-17421038D01*
X8531194Y-17421038D02*
X8550242Y-17411514D01*
X8550242Y-17411514D02*
X8578813Y-17411514D01*
X8578813Y-17411514D02*
X8597861Y-17421038D01*
X8597861Y-17421038D02*
X8607384Y-17440086D01*
X8607384Y-17440086D02*
X8607384Y-17544848D01*
X8702623Y-17544848D02*
X8702623Y-17411514D01*
X8702623Y-17430562D02*
X8712146Y-17421038D01*
X8712146Y-17421038D02*
X8731194Y-17411514D01*
X8731194Y-17411514D02*
X8759765Y-17411514D01*
X8759765Y-17411514D02*
X8778813Y-17421038D01*
X8778813Y-17421038D02*
X8788337Y-17440086D01*
X8788337Y-17440086D02*
X8788337Y-17544848D01*
X8788337Y-17440086D02*
X8797861Y-17421038D01*
X8797861Y-17421038D02*
X8816908Y-17411514D01*
X8816908Y-17411514D02*
X8845480Y-17411514D01*
X8845480Y-17411514D02*
X8864527Y-17421038D01*
X8864527Y-17421038D02*
X8874051Y-17440086D01*
X8874051Y-17440086D02*
X8874051Y-17544848D01*
X9264527Y-17335324D02*
X9093099Y-17592467D01*
X9521670Y-17344848D02*
X9540718Y-17344848D01*
X9540718Y-17344848D02*
X9559766Y-17354372D01*
X9559766Y-17354372D02*
X9569289Y-17363895D01*
X9569289Y-17363895D02*
X9578813Y-17382943D01*
X9578813Y-17382943D02*
X9588337Y-17421038D01*
X9588337Y-17421038D02*
X9588337Y-17468657D01*
X9588337Y-17468657D02*
X9578813Y-17506753D01*
X9578813Y-17506753D02*
X9569289Y-17525800D01*
X9569289Y-17525800D02*
X9559766Y-17535324D01*
X9559766Y-17535324D02*
X9540718Y-17544848D01*
X9540718Y-17544848D02*
X9521670Y-17544848D01*
X9521670Y-17544848D02*
X9502623Y-17535324D01*
X9502623Y-17535324D02*
X9493099Y-17525800D01*
X9493099Y-17525800D02*
X9483575Y-17506753D01*
X9483575Y-17506753D02*
X9474051Y-17468657D01*
X9474051Y-17468657D02*
X9474051Y-17421038D01*
X9474051Y-17421038D02*
X9483575Y-17382943D01*
X9483575Y-17382943D02*
X9493099Y-17363895D01*
X9493099Y-17363895D02*
X9502623Y-17354372D01*
X9502623Y-17354372D02*
X9521670Y-17344848D01*
X9674051Y-17525800D02*
X9683575Y-17535324D01*
X9683575Y-17535324D02*
X9674051Y-17544848D01*
X9674051Y-17544848D02*
X9664527Y-17535324D01*
X9664527Y-17535324D02*
X9674051Y-17525800D01*
X9674051Y-17525800D02*
X9674051Y-17544848D01*
X9874051Y-17544848D02*
X9759766Y-17544848D01*
X9816908Y-17544848D02*
X9816908Y-17344848D01*
X9816908Y-17344848D02*
X9797861Y-17373419D01*
X9797861Y-17373419D02*
X9778813Y-17392467D01*
X9778813Y-17392467D02*
X9759766Y-17401991D01*
X9950242Y-17363895D02*
X9959766Y-17354372D01*
X9959766Y-17354372D02*
X9978813Y-17344848D01*
X9978813Y-17344848D02*
X10026432Y-17344848D01*
X10026432Y-17344848D02*
X10045480Y-17354372D01*
X10045480Y-17354372D02*
X10055004Y-17363895D01*
X10055004Y-17363895D02*
X10064527Y-17382943D01*
X10064527Y-17382943D02*
X10064527Y-17401991D01*
X10064527Y-17401991D02*
X10055004Y-17430562D01*
X10055004Y-17430562D02*
X9940718Y-17544848D01*
X9940718Y-17544848D02*
X10064527Y-17544848D01*
X10140718Y-17363895D02*
X10150242Y-17354372D01*
X10150242Y-17354372D02*
X10169289Y-17344848D01*
X10169289Y-17344848D02*
X10216908Y-17344848D01*
X10216908Y-17344848D02*
X10235956Y-17354372D01*
X10235956Y-17354372D02*
X10245480Y-17363895D01*
X10245480Y-17363895D02*
X10255004Y-17382943D01*
X10255004Y-17382943D02*
X10255004Y-17401991D01*
X10255004Y-17401991D02*
X10245480Y-17430562D01*
X10245480Y-17430562D02*
X10131194Y-17544848D01*
X10131194Y-17544848D02*
X10255004Y-17544848D01*
X10378813Y-17344848D02*
X10397861Y-17344848D01*
X10397861Y-17344848D02*
X10416908Y-17354372D01*
X10416908Y-17354372D02*
X10426432Y-17363895D01*
X10426432Y-17363895D02*
X10435956Y-17382943D01*
X10435956Y-17382943D02*
X10445480Y-17421038D01*
X10445480Y-17421038D02*
X10445480Y-17468657D01*
X10445480Y-17468657D02*
X10435956Y-17506753D01*
X10435956Y-17506753D02*
X10426432Y-17525800D01*
X10426432Y-17525800D02*
X10416908Y-17535324D01*
X10416908Y-17535324D02*
X10397861Y-17544848D01*
X10397861Y-17544848D02*
X10378813Y-17544848D01*
X10378813Y-17544848D02*
X10359766Y-17535324D01*
X10359766Y-17535324D02*
X10350242Y-17525800D01*
X10350242Y-17525800D02*
X10340718Y-17506753D01*
X10340718Y-17506753D02*
X10331194Y-17468657D01*
X10331194Y-17468657D02*
X10331194Y-17421038D01*
X10331194Y-17421038D02*
X10340718Y-17382943D01*
X10340718Y-17382943D02*
X10350242Y-17363895D01*
X10350242Y-17363895D02*
X10359766Y-17354372D01*
X10359766Y-17354372D02*
X10378813Y-17344848D01*
X10521670Y-17344848D02*
X10521670Y-17382943D01*
X10597861Y-17344848D02*
X10597861Y-17382943D01*
X10893099Y-17621038D02*
X10883575Y-17611514D01*
X10883575Y-17611514D02*
X10864528Y-17582943D01*
X10864528Y-17582943D02*
X10855004Y-17563895D01*
X10855004Y-17563895D02*
X10845480Y-17535324D01*
X10845480Y-17535324D02*
X10835956Y-17487705D01*
X10835956Y-17487705D02*
X10835956Y-17449610D01*
X10835956Y-17449610D02*
X10845480Y-17401991D01*
X10845480Y-17401991D02*
X10855004Y-17373419D01*
X10855004Y-17373419D02*
X10864528Y-17354372D01*
X10864528Y-17354372D02*
X10883575Y-17325800D01*
X10883575Y-17325800D02*
X10893099Y-17316276D01*
X11074051Y-17544848D02*
X10959766Y-17544848D01*
X11016908Y-17544848D02*
X11016908Y-17344848D01*
X11016908Y-17344848D02*
X10997861Y-17373419D01*
X10997861Y-17373419D02*
X10978813Y-17392467D01*
X10978813Y-17392467D02*
X10959766Y-17401991D01*
X11302623Y-17535324D02*
X11321670Y-17544848D01*
X11321670Y-17544848D02*
X11359766Y-17544848D01*
X11359766Y-17544848D02*
X11378813Y-17535324D01*
X11378813Y-17535324D02*
X11388337Y-17516276D01*
X11388337Y-17516276D02*
X11388337Y-17506753D01*
X11388337Y-17506753D02*
X11378813Y-17487705D01*
X11378813Y-17487705D02*
X11359766Y-17478181D01*
X11359766Y-17478181D02*
X11331194Y-17478181D01*
X11331194Y-17478181D02*
X11312147Y-17468657D01*
X11312147Y-17468657D02*
X11302623Y-17449610D01*
X11302623Y-17449610D02*
X11302623Y-17440086D01*
X11302623Y-17440086D02*
X11312147Y-17421038D01*
X11312147Y-17421038D02*
X11331194Y-17411514D01*
X11331194Y-17411514D02*
X11359766Y-17411514D01*
X11359766Y-17411514D02*
X11378813Y-17421038D01*
X11502623Y-17544848D02*
X11483575Y-17535324D01*
X11483575Y-17535324D02*
X11474051Y-17516276D01*
X11474051Y-17516276D02*
X11474051Y-17344848D01*
X11607385Y-17544848D02*
X11588337Y-17535324D01*
X11588337Y-17535324D02*
X11578813Y-17525800D01*
X11578813Y-17525800D02*
X11569289Y-17506753D01*
X11569289Y-17506753D02*
X11569289Y-17449610D01*
X11569289Y-17449610D02*
X11578813Y-17430562D01*
X11578813Y-17430562D02*
X11588337Y-17421038D01*
X11588337Y-17421038D02*
X11607385Y-17411514D01*
X11607385Y-17411514D02*
X11635956Y-17411514D01*
X11635956Y-17411514D02*
X11655004Y-17421038D01*
X11655004Y-17421038D02*
X11664528Y-17430562D01*
X11664528Y-17430562D02*
X11674051Y-17449610D01*
X11674051Y-17449610D02*
X11674051Y-17506753D01*
X11674051Y-17506753D02*
X11664528Y-17525800D01*
X11664528Y-17525800D02*
X11655004Y-17535324D01*
X11655004Y-17535324D02*
X11635956Y-17544848D01*
X11635956Y-17544848D02*
X11607385Y-17544848D01*
X11731194Y-17411514D02*
X11807385Y-17411514D01*
X11759766Y-17344848D02*
X11759766Y-17516276D01*
X11759766Y-17516276D02*
X11769289Y-17535324D01*
X11769289Y-17535324D02*
X11788337Y-17544848D01*
X11788337Y-17544848D02*
X11807385Y-17544848D01*
X11855004Y-17621038D02*
X11864528Y-17611514D01*
X11864528Y-17611514D02*
X11883575Y-17582943D01*
X11883575Y-17582943D02*
X11893099Y-17563895D01*
X11893099Y-17563895D02*
X11902623Y-17535324D01*
X11902623Y-17535324D02*
X11912147Y-17487705D01*
X11912147Y-17487705D02*
X11912147Y-17449610D01*
X11912147Y-17449610D02*
X11902623Y-17401991D01*
X11902623Y-17401991D02*
X11893099Y-17373419D01*
X11893099Y-17373419D02*
X11883575Y-17354372D01*
X11883575Y-17354372D02*
X11864528Y-17325800D01*
X11864528Y-17325800D02*
X11855004Y-17316276D01*
X12216909Y-17621038D02*
X12207385Y-17611514D01*
X12207385Y-17611514D02*
X12188337Y-17582943D01*
X12188337Y-17582943D02*
X12178813Y-17563895D01*
X12178813Y-17563895D02*
X12169289Y-17535324D01*
X12169289Y-17535324D02*
X12159766Y-17487705D01*
X12159766Y-17487705D02*
X12159766Y-17449610D01*
X12159766Y-17449610D02*
X12169289Y-17401991D01*
X12169289Y-17401991D02*
X12178813Y-17373419D01*
X12178813Y-17373419D02*
X12188337Y-17354372D01*
X12188337Y-17354372D02*
X12207385Y-17325800D01*
X12207385Y-17325800D02*
X12216909Y-17316276D01*
X12293099Y-17411514D02*
X12293099Y-17544848D01*
X12293099Y-17430562D02*
X12302623Y-17421038D01*
X12302623Y-17421038D02*
X12321670Y-17411514D01*
X12321670Y-17411514D02*
X12350242Y-17411514D01*
X12350242Y-17411514D02*
X12369289Y-17421038D01*
X12369289Y-17421038D02*
X12378813Y-17440086D01*
X12378813Y-17440086D02*
X12378813Y-17544848D01*
X12502623Y-17544848D02*
X12483575Y-17535324D01*
X12483575Y-17535324D02*
X12474051Y-17525800D01*
X12474051Y-17525800D02*
X12464528Y-17506753D01*
X12464528Y-17506753D02*
X12464528Y-17449610D01*
X12464528Y-17449610D02*
X12474051Y-17430562D01*
X12474051Y-17430562D02*
X12483575Y-17421038D01*
X12483575Y-17421038D02*
X12502623Y-17411514D01*
X12502623Y-17411514D02*
X12531194Y-17411514D01*
X12531194Y-17411514D02*
X12550242Y-17421038D01*
X12550242Y-17421038D02*
X12559766Y-17430562D01*
X12559766Y-17430562D02*
X12569289Y-17449610D01*
X12569289Y-17449610D02*
X12569289Y-17506753D01*
X12569289Y-17506753D02*
X12559766Y-17525800D01*
X12559766Y-17525800D02*
X12550242Y-17535324D01*
X12550242Y-17535324D02*
X12531194Y-17544848D01*
X12531194Y-17544848D02*
X12502623Y-17544848D01*
X12626432Y-17411514D02*
X12702623Y-17411514D01*
X12655004Y-17344848D02*
X12655004Y-17516276D01*
X12655004Y-17516276D02*
X12664528Y-17535324D01*
X12664528Y-17535324D02*
X12683575Y-17544848D01*
X12683575Y-17544848D02*
X12702623Y-17544848D01*
X12921670Y-17411514D02*
X12921670Y-17611514D01*
X12921670Y-17421038D02*
X12940718Y-17411514D01*
X12940718Y-17411514D02*
X12978813Y-17411514D01*
X12978813Y-17411514D02*
X12997861Y-17421038D01*
X12997861Y-17421038D02*
X13007385Y-17430562D01*
X13007385Y-17430562D02*
X13016909Y-17449610D01*
X13016909Y-17449610D02*
X13016909Y-17506753D01*
X13016909Y-17506753D02*
X13007385Y-17525800D01*
X13007385Y-17525800D02*
X12997861Y-17535324D01*
X12997861Y-17535324D02*
X12978813Y-17544848D01*
X12978813Y-17544848D02*
X12940718Y-17544848D01*
X12940718Y-17544848D02*
X12921670Y-17535324D01*
X13131194Y-17544848D02*
X13112147Y-17535324D01*
X13112147Y-17535324D02*
X13102623Y-17516276D01*
X13102623Y-17516276D02*
X13102623Y-17344848D01*
X13293099Y-17544848D02*
X13293099Y-17440086D01*
X13293099Y-17440086D02*
X13283575Y-17421038D01*
X13283575Y-17421038D02*
X13264528Y-17411514D01*
X13264528Y-17411514D02*
X13226432Y-17411514D01*
X13226432Y-17411514D02*
X13207385Y-17421038D01*
X13293099Y-17535324D02*
X13274051Y-17544848D01*
X13274051Y-17544848D02*
X13226432Y-17544848D01*
X13226432Y-17544848D02*
X13207385Y-17535324D01*
X13207385Y-17535324D02*
X13197861Y-17516276D01*
X13197861Y-17516276D02*
X13197861Y-17497229D01*
X13197861Y-17497229D02*
X13207385Y-17478181D01*
X13207385Y-17478181D02*
X13226432Y-17468657D01*
X13226432Y-17468657D02*
X13274051Y-17468657D01*
X13274051Y-17468657D02*
X13293099Y-17459134D01*
X13359766Y-17411514D02*
X13435956Y-17411514D01*
X13388337Y-17344848D02*
X13388337Y-17516276D01*
X13388337Y-17516276D02*
X13397861Y-17535324D01*
X13397861Y-17535324D02*
X13416909Y-17544848D01*
X13416909Y-17544848D02*
X13435956Y-17544848D01*
X13578813Y-17535324D02*
X13559766Y-17544848D01*
X13559766Y-17544848D02*
X13521670Y-17544848D01*
X13521670Y-17544848D02*
X13502623Y-17535324D01*
X13502623Y-17535324D02*
X13493099Y-17516276D01*
X13493099Y-17516276D02*
X13493099Y-17440086D01*
X13493099Y-17440086D02*
X13502623Y-17421038D01*
X13502623Y-17421038D02*
X13521670Y-17411514D01*
X13521670Y-17411514D02*
X13559766Y-17411514D01*
X13559766Y-17411514D02*
X13578813Y-17421038D01*
X13578813Y-17421038D02*
X13588337Y-17440086D01*
X13588337Y-17440086D02*
X13588337Y-17459134D01*
X13588337Y-17459134D02*
X13493099Y-17478181D01*
X13759766Y-17544848D02*
X13759766Y-17344848D01*
X13759766Y-17535324D02*
X13740718Y-17544848D01*
X13740718Y-17544848D02*
X13702623Y-17544848D01*
X13702623Y-17544848D02*
X13683575Y-17535324D01*
X13683575Y-17535324D02*
X13674051Y-17525800D01*
X13674051Y-17525800D02*
X13664528Y-17506753D01*
X13664528Y-17506753D02*
X13664528Y-17449610D01*
X13664528Y-17449610D02*
X13674051Y-17430562D01*
X13674051Y-17430562D02*
X13683575Y-17421038D01*
X13683575Y-17421038D02*
X13702623Y-17411514D01*
X13702623Y-17411514D02*
X13740718Y-17411514D01*
X13740718Y-17411514D02*
X13759766Y-17421038D01*
X13835956Y-17621038D02*
X13845480Y-17611514D01*
X13845480Y-17611514D02*
X13864528Y-17582943D01*
X13864528Y-17582943D02*
X13874051Y-17563895D01*
X13874051Y-17563895D02*
X13883575Y-17535324D01*
X13883575Y-17535324D02*
X13893099Y-17487705D01*
X13893099Y-17487705D02*
X13893099Y-17449610D01*
X13893099Y-17449610D02*
X13883575Y-17401991D01*
X13883575Y-17401991D02*
X13874051Y-17373419D01*
X13874051Y-17373419D02*
X13864528Y-17354372D01*
X13864528Y-17354372D02*
X13845480Y-17325800D01*
X13845480Y-17325800D02*
X13835956Y-17316276D01*
X7218036Y-17873364D02*
X7318036Y-17773364D01*
X7218036Y-17673364D01*
X7118036Y-17773364D01*
X7218036Y-17873364D01*
X7559765Y-17664848D02*
X7683575Y-17664848D01*
X7683575Y-17664848D02*
X7616908Y-17741038D01*
X7616908Y-17741038D02*
X7645480Y-17741038D01*
X7645480Y-17741038D02*
X7664527Y-17750562D01*
X7664527Y-17750562D02*
X7674051Y-17760086D01*
X7674051Y-17760086D02*
X7683575Y-17779134D01*
X7683575Y-17779134D02*
X7683575Y-17826753D01*
X7683575Y-17826753D02*
X7674051Y-17845800D01*
X7674051Y-17845800D02*
X7664527Y-17855324D01*
X7664527Y-17855324D02*
X7645480Y-17864848D01*
X7645480Y-17864848D02*
X7588337Y-17864848D01*
X7588337Y-17864848D02*
X7569289Y-17855324D01*
X7569289Y-17855324D02*
X7559765Y-17845800D01*
X7769289Y-17845800D02*
X7778813Y-17855324D01*
X7778813Y-17855324D02*
X7769289Y-17864848D01*
X7769289Y-17864848D02*
X7759765Y-17855324D01*
X7759765Y-17855324D02*
X7769289Y-17845800D01*
X7769289Y-17845800D02*
X7769289Y-17864848D01*
X7855003Y-17683895D02*
X7864527Y-17674372D01*
X7864527Y-17674372D02*
X7883575Y-17664848D01*
X7883575Y-17664848D02*
X7931194Y-17664848D01*
X7931194Y-17664848D02*
X7950241Y-17674372D01*
X7950241Y-17674372D02*
X7959765Y-17683895D01*
X7959765Y-17683895D02*
X7969289Y-17702943D01*
X7969289Y-17702943D02*
X7969289Y-17721991D01*
X7969289Y-17721991D02*
X7959765Y-17750562D01*
X7959765Y-17750562D02*
X7845480Y-17864848D01*
X7845480Y-17864848D02*
X7969289Y-17864848D01*
X8093099Y-17664848D02*
X8112146Y-17664848D01*
X8112146Y-17664848D02*
X8131194Y-17674372D01*
X8131194Y-17674372D02*
X8140718Y-17683895D01*
X8140718Y-17683895D02*
X8150241Y-17702943D01*
X8150241Y-17702943D02*
X8159765Y-17741038D01*
X8159765Y-17741038D02*
X8159765Y-17788657D01*
X8159765Y-17788657D02*
X8150241Y-17826753D01*
X8150241Y-17826753D02*
X8140718Y-17845800D01*
X8140718Y-17845800D02*
X8131194Y-17855324D01*
X8131194Y-17855324D02*
X8112146Y-17864848D01*
X8112146Y-17864848D02*
X8093099Y-17864848D01*
X8093099Y-17864848D02*
X8074051Y-17855324D01*
X8074051Y-17855324D02*
X8064527Y-17845800D01*
X8064527Y-17845800D02*
X8055003Y-17826753D01*
X8055003Y-17826753D02*
X8045480Y-17788657D01*
X8045480Y-17788657D02*
X8045480Y-17741038D01*
X8045480Y-17741038D02*
X8055003Y-17702943D01*
X8055003Y-17702943D02*
X8064527Y-17683895D01*
X8064527Y-17683895D02*
X8074051Y-17674372D01*
X8074051Y-17674372D02*
X8093099Y-17664848D01*
X8283575Y-17664848D02*
X8302622Y-17664848D01*
X8302622Y-17664848D02*
X8321670Y-17674372D01*
X8321670Y-17674372D02*
X8331194Y-17683895D01*
X8331194Y-17683895D02*
X8340718Y-17702943D01*
X8340718Y-17702943D02*
X8350241Y-17741038D01*
X8350241Y-17741038D02*
X8350241Y-17788657D01*
X8350241Y-17788657D02*
X8340718Y-17826753D01*
X8340718Y-17826753D02*
X8331194Y-17845800D01*
X8331194Y-17845800D02*
X8321670Y-17855324D01*
X8321670Y-17855324D02*
X8302622Y-17864848D01*
X8302622Y-17864848D02*
X8283575Y-17864848D01*
X8283575Y-17864848D02*
X8264527Y-17855324D01*
X8264527Y-17855324D02*
X8255003Y-17845800D01*
X8255003Y-17845800D02*
X8245480Y-17826753D01*
X8245480Y-17826753D02*
X8235956Y-17788657D01*
X8235956Y-17788657D02*
X8235956Y-17741038D01*
X8235956Y-17741038D02*
X8245480Y-17702943D01*
X8245480Y-17702943D02*
X8255003Y-17683895D01*
X8255003Y-17683895D02*
X8264527Y-17674372D01*
X8264527Y-17674372D02*
X8283575Y-17664848D01*
X8435956Y-17864848D02*
X8435956Y-17731514D01*
X8435956Y-17750562D02*
X8445480Y-17741038D01*
X8445480Y-17741038D02*
X8464527Y-17731514D01*
X8464527Y-17731514D02*
X8493099Y-17731514D01*
X8493099Y-17731514D02*
X8512146Y-17741038D01*
X8512146Y-17741038D02*
X8521670Y-17760086D01*
X8521670Y-17760086D02*
X8521670Y-17864848D01*
X8521670Y-17760086D02*
X8531194Y-17741038D01*
X8531194Y-17741038D02*
X8550242Y-17731514D01*
X8550242Y-17731514D02*
X8578813Y-17731514D01*
X8578813Y-17731514D02*
X8597861Y-17741038D01*
X8597861Y-17741038D02*
X8607384Y-17760086D01*
X8607384Y-17760086D02*
X8607384Y-17864848D01*
X8702623Y-17864848D02*
X8702623Y-17731514D01*
X8702623Y-17750562D02*
X8712146Y-17741038D01*
X8712146Y-17741038D02*
X8731194Y-17731514D01*
X8731194Y-17731514D02*
X8759765Y-17731514D01*
X8759765Y-17731514D02*
X8778813Y-17741038D01*
X8778813Y-17741038D02*
X8788337Y-17760086D01*
X8788337Y-17760086D02*
X8788337Y-17864848D01*
X8788337Y-17760086D02*
X8797861Y-17741038D01*
X8797861Y-17741038D02*
X8816908Y-17731514D01*
X8816908Y-17731514D02*
X8845480Y-17731514D01*
X8845480Y-17731514D02*
X8864527Y-17741038D01*
X8864527Y-17741038D02*
X8874051Y-17760086D01*
X8874051Y-17760086D02*
X8874051Y-17864848D01*
X9264527Y-17655324D02*
X9093099Y-17912467D01*
X9521670Y-17664848D02*
X9540718Y-17664848D01*
X9540718Y-17664848D02*
X9559766Y-17674372D01*
X9559766Y-17674372D02*
X9569289Y-17683895D01*
X9569289Y-17683895D02*
X9578813Y-17702943D01*
X9578813Y-17702943D02*
X9588337Y-17741038D01*
X9588337Y-17741038D02*
X9588337Y-17788657D01*
X9588337Y-17788657D02*
X9578813Y-17826753D01*
X9578813Y-17826753D02*
X9569289Y-17845800D01*
X9569289Y-17845800D02*
X9559766Y-17855324D01*
X9559766Y-17855324D02*
X9540718Y-17864848D01*
X9540718Y-17864848D02*
X9521670Y-17864848D01*
X9521670Y-17864848D02*
X9502623Y-17855324D01*
X9502623Y-17855324D02*
X9493099Y-17845800D01*
X9493099Y-17845800D02*
X9483575Y-17826753D01*
X9483575Y-17826753D02*
X9474051Y-17788657D01*
X9474051Y-17788657D02*
X9474051Y-17741038D01*
X9474051Y-17741038D02*
X9483575Y-17702943D01*
X9483575Y-17702943D02*
X9493099Y-17683895D01*
X9493099Y-17683895D02*
X9502623Y-17674372D01*
X9502623Y-17674372D02*
X9521670Y-17664848D01*
X9674051Y-17845800D02*
X9683575Y-17855324D01*
X9683575Y-17855324D02*
X9674051Y-17864848D01*
X9674051Y-17864848D02*
X9664527Y-17855324D01*
X9664527Y-17855324D02*
X9674051Y-17845800D01*
X9674051Y-17845800D02*
X9674051Y-17864848D01*
X9874051Y-17864848D02*
X9759766Y-17864848D01*
X9816908Y-17864848D02*
X9816908Y-17664848D01*
X9816908Y-17664848D02*
X9797861Y-17693419D01*
X9797861Y-17693419D02*
X9778813Y-17712467D01*
X9778813Y-17712467D02*
X9759766Y-17721991D01*
X9950242Y-17683895D02*
X9959766Y-17674372D01*
X9959766Y-17674372D02*
X9978813Y-17664848D01*
X9978813Y-17664848D02*
X10026432Y-17664848D01*
X10026432Y-17664848D02*
X10045480Y-17674372D01*
X10045480Y-17674372D02*
X10055004Y-17683895D01*
X10055004Y-17683895D02*
X10064527Y-17702943D01*
X10064527Y-17702943D02*
X10064527Y-17721991D01*
X10064527Y-17721991D02*
X10055004Y-17750562D01*
X10055004Y-17750562D02*
X9940718Y-17864848D01*
X9940718Y-17864848D02*
X10064527Y-17864848D01*
X10235956Y-17664848D02*
X10197861Y-17664848D01*
X10197861Y-17664848D02*
X10178813Y-17674372D01*
X10178813Y-17674372D02*
X10169289Y-17683895D01*
X10169289Y-17683895D02*
X10150242Y-17712467D01*
X10150242Y-17712467D02*
X10140718Y-17750562D01*
X10140718Y-17750562D02*
X10140718Y-17826753D01*
X10140718Y-17826753D02*
X10150242Y-17845800D01*
X10150242Y-17845800D02*
X10159766Y-17855324D01*
X10159766Y-17855324D02*
X10178813Y-17864848D01*
X10178813Y-17864848D02*
X10216908Y-17864848D01*
X10216908Y-17864848D02*
X10235956Y-17855324D01*
X10235956Y-17855324D02*
X10245480Y-17845800D01*
X10245480Y-17845800D02*
X10255004Y-17826753D01*
X10255004Y-17826753D02*
X10255004Y-17779134D01*
X10255004Y-17779134D02*
X10245480Y-17760086D01*
X10245480Y-17760086D02*
X10235956Y-17750562D01*
X10235956Y-17750562D02*
X10216908Y-17741038D01*
X10216908Y-17741038D02*
X10178813Y-17741038D01*
X10178813Y-17741038D02*
X10159766Y-17750562D01*
X10159766Y-17750562D02*
X10150242Y-17760086D01*
X10150242Y-17760086D02*
X10140718Y-17779134D01*
X10378813Y-17664848D02*
X10397861Y-17664848D01*
X10397861Y-17664848D02*
X10416908Y-17674372D01*
X10416908Y-17674372D02*
X10426432Y-17683895D01*
X10426432Y-17683895D02*
X10435956Y-17702943D01*
X10435956Y-17702943D02*
X10445480Y-17741038D01*
X10445480Y-17741038D02*
X10445480Y-17788657D01*
X10445480Y-17788657D02*
X10435956Y-17826753D01*
X10435956Y-17826753D02*
X10426432Y-17845800D01*
X10426432Y-17845800D02*
X10416908Y-17855324D01*
X10416908Y-17855324D02*
X10397861Y-17864848D01*
X10397861Y-17864848D02*
X10378813Y-17864848D01*
X10378813Y-17864848D02*
X10359766Y-17855324D01*
X10359766Y-17855324D02*
X10350242Y-17845800D01*
X10350242Y-17845800D02*
X10340718Y-17826753D01*
X10340718Y-17826753D02*
X10331194Y-17788657D01*
X10331194Y-17788657D02*
X10331194Y-17741038D01*
X10331194Y-17741038D02*
X10340718Y-17702943D01*
X10340718Y-17702943D02*
X10350242Y-17683895D01*
X10350242Y-17683895D02*
X10359766Y-17674372D01*
X10359766Y-17674372D02*
X10378813Y-17664848D01*
X10521670Y-17664848D02*
X10521670Y-17702943D01*
X10597861Y-17664848D02*
X10597861Y-17702943D01*
X10893099Y-17941038D02*
X10883575Y-17931514D01*
X10883575Y-17931514D02*
X10864528Y-17902943D01*
X10864528Y-17902943D02*
X10855004Y-17883895D01*
X10855004Y-17883895D02*
X10845480Y-17855324D01*
X10845480Y-17855324D02*
X10835956Y-17807705D01*
X10835956Y-17807705D02*
X10835956Y-17769610D01*
X10835956Y-17769610D02*
X10845480Y-17721991D01*
X10845480Y-17721991D02*
X10855004Y-17693419D01*
X10855004Y-17693419D02*
X10864528Y-17674372D01*
X10864528Y-17674372D02*
X10883575Y-17645800D01*
X10883575Y-17645800D02*
X10893099Y-17636276D01*
X11055004Y-17731514D02*
X11055004Y-17864848D01*
X11007385Y-17655324D02*
X10959766Y-17798181D01*
X10959766Y-17798181D02*
X11083575Y-17798181D01*
X11312147Y-17864848D02*
X11312147Y-17664848D01*
X11397861Y-17864848D02*
X11397861Y-17760086D01*
X11397861Y-17760086D02*
X11388337Y-17741038D01*
X11388337Y-17741038D02*
X11369289Y-17731514D01*
X11369289Y-17731514D02*
X11340718Y-17731514D01*
X11340718Y-17731514D02*
X11321670Y-17741038D01*
X11321670Y-17741038D02*
X11312147Y-17750562D01*
X11521670Y-17864848D02*
X11502623Y-17855324D01*
X11502623Y-17855324D02*
X11493099Y-17845800D01*
X11493099Y-17845800D02*
X11483575Y-17826753D01*
X11483575Y-17826753D02*
X11483575Y-17769610D01*
X11483575Y-17769610D02*
X11493099Y-17750562D01*
X11493099Y-17750562D02*
X11502623Y-17741038D01*
X11502623Y-17741038D02*
X11521670Y-17731514D01*
X11521670Y-17731514D02*
X11550242Y-17731514D01*
X11550242Y-17731514D02*
X11569289Y-17741038D01*
X11569289Y-17741038D02*
X11578813Y-17750562D01*
X11578813Y-17750562D02*
X11588337Y-17769610D01*
X11588337Y-17769610D02*
X11588337Y-17826753D01*
X11588337Y-17826753D02*
X11578813Y-17845800D01*
X11578813Y-17845800D02*
X11569289Y-17855324D01*
X11569289Y-17855324D02*
X11550242Y-17864848D01*
X11550242Y-17864848D02*
X11521670Y-17864848D01*
X11702623Y-17864848D02*
X11683575Y-17855324D01*
X11683575Y-17855324D02*
X11674051Y-17836276D01*
X11674051Y-17836276D02*
X11674051Y-17664848D01*
X11855004Y-17855324D02*
X11835956Y-17864848D01*
X11835956Y-17864848D02*
X11797861Y-17864848D01*
X11797861Y-17864848D02*
X11778813Y-17855324D01*
X11778813Y-17855324D02*
X11769289Y-17836276D01*
X11769289Y-17836276D02*
X11769289Y-17760086D01*
X11769289Y-17760086D02*
X11778813Y-17741038D01*
X11778813Y-17741038D02*
X11797861Y-17731514D01*
X11797861Y-17731514D02*
X11835956Y-17731514D01*
X11835956Y-17731514D02*
X11855004Y-17741038D01*
X11855004Y-17741038D02*
X11864528Y-17760086D01*
X11864528Y-17760086D02*
X11864528Y-17779134D01*
X11864528Y-17779134D02*
X11769289Y-17798181D01*
X11940718Y-17855324D02*
X11959766Y-17864848D01*
X11959766Y-17864848D02*
X11997861Y-17864848D01*
X11997861Y-17864848D02*
X12016909Y-17855324D01*
X12016909Y-17855324D02*
X12026432Y-17836276D01*
X12026432Y-17836276D02*
X12026432Y-17826753D01*
X12026432Y-17826753D02*
X12016909Y-17807705D01*
X12016909Y-17807705D02*
X11997861Y-17798181D01*
X11997861Y-17798181D02*
X11969289Y-17798181D01*
X11969289Y-17798181D02*
X11950242Y-17788657D01*
X11950242Y-17788657D02*
X11940718Y-17769610D01*
X11940718Y-17769610D02*
X11940718Y-17760086D01*
X11940718Y-17760086D02*
X11950242Y-17741038D01*
X11950242Y-17741038D02*
X11969289Y-17731514D01*
X11969289Y-17731514D02*
X11997861Y-17731514D01*
X11997861Y-17731514D02*
X12016909Y-17741038D01*
X12093099Y-17941038D02*
X12102623Y-17931514D01*
X12102623Y-17931514D02*
X12121670Y-17902943D01*
X12121670Y-17902943D02*
X12131194Y-17883895D01*
X12131194Y-17883895D02*
X12140718Y-17855324D01*
X12140718Y-17855324D02*
X12150242Y-17807705D01*
X12150242Y-17807705D02*
X12150242Y-17769610D01*
X12150242Y-17769610D02*
X12140718Y-17721991D01*
X12140718Y-17721991D02*
X12131194Y-17693419D01*
X12131194Y-17693419D02*
X12121670Y-17674372D01*
X12121670Y-17674372D02*
X12102623Y-17645800D01*
X12102623Y-17645800D02*
X12093099Y-17636276D01*
X12455004Y-17941038D02*
X12445480Y-17931514D01*
X12445480Y-17931514D02*
X12426432Y-17902943D01*
X12426432Y-17902943D02*
X12416909Y-17883895D01*
X12416909Y-17883895D02*
X12407385Y-17855324D01*
X12407385Y-17855324D02*
X12397861Y-17807705D01*
X12397861Y-17807705D02*
X12397861Y-17769610D01*
X12397861Y-17769610D02*
X12407385Y-17721991D01*
X12407385Y-17721991D02*
X12416909Y-17693419D01*
X12416909Y-17693419D02*
X12426432Y-17674372D01*
X12426432Y-17674372D02*
X12445480Y-17645800D01*
X12445480Y-17645800D02*
X12455004Y-17636276D01*
X12531194Y-17731514D02*
X12531194Y-17864848D01*
X12531194Y-17750562D02*
X12540718Y-17741038D01*
X12540718Y-17741038D02*
X12559766Y-17731514D01*
X12559766Y-17731514D02*
X12588337Y-17731514D01*
X12588337Y-17731514D02*
X12607385Y-17741038D01*
X12607385Y-17741038D02*
X12616909Y-17760086D01*
X12616909Y-17760086D02*
X12616909Y-17864848D01*
X12740718Y-17864848D02*
X12721670Y-17855324D01*
X12721670Y-17855324D02*
X12712147Y-17845800D01*
X12712147Y-17845800D02*
X12702623Y-17826753D01*
X12702623Y-17826753D02*
X12702623Y-17769610D01*
X12702623Y-17769610D02*
X12712147Y-17750562D01*
X12712147Y-17750562D02*
X12721670Y-17741038D01*
X12721670Y-17741038D02*
X12740718Y-17731514D01*
X12740718Y-17731514D02*
X12769290Y-17731514D01*
X12769290Y-17731514D02*
X12788337Y-17741038D01*
X12788337Y-17741038D02*
X12797861Y-17750562D01*
X12797861Y-17750562D02*
X12807385Y-17769610D01*
X12807385Y-17769610D02*
X12807385Y-17826753D01*
X12807385Y-17826753D02*
X12797861Y-17845800D01*
X12797861Y-17845800D02*
X12788337Y-17855324D01*
X12788337Y-17855324D02*
X12769290Y-17864848D01*
X12769290Y-17864848D02*
X12740718Y-17864848D01*
X12864528Y-17731514D02*
X12940718Y-17731514D01*
X12893099Y-17664848D02*
X12893099Y-17836276D01*
X12893099Y-17836276D02*
X12902623Y-17855324D01*
X12902623Y-17855324D02*
X12921670Y-17864848D01*
X12921670Y-17864848D02*
X12940718Y-17864848D01*
X13159766Y-17731514D02*
X13159766Y-17931514D01*
X13159766Y-17741038D02*
X13178813Y-17731514D01*
X13178813Y-17731514D02*
X13216909Y-17731514D01*
X13216909Y-17731514D02*
X13235956Y-17741038D01*
X13235956Y-17741038D02*
X13245480Y-17750562D01*
X13245480Y-17750562D02*
X13255004Y-17769610D01*
X13255004Y-17769610D02*
X13255004Y-17826753D01*
X13255004Y-17826753D02*
X13245480Y-17845800D01*
X13245480Y-17845800D02*
X13235956Y-17855324D01*
X13235956Y-17855324D02*
X13216909Y-17864848D01*
X13216909Y-17864848D02*
X13178813Y-17864848D01*
X13178813Y-17864848D02*
X13159766Y-17855324D01*
X13369290Y-17864848D02*
X13350242Y-17855324D01*
X13350242Y-17855324D02*
X13340718Y-17836276D01*
X13340718Y-17836276D02*
X13340718Y-17664848D01*
X13531194Y-17864848D02*
X13531194Y-17760086D01*
X13531194Y-17760086D02*
X13521671Y-17741038D01*
X13521671Y-17741038D02*
X13502623Y-17731514D01*
X13502623Y-17731514D02*
X13464528Y-17731514D01*
X13464528Y-17731514D02*
X13445480Y-17741038D01*
X13531194Y-17855324D02*
X13512147Y-17864848D01*
X13512147Y-17864848D02*
X13464528Y-17864848D01*
X13464528Y-17864848D02*
X13445480Y-17855324D01*
X13445480Y-17855324D02*
X13435956Y-17836276D01*
X13435956Y-17836276D02*
X13435956Y-17817229D01*
X13435956Y-17817229D02*
X13445480Y-17798181D01*
X13445480Y-17798181D02*
X13464528Y-17788657D01*
X13464528Y-17788657D02*
X13512147Y-17788657D01*
X13512147Y-17788657D02*
X13531194Y-17779134D01*
X13597861Y-17731514D02*
X13674051Y-17731514D01*
X13626432Y-17664848D02*
X13626432Y-17836276D01*
X13626432Y-17836276D02*
X13635956Y-17855324D01*
X13635956Y-17855324D02*
X13655004Y-17864848D01*
X13655004Y-17864848D02*
X13674051Y-17864848D01*
X13816909Y-17855324D02*
X13797861Y-17864848D01*
X13797861Y-17864848D02*
X13759766Y-17864848D01*
X13759766Y-17864848D02*
X13740718Y-17855324D01*
X13740718Y-17855324D02*
X13731194Y-17836276D01*
X13731194Y-17836276D02*
X13731194Y-17760086D01*
X13731194Y-17760086D02*
X13740718Y-17741038D01*
X13740718Y-17741038D02*
X13759766Y-17731514D01*
X13759766Y-17731514D02*
X13797861Y-17731514D01*
X13797861Y-17731514D02*
X13816909Y-17741038D01*
X13816909Y-17741038D02*
X13826432Y-17760086D01*
X13826432Y-17760086D02*
X13826432Y-17779134D01*
X13826432Y-17779134D02*
X13731194Y-17798181D01*
X13997861Y-17864848D02*
X13997861Y-17664848D01*
X13997861Y-17855324D02*
X13978813Y-17864848D01*
X13978813Y-17864848D02*
X13940718Y-17864848D01*
X13940718Y-17864848D02*
X13921671Y-17855324D01*
X13921671Y-17855324D02*
X13912147Y-17845800D01*
X13912147Y-17845800D02*
X13902623Y-17826753D01*
X13902623Y-17826753D02*
X13902623Y-17769610D01*
X13902623Y-17769610D02*
X13912147Y-17750562D01*
X13912147Y-17750562D02*
X13921671Y-17741038D01*
X13921671Y-17741038D02*
X13940718Y-17731514D01*
X13940718Y-17731514D02*
X13978813Y-17731514D01*
X13978813Y-17731514D02*
X13997861Y-17741038D01*
X14074052Y-17941038D02*
X14083575Y-17931514D01*
X14083575Y-17931514D02*
X14102623Y-17902943D01*
X14102623Y-17902943D02*
X14112147Y-17883895D01*
X14112147Y-17883895D02*
X14121671Y-17855324D01*
X14121671Y-17855324D02*
X14131194Y-17807705D01*
X14131194Y-17807705D02*
X14131194Y-17769610D01*
X14131194Y-17769610D02*
X14121671Y-17721991D01*
X14121671Y-17721991D02*
X14112147Y-17693419D01*
X14112147Y-17693419D02*
X14102623Y-17674372D01*
X14102623Y-17674372D02*
X14083575Y-17645800D01*
X14083575Y-17645800D02*
X14074052Y-17636276D01*
X7118036Y-17993364D02*
X7318036Y-18193364D01*
X7318036Y-17993364D02*
X7118036Y-18193364D01*
X7318036Y-18093364D02*
G75*
G03*
X7118036Y-18093364I-100000J0D01*
G01*
X7118036Y-18093364D02*
G75*
G03*
X7318036Y-18093364I100000J0D01*
G01*
X7569289Y-18003895D02*
X7578813Y-17994372D01*
X7578813Y-17994372D02*
X7597860Y-17984848D01*
X7597860Y-17984848D02*
X7645480Y-17984848D01*
X7645480Y-17984848D02*
X7664527Y-17994372D01*
X7664527Y-17994372D02*
X7674051Y-18003895D01*
X7674051Y-18003895D02*
X7683575Y-18022943D01*
X7683575Y-18022943D02*
X7683575Y-18041991D01*
X7683575Y-18041991D02*
X7674051Y-18070562D01*
X7674051Y-18070562D02*
X7559765Y-18184848D01*
X7559765Y-18184848D02*
X7683575Y-18184848D01*
X7807384Y-17984848D02*
X7826432Y-17984848D01*
X7826432Y-17984848D02*
X7845480Y-17994372D01*
X7845480Y-17994372D02*
X7855003Y-18003895D01*
X7855003Y-18003895D02*
X7864527Y-18022943D01*
X7864527Y-18022943D02*
X7874051Y-18061038D01*
X7874051Y-18061038D02*
X7874051Y-18108657D01*
X7874051Y-18108657D02*
X7864527Y-18146753D01*
X7864527Y-18146753D02*
X7855003Y-18165800D01*
X7855003Y-18165800D02*
X7845480Y-18175324D01*
X7845480Y-18175324D02*
X7826432Y-18184848D01*
X7826432Y-18184848D02*
X7807384Y-18184848D01*
X7807384Y-18184848D02*
X7788337Y-18175324D01*
X7788337Y-18175324D02*
X7778813Y-18165800D01*
X7778813Y-18165800D02*
X7769289Y-18146753D01*
X7769289Y-18146753D02*
X7759765Y-18108657D01*
X7759765Y-18108657D02*
X7759765Y-18061038D01*
X7759765Y-18061038D02*
X7769289Y-18022943D01*
X7769289Y-18022943D02*
X7778813Y-18003895D01*
X7778813Y-18003895D02*
X7788337Y-17994372D01*
X7788337Y-17994372D02*
X7807384Y-17984848D01*
X7959765Y-18165800D02*
X7969289Y-18175324D01*
X7969289Y-18175324D02*
X7959765Y-18184848D01*
X7959765Y-18184848D02*
X7950241Y-18175324D01*
X7950241Y-18175324D02*
X7959765Y-18165800D01*
X7959765Y-18165800D02*
X7959765Y-18184848D01*
X8093099Y-17984848D02*
X8112146Y-17984848D01*
X8112146Y-17984848D02*
X8131194Y-17994372D01*
X8131194Y-17994372D02*
X8140718Y-18003895D01*
X8140718Y-18003895D02*
X8150241Y-18022943D01*
X8150241Y-18022943D02*
X8159765Y-18061038D01*
X8159765Y-18061038D02*
X8159765Y-18108657D01*
X8159765Y-18108657D02*
X8150241Y-18146753D01*
X8150241Y-18146753D02*
X8140718Y-18165800D01*
X8140718Y-18165800D02*
X8131194Y-18175324D01*
X8131194Y-18175324D02*
X8112146Y-18184848D01*
X8112146Y-18184848D02*
X8093099Y-18184848D01*
X8093099Y-18184848D02*
X8074051Y-18175324D01*
X8074051Y-18175324D02*
X8064527Y-18165800D01*
X8064527Y-18165800D02*
X8055003Y-18146753D01*
X8055003Y-18146753D02*
X8045480Y-18108657D01*
X8045480Y-18108657D02*
X8045480Y-18061038D01*
X8045480Y-18061038D02*
X8055003Y-18022943D01*
X8055003Y-18022943D02*
X8064527Y-18003895D01*
X8064527Y-18003895D02*
X8074051Y-17994372D01*
X8074051Y-17994372D02*
X8093099Y-17984848D01*
X8283575Y-17984848D02*
X8302622Y-17984848D01*
X8302622Y-17984848D02*
X8321670Y-17994372D01*
X8321670Y-17994372D02*
X8331194Y-18003895D01*
X8331194Y-18003895D02*
X8340718Y-18022943D01*
X8340718Y-18022943D02*
X8350241Y-18061038D01*
X8350241Y-18061038D02*
X8350241Y-18108657D01*
X8350241Y-18108657D02*
X8340718Y-18146753D01*
X8340718Y-18146753D02*
X8331194Y-18165800D01*
X8331194Y-18165800D02*
X8321670Y-18175324D01*
X8321670Y-18175324D02*
X8302622Y-18184848D01*
X8302622Y-18184848D02*
X8283575Y-18184848D01*
X8283575Y-18184848D02*
X8264527Y-18175324D01*
X8264527Y-18175324D02*
X8255003Y-18165800D01*
X8255003Y-18165800D02*
X8245480Y-18146753D01*
X8245480Y-18146753D02*
X8235956Y-18108657D01*
X8235956Y-18108657D02*
X8235956Y-18061038D01*
X8235956Y-18061038D02*
X8245480Y-18022943D01*
X8245480Y-18022943D02*
X8255003Y-18003895D01*
X8255003Y-18003895D02*
X8264527Y-17994372D01*
X8264527Y-17994372D02*
X8283575Y-17984848D01*
X8474051Y-17984848D02*
X8493099Y-17984848D01*
X8493099Y-17984848D02*
X8512146Y-17994372D01*
X8512146Y-17994372D02*
X8521670Y-18003895D01*
X8521670Y-18003895D02*
X8531194Y-18022943D01*
X8531194Y-18022943D02*
X8540718Y-18061038D01*
X8540718Y-18061038D02*
X8540718Y-18108657D01*
X8540718Y-18108657D02*
X8531194Y-18146753D01*
X8531194Y-18146753D02*
X8521670Y-18165800D01*
X8521670Y-18165800D02*
X8512146Y-18175324D01*
X8512146Y-18175324D02*
X8493099Y-18184848D01*
X8493099Y-18184848D02*
X8474051Y-18184848D01*
X8474051Y-18184848D02*
X8455003Y-18175324D01*
X8455003Y-18175324D02*
X8445480Y-18165800D01*
X8445480Y-18165800D02*
X8435956Y-18146753D01*
X8435956Y-18146753D02*
X8426432Y-18108657D01*
X8426432Y-18108657D02*
X8426432Y-18061038D01*
X8426432Y-18061038D02*
X8435956Y-18022943D01*
X8435956Y-18022943D02*
X8445480Y-18003895D01*
X8445480Y-18003895D02*
X8455003Y-17994372D01*
X8455003Y-17994372D02*
X8474051Y-17984848D01*
X8626432Y-18184848D02*
X8626432Y-18051514D01*
X8626432Y-18070562D02*
X8635956Y-18061038D01*
X8635956Y-18061038D02*
X8655003Y-18051514D01*
X8655003Y-18051514D02*
X8683575Y-18051514D01*
X8683575Y-18051514D02*
X8702623Y-18061038D01*
X8702623Y-18061038D02*
X8712146Y-18080086D01*
X8712146Y-18080086D02*
X8712146Y-18184848D01*
X8712146Y-18080086D02*
X8721670Y-18061038D01*
X8721670Y-18061038D02*
X8740718Y-18051514D01*
X8740718Y-18051514D02*
X8769289Y-18051514D01*
X8769289Y-18051514D02*
X8788337Y-18061038D01*
X8788337Y-18061038D02*
X8797861Y-18080086D01*
X8797861Y-18080086D02*
X8797861Y-18184848D01*
X8893099Y-18184848D02*
X8893099Y-18051514D01*
X8893099Y-18070562D02*
X8902623Y-18061038D01*
X8902623Y-18061038D02*
X8921670Y-18051514D01*
X8921670Y-18051514D02*
X8950242Y-18051514D01*
X8950242Y-18051514D02*
X8969289Y-18061038D01*
X8969289Y-18061038D02*
X8978813Y-18080086D01*
X8978813Y-18080086D02*
X8978813Y-18184848D01*
X8978813Y-18080086D02*
X8988337Y-18061038D01*
X8988337Y-18061038D02*
X9007384Y-18051514D01*
X9007384Y-18051514D02*
X9035956Y-18051514D01*
X9035956Y-18051514D02*
X9055004Y-18061038D01*
X9055004Y-18061038D02*
X9064527Y-18080086D01*
X9064527Y-18080086D02*
X9064527Y-18184848D01*
X9455004Y-17975324D02*
X9283575Y-18232467D01*
X9712146Y-17984848D02*
X9731194Y-17984848D01*
X9731194Y-17984848D02*
X9750242Y-17994372D01*
X9750242Y-17994372D02*
X9759766Y-18003895D01*
X9759766Y-18003895D02*
X9769289Y-18022943D01*
X9769289Y-18022943D02*
X9778813Y-18061038D01*
X9778813Y-18061038D02*
X9778813Y-18108657D01*
X9778813Y-18108657D02*
X9769289Y-18146753D01*
X9769289Y-18146753D02*
X9759766Y-18165800D01*
X9759766Y-18165800D02*
X9750242Y-18175324D01*
X9750242Y-18175324D02*
X9731194Y-18184848D01*
X9731194Y-18184848D02*
X9712146Y-18184848D01*
X9712146Y-18184848D02*
X9693099Y-18175324D01*
X9693099Y-18175324D02*
X9683575Y-18165800D01*
X9683575Y-18165800D02*
X9674051Y-18146753D01*
X9674051Y-18146753D02*
X9664527Y-18108657D01*
X9664527Y-18108657D02*
X9664527Y-18061038D01*
X9664527Y-18061038D02*
X9674051Y-18022943D01*
X9674051Y-18022943D02*
X9683575Y-18003895D01*
X9683575Y-18003895D02*
X9693099Y-17994372D01*
X9693099Y-17994372D02*
X9712146Y-17984848D01*
X9864527Y-18165800D02*
X9874051Y-18175324D01*
X9874051Y-18175324D02*
X9864527Y-18184848D01*
X9864527Y-18184848D02*
X9855004Y-18175324D01*
X9855004Y-18175324D02*
X9864527Y-18165800D01*
X9864527Y-18165800D02*
X9864527Y-18184848D01*
X9940718Y-17984848D02*
X10074051Y-17984848D01*
X10074051Y-17984848D02*
X9988337Y-18184848D01*
X10178813Y-18070562D02*
X10159766Y-18061038D01*
X10159766Y-18061038D02*
X10150242Y-18051514D01*
X10150242Y-18051514D02*
X10140718Y-18032467D01*
X10140718Y-18032467D02*
X10140718Y-18022943D01*
X10140718Y-18022943D02*
X10150242Y-18003895D01*
X10150242Y-18003895D02*
X10159766Y-17994372D01*
X10159766Y-17994372D02*
X10178813Y-17984848D01*
X10178813Y-17984848D02*
X10216908Y-17984848D01*
X10216908Y-17984848D02*
X10235956Y-17994372D01*
X10235956Y-17994372D02*
X10245480Y-18003895D01*
X10245480Y-18003895D02*
X10255004Y-18022943D01*
X10255004Y-18022943D02*
X10255004Y-18032467D01*
X10255004Y-18032467D02*
X10245480Y-18051514D01*
X10245480Y-18051514D02*
X10235956Y-18061038D01*
X10235956Y-18061038D02*
X10216908Y-18070562D01*
X10216908Y-18070562D02*
X10178813Y-18070562D01*
X10178813Y-18070562D02*
X10159766Y-18080086D01*
X10159766Y-18080086D02*
X10150242Y-18089610D01*
X10150242Y-18089610D02*
X10140718Y-18108657D01*
X10140718Y-18108657D02*
X10140718Y-18146753D01*
X10140718Y-18146753D02*
X10150242Y-18165800D01*
X10150242Y-18165800D02*
X10159766Y-18175324D01*
X10159766Y-18175324D02*
X10178813Y-18184848D01*
X10178813Y-18184848D02*
X10216908Y-18184848D01*
X10216908Y-18184848D02*
X10235956Y-18175324D01*
X10235956Y-18175324D02*
X10245480Y-18165800D01*
X10245480Y-18165800D02*
X10255004Y-18146753D01*
X10255004Y-18146753D02*
X10255004Y-18108657D01*
X10255004Y-18108657D02*
X10245480Y-18089610D01*
X10245480Y-18089610D02*
X10235956Y-18080086D01*
X10235956Y-18080086D02*
X10216908Y-18070562D01*
X10321670Y-17984848D02*
X10455004Y-17984848D01*
X10455004Y-17984848D02*
X10369289Y-18184848D01*
X10616908Y-18051514D02*
X10616908Y-18184848D01*
X10569289Y-17975324D02*
X10521670Y-18118181D01*
X10521670Y-18118181D02*
X10645480Y-18118181D01*
X10712147Y-17984848D02*
X10712147Y-18022943D01*
X10788337Y-17984848D02*
X10788337Y-18022943D01*
X11083575Y-18261038D02*
X11074051Y-18251514D01*
X11074051Y-18251514D02*
X11055004Y-18222943D01*
X11055004Y-18222943D02*
X11045480Y-18203895D01*
X11045480Y-18203895D02*
X11035956Y-18175324D01*
X11035956Y-18175324D02*
X11026432Y-18127705D01*
X11026432Y-18127705D02*
X11026432Y-18089610D01*
X11026432Y-18089610D02*
X11035956Y-18041991D01*
X11035956Y-18041991D02*
X11045480Y-18013419D01*
X11045480Y-18013419D02*
X11055004Y-17994372D01*
X11055004Y-17994372D02*
X11074051Y-17965800D01*
X11074051Y-17965800D02*
X11083575Y-17956276D01*
X11264527Y-18184848D02*
X11150242Y-18184848D01*
X11207385Y-18184848D02*
X11207385Y-17984848D01*
X11207385Y-17984848D02*
X11188337Y-18013419D01*
X11188337Y-18013419D02*
X11169289Y-18032467D01*
X11169289Y-18032467D02*
X11150242Y-18041991D01*
X11502623Y-18184848D02*
X11502623Y-17984848D01*
X11588337Y-18184848D02*
X11588337Y-18080086D01*
X11588337Y-18080086D02*
X11578813Y-18061038D01*
X11578813Y-18061038D02*
X11559766Y-18051514D01*
X11559766Y-18051514D02*
X11531194Y-18051514D01*
X11531194Y-18051514D02*
X11512147Y-18061038D01*
X11512147Y-18061038D02*
X11502623Y-18070562D01*
X11712147Y-18184848D02*
X11693099Y-18175324D01*
X11693099Y-18175324D02*
X11683575Y-18165800D01*
X11683575Y-18165800D02*
X11674051Y-18146753D01*
X11674051Y-18146753D02*
X11674051Y-18089610D01*
X11674051Y-18089610D02*
X11683575Y-18070562D01*
X11683575Y-18070562D02*
X11693099Y-18061038D01*
X11693099Y-18061038D02*
X11712147Y-18051514D01*
X11712147Y-18051514D02*
X11740718Y-18051514D01*
X11740718Y-18051514D02*
X11759766Y-18061038D01*
X11759766Y-18061038D02*
X11769289Y-18070562D01*
X11769289Y-18070562D02*
X11778813Y-18089610D01*
X11778813Y-18089610D02*
X11778813Y-18146753D01*
X11778813Y-18146753D02*
X11769289Y-18165800D01*
X11769289Y-18165800D02*
X11759766Y-18175324D01*
X11759766Y-18175324D02*
X11740718Y-18184848D01*
X11740718Y-18184848D02*
X11712147Y-18184848D01*
X11893099Y-18184848D02*
X11874051Y-18175324D01*
X11874051Y-18175324D02*
X11864528Y-18156276D01*
X11864528Y-18156276D02*
X11864528Y-17984848D01*
X12045480Y-18175324D02*
X12026432Y-18184848D01*
X12026432Y-18184848D02*
X11988337Y-18184848D01*
X11988337Y-18184848D02*
X11969289Y-18175324D01*
X11969289Y-18175324D02*
X11959766Y-18156276D01*
X11959766Y-18156276D02*
X11959766Y-18080086D01*
X11959766Y-18080086D02*
X11969289Y-18061038D01*
X11969289Y-18061038D02*
X11988337Y-18051514D01*
X11988337Y-18051514D02*
X12026432Y-18051514D01*
X12026432Y-18051514D02*
X12045480Y-18061038D01*
X12045480Y-18061038D02*
X12055004Y-18080086D01*
X12055004Y-18080086D02*
X12055004Y-18099134D01*
X12055004Y-18099134D02*
X11959766Y-18118181D01*
X12121670Y-18261038D02*
X12131194Y-18251514D01*
X12131194Y-18251514D02*
X12150242Y-18222943D01*
X12150242Y-18222943D02*
X12159766Y-18203895D01*
X12159766Y-18203895D02*
X12169289Y-18175324D01*
X12169289Y-18175324D02*
X12178813Y-18127705D01*
X12178813Y-18127705D02*
X12178813Y-18089610D01*
X12178813Y-18089610D02*
X12169289Y-18041991D01*
X12169289Y-18041991D02*
X12159766Y-18013419D01*
X12159766Y-18013419D02*
X12150242Y-17994372D01*
X12150242Y-17994372D02*
X12131194Y-17965800D01*
X12131194Y-17965800D02*
X12121670Y-17956276D01*
X12483575Y-18261038D02*
X12474051Y-18251514D01*
X12474051Y-18251514D02*
X12455004Y-18222943D01*
X12455004Y-18222943D02*
X12445480Y-18203895D01*
X12445480Y-18203895D02*
X12435956Y-18175324D01*
X12435956Y-18175324D02*
X12426432Y-18127705D01*
X12426432Y-18127705D02*
X12426432Y-18089610D01*
X12426432Y-18089610D02*
X12435956Y-18041991D01*
X12435956Y-18041991D02*
X12445480Y-18013419D01*
X12445480Y-18013419D02*
X12455004Y-17994372D01*
X12455004Y-17994372D02*
X12474051Y-17965800D01*
X12474051Y-17965800D02*
X12483575Y-17956276D01*
X12559766Y-18051514D02*
X12559766Y-18184848D01*
X12559766Y-18070562D02*
X12569289Y-18061038D01*
X12569289Y-18061038D02*
X12588337Y-18051514D01*
X12588337Y-18051514D02*
X12616909Y-18051514D01*
X12616909Y-18051514D02*
X12635956Y-18061038D01*
X12635956Y-18061038D02*
X12645480Y-18080086D01*
X12645480Y-18080086D02*
X12645480Y-18184848D01*
X12769289Y-18184848D02*
X12750242Y-18175324D01*
X12750242Y-18175324D02*
X12740718Y-18165800D01*
X12740718Y-18165800D02*
X12731194Y-18146753D01*
X12731194Y-18146753D02*
X12731194Y-18089610D01*
X12731194Y-18089610D02*
X12740718Y-18070562D01*
X12740718Y-18070562D02*
X12750242Y-18061038D01*
X12750242Y-18061038D02*
X12769289Y-18051514D01*
X12769289Y-18051514D02*
X12797861Y-18051514D01*
X12797861Y-18051514D02*
X12816909Y-18061038D01*
X12816909Y-18061038D02*
X12826432Y-18070562D01*
X12826432Y-18070562D02*
X12835956Y-18089610D01*
X12835956Y-18089610D02*
X12835956Y-18146753D01*
X12835956Y-18146753D02*
X12826432Y-18165800D01*
X12826432Y-18165800D02*
X12816909Y-18175324D01*
X12816909Y-18175324D02*
X12797861Y-18184848D01*
X12797861Y-18184848D02*
X12769289Y-18184848D01*
X12893099Y-18051514D02*
X12969289Y-18051514D01*
X12921670Y-17984848D02*
X12921670Y-18156276D01*
X12921670Y-18156276D02*
X12931194Y-18175324D01*
X12931194Y-18175324D02*
X12950242Y-18184848D01*
X12950242Y-18184848D02*
X12969289Y-18184848D01*
X13188337Y-18051514D02*
X13188337Y-18251514D01*
X13188337Y-18061038D02*
X13207385Y-18051514D01*
X13207385Y-18051514D02*
X13245480Y-18051514D01*
X13245480Y-18051514D02*
X13264528Y-18061038D01*
X13264528Y-18061038D02*
X13274051Y-18070562D01*
X13274051Y-18070562D02*
X13283575Y-18089610D01*
X13283575Y-18089610D02*
X13283575Y-18146753D01*
X13283575Y-18146753D02*
X13274051Y-18165800D01*
X13274051Y-18165800D02*
X13264528Y-18175324D01*
X13264528Y-18175324D02*
X13245480Y-18184848D01*
X13245480Y-18184848D02*
X13207385Y-18184848D01*
X13207385Y-18184848D02*
X13188337Y-18175324D01*
X13397861Y-18184848D02*
X13378813Y-18175324D01*
X13378813Y-18175324D02*
X13369290Y-18156276D01*
X13369290Y-18156276D02*
X13369290Y-17984848D01*
X13559766Y-18184848D02*
X13559766Y-18080086D01*
X13559766Y-18080086D02*
X13550242Y-18061038D01*
X13550242Y-18061038D02*
X13531194Y-18051514D01*
X13531194Y-18051514D02*
X13493099Y-18051514D01*
X13493099Y-18051514D02*
X13474051Y-18061038D01*
X13559766Y-18175324D02*
X13540718Y-18184848D01*
X13540718Y-18184848D02*
X13493099Y-18184848D01*
X13493099Y-18184848D02*
X13474051Y-18175324D01*
X13474051Y-18175324D02*
X13464528Y-18156276D01*
X13464528Y-18156276D02*
X13464528Y-18137229D01*
X13464528Y-18137229D02*
X13474051Y-18118181D01*
X13474051Y-18118181D02*
X13493099Y-18108657D01*
X13493099Y-18108657D02*
X13540718Y-18108657D01*
X13540718Y-18108657D02*
X13559766Y-18099134D01*
X13626432Y-18051514D02*
X13702623Y-18051514D01*
X13655004Y-17984848D02*
X13655004Y-18156276D01*
X13655004Y-18156276D02*
X13664528Y-18175324D01*
X13664528Y-18175324D02*
X13683575Y-18184848D01*
X13683575Y-18184848D02*
X13702623Y-18184848D01*
X13845480Y-18175324D02*
X13826432Y-18184848D01*
X13826432Y-18184848D02*
X13788337Y-18184848D01*
X13788337Y-18184848D02*
X13769290Y-18175324D01*
X13769290Y-18175324D02*
X13759766Y-18156276D01*
X13759766Y-18156276D02*
X13759766Y-18080086D01*
X13759766Y-18080086D02*
X13769290Y-18061038D01*
X13769290Y-18061038D02*
X13788337Y-18051514D01*
X13788337Y-18051514D02*
X13826432Y-18051514D01*
X13826432Y-18051514D02*
X13845480Y-18061038D01*
X13845480Y-18061038D02*
X13855004Y-18080086D01*
X13855004Y-18080086D02*
X13855004Y-18099134D01*
X13855004Y-18099134D02*
X13759766Y-18118181D01*
X14026432Y-18184848D02*
X14026432Y-17984848D01*
X14026432Y-18175324D02*
X14007385Y-18184848D01*
X14007385Y-18184848D02*
X13969290Y-18184848D01*
X13969290Y-18184848D02*
X13950242Y-18175324D01*
X13950242Y-18175324D02*
X13940718Y-18165800D01*
X13940718Y-18165800D02*
X13931194Y-18146753D01*
X13931194Y-18146753D02*
X13931194Y-18089610D01*
X13931194Y-18089610D02*
X13940718Y-18070562D01*
X13940718Y-18070562D02*
X13950242Y-18061038D01*
X13950242Y-18061038D02*
X13969290Y-18051514D01*
X13969290Y-18051514D02*
X14007385Y-18051514D01*
X14007385Y-18051514D02*
X14026432Y-18061038D01*
X14102623Y-18261038D02*
X14112147Y-18251514D01*
X14112147Y-18251514D02*
X14131194Y-18222943D01*
X14131194Y-18222943D02*
X14140718Y-18203895D01*
X14140718Y-18203895D02*
X14150242Y-18175324D01*
X14150242Y-18175324D02*
X14159766Y-18127705D01*
X14159766Y-18127705D02*
X14159766Y-18089610D01*
X14159766Y-18089610D02*
X14150242Y-18041991D01*
X14150242Y-18041991D02*
X14140718Y-18013419D01*
X14140718Y-18013419D02*
X14131194Y-17994372D01*
X14131194Y-17994372D02*
X14112147Y-17965800D01*
X14112147Y-17965800D02*
X14102623Y-17956276D01*
M02*
