%TF.GenerationSoftware,KiCad,Pcbnew,7.0.11*%
%TF.CreationDate,2025-01-20T02:06:32+09:00*%
%TF.ProjectId,IO,494f2e6b-6963-4616-945f-706362585858,rev?*%
%TF.SameCoordinates,Original*%
%TF.FileFunction,Drillmap*%
%TF.FilePolarity,Positive*%
%FSLAX45Y45*%
G04 Gerber Fmt 4.5, Leading zero omitted, Abs format (unit mm)*
G04 Created by KiCad (PCBNEW 7.0.11) date 2025-01-20 02:06:32*
%MOMM*%
%LPD*%
G01*
G04 APERTURE LIST*
%ADD10C,0.200000*%
%ADD11C,0.100000*%
G04 APERTURE END LIST*
D10*
X12116610Y-5796434D02*
G75*
G03*
X11796610Y-5796434I-160000J0D01*
G01*
X11796610Y-5796434D02*
G75*
G03*
X12116610Y-5796434I160000J0D01*
G01*
X14848036Y-5255364D02*
X14848036Y-6055364D01*
X13908036Y-5155364D02*
X14748036Y-5155364D01*
X12738036Y-5155364D02*
G75*
G03*
X12518036Y-5155364I-110000J0D01*
G01*
X12518036Y-5155364D02*
G75*
G03*
X12738036Y-5155364I110000J0D01*
G01*
X14848036Y-5255364D02*
G75*
G03*
X14748036Y-5155364I-99996J4D01*
G01*
X18503900Y-4889500D02*
G75*
G03*
X18283900Y-4889500I-110000J0D01*
G01*
X18283900Y-4889500D02*
G75*
G03*
X18503900Y-4889500I110000J0D01*
G01*
X13808036Y-6055364D02*
G75*
G03*
X13908036Y-6155364I100004J4D01*
G01*
X14748036Y-6155364D02*
X13908036Y-6155364D01*
X21328036Y-8955364D02*
G75*
G03*
X7328036Y-8955364I-7000000J0D01*
G01*
X7328036Y-8955364D02*
G75*
G03*
X21328036Y-8955364I7000000J0D01*
G01*
X17468036Y-7225364D02*
X17468036Y-12285364D01*
X13908036Y-5155356D02*
G75*
G03*
X13808036Y-5255364I4J-100004D01*
G01*
X16138036Y-5155364D02*
G75*
G03*
X15918036Y-5155364I-110000J0D01*
G01*
X15918036Y-5155364D02*
G75*
G03*
X16138036Y-5155364I110000J0D01*
G01*
X13808036Y-6055364D02*
X13808036Y-5255364D01*
X12938036Y-12588544D02*
G75*
G03*
X12618036Y-12588544I-160000J0D01*
G01*
X12618036Y-12588544D02*
G75*
G03*
X12938036Y-12588544I160000J0D01*
G01*
X18503900Y-13021228D02*
G75*
G03*
X18283900Y-13021228I-110000J0D01*
G01*
X18283900Y-13021228D02*
G75*
G03*
X18503900Y-13021228I110000J0D01*
G01*
X15328036Y-13655364D02*
G75*
G03*
X13328036Y-13655364I-1000000J0D01*
G01*
X13328036Y-13655364D02*
G75*
G03*
X15328036Y-13655364I1000000J0D01*
G01*
X10488036Y-12285364D02*
X10488036Y-7225364D01*
X17468036Y-12285364D02*
X10488036Y-12285364D01*
X16038036Y-12588544D02*
G75*
G03*
X15718036Y-12588544I-160000J0D01*
G01*
X15718036Y-12588544D02*
G75*
G03*
X16038036Y-12588544I160000J0D01*
G01*
X16859463Y-5796434D02*
G75*
G03*
X16539463Y-5796434I-160000J0D01*
G01*
X16539463Y-5796434D02*
G75*
G03*
X16859463Y-5796434I160000J0D01*
G01*
X14748036Y-6155356D02*
G75*
G03*
X14848036Y-6055364I4J99996D01*
G01*
X10488036Y-7225364D02*
X17468036Y-7225364D01*
X10372172Y-13021228D02*
G75*
G03*
X10152172Y-13021228I-110000J0D01*
G01*
X10152172Y-13021228D02*
G75*
G03*
X10372172Y-13021228I110000J0D01*
G01*
X10372172Y-4889500D02*
G75*
G03*
X10152172Y-4889500I-110000J0D01*
G01*
X10152172Y-4889500D02*
G75*
G03*
X10372172Y-4889500I110000J0D01*
G01*
D11*
X14106000Y-6567000D02*
X14116000Y-6577000D01*
X14116000Y-6567000D02*
X14106000Y-6577000D01*
X14106000Y-6671000D02*
X14116000Y-6681000D01*
X14116000Y-6671000D02*
X14106000Y-6681000D01*
X14206000Y-6617000D02*
X14216000Y-6627000D01*
X14216000Y-6617000D02*
X14206000Y-6627000D01*
X14271000Y-6617000D02*
X14281000Y-6627000D01*
X14281000Y-6617000D02*
X14271000Y-6627000D01*
X14332000Y-6617000D02*
X14342000Y-6627000D01*
X14342000Y-6617000D02*
X14332000Y-6627000D01*
X14505999Y-6671000D02*
X14515999Y-6681000D01*
X14515999Y-6671000D02*
X14505999Y-6681000D01*
X14506000Y-6567000D02*
X14516000Y-6577000D01*
X14516000Y-6567000D02*
X14506000Y-6577000D01*
X14556000Y-6671000D02*
X14566000Y-6681000D01*
X14566000Y-6671000D02*
X14556000Y-6681000D01*
X14556000Y-6566000D02*
X14566000Y-6576000D01*
X14566000Y-6566000D02*
X14556000Y-6576000D01*
X7976000Y-8671000D02*
G75*
G03*
X7936000Y-8671000I-20000J0D01*
G01*
X7936000Y-8671000D02*
G75*
G03*
X7976000Y-8671000I20000J0D01*
G01*
X8051000Y-9882000D02*
G75*
G03*
X8011000Y-9882000I-20000J0D01*
G01*
X8011000Y-9882000D02*
G75*
G03*
X8051000Y-9882000I20000J0D01*
G01*
X8055000Y-7348000D02*
G75*
G03*
X8015000Y-7348000I-20000J0D01*
G01*
X8015000Y-7348000D02*
G75*
G03*
X8055000Y-7348000I20000J0D01*
G01*
X8071800Y-6019800D02*
G75*
G03*
X8031800Y-6019800I-20000J0D01*
G01*
X8031800Y-6019800D02*
G75*
G03*
X8071800Y-6019800I20000J0D01*
G01*
X8173400Y-6019800D02*
G75*
G03*
X8133400Y-6019800I-20000J0D01*
G01*
X8133400Y-6019800D02*
G75*
G03*
X8173400Y-6019800I20000J0D01*
G01*
X8275000Y-6019800D02*
G75*
G03*
X8235000Y-6019800I-20000J0D01*
G01*
X8235000Y-6019800D02*
G75*
G03*
X8275000Y-6019800I20000J0D01*
G01*
X8310000Y-11072000D02*
G75*
G03*
X8270000Y-11072000I-20000J0D01*
G01*
X8270000Y-11072000D02*
G75*
G03*
X8310000Y-11072000I20000J0D01*
G01*
X8540000Y-7930000D02*
G75*
G03*
X8500000Y-7930000I-20000J0D01*
G01*
X8500000Y-7930000D02*
G75*
G03*
X8540000Y-7930000I20000J0D01*
G01*
X8548000Y-6277000D02*
G75*
G03*
X8508000Y-6277000I-20000J0D01*
G01*
X8508000Y-6277000D02*
G75*
G03*
X8548000Y-6277000I20000J0D01*
G01*
X8800000Y-5823000D02*
G75*
G03*
X8760000Y-5823000I-20000J0D01*
G01*
X8760000Y-5823000D02*
G75*
G03*
X8800000Y-5823000I20000J0D01*
G01*
X8822000Y-12287000D02*
G75*
G03*
X8782000Y-12287000I-20000J0D01*
G01*
X8782000Y-12287000D02*
G75*
G03*
X8822000Y-12287000I20000J0D01*
G01*
X8948000Y-9108000D02*
G75*
G03*
X8908000Y-9108000I-20000J0D01*
G01*
X8908000Y-9108000D02*
G75*
G03*
X8948000Y-9108000I20000J0D01*
G01*
X8988000Y-11110000D02*
G75*
G03*
X8948000Y-11110000I-20000J0D01*
G01*
X8948000Y-11110000D02*
G75*
G03*
X8988000Y-11110000I20000J0D01*
G01*
X9000000Y-6962000D02*
G75*
G03*
X8960000Y-6962000I-20000J0D01*
G01*
X8960000Y-6962000D02*
G75*
G03*
X9000000Y-6962000I20000J0D01*
G01*
X9385000Y-7258000D02*
G75*
G03*
X9345000Y-7258000I-20000J0D01*
G01*
X9345000Y-7258000D02*
G75*
G03*
X9385000Y-7258000I20000J0D01*
G01*
X9431000Y-6247000D02*
G75*
G03*
X9391000Y-6247000I-20000J0D01*
G01*
X9391000Y-6247000D02*
G75*
G03*
X9431000Y-6247000I20000J0D01*
G01*
X9445000Y-5535000D02*
G75*
G03*
X9405000Y-5535000I-20000J0D01*
G01*
X9405000Y-5535000D02*
G75*
G03*
X9445000Y-5535000I20000J0D01*
G01*
X9533000Y-13278000D02*
G75*
G03*
X9493000Y-13278000I-20000J0D01*
G01*
X9493000Y-13278000D02*
G75*
G03*
X9533000Y-13278000I20000J0D01*
G01*
X9572000Y-4589000D02*
G75*
G03*
X9532000Y-4589000I-20000J0D01*
G01*
X9532000Y-4589000D02*
G75*
G03*
X9572000Y-4589000I20000J0D01*
G01*
X9644000Y-6929000D02*
G75*
G03*
X9604000Y-6929000I-20000J0D01*
G01*
X9604000Y-6929000D02*
G75*
G03*
X9644000Y-6929000I20000J0D01*
G01*
X9704000Y-5787000D02*
G75*
G03*
X9664000Y-5787000I-20000J0D01*
G01*
X9664000Y-5787000D02*
G75*
G03*
X9704000Y-5787000I20000J0D01*
G01*
X9779000Y-7863000D02*
G75*
G03*
X9739000Y-7863000I-20000J0D01*
G01*
X9739000Y-7863000D02*
G75*
G03*
X9779000Y-7863000I20000J0D01*
G01*
X9891000Y-6547000D02*
G75*
G03*
X9851000Y-6547000I-20000J0D01*
G01*
X9851000Y-6547000D02*
G75*
G03*
X9891000Y-6547000I20000J0D01*
G01*
X9971000Y-8144000D02*
G75*
G03*
X9931000Y-8144000I-20000J0D01*
G01*
X9931000Y-8144000D02*
G75*
G03*
X9971000Y-8144000I20000J0D01*
G01*
X10011998Y-7036997D02*
G75*
G03*
X9971998Y-7036997I-20000J0D01*
G01*
X9971998Y-7036997D02*
G75*
G03*
X10011998Y-7036997I20000J0D01*
G01*
X10071000Y-7555000D02*
G75*
G03*
X10031000Y-7555000I-20000J0D01*
G01*
X10031000Y-7555000D02*
G75*
G03*
X10071000Y-7555000I20000J0D01*
G01*
X10197000Y-12598000D02*
G75*
G03*
X10157000Y-12598000I-20000J0D01*
G01*
X10157000Y-12598000D02*
G75*
G03*
X10197000Y-12598000I20000J0D01*
G01*
X10335000Y-8360000D02*
G75*
G03*
X10295000Y-8360000I-20000J0D01*
G01*
X10295000Y-8360000D02*
G75*
G03*
X10335000Y-8360000I20000J0D01*
G01*
X10336000Y-10845000D02*
G75*
G03*
X10296000Y-10845000I-20000J0D01*
G01*
X10296000Y-10845000D02*
G75*
G03*
X10336000Y-10845000I20000J0D01*
G01*
X10342000Y-9659000D02*
G75*
G03*
X10302000Y-9659000I-20000J0D01*
G01*
X10302000Y-9659000D02*
G75*
G03*
X10342000Y-9659000I20000J0D01*
G01*
X10348000Y-12047000D02*
G75*
G03*
X10308000Y-12047000I-20000J0D01*
G01*
X10308000Y-12047000D02*
G75*
G03*
X10348000Y-12047000I20000J0D01*
G01*
X10395000Y-7338000D02*
G75*
G03*
X10355000Y-7338000I-20000J0D01*
G01*
X10355000Y-7338000D02*
G75*
G03*
X10395000Y-7338000I20000J0D01*
G01*
X10480000Y-3738000D02*
G75*
G03*
X10440000Y-3738000I-20000J0D01*
G01*
X10440000Y-3738000D02*
G75*
G03*
X10480000Y-3738000I20000J0D01*
G01*
X10506000Y-14132000D02*
G75*
G03*
X10466000Y-14132000I-20000J0D01*
G01*
X10466000Y-14132000D02*
G75*
G03*
X10506000Y-14132000I20000J0D01*
G01*
X10535000Y-5354000D02*
G75*
G03*
X10495000Y-5354000I-20000J0D01*
G01*
X10495000Y-5354000D02*
G75*
G03*
X10535000Y-5354000I20000J0D01*
G01*
X10701000Y-12408000D02*
G75*
G03*
X10661000Y-12408000I-20000J0D01*
G01*
X10661000Y-12408000D02*
G75*
G03*
X10701000Y-12408000I20000J0D01*
G01*
X10739000Y-5143000D02*
G75*
G03*
X10699000Y-5143000I-20000J0D01*
G01*
X10699000Y-5143000D02*
G75*
G03*
X10739000Y-5143000I20000J0D01*
G01*
X10804000Y-13227000D02*
G75*
G03*
X10764000Y-13227000I-20000J0D01*
G01*
X10764000Y-13227000D02*
G75*
G03*
X10804000Y-13227000I20000J0D01*
G01*
X10886000Y-7184000D02*
G75*
G03*
X10846000Y-7184000I-20000J0D01*
G01*
X10846000Y-7184000D02*
G75*
G03*
X10886000Y-7184000I20000J0D01*
G01*
X10944000Y-5535000D02*
G75*
G03*
X10904000Y-5535000I-20000J0D01*
G01*
X10904000Y-5535000D02*
G75*
G03*
X10944000Y-5535000I20000J0D01*
G01*
X10964000Y-6144000D02*
G75*
G03*
X10924000Y-6144000I-20000J0D01*
G01*
X10924000Y-6144000D02*
G75*
G03*
X10964000Y-6144000I20000J0D01*
G01*
X11119000Y-12858000D02*
G75*
G03*
X11079000Y-12858000I-20000J0D01*
G01*
X11079000Y-12858000D02*
G75*
G03*
X11119000Y-12858000I20000J0D01*
G01*
X11221000Y-4716000D02*
G75*
G03*
X11181000Y-4716000I-20000J0D01*
G01*
X11181000Y-4716000D02*
G75*
G03*
X11221000Y-4716000I20000J0D01*
G01*
X11236000Y-6928000D02*
G75*
G03*
X11196000Y-6928000I-20000J0D01*
G01*
X11196000Y-6928000D02*
G75*
G03*
X11236000Y-6928000I20000J0D01*
G01*
X11410000Y-6007000D02*
G75*
G03*
X11370000Y-6007000I-20000J0D01*
G01*
X11370000Y-6007000D02*
G75*
G03*
X11410000Y-6007000I20000J0D01*
G01*
X11545000Y-3019000D02*
G75*
G03*
X11505000Y-3019000I-20000J0D01*
G01*
X11505000Y-3019000D02*
G75*
G03*
X11545000Y-3019000I20000J0D01*
G01*
X11600000Y-14776000D02*
G75*
G03*
X11560000Y-14776000I-20000J0D01*
G01*
X11560000Y-14776000D02*
G75*
G03*
X11600000Y-14776000I20000J0D01*
G01*
X11640000Y-4137000D02*
G75*
G03*
X11600000Y-4137000I-20000J0D01*
G01*
X11600000Y-4137000D02*
G75*
G03*
X11640000Y-4137000I20000J0D01*
G01*
X11642000Y-3554000D02*
G75*
G03*
X11602000Y-3554000I-20000J0D01*
G01*
X11602000Y-3554000D02*
G75*
G03*
X11642000Y-3554000I20000J0D01*
G01*
X11721000Y-7182000D02*
G75*
G03*
X11681000Y-7182000I-20000J0D01*
G01*
X11681000Y-7182000D02*
G75*
G03*
X11721000Y-7182000I20000J0D01*
G01*
X11725000Y-5333000D02*
G75*
G03*
X11685000Y-5333000I-20000J0D01*
G01*
X11685000Y-5333000D02*
G75*
G03*
X11725000Y-5333000I20000J0D01*
G01*
X12054000Y-13307000D02*
G75*
G03*
X12014000Y-13307000I-20000J0D01*
G01*
X12014000Y-13307000D02*
G75*
G03*
X12054000Y-13307000I20000J0D01*
G01*
X12091000Y-3272000D02*
G75*
G03*
X12051000Y-3272000I-20000J0D01*
G01*
X12051000Y-3272000D02*
G75*
G03*
X12091000Y-3272000I20000J0D01*
G01*
X12301000Y-12386000D02*
G75*
G03*
X12261000Y-12386000I-20000J0D01*
G01*
X12261000Y-12386000D02*
G75*
G03*
X12301000Y-12386000I20000J0D01*
G01*
X12312000Y-12853000D02*
G75*
G03*
X12272000Y-12853000I-20000J0D01*
G01*
X12272000Y-12853000D02*
G75*
G03*
X12312000Y-12853000I20000J0D01*
G01*
X12429000Y-6042000D02*
G75*
G03*
X12389000Y-6042000I-20000J0D01*
G01*
X12389000Y-6042000D02*
G75*
G03*
X12429000Y-6042000I20000J0D01*
G01*
X12523000Y-14239000D02*
G75*
G03*
X12483000Y-14239000I-20000J0D01*
G01*
X12483000Y-14239000D02*
G75*
G03*
X12523000Y-14239000I20000J0D01*
G01*
X12525000Y-4038000D02*
G75*
G03*
X12485000Y-4038000I-20000J0D01*
G01*
X12485000Y-4038000D02*
G75*
G03*
X12525000Y-4038000I20000J0D01*
G01*
X12541000Y-7185000D02*
G75*
G03*
X12501000Y-7185000I-20000J0D01*
G01*
X12501000Y-7185000D02*
G75*
G03*
X12541000Y-7185000I20000J0D01*
G01*
X12655000Y-6928000D02*
G75*
G03*
X12615000Y-6928000I-20000J0D01*
G01*
X12615000Y-6928000D02*
G75*
G03*
X12655000Y-6928000I20000J0D01*
G01*
X12715000Y-15279000D02*
G75*
G03*
X12675000Y-15279000I-20000J0D01*
G01*
X12675000Y-15279000D02*
G75*
G03*
X12715000Y-15279000I20000J0D01*
G01*
X12740000Y-2771000D02*
G75*
G03*
X12700000Y-2771000I-20000J0D01*
G01*
X12700000Y-2771000D02*
G75*
G03*
X12740000Y-2771000I20000J0D01*
G01*
X12943000Y-13343000D02*
G75*
G03*
X12903000Y-13343000I-20000J0D01*
G01*
X12903000Y-13343000D02*
G75*
G03*
X12943000Y-13343000I20000J0D01*
G01*
X13015000Y-4532000D02*
G75*
G03*
X12975000Y-4532000I-20000J0D01*
G01*
X12975000Y-4532000D02*
G75*
G03*
X13015000Y-4532000I20000J0D01*
G01*
X13052000Y-5570000D02*
G75*
G03*
X13012000Y-5570000I-20000J0D01*
G01*
X13012000Y-5570000D02*
G75*
G03*
X13052000Y-5570000I20000J0D01*
G01*
X13073000Y-3217000D02*
G75*
G03*
X13033000Y-3217000I-20000J0D01*
G01*
X13033000Y-3217000D02*
G75*
G03*
X13073000Y-3217000I20000J0D01*
G01*
X13251000Y-4943000D02*
G75*
G03*
X13211000Y-4943000I-20000J0D01*
G01*
X13211000Y-4943000D02*
G75*
G03*
X13251000Y-4943000I20000J0D01*
G01*
X13252000Y-5345000D02*
G75*
G03*
X13212000Y-5345000I-20000J0D01*
G01*
X13212000Y-5345000D02*
G75*
G03*
X13252000Y-5345000I20000J0D01*
G01*
X13305000Y-4101000D02*
G75*
G03*
X13265000Y-4101000I-20000J0D01*
G01*
X13265000Y-4101000D02*
G75*
G03*
X13305000Y-4101000I20000J0D01*
G01*
X13356000Y-12451000D02*
G75*
G03*
X13316000Y-12451000I-20000J0D01*
G01*
X13316000Y-12451000D02*
G75*
G03*
X13356000Y-12451000I20000J0D01*
G01*
X13459000Y-6059000D02*
G75*
G03*
X13419000Y-6059000I-20000J0D01*
G01*
X13419000Y-6059000D02*
G75*
G03*
X13459000Y-6059000I20000J0D01*
G01*
X13527000Y-4505000D02*
G75*
G03*
X13487000Y-4505000I-20000J0D01*
G01*
X13487000Y-4505000D02*
G75*
G03*
X13527000Y-4505000I20000J0D01*
G01*
X13555000Y-7182000D02*
G75*
G03*
X13515000Y-7182000I-20000J0D01*
G01*
X13515000Y-7182000D02*
G75*
G03*
X13555000Y-7182000I20000J0D01*
G01*
X13621000Y-4695000D02*
G75*
G03*
X13581000Y-4695000I-20000J0D01*
G01*
X13581000Y-4695000D02*
G75*
G03*
X13621000Y-4695000I20000J0D01*
G01*
X13621000Y-4797000D02*
G75*
G03*
X13581000Y-4797000I-20000J0D01*
G01*
X13581000Y-4797000D02*
G75*
G03*
X13621000Y-4797000I20000J0D01*
G01*
X13685000Y-4056000D02*
G75*
G03*
X13645000Y-4056000I-20000J0D01*
G01*
X13645000Y-4056000D02*
G75*
G03*
X13685000Y-4056000I20000J0D01*
G01*
X13736000Y-5209000D02*
G75*
G03*
X13696000Y-5209000I-20000J0D01*
G01*
X13696000Y-5209000D02*
G75*
G03*
X13736000Y-5209000I20000J0D01*
G01*
X13759000Y-5877000D02*
G75*
G03*
X13719000Y-5877000I-20000J0D01*
G01*
X13719000Y-5877000D02*
G75*
G03*
X13759000Y-5877000I20000J0D01*
G01*
X13838000Y-12591000D02*
G75*
G03*
X13798000Y-12591000I-20000J0D01*
G01*
X13798000Y-12591000D02*
G75*
G03*
X13838000Y-12591000I20000J0D01*
G01*
X13972000Y-6955000D02*
G75*
G03*
X13932000Y-6955000I-20000J0D01*
G01*
X13932000Y-6955000D02*
G75*
G03*
X13972000Y-6955000I20000J0D01*
G01*
X14025000Y-15420000D02*
G75*
G03*
X13985000Y-15420000I-20000J0D01*
G01*
X13985000Y-15420000D02*
G75*
G03*
X14025000Y-15420000I20000J0D01*
G01*
X14033000Y-3117000D02*
G75*
G03*
X13993000Y-3117000I-20000J0D01*
G01*
X13993000Y-3117000D02*
G75*
G03*
X14033000Y-3117000I20000J0D01*
G01*
X14037000Y-2308000D02*
G75*
G03*
X13997000Y-2308000I-20000J0D01*
G01*
X13997000Y-2308000D02*
G75*
G03*
X14037000Y-2308000I20000J0D01*
G01*
X14121000Y-4514000D02*
G75*
G03*
X14081000Y-4514000I-20000J0D01*
G01*
X14081000Y-4514000D02*
G75*
G03*
X14121000Y-4514000I20000J0D01*
G01*
X14183000Y-7158000D02*
G75*
G03*
X14143000Y-7158000I-20000J0D01*
G01*
X14143000Y-7158000D02*
G75*
G03*
X14183000Y-7158000I20000J0D01*
G01*
X14351000Y-3366000D02*
G75*
G03*
X14311000Y-3366000I-20000J0D01*
G01*
X14311000Y-3366000D02*
G75*
G03*
X14351000Y-3366000I20000J0D01*
G01*
X14355000Y-5053000D02*
G75*
G03*
X14315000Y-5053000I-20000J0D01*
G01*
X14315000Y-5053000D02*
G75*
G03*
X14355000Y-5053000I20000J0D01*
G01*
X14364000Y-4281000D02*
G75*
G03*
X14324000Y-4281000I-20000J0D01*
G01*
X14324000Y-4281000D02*
G75*
G03*
X14364000Y-4281000I20000J0D01*
G01*
X14398000Y-6875000D02*
G75*
G03*
X14358000Y-6875000I-20000J0D01*
G01*
X14358000Y-6875000D02*
G75*
G03*
X14398000Y-6875000I20000J0D01*
G01*
X14401000Y-6229000D02*
G75*
G03*
X14361000Y-6229000I-20000J0D01*
G01*
X14361000Y-6229000D02*
G75*
G03*
X14401000Y-6229000I20000J0D01*
G01*
X14586000Y-7149000D02*
G75*
G03*
X14546000Y-7149000I-20000J0D01*
G01*
X14546000Y-7149000D02*
G75*
G03*
X14586000Y-7149000I20000J0D01*
G01*
X14602000Y-4523000D02*
G75*
G03*
X14562000Y-4523000I-20000J0D01*
G01*
X14562000Y-4523000D02*
G75*
G03*
X14602000Y-4523000I20000J0D01*
G01*
X14678000Y-3123000D02*
G75*
G03*
X14638000Y-3123000I-20000J0D01*
G01*
X14638000Y-3123000D02*
G75*
G03*
X14678000Y-3123000I20000J0D01*
G01*
X14682000Y-2822000D02*
G75*
G03*
X14642000Y-2822000I-20000J0D01*
G01*
X14642000Y-2822000D02*
G75*
G03*
X14682000Y-2822000I20000J0D01*
G01*
X14710000Y-2446000D02*
G75*
G03*
X14670000Y-2446000I-20000J0D01*
G01*
X14670000Y-2446000D02*
G75*
G03*
X14710000Y-2446000I20000J0D01*
G01*
X14833000Y-6400000D02*
G75*
G03*
X14793000Y-6400000I-20000J0D01*
G01*
X14793000Y-6400000D02*
G75*
G03*
X14833000Y-6400000I20000J0D01*
G01*
X14841000Y-12570000D02*
G75*
G03*
X14801000Y-12570000I-20000J0D01*
G01*
X14801000Y-12570000D02*
G75*
G03*
X14841000Y-12570000I20000J0D01*
G01*
X14844000Y-3310000D02*
G75*
G03*
X14804000Y-3310000I-20000J0D01*
G01*
X14804000Y-3310000D02*
G75*
G03*
X14844000Y-3310000I20000J0D01*
G01*
X14884000Y-4790000D02*
G75*
G03*
X14844000Y-4790000I-20000J0D01*
G01*
X14844000Y-4790000D02*
G75*
G03*
X14884000Y-4790000I20000J0D01*
G01*
X14901000Y-5131000D02*
G75*
G03*
X14861000Y-5131000I-20000J0D01*
G01*
X14861000Y-5131000D02*
G75*
G03*
X14901000Y-5131000I20000J0D01*
G01*
X14907000Y-4062000D02*
G75*
G03*
X14867000Y-4062000I-20000J0D01*
G01*
X14867000Y-4062000D02*
G75*
G03*
X14907000Y-4062000I20000J0D01*
G01*
X14919000Y-6021000D02*
G75*
G03*
X14879000Y-6021000I-20000J0D01*
G01*
X14879000Y-6021000D02*
G75*
G03*
X14919000Y-6021000I20000J0D01*
G01*
X15158000Y-12368000D02*
G75*
G03*
X15118000Y-12368000I-20000J0D01*
G01*
X15118000Y-12368000D02*
G75*
G03*
X15158000Y-12368000I20000J0D01*
G01*
X15160000Y-6013000D02*
G75*
G03*
X15120000Y-6013000I-20000J0D01*
G01*
X15120000Y-6013000D02*
G75*
G03*
X15160000Y-6013000I20000J0D01*
G01*
X15171000Y-4504000D02*
G75*
G03*
X15131000Y-4504000I-20000J0D01*
G01*
X15131000Y-4504000D02*
G75*
G03*
X15171000Y-4504000I20000J0D01*
G01*
X15172000Y-6351000D02*
G75*
G03*
X15132000Y-6351000I-20000J0D01*
G01*
X15132000Y-6351000D02*
G75*
G03*
X15172000Y-6351000I20000J0D01*
G01*
X15197000Y-3657000D02*
G75*
G03*
X15157000Y-3657000I-20000J0D01*
G01*
X15157000Y-3657000D02*
G75*
G03*
X15197000Y-3657000I20000J0D01*
G01*
X15220000Y-7156000D02*
G75*
G03*
X15180000Y-7156000I-20000J0D01*
G01*
X15180000Y-7156000D02*
G75*
G03*
X15220000Y-7156000I20000J0D01*
G01*
X15322000Y-15339000D02*
G75*
G03*
X15282000Y-15339000I-20000J0D01*
G01*
X15282000Y-15339000D02*
G75*
G03*
X15322000Y-15339000I20000J0D01*
G01*
X15482000Y-12714000D02*
G75*
G03*
X15442000Y-12714000I-20000J0D01*
G01*
X15442000Y-12714000D02*
G75*
G03*
X15482000Y-12714000I20000J0D01*
G01*
X15504000Y-12360000D02*
G75*
G03*
X15464000Y-12360000I-20000J0D01*
G01*
X15464000Y-12360000D02*
G75*
G03*
X15504000Y-12360000I20000J0D01*
G01*
X15829000Y-14516000D02*
G75*
G03*
X15789000Y-14516000I-20000J0D01*
G01*
X15789000Y-14516000D02*
G75*
G03*
X15829000Y-14516000I20000J0D01*
G01*
X15837000Y-5826000D02*
G75*
G03*
X15797000Y-5826000I-20000J0D01*
G01*
X15797000Y-5826000D02*
G75*
G03*
X15837000Y-5826000I20000J0D01*
G01*
X15927000Y-13275000D02*
G75*
G03*
X15887000Y-13275000I-20000J0D01*
G01*
X15887000Y-13275000D02*
G75*
G03*
X15927000Y-13275000I20000J0D01*
G01*
X15965000Y-2649000D02*
G75*
G03*
X15925000Y-2649000I-20000J0D01*
G01*
X15925000Y-2649000D02*
G75*
G03*
X15965000Y-2649000I20000J0D01*
G01*
X16010000Y-3900000D02*
G75*
G03*
X15970000Y-3900000I-20000J0D01*
G01*
X15970000Y-3900000D02*
G75*
G03*
X16010000Y-3900000I20000J0D01*
G01*
X16238000Y-12957000D02*
G75*
G03*
X16198000Y-12957000I-20000J0D01*
G01*
X16198000Y-12957000D02*
G75*
G03*
X16238000Y-12957000I20000J0D01*
G01*
X16279000Y-7154000D02*
G75*
G03*
X16239000Y-7154000I-20000J0D01*
G01*
X16239000Y-7154000D02*
G75*
G03*
X16279000Y-7154000I20000J0D01*
G01*
X16356000Y-12397000D02*
G75*
G03*
X16316000Y-12397000I-20000J0D01*
G01*
X16316000Y-12397000D02*
G75*
G03*
X16356000Y-12397000I20000J0D01*
G01*
X16512000Y-15012000D02*
G75*
G03*
X16472000Y-15012000I-20000J0D01*
G01*
X16472000Y-15012000D02*
G75*
G03*
X16512000Y-15012000I20000J0D01*
G01*
X17064000Y-6388000D02*
G75*
G03*
X17024000Y-6388000I-20000J0D01*
G01*
X17024000Y-6388000D02*
G75*
G03*
X17064000Y-6388000I20000J0D01*
G01*
X17099000Y-3201000D02*
G75*
G03*
X17059000Y-3201000I-20000J0D01*
G01*
X17059000Y-3201000D02*
G75*
G03*
X17099000Y-3201000I20000J0D01*
G01*
X17163000Y-4579000D02*
G75*
G03*
X17123000Y-4579000I-20000J0D01*
G01*
X17123000Y-4579000D02*
G75*
G03*
X17163000Y-4579000I20000J0D01*
G01*
X17321000Y-7158000D02*
G75*
G03*
X17281000Y-7158000I-20000J0D01*
G01*
X17281000Y-7158000D02*
G75*
G03*
X17321000Y-7158000I20000J0D01*
G01*
X17325000Y-13072000D02*
G75*
G03*
X17285000Y-13072000I-20000J0D01*
G01*
X17285000Y-13072000D02*
G75*
G03*
X17325000Y-13072000I20000J0D01*
G01*
X17328000Y-12416000D02*
G75*
G03*
X17288000Y-12416000I-20000J0D01*
G01*
X17288000Y-12416000D02*
G75*
G03*
X17328000Y-12416000I20000J0D01*
G01*
X17360000Y-13541000D02*
G75*
G03*
X17320000Y-13541000I-20000J0D01*
G01*
X17320000Y-13541000D02*
G75*
G03*
X17360000Y-13541000I20000J0D01*
G01*
X17689000Y-14551000D02*
G75*
G03*
X17649000Y-14551000I-20000J0D01*
G01*
X17649000Y-14551000D02*
G75*
G03*
X17689000Y-14551000I20000J0D01*
G01*
X17716000Y-13091000D02*
G75*
G03*
X17676000Y-13091000I-20000J0D01*
G01*
X17676000Y-13091000D02*
G75*
G03*
X17716000Y-13091000I20000J0D01*
G01*
X17730000Y-11712000D02*
G75*
G03*
X17690000Y-11712000I-20000J0D01*
G01*
X17690000Y-11712000D02*
G75*
G03*
X17730000Y-11712000I20000J0D01*
G01*
X17807000Y-10456000D02*
G75*
G03*
X17767000Y-10456000I-20000J0D01*
G01*
X17767000Y-10456000D02*
G75*
G03*
X17807000Y-10456000I20000J0D01*
G01*
X17954000Y-7283000D02*
G75*
G03*
X17914000Y-7283000I-20000J0D01*
G01*
X17914000Y-7283000D02*
G75*
G03*
X17954000Y-7283000I20000J0D01*
G01*
X17963000Y-8165000D02*
G75*
G03*
X17923000Y-8165000I-20000J0D01*
G01*
X17923000Y-8165000D02*
G75*
G03*
X17963000Y-8165000I20000J0D01*
G01*
X17977000Y-9124000D02*
G75*
G03*
X17937000Y-9124000I-20000J0D01*
G01*
X17937000Y-9124000D02*
G75*
G03*
X17977000Y-9124000I20000J0D01*
G01*
X18158000Y-3789000D02*
G75*
G03*
X18118000Y-3789000I-20000J0D01*
G01*
X18118000Y-3789000D02*
G75*
G03*
X18158000Y-3789000I20000J0D01*
G01*
X18209000Y-5858000D02*
G75*
G03*
X18169000Y-5858000I-20000J0D01*
G01*
X18169000Y-5858000D02*
G75*
G03*
X18209000Y-5858000I20000J0D01*
G01*
X18692000Y-13748000D02*
G75*
G03*
X18652000Y-13748000I-20000J0D01*
G01*
X18652000Y-13748000D02*
G75*
G03*
X18692000Y-13748000I20000J0D01*
G01*
X18949000Y-11662000D02*
G75*
G03*
X18909000Y-11662000I-20000J0D01*
G01*
X18909000Y-11662000D02*
G75*
G03*
X18949000Y-11662000I20000J0D01*
G01*
X19142000Y-4642000D02*
G75*
G03*
X19102000Y-4642000I-20000J0D01*
G01*
X19102000Y-4642000D02*
G75*
G03*
X19142000Y-4642000I20000J0D01*
G01*
X19158000Y-7683000D02*
G75*
G03*
X19118000Y-7683000I-20000J0D01*
G01*
X19118000Y-7683000D02*
G75*
G03*
X19158000Y-7683000I20000J0D01*
G01*
X19185000Y-9868000D02*
G75*
G03*
X19145000Y-9868000I-20000J0D01*
G01*
X19145000Y-9868000D02*
G75*
G03*
X19185000Y-9868000I20000J0D01*
G01*
X19524000Y-12786000D02*
G75*
G03*
X19484000Y-12786000I-20000J0D01*
G01*
X19484000Y-12786000D02*
G75*
G03*
X19524000Y-12786000I20000J0D01*
G01*
X19909000Y-5634000D02*
G75*
G03*
X19869000Y-5634000I-20000J0D01*
G01*
X19869000Y-5634000D02*
G75*
G03*
X19909000Y-5634000I20000J0D01*
G01*
X20101000Y-11730000D02*
G75*
G03*
X20061000Y-11730000I-20000J0D01*
G01*
X20061000Y-11730000D02*
G75*
G03*
X20101000Y-11730000I20000J0D01*
G01*
X20364000Y-6823000D02*
G75*
G03*
X20324000Y-6823000I-20000J0D01*
G01*
X20324000Y-6823000D02*
G75*
G03*
X20364000Y-6823000I20000J0D01*
G01*
X20657000Y-10565000D02*
G75*
G03*
X20617000Y-10565000I-20000J0D01*
G01*
X20617000Y-10565000D02*
G75*
G03*
X20657000Y-10565000I20000J0D01*
G01*
X20675000Y-8029000D02*
G75*
G03*
X20635000Y-8029000I-20000J0D01*
G01*
X20635000Y-8029000D02*
G75*
G03*
X20675000Y-8029000I20000J0D01*
G01*
X20733000Y-9259000D02*
G75*
G03*
X20693000Y-9259000I-20000J0D01*
G01*
X20693000Y-9259000D02*
G75*
G03*
X20733000Y-9259000I20000J0D01*
G01*
X14096000Y-6373500D02*
X14096000Y-6443500D01*
X14061000Y-6408500D02*
X14131000Y-6408500D01*
X14096000Y-6803500D02*
X14096000Y-6873500D01*
X14061000Y-6838500D02*
X14131000Y-6838500D01*
X14576000Y-6373500D02*
X14576000Y-6443500D01*
X14541000Y-6408500D02*
X14611000Y-6408500D01*
X14576000Y-6803500D02*
X14576000Y-6873500D01*
X14541000Y-6838500D02*
X14611000Y-6838500D01*
X9449685Y-5798084D02*
X9449685Y-5741515D01*
X9393116Y-5741515D01*
X9393116Y-5798084D01*
X9449685Y-5798084D01*
X9449685Y-6048084D02*
X9449685Y-5991515D01*
X9393116Y-5991515D01*
X9393116Y-6048084D01*
X9449685Y-6048084D01*
X9451685Y-6507284D02*
X9451685Y-6450715D01*
X9395116Y-6450715D01*
X9395116Y-6507284D01*
X9451685Y-6507284D01*
X9451685Y-6757284D02*
X9451685Y-6700715D01*
X9395116Y-6700715D01*
X9395116Y-6757284D01*
X9451685Y-6757284D01*
X16296000Y-13654000D02*
X16343500Y-13606500D01*
X16296000Y-13559000D01*
X16248500Y-13606500D01*
X16296000Y-13654000D01*
X16546000Y-13654000D02*
X16593500Y-13606500D01*
X16546000Y-13559000D01*
X16498500Y-13606500D01*
X16546000Y-13654000D01*
X16796000Y-13654000D02*
X16843500Y-13606500D01*
X16796000Y-13559000D01*
X16748500Y-13606500D01*
X16796000Y-13654000D01*
X17046000Y-13654000D02*
X17093500Y-13606500D01*
X17046000Y-13559000D01*
X16998500Y-13606500D01*
X17046000Y-13654000D01*
X9628000Y-8055000D02*
X9728000Y-8155000D01*
X9728000Y-8055000D02*
X9628000Y-8155000D01*
X9728000Y-8105000D02*
G75*
G03*
X9628000Y-8105000I-50000J0D01*
G01*
X9628000Y-8105000D02*
G75*
G03*
X9728000Y-8105000I50000J0D01*
G01*
X9628000Y-8309000D02*
X9728000Y-8409000D01*
X9728000Y-8309000D02*
X9628000Y-8409000D01*
X9728000Y-8359000D02*
G75*
G03*
X9628000Y-8359000I-50000J0D01*
G01*
X9628000Y-8359000D02*
G75*
G03*
X9728000Y-8359000I50000J0D01*
G01*
X9628000Y-8563000D02*
X9728000Y-8663000D01*
X9728000Y-8563000D02*
X9628000Y-8663000D01*
X9728000Y-8613000D02*
G75*
G03*
X9628000Y-8613000I-50000J0D01*
G01*
X9628000Y-8613000D02*
G75*
G03*
X9728000Y-8613000I50000J0D01*
G01*
X9628000Y-8817000D02*
X9728000Y-8917000D01*
X9728000Y-8817000D02*
X9628000Y-8917000D01*
X9728000Y-8867000D02*
G75*
G03*
X9628000Y-8867000I-50000J0D01*
G01*
X9628000Y-8867000D02*
G75*
G03*
X9728000Y-8867000I50000J0D01*
G01*
X9628000Y-9071000D02*
X9728000Y-9171000D01*
X9728000Y-9071000D02*
X9628000Y-9171000D01*
X9728000Y-9121000D02*
G75*
G03*
X9628000Y-9121000I-50000J0D01*
G01*
X9628000Y-9121000D02*
G75*
G03*
X9728000Y-9121000I50000J0D01*
G01*
X9628000Y-9325000D02*
X9728000Y-9425000D01*
X9728000Y-9325000D02*
X9628000Y-9425000D01*
X9728000Y-9375000D02*
G75*
G03*
X9628000Y-9375000I-50000J0D01*
G01*
X9628000Y-9375000D02*
G75*
G03*
X9728000Y-9375000I50000J0D01*
G01*
X9628000Y-9579000D02*
X9728000Y-9679000D01*
X9728000Y-9579000D02*
X9628000Y-9679000D01*
X9728000Y-9629000D02*
G75*
G03*
X9628000Y-9629000I-50000J0D01*
G01*
X9628000Y-9629000D02*
G75*
G03*
X9728000Y-9629000I50000J0D01*
G01*
X9628000Y-9833000D02*
X9728000Y-9933000D01*
X9728000Y-9833000D02*
X9628000Y-9933000D01*
X9728000Y-9883000D02*
G75*
G03*
X9628000Y-9883000I-50000J0D01*
G01*
X9628000Y-9883000D02*
G75*
G03*
X9728000Y-9883000I50000J0D01*
G01*
X9628000Y-10087000D02*
X9728000Y-10187000D01*
X9728000Y-10087000D02*
X9628000Y-10187000D01*
X9728000Y-10137000D02*
G75*
G03*
X9628000Y-10137000I-50000J0D01*
G01*
X9628000Y-10137000D02*
G75*
G03*
X9728000Y-10137000I50000J0D01*
G01*
X9628000Y-10341000D02*
X9728000Y-10441000D01*
X9728000Y-10341000D02*
X9628000Y-10441000D01*
X9728000Y-10391000D02*
G75*
G03*
X9628000Y-10391000I-50000J0D01*
G01*
X9628000Y-10391000D02*
G75*
G03*
X9728000Y-10391000I50000J0D01*
G01*
X9628000Y-10595000D02*
X9728000Y-10695000D01*
X9728000Y-10595000D02*
X9628000Y-10695000D01*
X9728000Y-10645000D02*
G75*
G03*
X9628000Y-10645000I-50000J0D01*
G01*
X9628000Y-10645000D02*
G75*
G03*
X9728000Y-10645000I50000J0D01*
G01*
X9628000Y-10849000D02*
X9728000Y-10949000D01*
X9728000Y-10849000D02*
X9628000Y-10949000D01*
X9728000Y-10899000D02*
G75*
G03*
X9628000Y-10899000I-50000J0D01*
G01*
X9628000Y-10899000D02*
G75*
G03*
X9728000Y-10899000I50000J0D01*
G01*
X9628000Y-11103000D02*
X9728000Y-11203000D01*
X9728000Y-11103000D02*
X9628000Y-11203000D01*
X9728000Y-11153000D02*
G75*
G03*
X9628000Y-11153000I-50000J0D01*
G01*
X9628000Y-11153000D02*
G75*
G03*
X9728000Y-11153000I50000J0D01*
G01*
X9628000Y-11357000D02*
X9728000Y-11457000D01*
X9728000Y-11357000D02*
X9628000Y-11457000D01*
X9728000Y-11407000D02*
G75*
G03*
X9628000Y-11407000I-50000J0D01*
G01*
X9628000Y-11407000D02*
G75*
G03*
X9728000Y-11407000I50000J0D01*
G01*
X11967000Y-3442000D02*
X12067000Y-3542000D01*
X12067000Y-3442000D02*
X11967000Y-3542000D01*
X12067000Y-3492000D02*
G75*
G03*
X11967000Y-3492000I-50000J0D01*
G01*
X11967000Y-3492000D02*
G75*
G03*
X12067000Y-3492000I50000J0D01*
G01*
X11967000Y-3696000D02*
X12067000Y-3796000D01*
X12067000Y-3696000D02*
X11967000Y-3796000D01*
X12067000Y-3746000D02*
G75*
G03*
X11967000Y-3746000I-50000J0D01*
G01*
X11967000Y-3746000D02*
G75*
G03*
X12067000Y-3746000I50000J0D01*
G01*
X11967000Y-3950000D02*
X12067000Y-4050000D01*
X12067000Y-3950000D02*
X11967000Y-4050000D01*
X12067000Y-4000000D02*
G75*
G03*
X11967000Y-4000000I-50000J0D01*
G01*
X11967000Y-4000000D02*
G75*
G03*
X12067000Y-4000000I50000J0D01*
G01*
X11967000Y-4204000D02*
X12067000Y-4304000D01*
X12067000Y-4204000D02*
X11967000Y-4304000D01*
X12067000Y-4254000D02*
G75*
G03*
X11967000Y-4254000I-50000J0D01*
G01*
X11967000Y-4254000D02*
G75*
G03*
X12067000Y-4254000I50000J0D01*
G01*
X11967000Y-4458000D02*
X12067000Y-4558000D01*
X12067000Y-4458000D02*
X11967000Y-4558000D01*
X12067000Y-4508000D02*
G75*
G03*
X11967000Y-4508000I-50000J0D01*
G01*
X11967000Y-4508000D02*
G75*
G03*
X12067000Y-4508000I50000J0D01*
G01*
X11967000Y-4712000D02*
X12067000Y-4812000D01*
X12067000Y-4712000D02*
X11967000Y-4812000D01*
X12067000Y-4762000D02*
G75*
G03*
X11967000Y-4762000I-50000J0D01*
G01*
X11967000Y-4762000D02*
G75*
G03*
X12067000Y-4762000I50000J0D01*
G01*
X11967000Y-4966000D02*
X12067000Y-5066000D01*
X12067000Y-4966000D02*
X11967000Y-5066000D01*
X12067000Y-5016000D02*
G75*
G03*
X11967000Y-5016000I-50000J0D01*
G01*
X11967000Y-5016000D02*
G75*
G03*
X12067000Y-5016000I50000J0D01*
G01*
X17728000Y-9324000D02*
X17828000Y-9424000D01*
X17828000Y-9324000D02*
X17728000Y-9424000D01*
X17828000Y-9374000D02*
G75*
G03*
X17728000Y-9374000I-50000J0D01*
G01*
X17728000Y-9374000D02*
G75*
G03*
X17828000Y-9374000I50000J0D01*
G01*
X17728000Y-9578000D02*
X17828000Y-9678000D01*
X17828000Y-9578000D02*
X17728000Y-9678000D01*
X17828000Y-9628000D02*
G75*
G03*
X17728000Y-9628000I-50000J0D01*
G01*
X17728000Y-9628000D02*
G75*
G03*
X17828000Y-9628000I50000J0D01*
G01*
X17728000Y-9832000D02*
X17828000Y-9932000D01*
X17828000Y-9832000D02*
X17728000Y-9932000D01*
X17828000Y-9882000D02*
G75*
G03*
X17728000Y-9882000I-50000J0D01*
G01*
X17728000Y-9882000D02*
G75*
G03*
X17828000Y-9882000I50000J0D01*
G01*
X17728000Y-10086000D02*
X17828000Y-10186000D01*
X17828000Y-10086000D02*
X17728000Y-10186000D01*
X17828000Y-10136000D02*
G75*
G03*
X17728000Y-10136000I-50000J0D01*
G01*
X17728000Y-10136000D02*
G75*
G03*
X17828000Y-10136000I50000J0D01*
G01*
D10*
X7578813Y-16276848D02*
X7578813Y-16076848D01*
X7578813Y-16076848D02*
X7626432Y-16076848D01*
X7626432Y-16076848D02*
X7655003Y-16086372D01*
X7655003Y-16086372D02*
X7674051Y-16105419D01*
X7674051Y-16105419D02*
X7683575Y-16124467D01*
X7683575Y-16124467D02*
X7693099Y-16162562D01*
X7693099Y-16162562D02*
X7693099Y-16191133D01*
X7693099Y-16191133D02*
X7683575Y-16229229D01*
X7683575Y-16229229D02*
X7674051Y-16248276D01*
X7674051Y-16248276D02*
X7655003Y-16267324D01*
X7655003Y-16267324D02*
X7626432Y-16276848D01*
X7626432Y-16276848D02*
X7578813Y-16276848D01*
X7778813Y-16276848D02*
X7778813Y-16143514D01*
X7778813Y-16181610D02*
X7788337Y-16162562D01*
X7788337Y-16162562D02*
X7797860Y-16153038D01*
X7797860Y-16153038D02*
X7816908Y-16143514D01*
X7816908Y-16143514D02*
X7835956Y-16143514D01*
X7902622Y-16276848D02*
X7902622Y-16143514D01*
X7902622Y-16076848D02*
X7893099Y-16086372D01*
X7893099Y-16086372D02*
X7902622Y-16095895D01*
X7902622Y-16095895D02*
X7912146Y-16086372D01*
X7912146Y-16086372D02*
X7902622Y-16076848D01*
X7902622Y-16076848D02*
X7902622Y-16095895D01*
X8026432Y-16276848D02*
X8007384Y-16267324D01*
X8007384Y-16267324D02*
X7997860Y-16248276D01*
X7997860Y-16248276D02*
X7997860Y-16076848D01*
X8131194Y-16276848D02*
X8112146Y-16267324D01*
X8112146Y-16267324D02*
X8102622Y-16248276D01*
X8102622Y-16248276D02*
X8102622Y-16076848D01*
X8359765Y-16276848D02*
X8359765Y-16076848D01*
X8359765Y-16076848D02*
X8426432Y-16219705D01*
X8426432Y-16219705D02*
X8493099Y-16076848D01*
X8493099Y-16076848D02*
X8493099Y-16276848D01*
X8674051Y-16276848D02*
X8674051Y-16172086D01*
X8674051Y-16172086D02*
X8664527Y-16153038D01*
X8664527Y-16153038D02*
X8645480Y-16143514D01*
X8645480Y-16143514D02*
X8607384Y-16143514D01*
X8607384Y-16143514D02*
X8588337Y-16153038D01*
X8674051Y-16267324D02*
X8655003Y-16276848D01*
X8655003Y-16276848D02*
X8607384Y-16276848D01*
X8607384Y-16276848D02*
X8588337Y-16267324D01*
X8588337Y-16267324D02*
X8578813Y-16248276D01*
X8578813Y-16248276D02*
X8578813Y-16229229D01*
X8578813Y-16229229D02*
X8588337Y-16210181D01*
X8588337Y-16210181D02*
X8607384Y-16200657D01*
X8607384Y-16200657D02*
X8655003Y-16200657D01*
X8655003Y-16200657D02*
X8674051Y-16191133D01*
X8769289Y-16143514D02*
X8769289Y-16343514D01*
X8769289Y-16153038D02*
X8788337Y-16143514D01*
X8788337Y-16143514D02*
X8826432Y-16143514D01*
X8826432Y-16143514D02*
X8845480Y-16153038D01*
X8845480Y-16153038D02*
X8855003Y-16162562D01*
X8855003Y-16162562D02*
X8864527Y-16181610D01*
X8864527Y-16181610D02*
X8864527Y-16238752D01*
X8864527Y-16238752D02*
X8855003Y-16257800D01*
X8855003Y-16257800D02*
X8845480Y-16267324D01*
X8845480Y-16267324D02*
X8826432Y-16276848D01*
X8826432Y-16276848D02*
X8788337Y-16276848D01*
X8788337Y-16276848D02*
X8769289Y-16267324D01*
X8950242Y-16257800D02*
X8959765Y-16267324D01*
X8959765Y-16267324D02*
X8950242Y-16276848D01*
X8950242Y-16276848D02*
X8940718Y-16267324D01*
X8940718Y-16267324D02*
X8950242Y-16257800D01*
X8950242Y-16257800D02*
X8950242Y-16276848D01*
X8950242Y-16153038D02*
X8959765Y-16162562D01*
X8959765Y-16162562D02*
X8950242Y-16172086D01*
X8950242Y-16172086D02*
X8940718Y-16162562D01*
X8940718Y-16162562D02*
X8950242Y-16153038D01*
X8950242Y-16153038D02*
X8950242Y-16172086D01*
D11*
X7308036Y-16600364D02*
X7318036Y-16610364D01*
X7318036Y-16600364D02*
X7308036Y-16610364D01*
D10*
X7616908Y-16496848D02*
X7635956Y-16496848D01*
X7635956Y-16496848D02*
X7655003Y-16506372D01*
X7655003Y-16506372D02*
X7664527Y-16515895D01*
X7664527Y-16515895D02*
X7674051Y-16534943D01*
X7674051Y-16534943D02*
X7683575Y-16573038D01*
X7683575Y-16573038D02*
X7683575Y-16620657D01*
X7683575Y-16620657D02*
X7674051Y-16658752D01*
X7674051Y-16658752D02*
X7664527Y-16677800D01*
X7664527Y-16677800D02*
X7655003Y-16687324D01*
X7655003Y-16687324D02*
X7635956Y-16696848D01*
X7635956Y-16696848D02*
X7616908Y-16696848D01*
X7616908Y-16696848D02*
X7597860Y-16687324D01*
X7597860Y-16687324D02*
X7588337Y-16677800D01*
X7588337Y-16677800D02*
X7578813Y-16658752D01*
X7578813Y-16658752D02*
X7569289Y-16620657D01*
X7569289Y-16620657D02*
X7569289Y-16573038D01*
X7569289Y-16573038D02*
X7578813Y-16534943D01*
X7578813Y-16534943D02*
X7588337Y-16515895D01*
X7588337Y-16515895D02*
X7597860Y-16506372D01*
X7597860Y-16506372D02*
X7616908Y-16496848D01*
X7769289Y-16677800D02*
X7778813Y-16687324D01*
X7778813Y-16687324D02*
X7769289Y-16696848D01*
X7769289Y-16696848D02*
X7759765Y-16687324D01*
X7759765Y-16687324D02*
X7769289Y-16677800D01*
X7769289Y-16677800D02*
X7769289Y-16696848D01*
X7969289Y-16696848D02*
X7855003Y-16696848D01*
X7912146Y-16696848D02*
X7912146Y-16496848D01*
X7912146Y-16496848D02*
X7893099Y-16525419D01*
X7893099Y-16525419D02*
X7874051Y-16544467D01*
X7874051Y-16544467D02*
X7855003Y-16553991D01*
X8093099Y-16496848D02*
X8112146Y-16496848D01*
X8112146Y-16496848D02*
X8131194Y-16506372D01*
X8131194Y-16506372D02*
X8140718Y-16515895D01*
X8140718Y-16515895D02*
X8150241Y-16534943D01*
X8150241Y-16534943D02*
X8159765Y-16573038D01*
X8159765Y-16573038D02*
X8159765Y-16620657D01*
X8159765Y-16620657D02*
X8150241Y-16658752D01*
X8150241Y-16658752D02*
X8140718Y-16677800D01*
X8140718Y-16677800D02*
X8131194Y-16687324D01*
X8131194Y-16687324D02*
X8112146Y-16696848D01*
X8112146Y-16696848D02*
X8093099Y-16696848D01*
X8093099Y-16696848D02*
X8074051Y-16687324D01*
X8074051Y-16687324D02*
X8064527Y-16677800D01*
X8064527Y-16677800D02*
X8055003Y-16658752D01*
X8055003Y-16658752D02*
X8045480Y-16620657D01*
X8045480Y-16620657D02*
X8045480Y-16573038D01*
X8045480Y-16573038D02*
X8055003Y-16534943D01*
X8055003Y-16534943D02*
X8064527Y-16515895D01*
X8064527Y-16515895D02*
X8074051Y-16506372D01*
X8074051Y-16506372D02*
X8093099Y-16496848D01*
X8283575Y-16496848D02*
X8302622Y-16496848D01*
X8302622Y-16496848D02*
X8321670Y-16506372D01*
X8321670Y-16506372D02*
X8331194Y-16515895D01*
X8331194Y-16515895D02*
X8340718Y-16534943D01*
X8340718Y-16534943D02*
X8350241Y-16573038D01*
X8350241Y-16573038D02*
X8350241Y-16620657D01*
X8350241Y-16620657D02*
X8340718Y-16658752D01*
X8340718Y-16658752D02*
X8331194Y-16677800D01*
X8331194Y-16677800D02*
X8321670Y-16687324D01*
X8321670Y-16687324D02*
X8302622Y-16696848D01*
X8302622Y-16696848D02*
X8283575Y-16696848D01*
X8283575Y-16696848D02*
X8264527Y-16687324D01*
X8264527Y-16687324D02*
X8255003Y-16677800D01*
X8255003Y-16677800D02*
X8245480Y-16658752D01*
X8245480Y-16658752D02*
X8235956Y-16620657D01*
X8235956Y-16620657D02*
X8235956Y-16573038D01*
X8235956Y-16573038D02*
X8245480Y-16534943D01*
X8245480Y-16534943D02*
X8255003Y-16515895D01*
X8255003Y-16515895D02*
X8264527Y-16506372D01*
X8264527Y-16506372D02*
X8283575Y-16496848D01*
X8435956Y-16696848D02*
X8435956Y-16563514D01*
X8435956Y-16582562D02*
X8445480Y-16573038D01*
X8445480Y-16573038D02*
X8464527Y-16563514D01*
X8464527Y-16563514D02*
X8493099Y-16563514D01*
X8493099Y-16563514D02*
X8512146Y-16573038D01*
X8512146Y-16573038D02*
X8521670Y-16592086D01*
X8521670Y-16592086D02*
X8521670Y-16696848D01*
X8521670Y-16592086D02*
X8531194Y-16573038D01*
X8531194Y-16573038D02*
X8550242Y-16563514D01*
X8550242Y-16563514D02*
X8578813Y-16563514D01*
X8578813Y-16563514D02*
X8597861Y-16573038D01*
X8597861Y-16573038D02*
X8607384Y-16592086D01*
X8607384Y-16592086D02*
X8607384Y-16696848D01*
X8702623Y-16696848D02*
X8702623Y-16563514D01*
X8702623Y-16582562D02*
X8712146Y-16573038D01*
X8712146Y-16573038D02*
X8731194Y-16563514D01*
X8731194Y-16563514D02*
X8759765Y-16563514D01*
X8759765Y-16563514D02*
X8778813Y-16573038D01*
X8778813Y-16573038D02*
X8788337Y-16592086D01*
X8788337Y-16592086D02*
X8788337Y-16696848D01*
X8788337Y-16592086D02*
X8797861Y-16573038D01*
X8797861Y-16573038D02*
X8816908Y-16563514D01*
X8816908Y-16563514D02*
X8845480Y-16563514D01*
X8845480Y-16563514D02*
X8864527Y-16573038D01*
X8864527Y-16573038D02*
X8874051Y-16592086D01*
X8874051Y-16592086D02*
X8874051Y-16696848D01*
X9264527Y-16487324D02*
X9093099Y-16744467D01*
X9521670Y-16496848D02*
X9540718Y-16496848D01*
X9540718Y-16496848D02*
X9559766Y-16506372D01*
X9559766Y-16506372D02*
X9569289Y-16515895D01*
X9569289Y-16515895D02*
X9578813Y-16534943D01*
X9578813Y-16534943D02*
X9588337Y-16573038D01*
X9588337Y-16573038D02*
X9588337Y-16620657D01*
X9588337Y-16620657D02*
X9578813Y-16658752D01*
X9578813Y-16658752D02*
X9569289Y-16677800D01*
X9569289Y-16677800D02*
X9559766Y-16687324D01*
X9559766Y-16687324D02*
X9540718Y-16696848D01*
X9540718Y-16696848D02*
X9521670Y-16696848D01*
X9521670Y-16696848D02*
X9502623Y-16687324D01*
X9502623Y-16687324D02*
X9493099Y-16677800D01*
X9493099Y-16677800D02*
X9483575Y-16658752D01*
X9483575Y-16658752D02*
X9474051Y-16620657D01*
X9474051Y-16620657D02*
X9474051Y-16573038D01*
X9474051Y-16573038D02*
X9483575Y-16534943D01*
X9483575Y-16534943D02*
X9493099Y-16515895D01*
X9493099Y-16515895D02*
X9502623Y-16506372D01*
X9502623Y-16506372D02*
X9521670Y-16496848D01*
X9674051Y-16677800D02*
X9683575Y-16687324D01*
X9683575Y-16687324D02*
X9674051Y-16696848D01*
X9674051Y-16696848D02*
X9664527Y-16687324D01*
X9664527Y-16687324D02*
X9674051Y-16677800D01*
X9674051Y-16677800D02*
X9674051Y-16696848D01*
X9807385Y-16496848D02*
X9826432Y-16496848D01*
X9826432Y-16496848D02*
X9845480Y-16506372D01*
X9845480Y-16506372D02*
X9855004Y-16515895D01*
X9855004Y-16515895D02*
X9864527Y-16534943D01*
X9864527Y-16534943D02*
X9874051Y-16573038D01*
X9874051Y-16573038D02*
X9874051Y-16620657D01*
X9874051Y-16620657D02*
X9864527Y-16658752D01*
X9864527Y-16658752D02*
X9855004Y-16677800D01*
X9855004Y-16677800D02*
X9845480Y-16687324D01*
X9845480Y-16687324D02*
X9826432Y-16696848D01*
X9826432Y-16696848D02*
X9807385Y-16696848D01*
X9807385Y-16696848D02*
X9788337Y-16687324D01*
X9788337Y-16687324D02*
X9778813Y-16677800D01*
X9778813Y-16677800D02*
X9769289Y-16658752D01*
X9769289Y-16658752D02*
X9759766Y-16620657D01*
X9759766Y-16620657D02*
X9759766Y-16573038D01*
X9759766Y-16573038D02*
X9769289Y-16534943D01*
X9769289Y-16534943D02*
X9778813Y-16515895D01*
X9778813Y-16515895D02*
X9788337Y-16506372D01*
X9788337Y-16506372D02*
X9807385Y-16496848D01*
X9997861Y-16496848D02*
X10016908Y-16496848D01*
X10016908Y-16496848D02*
X10035956Y-16506372D01*
X10035956Y-16506372D02*
X10045480Y-16515895D01*
X10045480Y-16515895D02*
X10055004Y-16534943D01*
X10055004Y-16534943D02*
X10064527Y-16573038D01*
X10064527Y-16573038D02*
X10064527Y-16620657D01*
X10064527Y-16620657D02*
X10055004Y-16658752D01*
X10055004Y-16658752D02*
X10045480Y-16677800D01*
X10045480Y-16677800D02*
X10035956Y-16687324D01*
X10035956Y-16687324D02*
X10016908Y-16696848D01*
X10016908Y-16696848D02*
X9997861Y-16696848D01*
X9997861Y-16696848D02*
X9978813Y-16687324D01*
X9978813Y-16687324D02*
X9969289Y-16677800D01*
X9969289Y-16677800D02*
X9959766Y-16658752D01*
X9959766Y-16658752D02*
X9950242Y-16620657D01*
X9950242Y-16620657D02*
X9950242Y-16573038D01*
X9950242Y-16573038D02*
X9959766Y-16534943D01*
X9959766Y-16534943D02*
X9969289Y-16515895D01*
X9969289Y-16515895D02*
X9978813Y-16506372D01*
X9978813Y-16506372D02*
X9997861Y-16496848D01*
X10131194Y-16496848D02*
X10255004Y-16496848D01*
X10255004Y-16496848D02*
X10188337Y-16573038D01*
X10188337Y-16573038D02*
X10216908Y-16573038D01*
X10216908Y-16573038D02*
X10235956Y-16582562D01*
X10235956Y-16582562D02*
X10245480Y-16592086D01*
X10245480Y-16592086D02*
X10255004Y-16611133D01*
X10255004Y-16611133D02*
X10255004Y-16658752D01*
X10255004Y-16658752D02*
X10245480Y-16677800D01*
X10245480Y-16677800D02*
X10235956Y-16687324D01*
X10235956Y-16687324D02*
X10216908Y-16696848D01*
X10216908Y-16696848D02*
X10159766Y-16696848D01*
X10159766Y-16696848D02*
X10140718Y-16687324D01*
X10140718Y-16687324D02*
X10131194Y-16677800D01*
X10350242Y-16696848D02*
X10388337Y-16696848D01*
X10388337Y-16696848D02*
X10407385Y-16687324D01*
X10407385Y-16687324D02*
X10416908Y-16677800D01*
X10416908Y-16677800D02*
X10435956Y-16649229D01*
X10435956Y-16649229D02*
X10445480Y-16611133D01*
X10445480Y-16611133D02*
X10445480Y-16534943D01*
X10445480Y-16534943D02*
X10435956Y-16515895D01*
X10435956Y-16515895D02*
X10426432Y-16506372D01*
X10426432Y-16506372D02*
X10407385Y-16496848D01*
X10407385Y-16496848D02*
X10369289Y-16496848D01*
X10369289Y-16496848D02*
X10350242Y-16506372D01*
X10350242Y-16506372D02*
X10340718Y-16515895D01*
X10340718Y-16515895D02*
X10331194Y-16534943D01*
X10331194Y-16534943D02*
X10331194Y-16582562D01*
X10331194Y-16582562D02*
X10340718Y-16601610D01*
X10340718Y-16601610D02*
X10350242Y-16611133D01*
X10350242Y-16611133D02*
X10369289Y-16620657D01*
X10369289Y-16620657D02*
X10407385Y-16620657D01*
X10407385Y-16620657D02*
X10426432Y-16611133D01*
X10426432Y-16611133D02*
X10435956Y-16601610D01*
X10435956Y-16601610D02*
X10445480Y-16582562D01*
X10521670Y-16496848D02*
X10521670Y-16534943D01*
X10597861Y-16496848D02*
X10597861Y-16534943D01*
X10893099Y-16773038D02*
X10883575Y-16763514D01*
X10883575Y-16763514D02*
X10864528Y-16734943D01*
X10864528Y-16734943D02*
X10855004Y-16715895D01*
X10855004Y-16715895D02*
X10845480Y-16687324D01*
X10845480Y-16687324D02*
X10835956Y-16639705D01*
X10835956Y-16639705D02*
X10835956Y-16601610D01*
X10835956Y-16601610D02*
X10845480Y-16553991D01*
X10845480Y-16553991D02*
X10855004Y-16525419D01*
X10855004Y-16525419D02*
X10864528Y-16506372D01*
X10864528Y-16506372D02*
X10883575Y-16477800D01*
X10883575Y-16477800D02*
X10893099Y-16468276D01*
X10978813Y-16696848D02*
X11016908Y-16696848D01*
X11016908Y-16696848D02*
X11035956Y-16687324D01*
X11035956Y-16687324D02*
X11045480Y-16677800D01*
X11045480Y-16677800D02*
X11064528Y-16649229D01*
X11064528Y-16649229D02*
X11074051Y-16611133D01*
X11074051Y-16611133D02*
X11074051Y-16534943D01*
X11074051Y-16534943D02*
X11064528Y-16515895D01*
X11064528Y-16515895D02*
X11055004Y-16506372D01*
X11055004Y-16506372D02*
X11035956Y-16496848D01*
X11035956Y-16496848D02*
X10997861Y-16496848D01*
X10997861Y-16496848D02*
X10978813Y-16506372D01*
X10978813Y-16506372D02*
X10969289Y-16515895D01*
X10969289Y-16515895D02*
X10959766Y-16534943D01*
X10959766Y-16534943D02*
X10959766Y-16582562D01*
X10959766Y-16582562D02*
X10969289Y-16601610D01*
X10969289Y-16601610D02*
X10978813Y-16611133D01*
X10978813Y-16611133D02*
X10997861Y-16620657D01*
X10997861Y-16620657D02*
X11035956Y-16620657D01*
X11035956Y-16620657D02*
X11055004Y-16611133D01*
X11055004Y-16611133D02*
X11064528Y-16601610D01*
X11064528Y-16601610D02*
X11074051Y-16582562D01*
X11312147Y-16696848D02*
X11312147Y-16496848D01*
X11397861Y-16696848D02*
X11397861Y-16592086D01*
X11397861Y-16592086D02*
X11388337Y-16573038D01*
X11388337Y-16573038D02*
X11369289Y-16563514D01*
X11369289Y-16563514D02*
X11340718Y-16563514D01*
X11340718Y-16563514D02*
X11321670Y-16573038D01*
X11321670Y-16573038D02*
X11312147Y-16582562D01*
X11521670Y-16696848D02*
X11502623Y-16687324D01*
X11502623Y-16687324D02*
X11493099Y-16677800D01*
X11493099Y-16677800D02*
X11483575Y-16658752D01*
X11483575Y-16658752D02*
X11483575Y-16601610D01*
X11483575Y-16601610D02*
X11493099Y-16582562D01*
X11493099Y-16582562D02*
X11502623Y-16573038D01*
X11502623Y-16573038D02*
X11521670Y-16563514D01*
X11521670Y-16563514D02*
X11550242Y-16563514D01*
X11550242Y-16563514D02*
X11569289Y-16573038D01*
X11569289Y-16573038D02*
X11578813Y-16582562D01*
X11578813Y-16582562D02*
X11588337Y-16601610D01*
X11588337Y-16601610D02*
X11588337Y-16658752D01*
X11588337Y-16658752D02*
X11578813Y-16677800D01*
X11578813Y-16677800D02*
X11569289Y-16687324D01*
X11569289Y-16687324D02*
X11550242Y-16696848D01*
X11550242Y-16696848D02*
X11521670Y-16696848D01*
X11702623Y-16696848D02*
X11683575Y-16687324D01*
X11683575Y-16687324D02*
X11674051Y-16668276D01*
X11674051Y-16668276D02*
X11674051Y-16496848D01*
X11855004Y-16687324D02*
X11835956Y-16696848D01*
X11835956Y-16696848D02*
X11797861Y-16696848D01*
X11797861Y-16696848D02*
X11778813Y-16687324D01*
X11778813Y-16687324D02*
X11769289Y-16668276D01*
X11769289Y-16668276D02*
X11769289Y-16592086D01*
X11769289Y-16592086D02*
X11778813Y-16573038D01*
X11778813Y-16573038D02*
X11797861Y-16563514D01*
X11797861Y-16563514D02*
X11835956Y-16563514D01*
X11835956Y-16563514D02*
X11855004Y-16573038D01*
X11855004Y-16573038D02*
X11864528Y-16592086D01*
X11864528Y-16592086D02*
X11864528Y-16611133D01*
X11864528Y-16611133D02*
X11769289Y-16630181D01*
X11940718Y-16687324D02*
X11959766Y-16696848D01*
X11959766Y-16696848D02*
X11997861Y-16696848D01*
X11997861Y-16696848D02*
X12016909Y-16687324D01*
X12016909Y-16687324D02*
X12026432Y-16668276D01*
X12026432Y-16668276D02*
X12026432Y-16658752D01*
X12026432Y-16658752D02*
X12016909Y-16639705D01*
X12016909Y-16639705D02*
X11997861Y-16630181D01*
X11997861Y-16630181D02*
X11969289Y-16630181D01*
X11969289Y-16630181D02*
X11950242Y-16620657D01*
X11950242Y-16620657D02*
X11940718Y-16601610D01*
X11940718Y-16601610D02*
X11940718Y-16592086D01*
X11940718Y-16592086D02*
X11950242Y-16573038D01*
X11950242Y-16573038D02*
X11969289Y-16563514D01*
X11969289Y-16563514D02*
X11997861Y-16563514D01*
X11997861Y-16563514D02*
X12016909Y-16573038D01*
X12093099Y-16773038D02*
X12102623Y-16763514D01*
X12102623Y-16763514D02*
X12121670Y-16734943D01*
X12121670Y-16734943D02*
X12131194Y-16715895D01*
X12131194Y-16715895D02*
X12140718Y-16687324D01*
X12140718Y-16687324D02*
X12150242Y-16639705D01*
X12150242Y-16639705D02*
X12150242Y-16601610D01*
X12150242Y-16601610D02*
X12140718Y-16553991D01*
X12140718Y-16553991D02*
X12131194Y-16525419D01*
X12131194Y-16525419D02*
X12121670Y-16506372D01*
X12121670Y-16506372D02*
X12102623Y-16477800D01*
X12102623Y-16477800D02*
X12093099Y-16468276D01*
D11*
X7318036Y-16869364D02*
G75*
G03*
X7278036Y-16869364I-20000J0D01*
G01*
X7278036Y-16869364D02*
G75*
G03*
X7318036Y-16869364I20000J0D01*
G01*
D10*
X7616908Y-16760848D02*
X7635956Y-16760848D01*
X7635956Y-16760848D02*
X7655003Y-16770372D01*
X7655003Y-16770372D02*
X7664527Y-16779895D01*
X7664527Y-16779895D02*
X7674051Y-16798943D01*
X7674051Y-16798943D02*
X7683575Y-16837038D01*
X7683575Y-16837038D02*
X7683575Y-16884657D01*
X7683575Y-16884657D02*
X7674051Y-16922753D01*
X7674051Y-16922753D02*
X7664527Y-16941800D01*
X7664527Y-16941800D02*
X7655003Y-16951324D01*
X7655003Y-16951324D02*
X7635956Y-16960848D01*
X7635956Y-16960848D02*
X7616908Y-16960848D01*
X7616908Y-16960848D02*
X7597860Y-16951324D01*
X7597860Y-16951324D02*
X7588337Y-16941800D01*
X7588337Y-16941800D02*
X7578813Y-16922753D01*
X7578813Y-16922753D02*
X7569289Y-16884657D01*
X7569289Y-16884657D02*
X7569289Y-16837038D01*
X7569289Y-16837038D02*
X7578813Y-16798943D01*
X7578813Y-16798943D02*
X7588337Y-16779895D01*
X7588337Y-16779895D02*
X7597860Y-16770372D01*
X7597860Y-16770372D02*
X7616908Y-16760848D01*
X7769289Y-16941800D02*
X7778813Y-16951324D01*
X7778813Y-16951324D02*
X7769289Y-16960848D01*
X7769289Y-16960848D02*
X7759765Y-16951324D01*
X7759765Y-16951324D02*
X7769289Y-16941800D01*
X7769289Y-16941800D02*
X7769289Y-16960848D01*
X7950241Y-16827514D02*
X7950241Y-16960848D01*
X7902622Y-16751324D02*
X7855003Y-16894181D01*
X7855003Y-16894181D02*
X7978813Y-16894181D01*
X8093099Y-16760848D02*
X8112146Y-16760848D01*
X8112146Y-16760848D02*
X8131194Y-16770372D01*
X8131194Y-16770372D02*
X8140718Y-16779895D01*
X8140718Y-16779895D02*
X8150241Y-16798943D01*
X8150241Y-16798943D02*
X8159765Y-16837038D01*
X8159765Y-16837038D02*
X8159765Y-16884657D01*
X8159765Y-16884657D02*
X8150241Y-16922753D01*
X8150241Y-16922753D02*
X8140718Y-16941800D01*
X8140718Y-16941800D02*
X8131194Y-16951324D01*
X8131194Y-16951324D02*
X8112146Y-16960848D01*
X8112146Y-16960848D02*
X8093099Y-16960848D01*
X8093099Y-16960848D02*
X8074051Y-16951324D01*
X8074051Y-16951324D02*
X8064527Y-16941800D01*
X8064527Y-16941800D02*
X8055003Y-16922753D01*
X8055003Y-16922753D02*
X8045480Y-16884657D01*
X8045480Y-16884657D02*
X8045480Y-16837038D01*
X8045480Y-16837038D02*
X8055003Y-16798943D01*
X8055003Y-16798943D02*
X8064527Y-16779895D01*
X8064527Y-16779895D02*
X8074051Y-16770372D01*
X8074051Y-16770372D02*
X8093099Y-16760848D01*
X8283575Y-16760848D02*
X8302622Y-16760848D01*
X8302622Y-16760848D02*
X8321670Y-16770372D01*
X8321670Y-16770372D02*
X8331194Y-16779895D01*
X8331194Y-16779895D02*
X8340718Y-16798943D01*
X8340718Y-16798943D02*
X8350241Y-16837038D01*
X8350241Y-16837038D02*
X8350241Y-16884657D01*
X8350241Y-16884657D02*
X8340718Y-16922753D01*
X8340718Y-16922753D02*
X8331194Y-16941800D01*
X8331194Y-16941800D02*
X8321670Y-16951324D01*
X8321670Y-16951324D02*
X8302622Y-16960848D01*
X8302622Y-16960848D02*
X8283575Y-16960848D01*
X8283575Y-16960848D02*
X8264527Y-16951324D01*
X8264527Y-16951324D02*
X8255003Y-16941800D01*
X8255003Y-16941800D02*
X8245480Y-16922753D01*
X8245480Y-16922753D02*
X8235956Y-16884657D01*
X8235956Y-16884657D02*
X8235956Y-16837038D01*
X8235956Y-16837038D02*
X8245480Y-16798943D01*
X8245480Y-16798943D02*
X8255003Y-16779895D01*
X8255003Y-16779895D02*
X8264527Y-16770372D01*
X8264527Y-16770372D02*
X8283575Y-16760848D01*
X8435956Y-16960848D02*
X8435956Y-16827514D01*
X8435956Y-16846562D02*
X8445480Y-16837038D01*
X8445480Y-16837038D02*
X8464527Y-16827514D01*
X8464527Y-16827514D02*
X8493099Y-16827514D01*
X8493099Y-16827514D02*
X8512146Y-16837038D01*
X8512146Y-16837038D02*
X8521670Y-16856086D01*
X8521670Y-16856086D02*
X8521670Y-16960848D01*
X8521670Y-16856086D02*
X8531194Y-16837038D01*
X8531194Y-16837038D02*
X8550242Y-16827514D01*
X8550242Y-16827514D02*
X8578813Y-16827514D01*
X8578813Y-16827514D02*
X8597861Y-16837038D01*
X8597861Y-16837038D02*
X8607384Y-16856086D01*
X8607384Y-16856086D02*
X8607384Y-16960848D01*
X8702623Y-16960848D02*
X8702623Y-16827514D01*
X8702623Y-16846562D02*
X8712146Y-16837038D01*
X8712146Y-16837038D02*
X8731194Y-16827514D01*
X8731194Y-16827514D02*
X8759765Y-16827514D01*
X8759765Y-16827514D02*
X8778813Y-16837038D01*
X8778813Y-16837038D02*
X8788337Y-16856086D01*
X8788337Y-16856086D02*
X8788337Y-16960848D01*
X8788337Y-16856086D02*
X8797861Y-16837038D01*
X8797861Y-16837038D02*
X8816908Y-16827514D01*
X8816908Y-16827514D02*
X8845480Y-16827514D01*
X8845480Y-16827514D02*
X8864527Y-16837038D01*
X8864527Y-16837038D02*
X8874051Y-16856086D01*
X8874051Y-16856086D02*
X8874051Y-16960848D01*
X9264527Y-16751324D02*
X9093099Y-17008467D01*
X9521670Y-16760848D02*
X9540718Y-16760848D01*
X9540718Y-16760848D02*
X9559766Y-16770372D01*
X9559766Y-16770372D02*
X9569289Y-16779895D01*
X9569289Y-16779895D02*
X9578813Y-16798943D01*
X9578813Y-16798943D02*
X9588337Y-16837038D01*
X9588337Y-16837038D02*
X9588337Y-16884657D01*
X9588337Y-16884657D02*
X9578813Y-16922753D01*
X9578813Y-16922753D02*
X9569289Y-16941800D01*
X9569289Y-16941800D02*
X9559766Y-16951324D01*
X9559766Y-16951324D02*
X9540718Y-16960848D01*
X9540718Y-16960848D02*
X9521670Y-16960848D01*
X9521670Y-16960848D02*
X9502623Y-16951324D01*
X9502623Y-16951324D02*
X9493099Y-16941800D01*
X9493099Y-16941800D02*
X9483575Y-16922753D01*
X9483575Y-16922753D02*
X9474051Y-16884657D01*
X9474051Y-16884657D02*
X9474051Y-16837038D01*
X9474051Y-16837038D02*
X9483575Y-16798943D01*
X9483575Y-16798943D02*
X9493099Y-16779895D01*
X9493099Y-16779895D02*
X9502623Y-16770372D01*
X9502623Y-16770372D02*
X9521670Y-16760848D01*
X9674051Y-16941800D02*
X9683575Y-16951324D01*
X9683575Y-16951324D02*
X9674051Y-16960848D01*
X9674051Y-16960848D02*
X9664527Y-16951324D01*
X9664527Y-16951324D02*
X9674051Y-16941800D01*
X9674051Y-16941800D02*
X9674051Y-16960848D01*
X9807385Y-16760848D02*
X9826432Y-16760848D01*
X9826432Y-16760848D02*
X9845480Y-16770372D01*
X9845480Y-16770372D02*
X9855004Y-16779895D01*
X9855004Y-16779895D02*
X9864527Y-16798943D01*
X9864527Y-16798943D02*
X9874051Y-16837038D01*
X9874051Y-16837038D02*
X9874051Y-16884657D01*
X9874051Y-16884657D02*
X9864527Y-16922753D01*
X9864527Y-16922753D02*
X9855004Y-16941800D01*
X9855004Y-16941800D02*
X9845480Y-16951324D01*
X9845480Y-16951324D02*
X9826432Y-16960848D01*
X9826432Y-16960848D02*
X9807385Y-16960848D01*
X9807385Y-16960848D02*
X9788337Y-16951324D01*
X9788337Y-16951324D02*
X9778813Y-16941800D01*
X9778813Y-16941800D02*
X9769289Y-16922753D01*
X9769289Y-16922753D02*
X9759766Y-16884657D01*
X9759766Y-16884657D02*
X9759766Y-16837038D01*
X9759766Y-16837038D02*
X9769289Y-16798943D01*
X9769289Y-16798943D02*
X9778813Y-16779895D01*
X9778813Y-16779895D02*
X9788337Y-16770372D01*
X9788337Y-16770372D02*
X9807385Y-16760848D01*
X10064527Y-16960848D02*
X9950242Y-16960848D01*
X10007385Y-16960848D02*
X10007385Y-16760848D01*
X10007385Y-16760848D02*
X9988337Y-16789419D01*
X9988337Y-16789419D02*
X9969289Y-16808467D01*
X9969289Y-16808467D02*
X9950242Y-16817991D01*
X10245480Y-16760848D02*
X10150242Y-16760848D01*
X10150242Y-16760848D02*
X10140718Y-16856086D01*
X10140718Y-16856086D02*
X10150242Y-16846562D01*
X10150242Y-16846562D02*
X10169289Y-16837038D01*
X10169289Y-16837038D02*
X10216908Y-16837038D01*
X10216908Y-16837038D02*
X10235956Y-16846562D01*
X10235956Y-16846562D02*
X10245480Y-16856086D01*
X10245480Y-16856086D02*
X10255004Y-16875134D01*
X10255004Y-16875134D02*
X10255004Y-16922753D01*
X10255004Y-16922753D02*
X10245480Y-16941800D01*
X10245480Y-16941800D02*
X10235956Y-16951324D01*
X10235956Y-16951324D02*
X10216908Y-16960848D01*
X10216908Y-16960848D02*
X10169289Y-16960848D01*
X10169289Y-16960848D02*
X10150242Y-16951324D01*
X10150242Y-16951324D02*
X10140718Y-16941800D01*
X10321670Y-16760848D02*
X10455004Y-16760848D01*
X10455004Y-16760848D02*
X10369289Y-16960848D01*
X10521670Y-16760848D02*
X10521670Y-16798943D01*
X10597861Y-16760848D02*
X10597861Y-16798943D01*
X10893099Y-17037038D02*
X10883575Y-17027514D01*
X10883575Y-17027514D02*
X10864528Y-16998943D01*
X10864528Y-16998943D02*
X10855004Y-16979895D01*
X10855004Y-16979895D02*
X10845480Y-16951324D01*
X10845480Y-16951324D02*
X10835956Y-16903705D01*
X10835956Y-16903705D02*
X10835956Y-16865610D01*
X10835956Y-16865610D02*
X10845480Y-16817991D01*
X10845480Y-16817991D02*
X10855004Y-16789419D01*
X10855004Y-16789419D02*
X10864528Y-16770372D01*
X10864528Y-16770372D02*
X10883575Y-16741800D01*
X10883575Y-16741800D02*
X10893099Y-16732276D01*
X11074051Y-16960848D02*
X10959766Y-16960848D01*
X11016908Y-16960848D02*
X11016908Y-16760848D01*
X11016908Y-16760848D02*
X10997861Y-16789419D01*
X10997861Y-16789419D02*
X10978813Y-16808467D01*
X10978813Y-16808467D02*
X10959766Y-16817991D01*
X11245480Y-16827514D02*
X11245480Y-16960848D01*
X11197861Y-16751324D02*
X11150242Y-16894181D01*
X11150242Y-16894181D02*
X11274051Y-16894181D01*
X11378813Y-16846562D02*
X11359766Y-16837038D01*
X11359766Y-16837038D02*
X11350242Y-16827514D01*
X11350242Y-16827514D02*
X11340718Y-16808467D01*
X11340718Y-16808467D02*
X11340718Y-16798943D01*
X11340718Y-16798943D02*
X11350242Y-16779895D01*
X11350242Y-16779895D02*
X11359766Y-16770372D01*
X11359766Y-16770372D02*
X11378813Y-16760848D01*
X11378813Y-16760848D02*
X11416908Y-16760848D01*
X11416908Y-16760848D02*
X11435956Y-16770372D01*
X11435956Y-16770372D02*
X11445480Y-16779895D01*
X11445480Y-16779895D02*
X11455004Y-16798943D01*
X11455004Y-16798943D02*
X11455004Y-16808467D01*
X11455004Y-16808467D02*
X11445480Y-16827514D01*
X11445480Y-16827514D02*
X11435956Y-16837038D01*
X11435956Y-16837038D02*
X11416908Y-16846562D01*
X11416908Y-16846562D02*
X11378813Y-16846562D01*
X11378813Y-16846562D02*
X11359766Y-16856086D01*
X11359766Y-16856086D02*
X11350242Y-16865610D01*
X11350242Y-16865610D02*
X11340718Y-16884657D01*
X11340718Y-16884657D02*
X11340718Y-16922753D01*
X11340718Y-16922753D02*
X11350242Y-16941800D01*
X11350242Y-16941800D02*
X11359766Y-16951324D01*
X11359766Y-16951324D02*
X11378813Y-16960848D01*
X11378813Y-16960848D02*
X11416908Y-16960848D01*
X11416908Y-16960848D02*
X11435956Y-16951324D01*
X11435956Y-16951324D02*
X11445480Y-16941800D01*
X11445480Y-16941800D02*
X11455004Y-16922753D01*
X11455004Y-16922753D02*
X11455004Y-16884657D01*
X11455004Y-16884657D02*
X11445480Y-16865610D01*
X11445480Y-16865610D02*
X11435956Y-16856086D01*
X11435956Y-16856086D02*
X11416908Y-16846562D01*
X11693099Y-16960848D02*
X11693099Y-16760848D01*
X11778813Y-16960848D02*
X11778813Y-16856086D01*
X11778813Y-16856086D02*
X11769289Y-16837038D01*
X11769289Y-16837038D02*
X11750242Y-16827514D01*
X11750242Y-16827514D02*
X11721670Y-16827514D01*
X11721670Y-16827514D02*
X11702623Y-16837038D01*
X11702623Y-16837038D02*
X11693099Y-16846562D01*
X11902623Y-16960848D02*
X11883575Y-16951324D01*
X11883575Y-16951324D02*
X11874051Y-16941800D01*
X11874051Y-16941800D02*
X11864528Y-16922753D01*
X11864528Y-16922753D02*
X11864528Y-16865610D01*
X11864528Y-16865610D02*
X11874051Y-16846562D01*
X11874051Y-16846562D02*
X11883575Y-16837038D01*
X11883575Y-16837038D02*
X11902623Y-16827514D01*
X11902623Y-16827514D02*
X11931194Y-16827514D01*
X11931194Y-16827514D02*
X11950242Y-16837038D01*
X11950242Y-16837038D02*
X11959766Y-16846562D01*
X11959766Y-16846562D02*
X11969289Y-16865610D01*
X11969289Y-16865610D02*
X11969289Y-16922753D01*
X11969289Y-16922753D02*
X11959766Y-16941800D01*
X11959766Y-16941800D02*
X11950242Y-16951324D01*
X11950242Y-16951324D02*
X11931194Y-16960848D01*
X11931194Y-16960848D02*
X11902623Y-16960848D01*
X12083575Y-16960848D02*
X12064528Y-16951324D01*
X12064528Y-16951324D02*
X12055004Y-16932276D01*
X12055004Y-16932276D02*
X12055004Y-16760848D01*
X12235956Y-16951324D02*
X12216909Y-16960848D01*
X12216909Y-16960848D02*
X12178813Y-16960848D01*
X12178813Y-16960848D02*
X12159766Y-16951324D01*
X12159766Y-16951324D02*
X12150242Y-16932276D01*
X12150242Y-16932276D02*
X12150242Y-16856086D01*
X12150242Y-16856086D02*
X12159766Y-16837038D01*
X12159766Y-16837038D02*
X12178813Y-16827514D01*
X12178813Y-16827514D02*
X12216909Y-16827514D01*
X12216909Y-16827514D02*
X12235956Y-16837038D01*
X12235956Y-16837038D02*
X12245480Y-16856086D01*
X12245480Y-16856086D02*
X12245480Y-16875134D01*
X12245480Y-16875134D02*
X12150242Y-16894181D01*
X12321670Y-16951324D02*
X12340718Y-16960848D01*
X12340718Y-16960848D02*
X12378813Y-16960848D01*
X12378813Y-16960848D02*
X12397861Y-16951324D01*
X12397861Y-16951324D02*
X12407385Y-16932276D01*
X12407385Y-16932276D02*
X12407385Y-16922753D01*
X12407385Y-16922753D02*
X12397861Y-16903705D01*
X12397861Y-16903705D02*
X12378813Y-16894181D01*
X12378813Y-16894181D02*
X12350242Y-16894181D01*
X12350242Y-16894181D02*
X12331194Y-16884657D01*
X12331194Y-16884657D02*
X12321670Y-16865610D01*
X12321670Y-16865610D02*
X12321670Y-16856086D01*
X12321670Y-16856086D02*
X12331194Y-16837038D01*
X12331194Y-16837038D02*
X12350242Y-16827514D01*
X12350242Y-16827514D02*
X12378813Y-16827514D01*
X12378813Y-16827514D02*
X12397861Y-16837038D01*
X12474051Y-17037038D02*
X12483575Y-17027514D01*
X12483575Y-17027514D02*
X12502623Y-16998943D01*
X12502623Y-16998943D02*
X12512147Y-16979895D01*
X12512147Y-16979895D02*
X12521670Y-16951324D01*
X12521670Y-16951324D02*
X12531194Y-16903705D01*
X12531194Y-16903705D02*
X12531194Y-16865610D01*
X12531194Y-16865610D02*
X12521670Y-16817991D01*
X12521670Y-16817991D02*
X12512147Y-16789419D01*
X12512147Y-16789419D02*
X12502623Y-16770372D01*
X12502623Y-16770372D02*
X12483575Y-16741800D01*
X12483575Y-16741800D02*
X12474051Y-16732276D01*
D11*
X7283036Y-17098364D02*
X7283036Y-17168364D01*
X7248036Y-17133364D02*
X7318036Y-17133364D01*
D10*
X7616908Y-17024848D02*
X7635956Y-17024848D01*
X7635956Y-17024848D02*
X7655003Y-17034372D01*
X7655003Y-17034372D02*
X7664527Y-17043895D01*
X7664527Y-17043895D02*
X7674051Y-17062943D01*
X7674051Y-17062943D02*
X7683575Y-17101038D01*
X7683575Y-17101038D02*
X7683575Y-17148657D01*
X7683575Y-17148657D02*
X7674051Y-17186753D01*
X7674051Y-17186753D02*
X7664527Y-17205800D01*
X7664527Y-17205800D02*
X7655003Y-17215324D01*
X7655003Y-17215324D02*
X7635956Y-17224848D01*
X7635956Y-17224848D02*
X7616908Y-17224848D01*
X7616908Y-17224848D02*
X7597860Y-17215324D01*
X7597860Y-17215324D02*
X7588337Y-17205800D01*
X7588337Y-17205800D02*
X7578813Y-17186753D01*
X7578813Y-17186753D02*
X7569289Y-17148657D01*
X7569289Y-17148657D02*
X7569289Y-17101038D01*
X7569289Y-17101038D02*
X7578813Y-17062943D01*
X7578813Y-17062943D02*
X7588337Y-17043895D01*
X7588337Y-17043895D02*
X7597860Y-17034372D01*
X7597860Y-17034372D02*
X7616908Y-17024848D01*
X7769289Y-17205800D02*
X7778813Y-17215324D01*
X7778813Y-17215324D02*
X7769289Y-17224848D01*
X7769289Y-17224848D02*
X7759765Y-17215324D01*
X7759765Y-17215324D02*
X7769289Y-17205800D01*
X7769289Y-17205800D02*
X7769289Y-17224848D01*
X7845480Y-17024848D02*
X7978813Y-17024848D01*
X7978813Y-17024848D02*
X7893099Y-17224848D01*
X8093099Y-17024848D02*
X8112146Y-17024848D01*
X8112146Y-17024848D02*
X8131194Y-17034372D01*
X8131194Y-17034372D02*
X8140718Y-17043895D01*
X8140718Y-17043895D02*
X8150241Y-17062943D01*
X8150241Y-17062943D02*
X8159765Y-17101038D01*
X8159765Y-17101038D02*
X8159765Y-17148657D01*
X8159765Y-17148657D02*
X8150241Y-17186753D01*
X8150241Y-17186753D02*
X8140718Y-17205800D01*
X8140718Y-17205800D02*
X8131194Y-17215324D01*
X8131194Y-17215324D02*
X8112146Y-17224848D01*
X8112146Y-17224848D02*
X8093099Y-17224848D01*
X8093099Y-17224848D02*
X8074051Y-17215324D01*
X8074051Y-17215324D02*
X8064527Y-17205800D01*
X8064527Y-17205800D02*
X8055003Y-17186753D01*
X8055003Y-17186753D02*
X8045480Y-17148657D01*
X8045480Y-17148657D02*
X8045480Y-17101038D01*
X8045480Y-17101038D02*
X8055003Y-17062943D01*
X8055003Y-17062943D02*
X8064527Y-17043895D01*
X8064527Y-17043895D02*
X8074051Y-17034372D01*
X8074051Y-17034372D02*
X8093099Y-17024848D01*
X8283575Y-17024848D02*
X8302622Y-17024848D01*
X8302622Y-17024848D02*
X8321670Y-17034372D01*
X8321670Y-17034372D02*
X8331194Y-17043895D01*
X8331194Y-17043895D02*
X8340718Y-17062943D01*
X8340718Y-17062943D02*
X8350241Y-17101038D01*
X8350241Y-17101038D02*
X8350241Y-17148657D01*
X8350241Y-17148657D02*
X8340718Y-17186753D01*
X8340718Y-17186753D02*
X8331194Y-17205800D01*
X8331194Y-17205800D02*
X8321670Y-17215324D01*
X8321670Y-17215324D02*
X8302622Y-17224848D01*
X8302622Y-17224848D02*
X8283575Y-17224848D01*
X8283575Y-17224848D02*
X8264527Y-17215324D01*
X8264527Y-17215324D02*
X8255003Y-17205800D01*
X8255003Y-17205800D02*
X8245480Y-17186753D01*
X8245480Y-17186753D02*
X8235956Y-17148657D01*
X8235956Y-17148657D02*
X8235956Y-17101038D01*
X8235956Y-17101038D02*
X8245480Y-17062943D01*
X8245480Y-17062943D02*
X8255003Y-17043895D01*
X8255003Y-17043895D02*
X8264527Y-17034372D01*
X8264527Y-17034372D02*
X8283575Y-17024848D01*
X8435956Y-17224848D02*
X8435956Y-17091514D01*
X8435956Y-17110562D02*
X8445480Y-17101038D01*
X8445480Y-17101038D02*
X8464527Y-17091514D01*
X8464527Y-17091514D02*
X8493099Y-17091514D01*
X8493099Y-17091514D02*
X8512146Y-17101038D01*
X8512146Y-17101038D02*
X8521670Y-17120086D01*
X8521670Y-17120086D02*
X8521670Y-17224848D01*
X8521670Y-17120086D02*
X8531194Y-17101038D01*
X8531194Y-17101038D02*
X8550242Y-17091514D01*
X8550242Y-17091514D02*
X8578813Y-17091514D01*
X8578813Y-17091514D02*
X8597861Y-17101038D01*
X8597861Y-17101038D02*
X8607384Y-17120086D01*
X8607384Y-17120086D02*
X8607384Y-17224848D01*
X8702623Y-17224848D02*
X8702623Y-17091514D01*
X8702623Y-17110562D02*
X8712146Y-17101038D01*
X8712146Y-17101038D02*
X8731194Y-17091514D01*
X8731194Y-17091514D02*
X8759765Y-17091514D01*
X8759765Y-17091514D02*
X8778813Y-17101038D01*
X8778813Y-17101038D02*
X8788337Y-17120086D01*
X8788337Y-17120086D02*
X8788337Y-17224848D01*
X8788337Y-17120086D02*
X8797861Y-17101038D01*
X8797861Y-17101038D02*
X8816908Y-17091514D01*
X8816908Y-17091514D02*
X8845480Y-17091514D01*
X8845480Y-17091514D02*
X8864527Y-17101038D01*
X8864527Y-17101038D02*
X8874051Y-17120086D01*
X8874051Y-17120086D02*
X8874051Y-17224848D01*
X9264527Y-17015324D02*
X9093099Y-17272467D01*
X9521670Y-17024848D02*
X9540718Y-17024848D01*
X9540718Y-17024848D02*
X9559766Y-17034372D01*
X9559766Y-17034372D02*
X9569289Y-17043895D01*
X9569289Y-17043895D02*
X9578813Y-17062943D01*
X9578813Y-17062943D02*
X9588337Y-17101038D01*
X9588337Y-17101038D02*
X9588337Y-17148657D01*
X9588337Y-17148657D02*
X9578813Y-17186753D01*
X9578813Y-17186753D02*
X9569289Y-17205800D01*
X9569289Y-17205800D02*
X9559766Y-17215324D01*
X9559766Y-17215324D02*
X9540718Y-17224848D01*
X9540718Y-17224848D02*
X9521670Y-17224848D01*
X9521670Y-17224848D02*
X9502623Y-17215324D01*
X9502623Y-17215324D02*
X9493099Y-17205800D01*
X9493099Y-17205800D02*
X9483575Y-17186753D01*
X9483575Y-17186753D02*
X9474051Y-17148657D01*
X9474051Y-17148657D02*
X9474051Y-17101038D01*
X9474051Y-17101038D02*
X9483575Y-17062943D01*
X9483575Y-17062943D02*
X9493099Y-17043895D01*
X9493099Y-17043895D02*
X9502623Y-17034372D01*
X9502623Y-17034372D02*
X9521670Y-17024848D01*
X9674051Y-17205800D02*
X9683575Y-17215324D01*
X9683575Y-17215324D02*
X9674051Y-17224848D01*
X9674051Y-17224848D02*
X9664527Y-17215324D01*
X9664527Y-17215324D02*
X9674051Y-17205800D01*
X9674051Y-17205800D02*
X9674051Y-17224848D01*
X9807385Y-17024848D02*
X9826432Y-17024848D01*
X9826432Y-17024848D02*
X9845480Y-17034372D01*
X9845480Y-17034372D02*
X9855004Y-17043895D01*
X9855004Y-17043895D02*
X9864527Y-17062943D01*
X9864527Y-17062943D02*
X9874051Y-17101038D01*
X9874051Y-17101038D02*
X9874051Y-17148657D01*
X9874051Y-17148657D02*
X9864527Y-17186753D01*
X9864527Y-17186753D02*
X9855004Y-17205800D01*
X9855004Y-17205800D02*
X9845480Y-17215324D01*
X9845480Y-17215324D02*
X9826432Y-17224848D01*
X9826432Y-17224848D02*
X9807385Y-17224848D01*
X9807385Y-17224848D02*
X9788337Y-17215324D01*
X9788337Y-17215324D02*
X9778813Y-17205800D01*
X9778813Y-17205800D02*
X9769289Y-17186753D01*
X9769289Y-17186753D02*
X9759766Y-17148657D01*
X9759766Y-17148657D02*
X9759766Y-17101038D01*
X9759766Y-17101038D02*
X9769289Y-17062943D01*
X9769289Y-17062943D02*
X9778813Y-17043895D01*
X9778813Y-17043895D02*
X9788337Y-17034372D01*
X9788337Y-17034372D02*
X9807385Y-17024848D01*
X9950242Y-17043895D02*
X9959766Y-17034372D01*
X9959766Y-17034372D02*
X9978813Y-17024848D01*
X9978813Y-17024848D02*
X10026432Y-17024848D01*
X10026432Y-17024848D02*
X10045480Y-17034372D01*
X10045480Y-17034372D02*
X10055004Y-17043895D01*
X10055004Y-17043895D02*
X10064527Y-17062943D01*
X10064527Y-17062943D02*
X10064527Y-17081991D01*
X10064527Y-17081991D02*
X10055004Y-17110562D01*
X10055004Y-17110562D02*
X9940718Y-17224848D01*
X9940718Y-17224848D02*
X10064527Y-17224848D01*
X10131194Y-17024848D02*
X10264527Y-17024848D01*
X10264527Y-17024848D02*
X10178813Y-17224848D01*
X10426432Y-17024848D02*
X10388337Y-17024848D01*
X10388337Y-17024848D02*
X10369289Y-17034372D01*
X10369289Y-17034372D02*
X10359766Y-17043895D01*
X10359766Y-17043895D02*
X10340718Y-17072467D01*
X10340718Y-17072467D02*
X10331194Y-17110562D01*
X10331194Y-17110562D02*
X10331194Y-17186753D01*
X10331194Y-17186753D02*
X10340718Y-17205800D01*
X10340718Y-17205800D02*
X10350242Y-17215324D01*
X10350242Y-17215324D02*
X10369289Y-17224848D01*
X10369289Y-17224848D02*
X10407385Y-17224848D01*
X10407385Y-17224848D02*
X10426432Y-17215324D01*
X10426432Y-17215324D02*
X10435956Y-17205800D01*
X10435956Y-17205800D02*
X10445480Y-17186753D01*
X10445480Y-17186753D02*
X10445480Y-17139134D01*
X10445480Y-17139134D02*
X10435956Y-17120086D01*
X10435956Y-17120086D02*
X10426432Y-17110562D01*
X10426432Y-17110562D02*
X10407385Y-17101038D01*
X10407385Y-17101038D02*
X10369289Y-17101038D01*
X10369289Y-17101038D02*
X10350242Y-17110562D01*
X10350242Y-17110562D02*
X10340718Y-17120086D01*
X10340718Y-17120086D02*
X10331194Y-17139134D01*
X10521670Y-17024848D02*
X10521670Y-17062943D01*
X10597861Y-17024848D02*
X10597861Y-17062943D01*
X10893099Y-17301038D02*
X10883575Y-17291514D01*
X10883575Y-17291514D02*
X10864528Y-17262943D01*
X10864528Y-17262943D02*
X10855004Y-17243895D01*
X10855004Y-17243895D02*
X10845480Y-17215324D01*
X10845480Y-17215324D02*
X10835956Y-17167705D01*
X10835956Y-17167705D02*
X10835956Y-17129610D01*
X10835956Y-17129610D02*
X10845480Y-17081991D01*
X10845480Y-17081991D02*
X10855004Y-17053419D01*
X10855004Y-17053419D02*
X10864528Y-17034372D01*
X10864528Y-17034372D02*
X10883575Y-17005800D01*
X10883575Y-17005800D02*
X10893099Y-16996276D01*
X11055004Y-17091514D02*
X11055004Y-17224848D01*
X11007385Y-17015324D02*
X10959766Y-17158181D01*
X10959766Y-17158181D02*
X11083575Y-17158181D01*
X11312147Y-17224848D02*
X11312147Y-17024848D01*
X11397861Y-17224848D02*
X11397861Y-17120086D01*
X11397861Y-17120086D02*
X11388337Y-17101038D01*
X11388337Y-17101038D02*
X11369289Y-17091514D01*
X11369289Y-17091514D02*
X11340718Y-17091514D01*
X11340718Y-17091514D02*
X11321670Y-17101038D01*
X11321670Y-17101038D02*
X11312147Y-17110562D01*
X11521670Y-17224848D02*
X11502623Y-17215324D01*
X11502623Y-17215324D02*
X11493099Y-17205800D01*
X11493099Y-17205800D02*
X11483575Y-17186753D01*
X11483575Y-17186753D02*
X11483575Y-17129610D01*
X11483575Y-17129610D02*
X11493099Y-17110562D01*
X11493099Y-17110562D02*
X11502623Y-17101038D01*
X11502623Y-17101038D02*
X11521670Y-17091514D01*
X11521670Y-17091514D02*
X11550242Y-17091514D01*
X11550242Y-17091514D02*
X11569289Y-17101038D01*
X11569289Y-17101038D02*
X11578813Y-17110562D01*
X11578813Y-17110562D02*
X11588337Y-17129610D01*
X11588337Y-17129610D02*
X11588337Y-17186753D01*
X11588337Y-17186753D02*
X11578813Y-17205800D01*
X11578813Y-17205800D02*
X11569289Y-17215324D01*
X11569289Y-17215324D02*
X11550242Y-17224848D01*
X11550242Y-17224848D02*
X11521670Y-17224848D01*
X11702623Y-17224848D02*
X11683575Y-17215324D01*
X11683575Y-17215324D02*
X11674051Y-17196276D01*
X11674051Y-17196276D02*
X11674051Y-17024848D01*
X11855004Y-17215324D02*
X11835956Y-17224848D01*
X11835956Y-17224848D02*
X11797861Y-17224848D01*
X11797861Y-17224848D02*
X11778813Y-17215324D01*
X11778813Y-17215324D02*
X11769289Y-17196276D01*
X11769289Y-17196276D02*
X11769289Y-17120086D01*
X11769289Y-17120086D02*
X11778813Y-17101038D01*
X11778813Y-17101038D02*
X11797861Y-17091514D01*
X11797861Y-17091514D02*
X11835956Y-17091514D01*
X11835956Y-17091514D02*
X11855004Y-17101038D01*
X11855004Y-17101038D02*
X11864528Y-17120086D01*
X11864528Y-17120086D02*
X11864528Y-17139134D01*
X11864528Y-17139134D02*
X11769289Y-17158181D01*
X11940718Y-17215324D02*
X11959766Y-17224848D01*
X11959766Y-17224848D02*
X11997861Y-17224848D01*
X11997861Y-17224848D02*
X12016909Y-17215324D01*
X12016909Y-17215324D02*
X12026432Y-17196276D01*
X12026432Y-17196276D02*
X12026432Y-17186753D01*
X12026432Y-17186753D02*
X12016909Y-17167705D01*
X12016909Y-17167705D02*
X11997861Y-17158181D01*
X11997861Y-17158181D02*
X11969289Y-17158181D01*
X11969289Y-17158181D02*
X11950242Y-17148657D01*
X11950242Y-17148657D02*
X11940718Y-17129610D01*
X11940718Y-17129610D02*
X11940718Y-17120086D01*
X11940718Y-17120086D02*
X11950242Y-17101038D01*
X11950242Y-17101038D02*
X11969289Y-17091514D01*
X11969289Y-17091514D02*
X11997861Y-17091514D01*
X11997861Y-17091514D02*
X12016909Y-17101038D01*
X12093099Y-17301038D02*
X12102623Y-17291514D01*
X12102623Y-17291514D02*
X12121670Y-17262943D01*
X12121670Y-17262943D02*
X12131194Y-17243895D01*
X12131194Y-17243895D02*
X12140718Y-17215324D01*
X12140718Y-17215324D02*
X12150242Y-17167705D01*
X12150242Y-17167705D02*
X12150242Y-17129610D01*
X12150242Y-17129610D02*
X12140718Y-17081991D01*
X12140718Y-17081991D02*
X12131194Y-17053419D01*
X12131194Y-17053419D02*
X12121670Y-17034372D01*
X12121670Y-17034372D02*
X12102623Y-17005800D01*
X12102623Y-17005800D02*
X12093099Y-16996276D01*
D11*
X7306321Y-17425649D02*
X7306321Y-17369080D01*
X7249752Y-17369080D01*
X7249752Y-17425649D01*
X7306321Y-17425649D01*
D10*
X7616908Y-17288848D02*
X7635956Y-17288848D01*
X7635956Y-17288848D02*
X7655003Y-17298372D01*
X7655003Y-17298372D02*
X7664527Y-17307895D01*
X7664527Y-17307895D02*
X7674051Y-17326943D01*
X7674051Y-17326943D02*
X7683575Y-17365038D01*
X7683575Y-17365038D02*
X7683575Y-17412657D01*
X7683575Y-17412657D02*
X7674051Y-17450753D01*
X7674051Y-17450753D02*
X7664527Y-17469800D01*
X7664527Y-17469800D02*
X7655003Y-17479324D01*
X7655003Y-17479324D02*
X7635956Y-17488848D01*
X7635956Y-17488848D02*
X7616908Y-17488848D01*
X7616908Y-17488848D02*
X7597860Y-17479324D01*
X7597860Y-17479324D02*
X7588337Y-17469800D01*
X7588337Y-17469800D02*
X7578813Y-17450753D01*
X7578813Y-17450753D02*
X7569289Y-17412657D01*
X7569289Y-17412657D02*
X7569289Y-17365038D01*
X7569289Y-17365038D02*
X7578813Y-17326943D01*
X7578813Y-17326943D02*
X7588337Y-17307895D01*
X7588337Y-17307895D02*
X7597860Y-17298372D01*
X7597860Y-17298372D02*
X7616908Y-17288848D01*
X7769289Y-17469800D02*
X7778813Y-17479324D01*
X7778813Y-17479324D02*
X7769289Y-17488848D01*
X7769289Y-17488848D02*
X7759765Y-17479324D01*
X7759765Y-17479324D02*
X7769289Y-17469800D01*
X7769289Y-17469800D02*
X7769289Y-17488848D01*
X7893099Y-17374562D02*
X7874051Y-17365038D01*
X7874051Y-17365038D02*
X7864527Y-17355514D01*
X7864527Y-17355514D02*
X7855003Y-17336467D01*
X7855003Y-17336467D02*
X7855003Y-17326943D01*
X7855003Y-17326943D02*
X7864527Y-17307895D01*
X7864527Y-17307895D02*
X7874051Y-17298372D01*
X7874051Y-17298372D02*
X7893099Y-17288848D01*
X7893099Y-17288848D02*
X7931194Y-17288848D01*
X7931194Y-17288848D02*
X7950241Y-17298372D01*
X7950241Y-17298372D02*
X7959765Y-17307895D01*
X7959765Y-17307895D02*
X7969289Y-17326943D01*
X7969289Y-17326943D02*
X7969289Y-17336467D01*
X7969289Y-17336467D02*
X7959765Y-17355514D01*
X7959765Y-17355514D02*
X7950241Y-17365038D01*
X7950241Y-17365038D02*
X7931194Y-17374562D01*
X7931194Y-17374562D02*
X7893099Y-17374562D01*
X7893099Y-17374562D02*
X7874051Y-17384086D01*
X7874051Y-17384086D02*
X7864527Y-17393610D01*
X7864527Y-17393610D02*
X7855003Y-17412657D01*
X7855003Y-17412657D02*
X7855003Y-17450753D01*
X7855003Y-17450753D02*
X7864527Y-17469800D01*
X7864527Y-17469800D02*
X7874051Y-17479324D01*
X7874051Y-17479324D02*
X7893099Y-17488848D01*
X7893099Y-17488848D02*
X7931194Y-17488848D01*
X7931194Y-17488848D02*
X7950241Y-17479324D01*
X7950241Y-17479324D02*
X7959765Y-17469800D01*
X7959765Y-17469800D02*
X7969289Y-17450753D01*
X7969289Y-17450753D02*
X7969289Y-17412657D01*
X7969289Y-17412657D02*
X7959765Y-17393610D01*
X7959765Y-17393610D02*
X7950241Y-17384086D01*
X7950241Y-17384086D02*
X7931194Y-17374562D01*
X8093099Y-17288848D02*
X8112146Y-17288848D01*
X8112146Y-17288848D02*
X8131194Y-17298372D01*
X8131194Y-17298372D02*
X8140718Y-17307895D01*
X8140718Y-17307895D02*
X8150241Y-17326943D01*
X8150241Y-17326943D02*
X8159765Y-17365038D01*
X8159765Y-17365038D02*
X8159765Y-17412657D01*
X8159765Y-17412657D02*
X8150241Y-17450753D01*
X8150241Y-17450753D02*
X8140718Y-17469800D01*
X8140718Y-17469800D02*
X8131194Y-17479324D01*
X8131194Y-17479324D02*
X8112146Y-17488848D01*
X8112146Y-17488848D02*
X8093099Y-17488848D01*
X8093099Y-17488848D02*
X8074051Y-17479324D01*
X8074051Y-17479324D02*
X8064527Y-17469800D01*
X8064527Y-17469800D02*
X8055003Y-17450753D01*
X8055003Y-17450753D02*
X8045480Y-17412657D01*
X8045480Y-17412657D02*
X8045480Y-17365038D01*
X8045480Y-17365038D02*
X8055003Y-17326943D01*
X8055003Y-17326943D02*
X8064527Y-17307895D01*
X8064527Y-17307895D02*
X8074051Y-17298372D01*
X8074051Y-17298372D02*
X8093099Y-17288848D01*
X8283575Y-17288848D02*
X8302622Y-17288848D01*
X8302622Y-17288848D02*
X8321670Y-17298372D01*
X8321670Y-17298372D02*
X8331194Y-17307895D01*
X8331194Y-17307895D02*
X8340718Y-17326943D01*
X8340718Y-17326943D02*
X8350241Y-17365038D01*
X8350241Y-17365038D02*
X8350241Y-17412657D01*
X8350241Y-17412657D02*
X8340718Y-17450753D01*
X8340718Y-17450753D02*
X8331194Y-17469800D01*
X8331194Y-17469800D02*
X8321670Y-17479324D01*
X8321670Y-17479324D02*
X8302622Y-17488848D01*
X8302622Y-17488848D02*
X8283575Y-17488848D01*
X8283575Y-17488848D02*
X8264527Y-17479324D01*
X8264527Y-17479324D02*
X8255003Y-17469800D01*
X8255003Y-17469800D02*
X8245480Y-17450753D01*
X8245480Y-17450753D02*
X8235956Y-17412657D01*
X8235956Y-17412657D02*
X8235956Y-17365038D01*
X8235956Y-17365038D02*
X8245480Y-17326943D01*
X8245480Y-17326943D02*
X8255003Y-17307895D01*
X8255003Y-17307895D02*
X8264527Y-17298372D01*
X8264527Y-17298372D02*
X8283575Y-17288848D01*
X8435956Y-17488848D02*
X8435956Y-17355514D01*
X8435956Y-17374562D02*
X8445480Y-17365038D01*
X8445480Y-17365038D02*
X8464527Y-17355514D01*
X8464527Y-17355514D02*
X8493099Y-17355514D01*
X8493099Y-17355514D02*
X8512146Y-17365038D01*
X8512146Y-17365038D02*
X8521670Y-17384086D01*
X8521670Y-17384086D02*
X8521670Y-17488848D01*
X8521670Y-17384086D02*
X8531194Y-17365038D01*
X8531194Y-17365038D02*
X8550242Y-17355514D01*
X8550242Y-17355514D02*
X8578813Y-17355514D01*
X8578813Y-17355514D02*
X8597861Y-17365038D01*
X8597861Y-17365038D02*
X8607384Y-17384086D01*
X8607384Y-17384086D02*
X8607384Y-17488848D01*
X8702623Y-17488848D02*
X8702623Y-17355514D01*
X8702623Y-17374562D02*
X8712146Y-17365038D01*
X8712146Y-17365038D02*
X8731194Y-17355514D01*
X8731194Y-17355514D02*
X8759765Y-17355514D01*
X8759765Y-17355514D02*
X8778813Y-17365038D01*
X8778813Y-17365038D02*
X8788337Y-17384086D01*
X8788337Y-17384086D02*
X8788337Y-17488848D01*
X8788337Y-17384086D02*
X8797861Y-17365038D01*
X8797861Y-17365038D02*
X8816908Y-17355514D01*
X8816908Y-17355514D02*
X8845480Y-17355514D01*
X8845480Y-17355514D02*
X8864527Y-17365038D01*
X8864527Y-17365038D02*
X8874051Y-17384086D01*
X8874051Y-17384086D02*
X8874051Y-17488848D01*
X9264527Y-17279324D02*
X9093099Y-17536467D01*
X9521670Y-17288848D02*
X9540718Y-17288848D01*
X9540718Y-17288848D02*
X9559766Y-17298372D01*
X9559766Y-17298372D02*
X9569289Y-17307895D01*
X9569289Y-17307895D02*
X9578813Y-17326943D01*
X9578813Y-17326943D02*
X9588337Y-17365038D01*
X9588337Y-17365038D02*
X9588337Y-17412657D01*
X9588337Y-17412657D02*
X9578813Y-17450753D01*
X9578813Y-17450753D02*
X9569289Y-17469800D01*
X9569289Y-17469800D02*
X9559766Y-17479324D01*
X9559766Y-17479324D02*
X9540718Y-17488848D01*
X9540718Y-17488848D02*
X9521670Y-17488848D01*
X9521670Y-17488848D02*
X9502623Y-17479324D01*
X9502623Y-17479324D02*
X9493099Y-17469800D01*
X9493099Y-17469800D02*
X9483575Y-17450753D01*
X9483575Y-17450753D02*
X9474051Y-17412657D01*
X9474051Y-17412657D02*
X9474051Y-17365038D01*
X9474051Y-17365038D02*
X9483575Y-17326943D01*
X9483575Y-17326943D02*
X9493099Y-17307895D01*
X9493099Y-17307895D02*
X9502623Y-17298372D01*
X9502623Y-17298372D02*
X9521670Y-17288848D01*
X9674051Y-17469800D02*
X9683575Y-17479324D01*
X9683575Y-17479324D02*
X9674051Y-17488848D01*
X9674051Y-17488848D02*
X9664527Y-17479324D01*
X9664527Y-17479324D02*
X9674051Y-17469800D01*
X9674051Y-17469800D02*
X9674051Y-17488848D01*
X9807385Y-17288848D02*
X9826432Y-17288848D01*
X9826432Y-17288848D02*
X9845480Y-17298372D01*
X9845480Y-17298372D02*
X9855004Y-17307895D01*
X9855004Y-17307895D02*
X9864527Y-17326943D01*
X9864527Y-17326943D02*
X9874051Y-17365038D01*
X9874051Y-17365038D02*
X9874051Y-17412657D01*
X9874051Y-17412657D02*
X9864527Y-17450753D01*
X9864527Y-17450753D02*
X9855004Y-17469800D01*
X9855004Y-17469800D02*
X9845480Y-17479324D01*
X9845480Y-17479324D02*
X9826432Y-17488848D01*
X9826432Y-17488848D02*
X9807385Y-17488848D01*
X9807385Y-17488848D02*
X9788337Y-17479324D01*
X9788337Y-17479324D02*
X9778813Y-17469800D01*
X9778813Y-17469800D02*
X9769289Y-17450753D01*
X9769289Y-17450753D02*
X9759766Y-17412657D01*
X9759766Y-17412657D02*
X9759766Y-17365038D01*
X9759766Y-17365038D02*
X9769289Y-17326943D01*
X9769289Y-17326943D02*
X9778813Y-17307895D01*
X9778813Y-17307895D02*
X9788337Y-17298372D01*
X9788337Y-17298372D02*
X9807385Y-17288848D01*
X9940718Y-17288848D02*
X10064527Y-17288848D01*
X10064527Y-17288848D02*
X9997861Y-17365038D01*
X9997861Y-17365038D02*
X10026432Y-17365038D01*
X10026432Y-17365038D02*
X10045480Y-17374562D01*
X10045480Y-17374562D02*
X10055004Y-17384086D01*
X10055004Y-17384086D02*
X10064527Y-17403134D01*
X10064527Y-17403134D02*
X10064527Y-17450753D01*
X10064527Y-17450753D02*
X10055004Y-17469800D01*
X10055004Y-17469800D02*
X10045480Y-17479324D01*
X10045480Y-17479324D02*
X10026432Y-17488848D01*
X10026432Y-17488848D02*
X9969289Y-17488848D01*
X9969289Y-17488848D02*
X9950242Y-17479324D01*
X9950242Y-17479324D02*
X9940718Y-17469800D01*
X10255004Y-17488848D02*
X10140718Y-17488848D01*
X10197861Y-17488848D02*
X10197861Y-17288848D01*
X10197861Y-17288848D02*
X10178813Y-17317419D01*
X10178813Y-17317419D02*
X10159766Y-17336467D01*
X10159766Y-17336467D02*
X10140718Y-17345991D01*
X10435956Y-17288848D02*
X10340718Y-17288848D01*
X10340718Y-17288848D02*
X10331194Y-17384086D01*
X10331194Y-17384086D02*
X10340718Y-17374562D01*
X10340718Y-17374562D02*
X10359766Y-17365038D01*
X10359766Y-17365038D02*
X10407385Y-17365038D01*
X10407385Y-17365038D02*
X10426432Y-17374562D01*
X10426432Y-17374562D02*
X10435956Y-17384086D01*
X10435956Y-17384086D02*
X10445480Y-17403134D01*
X10445480Y-17403134D02*
X10445480Y-17450753D01*
X10445480Y-17450753D02*
X10435956Y-17469800D01*
X10435956Y-17469800D02*
X10426432Y-17479324D01*
X10426432Y-17479324D02*
X10407385Y-17488848D01*
X10407385Y-17488848D02*
X10359766Y-17488848D01*
X10359766Y-17488848D02*
X10340718Y-17479324D01*
X10340718Y-17479324D02*
X10331194Y-17469800D01*
X10521670Y-17288848D02*
X10521670Y-17326943D01*
X10597861Y-17288848D02*
X10597861Y-17326943D01*
X10893099Y-17565038D02*
X10883575Y-17555514D01*
X10883575Y-17555514D02*
X10864528Y-17526943D01*
X10864528Y-17526943D02*
X10855004Y-17507895D01*
X10855004Y-17507895D02*
X10845480Y-17479324D01*
X10845480Y-17479324D02*
X10835956Y-17431705D01*
X10835956Y-17431705D02*
X10835956Y-17393610D01*
X10835956Y-17393610D02*
X10845480Y-17345991D01*
X10845480Y-17345991D02*
X10855004Y-17317419D01*
X10855004Y-17317419D02*
X10864528Y-17298372D01*
X10864528Y-17298372D02*
X10883575Y-17269800D01*
X10883575Y-17269800D02*
X10893099Y-17260276D01*
X11055004Y-17355514D02*
X11055004Y-17488848D01*
X11007385Y-17279324D02*
X10959766Y-17422181D01*
X10959766Y-17422181D02*
X11083575Y-17422181D01*
X11312147Y-17488848D02*
X11312147Y-17288848D01*
X11397861Y-17488848D02*
X11397861Y-17384086D01*
X11397861Y-17384086D02*
X11388337Y-17365038D01*
X11388337Y-17365038D02*
X11369289Y-17355514D01*
X11369289Y-17355514D02*
X11340718Y-17355514D01*
X11340718Y-17355514D02*
X11321670Y-17365038D01*
X11321670Y-17365038D02*
X11312147Y-17374562D01*
X11521670Y-17488848D02*
X11502623Y-17479324D01*
X11502623Y-17479324D02*
X11493099Y-17469800D01*
X11493099Y-17469800D02*
X11483575Y-17450753D01*
X11483575Y-17450753D02*
X11483575Y-17393610D01*
X11483575Y-17393610D02*
X11493099Y-17374562D01*
X11493099Y-17374562D02*
X11502623Y-17365038D01*
X11502623Y-17365038D02*
X11521670Y-17355514D01*
X11521670Y-17355514D02*
X11550242Y-17355514D01*
X11550242Y-17355514D02*
X11569289Y-17365038D01*
X11569289Y-17365038D02*
X11578813Y-17374562D01*
X11578813Y-17374562D02*
X11588337Y-17393610D01*
X11588337Y-17393610D02*
X11588337Y-17450753D01*
X11588337Y-17450753D02*
X11578813Y-17469800D01*
X11578813Y-17469800D02*
X11569289Y-17479324D01*
X11569289Y-17479324D02*
X11550242Y-17488848D01*
X11550242Y-17488848D02*
X11521670Y-17488848D01*
X11702623Y-17488848D02*
X11683575Y-17479324D01*
X11683575Y-17479324D02*
X11674051Y-17460276D01*
X11674051Y-17460276D02*
X11674051Y-17288848D01*
X11855004Y-17479324D02*
X11835956Y-17488848D01*
X11835956Y-17488848D02*
X11797861Y-17488848D01*
X11797861Y-17488848D02*
X11778813Y-17479324D01*
X11778813Y-17479324D02*
X11769289Y-17460276D01*
X11769289Y-17460276D02*
X11769289Y-17384086D01*
X11769289Y-17384086D02*
X11778813Y-17365038D01*
X11778813Y-17365038D02*
X11797861Y-17355514D01*
X11797861Y-17355514D02*
X11835956Y-17355514D01*
X11835956Y-17355514D02*
X11855004Y-17365038D01*
X11855004Y-17365038D02*
X11864528Y-17384086D01*
X11864528Y-17384086D02*
X11864528Y-17403134D01*
X11864528Y-17403134D02*
X11769289Y-17422181D01*
X11940718Y-17479324D02*
X11959766Y-17488848D01*
X11959766Y-17488848D02*
X11997861Y-17488848D01*
X11997861Y-17488848D02*
X12016909Y-17479324D01*
X12016909Y-17479324D02*
X12026432Y-17460276D01*
X12026432Y-17460276D02*
X12026432Y-17450753D01*
X12026432Y-17450753D02*
X12016909Y-17431705D01*
X12016909Y-17431705D02*
X11997861Y-17422181D01*
X11997861Y-17422181D02*
X11969289Y-17422181D01*
X11969289Y-17422181D02*
X11950242Y-17412657D01*
X11950242Y-17412657D02*
X11940718Y-17393610D01*
X11940718Y-17393610D02*
X11940718Y-17384086D01*
X11940718Y-17384086D02*
X11950242Y-17365038D01*
X11950242Y-17365038D02*
X11969289Y-17355514D01*
X11969289Y-17355514D02*
X11997861Y-17355514D01*
X11997861Y-17355514D02*
X12016909Y-17365038D01*
X12093099Y-17565038D02*
X12102623Y-17555514D01*
X12102623Y-17555514D02*
X12121670Y-17526943D01*
X12121670Y-17526943D02*
X12131194Y-17507895D01*
X12131194Y-17507895D02*
X12140718Y-17479324D01*
X12140718Y-17479324D02*
X12150242Y-17431705D01*
X12150242Y-17431705D02*
X12150242Y-17393610D01*
X12150242Y-17393610D02*
X12140718Y-17345991D01*
X12140718Y-17345991D02*
X12131194Y-17317419D01*
X12131194Y-17317419D02*
X12121670Y-17298372D01*
X12121670Y-17298372D02*
X12102623Y-17269800D01*
X12102623Y-17269800D02*
X12093099Y-17260276D01*
D11*
X7270536Y-17708864D02*
X7318036Y-17661364D01*
X7270536Y-17613864D01*
X7223036Y-17661364D01*
X7270536Y-17708864D01*
D10*
X7616908Y-17552848D02*
X7635956Y-17552848D01*
X7635956Y-17552848D02*
X7655003Y-17562372D01*
X7655003Y-17562372D02*
X7664527Y-17571895D01*
X7664527Y-17571895D02*
X7674051Y-17590943D01*
X7674051Y-17590943D02*
X7683575Y-17629038D01*
X7683575Y-17629038D02*
X7683575Y-17676657D01*
X7683575Y-17676657D02*
X7674051Y-17714753D01*
X7674051Y-17714753D02*
X7664527Y-17733800D01*
X7664527Y-17733800D02*
X7655003Y-17743324D01*
X7655003Y-17743324D02*
X7635956Y-17752848D01*
X7635956Y-17752848D02*
X7616908Y-17752848D01*
X7616908Y-17752848D02*
X7597860Y-17743324D01*
X7597860Y-17743324D02*
X7588337Y-17733800D01*
X7588337Y-17733800D02*
X7578813Y-17714753D01*
X7578813Y-17714753D02*
X7569289Y-17676657D01*
X7569289Y-17676657D02*
X7569289Y-17629038D01*
X7569289Y-17629038D02*
X7578813Y-17590943D01*
X7578813Y-17590943D02*
X7588337Y-17571895D01*
X7588337Y-17571895D02*
X7597860Y-17562372D01*
X7597860Y-17562372D02*
X7616908Y-17552848D01*
X7769289Y-17733800D02*
X7778813Y-17743324D01*
X7778813Y-17743324D02*
X7769289Y-17752848D01*
X7769289Y-17752848D02*
X7759765Y-17743324D01*
X7759765Y-17743324D02*
X7769289Y-17733800D01*
X7769289Y-17733800D02*
X7769289Y-17752848D01*
X7874051Y-17752848D02*
X7912146Y-17752848D01*
X7912146Y-17752848D02*
X7931194Y-17743324D01*
X7931194Y-17743324D02*
X7940718Y-17733800D01*
X7940718Y-17733800D02*
X7959765Y-17705229D01*
X7959765Y-17705229D02*
X7969289Y-17667134D01*
X7969289Y-17667134D02*
X7969289Y-17590943D01*
X7969289Y-17590943D02*
X7959765Y-17571895D01*
X7959765Y-17571895D02*
X7950241Y-17562372D01*
X7950241Y-17562372D02*
X7931194Y-17552848D01*
X7931194Y-17552848D02*
X7893099Y-17552848D01*
X7893099Y-17552848D02*
X7874051Y-17562372D01*
X7874051Y-17562372D02*
X7864527Y-17571895D01*
X7864527Y-17571895D02*
X7855003Y-17590943D01*
X7855003Y-17590943D02*
X7855003Y-17638562D01*
X7855003Y-17638562D02*
X7864527Y-17657610D01*
X7864527Y-17657610D02*
X7874051Y-17667134D01*
X7874051Y-17667134D02*
X7893099Y-17676657D01*
X7893099Y-17676657D02*
X7931194Y-17676657D01*
X7931194Y-17676657D02*
X7950241Y-17667134D01*
X7950241Y-17667134D02*
X7959765Y-17657610D01*
X7959765Y-17657610D02*
X7969289Y-17638562D01*
X8150241Y-17552848D02*
X8055003Y-17552848D01*
X8055003Y-17552848D02*
X8045480Y-17648086D01*
X8045480Y-17648086D02*
X8055003Y-17638562D01*
X8055003Y-17638562D02*
X8074051Y-17629038D01*
X8074051Y-17629038D02*
X8121670Y-17629038D01*
X8121670Y-17629038D02*
X8140718Y-17638562D01*
X8140718Y-17638562D02*
X8150241Y-17648086D01*
X8150241Y-17648086D02*
X8159765Y-17667134D01*
X8159765Y-17667134D02*
X8159765Y-17714753D01*
X8159765Y-17714753D02*
X8150241Y-17733800D01*
X8150241Y-17733800D02*
X8140718Y-17743324D01*
X8140718Y-17743324D02*
X8121670Y-17752848D01*
X8121670Y-17752848D02*
X8074051Y-17752848D01*
X8074051Y-17752848D02*
X8055003Y-17743324D01*
X8055003Y-17743324D02*
X8045480Y-17733800D01*
X8283575Y-17552848D02*
X8302622Y-17552848D01*
X8302622Y-17552848D02*
X8321670Y-17562372D01*
X8321670Y-17562372D02*
X8331194Y-17571895D01*
X8331194Y-17571895D02*
X8340718Y-17590943D01*
X8340718Y-17590943D02*
X8350241Y-17629038D01*
X8350241Y-17629038D02*
X8350241Y-17676657D01*
X8350241Y-17676657D02*
X8340718Y-17714753D01*
X8340718Y-17714753D02*
X8331194Y-17733800D01*
X8331194Y-17733800D02*
X8321670Y-17743324D01*
X8321670Y-17743324D02*
X8302622Y-17752848D01*
X8302622Y-17752848D02*
X8283575Y-17752848D01*
X8283575Y-17752848D02*
X8264527Y-17743324D01*
X8264527Y-17743324D02*
X8255003Y-17733800D01*
X8255003Y-17733800D02*
X8245480Y-17714753D01*
X8245480Y-17714753D02*
X8235956Y-17676657D01*
X8235956Y-17676657D02*
X8235956Y-17629038D01*
X8235956Y-17629038D02*
X8245480Y-17590943D01*
X8245480Y-17590943D02*
X8255003Y-17571895D01*
X8255003Y-17571895D02*
X8264527Y-17562372D01*
X8264527Y-17562372D02*
X8283575Y-17552848D01*
X8435956Y-17752848D02*
X8435956Y-17619514D01*
X8435956Y-17638562D02*
X8445480Y-17629038D01*
X8445480Y-17629038D02*
X8464527Y-17619514D01*
X8464527Y-17619514D02*
X8493099Y-17619514D01*
X8493099Y-17619514D02*
X8512146Y-17629038D01*
X8512146Y-17629038D02*
X8521670Y-17648086D01*
X8521670Y-17648086D02*
X8521670Y-17752848D01*
X8521670Y-17648086D02*
X8531194Y-17629038D01*
X8531194Y-17629038D02*
X8550242Y-17619514D01*
X8550242Y-17619514D02*
X8578813Y-17619514D01*
X8578813Y-17619514D02*
X8597861Y-17629038D01*
X8597861Y-17629038D02*
X8607384Y-17648086D01*
X8607384Y-17648086D02*
X8607384Y-17752848D01*
X8702623Y-17752848D02*
X8702623Y-17619514D01*
X8702623Y-17638562D02*
X8712146Y-17629038D01*
X8712146Y-17629038D02*
X8731194Y-17619514D01*
X8731194Y-17619514D02*
X8759765Y-17619514D01*
X8759765Y-17619514D02*
X8778813Y-17629038D01*
X8778813Y-17629038D02*
X8788337Y-17648086D01*
X8788337Y-17648086D02*
X8788337Y-17752848D01*
X8788337Y-17648086D02*
X8797861Y-17629038D01*
X8797861Y-17629038D02*
X8816908Y-17619514D01*
X8816908Y-17619514D02*
X8845480Y-17619514D01*
X8845480Y-17619514D02*
X8864527Y-17629038D01*
X8864527Y-17629038D02*
X8874051Y-17648086D01*
X8874051Y-17648086D02*
X8874051Y-17752848D01*
X9264527Y-17543324D02*
X9093099Y-17800467D01*
X9521670Y-17552848D02*
X9540718Y-17552848D01*
X9540718Y-17552848D02*
X9559766Y-17562372D01*
X9559766Y-17562372D02*
X9569289Y-17571895D01*
X9569289Y-17571895D02*
X9578813Y-17590943D01*
X9578813Y-17590943D02*
X9588337Y-17629038D01*
X9588337Y-17629038D02*
X9588337Y-17676657D01*
X9588337Y-17676657D02*
X9578813Y-17714753D01*
X9578813Y-17714753D02*
X9569289Y-17733800D01*
X9569289Y-17733800D02*
X9559766Y-17743324D01*
X9559766Y-17743324D02*
X9540718Y-17752848D01*
X9540718Y-17752848D02*
X9521670Y-17752848D01*
X9521670Y-17752848D02*
X9502623Y-17743324D01*
X9502623Y-17743324D02*
X9493099Y-17733800D01*
X9493099Y-17733800D02*
X9483575Y-17714753D01*
X9483575Y-17714753D02*
X9474051Y-17676657D01*
X9474051Y-17676657D02*
X9474051Y-17629038D01*
X9474051Y-17629038D02*
X9483575Y-17590943D01*
X9483575Y-17590943D02*
X9493099Y-17571895D01*
X9493099Y-17571895D02*
X9502623Y-17562372D01*
X9502623Y-17562372D02*
X9521670Y-17552848D01*
X9674051Y-17733800D02*
X9683575Y-17743324D01*
X9683575Y-17743324D02*
X9674051Y-17752848D01*
X9674051Y-17752848D02*
X9664527Y-17743324D01*
X9664527Y-17743324D02*
X9674051Y-17733800D01*
X9674051Y-17733800D02*
X9674051Y-17752848D01*
X9807385Y-17552848D02*
X9826432Y-17552848D01*
X9826432Y-17552848D02*
X9845480Y-17562372D01*
X9845480Y-17562372D02*
X9855004Y-17571895D01*
X9855004Y-17571895D02*
X9864527Y-17590943D01*
X9864527Y-17590943D02*
X9874051Y-17629038D01*
X9874051Y-17629038D02*
X9874051Y-17676657D01*
X9874051Y-17676657D02*
X9864527Y-17714753D01*
X9864527Y-17714753D02*
X9855004Y-17733800D01*
X9855004Y-17733800D02*
X9845480Y-17743324D01*
X9845480Y-17743324D02*
X9826432Y-17752848D01*
X9826432Y-17752848D02*
X9807385Y-17752848D01*
X9807385Y-17752848D02*
X9788337Y-17743324D01*
X9788337Y-17743324D02*
X9778813Y-17733800D01*
X9778813Y-17733800D02*
X9769289Y-17714753D01*
X9769289Y-17714753D02*
X9759766Y-17676657D01*
X9759766Y-17676657D02*
X9759766Y-17629038D01*
X9759766Y-17629038D02*
X9769289Y-17590943D01*
X9769289Y-17590943D02*
X9778813Y-17571895D01*
X9778813Y-17571895D02*
X9788337Y-17562372D01*
X9788337Y-17562372D02*
X9807385Y-17552848D01*
X9940718Y-17552848D02*
X10064527Y-17552848D01*
X10064527Y-17552848D02*
X9997861Y-17629038D01*
X9997861Y-17629038D02*
X10026432Y-17629038D01*
X10026432Y-17629038D02*
X10045480Y-17638562D01*
X10045480Y-17638562D02*
X10055004Y-17648086D01*
X10055004Y-17648086D02*
X10064527Y-17667134D01*
X10064527Y-17667134D02*
X10064527Y-17714753D01*
X10064527Y-17714753D02*
X10055004Y-17733800D01*
X10055004Y-17733800D02*
X10045480Y-17743324D01*
X10045480Y-17743324D02*
X10026432Y-17752848D01*
X10026432Y-17752848D02*
X9969289Y-17752848D01*
X9969289Y-17752848D02*
X9950242Y-17743324D01*
X9950242Y-17743324D02*
X9940718Y-17733800D01*
X10131194Y-17552848D02*
X10264527Y-17552848D01*
X10264527Y-17552848D02*
X10178813Y-17752848D01*
X10426432Y-17619514D02*
X10426432Y-17752848D01*
X10378813Y-17543324D02*
X10331194Y-17686181D01*
X10331194Y-17686181D02*
X10455004Y-17686181D01*
X10521670Y-17552848D02*
X10521670Y-17590943D01*
X10597861Y-17552848D02*
X10597861Y-17590943D01*
X10893099Y-17829038D02*
X10883575Y-17819514D01*
X10883575Y-17819514D02*
X10864528Y-17790943D01*
X10864528Y-17790943D02*
X10855004Y-17771895D01*
X10855004Y-17771895D02*
X10845480Y-17743324D01*
X10845480Y-17743324D02*
X10835956Y-17695705D01*
X10835956Y-17695705D02*
X10835956Y-17657610D01*
X10835956Y-17657610D02*
X10845480Y-17609991D01*
X10845480Y-17609991D02*
X10855004Y-17581419D01*
X10855004Y-17581419D02*
X10864528Y-17562372D01*
X10864528Y-17562372D02*
X10883575Y-17533800D01*
X10883575Y-17533800D02*
X10893099Y-17524276D01*
X11055004Y-17619514D02*
X11055004Y-17752848D01*
X11007385Y-17543324D02*
X10959766Y-17686181D01*
X10959766Y-17686181D02*
X11083575Y-17686181D01*
X11312147Y-17752848D02*
X11312147Y-17552848D01*
X11397861Y-17752848D02*
X11397861Y-17648086D01*
X11397861Y-17648086D02*
X11388337Y-17629038D01*
X11388337Y-17629038D02*
X11369289Y-17619514D01*
X11369289Y-17619514D02*
X11340718Y-17619514D01*
X11340718Y-17619514D02*
X11321670Y-17629038D01*
X11321670Y-17629038D02*
X11312147Y-17638562D01*
X11521670Y-17752848D02*
X11502623Y-17743324D01*
X11502623Y-17743324D02*
X11493099Y-17733800D01*
X11493099Y-17733800D02*
X11483575Y-17714753D01*
X11483575Y-17714753D02*
X11483575Y-17657610D01*
X11483575Y-17657610D02*
X11493099Y-17638562D01*
X11493099Y-17638562D02*
X11502623Y-17629038D01*
X11502623Y-17629038D02*
X11521670Y-17619514D01*
X11521670Y-17619514D02*
X11550242Y-17619514D01*
X11550242Y-17619514D02*
X11569289Y-17629038D01*
X11569289Y-17629038D02*
X11578813Y-17638562D01*
X11578813Y-17638562D02*
X11588337Y-17657610D01*
X11588337Y-17657610D02*
X11588337Y-17714753D01*
X11588337Y-17714753D02*
X11578813Y-17733800D01*
X11578813Y-17733800D02*
X11569289Y-17743324D01*
X11569289Y-17743324D02*
X11550242Y-17752848D01*
X11550242Y-17752848D02*
X11521670Y-17752848D01*
X11702623Y-17752848D02*
X11683575Y-17743324D01*
X11683575Y-17743324D02*
X11674051Y-17724276D01*
X11674051Y-17724276D02*
X11674051Y-17552848D01*
X11855004Y-17743324D02*
X11835956Y-17752848D01*
X11835956Y-17752848D02*
X11797861Y-17752848D01*
X11797861Y-17752848D02*
X11778813Y-17743324D01*
X11778813Y-17743324D02*
X11769289Y-17724276D01*
X11769289Y-17724276D02*
X11769289Y-17648086D01*
X11769289Y-17648086D02*
X11778813Y-17629038D01*
X11778813Y-17629038D02*
X11797861Y-17619514D01*
X11797861Y-17619514D02*
X11835956Y-17619514D01*
X11835956Y-17619514D02*
X11855004Y-17629038D01*
X11855004Y-17629038D02*
X11864528Y-17648086D01*
X11864528Y-17648086D02*
X11864528Y-17667134D01*
X11864528Y-17667134D02*
X11769289Y-17686181D01*
X11940718Y-17743324D02*
X11959766Y-17752848D01*
X11959766Y-17752848D02*
X11997861Y-17752848D01*
X11997861Y-17752848D02*
X12016909Y-17743324D01*
X12016909Y-17743324D02*
X12026432Y-17724276D01*
X12026432Y-17724276D02*
X12026432Y-17714753D01*
X12026432Y-17714753D02*
X12016909Y-17695705D01*
X12016909Y-17695705D02*
X11997861Y-17686181D01*
X11997861Y-17686181D02*
X11969289Y-17686181D01*
X11969289Y-17686181D02*
X11950242Y-17676657D01*
X11950242Y-17676657D02*
X11940718Y-17657610D01*
X11940718Y-17657610D02*
X11940718Y-17648086D01*
X11940718Y-17648086D02*
X11950242Y-17629038D01*
X11950242Y-17629038D02*
X11969289Y-17619514D01*
X11969289Y-17619514D02*
X11997861Y-17619514D01*
X11997861Y-17619514D02*
X12016909Y-17629038D01*
X12093099Y-17829038D02*
X12102623Y-17819514D01*
X12102623Y-17819514D02*
X12121670Y-17790943D01*
X12121670Y-17790943D02*
X12131194Y-17771895D01*
X12131194Y-17771895D02*
X12140718Y-17743324D01*
X12140718Y-17743324D02*
X12150242Y-17695705D01*
X12150242Y-17695705D02*
X12150242Y-17657610D01*
X12150242Y-17657610D02*
X12140718Y-17609991D01*
X12140718Y-17609991D02*
X12131194Y-17581419D01*
X12131194Y-17581419D02*
X12121670Y-17562372D01*
X12121670Y-17562372D02*
X12102623Y-17533800D01*
X12102623Y-17533800D02*
X12093099Y-17524276D01*
D11*
X7218036Y-17875364D02*
X7318036Y-17975364D01*
X7318036Y-17875364D02*
X7218036Y-17975364D01*
X7318036Y-17925364D02*
G75*
G03*
X7218036Y-17925364I-50000J0D01*
G01*
X7218036Y-17925364D02*
G75*
G03*
X7318036Y-17925364I50000J0D01*
G01*
D10*
X7683575Y-18016848D02*
X7569289Y-18016848D01*
X7626432Y-18016848D02*
X7626432Y-17816848D01*
X7626432Y-17816848D02*
X7607384Y-17845419D01*
X7607384Y-17845419D02*
X7588337Y-17864467D01*
X7588337Y-17864467D02*
X7569289Y-17873991D01*
X7769289Y-17997800D02*
X7778813Y-18007324D01*
X7778813Y-18007324D02*
X7769289Y-18016848D01*
X7769289Y-18016848D02*
X7759765Y-18007324D01*
X7759765Y-18007324D02*
X7769289Y-17997800D01*
X7769289Y-17997800D02*
X7769289Y-18016848D01*
X7902622Y-17816848D02*
X7921670Y-17816848D01*
X7921670Y-17816848D02*
X7940718Y-17826372D01*
X7940718Y-17826372D02*
X7950241Y-17835895D01*
X7950241Y-17835895D02*
X7959765Y-17854943D01*
X7959765Y-17854943D02*
X7969289Y-17893038D01*
X7969289Y-17893038D02*
X7969289Y-17940657D01*
X7969289Y-17940657D02*
X7959765Y-17978753D01*
X7959765Y-17978753D02*
X7950241Y-17997800D01*
X7950241Y-17997800D02*
X7940718Y-18007324D01*
X7940718Y-18007324D02*
X7921670Y-18016848D01*
X7921670Y-18016848D02*
X7902622Y-18016848D01*
X7902622Y-18016848D02*
X7883575Y-18007324D01*
X7883575Y-18007324D02*
X7874051Y-17997800D01*
X7874051Y-17997800D02*
X7864527Y-17978753D01*
X7864527Y-17978753D02*
X7855003Y-17940657D01*
X7855003Y-17940657D02*
X7855003Y-17893038D01*
X7855003Y-17893038D02*
X7864527Y-17854943D01*
X7864527Y-17854943D02*
X7874051Y-17835895D01*
X7874051Y-17835895D02*
X7883575Y-17826372D01*
X7883575Y-17826372D02*
X7902622Y-17816848D01*
X8093099Y-17816848D02*
X8112146Y-17816848D01*
X8112146Y-17816848D02*
X8131194Y-17826372D01*
X8131194Y-17826372D02*
X8140718Y-17835895D01*
X8140718Y-17835895D02*
X8150241Y-17854943D01*
X8150241Y-17854943D02*
X8159765Y-17893038D01*
X8159765Y-17893038D02*
X8159765Y-17940657D01*
X8159765Y-17940657D02*
X8150241Y-17978753D01*
X8150241Y-17978753D02*
X8140718Y-17997800D01*
X8140718Y-17997800D02*
X8131194Y-18007324D01*
X8131194Y-18007324D02*
X8112146Y-18016848D01*
X8112146Y-18016848D02*
X8093099Y-18016848D01*
X8093099Y-18016848D02*
X8074051Y-18007324D01*
X8074051Y-18007324D02*
X8064527Y-17997800D01*
X8064527Y-17997800D02*
X8055003Y-17978753D01*
X8055003Y-17978753D02*
X8045480Y-17940657D01*
X8045480Y-17940657D02*
X8045480Y-17893038D01*
X8045480Y-17893038D02*
X8055003Y-17854943D01*
X8055003Y-17854943D02*
X8064527Y-17835895D01*
X8064527Y-17835895D02*
X8074051Y-17826372D01*
X8074051Y-17826372D02*
X8093099Y-17816848D01*
X8283575Y-17816848D02*
X8302622Y-17816848D01*
X8302622Y-17816848D02*
X8321670Y-17826372D01*
X8321670Y-17826372D02*
X8331194Y-17835895D01*
X8331194Y-17835895D02*
X8340718Y-17854943D01*
X8340718Y-17854943D02*
X8350241Y-17893038D01*
X8350241Y-17893038D02*
X8350241Y-17940657D01*
X8350241Y-17940657D02*
X8340718Y-17978753D01*
X8340718Y-17978753D02*
X8331194Y-17997800D01*
X8331194Y-17997800D02*
X8321670Y-18007324D01*
X8321670Y-18007324D02*
X8302622Y-18016848D01*
X8302622Y-18016848D02*
X8283575Y-18016848D01*
X8283575Y-18016848D02*
X8264527Y-18007324D01*
X8264527Y-18007324D02*
X8255003Y-17997800D01*
X8255003Y-17997800D02*
X8245480Y-17978753D01*
X8245480Y-17978753D02*
X8235956Y-17940657D01*
X8235956Y-17940657D02*
X8235956Y-17893038D01*
X8235956Y-17893038D02*
X8245480Y-17854943D01*
X8245480Y-17854943D02*
X8255003Y-17835895D01*
X8255003Y-17835895D02*
X8264527Y-17826372D01*
X8264527Y-17826372D02*
X8283575Y-17816848D01*
X8435956Y-18016848D02*
X8435956Y-17883514D01*
X8435956Y-17902562D02*
X8445480Y-17893038D01*
X8445480Y-17893038D02*
X8464527Y-17883514D01*
X8464527Y-17883514D02*
X8493099Y-17883514D01*
X8493099Y-17883514D02*
X8512146Y-17893038D01*
X8512146Y-17893038D02*
X8521670Y-17912086D01*
X8521670Y-17912086D02*
X8521670Y-18016848D01*
X8521670Y-17912086D02*
X8531194Y-17893038D01*
X8531194Y-17893038D02*
X8550242Y-17883514D01*
X8550242Y-17883514D02*
X8578813Y-17883514D01*
X8578813Y-17883514D02*
X8597861Y-17893038D01*
X8597861Y-17893038D02*
X8607384Y-17912086D01*
X8607384Y-17912086D02*
X8607384Y-18016848D01*
X8702623Y-18016848D02*
X8702623Y-17883514D01*
X8702623Y-17902562D02*
X8712146Y-17893038D01*
X8712146Y-17893038D02*
X8731194Y-17883514D01*
X8731194Y-17883514D02*
X8759765Y-17883514D01*
X8759765Y-17883514D02*
X8778813Y-17893038D01*
X8778813Y-17893038D02*
X8788337Y-17912086D01*
X8788337Y-17912086D02*
X8788337Y-18016848D01*
X8788337Y-17912086D02*
X8797861Y-17893038D01*
X8797861Y-17893038D02*
X8816908Y-17883514D01*
X8816908Y-17883514D02*
X8845480Y-17883514D01*
X8845480Y-17883514D02*
X8864527Y-17893038D01*
X8864527Y-17893038D02*
X8874051Y-17912086D01*
X8874051Y-17912086D02*
X8874051Y-18016848D01*
X9264527Y-17807324D02*
X9093099Y-18064467D01*
X9521670Y-17816848D02*
X9540718Y-17816848D01*
X9540718Y-17816848D02*
X9559766Y-17826372D01*
X9559766Y-17826372D02*
X9569289Y-17835895D01*
X9569289Y-17835895D02*
X9578813Y-17854943D01*
X9578813Y-17854943D02*
X9588337Y-17893038D01*
X9588337Y-17893038D02*
X9588337Y-17940657D01*
X9588337Y-17940657D02*
X9578813Y-17978753D01*
X9578813Y-17978753D02*
X9569289Y-17997800D01*
X9569289Y-17997800D02*
X9559766Y-18007324D01*
X9559766Y-18007324D02*
X9540718Y-18016848D01*
X9540718Y-18016848D02*
X9521670Y-18016848D01*
X9521670Y-18016848D02*
X9502623Y-18007324D01*
X9502623Y-18007324D02*
X9493099Y-17997800D01*
X9493099Y-17997800D02*
X9483575Y-17978753D01*
X9483575Y-17978753D02*
X9474051Y-17940657D01*
X9474051Y-17940657D02*
X9474051Y-17893038D01*
X9474051Y-17893038D02*
X9483575Y-17854943D01*
X9483575Y-17854943D02*
X9493099Y-17835895D01*
X9493099Y-17835895D02*
X9502623Y-17826372D01*
X9502623Y-17826372D02*
X9521670Y-17816848D01*
X9674051Y-17997800D02*
X9683575Y-18007324D01*
X9683575Y-18007324D02*
X9674051Y-18016848D01*
X9674051Y-18016848D02*
X9664527Y-18007324D01*
X9664527Y-18007324D02*
X9674051Y-17997800D01*
X9674051Y-17997800D02*
X9674051Y-18016848D01*
X9807385Y-17816848D02*
X9826432Y-17816848D01*
X9826432Y-17816848D02*
X9845480Y-17826372D01*
X9845480Y-17826372D02*
X9855004Y-17835895D01*
X9855004Y-17835895D02*
X9864527Y-17854943D01*
X9864527Y-17854943D02*
X9874051Y-17893038D01*
X9874051Y-17893038D02*
X9874051Y-17940657D01*
X9874051Y-17940657D02*
X9864527Y-17978753D01*
X9864527Y-17978753D02*
X9855004Y-17997800D01*
X9855004Y-17997800D02*
X9845480Y-18007324D01*
X9845480Y-18007324D02*
X9826432Y-18016848D01*
X9826432Y-18016848D02*
X9807385Y-18016848D01*
X9807385Y-18016848D02*
X9788337Y-18007324D01*
X9788337Y-18007324D02*
X9778813Y-17997800D01*
X9778813Y-17997800D02*
X9769289Y-17978753D01*
X9769289Y-17978753D02*
X9759766Y-17940657D01*
X9759766Y-17940657D02*
X9759766Y-17893038D01*
X9759766Y-17893038D02*
X9769289Y-17854943D01*
X9769289Y-17854943D02*
X9778813Y-17835895D01*
X9778813Y-17835895D02*
X9788337Y-17826372D01*
X9788337Y-17826372D02*
X9807385Y-17816848D01*
X9940718Y-17816848D02*
X10064527Y-17816848D01*
X10064527Y-17816848D02*
X9997861Y-17893038D01*
X9997861Y-17893038D02*
X10026432Y-17893038D01*
X10026432Y-17893038D02*
X10045480Y-17902562D01*
X10045480Y-17902562D02*
X10055004Y-17912086D01*
X10055004Y-17912086D02*
X10064527Y-17931134D01*
X10064527Y-17931134D02*
X10064527Y-17978753D01*
X10064527Y-17978753D02*
X10055004Y-17997800D01*
X10055004Y-17997800D02*
X10045480Y-18007324D01*
X10045480Y-18007324D02*
X10026432Y-18016848D01*
X10026432Y-18016848D02*
X9969289Y-18016848D01*
X9969289Y-18016848D02*
X9950242Y-18007324D01*
X9950242Y-18007324D02*
X9940718Y-17997800D01*
X10159766Y-18016848D02*
X10197861Y-18016848D01*
X10197861Y-18016848D02*
X10216908Y-18007324D01*
X10216908Y-18007324D02*
X10226432Y-17997800D01*
X10226432Y-17997800D02*
X10245480Y-17969229D01*
X10245480Y-17969229D02*
X10255004Y-17931134D01*
X10255004Y-17931134D02*
X10255004Y-17854943D01*
X10255004Y-17854943D02*
X10245480Y-17835895D01*
X10245480Y-17835895D02*
X10235956Y-17826372D01*
X10235956Y-17826372D02*
X10216908Y-17816848D01*
X10216908Y-17816848D02*
X10178813Y-17816848D01*
X10178813Y-17816848D02*
X10159766Y-17826372D01*
X10159766Y-17826372D02*
X10150242Y-17835895D01*
X10150242Y-17835895D02*
X10140718Y-17854943D01*
X10140718Y-17854943D02*
X10140718Y-17902562D01*
X10140718Y-17902562D02*
X10150242Y-17921610D01*
X10150242Y-17921610D02*
X10159766Y-17931134D01*
X10159766Y-17931134D02*
X10178813Y-17940657D01*
X10178813Y-17940657D02*
X10216908Y-17940657D01*
X10216908Y-17940657D02*
X10235956Y-17931134D01*
X10235956Y-17931134D02*
X10245480Y-17921610D01*
X10245480Y-17921610D02*
X10255004Y-17902562D01*
X10426432Y-17883514D02*
X10426432Y-18016848D01*
X10378813Y-17807324D02*
X10331194Y-17950181D01*
X10331194Y-17950181D02*
X10455004Y-17950181D01*
X10521670Y-17816848D02*
X10521670Y-17854943D01*
X10597861Y-17816848D02*
X10597861Y-17854943D01*
X10893099Y-18093038D02*
X10883575Y-18083514D01*
X10883575Y-18083514D02*
X10864528Y-18054943D01*
X10864528Y-18054943D02*
X10855004Y-18035895D01*
X10855004Y-18035895D02*
X10845480Y-18007324D01*
X10845480Y-18007324D02*
X10835956Y-17959705D01*
X10835956Y-17959705D02*
X10835956Y-17921610D01*
X10835956Y-17921610D02*
X10845480Y-17873991D01*
X10845480Y-17873991D02*
X10855004Y-17845419D01*
X10855004Y-17845419D02*
X10864528Y-17826372D01*
X10864528Y-17826372D02*
X10883575Y-17797800D01*
X10883575Y-17797800D02*
X10893099Y-17788276D01*
X10959766Y-17835895D02*
X10969289Y-17826372D01*
X10969289Y-17826372D02*
X10988337Y-17816848D01*
X10988337Y-17816848D02*
X11035956Y-17816848D01*
X11035956Y-17816848D02*
X11055004Y-17826372D01*
X11055004Y-17826372D02*
X11064528Y-17835895D01*
X11064528Y-17835895D02*
X11074051Y-17854943D01*
X11074051Y-17854943D02*
X11074051Y-17873991D01*
X11074051Y-17873991D02*
X11064528Y-17902562D01*
X11064528Y-17902562D02*
X10950242Y-18016848D01*
X10950242Y-18016848D02*
X11074051Y-18016848D01*
X11255004Y-17816848D02*
X11159766Y-17816848D01*
X11159766Y-17816848D02*
X11150242Y-17912086D01*
X11150242Y-17912086D02*
X11159766Y-17902562D01*
X11159766Y-17902562D02*
X11178813Y-17893038D01*
X11178813Y-17893038D02*
X11226432Y-17893038D01*
X11226432Y-17893038D02*
X11245480Y-17902562D01*
X11245480Y-17902562D02*
X11255004Y-17912086D01*
X11255004Y-17912086D02*
X11264527Y-17931134D01*
X11264527Y-17931134D02*
X11264527Y-17978753D01*
X11264527Y-17978753D02*
X11255004Y-17997800D01*
X11255004Y-17997800D02*
X11245480Y-18007324D01*
X11245480Y-18007324D02*
X11226432Y-18016848D01*
X11226432Y-18016848D02*
X11178813Y-18016848D01*
X11178813Y-18016848D02*
X11159766Y-18007324D01*
X11159766Y-18007324D02*
X11150242Y-17997800D01*
X11502623Y-18016848D02*
X11502623Y-17816848D01*
X11588337Y-18016848D02*
X11588337Y-17912086D01*
X11588337Y-17912086D02*
X11578813Y-17893038D01*
X11578813Y-17893038D02*
X11559766Y-17883514D01*
X11559766Y-17883514D02*
X11531194Y-17883514D01*
X11531194Y-17883514D02*
X11512147Y-17893038D01*
X11512147Y-17893038D02*
X11502623Y-17902562D01*
X11712147Y-18016848D02*
X11693099Y-18007324D01*
X11693099Y-18007324D02*
X11683575Y-17997800D01*
X11683575Y-17997800D02*
X11674051Y-17978753D01*
X11674051Y-17978753D02*
X11674051Y-17921610D01*
X11674051Y-17921610D02*
X11683575Y-17902562D01*
X11683575Y-17902562D02*
X11693099Y-17893038D01*
X11693099Y-17893038D02*
X11712147Y-17883514D01*
X11712147Y-17883514D02*
X11740718Y-17883514D01*
X11740718Y-17883514D02*
X11759766Y-17893038D01*
X11759766Y-17893038D02*
X11769289Y-17902562D01*
X11769289Y-17902562D02*
X11778813Y-17921610D01*
X11778813Y-17921610D02*
X11778813Y-17978753D01*
X11778813Y-17978753D02*
X11769289Y-17997800D01*
X11769289Y-17997800D02*
X11759766Y-18007324D01*
X11759766Y-18007324D02*
X11740718Y-18016848D01*
X11740718Y-18016848D02*
X11712147Y-18016848D01*
X11893099Y-18016848D02*
X11874051Y-18007324D01*
X11874051Y-18007324D02*
X11864528Y-17988276D01*
X11864528Y-17988276D02*
X11864528Y-17816848D01*
X12045480Y-18007324D02*
X12026432Y-18016848D01*
X12026432Y-18016848D02*
X11988337Y-18016848D01*
X11988337Y-18016848D02*
X11969289Y-18007324D01*
X11969289Y-18007324D02*
X11959766Y-17988276D01*
X11959766Y-17988276D02*
X11959766Y-17912086D01*
X11959766Y-17912086D02*
X11969289Y-17893038D01*
X11969289Y-17893038D02*
X11988337Y-17883514D01*
X11988337Y-17883514D02*
X12026432Y-17883514D01*
X12026432Y-17883514D02*
X12045480Y-17893038D01*
X12045480Y-17893038D02*
X12055004Y-17912086D01*
X12055004Y-17912086D02*
X12055004Y-17931134D01*
X12055004Y-17931134D02*
X11959766Y-17950181D01*
X12131194Y-18007324D02*
X12150242Y-18016848D01*
X12150242Y-18016848D02*
X12188337Y-18016848D01*
X12188337Y-18016848D02*
X12207385Y-18007324D01*
X12207385Y-18007324D02*
X12216909Y-17988276D01*
X12216909Y-17988276D02*
X12216909Y-17978753D01*
X12216909Y-17978753D02*
X12207385Y-17959705D01*
X12207385Y-17959705D02*
X12188337Y-17950181D01*
X12188337Y-17950181D02*
X12159766Y-17950181D01*
X12159766Y-17950181D02*
X12140718Y-17940657D01*
X12140718Y-17940657D02*
X12131194Y-17921610D01*
X12131194Y-17921610D02*
X12131194Y-17912086D01*
X12131194Y-17912086D02*
X12140718Y-17893038D01*
X12140718Y-17893038D02*
X12159766Y-17883514D01*
X12159766Y-17883514D02*
X12188337Y-17883514D01*
X12188337Y-17883514D02*
X12207385Y-17893038D01*
X12283575Y-18093038D02*
X12293099Y-18083514D01*
X12293099Y-18083514D02*
X12312147Y-18054943D01*
X12312147Y-18054943D02*
X12321670Y-18035895D01*
X12321670Y-18035895D02*
X12331194Y-18007324D01*
X12331194Y-18007324D02*
X12340718Y-17959705D01*
X12340718Y-17959705D02*
X12340718Y-17921610D01*
X12340718Y-17921610D02*
X12331194Y-17873991D01*
X12331194Y-17873991D02*
X12321670Y-17845419D01*
X12321670Y-17845419D02*
X12312147Y-17826372D01*
X12312147Y-17826372D02*
X12293099Y-17797800D01*
X12293099Y-17797800D02*
X12283575Y-17788276D01*
M02*
