%TF.GenerationSoftware,KiCad,Pcbnew,7.0.11*%
%TF.CreationDate,2025-03-06T22:48:18+09:00*%
%TF.ProjectId,IO,494f2e6b-6963-4616-945f-706362585858,rev?*%
%TF.SameCoordinates,Original*%
%TF.FileFunction,Soldermask,Bot*%
%TF.FilePolarity,Negative*%
%FSLAX46Y46*%
G04 Gerber Fmt 4.6, Leading zero omitted, Abs format (unit mm)*
G04 Created by KiCad (PCBNEW 7.0.11) date 2025-03-06 22:48:18*
%MOMM*%
%LPD*%
G01*
G04 APERTURE LIST*
G04 Aperture macros list*
%AMRoundRect*
0 Rectangle with rounded corners*
0 $1 Rounding radius*
0 $2 $3 $4 $5 $6 $7 $8 $9 X,Y pos of 4 corners*
0 Add a 4 corners polygon primitive as box body*
4,1,4,$2,$3,$4,$5,$6,$7,$8,$9,$2,$3,0*
0 Add four circle primitives for the rounded corners*
1,1,$1+$1,$2,$3*
1,1,$1+$1,$4,$5*
1,1,$1+$1,$6,$7*
1,1,$1+$1,$8,$9*
0 Add four rect primitives between the rounded corners*
20,1,$1+$1,$2,$3,$4,$5,0*
20,1,$1+$1,$4,$5,$6,$7,0*
20,1,$1+$1,$6,$7,$8,$9,0*
20,1,$1+$1,$8,$9,$2,$3,0*%
%AMHorizOval*
0 Thick line with rounded ends*
0 $1 width*
0 $2 $3 position (X,Y) of the first rounded end (center of the circle)*
0 $4 $5 position (X,Y) of the second rounded end (center of the circle)*
0 Add line between two ends*
20,1,$1,$2,$3,$4,$5,0*
0 Add two circle primitives to create the rounded ends*
1,1,$1,$2,$3*
1,1,$1,$4,$5*%
G04 Aperture macros list end*
%ADD10R,1.700000X1.700000*%
%ADD11O,1.700000X1.700000*%
%ADD12C,2.200000*%
%ADD13C,3.200000*%
%ADD14C,20.000000*%
%ADD15RoundRect,0.250000X0.600000X0.725000X-0.600000X0.725000X-0.600000X-0.725000X0.600000X-0.725000X0*%
%ADD16O,1.700000X1.950000*%
%ADD17C,1.000000*%
%ADD18C,1.600000*%
%ADD19RoundRect,0.250000X-1.100000X0.412500X-1.100000X-0.412500X1.100000X-0.412500X1.100000X0.412500X0*%
%ADD20RoundRect,0.250000X-0.850000X-0.350000X0.850000X-0.350000X0.850000X0.350000X-0.850000X0.350000X0*%
%ADD21RoundRect,0.249997X-2.950003X-2.650003X2.950003X-2.650003X2.950003X2.650003X-2.950003X2.650003X0*%
%ADD22RoundRect,0.250000X1.100000X-0.412500X1.100000X0.412500X-1.100000X0.412500X-1.100000X-0.412500X0*%
%ADD23O,3.100000X4.300000*%
%ADD24HorizOval,0.900000X-0.176777X-0.176777X0.176777X0.176777X0*%
%ADD25HorizOval,0.900000X-0.176777X0.176777X0.176777X-0.176777X0*%
%ADD26HorizOval,0.900000X-0.106066X0.106066X0.106066X-0.106066X0*%
G04 APERTURE END LIST*
D10*
%TO.C,J3*%
X177780000Y-101360000D03*
D11*
X177780000Y-98820000D03*
X177780000Y-96280000D03*
X177780000Y-93740000D03*
%TD*%
D12*
%TO.C,REF\u002A\u002A*%
X183950000Y-48880000D03*
%TD*%
D13*
%TO.C,REF\u002A\u002A*%
X119590000Y-57970000D03*
%TD*%
%TO.C,REF\u002A\u002A*%
X158790000Y-125890000D03*
%TD*%
%TO.C,REF\u002A\u002A*%
X127790000Y-125890000D03*
%TD*%
D10*
%TO.C,J1*%
X96780000Y-114070000D03*
D11*
X96780000Y-111530000D03*
X96780000Y-108990000D03*
X96780000Y-106450000D03*
X96780000Y-103910000D03*
X96780000Y-101370000D03*
X96780000Y-98830000D03*
X96780000Y-96290000D03*
X96780000Y-93750000D03*
X96780000Y-91210000D03*
X96780000Y-88670000D03*
X96780000Y-86130000D03*
X96780000Y-83590000D03*
X96780000Y-81050000D03*
%TD*%
D12*
%TO.C,REF\u002A\u002A*%
X126290000Y-51560000D03*
%TD*%
D10*
%TO.C,J5*%
X120170000Y-50160000D03*
D11*
X120170000Y-47620000D03*
X120170000Y-45080000D03*
X120170000Y-42540000D03*
X120170000Y-40000000D03*
X120170000Y-37460000D03*
X120170000Y-34920000D03*
%TD*%
D12*
%TO.C,REF\u002A\u002A*%
X102630000Y-130210000D03*
%TD*%
%TO.C,REF\u002A\u002A*%
X183950000Y-130200000D03*
%TD*%
D14*
%TO.C,REF\u002A\u002A*%
X143290000Y-136570000D03*
%TD*%
D12*
%TO.C,REF\u002A\u002A*%
X102620000Y-48890000D03*
%TD*%
%TO.C,REF\u002A\u002A*%
X160290000Y-51570000D03*
%TD*%
D13*
%TO.C,REF\u002A\u002A*%
X167000000Y-57970000D03*
%TD*%
D15*
%TO.C,J2*%
X170460000Y-136065000D03*
D16*
X167960000Y-136065000D03*
X165460000Y-136065000D03*
X162960000Y-136065000D03*
%TD*%
D17*
%TO.C,J15*%
X141699999Y-68300001D03*
%TD*%
%TO.C,J19*%
X146950000Y-68300001D03*
%TD*%
D18*
%TO.C,C2*%
X94234000Y-67290000D03*
X94234000Y-64790000D03*
%TD*%
D17*
%TO.C,J8*%
X138166116Y-66456675D03*
%TD*%
%TO.C,J17*%
X141649998Y-70050001D03*
%TD*%
%TO.C,J10*%
X146916116Y-64756676D03*
%TD*%
%TO.C,J18*%
X145200000Y-70050000D03*
%TD*%
D19*
%TO.C,C1*%
X109474000Y-62445500D03*
X109474000Y-65570500D03*
%TD*%
D17*
%TO.C,J1*%
X143416117Y-66456675D03*
%TD*%
D20*
%TO.C,U2*%
X96824000Y-55632000D03*
X96824000Y-60192000D03*
D21*
X103124000Y-57912000D03*
%TD*%
D22*
%TO.C,C3*%
X109474000Y-60490500D03*
X109474000Y-57365500D03*
%TD*%
D17*
%TO.C,J12*%
X145200000Y-68300000D03*
%TD*%
D20*
%TO.C,U1*%
X96892000Y-62741500D03*
X96892000Y-67301500D03*
D21*
X103192000Y-65021500D03*
%TD*%
D17*
%TO.C,J9*%
X139916116Y-64706675D03*
%TD*%
%TO.C,J14*%
X143450000Y-68300000D03*
%TD*%
%TO.C,J20*%
X146950000Y-70050000D03*
%TD*%
%TO.C,J3*%
X141666116Y-64706675D03*
%TD*%
D18*
%TO.C,C4*%
X94214000Y-60198000D03*
X94214000Y-57698000D03*
%TD*%
D17*
%TO.C,J4*%
X143416116Y-64706676D03*
%TD*%
%TO.C,J5*%
X145166117Y-66456676D03*
%TD*%
%TO.C,J21*%
X148699999Y-70000001D03*
%TD*%
%TO.C,J7*%
X139916116Y-66456675D03*
%TD*%
%TO.C,J6*%
X145166117Y-64706676D03*
%TD*%
D23*
%TO.C,U3*%
X143461436Y-45917848D03*
D24*
X141700740Y-48449290D03*
X140802715Y-47551264D03*
X139904689Y-46653239D03*
X139006664Y-45755213D03*
X138108638Y-44857187D03*
X137210612Y-43959162D03*
X136312587Y-43061136D03*
X135414561Y-42163111D03*
D25*
X135414561Y-38924561D03*
X136312587Y-38026536D03*
X137210612Y-37128510D03*
X138108638Y-36230485D03*
X139006664Y-35332459D03*
X139904689Y-34434433D03*
X140802715Y-33536408D03*
X141700740Y-32638382D03*
D24*
X144939290Y-32638382D03*
X145837315Y-33536408D03*
X146735341Y-34434433D03*
X147633366Y-35332459D03*
X148531392Y-36230485D03*
X149429418Y-37128510D03*
X150327443Y-38026536D03*
X151225469Y-38924561D03*
D25*
X151225469Y-42163111D03*
X150327443Y-43061136D03*
X149429418Y-43959162D03*
X148531392Y-44857187D03*
X147633366Y-45755213D03*
X146735341Y-46653239D03*
D26*
X145908026Y-47621975D03*
X145010000Y-48520000D03*
%TD*%
D17*
%TO.C,J22*%
X146916116Y-66506676D03*
%TD*%
%TO.C,J13*%
X143450000Y-70050000D03*
%TD*%
%TO.C,J2*%
X141666116Y-66456675D03*
%TD*%
%TO.C,J16*%
X139950000Y-68299999D03*
%TD*%
M02*
