%TF.GenerationSoftware,KiCad,Pcbnew,7.0.11*%
%TF.CreationDate,2025-03-06T22:48:18+09:00*%
%TF.ProjectId,IO,494f2e6b-6963-4616-945f-706362585858,rev?*%
%TF.SameCoordinates,Original*%
%TF.FileFunction,Copper,L2,Bot*%
%TF.FilePolarity,Positive*%
%FSLAX46Y46*%
G04 Gerber Fmt 4.6, Leading zero omitted, Abs format (unit mm)*
G04 Created by KiCad (PCBNEW 7.0.11) date 2025-03-06 22:48:18*
%MOMM*%
%LPD*%
G01*
G04 APERTURE LIST*
G04 Aperture macros list*
%AMRoundRect*
0 Rectangle with rounded corners*
0 $1 Rounding radius*
0 $2 $3 $4 $5 $6 $7 $8 $9 X,Y pos of 4 corners*
0 Add a 4 corners polygon primitive as box body*
4,1,4,$2,$3,$4,$5,$6,$7,$8,$9,$2,$3,0*
0 Add four circle primitives for the rounded corners*
1,1,$1+$1,$2,$3*
1,1,$1+$1,$4,$5*
1,1,$1+$1,$6,$7*
1,1,$1+$1,$8,$9*
0 Add four rect primitives between the rounded corners*
20,1,$1+$1,$2,$3,$4,$5,0*
20,1,$1+$1,$4,$5,$6,$7,0*
20,1,$1+$1,$6,$7,$8,$9,0*
20,1,$1+$1,$8,$9,$2,$3,0*%
%AMHorizOval*
0 Thick line with rounded ends*
0 $1 width*
0 $2 $3 position (X,Y) of the first rounded end (center of the circle)*
0 $4 $5 position (X,Y) of the second rounded end (center of the circle)*
0 Add line between two ends*
20,1,$1,$2,$3,$4,$5,0*
0 Add two circle primitives to create the rounded ends*
1,1,$1,$2,$3*
1,1,$1,$4,$5*%
G04 Aperture macros list end*
%TA.AperFunction,ComponentPad*%
%ADD10R,1.700000X1.700000*%
%TD*%
%TA.AperFunction,ComponentPad*%
%ADD11O,1.700000X1.700000*%
%TD*%
%TA.AperFunction,ComponentPad*%
%ADD12RoundRect,0.250000X0.600000X0.725000X-0.600000X0.725000X-0.600000X-0.725000X0.600000X-0.725000X0*%
%TD*%
%TA.AperFunction,ComponentPad*%
%ADD13O,1.700000X1.950000*%
%TD*%
%TA.AperFunction,SMDPad,CuDef*%
%ADD14C,1.000000*%
%TD*%
%TA.AperFunction,ComponentPad*%
%ADD15C,1.600000*%
%TD*%
%TA.AperFunction,SMDPad,CuDef*%
%ADD16RoundRect,0.250000X-1.100000X0.412500X-1.100000X-0.412500X1.100000X-0.412500X1.100000X0.412500X0*%
%TD*%
%TA.AperFunction,SMDPad,CuDef*%
%ADD17RoundRect,0.250000X-0.850000X-0.350000X0.850000X-0.350000X0.850000X0.350000X-0.850000X0.350000X0*%
%TD*%
%TA.AperFunction,SMDPad,CuDef*%
%ADD18RoundRect,0.250000X-1.275000X-1.125000X1.275000X-1.125000X1.275000X1.125000X-1.275000X1.125000X0*%
%TD*%
%TA.AperFunction,SMDPad,CuDef*%
%ADD19RoundRect,0.249997X-2.950003X-2.650003X2.950003X-2.650003X2.950003X2.650003X-2.950003X2.650003X0*%
%TD*%
%TA.AperFunction,SMDPad,CuDef*%
%ADD20RoundRect,0.250000X1.100000X-0.412500X1.100000X0.412500X-1.100000X0.412500X-1.100000X-0.412500X0*%
%TD*%
%TA.AperFunction,SMDPad,CuDef*%
%ADD21HorizOval,0.900000X-0.176777X-0.176777X0.176777X0.176777X0*%
%TD*%
%TA.AperFunction,SMDPad,CuDef*%
%ADD22HorizOval,0.900000X-0.176777X0.176777X0.176777X-0.176777X0*%
%TD*%
%TA.AperFunction,SMDPad,CuDef*%
%ADD23HorizOval,0.900000X-0.106066X0.106066X0.106066X-0.106066X0*%
%TD*%
%TA.AperFunction,ViaPad*%
%ADD24C,0.800000*%
%TD*%
%TA.AperFunction,Conductor*%
%ADD25C,1.000000*%
%TD*%
%TA.AperFunction,Conductor*%
%ADD26C,0.250000*%
%TD*%
%TA.AperFunction,Conductor*%
%ADD27C,0.500000*%
%TD*%
%TA.AperFunction,Conductor*%
%ADD28C,0.200000*%
%TD*%
G04 APERTURE END LIST*
D10*
%TO.P,J3,1,Pin_1*%
%TO.N,/SD\uFF3FSCK*%
X177780000Y-101360000D03*
D11*
%TO.P,J3,2,Pin_2*%
%TO.N,/SD\uFF3FMISO*%
X177780000Y-98820000D03*
%TO.P,J3,3,Pin_3*%
%TO.N,/SD\uFF3FMOSI*%
X177780000Y-96280000D03*
%TO.P,J3,4,Pin_4*%
%TO.N,/SD\uFF3FCS*%
X177780000Y-93740000D03*
%TD*%
D10*
%TO.P,J1,1,Pin_1*%
%TO.N,unconnected-(J1-Pin_1-Pad1)*%
X96780000Y-114070000D03*
D11*
%TO.P,J1,2,Pin_2*%
%TO.N,/MISO*%
X96780000Y-111530000D03*
%TO.P,J1,3,Pin_3*%
%TO.N,/MOSI*%
X96780000Y-108990000D03*
%TO.P,J1,4,Pin_4*%
%TO.N,/T_CS*%
X96780000Y-106450000D03*
%TO.P,J1,5,Pin_5*%
%TO.N,/SCK*%
X96780000Y-103910000D03*
%TO.P,J1,6,Pin_6*%
%TO.N,unconnected-(J1-Pin_6-Pad6)*%
X96780000Y-101370000D03*
%TO.P,J1,7,Pin_7*%
%TO.N,+3.3V*%
X96780000Y-98830000D03*
%TO.P,J1,8,Pin_8*%
%TO.N,/SCK*%
X96780000Y-96290000D03*
%TO.P,J1,9,Pin_9*%
%TO.N,/MOSI*%
X96780000Y-93750000D03*
%TO.P,J1,10,Pin_10*%
%TO.N,/DC*%
X96780000Y-91210000D03*
%TO.P,J1,11,Pin_11*%
%TO.N,/RESET*%
X96780000Y-88670000D03*
%TO.P,J1,12,Pin_12*%
%TO.N,/CS*%
X96780000Y-86130000D03*
%TO.P,J1,13,Pin_13*%
%TO.N,GND*%
X96780000Y-83590000D03*
%TO.P,J1,14,Pin_14*%
%TO.N,+3.3V*%
X96780000Y-81050000D03*
%TD*%
D10*
%TO.P,J5,1,Pin_1*%
%TO.N,GND*%
X120170000Y-50160000D03*
D11*
%TO.P,J5,2,Pin_2*%
%TO.N,/TXD*%
X120170000Y-47620000D03*
%TO.P,J5,3,Pin_3*%
%TO.N,/PRG*%
X120170000Y-45080000D03*
%TO.P,J5,4,Pin_4*%
%TO.N,/RXD*%
X120170000Y-42540000D03*
%TO.P,J5,5,Pin_5*%
%TO.N,/RST*%
X120170000Y-40000000D03*
%TO.P,J5,6,Pin_6*%
%TO.N,+3.3V*%
X120170000Y-37460000D03*
%TO.P,J5,7,Pin_7*%
%TO.N,/SET*%
X120170000Y-34920000D03*
%TD*%
D12*
%TO.P,J2,1,Pin_1*%
%TO.N,/START*%
X170460000Y-136065000D03*
D13*
%TO.P,J2,2,Pin_2*%
%TO.N,+3.3V*%
X167960000Y-136065000D03*
%TO.P,J2,3,Pin_3*%
X165460000Y-136065000D03*
%TO.P,J2,4,Pin_4*%
%TO.N,GND*%
X162960000Y-136065000D03*
%TD*%
D14*
%TO.P,J15,1,Pin_1*%
%TO.N,/CS*%
X141699999Y-68300001D03*
%TD*%
%TO.P,J19,1,Pin_1*%
%TO.N,/SD\uFF3FMISO*%
X146950000Y-68300001D03*
%TD*%
D15*
%TO.P,C2,1*%
%TO.N,+3.3V*%
X94234000Y-67290000D03*
%TO.P,C2,2*%
%TO.N,GND*%
X94234000Y-64790000D03*
%TD*%
D14*
%TO.P,J8,1,Pin_1*%
%TO.N,/SCK*%
X138166116Y-66456675D03*
%TD*%
%TO.P,J17,1,Pin_1*%
%TO.N,/RESET*%
X141649998Y-70050001D03*
%TD*%
%TO.P,J10,1,Pin_1*%
%TO.N,GND*%
X146916116Y-64756676D03*
%TD*%
%TO.P,J18,1,Pin_1*%
%TO.N,/START*%
X145200000Y-70050000D03*
%TD*%
D16*
%TO.P,C1,1*%
%TO.N,+12V*%
X109474000Y-62445500D03*
%TO.P,C1,2*%
%TO.N,GND*%
X109474000Y-65570500D03*
%TD*%
D14*
%TO.P,J1,1,Pin_1*%
%TO.N,+12V*%
X143416117Y-66456675D03*
%TD*%
D17*
%TO.P,U2,1,GND*%
%TO.N,GND*%
X96824000Y-55632000D03*
%TO.P,U2,2,VO*%
%TO.N,+5V*%
X96824000Y-60192000D03*
D18*
%TO.P,U2,3,VI*%
%TO.N,+12V*%
X101449000Y-56387000D03*
X101449000Y-59437000D03*
D19*
X103124000Y-57912000D03*
D18*
X104799000Y-56387000D03*
X104799000Y-59437000D03*
%TD*%
D20*
%TO.P,C3,1*%
%TO.N,+12V*%
X109474000Y-60490500D03*
%TO.P,C3,2*%
%TO.N,GND*%
X109474000Y-57365500D03*
%TD*%
D14*
%TO.P,J12,1,Pin_1*%
%TO.N,+12V*%
X145200000Y-68300000D03*
%TD*%
D17*
%TO.P,U1,1,GND*%
%TO.N,GND*%
X96892000Y-62741500D03*
%TO.P,U1,2,VO*%
%TO.N,+3.3V*%
X96892000Y-67301500D03*
D18*
%TO.P,U1,3,VI*%
%TO.N,+12V*%
X101517000Y-63496500D03*
X101517000Y-66546500D03*
D19*
X103192000Y-65021500D03*
D18*
X104867000Y-63496500D03*
X104867000Y-66546500D03*
%TD*%
D14*
%TO.P,J9,1,Pin_1*%
%TO.N,/T_CS*%
X139916116Y-64706675D03*
%TD*%
%TO.P,J14,1,Pin_1*%
%TO.N,N/C*%
X143450000Y-68300000D03*
%TD*%
%TO.P,J20,1,Pin_1*%
%TO.N,/SD\uFF3FSCK*%
X146950000Y-70050000D03*
%TD*%
%TO.P,J3,1,Pin_1*%
%TO.N,/RXD*%
X141666116Y-64706675D03*
%TD*%
D15*
%TO.P,C4,1*%
%TO.N,+5V*%
X94214000Y-60198000D03*
%TO.P,C4,2*%
%TO.N,GND*%
X94214000Y-57698000D03*
%TD*%
D14*
%TO.P,J4,1,Pin_1*%
%TO.N,/MISO*%
X143416116Y-64706676D03*
%TD*%
%TO.P,J5,1,Pin_1*%
%TO.N,/SD\uFF3FCS*%
X145166117Y-66456676D03*
%TD*%
%TO.P,J21,1,Pin_1*%
%TO.N,GND*%
X148699999Y-70000001D03*
%TD*%
%TO.P,J7,1,Pin_1*%
%TO.N,/MOSI*%
X139916116Y-66456675D03*
%TD*%
%TO.P,J6,1,Pin_1*%
%TO.N,/SD\uFF3FMOSI*%
X145166117Y-64706676D03*
%TD*%
D21*
%TO.P,U3,1,DO0/PWM2*%
%TO.N,unconnected-(U3-DO0{slash}PWM2-Pad1)*%
X141700740Y-48449290D03*
%TO.P,U3,2,DO1/PWM3*%
%TO.N,/PRG*%
X140802715Y-47551264D03*
%TO.P,U3,3,DIO18/DO1*%
%TO.N,unconnected-(U3-DIO18{slash}DO1-Pad3)*%
X139904689Y-46653239D03*
%TO.P,U3,4,DIO19/DO2*%
%TO.N,unconnected-(U3-DIO19{slash}DO2-Pad4)*%
X139006664Y-45755213D03*
%TO.P,U3,5,VCC*%
%TO.N,+3.3V*%
X138108638Y-44857187D03*
%TO.P,U3,6,DIO4/DO3*%
%TO.N,unconnected-(U3-DIO4{slash}DO3-Pad6)*%
X137210612Y-43959162D03*
%TO.P,U3,7,DIO5/PWM1*%
%TO.N,unconnected-(U3-DIO5{slash}PWM1-Pad7)*%
X136312587Y-43061136D03*
%TO.P,U3,8,DIO6/TX*%
%TO.N,/TXD*%
X135414561Y-42163111D03*
D22*
%TO.P,U3,9,DIO7/RX*%
%TO.N,/RXD*%
X135414561Y-38924561D03*
%TO.P,U3,10,DIO8/PWM4*%
%TO.N,unconnected-(U3-DIO8{slash}PWM4-Pad10)*%
X136312587Y-38026536D03*
%TO.P,U3,11,DIO9/DO4*%
%TO.N,unconnected-(U3-DIO9{slash}DO4-Pad11)*%
X137210612Y-37128510D03*
%TO.P,U3,12,DIO10/M1*%
%TO.N,unconnected-(U3-DIO10{slash}M1-Pad12)*%
X138108638Y-36230485D03*
%TO.P,U3,13,DIO12/DI1*%
%TO.N,/SET*%
X139006664Y-35332459D03*
%TO.P,U3,14,DIO14/SCL*%
%TO.N,unconnected-(U3-DIO14{slash}SCL-Pad14)*%
X139904689Y-34434433D03*
%TO.P,U3,15,DIO13/DI2*%
%TO.N,unconnected-(U3-DIO13{slash}DI2-Pad15)*%
X140802715Y-33536408D03*
%TO.P,U3,16,DIO11/DI3*%
%TO.N,unconnected-(U3-DIO11{slash}DI3-Pad16)*%
X141700740Y-32638382D03*
D21*
%TO.P,U3,17,DIO15/SDA*%
%TO.N,unconnected-(U3-DIO15{slash}SDA-Pad17)*%
X144939290Y-32638382D03*
%TO.P,U3,18,DIO16/DI4*%
%TO.N,unconnected-(U3-DIO16{slash}DI4-Pad18)*%
X145837315Y-33536408D03*
%TO.P,U3,19,DIO17/BPS*%
%TO.N,unconnected-(U3-DIO17{slash}BPS-Pad19)*%
X146735341Y-34434433D03*
%TO.P,U3,20,GND*%
%TO.N,GND*%
X147633366Y-35332459D03*
%TO.P,U3,21,~{RESET}*%
%TO.N,/RST*%
X148531392Y-36230485D03*
%TO.P,U3,22,ADC2/AI3*%
%TO.N,unconnected-(U3-ADC2{slash}AI3-Pad22)*%
X149429418Y-37128510D03*
%TO.P,U3,23,ADC1/AI1*%
%TO.N,unconnected-(U3-ADC1{slash}AI1-Pad23)*%
X150327443Y-38026536D03*
%TO.P,U3,24,DIO0/AI2*%
%TO.N,unconnected-(U3-DIO0{slash}AI2-Pad24)*%
X151225469Y-38924561D03*
D22*
%TO.P,U3,25,DIO1/AI4*%
%TO.N,unconnected-(U3-DIO1{slash}AI4-Pad25)*%
X151225469Y-42163111D03*
%TO.P,U3,26,DIO2/M2*%
%TO.N,unconnected-(U3-DIO2{slash}M2-Pad26)*%
X150327443Y-43061136D03*
%TO.P,U3,27,DIO3/M3*%
%TO.N,unconnected-(U3-DIO3{slash}M3-Pad27)*%
X149429418Y-43959162D03*
%TO.P,U3,28,GND*%
%TO.N,GND*%
X148531392Y-44857187D03*
%TO.P,U3,29,NC*%
%TO.N,unconnected-(U3-NC-Pad29)*%
X147633366Y-45755213D03*
%TO.P,U3,30,GND*%
%TO.N,GND*%
X146735341Y-46653239D03*
D23*
%TO.P,U3,31,GND*%
X145908026Y-47621975D03*
%TO.P,U3,32,GND*%
X145010000Y-48520000D03*
%TD*%
D14*
%TO.P,J22,1,Pin_1*%
%TO.N,GND*%
X146916116Y-66506676D03*
%TD*%
%TO.P,J13,1,Pin_1*%
%TO.N,/PWM*%
X143450000Y-70050000D03*
%TD*%
%TO.P,J2,1,Pin_1*%
%TO.N,/TXD*%
X141666116Y-66456675D03*
%TD*%
%TO.P,J16,1,Pin_1*%
%TO.N,/DC*%
X139950000Y-68299999D03*
%TD*%
D24*
%TO.N,+12V*%
X109440000Y-61440000D03*
X143416117Y-66456675D03*
%TO.N,GND*%
X158090000Y-145160000D03*
X103220000Y-96590000D03*
X94110000Y-62470000D03*
X148870000Y-40620000D03*
X120710000Y-32720000D03*
X151520000Y-63510000D03*
X103280000Y-120470000D03*
X206370000Y-105650000D03*
X144275000Y-71550000D03*
X162180000Y-129570000D03*
X140170000Y-23080000D03*
X89800000Y-69620000D03*
X88020000Y-122870000D03*
X103150000Y-83600000D03*
X132310000Y-49430000D03*
X122810000Y-123860000D03*
X135350000Y-71820000D03*
X191650000Y-98680000D03*
X148240000Y-33100000D03*
X179340000Y-72830000D03*
X97590000Y-78630000D03*
X125050000Y-40380000D03*
X89680000Y-111100000D03*
X179430000Y-81650000D03*
X93650000Y-72580000D03*
X126350000Y-69280000D03*
X181890000Y-58580000D03*
X143310000Y-33660000D03*
X85280000Y-62770000D03*
X99510000Y-81440000D03*
X116220000Y-35540000D03*
X122920000Y-128530000D03*
X151400000Y-60130000D03*
X125030000Y-142390000D03*
X170440000Y-63880000D03*
X177870000Y-104560000D03*
X103160000Y-108450000D03*
X132850000Y-41010000D03*
X140130000Y-31170000D03*
X82900000Y-110720000D03*
X113900000Y-60070000D03*
X143440000Y-42810000D03*
X134390000Y-60590000D03*
X181380000Y-37890000D03*
X96840000Y-57870000D03*
X124090000Y-60420000D03*
X170300000Y-66950000D03*
X176960000Y-130910000D03*
X198890000Y-56340000D03*
X186720000Y-137480000D03*
X137390000Y-58770000D03*
X85200000Y-79300000D03*
X207130000Y-92590000D03*
X173400000Y-135410000D03*
X127200000Y-27710000D03*
X89280000Y-91080000D03*
X203440000Y-68230000D03*
X125210000Y-71850000D03*
X129950000Y-45320000D03*
X103750000Y-73380000D03*
X154840000Y-123600000D03*
X105150000Y-53540000D03*
X170790000Y-32010000D03*
X145820000Y-45230000D03*
X126950000Y-152790000D03*
X143350000Y-50530000D03*
X100510000Y-75550000D03*
X148810000Y-51310000D03*
X140050000Y-154200000D03*
X117010000Y-71820000D03*
X109240000Y-55350000D03*
X141010000Y-45140000D03*
X179570000Y-91240000D03*
X191380000Y-76830000D03*
X130530000Y-32170000D03*
X79560000Y-86710000D03*
X106810000Y-124080000D03*
X159450000Y-26490000D03*
X171430000Y-45790000D03*
X200810000Y-117300000D03*
X117050000Y-53330000D03*
X129230000Y-133430000D03*
X112160000Y-69280000D03*
X96240000Y-69290000D03*
X191220000Y-46420000D03*
X133360000Y-124510000D03*
X80350000Y-73480000D03*
X151770000Y-36570000D03*
X150150000Y-58000000D03*
X176690000Y-145510000D03*
X146620000Y-28220000D03*
X112010000Y-47160000D03*
X163360000Y-123970000D03*
X87800000Y-58230000D03*
X146900000Y-24460000D03*
X159070000Y-132750000D03*
X104860000Y-141320000D03*
X107190000Y-51430000D03*
X164920000Y-150120000D03*
X120340000Y-133070000D03*
X177100000Y-117120000D03*
X173080000Y-124160000D03*
X80310000Y-98820000D03*
X149825000Y-66950000D03*
X154620000Y-127140000D03*
X115800000Y-147760000D03*
X104600000Y-37380000D03*
X151380000Y-123680000D03*
X101770000Y-125980000D03*
X95520000Y-45890000D03*
X110990000Y-128580000D03*
X135070000Y-45050000D03*
X107840000Y-132270000D03*
X94250000Y-55350000D03*
X132320000Y-53450000D03*
X130320000Y-55700000D03*
X138180000Y-125910000D03*
X136650000Y-40560000D03*
X189290000Y-116620000D03*
X95130000Y-132780000D03*
X158170000Y-58260000D03*
X151510000Y-45040000D03*
X206550000Y-80290000D03*
X148640000Y-47900000D03*
X108660000Y-71840000D03*
X98710000Y-65470000D03*
X116200000Y-41370000D03*
X159900000Y-39000000D03*
X173050000Y-130720000D03*
X146580000Y-31230000D03*
X137160000Y-52090000D03*
X153020000Y-153390000D03*
X115250000Y-30190000D03*
X148210000Y-125700000D03*
X195040000Y-127860000D03*
%TO.N,+3.3V*%
X136010000Y-46950000D03*
%TO.N,+5V*%
X80518000Y-60198000D03*
X81534000Y-60198000D03*
X82550000Y-60198000D03*
%TO.N,/PWM*%
X143450000Y-70050000D03*
%TO.N,/MISO*%
X143425000Y-64700000D03*
%TO.N,/T_CS*%
X99919975Y-70369975D03*
%TO.N,/SCK*%
X138166116Y-66456675D03*
%TO.N,/DC*%
X139950000Y-68299999D03*
%TO.N,/SD\uFF3FSCK*%
X146950000Y-70025000D03*
%TO.N,/SD\uFF3FMISO*%
X146950000Y-68300000D03*
%TO.N,/SD\uFF3FMOSI*%
X145175000Y-64700000D03*
%TO.N,/SD\uFF3FCS*%
X148900000Y-64750000D03*
%TO.N,/PRG*%
X136010000Y-47970000D03*
%TD*%
D25*
%TO.N,+12V*%
X101449000Y-59857250D02*
X102851750Y-61260000D01*
X109440000Y-61440000D02*
X106802000Y-61440000D01*
X109474000Y-61406000D02*
X109440000Y-61440000D01*
X103452000Y-61440000D02*
X102961000Y-60949000D01*
X104799000Y-59437000D02*
X103274000Y-57912000D01*
X104579000Y-62445500D02*
X103573500Y-61440000D01*
X108121000Y-59709000D02*
X107681000Y-59269000D01*
X106796000Y-58384000D02*
X104799000Y-56387000D01*
X108902500Y-60490500D02*
X108121000Y-59709000D01*
X103274000Y-57912000D02*
X103124000Y-57912000D01*
X106810000Y-64190000D02*
X107016750Y-64396750D01*
X106810000Y-62530000D02*
X107846750Y-63566750D01*
X107681000Y-59269000D02*
X106796000Y-58384000D01*
X101449000Y-59437000D02*
X101449000Y-60879000D01*
X107016750Y-64396750D02*
X104867000Y-66546500D01*
X105490000Y-62000000D02*
X104930000Y-61440000D01*
D26*
X145200000Y-68300000D02*
X143416117Y-66516117D01*
D25*
X106810000Y-62000000D02*
X106810000Y-62445500D01*
X106470000Y-60480000D02*
X107020000Y-59930000D01*
X109474000Y-61474000D02*
X109474000Y-62445500D01*
X109474000Y-62445500D02*
X105935500Y-62445500D01*
X106470000Y-58710000D02*
X106796000Y-58384000D01*
X106810000Y-62445500D02*
X104579000Y-62445500D01*
X109474000Y-62445500D02*
X108968000Y-62445500D01*
X105394000Y-60949000D02*
X105852500Y-60490500D01*
X102851750Y-61260000D02*
X102851750Y-62161750D01*
X104930000Y-61440000D02*
X103573500Y-61440000D01*
X109440000Y-61440000D02*
X103452000Y-61440000D01*
X108968000Y-62445500D02*
X107846750Y-63566750D01*
X105935500Y-62445500D02*
X104930000Y-61440000D01*
X107020000Y-59930000D02*
X107241000Y-59709000D01*
X103573500Y-61440000D02*
X102851750Y-62161750D01*
X101517000Y-63496500D02*
X101517000Y-62463000D01*
X109474000Y-60490500D02*
X109474000Y-61406000D01*
X107241000Y-59709000D02*
X108121000Y-59709000D01*
X107846750Y-63566750D02*
X107016750Y-64396750D01*
X101517000Y-62463000D02*
X102275000Y-61705000D01*
X101449000Y-59437000D02*
X101449000Y-63428500D01*
X109440000Y-61440000D02*
X108880000Y-62000000D01*
X109440000Y-61440000D02*
X109474000Y-61474000D01*
X106810000Y-62000000D02*
X106810000Y-62530000D01*
X102961000Y-60949000D02*
X101449000Y-59437000D01*
X101449000Y-59437000D02*
X101449000Y-59857250D01*
X106250000Y-61440000D02*
X106810000Y-62000000D01*
X106802000Y-61440000D02*
X104799000Y-59437000D01*
D26*
X143416117Y-66516117D02*
X143416117Y-66456675D01*
D25*
X106470000Y-60490500D02*
X106470000Y-58710000D01*
X108880000Y-62000000D02*
X105490000Y-62000000D01*
X107020000Y-59930000D02*
X107681000Y-59269000D01*
X101449000Y-60879000D02*
X102275000Y-61705000D01*
X101449000Y-59437000D02*
X102851750Y-60839750D01*
X106810000Y-62000000D02*
X106810000Y-64190000D01*
X106470000Y-60490500D02*
X105852500Y-60490500D01*
X106470000Y-60490500D02*
X106470000Y-60480000D01*
X109474000Y-60490500D02*
X106470000Y-60490500D01*
X102851750Y-60839750D02*
X102851750Y-61260000D01*
X106810000Y-62445500D02*
X105768000Y-62445500D01*
X109474000Y-60490500D02*
X108902500Y-60490500D01*
X102275000Y-61705000D02*
X102791750Y-62221750D01*
X102791750Y-62221750D02*
X101517000Y-63496500D01*
X105852500Y-60490500D02*
X104799000Y-59437000D01*
X101449000Y-63428500D02*
X101517000Y-63496500D01*
X102851750Y-62161750D02*
X102791750Y-62221750D01*
X102961000Y-60949000D02*
X105394000Y-60949000D01*
X105768000Y-62445500D02*
X103192000Y-65021500D01*
%TO.N,+3.3V*%
X96892000Y-67301500D02*
X94245500Y-67301500D01*
D27*
X138102813Y-44857187D02*
X136010000Y-46950000D01*
D25*
X94245500Y-67301500D02*
X94234000Y-67290000D01*
D27*
X138108638Y-44857187D02*
X138102813Y-44857187D01*
D25*
%TO.N,+5V*%
X94220000Y-60192000D02*
X94214000Y-60198000D01*
X94214000Y-60198000D02*
X82550000Y-60198000D01*
X96824000Y-60192000D02*
X94220000Y-60192000D01*
X82550000Y-60198000D02*
X80518000Y-60198000D01*
D28*
%TO.N,/MOSI*%
X96780000Y-93750000D02*
X94690000Y-95840000D01*
X96780000Y-93750000D02*
X94770000Y-91740000D01*
X140616116Y-65756675D02*
X139916116Y-66456675D01*
X94770000Y-74530000D02*
X99640000Y-69660000D01*
X138853641Y-62453641D02*
X140616116Y-64216116D01*
X140616116Y-64216116D02*
X140616116Y-65756675D01*
X99640000Y-69660000D02*
X109490000Y-69660000D01*
X94690000Y-106900000D02*
X96780000Y-108990000D01*
X109490000Y-69660000D02*
X116696359Y-62453641D01*
X94770000Y-91740000D02*
X94770000Y-74530000D01*
X94690000Y-95840000D02*
X94690000Y-106900000D01*
X116696359Y-62453641D02*
X138853641Y-62453641D01*
%TO.N,/T_CS*%
X109655685Y-70060000D02*
X109324314Y-70060000D01*
X104060000Y-70060000D02*
X100229950Y-70060000D01*
X109324314Y-70060000D02*
X104060000Y-70060000D01*
X100229950Y-70060000D02*
X99919975Y-70369975D01*
X138063082Y-62853641D02*
X139916116Y-64706675D01*
X137425000Y-62853641D02*
X138063082Y-62853641D01*
X137425000Y-62853641D02*
X116862045Y-62853641D01*
X113042843Y-66672843D02*
X109655685Y-70060000D01*
X116862045Y-62853641D02*
X113042843Y-66672843D01*
%TO.N,/RESET*%
X96780000Y-88670000D02*
X95170000Y-87060000D01*
X103570000Y-70460000D02*
X141239999Y-70460000D01*
X95170000Y-87060000D02*
X95170000Y-78860000D01*
X95170000Y-78860000D02*
X103570000Y-70460000D01*
X141239999Y-70460000D02*
X141649998Y-70050001D01*
%TO.N,/CS*%
X103570686Y-71025000D02*
X142100000Y-71025000D01*
X142475000Y-69075002D02*
X141699999Y-68300001D01*
X96780000Y-86130000D02*
X101830000Y-81080000D01*
X142475000Y-70650000D02*
X142475000Y-69075002D01*
X101830000Y-72765686D02*
X103570686Y-71025000D01*
X142100000Y-71025000D02*
X142475000Y-70650000D01*
X101830000Y-81080000D02*
X101830000Y-72765686D01*
%TO.N,/START*%
X175300000Y-71910000D02*
X175300000Y-131225000D01*
X145460000Y-70310000D02*
X145200000Y-70050000D01*
X145200000Y-70050000D02*
X146375000Y-71225000D01*
X175300000Y-131225000D02*
X170460000Y-136065000D01*
X174615000Y-71225000D02*
X175300000Y-71910000D01*
X146375000Y-71225000D02*
X174615000Y-71225000D01*
%TO.N,/SD\uFF3FCS*%
X147247487Y-67306676D02*
X146016117Y-67306676D01*
X148900000Y-64750000D02*
X148900000Y-65654163D01*
X148900000Y-65654163D02*
X147247487Y-67306676D01*
X146016117Y-67306676D02*
X145166117Y-66456676D01*
%TO.N,/TXD*%
X138621082Y-61653641D02*
X140303641Y-61653641D01*
D27*
X120170000Y-47620000D02*
X129957672Y-47620000D01*
D28*
X129957672Y-47620000D02*
X130950000Y-46627672D01*
X142375000Y-65747791D02*
X141666116Y-66456675D01*
D27*
X129957672Y-47620000D02*
X135414561Y-42163111D01*
D28*
X140303641Y-61653641D02*
X142375000Y-63725000D01*
X130950000Y-53982559D02*
X138621082Y-61653641D01*
X142375000Y-63725000D02*
X142375000Y-65747791D01*
X130950000Y-46627672D02*
X130950000Y-53982559D01*
D27*
%TO.N,/RXD*%
X120170000Y-42540000D02*
X123785439Y-38924561D01*
D28*
X118270000Y-44440000D02*
X118270000Y-51490000D01*
X141666116Y-64166116D02*
X141666116Y-64706675D01*
X121100000Y-54320000D02*
X130721756Y-54320000D01*
D27*
X123785439Y-38924561D02*
X135414561Y-38924561D01*
D28*
X130721756Y-54320000D02*
X138455396Y-62053641D01*
X138455396Y-62053641D02*
X139553641Y-62053641D01*
X139553641Y-62053641D02*
X141666116Y-64166116D01*
X118270000Y-51490000D02*
X121100000Y-54320000D01*
X120170000Y-42540000D02*
X118270000Y-44440000D01*
D27*
%TO.N,/PRG*%
X140383979Y-47970000D02*
X136010000Y-47970000D01*
X140802715Y-47551264D02*
X140383979Y-47970000D01*
%TO.N,/RST*%
X149740000Y-32110000D02*
X149740000Y-35021877D01*
X121560000Y-29550000D02*
X147180000Y-29550000D01*
X118110000Y-33000000D02*
X121560000Y-29550000D01*
X118110000Y-37940000D02*
X118110000Y-33000000D01*
X120170000Y-40000000D02*
X118110000Y-37940000D01*
X147180000Y-29550000D02*
X149740000Y-32110000D01*
X149740000Y-35021877D02*
X148531392Y-36230485D01*
%TO.N,/SET*%
X120170000Y-34920000D02*
X138594205Y-34920000D01*
X138594205Y-34920000D02*
X139006664Y-35332459D01*
%TD*%
%TA.AperFunction,Conductor*%
%TO.N,GND*%
G36*
X101148834Y-73832915D02*
G01*
X101204767Y-73874787D01*
X101229184Y-73940251D01*
X101229500Y-73949097D01*
X101229500Y-80779901D01*
X101209815Y-80846940D01*
X101193181Y-80867582D01*
X98257082Y-83803681D01*
X98195759Y-83837166D01*
X98169401Y-83840000D01*
X97213686Y-83840000D01*
X97239493Y-83799844D01*
X97280000Y-83661889D01*
X97280000Y-83518111D01*
X97239493Y-83380156D01*
X97213686Y-83340000D01*
X98110636Y-83340000D01*
X98110635Y-83339999D01*
X98053432Y-83126513D01*
X98053429Y-83126507D01*
X97953600Y-82912422D01*
X97953599Y-82912420D01*
X97818113Y-82718926D01*
X97818108Y-82718920D01*
X97651078Y-82551890D01*
X97465405Y-82421879D01*
X97421780Y-82367302D01*
X97414588Y-82297804D01*
X97446110Y-82235449D01*
X97465406Y-82218730D01*
X97545054Y-82162960D01*
X97651401Y-82088495D01*
X97818495Y-81921401D01*
X97954035Y-81727830D01*
X98053903Y-81513663D01*
X98115063Y-81285408D01*
X98135659Y-81050000D01*
X98115063Y-80814592D01*
X98053903Y-80586337D01*
X97954035Y-80372171D01*
X97818495Y-80178599D01*
X97818494Y-80178597D01*
X97651402Y-80011506D01*
X97651395Y-80011501D01*
X97457834Y-79875967D01*
X97457830Y-79875965D01*
X97445040Y-79870001D01*
X97243663Y-79776097D01*
X97243659Y-79776096D01*
X97243655Y-79776094D01*
X97015413Y-79714938D01*
X97015403Y-79714936D01*
X96780001Y-79694341D01*
X96779999Y-79694341D01*
X96544596Y-79714936D01*
X96544586Y-79714938D01*
X96316344Y-79776094D01*
X96316335Y-79776098D01*
X96102171Y-79875964D01*
X96102169Y-79875965D01*
X95965623Y-79971576D01*
X95899417Y-79993903D01*
X95831650Y-79976893D01*
X95783837Y-79925945D01*
X95770500Y-79870001D01*
X95770500Y-79160097D01*
X95790185Y-79093058D01*
X95806819Y-79072416D01*
X101017819Y-73861416D01*
X101079142Y-73827931D01*
X101148834Y-73832915D01*
G37*
%TD.AperFunction*%
%TA.AperFunction,Conductor*%
G36*
X137830024Y-63473826D02*
G01*
X137850666Y-63490460D01*
X138883300Y-64523094D01*
X138916785Y-64584417D01*
X138919022Y-64622927D01*
X138910775Y-64706673D01*
X138910775Y-64706674D01*
X138930091Y-64902804D01*
X138930092Y-64902807D01*
X138986863Y-65089956D01*
X138987304Y-65091408D01*
X139080202Y-65265207D01*
X139080206Y-65265214D01*
X139205232Y-65417558D01*
X139288411Y-65485822D01*
X139327745Y-65543568D01*
X139329616Y-65613413D01*
X139293428Y-65673181D01*
X139288411Y-65677528D01*
X139205232Y-65745791D01*
X139136969Y-65828970D01*
X139079223Y-65868304D01*
X139009378Y-65870175D01*
X138949610Y-65833987D01*
X138945263Y-65828970D01*
X138876999Y-65745791D01*
X138724655Y-65620765D01*
X138724648Y-65620761D01*
X138550849Y-65527863D01*
X138550843Y-65527861D01*
X138362248Y-65470651D01*
X138362245Y-65470650D01*
X138166116Y-65451334D01*
X137969986Y-65470650D01*
X137781382Y-65527863D01*
X137607583Y-65620761D01*
X137607576Y-65620765D01*
X137455232Y-65745791D01*
X137330206Y-65898135D01*
X137330202Y-65898142D01*
X137237304Y-66071941D01*
X137180091Y-66260545D01*
X137160775Y-66456675D01*
X137180091Y-66652804D01*
X137180092Y-66652807D01*
X137224348Y-66798700D01*
X137237304Y-66841408D01*
X137330202Y-67015207D01*
X137330206Y-67015214D01*
X137455232Y-67167558D01*
X137607576Y-67292584D01*
X137607583Y-67292588D01*
X137781382Y-67385486D01*
X137781385Y-67385486D01*
X137781389Y-67385489D01*
X137969984Y-67442699D01*
X138166116Y-67462016D01*
X138362248Y-67442699D01*
X138550843Y-67385489D01*
X138724654Y-67292585D01*
X138876999Y-67167558D01*
X138945263Y-67084379D01*
X139003009Y-67045045D01*
X139072853Y-67043174D01*
X139132622Y-67079362D01*
X139136969Y-67084379D01*
X139205232Y-67167558D01*
X139328328Y-67268580D01*
X139354429Y-67290001D01*
X139362211Y-67296387D01*
X139401545Y-67354132D01*
X139403416Y-67423977D01*
X139367229Y-67483745D01*
X139362212Y-67488093D01*
X139239114Y-67589118D01*
X139114090Y-67741459D01*
X139114086Y-67741466D01*
X139021188Y-67915265D01*
X138963975Y-68103869D01*
X138944659Y-68299999D01*
X138963975Y-68496128D01*
X139021188Y-68684732D01*
X139114086Y-68858531D01*
X139114090Y-68858538D01*
X139239116Y-69010882D01*
X139391460Y-69135908D01*
X139391467Y-69135912D01*
X139565266Y-69228810D01*
X139565269Y-69228810D01*
X139565273Y-69228813D01*
X139753868Y-69286023D01*
X139950000Y-69305340D01*
X140146132Y-69286023D01*
X140334727Y-69228813D01*
X140376027Y-69206738D01*
X140460404Y-69161637D01*
X140508538Y-69135909D01*
X140660883Y-69010882D01*
X140729146Y-68927703D01*
X140786890Y-68888370D01*
X140856734Y-68886499D01*
X140916503Y-68922686D01*
X140920851Y-68927704D01*
X140989115Y-69010884D01*
X141047294Y-69058630D01*
X141086628Y-69116375D01*
X141088499Y-69186220D01*
X141052312Y-69245988D01*
X141047294Y-69250336D01*
X140939114Y-69339117D01*
X140814088Y-69491461D01*
X140814084Y-69491468D01*
X140721185Y-69665269D01*
X140710024Y-69702061D01*
X140688961Y-69771497D01*
X140650665Y-69829934D01*
X140586853Y-69858390D01*
X140570302Y-69859500D01*
X111004782Y-69859500D01*
X110937743Y-69839815D01*
X110891988Y-69787011D01*
X110882044Y-69717853D01*
X110911069Y-69654297D01*
X110917101Y-69647819D01*
X112142921Y-68422000D01*
X113495293Y-67069628D01*
X117074461Y-63490460D01*
X117135784Y-63456975D01*
X117162142Y-63454141D01*
X137385639Y-63454141D01*
X137762985Y-63454141D01*
X137830024Y-63473826D01*
G37*
%TD.AperFunction*%
%TA.AperFunction,Conductor*%
G36*
X130313874Y-48366158D02*
G01*
X130346871Y-48427744D01*
X130349500Y-48453141D01*
X130349500Y-53595500D01*
X130329815Y-53662539D01*
X130277011Y-53708294D01*
X130225500Y-53719500D01*
X127196850Y-53719500D01*
X127129811Y-53699815D01*
X127084056Y-53647011D01*
X127074112Y-53577853D01*
X127103137Y-53514297D01*
X127139802Y-53485402D01*
X127239617Y-53433681D01*
X127383936Y-53358901D01*
X127618698Y-53193189D01*
X127828708Y-52997053D01*
X128010055Y-52774147D01*
X128159361Y-52528625D01*
X128159363Y-52528620D01*
X128159365Y-52528617D01*
X128224779Y-52378015D01*
X128273844Y-52265058D01*
X128351371Y-51988358D01*
X128390500Y-51703678D01*
X128390500Y-51416322D01*
X128351371Y-51131642D01*
X128273844Y-50854942D01*
X128254803Y-50811104D01*
X128159365Y-50591382D01*
X128111813Y-50513187D01*
X128010055Y-50345853D01*
X127828708Y-50122947D01*
X127709831Y-50011923D01*
X127618700Y-49926812D01*
X127383935Y-49761098D01*
X127128793Y-49628894D01*
X126858037Y-49532667D01*
X126858034Y-49532666D01*
X126670781Y-49493755D01*
X126576686Y-49474202D01*
X126576684Y-49474201D01*
X126576680Y-49474201D01*
X126458070Y-49466088D01*
X126361752Y-49459500D01*
X126218248Y-49459500D01*
X126127724Y-49465691D01*
X126003319Y-49474201D01*
X125721965Y-49532666D01*
X125721962Y-49532667D01*
X125451206Y-49628894D01*
X125196064Y-49761098D01*
X124961299Y-49926812D01*
X124751289Y-50122950D01*
X124569944Y-50345853D01*
X124420634Y-50591382D01*
X124306158Y-50854935D01*
X124306158Y-50854936D01*
X124228630Y-51131635D01*
X124228629Y-51131642D01*
X124196254Y-51367187D01*
X124189500Y-51416322D01*
X124189500Y-51703678D01*
X124227146Y-51977572D01*
X124228629Y-51988357D01*
X124228630Y-51988364D01*
X124268084Y-52129175D01*
X124306156Y-52265058D01*
X124306157Y-52265061D01*
X124306158Y-52265063D01*
X124306158Y-52265064D01*
X124420634Y-52528617D01*
X124569944Y-52774146D01*
X124646667Y-52868452D01*
X124751292Y-52997053D01*
X124877105Y-53114554D01*
X124961299Y-53193187D01*
X125196064Y-53358901D01*
X125440198Y-53485402D01*
X125490665Y-53533723D01*
X125506997Y-53601657D01*
X125484008Y-53667636D01*
X125428997Y-53710713D01*
X125383150Y-53719500D01*
X121400097Y-53719500D01*
X121333058Y-53699815D01*
X121312416Y-53683181D01*
X119350916Y-51721681D01*
X119317431Y-51660358D01*
X119322415Y-51590666D01*
X119364287Y-51534733D01*
X119429751Y-51510316D01*
X119438597Y-51510000D01*
X119920000Y-51510000D01*
X119920000Y-50595501D01*
X120027685Y-50644680D01*
X120134237Y-50660000D01*
X120205763Y-50660000D01*
X120312315Y-50644680D01*
X120420000Y-50595501D01*
X120420000Y-51510000D01*
X121067828Y-51510000D01*
X121067844Y-51509999D01*
X121127372Y-51503598D01*
X121127379Y-51503596D01*
X121262086Y-51453354D01*
X121262093Y-51453350D01*
X121377187Y-51367190D01*
X121377190Y-51367187D01*
X121463350Y-51252093D01*
X121463354Y-51252086D01*
X121513596Y-51117379D01*
X121513598Y-51117372D01*
X121519999Y-51057844D01*
X121520000Y-51057827D01*
X121520000Y-50410000D01*
X120603686Y-50410000D01*
X120629493Y-50369844D01*
X120670000Y-50231889D01*
X120670000Y-50088111D01*
X120629493Y-49950156D01*
X120603686Y-49910000D01*
X121520000Y-49910000D01*
X121520000Y-49262172D01*
X121519999Y-49262155D01*
X121513598Y-49202627D01*
X121513596Y-49202620D01*
X121463354Y-49067913D01*
X121463350Y-49067906D01*
X121377190Y-48952812D01*
X121377187Y-48952809D01*
X121262093Y-48866649D01*
X121262088Y-48866646D01*
X121130528Y-48817577D01*
X121074595Y-48775705D01*
X121050178Y-48710241D01*
X121065030Y-48641968D01*
X121086175Y-48613720D01*
X121208495Y-48491401D01*
X121256127Y-48423376D01*
X121310704Y-48379751D01*
X121357701Y-48370500D01*
X129893967Y-48370500D01*
X129911937Y-48371809D01*
X129935695Y-48375289D01*
X129985041Y-48370971D01*
X129995848Y-48370500D01*
X130001376Y-48370500D01*
X130001381Y-48370500D01*
X130032228Y-48366893D01*
X130035702Y-48366539D01*
X130110469Y-48359999D01*
X130110477Y-48359996D01*
X130117538Y-48358539D01*
X130117550Y-48358598D01*
X130124915Y-48356965D01*
X130124901Y-48356906D01*
X130131921Y-48355241D01*
X130131927Y-48355241D01*
X130183090Y-48336618D01*
X130252818Y-48332188D01*
X130313874Y-48366158D01*
G37*
%TD.AperFunction*%
%TA.AperFunction,Conductor*%
G36*
X143323260Y-19554650D02*
G01*
X144815612Y-19572410D01*
X144989321Y-19575523D01*
X144991470Y-19575581D01*
X146476295Y-19628612D01*
X146476524Y-19628621D01*
X146656564Y-19636153D01*
X146658473Y-19636249D01*
X148135738Y-19724250D01*
X148321783Y-19736491D01*
X148323646Y-19736630D01*
X149792100Y-19859235D01*
X149792539Y-19859273D01*
X149984117Y-19876483D01*
X149986057Y-19876674D01*
X151445498Y-20033581D01*
X151445838Y-20033619D01*
X151642644Y-20056049D01*
X151644534Y-20056280D01*
X153094271Y-20247141D01*
X153094399Y-20247159D01*
X153296409Y-20275085D01*
X153298448Y-20275385D01*
X154737709Y-20499831D01*
X154737924Y-20499866D01*
X154944461Y-20533464D01*
X154946396Y-20533795D01*
X156375149Y-20791571D01*
X156585888Y-20831042D01*
X156587895Y-20831437D01*
X158005056Y-21122104D01*
X158219704Y-21167640D01*
X158221684Y-21168077D01*
X159626549Y-21491242D01*
X159626900Y-21491324D01*
X159845255Y-21543127D01*
X159846961Y-21543547D01*
X161238884Y-21898814D01*
X161239694Y-21899023D01*
X161461159Y-21957185D01*
X161462985Y-21957681D01*
X162841791Y-22344774D01*
X162842493Y-22344974D01*
X163066628Y-22409598D01*
X163068562Y-22410173D01*
X164433569Y-22828681D01*
X164433922Y-22828791D01*
X164661121Y-22900219D01*
X164663049Y-22900844D01*
X166013356Y-23350269D01*
X166013991Y-23350483D01*
X166243381Y-23428669D01*
X166245100Y-23429271D01*
X167580922Y-23909478D01*
X167581198Y-23909579D01*
X167812426Y-23994609D01*
X167814227Y-23995288D01*
X168868211Y-24402755D01*
X169134158Y-24505570D01*
X169135010Y-24505903D01*
X169367666Y-24597825D01*
X169369534Y-24598581D01*
X170673159Y-25138560D01*
X170674012Y-25138917D01*
X170793765Y-25189570D01*
X170908131Y-25237946D01*
X170909873Y-25238699D01*
X172197190Y-25808183D01*
X172197615Y-25808373D01*
X172432849Y-25914568D01*
X172434490Y-25915325D01*
X173631394Y-26479241D01*
X173704395Y-26513636D01*
X173705251Y-26514043D01*
X173864456Y-26590545D01*
X173940865Y-26627261D01*
X173942651Y-26628136D01*
X175194976Y-27255006D01*
X175195588Y-27255315D01*
X175431670Y-27375783D01*
X175433216Y-27376587D01*
X176667401Y-28031560D01*
X176668230Y-28032005D01*
X176904013Y-28159508D01*
X176905671Y-28160422D01*
X178121122Y-28843008D01*
X178121586Y-28843271D01*
X178357407Y-28978173D01*
X178358911Y-28979049D01*
X179554855Y-29688635D01*
X179555615Y-29689090D01*
X179790824Y-29831205D01*
X179792491Y-29832231D01*
X180968431Y-30568338D01*
X180969183Y-30568812D01*
X181203583Y-30718196D01*
X181205001Y-30719117D01*
X182360821Y-31481503D01*
X182361475Y-31481938D01*
X182594639Y-31638490D01*
X182596055Y-31639456D01*
X183469119Y-32245636D01*
X183731001Y-32427464D01*
X183731842Y-32428053D01*
X183794358Y-32472230D01*
X183963380Y-32591670D01*
X183964866Y-32592738D01*
X184565246Y-33031126D01*
X185078347Y-33405785D01*
X185079183Y-33406400D01*
X185309060Y-33577221D01*
X185310586Y-33578374D01*
X186402204Y-34416002D01*
X186403034Y-34416644D01*
X186630899Y-34594574D01*
X186632284Y-34595673D01*
X187701871Y-35457601D01*
X187702601Y-35458195D01*
X187927986Y-35643024D01*
X187929439Y-35644233D01*
X188135162Y-35818250D01*
X188976417Y-36529852D01*
X188977006Y-36530356D01*
X189120038Y-36653480D01*
X189199776Y-36722120D01*
X189201191Y-36723357D01*
X190224821Y-37631887D01*
X190225628Y-37632609D01*
X190445532Y-37831247D01*
X190446909Y-37832510D01*
X191446967Y-38763597D01*
X191447764Y-38764346D01*
X191664463Y-38969699D01*
X191665802Y-38970987D01*
X192641795Y-39924024D01*
X192642582Y-39924799D01*
X192855936Y-40136882D01*
X192857235Y-40138193D01*
X193808712Y-41112589D01*
X193809489Y-41113391D01*
X194019250Y-41332109D01*
X194020480Y-41333411D01*
X194395421Y-41736126D01*
X194947148Y-42328723D01*
X194947913Y-42329552D01*
X195153740Y-42554697D01*
X195154960Y-42556052D01*
X196056349Y-43571637D01*
X196057101Y-43572492D01*
X196258710Y-43803888D01*
X196259891Y-43805263D01*
X197135735Y-44840685D01*
X197136473Y-44841567D01*
X197333638Y-45079088D01*
X197334779Y-45080482D01*
X198184517Y-46134942D01*
X198185241Y-46135849D01*
X198377925Y-46379592D01*
X198379025Y-46381005D01*
X199202346Y-47453978D01*
X199203055Y-47454911D01*
X199385738Y-47697708D01*
X199390855Y-47704508D01*
X199391884Y-47705896D01*
X200186426Y-48794035D01*
X200188541Y-48796931D01*
X200189235Y-48797891D01*
X200371901Y-49053138D01*
X200372919Y-49054582D01*
X201142494Y-50162981D01*
X201143171Y-50163966D01*
X201320576Y-50424808D01*
X201321553Y-50426267D01*
X202063602Y-51551254D01*
X202064261Y-51552264D01*
X202236329Y-51818732D01*
X202237266Y-51820205D01*
X202951508Y-52961216D01*
X202952149Y-52962251D01*
X203118568Y-53234003D01*
X203119427Y-53235429D01*
X203406640Y-53719500D01*
X203805699Y-54392079D01*
X203806255Y-54393025D01*
X203966830Y-54669876D01*
X203967636Y-54671289D01*
X204625531Y-55842775D01*
X204626133Y-55843859D01*
X204780568Y-56125412D01*
X204781381Y-56126918D01*
X205410641Y-57312650D01*
X205411222Y-57313759D01*
X205559479Y-57600065D01*
X205560250Y-57601579D01*
X205831926Y-58144317D01*
X206148637Y-58777025D01*
X206160566Y-58800855D01*
X206161125Y-58801988D01*
X206303015Y-59092810D01*
X206303745Y-59094332D01*
X206874841Y-60306473D01*
X206875378Y-60307628D01*
X207010740Y-60602758D01*
X207011429Y-60604287D01*
X207553101Y-61828735D01*
X207553615Y-61829913D01*
X207682317Y-62129188D01*
X207682965Y-62130723D01*
X208194960Y-63366790D01*
X208195450Y-63367990D01*
X208317312Y-63671113D01*
X208317919Y-63672653D01*
X208800051Y-64919770D01*
X208800516Y-64920992D01*
X208915396Y-65227724D01*
X208915962Y-65229267D01*
X209367955Y-66486603D01*
X209368395Y-66487846D01*
X209476250Y-66798202D01*
X209476775Y-66799748D01*
X209898416Y-68066575D01*
X209898830Y-68067839D01*
X209999508Y-68381514D01*
X209999993Y-68383061D01*
X210391173Y-69658935D01*
X210391559Y-69660219D01*
X210484876Y-69976756D01*
X210485321Y-69978303D01*
X210845832Y-71262424D01*
X210846191Y-71263728D01*
X210932133Y-71583196D01*
X210932538Y-71584743D01*
X211262225Y-72876440D01*
X211262555Y-72877763D01*
X211340967Y-73199710D01*
X211341333Y-73201255D01*
X211640069Y-74499926D01*
X211640370Y-74501267D01*
X211711191Y-74825552D01*
X211711517Y-74827095D01*
X211979159Y-76131998D01*
X211979430Y-76133357D01*
X212042557Y-76459617D01*
X212042845Y-76461155D01*
X212279297Y-77771722D01*
X212279537Y-77773099D01*
X212334926Y-78101215D01*
X212335175Y-78102749D01*
X212540306Y-79418146D01*
X212540515Y-79419538D01*
X212588094Y-79749187D01*
X212588305Y-79750716D01*
X212762042Y-81070381D01*
X212762219Y-81071789D01*
X212801932Y-81402668D01*
X212802106Y-81404190D01*
X212944363Y-82727378D01*
X212944507Y-82728801D01*
X212976347Y-83060967D01*
X212976483Y-83062482D01*
X213087172Y-84388225D01*
X213087284Y-84389662D01*
X213111200Y-84722772D01*
X213111299Y-84724278D01*
X213190406Y-86052244D01*
X213190483Y-86053695D01*
X213206434Y-86387274D01*
X213206497Y-86388771D01*
X213253972Y-87718031D01*
X213254016Y-87719495D01*
X213262002Y-88053673D01*
X213262028Y-88055159D01*
X213279843Y-89552163D01*
X213279843Y-89555115D01*
X213262028Y-91052119D01*
X213262002Y-91053605D01*
X213254016Y-91387783D01*
X213253972Y-91389247D01*
X213206497Y-92718507D01*
X213206434Y-92720004D01*
X213190483Y-93053583D01*
X213190406Y-93055034D01*
X213111299Y-94383000D01*
X213111200Y-94384506D01*
X213087284Y-94717616D01*
X213087172Y-94719053D01*
X212976483Y-96044796D01*
X212976347Y-96046311D01*
X212944507Y-96378477D01*
X212944363Y-96379900D01*
X212802106Y-97703088D01*
X212801932Y-97704610D01*
X212762219Y-98035489D01*
X212762042Y-98036897D01*
X212588305Y-99356562D01*
X212588094Y-99358091D01*
X212540515Y-99687740D01*
X212540306Y-99689132D01*
X212335175Y-101004529D01*
X212334926Y-101006063D01*
X212279537Y-101334179D01*
X212279297Y-101335556D01*
X212042845Y-102646123D01*
X212042557Y-102647661D01*
X211979430Y-102973921D01*
X211979159Y-102975280D01*
X211711517Y-104280183D01*
X211711191Y-104281726D01*
X211640370Y-104606011D01*
X211640069Y-104607352D01*
X211341333Y-105906023D01*
X211340967Y-105907568D01*
X211262555Y-106229515D01*
X211262225Y-106230838D01*
X210932538Y-107522535D01*
X210932133Y-107524082D01*
X210846191Y-107843550D01*
X210845832Y-107844854D01*
X210485321Y-109128975D01*
X210484876Y-109130522D01*
X210391559Y-109447059D01*
X210391173Y-109448343D01*
X209999993Y-110724217D01*
X209999508Y-110725764D01*
X209898830Y-111039439D01*
X209898416Y-111040703D01*
X209476775Y-112307530D01*
X209476250Y-112309076D01*
X209368395Y-112619432D01*
X209367955Y-112620675D01*
X208915962Y-113878011D01*
X208915396Y-113879554D01*
X208800516Y-114186286D01*
X208800051Y-114187508D01*
X208317919Y-115434625D01*
X208317312Y-115436165D01*
X208195450Y-115739288D01*
X208194960Y-115740488D01*
X207682965Y-116976555D01*
X207682317Y-116978090D01*
X207553615Y-117277365D01*
X207553101Y-117278543D01*
X207011429Y-118502991D01*
X207010740Y-118504520D01*
X206875378Y-118799650D01*
X206874841Y-118800805D01*
X206303745Y-120012946D01*
X206303015Y-120014468D01*
X206161125Y-120305290D01*
X206160566Y-120306423D01*
X205560250Y-121505699D01*
X205559479Y-121507213D01*
X205411222Y-121793519D01*
X205410641Y-121794628D01*
X204781381Y-122980360D01*
X204780568Y-122981866D01*
X204626133Y-123263419D01*
X204625531Y-123264503D01*
X203967636Y-124435989D01*
X203966783Y-124437485D01*
X203806321Y-124714140D01*
X203805699Y-124715199D01*
X203119463Y-125871790D01*
X203118568Y-125873275D01*
X202952149Y-126145027D01*
X202951508Y-126146062D01*
X202237266Y-127287073D01*
X202236329Y-127288546D01*
X202064261Y-127555014D01*
X202063602Y-127556024D01*
X201321553Y-128681011D01*
X201320576Y-128682470D01*
X201143171Y-128943312D01*
X201142494Y-128944297D01*
X200372919Y-130052696D01*
X200371901Y-130054140D01*
X200189235Y-130309387D01*
X200188541Y-130310347D01*
X199391914Y-131401341D01*
X199390855Y-131402770D01*
X199203055Y-131652367D01*
X199202346Y-131653300D01*
X198379025Y-132726273D01*
X198377925Y-132727685D01*
X198185267Y-132971396D01*
X198184543Y-132972304D01*
X197334779Y-134026796D01*
X197333638Y-134028190D01*
X197136473Y-134265711D01*
X197135735Y-134266593D01*
X196259891Y-135302015D01*
X196258710Y-135303390D01*
X196057101Y-135534786D01*
X196056349Y-135535641D01*
X195154960Y-136551226D01*
X195153740Y-136552581D01*
X194947913Y-136777726D01*
X194947148Y-136778555D01*
X194020510Y-137773835D01*
X194019250Y-137775169D01*
X193809489Y-137993887D01*
X193808712Y-137994689D01*
X192857235Y-138969085D01*
X192855936Y-138970396D01*
X192642582Y-139182479D01*
X192641795Y-139183254D01*
X191665802Y-140136291D01*
X191664463Y-140137579D01*
X191447764Y-140342932D01*
X191446967Y-140343681D01*
X190446909Y-141274768D01*
X190445532Y-141276031D01*
X190225628Y-141474669D01*
X190224821Y-141475391D01*
X189201191Y-142383921D01*
X189199776Y-142385158D01*
X188977133Y-142576814D01*
X188976318Y-142577510D01*
X187929439Y-143463045D01*
X187927986Y-143464254D01*
X187702601Y-143649083D01*
X187701778Y-143649753D01*
X186632337Y-144511563D01*
X186630847Y-144512745D01*
X186403034Y-144690634D01*
X186402204Y-144691276D01*
X185310586Y-145528904D01*
X185309060Y-145530057D01*
X185079183Y-145700878D01*
X185078347Y-145701493D01*
X183964905Y-146514512D01*
X183963342Y-146515635D01*
X183731842Y-146679225D01*
X183731001Y-146679814D01*
X182596146Y-147467759D01*
X182594547Y-147468851D01*
X182361562Y-147625282D01*
X182360717Y-147625844D01*
X181205068Y-148388118D01*
X181203434Y-148389178D01*
X180969280Y-148538404D01*
X180968431Y-148538940D01*
X179792491Y-149275047D01*
X179790824Y-149276073D01*
X179555615Y-149418188D01*
X179554763Y-149418698D01*
X178359036Y-150128156D01*
X178357334Y-150129147D01*
X178121769Y-150263903D01*
X178120915Y-150264387D01*
X176905709Y-150946835D01*
X176903974Y-150947791D01*
X176668256Y-151075259D01*
X176667401Y-151075718D01*
X175433323Y-151730635D01*
X175431556Y-151731554D01*
X175195705Y-151851903D01*
X175194849Y-151852336D01*
X173942664Y-152479135D01*
X173940865Y-152480017D01*
X173705251Y-152593235D01*
X173704395Y-152593642D01*
X172434586Y-153191908D01*
X172432757Y-153192752D01*
X172197816Y-153298815D01*
X172196961Y-153299197D01*
X170909954Y-153868543D01*
X170908094Y-153869348D01*
X170674012Y-153968361D01*
X170673159Y-153968718D01*
X169369534Y-154508697D01*
X169367646Y-154509461D01*
X169135010Y-154601375D01*
X169134158Y-154601708D01*
X167814282Y-155111969D01*
X167812366Y-155112691D01*
X167581474Y-155197598D01*
X167580625Y-155197907D01*
X166245214Y-155677967D01*
X166243270Y-155678648D01*
X166014074Y-155756767D01*
X166013229Y-155757051D01*
X164663070Y-156206427D01*
X164661101Y-156207065D01*
X164434135Y-156278421D01*
X164433293Y-156278682D01*
X163068591Y-156697096D01*
X163066596Y-156697689D01*
X162842554Y-156762286D01*
X162841718Y-156762524D01*
X161463083Y-157149570D01*
X161461063Y-157150119D01*
X161239715Y-157208249D01*
X161238884Y-157208464D01*
X159847128Y-157563690D01*
X159845085Y-157564193D01*
X159627115Y-157615903D01*
X159626290Y-157616096D01*
X158221713Y-157939194D01*
X158219649Y-157939650D01*
X158005406Y-157985101D01*
X158004586Y-157985272D01*
X156587936Y-158275833D01*
X156585850Y-158276243D01*
X156375425Y-158315656D01*
X156374614Y-158315805D01*
X154946480Y-158573468D01*
X154944373Y-158573829D01*
X154738193Y-158607369D01*
X154737389Y-158607497D01*
X153298492Y-158831886D01*
X153296367Y-158832199D01*
X153094658Y-158860084D01*
X153093862Y-158860191D01*
X151644658Y-159050982D01*
X151642514Y-159051245D01*
X151446141Y-159073625D01*
X151445355Y-159073713D01*
X149986166Y-159230593D01*
X149984005Y-159230806D01*
X149792647Y-159247995D01*
X149791870Y-159248062D01*
X148323801Y-159370636D01*
X148321625Y-159370798D01*
X148136172Y-159383000D01*
X148135405Y-159383049D01*
X146658616Y-159471021D01*
X146656424Y-159471132D01*
X146476693Y-159478650D01*
X146475937Y-159478679D01*
X144991497Y-159531696D01*
X144989293Y-159531755D01*
X144815819Y-159534864D01*
X144815073Y-159534875D01*
X143323404Y-159552627D01*
X143321187Y-159552634D01*
X143154287Y-159551637D01*
X143153552Y-159551630D01*
X141655255Y-159533800D01*
X141653028Y-159533754D01*
X141493121Y-159528977D01*
X141492398Y-159528953D01*
X139987951Y-159475221D01*
X139985715Y-159475121D01*
X139833409Y-159466926D01*
X139832697Y-159466886D01*
X138322508Y-159376923D01*
X138320265Y-159376769D01*
X138236060Y-159370218D01*
X138175497Y-159365506D01*
X138174971Y-159365464D01*
X136660015Y-159238975D01*
X136657763Y-159238766D01*
X136521011Y-159224833D01*
X136520325Y-159224762D01*
X135001138Y-159061433D01*
X134998881Y-159061169D01*
X134870425Y-159044972D01*
X134869752Y-159044885D01*
X133347062Y-158844420D01*
X133344800Y-158844101D01*
X133224866Y-158826058D01*
X133224207Y-158825957D01*
X131698585Y-158588043D01*
X131696321Y-158587669D01*
X131585337Y-158568252D01*
X131584690Y-158568137D01*
X130056621Y-158292443D01*
X130054355Y-158292012D01*
X129952601Y-158271692D01*
X129951970Y-158271564D01*
X128547484Y-157983497D01*
X128422255Y-157957812D01*
X128420000Y-157957328D01*
X128327705Y-157936593D01*
X128327087Y-157936453D01*
X126796241Y-157584308D01*
X126793977Y-157583765D01*
X126711616Y-157563184D01*
X126711012Y-157563031D01*
X125179605Y-157172163D01*
X125177343Y-157171563D01*
X125105229Y-157151700D01*
X125104640Y-157151536D01*
X123573228Y-156721599D01*
X123570972Y-156720943D01*
X123509493Y-156702419D01*
X123508918Y-156702244D01*
X121978072Y-156232890D01*
X121975818Y-156232176D01*
X121924942Y-156215510D01*
X121924385Y-156215325D01*
X120394985Y-155706292D01*
X120392742Y-155705522D01*
X120353136Y-155691493D01*
X120352590Y-155691298D01*
X118824878Y-155142108D01*
X118822643Y-155141280D01*
X118794524Y-155130557D01*
X118793994Y-155130354D01*
X117426558Y-154601708D01*
X117268661Y-154540665D01*
X117266459Y-154539789D01*
X117249889Y-154533011D01*
X117249383Y-154532803D01*
X115727234Y-153902309D01*
X115725036Y-153901374D01*
X115723260Y-153900598D01*
X115720418Y-153899355D01*
X115720031Y-153899185D01*
X114202858Y-153228017D01*
X114200174Y-153226791D01*
X112695823Y-152518023D01*
X112693168Y-152516734D01*
X111206061Y-151772341D01*
X111203438Y-151770989D01*
X109734451Y-150991408D01*
X109731861Y-150989993D01*
X108281901Y-150175709D01*
X108279346Y-150174234D01*
X106849144Y-149325657D01*
X106846624Y-149324121D01*
X106768228Y-149275047D01*
X105436983Y-148441724D01*
X105434566Y-148440170D01*
X104199151Y-147625282D01*
X104046345Y-147524490D01*
X104043901Y-147522836D01*
X103089726Y-146860341D01*
X102677859Y-146574377D01*
X102675471Y-146572676D01*
X102597352Y-146515635D01*
X101332420Y-145592000D01*
X101330058Y-145590232D01*
X100010724Y-144577871D01*
X100008404Y-144576047D01*
X98713521Y-143532565D01*
X98711245Y-143530686D01*
X97441546Y-142456670D01*
X97439316Y-142454737D01*
X96571516Y-141684515D01*
X96195581Y-141350851D01*
X96193399Y-141348868D01*
X94976247Y-140215659D01*
X94974111Y-140213622D01*
X93784295Y-139051791D01*
X93782209Y-139049705D01*
X92620378Y-137859889D01*
X92618341Y-137857753D01*
X91876611Y-137061079D01*
X91485126Y-136640594D01*
X91483147Y-136638417D01*
X91422435Y-136570014D01*
X132284479Y-136570014D01*
X132304557Y-137234494D01*
X132304557Y-137234498D01*
X132364720Y-137896561D01*
X132364721Y-137896570D01*
X132464744Y-138553769D01*
X132464750Y-138553803D01*
X132604278Y-139203791D01*
X132782800Y-139844180D01*
X132999658Y-140472609D01*
X133254065Y-141086803D01*
X133254074Y-141086823D01*
X133545092Y-141684515D01*
X133871681Y-142263573D01*
X134232628Y-142821839D01*
X134232634Y-142821848D01*
X134626638Y-143357317D01*
X134869796Y-143649083D01*
X135052249Y-143868010D01*
X135507921Y-144352079D01*
X135991990Y-144807751D01*
X136145211Y-144935445D01*
X136502682Y-145233361D01*
X136888176Y-145517011D01*
X137038152Y-145627366D01*
X137596428Y-145988319D01*
X138175479Y-146314905D01*
X138540317Y-146492545D01*
X138773176Y-146605925D01*
X138773183Y-146605928D01*
X138773193Y-146605933D01*
X139387388Y-146860341D01*
X140015824Y-147077201D01*
X140656206Y-147255721D01*
X141306199Y-147395250D01*
X141306218Y-147395252D01*
X141306230Y-147395255D01*
X141963429Y-147495278D01*
X141963438Y-147495279D01*
X142625503Y-147555442D01*
X143123820Y-147570500D01*
X143123834Y-147570500D01*
X143456180Y-147570500D01*
X143866556Y-147558099D01*
X143954497Y-147555442D01*
X143954498Y-147555442D01*
X144616561Y-147495279D01*
X144616570Y-147495278D01*
X145273769Y-147395255D01*
X145273774Y-147395254D01*
X145273801Y-147395250D01*
X145923794Y-147255721D01*
X146564176Y-147077201D01*
X147192612Y-146860341D01*
X147806807Y-146605933D01*
X148404521Y-146314905D01*
X148983572Y-145988319D01*
X149541848Y-145627366D01*
X150077313Y-145233364D01*
X150588010Y-144807751D01*
X151072079Y-144352079D01*
X151527751Y-143868010D01*
X151953364Y-143357313D01*
X152347366Y-142821848D01*
X152708319Y-142263572D01*
X153034905Y-141684521D01*
X153325933Y-141086807D01*
X153580341Y-140472612D01*
X153797201Y-139844176D01*
X153975721Y-139203794D01*
X154115250Y-138553801D01*
X154215278Y-137896569D01*
X154218806Y-137857753D01*
X154275442Y-137234498D01*
X154275442Y-137234494D01*
X154295521Y-136570014D01*
X154295521Y-136569985D01*
X154275442Y-135905505D01*
X154275442Y-135905501D01*
X154215279Y-135243438D01*
X154215278Y-135243429D01*
X154115255Y-134586230D01*
X154115249Y-134586196D01*
X154108162Y-134553181D01*
X153975721Y-133936206D01*
X153797201Y-133295824D01*
X153580341Y-132667388D01*
X153325933Y-132053193D01*
X153034905Y-131455479D01*
X152708319Y-130876428D01*
X152547929Y-130628358D01*
X152347371Y-130318160D01*
X152347365Y-130318151D01*
X152340916Y-130309387D01*
X152154708Y-130056322D01*
X151953361Y-129782682D01*
X151648312Y-129416652D01*
X151527751Y-129271990D01*
X151072079Y-128787921D01*
X150588010Y-128332249D01*
X150396525Y-128172666D01*
X150077317Y-127906638D01*
X149541848Y-127512634D01*
X149541839Y-127512628D01*
X148983573Y-127151681D01*
X148639074Y-126957383D01*
X148404521Y-126825095D01*
X148404515Y-126825092D01*
X147806823Y-126534074D01*
X147806803Y-126534065D01*
X147447017Y-126385037D01*
X147192612Y-126279659D01*
X146802464Y-126145027D01*
X146564180Y-126062800D01*
X145923791Y-125884278D01*
X145273803Y-125744750D01*
X145273769Y-125744744D01*
X144616570Y-125644721D01*
X144616561Y-125644720D01*
X143954496Y-125584557D01*
X143456180Y-125569500D01*
X143456166Y-125569500D01*
X143123834Y-125569500D01*
X143123820Y-125569500D01*
X142625505Y-125584557D01*
X142625501Y-125584557D01*
X141963438Y-125644720D01*
X141963429Y-125644721D01*
X141306230Y-125744744D01*
X141306196Y-125744750D01*
X140656208Y-125884278D01*
X140015819Y-126062800D01*
X139387390Y-126279658D01*
X138773196Y-126534065D01*
X138773176Y-126534074D01*
X138175484Y-126825092D01*
X137596426Y-127151681D01*
X137038160Y-127512628D01*
X137038151Y-127512634D01*
X136502682Y-127906638D01*
X135991993Y-128332246D01*
X135507921Y-128787921D01*
X135052246Y-129271993D01*
X134626638Y-129782682D01*
X134232634Y-130318151D01*
X134232628Y-130318160D01*
X133871681Y-130876426D01*
X133545092Y-131455484D01*
X133254074Y-132053176D01*
X133254065Y-132053196D01*
X132999658Y-132667390D01*
X132782800Y-133295819D01*
X132604278Y-133936208D01*
X132464750Y-134586196D01*
X132464744Y-134586230D01*
X132364721Y-135243429D01*
X132364720Y-135243438D01*
X132304557Y-135905501D01*
X132304557Y-135905505D01*
X132284479Y-136569985D01*
X132284479Y-136570014D01*
X91422435Y-136570014D01*
X90379260Y-135394680D01*
X90377330Y-135392454D01*
X89962374Y-134901894D01*
X89303304Y-134122743D01*
X89301435Y-134120479D01*
X88257953Y-132825596D01*
X88256129Y-132823276D01*
X87243768Y-131503942D01*
X87242000Y-131501580D01*
X86813734Y-130915063D01*
X86403819Y-130353678D01*
X100529500Y-130353678D01*
X100567254Y-130628357D01*
X100568629Y-130638357D01*
X100568630Y-130638364D01*
X100609877Y-130785578D01*
X100646156Y-130915058D01*
X100646157Y-130915061D01*
X100646158Y-130915063D01*
X100646158Y-130915064D01*
X100760634Y-131178617D01*
X100903863Y-131414147D01*
X100909945Y-131424147D01*
X101091292Y-131647053D01*
X101217105Y-131764554D01*
X101301299Y-131843187D01*
X101301302Y-131843189D01*
X101536064Y-132008901D01*
X101791203Y-132141104D01*
X101791206Y-132141105D01*
X102033830Y-132227334D01*
X102061968Y-132237334D01*
X102343314Y-132295798D01*
X102558248Y-132310500D01*
X102558255Y-132310500D01*
X102701745Y-132310500D01*
X102701752Y-132310500D01*
X102916686Y-132295798D01*
X103198032Y-132237334D01*
X103468797Y-132141104D01*
X103723936Y-132008901D01*
X103958698Y-131843189D01*
X104168708Y-131647053D01*
X104350055Y-131424147D01*
X104499361Y-131178625D01*
X104499363Y-131178620D01*
X104499365Y-131178617D01*
X104613841Y-130915064D01*
X104613844Y-130915058D01*
X104691371Y-130638358D01*
X104730500Y-130353678D01*
X104730500Y-130066322D01*
X104691371Y-129781642D01*
X104613844Y-129504942D01*
X104575495Y-129416653D01*
X104499365Y-129241382D01*
X104464308Y-129183734D01*
X104350055Y-128995853D01*
X104168708Y-128772947D01*
X104049831Y-128661923D01*
X103958700Y-128576812D01*
X103723935Y-128411098D01*
X103468793Y-128278894D01*
X103198037Y-128182667D01*
X103198034Y-128182666D01*
X103021509Y-128145984D01*
X102916686Y-128124202D01*
X102916684Y-128124201D01*
X102916680Y-128124201D01*
X102798070Y-128116088D01*
X102701752Y-128109500D01*
X102558248Y-128109500D01*
X102467724Y-128115691D01*
X102343319Y-128124201D01*
X102061965Y-128182666D01*
X102061962Y-128182667D01*
X101791206Y-128278894D01*
X101536064Y-128411098D01*
X101301299Y-128576812D01*
X101091289Y-128772950D01*
X100909944Y-128995853D01*
X100760634Y-129241382D01*
X100646158Y-129504935D01*
X100646158Y-129504936D01*
X100568630Y-129781635D01*
X100568629Y-129781642D01*
X100530875Y-130056321D01*
X100529500Y-130066322D01*
X100529500Y-130353678D01*
X86403819Y-130353678D01*
X86261301Y-130158497D01*
X86259635Y-130156157D01*
X85311162Y-128790097D01*
X85309510Y-128787655D01*
X84393816Y-127399412D01*
X84392290Y-127397038D01*
X83509861Y-125987347D01*
X83508343Y-125984856D01*
X83452062Y-125890000D01*
X82659766Y-124554654D01*
X82658291Y-124552099D01*
X81844007Y-123102139D01*
X81842592Y-123099549D01*
X81063011Y-121630562D01*
X81061659Y-121627939D01*
X80317266Y-120140832D01*
X80315977Y-120138177D01*
X79607209Y-118633826D01*
X79605983Y-118631142D01*
X78933199Y-117110315D01*
X78932037Y-117107602D01*
X78295611Y-115571133D01*
X78294561Y-115568511D01*
X77694856Y-114017271D01*
X77693865Y-114014611D01*
X77131261Y-112449584D01*
X77130306Y-112446823D01*
X77115188Y-112401402D01*
X76605134Y-110868935D01*
X76604243Y-110866147D01*
X76599957Y-110852169D01*
X76116756Y-109276159D01*
X76115931Y-109273347D01*
X76102474Y-109225413D01*
X75666424Y-107672227D01*
X75665682Y-107669457D01*
X75469290Y-106900000D01*
X94084318Y-106900000D01*
X94089500Y-106939360D01*
X94089500Y-106939361D01*
X94104955Y-107056760D01*
X94104956Y-107056762D01*
X94165464Y-107202841D01*
X94256438Y-107321401D01*
X94261719Y-107328283D01*
X94286769Y-107347504D01*
X94298964Y-107358199D01*
X95447233Y-108506468D01*
X95480718Y-108567791D01*
X95479327Y-108626241D01*
X95444939Y-108754583D01*
X95444936Y-108754596D01*
X95424341Y-108989999D01*
X95424341Y-108990000D01*
X95444936Y-109225403D01*
X95444938Y-109225413D01*
X95506094Y-109453655D01*
X95506096Y-109453659D01*
X95506097Y-109453663D01*
X95605965Y-109667830D01*
X95605967Y-109667834D01*
X95741501Y-109861395D01*
X95741506Y-109861402D01*
X95908597Y-110028493D01*
X95908603Y-110028498D01*
X96094158Y-110158425D01*
X96137783Y-110213002D01*
X96144977Y-110282500D01*
X96113454Y-110344855D01*
X96094158Y-110361575D01*
X95908597Y-110491505D01*
X95741505Y-110658597D01*
X95605965Y-110852169D01*
X95605964Y-110852171D01*
X95506098Y-111066335D01*
X95506094Y-111066344D01*
X95444938Y-111294586D01*
X95444936Y-111294596D01*
X95424341Y-111529999D01*
X95424341Y-111530000D01*
X95444936Y-111765403D01*
X95444938Y-111765413D01*
X95506094Y-111993655D01*
X95506096Y-111993659D01*
X95506097Y-111993663D01*
X95605965Y-112207830D01*
X95605967Y-112207834D01*
X95676858Y-112309076D01*
X95741501Y-112401396D01*
X95741506Y-112401402D01*
X95863430Y-112523326D01*
X95896915Y-112584649D01*
X95891931Y-112654341D01*
X95850059Y-112710274D01*
X95819083Y-112727189D01*
X95687669Y-112776203D01*
X95687664Y-112776206D01*
X95572455Y-112862452D01*
X95572452Y-112862455D01*
X95486206Y-112977664D01*
X95486202Y-112977671D01*
X95435908Y-113112517D01*
X95429501Y-113172116D01*
X95429501Y-113172123D01*
X95429500Y-113172135D01*
X95429500Y-114967870D01*
X95429501Y-114967876D01*
X95435908Y-115027483D01*
X95486202Y-115162328D01*
X95486206Y-115162335D01*
X95572452Y-115277544D01*
X95572455Y-115277547D01*
X95687664Y-115363793D01*
X95687671Y-115363797D01*
X95822517Y-115414091D01*
X95822516Y-115414091D01*
X95829444Y-115414835D01*
X95882127Y-115420500D01*
X97677872Y-115420499D01*
X97737483Y-115414091D01*
X97872331Y-115363796D01*
X97987546Y-115277546D01*
X98073796Y-115162331D01*
X98124091Y-115027483D01*
X98130500Y-114967873D01*
X98130499Y-113172128D01*
X98124091Y-113112517D01*
X98073796Y-112977669D01*
X98073795Y-112977668D01*
X98073793Y-112977664D01*
X97987547Y-112862455D01*
X97987544Y-112862452D01*
X97872335Y-112776206D01*
X97872328Y-112776202D01*
X97740917Y-112727189D01*
X97684983Y-112685318D01*
X97660566Y-112619853D01*
X97675418Y-112551580D01*
X97696563Y-112523332D01*
X97818495Y-112401401D01*
X97954035Y-112207830D01*
X98053903Y-111993663D01*
X98115063Y-111765408D01*
X98135659Y-111530000D01*
X98115063Y-111294592D01*
X98053903Y-111066337D01*
X97954035Y-110852171D01*
X97865525Y-110725764D01*
X97818494Y-110658597D01*
X97651402Y-110491506D01*
X97651396Y-110491501D01*
X97465842Y-110361575D01*
X97422217Y-110306998D01*
X97415023Y-110237500D01*
X97446546Y-110175145D01*
X97465842Y-110158425D01*
X97488026Y-110142891D01*
X97651401Y-110028495D01*
X97818495Y-109861401D01*
X97954035Y-109667830D01*
X98053903Y-109453663D01*
X98115063Y-109225408D01*
X98135659Y-108990000D01*
X98115063Y-108754592D01*
X98053903Y-108526337D01*
X97954035Y-108312171D01*
X97818495Y-108118599D01*
X97818494Y-108118597D01*
X97651402Y-107951506D01*
X97651396Y-107951501D01*
X97465842Y-107821575D01*
X97422217Y-107766998D01*
X97415023Y-107697500D01*
X97446546Y-107635145D01*
X97465842Y-107618425D01*
X97488026Y-107602891D01*
X97651401Y-107488495D01*
X97818495Y-107321401D01*
X97954035Y-107127830D01*
X98053903Y-106913663D01*
X98115063Y-106685408D01*
X98135659Y-106450000D01*
X98115063Y-106214592D01*
X98061142Y-106013354D01*
X98053905Y-105986344D01*
X98053904Y-105986343D01*
X98053903Y-105986337D01*
X97954035Y-105772171D01*
X97818495Y-105578599D01*
X97818494Y-105578597D01*
X97651402Y-105411506D01*
X97651396Y-105411501D01*
X97465842Y-105281575D01*
X97422217Y-105226998D01*
X97415023Y-105157500D01*
X97446546Y-105095145D01*
X97465842Y-105078425D01*
X97488026Y-105062891D01*
X97651401Y-104948495D01*
X97818495Y-104781401D01*
X97954035Y-104587830D01*
X98053903Y-104373663D01*
X98115063Y-104145408D01*
X98135659Y-103910000D01*
X98115063Y-103674592D01*
X98061142Y-103473354D01*
X98053905Y-103446344D01*
X98053904Y-103446343D01*
X98053903Y-103446337D01*
X97954035Y-103232171D01*
X97818495Y-103038599D01*
X97818494Y-103038597D01*
X97651402Y-102871506D01*
X97651396Y-102871501D01*
X97465842Y-102741575D01*
X97422217Y-102686998D01*
X97415023Y-102617500D01*
X97446546Y-102555145D01*
X97465842Y-102538425D01*
X97588791Y-102452335D01*
X97651401Y-102408495D01*
X97818495Y-102241401D01*
X97954035Y-102047830D01*
X98053903Y-101833663D01*
X98115063Y-101605408D01*
X98135659Y-101370000D01*
X98115063Y-101134592D01*
X98061142Y-100933354D01*
X98053905Y-100906344D01*
X98053904Y-100906343D01*
X98053903Y-100906337D01*
X97954035Y-100692171D01*
X97818495Y-100498599D01*
X97818494Y-100498597D01*
X97651402Y-100331506D01*
X97651396Y-100331501D01*
X97465842Y-100201575D01*
X97422217Y-100146998D01*
X97415023Y-100077500D01*
X97446546Y-100015145D01*
X97465842Y-99998425D01*
X97543082Y-99944341D01*
X97651401Y-99868495D01*
X97818495Y-99701401D01*
X97954035Y-99507830D01*
X98053903Y-99293663D01*
X98115063Y-99065408D01*
X98135659Y-98830000D01*
X98115063Y-98594592D01*
X98061142Y-98393354D01*
X98053905Y-98366344D01*
X98053904Y-98366343D01*
X98053903Y-98366337D01*
X97954035Y-98152171D01*
X97818495Y-97958599D01*
X97818494Y-97958597D01*
X97651402Y-97791506D01*
X97651396Y-97791501D01*
X97465842Y-97661575D01*
X97422217Y-97606998D01*
X97415023Y-97537500D01*
X97446546Y-97475145D01*
X97465842Y-97458425D01*
X97488026Y-97442891D01*
X97651401Y-97328495D01*
X97818495Y-97161401D01*
X97954035Y-96967830D01*
X98053903Y-96753663D01*
X98115063Y-96525408D01*
X98135659Y-96290000D01*
X98115063Y-96054592D01*
X98057564Y-95839999D01*
X98053905Y-95826344D01*
X98053904Y-95826343D01*
X98053903Y-95826337D01*
X97954035Y-95612171D01*
X97901512Y-95537159D01*
X97818494Y-95418597D01*
X97651402Y-95251506D01*
X97651396Y-95251501D01*
X97465842Y-95121575D01*
X97422217Y-95066998D01*
X97415023Y-94997500D01*
X97446546Y-94935145D01*
X97465842Y-94918425D01*
X97488026Y-94902891D01*
X97651401Y-94788495D01*
X97818495Y-94621401D01*
X97954035Y-94427830D01*
X98053903Y-94213663D01*
X98115063Y-93985408D01*
X98135659Y-93750000D01*
X98115063Y-93514592D01*
X98053903Y-93286337D01*
X97954035Y-93072171D01*
X97821477Y-92882857D01*
X97818494Y-92878597D01*
X97651402Y-92711506D01*
X97651396Y-92711501D01*
X97465842Y-92581575D01*
X97422217Y-92526998D01*
X97415023Y-92457500D01*
X97446546Y-92395145D01*
X97465842Y-92378425D01*
X97488026Y-92362891D01*
X97651401Y-92248495D01*
X97818495Y-92081401D01*
X97954035Y-91887830D01*
X98053903Y-91673663D01*
X98115063Y-91445408D01*
X98135659Y-91210000D01*
X98115063Y-90974592D01*
X98053903Y-90746337D01*
X97954035Y-90532171D01*
X97915964Y-90477799D01*
X97818494Y-90338597D01*
X97651402Y-90171506D01*
X97651396Y-90171501D01*
X97465842Y-90041575D01*
X97422217Y-89986998D01*
X97415023Y-89917500D01*
X97446546Y-89855145D01*
X97465842Y-89838425D01*
X97488026Y-89822891D01*
X97651401Y-89708495D01*
X97818495Y-89541401D01*
X97954035Y-89347830D01*
X98053903Y-89133663D01*
X98115063Y-88905408D01*
X98135659Y-88670000D01*
X98115063Y-88434592D01*
X98053903Y-88206337D01*
X97954035Y-87992171D01*
X97882003Y-87889297D01*
X97818494Y-87798597D01*
X97651402Y-87631506D01*
X97651396Y-87631501D01*
X97465842Y-87501575D01*
X97422217Y-87446998D01*
X97415023Y-87377500D01*
X97446546Y-87315145D01*
X97465842Y-87298425D01*
X97488026Y-87282891D01*
X97651401Y-87168495D01*
X97818495Y-87001401D01*
X97954035Y-86807830D01*
X98053903Y-86593663D01*
X98115063Y-86365408D01*
X98135659Y-86130000D01*
X98115063Y-85894592D01*
X98080671Y-85766239D01*
X98082334Y-85696393D01*
X98112763Y-85646470D01*
X102221045Y-81538189D01*
X102233230Y-81527503D01*
X102258282Y-81508282D01*
X102354536Y-81382841D01*
X102415044Y-81236762D01*
X102430500Y-81119361D01*
X102435682Y-81080000D01*
X102431561Y-81048697D01*
X102430500Y-81032512D01*
X102430500Y-73065783D01*
X102450185Y-72998744D01*
X102466819Y-72978102D01*
X103783102Y-71661819D01*
X103844425Y-71628334D01*
X103870783Y-71625500D01*
X142052513Y-71625500D01*
X142068697Y-71626560D01*
X142100000Y-71630682D01*
X142100001Y-71630682D01*
X142167595Y-71621783D01*
X142256762Y-71610044D01*
X142402841Y-71549536D01*
X142528282Y-71453282D01*
X142547509Y-71428223D01*
X142558190Y-71416043D01*
X142866043Y-71108190D01*
X142878223Y-71097509D01*
X142903282Y-71078282D01*
X142943536Y-71025820D01*
X142999962Y-70984618D01*
X143069708Y-70980463D01*
X143077908Y-70982647D01*
X143084406Y-70984618D01*
X143253868Y-71036024D01*
X143450000Y-71055341D01*
X143646132Y-71036024D01*
X143834727Y-70978814D01*
X144008538Y-70885910D01*
X144160883Y-70760883D01*
X144210469Y-70700463D01*
X144229147Y-70677704D01*
X144286893Y-70638370D01*
X144356737Y-70636499D01*
X144416506Y-70672687D01*
X144420853Y-70677704D01*
X144489116Y-70760883D01*
X144641460Y-70885909D01*
X144641467Y-70885913D01*
X144815266Y-70978811D01*
X144815269Y-70978811D01*
X144815273Y-70978814D01*
X145003868Y-71036024D01*
X145200000Y-71055341D01*
X145283745Y-71047092D01*
X145352389Y-71060110D01*
X145383579Y-71082814D01*
X145916799Y-71616034D01*
X145927493Y-71628228D01*
X145946715Y-71653279D01*
X145946716Y-71653280D01*
X145946718Y-71653282D01*
X146072159Y-71749536D01*
X146218238Y-71810044D01*
X146296619Y-71820363D01*
X146374999Y-71830682D01*
X146375000Y-71830682D01*
X146406302Y-71826560D01*
X146422487Y-71825500D01*
X174314903Y-71825500D01*
X174381942Y-71845185D01*
X174402584Y-71861819D01*
X174582224Y-72041459D01*
X174615709Y-72102782D01*
X174610725Y-72172474D01*
X174568853Y-72228407D01*
X174503389Y-72252824D01*
X174494543Y-72253140D01*
X104905121Y-72253140D01*
X104904915Y-72253099D01*
X104880359Y-72253099D01*
X104880168Y-72253178D01*
X104879980Y-72253255D01*
X104879976Y-72253258D01*
X104879820Y-72253639D01*
X104879837Y-72278256D01*
X104879832Y-72278256D01*
X104879861Y-72278399D01*
X104879861Y-122829107D01*
X104879777Y-122829529D01*
X104879820Y-122853640D01*
X104879861Y-122853739D01*
X104879978Y-122854023D01*
X104879979Y-122854024D01*
X104880169Y-122854102D01*
X104880361Y-122854181D01*
X104880363Y-122854179D01*
X104904977Y-122854164D01*
X104904977Y-122854168D01*
X104905121Y-122854140D01*
X125467558Y-122854140D01*
X125534597Y-122873825D01*
X125580352Y-122926629D01*
X125590296Y-122995787D01*
X125561271Y-123059343D01*
X125545594Y-123074506D01*
X125377493Y-123210631D01*
X125377485Y-123210638D01*
X125110638Y-123477485D01*
X125110631Y-123477493D01*
X124873135Y-123770776D01*
X124667599Y-124087274D01*
X124496267Y-124423531D01*
X124361023Y-124775852D01*
X124263347Y-125140385D01*
X124263346Y-125140392D01*
X124204310Y-125513127D01*
X124184559Y-125889999D01*
X124184559Y-125890000D01*
X124204310Y-126266872D01*
X124263346Y-126639607D01*
X124263347Y-126639614D01*
X124361023Y-127004147D01*
X124496267Y-127356468D01*
X124667599Y-127692724D01*
X124873135Y-128009223D01*
X125013587Y-128182667D01*
X125110635Y-128302511D01*
X125377489Y-128569365D01*
X125515361Y-128681011D01*
X125670776Y-128806864D01*
X125946396Y-128985853D01*
X125987280Y-129012403D01*
X126323535Y-129183734D01*
X126675857Y-129318978D01*
X127040387Y-129416653D01*
X127413129Y-129475690D01*
X127695720Y-129490500D01*
X127695739Y-129490500D01*
X127884261Y-129490500D01*
X127884280Y-129490500D01*
X128166871Y-129475690D01*
X128539613Y-129416653D01*
X128904143Y-129318978D01*
X129256465Y-129183734D01*
X129592720Y-129012403D01*
X129909225Y-128806863D01*
X130202511Y-128569365D01*
X130469365Y-128302511D01*
X130706863Y-128009225D01*
X130912403Y-127692721D01*
X131083734Y-127356465D01*
X131218978Y-127004143D01*
X131316653Y-126639613D01*
X131375690Y-126266871D01*
X131395441Y-125890000D01*
X131375690Y-125513129D01*
X131316653Y-125140387D01*
X131218978Y-124775857D01*
X131083734Y-124423535D01*
X130912403Y-124087280D01*
X130706863Y-123770775D01*
X130469365Y-123477489D01*
X130202511Y-123210635D01*
X130185636Y-123196969D01*
X130034406Y-123074506D01*
X129994695Y-123017019D01*
X129992367Y-122947188D01*
X130028162Y-122887184D01*
X130090716Y-122856058D01*
X130112442Y-122854140D01*
X156467558Y-122854140D01*
X156534597Y-122873825D01*
X156580352Y-122926629D01*
X156590296Y-122995787D01*
X156561271Y-123059343D01*
X156545594Y-123074506D01*
X156377493Y-123210631D01*
X156377485Y-123210638D01*
X156110638Y-123477485D01*
X156110631Y-123477493D01*
X155873135Y-123770776D01*
X155667599Y-124087274D01*
X155496267Y-124423531D01*
X155361023Y-124775852D01*
X155263347Y-125140385D01*
X155263346Y-125140392D01*
X155204310Y-125513127D01*
X155184559Y-125889999D01*
X155184559Y-125890000D01*
X155204310Y-126266872D01*
X155263346Y-126639607D01*
X155263347Y-126639614D01*
X155361023Y-127004147D01*
X155496267Y-127356468D01*
X155667599Y-127692724D01*
X155873135Y-128009223D01*
X156013587Y-128182667D01*
X156110635Y-128302511D01*
X156377489Y-128569365D01*
X156515361Y-128681011D01*
X156670776Y-128806864D01*
X156946396Y-128985853D01*
X156987280Y-129012403D01*
X157323535Y-129183734D01*
X157675857Y-129318978D01*
X158040387Y-129416653D01*
X158413129Y-129475690D01*
X158695720Y-129490500D01*
X158695739Y-129490500D01*
X158884261Y-129490500D01*
X158884280Y-129490500D01*
X159166871Y-129475690D01*
X159539613Y-129416653D01*
X159904143Y-129318978D01*
X160256465Y-129183734D01*
X160592720Y-129012403D01*
X160909225Y-128806863D01*
X161202511Y-128569365D01*
X161469365Y-128302511D01*
X161706863Y-128009225D01*
X161912403Y-127692721D01*
X162083734Y-127356465D01*
X162218978Y-127004143D01*
X162316653Y-126639613D01*
X162375690Y-126266871D01*
X162395441Y-125890000D01*
X162375690Y-125513129D01*
X162316653Y-125140387D01*
X162218978Y-124775857D01*
X162083734Y-124423535D01*
X161912403Y-124087280D01*
X161706863Y-123770775D01*
X161469365Y-123477489D01*
X161202511Y-123210635D01*
X161185636Y-123196969D01*
X161034406Y-123074506D01*
X160994695Y-123017019D01*
X160992367Y-122947188D01*
X161028162Y-122887184D01*
X161090716Y-122856058D01*
X161112442Y-122854140D01*
X174575500Y-122854140D01*
X174642539Y-122873825D01*
X174688294Y-122926629D01*
X174699500Y-122978140D01*
X174699500Y-130924902D01*
X174679815Y-130991941D01*
X174663181Y-131012583D01*
X171122582Y-134553181D01*
X171061259Y-134586666D01*
X171034901Y-134589500D01*
X169809998Y-134589500D01*
X169809981Y-134589501D01*
X169707203Y-134600000D01*
X169707200Y-134600001D01*
X169540668Y-134655185D01*
X169540663Y-134655187D01*
X169391342Y-134747289D01*
X169267289Y-134871342D01*
X169171821Y-135026121D01*
X169119873Y-135072845D01*
X169050910Y-135084068D01*
X168986828Y-135056224D01*
X168978601Y-135048705D01*
X168831402Y-134901506D01*
X168831395Y-134901501D01*
X168637834Y-134765967D01*
X168637830Y-134765965D01*
X168597777Y-134747288D01*
X168423663Y-134666097D01*
X168423659Y-134666096D01*
X168423655Y-134666094D01*
X168195413Y-134604938D01*
X168195403Y-134604936D01*
X167960001Y-134584341D01*
X167959999Y-134584341D01*
X167724596Y-134604936D01*
X167724586Y-134604938D01*
X167496344Y-134666094D01*
X167496335Y-134666098D01*
X167282171Y-134765964D01*
X167282169Y-134765965D01*
X167088597Y-134901505D01*
X166921505Y-135068597D01*
X166811575Y-135225595D01*
X166756998Y-135269220D01*
X166687500Y-135276414D01*
X166625145Y-135244891D01*
X166608425Y-135225595D01*
X166498494Y-135068597D01*
X166331402Y-134901506D01*
X166331395Y-134901501D01*
X166137834Y-134765967D01*
X166137830Y-134765965D01*
X166097777Y-134747288D01*
X165923663Y-134666097D01*
X165923659Y-134666096D01*
X165923655Y-134666094D01*
X165695413Y-134604938D01*
X165695403Y-134604936D01*
X165460001Y-134584341D01*
X165459999Y-134584341D01*
X165224596Y-134604936D01*
X165224586Y-134604938D01*
X164996344Y-134666094D01*
X164996335Y-134666098D01*
X164782171Y-134765964D01*
X164782169Y-134765965D01*
X164588597Y-134901505D01*
X164421508Y-135068594D01*
X164311269Y-135226032D01*
X164256692Y-135269656D01*
X164187193Y-135276849D01*
X164124839Y-135245327D01*
X164108119Y-135226031D01*
X163998113Y-135068926D01*
X163998108Y-135068920D01*
X163831082Y-134901894D01*
X163637578Y-134766399D01*
X163423492Y-134666570D01*
X163423486Y-134666567D01*
X163210000Y-134609364D01*
X163210000Y-135656981D01*
X163095199Y-135604554D01*
X162993975Y-135590000D01*
X162926025Y-135590000D01*
X162824801Y-135604554D01*
X162710000Y-135656981D01*
X162710000Y-134609364D01*
X162709999Y-134609364D01*
X162496513Y-134666567D01*
X162496507Y-134666570D01*
X162282422Y-134766399D01*
X162282420Y-134766400D01*
X162088926Y-134901886D01*
X162088920Y-134901891D01*
X161921891Y-135068920D01*
X161921886Y-135068926D01*
X161786400Y-135262420D01*
X161786399Y-135262422D01*
X161686570Y-135476507D01*
X161686566Y-135476516D01*
X161625432Y-135704673D01*
X161625430Y-135704683D01*
X161615779Y-135815000D01*
X162556031Y-135815000D01*
X162523481Y-135865649D01*
X162485000Y-135996705D01*
X162485000Y-136133295D01*
X162523481Y-136264351D01*
X162556031Y-136315000D01*
X161615779Y-136315000D01*
X161625430Y-136425316D01*
X161625432Y-136425326D01*
X161686566Y-136653483D01*
X161686570Y-136653492D01*
X161786399Y-136867577D01*
X161786400Y-136867579D01*
X161921886Y-137061073D01*
X161921891Y-137061079D01*
X162088917Y-137228105D01*
X162282421Y-137363600D01*
X162496507Y-137463429D01*
X162496516Y-137463433D01*
X162710000Y-137520634D01*
X162710000Y-136473018D01*
X162824801Y-136525446D01*
X162926025Y-136540000D01*
X162993975Y-136540000D01*
X163095199Y-136525446D01*
X163210000Y-136473018D01*
X163210000Y-137520633D01*
X163423483Y-137463433D01*
X163423492Y-137463429D01*
X163637577Y-137363600D01*
X163637579Y-137363599D01*
X163831073Y-137228113D01*
X163831079Y-137228108D01*
X163998108Y-137061079D01*
X163998113Y-137061073D01*
X164108119Y-136903967D01*
X164162695Y-136860342D01*
X164232194Y-136853148D01*
X164294549Y-136884670D01*
X164311269Y-136903967D01*
X164421505Y-137061402D01*
X164588209Y-137228105D01*
X164588599Y-137228495D01*
X164631675Y-137258657D01*
X164782165Y-137364032D01*
X164782167Y-137364033D01*
X164782170Y-137364035D01*
X164996337Y-137463903D01*
X165224592Y-137525063D01*
X165401034Y-137540500D01*
X165459999Y-137545659D01*
X165460000Y-137545659D01*
X165460001Y-137545659D01*
X165518966Y-137540500D01*
X165695408Y-137525063D01*
X165923663Y-137463903D01*
X166137829Y-137364035D01*
X166331401Y-137228495D01*
X166498495Y-137061401D01*
X166608426Y-136904401D01*
X166663001Y-136860778D01*
X166732500Y-136853584D01*
X166794855Y-136885106D01*
X166811571Y-136904398D01*
X166838457Y-136942795D01*
X166921506Y-137061403D01*
X167088209Y-137228105D01*
X167088599Y-137228495D01*
X167131675Y-137258657D01*
X167282165Y-137364032D01*
X167282167Y-137364033D01*
X167282170Y-137364035D01*
X167496337Y-137463903D01*
X167724592Y-137525063D01*
X167901034Y-137540500D01*
X167959999Y-137545659D01*
X167960000Y-137545659D01*
X167960001Y-137545659D01*
X168018966Y-137540500D01*
X168195408Y-137525063D01*
X168423663Y-137463903D01*
X168637829Y-137364035D01*
X168831401Y-137228495D01*
X168978602Y-137081293D01*
X169039924Y-137047810D01*
X169109615Y-137052794D01*
X169165549Y-137094665D01*
X169171821Y-137103879D01*
X169175186Y-137109334D01*
X169267288Y-137258656D01*
X169391344Y-137382712D01*
X169540666Y-137474814D01*
X169707203Y-137529999D01*
X169809991Y-137540500D01*
X171110008Y-137540499D01*
X171212797Y-137529999D01*
X171379334Y-137474814D01*
X171528656Y-137382712D01*
X171652712Y-137258656D01*
X171744814Y-137109334D01*
X171799999Y-136942797D01*
X171810500Y-136840009D01*
X171810499Y-135615095D01*
X171830184Y-135548057D01*
X171846813Y-135527420D01*
X175691043Y-131683190D01*
X175703223Y-131672509D01*
X175728282Y-131653282D01*
X175824536Y-131527841D01*
X175885044Y-131381762D01*
X175899059Y-131275304D01*
X175905682Y-131225000D01*
X175901561Y-131193697D01*
X175900500Y-131177512D01*
X175900500Y-130343678D01*
X181849500Y-130343678D01*
X181888629Y-130628357D01*
X181888630Y-130628364D01*
X181929877Y-130775578D01*
X181966156Y-130905058D01*
X181966157Y-130905061D01*
X181966158Y-130905063D01*
X181966158Y-130905064D01*
X182080634Y-131168617D01*
X182229944Y-131414146D01*
X182263571Y-131455479D01*
X182411292Y-131637053D01*
X182537105Y-131754554D01*
X182621299Y-131833187D01*
X182621302Y-131833189D01*
X182856064Y-131998901D01*
X183111203Y-132131104D01*
X183381968Y-132227334D01*
X183663314Y-132285798D01*
X183878248Y-132300500D01*
X183878255Y-132300500D01*
X184021745Y-132300500D01*
X184021752Y-132300500D01*
X184236686Y-132285798D01*
X184518032Y-132227334D01*
X184788797Y-132131104D01*
X185043936Y-131998901D01*
X185278698Y-131833189D01*
X185488708Y-131637053D01*
X185670055Y-131414147D01*
X185819361Y-131168625D01*
X185819363Y-131168620D01*
X185819365Y-131168617D01*
X185896105Y-130991941D01*
X185933844Y-130905058D01*
X186011371Y-130628358D01*
X186050500Y-130343678D01*
X186050500Y-130056322D01*
X186011371Y-129771642D01*
X185933844Y-129494942D01*
X185925481Y-129475689D01*
X185819365Y-129231382D01*
X185790388Y-129183732D01*
X185670055Y-128985853D01*
X185488708Y-128762947D01*
X185369831Y-128651923D01*
X185278700Y-128566812D01*
X185043935Y-128401098D01*
X184788793Y-128268894D01*
X184518037Y-128172667D01*
X184518034Y-128172666D01*
X184341509Y-128135984D01*
X184236686Y-128114202D01*
X184236684Y-128114201D01*
X184236680Y-128114201D01*
X184118070Y-128106088D01*
X184021752Y-128099500D01*
X183878248Y-128099500D01*
X183787724Y-128105691D01*
X183663319Y-128114201D01*
X183381965Y-128172666D01*
X183381962Y-128172667D01*
X183111206Y-128268894D01*
X182856064Y-128401098D01*
X182621299Y-128566812D01*
X182411289Y-128762950D01*
X182229944Y-128985853D01*
X182080634Y-129231382D01*
X181966158Y-129494935D01*
X181966158Y-129494936D01*
X181888630Y-129771635D01*
X181888629Y-129771642D01*
X181849500Y-130056321D01*
X181849500Y-130343678D01*
X175900500Y-130343678D01*
X175900500Y-98820000D01*
X176424341Y-98820000D01*
X176444936Y-99055403D01*
X176444938Y-99055413D01*
X176506094Y-99283655D01*
X176506096Y-99283659D01*
X176506097Y-99283663D01*
X176555982Y-99390641D01*
X176605965Y-99497830D01*
X176605967Y-99497834D01*
X176618413Y-99515608D01*
X176741501Y-99691396D01*
X176741506Y-99691402D01*
X176863430Y-99813326D01*
X176896915Y-99874649D01*
X176891931Y-99944341D01*
X176850059Y-100000274D01*
X176819083Y-100017189D01*
X176687669Y-100066203D01*
X176687664Y-100066206D01*
X176572455Y-100152452D01*
X176572452Y-100152455D01*
X176486206Y-100267664D01*
X176486202Y-100267671D01*
X176435908Y-100402517D01*
X176429501Y-100462116D01*
X176429501Y-100462123D01*
X176429500Y-100462135D01*
X176429500Y-102257870D01*
X176429501Y-102257876D01*
X176435908Y-102317483D01*
X176486202Y-102452328D01*
X176486206Y-102452335D01*
X176572452Y-102567544D01*
X176572455Y-102567547D01*
X176687664Y-102653793D01*
X176687671Y-102653797D01*
X176822517Y-102704091D01*
X176822516Y-102704091D01*
X176829444Y-102704835D01*
X176882127Y-102710500D01*
X178677872Y-102710499D01*
X178737483Y-102704091D01*
X178872331Y-102653796D01*
X178987546Y-102567546D01*
X179073796Y-102452331D01*
X179124091Y-102317483D01*
X179130500Y-102257873D01*
X179130499Y-100462128D01*
X179124091Y-100402517D01*
X179097605Y-100331505D01*
X179073797Y-100267671D01*
X179073793Y-100267664D01*
X178987547Y-100152455D01*
X178987544Y-100152452D01*
X178872335Y-100066206D01*
X178872328Y-100066202D01*
X178740917Y-100017189D01*
X178684983Y-99975318D01*
X178660566Y-99909853D01*
X178675418Y-99841580D01*
X178696563Y-99813332D01*
X178818495Y-99691401D01*
X178954035Y-99497830D01*
X179053903Y-99283663D01*
X179115063Y-99055408D01*
X179135659Y-98820000D01*
X179115063Y-98584592D01*
X179056584Y-98366344D01*
X179053905Y-98356344D01*
X179053904Y-98356343D01*
X179053903Y-98356337D01*
X178954035Y-98142171D01*
X178818495Y-97948599D01*
X178818494Y-97948597D01*
X178651402Y-97781506D01*
X178651396Y-97781501D01*
X178465842Y-97651575D01*
X178422217Y-97596998D01*
X178415023Y-97527500D01*
X178446546Y-97465145D01*
X178465842Y-97448425D01*
X178637115Y-97328498D01*
X178651401Y-97318495D01*
X178818495Y-97151401D01*
X178954035Y-96957830D01*
X179053903Y-96743663D01*
X179115063Y-96515408D01*
X179135659Y-96280000D01*
X179115063Y-96044592D01*
X179056584Y-95826344D01*
X179053905Y-95816344D01*
X179053904Y-95816343D01*
X179053903Y-95816337D01*
X178954035Y-95602171D01*
X178908514Y-95537159D01*
X178818494Y-95408597D01*
X178651402Y-95241506D01*
X178651396Y-95241501D01*
X178465842Y-95111575D01*
X178422217Y-95056998D01*
X178415023Y-94987500D01*
X178446546Y-94925145D01*
X178465842Y-94908425D01*
X178637115Y-94788498D01*
X178651401Y-94778495D01*
X178818495Y-94611401D01*
X178954035Y-94417830D01*
X179053903Y-94203663D01*
X179115063Y-93975408D01*
X179135659Y-93740000D01*
X179115063Y-93504592D01*
X179056584Y-93286344D01*
X179053905Y-93276344D01*
X179053904Y-93276343D01*
X179053903Y-93276337D01*
X178954035Y-93062171D01*
X178818495Y-92868599D01*
X178818494Y-92868597D01*
X178651402Y-92701506D01*
X178651395Y-92701501D01*
X178457834Y-92565967D01*
X178457830Y-92565965D01*
X178374265Y-92526998D01*
X178243663Y-92466097D01*
X178243659Y-92466096D01*
X178243655Y-92466094D01*
X178015413Y-92404938D01*
X178015403Y-92404936D01*
X177780001Y-92384341D01*
X177779999Y-92384341D01*
X177544596Y-92404936D01*
X177544586Y-92404938D01*
X177316344Y-92466094D01*
X177316335Y-92466098D01*
X177102171Y-92565964D01*
X177102169Y-92565965D01*
X176908597Y-92701505D01*
X176741505Y-92868597D01*
X176605965Y-93062169D01*
X176605964Y-93062171D01*
X176506098Y-93276335D01*
X176506094Y-93276344D01*
X176444938Y-93504586D01*
X176444936Y-93504596D01*
X176424341Y-93739999D01*
X176424341Y-93740000D01*
X176444936Y-93975403D01*
X176444938Y-93975413D01*
X176506094Y-94203655D01*
X176506096Y-94203659D01*
X176506097Y-94203663D01*
X176590426Y-94384506D01*
X176605965Y-94417830D01*
X176605967Y-94417834D01*
X176741501Y-94611395D01*
X176741506Y-94611402D01*
X176908597Y-94778493D01*
X176908603Y-94778498D01*
X177094158Y-94908425D01*
X177137783Y-94963002D01*
X177144977Y-95032500D01*
X177113454Y-95094855D01*
X177094158Y-95111575D01*
X176908597Y-95241505D01*
X176741505Y-95408597D01*
X176605965Y-95602169D01*
X176605964Y-95602171D01*
X176506098Y-95816335D01*
X176506094Y-95816344D01*
X176444938Y-96044586D01*
X176444936Y-96044596D01*
X176424341Y-96279999D01*
X176424341Y-96280000D01*
X176444936Y-96515403D01*
X176444938Y-96515413D01*
X176506094Y-96743655D01*
X176506096Y-96743659D01*
X176506097Y-96743663D01*
X176510761Y-96753664D01*
X176605965Y-96957830D01*
X176605967Y-96957834D01*
X176741501Y-97151395D01*
X176741506Y-97151402D01*
X176908597Y-97318493D01*
X176908603Y-97318498D01*
X177094158Y-97448425D01*
X177137783Y-97503002D01*
X177144977Y-97572500D01*
X177113454Y-97634855D01*
X177094158Y-97651575D01*
X176908597Y-97781505D01*
X176741505Y-97948597D01*
X176605965Y-98142169D01*
X176605964Y-98142171D01*
X176506098Y-98356335D01*
X176506094Y-98356344D01*
X176444938Y-98584586D01*
X176444936Y-98584596D01*
X176424341Y-98819999D01*
X176424341Y-98820000D01*
X175900500Y-98820000D01*
X175900500Y-71957487D01*
X175901561Y-71941301D01*
X175905682Y-71909999D01*
X175905682Y-71909998D01*
X175885044Y-71753239D01*
X175885042Y-71753234D01*
X175883510Y-71749536D01*
X175832133Y-71625500D01*
X175824538Y-71607163D01*
X175824535Y-71607158D01*
X175807335Y-71584743D01*
X175752450Y-71513215D01*
X175738761Y-71495375D01*
X175728281Y-71481716D01*
X175703229Y-71462494D01*
X175691034Y-71451799D01*
X175073199Y-70833964D01*
X175062503Y-70821767D01*
X175043286Y-70796722D01*
X175043283Y-70796720D01*
X175043282Y-70796718D01*
X174917841Y-70700464D01*
X174870428Y-70680825D01*
X174771762Y-70639956D01*
X174771760Y-70639955D01*
X174615001Y-70619318D01*
X174615000Y-70619318D01*
X174583697Y-70623439D01*
X174567513Y-70624500D01*
X149706968Y-70624500D01*
X149639929Y-70604815D01*
X149594174Y-70552011D01*
X149584230Y-70482853D01*
X149597609Y-70442048D01*
X149628347Y-70384538D01*
X149685530Y-70196033D01*
X149704837Y-70000001D01*
X149685530Y-69803968D01*
X149628347Y-69615463D01*
X149562074Y-69491476D01*
X148787679Y-70265872D01*
X148726356Y-70299357D01*
X148656664Y-70294373D01*
X148612317Y-70265872D01*
X147830195Y-69483750D01*
X147791845Y-69478410D01*
X147747002Y-69444053D01*
X147660883Y-69339116D01*
X147577704Y-69270853D01*
X147538370Y-69213107D01*
X147536499Y-69143263D01*
X147539732Y-69137924D01*
X148191475Y-69137924D01*
X148699999Y-69646448D01*
X148700000Y-69646448D01*
X149208521Y-69137924D01*
X149084536Y-69071652D01*
X148896029Y-69014469D01*
X148896033Y-69014469D01*
X148699999Y-68995162D01*
X148503966Y-69014469D01*
X148315465Y-69071650D01*
X148191475Y-69137924D01*
X147539732Y-69137924D01*
X147572687Y-69083494D01*
X147577687Y-69079161D01*
X147660883Y-69010884D01*
X147785910Y-68858539D01*
X147878814Y-68684728D01*
X147936024Y-68496133D01*
X147955341Y-68300001D01*
X147936024Y-68103869D01*
X147878814Y-67915274D01*
X147878811Y-67915270D01*
X147878811Y-67915267D01*
X147786078Y-67741775D01*
X147771836Y-67673372D01*
X147796836Y-67608128D01*
X147807748Y-67595648D01*
X149291043Y-66112353D01*
X149303223Y-66101672D01*
X149328282Y-66082445D01*
X149424536Y-65957004D01*
X149485044Y-65810925D01*
X149500500Y-65693524D01*
X149505682Y-65654163D01*
X149501561Y-65622860D01*
X149500500Y-65606675D01*
X149500500Y-65476452D01*
X149520185Y-65409413D01*
X149532350Y-65393480D01*
X149533620Y-65392070D01*
X149632533Y-65282216D01*
X149727179Y-65118284D01*
X149785674Y-64938256D01*
X149805460Y-64750000D01*
X149785674Y-64561744D01*
X149727179Y-64381716D01*
X149632533Y-64217784D01*
X149505871Y-64077112D01*
X149488548Y-64064526D01*
X149352734Y-63965851D01*
X149352729Y-63965848D01*
X149179807Y-63888857D01*
X149179802Y-63888855D01*
X149034001Y-63857865D01*
X148994646Y-63849500D01*
X148805354Y-63849500D01*
X148772897Y-63856398D01*
X148620197Y-63888855D01*
X148620192Y-63888857D01*
X148447270Y-63965848D01*
X148447265Y-63965851D01*
X148294129Y-64077111D01*
X148167466Y-64217785D01*
X148154104Y-64240929D01*
X148099498Y-64335511D01*
X148069572Y-64387344D01*
X148067847Y-64386348D01*
X148028695Y-64432390D01*
X147961841Y-64452697D01*
X147894622Y-64433636D01*
X147848378Y-64381259D01*
X147846124Y-64376146D01*
X147844463Y-64372135D01*
X147778191Y-64248152D01*
X147269669Y-64756675D01*
X147269669Y-64756676D01*
X147778192Y-65265199D01*
X147844464Y-65141214D01*
X147844646Y-65140615D01*
X147844829Y-65140334D01*
X147846796Y-65135587D01*
X147847696Y-65135959D01*
X147882940Y-65082174D01*
X147946751Y-65053714D01*
X148015818Y-65064270D01*
X148068215Y-65110491D01*
X148070696Y-65114603D01*
X148167464Y-65282212D01*
X148167465Y-65282214D01*
X148167467Y-65282216D01*
X148209664Y-65329080D01*
X148239893Y-65392070D01*
X148231268Y-65461405D01*
X148205194Y-65499732D01*
X147035071Y-66669857D01*
X146973748Y-66703342D01*
X146947390Y-66706176D01*
X146813425Y-66706176D01*
X146746386Y-66686491D01*
X146725744Y-66669857D01*
X146070152Y-66014265D01*
X146048477Y-65985040D01*
X146002809Y-65899601D01*
X146002028Y-65898139D01*
X146002026Y-65898136D01*
X145877000Y-65745792D01*
X145793821Y-65677529D01*
X145770857Y-65643815D01*
X146406808Y-65643815D01*
X146916116Y-66153123D01*
X146916117Y-66153123D01*
X147425420Y-65643818D01*
X147425420Y-65619532D01*
X146916117Y-65110229D01*
X146916116Y-65110229D01*
X146406808Y-65619535D01*
X146406808Y-65643815D01*
X145770857Y-65643815D01*
X145754487Y-65619783D01*
X145752616Y-65549939D01*
X145788804Y-65490170D01*
X145793821Y-65485823D01*
X145846636Y-65442478D01*
X145877000Y-65417559D01*
X145963120Y-65312621D01*
X146020864Y-65273288D01*
X146048213Y-65271024D01*
X146562563Y-64756676D01*
X146562563Y-64756675D01*
X146070152Y-64264265D01*
X146048477Y-64235040D01*
X146002027Y-64148138D01*
X146002026Y-64148136D01*
X145877000Y-63995792D01*
X145753696Y-63894599D01*
X146407592Y-63894599D01*
X146916116Y-64403123D01*
X146916117Y-64403123D01*
X147424638Y-63894599D01*
X147300653Y-63828327D01*
X147112146Y-63771144D01*
X147112150Y-63771144D01*
X146916116Y-63751837D01*
X146720083Y-63771144D01*
X146531582Y-63828325D01*
X146407592Y-63894599D01*
X145753696Y-63894599D01*
X145724656Y-63870766D01*
X145724649Y-63870762D01*
X145550850Y-63777864D01*
X145550844Y-63777862D01*
X145425114Y-63739722D01*
X145362246Y-63720651D01*
X145166117Y-63701335D01*
X144969987Y-63720651D01*
X144781383Y-63777864D01*
X144607584Y-63870762D01*
X144607577Y-63870766D01*
X144455236Y-63995790D01*
X144386969Y-64078973D01*
X144329223Y-64118307D01*
X144259378Y-64120176D01*
X144199610Y-64083989D01*
X144195263Y-64078972D01*
X144126999Y-63995792D01*
X143974655Y-63870766D01*
X143974648Y-63870762D01*
X143800849Y-63777864D01*
X143800843Y-63777862D01*
X143675113Y-63739722D01*
X143612245Y-63720651D01*
X143416116Y-63701335D01*
X143219983Y-63720652D01*
X143129177Y-63748197D01*
X143059310Y-63748820D01*
X143000198Y-63711571D01*
X142970607Y-63648277D01*
X142970252Y-63645782D01*
X142960044Y-63568238D01*
X142913957Y-63456975D01*
X142899538Y-63422163D01*
X142899537Y-63422162D01*
X142899536Y-63422159D01*
X142881878Y-63399147D01*
X142803282Y-63296718D01*
X142803281Y-63296717D01*
X142778228Y-63277493D01*
X142766034Y-63266799D01*
X141265057Y-61765822D01*
X141231572Y-61704499D01*
X141236556Y-61634807D01*
X141278428Y-61578874D01*
X141343892Y-61554457D01*
X141352738Y-61554141D01*
X147492221Y-61554141D01*
X147493025Y-61554061D01*
X147567890Y-61554065D01*
X147740290Y-61523673D01*
X147904793Y-61463806D01*
X148056401Y-61376283D01*
X148190507Y-61263763D01*
X148303038Y-61129666D01*
X148390573Y-60978064D01*
X148450453Y-60813566D01*
X148480858Y-60641169D01*
X148480861Y-60553640D01*
X148480861Y-60553140D01*
X148480861Y-57970000D01*
X163394559Y-57970000D01*
X163414310Y-58346872D01*
X163473346Y-58719607D01*
X163473347Y-58719614D01*
X163571023Y-59084147D01*
X163706267Y-59436468D01*
X163877599Y-59772724D01*
X164083135Y-60089223D01*
X164259061Y-60306473D01*
X164320635Y-60382511D01*
X164587489Y-60649365D01*
X164643593Y-60694797D01*
X164880776Y-60886864D01*
X165197275Y-61092400D01*
X165197280Y-61092403D01*
X165533535Y-61263734D01*
X165885857Y-61398978D01*
X166250387Y-61496653D01*
X166623129Y-61555690D01*
X166905720Y-61570500D01*
X166905739Y-61570500D01*
X167094261Y-61570500D01*
X167094280Y-61570500D01*
X167376871Y-61555690D01*
X167749613Y-61496653D01*
X168114143Y-61398978D01*
X168466465Y-61263734D01*
X168802720Y-61092403D01*
X169119225Y-60886863D01*
X169412511Y-60649365D01*
X169679365Y-60382511D01*
X169916863Y-60089225D01*
X170122403Y-59772721D01*
X170293734Y-59436465D01*
X170428978Y-59084143D01*
X170526653Y-58719613D01*
X170585690Y-58346871D01*
X170605441Y-57970000D01*
X170585690Y-57593129D01*
X170526653Y-57220387D01*
X170428978Y-56855857D01*
X170293734Y-56503535D01*
X170122403Y-56167280D01*
X170122400Y-56167276D01*
X170122399Y-56167273D01*
X169916864Y-55850776D01*
X169679368Y-55557493D01*
X169679365Y-55557489D01*
X169412511Y-55290635D01*
X169315380Y-55211980D01*
X169119223Y-55053135D01*
X168802724Y-54847599D01*
X168466468Y-54676267D01*
X168114147Y-54541023D01*
X167749614Y-54443347D01*
X167749607Y-54443346D01*
X167376872Y-54384310D01*
X167094300Y-54369501D01*
X167094298Y-54369500D01*
X167094280Y-54369500D01*
X166905720Y-54369500D01*
X166905702Y-54369500D01*
X166905699Y-54369501D01*
X166623127Y-54384310D01*
X166250392Y-54443346D01*
X166250385Y-54443347D01*
X165885852Y-54541023D01*
X165533531Y-54676267D01*
X165197275Y-54847599D01*
X164880776Y-55053135D01*
X164587493Y-55290631D01*
X164587485Y-55290638D01*
X164320638Y-55557485D01*
X164320631Y-55557493D01*
X164083135Y-55850776D01*
X163877599Y-56167274D01*
X163706267Y-56503531D01*
X163571023Y-56855852D01*
X163473347Y-57220385D01*
X163473346Y-57220392D01*
X163414310Y-57593127D01*
X163394559Y-57969999D01*
X163394559Y-57970000D01*
X148480861Y-57970000D01*
X148480861Y-52553541D01*
X148480861Y-52543545D01*
X148480860Y-52543535D01*
X148480864Y-52466107D01*
X148450469Y-52293699D01*
X148390596Y-52129189D01*
X148303065Y-51977575D01*
X148303063Y-51977573D01*
X148303063Y-51977572D01*
X148190535Y-51843465D01*
X148056427Y-51730936D01*
X148056425Y-51730935D01*
X148026534Y-51713678D01*
X158189500Y-51713678D01*
X158227254Y-51988357D01*
X158228629Y-51998357D01*
X158228630Y-51998364D01*
X158244181Y-52053865D01*
X158306156Y-52275058D01*
X158306157Y-52275061D01*
X158306158Y-52275063D01*
X158306158Y-52275064D01*
X158420634Y-52538617D01*
X158563863Y-52774147D01*
X158569945Y-52784147D01*
X158751292Y-53007053D01*
X158870144Y-53118053D01*
X158961299Y-53203187D01*
X159181897Y-53358901D01*
X159196064Y-53368901D01*
X159451203Y-53501104D01*
X159451206Y-53501105D01*
X159716807Y-53595500D01*
X159721968Y-53597334D01*
X160003314Y-53655798D01*
X160218248Y-53670500D01*
X160218255Y-53670500D01*
X160361745Y-53670500D01*
X160361752Y-53670500D01*
X160576686Y-53655798D01*
X160858032Y-53597334D01*
X161128797Y-53501104D01*
X161383936Y-53368901D01*
X161618698Y-53203189D01*
X161828708Y-53007053D01*
X162010055Y-52784147D01*
X162159361Y-52538625D01*
X162159363Y-52538620D01*
X162159365Y-52538617D01*
X162265747Y-52293699D01*
X162273844Y-52275058D01*
X162351371Y-51998358D01*
X162390500Y-51713678D01*
X162390500Y-51426322D01*
X162351371Y-51141642D01*
X162273844Y-50864942D01*
X162254803Y-50821104D01*
X162159365Y-50601382D01*
X162111813Y-50523187D01*
X162010055Y-50355853D01*
X161828708Y-50132947D01*
X161650981Y-49966961D01*
X161618700Y-49936812D01*
X161383935Y-49771098D01*
X161128793Y-49638894D01*
X160858037Y-49542667D01*
X160858034Y-49542666D01*
X160622672Y-49493758D01*
X160576686Y-49484202D01*
X160576684Y-49484201D01*
X160576680Y-49484201D01*
X160458070Y-49476088D01*
X160361752Y-49469500D01*
X160218248Y-49469500D01*
X160127724Y-49475691D01*
X160003319Y-49484201D01*
X159721965Y-49542666D01*
X159721962Y-49542667D01*
X159451206Y-49638894D01*
X159196064Y-49771098D01*
X158961299Y-49936812D01*
X158751289Y-50132950D01*
X158569944Y-50355853D01*
X158420634Y-50601382D01*
X158306158Y-50864935D01*
X158306158Y-50864936D01*
X158306156Y-50864939D01*
X158306156Y-50864942D01*
X158291477Y-50917332D01*
X158228630Y-51141635D01*
X158228629Y-51141642D01*
X158190875Y-51416321D01*
X158189500Y-51426322D01*
X158189500Y-51713678D01*
X148026534Y-51713678D01*
X147904812Y-51643404D01*
X147825138Y-51614407D01*
X147740302Y-51583531D01*
X147740299Y-51583530D01*
X147740298Y-51583530D01*
X147567895Y-51553137D01*
X147567894Y-51553137D01*
X147480361Y-51553140D01*
X139131801Y-51553140D01*
X139131525Y-51553059D01*
X138992824Y-51553063D01*
X138992821Y-51553064D01*
X138820413Y-51583471D01*
X138655903Y-51643356D01*
X138655895Y-51643359D01*
X138504293Y-51730896D01*
X138504290Y-51730898D01*
X138504245Y-51730936D01*
X138370183Y-51843436D01*
X138370181Y-51843437D01*
X138257654Y-51977553D01*
X138170121Y-52129178D01*
X138170117Y-52129187D01*
X138110253Y-52293681D01*
X138110251Y-52293690D01*
X138079857Y-52466101D01*
X138079857Y-52466103D01*
X138079861Y-52553641D01*
X138079861Y-59963823D01*
X138060176Y-60030862D01*
X138007372Y-60076617D01*
X137938214Y-60086561D01*
X137874658Y-60057536D01*
X137868180Y-60051504D01*
X131586819Y-53770143D01*
X131553334Y-53708820D01*
X131550500Y-53682462D01*
X131550500Y-47139900D01*
X131570185Y-47072861D01*
X131586814Y-47052224D01*
X135059378Y-43579659D01*
X135120699Y-43546176D01*
X135190391Y-43551160D01*
X135246324Y-43593032D01*
X135264392Y-43627235D01*
X135267662Y-43636802D01*
X135365726Y-43803390D01*
X135365727Y-43803392D01*
X135365729Y-43803394D01*
X135495323Y-43946834D01*
X135495324Y-43946835D01*
X135651134Y-44061249D01*
X135651133Y-44061249D01*
X135651138Y-44061251D01*
X135651139Y-44061252D01*
X135826797Y-44141961D01*
X135826799Y-44141961D01*
X135826803Y-44141963D01*
X135999954Y-44182144D01*
X136060809Y-44216473D01*
X136093443Y-44278253D01*
X136094930Y-44287268D01*
X136103161Y-44351898D01*
X136103164Y-44351910D01*
X136165686Y-44534827D01*
X136263751Y-44701416D01*
X136263752Y-44701418D01*
X136263754Y-44701420D01*
X136393348Y-44844860D01*
X136393349Y-44844861D01*
X136549159Y-44959275D01*
X136549166Y-44959279D01*
X136654628Y-45007736D01*
X136707327Y-45053612D01*
X136726857Y-45120697D01*
X136707018Y-45187690D01*
X136690538Y-45208092D01*
X135857228Y-46041402D01*
X135795905Y-46074887D01*
X135795329Y-46075011D01*
X135730196Y-46088856D01*
X135730192Y-46088857D01*
X135557270Y-46165848D01*
X135557265Y-46165851D01*
X135404129Y-46277111D01*
X135277466Y-46417785D01*
X135182821Y-46581715D01*
X135182818Y-46581722D01*
X135128597Y-46748598D01*
X135124326Y-46761744D01*
X135104540Y-46950000D01*
X135124326Y-47138256D01*
X135124327Y-47138259D01*
X135182821Y-47318285D01*
X135228844Y-47398000D01*
X135245317Y-47465901D01*
X135228844Y-47522000D01*
X135182821Y-47601714D01*
X135128156Y-47769956D01*
X135124326Y-47781744D01*
X135104540Y-47970000D01*
X135124326Y-48158256D01*
X135124327Y-48158259D01*
X135182818Y-48338277D01*
X135182821Y-48338284D01*
X135277467Y-48502216D01*
X135377860Y-48613713D01*
X135404129Y-48642888D01*
X135557265Y-48754148D01*
X135557270Y-48754151D01*
X135730192Y-48831142D01*
X135730197Y-48831144D01*
X135915354Y-48870500D01*
X135915355Y-48870500D01*
X136104644Y-48870500D01*
X136104646Y-48870500D01*
X136289803Y-48831144D01*
X136462730Y-48754151D01*
X136473506Y-48746322D01*
X136476452Y-48744182D01*
X136542258Y-48720702D01*
X136549337Y-48720500D01*
X140320274Y-48720500D01*
X140338244Y-48721809D01*
X140362002Y-48725289D01*
X140411348Y-48720971D01*
X140422155Y-48720500D01*
X140427682Y-48720500D01*
X140427688Y-48720500D01*
X140453711Y-48717457D01*
X140522578Y-48729222D01*
X140574156Y-48776355D01*
X140591114Y-48824948D01*
X140593290Y-48842033D01*
X140655814Y-49024955D01*
X140753879Y-49191544D01*
X140753880Y-49191546D01*
X140753882Y-49191548D01*
X140868451Y-49318358D01*
X140883477Y-49334989D01*
X141039287Y-49449403D01*
X141039286Y-49449403D01*
X141039291Y-49449405D01*
X141039292Y-49449406D01*
X141214950Y-49530115D01*
X141214953Y-49530115D01*
X141214954Y-49530116D01*
X141403257Y-49573814D01*
X141596503Y-49578711D01*
X141596503Y-49578710D01*
X141596509Y-49578711D01*
X141770031Y-49547609D01*
X141786786Y-49544607D01*
X141786786Y-49544606D01*
X141786791Y-49544606D01*
X141966311Y-49472897D01*
X141966318Y-49472892D01*
X141966321Y-49472891D01*
X142127720Y-49366519D01*
X142127722Y-49366518D01*
X142129440Y-49364800D01*
X144518751Y-49364800D01*
X144590591Y-49423379D01*
X144761849Y-49512836D01*
X144947597Y-49565985D01*
X144947603Y-49565986D01*
X145140256Y-49580659D01*
X145140257Y-49580659D01*
X145331913Y-49556250D01*
X145331924Y-49556247D01*
X145514741Y-49493758D01*
X145514748Y-49493755D01*
X145587420Y-49450974D01*
X145587420Y-49450973D01*
X145010001Y-48873553D01*
X145010000Y-48873553D01*
X144518751Y-49364800D01*
X142129440Y-49364800D01*
X142583709Y-48910531D01*
X142675251Y-48798264D01*
X142764754Y-48626919D01*
X142817934Y-48441065D01*
X142821127Y-48399131D01*
X142823813Y-48363866D01*
X142848531Y-48298515D01*
X142904656Y-48256901D01*
X142974370Y-48252237D01*
X142983998Y-48254788D01*
X143059664Y-48278128D01*
X143059665Y-48278128D01*
X143059668Y-48278129D01*
X143326499Y-48318347D01*
X143326504Y-48318347D01*
X143326507Y-48318348D01*
X143326508Y-48318348D01*
X143596364Y-48318348D01*
X143596365Y-48318348D01*
X143811248Y-48285959D01*
X143880467Y-48295432D01*
X143933582Y-48340826D01*
X143953722Y-48407730D01*
X143953685Y-48411715D01*
X143951791Y-48486440D01*
X143951791Y-48486442D01*
X143985876Y-48676618D01*
X143985878Y-48676624D01*
X144057549Y-48856048D01*
X144057553Y-48856055D01*
X144161964Y-49014480D01*
X144161965Y-49014480D01*
X144656445Y-48520001D01*
X145363553Y-48520001D01*
X145943712Y-49100160D01*
X145943713Y-49100159D01*
X145978855Y-49023678D01*
X181849500Y-49023678D01*
X181882278Y-49262155D01*
X181888629Y-49308357D01*
X181888630Y-49308364D01*
X181920856Y-49423379D01*
X181966156Y-49585058D01*
X181966157Y-49585061D01*
X181966158Y-49585063D01*
X181966158Y-49585064D01*
X182080634Y-49848617D01*
X182229944Y-50094146D01*
X182253375Y-50122947D01*
X182411292Y-50317053D01*
X182537105Y-50434554D01*
X182621299Y-50513187D01*
X182621302Y-50513189D01*
X182856064Y-50678901D01*
X183111203Y-50811104D01*
X183111206Y-50811105D01*
X183262671Y-50864936D01*
X183381968Y-50907334D01*
X183663314Y-50965798D01*
X183878248Y-50980500D01*
X183878255Y-50980500D01*
X184021745Y-50980500D01*
X184021752Y-50980500D01*
X184236686Y-50965798D01*
X184518032Y-50907334D01*
X184788797Y-50811104D01*
X185043936Y-50678901D01*
X185278698Y-50513189D01*
X185488708Y-50317053D01*
X185670055Y-50094147D01*
X185819361Y-49848625D01*
X185819363Y-49848620D01*
X185819365Y-49848617D01*
X185910460Y-49638894D01*
X185933844Y-49585058D01*
X186011371Y-49308358D01*
X186050500Y-49023678D01*
X186050500Y-48736322D01*
X186011371Y-48451642D01*
X185933844Y-48174942D01*
X185893256Y-48081499D01*
X185819365Y-47911382D01*
X185790214Y-47863446D01*
X185670055Y-47665853D01*
X185488708Y-47442947D01*
X185355227Y-47318284D01*
X185278700Y-47246812D01*
X185043935Y-47081098D01*
X184808092Y-46958894D01*
X184788797Y-46948896D01*
X184788796Y-46948895D01*
X184788793Y-46948894D01*
X184518037Y-46852667D01*
X184518034Y-46852666D01*
X184341509Y-46815984D01*
X184236686Y-46794202D01*
X184236684Y-46794201D01*
X184236680Y-46794201D01*
X184118070Y-46786088D01*
X184021752Y-46779500D01*
X183878248Y-46779500D01*
X183787724Y-46785691D01*
X183663319Y-46794201D01*
X183381965Y-46852666D01*
X183381962Y-46852667D01*
X183111206Y-46948894D01*
X182856064Y-47081098D01*
X182621299Y-47246812D01*
X182459418Y-47398000D01*
X182421789Y-47433144D01*
X182411289Y-47442950D01*
X182229944Y-47665853D01*
X182080634Y-47911382D01*
X181966158Y-48174935D01*
X181966158Y-48174936D01*
X181966156Y-48174939D01*
X181966156Y-48174942D01*
X181958537Y-48202134D01*
X181888630Y-48451635D01*
X181888629Y-48451642D01*
X181851017Y-48725288D01*
X181849500Y-48736322D01*
X181849500Y-49023678D01*
X145978855Y-49023678D01*
X146019638Y-48934919D01*
X146019638Y-48934917D01*
X146059886Y-48761471D01*
X146094215Y-48700616D01*
X146155995Y-48667981D01*
X146165012Y-48666493D01*
X146229947Y-48658223D01*
X146229950Y-48658222D01*
X146412767Y-48595733D01*
X146412774Y-48595730D01*
X146485446Y-48552949D01*
X146485446Y-48552948D01*
X145908025Y-47975527D01*
X145908024Y-47975527D01*
X145363553Y-48519999D01*
X145363553Y-48520001D01*
X144656445Y-48520001D01*
X145010000Y-48166447D01*
X145565563Y-47610882D01*
X145565564Y-47610881D01*
X145565564Y-47551264D01*
X146190868Y-47551264D01*
X146841738Y-48202135D01*
X146841739Y-48202134D01*
X146917664Y-48036894D01*
X146917664Y-48036892D01*
X146957912Y-47863446D01*
X146992241Y-47802591D01*
X147054021Y-47769956D01*
X147063038Y-47768468D01*
X147127973Y-47760198D01*
X147127976Y-47760197D01*
X147310793Y-47697708D01*
X147310800Y-47697705D01*
X147383472Y-47654924D01*
X147383472Y-47654923D01*
X146735342Y-47006792D01*
X146735341Y-47006792D01*
X146190868Y-47551263D01*
X146190868Y-47551264D01*
X145565564Y-47551264D01*
X145565564Y-47520825D01*
X145585249Y-47453786D01*
X145601883Y-47433144D01*
X146381788Y-46653239D01*
X145730916Y-46002367D01*
X145730915Y-46002367D01*
X145654993Y-46167603D01*
X145654991Y-46167609D01*
X145611316Y-46355824D01*
X145607845Y-46492765D01*
X145586468Y-46559284D01*
X145532521Y-46603686D01*
X145523991Y-46606957D01*
X145426042Y-46640437D01*
X145356240Y-46643494D01*
X145295865Y-46608327D01*
X145264088Y-46546102D01*
X145261936Y-46523102D01*
X145261936Y-45651553D01*
X146087207Y-45651553D01*
X146735340Y-46299685D01*
X146782266Y-46299685D01*
X146849305Y-46319370D01*
X146869947Y-46336004D01*
X147052575Y-46518632D01*
X147086060Y-46579955D01*
X147088894Y-46606313D01*
X147088894Y-46653239D01*
X147739766Y-47304111D01*
X147739766Y-47304110D01*
X147815688Y-47138874D01*
X147815690Y-47138868D01*
X147855818Y-46965938D01*
X147890147Y-46905083D01*
X147951927Y-46872448D01*
X147960907Y-46870966D01*
X148026110Y-46862662D01*
X148209032Y-46800138D01*
X148375624Y-46702071D01*
X148519064Y-46572478D01*
X148633482Y-46416662D01*
X148714191Y-46241004D01*
X148714217Y-46240895D01*
X148754495Y-46067325D01*
X148788824Y-46006470D01*
X148850604Y-45973836D01*
X148859621Y-45972348D01*
X148924023Y-45964146D01*
X148924027Y-45964145D01*
X149106844Y-45901656D01*
X149106851Y-45901653D01*
X149179523Y-45858872D01*
X149179523Y-45858871D01*
X148531393Y-45210740D01*
X148484465Y-45210740D01*
X148417426Y-45191055D01*
X148396784Y-45174421D01*
X148214158Y-44991795D01*
X148180673Y-44930472D01*
X148177839Y-44904114D01*
X148177839Y-44857187D01*
X147526967Y-44206315D01*
X147526966Y-44206315D01*
X147451044Y-44371551D01*
X147451040Y-44371564D01*
X147410913Y-44544487D01*
X147376584Y-44605341D01*
X147314804Y-44637976D01*
X147305791Y-44639463D01*
X147240627Y-44647763D01*
X147240617Y-44647765D01*
X147057700Y-44710287D01*
X146891111Y-44808352D01*
X146747666Y-44937950D01*
X146633252Y-45093760D01*
X146552540Y-45269424D01*
X146552539Y-45269428D01*
X146512236Y-45443100D01*
X146477906Y-45503954D01*
X146416126Y-45536588D01*
X146407114Y-45538075D01*
X146342711Y-45546278D01*
X146159886Y-45608769D01*
X146087207Y-45651553D01*
X145261936Y-45651553D01*
X145261936Y-45250473D01*
X145261935Y-45250450D01*
X145248158Y-45066610D01*
X145246819Y-45048745D01*
X145186770Y-44785653D01*
X145088179Y-44534450D01*
X144953251Y-44300746D01*
X144784997Y-44089763D01*
X144784996Y-44089762D01*
X144784993Y-44089758D01*
X144587177Y-43906213D01*
X144512796Y-43855501D01*
X147883258Y-43855501D01*
X148531392Y-44503634D01*
X149535817Y-45508059D01*
X149535817Y-45508058D01*
X149611739Y-45342822D01*
X149611741Y-45342816D01*
X149651869Y-45169887D01*
X149686198Y-45109032D01*
X149747978Y-45076397D01*
X149756955Y-45074915D01*
X149822162Y-45066611D01*
X150005084Y-45004087D01*
X150171676Y-44906020D01*
X150315116Y-44776427D01*
X150429534Y-44620611D01*
X150510243Y-44444953D01*
X150511393Y-44440000D01*
X150527277Y-44371551D01*
X150550426Y-44271791D01*
X150584755Y-44210939D01*
X150646535Y-44178304D01*
X150655528Y-44176819D01*
X150720187Y-44168585D01*
X150903109Y-44106061D01*
X151069701Y-44007994D01*
X151213141Y-43878401D01*
X151327559Y-43722585D01*
X151408268Y-43546927D01*
X151408443Y-43546176D01*
X151439718Y-43411401D01*
X151448451Y-43373767D01*
X151482780Y-43312913D01*
X151544560Y-43280279D01*
X151553551Y-43278795D01*
X151618213Y-43270560D01*
X151801135Y-43208036D01*
X151967727Y-43109969D01*
X152111167Y-42980376D01*
X152225585Y-42824560D01*
X152306294Y-42648902D01*
X152349993Y-42460593D01*
X152354890Y-42267342D01*
X152320786Y-42077060D01*
X152249076Y-41897540D01*
X152249072Y-41897535D01*
X152249070Y-41897529D01*
X152142698Y-41736130D01*
X152142695Y-41736126D01*
X151686712Y-41280144D01*
X151683361Y-41277411D01*
X151574443Y-41188600D01*
X151403098Y-41099097D01*
X151344344Y-41082285D01*
X151217241Y-41045916D01*
X151024490Y-41031238D01*
X151024487Y-41031238D01*
X150832728Y-41055661D01*
X150832727Y-41055661D01*
X150649803Y-41118185D01*
X150483214Y-41216250D01*
X150339769Y-41345848D01*
X150225355Y-41501658D01*
X150144643Y-41677322D01*
X150144642Y-41677326D01*
X150104460Y-41850479D01*
X150070130Y-41911333D01*
X150008350Y-41943967D01*
X149999337Y-41945454D01*
X149934705Y-41953685D01*
X149934694Y-41953688D01*
X149751777Y-42016210D01*
X149585188Y-42114275D01*
X149441743Y-42243873D01*
X149327329Y-42399683D01*
X149246617Y-42575347D01*
X149246616Y-42575351D01*
X149206434Y-42748505D01*
X149172105Y-42809359D01*
X149110324Y-42841993D01*
X149101311Y-42843480D01*
X149036675Y-42851712D01*
X148853752Y-42914236D01*
X148687163Y-43012301D01*
X148543718Y-43141899D01*
X148429304Y-43297709D01*
X148348592Y-43473373D01*
X148348591Y-43473377D01*
X148308288Y-43647048D01*
X148273958Y-43707903D01*
X148212178Y-43740536D01*
X148203166Y-43742023D01*
X148138762Y-43750226D01*
X147955937Y-43812717D01*
X147883258Y-43855501D01*
X144512796Y-43855501D01*
X144511960Y-43854931D01*
X144364211Y-43754197D01*
X144364205Y-43754194D01*
X144364204Y-43754193D01*
X144364203Y-43754192D01*
X144121079Y-43637111D01*
X144121081Y-43637111D01*
X143863209Y-43557568D01*
X143863203Y-43557566D01*
X143596372Y-43517348D01*
X143596365Y-43517348D01*
X143326507Y-43517348D01*
X143326499Y-43517348D01*
X143059668Y-43557566D01*
X143059662Y-43557568D01*
X142801794Y-43637110D01*
X142558666Y-43754194D01*
X142335694Y-43906213D01*
X142137878Y-44089758D01*
X141969621Y-44300746D01*
X141834694Y-44534447D01*
X141834692Y-44534451D01*
X141736102Y-44785652D01*
X141736100Y-44785659D01*
X141676052Y-45048747D01*
X141660936Y-45250450D01*
X141660936Y-46450744D01*
X141641251Y-46517783D01*
X141588447Y-46563538D01*
X141519289Y-46573482D01*
X141470145Y-46553391D01*
X141469587Y-46554340D01*
X141464169Y-46551150D01*
X141288504Y-46470438D01*
X141288500Y-46470437D01*
X141115345Y-46430254D01*
X141054491Y-46395924D01*
X141021857Y-46334144D01*
X141020370Y-46325129D01*
X141012139Y-46260498D01*
X141012138Y-46260497D01*
X141012138Y-46260495D01*
X140949614Y-46077573D01*
X140887423Y-45971925D01*
X140851549Y-45910984D01*
X140851548Y-45910983D01*
X140851547Y-45910981D01*
X140721954Y-45767541D01*
X140721953Y-45767540D01*
X140721952Y-45767539D01*
X140566142Y-45653125D01*
X140566143Y-45653125D01*
X140390478Y-45572413D01*
X140390475Y-45572412D01*
X140217320Y-45532230D01*
X140156466Y-45497901D01*
X140123832Y-45436120D01*
X140122347Y-45427127D01*
X140114113Y-45362469D01*
X140051589Y-45179547D01*
X139953524Y-45012958D01*
X139953523Y-45012957D01*
X139953522Y-45012955D01*
X139823929Y-44869515D01*
X139823928Y-44869514D01*
X139823927Y-44869513D01*
X139668117Y-44755099D01*
X139668118Y-44755099D01*
X139492453Y-44674387D01*
X139492449Y-44674386D01*
X139319294Y-44634203D01*
X139258440Y-44599873D01*
X139225806Y-44538093D01*
X139224321Y-44529097D01*
X139216087Y-44464443D01*
X139153563Y-44281521D01*
X139120134Y-44224733D01*
X139055498Y-44114932D01*
X139055497Y-44114931D01*
X139055496Y-44114929D01*
X138925903Y-43971489D01*
X138925902Y-43971488D01*
X138925901Y-43971487D01*
X138770091Y-43857073D01*
X138770092Y-43857073D01*
X138594427Y-43776361D01*
X138594423Y-43776360D01*
X138421268Y-43736177D01*
X138360414Y-43701847D01*
X138327780Y-43640067D01*
X138326293Y-43631052D01*
X138318062Y-43566421D01*
X138318061Y-43566420D01*
X138318061Y-43566418D01*
X138255537Y-43383496D01*
X138193901Y-43278791D01*
X138157472Y-43216907D01*
X138157471Y-43216906D01*
X138157470Y-43216904D01*
X138027877Y-43073464D01*
X138027876Y-43073463D01*
X138027875Y-43073462D01*
X137872065Y-42959048D01*
X137872066Y-42959048D01*
X137696401Y-42878336D01*
X137696398Y-42878335D01*
X137523243Y-42838153D01*
X137462389Y-42803824D01*
X137429755Y-42742043D01*
X137428270Y-42733050D01*
X137420036Y-42668392D01*
X137357512Y-42485470D01*
X137307012Y-42399683D01*
X137259447Y-42318881D01*
X137259446Y-42318880D01*
X137259445Y-42318878D01*
X137129852Y-42175438D01*
X137129851Y-42175437D01*
X137129850Y-42175436D01*
X136974040Y-42061022D01*
X136974041Y-42061022D01*
X136798376Y-41980310D01*
X136798372Y-41980309D01*
X136625217Y-41940126D01*
X136564363Y-41905796D01*
X136531729Y-41844016D01*
X136530242Y-41835001D01*
X136522011Y-41770370D01*
X136522010Y-41770369D01*
X136522010Y-41770367D01*
X136459486Y-41587445D01*
X136361419Y-41420853D01*
X136231826Y-41277413D01*
X136231825Y-41277412D01*
X136231824Y-41277411D01*
X136076014Y-41162997D01*
X136076015Y-41162997D01*
X135900350Y-41082285D01*
X135900347Y-41082284D01*
X135712043Y-41038586D01*
X135518793Y-41033689D01*
X135518791Y-41033689D01*
X135328514Y-41067792D01*
X135328508Y-41067794D01*
X135148992Y-41139503D01*
X135148979Y-41139509D01*
X134987580Y-41245881D01*
X134987576Y-41245884D01*
X134531594Y-41701867D01*
X134475740Y-41770367D01*
X134440050Y-41814137D01*
X134389279Y-41911333D01*
X134350546Y-41985484D01*
X134297366Y-42171337D01*
X134296929Y-42177078D01*
X134272206Y-42242427D01*
X134260969Y-42255334D01*
X129683123Y-46833181D01*
X129621800Y-46866666D01*
X129595442Y-46869500D01*
X121357701Y-46869500D01*
X121290662Y-46849815D01*
X121256126Y-46816623D01*
X121208494Y-46748597D01*
X121041402Y-46581506D01*
X121041396Y-46581501D01*
X120855842Y-46451575D01*
X120812217Y-46396998D01*
X120805023Y-46327500D01*
X120836546Y-46265145D01*
X120855842Y-46248425D01*
X120971259Y-46167609D01*
X121041401Y-46118495D01*
X121208495Y-45951401D01*
X121344035Y-45757830D01*
X121443903Y-45543663D01*
X121505063Y-45315408D01*
X121525659Y-45080000D01*
X121522924Y-45048745D01*
X121512577Y-44930472D01*
X121505063Y-44844592D01*
X121452324Y-44647764D01*
X121443905Y-44616344D01*
X121443904Y-44616343D01*
X121443903Y-44616337D01*
X121344035Y-44402171D01*
X121308840Y-44351906D01*
X121208494Y-44208597D01*
X121041402Y-44041506D01*
X121041396Y-44041501D01*
X120855842Y-43911575D01*
X120812217Y-43856998D01*
X120805023Y-43787500D01*
X120836546Y-43725145D01*
X120855842Y-43708425D01*
X120878026Y-43692891D01*
X121041401Y-43578495D01*
X121208495Y-43411401D01*
X121344035Y-43217830D01*
X121443903Y-43003663D01*
X121505063Y-42775408D01*
X121525659Y-42540000D01*
X121507022Y-42326985D01*
X121520788Y-42258486D01*
X121542866Y-42228500D01*
X124059988Y-39711380D01*
X124121311Y-39677895D01*
X124147669Y-39675061D01*
X134769489Y-39675061D01*
X134836528Y-39694746D01*
X134857170Y-39711380D01*
X134953320Y-39807530D01*
X135065587Y-39899072D01*
X135236932Y-39988575D01*
X135422786Y-40041755D01*
X135519045Y-40049085D01*
X135615539Y-40056433D01*
X135615541Y-40056433D01*
X135615542Y-40056433D01*
X135653893Y-40051548D01*
X135807305Y-40032010D01*
X135990227Y-39969486D01*
X136156819Y-39871419D01*
X136300259Y-39741826D01*
X136414677Y-39586010D01*
X136495386Y-39410352D01*
X136516979Y-39317305D01*
X136535569Y-39237193D01*
X136569898Y-39176338D01*
X136631678Y-39143704D01*
X136640669Y-39142220D01*
X136705331Y-39133985D01*
X136888253Y-39071461D01*
X137054845Y-38973394D01*
X137198285Y-38843801D01*
X137312703Y-38687985D01*
X137393412Y-38512327D01*
X137396623Y-38498493D01*
X137413516Y-38425696D01*
X137433595Y-38339165D01*
X137467924Y-38278313D01*
X137529704Y-38245678D01*
X137538697Y-38244193D01*
X137603356Y-38235959D01*
X137786278Y-38173435D01*
X137952870Y-38075368D01*
X138096310Y-37945775D01*
X138210728Y-37789959D01*
X138291437Y-37614301D01*
X138313030Y-37521254D01*
X138331620Y-37441142D01*
X138365949Y-37380287D01*
X138427729Y-37347653D01*
X138436720Y-37346169D01*
X138501382Y-37337934D01*
X138684304Y-37275410D01*
X138850896Y-37177343D01*
X138994336Y-37047750D01*
X139108754Y-36891934D01*
X139189463Y-36716276D01*
X139229646Y-36543114D01*
X139263975Y-36482262D01*
X139325755Y-36449627D01*
X139334746Y-36448143D01*
X139399408Y-36439908D01*
X139582330Y-36377384D01*
X139748922Y-36279317D01*
X139892362Y-36149724D01*
X140006780Y-35993908D01*
X140087489Y-35818250D01*
X140088906Y-35812147D01*
X140114018Y-35703930D01*
X140127672Y-35645088D01*
X140162001Y-35584236D01*
X140223781Y-35551601D01*
X140232774Y-35550116D01*
X140297433Y-35541882D01*
X140480355Y-35479358D01*
X140646947Y-35381291D01*
X140790387Y-35251698D01*
X140904805Y-35095882D01*
X140985514Y-34920224D01*
X141007107Y-34827177D01*
X141024198Y-34753525D01*
X141025697Y-34747064D01*
X141060026Y-34686210D01*
X141121806Y-34653576D01*
X141130797Y-34652092D01*
X141195459Y-34643857D01*
X141378381Y-34581333D01*
X141544973Y-34483266D01*
X141688413Y-34353673D01*
X141802831Y-34197857D01*
X141883540Y-34022199D01*
X141923723Y-33849037D01*
X141958052Y-33788185D01*
X142019832Y-33755550D01*
X142028825Y-33754065D01*
X142093484Y-33745831D01*
X142276406Y-33683307D01*
X142442998Y-33585240D01*
X142586438Y-33455647D01*
X142700856Y-33299831D01*
X142781565Y-33124173D01*
X142825264Y-32935864D01*
X142827709Y-32839363D01*
X143807417Y-32839363D01*
X143831840Y-33031122D01*
X143831840Y-33031123D01*
X143894364Y-33214047D01*
X143992429Y-33380636D01*
X143992430Y-33380638D01*
X143992432Y-33380640D01*
X144114075Y-33515279D01*
X144122027Y-33524081D01*
X144277837Y-33638495D01*
X144277836Y-33638495D01*
X144277841Y-33638497D01*
X144277842Y-33638498D01*
X144453500Y-33719207D01*
X144453502Y-33719207D01*
X144453506Y-33719209D01*
X144626657Y-33759390D01*
X144687512Y-33793719D01*
X144720146Y-33855499D01*
X144721633Y-33864514D01*
X144729864Y-33929144D01*
X144729867Y-33929156D01*
X144792389Y-34112073D01*
X144890454Y-34278662D01*
X144890455Y-34278664D01*
X144890457Y-34278666D01*
X144935058Y-34328032D01*
X145020052Y-34422107D01*
X145175862Y-34536521D01*
X145175861Y-34536521D01*
X145175866Y-34536523D01*
X145175867Y-34536524D01*
X145351525Y-34617233D01*
X145351527Y-34617233D01*
X145351531Y-34617235D01*
X145466249Y-34643856D01*
X145524683Y-34657416D01*
X145585538Y-34691745D01*
X145618172Y-34753525D01*
X145619659Y-34762539D01*
X145627890Y-34827170D01*
X145627893Y-34827181D01*
X145690415Y-35010098D01*
X145788480Y-35176687D01*
X145788481Y-35176689D01*
X145788483Y-35176691D01*
X145872392Y-35269565D01*
X145918078Y-35320132D01*
X146073888Y-35434546D01*
X146073887Y-35434546D01*
X146073892Y-35434548D01*
X146073893Y-35434549D01*
X146249551Y-35515258D01*
X146277113Y-35521654D01*
X146423227Y-35555562D01*
X146484081Y-35589891D01*
X146516715Y-35651672D01*
X146518202Y-35660684D01*
X146526405Y-35725089D01*
X146588896Y-35907911D01*
X146588900Y-35907921D01*
X146631680Y-35980591D01*
X147633366Y-34978906D01*
X148284238Y-34328032D01*
X148118995Y-34252109D01*
X148118986Y-34252106D01*
X147946065Y-34211980D01*
X147885211Y-34177651D01*
X147852576Y-34115871D01*
X147851094Y-34106890D01*
X147842790Y-34041689D01*
X147780266Y-33858767D01*
X147765622Y-33833890D01*
X147682201Y-33692178D01*
X147682200Y-33692177D01*
X147682199Y-33692175D01*
X147552606Y-33548735D01*
X147552605Y-33548734D01*
X147552604Y-33548733D01*
X147396794Y-33434319D01*
X147396795Y-33434319D01*
X147221130Y-33353607D01*
X147221126Y-33353606D01*
X147047971Y-33313423D01*
X146987117Y-33279093D01*
X146954483Y-33217313D01*
X146952996Y-33208298D01*
X146944765Y-33143667D01*
X146944764Y-33143666D01*
X146944764Y-33143664D01*
X146882240Y-32960742D01*
X146857931Y-32919447D01*
X146784175Y-32794153D01*
X146784174Y-32794152D01*
X146784173Y-32794150D01*
X146654580Y-32650710D01*
X146654579Y-32650709D01*
X146654578Y-32650708D01*
X146498768Y-32536294D01*
X146498769Y-32536294D01*
X146323104Y-32455582D01*
X146323101Y-32455581D01*
X146149946Y-32415399D01*
X146089092Y-32381070D01*
X146056458Y-32319289D01*
X146054973Y-32310296D01*
X146046739Y-32245638D01*
X145984215Y-32062716D01*
X145886148Y-31896124D01*
X145756555Y-31752684D01*
X145756554Y-31752683D01*
X145756553Y-31752682D01*
X145600743Y-31638268D01*
X145600744Y-31638268D01*
X145425079Y-31557556D01*
X145425076Y-31557555D01*
X145236772Y-31513857D01*
X145043522Y-31508960D01*
X145043520Y-31508960D01*
X144853243Y-31543063D01*
X144853237Y-31543065D01*
X144673721Y-31614774D01*
X144673708Y-31614780D01*
X144512309Y-31721152D01*
X144512305Y-31721155D01*
X144056323Y-32177138D01*
X144000469Y-32245638D01*
X143964779Y-32289408D01*
X143945795Y-32325751D01*
X143875275Y-32460755D01*
X143822095Y-32646609D01*
X143807417Y-32839360D01*
X143807417Y-32839363D01*
X142827709Y-32839363D01*
X142829661Y-32762327D01*
X142830161Y-32742614D01*
X142830161Y-32742612D01*
X142796058Y-32552335D01*
X142796056Y-32552329D01*
X142788627Y-32533731D01*
X142724347Y-32372811D01*
X142724343Y-32372806D01*
X142724341Y-32372800D01*
X142617969Y-32211401D01*
X142617966Y-32211397D01*
X142161983Y-31755415D01*
X142158632Y-31752682D01*
X142049714Y-31663871D01*
X141878369Y-31574368D01*
X141872998Y-31572831D01*
X141692512Y-31521187D01*
X141499761Y-31506509D01*
X141499758Y-31506509D01*
X141307999Y-31530932D01*
X141307998Y-31530932D01*
X141125074Y-31593456D01*
X140958485Y-31691521D01*
X140815040Y-31821119D01*
X140700626Y-31976929D01*
X140619914Y-32152593D01*
X140619913Y-32152597D01*
X140579731Y-32325751D01*
X140545402Y-32386605D01*
X140483621Y-32419239D01*
X140474608Y-32420726D01*
X140409972Y-32428958D01*
X140227049Y-32491482D01*
X140060460Y-32589547D01*
X139917015Y-32719145D01*
X139802601Y-32874955D01*
X139721889Y-33050619D01*
X139721888Y-33050623D01*
X139681706Y-33223776D01*
X139647376Y-33284630D01*
X139585596Y-33317264D01*
X139576583Y-33318751D01*
X139511951Y-33326982D01*
X139511940Y-33326985D01*
X139329023Y-33389507D01*
X139162434Y-33487572D01*
X139018989Y-33617170D01*
X138904575Y-33772980D01*
X138823863Y-33948644D01*
X138823862Y-33948648D01*
X138795218Y-34072080D01*
X138760888Y-34132935D01*
X138699108Y-34165568D01*
X138663619Y-34167577D01*
X138660064Y-34167265D01*
X138585075Y-34169448D01*
X138581468Y-34169500D01*
X121357701Y-34169500D01*
X121290662Y-34149815D01*
X121256126Y-34116623D01*
X121208494Y-34048597D01*
X121041402Y-33881506D01*
X121041395Y-33881501D01*
X120847834Y-33745967D01*
X120847830Y-33745965D01*
X120847540Y-33745830D01*
X120633663Y-33646097D01*
X120633659Y-33646096D01*
X120633655Y-33646094D01*
X120405413Y-33584938D01*
X120405403Y-33584936D01*
X120170001Y-33564341D01*
X120169999Y-33564341D01*
X119934596Y-33584936D01*
X119934586Y-33584938D01*
X119706344Y-33646094D01*
X119706335Y-33646098D01*
X119492171Y-33745964D01*
X119492169Y-33745965D01*
X119298597Y-33881505D01*
X119131508Y-34048594D01*
X119086075Y-34113480D01*
X119031498Y-34157104D01*
X118961999Y-34164297D01*
X118899645Y-34132775D01*
X118864231Y-34072545D01*
X118860500Y-34042356D01*
X118860500Y-33362230D01*
X118880185Y-33295191D01*
X118896819Y-33274549D01*
X121834549Y-30336819D01*
X121895872Y-30303334D01*
X121922230Y-30300500D01*
X146817770Y-30300500D01*
X146884809Y-30320185D01*
X146905451Y-30336819D01*
X148953181Y-32384549D01*
X148986666Y-32445872D01*
X148989500Y-32472230D01*
X148989500Y-34659645D01*
X148969815Y-34726684D01*
X148953181Y-34747326D01*
X148886182Y-34814325D01*
X148824859Y-34847810D01*
X148755167Y-34842826D01*
X148699234Y-34800954D01*
X148681166Y-34766750D01*
X148677835Y-34757007D01*
X148677833Y-34757002D01*
X148635050Y-34684325D01*
X147633366Y-35686012D01*
X146982493Y-36336882D01*
X146982494Y-36336883D01*
X147147734Y-36412807D01*
X147147736Y-36412808D01*
X147320665Y-36452936D01*
X147381520Y-36487265D01*
X147414155Y-36549045D01*
X147415642Y-36558060D01*
X147423941Y-36623222D01*
X147423944Y-36623233D01*
X147486466Y-36806150D01*
X147584531Y-36972739D01*
X147584532Y-36972741D01*
X147584534Y-36972743D01*
X147652299Y-37047748D01*
X147714129Y-37116184D01*
X147869939Y-37230598D01*
X147869938Y-37230598D01*
X147869943Y-37230600D01*
X147869944Y-37230601D01*
X148045602Y-37311310D01*
X148045604Y-37311310D01*
X148045608Y-37311312D01*
X148160326Y-37337933D01*
X148218760Y-37351493D01*
X148279615Y-37385822D01*
X148312249Y-37447602D01*
X148313736Y-37456616D01*
X148321967Y-37521247D01*
X148321970Y-37521258D01*
X148384492Y-37704175D01*
X148482557Y-37870764D01*
X148482558Y-37870766D01*
X148482560Y-37870768D01*
X148574711Y-37972764D01*
X148612155Y-38014209D01*
X148767965Y-38128623D01*
X148767964Y-38128623D01*
X148767969Y-38128625D01*
X148767970Y-38128626D01*
X148943628Y-38209335D01*
X148943630Y-38209335D01*
X148943634Y-38209337D01*
X149116785Y-38249518D01*
X149177640Y-38283847D01*
X149210274Y-38345627D01*
X149211761Y-38354642D01*
X149219992Y-38419272D01*
X149219995Y-38419284D01*
X149282517Y-38602201D01*
X149380582Y-38768790D01*
X149380583Y-38768792D01*
X149380585Y-38768794D01*
X149493395Y-38893657D01*
X149510180Y-38912235D01*
X149665990Y-39026649D01*
X149665989Y-39026649D01*
X149665994Y-39026651D01*
X149665995Y-39026652D01*
X149841653Y-39107361D01*
X149841655Y-39107361D01*
X149841659Y-39107363D01*
X149956377Y-39133984D01*
X150014811Y-39147544D01*
X150075666Y-39181873D01*
X150108300Y-39243653D01*
X150109787Y-39252667D01*
X150118018Y-39317298D01*
X150118021Y-39317309D01*
X150180543Y-39500226D01*
X150278608Y-39666815D01*
X150278609Y-39666817D01*
X150278611Y-39666819D01*
X150408205Y-39810259D01*
X150408206Y-39810260D01*
X150564016Y-39924674D01*
X150564015Y-39924674D01*
X150564020Y-39924676D01*
X150564021Y-39924677D01*
X150739679Y-40005386D01*
X150739682Y-40005386D01*
X150739683Y-40005387D01*
X150927986Y-40049085D01*
X151121232Y-40053982D01*
X151121232Y-40053981D01*
X151121238Y-40053982D01*
X151294760Y-40022880D01*
X151311515Y-40019878D01*
X151311515Y-40019877D01*
X151311520Y-40019877D01*
X151491040Y-39948168D01*
X151491047Y-39948163D01*
X151491050Y-39948162D01*
X151652449Y-39841790D01*
X151652451Y-39841789D01*
X152108438Y-39385802D01*
X152199980Y-39273535D01*
X152289483Y-39102190D01*
X152342663Y-38916336D01*
X152357341Y-38723581D01*
X152332918Y-38531817D01*
X152270394Y-38348895D01*
X152236040Y-38290536D01*
X152172329Y-38182306D01*
X152172328Y-38182305D01*
X152172327Y-38182303D01*
X152042734Y-38038863D01*
X152042733Y-38038862D01*
X152042732Y-38038861D01*
X151886922Y-37924447D01*
X151886923Y-37924447D01*
X151711258Y-37843735D01*
X151711254Y-37843734D01*
X151538099Y-37803551D01*
X151477245Y-37769221D01*
X151444611Y-37707441D01*
X151443124Y-37698426D01*
X151434893Y-37633795D01*
X151434892Y-37633794D01*
X151434892Y-37633792D01*
X151372368Y-37450870D01*
X151357723Y-37425992D01*
X151274303Y-37284281D01*
X151274302Y-37284280D01*
X151274301Y-37284278D01*
X151144708Y-37140838D01*
X151144707Y-37140837D01*
X151144706Y-37140836D01*
X150988896Y-37026422D01*
X150988897Y-37026422D01*
X150813232Y-36945710D01*
X150813229Y-36945709D01*
X150640074Y-36905527D01*
X150579220Y-36871198D01*
X150546586Y-36809417D01*
X150545101Y-36800424D01*
X150536867Y-36735766D01*
X150474343Y-36552844D01*
X150412707Y-36448139D01*
X150376278Y-36386255D01*
X150376277Y-36386254D01*
X150376276Y-36386252D01*
X150246683Y-36242812D01*
X150246682Y-36242811D01*
X150246681Y-36242810D01*
X150090871Y-36128396D01*
X150090867Y-36128394D01*
X149981406Y-36078100D01*
X149928710Y-36032226D01*
X149909179Y-35965141D01*
X149929018Y-35898147D01*
X149945493Y-35877750D01*
X150225642Y-35597601D01*
X150239271Y-35585824D01*
X150241404Y-35584236D01*
X150258530Y-35571487D01*
X150275216Y-35551601D01*
X150290360Y-35533553D01*
X150297677Y-35525568D01*
X150301587Y-35521658D01*
X150301587Y-35521657D01*
X150301591Y-35521654D01*
X150320833Y-35497315D01*
X150323069Y-35494570D01*
X150371302Y-35437091D01*
X150371307Y-35437080D01*
X150375274Y-35431052D01*
X150375325Y-35431085D01*
X150379372Y-35424733D01*
X150379320Y-35424701D01*
X150383108Y-35418557D01*
X150383111Y-35418554D01*
X150414821Y-35350550D01*
X150416362Y-35347365D01*
X150450040Y-35280310D01*
X150450043Y-35280294D01*
X150452509Y-35273523D01*
X150452567Y-35273544D01*
X150455043Y-35266423D01*
X150454986Y-35266405D01*
X150457256Y-35259554D01*
X150458878Y-35251698D01*
X150472447Y-35185979D01*
X150473179Y-35182675D01*
X150490500Y-35109598D01*
X150490500Y-35109589D01*
X150491338Y-35102425D01*
X150491398Y-35102432D01*
X150492164Y-35094932D01*
X150492105Y-35094927D01*
X150492734Y-35087737D01*
X150490552Y-35012746D01*
X150490500Y-35009139D01*
X150490500Y-32173705D01*
X150491809Y-32155735D01*
X150492269Y-32152592D01*
X150495289Y-32131977D01*
X150490972Y-32082630D01*
X150490500Y-32071822D01*
X150490500Y-32066296D01*
X150490500Y-32066291D01*
X150486901Y-32035509D01*
X150486536Y-32031929D01*
X150479999Y-31957201D01*
X150478539Y-31950129D01*
X150478597Y-31950116D01*
X150476965Y-31942757D01*
X150476906Y-31942772D01*
X150475241Y-31935751D01*
X150475241Y-31935745D01*
X150449569Y-31865212D01*
X150448421Y-31861909D01*
X150424814Y-31790666D01*
X150424810Y-31790659D01*
X150421760Y-31784118D01*
X150421815Y-31784091D01*
X150418533Y-31777313D01*
X150418480Y-31777340D01*
X150415235Y-31770880D01*
X150374025Y-31708223D01*
X150372086Y-31705181D01*
X150363662Y-31691524D01*
X150332712Y-31641345D01*
X150332711Y-31641344D01*
X150332710Y-31641342D01*
X150328234Y-31635682D01*
X150328281Y-31635644D01*
X150323519Y-31629799D01*
X150323474Y-31629838D01*
X150318831Y-31624305D01*
X150264272Y-31572831D01*
X150261685Y-31570318D01*
X147755729Y-29064361D01*
X147743949Y-29050730D01*
X147729610Y-29031470D01*
X147691651Y-28999619D01*
X147683686Y-28992318D01*
X147679780Y-28988411D01*
X147655443Y-28969168D01*
X147652647Y-28966890D01*
X147595214Y-28918698D01*
X147589180Y-28914729D01*
X147589212Y-28914680D01*
X147582853Y-28910628D01*
X147582822Y-28910679D01*
X147576680Y-28906891D01*
X147576678Y-28906890D01*
X147576677Y-28906889D01*
X147508688Y-28875184D01*
X147505447Y-28873615D01*
X147474530Y-28858088D01*
X147438433Y-28839960D01*
X147438431Y-28839959D01*
X147438430Y-28839959D01*
X147431645Y-28837489D01*
X147431665Y-28837433D01*
X147424549Y-28834959D01*
X147424531Y-28835015D01*
X147417674Y-28832743D01*
X147344210Y-28817573D01*
X147340693Y-28816793D01*
X147267718Y-28799499D01*
X147260547Y-28798661D01*
X147260553Y-28798601D01*
X147253055Y-28797835D01*
X147253050Y-28797895D01*
X147245860Y-28797265D01*
X147170870Y-28799448D01*
X147167263Y-28799500D01*
X121623705Y-28799500D01*
X121605735Y-28798191D01*
X121581972Y-28794710D01*
X121536826Y-28798661D01*
X121532630Y-28799028D01*
X121521824Y-28799500D01*
X121516284Y-28799500D01*
X121485501Y-28803098D01*
X121481916Y-28803464D01*
X121407199Y-28810001D01*
X121400132Y-28811460D01*
X121400120Y-28811404D01*
X121392763Y-28813035D01*
X121392777Y-28813092D01*
X121385740Y-28814760D01*
X121315231Y-28840421D01*
X121311854Y-28841595D01*
X121272848Y-28854521D01*
X121240668Y-28865185D01*
X121234126Y-28868236D01*
X121234101Y-28868183D01*
X121227308Y-28871471D01*
X121227334Y-28871523D01*
X121220880Y-28874764D01*
X121158221Y-28915975D01*
X121155181Y-28917912D01*
X121091348Y-28957285D01*
X121085683Y-28961765D01*
X121085647Y-28961719D01*
X121079798Y-28966484D01*
X121079835Y-28966528D01*
X121074310Y-28971164D01*
X121074304Y-28971169D01*
X121074304Y-28971170D01*
X121050733Y-28996153D01*
X121022832Y-29025726D01*
X121020320Y-29028311D01*
X117624358Y-32424272D01*
X117610729Y-32436051D01*
X117591469Y-32450390D01*
X117559632Y-32488331D01*
X117552346Y-32496284D01*
X117548407Y-32500224D01*
X117529176Y-32524545D01*
X117526902Y-32527337D01*
X117478694Y-32584790D01*
X117474729Y-32590819D01*
X117474682Y-32590788D01*
X117470630Y-32597147D01*
X117470679Y-32597177D01*
X117466889Y-32603321D01*
X117435192Y-32671294D01*
X117433623Y-32674536D01*
X117399957Y-32741572D01*
X117397488Y-32748357D01*
X117397432Y-32748336D01*
X117394960Y-32755450D01*
X117395015Y-32755469D01*
X117392743Y-32762325D01*
X117377573Y-32835788D01*
X117376793Y-32839304D01*
X117359499Y-32912279D01*
X117358661Y-32919454D01*
X117358601Y-32919447D01*
X117357835Y-32926945D01*
X117357895Y-32926951D01*
X117357265Y-32934140D01*
X117359448Y-33009128D01*
X117359500Y-33012735D01*
X117359500Y-37876294D01*
X117358191Y-37894263D01*
X117354710Y-37918025D01*
X117359028Y-37967368D01*
X117359500Y-37978176D01*
X117359500Y-37983711D01*
X117363098Y-38014495D01*
X117363464Y-38018083D01*
X117370000Y-38092791D01*
X117371461Y-38099867D01*
X117371403Y-38099878D01*
X117373034Y-38107237D01*
X117373092Y-38107224D01*
X117374757Y-38114249D01*
X117374758Y-38114254D01*
X117374759Y-38114255D01*
X117399525Y-38182303D01*
X117400400Y-38184705D01*
X117401582Y-38188107D01*
X117425182Y-38259326D01*
X117428236Y-38265874D01*
X117428182Y-38265898D01*
X117431470Y-38272688D01*
X117431521Y-38272663D01*
X117434761Y-38279114D01*
X117475979Y-38341784D01*
X117477889Y-38344782D01*
X117508972Y-38395174D01*
X117517289Y-38408658D01*
X117521766Y-38414319D01*
X117521719Y-38414356D01*
X117526482Y-38420202D01*
X117526528Y-38420164D01*
X117531173Y-38425699D01*
X117585707Y-38477149D01*
X117588295Y-38479663D01*
X118797130Y-39688498D01*
X118830615Y-39749821D01*
X118832977Y-39786986D01*
X118814341Y-39999997D01*
X118814341Y-40000000D01*
X118834936Y-40235403D01*
X118834938Y-40235413D01*
X118896094Y-40463655D01*
X118896096Y-40463659D01*
X118896097Y-40463663D01*
X118995965Y-40677830D01*
X118995967Y-40677834D01*
X119131501Y-40871395D01*
X119131506Y-40871402D01*
X119298597Y-41038493D01*
X119298603Y-41038498D01*
X119484158Y-41168425D01*
X119527783Y-41223002D01*
X119534977Y-41292500D01*
X119503454Y-41354855D01*
X119484158Y-41371575D01*
X119298597Y-41501505D01*
X119131505Y-41668597D01*
X118995965Y-41862169D01*
X118995964Y-41862171D01*
X118896098Y-42076335D01*
X118896094Y-42076344D01*
X118834938Y-42304586D01*
X118834936Y-42304596D01*
X118814341Y-42539999D01*
X118814341Y-42540000D01*
X118834936Y-42775403D01*
X118834938Y-42775413D01*
X118869327Y-42903756D01*
X118867664Y-42973606D01*
X118837233Y-43023530D01*
X117878965Y-43981798D01*
X117866775Y-43992489D01*
X117841717Y-44011718D01*
X117794497Y-44073257D01*
X117781833Y-44089763D01*
X117772523Y-44101896D01*
X117772521Y-44101898D01*
X117745464Y-44137157D01*
X117745461Y-44137163D01*
X117684957Y-44283234D01*
X117684955Y-44283239D01*
X117664318Y-44439998D01*
X117664318Y-44439999D01*
X117668439Y-44471301D01*
X117669500Y-44487487D01*
X117669500Y-51442512D01*
X117668439Y-51458697D01*
X117664318Y-51489998D01*
X117664318Y-51490000D01*
X117676624Y-51583471D01*
X117676624Y-51583472D01*
X117684955Y-51646760D01*
X117684956Y-51646762D01*
X117715988Y-51721681D01*
X117745464Y-51792841D01*
X117841718Y-51918282D01*
X117841719Y-51918283D01*
X117866769Y-51937504D01*
X117878964Y-51948199D01*
X120110749Y-54179984D01*
X120144234Y-54241307D01*
X120139250Y-54310999D01*
X120097378Y-54366932D01*
X120031914Y-54391349D01*
X120003674Y-54390139D01*
X119966871Y-54384310D01*
X119966869Y-54384309D01*
X119966864Y-54384309D01*
X119684300Y-54369501D01*
X119684298Y-54369500D01*
X119684280Y-54369500D01*
X119495720Y-54369500D01*
X119495702Y-54369500D01*
X119495699Y-54369501D01*
X119213127Y-54384310D01*
X118840392Y-54443346D01*
X118840385Y-54443347D01*
X118475852Y-54541023D01*
X118123531Y-54676267D01*
X117787275Y-54847599D01*
X117470776Y-55053135D01*
X117177493Y-55290631D01*
X117177485Y-55290638D01*
X116910638Y-55557485D01*
X116910631Y-55557493D01*
X116673135Y-55850776D01*
X116467599Y-56167274D01*
X116296267Y-56503531D01*
X116161023Y-56855852D01*
X116063347Y-57220385D01*
X116063346Y-57220392D01*
X116004310Y-57593127D01*
X115984559Y-57969999D01*
X115984559Y-57970000D01*
X116004310Y-58346872D01*
X116063346Y-58719607D01*
X116063347Y-58719614D01*
X116161023Y-59084147D01*
X116296267Y-59436468D01*
X116467599Y-59772724D01*
X116673135Y-60089223D01*
X116849061Y-60306473D01*
X116910635Y-60382511D01*
X117177489Y-60649365D01*
X117233593Y-60694797D01*
X117470776Y-60886864D01*
X117787275Y-61092400D01*
X117787280Y-61092403D01*
X118123535Y-61263734D01*
X118475857Y-61398978D01*
X118840387Y-61496653D01*
X119213129Y-61555690D01*
X119495720Y-61570500D01*
X119495739Y-61570500D01*
X119684261Y-61570500D01*
X119684280Y-61570500D01*
X119966871Y-61555690D01*
X120339613Y-61496653D01*
X120704143Y-61398978D01*
X121056465Y-61263734D01*
X121392720Y-61092403D01*
X121709225Y-60886863D01*
X122002511Y-60649365D01*
X122269365Y-60382511D01*
X122506863Y-60089225D01*
X122712403Y-59772721D01*
X122883734Y-59436465D01*
X123018978Y-59084143D01*
X123116653Y-58719613D01*
X123175690Y-58346871D01*
X123195441Y-57970000D01*
X123175690Y-57593129D01*
X123116653Y-57220387D01*
X123018978Y-56855857D01*
X122883734Y-56503535D01*
X122712403Y-56167280D01*
X122712400Y-56167276D01*
X122712399Y-56167273D01*
X122506864Y-55850776D01*
X122269368Y-55557493D01*
X122269365Y-55557489D01*
X122002511Y-55290635D01*
X121905380Y-55211980D01*
X121817562Y-55140866D01*
X121777851Y-55083379D01*
X121775523Y-55013548D01*
X121811318Y-54953544D01*
X121873872Y-54922418D01*
X121895598Y-54920500D01*
X130421659Y-54920500D01*
X130488698Y-54940185D01*
X130509340Y-54956819D01*
X137193980Y-61641460D01*
X137227465Y-61702783D01*
X137222481Y-61772475D01*
X137180609Y-61828408D01*
X137115145Y-61852825D01*
X137106299Y-61853141D01*
X116743846Y-61853141D01*
X116727661Y-61852080D01*
X116696359Y-61847959D01*
X116696358Y-61847959D01*
X116583508Y-61862815D01*
X116583508Y-61862816D01*
X116539597Y-61868597D01*
X116539596Y-61868597D01*
X116393516Y-61929105D01*
X116268077Y-62025357D01*
X116248848Y-62050416D01*
X116238157Y-62062606D01*
X109277584Y-69023181D01*
X109216261Y-69056666D01*
X109189903Y-69059500D01*
X99687487Y-69059500D01*
X99671302Y-69058439D01*
X99640000Y-69054318D01*
X99639999Y-69054318D01*
X99483239Y-69074955D01*
X99483237Y-69074956D01*
X99337160Y-69135463D01*
X99211714Y-69231721D01*
X99192495Y-69256769D01*
X99181800Y-69268964D01*
X94378965Y-74071798D01*
X94366774Y-74082490D01*
X94341718Y-74101717D01*
X94317549Y-74133213D01*
X94317550Y-74133214D01*
X94245464Y-74227158D01*
X94245461Y-74227163D01*
X94184957Y-74373234D01*
X94184955Y-74373239D01*
X94164318Y-74529998D01*
X94164318Y-74529999D01*
X94168439Y-74561301D01*
X94169500Y-74577487D01*
X94169500Y-91692512D01*
X94168439Y-91708697D01*
X94164318Y-91739998D01*
X94164318Y-91740000D01*
X94169500Y-91779360D01*
X94169500Y-91779361D01*
X94184955Y-91896760D01*
X94184956Y-91896762D01*
X94245464Y-92042841D01*
X94275052Y-92081401D01*
X94341719Y-92168283D01*
X94366769Y-92187504D01*
X94378964Y-92198199D01*
X95447233Y-93266468D01*
X95480718Y-93327791D01*
X95479327Y-93386241D01*
X95444939Y-93514583D01*
X95444936Y-93514596D01*
X95424341Y-93749999D01*
X95424341Y-93750000D01*
X95444936Y-93985403D01*
X95444938Y-93985413D01*
X95479327Y-94113756D01*
X95477664Y-94183606D01*
X95447233Y-94233530D01*
X94298965Y-95381798D01*
X94286775Y-95392489D01*
X94261720Y-95411715D01*
X94256438Y-95418599D01*
X94180973Y-95516947D01*
X94169071Y-95532457D01*
X94165463Y-95537160D01*
X94104956Y-95683237D01*
X94104955Y-95683239D01*
X94084318Y-95839998D01*
X94084318Y-95839999D01*
X94088439Y-95871301D01*
X94089500Y-95887487D01*
X94089500Y-106852512D01*
X94088439Y-106868697D01*
X94084318Y-106899998D01*
X94084318Y-106900000D01*
X75469290Y-106900000D01*
X75254398Y-106058064D01*
X75253708Y-106055219D01*
X75239672Y-105994202D01*
X74880890Y-104434500D01*
X74880269Y-104431643D01*
X74869047Y-104376928D01*
X74546132Y-102802544D01*
X74545596Y-102799763D01*
X74250304Y-101163073D01*
X74249818Y-101160177D01*
X74225785Y-101006063D01*
X73993577Y-99517035D01*
X73993162Y-99514145D01*
X73992331Y-99507834D01*
X73776100Y-97865391D01*
X73775751Y-97862475D01*
X73768121Y-97791505D01*
X73597977Y-96208939D01*
X73597699Y-96206022D01*
X73459333Y-94548796D01*
X73459127Y-94545936D01*
X73360230Y-92885749D01*
X73360095Y-92882914D01*
X73300736Y-91220905D01*
X73300667Y-91217982D01*
X73297771Y-90974592D01*
X73280878Y-89555068D01*
X73280878Y-89552211D01*
X73300667Y-87889268D01*
X73300737Y-87886347D01*
X73303871Y-87798597D01*
X73360095Y-86224361D01*
X73360230Y-86221534D01*
X73459128Y-84561337D01*
X73459332Y-84558489D01*
X73597701Y-82901227D01*
X73597979Y-82898319D01*
X73617267Y-82718920D01*
X73775753Y-81244780D01*
X73776102Y-81241874D01*
X73776775Y-81236762D01*
X73993168Y-79593090D01*
X73993575Y-79590256D01*
X74249822Y-77947072D01*
X74250307Y-77944191D01*
X74274470Y-77810265D01*
X74545598Y-76307501D01*
X74546129Y-76304751D01*
X74880278Y-74675591D01*
X74880886Y-74672796D01*
X75253717Y-73052019D01*
X75254395Y-73049228D01*
X75665687Y-71437801D01*
X75666418Y-71435073D01*
X76115943Y-69833890D01*
X76116749Y-69831142D01*
X76604257Y-68241086D01*
X76605126Y-68238368D01*
X76920773Y-67290001D01*
X92928532Y-67290001D01*
X92948364Y-67516686D01*
X92948366Y-67516697D01*
X93007258Y-67736488D01*
X93007261Y-67736497D01*
X93103431Y-67942732D01*
X93103432Y-67942734D01*
X93233954Y-68129141D01*
X93394858Y-68290045D01*
X93394861Y-68290047D01*
X93581266Y-68420568D01*
X93787504Y-68516739D01*
X94007308Y-68575635D01*
X94169230Y-68589801D01*
X94233998Y-68595468D01*
X94234000Y-68595468D01*
X94234002Y-68595468D01*
X94290673Y-68590509D01*
X94460692Y-68575635D01*
X94680496Y-68516739D01*
X94886734Y-68420568D01*
X95024042Y-68324424D01*
X95090247Y-68302098D01*
X95095164Y-68302000D01*
X95631868Y-68302000D01*
X95696963Y-68320460D01*
X95722666Y-68336314D01*
X95889203Y-68391499D01*
X95991991Y-68402000D01*
X97792008Y-68401999D01*
X97894797Y-68391499D01*
X98061334Y-68336314D01*
X98210656Y-68244212D01*
X98334712Y-68120156D01*
X98426814Y-67970834D01*
X98481999Y-67804297D01*
X98492500Y-67701509D01*
X98492499Y-66901492D01*
X98486575Y-66843504D01*
X98481999Y-66798703D01*
X98481998Y-66798700D01*
X98460226Y-66732998D01*
X98426814Y-66632166D01*
X98334712Y-66482844D01*
X98210656Y-66358788D01*
X98085052Y-66281315D01*
X98061336Y-66266687D01*
X98061331Y-66266685D01*
X98042802Y-66260545D01*
X97894797Y-66211501D01*
X97894795Y-66211500D01*
X97792010Y-66201000D01*
X95991998Y-66201000D01*
X95991981Y-66201001D01*
X95889203Y-66211500D01*
X95889200Y-66211501D01*
X95722668Y-66266685D01*
X95722663Y-66266687D01*
X95706933Y-66276389D01*
X95696963Y-66282539D01*
X95631868Y-66301000D01*
X95128013Y-66301000D01*
X95060974Y-66281315D01*
X95056890Y-66278575D01*
X94886734Y-66159432D01*
X94886730Y-66159430D01*
X94871022Y-66152105D01*
X94818583Y-66105931D01*
X94799433Y-66038737D01*
X94819650Y-65971857D01*
X94871028Y-65927340D01*
X94886481Y-65920134D01*
X94959471Y-65869024D01*
X94278400Y-65187953D01*
X94359148Y-65175165D01*
X94472045Y-65117641D01*
X94561641Y-65028045D01*
X94619165Y-64915148D01*
X94631953Y-64834400D01*
X95313024Y-65515471D01*
X95364136Y-65442478D01*
X95460264Y-65236331D01*
X95460269Y-65236317D01*
X95519139Y-65016610D01*
X95519141Y-65016599D01*
X95538966Y-64790002D01*
X95538966Y-64789997D01*
X95519141Y-64563400D01*
X95519139Y-64563389D01*
X95460269Y-64343682D01*
X95460264Y-64343668D01*
X95364136Y-64137521D01*
X95364132Y-64137513D01*
X95313025Y-64064526D01*
X94631953Y-64745598D01*
X94619165Y-64664852D01*
X94561641Y-64551955D01*
X94472045Y-64462359D01*
X94359148Y-64404835D01*
X94278401Y-64392046D01*
X94959472Y-63710974D01*
X94886478Y-63659863D01*
X94680331Y-63563735D01*
X94680317Y-63563730D01*
X94460610Y-63504860D01*
X94460599Y-63504858D01*
X94234002Y-63485034D01*
X94233998Y-63485034D01*
X94007400Y-63504858D01*
X94007389Y-63504860D01*
X93787682Y-63563730D01*
X93787673Y-63563734D01*
X93581516Y-63659866D01*
X93581512Y-63659868D01*
X93508526Y-63710973D01*
X93508526Y-63710974D01*
X94189599Y-64392046D01*
X94108852Y-64404835D01*
X93995955Y-64462359D01*
X93906359Y-64551955D01*
X93848835Y-64664852D01*
X93836046Y-64745598D01*
X93154974Y-64064526D01*
X93154973Y-64064526D01*
X93103868Y-64137512D01*
X93103866Y-64137516D01*
X93007734Y-64343673D01*
X93007730Y-64343682D01*
X92948860Y-64563389D01*
X92948858Y-64563400D01*
X92929034Y-64789997D01*
X92929034Y-64790002D01*
X92948858Y-65016599D01*
X92948860Y-65016610D01*
X93007730Y-65236317D01*
X93007735Y-65236331D01*
X93103863Y-65442478D01*
X93154974Y-65515472D01*
X93836046Y-64834400D01*
X93848835Y-64915148D01*
X93906359Y-65028045D01*
X93995955Y-65117641D01*
X94108852Y-65175165D01*
X94189599Y-65187953D01*
X93508526Y-65869025D01*
X93581513Y-65920132D01*
X93581515Y-65920133D01*
X93596973Y-65927341D01*
X93649413Y-65973513D01*
X93668566Y-66040706D01*
X93648351Y-66107587D01*
X93596979Y-66152104D01*
X93581270Y-66159429D01*
X93581265Y-66159432D01*
X93394858Y-66289954D01*
X93233954Y-66450858D01*
X93103432Y-66637265D01*
X93103431Y-66637267D01*
X93007261Y-66843502D01*
X93007258Y-66843511D01*
X92948366Y-67063302D01*
X92948364Y-67063313D01*
X92928532Y-67289998D01*
X92928532Y-67290001D01*
X76920773Y-67290001D01*
X77130324Y-66660402D01*
X77131252Y-66657721D01*
X77693875Y-65092640D01*
X77694846Y-65090035D01*
X78294572Y-63538739D01*
X78295599Y-63536175D01*
X78521210Y-62991500D01*
X95292001Y-62991500D01*
X95292001Y-63141486D01*
X95302494Y-63244197D01*
X95357641Y-63410619D01*
X95357643Y-63410624D01*
X95449684Y-63559845D01*
X95573654Y-63683815D01*
X95722875Y-63775856D01*
X95722880Y-63775858D01*
X95889302Y-63831005D01*
X95889309Y-63831006D01*
X95992019Y-63841499D01*
X96641999Y-63841499D01*
X96642000Y-63841498D01*
X96642000Y-62991500D01*
X97142000Y-62991500D01*
X97142000Y-63841499D01*
X97791972Y-63841499D01*
X97791986Y-63841498D01*
X97894697Y-63831005D01*
X98061119Y-63775858D01*
X98061124Y-63775856D01*
X98210345Y-63683815D01*
X98334315Y-63559845D01*
X98426356Y-63410624D01*
X98426358Y-63410619D01*
X98481505Y-63244197D01*
X98481506Y-63244190D01*
X98491999Y-63141486D01*
X98492000Y-63141473D01*
X98492000Y-62991500D01*
X97142000Y-62991500D01*
X96642000Y-62991500D01*
X95292001Y-62991500D01*
X78521210Y-62991500D01*
X78728317Y-62491500D01*
X95292000Y-62491500D01*
X96642000Y-62491500D01*
X96642000Y-61641500D01*
X97142000Y-61641500D01*
X97142000Y-62491500D01*
X98491999Y-62491500D01*
X98491999Y-62341528D01*
X98491998Y-62341513D01*
X98481505Y-62238802D01*
X98426358Y-62072380D01*
X98426356Y-62072375D01*
X98334315Y-61923154D01*
X98210345Y-61799184D01*
X98061124Y-61707143D01*
X98061119Y-61707141D01*
X97894697Y-61651994D01*
X97894690Y-61651993D01*
X97791986Y-61641500D01*
X97142000Y-61641500D01*
X96642000Y-61641500D01*
X95992028Y-61641500D01*
X95992012Y-61641501D01*
X95889302Y-61651994D01*
X95722880Y-61707141D01*
X95722875Y-61707143D01*
X95573654Y-61799184D01*
X95449684Y-61923154D01*
X95357643Y-62072375D01*
X95357641Y-62072380D01*
X95302494Y-62238802D01*
X95302493Y-62238809D01*
X95292000Y-62341513D01*
X95292000Y-62491500D01*
X78728317Y-62491500D01*
X78932059Y-61999624D01*
X78933176Y-61997017D01*
X79472398Y-60778104D01*
X79517520Y-60724762D01*
X79584320Y-60704281D01*
X79651589Y-60723166D01*
X79691028Y-60762681D01*
X79722745Y-60813567D01*
X79722749Y-60813572D01*
X79855294Y-60953009D01*
X79862941Y-60961053D01*
X79987803Y-61047959D01*
X80029949Y-61077294D01*
X80029950Y-61077294D01*
X80029951Y-61077295D01*
X80216942Y-61157540D01*
X80416259Y-61198500D01*
X82448259Y-61198500D01*
X93336412Y-61198500D01*
X93403451Y-61218185D01*
X93407523Y-61220917D01*
X93561266Y-61328568D01*
X93767504Y-61424739D01*
X93987308Y-61483635D01*
X94149230Y-61497801D01*
X94213998Y-61503468D01*
X94214000Y-61503468D01*
X94214002Y-61503468D01*
X94270673Y-61498509D01*
X94440692Y-61483635D01*
X94660496Y-61424739D01*
X94866734Y-61328568D01*
X95014133Y-61225359D01*
X95029035Y-61214925D01*
X95095242Y-61192598D01*
X95100158Y-61192500D01*
X95563868Y-61192500D01*
X95628963Y-61210960D01*
X95654666Y-61226814D01*
X95821203Y-61281999D01*
X95923991Y-61292500D01*
X97724008Y-61292499D01*
X97826797Y-61281999D01*
X97993334Y-61226814D01*
X98142656Y-61134712D01*
X98266712Y-61010656D01*
X98358814Y-60861334D01*
X98413999Y-60694797D01*
X98422456Y-60612019D01*
X99423500Y-60612019D01*
X99434001Y-60714801D01*
X99489184Y-60881333D01*
X99489189Y-60881344D01*
X99581285Y-61030653D01*
X99581288Y-61030657D01*
X99705342Y-61154711D01*
X99705346Y-61154714D01*
X99854655Y-61246810D01*
X99854658Y-61246811D01*
X99854664Y-61246815D01*
X100021200Y-61301999D01*
X100123988Y-61312500D01*
X100123991Y-61312500D01*
X100324500Y-61312500D01*
X100391539Y-61332185D01*
X100437294Y-61384989D01*
X100448500Y-61436500D01*
X100448500Y-61497000D01*
X100428815Y-61564039D01*
X100376011Y-61609794D01*
X100324500Y-61621000D01*
X100191980Y-61621000D01*
X100089198Y-61631501D01*
X99922666Y-61686684D01*
X99922655Y-61686689D01*
X99773346Y-61778785D01*
X99773342Y-61778788D01*
X99649288Y-61902842D01*
X99649285Y-61902846D01*
X99557189Y-62052155D01*
X99557184Y-62052166D01*
X99502001Y-62218698D01*
X99491500Y-62321480D01*
X99491500Y-67721519D01*
X99502001Y-67824301D01*
X99557184Y-67990833D01*
X99557189Y-67990844D01*
X99649285Y-68140153D01*
X99649288Y-68140157D01*
X99773342Y-68264211D01*
X99773346Y-68264214D01*
X99922655Y-68356310D01*
X99922658Y-68356311D01*
X99922664Y-68356315D01*
X100089200Y-68411499D01*
X100191988Y-68422000D01*
X100191991Y-68422000D01*
X100191993Y-68422000D01*
X106192007Y-68422000D01*
X106192012Y-68422000D01*
X106294800Y-68411499D01*
X106461336Y-68356315D01*
X106610657Y-68264212D01*
X106734712Y-68140157D01*
X106826815Y-67990836D01*
X106881999Y-67824300D01*
X106892500Y-67721512D01*
X106892500Y-65987282D01*
X106912185Y-65920243D01*
X106928815Y-65899605D01*
X107007920Y-65820500D01*
X107624001Y-65820500D01*
X107624001Y-66032986D01*
X107634494Y-66135697D01*
X107689641Y-66302119D01*
X107689643Y-66302124D01*
X107781684Y-66451345D01*
X107905654Y-66575315D01*
X108054875Y-66667356D01*
X108054880Y-66667358D01*
X108221302Y-66722505D01*
X108221309Y-66722506D01*
X108324019Y-66732999D01*
X109223999Y-66732999D01*
X109224000Y-66732998D01*
X109224000Y-65820500D01*
X109724000Y-65820500D01*
X109724000Y-66732999D01*
X110623972Y-66732999D01*
X110623986Y-66732998D01*
X110726697Y-66722505D01*
X110893119Y-66667358D01*
X110893124Y-66667356D01*
X111042345Y-66575315D01*
X111166315Y-66451345D01*
X111258356Y-66302124D01*
X111258358Y-66302119D01*
X111313505Y-66135697D01*
X111313506Y-66135690D01*
X111323999Y-66032986D01*
X111324000Y-66032973D01*
X111324000Y-65820500D01*
X109724000Y-65820500D01*
X109224000Y-65820500D01*
X107624001Y-65820500D01*
X107007920Y-65820500D01*
X107478283Y-65350137D01*
X107539601Y-65316655D01*
X107593365Y-65320500D01*
X109224000Y-65320500D01*
X109224000Y-64408000D01*
X109724000Y-64408000D01*
X109724000Y-65320500D01*
X111323999Y-65320500D01*
X111323999Y-65108028D01*
X111323998Y-65108013D01*
X111313505Y-65005302D01*
X111258358Y-64838880D01*
X111258356Y-64838875D01*
X111166315Y-64689654D01*
X111042345Y-64565684D01*
X110893124Y-64473643D01*
X110893119Y-64473641D01*
X110726697Y-64418494D01*
X110726690Y-64418493D01*
X110623986Y-64408000D01*
X109724000Y-64408000D01*
X109224000Y-64408000D01*
X108719782Y-64408000D01*
X108652743Y-64388315D01*
X108606988Y-64335511D01*
X108597044Y-64266353D01*
X108626069Y-64202797D01*
X108632101Y-64196319D01*
X109183601Y-63644818D01*
X109244924Y-63611333D01*
X109271282Y-63608499D01*
X110624002Y-63608499D01*
X110624008Y-63608499D01*
X110726797Y-63597999D01*
X110893334Y-63542814D01*
X111042656Y-63450712D01*
X111166712Y-63326656D01*
X111258814Y-63177334D01*
X111313999Y-63010797D01*
X111324500Y-62908009D01*
X111324499Y-61982992D01*
X111318386Y-61923154D01*
X111313999Y-61880203D01*
X111313998Y-61880200D01*
X111310153Y-61868597D01*
X111258814Y-61713666D01*
X111166712Y-61564344D01*
X111158049Y-61555681D01*
X111124564Y-61494358D01*
X111129548Y-61424666D01*
X111158049Y-61380319D01*
X111162088Y-61376280D01*
X111166712Y-61371656D01*
X111258814Y-61222334D01*
X111313999Y-61055797D01*
X111324500Y-60953009D01*
X111324499Y-60027992D01*
X111313999Y-59925203D01*
X111258814Y-59758666D01*
X111166712Y-59609344D01*
X111042656Y-59485288D01*
X110893334Y-59393186D01*
X110726797Y-59338001D01*
X110726795Y-59338000D01*
X110624016Y-59327500D01*
X110624009Y-59327500D01*
X109205783Y-59327500D01*
X109138744Y-59307815D01*
X109118102Y-59291181D01*
X108907472Y-59080552D01*
X108907470Y-59080549D01*
X108838551Y-59011630D01*
X108836358Y-59009381D01*
X108776060Y-58945948D01*
X108776058Y-58945946D01*
X108774607Y-58944936D01*
X108757762Y-58930842D01*
X108566600Y-58739680D01*
X108533115Y-58678357D01*
X108538099Y-58608665D01*
X108579971Y-58552732D01*
X108645435Y-58528315D01*
X108654281Y-58527999D01*
X109224000Y-58527999D01*
X109224000Y-57615500D01*
X109724000Y-57615500D01*
X109724000Y-58527999D01*
X110623972Y-58527999D01*
X110623986Y-58527998D01*
X110726697Y-58517505D01*
X110893119Y-58462358D01*
X110893124Y-58462356D01*
X111042345Y-58370315D01*
X111166315Y-58246345D01*
X111258356Y-58097124D01*
X111258358Y-58097119D01*
X111313505Y-57930697D01*
X111313506Y-57930690D01*
X111323999Y-57827986D01*
X111324000Y-57827973D01*
X111324000Y-57615500D01*
X109724000Y-57615500D01*
X109224000Y-57615500D01*
X107623999Y-57615500D01*
X107621291Y-57618208D01*
X107559967Y-57651692D01*
X107490275Y-57646706D01*
X107460220Y-57630473D01*
X107457194Y-57628251D01*
X107442905Y-57615984D01*
X106942421Y-57115500D01*
X107624000Y-57115500D01*
X109224000Y-57115500D01*
X109224000Y-56203000D01*
X109724000Y-56203000D01*
X109724000Y-57115500D01*
X111323999Y-57115500D01*
X111323999Y-56903028D01*
X111323998Y-56903013D01*
X111313505Y-56800302D01*
X111258358Y-56633880D01*
X111258356Y-56633875D01*
X111166315Y-56484654D01*
X111042345Y-56360684D01*
X110893124Y-56268643D01*
X110893119Y-56268641D01*
X110726697Y-56213494D01*
X110726690Y-56213493D01*
X110623986Y-56203000D01*
X109724000Y-56203000D01*
X109224000Y-56203000D01*
X108324028Y-56203000D01*
X108324012Y-56203001D01*
X108221302Y-56213494D01*
X108054880Y-56268641D01*
X108054875Y-56268643D01*
X107905654Y-56360684D01*
X107781684Y-56484654D01*
X107689643Y-56633875D01*
X107689641Y-56633880D01*
X107634494Y-56800302D01*
X107634493Y-56800309D01*
X107624000Y-56903013D01*
X107624000Y-57115500D01*
X106942421Y-57115500D01*
X106860819Y-57033898D01*
X106827334Y-56972575D01*
X106824500Y-56946217D01*
X106824500Y-55211993D01*
X106824499Y-55211980D01*
X106813999Y-55109200D01*
X106758815Y-54942664D01*
X106758811Y-54942658D01*
X106758810Y-54942655D01*
X106666714Y-54793346D01*
X106666711Y-54793342D01*
X106542657Y-54669288D01*
X106542653Y-54669285D01*
X106393344Y-54577189D01*
X106393338Y-54577186D01*
X106393336Y-54577185D01*
X106323036Y-54553890D01*
X106226801Y-54522001D01*
X106124019Y-54511500D01*
X106124012Y-54511500D01*
X100123988Y-54511500D01*
X100123980Y-54511500D01*
X100021198Y-54522001D01*
X99854666Y-54577184D01*
X99854655Y-54577189D01*
X99705346Y-54669285D01*
X99705342Y-54669288D01*
X99581288Y-54793342D01*
X99581285Y-54793346D01*
X99489189Y-54942655D01*
X99489184Y-54942666D01*
X99434001Y-55109198D01*
X99423500Y-55211980D01*
X99423500Y-60612019D01*
X98422456Y-60612019D01*
X98424500Y-60592009D01*
X98424499Y-59791992D01*
X98422530Y-59772721D01*
X98413999Y-59689203D01*
X98413998Y-59689200D01*
X98387536Y-59609344D01*
X98358814Y-59522666D01*
X98266712Y-59373344D01*
X98142656Y-59249288D01*
X98017052Y-59171815D01*
X97993336Y-59157187D01*
X97993331Y-59157185D01*
X97948275Y-59142255D01*
X97826797Y-59102001D01*
X97826795Y-59102000D01*
X97724010Y-59091500D01*
X95923998Y-59091500D01*
X95923981Y-59091501D01*
X95821203Y-59102000D01*
X95821200Y-59102001D01*
X95654668Y-59157185D01*
X95654663Y-59157187D01*
X95638933Y-59166889D01*
X95628963Y-59173039D01*
X95563868Y-59191500D01*
X95083019Y-59191500D01*
X95015980Y-59171815D01*
X95011908Y-59169083D01*
X94866734Y-59067432D01*
X94866728Y-59067429D01*
X94851022Y-59060105D01*
X94798583Y-59013931D01*
X94779433Y-58946737D01*
X94799650Y-58879857D01*
X94851028Y-58835340D01*
X94866481Y-58828134D01*
X94939471Y-58777024D01*
X94258400Y-58095953D01*
X94339148Y-58083165D01*
X94452045Y-58025641D01*
X94541641Y-57936045D01*
X94599165Y-57823148D01*
X94611953Y-57742400D01*
X95293024Y-58423471D01*
X95344136Y-58350478D01*
X95440264Y-58144331D01*
X95440269Y-58144317D01*
X95499139Y-57924610D01*
X95499141Y-57924599D01*
X95518966Y-57698002D01*
X95518966Y-57697997D01*
X95499141Y-57471400D01*
X95499139Y-57471389D01*
X95440269Y-57251682D01*
X95440264Y-57251668D01*
X95344136Y-57045521D01*
X95344132Y-57045513D01*
X95293025Y-56972526D01*
X94611953Y-57653598D01*
X94599165Y-57572852D01*
X94541641Y-57459955D01*
X94452045Y-57370359D01*
X94339148Y-57312835D01*
X94258401Y-57300046D01*
X94939472Y-56618974D01*
X94866478Y-56567863D01*
X94660331Y-56471735D01*
X94660317Y-56471730D01*
X94440610Y-56412860D01*
X94440599Y-56412858D01*
X94214002Y-56393034D01*
X94213998Y-56393034D01*
X93987400Y-56412858D01*
X93987389Y-56412860D01*
X93767682Y-56471730D01*
X93767673Y-56471734D01*
X93561516Y-56567866D01*
X93561512Y-56567868D01*
X93488526Y-56618973D01*
X93488526Y-56618974D01*
X94169599Y-57300046D01*
X94088852Y-57312835D01*
X93975955Y-57370359D01*
X93886359Y-57459955D01*
X93828835Y-57572852D01*
X93816046Y-57653598D01*
X93134974Y-56972526D01*
X93134973Y-56972526D01*
X93083868Y-57045512D01*
X93083866Y-57045516D01*
X92987734Y-57251673D01*
X92987730Y-57251682D01*
X92928860Y-57471389D01*
X92928858Y-57471400D01*
X92909034Y-57697997D01*
X92909034Y-57698002D01*
X92928858Y-57924599D01*
X92928860Y-57924610D01*
X92987730Y-58144317D01*
X92987735Y-58144331D01*
X93083863Y-58350478D01*
X93134974Y-58423472D01*
X93816046Y-57742400D01*
X93828835Y-57823148D01*
X93886359Y-57936045D01*
X93975955Y-58025641D01*
X94088852Y-58083165D01*
X94169599Y-58095953D01*
X93488526Y-58777025D01*
X93561513Y-58828132D01*
X93561515Y-58828133D01*
X93576973Y-58835341D01*
X93629413Y-58881513D01*
X93648566Y-58948706D01*
X93628351Y-59015587D01*
X93576979Y-59060104D01*
X93561270Y-59067429D01*
X93561265Y-59067432D01*
X93458595Y-59139322D01*
X93410443Y-59173039D01*
X93407535Y-59175075D01*
X93341329Y-59197402D01*
X93336412Y-59197500D01*
X80467254Y-59197500D01*
X80413533Y-59202962D01*
X80344846Y-59190160D01*
X80293985Y-59142255D01*
X80277097Y-59074457D01*
X80288815Y-59026753D01*
X80316016Y-58969019D01*
X80317242Y-58966496D01*
X81061685Y-57479289D01*
X81062984Y-57476767D01*
X81842600Y-56007714D01*
X81844007Y-56005140D01*
X81844874Y-56003596D01*
X81913161Y-55882000D01*
X95224001Y-55882000D01*
X95224001Y-56031986D01*
X95234494Y-56134697D01*
X95289641Y-56301119D01*
X95289643Y-56301124D01*
X95381684Y-56450345D01*
X95505654Y-56574315D01*
X95654875Y-56666356D01*
X95654880Y-56666358D01*
X95821302Y-56721505D01*
X95821309Y-56721506D01*
X95924019Y-56731999D01*
X96573999Y-56731999D01*
X96574000Y-56731998D01*
X96574000Y-55882000D01*
X97074000Y-55882000D01*
X97074000Y-56731999D01*
X97723972Y-56731999D01*
X97723986Y-56731998D01*
X97826697Y-56721505D01*
X97993119Y-56666358D01*
X97993124Y-56666356D01*
X98142345Y-56574315D01*
X98266315Y-56450345D01*
X98358356Y-56301124D01*
X98358358Y-56301119D01*
X98413505Y-56134697D01*
X98413506Y-56134690D01*
X98423999Y-56031986D01*
X98424000Y-56031973D01*
X98424000Y-55882000D01*
X97074000Y-55882000D01*
X96574000Y-55882000D01*
X95224001Y-55882000D01*
X81913161Y-55882000D01*
X82193957Y-55382000D01*
X95224000Y-55382000D01*
X96574000Y-55382000D01*
X96574000Y-54532000D01*
X97074000Y-54532000D01*
X97074000Y-55382000D01*
X98423999Y-55382000D01*
X98423999Y-55232028D01*
X98423998Y-55232013D01*
X98413505Y-55129302D01*
X98358358Y-54962880D01*
X98358356Y-54962875D01*
X98266315Y-54813654D01*
X98142345Y-54689684D01*
X97993124Y-54597643D01*
X97993119Y-54597641D01*
X97826697Y-54542494D01*
X97826690Y-54542493D01*
X97723986Y-54532000D01*
X97074000Y-54532000D01*
X96574000Y-54532000D01*
X95924028Y-54532000D01*
X95924012Y-54532001D01*
X95821302Y-54542494D01*
X95654880Y-54597641D01*
X95654875Y-54597643D01*
X95505654Y-54689684D01*
X95381684Y-54813654D01*
X95289643Y-54962875D01*
X95289641Y-54962880D01*
X95234494Y-55129302D01*
X95234493Y-55129309D01*
X95224000Y-55232013D01*
X95224000Y-55382000D01*
X82193957Y-55382000D01*
X82658311Y-54555145D01*
X82659745Y-54552659D01*
X83508383Y-53122357D01*
X83509838Y-53119969D01*
X84392313Y-51710203D01*
X84393790Y-51707905D01*
X85309538Y-50319581D01*
X85311135Y-50317221D01*
X86202315Y-49033678D01*
X100519500Y-49033678D01*
X100557254Y-49308357D01*
X100558629Y-49318357D01*
X100558630Y-49318364D01*
X100588054Y-49423379D01*
X100636156Y-49595058D01*
X100636157Y-49595061D01*
X100636158Y-49595063D01*
X100636158Y-49595064D01*
X100750634Y-49858617D01*
X100893863Y-50094147D01*
X100899945Y-50104147D01*
X101081292Y-50327053D01*
X101185962Y-50424808D01*
X101291299Y-50523187D01*
X101291302Y-50523189D01*
X101526064Y-50688901D01*
X101781203Y-50821104D01*
X101781206Y-50821105D01*
X102023830Y-50907334D01*
X102051968Y-50917334D01*
X102333314Y-50975798D01*
X102548248Y-50990500D01*
X102548255Y-50990500D01*
X102691745Y-50990500D01*
X102691752Y-50990500D01*
X102906686Y-50975798D01*
X103188032Y-50917334D01*
X103458797Y-50821104D01*
X103713936Y-50688901D01*
X103948698Y-50523189D01*
X104158708Y-50327053D01*
X104340055Y-50104147D01*
X104489361Y-49858625D01*
X104489363Y-49858620D01*
X104489365Y-49858617D01*
X104575636Y-49660000D01*
X104603844Y-49595058D01*
X104681371Y-49318358D01*
X104720500Y-49033678D01*
X104720500Y-48746322D01*
X104681371Y-48461642D01*
X104603844Y-48184942D01*
X104592253Y-48158256D01*
X104489365Y-47921382D01*
X104397280Y-47769956D01*
X104340055Y-47675853D01*
X104158708Y-47452947D01*
X104039831Y-47341923D01*
X103948700Y-47256812D01*
X103713935Y-47091098D01*
X103458793Y-46958894D01*
X103188037Y-46862667D01*
X103188034Y-46862666D01*
X103011509Y-46825984D01*
X102906686Y-46804202D01*
X102906684Y-46804201D01*
X102906680Y-46804201D01*
X102788070Y-46796088D01*
X102691752Y-46789500D01*
X102548248Y-46789500D01*
X102457724Y-46795691D01*
X102333319Y-46804201D01*
X102051965Y-46862666D01*
X102051962Y-46862667D01*
X101781206Y-46958894D01*
X101526064Y-47091098D01*
X101291299Y-47256812D01*
X101081289Y-47452950D01*
X100899944Y-47675853D01*
X100750634Y-47921382D01*
X100636158Y-48184935D01*
X100636158Y-48184936D01*
X100558630Y-48461635D01*
X100558629Y-48461642D01*
X100520875Y-48736321D01*
X100519500Y-48746322D01*
X100519500Y-49033678D01*
X86202315Y-49033678D01*
X86259662Y-48951082D01*
X86261272Y-48948822D01*
X87242028Y-47605660D01*
X87243740Y-47603374D01*
X88256139Y-46283989D01*
X88257953Y-46281683D01*
X88261637Y-46277112D01*
X89301478Y-44986746D01*
X89303270Y-44984577D01*
X90377367Y-43714781D01*
X90379223Y-43712640D01*
X91483191Y-42468813D01*
X91485088Y-42466726D01*
X92618380Y-41249484D01*
X92620337Y-41247432D01*
X93782243Y-40057539D01*
X93784260Y-40055522D01*
X94974153Y-38893616D01*
X94976205Y-38891659D01*
X96193447Y-37758367D01*
X96195534Y-37756470D01*
X97439361Y-36652502D01*
X97441502Y-36650646D01*
X98711298Y-35576549D01*
X98713467Y-35574757D01*
X100008416Y-34531221D01*
X100010724Y-34529408D01*
X101330095Y-33517019D01*
X101332381Y-33515307D01*
X102675543Y-32534551D01*
X102677803Y-32532941D01*
X104043942Y-31584414D01*
X104046302Y-31582817D01*
X105434626Y-30667069D01*
X105436924Y-30665592D01*
X106846690Y-29783117D01*
X106849078Y-29781662D01*
X108279380Y-28933024D01*
X108281866Y-28931590D01*
X109731877Y-28117277D01*
X109734451Y-28115871D01*
X109743025Y-28111321D01*
X111203488Y-27336263D01*
X111206010Y-27334964D01*
X112693216Y-26590521D01*
X112695773Y-26589280D01*
X114200189Y-25880481D01*
X114202858Y-25879262D01*
X115720426Y-25207920D01*
X115725180Y-25205842D01*
X115727099Y-25205026D01*
X117249816Y-24574296D01*
X117266600Y-24567432D01*
X117268477Y-24566685D01*
X118794327Y-23976796D01*
X118822675Y-23965985D01*
X118824789Y-23965202D01*
X120352987Y-23415838D01*
X120392824Y-23401727D01*
X120394890Y-23401018D01*
X121924889Y-22891785D01*
X121975985Y-22875048D01*
X121977918Y-22874436D01*
X123509470Y-22404865D01*
X123571055Y-22386310D01*
X123573107Y-22385713D01*
X125105104Y-21955613D01*
X125177530Y-21935665D01*
X125179411Y-21935166D01*
X126711442Y-21544138D01*
X126794092Y-21523485D01*
X126796121Y-21522998D01*
X128327540Y-21170722D01*
X128420116Y-21149924D01*
X128422039Y-21149511D01*
X129952358Y-20835635D01*
X130054553Y-20815228D01*
X130056447Y-20814867D01*
X131585062Y-20539075D01*
X131696408Y-20519594D01*
X131698492Y-20519250D01*
X133224721Y-20281241D01*
X133344977Y-20263151D01*
X133346874Y-20262884D01*
X134870176Y-20062338D01*
X134999054Y-20046088D01*
X135000967Y-20045864D01*
X136520585Y-19882488D01*
X136520750Y-19882471D01*
X136657819Y-19868506D01*
X136659960Y-19868308D01*
X138175329Y-19741785D01*
X138320387Y-19730500D01*
X138322488Y-19730356D01*
X139833122Y-19640367D01*
X139985838Y-19632151D01*
X139987825Y-19632062D01*
X141492869Y-19578309D01*
X141653181Y-19573520D01*
X141655086Y-19573481D01*
X143154140Y-19555642D01*
X143321324Y-19554644D01*
X143323260Y-19554650D01*
G37*
%TD.AperFunction*%
%TD*%
M02*
