%TF.GenerationSoftware,KiCad,Pcbnew,7.0.11*%
%TF.CreationDate,2025-03-06T22:48:20+09:00*%
%TF.ProjectId,IO,494f2e6b-6963-4616-945f-706362585858,rev?*%
%TF.SameCoordinates,Original*%
%TF.FileFunction,Drillmap*%
%TF.FilePolarity,Positive*%
%FSLAX45Y45*%
G04 Gerber Fmt 4.5, Leading zero omitted, Abs format (unit mm)*
G04 Created by KiCad (PCBNEW 7.0.11) date 2025-03-06 22:48:20*
%MOMM*%
%LPD*%
G01*
G04 APERTURE LIST*
%ADD10C,0.200000*%
%ADD11C,0.220000*%
%ADD12C,0.310000*%
%ADD13C,0.100000*%
%ADD14C,0.320000*%
%ADD15C,2.000000*%
G04 APERTURE END LIST*
D10*
X12116610Y-5796434D02*
G75*
G03*
X11796610Y-5796434I-160000J0D01*
G01*
X11796610Y-5796434D02*
G75*
G03*
X12116610Y-5796434I160000J0D01*
G01*
X14848036Y-5255364D02*
X14848036Y-6055364D01*
X13908036Y-5155364D02*
X14748036Y-5155364D01*
X12738036Y-5155364D02*
G75*
G03*
X12518036Y-5155364I-110000J0D01*
G01*
X12518036Y-5155364D02*
G75*
G03*
X12738036Y-5155364I110000J0D01*
G01*
X14848036Y-5255364D02*
G75*
G03*
X14748036Y-5155364I-99996J4D01*
G01*
X18503900Y-4889500D02*
G75*
G03*
X18283900Y-4889500I-110000J0D01*
G01*
X18283900Y-4889500D02*
G75*
G03*
X18503900Y-4889500I110000J0D01*
G01*
X13808036Y-6055364D02*
G75*
G03*
X13908036Y-6155364I100004J4D01*
G01*
X14748036Y-6155364D02*
X13908036Y-6155364D01*
X21328036Y-8955364D02*
G75*
G03*
X7328036Y-8955364I-7000000J0D01*
G01*
X7328036Y-8955364D02*
G75*
G03*
X21328036Y-8955364I7000000J0D01*
G01*
X17468036Y-7225364D02*
X17468036Y-12285364D01*
X13908036Y-5155356D02*
G75*
G03*
X13808036Y-5255364I4J-100004D01*
G01*
X16138036Y-5155364D02*
G75*
G03*
X15918036Y-5155364I-110000J0D01*
G01*
X15918036Y-5155364D02*
G75*
G03*
X16138036Y-5155364I110000J0D01*
G01*
X13808036Y-6055364D02*
X13808036Y-5255364D01*
X12938036Y-12588544D02*
G75*
G03*
X12618036Y-12588544I-160000J0D01*
G01*
X12618036Y-12588544D02*
G75*
G03*
X12938036Y-12588544I160000J0D01*
G01*
X18503900Y-13021228D02*
G75*
G03*
X18283900Y-13021228I-110000J0D01*
G01*
X18283900Y-13021228D02*
G75*
G03*
X18503900Y-13021228I110000J0D01*
G01*
X15328036Y-13655364D02*
G75*
G03*
X13328036Y-13655364I-1000000J0D01*
G01*
X13328036Y-13655364D02*
G75*
G03*
X15328036Y-13655364I1000000J0D01*
G01*
X10488036Y-12285364D02*
X10488036Y-7225364D01*
X17468036Y-12285364D02*
X10488036Y-12285364D01*
X16038036Y-12588544D02*
G75*
G03*
X15718036Y-12588544I-160000J0D01*
G01*
X15718036Y-12588544D02*
G75*
G03*
X16038036Y-12588544I160000J0D01*
G01*
X16859463Y-5796434D02*
G75*
G03*
X16539463Y-5796434I-160000J0D01*
G01*
X16539463Y-5796434D02*
G75*
G03*
X16859463Y-5796434I160000J0D01*
G01*
X14748036Y-6155356D02*
G75*
G03*
X14848036Y-6055364I4J99996D01*
G01*
X10488036Y-7225364D02*
X17468036Y-7225364D01*
X10372172Y-13021228D02*
G75*
G03*
X10152172Y-13021228I-110000J0D01*
G01*
X10152172Y-13021228D02*
G75*
G03*
X10372172Y-13021228I110000J0D01*
G01*
X10372172Y-4889500D02*
G75*
G03*
X10152172Y-4889500I-110000J0D01*
G01*
X10152172Y-4889500D02*
G75*
G03*
X10372172Y-4889500I110000J0D01*
G01*
D11*
X10152000Y-4779000D02*
X10372000Y-4999000D01*
X10372000Y-4779000D02*
X10152000Y-4999000D01*
X10153000Y-12911000D02*
X10373000Y-13131000D01*
X10373000Y-12911000D02*
X10153000Y-13131000D01*
X12519000Y-5046000D02*
X12739000Y-5266000D01*
X12739000Y-5046000D02*
X12519000Y-5266000D01*
X15919000Y-5047000D02*
X16139000Y-5267000D01*
X16139000Y-5047000D02*
X15919000Y-5267000D01*
X18285000Y-4778000D02*
X18505000Y-4998000D01*
X18505000Y-4778000D02*
X18285000Y-4998000D01*
X18285000Y-12910000D02*
X18505000Y-13130000D01*
X18505000Y-12910000D02*
X18285000Y-13130000D01*
D12*
X14501144Y-4591785D02*
G75*
G03*
X14191144Y-4591785I-155000J0D01*
G01*
X14191144Y-4591785D02*
G75*
G03*
X14501144Y-4591785I155000J0D01*
G01*
D13*
X14501144Y-4651785D02*
X14501144Y-4531785D01*
X14501144Y-4531785D02*
G75*
G03*
X14191144Y-4531785I-155000J0D01*
G01*
X14191144Y-4531785D02*
X14191144Y-4651785D01*
X14191144Y-4651785D02*
G75*
G03*
X14501144Y-4651785I155000J0D01*
G01*
D14*
X11959000Y-5637000D02*
X11959000Y-5957000D01*
X11799000Y-5797000D02*
X12119000Y-5797000D01*
X12779000Y-12429000D02*
X12779000Y-12749000D01*
X12619000Y-12589000D02*
X12939000Y-12589000D01*
X15879000Y-12429000D02*
X15879000Y-12749000D01*
X15719000Y-12589000D02*
X16039000Y-12589000D01*
X16700000Y-5637000D02*
X16700000Y-5957000D01*
X16540000Y-5797000D02*
X16860000Y-5797000D01*
D15*
X15036114Y-14364114D02*
X15036114Y-12949886D01*
X13621886Y-12949886D01*
X13621886Y-14364114D01*
X15036114Y-14364114D01*
D10*
X7578813Y-16276848D02*
X7578813Y-16076848D01*
X7578813Y-16076848D02*
X7626432Y-16076848D01*
X7626432Y-16076848D02*
X7655003Y-16086372D01*
X7655003Y-16086372D02*
X7674051Y-16105419D01*
X7674051Y-16105419D02*
X7683575Y-16124467D01*
X7683575Y-16124467D02*
X7693099Y-16162562D01*
X7693099Y-16162562D02*
X7693099Y-16191133D01*
X7693099Y-16191133D02*
X7683575Y-16229229D01*
X7683575Y-16229229D02*
X7674051Y-16248276D01*
X7674051Y-16248276D02*
X7655003Y-16267324D01*
X7655003Y-16267324D02*
X7626432Y-16276848D01*
X7626432Y-16276848D02*
X7578813Y-16276848D01*
X7778813Y-16276848D02*
X7778813Y-16143514D01*
X7778813Y-16181610D02*
X7788337Y-16162562D01*
X7788337Y-16162562D02*
X7797860Y-16153038D01*
X7797860Y-16153038D02*
X7816908Y-16143514D01*
X7816908Y-16143514D02*
X7835956Y-16143514D01*
X7902622Y-16276848D02*
X7902622Y-16143514D01*
X7902622Y-16076848D02*
X7893099Y-16086372D01*
X7893099Y-16086372D02*
X7902622Y-16095895D01*
X7902622Y-16095895D02*
X7912146Y-16086372D01*
X7912146Y-16086372D02*
X7902622Y-16076848D01*
X7902622Y-16076848D02*
X7902622Y-16095895D01*
X8026432Y-16276848D02*
X8007384Y-16267324D01*
X8007384Y-16267324D02*
X7997860Y-16248276D01*
X7997860Y-16248276D02*
X7997860Y-16076848D01*
X8131194Y-16276848D02*
X8112146Y-16267324D01*
X8112146Y-16267324D02*
X8102622Y-16248276D01*
X8102622Y-16248276D02*
X8102622Y-16076848D01*
X8359765Y-16276848D02*
X8359765Y-16076848D01*
X8359765Y-16076848D02*
X8426432Y-16219705D01*
X8426432Y-16219705D02*
X8493099Y-16076848D01*
X8493099Y-16076848D02*
X8493099Y-16276848D01*
X8674051Y-16276848D02*
X8674051Y-16172086D01*
X8674051Y-16172086D02*
X8664527Y-16153038D01*
X8664527Y-16153038D02*
X8645480Y-16143514D01*
X8645480Y-16143514D02*
X8607384Y-16143514D01*
X8607384Y-16143514D02*
X8588337Y-16153038D01*
X8674051Y-16267324D02*
X8655003Y-16276848D01*
X8655003Y-16276848D02*
X8607384Y-16276848D01*
X8607384Y-16276848D02*
X8588337Y-16267324D01*
X8588337Y-16267324D02*
X8578813Y-16248276D01*
X8578813Y-16248276D02*
X8578813Y-16229229D01*
X8578813Y-16229229D02*
X8588337Y-16210181D01*
X8588337Y-16210181D02*
X8607384Y-16200657D01*
X8607384Y-16200657D02*
X8655003Y-16200657D01*
X8655003Y-16200657D02*
X8674051Y-16191133D01*
X8769289Y-16143514D02*
X8769289Y-16343514D01*
X8769289Y-16153038D02*
X8788337Y-16143514D01*
X8788337Y-16143514D02*
X8826432Y-16143514D01*
X8826432Y-16143514D02*
X8845480Y-16153038D01*
X8845480Y-16153038D02*
X8855003Y-16162562D01*
X8855003Y-16162562D02*
X8864527Y-16181610D01*
X8864527Y-16181610D02*
X8864527Y-16238752D01*
X8864527Y-16238752D02*
X8855003Y-16257800D01*
X8855003Y-16257800D02*
X8845480Y-16267324D01*
X8845480Y-16267324D02*
X8826432Y-16276848D01*
X8826432Y-16276848D02*
X8788337Y-16276848D01*
X8788337Y-16276848D02*
X8769289Y-16267324D01*
X8950242Y-16257800D02*
X8959765Y-16267324D01*
X8959765Y-16267324D02*
X8950242Y-16276848D01*
X8950242Y-16276848D02*
X8940718Y-16267324D01*
X8940718Y-16267324D02*
X8950242Y-16257800D01*
X8950242Y-16257800D02*
X8950242Y-16276848D01*
X8950242Y-16153038D02*
X8959765Y-16162562D01*
X8959765Y-16162562D02*
X8950242Y-16172086D01*
X8950242Y-16172086D02*
X8940718Y-16162562D01*
X8940718Y-16162562D02*
X8950242Y-16153038D01*
X8950242Y-16153038D02*
X8950242Y-16172086D01*
X7118036Y-16505364D02*
X7318036Y-16705364D01*
X7318036Y-16505364D02*
X7118036Y-16705364D01*
X7569289Y-16515895D02*
X7578813Y-16506372D01*
X7578813Y-16506372D02*
X7597860Y-16496848D01*
X7597860Y-16496848D02*
X7645480Y-16496848D01*
X7645480Y-16496848D02*
X7664527Y-16506372D01*
X7664527Y-16506372D02*
X7674051Y-16515895D01*
X7674051Y-16515895D02*
X7683575Y-16534943D01*
X7683575Y-16534943D02*
X7683575Y-16553991D01*
X7683575Y-16553991D02*
X7674051Y-16582562D01*
X7674051Y-16582562D02*
X7559765Y-16696848D01*
X7559765Y-16696848D02*
X7683575Y-16696848D01*
X7769289Y-16677800D02*
X7778813Y-16687324D01*
X7778813Y-16687324D02*
X7769289Y-16696848D01*
X7769289Y-16696848D02*
X7759765Y-16687324D01*
X7759765Y-16687324D02*
X7769289Y-16677800D01*
X7769289Y-16677800D02*
X7769289Y-16696848D01*
X7855003Y-16515895D02*
X7864527Y-16506372D01*
X7864527Y-16506372D02*
X7883575Y-16496848D01*
X7883575Y-16496848D02*
X7931194Y-16496848D01*
X7931194Y-16496848D02*
X7950241Y-16506372D01*
X7950241Y-16506372D02*
X7959765Y-16515895D01*
X7959765Y-16515895D02*
X7969289Y-16534943D01*
X7969289Y-16534943D02*
X7969289Y-16553991D01*
X7969289Y-16553991D02*
X7959765Y-16582562D01*
X7959765Y-16582562D02*
X7845480Y-16696848D01*
X7845480Y-16696848D02*
X7969289Y-16696848D01*
X8093099Y-16496848D02*
X8112146Y-16496848D01*
X8112146Y-16496848D02*
X8131194Y-16506372D01*
X8131194Y-16506372D02*
X8140718Y-16515895D01*
X8140718Y-16515895D02*
X8150241Y-16534943D01*
X8150241Y-16534943D02*
X8159765Y-16573038D01*
X8159765Y-16573038D02*
X8159765Y-16620657D01*
X8159765Y-16620657D02*
X8150241Y-16658752D01*
X8150241Y-16658752D02*
X8140718Y-16677800D01*
X8140718Y-16677800D02*
X8131194Y-16687324D01*
X8131194Y-16687324D02*
X8112146Y-16696848D01*
X8112146Y-16696848D02*
X8093099Y-16696848D01*
X8093099Y-16696848D02*
X8074051Y-16687324D01*
X8074051Y-16687324D02*
X8064527Y-16677800D01*
X8064527Y-16677800D02*
X8055003Y-16658752D01*
X8055003Y-16658752D02*
X8045480Y-16620657D01*
X8045480Y-16620657D02*
X8045480Y-16573038D01*
X8045480Y-16573038D02*
X8055003Y-16534943D01*
X8055003Y-16534943D02*
X8064527Y-16515895D01*
X8064527Y-16515895D02*
X8074051Y-16506372D01*
X8074051Y-16506372D02*
X8093099Y-16496848D01*
X8283575Y-16496848D02*
X8302622Y-16496848D01*
X8302622Y-16496848D02*
X8321670Y-16506372D01*
X8321670Y-16506372D02*
X8331194Y-16515895D01*
X8331194Y-16515895D02*
X8340718Y-16534943D01*
X8340718Y-16534943D02*
X8350241Y-16573038D01*
X8350241Y-16573038D02*
X8350241Y-16620657D01*
X8350241Y-16620657D02*
X8340718Y-16658752D01*
X8340718Y-16658752D02*
X8331194Y-16677800D01*
X8331194Y-16677800D02*
X8321670Y-16687324D01*
X8321670Y-16687324D02*
X8302622Y-16696848D01*
X8302622Y-16696848D02*
X8283575Y-16696848D01*
X8283575Y-16696848D02*
X8264527Y-16687324D01*
X8264527Y-16687324D02*
X8255003Y-16677800D01*
X8255003Y-16677800D02*
X8245480Y-16658752D01*
X8245480Y-16658752D02*
X8235956Y-16620657D01*
X8235956Y-16620657D02*
X8235956Y-16573038D01*
X8235956Y-16573038D02*
X8245480Y-16534943D01*
X8245480Y-16534943D02*
X8255003Y-16515895D01*
X8255003Y-16515895D02*
X8264527Y-16506372D01*
X8264527Y-16506372D02*
X8283575Y-16496848D01*
X8435956Y-16696848D02*
X8435956Y-16563514D01*
X8435956Y-16582562D02*
X8445480Y-16573038D01*
X8445480Y-16573038D02*
X8464527Y-16563514D01*
X8464527Y-16563514D02*
X8493099Y-16563514D01*
X8493099Y-16563514D02*
X8512146Y-16573038D01*
X8512146Y-16573038D02*
X8521670Y-16592086D01*
X8521670Y-16592086D02*
X8521670Y-16696848D01*
X8521670Y-16592086D02*
X8531194Y-16573038D01*
X8531194Y-16573038D02*
X8550242Y-16563514D01*
X8550242Y-16563514D02*
X8578813Y-16563514D01*
X8578813Y-16563514D02*
X8597861Y-16573038D01*
X8597861Y-16573038D02*
X8607384Y-16592086D01*
X8607384Y-16592086D02*
X8607384Y-16696848D01*
X8702623Y-16696848D02*
X8702623Y-16563514D01*
X8702623Y-16582562D02*
X8712146Y-16573038D01*
X8712146Y-16573038D02*
X8731194Y-16563514D01*
X8731194Y-16563514D02*
X8759765Y-16563514D01*
X8759765Y-16563514D02*
X8778813Y-16573038D01*
X8778813Y-16573038D02*
X8788337Y-16592086D01*
X8788337Y-16592086D02*
X8788337Y-16696848D01*
X8788337Y-16592086D02*
X8797861Y-16573038D01*
X8797861Y-16573038D02*
X8816908Y-16563514D01*
X8816908Y-16563514D02*
X8845480Y-16563514D01*
X8845480Y-16563514D02*
X8864527Y-16573038D01*
X8864527Y-16573038D02*
X8874051Y-16592086D01*
X8874051Y-16592086D02*
X8874051Y-16696848D01*
X9264527Y-16487324D02*
X9093099Y-16744467D01*
X9521670Y-16496848D02*
X9540718Y-16496848D01*
X9540718Y-16496848D02*
X9559766Y-16506372D01*
X9559766Y-16506372D02*
X9569289Y-16515895D01*
X9569289Y-16515895D02*
X9578813Y-16534943D01*
X9578813Y-16534943D02*
X9588337Y-16573038D01*
X9588337Y-16573038D02*
X9588337Y-16620657D01*
X9588337Y-16620657D02*
X9578813Y-16658752D01*
X9578813Y-16658752D02*
X9569289Y-16677800D01*
X9569289Y-16677800D02*
X9559766Y-16687324D01*
X9559766Y-16687324D02*
X9540718Y-16696848D01*
X9540718Y-16696848D02*
X9521670Y-16696848D01*
X9521670Y-16696848D02*
X9502623Y-16687324D01*
X9502623Y-16687324D02*
X9493099Y-16677800D01*
X9493099Y-16677800D02*
X9483575Y-16658752D01*
X9483575Y-16658752D02*
X9474051Y-16620657D01*
X9474051Y-16620657D02*
X9474051Y-16573038D01*
X9474051Y-16573038D02*
X9483575Y-16534943D01*
X9483575Y-16534943D02*
X9493099Y-16515895D01*
X9493099Y-16515895D02*
X9502623Y-16506372D01*
X9502623Y-16506372D02*
X9521670Y-16496848D01*
X9674051Y-16677800D02*
X9683575Y-16687324D01*
X9683575Y-16687324D02*
X9674051Y-16696848D01*
X9674051Y-16696848D02*
X9664527Y-16687324D01*
X9664527Y-16687324D02*
X9674051Y-16677800D01*
X9674051Y-16677800D02*
X9674051Y-16696848D01*
X9807385Y-16496848D02*
X9826432Y-16496848D01*
X9826432Y-16496848D02*
X9845480Y-16506372D01*
X9845480Y-16506372D02*
X9855004Y-16515895D01*
X9855004Y-16515895D02*
X9864527Y-16534943D01*
X9864527Y-16534943D02*
X9874051Y-16573038D01*
X9874051Y-16573038D02*
X9874051Y-16620657D01*
X9874051Y-16620657D02*
X9864527Y-16658752D01*
X9864527Y-16658752D02*
X9855004Y-16677800D01*
X9855004Y-16677800D02*
X9845480Y-16687324D01*
X9845480Y-16687324D02*
X9826432Y-16696848D01*
X9826432Y-16696848D02*
X9807385Y-16696848D01*
X9807385Y-16696848D02*
X9788337Y-16687324D01*
X9788337Y-16687324D02*
X9778813Y-16677800D01*
X9778813Y-16677800D02*
X9769289Y-16658752D01*
X9769289Y-16658752D02*
X9759766Y-16620657D01*
X9759766Y-16620657D02*
X9759766Y-16573038D01*
X9759766Y-16573038D02*
X9769289Y-16534943D01*
X9769289Y-16534943D02*
X9778813Y-16515895D01*
X9778813Y-16515895D02*
X9788337Y-16506372D01*
X9788337Y-16506372D02*
X9807385Y-16496848D01*
X9988337Y-16582562D02*
X9969289Y-16573038D01*
X9969289Y-16573038D02*
X9959766Y-16563514D01*
X9959766Y-16563514D02*
X9950242Y-16544467D01*
X9950242Y-16544467D02*
X9950242Y-16534943D01*
X9950242Y-16534943D02*
X9959766Y-16515895D01*
X9959766Y-16515895D02*
X9969289Y-16506372D01*
X9969289Y-16506372D02*
X9988337Y-16496848D01*
X9988337Y-16496848D02*
X10026432Y-16496848D01*
X10026432Y-16496848D02*
X10045480Y-16506372D01*
X10045480Y-16506372D02*
X10055004Y-16515895D01*
X10055004Y-16515895D02*
X10064527Y-16534943D01*
X10064527Y-16534943D02*
X10064527Y-16544467D01*
X10064527Y-16544467D02*
X10055004Y-16563514D01*
X10055004Y-16563514D02*
X10045480Y-16573038D01*
X10045480Y-16573038D02*
X10026432Y-16582562D01*
X10026432Y-16582562D02*
X9988337Y-16582562D01*
X9988337Y-16582562D02*
X9969289Y-16592086D01*
X9969289Y-16592086D02*
X9959766Y-16601610D01*
X9959766Y-16601610D02*
X9950242Y-16620657D01*
X9950242Y-16620657D02*
X9950242Y-16658752D01*
X9950242Y-16658752D02*
X9959766Y-16677800D01*
X9959766Y-16677800D02*
X9969289Y-16687324D01*
X9969289Y-16687324D02*
X9988337Y-16696848D01*
X9988337Y-16696848D02*
X10026432Y-16696848D01*
X10026432Y-16696848D02*
X10045480Y-16687324D01*
X10045480Y-16687324D02*
X10055004Y-16677800D01*
X10055004Y-16677800D02*
X10064527Y-16658752D01*
X10064527Y-16658752D02*
X10064527Y-16620657D01*
X10064527Y-16620657D02*
X10055004Y-16601610D01*
X10055004Y-16601610D02*
X10045480Y-16592086D01*
X10045480Y-16592086D02*
X10026432Y-16582562D01*
X10235956Y-16496848D02*
X10197861Y-16496848D01*
X10197861Y-16496848D02*
X10178813Y-16506372D01*
X10178813Y-16506372D02*
X10169289Y-16515895D01*
X10169289Y-16515895D02*
X10150242Y-16544467D01*
X10150242Y-16544467D02*
X10140718Y-16582562D01*
X10140718Y-16582562D02*
X10140718Y-16658752D01*
X10140718Y-16658752D02*
X10150242Y-16677800D01*
X10150242Y-16677800D02*
X10159766Y-16687324D01*
X10159766Y-16687324D02*
X10178813Y-16696848D01*
X10178813Y-16696848D02*
X10216908Y-16696848D01*
X10216908Y-16696848D02*
X10235956Y-16687324D01*
X10235956Y-16687324D02*
X10245480Y-16677800D01*
X10245480Y-16677800D02*
X10255004Y-16658752D01*
X10255004Y-16658752D02*
X10255004Y-16611133D01*
X10255004Y-16611133D02*
X10245480Y-16592086D01*
X10245480Y-16592086D02*
X10235956Y-16582562D01*
X10235956Y-16582562D02*
X10216908Y-16573038D01*
X10216908Y-16573038D02*
X10178813Y-16573038D01*
X10178813Y-16573038D02*
X10159766Y-16582562D01*
X10159766Y-16582562D02*
X10150242Y-16592086D01*
X10150242Y-16592086D02*
X10140718Y-16611133D01*
X10426432Y-16496848D02*
X10388337Y-16496848D01*
X10388337Y-16496848D02*
X10369289Y-16506372D01*
X10369289Y-16506372D02*
X10359766Y-16515895D01*
X10359766Y-16515895D02*
X10340718Y-16544467D01*
X10340718Y-16544467D02*
X10331194Y-16582562D01*
X10331194Y-16582562D02*
X10331194Y-16658752D01*
X10331194Y-16658752D02*
X10340718Y-16677800D01*
X10340718Y-16677800D02*
X10350242Y-16687324D01*
X10350242Y-16687324D02*
X10369289Y-16696848D01*
X10369289Y-16696848D02*
X10407385Y-16696848D01*
X10407385Y-16696848D02*
X10426432Y-16687324D01*
X10426432Y-16687324D02*
X10435956Y-16677800D01*
X10435956Y-16677800D02*
X10445480Y-16658752D01*
X10445480Y-16658752D02*
X10445480Y-16611133D01*
X10445480Y-16611133D02*
X10435956Y-16592086D01*
X10435956Y-16592086D02*
X10426432Y-16582562D01*
X10426432Y-16582562D02*
X10407385Y-16573038D01*
X10407385Y-16573038D02*
X10369289Y-16573038D01*
X10369289Y-16573038D02*
X10350242Y-16582562D01*
X10350242Y-16582562D02*
X10340718Y-16592086D01*
X10340718Y-16592086D02*
X10331194Y-16611133D01*
X10521670Y-16496848D02*
X10521670Y-16534943D01*
X10597861Y-16496848D02*
X10597861Y-16534943D01*
X10893099Y-16773038D02*
X10883575Y-16763514D01*
X10883575Y-16763514D02*
X10864528Y-16734943D01*
X10864528Y-16734943D02*
X10855004Y-16715895D01*
X10855004Y-16715895D02*
X10845480Y-16687324D01*
X10845480Y-16687324D02*
X10835956Y-16639705D01*
X10835956Y-16639705D02*
X10835956Y-16601610D01*
X10835956Y-16601610D02*
X10845480Y-16553991D01*
X10845480Y-16553991D02*
X10855004Y-16525419D01*
X10855004Y-16525419D02*
X10864528Y-16506372D01*
X10864528Y-16506372D02*
X10883575Y-16477800D01*
X10883575Y-16477800D02*
X10893099Y-16468276D01*
X11055004Y-16496848D02*
X11016908Y-16496848D01*
X11016908Y-16496848D02*
X10997861Y-16506372D01*
X10997861Y-16506372D02*
X10988337Y-16515895D01*
X10988337Y-16515895D02*
X10969289Y-16544467D01*
X10969289Y-16544467D02*
X10959766Y-16582562D01*
X10959766Y-16582562D02*
X10959766Y-16658752D01*
X10959766Y-16658752D02*
X10969289Y-16677800D01*
X10969289Y-16677800D02*
X10978813Y-16687324D01*
X10978813Y-16687324D02*
X10997861Y-16696848D01*
X10997861Y-16696848D02*
X11035956Y-16696848D01*
X11035956Y-16696848D02*
X11055004Y-16687324D01*
X11055004Y-16687324D02*
X11064528Y-16677800D01*
X11064528Y-16677800D02*
X11074051Y-16658752D01*
X11074051Y-16658752D02*
X11074051Y-16611133D01*
X11074051Y-16611133D02*
X11064528Y-16592086D01*
X11064528Y-16592086D02*
X11055004Y-16582562D01*
X11055004Y-16582562D02*
X11035956Y-16573038D01*
X11035956Y-16573038D02*
X10997861Y-16573038D01*
X10997861Y-16573038D02*
X10978813Y-16582562D01*
X10978813Y-16582562D02*
X10969289Y-16592086D01*
X10969289Y-16592086D02*
X10959766Y-16611133D01*
X11312147Y-16696848D02*
X11312147Y-16496848D01*
X11397861Y-16696848D02*
X11397861Y-16592086D01*
X11397861Y-16592086D02*
X11388337Y-16573038D01*
X11388337Y-16573038D02*
X11369289Y-16563514D01*
X11369289Y-16563514D02*
X11340718Y-16563514D01*
X11340718Y-16563514D02*
X11321670Y-16573038D01*
X11321670Y-16573038D02*
X11312147Y-16582562D01*
X11521670Y-16696848D02*
X11502623Y-16687324D01*
X11502623Y-16687324D02*
X11493099Y-16677800D01*
X11493099Y-16677800D02*
X11483575Y-16658752D01*
X11483575Y-16658752D02*
X11483575Y-16601610D01*
X11483575Y-16601610D02*
X11493099Y-16582562D01*
X11493099Y-16582562D02*
X11502623Y-16573038D01*
X11502623Y-16573038D02*
X11521670Y-16563514D01*
X11521670Y-16563514D02*
X11550242Y-16563514D01*
X11550242Y-16563514D02*
X11569289Y-16573038D01*
X11569289Y-16573038D02*
X11578813Y-16582562D01*
X11578813Y-16582562D02*
X11588337Y-16601610D01*
X11588337Y-16601610D02*
X11588337Y-16658752D01*
X11588337Y-16658752D02*
X11578813Y-16677800D01*
X11578813Y-16677800D02*
X11569289Y-16687324D01*
X11569289Y-16687324D02*
X11550242Y-16696848D01*
X11550242Y-16696848D02*
X11521670Y-16696848D01*
X11702623Y-16696848D02*
X11683575Y-16687324D01*
X11683575Y-16687324D02*
X11674051Y-16668276D01*
X11674051Y-16668276D02*
X11674051Y-16496848D01*
X11855004Y-16687324D02*
X11835956Y-16696848D01*
X11835956Y-16696848D02*
X11797861Y-16696848D01*
X11797861Y-16696848D02*
X11778813Y-16687324D01*
X11778813Y-16687324D02*
X11769289Y-16668276D01*
X11769289Y-16668276D02*
X11769289Y-16592086D01*
X11769289Y-16592086D02*
X11778813Y-16573038D01*
X11778813Y-16573038D02*
X11797861Y-16563514D01*
X11797861Y-16563514D02*
X11835956Y-16563514D01*
X11835956Y-16563514D02*
X11855004Y-16573038D01*
X11855004Y-16573038D02*
X11864528Y-16592086D01*
X11864528Y-16592086D02*
X11864528Y-16611133D01*
X11864528Y-16611133D02*
X11769289Y-16630181D01*
X11940718Y-16687324D02*
X11959766Y-16696848D01*
X11959766Y-16696848D02*
X11997861Y-16696848D01*
X11997861Y-16696848D02*
X12016909Y-16687324D01*
X12016909Y-16687324D02*
X12026432Y-16668276D01*
X12026432Y-16668276D02*
X12026432Y-16658752D01*
X12026432Y-16658752D02*
X12016909Y-16639705D01*
X12016909Y-16639705D02*
X11997861Y-16630181D01*
X11997861Y-16630181D02*
X11969289Y-16630181D01*
X11969289Y-16630181D02*
X11950242Y-16620657D01*
X11950242Y-16620657D02*
X11940718Y-16601610D01*
X11940718Y-16601610D02*
X11940718Y-16592086D01*
X11940718Y-16592086D02*
X11950242Y-16573038D01*
X11950242Y-16573038D02*
X11969289Y-16563514D01*
X11969289Y-16563514D02*
X11997861Y-16563514D01*
X11997861Y-16563514D02*
X12016909Y-16573038D01*
X12093099Y-16773038D02*
X12102623Y-16763514D01*
X12102623Y-16763514D02*
X12121670Y-16734943D01*
X12121670Y-16734943D02*
X12131194Y-16715895D01*
X12131194Y-16715895D02*
X12140718Y-16687324D01*
X12140718Y-16687324D02*
X12150242Y-16639705D01*
X12150242Y-16639705D02*
X12150242Y-16601610D01*
X12150242Y-16601610D02*
X12140718Y-16553991D01*
X12140718Y-16553991D02*
X12131194Y-16525419D01*
X12131194Y-16525419D02*
X12121670Y-16506372D01*
X12121670Y-16506372D02*
X12102623Y-16477800D01*
X12102623Y-16477800D02*
X12093099Y-16468276D01*
X12455004Y-16773038D02*
X12445480Y-16763514D01*
X12445480Y-16763514D02*
X12426432Y-16734943D01*
X12426432Y-16734943D02*
X12416909Y-16715895D01*
X12416909Y-16715895D02*
X12407385Y-16687324D01*
X12407385Y-16687324D02*
X12397861Y-16639705D01*
X12397861Y-16639705D02*
X12397861Y-16601610D01*
X12397861Y-16601610D02*
X12407385Y-16553991D01*
X12407385Y-16553991D02*
X12416909Y-16525419D01*
X12416909Y-16525419D02*
X12426432Y-16506372D01*
X12426432Y-16506372D02*
X12445480Y-16477800D01*
X12445480Y-16477800D02*
X12455004Y-16468276D01*
X12531194Y-16563514D02*
X12531194Y-16696848D01*
X12531194Y-16582562D02*
X12540718Y-16573038D01*
X12540718Y-16573038D02*
X12559766Y-16563514D01*
X12559766Y-16563514D02*
X12588337Y-16563514D01*
X12588337Y-16563514D02*
X12607385Y-16573038D01*
X12607385Y-16573038D02*
X12616909Y-16592086D01*
X12616909Y-16592086D02*
X12616909Y-16696848D01*
X12740718Y-16696848D02*
X12721670Y-16687324D01*
X12721670Y-16687324D02*
X12712147Y-16677800D01*
X12712147Y-16677800D02*
X12702623Y-16658752D01*
X12702623Y-16658752D02*
X12702623Y-16601610D01*
X12702623Y-16601610D02*
X12712147Y-16582562D01*
X12712147Y-16582562D02*
X12721670Y-16573038D01*
X12721670Y-16573038D02*
X12740718Y-16563514D01*
X12740718Y-16563514D02*
X12769290Y-16563514D01*
X12769290Y-16563514D02*
X12788337Y-16573038D01*
X12788337Y-16573038D02*
X12797861Y-16582562D01*
X12797861Y-16582562D02*
X12807385Y-16601610D01*
X12807385Y-16601610D02*
X12807385Y-16658752D01*
X12807385Y-16658752D02*
X12797861Y-16677800D01*
X12797861Y-16677800D02*
X12788337Y-16687324D01*
X12788337Y-16687324D02*
X12769290Y-16696848D01*
X12769290Y-16696848D02*
X12740718Y-16696848D01*
X12864528Y-16563514D02*
X12940718Y-16563514D01*
X12893099Y-16496848D02*
X12893099Y-16668276D01*
X12893099Y-16668276D02*
X12902623Y-16687324D01*
X12902623Y-16687324D02*
X12921670Y-16696848D01*
X12921670Y-16696848D02*
X12940718Y-16696848D01*
X13159766Y-16563514D02*
X13159766Y-16763514D01*
X13159766Y-16573038D02*
X13178813Y-16563514D01*
X13178813Y-16563514D02*
X13216909Y-16563514D01*
X13216909Y-16563514D02*
X13235956Y-16573038D01*
X13235956Y-16573038D02*
X13245480Y-16582562D01*
X13245480Y-16582562D02*
X13255004Y-16601610D01*
X13255004Y-16601610D02*
X13255004Y-16658752D01*
X13255004Y-16658752D02*
X13245480Y-16677800D01*
X13245480Y-16677800D02*
X13235956Y-16687324D01*
X13235956Y-16687324D02*
X13216909Y-16696848D01*
X13216909Y-16696848D02*
X13178813Y-16696848D01*
X13178813Y-16696848D02*
X13159766Y-16687324D01*
X13369290Y-16696848D02*
X13350242Y-16687324D01*
X13350242Y-16687324D02*
X13340718Y-16668276D01*
X13340718Y-16668276D02*
X13340718Y-16496848D01*
X13531194Y-16696848D02*
X13531194Y-16592086D01*
X13531194Y-16592086D02*
X13521671Y-16573038D01*
X13521671Y-16573038D02*
X13502623Y-16563514D01*
X13502623Y-16563514D02*
X13464528Y-16563514D01*
X13464528Y-16563514D02*
X13445480Y-16573038D01*
X13531194Y-16687324D02*
X13512147Y-16696848D01*
X13512147Y-16696848D02*
X13464528Y-16696848D01*
X13464528Y-16696848D02*
X13445480Y-16687324D01*
X13445480Y-16687324D02*
X13435956Y-16668276D01*
X13435956Y-16668276D02*
X13435956Y-16649229D01*
X13435956Y-16649229D02*
X13445480Y-16630181D01*
X13445480Y-16630181D02*
X13464528Y-16620657D01*
X13464528Y-16620657D02*
X13512147Y-16620657D01*
X13512147Y-16620657D02*
X13531194Y-16611133D01*
X13597861Y-16563514D02*
X13674051Y-16563514D01*
X13626432Y-16496848D02*
X13626432Y-16668276D01*
X13626432Y-16668276D02*
X13635956Y-16687324D01*
X13635956Y-16687324D02*
X13655004Y-16696848D01*
X13655004Y-16696848D02*
X13674051Y-16696848D01*
X13816909Y-16687324D02*
X13797861Y-16696848D01*
X13797861Y-16696848D02*
X13759766Y-16696848D01*
X13759766Y-16696848D02*
X13740718Y-16687324D01*
X13740718Y-16687324D02*
X13731194Y-16668276D01*
X13731194Y-16668276D02*
X13731194Y-16592086D01*
X13731194Y-16592086D02*
X13740718Y-16573038D01*
X13740718Y-16573038D02*
X13759766Y-16563514D01*
X13759766Y-16563514D02*
X13797861Y-16563514D01*
X13797861Y-16563514D02*
X13816909Y-16573038D01*
X13816909Y-16573038D02*
X13826432Y-16592086D01*
X13826432Y-16592086D02*
X13826432Y-16611133D01*
X13826432Y-16611133D02*
X13731194Y-16630181D01*
X13997861Y-16696848D02*
X13997861Y-16496848D01*
X13997861Y-16687324D02*
X13978813Y-16696848D01*
X13978813Y-16696848D02*
X13940718Y-16696848D01*
X13940718Y-16696848D02*
X13921671Y-16687324D01*
X13921671Y-16687324D02*
X13912147Y-16677800D01*
X13912147Y-16677800D02*
X13902623Y-16658752D01*
X13902623Y-16658752D02*
X13902623Y-16601610D01*
X13902623Y-16601610D02*
X13912147Y-16582562D01*
X13912147Y-16582562D02*
X13921671Y-16573038D01*
X13921671Y-16573038D02*
X13940718Y-16563514D01*
X13940718Y-16563514D02*
X13978813Y-16563514D01*
X13978813Y-16563514D02*
X13997861Y-16573038D01*
X14074052Y-16773038D02*
X14083575Y-16763514D01*
X14083575Y-16763514D02*
X14102623Y-16734943D01*
X14102623Y-16734943D02*
X14112147Y-16715895D01*
X14112147Y-16715895D02*
X14121671Y-16687324D01*
X14121671Y-16687324D02*
X14131194Y-16639705D01*
X14131194Y-16639705D02*
X14131194Y-16601610D01*
X14131194Y-16601610D02*
X14121671Y-16553991D01*
X14121671Y-16553991D02*
X14112147Y-16525419D01*
X14112147Y-16525419D02*
X14102623Y-16506372D01*
X14102623Y-16506372D02*
X14083575Y-16477800D01*
X14083575Y-16477800D02*
X14074052Y-16468276D01*
X7318036Y-16925364D02*
G75*
G03*
X7118036Y-16925364I-100000J0D01*
G01*
X7118036Y-16925364D02*
G75*
G03*
X7318036Y-16925364I100000J0D01*
G01*
X7559765Y-16816848D02*
X7683575Y-16816848D01*
X7683575Y-16816848D02*
X7616908Y-16893038D01*
X7616908Y-16893038D02*
X7645480Y-16893038D01*
X7645480Y-16893038D02*
X7664527Y-16902562D01*
X7664527Y-16902562D02*
X7674051Y-16912086D01*
X7674051Y-16912086D02*
X7683575Y-16931134D01*
X7683575Y-16931134D02*
X7683575Y-16978753D01*
X7683575Y-16978753D02*
X7674051Y-16997800D01*
X7674051Y-16997800D02*
X7664527Y-17007324D01*
X7664527Y-17007324D02*
X7645480Y-17016848D01*
X7645480Y-17016848D02*
X7588337Y-17016848D01*
X7588337Y-17016848D02*
X7569289Y-17007324D01*
X7569289Y-17007324D02*
X7559765Y-16997800D01*
X7769289Y-16997800D02*
X7778813Y-17007324D01*
X7778813Y-17007324D02*
X7769289Y-17016848D01*
X7769289Y-17016848D02*
X7759765Y-17007324D01*
X7759765Y-17007324D02*
X7769289Y-16997800D01*
X7769289Y-16997800D02*
X7769289Y-17016848D01*
X7969289Y-17016848D02*
X7855003Y-17016848D01*
X7912146Y-17016848D02*
X7912146Y-16816848D01*
X7912146Y-16816848D02*
X7893099Y-16845419D01*
X7893099Y-16845419D02*
X7874051Y-16864467D01*
X7874051Y-16864467D02*
X7855003Y-16873991D01*
X8093099Y-16816848D02*
X8112146Y-16816848D01*
X8112146Y-16816848D02*
X8131194Y-16826372D01*
X8131194Y-16826372D02*
X8140718Y-16835895D01*
X8140718Y-16835895D02*
X8150241Y-16854943D01*
X8150241Y-16854943D02*
X8159765Y-16893038D01*
X8159765Y-16893038D02*
X8159765Y-16940657D01*
X8159765Y-16940657D02*
X8150241Y-16978753D01*
X8150241Y-16978753D02*
X8140718Y-16997800D01*
X8140718Y-16997800D02*
X8131194Y-17007324D01*
X8131194Y-17007324D02*
X8112146Y-17016848D01*
X8112146Y-17016848D02*
X8093099Y-17016848D01*
X8093099Y-17016848D02*
X8074051Y-17007324D01*
X8074051Y-17007324D02*
X8064527Y-16997800D01*
X8064527Y-16997800D02*
X8055003Y-16978753D01*
X8055003Y-16978753D02*
X8045480Y-16940657D01*
X8045480Y-16940657D02*
X8045480Y-16893038D01*
X8045480Y-16893038D02*
X8055003Y-16854943D01*
X8055003Y-16854943D02*
X8064527Y-16835895D01*
X8064527Y-16835895D02*
X8074051Y-16826372D01*
X8074051Y-16826372D02*
X8093099Y-16816848D01*
X8283575Y-16816848D02*
X8302622Y-16816848D01*
X8302622Y-16816848D02*
X8321670Y-16826372D01*
X8321670Y-16826372D02*
X8331194Y-16835895D01*
X8331194Y-16835895D02*
X8340718Y-16854943D01*
X8340718Y-16854943D02*
X8350241Y-16893038D01*
X8350241Y-16893038D02*
X8350241Y-16940657D01*
X8350241Y-16940657D02*
X8340718Y-16978753D01*
X8340718Y-16978753D02*
X8331194Y-16997800D01*
X8331194Y-16997800D02*
X8321670Y-17007324D01*
X8321670Y-17007324D02*
X8302622Y-17016848D01*
X8302622Y-17016848D02*
X8283575Y-17016848D01*
X8283575Y-17016848D02*
X8264527Y-17007324D01*
X8264527Y-17007324D02*
X8255003Y-16997800D01*
X8255003Y-16997800D02*
X8245480Y-16978753D01*
X8245480Y-16978753D02*
X8235956Y-16940657D01*
X8235956Y-16940657D02*
X8235956Y-16893038D01*
X8235956Y-16893038D02*
X8245480Y-16854943D01*
X8245480Y-16854943D02*
X8255003Y-16835895D01*
X8255003Y-16835895D02*
X8264527Y-16826372D01*
X8264527Y-16826372D02*
X8283575Y-16816848D01*
X8435956Y-17016848D02*
X8435956Y-16883514D01*
X8435956Y-16902562D02*
X8445480Y-16893038D01*
X8445480Y-16893038D02*
X8464527Y-16883514D01*
X8464527Y-16883514D02*
X8493099Y-16883514D01*
X8493099Y-16883514D02*
X8512146Y-16893038D01*
X8512146Y-16893038D02*
X8521670Y-16912086D01*
X8521670Y-16912086D02*
X8521670Y-17016848D01*
X8521670Y-16912086D02*
X8531194Y-16893038D01*
X8531194Y-16893038D02*
X8550242Y-16883514D01*
X8550242Y-16883514D02*
X8578813Y-16883514D01*
X8578813Y-16883514D02*
X8597861Y-16893038D01*
X8597861Y-16893038D02*
X8607384Y-16912086D01*
X8607384Y-16912086D02*
X8607384Y-17016848D01*
X8702623Y-17016848D02*
X8702623Y-16883514D01*
X8702623Y-16902562D02*
X8712146Y-16893038D01*
X8712146Y-16893038D02*
X8731194Y-16883514D01*
X8731194Y-16883514D02*
X8759765Y-16883514D01*
X8759765Y-16883514D02*
X8778813Y-16893038D01*
X8778813Y-16893038D02*
X8788337Y-16912086D01*
X8788337Y-16912086D02*
X8788337Y-17016848D01*
X8788337Y-16912086D02*
X8797861Y-16893038D01*
X8797861Y-16893038D02*
X8816908Y-16883514D01*
X8816908Y-16883514D02*
X8845480Y-16883514D01*
X8845480Y-16883514D02*
X8864527Y-16893038D01*
X8864527Y-16893038D02*
X8874051Y-16912086D01*
X8874051Y-16912086D02*
X8874051Y-17016848D01*
X9264527Y-16807324D02*
X9093099Y-17064467D01*
X9521670Y-16816848D02*
X9540718Y-16816848D01*
X9540718Y-16816848D02*
X9559766Y-16826372D01*
X9559766Y-16826372D02*
X9569289Y-16835895D01*
X9569289Y-16835895D02*
X9578813Y-16854943D01*
X9578813Y-16854943D02*
X9588337Y-16893038D01*
X9588337Y-16893038D02*
X9588337Y-16940657D01*
X9588337Y-16940657D02*
X9578813Y-16978753D01*
X9578813Y-16978753D02*
X9569289Y-16997800D01*
X9569289Y-16997800D02*
X9559766Y-17007324D01*
X9559766Y-17007324D02*
X9540718Y-17016848D01*
X9540718Y-17016848D02*
X9521670Y-17016848D01*
X9521670Y-17016848D02*
X9502623Y-17007324D01*
X9502623Y-17007324D02*
X9493099Y-16997800D01*
X9493099Y-16997800D02*
X9483575Y-16978753D01*
X9483575Y-16978753D02*
X9474051Y-16940657D01*
X9474051Y-16940657D02*
X9474051Y-16893038D01*
X9474051Y-16893038D02*
X9483575Y-16854943D01*
X9483575Y-16854943D02*
X9493099Y-16835895D01*
X9493099Y-16835895D02*
X9502623Y-16826372D01*
X9502623Y-16826372D02*
X9521670Y-16816848D01*
X9674051Y-16997800D02*
X9683575Y-17007324D01*
X9683575Y-17007324D02*
X9674051Y-17016848D01*
X9674051Y-17016848D02*
X9664527Y-17007324D01*
X9664527Y-17007324D02*
X9674051Y-16997800D01*
X9674051Y-16997800D02*
X9674051Y-17016848D01*
X9874051Y-17016848D02*
X9759766Y-17016848D01*
X9816908Y-17016848D02*
X9816908Y-16816848D01*
X9816908Y-16816848D02*
X9797861Y-16845419D01*
X9797861Y-16845419D02*
X9778813Y-16864467D01*
X9778813Y-16864467D02*
X9759766Y-16873991D01*
X9950242Y-16835895D02*
X9959766Y-16826372D01*
X9959766Y-16826372D02*
X9978813Y-16816848D01*
X9978813Y-16816848D02*
X10026432Y-16816848D01*
X10026432Y-16816848D02*
X10045480Y-16826372D01*
X10045480Y-16826372D02*
X10055004Y-16835895D01*
X10055004Y-16835895D02*
X10064527Y-16854943D01*
X10064527Y-16854943D02*
X10064527Y-16873991D01*
X10064527Y-16873991D02*
X10055004Y-16902562D01*
X10055004Y-16902562D02*
X9940718Y-17016848D01*
X9940718Y-17016848D02*
X10064527Y-17016848D01*
X10140718Y-16835895D02*
X10150242Y-16826372D01*
X10150242Y-16826372D02*
X10169289Y-16816848D01*
X10169289Y-16816848D02*
X10216908Y-16816848D01*
X10216908Y-16816848D02*
X10235956Y-16826372D01*
X10235956Y-16826372D02*
X10245480Y-16835895D01*
X10245480Y-16835895D02*
X10255004Y-16854943D01*
X10255004Y-16854943D02*
X10255004Y-16873991D01*
X10255004Y-16873991D02*
X10245480Y-16902562D01*
X10245480Y-16902562D02*
X10131194Y-17016848D01*
X10131194Y-17016848D02*
X10255004Y-17016848D01*
X10378813Y-16816848D02*
X10397861Y-16816848D01*
X10397861Y-16816848D02*
X10416908Y-16826372D01*
X10416908Y-16826372D02*
X10426432Y-16835895D01*
X10426432Y-16835895D02*
X10435956Y-16854943D01*
X10435956Y-16854943D02*
X10445480Y-16893038D01*
X10445480Y-16893038D02*
X10445480Y-16940657D01*
X10445480Y-16940657D02*
X10435956Y-16978753D01*
X10435956Y-16978753D02*
X10426432Y-16997800D01*
X10426432Y-16997800D02*
X10416908Y-17007324D01*
X10416908Y-17007324D02*
X10397861Y-17016848D01*
X10397861Y-17016848D02*
X10378813Y-17016848D01*
X10378813Y-17016848D02*
X10359766Y-17007324D01*
X10359766Y-17007324D02*
X10350242Y-16997800D01*
X10350242Y-16997800D02*
X10340718Y-16978753D01*
X10340718Y-16978753D02*
X10331194Y-16940657D01*
X10331194Y-16940657D02*
X10331194Y-16893038D01*
X10331194Y-16893038D02*
X10340718Y-16854943D01*
X10340718Y-16854943D02*
X10350242Y-16835895D01*
X10350242Y-16835895D02*
X10359766Y-16826372D01*
X10359766Y-16826372D02*
X10378813Y-16816848D01*
X10521670Y-16816848D02*
X10521670Y-16854943D01*
X10597861Y-16816848D02*
X10597861Y-16854943D01*
X10893099Y-17093038D02*
X10883575Y-17083514D01*
X10883575Y-17083514D02*
X10864528Y-17054943D01*
X10864528Y-17054943D02*
X10855004Y-17035895D01*
X10855004Y-17035895D02*
X10845480Y-17007324D01*
X10845480Y-17007324D02*
X10835956Y-16959705D01*
X10835956Y-16959705D02*
X10835956Y-16921610D01*
X10835956Y-16921610D02*
X10845480Y-16873991D01*
X10845480Y-16873991D02*
X10855004Y-16845419D01*
X10855004Y-16845419D02*
X10864528Y-16826372D01*
X10864528Y-16826372D02*
X10883575Y-16797800D01*
X10883575Y-16797800D02*
X10893099Y-16788276D01*
X11074051Y-17016848D02*
X10959766Y-17016848D01*
X11016908Y-17016848D02*
X11016908Y-16816848D01*
X11016908Y-16816848D02*
X10997861Y-16845419D01*
X10997861Y-16845419D02*
X10978813Y-16864467D01*
X10978813Y-16864467D02*
X10959766Y-16873991D01*
X11302623Y-17007324D02*
X11321670Y-17016848D01*
X11321670Y-17016848D02*
X11359766Y-17016848D01*
X11359766Y-17016848D02*
X11378813Y-17007324D01*
X11378813Y-17007324D02*
X11388337Y-16988276D01*
X11388337Y-16988276D02*
X11388337Y-16978753D01*
X11388337Y-16978753D02*
X11378813Y-16959705D01*
X11378813Y-16959705D02*
X11359766Y-16950181D01*
X11359766Y-16950181D02*
X11331194Y-16950181D01*
X11331194Y-16950181D02*
X11312147Y-16940657D01*
X11312147Y-16940657D02*
X11302623Y-16921610D01*
X11302623Y-16921610D02*
X11302623Y-16912086D01*
X11302623Y-16912086D02*
X11312147Y-16893038D01*
X11312147Y-16893038D02*
X11331194Y-16883514D01*
X11331194Y-16883514D02*
X11359766Y-16883514D01*
X11359766Y-16883514D02*
X11378813Y-16893038D01*
X11502623Y-17016848D02*
X11483575Y-17007324D01*
X11483575Y-17007324D02*
X11474051Y-16988276D01*
X11474051Y-16988276D02*
X11474051Y-16816848D01*
X11607385Y-17016848D02*
X11588337Y-17007324D01*
X11588337Y-17007324D02*
X11578813Y-16997800D01*
X11578813Y-16997800D02*
X11569289Y-16978753D01*
X11569289Y-16978753D02*
X11569289Y-16921610D01*
X11569289Y-16921610D02*
X11578813Y-16902562D01*
X11578813Y-16902562D02*
X11588337Y-16893038D01*
X11588337Y-16893038D02*
X11607385Y-16883514D01*
X11607385Y-16883514D02*
X11635956Y-16883514D01*
X11635956Y-16883514D02*
X11655004Y-16893038D01*
X11655004Y-16893038D02*
X11664528Y-16902562D01*
X11664528Y-16902562D02*
X11674051Y-16921610D01*
X11674051Y-16921610D02*
X11674051Y-16978753D01*
X11674051Y-16978753D02*
X11664528Y-16997800D01*
X11664528Y-16997800D02*
X11655004Y-17007324D01*
X11655004Y-17007324D02*
X11635956Y-17016848D01*
X11635956Y-17016848D02*
X11607385Y-17016848D01*
X11731194Y-16883514D02*
X11807385Y-16883514D01*
X11759766Y-16816848D02*
X11759766Y-16988276D01*
X11759766Y-16988276D02*
X11769289Y-17007324D01*
X11769289Y-17007324D02*
X11788337Y-17016848D01*
X11788337Y-17016848D02*
X11807385Y-17016848D01*
X11855004Y-17093038D02*
X11864528Y-17083514D01*
X11864528Y-17083514D02*
X11883575Y-17054943D01*
X11883575Y-17054943D02*
X11893099Y-17035895D01*
X11893099Y-17035895D02*
X11902623Y-17007324D01*
X11902623Y-17007324D02*
X11912147Y-16959705D01*
X11912147Y-16959705D02*
X11912147Y-16921610D01*
X11912147Y-16921610D02*
X11902623Y-16873991D01*
X11902623Y-16873991D02*
X11893099Y-16845419D01*
X11893099Y-16845419D02*
X11883575Y-16826372D01*
X11883575Y-16826372D02*
X11864528Y-16797800D01*
X11864528Y-16797800D02*
X11855004Y-16788276D01*
X12216909Y-17093038D02*
X12207385Y-17083514D01*
X12207385Y-17083514D02*
X12188337Y-17054943D01*
X12188337Y-17054943D02*
X12178813Y-17035895D01*
X12178813Y-17035895D02*
X12169289Y-17007324D01*
X12169289Y-17007324D02*
X12159766Y-16959705D01*
X12159766Y-16959705D02*
X12159766Y-16921610D01*
X12159766Y-16921610D02*
X12169289Y-16873991D01*
X12169289Y-16873991D02*
X12178813Y-16845419D01*
X12178813Y-16845419D02*
X12188337Y-16826372D01*
X12188337Y-16826372D02*
X12207385Y-16797800D01*
X12207385Y-16797800D02*
X12216909Y-16788276D01*
X12293099Y-16883514D02*
X12293099Y-17016848D01*
X12293099Y-16902562D02*
X12302623Y-16893038D01*
X12302623Y-16893038D02*
X12321670Y-16883514D01*
X12321670Y-16883514D02*
X12350242Y-16883514D01*
X12350242Y-16883514D02*
X12369289Y-16893038D01*
X12369289Y-16893038D02*
X12378813Y-16912086D01*
X12378813Y-16912086D02*
X12378813Y-17016848D01*
X12502623Y-17016848D02*
X12483575Y-17007324D01*
X12483575Y-17007324D02*
X12474051Y-16997800D01*
X12474051Y-16997800D02*
X12464528Y-16978753D01*
X12464528Y-16978753D02*
X12464528Y-16921610D01*
X12464528Y-16921610D02*
X12474051Y-16902562D01*
X12474051Y-16902562D02*
X12483575Y-16893038D01*
X12483575Y-16893038D02*
X12502623Y-16883514D01*
X12502623Y-16883514D02*
X12531194Y-16883514D01*
X12531194Y-16883514D02*
X12550242Y-16893038D01*
X12550242Y-16893038D02*
X12559766Y-16902562D01*
X12559766Y-16902562D02*
X12569289Y-16921610D01*
X12569289Y-16921610D02*
X12569289Y-16978753D01*
X12569289Y-16978753D02*
X12559766Y-16997800D01*
X12559766Y-16997800D02*
X12550242Y-17007324D01*
X12550242Y-17007324D02*
X12531194Y-17016848D01*
X12531194Y-17016848D02*
X12502623Y-17016848D01*
X12626432Y-16883514D02*
X12702623Y-16883514D01*
X12655004Y-16816848D02*
X12655004Y-16988276D01*
X12655004Y-16988276D02*
X12664528Y-17007324D01*
X12664528Y-17007324D02*
X12683575Y-17016848D01*
X12683575Y-17016848D02*
X12702623Y-17016848D01*
X12921670Y-16883514D02*
X12921670Y-17083514D01*
X12921670Y-16893038D02*
X12940718Y-16883514D01*
X12940718Y-16883514D02*
X12978813Y-16883514D01*
X12978813Y-16883514D02*
X12997861Y-16893038D01*
X12997861Y-16893038D02*
X13007385Y-16902562D01*
X13007385Y-16902562D02*
X13016909Y-16921610D01*
X13016909Y-16921610D02*
X13016909Y-16978753D01*
X13016909Y-16978753D02*
X13007385Y-16997800D01*
X13007385Y-16997800D02*
X12997861Y-17007324D01*
X12997861Y-17007324D02*
X12978813Y-17016848D01*
X12978813Y-17016848D02*
X12940718Y-17016848D01*
X12940718Y-17016848D02*
X12921670Y-17007324D01*
X13131194Y-17016848D02*
X13112147Y-17007324D01*
X13112147Y-17007324D02*
X13102623Y-16988276D01*
X13102623Y-16988276D02*
X13102623Y-16816848D01*
X13293099Y-17016848D02*
X13293099Y-16912086D01*
X13293099Y-16912086D02*
X13283575Y-16893038D01*
X13283575Y-16893038D02*
X13264528Y-16883514D01*
X13264528Y-16883514D02*
X13226432Y-16883514D01*
X13226432Y-16883514D02*
X13207385Y-16893038D01*
X13293099Y-17007324D02*
X13274051Y-17016848D01*
X13274051Y-17016848D02*
X13226432Y-17016848D01*
X13226432Y-17016848D02*
X13207385Y-17007324D01*
X13207385Y-17007324D02*
X13197861Y-16988276D01*
X13197861Y-16988276D02*
X13197861Y-16969229D01*
X13197861Y-16969229D02*
X13207385Y-16950181D01*
X13207385Y-16950181D02*
X13226432Y-16940657D01*
X13226432Y-16940657D02*
X13274051Y-16940657D01*
X13274051Y-16940657D02*
X13293099Y-16931134D01*
X13359766Y-16883514D02*
X13435956Y-16883514D01*
X13388337Y-16816848D02*
X13388337Y-16988276D01*
X13388337Y-16988276D02*
X13397861Y-17007324D01*
X13397861Y-17007324D02*
X13416909Y-17016848D01*
X13416909Y-17016848D02*
X13435956Y-17016848D01*
X13578813Y-17007324D02*
X13559766Y-17016848D01*
X13559766Y-17016848D02*
X13521670Y-17016848D01*
X13521670Y-17016848D02*
X13502623Y-17007324D01*
X13502623Y-17007324D02*
X13493099Y-16988276D01*
X13493099Y-16988276D02*
X13493099Y-16912086D01*
X13493099Y-16912086D02*
X13502623Y-16893038D01*
X13502623Y-16893038D02*
X13521670Y-16883514D01*
X13521670Y-16883514D02*
X13559766Y-16883514D01*
X13559766Y-16883514D02*
X13578813Y-16893038D01*
X13578813Y-16893038D02*
X13588337Y-16912086D01*
X13588337Y-16912086D02*
X13588337Y-16931134D01*
X13588337Y-16931134D02*
X13493099Y-16950181D01*
X13759766Y-17016848D02*
X13759766Y-16816848D01*
X13759766Y-17007324D02*
X13740718Y-17016848D01*
X13740718Y-17016848D02*
X13702623Y-17016848D01*
X13702623Y-17016848D02*
X13683575Y-17007324D01*
X13683575Y-17007324D02*
X13674051Y-16997800D01*
X13674051Y-16997800D02*
X13664528Y-16978753D01*
X13664528Y-16978753D02*
X13664528Y-16921610D01*
X13664528Y-16921610D02*
X13674051Y-16902562D01*
X13674051Y-16902562D02*
X13683575Y-16893038D01*
X13683575Y-16893038D02*
X13702623Y-16883514D01*
X13702623Y-16883514D02*
X13740718Y-16883514D01*
X13740718Y-16883514D02*
X13759766Y-16893038D01*
X13835956Y-17093038D02*
X13845480Y-17083514D01*
X13845480Y-17083514D02*
X13864528Y-17054943D01*
X13864528Y-17054943D02*
X13874051Y-17035895D01*
X13874051Y-17035895D02*
X13883575Y-17007324D01*
X13883575Y-17007324D02*
X13893099Y-16959705D01*
X13893099Y-16959705D02*
X13893099Y-16921610D01*
X13893099Y-16921610D02*
X13883575Y-16873991D01*
X13883575Y-16873991D02*
X13874051Y-16845419D01*
X13874051Y-16845419D02*
X13864528Y-16826372D01*
X13864528Y-16826372D02*
X13845480Y-16797800D01*
X13845480Y-16797800D02*
X13835956Y-16788276D01*
X7218036Y-17145364D02*
X7218036Y-17345364D01*
X7118036Y-17245364D02*
X7318036Y-17245364D01*
X7559765Y-17136848D02*
X7683575Y-17136848D01*
X7683575Y-17136848D02*
X7616908Y-17213038D01*
X7616908Y-17213038D02*
X7645480Y-17213038D01*
X7645480Y-17213038D02*
X7664527Y-17222562D01*
X7664527Y-17222562D02*
X7674051Y-17232086D01*
X7674051Y-17232086D02*
X7683575Y-17251134D01*
X7683575Y-17251134D02*
X7683575Y-17298753D01*
X7683575Y-17298753D02*
X7674051Y-17317800D01*
X7674051Y-17317800D02*
X7664527Y-17327324D01*
X7664527Y-17327324D02*
X7645480Y-17336848D01*
X7645480Y-17336848D02*
X7588337Y-17336848D01*
X7588337Y-17336848D02*
X7569289Y-17327324D01*
X7569289Y-17327324D02*
X7559765Y-17317800D01*
X7769289Y-17317800D02*
X7778813Y-17327324D01*
X7778813Y-17327324D02*
X7769289Y-17336848D01*
X7769289Y-17336848D02*
X7759765Y-17327324D01*
X7759765Y-17327324D02*
X7769289Y-17317800D01*
X7769289Y-17317800D02*
X7769289Y-17336848D01*
X7855003Y-17155895D02*
X7864527Y-17146372D01*
X7864527Y-17146372D02*
X7883575Y-17136848D01*
X7883575Y-17136848D02*
X7931194Y-17136848D01*
X7931194Y-17136848D02*
X7950241Y-17146372D01*
X7950241Y-17146372D02*
X7959765Y-17155895D01*
X7959765Y-17155895D02*
X7969289Y-17174943D01*
X7969289Y-17174943D02*
X7969289Y-17193991D01*
X7969289Y-17193991D02*
X7959765Y-17222562D01*
X7959765Y-17222562D02*
X7845480Y-17336848D01*
X7845480Y-17336848D02*
X7969289Y-17336848D01*
X8093099Y-17136848D02*
X8112146Y-17136848D01*
X8112146Y-17136848D02*
X8131194Y-17146372D01*
X8131194Y-17146372D02*
X8140718Y-17155895D01*
X8140718Y-17155895D02*
X8150241Y-17174943D01*
X8150241Y-17174943D02*
X8159765Y-17213038D01*
X8159765Y-17213038D02*
X8159765Y-17260657D01*
X8159765Y-17260657D02*
X8150241Y-17298753D01*
X8150241Y-17298753D02*
X8140718Y-17317800D01*
X8140718Y-17317800D02*
X8131194Y-17327324D01*
X8131194Y-17327324D02*
X8112146Y-17336848D01*
X8112146Y-17336848D02*
X8093099Y-17336848D01*
X8093099Y-17336848D02*
X8074051Y-17327324D01*
X8074051Y-17327324D02*
X8064527Y-17317800D01*
X8064527Y-17317800D02*
X8055003Y-17298753D01*
X8055003Y-17298753D02*
X8045480Y-17260657D01*
X8045480Y-17260657D02*
X8045480Y-17213038D01*
X8045480Y-17213038D02*
X8055003Y-17174943D01*
X8055003Y-17174943D02*
X8064527Y-17155895D01*
X8064527Y-17155895D02*
X8074051Y-17146372D01*
X8074051Y-17146372D02*
X8093099Y-17136848D01*
X8283575Y-17136848D02*
X8302622Y-17136848D01*
X8302622Y-17136848D02*
X8321670Y-17146372D01*
X8321670Y-17146372D02*
X8331194Y-17155895D01*
X8331194Y-17155895D02*
X8340718Y-17174943D01*
X8340718Y-17174943D02*
X8350241Y-17213038D01*
X8350241Y-17213038D02*
X8350241Y-17260657D01*
X8350241Y-17260657D02*
X8340718Y-17298753D01*
X8340718Y-17298753D02*
X8331194Y-17317800D01*
X8331194Y-17317800D02*
X8321670Y-17327324D01*
X8321670Y-17327324D02*
X8302622Y-17336848D01*
X8302622Y-17336848D02*
X8283575Y-17336848D01*
X8283575Y-17336848D02*
X8264527Y-17327324D01*
X8264527Y-17327324D02*
X8255003Y-17317800D01*
X8255003Y-17317800D02*
X8245480Y-17298753D01*
X8245480Y-17298753D02*
X8235956Y-17260657D01*
X8235956Y-17260657D02*
X8235956Y-17213038D01*
X8235956Y-17213038D02*
X8245480Y-17174943D01*
X8245480Y-17174943D02*
X8255003Y-17155895D01*
X8255003Y-17155895D02*
X8264527Y-17146372D01*
X8264527Y-17146372D02*
X8283575Y-17136848D01*
X8435956Y-17336848D02*
X8435956Y-17203514D01*
X8435956Y-17222562D02*
X8445480Y-17213038D01*
X8445480Y-17213038D02*
X8464527Y-17203514D01*
X8464527Y-17203514D02*
X8493099Y-17203514D01*
X8493099Y-17203514D02*
X8512146Y-17213038D01*
X8512146Y-17213038D02*
X8521670Y-17232086D01*
X8521670Y-17232086D02*
X8521670Y-17336848D01*
X8521670Y-17232086D02*
X8531194Y-17213038D01*
X8531194Y-17213038D02*
X8550242Y-17203514D01*
X8550242Y-17203514D02*
X8578813Y-17203514D01*
X8578813Y-17203514D02*
X8597861Y-17213038D01*
X8597861Y-17213038D02*
X8607384Y-17232086D01*
X8607384Y-17232086D02*
X8607384Y-17336848D01*
X8702623Y-17336848D02*
X8702623Y-17203514D01*
X8702623Y-17222562D02*
X8712146Y-17213038D01*
X8712146Y-17213038D02*
X8731194Y-17203514D01*
X8731194Y-17203514D02*
X8759765Y-17203514D01*
X8759765Y-17203514D02*
X8778813Y-17213038D01*
X8778813Y-17213038D02*
X8788337Y-17232086D01*
X8788337Y-17232086D02*
X8788337Y-17336848D01*
X8788337Y-17232086D02*
X8797861Y-17213038D01*
X8797861Y-17213038D02*
X8816908Y-17203514D01*
X8816908Y-17203514D02*
X8845480Y-17203514D01*
X8845480Y-17203514D02*
X8864527Y-17213038D01*
X8864527Y-17213038D02*
X8874051Y-17232086D01*
X8874051Y-17232086D02*
X8874051Y-17336848D01*
X9264527Y-17127324D02*
X9093099Y-17384467D01*
X9521670Y-17136848D02*
X9540718Y-17136848D01*
X9540718Y-17136848D02*
X9559766Y-17146372D01*
X9559766Y-17146372D02*
X9569289Y-17155895D01*
X9569289Y-17155895D02*
X9578813Y-17174943D01*
X9578813Y-17174943D02*
X9588337Y-17213038D01*
X9588337Y-17213038D02*
X9588337Y-17260657D01*
X9588337Y-17260657D02*
X9578813Y-17298753D01*
X9578813Y-17298753D02*
X9569289Y-17317800D01*
X9569289Y-17317800D02*
X9559766Y-17327324D01*
X9559766Y-17327324D02*
X9540718Y-17336848D01*
X9540718Y-17336848D02*
X9521670Y-17336848D01*
X9521670Y-17336848D02*
X9502623Y-17327324D01*
X9502623Y-17327324D02*
X9493099Y-17317800D01*
X9493099Y-17317800D02*
X9483575Y-17298753D01*
X9483575Y-17298753D02*
X9474051Y-17260657D01*
X9474051Y-17260657D02*
X9474051Y-17213038D01*
X9474051Y-17213038D02*
X9483575Y-17174943D01*
X9483575Y-17174943D02*
X9493099Y-17155895D01*
X9493099Y-17155895D02*
X9502623Y-17146372D01*
X9502623Y-17146372D02*
X9521670Y-17136848D01*
X9674051Y-17317800D02*
X9683575Y-17327324D01*
X9683575Y-17327324D02*
X9674051Y-17336848D01*
X9674051Y-17336848D02*
X9664527Y-17327324D01*
X9664527Y-17327324D02*
X9674051Y-17317800D01*
X9674051Y-17317800D02*
X9674051Y-17336848D01*
X9874051Y-17336848D02*
X9759766Y-17336848D01*
X9816908Y-17336848D02*
X9816908Y-17136848D01*
X9816908Y-17136848D02*
X9797861Y-17165419D01*
X9797861Y-17165419D02*
X9778813Y-17184467D01*
X9778813Y-17184467D02*
X9759766Y-17193991D01*
X9950242Y-17155895D02*
X9959766Y-17146372D01*
X9959766Y-17146372D02*
X9978813Y-17136848D01*
X9978813Y-17136848D02*
X10026432Y-17136848D01*
X10026432Y-17136848D02*
X10045480Y-17146372D01*
X10045480Y-17146372D02*
X10055004Y-17155895D01*
X10055004Y-17155895D02*
X10064527Y-17174943D01*
X10064527Y-17174943D02*
X10064527Y-17193991D01*
X10064527Y-17193991D02*
X10055004Y-17222562D01*
X10055004Y-17222562D02*
X9940718Y-17336848D01*
X9940718Y-17336848D02*
X10064527Y-17336848D01*
X10235956Y-17136848D02*
X10197861Y-17136848D01*
X10197861Y-17136848D02*
X10178813Y-17146372D01*
X10178813Y-17146372D02*
X10169289Y-17155895D01*
X10169289Y-17155895D02*
X10150242Y-17184467D01*
X10150242Y-17184467D02*
X10140718Y-17222562D01*
X10140718Y-17222562D02*
X10140718Y-17298753D01*
X10140718Y-17298753D02*
X10150242Y-17317800D01*
X10150242Y-17317800D02*
X10159766Y-17327324D01*
X10159766Y-17327324D02*
X10178813Y-17336848D01*
X10178813Y-17336848D02*
X10216908Y-17336848D01*
X10216908Y-17336848D02*
X10235956Y-17327324D01*
X10235956Y-17327324D02*
X10245480Y-17317800D01*
X10245480Y-17317800D02*
X10255004Y-17298753D01*
X10255004Y-17298753D02*
X10255004Y-17251134D01*
X10255004Y-17251134D02*
X10245480Y-17232086D01*
X10245480Y-17232086D02*
X10235956Y-17222562D01*
X10235956Y-17222562D02*
X10216908Y-17213038D01*
X10216908Y-17213038D02*
X10178813Y-17213038D01*
X10178813Y-17213038D02*
X10159766Y-17222562D01*
X10159766Y-17222562D02*
X10150242Y-17232086D01*
X10150242Y-17232086D02*
X10140718Y-17251134D01*
X10378813Y-17136848D02*
X10397861Y-17136848D01*
X10397861Y-17136848D02*
X10416908Y-17146372D01*
X10416908Y-17146372D02*
X10426432Y-17155895D01*
X10426432Y-17155895D02*
X10435956Y-17174943D01*
X10435956Y-17174943D02*
X10445480Y-17213038D01*
X10445480Y-17213038D02*
X10445480Y-17260657D01*
X10445480Y-17260657D02*
X10435956Y-17298753D01*
X10435956Y-17298753D02*
X10426432Y-17317800D01*
X10426432Y-17317800D02*
X10416908Y-17327324D01*
X10416908Y-17327324D02*
X10397861Y-17336848D01*
X10397861Y-17336848D02*
X10378813Y-17336848D01*
X10378813Y-17336848D02*
X10359766Y-17327324D01*
X10359766Y-17327324D02*
X10350242Y-17317800D01*
X10350242Y-17317800D02*
X10340718Y-17298753D01*
X10340718Y-17298753D02*
X10331194Y-17260657D01*
X10331194Y-17260657D02*
X10331194Y-17213038D01*
X10331194Y-17213038D02*
X10340718Y-17174943D01*
X10340718Y-17174943D02*
X10350242Y-17155895D01*
X10350242Y-17155895D02*
X10359766Y-17146372D01*
X10359766Y-17146372D02*
X10378813Y-17136848D01*
X10521670Y-17136848D02*
X10521670Y-17174943D01*
X10597861Y-17136848D02*
X10597861Y-17174943D01*
X10893099Y-17413038D02*
X10883575Y-17403514D01*
X10883575Y-17403514D02*
X10864528Y-17374943D01*
X10864528Y-17374943D02*
X10855004Y-17355895D01*
X10855004Y-17355895D02*
X10845480Y-17327324D01*
X10845480Y-17327324D02*
X10835956Y-17279705D01*
X10835956Y-17279705D02*
X10835956Y-17241610D01*
X10835956Y-17241610D02*
X10845480Y-17193991D01*
X10845480Y-17193991D02*
X10855004Y-17165419D01*
X10855004Y-17165419D02*
X10864528Y-17146372D01*
X10864528Y-17146372D02*
X10883575Y-17117800D01*
X10883575Y-17117800D02*
X10893099Y-17108276D01*
X11055004Y-17203514D02*
X11055004Y-17336848D01*
X11007385Y-17127324D02*
X10959766Y-17270181D01*
X10959766Y-17270181D02*
X11083575Y-17270181D01*
X11312147Y-17336848D02*
X11312147Y-17136848D01*
X11397861Y-17336848D02*
X11397861Y-17232086D01*
X11397861Y-17232086D02*
X11388337Y-17213038D01*
X11388337Y-17213038D02*
X11369289Y-17203514D01*
X11369289Y-17203514D02*
X11340718Y-17203514D01*
X11340718Y-17203514D02*
X11321670Y-17213038D01*
X11321670Y-17213038D02*
X11312147Y-17222562D01*
X11521670Y-17336848D02*
X11502623Y-17327324D01*
X11502623Y-17327324D02*
X11493099Y-17317800D01*
X11493099Y-17317800D02*
X11483575Y-17298753D01*
X11483575Y-17298753D02*
X11483575Y-17241610D01*
X11483575Y-17241610D02*
X11493099Y-17222562D01*
X11493099Y-17222562D02*
X11502623Y-17213038D01*
X11502623Y-17213038D02*
X11521670Y-17203514D01*
X11521670Y-17203514D02*
X11550242Y-17203514D01*
X11550242Y-17203514D02*
X11569289Y-17213038D01*
X11569289Y-17213038D02*
X11578813Y-17222562D01*
X11578813Y-17222562D02*
X11588337Y-17241610D01*
X11588337Y-17241610D02*
X11588337Y-17298753D01*
X11588337Y-17298753D02*
X11578813Y-17317800D01*
X11578813Y-17317800D02*
X11569289Y-17327324D01*
X11569289Y-17327324D02*
X11550242Y-17336848D01*
X11550242Y-17336848D02*
X11521670Y-17336848D01*
X11702623Y-17336848D02*
X11683575Y-17327324D01*
X11683575Y-17327324D02*
X11674051Y-17308276D01*
X11674051Y-17308276D02*
X11674051Y-17136848D01*
X11855004Y-17327324D02*
X11835956Y-17336848D01*
X11835956Y-17336848D02*
X11797861Y-17336848D01*
X11797861Y-17336848D02*
X11778813Y-17327324D01*
X11778813Y-17327324D02*
X11769289Y-17308276D01*
X11769289Y-17308276D02*
X11769289Y-17232086D01*
X11769289Y-17232086D02*
X11778813Y-17213038D01*
X11778813Y-17213038D02*
X11797861Y-17203514D01*
X11797861Y-17203514D02*
X11835956Y-17203514D01*
X11835956Y-17203514D02*
X11855004Y-17213038D01*
X11855004Y-17213038D02*
X11864528Y-17232086D01*
X11864528Y-17232086D02*
X11864528Y-17251134D01*
X11864528Y-17251134D02*
X11769289Y-17270181D01*
X11940718Y-17327324D02*
X11959766Y-17336848D01*
X11959766Y-17336848D02*
X11997861Y-17336848D01*
X11997861Y-17336848D02*
X12016909Y-17327324D01*
X12016909Y-17327324D02*
X12026432Y-17308276D01*
X12026432Y-17308276D02*
X12026432Y-17298753D01*
X12026432Y-17298753D02*
X12016909Y-17279705D01*
X12016909Y-17279705D02*
X11997861Y-17270181D01*
X11997861Y-17270181D02*
X11969289Y-17270181D01*
X11969289Y-17270181D02*
X11950242Y-17260657D01*
X11950242Y-17260657D02*
X11940718Y-17241610D01*
X11940718Y-17241610D02*
X11940718Y-17232086D01*
X11940718Y-17232086D02*
X11950242Y-17213038D01*
X11950242Y-17213038D02*
X11969289Y-17203514D01*
X11969289Y-17203514D02*
X11997861Y-17203514D01*
X11997861Y-17203514D02*
X12016909Y-17213038D01*
X12093099Y-17413038D02*
X12102623Y-17403514D01*
X12102623Y-17403514D02*
X12121670Y-17374943D01*
X12121670Y-17374943D02*
X12131194Y-17355895D01*
X12131194Y-17355895D02*
X12140718Y-17327324D01*
X12140718Y-17327324D02*
X12150242Y-17279705D01*
X12150242Y-17279705D02*
X12150242Y-17241610D01*
X12150242Y-17241610D02*
X12140718Y-17193991D01*
X12140718Y-17193991D02*
X12131194Y-17165419D01*
X12131194Y-17165419D02*
X12121670Y-17146372D01*
X12121670Y-17146372D02*
X12102623Y-17117800D01*
X12102623Y-17117800D02*
X12093099Y-17108276D01*
X12455004Y-17413038D02*
X12445480Y-17403514D01*
X12445480Y-17403514D02*
X12426432Y-17374943D01*
X12426432Y-17374943D02*
X12416909Y-17355895D01*
X12416909Y-17355895D02*
X12407385Y-17327324D01*
X12407385Y-17327324D02*
X12397861Y-17279705D01*
X12397861Y-17279705D02*
X12397861Y-17241610D01*
X12397861Y-17241610D02*
X12407385Y-17193991D01*
X12407385Y-17193991D02*
X12416909Y-17165419D01*
X12416909Y-17165419D02*
X12426432Y-17146372D01*
X12426432Y-17146372D02*
X12445480Y-17117800D01*
X12445480Y-17117800D02*
X12455004Y-17108276D01*
X12531194Y-17203514D02*
X12531194Y-17336848D01*
X12531194Y-17222562D02*
X12540718Y-17213038D01*
X12540718Y-17213038D02*
X12559766Y-17203514D01*
X12559766Y-17203514D02*
X12588337Y-17203514D01*
X12588337Y-17203514D02*
X12607385Y-17213038D01*
X12607385Y-17213038D02*
X12616909Y-17232086D01*
X12616909Y-17232086D02*
X12616909Y-17336848D01*
X12740718Y-17336848D02*
X12721670Y-17327324D01*
X12721670Y-17327324D02*
X12712147Y-17317800D01*
X12712147Y-17317800D02*
X12702623Y-17298753D01*
X12702623Y-17298753D02*
X12702623Y-17241610D01*
X12702623Y-17241610D02*
X12712147Y-17222562D01*
X12712147Y-17222562D02*
X12721670Y-17213038D01*
X12721670Y-17213038D02*
X12740718Y-17203514D01*
X12740718Y-17203514D02*
X12769290Y-17203514D01*
X12769290Y-17203514D02*
X12788337Y-17213038D01*
X12788337Y-17213038D02*
X12797861Y-17222562D01*
X12797861Y-17222562D02*
X12807385Y-17241610D01*
X12807385Y-17241610D02*
X12807385Y-17298753D01*
X12807385Y-17298753D02*
X12797861Y-17317800D01*
X12797861Y-17317800D02*
X12788337Y-17327324D01*
X12788337Y-17327324D02*
X12769290Y-17336848D01*
X12769290Y-17336848D02*
X12740718Y-17336848D01*
X12864528Y-17203514D02*
X12940718Y-17203514D01*
X12893099Y-17136848D02*
X12893099Y-17308276D01*
X12893099Y-17308276D02*
X12902623Y-17327324D01*
X12902623Y-17327324D02*
X12921670Y-17336848D01*
X12921670Y-17336848D02*
X12940718Y-17336848D01*
X13159766Y-17203514D02*
X13159766Y-17403514D01*
X13159766Y-17213038D02*
X13178813Y-17203514D01*
X13178813Y-17203514D02*
X13216909Y-17203514D01*
X13216909Y-17203514D02*
X13235956Y-17213038D01*
X13235956Y-17213038D02*
X13245480Y-17222562D01*
X13245480Y-17222562D02*
X13255004Y-17241610D01*
X13255004Y-17241610D02*
X13255004Y-17298753D01*
X13255004Y-17298753D02*
X13245480Y-17317800D01*
X13245480Y-17317800D02*
X13235956Y-17327324D01*
X13235956Y-17327324D02*
X13216909Y-17336848D01*
X13216909Y-17336848D02*
X13178813Y-17336848D01*
X13178813Y-17336848D02*
X13159766Y-17327324D01*
X13369290Y-17336848D02*
X13350242Y-17327324D01*
X13350242Y-17327324D02*
X13340718Y-17308276D01*
X13340718Y-17308276D02*
X13340718Y-17136848D01*
X13531194Y-17336848D02*
X13531194Y-17232086D01*
X13531194Y-17232086D02*
X13521671Y-17213038D01*
X13521671Y-17213038D02*
X13502623Y-17203514D01*
X13502623Y-17203514D02*
X13464528Y-17203514D01*
X13464528Y-17203514D02*
X13445480Y-17213038D01*
X13531194Y-17327324D02*
X13512147Y-17336848D01*
X13512147Y-17336848D02*
X13464528Y-17336848D01*
X13464528Y-17336848D02*
X13445480Y-17327324D01*
X13445480Y-17327324D02*
X13435956Y-17308276D01*
X13435956Y-17308276D02*
X13435956Y-17289229D01*
X13435956Y-17289229D02*
X13445480Y-17270181D01*
X13445480Y-17270181D02*
X13464528Y-17260657D01*
X13464528Y-17260657D02*
X13512147Y-17260657D01*
X13512147Y-17260657D02*
X13531194Y-17251134D01*
X13597861Y-17203514D02*
X13674051Y-17203514D01*
X13626432Y-17136848D02*
X13626432Y-17308276D01*
X13626432Y-17308276D02*
X13635956Y-17327324D01*
X13635956Y-17327324D02*
X13655004Y-17336848D01*
X13655004Y-17336848D02*
X13674051Y-17336848D01*
X13816909Y-17327324D02*
X13797861Y-17336848D01*
X13797861Y-17336848D02*
X13759766Y-17336848D01*
X13759766Y-17336848D02*
X13740718Y-17327324D01*
X13740718Y-17327324D02*
X13731194Y-17308276D01*
X13731194Y-17308276D02*
X13731194Y-17232086D01*
X13731194Y-17232086D02*
X13740718Y-17213038D01*
X13740718Y-17213038D02*
X13759766Y-17203514D01*
X13759766Y-17203514D02*
X13797861Y-17203514D01*
X13797861Y-17203514D02*
X13816909Y-17213038D01*
X13816909Y-17213038D02*
X13826432Y-17232086D01*
X13826432Y-17232086D02*
X13826432Y-17251134D01*
X13826432Y-17251134D02*
X13731194Y-17270181D01*
X13997861Y-17336848D02*
X13997861Y-17136848D01*
X13997861Y-17327324D02*
X13978813Y-17336848D01*
X13978813Y-17336848D02*
X13940718Y-17336848D01*
X13940718Y-17336848D02*
X13921671Y-17327324D01*
X13921671Y-17327324D02*
X13912147Y-17317800D01*
X13912147Y-17317800D02*
X13902623Y-17298753D01*
X13902623Y-17298753D02*
X13902623Y-17241610D01*
X13902623Y-17241610D02*
X13912147Y-17222562D01*
X13912147Y-17222562D02*
X13921671Y-17213038D01*
X13921671Y-17213038D02*
X13940718Y-17203514D01*
X13940718Y-17203514D02*
X13978813Y-17203514D01*
X13978813Y-17203514D02*
X13997861Y-17213038D01*
X14074052Y-17413038D02*
X14083575Y-17403514D01*
X14083575Y-17403514D02*
X14102623Y-17374943D01*
X14102623Y-17374943D02*
X14112147Y-17355895D01*
X14112147Y-17355895D02*
X14121671Y-17327324D01*
X14121671Y-17327324D02*
X14131194Y-17279705D01*
X14131194Y-17279705D02*
X14131194Y-17241610D01*
X14131194Y-17241610D02*
X14121671Y-17193991D01*
X14121671Y-17193991D02*
X14112147Y-17165419D01*
X14112147Y-17165419D02*
X14102623Y-17146372D01*
X14102623Y-17146372D02*
X14083575Y-17117800D01*
X14083575Y-17117800D02*
X14074052Y-17108276D01*
X7288747Y-17636075D02*
X7288747Y-17494653D01*
X7147325Y-17494653D01*
X7147325Y-17636075D01*
X7288747Y-17636075D01*
X7569289Y-17475895D02*
X7578813Y-17466372D01*
X7578813Y-17466372D02*
X7597860Y-17456848D01*
X7597860Y-17456848D02*
X7645480Y-17456848D01*
X7645480Y-17456848D02*
X7664527Y-17466372D01*
X7664527Y-17466372D02*
X7674051Y-17475895D01*
X7674051Y-17475895D02*
X7683575Y-17494943D01*
X7683575Y-17494943D02*
X7683575Y-17513991D01*
X7683575Y-17513991D02*
X7674051Y-17542562D01*
X7674051Y-17542562D02*
X7559765Y-17656848D01*
X7559765Y-17656848D02*
X7683575Y-17656848D01*
X7807384Y-17456848D02*
X7826432Y-17456848D01*
X7826432Y-17456848D02*
X7845480Y-17466372D01*
X7845480Y-17466372D02*
X7855003Y-17475895D01*
X7855003Y-17475895D02*
X7864527Y-17494943D01*
X7864527Y-17494943D02*
X7874051Y-17533038D01*
X7874051Y-17533038D02*
X7874051Y-17580657D01*
X7874051Y-17580657D02*
X7864527Y-17618753D01*
X7864527Y-17618753D02*
X7855003Y-17637800D01*
X7855003Y-17637800D02*
X7845480Y-17647324D01*
X7845480Y-17647324D02*
X7826432Y-17656848D01*
X7826432Y-17656848D02*
X7807384Y-17656848D01*
X7807384Y-17656848D02*
X7788337Y-17647324D01*
X7788337Y-17647324D02*
X7778813Y-17637800D01*
X7778813Y-17637800D02*
X7769289Y-17618753D01*
X7769289Y-17618753D02*
X7759765Y-17580657D01*
X7759765Y-17580657D02*
X7759765Y-17533038D01*
X7759765Y-17533038D02*
X7769289Y-17494943D01*
X7769289Y-17494943D02*
X7778813Y-17475895D01*
X7778813Y-17475895D02*
X7788337Y-17466372D01*
X7788337Y-17466372D02*
X7807384Y-17456848D01*
X7959765Y-17637800D02*
X7969289Y-17647324D01*
X7969289Y-17647324D02*
X7959765Y-17656848D01*
X7959765Y-17656848D02*
X7950241Y-17647324D01*
X7950241Y-17647324D02*
X7959765Y-17637800D01*
X7959765Y-17637800D02*
X7959765Y-17656848D01*
X8093099Y-17456848D02*
X8112146Y-17456848D01*
X8112146Y-17456848D02*
X8131194Y-17466372D01*
X8131194Y-17466372D02*
X8140718Y-17475895D01*
X8140718Y-17475895D02*
X8150241Y-17494943D01*
X8150241Y-17494943D02*
X8159765Y-17533038D01*
X8159765Y-17533038D02*
X8159765Y-17580657D01*
X8159765Y-17580657D02*
X8150241Y-17618753D01*
X8150241Y-17618753D02*
X8140718Y-17637800D01*
X8140718Y-17637800D02*
X8131194Y-17647324D01*
X8131194Y-17647324D02*
X8112146Y-17656848D01*
X8112146Y-17656848D02*
X8093099Y-17656848D01*
X8093099Y-17656848D02*
X8074051Y-17647324D01*
X8074051Y-17647324D02*
X8064527Y-17637800D01*
X8064527Y-17637800D02*
X8055003Y-17618753D01*
X8055003Y-17618753D02*
X8045480Y-17580657D01*
X8045480Y-17580657D02*
X8045480Y-17533038D01*
X8045480Y-17533038D02*
X8055003Y-17494943D01*
X8055003Y-17494943D02*
X8064527Y-17475895D01*
X8064527Y-17475895D02*
X8074051Y-17466372D01*
X8074051Y-17466372D02*
X8093099Y-17456848D01*
X8283575Y-17456848D02*
X8302622Y-17456848D01*
X8302622Y-17456848D02*
X8321670Y-17466372D01*
X8321670Y-17466372D02*
X8331194Y-17475895D01*
X8331194Y-17475895D02*
X8340718Y-17494943D01*
X8340718Y-17494943D02*
X8350241Y-17533038D01*
X8350241Y-17533038D02*
X8350241Y-17580657D01*
X8350241Y-17580657D02*
X8340718Y-17618753D01*
X8340718Y-17618753D02*
X8331194Y-17637800D01*
X8331194Y-17637800D02*
X8321670Y-17647324D01*
X8321670Y-17647324D02*
X8302622Y-17656848D01*
X8302622Y-17656848D02*
X8283575Y-17656848D01*
X8283575Y-17656848D02*
X8264527Y-17647324D01*
X8264527Y-17647324D02*
X8255003Y-17637800D01*
X8255003Y-17637800D02*
X8245480Y-17618753D01*
X8245480Y-17618753D02*
X8235956Y-17580657D01*
X8235956Y-17580657D02*
X8235956Y-17533038D01*
X8235956Y-17533038D02*
X8245480Y-17494943D01*
X8245480Y-17494943D02*
X8255003Y-17475895D01*
X8255003Y-17475895D02*
X8264527Y-17466372D01*
X8264527Y-17466372D02*
X8283575Y-17456848D01*
X8474051Y-17456848D02*
X8493099Y-17456848D01*
X8493099Y-17456848D02*
X8512146Y-17466372D01*
X8512146Y-17466372D02*
X8521670Y-17475895D01*
X8521670Y-17475895D02*
X8531194Y-17494943D01*
X8531194Y-17494943D02*
X8540718Y-17533038D01*
X8540718Y-17533038D02*
X8540718Y-17580657D01*
X8540718Y-17580657D02*
X8531194Y-17618753D01*
X8531194Y-17618753D02*
X8521670Y-17637800D01*
X8521670Y-17637800D02*
X8512146Y-17647324D01*
X8512146Y-17647324D02*
X8493099Y-17656848D01*
X8493099Y-17656848D02*
X8474051Y-17656848D01*
X8474051Y-17656848D02*
X8455003Y-17647324D01*
X8455003Y-17647324D02*
X8445480Y-17637800D01*
X8445480Y-17637800D02*
X8435956Y-17618753D01*
X8435956Y-17618753D02*
X8426432Y-17580657D01*
X8426432Y-17580657D02*
X8426432Y-17533038D01*
X8426432Y-17533038D02*
X8435956Y-17494943D01*
X8435956Y-17494943D02*
X8445480Y-17475895D01*
X8445480Y-17475895D02*
X8455003Y-17466372D01*
X8455003Y-17466372D02*
X8474051Y-17456848D01*
X8626432Y-17656848D02*
X8626432Y-17523514D01*
X8626432Y-17542562D02*
X8635956Y-17533038D01*
X8635956Y-17533038D02*
X8655003Y-17523514D01*
X8655003Y-17523514D02*
X8683575Y-17523514D01*
X8683575Y-17523514D02*
X8702623Y-17533038D01*
X8702623Y-17533038D02*
X8712146Y-17552086D01*
X8712146Y-17552086D02*
X8712146Y-17656848D01*
X8712146Y-17552086D02*
X8721670Y-17533038D01*
X8721670Y-17533038D02*
X8740718Y-17523514D01*
X8740718Y-17523514D02*
X8769289Y-17523514D01*
X8769289Y-17523514D02*
X8788337Y-17533038D01*
X8788337Y-17533038D02*
X8797861Y-17552086D01*
X8797861Y-17552086D02*
X8797861Y-17656848D01*
X8893099Y-17656848D02*
X8893099Y-17523514D01*
X8893099Y-17542562D02*
X8902623Y-17533038D01*
X8902623Y-17533038D02*
X8921670Y-17523514D01*
X8921670Y-17523514D02*
X8950242Y-17523514D01*
X8950242Y-17523514D02*
X8969289Y-17533038D01*
X8969289Y-17533038D02*
X8978813Y-17552086D01*
X8978813Y-17552086D02*
X8978813Y-17656848D01*
X8978813Y-17552086D02*
X8988337Y-17533038D01*
X8988337Y-17533038D02*
X9007384Y-17523514D01*
X9007384Y-17523514D02*
X9035956Y-17523514D01*
X9035956Y-17523514D02*
X9055004Y-17533038D01*
X9055004Y-17533038D02*
X9064527Y-17552086D01*
X9064527Y-17552086D02*
X9064527Y-17656848D01*
X9455004Y-17447324D02*
X9283575Y-17704467D01*
X9712146Y-17456848D02*
X9731194Y-17456848D01*
X9731194Y-17456848D02*
X9750242Y-17466372D01*
X9750242Y-17466372D02*
X9759766Y-17475895D01*
X9759766Y-17475895D02*
X9769289Y-17494943D01*
X9769289Y-17494943D02*
X9778813Y-17533038D01*
X9778813Y-17533038D02*
X9778813Y-17580657D01*
X9778813Y-17580657D02*
X9769289Y-17618753D01*
X9769289Y-17618753D02*
X9759766Y-17637800D01*
X9759766Y-17637800D02*
X9750242Y-17647324D01*
X9750242Y-17647324D02*
X9731194Y-17656848D01*
X9731194Y-17656848D02*
X9712146Y-17656848D01*
X9712146Y-17656848D02*
X9693099Y-17647324D01*
X9693099Y-17647324D02*
X9683575Y-17637800D01*
X9683575Y-17637800D02*
X9674051Y-17618753D01*
X9674051Y-17618753D02*
X9664527Y-17580657D01*
X9664527Y-17580657D02*
X9664527Y-17533038D01*
X9664527Y-17533038D02*
X9674051Y-17494943D01*
X9674051Y-17494943D02*
X9683575Y-17475895D01*
X9683575Y-17475895D02*
X9693099Y-17466372D01*
X9693099Y-17466372D02*
X9712146Y-17456848D01*
X9864527Y-17637800D02*
X9874051Y-17647324D01*
X9874051Y-17647324D02*
X9864527Y-17656848D01*
X9864527Y-17656848D02*
X9855004Y-17647324D01*
X9855004Y-17647324D02*
X9864527Y-17637800D01*
X9864527Y-17637800D02*
X9864527Y-17656848D01*
X9940718Y-17456848D02*
X10074051Y-17456848D01*
X10074051Y-17456848D02*
X9988337Y-17656848D01*
X10178813Y-17542562D02*
X10159766Y-17533038D01*
X10159766Y-17533038D02*
X10150242Y-17523514D01*
X10150242Y-17523514D02*
X10140718Y-17504467D01*
X10140718Y-17504467D02*
X10140718Y-17494943D01*
X10140718Y-17494943D02*
X10150242Y-17475895D01*
X10150242Y-17475895D02*
X10159766Y-17466372D01*
X10159766Y-17466372D02*
X10178813Y-17456848D01*
X10178813Y-17456848D02*
X10216908Y-17456848D01*
X10216908Y-17456848D02*
X10235956Y-17466372D01*
X10235956Y-17466372D02*
X10245480Y-17475895D01*
X10245480Y-17475895D02*
X10255004Y-17494943D01*
X10255004Y-17494943D02*
X10255004Y-17504467D01*
X10255004Y-17504467D02*
X10245480Y-17523514D01*
X10245480Y-17523514D02*
X10235956Y-17533038D01*
X10235956Y-17533038D02*
X10216908Y-17542562D01*
X10216908Y-17542562D02*
X10178813Y-17542562D01*
X10178813Y-17542562D02*
X10159766Y-17552086D01*
X10159766Y-17552086D02*
X10150242Y-17561610D01*
X10150242Y-17561610D02*
X10140718Y-17580657D01*
X10140718Y-17580657D02*
X10140718Y-17618753D01*
X10140718Y-17618753D02*
X10150242Y-17637800D01*
X10150242Y-17637800D02*
X10159766Y-17647324D01*
X10159766Y-17647324D02*
X10178813Y-17656848D01*
X10178813Y-17656848D02*
X10216908Y-17656848D01*
X10216908Y-17656848D02*
X10235956Y-17647324D01*
X10235956Y-17647324D02*
X10245480Y-17637800D01*
X10245480Y-17637800D02*
X10255004Y-17618753D01*
X10255004Y-17618753D02*
X10255004Y-17580657D01*
X10255004Y-17580657D02*
X10245480Y-17561610D01*
X10245480Y-17561610D02*
X10235956Y-17552086D01*
X10235956Y-17552086D02*
X10216908Y-17542562D01*
X10321670Y-17456848D02*
X10455004Y-17456848D01*
X10455004Y-17456848D02*
X10369289Y-17656848D01*
X10616908Y-17523514D02*
X10616908Y-17656848D01*
X10569289Y-17447324D02*
X10521670Y-17590181D01*
X10521670Y-17590181D02*
X10645480Y-17590181D01*
X10712147Y-17456848D02*
X10712147Y-17494943D01*
X10788337Y-17456848D02*
X10788337Y-17494943D01*
X11083575Y-17733038D02*
X11074051Y-17723514D01*
X11074051Y-17723514D02*
X11055004Y-17694943D01*
X11055004Y-17694943D02*
X11045480Y-17675895D01*
X11045480Y-17675895D02*
X11035956Y-17647324D01*
X11035956Y-17647324D02*
X11026432Y-17599705D01*
X11026432Y-17599705D02*
X11026432Y-17561610D01*
X11026432Y-17561610D02*
X11035956Y-17513991D01*
X11035956Y-17513991D02*
X11045480Y-17485419D01*
X11045480Y-17485419D02*
X11055004Y-17466372D01*
X11055004Y-17466372D02*
X11074051Y-17437800D01*
X11074051Y-17437800D02*
X11083575Y-17428276D01*
X11264527Y-17656848D02*
X11150242Y-17656848D01*
X11207385Y-17656848D02*
X11207385Y-17456848D01*
X11207385Y-17456848D02*
X11188337Y-17485419D01*
X11188337Y-17485419D02*
X11169289Y-17504467D01*
X11169289Y-17504467D02*
X11150242Y-17513991D01*
X11502623Y-17656848D02*
X11502623Y-17456848D01*
X11588337Y-17656848D02*
X11588337Y-17552086D01*
X11588337Y-17552086D02*
X11578813Y-17533038D01*
X11578813Y-17533038D02*
X11559766Y-17523514D01*
X11559766Y-17523514D02*
X11531194Y-17523514D01*
X11531194Y-17523514D02*
X11512147Y-17533038D01*
X11512147Y-17533038D02*
X11502623Y-17542562D01*
X11712147Y-17656848D02*
X11693099Y-17647324D01*
X11693099Y-17647324D02*
X11683575Y-17637800D01*
X11683575Y-17637800D02*
X11674051Y-17618753D01*
X11674051Y-17618753D02*
X11674051Y-17561610D01*
X11674051Y-17561610D02*
X11683575Y-17542562D01*
X11683575Y-17542562D02*
X11693099Y-17533038D01*
X11693099Y-17533038D02*
X11712147Y-17523514D01*
X11712147Y-17523514D02*
X11740718Y-17523514D01*
X11740718Y-17523514D02*
X11759766Y-17533038D01*
X11759766Y-17533038D02*
X11769289Y-17542562D01*
X11769289Y-17542562D02*
X11778813Y-17561610D01*
X11778813Y-17561610D02*
X11778813Y-17618753D01*
X11778813Y-17618753D02*
X11769289Y-17637800D01*
X11769289Y-17637800D02*
X11759766Y-17647324D01*
X11759766Y-17647324D02*
X11740718Y-17656848D01*
X11740718Y-17656848D02*
X11712147Y-17656848D01*
X11893099Y-17656848D02*
X11874051Y-17647324D01*
X11874051Y-17647324D02*
X11864528Y-17628276D01*
X11864528Y-17628276D02*
X11864528Y-17456848D01*
X12045480Y-17647324D02*
X12026432Y-17656848D01*
X12026432Y-17656848D02*
X11988337Y-17656848D01*
X11988337Y-17656848D02*
X11969289Y-17647324D01*
X11969289Y-17647324D02*
X11959766Y-17628276D01*
X11959766Y-17628276D02*
X11959766Y-17552086D01*
X11959766Y-17552086D02*
X11969289Y-17533038D01*
X11969289Y-17533038D02*
X11988337Y-17523514D01*
X11988337Y-17523514D02*
X12026432Y-17523514D01*
X12026432Y-17523514D02*
X12045480Y-17533038D01*
X12045480Y-17533038D02*
X12055004Y-17552086D01*
X12055004Y-17552086D02*
X12055004Y-17571134D01*
X12055004Y-17571134D02*
X11959766Y-17590181D01*
X12121670Y-17733038D02*
X12131194Y-17723514D01*
X12131194Y-17723514D02*
X12150242Y-17694943D01*
X12150242Y-17694943D02*
X12159766Y-17675895D01*
X12159766Y-17675895D02*
X12169289Y-17647324D01*
X12169289Y-17647324D02*
X12178813Y-17599705D01*
X12178813Y-17599705D02*
X12178813Y-17561610D01*
X12178813Y-17561610D02*
X12169289Y-17513991D01*
X12169289Y-17513991D02*
X12159766Y-17485419D01*
X12159766Y-17485419D02*
X12150242Y-17466372D01*
X12150242Y-17466372D02*
X12131194Y-17437800D01*
X12131194Y-17437800D02*
X12121670Y-17428276D01*
X12483575Y-17733038D02*
X12474051Y-17723514D01*
X12474051Y-17723514D02*
X12455004Y-17694943D01*
X12455004Y-17694943D02*
X12445480Y-17675895D01*
X12445480Y-17675895D02*
X12435956Y-17647324D01*
X12435956Y-17647324D02*
X12426432Y-17599705D01*
X12426432Y-17599705D02*
X12426432Y-17561610D01*
X12426432Y-17561610D02*
X12435956Y-17513991D01*
X12435956Y-17513991D02*
X12445480Y-17485419D01*
X12445480Y-17485419D02*
X12455004Y-17466372D01*
X12455004Y-17466372D02*
X12474051Y-17437800D01*
X12474051Y-17437800D02*
X12483575Y-17428276D01*
X12559766Y-17523514D02*
X12559766Y-17656848D01*
X12559766Y-17542562D02*
X12569289Y-17533038D01*
X12569289Y-17533038D02*
X12588337Y-17523514D01*
X12588337Y-17523514D02*
X12616909Y-17523514D01*
X12616909Y-17523514D02*
X12635956Y-17533038D01*
X12635956Y-17533038D02*
X12645480Y-17552086D01*
X12645480Y-17552086D02*
X12645480Y-17656848D01*
X12769289Y-17656848D02*
X12750242Y-17647324D01*
X12750242Y-17647324D02*
X12740718Y-17637800D01*
X12740718Y-17637800D02*
X12731194Y-17618753D01*
X12731194Y-17618753D02*
X12731194Y-17561610D01*
X12731194Y-17561610D02*
X12740718Y-17542562D01*
X12740718Y-17542562D02*
X12750242Y-17533038D01*
X12750242Y-17533038D02*
X12769289Y-17523514D01*
X12769289Y-17523514D02*
X12797861Y-17523514D01*
X12797861Y-17523514D02*
X12816909Y-17533038D01*
X12816909Y-17533038D02*
X12826432Y-17542562D01*
X12826432Y-17542562D02*
X12835956Y-17561610D01*
X12835956Y-17561610D02*
X12835956Y-17618753D01*
X12835956Y-17618753D02*
X12826432Y-17637800D01*
X12826432Y-17637800D02*
X12816909Y-17647324D01*
X12816909Y-17647324D02*
X12797861Y-17656848D01*
X12797861Y-17656848D02*
X12769289Y-17656848D01*
X12893099Y-17523514D02*
X12969289Y-17523514D01*
X12921670Y-17456848D02*
X12921670Y-17628276D01*
X12921670Y-17628276D02*
X12931194Y-17647324D01*
X12931194Y-17647324D02*
X12950242Y-17656848D01*
X12950242Y-17656848D02*
X12969289Y-17656848D01*
X13188337Y-17523514D02*
X13188337Y-17723514D01*
X13188337Y-17533038D02*
X13207385Y-17523514D01*
X13207385Y-17523514D02*
X13245480Y-17523514D01*
X13245480Y-17523514D02*
X13264528Y-17533038D01*
X13264528Y-17533038D02*
X13274051Y-17542562D01*
X13274051Y-17542562D02*
X13283575Y-17561610D01*
X13283575Y-17561610D02*
X13283575Y-17618753D01*
X13283575Y-17618753D02*
X13274051Y-17637800D01*
X13274051Y-17637800D02*
X13264528Y-17647324D01*
X13264528Y-17647324D02*
X13245480Y-17656848D01*
X13245480Y-17656848D02*
X13207385Y-17656848D01*
X13207385Y-17656848D02*
X13188337Y-17647324D01*
X13397861Y-17656848D02*
X13378813Y-17647324D01*
X13378813Y-17647324D02*
X13369290Y-17628276D01*
X13369290Y-17628276D02*
X13369290Y-17456848D01*
X13559766Y-17656848D02*
X13559766Y-17552086D01*
X13559766Y-17552086D02*
X13550242Y-17533038D01*
X13550242Y-17533038D02*
X13531194Y-17523514D01*
X13531194Y-17523514D02*
X13493099Y-17523514D01*
X13493099Y-17523514D02*
X13474051Y-17533038D01*
X13559766Y-17647324D02*
X13540718Y-17656848D01*
X13540718Y-17656848D02*
X13493099Y-17656848D01*
X13493099Y-17656848D02*
X13474051Y-17647324D01*
X13474051Y-17647324D02*
X13464528Y-17628276D01*
X13464528Y-17628276D02*
X13464528Y-17609229D01*
X13464528Y-17609229D02*
X13474051Y-17590181D01*
X13474051Y-17590181D02*
X13493099Y-17580657D01*
X13493099Y-17580657D02*
X13540718Y-17580657D01*
X13540718Y-17580657D02*
X13559766Y-17571134D01*
X13626432Y-17523514D02*
X13702623Y-17523514D01*
X13655004Y-17456848D02*
X13655004Y-17628276D01*
X13655004Y-17628276D02*
X13664528Y-17647324D01*
X13664528Y-17647324D02*
X13683575Y-17656848D01*
X13683575Y-17656848D02*
X13702623Y-17656848D01*
X13845480Y-17647324D02*
X13826432Y-17656848D01*
X13826432Y-17656848D02*
X13788337Y-17656848D01*
X13788337Y-17656848D02*
X13769290Y-17647324D01*
X13769290Y-17647324D02*
X13759766Y-17628276D01*
X13759766Y-17628276D02*
X13759766Y-17552086D01*
X13759766Y-17552086D02*
X13769290Y-17533038D01*
X13769290Y-17533038D02*
X13788337Y-17523514D01*
X13788337Y-17523514D02*
X13826432Y-17523514D01*
X13826432Y-17523514D02*
X13845480Y-17533038D01*
X13845480Y-17533038D02*
X13855004Y-17552086D01*
X13855004Y-17552086D02*
X13855004Y-17571134D01*
X13855004Y-17571134D02*
X13759766Y-17590181D01*
X14026432Y-17656848D02*
X14026432Y-17456848D01*
X14026432Y-17647324D02*
X14007385Y-17656848D01*
X14007385Y-17656848D02*
X13969290Y-17656848D01*
X13969290Y-17656848D02*
X13950242Y-17647324D01*
X13950242Y-17647324D02*
X13940718Y-17637800D01*
X13940718Y-17637800D02*
X13931194Y-17618753D01*
X13931194Y-17618753D02*
X13931194Y-17561610D01*
X13931194Y-17561610D02*
X13940718Y-17542562D01*
X13940718Y-17542562D02*
X13950242Y-17533038D01*
X13950242Y-17533038D02*
X13969290Y-17523514D01*
X13969290Y-17523514D02*
X14007385Y-17523514D01*
X14007385Y-17523514D02*
X14026432Y-17533038D01*
X14102623Y-17733038D02*
X14112147Y-17723514D01*
X14112147Y-17723514D02*
X14131194Y-17694943D01*
X14131194Y-17694943D02*
X14140718Y-17675895D01*
X14140718Y-17675895D02*
X14150242Y-17647324D01*
X14150242Y-17647324D02*
X14159766Y-17599705D01*
X14159766Y-17599705D02*
X14159766Y-17561610D01*
X14159766Y-17561610D02*
X14150242Y-17513991D01*
X14150242Y-17513991D02*
X14140718Y-17485419D01*
X14140718Y-17485419D02*
X14131194Y-17466372D01*
X14131194Y-17466372D02*
X14112147Y-17437800D01*
X14112147Y-17437800D02*
X14102623Y-17428276D01*
M02*
