%TF.GenerationSoftware,KiCad,Pcbnew,7.0.11*%
%TF.CreationDate,2025-03-06T22:48:20+09:00*%
%TF.ProjectId,IO,494f2e6b-6963-4616-945f-706362585858,rev?*%
%TF.SameCoordinates,Original*%
%TF.FileFunction,Drillmap*%
%TF.FilePolarity,Positive*%
%FSLAX45Y45*%
G04 Gerber Fmt 4.5, Leading zero omitted, Abs format (unit mm)*
G04 Created by KiCad (PCBNEW 7.0.11) date 2025-03-06 22:48:20*
%MOMM*%
%LPD*%
G01*
G04 APERTURE LIST*
%ADD10C,0.200000*%
%ADD11C,0.100000*%
G04 APERTURE END LIST*
D10*
X12116610Y-5796434D02*
G75*
G03*
X11796610Y-5796434I-160000J0D01*
G01*
X11796610Y-5796434D02*
G75*
G03*
X12116610Y-5796434I160000J0D01*
G01*
X14848036Y-5255364D02*
X14848036Y-6055364D01*
X13908036Y-5155364D02*
X14748036Y-5155364D01*
X12738036Y-5155364D02*
G75*
G03*
X12518036Y-5155364I-110000J0D01*
G01*
X12518036Y-5155364D02*
G75*
G03*
X12738036Y-5155364I110000J0D01*
G01*
X14848036Y-5255364D02*
G75*
G03*
X14748036Y-5155364I-99996J4D01*
G01*
X18503900Y-4889500D02*
G75*
G03*
X18283900Y-4889500I-110000J0D01*
G01*
X18283900Y-4889500D02*
G75*
G03*
X18503900Y-4889500I110000J0D01*
G01*
X13808036Y-6055364D02*
G75*
G03*
X13908036Y-6155364I100004J4D01*
G01*
X14748036Y-6155364D02*
X13908036Y-6155364D01*
X21328036Y-8955364D02*
G75*
G03*
X7328036Y-8955364I-7000000J0D01*
G01*
X7328036Y-8955364D02*
G75*
G03*
X21328036Y-8955364I7000000J0D01*
G01*
X17468036Y-7225364D02*
X17468036Y-12285364D01*
X13908036Y-5155356D02*
G75*
G03*
X13808036Y-5255364I4J-100004D01*
G01*
X16138036Y-5155364D02*
G75*
G03*
X15918036Y-5155364I-110000J0D01*
G01*
X15918036Y-5155364D02*
G75*
G03*
X16138036Y-5155364I110000J0D01*
G01*
X13808036Y-6055364D02*
X13808036Y-5255364D01*
X12938036Y-12588544D02*
G75*
G03*
X12618036Y-12588544I-160000J0D01*
G01*
X12618036Y-12588544D02*
G75*
G03*
X12938036Y-12588544I160000J0D01*
G01*
X18503900Y-13021228D02*
G75*
G03*
X18283900Y-13021228I-110000J0D01*
G01*
X18283900Y-13021228D02*
G75*
G03*
X18503900Y-13021228I110000J0D01*
G01*
X15328036Y-13655364D02*
G75*
G03*
X13328036Y-13655364I-1000000J0D01*
G01*
X13328036Y-13655364D02*
G75*
G03*
X15328036Y-13655364I1000000J0D01*
G01*
X10488036Y-12285364D02*
X10488036Y-7225364D01*
X17468036Y-12285364D02*
X10488036Y-12285364D01*
X16038036Y-12588544D02*
G75*
G03*
X15718036Y-12588544I-160000J0D01*
G01*
X15718036Y-12588544D02*
G75*
G03*
X16038036Y-12588544I160000J0D01*
G01*
X16859463Y-5796434D02*
G75*
G03*
X16539463Y-5796434I-160000J0D01*
G01*
X16539463Y-5796434D02*
G75*
G03*
X16859463Y-5796434I160000J0D01*
G01*
X14748036Y-6155356D02*
G75*
G03*
X14848036Y-6055364I4J99996D01*
G01*
X10488036Y-7225364D02*
X17468036Y-7225364D01*
X10372172Y-13021228D02*
G75*
G03*
X10152172Y-13021228I-110000J0D01*
G01*
X10152172Y-13021228D02*
G75*
G03*
X10372172Y-13021228I110000J0D01*
G01*
X10372172Y-4889500D02*
G75*
G03*
X10152172Y-4889500I-110000J0D01*
G01*
X10152172Y-4889500D02*
G75*
G03*
X10372172Y-4889500I110000J0D01*
G01*
D11*
X7936000Y-8651000D02*
X7976000Y-8691000D01*
X7976000Y-8651000D02*
X7936000Y-8691000D01*
X8011000Y-9862000D02*
X8051000Y-9902000D01*
X8051000Y-9862000D02*
X8011000Y-9902000D01*
X8015000Y-7328000D02*
X8055000Y-7368000D01*
X8055000Y-7328000D02*
X8015000Y-7368000D01*
X8031800Y-5999800D02*
X8071800Y-6039800D01*
X8071800Y-5999800D02*
X8031800Y-6039800D01*
X8133400Y-5999800D02*
X8173400Y-6039800D01*
X8173400Y-5999800D02*
X8133400Y-6039800D01*
X8235000Y-5999800D02*
X8275000Y-6039800D01*
X8275000Y-5999800D02*
X8235000Y-6039800D01*
X8270000Y-11052000D02*
X8310000Y-11092000D01*
X8310000Y-11052000D02*
X8270000Y-11092000D01*
X8500000Y-7910000D02*
X8540000Y-7950000D01*
X8540000Y-7910000D02*
X8500000Y-7950000D01*
X8508000Y-6257000D02*
X8548000Y-6297000D01*
X8548000Y-6257000D02*
X8508000Y-6297000D01*
X8760000Y-5803000D02*
X8800000Y-5843000D01*
X8800000Y-5803000D02*
X8760000Y-5843000D01*
X8782000Y-12267000D02*
X8822000Y-12307000D01*
X8822000Y-12267000D02*
X8782000Y-12307000D01*
X8908000Y-9088000D02*
X8948000Y-9128000D01*
X8948000Y-9088000D02*
X8908000Y-9128000D01*
X8948000Y-11090000D02*
X8988000Y-11130000D01*
X8988000Y-11090000D02*
X8948000Y-11130000D01*
X8960000Y-6942000D02*
X9000000Y-6982000D01*
X9000000Y-6942000D02*
X8960000Y-6982000D01*
X9345000Y-7238000D02*
X9385000Y-7278000D01*
X9385000Y-7238000D02*
X9345000Y-7278000D01*
X9391000Y-6227000D02*
X9431000Y-6267000D01*
X9431000Y-6227000D02*
X9391000Y-6267000D01*
X9405000Y-5515000D02*
X9445000Y-5555000D01*
X9445000Y-5515000D02*
X9405000Y-5555000D01*
X9493000Y-13258000D02*
X9533000Y-13298000D01*
X9533000Y-13258000D02*
X9493000Y-13298000D01*
X9532000Y-4569000D02*
X9572000Y-4609000D01*
X9572000Y-4569000D02*
X9532000Y-4609000D01*
X9604000Y-6909000D02*
X9644000Y-6949000D01*
X9644000Y-6909000D02*
X9604000Y-6949000D01*
X9664000Y-5767000D02*
X9704000Y-5807000D01*
X9704000Y-5767000D02*
X9664000Y-5807000D01*
X9739000Y-7843000D02*
X9779000Y-7883000D01*
X9779000Y-7843000D02*
X9739000Y-7883000D01*
X9851000Y-6527000D02*
X9891000Y-6567000D01*
X9891000Y-6527000D02*
X9851000Y-6567000D01*
X9931000Y-8124000D02*
X9971000Y-8164000D01*
X9971000Y-8124000D02*
X9931000Y-8164000D01*
X9971998Y-7016997D02*
X10011998Y-7056997D01*
X10011998Y-7016997D02*
X9971998Y-7056997D01*
X10031000Y-7535000D02*
X10071000Y-7575000D01*
X10071000Y-7535000D02*
X10031000Y-7575000D01*
X10157000Y-12578000D02*
X10197000Y-12618000D01*
X10197000Y-12578000D02*
X10157000Y-12618000D01*
X10295000Y-8340000D02*
X10335000Y-8380000D01*
X10335000Y-8340000D02*
X10295000Y-8380000D01*
X10296000Y-10825000D02*
X10336000Y-10865000D01*
X10336000Y-10825000D02*
X10296000Y-10865000D01*
X10302000Y-9639000D02*
X10342000Y-9679000D01*
X10342000Y-9639000D02*
X10302000Y-9679000D01*
X10308000Y-12027000D02*
X10348000Y-12067000D01*
X10348000Y-12027000D02*
X10308000Y-12067000D01*
X10355000Y-7318000D02*
X10395000Y-7358000D01*
X10395000Y-7318000D02*
X10355000Y-7358000D01*
X10440000Y-3718000D02*
X10480000Y-3758000D01*
X10480000Y-3718000D02*
X10440000Y-3758000D01*
X10466000Y-14112000D02*
X10506000Y-14152000D01*
X10506000Y-14112000D02*
X10466000Y-14152000D01*
X10495000Y-5334000D02*
X10535000Y-5374000D01*
X10535000Y-5334000D02*
X10495000Y-5374000D01*
X10661000Y-12388000D02*
X10701000Y-12428000D01*
X10701000Y-12388000D02*
X10661000Y-12428000D01*
X10699000Y-5123000D02*
X10739000Y-5163000D01*
X10739000Y-5123000D02*
X10699000Y-5163000D01*
X10764000Y-13207000D02*
X10804000Y-13247000D01*
X10804000Y-13207000D02*
X10764000Y-13247000D01*
X10846000Y-7164000D02*
X10886000Y-7204000D01*
X10886000Y-7164000D02*
X10846000Y-7204000D01*
X10904000Y-5515000D02*
X10944000Y-5555000D01*
X10944000Y-5515000D02*
X10904000Y-5555000D01*
X10924000Y-6124000D02*
X10964000Y-6164000D01*
X10964000Y-6124000D02*
X10924000Y-6164000D01*
X11079000Y-12838000D02*
X11119000Y-12878000D01*
X11119000Y-12838000D02*
X11079000Y-12878000D01*
X11181000Y-4696000D02*
X11221000Y-4736000D01*
X11221000Y-4696000D02*
X11181000Y-4736000D01*
X11196000Y-6908000D02*
X11236000Y-6948000D01*
X11236000Y-6908000D02*
X11196000Y-6948000D01*
X11370000Y-5987000D02*
X11410000Y-6027000D01*
X11410000Y-5987000D02*
X11370000Y-6027000D01*
X11505000Y-2999000D02*
X11545000Y-3039000D01*
X11545000Y-2999000D02*
X11505000Y-3039000D01*
X11560000Y-14756000D02*
X11600000Y-14796000D01*
X11600000Y-14756000D02*
X11560000Y-14796000D01*
X11600000Y-4117000D02*
X11640000Y-4157000D01*
X11640000Y-4117000D02*
X11600000Y-4157000D01*
X11602000Y-3534000D02*
X11642000Y-3574000D01*
X11642000Y-3534000D02*
X11602000Y-3574000D01*
X11681000Y-7162000D02*
X11721000Y-7202000D01*
X11721000Y-7162000D02*
X11681000Y-7202000D01*
X11685000Y-5313000D02*
X11725000Y-5353000D01*
X11725000Y-5313000D02*
X11685000Y-5353000D01*
X12014000Y-13287000D02*
X12054000Y-13327000D01*
X12054000Y-13287000D02*
X12014000Y-13327000D01*
X12051000Y-3252000D02*
X12091000Y-3292000D01*
X12091000Y-3252000D02*
X12051000Y-3292000D01*
X12261000Y-12366000D02*
X12301000Y-12406000D01*
X12301000Y-12366000D02*
X12261000Y-12406000D01*
X12272000Y-12833000D02*
X12312000Y-12873000D01*
X12312000Y-12833000D02*
X12272000Y-12873000D01*
X12389000Y-6022000D02*
X12429000Y-6062000D01*
X12429000Y-6022000D02*
X12389000Y-6062000D01*
X12483000Y-14219000D02*
X12523000Y-14259000D01*
X12523000Y-14219000D02*
X12483000Y-14259000D01*
X12485000Y-4018000D02*
X12525000Y-4058000D01*
X12525000Y-4018000D02*
X12485000Y-4058000D01*
X12501000Y-7165000D02*
X12541000Y-7205000D01*
X12541000Y-7165000D02*
X12501000Y-7205000D01*
X12615000Y-6908000D02*
X12655000Y-6948000D01*
X12655000Y-6908000D02*
X12615000Y-6948000D01*
X12675000Y-15259000D02*
X12715000Y-15299000D01*
X12715000Y-15259000D02*
X12675000Y-15299000D01*
X12700000Y-2751000D02*
X12740000Y-2791000D01*
X12740000Y-2751000D02*
X12700000Y-2791000D01*
X12903000Y-13323000D02*
X12943000Y-13363000D01*
X12943000Y-13323000D02*
X12903000Y-13363000D01*
X12975000Y-4512000D02*
X13015000Y-4552000D01*
X13015000Y-4512000D02*
X12975000Y-4552000D01*
X13012000Y-5550000D02*
X13052000Y-5590000D01*
X13052000Y-5550000D02*
X13012000Y-5590000D01*
X13033000Y-3197000D02*
X13073000Y-3237000D01*
X13073000Y-3197000D02*
X13033000Y-3237000D01*
X13211000Y-4923000D02*
X13251000Y-4963000D01*
X13251000Y-4923000D02*
X13211000Y-4963000D01*
X13212000Y-5325000D02*
X13252000Y-5365000D01*
X13252000Y-5325000D02*
X13212000Y-5365000D01*
X13265000Y-4081000D02*
X13305000Y-4121000D01*
X13305000Y-4081000D02*
X13265000Y-4121000D01*
X13316000Y-12431000D02*
X13356000Y-12471000D01*
X13356000Y-12431000D02*
X13316000Y-12471000D01*
X13419000Y-6039000D02*
X13459000Y-6079000D01*
X13459000Y-6039000D02*
X13419000Y-6079000D01*
X13487000Y-4485000D02*
X13527000Y-4525000D01*
X13527000Y-4485000D02*
X13487000Y-4525000D01*
X13515000Y-7162000D02*
X13555000Y-7202000D01*
X13555000Y-7162000D02*
X13515000Y-7202000D01*
X13581000Y-4675000D02*
X13621000Y-4715000D01*
X13621000Y-4675000D02*
X13581000Y-4715000D01*
X13581000Y-4777000D02*
X13621000Y-4817000D01*
X13621000Y-4777000D02*
X13581000Y-4817000D01*
X13645000Y-4036000D02*
X13685000Y-4076000D01*
X13685000Y-4036000D02*
X13645000Y-4076000D01*
X13696000Y-5189000D02*
X13736000Y-5229000D01*
X13736000Y-5189000D02*
X13696000Y-5229000D01*
X13719000Y-5857000D02*
X13759000Y-5897000D01*
X13759000Y-5857000D02*
X13719000Y-5897000D01*
X13796612Y-6625667D02*
X13836612Y-6665667D01*
X13836612Y-6625667D02*
X13796612Y-6665667D01*
X13798000Y-12571000D02*
X13838000Y-12611000D01*
X13838000Y-12571000D02*
X13798000Y-12611000D01*
X13975000Y-6810000D02*
X14015000Y-6850000D01*
X14015000Y-6810000D02*
X13975000Y-6850000D01*
X13985000Y-15400000D02*
X14025000Y-15440000D01*
X14025000Y-15400000D02*
X13985000Y-15440000D01*
X13993000Y-3097000D02*
X14033000Y-3137000D01*
X14033000Y-3097000D02*
X13993000Y-3137000D01*
X13997000Y-2288000D02*
X14037000Y-2328000D01*
X14037000Y-2288000D02*
X13997000Y-2328000D01*
X14081000Y-4494000D02*
X14121000Y-4534000D01*
X14121000Y-4494000D02*
X14081000Y-4534000D01*
X14311000Y-3346000D02*
X14351000Y-3386000D01*
X14351000Y-3346000D02*
X14311000Y-3386000D01*
X14315000Y-5033000D02*
X14355000Y-5073000D01*
X14355000Y-5033000D02*
X14315000Y-5073000D01*
X14321612Y-6625667D02*
X14361612Y-6665667D01*
X14361612Y-6625667D02*
X14321612Y-6665667D01*
X14322500Y-6450000D02*
X14362500Y-6490000D01*
X14362500Y-6450000D02*
X14322500Y-6490000D01*
X14324000Y-4261000D02*
X14364000Y-4301000D01*
X14364000Y-4261000D02*
X14324000Y-4301000D01*
X14325000Y-6985000D02*
X14365000Y-7025000D01*
X14365000Y-6985000D02*
X14325000Y-7025000D01*
X14407500Y-7135000D02*
X14447500Y-7175000D01*
X14447500Y-7135000D02*
X14407500Y-7175000D01*
X14497500Y-6450000D02*
X14537500Y-6490000D01*
X14537500Y-6450000D02*
X14497500Y-6490000D01*
X14562000Y-4503000D02*
X14602000Y-4543000D01*
X14602000Y-4503000D02*
X14562000Y-4543000D01*
X14638000Y-3103000D02*
X14678000Y-3143000D01*
X14678000Y-3103000D02*
X14638000Y-3143000D01*
X14642000Y-2802000D02*
X14682000Y-2842000D01*
X14682000Y-2802000D02*
X14642000Y-2842000D01*
X14670000Y-2426000D02*
X14710000Y-2466000D01*
X14710000Y-2426000D02*
X14670000Y-2466000D01*
X14675000Y-6810000D02*
X14715000Y-6850000D01*
X14715000Y-6810000D02*
X14675000Y-6850000D01*
X14675000Y-6982500D02*
X14715000Y-7022500D01*
X14715000Y-6982500D02*
X14675000Y-7022500D01*
X14801000Y-12550000D02*
X14841000Y-12590000D01*
X14841000Y-12550000D02*
X14801000Y-12590000D01*
X14804000Y-3290000D02*
X14844000Y-3330000D01*
X14844000Y-3290000D02*
X14804000Y-3330000D01*
X14844000Y-4770000D02*
X14884000Y-4810000D01*
X14884000Y-4770000D02*
X14844000Y-4810000D01*
X14861000Y-5111000D02*
X14901000Y-5151000D01*
X14901000Y-5111000D02*
X14861000Y-5151000D01*
X14867000Y-4042000D02*
X14907000Y-4082000D01*
X14907000Y-4042000D02*
X14867000Y-4082000D01*
X14870000Y-6455000D02*
X14910000Y-6495000D01*
X14910000Y-6455000D02*
X14870000Y-6495000D01*
X14962500Y-6675000D02*
X15002500Y-6715000D01*
X15002500Y-6675000D02*
X14962500Y-6715000D01*
X14995000Y-5780000D02*
X15035000Y-5820000D01*
X15035000Y-5780000D02*
X14995000Y-5820000D01*
X15118000Y-12348000D02*
X15158000Y-12388000D01*
X15158000Y-12348000D02*
X15118000Y-12388000D01*
X15120000Y-5993000D02*
X15160000Y-6033000D01*
X15160000Y-5993000D02*
X15120000Y-6033000D01*
X15131000Y-4484000D02*
X15171000Y-4524000D01*
X15171000Y-4484000D02*
X15131000Y-4524000D01*
X15132000Y-6331000D02*
X15172000Y-6371000D01*
X15172000Y-6331000D02*
X15132000Y-6371000D01*
X15157000Y-3637000D02*
X15197000Y-3677000D01*
X15197000Y-3637000D02*
X15157000Y-3677000D01*
X15282000Y-15319000D02*
X15322000Y-15359000D01*
X15322000Y-15319000D02*
X15282000Y-15359000D01*
X15442000Y-12694000D02*
X15482000Y-12734000D01*
X15482000Y-12694000D02*
X15442000Y-12734000D01*
X15464000Y-12340000D02*
X15504000Y-12380000D01*
X15504000Y-12340000D02*
X15464000Y-12380000D01*
X15789000Y-14496000D02*
X15829000Y-14536000D01*
X15829000Y-14496000D02*
X15789000Y-14536000D01*
X15797000Y-5806000D02*
X15837000Y-5846000D01*
X15837000Y-5806000D02*
X15797000Y-5846000D01*
X15887000Y-13255000D02*
X15927000Y-13295000D01*
X15927000Y-13255000D02*
X15887000Y-13295000D01*
X15925000Y-2629000D02*
X15965000Y-2669000D01*
X15965000Y-2629000D02*
X15925000Y-2669000D01*
X15970000Y-3880000D02*
X16010000Y-3920000D01*
X16010000Y-3880000D02*
X15970000Y-3920000D01*
X16198000Y-12937000D02*
X16238000Y-12977000D01*
X16238000Y-12937000D02*
X16198000Y-12977000D01*
X16316000Y-12377000D02*
X16356000Y-12417000D01*
X16356000Y-12377000D02*
X16316000Y-12417000D01*
X16472000Y-14992000D02*
X16512000Y-15032000D01*
X16512000Y-14992000D02*
X16472000Y-15032000D01*
X17010000Y-6675000D02*
X17050000Y-6715000D01*
X17050000Y-6675000D02*
X17010000Y-6715000D01*
X17024000Y-6368000D02*
X17064000Y-6408000D01*
X17064000Y-6368000D02*
X17024000Y-6408000D01*
X17059000Y-3181000D02*
X17099000Y-3221000D01*
X17099000Y-3181000D02*
X17059000Y-3221000D01*
X17123000Y-4559000D02*
X17163000Y-4599000D01*
X17163000Y-4559000D02*
X17123000Y-4599000D01*
X17285000Y-13052000D02*
X17325000Y-13092000D01*
X17325000Y-13052000D02*
X17285000Y-13092000D01*
X17288000Y-12396000D02*
X17328000Y-12436000D01*
X17328000Y-12396000D02*
X17288000Y-12436000D01*
X17320000Y-13521000D02*
X17360000Y-13561000D01*
X17360000Y-13521000D02*
X17320000Y-13561000D01*
X17649000Y-14531000D02*
X17689000Y-14571000D01*
X17689000Y-14531000D02*
X17649000Y-14571000D01*
X17676000Y-13071000D02*
X17716000Y-13111000D01*
X17716000Y-13071000D02*
X17676000Y-13111000D01*
X17690000Y-11692000D02*
X17730000Y-11732000D01*
X17730000Y-11692000D02*
X17690000Y-11732000D01*
X17767000Y-10436000D02*
X17807000Y-10476000D01*
X17807000Y-10436000D02*
X17767000Y-10476000D01*
X17914000Y-7263000D02*
X17954000Y-7303000D01*
X17954000Y-7263000D02*
X17914000Y-7303000D01*
X17923000Y-8145000D02*
X17963000Y-8185000D01*
X17963000Y-8145000D02*
X17923000Y-8185000D01*
X17937000Y-9104000D02*
X17977000Y-9144000D01*
X17977000Y-9104000D02*
X17937000Y-9144000D01*
X18118000Y-3769000D02*
X18158000Y-3809000D01*
X18158000Y-3769000D02*
X18118000Y-3809000D01*
X18169000Y-5838000D02*
X18209000Y-5878000D01*
X18209000Y-5838000D02*
X18169000Y-5878000D01*
X18652000Y-13728000D02*
X18692000Y-13768000D01*
X18692000Y-13728000D02*
X18652000Y-13768000D01*
X18909000Y-11642000D02*
X18949000Y-11682000D01*
X18949000Y-11642000D02*
X18909000Y-11682000D01*
X19102000Y-4622000D02*
X19142000Y-4662000D01*
X19142000Y-4622000D02*
X19102000Y-4662000D01*
X19118000Y-7663000D02*
X19158000Y-7703000D01*
X19158000Y-7663000D02*
X19118000Y-7703000D01*
X19145000Y-9848000D02*
X19185000Y-9888000D01*
X19185000Y-9848000D02*
X19145000Y-9888000D01*
X19484000Y-12766000D02*
X19524000Y-12806000D01*
X19524000Y-12766000D02*
X19484000Y-12806000D01*
X19869000Y-5614000D02*
X19909000Y-5654000D01*
X19909000Y-5614000D02*
X19869000Y-5654000D01*
X20061000Y-11710000D02*
X20101000Y-11750000D01*
X20101000Y-11710000D02*
X20061000Y-11750000D01*
X20324000Y-6803000D02*
X20364000Y-6843000D01*
X20364000Y-6803000D02*
X20324000Y-6843000D01*
X20617000Y-10545000D02*
X20657000Y-10585000D01*
X20657000Y-10545000D02*
X20617000Y-10585000D01*
X20635000Y-8009000D02*
X20675000Y-8049000D01*
X20675000Y-8009000D02*
X20635000Y-8049000D01*
X20693000Y-9239000D02*
X20733000Y-9279000D01*
X20733000Y-9239000D02*
X20693000Y-9279000D01*
X9461400Y-5769800D02*
G75*
G03*
X9381400Y-5769800I-40000J0D01*
G01*
X9381400Y-5769800D02*
G75*
G03*
X9461400Y-5769800I40000J0D01*
G01*
X9461400Y-6019800D02*
G75*
G03*
X9381400Y-6019800I-40000J0D01*
G01*
X9381400Y-6019800D02*
G75*
G03*
X9461400Y-6019800I40000J0D01*
G01*
X9463400Y-6479000D02*
G75*
G03*
X9383400Y-6479000I-40000J0D01*
G01*
X9383400Y-6479000D02*
G75*
G03*
X9463400Y-6479000I40000J0D01*
G01*
X9463400Y-6729000D02*
G75*
G03*
X9383400Y-6729000I-40000J0D01*
G01*
X9383400Y-6729000D02*
G75*
G03*
X9463400Y-6729000I40000J0D01*
G01*
X16296000Y-13559000D02*
X16296000Y-13654000D01*
X16248500Y-13606500D02*
X16343500Y-13606500D01*
X16546000Y-13559000D02*
X16546000Y-13654000D01*
X16498500Y-13606500D02*
X16593500Y-13606500D01*
X16796000Y-13559000D02*
X16796000Y-13654000D01*
X16748500Y-13606500D02*
X16843500Y-13606500D01*
X17046000Y-13559000D02*
X17046000Y-13654000D01*
X16998500Y-13606500D02*
X17093500Y-13606500D01*
X9713356Y-8140356D02*
X9713356Y-8069644D01*
X9642644Y-8069644D01*
X9642644Y-8140356D01*
X9713356Y-8140356D01*
X9713356Y-8394356D02*
X9713356Y-8323644D01*
X9642644Y-8323644D01*
X9642644Y-8394356D01*
X9713356Y-8394356D01*
X9713356Y-8648356D02*
X9713356Y-8577644D01*
X9642644Y-8577644D01*
X9642644Y-8648356D01*
X9713356Y-8648356D01*
X9713356Y-8902356D02*
X9713356Y-8831644D01*
X9642644Y-8831644D01*
X9642644Y-8902356D01*
X9713356Y-8902356D01*
X9713356Y-9156356D02*
X9713356Y-9085644D01*
X9642644Y-9085644D01*
X9642644Y-9156356D01*
X9713356Y-9156356D01*
X9713356Y-9410356D02*
X9713356Y-9339644D01*
X9642644Y-9339644D01*
X9642644Y-9410356D01*
X9713356Y-9410356D01*
X9713356Y-9664356D02*
X9713356Y-9593644D01*
X9642644Y-9593644D01*
X9642644Y-9664356D01*
X9713356Y-9664356D01*
X9713356Y-9918356D02*
X9713356Y-9847644D01*
X9642644Y-9847644D01*
X9642644Y-9918356D01*
X9713356Y-9918356D01*
X9713356Y-10172356D02*
X9713356Y-10101644D01*
X9642644Y-10101644D01*
X9642644Y-10172356D01*
X9713356Y-10172356D01*
X9713356Y-10426356D02*
X9713356Y-10355644D01*
X9642644Y-10355644D01*
X9642644Y-10426356D01*
X9713356Y-10426356D01*
X9713356Y-10680356D02*
X9713356Y-10609644D01*
X9642644Y-10609644D01*
X9642644Y-10680356D01*
X9713356Y-10680356D01*
X9713356Y-10934356D02*
X9713356Y-10863644D01*
X9642644Y-10863644D01*
X9642644Y-10934356D01*
X9713356Y-10934356D01*
X9713356Y-11188356D02*
X9713356Y-11117644D01*
X9642644Y-11117644D01*
X9642644Y-11188356D01*
X9713356Y-11188356D01*
X9713356Y-11442356D02*
X9713356Y-11371644D01*
X9642644Y-11371644D01*
X9642644Y-11442356D01*
X9713356Y-11442356D01*
X12052356Y-3527356D02*
X12052356Y-3456644D01*
X11981644Y-3456644D01*
X11981644Y-3527356D01*
X12052356Y-3527356D01*
X12052356Y-3781356D02*
X12052356Y-3710644D01*
X11981644Y-3710644D01*
X11981644Y-3781356D01*
X12052356Y-3781356D01*
X12052356Y-4035356D02*
X12052356Y-3964644D01*
X11981644Y-3964644D01*
X11981644Y-4035356D01*
X12052356Y-4035356D01*
X12052356Y-4289356D02*
X12052356Y-4218644D01*
X11981644Y-4218644D01*
X11981644Y-4289356D01*
X12052356Y-4289356D01*
X12052356Y-4543356D02*
X12052356Y-4472644D01*
X11981644Y-4472644D01*
X11981644Y-4543356D01*
X12052356Y-4543356D01*
X12052356Y-4797356D02*
X12052356Y-4726644D01*
X11981644Y-4726644D01*
X11981644Y-4797356D01*
X12052356Y-4797356D01*
X12052356Y-5051356D02*
X12052356Y-4980644D01*
X11981644Y-4980644D01*
X11981644Y-5051356D01*
X12052356Y-5051356D01*
X17813356Y-9409356D02*
X17813356Y-9338644D01*
X17742644Y-9338644D01*
X17742644Y-9409356D01*
X17813356Y-9409356D01*
X17813356Y-9663356D02*
X17813356Y-9592644D01*
X17742644Y-9592644D01*
X17742644Y-9663356D01*
X17813356Y-9663356D01*
X17813356Y-9917356D02*
X17813356Y-9846644D01*
X17742644Y-9846644D01*
X17742644Y-9917356D01*
X17813356Y-9917356D01*
X17813356Y-10171356D02*
X17813356Y-10100644D01*
X17742644Y-10100644D01*
X17742644Y-10171356D01*
X17813356Y-10171356D01*
D10*
X7578813Y-16276848D02*
X7578813Y-16076848D01*
X7578813Y-16076848D02*
X7626432Y-16076848D01*
X7626432Y-16076848D02*
X7655003Y-16086372D01*
X7655003Y-16086372D02*
X7674051Y-16105419D01*
X7674051Y-16105419D02*
X7683575Y-16124467D01*
X7683575Y-16124467D02*
X7693099Y-16162562D01*
X7693099Y-16162562D02*
X7693099Y-16191133D01*
X7693099Y-16191133D02*
X7683575Y-16229229D01*
X7683575Y-16229229D02*
X7674051Y-16248276D01*
X7674051Y-16248276D02*
X7655003Y-16267324D01*
X7655003Y-16267324D02*
X7626432Y-16276848D01*
X7626432Y-16276848D02*
X7578813Y-16276848D01*
X7778813Y-16276848D02*
X7778813Y-16143514D01*
X7778813Y-16181610D02*
X7788337Y-16162562D01*
X7788337Y-16162562D02*
X7797860Y-16153038D01*
X7797860Y-16153038D02*
X7816908Y-16143514D01*
X7816908Y-16143514D02*
X7835956Y-16143514D01*
X7902622Y-16276848D02*
X7902622Y-16143514D01*
X7902622Y-16076848D02*
X7893099Y-16086372D01*
X7893099Y-16086372D02*
X7902622Y-16095895D01*
X7902622Y-16095895D02*
X7912146Y-16086372D01*
X7912146Y-16086372D02*
X7902622Y-16076848D01*
X7902622Y-16076848D02*
X7902622Y-16095895D01*
X8026432Y-16276848D02*
X8007384Y-16267324D01*
X8007384Y-16267324D02*
X7997860Y-16248276D01*
X7997860Y-16248276D02*
X7997860Y-16076848D01*
X8131194Y-16276848D02*
X8112146Y-16267324D01*
X8112146Y-16267324D02*
X8102622Y-16248276D01*
X8102622Y-16248276D02*
X8102622Y-16076848D01*
X8359765Y-16276848D02*
X8359765Y-16076848D01*
X8359765Y-16076848D02*
X8426432Y-16219705D01*
X8426432Y-16219705D02*
X8493099Y-16076848D01*
X8493099Y-16076848D02*
X8493099Y-16276848D01*
X8674051Y-16276848D02*
X8674051Y-16172086D01*
X8674051Y-16172086D02*
X8664527Y-16153038D01*
X8664527Y-16153038D02*
X8645480Y-16143514D01*
X8645480Y-16143514D02*
X8607384Y-16143514D01*
X8607384Y-16143514D02*
X8588337Y-16153038D01*
X8674051Y-16267324D02*
X8655003Y-16276848D01*
X8655003Y-16276848D02*
X8607384Y-16276848D01*
X8607384Y-16276848D02*
X8588337Y-16267324D01*
X8588337Y-16267324D02*
X8578813Y-16248276D01*
X8578813Y-16248276D02*
X8578813Y-16229229D01*
X8578813Y-16229229D02*
X8588337Y-16210181D01*
X8588337Y-16210181D02*
X8607384Y-16200657D01*
X8607384Y-16200657D02*
X8655003Y-16200657D01*
X8655003Y-16200657D02*
X8674051Y-16191133D01*
X8769289Y-16143514D02*
X8769289Y-16343514D01*
X8769289Y-16153038D02*
X8788337Y-16143514D01*
X8788337Y-16143514D02*
X8826432Y-16143514D01*
X8826432Y-16143514D02*
X8845480Y-16153038D01*
X8845480Y-16153038D02*
X8855003Y-16162562D01*
X8855003Y-16162562D02*
X8864527Y-16181610D01*
X8864527Y-16181610D02*
X8864527Y-16238752D01*
X8864527Y-16238752D02*
X8855003Y-16257800D01*
X8855003Y-16257800D02*
X8845480Y-16267324D01*
X8845480Y-16267324D02*
X8826432Y-16276848D01*
X8826432Y-16276848D02*
X8788337Y-16276848D01*
X8788337Y-16276848D02*
X8769289Y-16267324D01*
X8950242Y-16257800D02*
X8959765Y-16267324D01*
X8959765Y-16267324D02*
X8950242Y-16276848D01*
X8950242Y-16276848D02*
X8940718Y-16267324D01*
X8940718Y-16267324D02*
X8950242Y-16257800D01*
X8950242Y-16257800D02*
X8950242Y-16276848D01*
X8950242Y-16153038D02*
X8959765Y-16162562D01*
X8959765Y-16162562D02*
X8950242Y-16172086D01*
X8950242Y-16172086D02*
X8940718Y-16162562D01*
X8940718Y-16162562D02*
X8950242Y-16153038D01*
X8950242Y-16153038D02*
X8950242Y-16172086D01*
D11*
X7278036Y-16585364D02*
X7318036Y-16625364D01*
X7318036Y-16585364D02*
X7278036Y-16625364D01*
D10*
X7616908Y-16496848D02*
X7635956Y-16496848D01*
X7635956Y-16496848D02*
X7655003Y-16506372D01*
X7655003Y-16506372D02*
X7664527Y-16515895D01*
X7664527Y-16515895D02*
X7674051Y-16534943D01*
X7674051Y-16534943D02*
X7683575Y-16573038D01*
X7683575Y-16573038D02*
X7683575Y-16620657D01*
X7683575Y-16620657D02*
X7674051Y-16658752D01*
X7674051Y-16658752D02*
X7664527Y-16677800D01*
X7664527Y-16677800D02*
X7655003Y-16687324D01*
X7655003Y-16687324D02*
X7635956Y-16696848D01*
X7635956Y-16696848D02*
X7616908Y-16696848D01*
X7616908Y-16696848D02*
X7597860Y-16687324D01*
X7597860Y-16687324D02*
X7588337Y-16677800D01*
X7588337Y-16677800D02*
X7578813Y-16658752D01*
X7578813Y-16658752D02*
X7569289Y-16620657D01*
X7569289Y-16620657D02*
X7569289Y-16573038D01*
X7569289Y-16573038D02*
X7578813Y-16534943D01*
X7578813Y-16534943D02*
X7588337Y-16515895D01*
X7588337Y-16515895D02*
X7597860Y-16506372D01*
X7597860Y-16506372D02*
X7616908Y-16496848D01*
X7769289Y-16677800D02*
X7778813Y-16687324D01*
X7778813Y-16687324D02*
X7769289Y-16696848D01*
X7769289Y-16696848D02*
X7759765Y-16687324D01*
X7759765Y-16687324D02*
X7769289Y-16677800D01*
X7769289Y-16677800D02*
X7769289Y-16696848D01*
X7950241Y-16563514D02*
X7950241Y-16696848D01*
X7902622Y-16487324D02*
X7855003Y-16630181D01*
X7855003Y-16630181D02*
X7978813Y-16630181D01*
X8093099Y-16496848D02*
X8112146Y-16496848D01*
X8112146Y-16496848D02*
X8131194Y-16506372D01*
X8131194Y-16506372D02*
X8140718Y-16515895D01*
X8140718Y-16515895D02*
X8150241Y-16534943D01*
X8150241Y-16534943D02*
X8159765Y-16573038D01*
X8159765Y-16573038D02*
X8159765Y-16620657D01*
X8159765Y-16620657D02*
X8150241Y-16658752D01*
X8150241Y-16658752D02*
X8140718Y-16677800D01*
X8140718Y-16677800D02*
X8131194Y-16687324D01*
X8131194Y-16687324D02*
X8112146Y-16696848D01*
X8112146Y-16696848D02*
X8093099Y-16696848D01*
X8093099Y-16696848D02*
X8074051Y-16687324D01*
X8074051Y-16687324D02*
X8064527Y-16677800D01*
X8064527Y-16677800D02*
X8055003Y-16658752D01*
X8055003Y-16658752D02*
X8045480Y-16620657D01*
X8045480Y-16620657D02*
X8045480Y-16573038D01*
X8045480Y-16573038D02*
X8055003Y-16534943D01*
X8055003Y-16534943D02*
X8064527Y-16515895D01*
X8064527Y-16515895D02*
X8074051Y-16506372D01*
X8074051Y-16506372D02*
X8093099Y-16496848D01*
X8283575Y-16496848D02*
X8302622Y-16496848D01*
X8302622Y-16496848D02*
X8321670Y-16506372D01*
X8321670Y-16506372D02*
X8331194Y-16515895D01*
X8331194Y-16515895D02*
X8340718Y-16534943D01*
X8340718Y-16534943D02*
X8350241Y-16573038D01*
X8350241Y-16573038D02*
X8350241Y-16620657D01*
X8350241Y-16620657D02*
X8340718Y-16658752D01*
X8340718Y-16658752D02*
X8331194Y-16677800D01*
X8331194Y-16677800D02*
X8321670Y-16687324D01*
X8321670Y-16687324D02*
X8302622Y-16696848D01*
X8302622Y-16696848D02*
X8283575Y-16696848D01*
X8283575Y-16696848D02*
X8264527Y-16687324D01*
X8264527Y-16687324D02*
X8255003Y-16677800D01*
X8255003Y-16677800D02*
X8245480Y-16658752D01*
X8245480Y-16658752D02*
X8235956Y-16620657D01*
X8235956Y-16620657D02*
X8235956Y-16573038D01*
X8235956Y-16573038D02*
X8245480Y-16534943D01*
X8245480Y-16534943D02*
X8255003Y-16515895D01*
X8255003Y-16515895D02*
X8264527Y-16506372D01*
X8264527Y-16506372D02*
X8283575Y-16496848D01*
X8435956Y-16696848D02*
X8435956Y-16563514D01*
X8435956Y-16582562D02*
X8445480Y-16573038D01*
X8445480Y-16573038D02*
X8464527Y-16563514D01*
X8464527Y-16563514D02*
X8493099Y-16563514D01*
X8493099Y-16563514D02*
X8512146Y-16573038D01*
X8512146Y-16573038D02*
X8521670Y-16592086D01*
X8521670Y-16592086D02*
X8521670Y-16696848D01*
X8521670Y-16592086D02*
X8531194Y-16573038D01*
X8531194Y-16573038D02*
X8550242Y-16563514D01*
X8550242Y-16563514D02*
X8578813Y-16563514D01*
X8578813Y-16563514D02*
X8597861Y-16573038D01*
X8597861Y-16573038D02*
X8607384Y-16592086D01*
X8607384Y-16592086D02*
X8607384Y-16696848D01*
X8702623Y-16696848D02*
X8702623Y-16563514D01*
X8702623Y-16582562D02*
X8712146Y-16573038D01*
X8712146Y-16573038D02*
X8731194Y-16563514D01*
X8731194Y-16563514D02*
X8759765Y-16563514D01*
X8759765Y-16563514D02*
X8778813Y-16573038D01*
X8778813Y-16573038D02*
X8788337Y-16592086D01*
X8788337Y-16592086D02*
X8788337Y-16696848D01*
X8788337Y-16592086D02*
X8797861Y-16573038D01*
X8797861Y-16573038D02*
X8816908Y-16563514D01*
X8816908Y-16563514D02*
X8845480Y-16563514D01*
X8845480Y-16563514D02*
X8864527Y-16573038D01*
X8864527Y-16573038D02*
X8874051Y-16592086D01*
X8874051Y-16592086D02*
X8874051Y-16696848D01*
X9264527Y-16487324D02*
X9093099Y-16744467D01*
X9521670Y-16496848D02*
X9540718Y-16496848D01*
X9540718Y-16496848D02*
X9559766Y-16506372D01*
X9559766Y-16506372D02*
X9569289Y-16515895D01*
X9569289Y-16515895D02*
X9578813Y-16534943D01*
X9578813Y-16534943D02*
X9588337Y-16573038D01*
X9588337Y-16573038D02*
X9588337Y-16620657D01*
X9588337Y-16620657D02*
X9578813Y-16658752D01*
X9578813Y-16658752D02*
X9569289Y-16677800D01*
X9569289Y-16677800D02*
X9559766Y-16687324D01*
X9559766Y-16687324D02*
X9540718Y-16696848D01*
X9540718Y-16696848D02*
X9521670Y-16696848D01*
X9521670Y-16696848D02*
X9502623Y-16687324D01*
X9502623Y-16687324D02*
X9493099Y-16677800D01*
X9493099Y-16677800D02*
X9483575Y-16658752D01*
X9483575Y-16658752D02*
X9474051Y-16620657D01*
X9474051Y-16620657D02*
X9474051Y-16573038D01*
X9474051Y-16573038D02*
X9483575Y-16534943D01*
X9483575Y-16534943D02*
X9493099Y-16515895D01*
X9493099Y-16515895D02*
X9502623Y-16506372D01*
X9502623Y-16506372D02*
X9521670Y-16496848D01*
X9674051Y-16677800D02*
X9683575Y-16687324D01*
X9683575Y-16687324D02*
X9674051Y-16696848D01*
X9674051Y-16696848D02*
X9664527Y-16687324D01*
X9664527Y-16687324D02*
X9674051Y-16677800D01*
X9674051Y-16677800D02*
X9674051Y-16696848D01*
X9807385Y-16496848D02*
X9826432Y-16496848D01*
X9826432Y-16496848D02*
X9845480Y-16506372D01*
X9845480Y-16506372D02*
X9855004Y-16515895D01*
X9855004Y-16515895D02*
X9864527Y-16534943D01*
X9864527Y-16534943D02*
X9874051Y-16573038D01*
X9874051Y-16573038D02*
X9874051Y-16620657D01*
X9874051Y-16620657D02*
X9864527Y-16658752D01*
X9864527Y-16658752D02*
X9855004Y-16677800D01*
X9855004Y-16677800D02*
X9845480Y-16687324D01*
X9845480Y-16687324D02*
X9826432Y-16696848D01*
X9826432Y-16696848D02*
X9807385Y-16696848D01*
X9807385Y-16696848D02*
X9788337Y-16687324D01*
X9788337Y-16687324D02*
X9778813Y-16677800D01*
X9778813Y-16677800D02*
X9769289Y-16658752D01*
X9769289Y-16658752D02*
X9759766Y-16620657D01*
X9759766Y-16620657D02*
X9759766Y-16573038D01*
X9759766Y-16573038D02*
X9769289Y-16534943D01*
X9769289Y-16534943D02*
X9778813Y-16515895D01*
X9778813Y-16515895D02*
X9788337Y-16506372D01*
X9788337Y-16506372D02*
X9807385Y-16496848D01*
X10064527Y-16696848D02*
X9950242Y-16696848D01*
X10007385Y-16696848D02*
X10007385Y-16496848D01*
X10007385Y-16496848D02*
X9988337Y-16525419D01*
X9988337Y-16525419D02*
X9969289Y-16544467D01*
X9969289Y-16544467D02*
X9950242Y-16553991D01*
X10245480Y-16496848D02*
X10150242Y-16496848D01*
X10150242Y-16496848D02*
X10140718Y-16592086D01*
X10140718Y-16592086D02*
X10150242Y-16582562D01*
X10150242Y-16582562D02*
X10169289Y-16573038D01*
X10169289Y-16573038D02*
X10216908Y-16573038D01*
X10216908Y-16573038D02*
X10235956Y-16582562D01*
X10235956Y-16582562D02*
X10245480Y-16592086D01*
X10245480Y-16592086D02*
X10255004Y-16611133D01*
X10255004Y-16611133D02*
X10255004Y-16658752D01*
X10255004Y-16658752D02*
X10245480Y-16677800D01*
X10245480Y-16677800D02*
X10235956Y-16687324D01*
X10235956Y-16687324D02*
X10216908Y-16696848D01*
X10216908Y-16696848D02*
X10169289Y-16696848D01*
X10169289Y-16696848D02*
X10150242Y-16687324D01*
X10150242Y-16687324D02*
X10140718Y-16677800D01*
X10321670Y-16496848D02*
X10455004Y-16496848D01*
X10455004Y-16496848D02*
X10369289Y-16696848D01*
X10521670Y-16496848D02*
X10521670Y-16534943D01*
X10597861Y-16496848D02*
X10597861Y-16534943D01*
X10893099Y-16773038D02*
X10883575Y-16763514D01*
X10883575Y-16763514D02*
X10864528Y-16734943D01*
X10864528Y-16734943D02*
X10855004Y-16715895D01*
X10855004Y-16715895D02*
X10845480Y-16687324D01*
X10845480Y-16687324D02*
X10835956Y-16639705D01*
X10835956Y-16639705D02*
X10835956Y-16601610D01*
X10835956Y-16601610D02*
X10845480Y-16553991D01*
X10845480Y-16553991D02*
X10855004Y-16525419D01*
X10855004Y-16525419D02*
X10864528Y-16506372D01*
X10864528Y-16506372D02*
X10883575Y-16477800D01*
X10883575Y-16477800D02*
X10893099Y-16468276D01*
X11074051Y-16696848D02*
X10959766Y-16696848D01*
X11016908Y-16696848D02*
X11016908Y-16496848D01*
X11016908Y-16496848D02*
X10997861Y-16525419D01*
X10997861Y-16525419D02*
X10978813Y-16544467D01*
X10978813Y-16544467D02*
X10959766Y-16553991D01*
X11255004Y-16496848D02*
X11159766Y-16496848D01*
X11159766Y-16496848D02*
X11150242Y-16592086D01*
X11150242Y-16592086D02*
X11159766Y-16582562D01*
X11159766Y-16582562D02*
X11178813Y-16573038D01*
X11178813Y-16573038D02*
X11226432Y-16573038D01*
X11226432Y-16573038D02*
X11245480Y-16582562D01*
X11245480Y-16582562D02*
X11255004Y-16592086D01*
X11255004Y-16592086D02*
X11264527Y-16611133D01*
X11264527Y-16611133D02*
X11264527Y-16658752D01*
X11264527Y-16658752D02*
X11255004Y-16677800D01*
X11255004Y-16677800D02*
X11245480Y-16687324D01*
X11245480Y-16687324D02*
X11226432Y-16696848D01*
X11226432Y-16696848D02*
X11178813Y-16696848D01*
X11178813Y-16696848D02*
X11159766Y-16687324D01*
X11159766Y-16687324D02*
X11150242Y-16677800D01*
X11455004Y-16696848D02*
X11340718Y-16696848D01*
X11397861Y-16696848D02*
X11397861Y-16496848D01*
X11397861Y-16496848D02*
X11378813Y-16525419D01*
X11378813Y-16525419D02*
X11359766Y-16544467D01*
X11359766Y-16544467D02*
X11340718Y-16553991D01*
X11693099Y-16696848D02*
X11693099Y-16496848D01*
X11778813Y-16696848D02*
X11778813Y-16592086D01*
X11778813Y-16592086D02*
X11769289Y-16573038D01*
X11769289Y-16573038D02*
X11750242Y-16563514D01*
X11750242Y-16563514D02*
X11721670Y-16563514D01*
X11721670Y-16563514D02*
X11702623Y-16573038D01*
X11702623Y-16573038D02*
X11693099Y-16582562D01*
X11902623Y-16696848D02*
X11883575Y-16687324D01*
X11883575Y-16687324D02*
X11874051Y-16677800D01*
X11874051Y-16677800D02*
X11864528Y-16658752D01*
X11864528Y-16658752D02*
X11864528Y-16601610D01*
X11864528Y-16601610D02*
X11874051Y-16582562D01*
X11874051Y-16582562D02*
X11883575Y-16573038D01*
X11883575Y-16573038D02*
X11902623Y-16563514D01*
X11902623Y-16563514D02*
X11931194Y-16563514D01*
X11931194Y-16563514D02*
X11950242Y-16573038D01*
X11950242Y-16573038D02*
X11959766Y-16582562D01*
X11959766Y-16582562D02*
X11969289Y-16601610D01*
X11969289Y-16601610D02*
X11969289Y-16658752D01*
X11969289Y-16658752D02*
X11959766Y-16677800D01*
X11959766Y-16677800D02*
X11950242Y-16687324D01*
X11950242Y-16687324D02*
X11931194Y-16696848D01*
X11931194Y-16696848D02*
X11902623Y-16696848D01*
X12083575Y-16696848D02*
X12064528Y-16687324D01*
X12064528Y-16687324D02*
X12055004Y-16668276D01*
X12055004Y-16668276D02*
X12055004Y-16496848D01*
X12235956Y-16687324D02*
X12216909Y-16696848D01*
X12216909Y-16696848D02*
X12178813Y-16696848D01*
X12178813Y-16696848D02*
X12159766Y-16687324D01*
X12159766Y-16687324D02*
X12150242Y-16668276D01*
X12150242Y-16668276D02*
X12150242Y-16592086D01*
X12150242Y-16592086D02*
X12159766Y-16573038D01*
X12159766Y-16573038D02*
X12178813Y-16563514D01*
X12178813Y-16563514D02*
X12216909Y-16563514D01*
X12216909Y-16563514D02*
X12235956Y-16573038D01*
X12235956Y-16573038D02*
X12245480Y-16592086D01*
X12245480Y-16592086D02*
X12245480Y-16611133D01*
X12245480Y-16611133D02*
X12150242Y-16630181D01*
X12321670Y-16687324D02*
X12340718Y-16696848D01*
X12340718Y-16696848D02*
X12378813Y-16696848D01*
X12378813Y-16696848D02*
X12397861Y-16687324D01*
X12397861Y-16687324D02*
X12407385Y-16668276D01*
X12407385Y-16668276D02*
X12407385Y-16658752D01*
X12407385Y-16658752D02*
X12397861Y-16639705D01*
X12397861Y-16639705D02*
X12378813Y-16630181D01*
X12378813Y-16630181D02*
X12350242Y-16630181D01*
X12350242Y-16630181D02*
X12331194Y-16620657D01*
X12331194Y-16620657D02*
X12321670Y-16601610D01*
X12321670Y-16601610D02*
X12321670Y-16592086D01*
X12321670Y-16592086D02*
X12331194Y-16573038D01*
X12331194Y-16573038D02*
X12350242Y-16563514D01*
X12350242Y-16563514D02*
X12378813Y-16563514D01*
X12378813Y-16563514D02*
X12397861Y-16573038D01*
X12474051Y-16773038D02*
X12483575Y-16763514D01*
X12483575Y-16763514D02*
X12502623Y-16734943D01*
X12502623Y-16734943D02*
X12512147Y-16715895D01*
X12512147Y-16715895D02*
X12521670Y-16687324D01*
X12521670Y-16687324D02*
X12531194Y-16639705D01*
X12531194Y-16639705D02*
X12531194Y-16601610D01*
X12531194Y-16601610D02*
X12521670Y-16553991D01*
X12521670Y-16553991D02*
X12512147Y-16525419D01*
X12512147Y-16525419D02*
X12502623Y-16506372D01*
X12502623Y-16506372D02*
X12483575Y-16477800D01*
X12483575Y-16477800D02*
X12474051Y-16468276D01*
D11*
X7318036Y-16869364D02*
G75*
G03*
X7238036Y-16869364I-40000J0D01*
G01*
X7238036Y-16869364D02*
G75*
G03*
X7318036Y-16869364I40000J0D01*
G01*
D10*
X7616908Y-16760848D02*
X7635956Y-16760848D01*
X7635956Y-16760848D02*
X7655003Y-16770372D01*
X7655003Y-16770372D02*
X7664527Y-16779895D01*
X7664527Y-16779895D02*
X7674051Y-16798943D01*
X7674051Y-16798943D02*
X7683575Y-16837038D01*
X7683575Y-16837038D02*
X7683575Y-16884657D01*
X7683575Y-16884657D02*
X7674051Y-16922753D01*
X7674051Y-16922753D02*
X7664527Y-16941800D01*
X7664527Y-16941800D02*
X7655003Y-16951324D01*
X7655003Y-16951324D02*
X7635956Y-16960848D01*
X7635956Y-16960848D02*
X7616908Y-16960848D01*
X7616908Y-16960848D02*
X7597860Y-16951324D01*
X7597860Y-16951324D02*
X7588337Y-16941800D01*
X7588337Y-16941800D02*
X7578813Y-16922753D01*
X7578813Y-16922753D02*
X7569289Y-16884657D01*
X7569289Y-16884657D02*
X7569289Y-16837038D01*
X7569289Y-16837038D02*
X7578813Y-16798943D01*
X7578813Y-16798943D02*
X7588337Y-16779895D01*
X7588337Y-16779895D02*
X7597860Y-16770372D01*
X7597860Y-16770372D02*
X7616908Y-16760848D01*
X7769289Y-16941800D02*
X7778813Y-16951324D01*
X7778813Y-16951324D02*
X7769289Y-16960848D01*
X7769289Y-16960848D02*
X7759765Y-16951324D01*
X7759765Y-16951324D02*
X7769289Y-16941800D01*
X7769289Y-16941800D02*
X7769289Y-16960848D01*
X7893099Y-16846562D02*
X7874051Y-16837038D01*
X7874051Y-16837038D02*
X7864527Y-16827514D01*
X7864527Y-16827514D02*
X7855003Y-16808467D01*
X7855003Y-16808467D02*
X7855003Y-16798943D01*
X7855003Y-16798943D02*
X7864527Y-16779895D01*
X7864527Y-16779895D02*
X7874051Y-16770372D01*
X7874051Y-16770372D02*
X7893099Y-16760848D01*
X7893099Y-16760848D02*
X7931194Y-16760848D01*
X7931194Y-16760848D02*
X7950241Y-16770372D01*
X7950241Y-16770372D02*
X7959765Y-16779895D01*
X7959765Y-16779895D02*
X7969289Y-16798943D01*
X7969289Y-16798943D02*
X7969289Y-16808467D01*
X7969289Y-16808467D02*
X7959765Y-16827514D01*
X7959765Y-16827514D02*
X7950241Y-16837038D01*
X7950241Y-16837038D02*
X7931194Y-16846562D01*
X7931194Y-16846562D02*
X7893099Y-16846562D01*
X7893099Y-16846562D02*
X7874051Y-16856086D01*
X7874051Y-16856086D02*
X7864527Y-16865610D01*
X7864527Y-16865610D02*
X7855003Y-16884657D01*
X7855003Y-16884657D02*
X7855003Y-16922753D01*
X7855003Y-16922753D02*
X7864527Y-16941800D01*
X7864527Y-16941800D02*
X7874051Y-16951324D01*
X7874051Y-16951324D02*
X7893099Y-16960848D01*
X7893099Y-16960848D02*
X7931194Y-16960848D01*
X7931194Y-16960848D02*
X7950241Y-16951324D01*
X7950241Y-16951324D02*
X7959765Y-16941800D01*
X7959765Y-16941800D02*
X7969289Y-16922753D01*
X7969289Y-16922753D02*
X7969289Y-16884657D01*
X7969289Y-16884657D02*
X7959765Y-16865610D01*
X7959765Y-16865610D02*
X7950241Y-16856086D01*
X7950241Y-16856086D02*
X7931194Y-16846562D01*
X8093099Y-16760848D02*
X8112146Y-16760848D01*
X8112146Y-16760848D02*
X8131194Y-16770372D01*
X8131194Y-16770372D02*
X8140718Y-16779895D01*
X8140718Y-16779895D02*
X8150241Y-16798943D01*
X8150241Y-16798943D02*
X8159765Y-16837038D01*
X8159765Y-16837038D02*
X8159765Y-16884657D01*
X8159765Y-16884657D02*
X8150241Y-16922753D01*
X8150241Y-16922753D02*
X8140718Y-16941800D01*
X8140718Y-16941800D02*
X8131194Y-16951324D01*
X8131194Y-16951324D02*
X8112146Y-16960848D01*
X8112146Y-16960848D02*
X8093099Y-16960848D01*
X8093099Y-16960848D02*
X8074051Y-16951324D01*
X8074051Y-16951324D02*
X8064527Y-16941800D01*
X8064527Y-16941800D02*
X8055003Y-16922753D01*
X8055003Y-16922753D02*
X8045480Y-16884657D01*
X8045480Y-16884657D02*
X8045480Y-16837038D01*
X8045480Y-16837038D02*
X8055003Y-16798943D01*
X8055003Y-16798943D02*
X8064527Y-16779895D01*
X8064527Y-16779895D02*
X8074051Y-16770372D01*
X8074051Y-16770372D02*
X8093099Y-16760848D01*
X8283575Y-16760848D02*
X8302622Y-16760848D01*
X8302622Y-16760848D02*
X8321670Y-16770372D01*
X8321670Y-16770372D02*
X8331194Y-16779895D01*
X8331194Y-16779895D02*
X8340718Y-16798943D01*
X8340718Y-16798943D02*
X8350241Y-16837038D01*
X8350241Y-16837038D02*
X8350241Y-16884657D01*
X8350241Y-16884657D02*
X8340718Y-16922753D01*
X8340718Y-16922753D02*
X8331194Y-16941800D01*
X8331194Y-16941800D02*
X8321670Y-16951324D01*
X8321670Y-16951324D02*
X8302622Y-16960848D01*
X8302622Y-16960848D02*
X8283575Y-16960848D01*
X8283575Y-16960848D02*
X8264527Y-16951324D01*
X8264527Y-16951324D02*
X8255003Y-16941800D01*
X8255003Y-16941800D02*
X8245480Y-16922753D01*
X8245480Y-16922753D02*
X8235956Y-16884657D01*
X8235956Y-16884657D02*
X8235956Y-16837038D01*
X8235956Y-16837038D02*
X8245480Y-16798943D01*
X8245480Y-16798943D02*
X8255003Y-16779895D01*
X8255003Y-16779895D02*
X8264527Y-16770372D01*
X8264527Y-16770372D02*
X8283575Y-16760848D01*
X8435956Y-16960848D02*
X8435956Y-16827514D01*
X8435956Y-16846562D02*
X8445480Y-16837038D01*
X8445480Y-16837038D02*
X8464527Y-16827514D01*
X8464527Y-16827514D02*
X8493099Y-16827514D01*
X8493099Y-16827514D02*
X8512146Y-16837038D01*
X8512146Y-16837038D02*
X8521670Y-16856086D01*
X8521670Y-16856086D02*
X8521670Y-16960848D01*
X8521670Y-16856086D02*
X8531194Y-16837038D01*
X8531194Y-16837038D02*
X8550242Y-16827514D01*
X8550242Y-16827514D02*
X8578813Y-16827514D01*
X8578813Y-16827514D02*
X8597861Y-16837038D01*
X8597861Y-16837038D02*
X8607384Y-16856086D01*
X8607384Y-16856086D02*
X8607384Y-16960848D01*
X8702623Y-16960848D02*
X8702623Y-16827514D01*
X8702623Y-16846562D02*
X8712146Y-16837038D01*
X8712146Y-16837038D02*
X8731194Y-16827514D01*
X8731194Y-16827514D02*
X8759765Y-16827514D01*
X8759765Y-16827514D02*
X8778813Y-16837038D01*
X8778813Y-16837038D02*
X8788337Y-16856086D01*
X8788337Y-16856086D02*
X8788337Y-16960848D01*
X8788337Y-16856086D02*
X8797861Y-16837038D01*
X8797861Y-16837038D02*
X8816908Y-16827514D01*
X8816908Y-16827514D02*
X8845480Y-16827514D01*
X8845480Y-16827514D02*
X8864527Y-16837038D01*
X8864527Y-16837038D02*
X8874051Y-16856086D01*
X8874051Y-16856086D02*
X8874051Y-16960848D01*
X9264527Y-16751324D02*
X9093099Y-17008467D01*
X9521670Y-16760848D02*
X9540718Y-16760848D01*
X9540718Y-16760848D02*
X9559766Y-16770372D01*
X9559766Y-16770372D02*
X9569289Y-16779895D01*
X9569289Y-16779895D02*
X9578813Y-16798943D01*
X9578813Y-16798943D02*
X9588337Y-16837038D01*
X9588337Y-16837038D02*
X9588337Y-16884657D01*
X9588337Y-16884657D02*
X9578813Y-16922753D01*
X9578813Y-16922753D02*
X9569289Y-16941800D01*
X9569289Y-16941800D02*
X9559766Y-16951324D01*
X9559766Y-16951324D02*
X9540718Y-16960848D01*
X9540718Y-16960848D02*
X9521670Y-16960848D01*
X9521670Y-16960848D02*
X9502623Y-16951324D01*
X9502623Y-16951324D02*
X9493099Y-16941800D01*
X9493099Y-16941800D02*
X9483575Y-16922753D01*
X9483575Y-16922753D02*
X9474051Y-16884657D01*
X9474051Y-16884657D02*
X9474051Y-16837038D01*
X9474051Y-16837038D02*
X9483575Y-16798943D01*
X9483575Y-16798943D02*
X9493099Y-16779895D01*
X9493099Y-16779895D02*
X9502623Y-16770372D01*
X9502623Y-16770372D02*
X9521670Y-16760848D01*
X9674051Y-16941800D02*
X9683575Y-16951324D01*
X9683575Y-16951324D02*
X9674051Y-16960848D01*
X9674051Y-16960848D02*
X9664527Y-16951324D01*
X9664527Y-16951324D02*
X9674051Y-16941800D01*
X9674051Y-16941800D02*
X9674051Y-16960848D01*
X9807385Y-16760848D02*
X9826432Y-16760848D01*
X9826432Y-16760848D02*
X9845480Y-16770372D01*
X9845480Y-16770372D02*
X9855004Y-16779895D01*
X9855004Y-16779895D02*
X9864527Y-16798943D01*
X9864527Y-16798943D02*
X9874051Y-16837038D01*
X9874051Y-16837038D02*
X9874051Y-16884657D01*
X9874051Y-16884657D02*
X9864527Y-16922753D01*
X9864527Y-16922753D02*
X9855004Y-16941800D01*
X9855004Y-16941800D02*
X9845480Y-16951324D01*
X9845480Y-16951324D02*
X9826432Y-16960848D01*
X9826432Y-16960848D02*
X9807385Y-16960848D01*
X9807385Y-16960848D02*
X9788337Y-16951324D01*
X9788337Y-16951324D02*
X9778813Y-16941800D01*
X9778813Y-16941800D02*
X9769289Y-16922753D01*
X9769289Y-16922753D02*
X9759766Y-16884657D01*
X9759766Y-16884657D02*
X9759766Y-16837038D01*
X9759766Y-16837038D02*
X9769289Y-16798943D01*
X9769289Y-16798943D02*
X9778813Y-16779895D01*
X9778813Y-16779895D02*
X9788337Y-16770372D01*
X9788337Y-16770372D02*
X9807385Y-16760848D01*
X9940718Y-16760848D02*
X10064527Y-16760848D01*
X10064527Y-16760848D02*
X9997861Y-16837038D01*
X9997861Y-16837038D02*
X10026432Y-16837038D01*
X10026432Y-16837038D02*
X10045480Y-16846562D01*
X10045480Y-16846562D02*
X10055004Y-16856086D01*
X10055004Y-16856086D02*
X10064527Y-16875134D01*
X10064527Y-16875134D02*
X10064527Y-16922753D01*
X10064527Y-16922753D02*
X10055004Y-16941800D01*
X10055004Y-16941800D02*
X10045480Y-16951324D01*
X10045480Y-16951324D02*
X10026432Y-16960848D01*
X10026432Y-16960848D02*
X9969289Y-16960848D01*
X9969289Y-16960848D02*
X9950242Y-16951324D01*
X9950242Y-16951324D02*
X9940718Y-16941800D01*
X10255004Y-16960848D02*
X10140718Y-16960848D01*
X10197861Y-16960848D02*
X10197861Y-16760848D01*
X10197861Y-16760848D02*
X10178813Y-16789419D01*
X10178813Y-16789419D02*
X10159766Y-16808467D01*
X10159766Y-16808467D02*
X10140718Y-16817991D01*
X10435956Y-16760848D02*
X10340718Y-16760848D01*
X10340718Y-16760848D02*
X10331194Y-16856086D01*
X10331194Y-16856086D02*
X10340718Y-16846562D01*
X10340718Y-16846562D02*
X10359766Y-16837038D01*
X10359766Y-16837038D02*
X10407385Y-16837038D01*
X10407385Y-16837038D02*
X10426432Y-16846562D01*
X10426432Y-16846562D02*
X10435956Y-16856086D01*
X10435956Y-16856086D02*
X10445480Y-16875134D01*
X10445480Y-16875134D02*
X10445480Y-16922753D01*
X10445480Y-16922753D02*
X10435956Y-16941800D01*
X10435956Y-16941800D02*
X10426432Y-16951324D01*
X10426432Y-16951324D02*
X10407385Y-16960848D01*
X10407385Y-16960848D02*
X10359766Y-16960848D01*
X10359766Y-16960848D02*
X10340718Y-16951324D01*
X10340718Y-16951324D02*
X10331194Y-16941800D01*
X10521670Y-16760848D02*
X10521670Y-16798943D01*
X10597861Y-16760848D02*
X10597861Y-16798943D01*
X10893099Y-17037038D02*
X10883575Y-17027514D01*
X10883575Y-17027514D02*
X10864528Y-16998943D01*
X10864528Y-16998943D02*
X10855004Y-16979895D01*
X10855004Y-16979895D02*
X10845480Y-16951324D01*
X10845480Y-16951324D02*
X10835956Y-16903705D01*
X10835956Y-16903705D02*
X10835956Y-16865610D01*
X10835956Y-16865610D02*
X10845480Y-16817991D01*
X10845480Y-16817991D02*
X10855004Y-16789419D01*
X10855004Y-16789419D02*
X10864528Y-16770372D01*
X10864528Y-16770372D02*
X10883575Y-16741800D01*
X10883575Y-16741800D02*
X10893099Y-16732276D01*
X11055004Y-16827514D02*
X11055004Y-16960848D01*
X11007385Y-16751324D02*
X10959766Y-16894181D01*
X10959766Y-16894181D02*
X11083575Y-16894181D01*
X11312147Y-16960848D02*
X11312147Y-16760848D01*
X11397861Y-16960848D02*
X11397861Y-16856086D01*
X11397861Y-16856086D02*
X11388337Y-16837038D01*
X11388337Y-16837038D02*
X11369289Y-16827514D01*
X11369289Y-16827514D02*
X11340718Y-16827514D01*
X11340718Y-16827514D02*
X11321670Y-16837038D01*
X11321670Y-16837038D02*
X11312147Y-16846562D01*
X11521670Y-16960848D02*
X11502623Y-16951324D01*
X11502623Y-16951324D02*
X11493099Y-16941800D01*
X11493099Y-16941800D02*
X11483575Y-16922753D01*
X11483575Y-16922753D02*
X11483575Y-16865610D01*
X11483575Y-16865610D02*
X11493099Y-16846562D01*
X11493099Y-16846562D02*
X11502623Y-16837038D01*
X11502623Y-16837038D02*
X11521670Y-16827514D01*
X11521670Y-16827514D02*
X11550242Y-16827514D01*
X11550242Y-16827514D02*
X11569289Y-16837038D01*
X11569289Y-16837038D02*
X11578813Y-16846562D01*
X11578813Y-16846562D02*
X11588337Y-16865610D01*
X11588337Y-16865610D02*
X11588337Y-16922753D01*
X11588337Y-16922753D02*
X11578813Y-16941800D01*
X11578813Y-16941800D02*
X11569289Y-16951324D01*
X11569289Y-16951324D02*
X11550242Y-16960848D01*
X11550242Y-16960848D02*
X11521670Y-16960848D01*
X11702623Y-16960848D02*
X11683575Y-16951324D01*
X11683575Y-16951324D02*
X11674051Y-16932276D01*
X11674051Y-16932276D02*
X11674051Y-16760848D01*
X11855004Y-16951324D02*
X11835956Y-16960848D01*
X11835956Y-16960848D02*
X11797861Y-16960848D01*
X11797861Y-16960848D02*
X11778813Y-16951324D01*
X11778813Y-16951324D02*
X11769289Y-16932276D01*
X11769289Y-16932276D02*
X11769289Y-16856086D01*
X11769289Y-16856086D02*
X11778813Y-16837038D01*
X11778813Y-16837038D02*
X11797861Y-16827514D01*
X11797861Y-16827514D02*
X11835956Y-16827514D01*
X11835956Y-16827514D02*
X11855004Y-16837038D01*
X11855004Y-16837038D02*
X11864528Y-16856086D01*
X11864528Y-16856086D02*
X11864528Y-16875134D01*
X11864528Y-16875134D02*
X11769289Y-16894181D01*
X11940718Y-16951324D02*
X11959766Y-16960848D01*
X11959766Y-16960848D02*
X11997861Y-16960848D01*
X11997861Y-16960848D02*
X12016909Y-16951324D01*
X12016909Y-16951324D02*
X12026432Y-16932276D01*
X12026432Y-16932276D02*
X12026432Y-16922753D01*
X12026432Y-16922753D02*
X12016909Y-16903705D01*
X12016909Y-16903705D02*
X11997861Y-16894181D01*
X11997861Y-16894181D02*
X11969289Y-16894181D01*
X11969289Y-16894181D02*
X11950242Y-16884657D01*
X11950242Y-16884657D02*
X11940718Y-16865610D01*
X11940718Y-16865610D02*
X11940718Y-16856086D01*
X11940718Y-16856086D02*
X11950242Y-16837038D01*
X11950242Y-16837038D02*
X11969289Y-16827514D01*
X11969289Y-16827514D02*
X11997861Y-16827514D01*
X11997861Y-16827514D02*
X12016909Y-16837038D01*
X12093099Y-17037038D02*
X12102623Y-17027514D01*
X12102623Y-17027514D02*
X12121670Y-16998943D01*
X12121670Y-16998943D02*
X12131194Y-16979895D01*
X12131194Y-16979895D02*
X12140718Y-16951324D01*
X12140718Y-16951324D02*
X12150242Y-16903705D01*
X12150242Y-16903705D02*
X12150242Y-16865610D01*
X12150242Y-16865610D02*
X12140718Y-16817991D01*
X12140718Y-16817991D02*
X12131194Y-16789419D01*
X12131194Y-16789419D02*
X12121670Y-16770372D01*
X12121670Y-16770372D02*
X12102623Y-16741800D01*
X12102623Y-16741800D02*
X12093099Y-16732276D01*
D11*
X7270536Y-17085864D02*
X7270536Y-17180864D01*
X7223036Y-17133364D02*
X7318036Y-17133364D01*
D10*
X7616908Y-17024848D02*
X7635956Y-17024848D01*
X7635956Y-17024848D02*
X7655003Y-17034372D01*
X7655003Y-17034372D02*
X7664527Y-17043895D01*
X7664527Y-17043895D02*
X7674051Y-17062943D01*
X7674051Y-17062943D02*
X7683575Y-17101038D01*
X7683575Y-17101038D02*
X7683575Y-17148657D01*
X7683575Y-17148657D02*
X7674051Y-17186753D01*
X7674051Y-17186753D02*
X7664527Y-17205800D01*
X7664527Y-17205800D02*
X7655003Y-17215324D01*
X7655003Y-17215324D02*
X7635956Y-17224848D01*
X7635956Y-17224848D02*
X7616908Y-17224848D01*
X7616908Y-17224848D02*
X7597860Y-17215324D01*
X7597860Y-17215324D02*
X7588337Y-17205800D01*
X7588337Y-17205800D02*
X7578813Y-17186753D01*
X7578813Y-17186753D02*
X7569289Y-17148657D01*
X7569289Y-17148657D02*
X7569289Y-17101038D01*
X7569289Y-17101038D02*
X7578813Y-17062943D01*
X7578813Y-17062943D02*
X7588337Y-17043895D01*
X7588337Y-17043895D02*
X7597860Y-17034372D01*
X7597860Y-17034372D02*
X7616908Y-17024848D01*
X7769289Y-17205800D02*
X7778813Y-17215324D01*
X7778813Y-17215324D02*
X7769289Y-17224848D01*
X7769289Y-17224848D02*
X7759765Y-17215324D01*
X7759765Y-17215324D02*
X7769289Y-17205800D01*
X7769289Y-17205800D02*
X7769289Y-17224848D01*
X7874051Y-17224848D02*
X7912146Y-17224848D01*
X7912146Y-17224848D02*
X7931194Y-17215324D01*
X7931194Y-17215324D02*
X7940718Y-17205800D01*
X7940718Y-17205800D02*
X7959765Y-17177229D01*
X7959765Y-17177229D02*
X7969289Y-17139134D01*
X7969289Y-17139134D02*
X7969289Y-17062943D01*
X7969289Y-17062943D02*
X7959765Y-17043895D01*
X7959765Y-17043895D02*
X7950241Y-17034372D01*
X7950241Y-17034372D02*
X7931194Y-17024848D01*
X7931194Y-17024848D02*
X7893099Y-17024848D01*
X7893099Y-17024848D02*
X7874051Y-17034372D01*
X7874051Y-17034372D02*
X7864527Y-17043895D01*
X7864527Y-17043895D02*
X7855003Y-17062943D01*
X7855003Y-17062943D02*
X7855003Y-17110562D01*
X7855003Y-17110562D02*
X7864527Y-17129610D01*
X7864527Y-17129610D02*
X7874051Y-17139134D01*
X7874051Y-17139134D02*
X7893099Y-17148657D01*
X7893099Y-17148657D02*
X7931194Y-17148657D01*
X7931194Y-17148657D02*
X7950241Y-17139134D01*
X7950241Y-17139134D02*
X7959765Y-17129610D01*
X7959765Y-17129610D02*
X7969289Y-17110562D01*
X8150241Y-17024848D02*
X8055003Y-17024848D01*
X8055003Y-17024848D02*
X8045480Y-17120086D01*
X8045480Y-17120086D02*
X8055003Y-17110562D01*
X8055003Y-17110562D02*
X8074051Y-17101038D01*
X8074051Y-17101038D02*
X8121670Y-17101038D01*
X8121670Y-17101038D02*
X8140718Y-17110562D01*
X8140718Y-17110562D02*
X8150241Y-17120086D01*
X8150241Y-17120086D02*
X8159765Y-17139134D01*
X8159765Y-17139134D02*
X8159765Y-17186753D01*
X8159765Y-17186753D02*
X8150241Y-17205800D01*
X8150241Y-17205800D02*
X8140718Y-17215324D01*
X8140718Y-17215324D02*
X8121670Y-17224848D01*
X8121670Y-17224848D02*
X8074051Y-17224848D01*
X8074051Y-17224848D02*
X8055003Y-17215324D01*
X8055003Y-17215324D02*
X8045480Y-17205800D01*
X8283575Y-17024848D02*
X8302622Y-17024848D01*
X8302622Y-17024848D02*
X8321670Y-17034372D01*
X8321670Y-17034372D02*
X8331194Y-17043895D01*
X8331194Y-17043895D02*
X8340718Y-17062943D01*
X8340718Y-17062943D02*
X8350241Y-17101038D01*
X8350241Y-17101038D02*
X8350241Y-17148657D01*
X8350241Y-17148657D02*
X8340718Y-17186753D01*
X8340718Y-17186753D02*
X8331194Y-17205800D01*
X8331194Y-17205800D02*
X8321670Y-17215324D01*
X8321670Y-17215324D02*
X8302622Y-17224848D01*
X8302622Y-17224848D02*
X8283575Y-17224848D01*
X8283575Y-17224848D02*
X8264527Y-17215324D01*
X8264527Y-17215324D02*
X8255003Y-17205800D01*
X8255003Y-17205800D02*
X8245480Y-17186753D01*
X8245480Y-17186753D02*
X8235956Y-17148657D01*
X8235956Y-17148657D02*
X8235956Y-17101038D01*
X8235956Y-17101038D02*
X8245480Y-17062943D01*
X8245480Y-17062943D02*
X8255003Y-17043895D01*
X8255003Y-17043895D02*
X8264527Y-17034372D01*
X8264527Y-17034372D02*
X8283575Y-17024848D01*
X8435956Y-17224848D02*
X8435956Y-17091514D01*
X8435956Y-17110562D02*
X8445480Y-17101038D01*
X8445480Y-17101038D02*
X8464527Y-17091514D01*
X8464527Y-17091514D02*
X8493099Y-17091514D01*
X8493099Y-17091514D02*
X8512146Y-17101038D01*
X8512146Y-17101038D02*
X8521670Y-17120086D01*
X8521670Y-17120086D02*
X8521670Y-17224848D01*
X8521670Y-17120086D02*
X8531194Y-17101038D01*
X8531194Y-17101038D02*
X8550242Y-17091514D01*
X8550242Y-17091514D02*
X8578813Y-17091514D01*
X8578813Y-17091514D02*
X8597861Y-17101038D01*
X8597861Y-17101038D02*
X8607384Y-17120086D01*
X8607384Y-17120086D02*
X8607384Y-17224848D01*
X8702623Y-17224848D02*
X8702623Y-17091514D01*
X8702623Y-17110562D02*
X8712146Y-17101038D01*
X8712146Y-17101038D02*
X8731194Y-17091514D01*
X8731194Y-17091514D02*
X8759765Y-17091514D01*
X8759765Y-17091514D02*
X8778813Y-17101038D01*
X8778813Y-17101038D02*
X8788337Y-17120086D01*
X8788337Y-17120086D02*
X8788337Y-17224848D01*
X8788337Y-17120086D02*
X8797861Y-17101038D01*
X8797861Y-17101038D02*
X8816908Y-17091514D01*
X8816908Y-17091514D02*
X8845480Y-17091514D01*
X8845480Y-17091514D02*
X8864527Y-17101038D01*
X8864527Y-17101038D02*
X8874051Y-17120086D01*
X8874051Y-17120086D02*
X8874051Y-17224848D01*
X9264527Y-17015324D02*
X9093099Y-17272467D01*
X9521670Y-17024848D02*
X9540718Y-17024848D01*
X9540718Y-17024848D02*
X9559766Y-17034372D01*
X9559766Y-17034372D02*
X9569289Y-17043895D01*
X9569289Y-17043895D02*
X9578813Y-17062943D01*
X9578813Y-17062943D02*
X9588337Y-17101038D01*
X9588337Y-17101038D02*
X9588337Y-17148657D01*
X9588337Y-17148657D02*
X9578813Y-17186753D01*
X9578813Y-17186753D02*
X9569289Y-17205800D01*
X9569289Y-17205800D02*
X9559766Y-17215324D01*
X9559766Y-17215324D02*
X9540718Y-17224848D01*
X9540718Y-17224848D02*
X9521670Y-17224848D01*
X9521670Y-17224848D02*
X9502623Y-17215324D01*
X9502623Y-17215324D02*
X9493099Y-17205800D01*
X9493099Y-17205800D02*
X9483575Y-17186753D01*
X9483575Y-17186753D02*
X9474051Y-17148657D01*
X9474051Y-17148657D02*
X9474051Y-17101038D01*
X9474051Y-17101038D02*
X9483575Y-17062943D01*
X9483575Y-17062943D02*
X9493099Y-17043895D01*
X9493099Y-17043895D02*
X9502623Y-17034372D01*
X9502623Y-17034372D02*
X9521670Y-17024848D01*
X9674051Y-17205800D02*
X9683575Y-17215324D01*
X9683575Y-17215324D02*
X9674051Y-17224848D01*
X9674051Y-17224848D02*
X9664527Y-17215324D01*
X9664527Y-17215324D02*
X9674051Y-17205800D01*
X9674051Y-17205800D02*
X9674051Y-17224848D01*
X9807385Y-17024848D02*
X9826432Y-17024848D01*
X9826432Y-17024848D02*
X9845480Y-17034372D01*
X9845480Y-17034372D02*
X9855004Y-17043895D01*
X9855004Y-17043895D02*
X9864527Y-17062943D01*
X9864527Y-17062943D02*
X9874051Y-17101038D01*
X9874051Y-17101038D02*
X9874051Y-17148657D01*
X9874051Y-17148657D02*
X9864527Y-17186753D01*
X9864527Y-17186753D02*
X9855004Y-17205800D01*
X9855004Y-17205800D02*
X9845480Y-17215324D01*
X9845480Y-17215324D02*
X9826432Y-17224848D01*
X9826432Y-17224848D02*
X9807385Y-17224848D01*
X9807385Y-17224848D02*
X9788337Y-17215324D01*
X9788337Y-17215324D02*
X9778813Y-17205800D01*
X9778813Y-17205800D02*
X9769289Y-17186753D01*
X9769289Y-17186753D02*
X9759766Y-17148657D01*
X9759766Y-17148657D02*
X9759766Y-17101038D01*
X9759766Y-17101038D02*
X9769289Y-17062943D01*
X9769289Y-17062943D02*
X9778813Y-17043895D01*
X9778813Y-17043895D02*
X9788337Y-17034372D01*
X9788337Y-17034372D02*
X9807385Y-17024848D01*
X9940718Y-17024848D02*
X10064527Y-17024848D01*
X10064527Y-17024848D02*
X9997861Y-17101038D01*
X9997861Y-17101038D02*
X10026432Y-17101038D01*
X10026432Y-17101038D02*
X10045480Y-17110562D01*
X10045480Y-17110562D02*
X10055004Y-17120086D01*
X10055004Y-17120086D02*
X10064527Y-17139134D01*
X10064527Y-17139134D02*
X10064527Y-17186753D01*
X10064527Y-17186753D02*
X10055004Y-17205800D01*
X10055004Y-17205800D02*
X10045480Y-17215324D01*
X10045480Y-17215324D02*
X10026432Y-17224848D01*
X10026432Y-17224848D02*
X9969289Y-17224848D01*
X9969289Y-17224848D02*
X9950242Y-17215324D01*
X9950242Y-17215324D02*
X9940718Y-17205800D01*
X10131194Y-17024848D02*
X10264527Y-17024848D01*
X10264527Y-17024848D02*
X10178813Y-17224848D01*
X10426432Y-17091514D02*
X10426432Y-17224848D01*
X10378813Y-17015324D02*
X10331194Y-17158181D01*
X10331194Y-17158181D02*
X10455004Y-17158181D01*
X10521670Y-17024848D02*
X10521670Y-17062943D01*
X10597861Y-17024848D02*
X10597861Y-17062943D01*
X10893099Y-17301038D02*
X10883575Y-17291514D01*
X10883575Y-17291514D02*
X10864528Y-17262943D01*
X10864528Y-17262943D02*
X10855004Y-17243895D01*
X10855004Y-17243895D02*
X10845480Y-17215324D01*
X10845480Y-17215324D02*
X10835956Y-17167705D01*
X10835956Y-17167705D02*
X10835956Y-17129610D01*
X10835956Y-17129610D02*
X10845480Y-17081991D01*
X10845480Y-17081991D02*
X10855004Y-17053419D01*
X10855004Y-17053419D02*
X10864528Y-17034372D01*
X10864528Y-17034372D02*
X10883575Y-17005800D01*
X10883575Y-17005800D02*
X10893099Y-16996276D01*
X11055004Y-17091514D02*
X11055004Y-17224848D01*
X11007385Y-17015324D02*
X10959766Y-17158181D01*
X10959766Y-17158181D02*
X11083575Y-17158181D01*
X11312147Y-17224848D02*
X11312147Y-17024848D01*
X11397861Y-17224848D02*
X11397861Y-17120086D01*
X11397861Y-17120086D02*
X11388337Y-17101038D01*
X11388337Y-17101038D02*
X11369289Y-17091514D01*
X11369289Y-17091514D02*
X11340718Y-17091514D01*
X11340718Y-17091514D02*
X11321670Y-17101038D01*
X11321670Y-17101038D02*
X11312147Y-17110562D01*
X11521670Y-17224848D02*
X11502623Y-17215324D01*
X11502623Y-17215324D02*
X11493099Y-17205800D01*
X11493099Y-17205800D02*
X11483575Y-17186753D01*
X11483575Y-17186753D02*
X11483575Y-17129610D01*
X11483575Y-17129610D02*
X11493099Y-17110562D01*
X11493099Y-17110562D02*
X11502623Y-17101038D01*
X11502623Y-17101038D02*
X11521670Y-17091514D01*
X11521670Y-17091514D02*
X11550242Y-17091514D01*
X11550242Y-17091514D02*
X11569289Y-17101038D01*
X11569289Y-17101038D02*
X11578813Y-17110562D01*
X11578813Y-17110562D02*
X11588337Y-17129610D01*
X11588337Y-17129610D02*
X11588337Y-17186753D01*
X11588337Y-17186753D02*
X11578813Y-17205800D01*
X11578813Y-17205800D02*
X11569289Y-17215324D01*
X11569289Y-17215324D02*
X11550242Y-17224848D01*
X11550242Y-17224848D02*
X11521670Y-17224848D01*
X11702623Y-17224848D02*
X11683575Y-17215324D01*
X11683575Y-17215324D02*
X11674051Y-17196276D01*
X11674051Y-17196276D02*
X11674051Y-17024848D01*
X11855004Y-17215324D02*
X11835956Y-17224848D01*
X11835956Y-17224848D02*
X11797861Y-17224848D01*
X11797861Y-17224848D02*
X11778813Y-17215324D01*
X11778813Y-17215324D02*
X11769289Y-17196276D01*
X11769289Y-17196276D02*
X11769289Y-17120086D01*
X11769289Y-17120086D02*
X11778813Y-17101038D01*
X11778813Y-17101038D02*
X11797861Y-17091514D01*
X11797861Y-17091514D02*
X11835956Y-17091514D01*
X11835956Y-17091514D02*
X11855004Y-17101038D01*
X11855004Y-17101038D02*
X11864528Y-17120086D01*
X11864528Y-17120086D02*
X11864528Y-17139134D01*
X11864528Y-17139134D02*
X11769289Y-17158181D01*
X11940718Y-17215324D02*
X11959766Y-17224848D01*
X11959766Y-17224848D02*
X11997861Y-17224848D01*
X11997861Y-17224848D02*
X12016909Y-17215324D01*
X12016909Y-17215324D02*
X12026432Y-17196276D01*
X12026432Y-17196276D02*
X12026432Y-17186753D01*
X12026432Y-17186753D02*
X12016909Y-17167705D01*
X12016909Y-17167705D02*
X11997861Y-17158181D01*
X11997861Y-17158181D02*
X11969289Y-17158181D01*
X11969289Y-17158181D02*
X11950242Y-17148657D01*
X11950242Y-17148657D02*
X11940718Y-17129610D01*
X11940718Y-17129610D02*
X11940718Y-17120086D01*
X11940718Y-17120086D02*
X11950242Y-17101038D01*
X11950242Y-17101038D02*
X11969289Y-17091514D01*
X11969289Y-17091514D02*
X11997861Y-17091514D01*
X11997861Y-17091514D02*
X12016909Y-17101038D01*
X12093099Y-17301038D02*
X12102623Y-17291514D01*
X12102623Y-17291514D02*
X12121670Y-17262943D01*
X12121670Y-17262943D02*
X12131194Y-17243895D01*
X12131194Y-17243895D02*
X12140718Y-17215324D01*
X12140718Y-17215324D02*
X12150242Y-17167705D01*
X12150242Y-17167705D02*
X12150242Y-17129610D01*
X12150242Y-17129610D02*
X12140718Y-17081991D01*
X12140718Y-17081991D02*
X12131194Y-17053419D01*
X12131194Y-17053419D02*
X12121670Y-17034372D01*
X12121670Y-17034372D02*
X12102623Y-17005800D01*
X12102623Y-17005800D02*
X12093099Y-16996276D01*
D11*
X7303392Y-17432720D02*
X7303392Y-17362008D01*
X7232680Y-17362008D01*
X7232680Y-17432720D01*
X7303392Y-17432720D01*
D10*
X7683575Y-17488848D02*
X7569289Y-17488848D01*
X7626432Y-17488848D02*
X7626432Y-17288848D01*
X7626432Y-17288848D02*
X7607384Y-17317419D01*
X7607384Y-17317419D02*
X7588337Y-17336467D01*
X7588337Y-17336467D02*
X7569289Y-17345991D01*
X7769289Y-17469800D02*
X7778813Y-17479324D01*
X7778813Y-17479324D02*
X7769289Y-17488848D01*
X7769289Y-17488848D02*
X7759765Y-17479324D01*
X7759765Y-17479324D02*
X7769289Y-17469800D01*
X7769289Y-17469800D02*
X7769289Y-17488848D01*
X7902622Y-17288848D02*
X7921670Y-17288848D01*
X7921670Y-17288848D02*
X7940718Y-17298372D01*
X7940718Y-17298372D02*
X7950241Y-17307895D01*
X7950241Y-17307895D02*
X7959765Y-17326943D01*
X7959765Y-17326943D02*
X7969289Y-17365038D01*
X7969289Y-17365038D02*
X7969289Y-17412657D01*
X7969289Y-17412657D02*
X7959765Y-17450753D01*
X7959765Y-17450753D02*
X7950241Y-17469800D01*
X7950241Y-17469800D02*
X7940718Y-17479324D01*
X7940718Y-17479324D02*
X7921670Y-17488848D01*
X7921670Y-17488848D02*
X7902622Y-17488848D01*
X7902622Y-17488848D02*
X7883575Y-17479324D01*
X7883575Y-17479324D02*
X7874051Y-17469800D01*
X7874051Y-17469800D02*
X7864527Y-17450753D01*
X7864527Y-17450753D02*
X7855003Y-17412657D01*
X7855003Y-17412657D02*
X7855003Y-17365038D01*
X7855003Y-17365038D02*
X7864527Y-17326943D01*
X7864527Y-17326943D02*
X7874051Y-17307895D01*
X7874051Y-17307895D02*
X7883575Y-17298372D01*
X7883575Y-17298372D02*
X7902622Y-17288848D01*
X8093099Y-17288848D02*
X8112146Y-17288848D01*
X8112146Y-17288848D02*
X8131194Y-17298372D01*
X8131194Y-17298372D02*
X8140718Y-17307895D01*
X8140718Y-17307895D02*
X8150241Y-17326943D01*
X8150241Y-17326943D02*
X8159765Y-17365038D01*
X8159765Y-17365038D02*
X8159765Y-17412657D01*
X8159765Y-17412657D02*
X8150241Y-17450753D01*
X8150241Y-17450753D02*
X8140718Y-17469800D01*
X8140718Y-17469800D02*
X8131194Y-17479324D01*
X8131194Y-17479324D02*
X8112146Y-17488848D01*
X8112146Y-17488848D02*
X8093099Y-17488848D01*
X8093099Y-17488848D02*
X8074051Y-17479324D01*
X8074051Y-17479324D02*
X8064527Y-17469800D01*
X8064527Y-17469800D02*
X8055003Y-17450753D01*
X8055003Y-17450753D02*
X8045480Y-17412657D01*
X8045480Y-17412657D02*
X8045480Y-17365038D01*
X8045480Y-17365038D02*
X8055003Y-17326943D01*
X8055003Y-17326943D02*
X8064527Y-17307895D01*
X8064527Y-17307895D02*
X8074051Y-17298372D01*
X8074051Y-17298372D02*
X8093099Y-17288848D01*
X8283575Y-17288848D02*
X8302622Y-17288848D01*
X8302622Y-17288848D02*
X8321670Y-17298372D01*
X8321670Y-17298372D02*
X8331194Y-17307895D01*
X8331194Y-17307895D02*
X8340718Y-17326943D01*
X8340718Y-17326943D02*
X8350241Y-17365038D01*
X8350241Y-17365038D02*
X8350241Y-17412657D01*
X8350241Y-17412657D02*
X8340718Y-17450753D01*
X8340718Y-17450753D02*
X8331194Y-17469800D01*
X8331194Y-17469800D02*
X8321670Y-17479324D01*
X8321670Y-17479324D02*
X8302622Y-17488848D01*
X8302622Y-17488848D02*
X8283575Y-17488848D01*
X8283575Y-17488848D02*
X8264527Y-17479324D01*
X8264527Y-17479324D02*
X8255003Y-17469800D01*
X8255003Y-17469800D02*
X8245480Y-17450753D01*
X8245480Y-17450753D02*
X8235956Y-17412657D01*
X8235956Y-17412657D02*
X8235956Y-17365038D01*
X8235956Y-17365038D02*
X8245480Y-17326943D01*
X8245480Y-17326943D02*
X8255003Y-17307895D01*
X8255003Y-17307895D02*
X8264527Y-17298372D01*
X8264527Y-17298372D02*
X8283575Y-17288848D01*
X8435956Y-17488848D02*
X8435956Y-17355514D01*
X8435956Y-17374562D02*
X8445480Y-17365038D01*
X8445480Y-17365038D02*
X8464527Y-17355514D01*
X8464527Y-17355514D02*
X8493099Y-17355514D01*
X8493099Y-17355514D02*
X8512146Y-17365038D01*
X8512146Y-17365038D02*
X8521670Y-17384086D01*
X8521670Y-17384086D02*
X8521670Y-17488848D01*
X8521670Y-17384086D02*
X8531194Y-17365038D01*
X8531194Y-17365038D02*
X8550242Y-17355514D01*
X8550242Y-17355514D02*
X8578813Y-17355514D01*
X8578813Y-17355514D02*
X8597861Y-17365038D01*
X8597861Y-17365038D02*
X8607384Y-17384086D01*
X8607384Y-17384086D02*
X8607384Y-17488848D01*
X8702623Y-17488848D02*
X8702623Y-17355514D01*
X8702623Y-17374562D02*
X8712146Y-17365038D01*
X8712146Y-17365038D02*
X8731194Y-17355514D01*
X8731194Y-17355514D02*
X8759765Y-17355514D01*
X8759765Y-17355514D02*
X8778813Y-17365038D01*
X8778813Y-17365038D02*
X8788337Y-17384086D01*
X8788337Y-17384086D02*
X8788337Y-17488848D01*
X8788337Y-17384086D02*
X8797861Y-17365038D01*
X8797861Y-17365038D02*
X8816908Y-17355514D01*
X8816908Y-17355514D02*
X8845480Y-17355514D01*
X8845480Y-17355514D02*
X8864527Y-17365038D01*
X8864527Y-17365038D02*
X8874051Y-17384086D01*
X8874051Y-17384086D02*
X8874051Y-17488848D01*
X9264527Y-17279324D02*
X9093099Y-17536467D01*
X9521670Y-17288848D02*
X9540718Y-17288848D01*
X9540718Y-17288848D02*
X9559766Y-17298372D01*
X9559766Y-17298372D02*
X9569289Y-17307895D01*
X9569289Y-17307895D02*
X9578813Y-17326943D01*
X9578813Y-17326943D02*
X9588337Y-17365038D01*
X9588337Y-17365038D02*
X9588337Y-17412657D01*
X9588337Y-17412657D02*
X9578813Y-17450753D01*
X9578813Y-17450753D02*
X9569289Y-17469800D01*
X9569289Y-17469800D02*
X9559766Y-17479324D01*
X9559766Y-17479324D02*
X9540718Y-17488848D01*
X9540718Y-17488848D02*
X9521670Y-17488848D01*
X9521670Y-17488848D02*
X9502623Y-17479324D01*
X9502623Y-17479324D02*
X9493099Y-17469800D01*
X9493099Y-17469800D02*
X9483575Y-17450753D01*
X9483575Y-17450753D02*
X9474051Y-17412657D01*
X9474051Y-17412657D02*
X9474051Y-17365038D01*
X9474051Y-17365038D02*
X9483575Y-17326943D01*
X9483575Y-17326943D02*
X9493099Y-17307895D01*
X9493099Y-17307895D02*
X9502623Y-17298372D01*
X9502623Y-17298372D02*
X9521670Y-17288848D01*
X9674051Y-17469800D02*
X9683575Y-17479324D01*
X9683575Y-17479324D02*
X9674051Y-17488848D01*
X9674051Y-17488848D02*
X9664527Y-17479324D01*
X9664527Y-17479324D02*
X9674051Y-17469800D01*
X9674051Y-17469800D02*
X9674051Y-17488848D01*
X9807385Y-17288848D02*
X9826432Y-17288848D01*
X9826432Y-17288848D02*
X9845480Y-17298372D01*
X9845480Y-17298372D02*
X9855004Y-17307895D01*
X9855004Y-17307895D02*
X9864527Y-17326943D01*
X9864527Y-17326943D02*
X9874051Y-17365038D01*
X9874051Y-17365038D02*
X9874051Y-17412657D01*
X9874051Y-17412657D02*
X9864527Y-17450753D01*
X9864527Y-17450753D02*
X9855004Y-17469800D01*
X9855004Y-17469800D02*
X9845480Y-17479324D01*
X9845480Y-17479324D02*
X9826432Y-17488848D01*
X9826432Y-17488848D02*
X9807385Y-17488848D01*
X9807385Y-17488848D02*
X9788337Y-17479324D01*
X9788337Y-17479324D02*
X9778813Y-17469800D01*
X9778813Y-17469800D02*
X9769289Y-17450753D01*
X9769289Y-17450753D02*
X9759766Y-17412657D01*
X9759766Y-17412657D02*
X9759766Y-17365038D01*
X9759766Y-17365038D02*
X9769289Y-17326943D01*
X9769289Y-17326943D02*
X9778813Y-17307895D01*
X9778813Y-17307895D02*
X9788337Y-17298372D01*
X9788337Y-17298372D02*
X9807385Y-17288848D01*
X9940718Y-17288848D02*
X10064527Y-17288848D01*
X10064527Y-17288848D02*
X9997861Y-17365038D01*
X9997861Y-17365038D02*
X10026432Y-17365038D01*
X10026432Y-17365038D02*
X10045480Y-17374562D01*
X10045480Y-17374562D02*
X10055004Y-17384086D01*
X10055004Y-17384086D02*
X10064527Y-17403134D01*
X10064527Y-17403134D02*
X10064527Y-17450753D01*
X10064527Y-17450753D02*
X10055004Y-17469800D01*
X10055004Y-17469800D02*
X10045480Y-17479324D01*
X10045480Y-17479324D02*
X10026432Y-17488848D01*
X10026432Y-17488848D02*
X9969289Y-17488848D01*
X9969289Y-17488848D02*
X9950242Y-17479324D01*
X9950242Y-17479324D02*
X9940718Y-17469800D01*
X10159766Y-17488848D02*
X10197861Y-17488848D01*
X10197861Y-17488848D02*
X10216908Y-17479324D01*
X10216908Y-17479324D02*
X10226432Y-17469800D01*
X10226432Y-17469800D02*
X10245480Y-17441229D01*
X10245480Y-17441229D02*
X10255004Y-17403134D01*
X10255004Y-17403134D02*
X10255004Y-17326943D01*
X10255004Y-17326943D02*
X10245480Y-17307895D01*
X10245480Y-17307895D02*
X10235956Y-17298372D01*
X10235956Y-17298372D02*
X10216908Y-17288848D01*
X10216908Y-17288848D02*
X10178813Y-17288848D01*
X10178813Y-17288848D02*
X10159766Y-17298372D01*
X10159766Y-17298372D02*
X10150242Y-17307895D01*
X10150242Y-17307895D02*
X10140718Y-17326943D01*
X10140718Y-17326943D02*
X10140718Y-17374562D01*
X10140718Y-17374562D02*
X10150242Y-17393610D01*
X10150242Y-17393610D02*
X10159766Y-17403134D01*
X10159766Y-17403134D02*
X10178813Y-17412657D01*
X10178813Y-17412657D02*
X10216908Y-17412657D01*
X10216908Y-17412657D02*
X10235956Y-17403134D01*
X10235956Y-17403134D02*
X10245480Y-17393610D01*
X10245480Y-17393610D02*
X10255004Y-17374562D01*
X10426432Y-17355514D02*
X10426432Y-17488848D01*
X10378813Y-17279324D02*
X10331194Y-17422181D01*
X10331194Y-17422181D02*
X10455004Y-17422181D01*
X10521670Y-17288848D02*
X10521670Y-17326943D01*
X10597861Y-17288848D02*
X10597861Y-17326943D01*
X10893099Y-17565038D02*
X10883575Y-17555514D01*
X10883575Y-17555514D02*
X10864528Y-17526943D01*
X10864528Y-17526943D02*
X10855004Y-17507895D01*
X10855004Y-17507895D02*
X10845480Y-17479324D01*
X10845480Y-17479324D02*
X10835956Y-17431705D01*
X10835956Y-17431705D02*
X10835956Y-17393610D01*
X10835956Y-17393610D02*
X10845480Y-17345991D01*
X10845480Y-17345991D02*
X10855004Y-17317419D01*
X10855004Y-17317419D02*
X10864528Y-17298372D01*
X10864528Y-17298372D02*
X10883575Y-17269800D01*
X10883575Y-17269800D02*
X10893099Y-17260276D01*
X10959766Y-17307895D02*
X10969289Y-17298372D01*
X10969289Y-17298372D02*
X10988337Y-17288848D01*
X10988337Y-17288848D02*
X11035956Y-17288848D01*
X11035956Y-17288848D02*
X11055004Y-17298372D01*
X11055004Y-17298372D02*
X11064528Y-17307895D01*
X11064528Y-17307895D02*
X11074051Y-17326943D01*
X11074051Y-17326943D02*
X11074051Y-17345991D01*
X11074051Y-17345991D02*
X11064528Y-17374562D01*
X11064528Y-17374562D02*
X10950242Y-17488848D01*
X10950242Y-17488848D02*
X11074051Y-17488848D01*
X11255004Y-17288848D02*
X11159766Y-17288848D01*
X11159766Y-17288848D02*
X11150242Y-17384086D01*
X11150242Y-17384086D02*
X11159766Y-17374562D01*
X11159766Y-17374562D02*
X11178813Y-17365038D01*
X11178813Y-17365038D02*
X11226432Y-17365038D01*
X11226432Y-17365038D02*
X11245480Y-17374562D01*
X11245480Y-17374562D02*
X11255004Y-17384086D01*
X11255004Y-17384086D02*
X11264527Y-17403134D01*
X11264527Y-17403134D02*
X11264527Y-17450753D01*
X11264527Y-17450753D02*
X11255004Y-17469800D01*
X11255004Y-17469800D02*
X11245480Y-17479324D01*
X11245480Y-17479324D02*
X11226432Y-17488848D01*
X11226432Y-17488848D02*
X11178813Y-17488848D01*
X11178813Y-17488848D02*
X11159766Y-17479324D01*
X11159766Y-17479324D02*
X11150242Y-17469800D01*
X11502623Y-17488848D02*
X11502623Y-17288848D01*
X11588337Y-17488848D02*
X11588337Y-17384086D01*
X11588337Y-17384086D02*
X11578813Y-17365038D01*
X11578813Y-17365038D02*
X11559766Y-17355514D01*
X11559766Y-17355514D02*
X11531194Y-17355514D01*
X11531194Y-17355514D02*
X11512147Y-17365038D01*
X11512147Y-17365038D02*
X11502623Y-17374562D01*
X11712147Y-17488848D02*
X11693099Y-17479324D01*
X11693099Y-17479324D02*
X11683575Y-17469800D01*
X11683575Y-17469800D02*
X11674051Y-17450753D01*
X11674051Y-17450753D02*
X11674051Y-17393610D01*
X11674051Y-17393610D02*
X11683575Y-17374562D01*
X11683575Y-17374562D02*
X11693099Y-17365038D01*
X11693099Y-17365038D02*
X11712147Y-17355514D01*
X11712147Y-17355514D02*
X11740718Y-17355514D01*
X11740718Y-17355514D02*
X11759766Y-17365038D01*
X11759766Y-17365038D02*
X11769289Y-17374562D01*
X11769289Y-17374562D02*
X11778813Y-17393610D01*
X11778813Y-17393610D02*
X11778813Y-17450753D01*
X11778813Y-17450753D02*
X11769289Y-17469800D01*
X11769289Y-17469800D02*
X11759766Y-17479324D01*
X11759766Y-17479324D02*
X11740718Y-17488848D01*
X11740718Y-17488848D02*
X11712147Y-17488848D01*
X11893099Y-17488848D02*
X11874051Y-17479324D01*
X11874051Y-17479324D02*
X11864528Y-17460276D01*
X11864528Y-17460276D02*
X11864528Y-17288848D01*
X12045480Y-17479324D02*
X12026432Y-17488848D01*
X12026432Y-17488848D02*
X11988337Y-17488848D01*
X11988337Y-17488848D02*
X11969289Y-17479324D01*
X11969289Y-17479324D02*
X11959766Y-17460276D01*
X11959766Y-17460276D02*
X11959766Y-17384086D01*
X11959766Y-17384086D02*
X11969289Y-17365038D01*
X11969289Y-17365038D02*
X11988337Y-17355514D01*
X11988337Y-17355514D02*
X12026432Y-17355514D01*
X12026432Y-17355514D02*
X12045480Y-17365038D01*
X12045480Y-17365038D02*
X12055004Y-17384086D01*
X12055004Y-17384086D02*
X12055004Y-17403134D01*
X12055004Y-17403134D02*
X11959766Y-17422181D01*
X12131194Y-17479324D02*
X12150242Y-17488848D01*
X12150242Y-17488848D02*
X12188337Y-17488848D01*
X12188337Y-17488848D02*
X12207385Y-17479324D01*
X12207385Y-17479324D02*
X12216909Y-17460276D01*
X12216909Y-17460276D02*
X12216909Y-17450753D01*
X12216909Y-17450753D02*
X12207385Y-17431705D01*
X12207385Y-17431705D02*
X12188337Y-17422181D01*
X12188337Y-17422181D02*
X12159766Y-17422181D01*
X12159766Y-17422181D02*
X12140718Y-17412657D01*
X12140718Y-17412657D02*
X12131194Y-17393610D01*
X12131194Y-17393610D02*
X12131194Y-17384086D01*
X12131194Y-17384086D02*
X12140718Y-17365038D01*
X12140718Y-17365038D02*
X12159766Y-17355514D01*
X12159766Y-17355514D02*
X12188337Y-17355514D01*
X12188337Y-17355514D02*
X12207385Y-17365038D01*
X12283575Y-17565038D02*
X12293099Y-17555514D01*
X12293099Y-17555514D02*
X12312147Y-17526943D01*
X12312147Y-17526943D02*
X12321670Y-17507895D01*
X12321670Y-17507895D02*
X12331194Y-17479324D01*
X12331194Y-17479324D02*
X12340718Y-17431705D01*
X12340718Y-17431705D02*
X12340718Y-17393610D01*
X12340718Y-17393610D02*
X12331194Y-17345991D01*
X12331194Y-17345991D02*
X12321670Y-17317419D01*
X12321670Y-17317419D02*
X12312147Y-17298372D01*
X12312147Y-17298372D02*
X12293099Y-17269800D01*
X12293099Y-17269800D02*
X12283575Y-17260276D01*
M02*
