%TF.GenerationSoftware,KiCad,Pcbnew,7.0.11*%
%TF.CreationDate,2025-01-20T01:48:30+09:00*%
%TF.ProjectId,Line,4c696e65-2e6b-4696-9361-645f70636258,rev?*%
%TF.SameCoordinates,Original*%
%TF.FileFunction,Soldermask,Top*%
%TF.FilePolarity,Negative*%
%FSLAX46Y46*%
G04 Gerber Fmt 4.6, Leading zero omitted, Abs format (unit mm)*
G04 Created by KiCad (PCBNEW 7.0.11) date 2025-01-20 01:48:30*
%MOMM*%
%LPD*%
G01*
G04 APERTURE LIST*
G04 Aperture macros list*
%AMRoundRect*
0 Rectangle with rounded corners*
0 $1 Rounding radius*
0 $2 $3 $4 $5 $6 $7 $8 $9 X,Y pos of 4 corners*
0 Add a 4 corners polygon primitive as box body*
4,1,4,$2,$3,$4,$5,$6,$7,$8,$9,$2,$3,0*
0 Add four circle primitives for the rounded corners*
1,1,$1+$1,$2,$3*
1,1,$1+$1,$4,$5*
1,1,$1+$1,$6,$7*
1,1,$1+$1,$8,$9*
0 Add four rect primitives between the rounded corners*
20,1,$1+$1,$2,$3,$4,$5,0*
20,1,$1+$1,$4,$5,$6,$7,0*
20,1,$1+$1,$6,$7,$8,$9,0*
20,1,$1+$1,$8,$9,$2,$3,0*%
G04 Aperture macros list end*
%ADD10RoundRect,0.135000X-0.185000X0.135000X-0.185000X-0.135000X0.185000X-0.135000X0.185000X0.135000X0*%
%ADD11R,1.150000X1.000000*%
%ADD12RoundRect,0.135000X0.185000X-0.135000X0.185000X0.135000X-0.185000X0.135000X-0.185000X-0.135000X0*%
%ADD13C,0.650000*%
%ADD14RoundRect,0.150000X0.150000X0.425000X-0.150000X0.425000X-0.150000X-0.425000X0.150000X-0.425000X0*%
%ADD15RoundRect,0.075000X0.075000X0.500000X-0.075000X0.500000X-0.075000X-0.500000X0.075000X-0.500000X0*%
%ADD16O,1.000000X2.100000*%
%ADD17O,1.000000X1.800000*%
%ADD18RoundRect,0.150000X-0.150000X0.512500X-0.150000X-0.512500X0.150000X-0.512500X0.150000X0.512500X0*%
%ADD19RoundRect,0.050000X-0.387500X-0.050000X0.387500X-0.050000X0.387500X0.050000X-0.387500X0.050000X0*%
%ADD20RoundRect,0.050000X-0.050000X-0.387500X0.050000X-0.387500X0.050000X0.387500X-0.050000X0.387500X0*%
%ADD21R,3.200000X3.200000*%
%ADD22RoundRect,0.140000X0.140000X0.170000X-0.140000X0.170000X-0.140000X-0.170000X0.140000X-0.170000X0*%
%ADD23RoundRect,0.140000X0.170000X-0.140000X0.170000X0.140000X-0.170000X0.140000X-0.170000X-0.140000X0*%
%ADD24RoundRect,0.140000X-0.170000X0.140000X-0.170000X-0.140000X0.170000X-0.140000X0.170000X0.140000X0*%
%ADD25RoundRect,0.150000X-0.150000X0.650000X-0.150000X-0.650000X0.150000X-0.650000X0.150000X0.650000X0*%
%ADD26R,1.750000X0.450000*%
%ADD27R,1.700000X0.900000*%
%ADD28O,1.950000X1.700000*%
%ADD29RoundRect,0.250000X-0.350000X0.850000X-0.350000X-0.850000X0.350000X-0.850000X0.350000X0.850000X0*%
%ADD30RoundRect,0.249997X-2.650003X2.950003X-2.650003X-2.950003X2.650003X-2.950003X2.650003X2.950003X0*%
%ADD31RoundRect,0.250000X-1.100000X0.325000X-1.100000X-0.325000X1.100000X-0.325000X1.100000X0.325000X0*%
%ADD32RoundRect,0.135000X-0.135000X-0.185000X0.135000X-0.185000X0.135000X0.185000X-0.135000X0.185000X0*%
%ADD33RoundRect,0.140000X-0.140000X-0.170000X0.140000X-0.170000X0.140000X0.170000X-0.140000X0.170000X0*%
G04 APERTURE END LIST*
D10*
%TO.C,R31*%
X116230400Y-95750756D03*
X116230400Y-96770756D03*
%TD*%
D11*
%TO.C,Y1*%
X114895000Y-108530000D03*
X113145000Y-108530000D03*
X113145000Y-109930000D03*
X114895000Y-109930000D03*
%TD*%
D12*
%TO.C,R30*%
X103520000Y-97550000D03*
X103520000Y-96530000D03*
%TD*%
D13*
%TO.C,J2*%
X118363562Y-93265800D03*
X112583562Y-93265800D03*
D14*
X118673562Y-94340800D03*
X117873562Y-94340800D03*
D15*
X116723562Y-94340800D03*
X115723562Y-94340800D03*
X115223562Y-94340800D03*
X114223562Y-94340800D03*
D14*
X113073562Y-94340800D03*
X112273562Y-94340800D03*
X112273562Y-94340800D03*
X113073562Y-94340800D03*
D15*
X113723562Y-94340800D03*
X114723562Y-94340800D03*
X116223562Y-94340800D03*
X117223562Y-94340800D03*
D14*
X117873562Y-94340800D03*
X118673562Y-94340800D03*
D16*
X119793562Y-93765800D03*
D17*
X119793562Y-89585800D03*
D16*
X111153562Y-93765800D03*
D17*
X111153562Y-89585800D03*
%TD*%
D18*
%TO.C,U4*%
X121346000Y-96119100D03*
X119446000Y-96119100D03*
X120396000Y-98394100D03*
%TD*%
D19*
%TO.C,U6*%
X111368262Y-98856100D03*
X111368262Y-99256100D03*
X111368262Y-99656100D03*
X111368262Y-100056100D03*
X111368262Y-100456100D03*
X111368262Y-100856100D03*
X111368262Y-101256100D03*
X111368262Y-101656100D03*
X111368262Y-102056100D03*
X111368262Y-102456100D03*
X111368262Y-102856100D03*
X111368262Y-103256100D03*
X111368262Y-103656100D03*
X111368262Y-104056100D03*
D20*
X112205762Y-104893600D03*
X112605762Y-104893600D03*
X113005762Y-104893600D03*
X113405762Y-104893600D03*
X113805762Y-104893600D03*
X114205762Y-104893600D03*
X114605762Y-104893600D03*
X115005762Y-104893600D03*
X115405762Y-104893600D03*
X115805762Y-104893600D03*
X116205762Y-104893600D03*
X116605762Y-104893600D03*
X117005762Y-104893600D03*
X117405762Y-104893600D03*
D19*
X118243262Y-104056100D03*
X118243262Y-103656100D03*
X118243262Y-103256100D03*
X118243262Y-102856100D03*
X118243262Y-102456100D03*
X118243262Y-102056100D03*
X118243262Y-101656100D03*
X118243262Y-101256100D03*
X118243262Y-100856100D03*
X118243262Y-100456100D03*
X118243262Y-100056100D03*
X118243262Y-99656100D03*
X118243262Y-99256100D03*
X118243262Y-98856100D03*
D20*
X117405762Y-98018600D03*
X117005762Y-98018600D03*
X116605762Y-98018600D03*
X116205762Y-98018600D03*
X115805762Y-98018600D03*
X115405762Y-98018600D03*
X115005762Y-98018600D03*
X114605762Y-98018600D03*
X114205762Y-98018600D03*
X113805762Y-98018600D03*
X113405762Y-98018600D03*
X113005762Y-98018600D03*
X112605762Y-98018600D03*
X112205762Y-98018600D03*
D21*
X114805762Y-101456100D03*
%TD*%
D22*
%TO.C,C4*%
X114018000Y-106781600D03*
X113058000Y-106781600D03*
%TD*%
D23*
%TO.C,C5*%
X116535200Y-108480800D03*
X116535200Y-107520800D03*
%TD*%
D12*
%TO.C,R25*%
X115392198Y-96770755D03*
X115392198Y-95750755D03*
%TD*%
D24*
%TO.C,C13*%
X117068600Y-95786000D03*
X117068600Y-96746000D03*
%TD*%
D25*
%TO.C,U5*%
X109423200Y-87179600D03*
X108153200Y-87179600D03*
X106883200Y-87179600D03*
X105613200Y-87179600D03*
X105613200Y-94379600D03*
X106883200Y-94379600D03*
X108153200Y-94379600D03*
X109423200Y-94379600D03*
%TD*%
D26*
%TO.C,U2*%
X189643200Y-93503800D03*
X189643200Y-94153800D03*
X189643200Y-94803800D03*
X189643200Y-95453800D03*
X189643200Y-96103800D03*
X189643200Y-96753800D03*
X189643200Y-97403800D03*
X189643200Y-98053800D03*
X189643200Y-98703800D03*
X189643200Y-99353800D03*
X189643200Y-100003800D03*
X189643200Y-100653800D03*
X196843200Y-100653800D03*
X196843200Y-100003800D03*
X196843200Y-99353800D03*
X196843200Y-98703800D03*
X196843200Y-98053800D03*
X196843200Y-97403800D03*
X196843200Y-96753800D03*
X196843200Y-96103800D03*
X196843200Y-95453800D03*
X196843200Y-94803800D03*
X196843200Y-94153800D03*
X196843200Y-93503800D03*
%TD*%
D27*
%TO.C,SW2*%
X120573800Y-104900200D03*
X120573800Y-101500200D03*
%TD*%
D28*
%TO.C,J1*%
X120345200Y-114528600D03*
X120345200Y-112623600D03*
X120345200Y-110718600D03*
X120345200Y-108813600D03*
X120345200Y-106908600D03*
%TD*%
D27*
%TO.C,SW1*%
X104220000Y-98770000D03*
X104220000Y-102170000D03*
%TD*%
D26*
%TO.C,U3*%
X196843200Y-109696200D03*
X196843200Y-109046200D03*
X196843200Y-108396200D03*
X196843200Y-107746200D03*
X196843200Y-107096200D03*
X196843200Y-106446200D03*
X196843200Y-105796200D03*
X196843200Y-105146200D03*
X196843200Y-104496200D03*
X196843200Y-103846200D03*
X196843200Y-103196200D03*
X196843200Y-102546200D03*
X189643200Y-102546200D03*
X189643200Y-103196200D03*
X189643200Y-103846200D03*
X189643200Y-104496200D03*
X189643200Y-105146200D03*
X189643200Y-105796200D03*
X189643200Y-106446200D03*
X189643200Y-107096200D03*
X189643200Y-107746200D03*
X189643200Y-108396200D03*
X189643200Y-109046200D03*
X189643200Y-109696200D03*
%TD*%
D29*
%TO.C,U1*%
X105464300Y-106950400D03*
X110024300Y-106950400D03*
D30*
X107744300Y-113250400D03*
%TD*%
D10*
%TO.C,R26*%
X121361200Y-92403200D03*
X121361200Y-93423200D03*
%TD*%
D31*
%TO.C,C1*%
X113055400Y-111578600D03*
X113055400Y-114528600D03*
%TD*%
D32*
%TO.C,R32*%
X114780600Y-106756200D03*
X115800600Y-106756200D03*
%TD*%
D24*
%TO.C,C8*%
X117906800Y-95786000D03*
X117906800Y-96746000D03*
%TD*%
D22*
%TO.C,C7*%
X121358600Y-100457000D03*
X120398600Y-100457000D03*
%TD*%
%TO.C,C3*%
X121358600Y-99618800D03*
X120398600Y-99618800D03*
%TD*%
D12*
%TO.C,R27*%
X121361200Y-91467400D03*
X121361200Y-90447400D03*
%TD*%
D33*
%TO.C,C2*%
X107752000Y-106934000D03*
X108712000Y-106934000D03*
%TD*%
D23*
%TO.C,C10*%
X117373400Y-107795000D03*
X117373400Y-106835000D03*
%TD*%
%TO.C,C12*%
X118237000Y-107795000D03*
X118237000Y-106835000D03*
%TD*%
M02*
