%TF.GenerationSoftware,KiCad,Pcbnew,7.0.11*%
%TF.CreationDate,2025-01-20T01:48:30+09:00*%
%TF.ProjectId,Line,4c696e65-2e6b-4696-9361-645f70636258,rev?*%
%TF.SameCoordinates,Original*%
%TF.FileFunction,Paste,Bot*%
%TF.FilePolarity,Positive*%
%FSLAX46Y46*%
G04 Gerber Fmt 4.6, Leading zero omitted, Abs format (unit mm)*
G04 Created by KiCad (PCBNEW 7.0.11) date 2025-01-20 01:48:30*
%MOMM*%
%LPD*%
G01*
G04 APERTURE LIST*
G04 Aperture macros list*
%AMRoundRect*
0 Rectangle with rounded corners*
0 $1 Rounding radius*
0 $2 $3 $4 $5 $6 $7 $8 $9 X,Y pos of 4 corners*
0 Add a 4 corners polygon primitive as box body*
4,1,4,$2,$3,$4,$5,$6,$7,$8,$9,$2,$3,0*
0 Add four circle primitives for the rounded corners*
1,1,$1+$1,$2,$3*
1,1,$1+$1,$4,$5*
1,1,$1+$1,$6,$7*
1,1,$1+$1,$8,$9*
0 Add four rect primitives between the rounded corners*
20,1,$1+$1,$2,$3,$4,$5,0*
20,1,$1+$1,$4,$5,$6,$7,0*
20,1,$1+$1,$6,$7,$8,$9,0*
20,1,$1+$1,$8,$9,$2,$3,0*%
%AMRotRect*
0 Rectangle, with rotation*
0 The origin of the aperture is its center*
0 $1 length*
0 $2 width*
0 $3 Rotation angle, in degrees counterclockwise*
0 Add horizontal line*
21,1,$1,$2,0,0,$3*%
G04 Aperture macros list end*
%ADD10RotRect,0.700000X0.700000X7.734375*%
%ADD11RotRect,0.600000X1.150000X78.750000*%
%ADD12RotRect,0.650000X1.150000X78.750000*%
%ADD13RotRect,0.700000X0.700000X13.359375*%
%ADD14RotRect,0.700000X0.700000X58.359375*%
%ADD15RotRect,0.700000X0.700000X187.734375*%
%ADD16RotRect,0.600000X1.150000X281.250000*%
%ADD17RotRect,0.650000X1.150000X281.250000*%
%ADD18R,0.600000X1.150000*%
%ADD19R,0.650000X1.150000*%
%ADD20R,1.150000X0.600000*%
%ADD21R,1.150000X0.650000*%
%ADD22RotRect,0.600000X1.150000X168.750000*%
%ADD23RotRect,0.650000X1.150000X168.750000*%
%ADD24RotRect,0.600000X1.150000X28.125000*%
%ADD25RotRect,0.650000X1.150000X28.125000*%
%ADD26RoundRect,0.200000X0.339334X-0.021845X0.125334X0.316096X-0.339334X0.021845X-0.125334X-0.316096X0*%
%ADD27RotRect,0.700000X0.700000X198.984375*%
%ADD28RotRect,0.700000X0.700000X272.109375*%
%ADD29RotRect,0.600000X1.150000X106.875000*%
%ADD30RotRect,0.650000X1.150000X106.875000*%
%ADD31RoundRect,0.200000X-0.224499X0.255392X-0.312138X-0.134889X0.224499X-0.255392X0.312138X0.134889X0*%
%ADD32RotRect,0.600000X1.150000X219.375000*%
%ADD33RotRect,0.650000X1.150000X219.375000*%
%ADD34RotRect,0.600000X1.150000X208.125000*%
%ADD35RotRect,0.650000X1.150000X208.125000*%
%ADD36RotRect,0.700000X0.700000X47.109375*%
%ADD37RotRect,0.600000X1.150000X298.125000*%
%ADD38RotRect,0.650000X1.150000X298.125000*%
%ADD39RotRect,0.700000X0.700000X24.609375*%
%ADD40RotRect,0.700000X0.700000X18.984375*%
%ADD41RotRect,0.600000X1.150000X337.500000*%
%ADD42RotRect,0.650000X1.150000X337.500000*%
%ADD43RotRect,0.600000X1.150000X326.250000*%
%ADD44RotRect,0.650000X1.150000X326.250000*%
%ADD45RotRect,0.700000X0.700000X75.234375*%
%ADD46RotRect,0.700000X0.700000X52.734375*%
%ADD47RotRect,0.700000X0.700000X294.609375*%
%ADD48RotRect,0.700000X0.700000X120.234375*%
%ADD49RotRect,0.700000X0.700000X170.859375*%
%ADD50RoundRect,0.200000X-0.328551X0.087632X-0.184598X-0.285567X0.328551X-0.087632X0.184598X0.285567X0*%
%ADD51RotRect,0.700000X0.700000X345.234375*%
%ADD52RotRect,0.600000X1.150000X101.250000*%
%ADD53RotRect,0.650000X1.150000X101.250000*%
%ADD54RotRect,0.600000X1.150000X331.875000*%
%ADD55RotRect,0.650000X1.150000X331.875000*%
%ADD56RotRect,0.700000X0.700000X92.109375*%
%ADD57RotRect,0.700000X0.700000X221.484375*%
%ADD58RotRect,0.700000X0.700000X333.984375*%
%ADD59RoundRect,0.200000X-0.270010X0.206687X-0.279825X-0.193192X0.270010X-0.206687X0.279825X0.193192X0*%
%ADD60RotRect,0.600000X1.150000X354.375000*%
%ADD61RotRect,0.650000X1.150000X354.375000*%
%ADD62RotRect,0.600000X1.150000X196.875000*%
%ADD63RotRect,0.650000X1.150000X196.875000*%
%ADD64RotRect,0.600000X1.150000X286.875000*%
%ADD65RotRect,0.650000X1.150000X286.875000*%
%ADD66RotRect,0.700000X0.700000X300.234375*%
%ADD67RotRect,0.700000X0.700000X30.234375*%
%ADD68RoundRect,0.200000X-0.337077X-0.044770X-0.061264X-0.334472X0.337077X0.044770X0.061264X0.334472X0*%
%ADD69RotRect,0.700000X0.700000X125.859375*%
%ADD70RotRect,0.600000X1.150000X118.125000*%
%ADD71RotRect,0.650000X1.150000X118.125000*%
%ADD72RotRect,0.700000X0.700000X2.109375*%
%ADD73RotRect,0.600000X1.150000X61.875000*%
%ADD74RotRect,0.650000X1.150000X61.875000*%
%ADD75RotRect,0.600000X1.150000X275.625000*%
%ADD76RotRect,0.650000X1.150000X275.625000*%
%ADD77RotRect,0.600000X1.150000X135.000000*%
%ADD78RotRect,0.650000X1.150000X135.000000*%
%ADD79RoundRect,0.200000X0.170356X-0.294286X0.332457X0.071396X-0.170356X0.294286X-0.332457X-0.071396X0*%
%ADD80RotRect,0.700000X0.700000X41.484375*%
%ADD81RotRect,0.700000X0.700000X283.359375*%
%ADD82RotRect,0.700000X0.700000X153.984375*%
%ADD83RoundRect,0.200000X-0.150045X-0.305142X0.244067X-0.236762X0.150045X0.305142X-0.244067X0.236762X0*%
%ADD84RotRect,0.600000X1.150000X225.000000*%
%ADD85RotRect,0.650000X1.150000X225.000000*%
%ADD86RoundRect,0.200000X-0.109676X0.321864X-0.339997X-0.005171X0.109676X-0.321864X0.339997X0.005171X0*%
%ADD87RotRect,0.600000X1.150000X123.750000*%
%ADD88RotRect,0.650000X1.150000X123.750000*%
%ADD89RotRect,0.600000X1.150000X264.375000*%
%ADD90RotRect,0.650000X1.150000X264.375000*%
%ADD91RotRect,0.700000X0.700000X277.734375*%
%ADD92RotRect,0.600000X1.150000X241.875000*%
%ADD93RotRect,0.650000X1.150000X241.875000*%
%ADD94RotRect,0.700000X0.700000X35.859375*%
%ADD95RotRect,0.600000X1.150000X174.375000*%
%ADD96RotRect,0.650000X1.150000X174.375000*%
%ADD97RotRect,0.600000X1.150000X309.375000*%
%ADD98RotRect,0.650000X1.150000X309.375000*%
%ADD99RotRect,0.600000X1.150000X45.000000*%
%ADD100RotRect,0.650000X1.150000X45.000000*%
%ADD101RotRect,0.700000X0.700000X288.984375*%
%ADD102RotRect,0.700000X0.700000X322.734375*%
%ADD103RotRect,0.700000X0.700000X97.734375*%
%ADD104RotRect,0.700000X0.700000X86.484375*%
%ADD105RoundRect,0.200000X0.021845X0.339334X-0.316096X0.125334X-0.021845X-0.339334X0.316096X-0.125334X0*%
%ADD106RoundRect,0.200000X0.337076X0.044776X0.061258X0.334473X-0.337076X-0.044776X-0.061258X-0.334473X0*%
%ADD107RotRect,0.700000X0.700000X350.859375*%
%ADD108RotRect,0.600000X1.150000X191.250000*%
%ADD109RotRect,0.650000X1.150000X191.250000*%
%ADD110RotRect,0.700000X0.700000X255.234375*%
%ADD111RotRect,0.600000X1.150000X67.500000*%
%ADD112RotRect,0.650000X1.150000X67.500000*%
%ADD113RoundRect,0.200000X0.044770X-0.337077X0.334472X-0.061264X-0.044770X0.337077X-0.334472X0.061264X0*%
%ADD114RotRect,0.600000X1.150000X185.625000*%
%ADD115RotRect,0.650000X1.150000X185.625000*%
%ADD116RotRect,0.600000X1.150000X247.500000*%
%ADD117RotRect,0.650000X1.150000X247.500000*%
%ADD118RotRect,0.600000X1.150000X95.625000*%
%ADD119RotRect,0.650000X1.150000X95.625000*%
%ADD120RoundRect,0.200000X0.206687X0.270010X-0.193192X0.279825X-0.206687X-0.270010X0.193192X-0.279825X0*%
%ADD121RotRect,0.600000X1.150000X140.625000*%
%ADD122RotRect,0.650000X1.150000X140.625000*%
%ADD123RotRect,0.700000X0.700000X317.109375*%
%ADD124RotRect,0.600000X1.150000X236.250000*%
%ADD125RotRect,0.650000X1.150000X236.250000*%
%ADD126RotRect,0.600000X1.150000X157.500000*%
%ADD127RotRect,0.650000X1.150000X157.500000*%
%ADD128RotRect,0.700000X0.700000X142.734375*%
%ADD129RotRect,0.700000X0.700000X165.234375*%
%ADD130RoundRect,0.200000X-0.021851X-0.339334X0.316093X-0.125339X0.021851X0.339334X-0.316093X0.125339X0*%
%ADD131RotRect,0.700000X0.700000X215.859375*%
%ADD132RotRect,0.700000X0.700000X80.859375*%
%ADD133RotRect,0.700000X0.700000X69.609375*%
%ADD134RoundRect,0.200000X-0.087632X-0.328551X0.285567X-0.184598X0.087632X0.328551X-0.285567X0.184598X0*%
%ADD135RotRect,0.600000X1.150000X253.125000*%
%ADD136RotRect,0.650000X1.150000X253.125000*%
%ADD137RotRect,0.600000X1.150000X129.375000*%
%ADD138RotRect,0.650000X1.150000X129.375000*%
%ADD139RotRect,0.700000X0.700000X249.609375*%
%ADD140RoundRect,0.200000X0.321864X0.109676X-0.005171X0.339997X-0.321864X-0.109676X0.005171X-0.339997X0*%
%ADD141RoundRect,0.200000X0.270009X-0.206689X0.279825X0.193191X-0.270009X0.206689X-0.279825X-0.193191X0*%
%ADD142RotRect,0.700000X0.700000X159.609375*%
%ADD143RotRect,0.600000X1.150000X16.875000*%
%ADD144RotRect,0.650000X1.150000X16.875000*%
%ADD145RoundRect,0.200000X0.109670X-0.321866X0.339998X0.005165X-0.109670X0.321866X-0.339998X-0.005165X0*%
%ADD146RotRect,0.700000X0.700000X356.484375*%
%ADD147RotRect,0.700000X0.700000X339.609375*%
%ADD148RotRect,0.600000X1.150000X320.625000*%
%ADD149RotRect,0.650000X1.150000X320.625000*%
%ADD150RotRect,0.600000X1.150000X163.125000*%
%ADD151RotRect,0.650000X1.150000X163.125000*%
%ADD152RoundRect,0.200000X0.328552X-0.087626X0.184593X0.285571X-0.328552X0.087626X-0.184593X-0.285571X0*%
%ADD153RoundRect,0.200000X-0.044776X0.337076X-0.334473X0.061258X0.044776X-0.337076X0.334473X-0.061258X0*%
%ADD154RotRect,0.600000X1.150000X258.750000*%
%ADD155RotRect,0.650000X1.150000X258.750000*%
%ADD156RotRect,0.700000X0.700000X210.234375*%
%ADD157RoundRect,0.200000X0.224494X-0.255396X0.312140X0.134883X-0.224494X0.255396X-0.312140X-0.134883X0*%
%ADD158RotRect,0.700000X0.700000X108.984375*%
%ADD159RoundRect,0.200000X0.255392X0.224499X-0.134889X0.312138X-0.255392X-0.224499X0.134889X-0.312138X0*%
%ADD160RotRect,0.600000X1.150000X5.625000*%
%ADD161RotRect,0.650000X1.150000X5.625000*%
%ADD162RoundRect,0.200000X0.305144X-0.150040X0.236758X0.244071X-0.305144X0.150040X-0.236758X-0.244071X0*%
%ADD163RoundRect,0.200000X-0.255396X-0.224494X0.134883X-0.312140X0.255396X0.224494X-0.134883X0.312140X0*%
%ADD164RotRect,0.700000X0.700000X131.484375*%
%ADD165RotRect,0.600000X1.150000X33.750000*%
%ADD166RotRect,0.650000X1.150000X33.750000*%
%ADD167RotRect,0.700000X0.700000X243.984375*%
%ADD168RotRect,0.600000X1.150000X146.250000*%
%ADD169RotRect,0.650000X1.150000X146.250000*%
%ADD170RotRect,0.600000X1.150000X213.750000*%
%ADD171RotRect,0.650000X1.150000X213.750000*%
%ADD172RoundRect,0.200000X-0.294286X-0.170356X0.071396X-0.332457X0.294286X0.170356X-0.071396X0.332457X0*%
%ADD173RotRect,0.600000X1.150000X343.125000*%
%ADD174RotRect,0.650000X1.150000X343.125000*%
%ADD175RotRect,0.600000X1.150000X39.375000*%
%ADD176RotRect,0.650000X1.150000X39.375000*%
%ADD177RotRect,0.700000X0.700000X137.109375*%
%ADD178RotRect,0.700000X0.700000X176.484375*%
%ADD179RoundRect,0.200000X0.294283X0.170361X-0.071402X0.332456X-0.294283X-0.170361X0.071402X-0.332456X0*%
%ADD180RotRect,0.600000X1.150000X230.625000*%
%ADD181RotRect,0.650000X1.150000X230.625000*%
%ADD182RotRect,0.700000X0.700000X182.109375*%
%ADD183RotRect,0.700000X0.700000X232.734375*%
%ADD184RotRect,0.600000X1.150000X22.500000*%
%ADD185RotRect,0.650000X1.150000X22.500000*%
%ADD186RotRect,0.700000X0.700000X227.109375*%
%ADD187RotRect,0.700000X0.700000X238.359375*%
%ADD188RotRect,0.600000X1.150000X84.375000*%
%ADD189RotRect,0.650000X1.150000X84.375000*%
%ADD190RoundRect,0.200000X0.150040X0.305144X-0.244071X0.236758X-0.150040X-0.305144X0.244071X-0.236758X0*%
%ADD191RoundRect,0.200000X-0.170361X0.294283X-0.332456X-0.071402X0.170361X-0.294283X0.332456X0.071402X0*%
%ADD192RotRect,0.700000X0.700000X114.609375*%
%ADD193RotRect,0.700000X0.700000X305.859375*%
%ADD194RotRect,0.600000X1.150000X315.000000*%
%ADD195RotRect,0.650000X1.150000X315.000000*%
%ADD196RoundRect,0.200000X-0.305142X0.150045X-0.236762X-0.244067X0.305142X-0.150045X0.236762X0.244067X0*%
%ADD197RotRect,0.600000X1.150000X56.250000*%
%ADD198RotRect,0.650000X1.150000X56.250000*%
%ADD199RotRect,0.600000X1.150000X112.500000*%
%ADD200RotRect,0.650000X1.150000X112.500000*%
%ADD201RoundRect,0.200000X-0.206692X-0.270006X0.193187X-0.279828X0.206692X0.270006X-0.193187X0.279828X0*%
%ADD202RotRect,0.600000X1.150000X292.500000*%
%ADD203RotRect,0.650000X1.150000X292.500000*%
%ADD204RotRect,0.700000X0.700000X103.359375*%
%ADD205RotRect,0.700000X0.700000X63.984375*%
%ADD206RotRect,0.600000X1.150000X73.125000*%
%ADD207RotRect,0.650000X1.150000X73.125000*%
%ADD208RotRect,0.700000X0.700000X260.859375*%
%ADD209RotRect,0.700000X0.700000X204.609375*%
%ADD210RotRect,0.700000X0.700000X148.359375*%
%ADD211RoundRect,0.200000X-0.321866X-0.109670X0.005165X-0.339998X0.321866X0.109670X-0.005165X0.339998X0*%
%ADD212RotRect,0.700000X0.700000X328.359375*%
%ADD213RotRect,0.600000X1.150000X348.750000*%
%ADD214RotRect,0.650000X1.150000X348.750000*%
%ADD215RotRect,0.700000X0.700000X193.359375*%
%ADD216RoundRect,0.200000X0.087626X0.328552X-0.285571X0.184593X-0.087626X-0.328552X0.285571X-0.184593X0*%
%ADD217RotRect,0.600000X1.150000X11.250000*%
%ADD218RotRect,0.650000X1.150000X11.250000*%
%ADD219RotRect,0.700000X0.700000X266.484375*%
%ADD220RotRect,0.600000X1.150000X50.625000*%
%ADD221RotRect,0.650000X1.150000X50.625000*%
%ADD222RotRect,0.600000X1.150000X151.875000*%
%ADD223RotRect,0.650000X1.150000X151.875000*%
%ADD224RotRect,0.600000X1.150000X202.500000*%
%ADD225RotRect,0.650000X1.150000X202.500000*%
%ADD226RotRect,0.600000X1.150000X303.750000*%
%ADD227RotRect,0.650000X1.150000X303.750000*%
%ADD228RotRect,0.700000X0.700000X311.484375*%
%ADD229RoundRect,0.200000X-0.339334X0.021851X-0.125339X-0.316093X0.339334X-0.021851X0.125339X0.316093X0*%
G04 APERTURE END LIST*
D10*
%TO.C,D54*%
X96193634Y-109786701D03*
X96045596Y-108696708D03*
X97858948Y-108450425D03*
X98006986Y-109540418D03*
%TD*%
D11*
%TO.C,Q6*%
X163394280Y-46328202D03*
D12*
X163213821Y-47235428D03*
%TD*%
D13*
%TO.C,D46*%
X97266712Y-115256288D03*
X97012548Y-114186054D03*
X98793028Y-113763218D03*
X99047192Y-114833452D03*
%TD*%
D14*
%TO.C,D45*%
X123070797Y-150240286D03*
X122134306Y-149663238D03*
X123094305Y-148105258D03*
X124030796Y-148682306D03*
%TD*%
D15*
%TO.C,D50*%
X208602718Y-93413299D03*
X208750756Y-94503292D03*
X206937404Y-94749575D03*
X206789366Y-93659582D03*
%TD*%
D16*
%TO.C,Q62*%
X163390703Y-156872508D03*
D17*
X163210244Y-155965282D03*
%TD*%
D18*
%TO.C,Q34*%
X208753175Y-101601823D03*
D19*
X207828175Y-101601823D03*
%TD*%
D20*
%TO.C,Q2*%
X152400000Y-45245000D03*
D21*
X152400000Y-46170000D03*
%TD*%
D22*
%TO.C,Q37*%
X97126379Y-90603898D03*
D23*
X98033605Y-90784357D03*
%TD*%
D24*
%TO.C,Q24*%
X202099708Y-75036045D03*
D25*
X201283931Y-75472087D03*
%TD*%
D26*
%TO.C,R33*%
X122945431Y-55085614D03*
X122062679Y-53691610D03*
%TD*%
D27*
%TO.C,D34*%
X205925617Y-82605641D03*
X206283458Y-83645809D03*
X204552997Y-84241127D03*
X204195156Y-83200959D03*
%TD*%
D28*
%TO.C,D64*%
X149759905Y-44863662D03*
X150859160Y-44823174D03*
X150926517Y-46651934D03*
X149827262Y-46692422D03*
%TD*%
D29*
%TO.C,Q59*%
X136040926Y-47671101D03*
D30*
X136309439Y-48556271D03*
%TD*%
D31*
%TO.C,R3*%
X140333775Y-155316876D03*
X139972265Y-156926786D03*
%TD*%
D32*
%TO.C,Q19*%
X108834017Y-137349824D03*
D33*
X109549052Y-136763010D03*
%TD*%
D34*
%TO.C,Q23*%
X102696646Y-128163956D03*
D35*
X103512423Y-127727914D03*
%TD*%
D36*
%TO.C,D61*%
X114145066Y-143584189D03*
X113339146Y-142835528D03*
X114584646Y-141494771D03*
X115390566Y-142243432D03*
%TD*%
D37*
%TO.C,Q56*%
X178962131Y-151301531D03*
D38*
X178526089Y-150485754D03*
%TD*%
D39*
%TO.C,D30*%
X100990257Y-125749502D03*
X100532184Y-124749418D03*
X102195961Y-123987352D03*
X102654034Y-124987436D03*
%TD*%
D40*
%TO.C,D38*%
X98870735Y-120594359D03*
X98512894Y-119554191D03*
X100243355Y-118958873D03*
X100601196Y-119999041D03*
%TD*%
D41*
%TO.C,Q42*%
X204462709Y-123167809D03*
D42*
X203608120Y-122813827D03*
%TD*%
D43*
%TO.C,Q46*%
X199254633Y-132910676D03*
D44*
X198485524Y-132396774D03*
%TD*%
D45*
%TO.C,D21*%
X138453154Y-156659141D03*
X137389480Y-156378788D03*
X137855884Y-154609221D03*
X138919558Y-154889574D03*
%TD*%
D46*
%TO.C,D53*%
X118444436Y-147131484D03*
X117569015Y-146465422D03*
X118677100Y-145009040D03*
X119552521Y-145675102D03*
%TD*%
D47*
%TO.C,D32*%
X128248674Y-50192081D03*
X129248758Y-49734008D03*
X130010824Y-51397785D03*
X129010740Y-51855858D03*
%TD*%
D48*
%TO.C,D20*%
X181470249Y-150393311D03*
X180519879Y-150947203D03*
X179598403Y-149366133D03*
X180548773Y-148812241D03*
%TD*%
D49*
%TO.C,D11*%
X208559043Y-110081133D03*
X208384299Y-111167165D03*
X206577537Y-110876455D03*
X206752281Y-109790423D03*
%TD*%
D50*
%TO.C,R36*%
X172210505Y-152966568D03*
X172804311Y-154506014D03*
%TD*%
D51*
%TO.C,D23*%
X97339035Y-87654978D03*
X97619388Y-86591304D03*
X99388955Y-87057708D03*
X99108602Y-88121382D03*
%TD*%
D52*
%TO.C,Q61*%
X141405647Y-46327493D03*
D53*
X141586106Y-47234719D03*
%TD*%
D54*
%TO.C,Q44*%
X202097989Y-128167171D03*
D55*
X201282212Y-127731129D03*
%TD*%
D56*
%TO.C,D60*%
X155036447Y-158336338D03*
X153937192Y-158376826D03*
X153869835Y-156548066D03*
X154969090Y-156507578D03*
%TD*%
D57*
%TO.C,D2*%
X194582257Y-63567437D03*
X195310914Y-64391487D03*
X193939995Y-65603707D03*
X193211338Y-64779657D03*
%TD*%
D58*
%TO.C,D39*%
X101117520Y-77181422D03*
X101599998Y-76192880D03*
X103244572Y-76995548D03*
X102762094Y-77984090D03*
%TD*%
D59*
%TO.C,R1*%
X151045232Y-156638369D03*
X151004746Y-158287873D03*
%TD*%
D60*
%TO.C,Q36*%
X208481632Y-107125570D03*
D61*
X207561086Y-107034904D03*
%TD*%
D62*
%TO.C,Q27*%
X98469276Y-117957249D03*
D63*
X99354446Y-117688736D03*
%TD*%
D64*
%TO.C,Q60*%
X168755424Y-155528900D03*
D65*
X168486911Y-154643730D03*
%TD*%
D66*
%TO.C,D24*%
X123326103Y-52806689D03*
X124276473Y-52252797D03*
X125197949Y-53833867D03*
X124247579Y-54387759D03*
%TD*%
D67*
%TO.C,D22*%
X103604865Y-130672073D03*
X103050973Y-129721703D03*
X104632043Y-128800227D03*
X105185935Y-129750597D03*
%TD*%
D68*
%TO.C,R29*%
X190359516Y-141474671D03*
X191497242Y-142669693D03*
%TD*%
D69*
%TO.C,D12*%
X186112839Y-147308797D03*
X185221337Y-147953174D03*
X184149327Y-146470037D03*
X185040829Y-145825660D03*
%TD*%
D70*
%TO.C,Q55*%
X125834220Y-51898471D03*
D71*
X126270262Y-52714248D03*
%TD*%
D72*
%TO.C,D62*%
X95661838Y-104238271D03*
X95621350Y-103139016D03*
X97450110Y-103071659D03*
X97490598Y-104170914D03*
%TD*%
D73*
%TO.C,Q12*%
X178965348Y-51900187D03*
D74*
X178529306Y-52715964D03*
%TD*%
D75*
%TO.C,Q64*%
X157920118Y-157683812D03*
D76*
X157829452Y-156763266D03*
%TD*%
D77*
%TO.C,Q49*%
X112550463Y-61749711D03*
D78*
X113204537Y-62403785D03*
%TD*%
D79*
%TO.C,R6*%
X174710393Y-51268918D03*
X175379061Y-49760480D03*
%TD*%
D80*
%TO.C,D6*%
X110214095Y-139632563D03*
X109485438Y-138808513D03*
X110856357Y-137596293D03*
X111585014Y-138420343D03*
%TD*%
D81*
%TO.C,D48*%
X138741888Y-46468536D03*
X139812122Y-46214372D03*
X140234958Y-47994852D03*
X139164724Y-48249016D03*
%TD*%
D82*
%TO.C,D35*%
X203678832Y-126018578D03*
X203196354Y-127007120D03*
X201551780Y-126204452D03*
X202034258Y-125215910D03*
%TD*%
D83*
%TO.C,R16*%
X206642945Y-92189480D03*
X208268657Y-91907414D03*
%TD*%
D84*
%TO.C,Q17*%
X112547886Y-141447713D03*
D85*
X113201960Y-140793639D03*
%TD*%
D86*
%TO.C,R7*%
X120695565Y-146611075D03*
X119745487Y-147960095D03*
%TD*%
D87*
%TO.C,Q53*%
X121090531Y-54741520D03*
D88*
X121604433Y-55510629D03*
%TD*%
D89*
%TO.C,Q3*%
X146872606Y-157683455D03*
D90*
X146963272Y-156762909D03*
%TD*%
D91*
%TO.C,D56*%
X144211475Y-45395458D03*
X145301468Y-45247420D03*
X145547751Y-47060772D03*
X144457758Y-47208810D03*
%TD*%
D92*
%TO.C,Q11*%
X125831006Y-151299812D03*
D93*
X126267048Y-150484035D03*
%TD*%
D94*
%TO.C,D14*%
X106689379Y-135314663D03*
X106045002Y-134423161D03*
X107528139Y-133351151D03*
X108172516Y-134242653D03*
%TD*%
D95*
%TO.C,Q35*%
X96314721Y-96074431D03*
D96*
X97235267Y-96165097D03*
%TD*%
D97*
%TO.C,Q52*%
X188148000Y-145164160D03*
D98*
X187561186Y-144449125D03*
%TD*%
D20*
%TO.C,Q1*%
X152396353Y-157954998D03*
D21*
X152396353Y-157029998D03*
%TD*%
D99*
%TO.C,Q18*%
X192248468Y-61752287D03*
D100*
X191594394Y-62406361D03*
%TD*%
D101*
%TO.C,D40*%
X133403817Y-48072559D03*
X134443985Y-47714718D03*
X135039303Y-49445179D03*
X133999135Y-49803020D03*
%TD*%
D102*
%TO.C,D55*%
X106866692Y-67646260D03*
X107532754Y-66770839D03*
X108989136Y-67878924D03*
X108323074Y-68754345D03*
%TD*%
D103*
%TO.C,D52*%
X160584877Y-157804542D03*
X159494884Y-157952580D03*
X159248601Y-156139228D03*
X160338594Y-155991190D03*
%TD*%
D104*
%TO.C,D5*%
X149462609Y-158321733D03*
X148364680Y-158254281D03*
X148476897Y-156427725D03*
X149574826Y-156495177D03*
%TD*%
D105*
%TO.C,R11*%
X105883789Y-131052747D03*
X104489785Y-131935499D03*
%TD*%
D106*
%TO.C,R28*%
X114436851Y-61725320D03*
X113299103Y-60530318D03*
%TD*%
D107*
%TO.C,D15*%
X96237309Y-93118867D03*
X96412053Y-92032835D03*
X98218815Y-92323545D03*
X98044071Y-93409577D03*
%TD*%
D108*
%TO.C,Q31*%
X97125668Y-112592528D03*
D109*
X98032894Y-112412069D03*
%TD*%
D110*
%TO.C,D17*%
X166343198Y-46540859D03*
X167406872Y-46821212D03*
X166940468Y-48590779D03*
X165876794Y-48310426D03*
%TD*%
D111*
%TO.C,Q10*%
X173965986Y-49535467D03*
D112*
X173612004Y-50390056D03*
%TD*%
D113*
%TO.C,R10*%
X192272849Y-63638659D03*
X193467871Y-62500933D03*
%TD*%
D114*
%TO.C,Q29*%
X96314364Y-107121943D03*
D115*
X97234910Y-107031277D03*
%TD*%
D116*
%TO.C,Q9*%
X130830368Y-153664532D03*
D117*
X131184350Y-152809943D03*
%TD*%
D118*
%TO.C,Q63*%
X146876232Y-45516189D03*
D119*
X146966898Y-46436735D03*
%TD*%
D120*
%TO.C,R17*%
X97359808Y-100247055D03*
X95710304Y-100206569D03*
%TD*%
D121*
%TO.C,Q47*%
X108836329Y-65847360D03*
D122*
X109551364Y-66434174D03*
%TD*%
D123*
%TO.C,D63*%
X110413987Y-63346890D03*
X111162648Y-62540970D03*
X112503405Y-63786470D03*
X111754744Y-64592390D03*
%TD*%
D124*
%TO.C,Q13*%
X121087501Y-148456456D03*
D125*
X121601403Y-147687347D03*
%TD*%
D126*
%TO.C,Q41*%
X100333644Y-80032193D03*
D127*
X101188233Y-80386175D03*
%TD*%
D128*
%TO.C,D51*%
X197929660Y-135553740D03*
X197263598Y-136429161D03*
X195807216Y-135321076D03*
X196473278Y-134445655D03*
%TD*%
D129*
%TO.C,D19*%
X207457317Y-115545022D03*
X207176964Y-116608696D03*
X205407397Y-116142292D03*
X205687750Y-115078618D03*
%TD*%
D130*
%TO.C,R12*%
X198912558Y-72147238D03*
X200306578Y-71264510D03*
%TD*%
D131*
%TO.C,D10*%
X198106973Y-67885337D03*
X198751350Y-68776839D03*
X197268213Y-69848849D03*
X196623836Y-68957347D03*
%TD*%
D132*
%TO.C,D13*%
X143917043Y-157760867D03*
X142831011Y-157586123D03*
X143121721Y-155779361D03*
X144207753Y-155954105D03*
%TD*%
D133*
%TO.C,D29*%
X133123563Y-155027165D03*
X132092490Y-154643905D03*
X132730097Y-152928575D03*
X133761170Y-153311835D03*
%TD*%
D134*
%TO.C,R14*%
X203764746Y-81787670D03*
X205304192Y-81193864D03*
%TD*%
D135*
%TO.C,Q7*%
X136037439Y-155527842D03*
D136*
X136305952Y-154642672D03*
%TD*%
D137*
%TO.C,Q51*%
X116648352Y-58035842D03*
D138*
X117235166Y-58750877D03*
%TD*%
D139*
%TO.C,D25*%
X171672789Y-48172835D03*
X172703862Y-48556095D03*
X172066255Y-50271425D03*
X171035182Y-49888165D03*
%TD*%
D140*
%TO.C,R23*%
X107387103Y-69897389D03*
X106038083Y-68947311D03*
%TD*%
D141*
%TO.C,R2*%
X153751116Y-46561627D03*
X153791610Y-44912123D03*
%TD*%
D142*
%TO.C,D27*%
X205825341Y-120874613D03*
X205442081Y-121905686D03*
X203726751Y-121268079D03*
X204110011Y-120237006D03*
%TD*%
D143*
%TO.C,Q28*%
X206327077Y-85242752D03*
D144*
X205441907Y-85511265D03*
%TD*%
D145*
%TO.C,R8*%
X184100777Y-56588913D03*
X185050879Y-55239911D03*
%TD*%
D146*
%TO.C,D7*%
X95676443Y-98664433D03*
X95743895Y-97566504D03*
X97570451Y-97678721D03*
X97502999Y-98776650D03*
%TD*%
D147*
%TO.C,D31*%
X98971011Y-82325387D03*
X99354271Y-81294314D03*
X101069601Y-81931921D03*
X100686341Y-82962994D03*
%TD*%
D148*
%TO.C,Q48*%
X195960023Y-137352642D03*
D149*
X195244988Y-136765828D03*
%TD*%
D150*
%TO.C,Q39*%
X98470334Y-85239264D03*
D151*
X99355504Y-85507777D03*
%TD*%
D152*
%TO.C,R35*%
X132585864Y-50233429D03*
X131992030Y-48693993D03*
%TD*%
D153*
%TO.C,R9*%
X112523496Y-139561327D03*
X111328494Y-140699075D03*
%TD*%
D154*
%TO.C,Q5*%
X141402073Y-156871797D03*
D155*
X141582532Y-155964571D03*
%TD*%
D156*
%TO.C,D18*%
X201191487Y-72527927D03*
X201745379Y-73478297D03*
X200164309Y-74399773D03*
X199610417Y-73449403D03*
%TD*%
D157*
%TO.C,R4*%
X164462563Y-47883117D03*
X164824101Y-46273213D03*
%TD*%
D158*
%TO.C,D36*%
X171392535Y-155127441D03*
X170352367Y-155485282D03*
X169757049Y-153754821D03*
X170797217Y-153396980D03*
%TD*%
D159*
%TO.C,R19*%
X98681301Y-89535598D03*
X97071391Y-89174088D03*
%TD*%
D160*
%TO.C,Q32*%
X208481989Y-96078058D03*
D161*
X207561443Y-96168724D03*
%TD*%
D162*
%TO.C,R37*%
X142987672Y-47355232D03*
X142705578Y-45729526D03*
%TD*%
D163*
%TO.C,R20*%
X206115057Y-113664387D03*
X207724961Y-114025925D03*
%TD*%
D164*
%TO.C,D4*%
X190430739Y-143784081D03*
X189606689Y-144512738D03*
X188394469Y-143141819D03*
X189218519Y-142413162D03*
%TD*%
D165*
%TO.C,Q22*%
X199256659Y-70292356D03*
D166*
X198487550Y-70806258D03*
%TD*%
D167*
%TO.C,D33*%
X176816754Y-50319344D03*
X177805296Y-50801822D03*
X177002628Y-52446396D03*
X176014086Y-51963918D03*
%TD*%
D168*
%TO.C,Q45*%
X105541720Y-70289326D03*
D169*
X106310829Y-70803228D03*
%TD*%
D170*
%TO.C,Q21*%
X105539695Y-132907645D03*
D171*
X106308804Y-132393743D03*
%TD*%
D172*
%TO.C,R22*%
X202729257Y-123912216D03*
X204237695Y-124580884D03*
%TD*%
D173*
%TO.C,Q40*%
X206326019Y-117960737D03*
D174*
X205440849Y-117692224D03*
%TD*%
D175*
%TO.C,Q20*%
X195962337Y-65850176D03*
D176*
X195247302Y-66436990D03*
%TD*%
D177*
%TO.C,D59*%
X194382365Y-139853110D03*
X193633704Y-140659030D03*
X192292947Y-139413530D03*
X193041608Y-138607610D03*
%TD*%
D178*
%TO.C,D3*%
X209119909Y-104535567D03*
X209052457Y-105633496D03*
X207225901Y-105521279D03*
X207293353Y-104423350D03*
%TD*%
D179*
%TO.C,R21*%
X102067105Y-79287770D03*
X100558655Y-78619128D03*
%TD*%
D180*
%TO.C,Q15*%
X116645535Y-145161847D03*
D181*
X117232349Y-144446812D03*
%TD*%
D182*
%TO.C,D58*%
X209134514Y-98961729D03*
X209175002Y-100060984D03*
X207346242Y-100128341D03*
X207305754Y-99029086D03*
%TD*%
D183*
%TO.C,D49*%
X186351916Y-56068516D03*
X187227337Y-56734578D03*
X186119252Y-58190960D03*
X185243831Y-57524898D03*
%TD*%
D184*
%TO.C,Q26*%
X204464104Y-80035560D03*
D185*
X203609515Y-80389542D03*
%TD*%
D186*
%TO.C,D57*%
X190651286Y-59615811D03*
X191457206Y-60364472D03*
X190211706Y-61705229D03*
X189405786Y-60956568D03*
%TD*%
D187*
%TO.C,D41*%
X181725555Y-52959714D03*
X182662046Y-53536762D03*
X181702047Y-55094742D03*
X180765556Y-54517694D03*
%TD*%
D188*
%TO.C,Q4*%
X157923747Y-45516544D03*
D189*
X157833081Y-46437090D03*
%TD*%
D190*
%TO.C,R15*%
X98153407Y-111010505D03*
X96527701Y-111292599D03*
%TD*%
D191*
%TO.C,R5*%
X130085947Y-151931073D03*
X129417305Y-153439523D03*
%TD*%
D192*
%TO.C,D28*%
X176547678Y-153007919D03*
X175547594Y-153465992D03*
X174785528Y-151802215D03*
X175785612Y-151344142D03*
%TD*%
D193*
%TO.C,D16*%
X118683513Y-55891203D03*
X119575015Y-55246826D03*
X120647025Y-56729963D03*
X119755523Y-57374340D03*
%TD*%
D194*
%TO.C,Q50*%
X192245889Y-141450291D03*
D195*
X191591815Y-140796217D03*
%TD*%
D196*
%TO.C,R38*%
X161808696Y-155844767D03*
X162090762Y-157470479D03*
%TD*%
D197*
%TO.C,Q14*%
X183708853Y-54743543D03*
D198*
X183194951Y-55512652D03*
%TD*%
D199*
%TO.C,Q57*%
X130833734Y-49534074D03*
D200*
X131187716Y-50388663D03*
%TD*%
D201*
%TO.C,R18*%
X207436548Y-102952930D03*
X209086050Y-102993444D03*
%TD*%
D202*
%TO.C,Q58*%
X173962616Y-153665927D03*
D203*
X173608634Y-152811338D03*
%TD*%
D204*
%TO.C,D44*%
X166054464Y-156731464D03*
X164984230Y-156985628D03*
X164561394Y-155205148D03*
X165631628Y-154950984D03*
%TD*%
D205*
%TO.C,D37*%
X127979598Y-152880656D03*
X126991056Y-152398178D03*
X127793724Y-150753604D03*
X128782266Y-151236082D03*
%TD*%
D206*
%TO.C,Q8*%
X168758914Y-47672157D03*
D207*
X168490401Y-48557327D03*
%TD*%
D208*
%TO.C,D9*%
X160879309Y-45439133D03*
X161965341Y-45613877D03*
X161674631Y-47420639D03*
X160588599Y-47245895D03*
%TD*%
D209*
%TO.C,D26*%
X203806095Y-77450498D03*
X204264168Y-78450582D03*
X202600391Y-79212648D03*
X202142318Y-78212564D03*
%TD*%
D210*
%TO.C,D43*%
X201038462Y-130927379D03*
X200461414Y-131863870D03*
X198903434Y-130903871D03*
X199480482Y-129967380D03*
%TD*%
D211*
%TO.C,R24*%
X197409262Y-133302600D03*
X198758264Y-134252702D03*
%TD*%
D212*
%TO.C,D47*%
X103757890Y-72272621D03*
X104334938Y-71336130D03*
X105892918Y-72296129D03*
X105315870Y-73232620D03*
%TD*%
D213*
%TO.C,Q38*%
X207669974Y-112596103D03*
D214*
X206762748Y-112415644D03*
%TD*%
D215*
%TO.C,D42*%
X207529640Y-87943712D03*
X207783804Y-89013946D03*
X206003324Y-89436782D03*
X205749160Y-88366548D03*
%TD*%
D216*
%TO.C,R13*%
X101031604Y-121412313D03*
X99492168Y-122006147D03*
%TD*%
D217*
%TO.C,Q30*%
X207670685Y-90607473D03*
D218*
X206763459Y-90787932D03*
%TD*%
D219*
%TO.C,D1*%
X155333743Y-44878267D03*
X156431672Y-44945719D03*
X156319455Y-46772275D03*
X155221526Y-46704823D03*
%TD*%
D220*
%TO.C,Q16*%
X188150819Y-58038153D03*
D221*
X187564005Y-58753188D03*
%TD*%
D222*
%TO.C,Q43*%
X102698364Y-75032831D03*
D223*
X103514141Y-75468873D03*
%TD*%
D224*
%TO.C,Q25*%
X100332249Y-123164441D03*
D225*
X101186838Y-122810459D03*
%TD*%
D226*
%TO.C,Q54*%
X183705820Y-148458482D03*
D227*
X183191918Y-147689373D03*
%TD*%
D18*
%TO.C,Q33*%
X96043178Y-101598178D03*
D19*
X96968178Y-101598178D03*
%TD*%
D228*
%TO.C,D8*%
X114365613Y-59415919D03*
X115189663Y-58687262D03*
X116401883Y-60058181D03*
X115577833Y-60786838D03*
%TD*%
D229*
%TO.C,R34*%
X181850937Y-148114380D03*
X182733665Y-149508400D03*
%TD*%
M02*
