%TF.GenerationSoftware,KiCad,Pcbnew,7.0.11*%
%TF.CreationDate,2025-01-20T01:48:32+09:00*%
%TF.ProjectId,Line,4c696e65-2e6b-4696-9361-645f70636258,rev?*%
%TF.SameCoordinates,Original*%
%TF.FileFunction,Drillmap*%
%TF.FilePolarity,Positive*%
%FSLAX45Y45*%
G04 Gerber Fmt 4.5, Leading zero omitted, Abs format (unit mm)*
G04 Created by KiCad (PCBNEW 7.0.11) date 2025-01-20 01:48:32*
%MOMM*%
%LPD*%
G01*
G04 APERTURE LIST*
%ADD10C,0.200000*%
%ADD11C,0.100000*%
G04 APERTURE END LIST*
D10*
X12409400Y-10660000D02*
X18070235Y-10660000D01*
X12087924Y-13461893D02*
G75*
G03*
X11787924Y-13461893I-150000J0D01*
G01*
X11787924Y-13461893D02*
G75*
G03*
X12087924Y-13461893I150000J0D01*
G01*
X18262129Y-13461893D02*
X18262129Y-13975588D01*
X19325395Y-7277629D02*
X19479809Y-7510005D01*
X18439835Y-8700415D02*
G75*
G03*
X18270235Y-8870018I5J-169605D01*
G01*
X18270240Y-10860000D02*
G75*
G03*
X18070235Y-10660000I-200000J0D01*
G01*
X18262129Y-6344412D02*
X18262129Y-6858107D01*
X18122187Y-14245575D02*
G75*
G03*
X18262129Y-13975588I-190467J269986D01*
G01*
X11154241Y-13042371D02*
X10999826Y-12809995D01*
X10949603Y-8470000D02*
G75*
G03*
X11180020Y-8700418I230418J0D01*
G01*
X11424230Y-7137689D02*
X11937924Y-7137689D01*
X19325396Y-7277629D02*
G75*
G03*
X19055405Y-7137689I-269986J-190471D01*
G01*
X18541711Y-13182309D02*
G75*
G03*
X18262129Y-13461893I-1J-279581D01*
G01*
X11180020Y-11619582D02*
X12039800Y-11619582D01*
X18270238Y-11449982D02*
G75*
G03*
X18439835Y-11619582I169603J3D01*
G01*
X19055405Y-13182311D02*
X18541711Y-13182311D01*
X12409400Y-10660000D02*
G75*
G03*
X12209400Y-10860000I0J-200000D01*
G01*
X12209400Y-11449982D02*
X12209400Y-10860000D01*
X18070235Y-9660000D02*
X12409400Y-9660000D01*
X12217507Y-13975588D02*
G75*
G03*
X12357447Y-14245577I330413J-2D01*
G01*
X18541711Y-7137689D02*
X19055405Y-7137689D01*
X12209402Y-8870018D02*
G75*
G03*
X12039800Y-8700418I-169603J-3D01*
G01*
X19530033Y-11850000D02*
X19530033Y-12634874D01*
X11180020Y-11619582D02*
G75*
G03*
X10949602Y-11850000I0J-230418D01*
G01*
X19530038Y-11850000D02*
G75*
G03*
X19299616Y-11619582I-230418J0D01*
G01*
X12209400Y-9460000D02*
G75*
G03*
X12409400Y-9660000I200000J0D01*
G01*
X18070235Y-9660005D02*
G75*
G03*
X18270235Y-9460000I-5J200005D01*
G01*
X19299616Y-8700423D02*
G75*
G03*
X19530033Y-8470000I-6J230423D01*
G01*
X19055405Y-13182310D02*
G75*
G03*
X19325395Y-13042371I-5J330430D01*
G01*
X12209400Y-9460000D02*
X12209400Y-8870018D01*
X11154240Y-13042371D02*
G75*
G03*
X11424230Y-13182311I269990J190481D01*
G01*
X12039800Y-8700418D02*
X11180020Y-8700418D01*
X18122188Y-6074423D02*
G75*
G03*
X12357447Y-6074423I-2882370J-4085577D01*
G01*
X19479809Y-12809995D02*
X19325395Y-13042371D01*
X18270235Y-8870018D02*
X18270235Y-9460000D01*
X18691711Y-6858107D02*
G75*
G03*
X18391711Y-6858107I-150000J0D01*
G01*
X18391711Y-6858107D02*
G75*
G03*
X18691711Y-6858107I150000J0D01*
G01*
X18262131Y-6858107D02*
G75*
G03*
X18541711Y-7137689I279579J-3D01*
G01*
X12357447Y-6074423D02*
G75*
G03*
X12217507Y-6344412I190473J-269987D01*
G01*
X12039800Y-11619580D02*
G75*
G03*
X12209400Y-11449982I0J169600D01*
G01*
X18270235Y-10860000D02*
X18270235Y-11449982D01*
X12087924Y-6858107D02*
G75*
G03*
X11787924Y-6858107I-150000J0D01*
G01*
X11787924Y-6858107D02*
G75*
G03*
X12087924Y-6858107I150000J0D01*
G01*
X10999828Y-7510006D02*
G75*
G03*
X10949602Y-7685126I280192J-175124D01*
G01*
X10999826Y-7510005D02*
X11154241Y-7277629D01*
X12217507Y-6858107D02*
X12217507Y-6344412D01*
X19299616Y-8700418D02*
X18439835Y-8700418D01*
X12217499Y-13461893D02*
G75*
G03*
X11937924Y-13182311I-279579J3D01*
G01*
X18439835Y-11619582D02*
X19299616Y-11619582D01*
X18691711Y-13461893D02*
G75*
G03*
X18391711Y-13461893I-150000J0D01*
G01*
X18391711Y-13461893D02*
G75*
G03*
X18691711Y-13461893I150000J0D01*
G01*
X21039818Y-10160000D02*
G75*
G03*
X9439818Y-10160000I-5800000J0D01*
G01*
X9439818Y-10160000D02*
G75*
G03*
X21039818Y-10160000I5800000J0D01*
G01*
X11424230Y-7137690D02*
G75*
G03*
X11154241Y-7277629I0J-330420D01*
G01*
X10949602Y-12634874D02*
X10949602Y-11850000D01*
X12217507Y-13975588D02*
X12217507Y-13461893D01*
X11937924Y-7137697D02*
G75*
G03*
X12217507Y-6858107I-4J279587D01*
G01*
X10949600Y-12634874D02*
G75*
G03*
X10999826Y-12809995I330420J4D01*
G01*
X18262126Y-6344412D02*
G75*
G03*
X18122188Y-6074423I-330416J2D01*
G01*
X11937924Y-13182311D02*
X11424230Y-13182311D01*
X19530033Y-7685126D02*
X19530033Y-8470000D01*
X12357447Y-14245577D02*
G75*
G03*
X18122188Y-14245577I2882371J4085577D01*
G01*
X19479811Y-12809996D02*
G75*
G03*
X19530033Y-12634874I-280221J175126D01*
G01*
X10949602Y-8470000D02*
X10949602Y-7685126D01*
X19530034Y-7685126D02*
G75*
G03*
X19479809Y-7510005I-330394J6D01*
G01*
D11*
X9569588Y-10809624D02*
X9609588Y-10849624D01*
X9609588Y-10809624D02*
X9569588Y-10849624D01*
X9584318Y-10139818D02*
X9624318Y-10179818D01*
X9624318Y-10139818D02*
X9584318Y-10179818D01*
X9586000Y-10001000D02*
X9626000Y-10041000D01*
X9626000Y-10001000D02*
X9586000Y-10041000D01*
X9611436Y-10692194D02*
X9651436Y-10732194D01*
X9651436Y-10692194D02*
X9611436Y-10732194D01*
X9611472Y-9587443D02*
X9651472Y-9627443D01*
X9651472Y-9587443D02*
X9611472Y-9627443D01*
X9616000Y-11113000D02*
X9656000Y-11153000D01*
X9656000Y-11113000D02*
X9616000Y-11153000D01*
X9625063Y-10256348D02*
X9665063Y-10296348D01*
X9665063Y-10256348D02*
X9625063Y-10296348D01*
X9692567Y-11239253D02*
X9732567Y-11279253D01*
X9732567Y-11239253D02*
X9692567Y-11279253D01*
X9692638Y-9040390D02*
X9732638Y-9080390D01*
X9732638Y-9040390D02*
X9692638Y-9080390D01*
X9713205Y-9165458D02*
X9753205Y-9205458D01*
X9753205Y-9165458D02*
X9713205Y-9205458D01*
X9723000Y-8906000D02*
X9763000Y-8946000D01*
X9763000Y-8906000D02*
X9723000Y-8946000D01*
X9733220Y-9897516D02*
X9773220Y-9937516D01*
X9773220Y-9897516D02*
X9733220Y-9937516D01*
X9758749Y-11344060D02*
X9798749Y-11384060D01*
X9798749Y-11344060D02*
X9758749Y-11384060D01*
X9789962Y-10972877D02*
X9829962Y-11012877D01*
X9829962Y-10972877D02*
X9789962Y-11012877D01*
X9822000Y-10398000D02*
X9862000Y-10438000D01*
X9862000Y-10398000D02*
X9822000Y-10438000D01*
X9826928Y-11775725D02*
X9866928Y-11815725D01*
X9866928Y-11775725D02*
X9826928Y-11815725D01*
X9827033Y-8503926D02*
X9867033Y-8543926D01*
X9867033Y-8503926D02*
X9827033Y-8543926D01*
X9836000Y-9618000D02*
X9876000Y-9658000D01*
X9876000Y-9618000D02*
X9836000Y-9658000D01*
X9884652Y-8829687D02*
X9924652Y-8869687D01*
X9924652Y-8829687D02*
X9884652Y-8869687D01*
X9885000Y-10237000D02*
X9925000Y-10277000D01*
X9925000Y-10237000D02*
X9885000Y-10277000D01*
X9903000Y-11595000D02*
X9943000Y-11635000D01*
X9943000Y-11595000D02*
X9903000Y-11635000D01*
X9910000Y-10712000D02*
X9950000Y-10752000D01*
X9950000Y-10712000D02*
X9910000Y-10752000D01*
X9944000Y-9109000D02*
X9984000Y-9149000D01*
X9984000Y-9109000D02*
X9944000Y-9149000D01*
X9946000Y-11101000D02*
X9986000Y-11141000D01*
X9986000Y-11101000D02*
X9946000Y-11141000D01*
X9957000Y-12173000D02*
X9997000Y-12213000D01*
X9997000Y-12173000D02*
X9957000Y-12213000D01*
X9981000Y-11334000D02*
X10021000Y-11374000D01*
X10021000Y-11334000D02*
X9981000Y-11374000D01*
X9988000Y-8391000D02*
X10028000Y-8431000D01*
X10028000Y-8391000D02*
X9988000Y-8431000D01*
X10009964Y-8107672D02*
X10049964Y-8147672D01*
X10049964Y-8107672D02*
X10009964Y-8147672D01*
X10013225Y-12296444D02*
X10053225Y-12336444D01*
X10053225Y-12296444D02*
X10013225Y-12336444D01*
X10013364Y-7983219D02*
X10053364Y-8023219D01*
X10053364Y-7983219D02*
X10013364Y-8023219D01*
X10055236Y-12016782D02*
X10095236Y-12056782D01*
X10095236Y-12016782D02*
X10055236Y-12056782D01*
X10057000Y-8666000D02*
X10097000Y-8706000D01*
X10097000Y-8666000D02*
X10057000Y-8706000D01*
X10066000Y-7856000D02*
X10106000Y-7896000D01*
X10106000Y-7856000D02*
X10066000Y-7896000D01*
X10081000Y-9525000D02*
X10121000Y-9565000D01*
X10121000Y-9525000D02*
X10081000Y-9565000D01*
X10091000Y-9293000D02*
X10131000Y-9333000D01*
X10131000Y-9293000D02*
X10091000Y-9333000D01*
X10098646Y-12386310D02*
X10138646Y-12426310D01*
X10138646Y-12386310D02*
X10098646Y-12426310D01*
X10149000Y-11332000D02*
X10189000Y-11372000D01*
X10189000Y-11332000D02*
X10149000Y-11372000D01*
X10237000Y-12150000D02*
X10277000Y-12190000D01*
X10277000Y-12150000D02*
X10237000Y-12190000D01*
X10244474Y-7816794D02*
X10284474Y-7856794D01*
X10284474Y-7816794D02*
X10244474Y-7856794D01*
X10249665Y-12796396D02*
X10289665Y-12836396D01*
X10289665Y-12796396D02*
X10249665Y-12836396D01*
X10249836Y-7483283D02*
X10289836Y-7523283D01*
X10289836Y-7483283D02*
X10249836Y-7523283D01*
X10257000Y-9399000D02*
X10297000Y-9439000D01*
X10297000Y-9399000D02*
X10257000Y-9439000D01*
X10282000Y-8790000D02*
X10322000Y-8830000D01*
X10322000Y-8790000D02*
X10282000Y-8830000D01*
X10339000Y-10697000D02*
X10379000Y-10737000D01*
X10379000Y-10697000D02*
X10339000Y-10737000D01*
X10340000Y-12368000D02*
X10380000Y-12408000D01*
X10380000Y-12368000D02*
X10340000Y-12408000D01*
X10340000Y-12591000D02*
X10380000Y-12631000D01*
X10380000Y-12591000D02*
X10340000Y-12631000D01*
X10358000Y-11201000D02*
X10398000Y-11241000D01*
X10398000Y-11201000D02*
X10358000Y-11241000D01*
X10369000Y-8090000D02*
X10409000Y-8130000D01*
X10409000Y-8090000D02*
X10369000Y-8130000D01*
X10420000Y-10385000D02*
X10460000Y-10425000D01*
X10460000Y-10385000D02*
X10420000Y-10425000D01*
X10428000Y-7409000D02*
X10468000Y-7449000D01*
X10468000Y-7409000D02*
X10428000Y-7449000D01*
X10458000Y-13156000D02*
X10498000Y-13196000D01*
X10498000Y-13156000D02*
X10458000Y-13196000D01*
X10461000Y-7663000D02*
X10501000Y-7703000D01*
X10501000Y-7663000D02*
X10461000Y-7703000D01*
X10506730Y-7130051D02*
X10546730Y-7170051D01*
X10546730Y-7130051D02*
X10506730Y-7170051D01*
X10527299Y-12984047D02*
X10567299Y-13024047D01*
X10567299Y-12984047D02*
X10527299Y-13024047D01*
X10533970Y-13270764D02*
X10573970Y-13310764D01*
X10573970Y-13270764D02*
X10533970Y-13310764D01*
X10534172Y-7008933D02*
X10574172Y-7048933D01*
X10574172Y-7008933D02*
X10534172Y-7048933D01*
X10547853Y-9793170D02*
X10587853Y-9833170D01*
X10587853Y-9793170D02*
X10547853Y-9833170D01*
X10581326Y-10073081D02*
X10621326Y-10113081D01*
X10621326Y-10073081D02*
X10581326Y-10113081D01*
X10607000Y-6895000D02*
X10647000Y-6935000D01*
X10647000Y-6895000D02*
X10607000Y-6935000D01*
X10635274Y-13342246D02*
X10675274Y-13382246D01*
X10675274Y-13342246D02*
X10635274Y-13382246D01*
X10666000Y-12404000D02*
X10706000Y-12444000D01*
X10706000Y-12404000D02*
X10666000Y-12444000D01*
X10674000Y-7862000D02*
X10714000Y-7902000D01*
X10714000Y-7862000D02*
X10674000Y-7902000D01*
X10677000Y-8382000D02*
X10717000Y-8422000D01*
X10717000Y-8382000D02*
X10677000Y-8422000D01*
X10678666Y-10173000D02*
X10718666Y-10213000D01*
X10718666Y-10173000D02*
X10678666Y-10213000D01*
X10681312Y-10071358D02*
X10721312Y-10111358D01*
X10721312Y-10071358D02*
X10681312Y-10111358D01*
X10683000Y-7581000D02*
X10723000Y-7621000D01*
X10723000Y-7581000D02*
X10683000Y-7621000D01*
X10683000Y-12966000D02*
X10723000Y-13006000D01*
X10723000Y-12966000D02*
X10683000Y-13006000D01*
X10686000Y-10869000D02*
X10726000Y-10909000D01*
X10726000Y-10869000D02*
X10686000Y-10909000D01*
X10699570Y-10272783D02*
X10739570Y-10312783D01*
X10739570Y-10272783D02*
X10699570Y-10312783D01*
X10720000Y-8157000D02*
X10760000Y-8197000D01*
X10760000Y-8157000D02*
X10720000Y-8197000D01*
X10731000Y-9056000D02*
X10771000Y-9096000D01*
X10771000Y-9056000D02*
X10731000Y-9096000D01*
X10731000Y-12149000D02*
X10771000Y-12189000D01*
X10771000Y-12149000D02*
X10731000Y-12189000D01*
X10732000Y-11929000D02*
X10772000Y-11969000D01*
X10772000Y-11929000D02*
X10732000Y-11969000D01*
X10733000Y-7167000D02*
X10773000Y-7207000D01*
X10773000Y-7167000D02*
X10733000Y-7207000D01*
X10777399Y-10335534D02*
X10817399Y-10375534D01*
X10817399Y-10335534D02*
X10777399Y-10375534D01*
X10778245Y-10182161D02*
X10818245Y-10222161D01*
X10818245Y-10182161D02*
X10778245Y-10222161D01*
X10789447Y-6888072D02*
X10829447Y-6928072D01*
X10829447Y-6888072D02*
X10789447Y-6928072D01*
X10863402Y-13714982D02*
X10903402Y-13754982D01*
X10903402Y-13714982D02*
X10863402Y-13754982D01*
X10863633Y-6564736D02*
X10903633Y-6604736D01*
X10903633Y-6564736D02*
X10863633Y-6604736D01*
X10866687Y-10135682D02*
X10906687Y-10175682D01*
X10906687Y-10135682D02*
X10866687Y-10175682D01*
X10869051Y-10375534D02*
X10909051Y-10415534D01*
X10909051Y-10375534D02*
X10869051Y-10415534D01*
X10873004Y-9850009D02*
X10913004Y-9890009D01*
X10913004Y-9850009D02*
X10873004Y-9890009D01*
X10912000Y-13332000D02*
X10952000Y-13372000D01*
X10952000Y-13332000D02*
X10912000Y-13372000D01*
X10923000Y-9370000D02*
X10963000Y-9410000D01*
X10963000Y-9370000D02*
X10923000Y-9410000D01*
X10960670Y-10415610D02*
X11000670Y-10455610D01*
X11000670Y-10415610D02*
X10960670Y-10455610D01*
X10970076Y-9873810D02*
X11010076Y-9913810D01*
X11010076Y-9873810D02*
X10970076Y-9913810D01*
X10982000Y-10755610D02*
X11022000Y-10795610D01*
X11022000Y-10755610D02*
X10982000Y-10795610D01*
X10982000Y-10861000D02*
X11022000Y-10901000D01*
X11022000Y-10861000D02*
X10982000Y-10901000D01*
X10983000Y-13108000D02*
X11023000Y-13148000D01*
X11023000Y-13108000D02*
X10983000Y-13148000D01*
X11021614Y-10494781D02*
X11061614Y-10534781D01*
X11061614Y-10494781D02*
X11021614Y-10534781D01*
X11053000Y-6529000D02*
X11093000Y-6569000D01*
X11093000Y-6529000D02*
X11053000Y-6569000D01*
X11114000Y-10939000D02*
X11154000Y-10979000D01*
X11154000Y-10939000D02*
X11114000Y-10979000D01*
X11117000Y-9800400D02*
X11157000Y-9840400D01*
X11157000Y-9800400D02*
X11117000Y-9840400D01*
X11121611Y-10495610D02*
X11161611Y-10535610D01*
X11161611Y-10495610D02*
X11121611Y-10535610D01*
X11138000Y-14023000D02*
X11178000Y-14063000D01*
X11178000Y-14023000D02*
X11138000Y-14063000D01*
X11151000Y-11279000D02*
X11191000Y-11319000D01*
X11191000Y-11279000D02*
X11151000Y-11319000D01*
X11163000Y-13346000D02*
X11203000Y-13386000D01*
X11203000Y-13346000D02*
X11163000Y-13386000D01*
X11166000Y-6747000D02*
X11206000Y-6787000D01*
X11206000Y-6747000D02*
X11166000Y-6787000D01*
X11170092Y-13846976D02*
X11210092Y-13886976D01*
X11210092Y-13846976D02*
X11170092Y-13886976D01*
X11180000Y-13649000D02*
X11220000Y-13689000D01*
X11220000Y-13649000D02*
X11180000Y-13689000D01*
X11181361Y-6266114D02*
X11221361Y-6306114D01*
X11221361Y-6266114D02*
X11181361Y-6306114D01*
X11234789Y-14124771D02*
X11274789Y-14164771D01*
X11274789Y-14124771D02*
X11234789Y-14164771D01*
X11235046Y-6154971D02*
X11275046Y-6194971D01*
X11275046Y-6154971D02*
X11235046Y-6194971D01*
X11255000Y-9160000D02*
X11295000Y-9200000D01*
X11295000Y-9160000D02*
X11255000Y-9200000D01*
X11301000Y-8778000D02*
X11341000Y-8818000D01*
X11341000Y-8778000D02*
X11301000Y-8818000D01*
X11333000Y-6054000D02*
X11373000Y-6094000D01*
X11373000Y-6054000D02*
X11333000Y-6094000D01*
X11348030Y-14175132D02*
X11388030Y-14215132D01*
X11388030Y-14175132D02*
X11348030Y-14215132D01*
X11363000Y-6505000D02*
X11403000Y-6545000D01*
X11403000Y-6505000D02*
X11363000Y-6545000D01*
X11391261Y-9537292D02*
X11431261Y-9577292D01*
X11431261Y-9537292D02*
X11391261Y-9577292D01*
X11410000Y-13916000D02*
X11450000Y-13956000D01*
X11450000Y-13916000D02*
X11410000Y-13956000D01*
X11504000Y-11279000D02*
X11544000Y-11319000D01*
X11544000Y-11279000D02*
X11504000Y-11319000D01*
X11511814Y-6088782D02*
X11551814Y-6128782D01*
X11551814Y-6088782D02*
X11511814Y-6128782D01*
X11606000Y-10283000D02*
X11646000Y-10323000D01*
X11646000Y-10283000D02*
X11606000Y-10323000D01*
X11633000Y-14276000D02*
X11673000Y-14316000D01*
X11673000Y-14276000D02*
X11633000Y-14316000D01*
X11641000Y-14139000D02*
X11681000Y-14179000D01*
X11681000Y-14139000D02*
X11641000Y-14179000D01*
X11644553Y-14496185D02*
X11684553Y-14536185D01*
X11684553Y-14496185D02*
X11644553Y-14536185D01*
X11644835Y-5783584D02*
X11684835Y-5823584D01*
X11684835Y-5783584D02*
X11644835Y-5823584D01*
X11713000Y-8887000D02*
X11753000Y-8927000D01*
X11753000Y-8887000D02*
X11713000Y-8927000D01*
X11713000Y-11098000D02*
X11753000Y-11138000D01*
X11753000Y-11098000D02*
X11713000Y-11138000D01*
X11727000Y-6105000D02*
X11767000Y-6145000D01*
X11767000Y-6105000D02*
X11727000Y-6145000D01*
X11750000Y-13928000D02*
X11790000Y-13968000D01*
X11790000Y-13928000D02*
X11750000Y-13968000D01*
X11802000Y-5786000D02*
X11842000Y-5826000D01*
X11842000Y-5786000D02*
X11802000Y-5826000D01*
X11803000Y-11279000D02*
X11843000Y-11319000D01*
X11843000Y-11279000D02*
X11803000Y-11319000D01*
X11809000Y-10889000D02*
X11849000Y-10929000D01*
X11849000Y-10889000D02*
X11809000Y-10929000D01*
X11894626Y-10675610D02*
X11934626Y-10715610D01*
X11934626Y-10675610D02*
X11894626Y-10715610D01*
X11916000Y-14149000D02*
X11956000Y-14189000D01*
X11956000Y-14149000D02*
X11916000Y-14189000D01*
X11925000Y-9631000D02*
X11965000Y-9671000D01*
X11965000Y-9631000D02*
X11925000Y-9671000D01*
X11936000Y-5908000D02*
X11976000Y-5948000D01*
X11976000Y-5908000D02*
X11936000Y-5948000D01*
X11969623Y-14567910D02*
X12009623Y-14607910D01*
X12009623Y-14567910D02*
X11969623Y-14607910D01*
X11973000Y-14747000D02*
X12013000Y-14787000D01*
X12013000Y-14747000D02*
X11973000Y-14787000D01*
X12014520Y-11051860D02*
X12054520Y-11091860D01*
X12054520Y-11051860D02*
X12014520Y-11091860D01*
X12017583Y-5555468D02*
X12057583Y-5595467D01*
X12057583Y-5555468D02*
X12017583Y-5595467D01*
X12020000Y-11432000D02*
X12060000Y-11472000D01*
X12060000Y-11432000D02*
X12020000Y-11472000D01*
X12023000Y-14403000D02*
X12063000Y-14443000D01*
X12063000Y-14403000D02*
X12023000Y-14443000D01*
X12036000Y-10299000D02*
X12076000Y-10339000D01*
X12076000Y-10299000D02*
X12036000Y-10339000D01*
X12037000Y-10862000D02*
X12077000Y-10902000D01*
X12077000Y-10862000D02*
X12037000Y-10902000D01*
X12088750Y-14825646D02*
X12128750Y-14865646D01*
X12128750Y-14825646D02*
X12088750Y-14865646D01*
X12089053Y-5454152D02*
X12129053Y-5494152D01*
X12129053Y-5454152D02*
X12089053Y-5494152D01*
X12118000Y-9436000D02*
X12158000Y-9476000D01*
X12158000Y-9436000D02*
X12118000Y-9476000D01*
X12161000Y-10574000D02*
X12201000Y-10614000D01*
X12201000Y-10574000D02*
X12161000Y-10614000D01*
X12204000Y-5384000D02*
X12244000Y-5424000D01*
X12244000Y-5384000D02*
X12204000Y-5424000D01*
X12207601Y-14858012D02*
X12247601Y-14898012D01*
X12247601Y-14858012D02*
X12207601Y-14898012D01*
X12209000Y-9616000D02*
X12249000Y-9656000D01*
X12249000Y-9616000D02*
X12209000Y-9656000D01*
X12227932Y-14709294D02*
X12267932Y-14749294D01*
X12267932Y-14709294D02*
X12227932Y-14749294D01*
X12235000Y-5669000D02*
X12275000Y-5709000D01*
X12275000Y-5669000D02*
X12235000Y-5709000D01*
X12345000Y-14599000D02*
X12385000Y-14639000D01*
X12385000Y-14599000D02*
X12345000Y-14639000D01*
X12374067Y-5444791D02*
X12414067Y-5484791D01*
X12414067Y-5444791D02*
X12374067Y-5484791D01*
X12400000Y-10426000D02*
X12440000Y-10466000D01*
X12440000Y-10426000D02*
X12400000Y-10466000D01*
X12483000Y-14952000D02*
X12523000Y-14992000D01*
X12523000Y-14952000D02*
X12483000Y-14992000D01*
X12563101Y-15109981D02*
X12603101Y-15149981D01*
X12603101Y-15109981D02*
X12563101Y-15149981D01*
X12563422Y-5169847D02*
X12603422Y-5209847D01*
X12603422Y-5169847D02*
X12563422Y-5209847D01*
X12775000Y-5362000D02*
X12815000Y-5402000D01*
X12815000Y-5362000D02*
X12775000Y-5402000D01*
X12886000Y-14965000D02*
X12926000Y-15005000D01*
X12926000Y-14965000D02*
X12886000Y-15005000D01*
X12893740Y-15121822D02*
X12933740Y-15161822D01*
X12933740Y-15121822D02*
X12893740Y-15161822D01*
X12935000Y-15292000D02*
X12975000Y-15332000D01*
X12975000Y-15292000D02*
X12935000Y-15332000D01*
X12973501Y-5018760D02*
X13013501Y-5058760D01*
X13013501Y-5018760D02*
X12973501Y-5058760D01*
X13063037Y-15346453D02*
X13103037Y-15386453D01*
X13103037Y-15346453D02*
X13063037Y-15386453D01*
X13063373Y-4933407D02*
X13103373Y-4973407D01*
X13103373Y-4933407D02*
X13063373Y-4973407D01*
X13102000Y-15064000D02*
X13142000Y-15104000D01*
X13142000Y-15064000D02*
X13102000Y-15104000D01*
X13144000Y-5139000D02*
X13184000Y-5179000D01*
X13184000Y-5139000D02*
X13144000Y-5179000D01*
X13154000Y-15193000D02*
X13194000Y-15233000D01*
X13194000Y-15193000D02*
X13154000Y-15233000D01*
X13186979Y-15349629D02*
X13226979Y-15389629D01*
X13226979Y-15349629D02*
X13186979Y-15389629D01*
X13193000Y-4885000D02*
X13233000Y-4925000D01*
X13233000Y-4885000D02*
X13193000Y-4925000D01*
X13199350Y-5446350D02*
X13239350Y-5486350D01*
X13239350Y-5446350D02*
X13199350Y-5486350D01*
X13342296Y-4973500D02*
X13382296Y-5013500D01*
X13382296Y-4973500D02*
X13342296Y-5013500D01*
X13370000Y-15171000D02*
X13410000Y-15211000D01*
X13410000Y-15171000D02*
X13370000Y-15211000D01*
X13438650Y-5183650D02*
X13478650Y-5223650D01*
X13478650Y-5183650D02*
X13438650Y-5223650D01*
X13511000Y-15312000D02*
X13551000Y-15352000D01*
X13551000Y-15312000D02*
X13511000Y-15352000D01*
X13531000Y-10424000D02*
X13571000Y-10464000D01*
X13571000Y-10424000D02*
X13531000Y-10464000D01*
X13583744Y-15532784D02*
X13623744Y-15572784D01*
X13623744Y-15532784D02*
X13583744Y-15572784D01*
X13584093Y-4747110D02*
X13624093Y-4787110D01*
X13624093Y-4747110D02*
X13584093Y-4787110D01*
X13595650Y-5026650D02*
X13635650Y-5066650D01*
X13635650Y-5026650D02*
X13595650Y-5066650D01*
X13779000Y-15301000D02*
X13819000Y-15341000D01*
X13819000Y-15301000D02*
X13779000Y-15341000D01*
X13911936Y-15471722D02*
X13951936Y-15511722D01*
X13951936Y-15471722D02*
X13911936Y-15511722D01*
X13982000Y-15652000D02*
X14022000Y-15692000D01*
X14022000Y-15652000D02*
X13982000Y-15692000D01*
X14013786Y-4679399D02*
X14053786Y-4719399D01*
X14053786Y-4679399D02*
X14013786Y-4719399D01*
X14108000Y-15395000D02*
X14148000Y-15435000D01*
X14148000Y-15395000D02*
X14108000Y-15435000D01*
X14120207Y-15667180D02*
X14160207Y-15707180D01*
X14160207Y-15667180D02*
X14120207Y-15707180D01*
X14120565Y-4612749D02*
X14160565Y-4652749D01*
X14160565Y-4612749D02*
X14120565Y-4652749D01*
X14167000Y-4850000D02*
X14207000Y-4890000D01*
X14207000Y-4850000D02*
X14167000Y-4890000D01*
X14193000Y-15513000D02*
X14233000Y-15553000D01*
X14233000Y-15513000D02*
X14193000Y-15553000D01*
X14242386Y-15646095D02*
X14282386Y-15686095D01*
X14282386Y-15646095D02*
X14242386Y-15686095D01*
X14255000Y-4583000D02*
X14295000Y-4623000D01*
X14295000Y-4583000D02*
X14255000Y-4623000D01*
X14389948Y-4703337D02*
X14429948Y-4743337D01*
X14429948Y-4703337D02*
X14389948Y-4743337D01*
X14406000Y-15418000D02*
X14446000Y-15458000D01*
X14446000Y-15418000D02*
X14406000Y-15458000D01*
X14533000Y-15599000D02*
X14573000Y-15639000D01*
X14573000Y-15599000D02*
X14533000Y-15639000D01*
X14646000Y-10449000D02*
X14686000Y-10489000D01*
X14686000Y-10449000D02*
X14646000Y-10489000D01*
X14667261Y-15748345D02*
X14707261Y-15788345D01*
X14707261Y-15748345D02*
X14667261Y-15788345D01*
X14667623Y-4531619D02*
X14707623Y-4571619D01*
X14707623Y-4531619D02*
X14667623Y-4571619D01*
X14791000Y-4796000D02*
X14831000Y-4836000D01*
X14831000Y-4796000D02*
X14791000Y-4836000D01*
X14799000Y-4616000D02*
X14839000Y-4656000D01*
X14839000Y-4616000D02*
X14799000Y-4656000D01*
X14843000Y-15441000D02*
X14883000Y-15481000D01*
X14883000Y-15441000D02*
X14843000Y-15481000D01*
X14941000Y-4906000D02*
X14981000Y-4946000D01*
X14981000Y-4906000D02*
X14941000Y-4946000D01*
X14977421Y-15626314D02*
X15017421Y-15666314D01*
X15017421Y-15626314D02*
X14977421Y-15666314D01*
X15039000Y-15805000D02*
X15079000Y-15845000D01*
X15079000Y-15805000D02*
X15039000Y-15845000D01*
X15111000Y-4791000D02*
X15151000Y-4831000D01*
X15151000Y-4791000D02*
X15111000Y-4831000D01*
X15139000Y-15502000D02*
X15179000Y-15542000D01*
X15179000Y-15502000D02*
X15139000Y-15542000D01*
X15219635Y-15775500D02*
X15259635Y-15815500D01*
X15259635Y-15775500D02*
X15219635Y-15815500D01*
X15220000Y-4504500D02*
X15260000Y-4544500D01*
X15260000Y-4504500D02*
X15220000Y-4544500D01*
X15261000Y-15608000D02*
X15301000Y-15648000D01*
X15301000Y-15608000D02*
X15261000Y-15648000D01*
X15315000Y-15390000D02*
X15355000Y-15430000D01*
X15355000Y-15390000D02*
X15315000Y-15430000D01*
X15337532Y-15730956D02*
X15377532Y-15770956D01*
X15377532Y-15730956D02*
X15337532Y-15770956D01*
X15359000Y-4508000D02*
X15399000Y-4548000D01*
X15399000Y-4508000D02*
X15359000Y-4548000D01*
X15492000Y-4824000D02*
X15532000Y-4864000D01*
X15532000Y-4824000D02*
X15492000Y-4864000D01*
X15571000Y-15398000D02*
X15611000Y-15438000D01*
X15611000Y-15398000D02*
X15571000Y-15438000D01*
X15609000Y-15621000D02*
X15649000Y-15661000D01*
X15649000Y-15621000D02*
X15609000Y-15661000D01*
X15772012Y-15748381D02*
X15812012Y-15788381D01*
X15812012Y-15748381D02*
X15772012Y-15788381D01*
X15772375Y-4531654D02*
X15812375Y-4571654D01*
X15812375Y-4531654D02*
X15772375Y-4571654D01*
X15861000Y-10432000D02*
X15901000Y-10472000D01*
X15901000Y-10432000D02*
X15861000Y-10472000D01*
X15890000Y-4638000D02*
X15930000Y-4678000D01*
X15930000Y-4638000D02*
X15890000Y-4678000D01*
X15899000Y-15439000D02*
X15939000Y-15479000D01*
X15939000Y-15439000D02*
X15899000Y-15479000D01*
X15970000Y-4857000D02*
X16010000Y-4897000D01*
X16010000Y-4857000D02*
X15970000Y-4897000D01*
X16052496Y-15568698D02*
X16092496Y-15608698D01*
X16092496Y-15568698D02*
X16052496Y-15608698D01*
X16166000Y-4625000D02*
X16206000Y-4665000D01*
X16206000Y-4625000D02*
X16166000Y-4665000D01*
X16182000Y-15693000D02*
X16222000Y-15733000D01*
X16222000Y-15693000D02*
X16182000Y-15733000D01*
X16218000Y-15402000D02*
X16258000Y-15442000D01*
X16258000Y-15402000D02*
X16218000Y-15442000D01*
X16319070Y-15667251D02*
X16359070Y-15707251D01*
X16359070Y-15667251D02*
X16319070Y-15707251D01*
X16319428Y-4612820D02*
X16359428Y-4652820D01*
X16359428Y-4612820D02*
X16319428Y-4652820D01*
X16333150Y-15498698D02*
X16373150Y-15538698D01*
X16373150Y-15498698D02*
X16333150Y-15538698D01*
X16423883Y-15601022D02*
X16463883Y-15641022D01*
X16463883Y-15601022D02*
X16423883Y-15641022D01*
X16453000Y-4654000D02*
X16493000Y-4694000D01*
X16493000Y-4654000D02*
X16453000Y-4694000D01*
X16521893Y-4826156D02*
X16561893Y-4866156D01*
X16561893Y-4826156D02*
X16521893Y-4866156D01*
X16691000Y-15496000D02*
X16731000Y-15536000D01*
X16731000Y-15496000D02*
X16691000Y-15536000D01*
X16834000Y-4976000D02*
X16874000Y-5016000D01*
X16874000Y-4976000D02*
X16834000Y-5016000D01*
X16855542Y-15532890D02*
X16895542Y-15572890D01*
X16895542Y-15532890D02*
X16855542Y-15572890D01*
X16855891Y-4747216D02*
X16895891Y-4787216D01*
X16895891Y-4747216D02*
X16855891Y-4787216D01*
X16966000Y-4877000D02*
X17006000Y-4917000D01*
X17006000Y-4877000D02*
X16966000Y-4917000D01*
X16978000Y-15204000D02*
X17018000Y-15244000D01*
X17018000Y-15204000D02*
X16978000Y-15244000D01*
X17071000Y-5115000D02*
X17111000Y-5155000D01*
X17111000Y-5115000D02*
X17071000Y-5155000D01*
X17095964Y-15302928D02*
X17135964Y-15342928D01*
X17135964Y-15302928D02*
X17095964Y-15342928D01*
X17126000Y-10432000D02*
X17166000Y-10472000D01*
X17166000Y-10432000D02*
X17126000Y-10472000D01*
X17227000Y-4919000D02*
X17267000Y-4959000D01*
X17267000Y-4919000D02*
X17227000Y-4959000D01*
X17231000Y-15127000D02*
X17271000Y-15167000D01*
X17271000Y-15127000D02*
X17231000Y-15167000D01*
X17248000Y-15396000D02*
X17288000Y-15436000D01*
X17288000Y-15396000D02*
X17248000Y-15436000D01*
X17367998Y-14999000D02*
X17407998Y-15039000D01*
X17407998Y-14999000D02*
X17367998Y-15039000D01*
X17376262Y-15346593D02*
X17416262Y-15386593D01*
X17416262Y-15346593D02*
X17376262Y-15386593D01*
X17376599Y-4933547D02*
X17416599Y-4973547D01*
X17416599Y-4933547D02*
X17376599Y-4973547D01*
X17411000Y-15132000D02*
X17451000Y-15172000D01*
X17451000Y-15132000D02*
X17411000Y-15172000D01*
X17467722Y-15263433D02*
X17507722Y-15303433D01*
X17507722Y-15263433D02*
X17467722Y-15303433D01*
X17505000Y-4994000D02*
X17545000Y-5034000D01*
X17545000Y-4994000D02*
X17505000Y-5034000D01*
X17535876Y-5178912D02*
X17575876Y-5218912D01*
X17575876Y-5178912D02*
X17535876Y-5218912D01*
X17671000Y-15019000D02*
X17711000Y-15059000D01*
X17711000Y-15019000D02*
X17671000Y-15059000D01*
X17787000Y-5375000D02*
X17827000Y-5415000D01*
X17827000Y-5375000D02*
X17787000Y-5415000D01*
X17827650Y-10198350D02*
X17867650Y-10238350D01*
X17867650Y-10198350D02*
X17827650Y-10238350D01*
X17876213Y-15110153D02*
X17916213Y-15150153D01*
X17916213Y-15110153D02*
X17876213Y-15150153D01*
X17876535Y-5170019D02*
X17916535Y-5210019D01*
X17916535Y-5170019D02*
X17876535Y-5210019D01*
X17949000Y-5315000D02*
X17989000Y-5355000D01*
X17989000Y-5315000D02*
X17949000Y-5355000D01*
X17971000Y-10531000D02*
X18011000Y-10571000D01*
X18011000Y-10531000D02*
X17971000Y-10571000D01*
X18066369Y-14836469D02*
X18106369Y-14876469D01*
X18106369Y-14836469D02*
X18066369Y-14876469D01*
X18129660Y-10109340D02*
X18169660Y-10149340D01*
X18169660Y-10109340D02*
X18129660Y-10149340D01*
X18165000Y-5648000D02*
X18205000Y-5688000D01*
X18205000Y-5648000D02*
X18165000Y-5688000D01*
X18204660Y-10184340D02*
X18244660Y-10224340D01*
X18244660Y-10184340D02*
X18204660Y-10224340D01*
X18212000Y-5411000D02*
X18252000Y-5451000D01*
X18252000Y-5411000D02*
X18212000Y-5451000D01*
X18239000Y-14897000D02*
X18279000Y-14937000D01*
X18279000Y-14897000D02*
X18239000Y-14937000D01*
X18278656Y-10258336D02*
X18318656Y-10298336D01*
X18318656Y-10258336D02*
X18278656Y-10298336D01*
X18300179Y-14658082D02*
X18340179Y-14698082D01*
X18340179Y-14658082D02*
X18300179Y-14698082D01*
X18315000Y-11115000D02*
X18355000Y-11155000D01*
X18355000Y-11115000D02*
X18315000Y-11155000D01*
X18317000Y-9743000D02*
X18357000Y-9783000D01*
X18357000Y-9743000D02*
X18317000Y-9783000D01*
X18321000Y-9022000D02*
X18361000Y-9062000D01*
X18361000Y-9022000D02*
X18321000Y-9062000D01*
X18350582Y-14825848D02*
X18390582Y-14865848D01*
X18390582Y-14825848D02*
X18350582Y-14865848D01*
X18350885Y-5454354D02*
X18390885Y-5494354D01*
X18390885Y-5454354D02*
X18350885Y-5494354D01*
X18403000Y-11474000D02*
X18443000Y-11514000D01*
X18443000Y-11474000D02*
X18403000Y-11514000D01*
X18426000Y-14728000D02*
X18466000Y-14768000D01*
X18466000Y-14728000D02*
X18426000Y-14768000D01*
X18453247Y-5731837D02*
X18493247Y-5771837D01*
X18493247Y-5731837D02*
X18453247Y-5771837D01*
X18461000Y-5535000D02*
X18501000Y-5575000D01*
X18501000Y-5535000D02*
X18461000Y-5575000D01*
X18482000Y-14403000D02*
X18522000Y-14443000D01*
X18522000Y-14403000D02*
X18482000Y-14443000D01*
X18496000Y-5927000D02*
X18536000Y-5967000D01*
X18536000Y-5927000D02*
X18496000Y-5967000D01*
X18565000Y-8758000D02*
X18605000Y-8798000D01*
X18605000Y-8758000D02*
X18565000Y-8798000D01*
X18587000Y-14482000D02*
X18627000Y-14522000D01*
X18627000Y-14482000D02*
X18587000Y-14522000D01*
X18711346Y-10722443D02*
X18751346Y-10762443D01*
X18751346Y-10722443D02*
X18711346Y-10762443D01*
X18736000Y-14155000D02*
X18776000Y-14195000D01*
X18776000Y-14155000D02*
X18736000Y-14195000D01*
X18738641Y-10818646D02*
X18778641Y-10858646D01*
X18778641Y-10818646D02*
X18738641Y-10858646D01*
X18746000Y-6220000D02*
X18786000Y-6260000D01*
X18786000Y-6220000D02*
X18746000Y-6260000D01*
X18775912Y-10645907D02*
X18815912Y-10685907D01*
X18815912Y-10645907D02*
X18775912Y-10685907D01*
X18794800Y-14496416D02*
X18834800Y-14536416D01*
X18834800Y-14496416D02*
X18794800Y-14536416D01*
X18795082Y-5783815D02*
X18835082Y-5823815D01*
X18835082Y-5783815D02*
X18795082Y-5823815D01*
X18810096Y-10889620D02*
X18850096Y-10929620D01*
X18850096Y-10889620D02*
X18810096Y-10929620D01*
X18834000Y-5941000D02*
X18874000Y-5981000D01*
X18874000Y-5941000D02*
X18834000Y-5981000D01*
X18909000Y-11454000D02*
X18949000Y-11494000D01*
X18949000Y-11454000D02*
X18909000Y-11494000D01*
X18920000Y-6280000D02*
X18960000Y-6320000D01*
X18960000Y-6280000D02*
X18920000Y-6320000D01*
X18921000Y-13965000D02*
X18961000Y-14005000D01*
X18961000Y-13965000D02*
X18921000Y-14005000D01*
X18927905Y-14190890D02*
X18967905Y-14230890D01*
X18967905Y-14190890D02*
X18927905Y-14230890D01*
X19076526Y-9977898D02*
X19116526Y-10017898D01*
X19116526Y-9977898D02*
X19076526Y-10017898D01*
X19080000Y-6090000D02*
X19120000Y-6130000D01*
X19120000Y-6090000D02*
X19080000Y-6130000D01*
X19081000Y-9325380D02*
X19121000Y-9365380D01*
X19121000Y-9325380D02*
X19081000Y-9365380D01*
X19081874Y-13948521D02*
X19121874Y-13988521D01*
X19121874Y-13948521D02*
X19081874Y-13988521D01*
X19101000Y-14216000D02*
X19141000Y-14256000D01*
X19141000Y-14216000D02*
X19101000Y-14256000D01*
X19157000Y-9915000D02*
X19197000Y-9955000D01*
X19197000Y-9915000D02*
X19157000Y-9955000D01*
X19198000Y-9510000D02*
X19238000Y-9550000D01*
X19238000Y-9510000D02*
X19198000Y-9550000D01*
X19199000Y-9762000D02*
X19239000Y-9802000D01*
X19239000Y-9762000D02*
X19199000Y-9802000D01*
X19204589Y-14125029D02*
X19244589Y-14165029D01*
X19244589Y-14125029D02*
X19204589Y-14165029D01*
X19204847Y-6155229D02*
X19244847Y-6195229D01*
X19244847Y-6155229D02*
X19204847Y-6195229D01*
X19212910Y-10429215D02*
X19252910Y-10469215D01*
X19252910Y-10429215D02*
X19212910Y-10469215D01*
X19250260Y-11019880D02*
X19290260Y-11059880D01*
X19290260Y-11019880D02*
X19250260Y-11059880D01*
X19252066Y-6446742D02*
X19292066Y-6486742D01*
X19292066Y-6446742D02*
X19252066Y-6486742D01*
X19263223Y-10639223D02*
X19303223Y-10679223D01*
X19303223Y-10639223D02*
X19263223Y-10679223D01*
X19265000Y-14015000D02*
X19305000Y-14055000D01*
X19305000Y-14015000D02*
X19265000Y-14055000D01*
X19283621Y-10358505D02*
X19323621Y-10398505D01*
X19323621Y-10358505D02*
X19283621Y-10398505D01*
X19300000Y-6258000D02*
X19340000Y-6298000D01*
X19340000Y-6258000D02*
X19300000Y-6298000D01*
X19339000Y-13709000D02*
X19379000Y-13749000D01*
X19379000Y-13709000D02*
X19339000Y-13749000D01*
X19390000Y-11158000D02*
X19430000Y-11198000D01*
X19430000Y-11158000D02*
X19390000Y-11198000D01*
X19396000Y-11548000D02*
X19436000Y-11588000D01*
X19436000Y-11548000D02*
X19396000Y-11588000D01*
X19442525Y-9979435D02*
X19482525Y-10019435D01*
X19482525Y-9979435D02*
X19442525Y-10019435D01*
X19499000Y-6915000D02*
X19539000Y-6955000D01*
X19539000Y-6915000D02*
X19499000Y-6955000D01*
X19513000Y-10050380D02*
X19553000Y-10090380D01*
X19553000Y-10050380D02*
X19513000Y-10090380D01*
X19523000Y-10150131D02*
X19563000Y-10190131D01*
X19563000Y-10150131D02*
X19523000Y-10190131D01*
X19572000Y-11046000D02*
X19612000Y-11086000D01*
X19612000Y-11046000D02*
X19572000Y-11086000D01*
X19576002Y-13715264D02*
X19616002Y-13755264D01*
X19616002Y-13715264D02*
X19576002Y-13755264D01*
X19576234Y-6565018D02*
X19616234Y-6605018D01*
X19616234Y-6565018D02*
X19576234Y-6605018D01*
X19582000Y-6731000D02*
X19622000Y-6771000D01*
X19622000Y-6731000D02*
X19582000Y-6771000D01*
X19642000Y-9234000D02*
X19682000Y-9274000D01*
X19682000Y-9234000D02*
X19642000Y-9274000D01*
X19642000Y-11120566D02*
X19682000Y-11160566D01*
X19682000Y-11120566D02*
X19642000Y-11160566D01*
X19645538Y-13388650D02*
X19685538Y-13428650D01*
X19685538Y-13388650D02*
X19645538Y-13428650D01*
X19741990Y-11122007D02*
X19781990Y-11162007D01*
X19781990Y-11122007D02*
X19741990Y-11162007D01*
X19754823Y-6871419D02*
X19794823Y-6911419D01*
X19794823Y-6871419D02*
X19754823Y-6911419D01*
X19781042Y-11213963D02*
X19821042Y-11253963D01*
X19821042Y-11213963D02*
X19781042Y-11253963D01*
X19795597Y-13139597D02*
X19835597Y-13179597D01*
X19835597Y-13139597D02*
X19795597Y-13179597D01*
X19821000Y-13384000D02*
X19861000Y-13424000D01*
X19861000Y-13384000D02*
X19821000Y-13424000D01*
X19827000Y-9046000D02*
X19867000Y-9086000D01*
X19867000Y-9046000D02*
X19827000Y-9086000D01*
X19877000Y-10032000D02*
X19917000Y-10072000D01*
X19917000Y-10032000D02*
X19877000Y-10072000D01*
X19905463Y-13271068D02*
X19945463Y-13311068D01*
X19945463Y-13271068D02*
X19905463Y-13311068D01*
X19905666Y-7009236D02*
X19945666Y-7049236D01*
X19945666Y-7009236D02*
X19905666Y-7049236D01*
X19916051Y-7293598D02*
X19956051Y-7333598D01*
X19956051Y-7293598D02*
X19916051Y-7333598D01*
X19925000Y-12720000D02*
X19965000Y-12760000D01*
X19965000Y-12720000D02*
X19925000Y-12760000D01*
X19939000Y-10280000D02*
X19979000Y-10320000D01*
X19979000Y-10280000D02*
X19939000Y-10320000D01*
X19941000Y-13140000D02*
X19981000Y-13180000D01*
X19981000Y-13140000D02*
X19941000Y-13180000D01*
X19944000Y-7624000D02*
X19984000Y-7664000D01*
X19984000Y-7624000D02*
X19944000Y-7664000D01*
X19949000Y-11768000D02*
X19989000Y-11808000D01*
X19989000Y-11768000D02*
X19949000Y-11808000D01*
X19975000Y-7126000D02*
X20015000Y-7166000D01*
X20015000Y-7126000D02*
X19975000Y-7166000D01*
X19977000Y-9416000D02*
X20017000Y-9456000D01*
X20017000Y-9416000D02*
X19977000Y-9456000D01*
X19991000Y-12128000D02*
X20031000Y-12168000D01*
X20031000Y-12128000D02*
X19991000Y-12168000D01*
X19994000Y-8556000D02*
X20034000Y-8596000D01*
X20034000Y-8556000D02*
X19994000Y-8596000D01*
X20024000Y-10561000D02*
X20064000Y-10601000D01*
X20064000Y-10561000D02*
X20024000Y-10601000D01*
X20041000Y-12877000D02*
X20081000Y-12917000D01*
X20081000Y-12877000D02*
X20041000Y-12917000D01*
X20048000Y-8773000D02*
X20088000Y-8813000D01*
X20088000Y-8773000D02*
X20048000Y-8813000D01*
X20055000Y-7879000D02*
X20095000Y-7919000D01*
X20095000Y-7879000D02*
X20055000Y-7919000D01*
X20062500Y-7715500D02*
X20102500Y-7755500D01*
X20102500Y-7715500D02*
X20062500Y-7755500D01*
X20075000Y-11644000D02*
X20115000Y-11684000D01*
X20115000Y-11644000D02*
X20075000Y-11684000D01*
X20148000Y-12238000D02*
X20188000Y-12278000D01*
X20188000Y-12238000D02*
X20148000Y-12278000D01*
X20189799Y-12796717D02*
X20229799Y-12836717D01*
X20229799Y-12796717D02*
X20189799Y-12836717D01*
X20189971Y-7483604D02*
X20229971Y-7523604D01*
X20229971Y-7483604D02*
X20189971Y-7523604D01*
X20197007Y-12464022D02*
X20237007Y-12504022D01*
X20237007Y-12464022D02*
X20197007Y-12504022D01*
X20200000Y-9247000D02*
X20240000Y-9287000D01*
X20240000Y-9247000D02*
X20200000Y-9287000D01*
X20256000Y-11978000D02*
X20296000Y-12018000D01*
X20296000Y-11978000D02*
X20256000Y-12018000D01*
X20259000Y-11485000D02*
X20299000Y-11525000D01*
X20299000Y-11485000D02*
X20259000Y-11525000D01*
X20300567Y-12207567D02*
X20340567Y-12247567D01*
X20340567Y-12207567D02*
X20300567Y-12247567D01*
X20318000Y-8545000D02*
X20358000Y-8585000D01*
X20358000Y-8545000D02*
X20318000Y-8585000D01*
X20341000Y-7881000D02*
X20381000Y-7921000D01*
X20381000Y-7881000D02*
X20341000Y-7921000D01*
X20361000Y-12421000D02*
X20401000Y-12461000D01*
X20401000Y-12421000D02*
X20361000Y-12461000D01*
X20372697Y-8267691D02*
X20412697Y-8307691D01*
X20412697Y-8267691D02*
X20372697Y-8307691D01*
X20398000Y-11120000D02*
X20438000Y-11160000D01*
X20438000Y-11120000D02*
X20398000Y-11160000D01*
X20417000Y-10479000D02*
X20457000Y-10519000D01*
X20457000Y-10479000D02*
X20417000Y-10519000D01*
X20424000Y-8949000D02*
X20464000Y-8989000D01*
X20464000Y-8949000D02*
X20424000Y-8989000D01*
X20426271Y-12296781D02*
X20466271Y-12336781D01*
X20466271Y-12296781D02*
X20426271Y-12336781D01*
X20426410Y-7983556D02*
X20466410Y-8023556D01*
X20466410Y-7983556D02*
X20426410Y-8023556D01*
X20433532Y-12173597D02*
X20473532Y-12213597D01*
X20473532Y-12173597D02*
X20433532Y-12213597D01*
X20441000Y-9092000D02*
X20481000Y-9132000D01*
X20481000Y-9092000D02*
X20441000Y-9132000D01*
X20459000Y-11879000D02*
X20499000Y-11919000D01*
X20499000Y-11879000D02*
X20459000Y-11919000D01*
X20478000Y-8657000D02*
X20518000Y-8697000D01*
X20518000Y-8657000D02*
X20478000Y-8697000D01*
X20478000Y-9437000D02*
X20518000Y-9477000D01*
X20518000Y-9437000D02*
X20478000Y-9477000D01*
X20479000Y-8108000D02*
X20519000Y-8148000D01*
X20519000Y-8108000D02*
X20479000Y-8148000D01*
X20505000Y-10732000D02*
X20545000Y-10772000D01*
X20545000Y-10732000D02*
X20505000Y-10772000D01*
X20509000Y-10002000D02*
X20549000Y-10042000D01*
X20549000Y-10002000D02*
X20509000Y-10042000D01*
X20510000Y-10957000D02*
X20550000Y-10997000D01*
X20550000Y-10957000D02*
X20510000Y-10997000D01*
X20541000Y-9128793D02*
X20581000Y-9168793D01*
X20581000Y-9128793D02*
X20541000Y-9168793D01*
X20544237Y-11445954D02*
X20584237Y-11485954D01*
X20584237Y-11445954D02*
X20544237Y-11485954D01*
X20553000Y-10389000D02*
X20593000Y-10429000D01*
X20593000Y-10389000D02*
X20553000Y-10429000D01*
X20574000Y-11161000D02*
X20614000Y-11201000D01*
X20614000Y-11161000D02*
X20574000Y-11201000D01*
X20612602Y-11776074D02*
X20652602Y-11816074D01*
X20652602Y-11776074D02*
X20612602Y-11816074D01*
X20612708Y-8504275D02*
X20652708Y-8544275D01*
X20652708Y-8504275D02*
X20612708Y-8544275D01*
X20670826Y-10625356D02*
X20710826Y-10665356D01*
X20710826Y-10625356D02*
X20670826Y-10665356D01*
X20676893Y-8919124D02*
X20716893Y-8959124D01*
X20716893Y-8919124D02*
X20676893Y-8959124D01*
X20696596Y-10382110D02*
X20736596Y-10422110D01*
X20736596Y-10382110D02*
X20696596Y-10422110D01*
X20710000Y-11375000D02*
X20750000Y-11415000D01*
X20750000Y-11375000D02*
X20710000Y-11415000D01*
X20726508Y-11114058D02*
X20766508Y-11154058D01*
X20766508Y-11114058D02*
X20726508Y-11154058D01*
X20746997Y-11239610D02*
X20786997Y-11279610D01*
X20786997Y-11239610D02*
X20746997Y-11279610D01*
X20747069Y-9040747D02*
X20787069Y-9080747D01*
X20787069Y-9040747D02*
X20747069Y-9080747D01*
X20770000Y-9177000D02*
X20810000Y-9217000D01*
X20810000Y-9177000D02*
X20770000Y-9217000D01*
X20810465Y-10013919D02*
X20850465Y-10053919D01*
X20850465Y-10013919D02*
X20810465Y-10053919D01*
X20828163Y-10692557D02*
X20868163Y-10732557D01*
X20868163Y-10692557D02*
X20828163Y-10732557D01*
X20828199Y-9587806D02*
X20868199Y-9627806D01*
X20868199Y-9587806D02*
X20828199Y-9627806D01*
X20854000Y-10276000D02*
X20894000Y-10316000D01*
X20894000Y-10276000D02*
X20854000Y-10316000D01*
X20855318Y-10140182D02*
X20895318Y-10180182D01*
X20895318Y-10140182D02*
X20855318Y-10180182D01*
X11145356Y-8958580D02*
G75*
G03*
X11085356Y-8958580I-30000J0D01*
G01*
X11085356Y-8958580D02*
G75*
G03*
X11145356Y-8958580I30000J0D01*
G01*
X11145356Y-8998580D02*
X11145356Y-8918580D01*
X11145356Y-8918580D02*
G75*
G03*
X11085356Y-8918580I-30000J0D01*
G01*
X11085356Y-8918580D02*
X11085356Y-8998580D01*
X11085356Y-8998580D02*
G75*
G03*
X11145356Y-8998580I30000J0D01*
G01*
X11145356Y-9376580D02*
G75*
G03*
X11085356Y-9376580I-30000J0D01*
G01*
X11085356Y-9376580D02*
G75*
G03*
X11145356Y-9376580I30000J0D01*
G01*
X11145356Y-9431580D02*
X11145356Y-9321580D01*
X11145356Y-9321580D02*
G75*
G03*
X11085356Y-9321580I-30000J0D01*
G01*
X11085356Y-9321580D02*
X11085356Y-9431580D01*
X11085356Y-9431580D02*
G75*
G03*
X11145356Y-9431580I30000J0D01*
G01*
X12009356Y-8958580D02*
G75*
G03*
X11949356Y-8958580I-30000J0D01*
G01*
X11949356Y-8958580D02*
G75*
G03*
X12009356Y-8958580I30000J0D01*
G01*
X12009356Y-8998580D02*
X12009356Y-8918580D01*
X12009356Y-8918580D02*
G75*
G03*
X11949356Y-8918580I-30000J0D01*
G01*
X11949356Y-8918580D02*
X11949356Y-8998580D01*
X11949356Y-8998580D02*
G75*
G03*
X12009356Y-8998580I30000J0D01*
G01*
X12009356Y-9376580D02*
G75*
G03*
X11949356Y-9376580I-30000J0D01*
G01*
X11949356Y-9376580D02*
G75*
G03*
X12009356Y-9376580I30000J0D01*
G01*
X12009356Y-9431580D02*
X12009356Y-9321580D01*
X12009356Y-9321580D02*
G75*
G03*
X11949356Y-9321580I-30000J0D01*
G01*
X11949356Y-9321580D02*
X11949356Y-9431580D01*
X11949356Y-9431580D02*
G75*
G03*
X12009356Y-9431580I30000J0D01*
G01*
D10*
X9690594Y-16281484D02*
X9690594Y-16081484D01*
X9690594Y-16081484D02*
X9738213Y-16081484D01*
X9738213Y-16081484D02*
X9766785Y-16091008D01*
X9766785Y-16091008D02*
X9785833Y-16110055D01*
X9785833Y-16110055D02*
X9795356Y-16129103D01*
X9795356Y-16129103D02*
X9804880Y-16167198D01*
X9804880Y-16167198D02*
X9804880Y-16195769D01*
X9804880Y-16195769D02*
X9795356Y-16233865D01*
X9795356Y-16233865D02*
X9785833Y-16252912D01*
X9785833Y-16252912D02*
X9766785Y-16271960D01*
X9766785Y-16271960D02*
X9738213Y-16281484D01*
X9738213Y-16281484D02*
X9690594Y-16281484D01*
X9890594Y-16281484D02*
X9890594Y-16148150D01*
X9890594Y-16186246D02*
X9900118Y-16167198D01*
X9900118Y-16167198D02*
X9909642Y-16157674D01*
X9909642Y-16157674D02*
X9928690Y-16148150D01*
X9928690Y-16148150D02*
X9947737Y-16148150D01*
X10014404Y-16281484D02*
X10014404Y-16148150D01*
X10014404Y-16081484D02*
X10004880Y-16091008D01*
X10004880Y-16091008D02*
X10014404Y-16100531D01*
X10014404Y-16100531D02*
X10023928Y-16091008D01*
X10023928Y-16091008D02*
X10014404Y-16081484D01*
X10014404Y-16081484D02*
X10014404Y-16100531D01*
X10138213Y-16281484D02*
X10119166Y-16271960D01*
X10119166Y-16271960D02*
X10109642Y-16252912D01*
X10109642Y-16252912D02*
X10109642Y-16081484D01*
X10242975Y-16281484D02*
X10223928Y-16271960D01*
X10223928Y-16271960D02*
X10214404Y-16252912D01*
X10214404Y-16252912D02*
X10214404Y-16081484D01*
X10471547Y-16281484D02*
X10471547Y-16081484D01*
X10471547Y-16081484D02*
X10538214Y-16224341D01*
X10538214Y-16224341D02*
X10604880Y-16081484D01*
X10604880Y-16081484D02*
X10604880Y-16281484D01*
X10785833Y-16281484D02*
X10785833Y-16176722D01*
X10785833Y-16176722D02*
X10776309Y-16157674D01*
X10776309Y-16157674D02*
X10757261Y-16148150D01*
X10757261Y-16148150D02*
X10719166Y-16148150D01*
X10719166Y-16148150D02*
X10700118Y-16157674D01*
X10785833Y-16271960D02*
X10766785Y-16281484D01*
X10766785Y-16281484D02*
X10719166Y-16281484D01*
X10719166Y-16281484D02*
X10700118Y-16271960D01*
X10700118Y-16271960D02*
X10690594Y-16252912D01*
X10690594Y-16252912D02*
X10690594Y-16233865D01*
X10690594Y-16233865D02*
X10700118Y-16214817D01*
X10700118Y-16214817D02*
X10719166Y-16205293D01*
X10719166Y-16205293D02*
X10766785Y-16205293D01*
X10766785Y-16205293D02*
X10785833Y-16195769D01*
X10881071Y-16148150D02*
X10881071Y-16348150D01*
X10881071Y-16157674D02*
X10900118Y-16148150D01*
X10900118Y-16148150D02*
X10938214Y-16148150D01*
X10938214Y-16148150D02*
X10957261Y-16157674D01*
X10957261Y-16157674D02*
X10966785Y-16167198D01*
X10966785Y-16167198D02*
X10976309Y-16186246D01*
X10976309Y-16186246D02*
X10976309Y-16243388D01*
X10976309Y-16243388D02*
X10966785Y-16262436D01*
X10966785Y-16262436D02*
X10957261Y-16271960D01*
X10957261Y-16271960D02*
X10938214Y-16281484D01*
X10938214Y-16281484D02*
X10900118Y-16281484D01*
X10900118Y-16281484D02*
X10881071Y-16271960D01*
X11062023Y-16262436D02*
X11071547Y-16271960D01*
X11071547Y-16271960D02*
X11062023Y-16281484D01*
X11062023Y-16281484D02*
X11052499Y-16271960D01*
X11052499Y-16271960D02*
X11062023Y-16262436D01*
X11062023Y-16262436D02*
X11062023Y-16281484D01*
X11062023Y-16157674D02*
X11071547Y-16167198D01*
X11071547Y-16167198D02*
X11062023Y-16176722D01*
X11062023Y-16176722D02*
X11052499Y-16167198D01*
X11052499Y-16167198D02*
X11062023Y-16157674D01*
X11062023Y-16157674D02*
X11062023Y-16176722D01*
D11*
X9389818Y-16590000D02*
X9429818Y-16630000D01*
X9429818Y-16590000D02*
X9389818Y-16630000D01*
D10*
X9728690Y-16501484D02*
X9747737Y-16501484D01*
X9747737Y-16501484D02*
X9766785Y-16511008D01*
X9766785Y-16511008D02*
X9776309Y-16520531D01*
X9776309Y-16520531D02*
X9785833Y-16539579D01*
X9785833Y-16539579D02*
X9795356Y-16577674D01*
X9795356Y-16577674D02*
X9795356Y-16625293D01*
X9795356Y-16625293D02*
X9785833Y-16663388D01*
X9785833Y-16663388D02*
X9776309Y-16682436D01*
X9776309Y-16682436D02*
X9766785Y-16691960D01*
X9766785Y-16691960D02*
X9747737Y-16701484D01*
X9747737Y-16701484D02*
X9728690Y-16701484D01*
X9728690Y-16701484D02*
X9709642Y-16691960D01*
X9709642Y-16691960D02*
X9700118Y-16682436D01*
X9700118Y-16682436D02*
X9690594Y-16663388D01*
X9690594Y-16663388D02*
X9681071Y-16625293D01*
X9681071Y-16625293D02*
X9681071Y-16577674D01*
X9681071Y-16577674D02*
X9690594Y-16539579D01*
X9690594Y-16539579D02*
X9700118Y-16520531D01*
X9700118Y-16520531D02*
X9709642Y-16511008D01*
X9709642Y-16511008D02*
X9728690Y-16501484D01*
X9881071Y-16682436D02*
X9890594Y-16691960D01*
X9890594Y-16691960D02*
X9881071Y-16701484D01*
X9881071Y-16701484D02*
X9871547Y-16691960D01*
X9871547Y-16691960D02*
X9881071Y-16682436D01*
X9881071Y-16682436D02*
X9881071Y-16701484D01*
X10062023Y-16568150D02*
X10062023Y-16701484D01*
X10014404Y-16491960D02*
X9966785Y-16634817D01*
X9966785Y-16634817D02*
X10090594Y-16634817D01*
X10204880Y-16501484D02*
X10223928Y-16501484D01*
X10223928Y-16501484D02*
X10242975Y-16511008D01*
X10242975Y-16511008D02*
X10252499Y-16520531D01*
X10252499Y-16520531D02*
X10262023Y-16539579D01*
X10262023Y-16539579D02*
X10271547Y-16577674D01*
X10271547Y-16577674D02*
X10271547Y-16625293D01*
X10271547Y-16625293D02*
X10262023Y-16663388D01*
X10262023Y-16663388D02*
X10252499Y-16682436D01*
X10252499Y-16682436D02*
X10242975Y-16691960D01*
X10242975Y-16691960D02*
X10223928Y-16701484D01*
X10223928Y-16701484D02*
X10204880Y-16701484D01*
X10204880Y-16701484D02*
X10185833Y-16691960D01*
X10185833Y-16691960D02*
X10176309Y-16682436D01*
X10176309Y-16682436D02*
X10166785Y-16663388D01*
X10166785Y-16663388D02*
X10157261Y-16625293D01*
X10157261Y-16625293D02*
X10157261Y-16577674D01*
X10157261Y-16577674D02*
X10166785Y-16539579D01*
X10166785Y-16539579D02*
X10176309Y-16520531D01*
X10176309Y-16520531D02*
X10185833Y-16511008D01*
X10185833Y-16511008D02*
X10204880Y-16501484D01*
X10395356Y-16501484D02*
X10414404Y-16501484D01*
X10414404Y-16501484D02*
X10433452Y-16511008D01*
X10433452Y-16511008D02*
X10442975Y-16520531D01*
X10442975Y-16520531D02*
X10452499Y-16539579D01*
X10452499Y-16539579D02*
X10462023Y-16577674D01*
X10462023Y-16577674D02*
X10462023Y-16625293D01*
X10462023Y-16625293D02*
X10452499Y-16663388D01*
X10452499Y-16663388D02*
X10442975Y-16682436D01*
X10442975Y-16682436D02*
X10433452Y-16691960D01*
X10433452Y-16691960D02*
X10414404Y-16701484D01*
X10414404Y-16701484D02*
X10395356Y-16701484D01*
X10395356Y-16701484D02*
X10376309Y-16691960D01*
X10376309Y-16691960D02*
X10366785Y-16682436D01*
X10366785Y-16682436D02*
X10357261Y-16663388D01*
X10357261Y-16663388D02*
X10347737Y-16625293D01*
X10347737Y-16625293D02*
X10347737Y-16577674D01*
X10347737Y-16577674D02*
X10357261Y-16539579D01*
X10357261Y-16539579D02*
X10366785Y-16520531D01*
X10366785Y-16520531D02*
X10376309Y-16511008D01*
X10376309Y-16511008D02*
X10395356Y-16501484D01*
X10547737Y-16701484D02*
X10547737Y-16568150D01*
X10547737Y-16587198D02*
X10557261Y-16577674D01*
X10557261Y-16577674D02*
X10576309Y-16568150D01*
X10576309Y-16568150D02*
X10604880Y-16568150D01*
X10604880Y-16568150D02*
X10623928Y-16577674D01*
X10623928Y-16577674D02*
X10633452Y-16596722D01*
X10633452Y-16596722D02*
X10633452Y-16701484D01*
X10633452Y-16596722D02*
X10642975Y-16577674D01*
X10642975Y-16577674D02*
X10662023Y-16568150D01*
X10662023Y-16568150D02*
X10690594Y-16568150D01*
X10690594Y-16568150D02*
X10709642Y-16577674D01*
X10709642Y-16577674D02*
X10719166Y-16596722D01*
X10719166Y-16596722D02*
X10719166Y-16701484D01*
X10814404Y-16701484D02*
X10814404Y-16568150D01*
X10814404Y-16587198D02*
X10823928Y-16577674D01*
X10823928Y-16577674D02*
X10842975Y-16568150D01*
X10842975Y-16568150D02*
X10871547Y-16568150D01*
X10871547Y-16568150D02*
X10890595Y-16577674D01*
X10890595Y-16577674D02*
X10900118Y-16596722D01*
X10900118Y-16596722D02*
X10900118Y-16701484D01*
X10900118Y-16596722D02*
X10909642Y-16577674D01*
X10909642Y-16577674D02*
X10928690Y-16568150D01*
X10928690Y-16568150D02*
X10957261Y-16568150D01*
X10957261Y-16568150D02*
X10976309Y-16577674D01*
X10976309Y-16577674D02*
X10985833Y-16596722D01*
X10985833Y-16596722D02*
X10985833Y-16701484D01*
X11376309Y-16491960D02*
X11204880Y-16749103D01*
X11633452Y-16501484D02*
X11652499Y-16501484D01*
X11652499Y-16501484D02*
X11671547Y-16511008D01*
X11671547Y-16511008D02*
X11681071Y-16520531D01*
X11681071Y-16520531D02*
X11690595Y-16539579D01*
X11690595Y-16539579D02*
X11700118Y-16577674D01*
X11700118Y-16577674D02*
X11700118Y-16625293D01*
X11700118Y-16625293D02*
X11690595Y-16663388D01*
X11690595Y-16663388D02*
X11681071Y-16682436D01*
X11681071Y-16682436D02*
X11671547Y-16691960D01*
X11671547Y-16691960D02*
X11652499Y-16701484D01*
X11652499Y-16701484D02*
X11633452Y-16701484D01*
X11633452Y-16701484D02*
X11614404Y-16691960D01*
X11614404Y-16691960D02*
X11604880Y-16682436D01*
X11604880Y-16682436D02*
X11595356Y-16663388D01*
X11595356Y-16663388D02*
X11585833Y-16625293D01*
X11585833Y-16625293D02*
X11585833Y-16577674D01*
X11585833Y-16577674D02*
X11595356Y-16539579D01*
X11595356Y-16539579D02*
X11604880Y-16520531D01*
X11604880Y-16520531D02*
X11614404Y-16511008D01*
X11614404Y-16511008D02*
X11633452Y-16501484D01*
X11785833Y-16682436D02*
X11795356Y-16691960D01*
X11795356Y-16691960D02*
X11785833Y-16701484D01*
X11785833Y-16701484D02*
X11776309Y-16691960D01*
X11776309Y-16691960D02*
X11785833Y-16682436D01*
X11785833Y-16682436D02*
X11785833Y-16701484D01*
X11919166Y-16501484D02*
X11938214Y-16501484D01*
X11938214Y-16501484D02*
X11957261Y-16511008D01*
X11957261Y-16511008D02*
X11966785Y-16520531D01*
X11966785Y-16520531D02*
X11976309Y-16539579D01*
X11976309Y-16539579D02*
X11985833Y-16577674D01*
X11985833Y-16577674D02*
X11985833Y-16625293D01*
X11985833Y-16625293D02*
X11976309Y-16663388D01*
X11976309Y-16663388D02*
X11966785Y-16682436D01*
X11966785Y-16682436D02*
X11957261Y-16691960D01*
X11957261Y-16691960D02*
X11938214Y-16701484D01*
X11938214Y-16701484D02*
X11919166Y-16701484D01*
X11919166Y-16701484D02*
X11900118Y-16691960D01*
X11900118Y-16691960D02*
X11890595Y-16682436D01*
X11890595Y-16682436D02*
X11881071Y-16663388D01*
X11881071Y-16663388D02*
X11871547Y-16625293D01*
X11871547Y-16625293D02*
X11871547Y-16577674D01*
X11871547Y-16577674D02*
X11881071Y-16539579D01*
X11881071Y-16539579D02*
X11890595Y-16520531D01*
X11890595Y-16520531D02*
X11900118Y-16511008D01*
X11900118Y-16511008D02*
X11919166Y-16501484D01*
X12176309Y-16701484D02*
X12062023Y-16701484D01*
X12119166Y-16701484D02*
X12119166Y-16501484D01*
X12119166Y-16501484D02*
X12100118Y-16530055D01*
X12100118Y-16530055D02*
X12081071Y-16549103D01*
X12081071Y-16549103D02*
X12062023Y-16558627D01*
X12357261Y-16501484D02*
X12262023Y-16501484D01*
X12262023Y-16501484D02*
X12252499Y-16596722D01*
X12252499Y-16596722D02*
X12262023Y-16587198D01*
X12262023Y-16587198D02*
X12281071Y-16577674D01*
X12281071Y-16577674D02*
X12328690Y-16577674D01*
X12328690Y-16577674D02*
X12347737Y-16587198D01*
X12347737Y-16587198D02*
X12357261Y-16596722D01*
X12357261Y-16596722D02*
X12366785Y-16615769D01*
X12366785Y-16615769D02*
X12366785Y-16663388D01*
X12366785Y-16663388D02*
X12357261Y-16682436D01*
X12357261Y-16682436D02*
X12347737Y-16691960D01*
X12347737Y-16691960D02*
X12328690Y-16701484D01*
X12328690Y-16701484D02*
X12281071Y-16701484D01*
X12281071Y-16701484D02*
X12262023Y-16691960D01*
X12262023Y-16691960D02*
X12252499Y-16682436D01*
X12433452Y-16501484D02*
X12566785Y-16501484D01*
X12566785Y-16501484D02*
X12481071Y-16701484D01*
X12633452Y-16501484D02*
X12633452Y-16539579D01*
X12709642Y-16501484D02*
X12709642Y-16539579D01*
X13004880Y-16777674D02*
X12995357Y-16768150D01*
X12995357Y-16768150D02*
X12976309Y-16739579D01*
X12976309Y-16739579D02*
X12966785Y-16720531D01*
X12966785Y-16720531D02*
X12957261Y-16691960D01*
X12957261Y-16691960D02*
X12947738Y-16644341D01*
X12947738Y-16644341D02*
X12947738Y-16606246D01*
X12947738Y-16606246D02*
X12957261Y-16558627D01*
X12957261Y-16558627D02*
X12966785Y-16530055D01*
X12966785Y-16530055D02*
X12976309Y-16511008D01*
X12976309Y-16511008D02*
X12995357Y-16482436D01*
X12995357Y-16482436D02*
X13004880Y-16472912D01*
X13062023Y-16501484D02*
X13185833Y-16501484D01*
X13185833Y-16501484D02*
X13119166Y-16577674D01*
X13119166Y-16577674D02*
X13147738Y-16577674D01*
X13147738Y-16577674D02*
X13166785Y-16587198D01*
X13166785Y-16587198D02*
X13176309Y-16596722D01*
X13176309Y-16596722D02*
X13185833Y-16615769D01*
X13185833Y-16615769D02*
X13185833Y-16663388D01*
X13185833Y-16663388D02*
X13176309Y-16682436D01*
X13176309Y-16682436D02*
X13166785Y-16691960D01*
X13166785Y-16691960D02*
X13147738Y-16701484D01*
X13147738Y-16701484D02*
X13090595Y-16701484D01*
X13090595Y-16701484D02*
X13071547Y-16691960D01*
X13071547Y-16691960D02*
X13062023Y-16682436D01*
X13300118Y-16587198D02*
X13281071Y-16577674D01*
X13281071Y-16577674D02*
X13271547Y-16568150D01*
X13271547Y-16568150D02*
X13262023Y-16549103D01*
X13262023Y-16549103D02*
X13262023Y-16539579D01*
X13262023Y-16539579D02*
X13271547Y-16520531D01*
X13271547Y-16520531D02*
X13281071Y-16511008D01*
X13281071Y-16511008D02*
X13300118Y-16501484D01*
X13300118Y-16501484D02*
X13338214Y-16501484D01*
X13338214Y-16501484D02*
X13357261Y-16511008D01*
X13357261Y-16511008D02*
X13366785Y-16520531D01*
X13366785Y-16520531D02*
X13376309Y-16539579D01*
X13376309Y-16539579D02*
X13376309Y-16549103D01*
X13376309Y-16549103D02*
X13366785Y-16568150D01*
X13366785Y-16568150D02*
X13357261Y-16577674D01*
X13357261Y-16577674D02*
X13338214Y-16587198D01*
X13338214Y-16587198D02*
X13300118Y-16587198D01*
X13300118Y-16587198D02*
X13281071Y-16596722D01*
X13281071Y-16596722D02*
X13271547Y-16606246D01*
X13271547Y-16606246D02*
X13262023Y-16625293D01*
X13262023Y-16625293D02*
X13262023Y-16663388D01*
X13262023Y-16663388D02*
X13271547Y-16682436D01*
X13271547Y-16682436D02*
X13281071Y-16691960D01*
X13281071Y-16691960D02*
X13300118Y-16701484D01*
X13300118Y-16701484D02*
X13338214Y-16701484D01*
X13338214Y-16701484D02*
X13357261Y-16691960D01*
X13357261Y-16691960D02*
X13366785Y-16682436D01*
X13366785Y-16682436D02*
X13376309Y-16663388D01*
X13376309Y-16663388D02*
X13376309Y-16625293D01*
X13376309Y-16625293D02*
X13366785Y-16606246D01*
X13366785Y-16606246D02*
X13357261Y-16596722D01*
X13357261Y-16596722D02*
X13338214Y-16587198D01*
X13442976Y-16501484D02*
X13566785Y-16501484D01*
X13566785Y-16501484D02*
X13500118Y-16577674D01*
X13500118Y-16577674D02*
X13528690Y-16577674D01*
X13528690Y-16577674D02*
X13547738Y-16587198D01*
X13547738Y-16587198D02*
X13557261Y-16596722D01*
X13557261Y-16596722D02*
X13566785Y-16615769D01*
X13566785Y-16615769D02*
X13566785Y-16663388D01*
X13566785Y-16663388D02*
X13557261Y-16682436D01*
X13557261Y-16682436D02*
X13547738Y-16691960D01*
X13547738Y-16691960D02*
X13528690Y-16701484D01*
X13528690Y-16701484D02*
X13471547Y-16701484D01*
X13471547Y-16701484D02*
X13452499Y-16691960D01*
X13452499Y-16691960D02*
X13442976Y-16682436D01*
X13804880Y-16701484D02*
X13804880Y-16501484D01*
X13890595Y-16701484D02*
X13890595Y-16596722D01*
X13890595Y-16596722D02*
X13881071Y-16577674D01*
X13881071Y-16577674D02*
X13862023Y-16568150D01*
X13862023Y-16568150D02*
X13833452Y-16568150D01*
X13833452Y-16568150D02*
X13814404Y-16577674D01*
X13814404Y-16577674D02*
X13804880Y-16587198D01*
X14014404Y-16701484D02*
X13995357Y-16691960D01*
X13995357Y-16691960D02*
X13985833Y-16682436D01*
X13985833Y-16682436D02*
X13976309Y-16663388D01*
X13976309Y-16663388D02*
X13976309Y-16606246D01*
X13976309Y-16606246D02*
X13985833Y-16587198D01*
X13985833Y-16587198D02*
X13995357Y-16577674D01*
X13995357Y-16577674D02*
X14014404Y-16568150D01*
X14014404Y-16568150D02*
X14042976Y-16568150D01*
X14042976Y-16568150D02*
X14062023Y-16577674D01*
X14062023Y-16577674D02*
X14071547Y-16587198D01*
X14071547Y-16587198D02*
X14081071Y-16606246D01*
X14081071Y-16606246D02*
X14081071Y-16663388D01*
X14081071Y-16663388D02*
X14071547Y-16682436D01*
X14071547Y-16682436D02*
X14062023Y-16691960D01*
X14062023Y-16691960D02*
X14042976Y-16701484D01*
X14042976Y-16701484D02*
X14014404Y-16701484D01*
X14195357Y-16701484D02*
X14176309Y-16691960D01*
X14176309Y-16691960D02*
X14166785Y-16672912D01*
X14166785Y-16672912D02*
X14166785Y-16501484D01*
X14347738Y-16691960D02*
X14328690Y-16701484D01*
X14328690Y-16701484D02*
X14290595Y-16701484D01*
X14290595Y-16701484D02*
X14271547Y-16691960D01*
X14271547Y-16691960D02*
X14262023Y-16672912D01*
X14262023Y-16672912D02*
X14262023Y-16596722D01*
X14262023Y-16596722D02*
X14271547Y-16577674D01*
X14271547Y-16577674D02*
X14290595Y-16568150D01*
X14290595Y-16568150D02*
X14328690Y-16568150D01*
X14328690Y-16568150D02*
X14347738Y-16577674D01*
X14347738Y-16577674D02*
X14357261Y-16596722D01*
X14357261Y-16596722D02*
X14357261Y-16615769D01*
X14357261Y-16615769D02*
X14262023Y-16634817D01*
X14433452Y-16691960D02*
X14452500Y-16701484D01*
X14452500Y-16701484D02*
X14490595Y-16701484D01*
X14490595Y-16701484D02*
X14509642Y-16691960D01*
X14509642Y-16691960D02*
X14519166Y-16672912D01*
X14519166Y-16672912D02*
X14519166Y-16663388D01*
X14519166Y-16663388D02*
X14509642Y-16644341D01*
X14509642Y-16644341D02*
X14490595Y-16634817D01*
X14490595Y-16634817D02*
X14462023Y-16634817D01*
X14462023Y-16634817D02*
X14442976Y-16625293D01*
X14442976Y-16625293D02*
X14433452Y-16606246D01*
X14433452Y-16606246D02*
X14433452Y-16596722D01*
X14433452Y-16596722D02*
X14442976Y-16577674D01*
X14442976Y-16577674D02*
X14462023Y-16568150D01*
X14462023Y-16568150D02*
X14490595Y-16568150D01*
X14490595Y-16568150D02*
X14509642Y-16577674D01*
X14585833Y-16777674D02*
X14595357Y-16768150D01*
X14595357Y-16768150D02*
X14614404Y-16739579D01*
X14614404Y-16739579D02*
X14623928Y-16720531D01*
X14623928Y-16720531D02*
X14633452Y-16691960D01*
X14633452Y-16691960D02*
X14642976Y-16644341D01*
X14642976Y-16644341D02*
X14642976Y-16606246D01*
X14642976Y-16606246D02*
X14633452Y-16558627D01*
X14633452Y-16558627D02*
X14623928Y-16530055D01*
X14623928Y-16530055D02*
X14614404Y-16511008D01*
X14614404Y-16511008D02*
X14595357Y-16482436D01*
X14595357Y-16482436D02*
X14585833Y-16472912D01*
D11*
X9429818Y-16874000D02*
G75*
G03*
X9369818Y-16874000I-30000J0D01*
G01*
X9369818Y-16874000D02*
G75*
G03*
X9429818Y-16874000I30000J0D01*
G01*
D10*
X9728690Y-16765484D02*
X9747737Y-16765484D01*
X9747737Y-16765484D02*
X9766785Y-16775008D01*
X9766785Y-16775008D02*
X9776309Y-16784531D01*
X9776309Y-16784531D02*
X9785833Y-16803579D01*
X9785833Y-16803579D02*
X9795356Y-16841674D01*
X9795356Y-16841674D02*
X9795356Y-16889293D01*
X9795356Y-16889293D02*
X9785833Y-16927389D01*
X9785833Y-16927389D02*
X9776309Y-16946436D01*
X9776309Y-16946436D02*
X9766785Y-16955960D01*
X9766785Y-16955960D02*
X9747737Y-16965484D01*
X9747737Y-16965484D02*
X9728690Y-16965484D01*
X9728690Y-16965484D02*
X9709642Y-16955960D01*
X9709642Y-16955960D02*
X9700118Y-16946436D01*
X9700118Y-16946436D02*
X9690594Y-16927389D01*
X9690594Y-16927389D02*
X9681071Y-16889293D01*
X9681071Y-16889293D02*
X9681071Y-16841674D01*
X9681071Y-16841674D02*
X9690594Y-16803579D01*
X9690594Y-16803579D02*
X9700118Y-16784531D01*
X9700118Y-16784531D02*
X9709642Y-16775008D01*
X9709642Y-16775008D02*
X9728690Y-16765484D01*
X9881071Y-16946436D02*
X9890594Y-16955960D01*
X9890594Y-16955960D02*
X9881071Y-16965484D01*
X9881071Y-16965484D02*
X9871547Y-16955960D01*
X9871547Y-16955960D02*
X9881071Y-16946436D01*
X9881071Y-16946436D02*
X9881071Y-16965484D01*
X10062023Y-16765484D02*
X10023928Y-16765484D01*
X10023928Y-16765484D02*
X10004880Y-16775008D01*
X10004880Y-16775008D02*
X9995356Y-16784531D01*
X9995356Y-16784531D02*
X9976309Y-16813103D01*
X9976309Y-16813103D02*
X9966785Y-16851198D01*
X9966785Y-16851198D02*
X9966785Y-16927389D01*
X9966785Y-16927389D02*
X9976309Y-16946436D01*
X9976309Y-16946436D02*
X9985833Y-16955960D01*
X9985833Y-16955960D02*
X10004880Y-16965484D01*
X10004880Y-16965484D02*
X10042975Y-16965484D01*
X10042975Y-16965484D02*
X10062023Y-16955960D01*
X10062023Y-16955960D02*
X10071547Y-16946436D01*
X10071547Y-16946436D02*
X10081071Y-16927389D01*
X10081071Y-16927389D02*
X10081071Y-16879770D01*
X10081071Y-16879770D02*
X10071547Y-16860722D01*
X10071547Y-16860722D02*
X10062023Y-16851198D01*
X10062023Y-16851198D02*
X10042975Y-16841674D01*
X10042975Y-16841674D02*
X10004880Y-16841674D01*
X10004880Y-16841674D02*
X9985833Y-16851198D01*
X9985833Y-16851198D02*
X9976309Y-16860722D01*
X9976309Y-16860722D02*
X9966785Y-16879770D01*
X10204880Y-16765484D02*
X10223928Y-16765484D01*
X10223928Y-16765484D02*
X10242975Y-16775008D01*
X10242975Y-16775008D02*
X10252499Y-16784531D01*
X10252499Y-16784531D02*
X10262023Y-16803579D01*
X10262023Y-16803579D02*
X10271547Y-16841674D01*
X10271547Y-16841674D02*
X10271547Y-16889293D01*
X10271547Y-16889293D02*
X10262023Y-16927389D01*
X10262023Y-16927389D02*
X10252499Y-16946436D01*
X10252499Y-16946436D02*
X10242975Y-16955960D01*
X10242975Y-16955960D02*
X10223928Y-16965484D01*
X10223928Y-16965484D02*
X10204880Y-16965484D01*
X10204880Y-16965484D02*
X10185833Y-16955960D01*
X10185833Y-16955960D02*
X10176309Y-16946436D01*
X10176309Y-16946436D02*
X10166785Y-16927389D01*
X10166785Y-16927389D02*
X10157261Y-16889293D01*
X10157261Y-16889293D02*
X10157261Y-16841674D01*
X10157261Y-16841674D02*
X10166785Y-16803579D01*
X10166785Y-16803579D02*
X10176309Y-16784531D01*
X10176309Y-16784531D02*
X10185833Y-16775008D01*
X10185833Y-16775008D02*
X10204880Y-16765484D01*
X10395356Y-16765484D02*
X10414404Y-16765484D01*
X10414404Y-16765484D02*
X10433452Y-16775008D01*
X10433452Y-16775008D02*
X10442975Y-16784531D01*
X10442975Y-16784531D02*
X10452499Y-16803579D01*
X10452499Y-16803579D02*
X10462023Y-16841674D01*
X10462023Y-16841674D02*
X10462023Y-16889293D01*
X10462023Y-16889293D02*
X10452499Y-16927389D01*
X10452499Y-16927389D02*
X10442975Y-16946436D01*
X10442975Y-16946436D02*
X10433452Y-16955960D01*
X10433452Y-16955960D02*
X10414404Y-16965484D01*
X10414404Y-16965484D02*
X10395356Y-16965484D01*
X10395356Y-16965484D02*
X10376309Y-16955960D01*
X10376309Y-16955960D02*
X10366785Y-16946436D01*
X10366785Y-16946436D02*
X10357261Y-16927389D01*
X10357261Y-16927389D02*
X10347737Y-16889293D01*
X10347737Y-16889293D02*
X10347737Y-16841674D01*
X10347737Y-16841674D02*
X10357261Y-16803579D01*
X10357261Y-16803579D02*
X10366785Y-16784531D01*
X10366785Y-16784531D02*
X10376309Y-16775008D01*
X10376309Y-16775008D02*
X10395356Y-16765484D01*
X10547737Y-16965484D02*
X10547737Y-16832150D01*
X10547737Y-16851198D02*
X10557261Y-16841674D01*
X10557261Y-16841674D02*
X10576309Y-16832150D01*
X10576309Y-16832150D02*
X10604880Y-16832150D01*
X10604880Y-16832150D02*
X10623928Y-16841674D01*
X10623928Y-16841674D02*
X10633452Y-16860722D01*
X10633452Y-16860722D02*
X10633452Y-16965484D01*
X10633452Y-16860722D02*
X10642975Y-16841674D01*
X10642975Y-16841674D02*
X10662023Y-16832150D01*
X10662023Y-16832150D02*
X10690594Y-16832150D01*
X10690594Y-16832150D02*
X10709642Y-16841674D01*
X10709642Y-16841674D02*
X10719166Y-16860722D01*
X10719166Y-16860722D02*
X10719166Y-16965484D01*
X10814404Y-16965484D02*
X10814404Y-16832150D01*
X10814404Y-16851198D02*
X10823928Y-16841674D01*
X10823928Y-16841674D02*
X10842975Y-16832150D01*
X10842975Y-16832150D02*
X10871547Y-16832150D01*
X10871547Y-16832150D02*
X10890595Y-16841674D01*
X10890595Y-16841674D02*
X10900118Y-16860722D01*
X10900118Y-16860722D02*
X10900118Y-16965484D01*
X10900118Y-16860722D02*
X10909642Y-16841674D01*
X10909642Y-16841674D02*
X10928690Y-16832150D01*
X10928690Y-16832150D02*
X10957261Y-16832150D01*
X10957261Y-16832150D02*
X10976309Y-16841674D01*
X10976309Y-16841674D02*
X10985833Y-16860722D01*
X10985833Y-16860722D02*
X10985833Y-16965484D01*
X11376309Y-16755960D02*
X11204880Y-17013103D01*
X11633452Y-16765484D02*
X11652499Y-16765484D01*
X11652499Y-16765484D02*
X11671547Y-16775008D01*
X11671547Y-16775008D02*
X11681071Y-16784531D01*
X11681071Y-16784531D02*
X11690595Y-16803579D01*
X11690595Y-16803579D02*
X11700118Y-16841674D01*
X11700118Y-16841674D02*
X11700118Y-16889293D01*
X11700118Y-16889293D02*
X11690595Y-16927389D01*
X11690595Y-16927389D02*
X11681071Y-16946436D01*
X11681071Y-16946436D02*
X11671547Y-16955960D01*
X11671547Y-16955960D02*
X11652499Y-16965484D01*
X11652499Y-16965484D02*
X11633452Y-16965484D01*
X11633452Y-16965484D02*
X11614404Y-16955960D01*
X11614404Y-16955960D02*
X11604880Y-16946436D01*
X11604880Y-16946436D02*
X11595356Y-16927389D01*
X11595356Y-16927389D02*
X11585833Y-16889293D01*
X11585833Y-16889293D02*
X11585833Y-16841674D01*
X11585833Y-16841674D02*
X11595356Y-16803579D01*
X11595356Y-16803579D02*
X11604880Y-16784531D01*
X11604880Y-16784531D02*
X11614404Y-16775008D01*
X11614404Y-16775008D02*
X11633452Y-16765484D01*
X11785833Y-16946436D02*
X11795356Y-16955960D01*
X11795356Y-16955960D02*
X11785833Y-16965484D01*
X11785833Y-16965484D02*
X11776309Y-16955960D01*
X11776309Y-16955960D02*
X11785833Y-16946436D01*
X11785833Y-16946436D02*
X11785833Y-16965484D01*
X11919166Y-16765484D02*
X11938214Y-16765484D01*
X11938214Y-16765484D02*
X11957261Y-16775008D01*
X11957261Y-16775008D02*
X11966785Y-16784531D01*
X11966785Y-16784531D02*
X11976309Y-16803579D01*
X11976309Y-16803579D02*
X11985833Y-16841674D01*
X11985833Y-16841674D02*
X11985833Y-16889293D01*
X11985833Y-16889293D02*
X11976309Y-16927389D01*
X11976309Y-16927389D02*
X11966785Y-16946436D01*
X11966785Y-16946436D02*
X11957261Y-16955960D01*
X11957261Y-16955960D02*
X11938214Y-16965484D01*
X11938214Y-16965484D02*
X11919166Y-16965484D01*
X11919166Y-16965484D02*
X11900118Y-16955960D01*
X11900118Y-16955960D02*
X11890595Y-16946436D01*
X11890595Y-16946436D02*
X11881071Y-16927389D01*
X11881071Y-16927389D02*
X11871547Y-16889293D01*
X11871547Y-16889293D02*
X11871547Y-16841674D01*
X11871547Y-16841674D02*
X11881071Y-16803579D01*
X11881071Y-16803579D02*
X11890595Y-16784531D01*
X11890595Y-16784531D02*
X11900118Y-16775008D01*
X11900118Y-16775008D02*
X11919166Y-16765484D01*
X12062023Y-16784531D02*
X12071547Y-16775008D01*
X12071547Y-16775008D02*
X12090595Y-16765484D01*
X12090595Y-16765484D02*
X12138214Y-16765484D01*
X12138214Y-16765484D02*
X12157261Y-16775008D01*
X12157261Y-16775008D02*
X12166785Y-16784531D01*
X12166785Y-16784531D02*
X12176309Y-16803579D01*
X12176309Y-16803579D02*
X12176309Y-16822627D01*
X12176309Y-16822627D02*
X12166785Y-16851198D01*
X12166785Y-16851198D02*
X12052499Y-16965484D01*
X12052499Y-16965484D02*
X12176309Y-16965484D01*
X12242976Y-16765484D02*
X12366785Y-16765484D01*
X12366785Y-16765484D02*
X12300118Y-16841674D01*
X12300118Y-16841674D02*
X12328690Y-16841674D01*
X12328690Y-16841674D02*
X12347737Y-16851198D01*
X12347737Y-16851198D02*
X12357261Y-16860722D01*
X12357261Y-16860722D02*
X12366785Y-16879770D01*
X12366785Y-16879770D02*
X12366785Y-16927389D01*
X12366785Y-16927389D02*
X12357261Y-16946436D01*
X12357261Y-16946436D02*
X12347737Y-16955960D01*
X12347737Y-16955960D02*
X12328690Y-16965484D01*
X12328690Y-16965484D02*
X12271547Y-16965484D01*
X12271547Y-16965484D02*
X12252499Y-16955960D01*
X12252499Y-16955960D02*
X12242976Y-16946436D01*
X12538214Y-16765484D02*
X12500118Y-16765484D01*
X12500118Y-16765484D02*
X12481071Y-16775008D01*
X12481071Y-16775008D02*
X12471547Y-16784531D01*
X12471547Y-16784531D02*
X12452499Y-16813103D01*
X12452499Y-16813103D02*
X12442976Y-16851198D01*
X12442976Y-16851198D02*
X12442976Y-16927389D01*
X12442976Y-16927389D02*
X12452499Y-16946436D01*
X12452499Y-16946436D02*
X12462023Y-16955960D01*
X12462023Y-16955960D02*
X12481071Y-16965484D01*
X12481071Y-16965484D02*
X12519166Y-16965484D01*
X12519166Y-16965484D02*
X12538214Y-16955960D01*
X12538214Y-16955960D02*
X12547737Y-16946436D01*
X12547737Y-16946436D02*
X12557261Y-16927389D01*
X12557261Y-16927389D02*
X12557261Y-16879770D01*
X12557261Y-16879770D02*
X12547737Y-16860722D01*
X12547737Y-16860722D02*
X12538214Y-16851198D01*
X12538214Y-16851198D02*
X12519166Y-16841674D01*
X12519166Y-16841674D02*
X12481071Y-16841674D01*
X12481071Y-16841674D02*
X12462023Y-16851198D01*
X12462023Y-16851198D02*
X12452499Y-16860722D01*
X12452499Y-16860722D02*
X12442976Y-16879770D01*
X12633452Y-16765484D02*
X12633452Y-16803579D01*
X12709642Y-16765484D02*
X12709642Y-16803579D01*
X13004880Y-17041674D02*
X12995357Y-17032150D01*
X12995357Y-17032150D02*
X12976309Y-17003579D01*
X12976309Y-17003579D02*
X12966785Y-16984531D01*
X12966785Y-16984531D02*
X12957261Y-16955960D01*
X12957261Y-16955960D02*
X12947738Y-16908341D01*
X12947738Y-16908341D02*
X12947738Y-16870246D01*
X12947738Y-16870246D02*
X12957261Y-16822627D01*
X12957261Y-16822627D02*
X12966785Y-16794055D01*
X12966785Y-16794055D02*
X12976309Y-16775008D01*
X12976309Y-16775008D02*
X12995357Y-16746436D01*
X12995357Y-16746436D02*
X13004880Y-16736912D01*
X13119166Y-16765484D02*
X13138214Y-16765484D01*
X13138214Y-16765484D02*
X13157261Y-16775008D01*
X13157261Y-16775008D02*
X13166785Y-16784531D01*
X13166785Y-16784531D02*
X13176309Y-16803579D01*
X13176309Y-16803579D02*
X13185833Y-16841674D01*
X13185833Y-16841674D02*
X13185833Y-16889293D01*
X13185833Y-16889293D02*
X13176309Y-16927389D01*
X13176309Y-16927389D02*
X13166785Y-16946436D01*
X13166785Y-16946436D02*
X13157261Y-16955960D01*
X13157261Y-16955960D02*
X13138214Y-16965484D01*
X13138214Y-16965484D02*
X13119166Y-16965484D01*
X13119166Y-16965484D02*
X13100118Y-16955960D01*
X13100118Y-16955960D02*
X13090595Y-16946436D01*
X13090595Y-16946436D02*
X13081071Y-16927389D01*
X13081071Y-16927389D02*
X13071547Y-16889293D01*
X13071547Y-16889293D02*
X13071547Y-16841674D01*
X13071547Y-16841674D02*
X13081071Y-16803579D01*
X13081071Y-16803579D02*
X13090595Y-16784531D01*
X13090595Y-16784531D02*
X13100118Y-16775008D01*
X13100118Y-16775008D02*
X13119166Y-16765484D01*
X13423928Y-16965484D02*
X13423928Y-16765484D01*
X13509642Y-16965484D02*
X13509642Y-16860722D01*
X13509642Y-16860722D02*
X13500119Y-16841674D01*
X13500119Y-16841674D02*
X13481071Y-16832150D01*
X13481071Y-16832150D02*
X13452499Y-16832150D01*
X13452499Y-16832150D02*
X13433452Y-16841674D01*
X13433452Y-16841674D02*
X13423928Y-16851198D01*
X13633452Y-16965484D02*
X13614404Y-16955960D01*
X13614404Y-16955960D02*
X13604880Y-16946436D01*
X13604880Y-16946436D02*
X13595357Y-16927389D01*
X13595357Y-16927389D02*
X13595357Y-16870246D01*
X13595357Y-16870246D02*
X13604880Y-16851198D01*
X13604880Y-16851198D02*
X13614404Y-16841674D01*
X13614404Y-16841674D02*
X13633452Y-16832150D01*
X13633452Y-16832150D02*
X13662023Y-16832150D01*
X13662023Y-16832150D02*
X13681071Y-16841674D01*
X13681071Y-16841674D02*
X13690595Y-16851198D01*
X13690595Y-16851198D02*
X13700119Y-16870246D01*
X13700119Y-16870246D02*
X13700119Y-16927389D01*
X13700119Y-16927389D02*
X13690595Y-16946436D01*
X13690595Y-16946436D02*
X13681071Y-16955960D01*
X13681071Y-16955960D02*
X13662023Y-16965484D01*
X13662023Y-16965484D02*
X13633452Y-16965484D01*
X13814404Y-16965484D02*
X13795357Y-16955960D01*
X13795357Y-16955960D02*
X13785833Y-16936912D01*
X13785833Y-16936912D02*
X13785833Y-16765484D01*
X13966785Y-16955960D02*
X13947738Y-16965484D01*
X13947738Y-16965484D02*
X13909642Y-16965484D01*
X13909642Y-16965484D02*
X13890595Y-16955960D01*
X13890595Y-16955960D02*
X13881071Y-16936912D01*
X13881071Y-16936912D02*
X13881071Y-16860722D01*
X13881071Y-16860722D02*
X13890595Y-16841674D01*
X13890595Y-16841674D02*
X13909642Y-16832150D01*
X13909642Y-16832150D02*
X13947738Y-16832150D01*
X13947738Y-16832150D02*
X13966785Y-16841674D01*
X13966785Y-16841674D02*
X13976309Y-16860722D01*
X13976309Y-16860722D02*
X13976309Y-16879770D01*
X13976309Y-16879770D02*
X13881071Y-16898817D01*
X14052500Y-16955960D02*
X14071547Y-16965484D01*
X14071547Y-16965484D02*
X14109642Y-16965484D01*
X14109642Y-16965484D02*
X14128690Y-16955960D01*
X14128690Y-16955960D02*
X14138214Y-16936912D01*
X14138214Y-16936912D02*
X14138214Y-16927389D01*
X14138214Y-16927389D02*
X14128690Y-16908341D01*
X14128690Y-16908341D02*
X14109642Y-16898817D01*
X14109642Y-16898817D02*
X14081071Y-16898817D01*
X14081071Y-16898817D02*
X14062023Y-16889293D01*
X14062023Y-16889293D02*
X14052500Y-16870246D01*
X14052500Y-16870246D02*
X14052500Y-16860722D01*
X14052500Y-16860722D02*
X14062023Y-16841674D01*
X14062023Y-16841674D02*
X14081071Y-16832150D01*
X14081071Y-16832150D02*
X14109642Y-16832150D01*
X14109642Y-16832150D02*
X14128690Y-16841674D01*
X14376309Y-16889293D02*
X14528690Y-16889293D01*
X14452500Y-16965484D02*
X14452500Y-16813103D01*
X14862023Y-16832150D02*
X14862023Y-16965484D01*
X14814404Y-16755960D02*
X14766785Y-16898817D01*
X14766785Y-16898817D02*
X14890595Y-16898817D01*
X15109643Y-16955960D02*
X15128690Y-16965484D01*
X15128690Y-16965484D02*
X15166785Y-16965484D01*
X15166785Y-16965484D02*
X15185833Y-16955960D01*
X15185833Y-16955960D02*
X15195357Y-16936912D01*
X15195357Y-16936912D02*
X15195357Y-16927389D01*
X15195357Y-16927389D02*
X15185833Y-16908341D01*
X15185833Y-16908341D02*
X15166785Y-16898817D01*
X15166785Y-16898817D02*
X15138214Y-16898817D01*
X15138214Y-16898817D02*
X15119166Y-16889293D01*
X15119166Y-16889293D02*
X15109643Y-16870246D01*
X15109643Y-16870246D02*
X15109643Y-16860722D01*
X15109643Y-16860722D02*
X15119166Y-16841674D01*
X15119166Y-16841674D02*
X15138214Y-16832150D01*
X15138214Y-16832150D02*
X15166785Y-16832150D01*
X15166785Y-16832150D02*
X15185833Y-16841674D01*
X15309643Y-16965484D02*
X15290595Y-16955960D01*
X15290595Y-16955960D02*
X15281071Y-16936912D01*
X15281071Y-16936912D02*
X15281071Y-16765484D01*
X15414404Y-16965484D02*
X15395357Y-16955960D01*
X15395357Y-16955960D02*
X15385833Y-16946436D01*
X15385833Y-16946436D02*
X15376309Y-16927389D01*
X15376309Y-16927389D02*
X15376309Y-16870246D01*
X15376309Y-16870246D02*
X15385833Y-16851198D01*
X15385833Y-16851198D02*
X15395357Y-16841674D01*
X15395357Y-16841674D02*
X15414404Y-16832150D01*
X15414404Y-16832150D02*
X15442976Y-16832150D01*
X15442976Y-16832150D02*
X15462024Y-16841674D01*
X15462024Y-16841674D02*
X15471547Y-16851198D01*
X15471547Y-16851198D02*
X15481071Y-16870246D01*
X15481071Y-16870246D02*
X15481071Y-16927389D01*
X15481071Y-16927389D02*
X15471547Y-16946436D01*
X15471547Y-16946436D02*
X15462024Y-16955960D01*
X15462024Y-16955960D02*
X15442976Y-16965484D01*
X15442976Y-16965484D02*
X15414404Y-16965484D01*
X15538214Y-16832150D02*
X15614404Y-16832150D01*
X15566785Y-16765484D02*
X15566785Y-16936912D01*
X15566785Y-16936912D02*
X15576309Y-16955960D01*
X15576309Y-16955960D02*
X15595357Y-16965484D01*
X15595357Y-16965484D02*
X15614404Y-16965484D01*
X15671547Y-16955960D02*
X15690595Y-16965484D01*
X15690595Y-16965484D02*
X15728690Y-16965484D01*
X15728690Y-16965484D02*
X15747738Y-16955960D01*
X15747738Y-16955960D02*
X15757262Y-16936912D01*
X15757262Y-16936912D02*
X15757262Y-16927389D01*
X15757262Y-16927389D02*
X15747738Y-16908341D01*
X15747738Y-16908341D02*
X15728690Y-16898817D01*
X15728690Y-16898817D02*
X15700119Y-16898817D01*
X15700119Y-16898817D02*
X15681071Y-16889293D01*
X15681071Y-16889293D02*
X15671547Y-16870246D01*
X15671547Y-16870246D02*
X15671547Y-16860722D01*
X15671547Y-16860722D02*
X15681071Y-16841674D01*
X15681071Y-16841674D02*
X15700119Y-16832150D01*
X15700119Y-16832150D02*
X15728690Y-16832150D01*
X15728690Y-16832150D02*
X15747738Y-16841674D01*
X15823928Y-17041674D02*
X15833452Y-17032150D01*
X15833452Y-17032150D02*
X15852500Y-17003579D01*
X15852500Y-17003579D02*
X15862024Y-16984531D01*
X15862024Y-16984531D02*
X15871547Y-16955960D01*
X15871547Y-16955960D02*
X15881071Y-16908341D01*
X15881071Y-16908341D02*
X15881071Y-16870246D01*
X15881071Y-16870246D02*
X15871547Y-16822627D01*
X15871547Y-16822627D02*
X15862024Y-16794055D01*
X15862024Y-16794055D02*
X15852500Y-16775008D01*
X15852500Y-16775008D02*
X15833452Y-16746436D01*
X15833452Y-16746436D02*
X15823928Y-16736912D01*
M02*
