%TF.GenerationSoftware,KiCad,Pcbnew,7.0.11*%
%TF.CreationDate,2025-01-20T01:41:03+09:00*%
%TF.ProjectId,MD,4d442e6b-6963-4616-945f-706362585858,rev?*%
%TF.SameCoordinates,Original*%
%TF.FileFunction,Profile,NP*%
%FSLAX46Y46*%
G04 Gerber Fmt 4.6, Leading zero omitted, Abs format (unit mm)*
G04 Created by KiCad (PCBNEW 7.0.11) date 2025-01-20 01:41:03*
%MOMM*%
%LPD*%
G01*
G04 APERTURE LIST*
%TA.AperFunction,Profile*%
%ADD10C,0.200000*%
%TD*%
G04 APERTURE END LIST*
D10*
X148350000Y-91952600D02*
G75*
G03*
X147350000Y-92952583I0J-1000000D01*
G01*
X166521573Y-63751573D02*
X138178427Y-63751573D01*
X170450000Y-98952584D02*
G75*
G03*
X168250000Y-98952584I-1100000J0D01*
G01*
X168250000Y-98952584D02*
G75*
G03*
X170450000Y-98952584I1100000J0D01*
G01*
X135350000Y-100952584D02*
X146350000Y-100952584D01*
X148350000Y-91952583D02*
X166350000Y-91952583D01*
X171349999Y-68580000D02*
G75*
G03*
X170764213Y-67165788I-1999999J0D01*
G01*
X146350000Y-100952600D02*
G75*
G03*
X147350000Y-99952584I0J1000000D01*
G01*
X171350000Y-98952584D02*
X171350000Y-68580000D01*
X170764214Y-67165787D02*
X167935787Y-64337360D01*
X167350000Y-92952583D02*
X167350000Y-98951762D01*
X167350017Y-92952583D02*
G75*
G03*
X166350000Y-91952583I-1000017J-17D01*
G01*
X133350016Y-98952584D02*
G75*
G03*
X135350000Y-100952584I1999984J-16D01*
G01*
X136450000Y-68580000D02*
G75*
G03*
X134250000Y-68580000I-1100000J0D01*
G01*
X134250000Y-68580000D02*
G75*
G03*
X136450000Y-68580000I1100000J0D01*
G01*
X133350000Y-68580000D02*
X133350000Y-98952584D01*
X169350000Y-100952600D02*
G75*
G03*
X171350000Y-98952584I0J2000000D01*
G01*
X170450000Y-68580000D02*
G75*
G03*
X168250000Y-68580000I-1100000J0D01*
G01*
X168250000Y-68580000D02*
G75*
G03*
X170450000Y-68580000I1100000J0D01*
G01*
X136450000Y-98952584D02*
G75*
G03*
X134250000Y-98952584I-1100000J0D01*
G01*
X134250000Y-98952584D02*
G75*
G03*
X136450000Y-98952584I1100000J0D01*
G01*
X147350000Y-99952584D02*
X147350000Y-92952583D01*
X167350016Y-98951762D02*
G75*
G03*
X169350000Y-100952584I1999984J-838D01*
G01*
X138178427Y-63751601D02*
G75*
G03*
X136764214Y-64337361I-27J-1999999D01*
G01*
X133935786Y-67165787D02*
G75*
G03*
X133350000Y-68580000I1414214J-1414213D01*
G01*
X136764213Y-64337360D02*
X133935786Y-67165787D01*
X167935806Y-64337341D02*
G75*
G03*
X166521573Y-63751573I-1414206J-1414259D01*
G01*
M02*
