%TF.GenerationSoftware,KiCad,Pcbnew,7.0.11*%
%TF.CreationDate,2025-01-20T01:41:03+09:00*%
%TF.ProjectId,MD,4d442e6b-6963-4616-945f-706362585858,rev?*%
%TF.SameCoordinates,Original*%
%TF.FileFunction,Legend,Top*%
%TF.FilePolarity,Positive*%
%FSLAX46Y46*%
G04 Gerber Fmt 4.6, Leading zero omitted, Abs format (unit mm)*
G04 Created by KiCad (PCBNEW 7.0.11) date 2025-01-20 01:41:03*
%MOMM*%
%LPD*%
G01*
G04 APERTURE LIST*
%ADD10C,0.120000*%
%ADD11C,0.127000*%
%ADD12C,0.200000*%
G04 APERTURE END LIST*
D10*
%TO.C,C7*%
X143236836Y-79735000D02*
X143021164Y-79735000D01*
X143236836Y-79015000D02*
X143021164Y-79015000D01*
%TO.C,R9*%
X138254000Y-80206141D02*
X138254000Y-79898859D01*
X139014000Y-80206141D02*
X139014000Y-79898859D01*
%TO.C,C3*%
X140862164Y-79904000D02*
X141077836Y-79904000D01*
X140862164Y-80624000D02*
X141077836Y-80624000D01*
%TO.C,C6*%
X138817000Y-87099164D02*
X138817000Y-87314836D01*
X138097000Y-87099164D02*
X138097000Y-87314836D01*
%TO.C,J1*%
X137616000Y-97052000D02*
X137616000Y-95352000D01*
X146956000Y-97052000D02*
X146956000Y-95352000D01*
%TO.C,C5*%
X138915000Y-90781836D02*
X138915000Y-90566164D01*
X139635000Y-90781836D02*
X139635000Y-90566164D01*
%TO.C,R4*%
X141860000Y-90829641D02*
X141860000Y-90522359D01*
X142620000Y-90829641D02*
X142620000Y-90522359D01*
%TO.C,J7*%
X158540000Y-71684000D02*
X159790000Y-71684000D01*
X158830000Y-71394000D02*
X164800000Y-71394000D01*
X164800000Y-71394000D02*
X164800000Y-63774000D01*
X158840000Y-71384000D02*
X159590000Y-71384000D01*
X159590000Y-71384000D02*
X159590000Y-69584000D01*
X161090000Y-71384000D02*
X161090000Y-70634000D01*
X161090000Y-70634000D02*
X164040000Y-70634000D01*
X164040000Y-70634000D02*
X164040000Y-67584000D01*
X158540000Y-70434000D02*
X158540000Y-71684000D01*
X158840000Y-69584000D02*
X158840000Y-71384000D01*
X159590000Y-69584000D02*
X158840000Y-69584000D01*
X158840000Y-68084000D02*
X159590000Y-68084000D01*
X159590000Y-68084000D02*
X159590000Y-67084000D01*
X158840000Y-67084000D02*
X158840000Y-68084000D01*
X159590000Y-67084000D02*
X158840000Y-67084000D01*
X158840000Y-65584000D02*
X159590000Y-65584000D01*
X159590000Y-65584000D02*
X159590000Y-63784000D01*
X161090000Y-64534000D02*
X164040000Y-64534000D01*
X164040000Y-64534000D02*
X164040000Y-67584000D01*
X158840000Y-63784000D02*
X158840000Y-65584000D01*
X159590000Y-63784000D02*
X158840000Y-63784000D01*
X161090000Y-63784000D02*
X161090000Y-64534000D01*
X158830000Y-63774000D02*
X158830000Y-71394000D01*
X164800000Y-63774000D02*
X158830000Y-63774000D01*
%TO.C,Y1*%
X147448000Y-79372000D02*
X147448000Y-82172000D01*
X147448000Y-82172000D02*
X150748000Y-82172000D01*
%TO.C,R6*%
X144880359Y-78995000D02*
X145187641Y-78995000D01*
X144880359Y-79755000D02*
X145187641Y-79755000D01*
%TO.C,C10*%
X167476000Y-77520748D02*
X167476000Y-78943252D01*
X164756000Y-77520748D02*
X164756000Y-78943252D01*
%TO.C,J2*%
X136458000Y-91500000D02*
X135128000Y-91500000D01*
X136458000Y-90170000D02*
X136458000Y-91500000D01*
X136458000Y-88900000D02*
X136458000Y-71060000D01*
X136458000Y-88900000D02*
X133798000Y-88900000D01*
X136458000Y-71060000D02*
X133798000Y-71060000D01*
X133798000Y-88900000D02*
X133798000Y-71060000D01*
%TO.C,C9*%
X138097000Y-84684836D02*
X138097000Y-84469164D01*
X138817000Y-84684836D02*
X138817000Y-84469164D01*
%TO.C,J3*%
X170900000Y-91500000D02*
X169570000Y-91500000D01*
X170900000Y-90170000D02*
X170900000Y-91500000D01*
X170900000Y-88900000D02*
X170900000Y-71060000D01*
X170900000Y-88900000D02*
X168240000Y-88900000D01*
X170900000Y-71060000D02*
X168240000Y-71060000D01*
X168240000Y-88900000D02*
X168240000Y-71060000D01*
%TO.C,SW1*%
X157864000Y-81408000D02*
X157864000Y-84708000D01*
X157564000Y-81408000D02*
X157864000Y-81408000D01*
X155364000Y-81408000D02*
X155064000Y-81408000D01*
X155064000Y-81408000D02*
X155064000Y-84708000D01*
X157864000Y-84708000D02*
X157564000Y-84708000D01*
X155064000Y-84708000D02*
X155364000Y-84708000D01*
%TO.C,J6*%
X152317000Y-71684000D02*
X153567000Y-71684000D01*
X152607000Y-71394000D02*
X158577000Y-71394000D01*
X158577000Y-71394000D02*
X158577000Y-63774000D01*
X152617000Y-71384000D02*
X153367000Y-71384000D01*
X153367000Y-71384000D02*
X153367000Y-69584000D01*
X154867000Y-71384000D02*
X154867000Y-70634000D01*
X154867000Y-70634000D02*
X157817000Y-70634000D01*
X157817000Y-70634000D02*
X157817000Y-67584000D01*
X152317000Y-70434000D02*
X152317000Y-71684000D01*
X152617000Y-69584000D02*
X152617000Y-71384000D01*
X153367000Y-69584000D02*
X152617000Y-69584000D01*
X152617000Y-68084000D02*
X153367000Y-68084000D01*
X153367000Y-68084000D02*
X153367000Y-67084000D01*
X152617000Y-67084000D02*
X152617000Y-68084000D01*
X153367000Y-67084000D02*
X152617000Y-67084000D01*
X152617000Y-65584000D02*
X153367000Y-65584000D01*
X153367000Y-65584000D02*
X153367000Y-63784000D01*
X154867000Y-64534000D02*
X157817000Y-64534000D01*
X157817000Y-64534000D02*
X157817000Y-67584000D01*
X152617000Y-63784000D02*
X152617000Y-65584000D01*
X153367000Y-63784000D02*
X152617000Y-63784000D01*
X154867000Y-63784000D02*
X154867000Y-64534000D01*
X152607000Y-63774000D02*
X152607000Y-71394000D01*
X158577000Y-63774000D02*
X152607000Y-63774000D01*
%TO.C,R8*%
X137034000Y-80206141D02*
X137034000Y-79898859D01*
X137794000Y-80206141D02*
X137794000Y-79898859D01*
D11*
%TO.C,U3*%
X139588000Y-77134000D02*
X139588000Y-73234000D01*
X144638000Y-77134000D02*
X144638000Y-73234000D01*
D12*
X140308000Y-79284000D02*
G75*
G03*
X140108000Y-79284000I-100000J0D01*
G01*
X140108000Y-79284000D02*
G75*
G03*
X140308000Y-79284000I100000J0D01*
G01*
D10*
%TO.C,U1*%
X158046000Y-91879000D02*
X158046000Y-91619000D01*
X158046000Y-86429000D02*
X158046000Y-86689000D01*
X155321000Y-91879000D02*
X158046000Y-91879000D01*
X155321000Y-91879000D02*
X152596000Y-91879000D01*
X155321000Y-86429000D02*
X158046000Y-86429000D01*
X155321000Y-86429000D02*
X152596000Y-86429000D01*
X152596000Y-91879000D02*
X152596000Y-91619000D01*
X152596000Y-86429000D02*
X152596000Y-86689000D01*
X159068500Y-91949000D02*
X158588500Y-91949000D01*
X158828500Y-91619000D01*
X159068500Y-91949000D01*
G36*
X159068500Y-91949000D02*
G01*
X158588500Y-91949000D01*
X158828500Y-91619000D01*
X159068500Y-91949000D01*
G37*
%TO.C,C11*%
X164671836Y-91038000D02*
X164456164Y-91038000D01*
X164671836Y-90318000D02*
X164456164Y-90318000D01*
%TO.C,SW2*%
X160912000Y-81408000D02*
X160912000Y-84708000D01*
X160612000Y-81408000D02*
X160912000Y-81408000D01*
X158412000Y-81408000D02*
X158112000Y-81408000D01*
X158112000Y-81408000D02*
X158112000Y-84708000D01*
X160912000Y-84708000D02*
X160612000Y-84708000D01*
X158112000Y-84708000D02*
X158412000Y-84708000D01*
%TO.C,R1*%
X135789641Y-95376000D02*
X135482359Y-95376000D01*
X135789641Y-94616000D02*
X135482359Y-94616000D01*
%TO.C,R2*%
X135789641Y-96265000D02*
X135482359Y-96265000D01*
X135789641Y-95505000D02*
X135482359Y-95505000D01*
%TO.C,J5*%
X146094000Y-71684000D02*
X147344000Y-71684000D01*
X146384000Y-71394000D02*
X152354000Y-71394000D01*
X152354000Y-71394000D02*
X152354000Y-63774000D01*
X146394000Y-71384000D02*
X147144000Y-71384000D01*
X147144000Y-71384000D02*
X147144000Y-69584000D01*
X148644000Y-71384000D02*
X148644000Y-70634000D01*
X148644000Y-70634000D02*
X151594000Y-70634000D01*
X151594000Y-70634000D02*
X151594000Y-67584000D01*
X146094000Y-70434000D02*
X146094000Y-71684000D01*
X146394000Y-69584000D02*
X146394000Y-71384000D01*
X147144000Y-69584000D02*
X146394000Y-69584000D01*
X146394000Y-68084000D02*
X147144000Y-68084000D01*
X147144000Y-68084000D02*
X147144000Y-67084000D01*
X146394000Y-67084000D02*
X146394000Y-68084000D01*
X147144000Y-67084000D02*
X146394000Y-67084000D01*
X146394000Y-65584000D02*
X147144000Y-65584000D01*
X147144000Y-65584000D02*
X147144000Y-63784000D01*
X148644000Y-64534000D02*
X151594000Y-64534000D01*
X151594000Y-64534000D02*
X151594000Y-67584000D01*
X146394000Y-63784000D02*
X146394000Y-65584000D01*
X147144000Y-63784000D02*
X146394000Y-63784000D01*
X148644000Y-63784000D02*
X148644000Y-64534000D01*
X146384000Y-63774000D02*
X146384000Y-71394000D01*
X152354000Y-63774000D02*
X146384000Y-63774000D01*
%TO.C,U7*%
X161144500Y-88830000D02*
X161414500Y-88830000D01*
X168044500Y-88830000D02*
X167774500Y-88830000D01*
X161144500Y-82410000D02*
X161144500Y-88830000D01*
X168044500Y-82410000D02*
X168044500Y-88830000D01*
X161454500Y-90250000D02*
X161124500Y-90490000D01*
X161124500Y-90010000D01*
X161454500Y-90250000D01*
G36*
X161454500Y-90250000D02*
G01*
X161124500Y-90490000D01*
X161124500Y-90010000D01*
X161454500Y-90250000D01*
G37*
%TO.C,C2*%
X146918000Y-79902164D02*
X146918000Y-80117836D01*
X146198000Y-79902164D02*
X146198000Y-80117836D01*
%TO.C,D3*%
X139369000Y-75810000D02*
X137899000Y-75810000D01*
X137899000Y-75810000D02*
X137899000Y-78270000D01*
X139369000Y-78270000D02*
X139369000Y-75810000D01*
D11*
%TO.C,U4*%
X152288000Y-77134000D02*
X152288000Y-73234000D01*
X157338000Y-77134000D02*
X157338000Y-73234000D01*
D12*
X153008000Y-79284000D02*
G75*
G03*
X152808000Y-79284000I-100000J0D01*
G01*
X152808000Y-79284000D02*
G75*
G03*
X153008000Y-79284000I100000J0D01*
G01*
D10*
%TO.C,C1*%
X151998000Y-80664164D02*
X151998000Y-80879836D01*
X151278000Y-80664164D02*
X151278000Y-80879836D01*
%TO.C,R5*%
X159864359Y-79757000D02*
X160171641Y-79757000D01*
X159864359Y-80517000D02*
X160171641Y-80517000D01*
%TO.C,J4*%
X139744000Y-71684000D02*
X140994000Y-71684000D01*
X140034000Y-71394000D02*
X146004000Y-71394000D01*
X146004000Y-71394000D02*
X146004000Y-63774000D01*
X140044000Y-71384000D02*
X140794000Y-71384000D01*
X140794000Y-71384000D02*
X140794000Y-69584000D01*
X142294000Y-71384000D02*
X142294000Y-70634000D01*
X142294000Y-70634000D02*
X145244000Y-70634000D01*
X145244000Y-70634000D02*
X145244000Y-67584000D01*
X139744000Y-70434000D02*
X139744000Y-71684000D01*
X140044000Y-69584000D02*
X140044000Y-71384000D01*
X140794000Y-69584000D02*
X140044000Y-69584000D01*
X140044000Y-68084000D02*
X140794000Y-68084000D01*
X140794000Y-68084000D02*
X140794000Y-67084000D01*
X140044000Y-67084000D02*
X140044000Y-68084000D01*
X140794000Y-67084000D02*
X140044000Y-67084000D01*
X140044000Y-65584000D02*
X140794000Y-65584000D01*
X140794000Y-65584000D02*
X140794000Y-63784000D01*
X142294000Y-64534000D02*
X145244000Y-64534000D01*
X145244000Y-64534000D02*
X145244000Y-67584000D01*
X140044000Y-63784000D02*
X140044000Y-65584000D01*
X140794000Y-63784000D02*
X140044000Y-63784000D01*
X142294000Y-63784000D02*
X142294000Y-64534000D01*
X140034000Y-63774000D02*
X140034000Y-71394000D01*
X146004000Y-63774000D02*
X140034000Y-63774000D01*
%TO.C,U2*%
X146485000Y-88048000D02*
X146485000Y-88458000D01*
X146485000Y-81478000D02*
X146485000Y-82128000D01*
X145835000Y-88698000D02*
X146185000Y-88698000D01*
X145835000Y-81478000D02*
X146485000Y-81478000D01*
X139915000Y-88698000D02*
X139265000Y-88698000D01*
X139915000Y-81478000D02*
X139265000Y-81478000D01*
X139265000Y-88698000D02*
X139265000Y-88048000D01*
X139265000Y-81478000D02*
X139265000Y-82128000D01*
X146725000Y-89028000D02*
X146245000Y-89028000D01*
X146485000Y-88698000D01*
X146725000Y-89028000D01*
G36*
X146725000Y-89028000D02*
G01*
X146245000Y-89028000D01*
X146485000Y-88698000D01*
X146725000Y-89028000D01*
G37*
D11*
%TO.C,U5*%
X146192000Y-77134000D02*
X146192000Y-73234000D01*
X151242000Y-77134000D02*
X151242000Y-73234000D01*
D12*
X146912000Y-79284000D02*
G75*
G03*
X146712000Y-79284000I-100000J0D01*
G01*
X146712000Y-79284000D02*
G75*
G03*
X146912000Y-79284000I100000J0D01*
G01*
D10*
%TO.C,D2*%
X138149000Y-75810000D02*
X136679000Y-75810000D01*
X136679000Y-75810000D02*
X136679000Y-78270000D01*
X138149000Y-78270000D02*
X138149000Y-75810000D01*
%TO.C,R3*%
X140843000Y-90827641D02*
X140843000Y-90520359D01*
X141603000Y-90827641D02*
X141603000Y-90520359D01*
D11*
%TO.C,U6*%
X158511000Y-77134000D02*
X158511000Y-73234000D01*
X163561000Y-77134000D02*
X163561000Y-73234000D01*
D12*
X159231000Y-79284000D02*
G75*
G03*
X159031000Y-79284000I-100000J0D01*
G01*
X159031000Y-79284000D02*
G75*
G03*
X159231000Y-79284000I100000J0D01*
G01*
D10*
%TO.C,C4*%
X139931000Y-90781836D02*
X139931000Y-90566164D01*
X140651000Y-90781836D02*
X140651000Y-90566164D01*
%TD*%
M02*
