%TF.GenerationSoftware,KiCad,Pcbnew,7.0.11*%
%TF.CreationDate,2025-01-20T01:41:03+09:00*%
%TF.ProjectId,MD,4d442e6b-6963-4616-945f-706362585858,rev?*%
%TF.SameCoordinates,Original*%
%TF.FileFunction,Soldermask,Top*%
%TF.FilePolarity,Negative*%
%FSLAX46Y46*%
G04 Gerber Fmt 4.6, Leading zero omitted, Abs format (unit mm)*
G04 Created by KiCad (PCBNEW 7.0.11) date 2025-01-20 01:41:03*
%MOMM*%
%LPD*%
G01*
G04 APERTURE LIST*
G04 Aperture macros list*
%AMRoundRect*
0 Rectangle with rounded corners*
0 $1 Rounding radius*
0 $2 $3 $4 $5 $6 $7 $8 $9 X,Y pos of 4 corners*
0 Add a 4 corners polygon primitive as box body*
4,1,4,$2,$3,$4,$5,$6,$7,$8,$9,$2,$3,0*
0 Add four circle primitives for the rounded corners*
1,1,$1+$1,$2,$3*
1,1,$1+$1,$4,$5*
1,1,$1+$1,$6,$7*
1,1,$1+$1,$8,$9*
0 Add four rect primitives between the rounded corners*
20,1,$1+$1,$2,$3,$4,$5,0*
20,1,$1+$1,$4,$5,$6,$7,0*
20,1,$1+$1,$6,$7,$8,$9,0*
20,1,$1+$1,$8,$9,$2,$3,0*%
G04 Aperture macros list end*
%ADD10RoundRect,0.140000X0.140000X0.170000X-0.140000X0.170000X-0.140000X-0.170000X0.140000X-0.170000X0*%
%ADD11RoundRect,0.135000X0.185000X-0.135000X0.185000X0.135000X-0.185000X0.135000X-0.185000X-0.135000X0*%
%ADD12RoundRect,0.300000X-0.700000X-0.300000X0.700000X-0.300000X0.700000X0.300000X-0.700000X0.300000X0*%
%ADD13RoundRect,0.140000X-0.140000X-0.170000X0.140000X-0.170000X0.140000X0.170000X-0.140000X0.170000X0*%
%ADD14RoundRect,0.140000X-0.170000X0.140000X-0.170000X-0.140000X0.170000X-0.140000X0.170000X0.140000X0*%
%ADD15RoundRect,0.150000X-0.150000X-0.425000X0.150000X-0.425000X0.150000X0.425000X-0.150000X0.425000X0*%
%ADD16RoundRect,0.075000X-0.075000X-0.500000X0.075000X-0.500000X0.075000X0.500000X-0.075000X0.500000X0*%
%ADD17O,1.000000X2.100000*%
%ADD18O,1.000000X1.800000*%
%ADD19RoundRect,0.140000X0.170000X-0.140000X0.170000X0.140000X-0.170000X0.140000X-0.170000X-0.140000X0*%
%ADD20RoundRect,0.250000X0.750000X-0.600000X0.750000X0.600000X-0.750000X0.600000X-0.750000X-0.600000X0*%
%ADD21O,2.000000X1.700000*%
%ADD22R,1.150000X1.000000*%
%ADD23C,2.100000*%
%ADD24RoundRect,0.135000X-0.135000X-0.185000X0.135000X-0.185000X0.135000X0.185000X-0.135000X0.185000X0*%
%ADD25RoundRect,0.250000X-1.100000X0.412500X-1.100000X-0.412500X1.100000X-0.412500X1.100000X0.412500X0*%
%ADD26R,1.700000X1.700000*%
%ADD27O,1.700000X1.700000*%
%ADD28R,1.700000X0.900000*%
%ADD29RoundRect,0.098000X0.294000X-0.989000X0.294000X0.989000X-0.294000X0.989000X-0.294000X-0.989000X0*%
%ADD30RoundRect,0.102000X1.142500X-1.142500X1.142500X1.142500X-1.142500X1.142500X-1.142500X-1.142500X0*%
%ADD31RoundRect,0.150000X0.650000X0.150000X-0.650000X0.150000X-0.650000X-0.150000X0.650000X-0.150000X0*%
%ADD32RoundRect,0.135000X0.135000X0.185000X-0.135000X0.185000X-0.135000X-0.185000X0.135000X-0.185000X0*%
%ADD33RoundRect,0.250000X0.350000X-0.850000X0.350000X0.850000X-0.350000X0.850000X-0.350000X-0.850000X0*%
%ADD34RoundRect,0.249997X2.650003X-2.950003X2.650003X2.950003X-2.650003X2.950003X-2.650003X-2.950003X0*%
%ADD35RoundRect,0.237500X-0.237500X0.287500X-0.237500X-0.287500X0.237500X-0.287500X0.237500X0.287500X0*%
%ADD36RoundRect,0.050000X0.387500X0.050000X-0.387500X0.050000X-0.387500X-0.050000X0.387500X-0.050000X0*%
%ADD37RoundRect,0.050000X0.050000X0.387500X-0.050000X0.387500X-0.050000X-0.387500X0.050000X-0.387500X0*%
%ADD38R,3.200000X3.200000*%
G04 APERTURE END LIST*
D10*
%TO.C,C7*%
X143609000Y-79375000D03*
X142649000Y-79375000D03*
%TD*%
D11*
%TO.C,R9*%
X138634000Y-80562500D03*
X138634000Y-79542500D03*
%TD*%
D12*
%TO.C,REF\u002A\u002A*%
X148717000Y-74879200D03*
%TD*%
D13*
%TO.C,C3*%
X140490000Y-80264000D03*
X141450000Y-80264000D03*
%TD*%
D14*
%TO.C,C6*%
X138457000Y-86727000D03*
X138457000Y-87687000D03*
%TD*%
D12*
%TO.C,REF\u002A\u002A*%
X154813000Y-74879200D03*
%TD*%
D15*
%TO.C,J1*%
X139086000Y-93472000D03*
X139886000Y-93472000D03*
D16*
X141036000Y-93472000D03*
X142036000Y-93472000D03*
X142536000Y-93472000D03*
X143536000Y-93472000D03*
D15*
X144686000Y-93472000D03*
X145486000Y-93472000D03*
X145486000Y-93472000D03*
X144686000Y-93472000D03*
D16*
X144036000Y-93472000D03*
X143036000Y-93472000D03*
X141536000Y-93472000D03*
X140536000Y-93472000D03*
D15*
X139886000Y-93472000D03*
X139086000Y-93472000D03*
D17*
X137966000Y-94047000D03*
D18*
X137966000Y-98227000D03*
D17*
X146606000Y-94047000D03*
D18*
X146606000Y-98227000D03*
%TD*%
D19*
%TO.C,C5*%
X139275000Y-91154000D03*
X139275000Y-90194000D03*
%TD*%
D11*
%TO.C,R4*%
X142240000Y-91186000D03*
X142240000Y-90166000D03*
%TD*%
D20*
%TO.C,J7*%
X161290000Y-68834000D03*
D21*
X161290000Y-66334000D03*
%TD*%
D22*
%TO.C,Y1*%
X148223000Y-81472000D03*
X149973000Y-81472000D03*
X149973000Y-80072000D03*
X148223000Y-80072000D03*
%TD*%
D23*
%TO.C,REF\u002A\u002A*%
X169360000Y-98950000D03*
%TD*%
D24*
%TO.C,R6*%
X144524000Y-79375000D03*
X145544000Y-79375000D03*
%TD*%
D25*
%TO.C,C10*%
X166116000Y-76669500D03*
X166116000Y-79794500D03*
%TD*%
D26*
%TO.C,J2*%
X135128000Y-90170000D03*
D27*
X135128000Y-87630000D03*
X135128000Y-85090000D03*
X135128000Y-82550000D03*
X135128000Y-80010000D03*
X135128000Y-77470000D03*
X135128000Y-74930000D03*
X135128000Y-72390000D03*
%TD*%
D23*
%TO.C,REF\u002A\u002A*%
X135350000Y-98950000D03*
%TD*%
D19*
%TO.C,C9*%
X138457000Y-85057000D03*
X138457000Y-84097000D03*
%TD*%
D26*
%TO.C,J3*%
X169570000Y-90170000D03*
D27*
X169570000Y-87630000D03*
X169570000Y-85090000D03*
X169570000Y-82550000D03*
X169570000Y-80010000D03*
X169570000Y-77470000D03*
X169570000Y-74930000D03*
X169570000Y-72390000D03*
%TD*%
D28*
%TO.C,SW1*%
X156464000Y-81358000D03*
X156464000Y-84758000D03*
%TD*%
D20*
%TO.C,J6*%
X155067000Y-68834000D03*
D21*
X155067000Y-66334000D03*
%TD*%
D11*
%TO.C,R8*%
X137414000Y-80562500D03*
X137414000Y-79542500D03*
%TD*%
D29*
%TO.C,U3*%
X140208000Y-77654000D03*
X141478000Y-77654000D03*
X142748000Y-77654000D03*
X144018000Y-77654000D03*
X144018000Y-72714000D03*
X142748000Y-72714000D03*
X141478000Y-72714000D03*
X140208000Y-72714000D03*
D30*
X142113000Y-75184000D03*
%TD*%
D31*
%TO.C,U1*%
X158921000Y-91059000D03*
X158921000Y-89789000D03*
X158921000Y-88519000D03*
X158921000Y-87249000D03*
X151721000Y-87249000D03*
X151721000Y-88519000D03*
X151721000Y-89789000D03*
X151721000Y-91059000D03*
%TD*%
D10*
%TO.C,C11*%
X165044000Y-90678000D03*
X164084000Y-90678000D03*
%TD*%
D28*
%TO.C,SW2*%
X159512000Y-81358000D03*
X159512000Y-84758000D03*
%TD*%
D32*
%TO.C,R1*%
X136146000Y-94996000D03*
X135126000Y-94996000D03*
%TD*%
%TO.C,R2*%
X136146000Y-95885000D03*
X135126000Y-95885000D03*
%TD*%
D20*
%TO.C,J5*%
X148844000Y-68834000D03*
D21*
X148844000Y-66334000D03*
%TD*%
D12*
%TO.C,REF\u002A\u002A*%
X161036000Y-74828400D03*
%TD*%
%TO.C,REF\u002A\u002A*%
X142113000Y-74879200D03*
%TD*%
D33*
%TO.C,U7*%
X166874500Y-90560000D03*
X162314500Y-90560000D03*
D34*
X164594500Y-84260000D03*
%TD*%
D14*
%TO.C,C2*%
X146558000Y-79530000D03*
X146558000Y-80490000D03*
%TD*%
D35*
%TO.C,D3*%
X138634000Y-76595000D03*
X138634000Y-78345000D03*
%TD*%
D29*
%TO.C,U4*%
X152908000Y-77654000D03*
X154178000Y-77654000D03*
X155448000Y-77654000D03*
X156718000Y-77654000D03*
X156718000Y-72714000D03*
X155448000Y-72714000D03*
X154178000Y-72714000D03*
X152908000Y-72714000D03*
D30*
X154813000Y-75184000D03*
%TD*%
D14*
%TO.C,C1*%
X151638000Y-80292000D03*
X151638000Y-81252000D03*
%TD*%
D24*
%TO.C,R5*%
X159508000Y-80137000D03*
X160528000Y-80137000D03*
%TD*%
D20*
%TO.C,J4*%
X142494000Y-68834000D03*
D21*
X142494000Y-66334000D03*
%TD*%
D36*
%TO.C,U2*%
X146312500Y-87688000D03*
X146312500Y-87288000D03*
X146312500Y-86888000D03*
X146312500Y-86488000D03*
X146312500Y-86088000D03*
X146312500Y-85688000D03*
X146312500Y-85288000D03*
X146312500Y-84888000D03*
X146312500Y-84488000D03*
X146312500Y-84088000D03*
X146312500Y-83688000D03*
X146312500Y-83288000D03*
X146312500Y-82888000D03*
X146312500Y-82488000D03*
D37*
X145475000Y-81650500D03*
X145075000Y-81650500D03*
X144675000Y-81650500D03*
X144275000Y-81650500D03*
X143875000Y-81650500D03*
X143475000Y-81650500D03*
X143075000Y-81650500D03*
X142675000Y-81650500D03*
X142275000Y-81650500D03*
X141875000Y-81650500D03*
X141475000Y-81650500D03*
X141075000Y-81650500D03*
X140675000Y-81650500D03*
X140275000Y-81650500D03*
D36*
X139437500Y-82488000D03*
X139437500Y-82888000D03*
X139437500Y-83288000D03*
X139437500Y-83688000D03*
X139437500Y-84088000D03*
X139437500Y-84488000D03*
X139437500Y-84888000D03*
X139437500Y-85288000D03*
X139437500Y-85688000D03*
X139437500Y-86088000D03*
X139437500Y-86488000D03*
X139437500Y-86888000D03*
X139437500Y-87288000D03*
X139437500Y-87688000D03*
D37*
X140275000Y-88525500D03*
X140675000Y-88525500D03*
X141075000Y-88525500D03*
X141475000Y-88525500D03*
X141875000Y-88525500D03*
X142275000Y-88525500D03*
X142675000Y-88525500D03*
X143075000Y-88525500D03*
X143475000Y-88525500D03*
X143875000Y-88525500D03*
X144275000Y-88525500D03*
X144675000Y-88525500D03*
X145075000Y-88525500D03*
X145475000Y-88525500D03*
D38*
X142875000Y-85088000D03*
%TD*%
D29*
%TO.C,U5*%
X146812000Y-77654000D03*
X148082000Y-77654000D03*
X149352000Y-77654000D03*
X150622000Y-77654000D03*
X150622000Y-72714000D03*
X149352000Y-72714000D03*
X148082000Y-72714000D03*
X146812000Y-72714000D03*
D30*
X148717000Y-75184000D03*
%TD*%
D35*
%TO.C,D2*%
X137414000Y-76595000D03*
X137414000Y-78345000D03*
%TD*%
D23*
%TO.C,REF\u002A\u002A*%
X135350000Y-68570000D03*
%TD*%
%TO.C,REF\u002A\u002A*%
X169350000Y-68580000D03*
%TD*%
D11*
%TO.C,R3*%
X141223000Y-91184000D03*
X141223000Y-90164000D03*
%TD*%
D29*
%TO.C,U6*%
X159131000Y-77654000D03*
X160401000Y-77654000D03*
X161671000Y-77654000D03*
X162941000Y-77654000D03*
X162941000Y-72714000D03*
X161671000Y-72714000D03*
X160401000Y-72714000D03*
X159131000Y-72714000D03*
D30*
X161036000Y-75184000D03*
%TD*%
D19*
%TO.C,C4*%
X140291000Y-91154000D03*
X140291000Y-90194000D03*
%TD*%
M02*
