%TF.GenerationSoftware,KiCad,Pcbnew,7.0.11*%
%TF.CreationDate,2025-01-20T01:41:05+09:00*%
%TF.ProjectId,MD,4d442e6b-6963-4616-945f-706362585858,rev?*%
%TF.SameCoordinates,Original*%
%TF.FileFunction,Drillmap*%
%TF.FilePolarity,Positive*%
%FSLAX45Y45*%
G04 Gerber Fmt 4.5, Leading zero omitted, Abs format (unit mm)*
G04 Created by KiCad (PCBNEW 7.0.11) date 2025-01-20 01:41:05*
%MOMM*%
%LPD*%
G01*
G04 APERTURE LIST*
%ADD10C,0.200000*%
%ADD11C,0.210000*%
G04 APERTURE END LIST*
D10*
X14835000Y-9195260D02*
G75*
G03*
X14735000Y-9295258I0J-100000D01*
G01*
X16652157Y-6375157D02*
X13817843Y-6375157D01*
X17045000Y-9895258D02*
G75*
G03*
X16825000Y-9895258I-110000J0D01*
G01*
X16825000Y-9895258D02*
G75*
G03*
X17045000Y-9895258I110000J0D01*
G01*
X13535000Y-10095258D02*
X14635000Y-10095258D01*
X14835000Y-9195258D02*
X16635000Y-9195258D01*
X17135000Y-6858000D02*
G75*
G03*
X17076421Y-6716579I-200000J0D01*
G01*
X14635000Y-10095260D02*
G75*
G03*
X14735000Y-9995258I0J100000D01*
G01*
X17135000Y-9895258D02*
X17135000Y-6858000D01*
X17076421Y-6716579D02*
X16793579Y-6433736D01*
X16735000Y-9295258D02*
X16735000Y-9895176D01*
X16735002Y-9295258D02*
G75*
G03*
X16635000Y-9195258I-100002J-2D01*
G01*
X13335002Y-9895258D02*
G75*
G03*
X13535000Y-10095258I199998J-2D01*
G01*
X13645000Y-6858000D02*
G75*
G03*
X13425000Y-6858000I-110000J0D01*
G01*
X13425000Y-6858000D02*
G75*
G03*
X13645000Y-6858000I110000J0D01*
G01*
X13335000Y-6858000D02*
X13335000Y-9895258D01*
X16935000Y-10095260D02*
G75*
G03*
X17135000Y-9895258I0J200000D01*
G01*
X17045000Y-6858000D02*
G75*
G03*
X16825000Y-6858000I-110000J0D01*
G01*
X16825000Y-6858000D02*
G75*
G03*
X17045000Y-6858000I110000J0D01*
G01*
X13645000Y-9895258D02*
G75*
G03*
X13425000Y-9895258I-110000J0D01*
G01*
X13425000Y-9895258D02*
G75*
G03*
X13645000Y-9895258I110000J0D01*
G01*
X14735000Y-9995258D02*
X14735000Y-9295258D01*
X16735002Y-9895176D02*
G75*
G03*
X16935000Y-10095258I199998J-84D01*
G01*
X13817843Y-6375160D02*
G75*
G03*
X13676421Y-6433736I-3J-200000D01*
G01*
X13393579Y-6716579D02*
G75*
G03*
X13335000Y-6858000I141421J-141421D01*
G01*
X13676421Y-6433736D02*
X13393579Y-6716579D01*
X16793581Y-6433734D02*
G75*
G03*
X16652157Y-6375157I-141421J-141426D01*
G01*
D11*
X13430000Y-6752000D02*
X13640000Y-6962000D01*
X13640000Y-6752000D02*
X13430000Y-6962000D01*
X13430000Y-9790000D02*
X13640000Y-10000000D01*
X13640000Y-9790000D02*
X13430000Y-10000000D01*
X16830000Y-6753000D02*
X17040000Y-6963000D01*
X17040000Y-6753000D02*
X16830000Y-6963000D01*
X16831000Y-9790000D02*
X17041000Y-10000000D01*
X17041000Y-9790000D02*
X16831000Y-10000000D01*
D10*
X13585777Y-10416742D02*
X13585777Y-10216742D01*
X13585777Y-10216742D02*
X13633396Y-10216742D01*
X13633396Y-10216742D02*
X13661967Y-10226266D01*
X13661967Y-10226266D02*
X13681015Y-10245314D01*
X13681015Y-10245314D02*
X13690539Y-10264361D01*
X13690539Y-10264361D02*
X13700062Y-10302456D01*
X13700062Y-10302456D02*
X13700062Y-10331028D01*
X13700062Y-10331028D02*
X13690539Y-10369123D01*
X13690539Y-10369123D02*
X13681015Y-10388171D01*
X13681015Y-10388171D02*
X13661967Y-10407218D01*
X13661967Y-10407218D02*
X13633396Y-10416742D01*
X13633396Y-10416742D02*
X13585777Y-10416742D01*
X13785777Y-10416742D02*
X13785777Y-10283409D01*
X13785777Y-10321504D02*
X13795301Y-10302456D01*
X13795301Y-10302456D02*
X13804824Y-10292933D01*
X13804824Y-10292933D02*
X13823872Y-10283409D01*
X13823872Y-10283409D02*
X13842920Y-10283409D01*
X13909586Y-10416742D02*
X13909586Y-10283409D01*
X13909586Y-10216742D02*
X13900062Y-10226266D01*
X13900062Y-10226266D02*
X13909586Y-10235790D01*
X13909586Y-10235790D02*
X13919110Y-10226266D01*
X13919110Y-10226266D02*
X13909586Y-10216742D01*
X13909586Y-10216742D02*
X13909586Y-10235790D01*
X14033396Y-10416742D02*
X14014348Y-10407218D01*
X14014348Y-10407218D02*
X14004824Y-10388171D01*
X14004824Y-10388171D02*
X14004824Y-10216742D01*
X14138158Y-10416742D02*
X14119110Y-10407218D01*
X14119110Y-10407218D02*
X14109586Y-10388171D01*
X14109586Y-10388171D02*
X14109586Y-10216742D01*
X14366729Y-10416742D02*
X14366729Y-10216742D01*
X14366729Y-10216742D02*
X14433396Y-10359599D01*
X14433396Y-10359599D02*
X14500062Y-10216742D01*
X14500062Y-10216742D02*
X14500062Y-10416742D01*
X14681015Y-10416742D02*
X14681015Y-10311980D01*
X14681015Y-10311980D02*
X14671491Y-10292933D01*
X14671491Y-10292933D02*
X14652443Y-10283409D01*
X14652443Y-10283409D02*
X14614348Y-10283409D01*
X14614348Y-10283409D02*
X14595301Y-10292933D01*
X14681015Y-10407218D02*
X14661967Y-10416742D01*
X14661967Y-10416742D02*
X14614348Y-10416742D01*
X14614348Y-10416742D02*
X14595301Y-10407218D01*
X14595301Y-10407218D02*
X14585777Y-10388171D01*
X14585777Y-10388171D02*
X14585777Y-10369123D01*
X14585777Y-10369123D02*
X14595301Y-10350076D01*
X14595301Y-10350076D02*
X14614348Y-10340552D01*
X14614348Y-10340552D02*
X14661967Y-10340552D01*
X14661967Y-10340552D02*
X14681015Y-10331028D01*
X14776253Y-10283409D02*
X14776253Y-10483409D01*
X14776253Y-10292933D02*
X14795301Y-10283409D01*
X14795301Y-10283409D02*
X14833396Y-10283409D01*
X14833396Y-10283409D02*
X14852443Y-10292933D01*
X14852443Y-10292933D02*
X14861967Y-10302456D01*
X14861967Y-10302456D02*
X14871491Y-10321504D01*
X14871491Y-10321504D02*
X14871491Y-10378647D01*
X14871491Y-10378647D02*
X14861967Y-10397695D01*
X14861967Y-10397695D02*
X14852443Y-10407218D01*
X14852443Y-10407218D02*
X14833396Y-10416742D01*
X14833396Y-10416742D02*
X14795301Y-10416742D01*
X14795301Y-10416742D02*
X14776253Y-10407218D01*
X14957205Y-10397695D02*
X14966729Y-10407218D01*
X14966729Y-10407218D02*
X14957205Y-10416742D01*
X14957205Y-10416742D02*
X14947682Y-10407218D01*
X14947682Y-10407218D02*
X14957205Y-10397695D01*
X14957205Y-10397695D02*
X14957205Y-10416742D01*
X14957205Y-10292933D02*
X14966729Y-10302456D01*
X14966729Y-10302456D02*
X14957205Y-10311980D01*
X14957205Y-10311980D02*
X14947682Y-10302456D01*
X14947682Y-10302456D02*
X14957205Y-10292933D01*
X14957205Y-10292933D02*
X14957205Y-10311980D01*
X13125000Y-10645258D02*
X13325000Y-10845258D01*
X13325000Y-10645258D02*
X13125000Y-10845258D01*
X13576253Y-10655790D02*
X13585777Y-10646266D01*
X13585777Y-10646266D02*
X13604824Y-10636742D01*
X13604824Y-10636742D02*
X13652443Y-10636742D01*
X13652443Y-10636742D02*
X13671491Y-10646266D01*
X13671491Y-10646266D02*
X13681015Y-10655790D01*
X13681015Y-10655790D02*
X13690539Y-10674837D01*
X13690539Y-10674837D02*
X13690539Y-10693885D01*
X13690539Y-10693885D02*
X13681015Y-10722456D01*
X13681015Y-10722456D02*
X13566729Y-10836742D01*
X13566729Y-10836742D02*
X13690539Y-10836742D01*
X13776253Y-10817695D02*
X13785777Y-10827218D01*
X13785777Y-10827218D02*
X13776253Y-10836742D01*
X13776253Y-10836742D02*
X13766729Y-10827218D01*
X13766729Y-10827218D02*
X13776253Y-10817695D01*
X13776253Y-10817695D02*
X13776253Y-10836742D01*
X13976253Y-10836742D02*
X13861967Y-10836742D01*
X13919110Y-10836742D02*
X13919110Y-10636742D01*
X13919110Y-10636742D02*
X13900062Y-10665314D01*
X13900062Y-10665314D02*
X13881015Y-10684361D01*
X13881015Y-10684361D02*
X13861967Y-10693885D01*
X14100062Y-10636742D02*
X14119110Y-10636742D01*
X14119110Y-10636742D02*
X14138158Y-10646266D01*
X14138158Y-10646266D02*
X14147682Y-10655790D01*
X14147682Y-10655790D02*
X14157205Y-10674837D01*
X14157205Y-10674837D02*
X14166729Y-10712933D01*
X14166729Y-10712933D02*
X14166729Y-10760552D01*
X14166729Y-10760552D02*
X14157205Y-10798647D01*
X14157205Y-10798647D02*
X14147682Y-10817695D01*
X14147682Y-10817695D02*
X14138158Y-10827218D01*
X14138158Y-10827218D02*
X14119110Y-10836742D01*
X14119110Y-10836742D02*
X14100062Y-10836742D01*
X14100062Y-10836742D02*
X14081015Y-10827218D01*
X14081015Y-10827218D02*
X14071491Y-10817695D01*
X14071491Y-10817695D02*
X14061967Y-10798647D01*
X14061967Y-10798647D02*
X14052443Y-10760552D01*
X14052443Y-10760552D02*
X14052443Y-10712933D01*
X14052443Y-10712933D02*
X14061967Y-10674837D01*
X14061967Y-10674837D02*
X14071491Y-10655790D01*
X14071491Y-10655790D02*
X14081015Y-10646266D01*
X14081015Y-10646266D02*
X14100062Y-10636742D01*
X14290539Y-10636742D02*
X14309586Y-10636742D01*
X14309586Y-10636742D02*
X14328634Y-10646266D01*
X14328634Y-10646266D02*
X14338158Y-10655790D01*
X14338158Y-10655790D02*
X14347682Y-10674837D01*
X14347682Y-10674837D02*
X14357205Y-10712933D01*
X14357205Y-10712933D02*
X14357205Y-10760552D01*
X14357205Y-10760552D02*
X14347682Y-10798647D01*
X14347682Y-10798647D02*
X14338158Y-10817695D01*
X14338158Y-10817695D02*
X14328634Y-10827218D01*
X14328634Y-10827218D02*
X14309586Y-10836742D01*
X14309586Y-10836742D02*
X14290539Y-10836742D01*
X14290539Y-10836742D02*
X14271491Y-10827218D01*
X14271491Y-10827218D02*
X14261967Y-10817695D01*
X14261967Y-10817695D02*
X14252443Y-10798647D01*
X14252443Y-10798647D02*
X14242920Y-10760552D01*
X14242920Y-10760552D02*
X14242920Y-10712933D01*
X14242920Y-10712933D02*
X14252443Y-10674837D01*
X14252443Y-10674837D02*
X14261967Y-10655790D01*
X14261967Y-10655790D02*
X14271491Y-10646266D01*
X14271491Y-10646266D02*
X14290539Y-10636742D01*
X14442920Y-10836742D02*
X14442920Y-10703409D01*
X14442920Y-10722456D02*
X14452443Y-10712933D01*
X14452443Y-10712933D02*
X14471491Y-10703409D01*
X14471491Y-10703409D02*
X14500063Y-10703409D01*
X14500063Y-10703409D02*
X14519110Y-10712933D01*
X14519110Y-10712933D02*
X14528634Y-10731980D01*
X14528634Y-10731980D02*
X14528634Y-10836742D01*
X14528634Y-10731980D02*
X14538158Y-10712933D01*
X14538158Y-10712933D02*
X14557205Y-10703409D01*
X14557205Y-10703409D02*
X14585777Y-10703409D01*
X14585777Y-10703409D02*
X14604824Y-10712933D01*
X14604824Y-10712933D02*
X14614348Y-10731980D01*
X14614348Y-10731980D02*
X14614348Y-10836742D01*
X14709586Y-10836742D02*
X14709586Y-10703409D01*
X14709586Y-10722456D02*
X14719110Y-10712933D01*
X14719110Y-10712933D02*
X14738158Y-10703409D01*
X14738158Y-10703409D02*
X14766729Y-10703409D01*
X14766729Y-10703409D02*
X14785777Y-10712933D01*
X14785777Y-10712933D02*
X14795301Y-10731980D01*
X14795301Y-10731980D02*
X14795301Y-10836742D01*
X14795301Y-10731980D02*
X14804824Y-10712933D01*
X14804824Y-10712933D02*
X14823872Y-10703409D01*
X14823872Y-10703409D02*
X14852443Y-10703409D01*
X14852443Y-10703409D02*
X14871491Y-10712933D01*
X14871491Y-10712933D02*
X14881015Y-10731980D01*
X14881015Y-10731980D02*
X14881015Y-10836742D01*
X15271491Y-10627218D02*
X15100063Y-10884361D01*
X15528634Y-10636742D02*
X15547682Y-10636742D01*
X15547682Y-10636742D02*
X15566729Y-10646266D01*
X15566729Y-10646266D02*
X15576253Y-10655790D01*
X15576253Y-10655790D02*
X15585777Y-10674837D01*
X15585777Y-10674837D02*
X15595301Y-10712933D01*
X15595301Y-10712933D02*
X15595301Y-10760552D01*
X15595301Y-10760552D02*
X15585777Y-10798647D01*
X15585777Y-10798647D02*
X15576253Y-10817695D01*
X15576253Y-10817695D02*
X15566729Y-10827218D01*
X15566729Y-10827218D02*
X15547682Y-10836742D01*
X15547682Y-10836742D02*
X15528634Y-10836742D01*
X15528634Y-10836742D02*
X15509586Y-10827218D01*
X15509586Y-10827218D02*
X15500063Y-10817695D01*
X15500063Y-10817695D02*
X15490539Y-10798647D01*
X15490539Y-10798647D02*
X15481015Y-10760552D01*
X15481015Y-10760552D02*
X15481015Y-10712933D01*
X15481015Y-10712933D02*
X15490539Y-10674837D01*
X15490539Y-10674837D02*
X15500063Y-10655790D01*
X15500063Y-10655790D02*
X15509586Y-10646266D01*
X15509586Y-10646266D02*
X15528634Y-10636742D01*
X15681015Y-10817695D02*
X15690539Y-10827218D01*
X15690539Y-10827218D02*
X15681015Y-10836742D01*
X15681015Y-10836742D02*
X15671491Y-10827218D01*
X15671491Y-10827218D02*
X15681015Y-10817695D01*
X15681015Y-10817695D02*
X15681015Y-10836742D01*
X15814348Y-10636742D02*
X15833396Y-10636742D01*
X15833396Y-10636742D02*
X15852444Y-10646266D01*
X15852444Y-10646266D02*
X15861967Y-10655790D01*
X15861967Y-10655790D02*
X15871491Y-10674837D01*
X15871491Y-10674837D02*
X15881015Y-10712933D01*
X15881015Y-10712933D02*
X15881015Y-10760552D01*
X15881015Y-10760552D02*
X15871491Y-10798647D01*
X15871491Y-10798647D02*
X15861967Y-10817695D01*
X15861967Y-10817695D02*
X15852444Y-10827218D01*
X15852444Y-10827218D02*
X15833396Y-10836742D01*
X15833396Y-10836742D02*
X15814348Y-10836742D01*
X15814348Y-10836742D02*
X15795301Y-10827218D01*
X15795301Y-10827218D02*
X15785777Y-10817695D01*
X15785777Y-10817695D02*
X15776253Y-10798647D01*
X15776253Y-10798647D02*
X15766729Y-10760552D01*
X15766729Y-10760552D02*
X15766729Y-10712933D01*
X15766729Y-10712933D02*
X15776253Y-10674837D01*
X15776253Y-10674837D02*
X15785777Y-10655790D01*
X15785777Y-10655790D02*
X15795301Y-10646266D01*
X15795301Y-10646266D02*
X15814348Y-10636742D01*
X15995301Y-10722456D02*
X15976253Y-10712933D01*
X15976253Y-10712933D02*
X15966729Y-10703409D01*
X15966729Y-10703409D02*
X15957206Y-10684361D01*
X15957206Y-10684361D02*
X15957206Y-10674837D01*
X15957206Y-10674837D02*
X15966729Y-10655790D01*
X15966729Y-10655790D02*
X15976253Y-10646266D01*
X15976253Y-10646266D02*
X15995301Y-10636742D01*
X15995301Y-10636742D02*
X16033396Y-10636742D01*
X16033396Y-10636742D02*
X16052444Y-10646266D01*
X16052444Y-10646266D02*
X16061967Y-10655790D01*
X16061967Y-10655790D02*
X16071491Y-10674837D01*
X16071491Y-10674837D02*
X16071491Y-10684361D01*
X16071491Y-10684361D02*
X16061967Y-10703409D01*
X16061967Y-10703409D02*
X16052444Y-10712933D01*
X16052444Y-10712933D02*
X16033396Y-10722456D01*
X16033396Y-10722456D02*
X15995301Y-10722456D01*
X15995301Y-10722456D02*
X15976253Y-10731980D01*
X15976253Y-10731980D02*
X15966729Y-10741504D01*
X15966729Y-10741504D02*
X15957206Y-10760552D01*
X15957206Y-10760552D02*
X15957206Y-10798647D01*
X15957206Y-10798647D02*
X15966729Y-10817695D01*
X15966729Y-10817695D02*
X15976253Y-10827218D01*
X15976253Y-10827218D02*
X15995301Y-10836742D01*
X15995301Y-10836742D02*
X16033396Y-10836742D01*
X16033396Y-10836742D02*
X16052444Y-10827218D01*
X16052444Y-10827218D02*
X16061967Y-10817695D01*
X16061967Y-10817695D02*
X16071491Y-10798647D01*
X16071491Y-10798647D02*
X16071491Y-10760552D01*
X16071491Y-10760552D02*
X16061967Y-10741504D01*
X16061967Y-10741504D02*
X16052444Y-10731980D01*
X16052444Y-10731980D02*
X16033396Y-10722456D01*
X16147682Y-10655790D02*
X16157206Y-10646266D01*
X16157206Y-10646266D02*
X16176253Y-10636742D01*
X16176253Y-10636742D02*
X16223872Y-10636742D01*
X16223872Y-10636742D02*
X16242920Y-10646266D01*
X16242920Y-10646266D02*
X16252444Y-10655790D01*
X16252444Y-10655790D02*
X16261967Y-10674837D01*
X16261967Y-10674837D02*
X16261967Y-10693885D01*
X16261967Y-10693885D02*
X16252444Y-10722456D01*
X16252444Y-10722456D02*
X16138158Y-10836742D01*
X16138158Y-10836742D02*
X16261967Y-10836742D01*
X16328634Y-10636742D02*
X16461967Y-10636742D01*
X16461967Y-10636742D02*
X16376253Y-10836742D01*
X16528634Y-10636742D02*
X16528634Y-10674837D01*
X16604825Y-10636742D02*
X16604825Y-10674837D01*
X16900063Y-10912933D02*
X16890539Y-10903409D01*
X16890539Y-10903409D02*
X16871491Y-10874837D01*
X16871491Y-10874837D02*
X16861968Y-10855790D01*
X16861968Y-10855790D02*
X16852444Y-10827218D01*
X16852444Y-10827218D02*
X16842920Y-10779599D01*
X16842920Y-10779599D02*
X16842920Y-10741504D01*
X16842920Y-10741504D02*
X16852444Y-10693885D01*
X16852444Y-10693885D02*
X16861968Y-10665314D01*
X16861968Y-10665314D02*
X16871491Y-10646266D01*
X16871491Y-10646266D02*
X16890539Y-10617695D01*
X16890539Y-10617695D02*
X16900063Y-10608171D01*
X17061968Y-10703409D02*
X17061968Y-10836742D01*
X17014349Y-10627218D02*
X16966730Y-10770076D01*
X16966730Y-10770076D02*
X17090539Y-10770076D01*
X17319111Y-10836742D02*
X17319111Y-10636742D01*
X17404825Y-10836742D02*
X17404825Y-10731980D01*
X17404825Y-10731980D02*
X17395301Y-10712933D01*
X17395301Y-10712933D02*
X17376253Y-10703409D01*
X17376253Y-10703409D02*
X17347682Y-10703409D01*
X17347682Y-10703409D02*
X17328634Y-10712933D01*
X17328634Y-10712933D02*
X17319111Y-10722456D01*
X17528634Y-10836742D02*
X17509587Y-10827218D01*
X17509587Y-10827218D02*
X17500063Y-10817695D01*
X17500063Y-10817695D02*
X17490539Y-10798647D01*
X17490539Y-10798647D02*
X17490539Y-10741504D01*
X17490539Y-10741504D02*
X17500063Y-10722456D01*
X17500063Y-10722456D02*
X17509587Y-10712933D01*
X17509587Y-10712933D02*
X17528634Y-10703409D01*
X17528634Y-10703409D02*
X17557206Y-10703409D01*
X17557206Y-10703409D02*
X17576253Y-10712933D01*
X17576253Y-10712933D02*
X17585777Y-10722456D01*
X17585777Y-10722456D02*
X17595301Y-10741504D01*
X17595301Y-10741504D02*
X17595301Y-10798647D01*
X17595301Y-10798647D02*
X17585777Y-10817695D01*
X17585777Y-10817695D02*
X17576253Y-10827218D01*
X17576253Y-10827218D02*
X17557206Y-10836742D01*
X17557206Y-10836742D02*
X17528634Y-10836742D01*
X17709587Y-10836742D02*
X17690539Y-10827218D01*
X17690539Y-10827218D02*
X17681015Y-10808171D01*
X17681015Y-10808171D02*
X17681015Y-10636742D01*
X17861968Y-10827218D02*
X17842920Y-10836742D01*
X17842920Y-10836742D02*
X17804825Y-10836742D01*
X17804825Y-10836742D02*
X17785777Y-10827218D01*
X17785777Y-10827218D02*
X17776253Y-10808171D01*
X17776253Y-10808171D02*
X17776253Y-10731980D01*
X17776253Y-10731980D02*
X17785777Y-10712933D01*
X17785777Y-10712933D02*
X17804825Y-10703409D01*
X17804825Y-10703409D02*
X17842920Y-10703409D01*
X17842920Y-10703409D02*
X17861968Y-10712933D01*
X17861968Y-10712933D02*
X17871492Y-10731980D01*
X17871492Y-10731980D02*
X17871492Y-10751028D01*
X17871492Y-10751028D02*
X17776253Y-10770076D01*
X17947682Y-10827218D02*
X17966730Y-10836742D01*
X17966730Y-10836742D02*
X18004825Y-10836742D01*
X18004825Y-10836742D02*
X18023873Y-10827218D01*
X18023873Y-10827218D02*
X18033396Y-10808171D01*
X18033396Y-10808171D02*
X18033396Y-10798647D01*
X18033396Y-10798647D02*
X18023873Y-10779599D01*
X18023873Y-10779599D02*
X18004825Y-10770076D01*
X18004825Y-10770076D02*
X17976253Y-10770076D01*
X17976253Y-10770076D02*
X17957206Y-10760552D01*
X17957206Y-10760552D02*
X17947682Y-10741504D01*
X17947682Y-10741504D02*
X17947682Y-10731980D01*
X17947682Y-10731980D02*
X17957206Y-10712933D01*
X17957206Y-10712933D02*
X17976253Y-10703409D01*
X17976253Y-10703409D02*
X18004825Y-10703409D01*
X18004825Y-10703409D02*
X18023873Y-10712933D01*
X18100063Y-10912933D02*
X18109587Y-10903409D01*
X18109587Y-10903409D02*
X18128634Y-10874837D01*
X18128634Y-10874837D02*
X18138158Y-10855790D01*
X18138158Y-10855790D02*
X18147682Y-10827218D01*
X18147682Y-10827218D02*
X18157206Y-10779599D01*
X18157206Y-10779599D02*
X18157206Y-10741504D01*
X18157206Y-10741504D02*
X18147682Y-10693885D01*
X18147682Y-10693885D02*
X18138158Y-10665314D01*
X18138158Y-10665314D02*
X18128634Y-10646266D01*
X18128634Y-10646266D02*
X18109587Y-10617695D01*
X18109587Y-10617695D02*
X18100063Y-10608171D01*
X18461968Y-10912933D02*
X18452444Y-10903409D01*
X18452444Y-10903409D02*
X18433396Y-10874837D01*
X18433396Y-10874837D02*
X18423873Y-10855790D01*
X18423873Y-10855790D02*
X18414349Y-10827218D01*
X18414349Y-10827218D02*
X18404825Y-10779599D01*
X18404825Y-10779599D02*
X18404825Y-10741504D01*
X18404825Y-10741504D02*
X18414349Y-10693885D01*
X18414349Y-10693885D02*
X18423873Y-10665314D01*
X18423873Y-10665314D02*
X18433396Y-10646266D01*
X18433396Y-10646266D02*
X18452444Y-10617695D01*
X18452444Y-10617695D02*
X18461968Y-10608171D01*
X18538158Y-10703409D02*
X18538158Y-10836742D01*
X18538158Y-10722456D02*
X18547682Y-10712933D01*
X18547682Y-10712933D02*
X18566730Y-10703409D01*
X18566730Y-10703409D02*
X18595301Y-10703409D01*
X18595301Y-10703409D02*
X18614349Y-10712933D01*
X18614349Y-10712933D02*
X18623873Y-10731980D01*
X18623873Y-10731980D02*
X18623873Y-10836742D01*
X18747682Y-10836742D02*
X18728634Y-10827218D01*
X18728634Y-10827218D02*
X18719111Y-10817695D01*
X18719111Y-10817695D02*
X18709587Y-10798647D01*
X18709587Y-10798647D02*
X18709587Y-10741504D01*
X18709587Y-10741504D02*
X18719111Y-10722456D01*
X18719111Y-10722456D02*
X18728634Y-10712933D01*
X18728634Y-10712933D02*
X18747682Y-10703409D01*
X18747682Y-10703409D02*
X18776254Y-10703409D01*
X18776254Y-10703409D02*
X18795301Y-10712933D01*
X18795301Y-10712933D02*
X18804825Y-10722456D01*
X18804825Y-10722456D02*
X18814349Y-10741504D01*
X18814349Y-10741504D02*
X18814349Y-10798647D01*
X18814349Y-10798647D02*
X18804825Y-10817695D01*
X18804825Y-10817695D02*
X18795301Y-10827218D01*
X18795301Y-10827218D02*
X18776254Y-10836742D01*
X18776254Y-10836742D02*
X18747682Y-10836742D01*
X18871492Y-10703409D02*
X18947682Y-10703409D01*
X18900063Y-10636742D02*
X18900063Y-10808171D01*
X18900063Y-10808171D02*
X18909587Y-10827218D01*
X18909587Y-10827218D02*
X18928634Y-10836742D01*
X18928634Y-10836742D02*
X18947682Y-10836742D01*
X19166730Y-10703409D02*
X19166730Y-10903409D01*
X19166730Y-10712933D02*
X19185777Y-10703409D01*
X19185777Y-10703409D02*
X19223873Y-10703409D01*
X19223873Y-10703409D02*
X19242920Y-10712933D01*
X19242920Y-10712933D02*
X19252444Y-10722456D01*
X19252444Y-10722456D02*
X19261968Y-10741504D01*
X19261968Y-10741504D02*
X19261968Y-10798647D01*
X19261968Y-10798647D02*
X19252444Y-10817695D01*
X19252444Y-10817695D02*
X19242920Y-10827218D01*
X19242920Y-10827218D02*
X19223873Y-10836742D01*
X19223873Y-10836742D02*
X19185777Y-10836742D01*
X19185777Y-10836742D02*
X19166730Y-10827218D01*
X19376254Y-10836742D02*
X19357206Y-10827218D01*
X19357206Y-10827218D02*
X19347682Y-10808171D01*
X19347682Y-10808171D02*
X19347682Y-10636742D01*
X19538158Y-10836742D02*
X19538158Y-10731980D01*
X19538158Y-10731980D02*
X19528635Y-10712933D01*
X19528635Y-10712933D02*
X19509587Y-10703409D01*
X19509587Y-10703409D02*
X19471492Y-10703409D01*
X19471492Y-10703409D02*
X19452444Y-10712933D01*
X19538158Y-10827218D02*
X19519111Y-10836742D01*
X19519111Y-10836742D02*
X19471492Y-10836742D01*
X19471492Y-10836742D02*
X19452444Y-10827218D01*
X19452444Y-10827218D02*
X19442920Y-10808171D01*
X19442920Y-10808171D02*
X19442920Y-10789123D01*
X19442920Y-10789123D02*
X19452444Y-10770076D01*
X19452444Y-10770076D02*
X19471492Y-10760552D01*
X19471492Y-10760552D02*
X19519111Y-10760552D01*
X19519111Y-10760552D02*
X19538158Y-10751028D01*
X19604825Y-10703409D02*
X19681015Y-10703409D01*
X19633396Y-10636742D02*
X19633396Y-10808171D01*
X19633396Y-10808171D02*
X19642920Y-10827218D01*
X19642920Y-10827218D02*
X19661968Y-10836742D01*
X19661968Y-10836742D02*
X19681015Y-10836742D01*
X19823873Y-10827218D02*
X19804825Y-10836742D01*
X19804825Y-10836742D02*
X19766730Y-10836742D01*
X19766730Y-10836742D02*
X19747682Y-10827218D01*
X19747682Y-10827218D02*
X19738158Y-10808171D01*
X19738158Y-10808171D02*
X19738158Y-10731980D01*
X19738158Y-10731980D02*
X19747682Y-10712933D01*
X19747682Y-10712933D02*
X19766730Y-10703409D01*
X19766730Y-10703409D02*
X19804825Y-10703409D01*
X19804825Y-10703409D02*
X19823873Y-10712933D01*
X19823873Y-10712933D02*
X19833396Y-10731980D01*
X19833396Y-10731980D02*
X19833396Y-10751028D01*
X19833396Y-10751028D02*
X19738158Y-10770076D01*
X20004825Y-10836742D02*
X20004825Y-10636742D01*
X20004825Y-10827218D02*
X19985777Y-10836742D01*
X19985777Y-10836742D02*
X19947682Y-10836742D01*
X19947682Y-10836742D02*
X19928635Y-10827218D01*
X19928635Y-10827218D02*
X19919111Y-10817695D01*
X19919111Y-10817695D02*
X19909587Y-10798647D01*
X19909587Y-10798647D02*
X19909587Y-10741504D01*
X19909587Y-10741504D02*
X19919111Y-10722456D01*
X19919111Y-10722456D02*
X19928635Y-10712933D01*
X19928635Y-10712933D02*
X19947682Y-10703409D01*
X19947682Y-10703409D02*
X19985777Y-10703409D01*
X19985777Y-10703409D02*
X20004825Y-10712933D01*
X20081016Y-10912933D02*
X20090539Y-10903409D01*
X20090539Y-10903409D02*
X20109587Y-10874837D01*
X20109587Y-10874837D02*
X20119111Y-10855790D01*
X20119111Y-10855790D02*
X20128635Y-10827218D01*
X20128635Y-10827218D02*
X20138158Y-10779599D01*
X20138158Y-10779599D02*
X20138158Y-10741504D01*
X20138158Y-10741504D02*
X20128635Y-10693885D01*
X20128635Y-10693885D02*
X20119111Y-10665314D01*
X20119111Y-10665314D02*
X20109587Y-10646266D01*
X20109587Y-10646266D02*
X20090539Y-10617695D01*
X20090539Y-10617695D02*
X20081016Y-10608171D01*
M02*
