%TF.GenerationSoftware,KiCad,Pcbnew,7.0.11*%
%TF.CreationDate,2025-01-20T01:41:05+09:00*%
%TF.ProjectId,MD,4d442e6b-6963-4616-945f-706362585858,rev?*%
%TF.SameCoordinates,Original*%
%TF.FileFunction,Drillmap*%
%TF.FilePolarity,Positive*%
%FSLAX45Y45*%
G04 Gerber Fmt 4.5, Leading zero omitted, Abs format (unit mm)*
G04 Created by KiCad (PCBNEW 7.0.11) date 2025-01-20 01:41:05*
%MOMM*%
%LPD*%
G01*
G04 APERTURE LIST*
%ADD10C,0.200000*%
%ADD11C,0.100000*%
G04 APERTURE END LIST*
D10*
X14835000Y-9195260D02*
G75*
G03*
X14735000Y-9295258I0J-100000D01*
G01*
X16652157Y-6375157D02*
X13817843Y-6375157D01*
X17045000Y-9895258D02*
G75*
G03*
X16825000Y-9895258I-110000J0D01*
G01*
X16825000Y-9895258D02*
G75*
G03*
X17045000Y-9895258I110000J0D01*
G01*
X13535000Y-10095258D02*
X14635000Y-10095258D01*
X14835000Y-9195258D02*
X16635000Y-9195258D01*
X17135000Y-6858000D02*
G75*
G03*
X17076421Y-6716579I-200000J0D01*
G01*
X14635000Y-10095260D02*
G75*
G03*
X14735000Y-9995258I0J100000D01*
G01*
X17135000Y-9895258D02*
X17135000Y-6858000D01*
X17076421Y-6716579D02*
X16793579Y-6433736D01*
X16735000Y-9295258D02*
X16735000Y-9895176D01*
X16735002Y-9295258D02*
G75*
G03*
X16635000Y-9195258I-100002J-2D01*
G01*
X13335002Y-9895258D02*
G75*
G03*
X13535000Y-10095258I199998J-2D01*
G01*
X13645000Y-6858000D02*
G75*
G03*
X13425000Y-6858000I-110000J0D01*
G01*
X13425000Y-6858000D02*
G75*
G03*
X13645000Y-6858000I110000J0D01*
G01*
X13335000Y-6858000D02*
X13335000Y-9895258D01*
X16935000Y-10095260D02*
G75*
G03*
X17135000Y-9895258I0J200000D01*
G01*
X17045000Y-6858000D02*
G75*
G03*
X16825000Y-6858000I-110000J0D01*
G01*
X16825000Y-6858000D02*
G75*
G03*
X17045000Y-6858000I110000J0D01*
G01*
X13645000Y-9895258D02*
G75*
G03*
X13425000Y-9895258I-110000J0D01*
G01*
X13425000Y-9895258D02*
G75*
G03*
X13645000Y-9895258I110000J0D01*
G01*
X14735000Y-9995258D02*
X14735000Y-9295258D01*
X16735002Y-9895176D02*
G75*
G03*
X16935000Y-10095258I199998J-84D01*
G01*
X13817843Y-6375160D02*
G75*
G03*
X13676421Y-6433736I-3J-200000D01*
G01*
X13393579Y-6716579D02*
G75*
G03*
X13335000Y-6858000I141421J-141421D01*
G01*
X13676421Y-6433736D02*
X13393579Y-6716579D01*
X16793581Y-6433734D02*
G75*
G03*
X16652157Y-6375157I-141421J-141426D01*
G01*
D11*
X13604560Y-9342440D02*
X13644560Y-9382440D01*
X13644560Y-9342440D02*
X13604560Y-9382440D01*
X13680760Y-8565200D02*
X13720760Y-8605200D01*
X13720760Y-8565200D02*
X13680760Y-8605200D01*
X13696000Y-8174040D02*
X13736000Y-8214040D01*
X13736000Y-8174040D02*
X13696000Y-8214040D01*
X13731560Y-9174800D02*
X13771560Y-9214800D01*
X13771560Y-9174800D02*
X13731560Y-9214800D01*
X13772200Y-9002080D02*
X13812200Y-9042080D01*
X13812200Y-9002080D02*
X13772200Y-9042080D01*
X13787440Y-7056440D02*
X13827440Y-7096440D01*
X13827440Y-7056440D02*
X13787440Y-7096440D01*
X13787440Y-10007920D02*
X13827440Y-10047920D01*
X13827440Y-10007920D02*
X13787440Y-10047920D01*
X13792520Y-6533200D02*
X13832520Y-6573200D01*
X13832520Y-6533200D02*
X13792520Y-6573200D01*
X13817920Y-8875080D02*
X13857920Y-8915080D01*
X13857920Y-8875080D02*
X13817920Y-8915080D01*
X13904280Y-9677720D02*
X13944280Y-9717720D01*
X13944280Y-9677720D02*
X13904280Y-9717720D01*
X13911900Y-8133400D02*
X13951900Y-8173400D01*
X13951900Y-8133400D02*
X13911900Y-8173400D01*
X13914440Y-7518720D02*
X13954440Y-7558720D01*
X13954440Y-7518720D02*
X13914440Y-7558720D01*
X13995720Y-7681280D02*
X14035720Y-7721280D01*
X14035720Y-7681280D02*
X13995720Y-7721280D01*
X14009925Y-7987500D02*
X14049925Y-8027500D01*
X14049925Y-7987500D02*
X14009925Y-8027500D01*
X14127800Y-7061520D02*
X14167800Y-7101520D01*
X14167800Y-7061520D02*
X14127800Y-7101520D01*
X14127800Y-7672650D02*
X14167800Y-7712650D01*
X14167800Y-7672650D02*
X14127800Y-7712650D01*
X14153200Y-8331520D02*
X14193200Y-8371520D01*
X14193200Y-8331520D02*
X14153200Y-8371520D01*
X14209080Y-9814880D02*
X14249080Y-9854880D01*
X14249080Y-9814880D02*
X14209080Y-9854880D01*
X14229400Y-6421440D02*
X14269400Y-6461440D01*
X14269400Y-6421440D02*
X14229400Y-6461440D01*
X14244640Y-7672650D02*
X14284640Y-7712650D01*
X14284640Y-7672650D02*
X14244640Y-7712650D01*
X14381800Y-7244400D02*
X14421800Y-7284400D01*
X14421800Y-7244400D02*
X14381800Y-7284400D01*
X14381800Y-7320600D02*
X14421800Y-7360600D01*
X14421800Y-7320600D02*
X14381800Y-7360600D01*
X14381800Y-7396800D02*
X14421800Y-7436800D01*
X14421800Y-7396800D02*
X14381800Y-7436800D01*
X14381800Y-9103680D02*
X14421800Y-9143680D01*
X14421800Y-9103680D02*
X14381800Y-9143680D01*
X14412280Y-8692200D02*
X14452280Y-8732200D01*
X14452280Y-8692200D02*
X14412280Y-8732200D01*
X14458000Y-7056440D02*
X14498000Y-7096440D01*
X14498000Y-7056440D02*
X14458000Y-7096440D01*
X14470700Y-7752400D02*
X14510700Y-7792400D01*
X14510700Y-7752400D02*
X14470700Y-7792400D01*
X14473240Y-6695760D02*
X14513240Y-6735760D01*
X14513240Y-6695760D02*
X14473240Y-6735760D01*
X14481921Y-8000236D02*
X14521921Y-8040236D01*
X14521921Y-8000236D02*
X14481921Y-8040236D01*
X14493560Y-9489760D02*
X14533560Y-9529760D01*
X14533560Y-9489760D02*
X14493560Y-9529760D01*
X14546900Y-7825500D02*
X14586900Y-7865500D01*
X14586900Y-7825500D02*
X14546900Y-7865500D01*
X14548438Y-7673060D02*
X14588438Y-7713060D01*
X14588438Y-7673060D02*
X14548438Y-7713060D01*
X14569760Y-7457760D02*
X14609760Y-7497760D01*
X14609760Y-7457760D02*
X14569760Y-7497760D01*
X14610400Y-10002840D02*
X14650400Y-10042840D01*
X14650400Y-10002840D02*
X14610400Y-10042840D01*
X14635800Y-8133400D02*
X14675800Y-8173400D01*
X14675800Y-8133400D02*
X14635800Y-8173400D01*
X14640880Y-9596440D02*
X14680880Y-9636440D01*
X14680880Y-9596440D02*
X14640880Y-9636440D01*
X14661200Y-7671120D02*
X14701200Y-7711120D01*
X14701200Y-7671120D02*
X14661200Y-7711120D01*
X14691680Y-7943900D02*
X14731680Y-7983900D01*
X14731680Y-7943900D02*
X14691680Y-7983900D01*
X14699174Y-8796300D02*
X14739174Y-8836300D01*
X14739174Y-8796300D02*
X14699174Y-8836300D01*
X14788200Y-7061520D02*
X14828200Y-7101520D01*
X14828200Y-7061520D02*
X14788200Y-7101520D01*
X14788200Y-7672650D02*
X14828200Y-7712650D01*
X14828200Y-7672650D02*
X14788200Y-7712650D01*
X14799174Y-8796300D02*
X14839174Y-8836300D01*
X14839174Y-8796300D02*
X14799174Y-8836300D01*
X14802476Y-8687900D02*
X14842476Y-8727900D01*
X14842476Y-8687900D02*
X14802476Y-8727900D01*
X14803615Y-8498800D02*
X14843615Y-8538800D01*
X14843615Y-8498800D02*
X14803615Y-8538800D01*
X14864400Y-6421440D02*
X14904400Y-6461440D01*
X14904400Y-6421440D02*
X14864400Y-6461440D01*
X14903616Y-8498800D02*
X14943616Y-8538800D01*
X14943616Y-8498800D02*
X14903616Y-8538800D01*
X14915200Y-7672650D02*
X14955200Y-7712650D01*
X14955200Y-7672650D02*
X14915200Y-7712650D01*
X15004100Y-8501700D02*
X15044100Y-8541700D01*
X15044100Y-8501700D02*
X15004100Y-8541700D01*
X15042200Y-7244400D02*
X15082200Y-7284400D01*
X15082200Y-7244400D02*
X15042200Y-7284400D01*
X15042200Y-7320600D02*
X15082200Y-7360600D01*
X15082200Y-7320600D02*
X15042200Y-7360600D01*
X15042200Y-7396800D02*
X15082200Y-7436800D01*
X15082200Y-7396800D02*
X15042200Y-7436800D01*
X15042200Y-7676200D02*
X15082200Y-7716200D01*
X15082200Y-7676200D02*
X15042200Y-7716200D01*
X15098080Y-6690680D02*
X15138080Y-6730680D01*
X15138080Y-6690680D02*
X15098080Y-6730680D01*
X15098080Y-7056440D02*
X15138080Y-7096440D01*
X15138080Y-7056440D02*
X15098080Y-7096440D01*
X15153960Y-7777800D02*
X15193960Y-7817800D01*
X15193960Y-7777800D02*
X15153960Y-7817800D01*
X15188722Y-8338800D02*
X15228722Y-8378800D01*
X15228722Y-8338800D02*
X15188722Y-8378800D01*
X15209840Y-7457760D02*
X15249840Y-7497760D01*
X15249840Y-7457760D02*
X15209840Y-7497760D01*
X15270800Y-7671120D02*
X15310800Y-7711120D01*
X15310800Y-7671120D02*
X15270800Y-7711120D01*
X15280960Y-7986080D02*
X15320960Y-8026080D01*
X15320960Y-7986080D02*
X15280960Y-8026080D01*
X15288722Y-8338800D02*
X15328722Y-8378800D01*
X15328722Y-8338800D02*
X15288722Y-8378800D01*
X15316520Y-8875080D02*
X15356520Y-8915080D01*
X15356520Y-8875080D02*
X15316520Y-8915080D01*
X15321600Y-8727760D02*
X15361600Y-8767760D01*
X15361600Y-8727760D02*
X15321600Y-8767760D01*
X15332556Y-8428681D02*
X15372556Y-8468681D01*
X15372556Y-8428681D02*
X15332556Y-8468681D01*
X15397800Y-7061520D02*
X15437800Y-7101520D01*
X15437800Y-7061520D02*
X15397800Y-7101520D01*
X15397800Y-7676200D02*
X15437800Y-7716200D01*
X15437800Y-7676200D02*
X15397800Y-7716200D01*
X15397800Y-8247700D02*
X15437800Y-8287700D01*
X15437800Y-8247700D02*
X15397800Y-8287700D01*
X15397800Y-8347700D02*
X15437800Y-8387700D01*
X15437800Y-8347700D02*
X15397800Y-8387700D01*
X15407361Y-8494900D02*
X15447361Y-8534900D01*
X15447361Y-8494900D02*
X15407361Y-8534900D01*
X15484160Y-6421440D02*
X15524160Y-6461440D01*
X15524160Y-6421440D02*
X15484160Y-6461440D01*
X15524800Y-7676200D02*
X15564800Y-7716200D01*
X15564800Y-7676200D02*
X15524800Y-7716200D01*
X15595920Y-7981000D02*
X15635920Y-8021000D01*
X15635920Y-7981000D02*
X15595920Y-8021000D01*
X15651800Y-7244400D02*
X15691800Y-7284400D01*
X15691800Y-7244400D02*
X15651800Y-7284400D01*
X15651800Y-7320600D02*
X15691800Y-7360600D01*
X15691800Y-7320600D02*
X15651800Y-7360600D01*
X15651800Y-7396800D02*
X15691800Y-7436800D01*
X15691800Y-7396800D02*
X15651800Y-7436800D01*
X15697520Y-8722680D02*
X15737520Y-8762680D01*
X15737520Y-8722680D02*
X15697520Y-8762680D01*
X15697520Y-8880160D02*
X15737520Y-8920160D01*
X15737520Y-8880160D02*
X15697520Y-8920160D01*
X15717840Y-6685600D02*
X15757840Y-6725600D01*
X15757840Y-6685600D02*
X15717840Y-6725600D01*
X15717840Y-7051360D02*
X15757840Y-7091360D01*
X15757840Y-7051360D02*
X15717840Y-7091360D01*
X15722952Y-7949400D02*
X15762952Y-7989400D01*
X15762952Y-7949400D02*
X15722952Y-7989400D01*
X15773720Y-7544120D02*
X15813720Y-7584120D01*
X15813720Y-7544120D02*
X15773720Y-7584120D01*
X15870240Y-7462840D02*
X15910240Y-7502840D01*
X15910240Y-7462840D02*
X15870240Y-7502840D01*
X15890560Y-7671120D02*
X15930560Y-7711120D01*
X15930560Y-7671120D02*
X15890560Y-7711120D01*
X16020100Y-7676200D02*
X16060100Y-7716200D01*
X16060100Y-7676200D02*
X16020100Y-7716200D01*
X16109000Y-6421440D02*
X16149000Y-6461440D01*
X16149000Y-6421440D02*
X16109000Y-6461440D01*
X16147100Y-7676200D02*
X16187100Y-7716200D01*
X16187100Y-7676200D02*
X16147100Y-7716200D01*
X16197900Y-8133400D02*
X16237900Y-8173400D01*
X16237900Y-8133400D02*
X16197900Y-8173400D01*
X16197900Y-8235000D02*
X16237900Y-8275000D01*
X16237900Y-8235000D02*
X16197900Y-8275000D01*
X16236000Y-8819200D02*
X16276000Y-8859200D01*
X16276000Y-8819200D02*
X16236000Y-8859200D01*
X16274100Y-7244400D02*
X16314100Y-7284400D01*
X16314100Y-7244400D02*
X16274100Y-7284400D01*
X16274100Y-7320600D02*
X16314100Y-7360600D01*
X16314100Y-7320600D02*
X16274100Y-7360600D01*
X16274100Y-7396800D02*
X16314100Y-7436800D01*
X16314100Y-7396800D02*
X16274100Y-7436800D01*
X16312200Y-8133400D02*
X16352200Y-8173400D01*
X16352200Y-8133400D02*
X16312200Y-8173400D01*
X16312200Y-8235000D02*
X16352200Y-8275000D01*
X16352200Y-8235000D02*
X16312200Y-8275000D01*
X16317280Y-6700840D02*
X16357280Y-6740840D01*
X16357280Y-6700840D02*
X16317280Y-6740840D01*
X16327440Y-7036120D02*
X16367440Y-7076120D01*
X16367440Y-7036120D02*
X16327440Y-7076120D01*
X16439200Y-8133400D02*
X16479200Y-8173400D01*
X16479200Y-8133400D02*
X16439200Y-8173400D01*
X16439200Y-8235000D02*
X16479200Y-8275000D01*
X16479200Y-8235000D02*
X16439200Y-8275000D01*
X16477300Y-8819200D02*
X16517300Y-8859200D01*
X16517300Y-8819200D02*
X16477300Y-8859200D01*
X16566200Y-8133400D02*
X16606200Y-8173400D01*
X16606200Y-8133400D02*
X16566200Y-8173400D01*
X16566200Y-8235000D02*
X16606200Y-8275000D01*
X16606200Y-8235000D02*
X16566200Y-8275000D01*
X16617000Y-6523040D02*
X16657000Y-6563040D01*
X16657000Y-6523040D02*
X16617000Y-6563040D01*
X16680500Y-8133400D02*
X16720500Y-8173400D01*
X16720500Y-8133400D02*
X16680500Y-8173400D01*
X16680500Y-8235000D02*
X16720500Y-8275000D01*
X16720500Y-8235000D02*
X16680500Y-8275000D01*
X16738920Y-7178360D02*
X16778920Y-7218360D01*
X16778920Y-7178360D02*
X16738920Y-7218360D01*
X16769400Y-8819200D02*
X16809400Y-8859200D01*
X16809400Y-8819200D02*
X16769400Y-8859200D01*
X16794800Y-9210360D02*
X16834800Y-9250360D01*
X16834800Y-9210360D02*
X16794800Y-9250360D01*
X17023400Y-9210360D02*
X17063400Y-9250360D01*
X17063400Y-9210360D02*
X17023400Y-9250360D01*
X13826600Y-9404700D02*
G75*
G03*
X13766600Y-9404700I-30000J0D01*
G01*
X13766600Y-9404700D02*
G75*
G03*
X13826600Y-9404700I30000J0D01*
G01*
X13766600Y-9349700D02*
X13766600Y-9459700D01*
X13766600Y-9459700D02*
G75*
G03*
X13826600Y-9459700I30000J0D01*
G01*
X13826600Y-9459700D02*
X13826600Y-9349700D01*
X13826600Y-9349700D02*
G75*
G03*
X13766600Y-9349700I-30000J0D01*
G01*
X13826600Y-9822700D02*
G75*
G03*
X13766600Y-9822700I-30000J0D01*
G01*
X13766600Y-9822700D02*
G75*
G03*
X13826600Y-9822700I30000J0D01*
G01*
X13766600Y-9782700D02*
X13766600Y-9862700D01*
X13766600Y-9862700D02*
G75*
G03*
X13826600Y-9862700I30000J0D01*
G01*
X13826600Y-9862700D02*
X13826600Y-9782700D01*
X13826600Y-9782700D02*
G75*
G03*
X13766600Y-9782700I-30000J0D01*
G01*
X14690600Y-9404700D02*
G75*
G03*
X14630600Y-9404700I-30000J0D01*
G01*
X14630600Y-9404700D02*
G75*
G03*
X14690600Y-9404700I30000J0D01*
G01*
X14630600Y-9349700D02*
X14630600Y-9459700D01*
X14630600Y-9459700D02*
G75*
G03*
X14690600Y-9459700I30000J0D01*
G01*
X14690600Y-9459700D02*
X14690600Y-9349700D01*
X14690600Y-9349700D02*
G75*
G03*
X14630600Y-9349700I-30000J0D01*
G01*
X14690600Y-9822700D02*
G75*
G03*
X14630600Y-9822700I-30000J0D01*
G01*
X14630600Y-9822700D02*
G75*
G03*
X14690600Y-9822700I30000J0D01*
G01*
X14630600Y-9782700D02*
X14630600Y-9862700D01*
X14630600Y-9862700D02*
G75*
G03*
X14690600Y-9862700I30000J0D01*
G01*
X14690600Y-9862700D02*
X14690600Y-9782700D01*
X14690600Y-9782700D02*
G75*
G03*
X14630600Y-9782700I-30000J0D01*
G01*
X13512800Y-7189000D02*
X13512800Y-7289000D01*
X13462800Y-7239000D02*
X13562800Y-7239000D01*
X13512800Y-7443000D02*
X13512800Y-7543000D01*
X13462800Y-7493000D02*
X13562800Y-7493000D01*
X13512800Y-7697000D02*
X13512800Y-7797000D01*
X13462800Y-7747000D02*
X13562800Y-7747000D01*
X13512800Y-7951000D02*
X13512800Y-8051000D01*
X13462800Y-8001000D02*
X13562800Y-8001000D01*
X13512800Y-8205000D02*
X13512800Y-8305000D01*
X13462800Y-8255000D02*
X13562800Y-8255000D01*
X13512800Y-8459000D02*
X13512800Y-8559000D01*
X13462800Y-8509000D02*
X13562800Y-8509000D01*
X13512800Y-8713000D02*
X13512800Y-8813000D01*
X13462800Y-8763000D02*
X13562800Y-8763000D01*
X13512800Y-8967000D02*
X13512800Y-9067000D01*
X13462800Y-9017000D02*
X13562800Y-9017000D01*
X14211300Y-7437920D02*
X14211300Y-7537920D01*
X14161300Y-7487920D02*
X14261300Y-7487920D01*
X14181300Y-7537920D02*
X14241300Y-7537920D01*
X14241300Y-7537920D02*
G75*
G03*
X14241300Y-7437920I0J50000D01*
G01*
X14241300Y-7437920D02*
X14181300Y-7437920D01*
X14181300Y-7437920D02*
G75*
G03*
X14181300Y-7537920I0J-50000D01*
G01*
X14249400Y-6583400D02*
X14249400Y-6683400D01*
X14199400Y-6633400D02*
X14299400Y-6633400D01*
X14249400Y-6833400D02*
X14249400Y-6933400D01*
X14199400Y-6883400D02*
X14299400Y-6883400D01*
X14871700Y-7437920D02*
X14871700Y-7537920D01*
X14821700Y-7487920D02*
X14921700Y-7487920D01*
X14841700Y-7537920D02*
X14901700Y-7537920D01*
X14901700Y-7537920D02*
G75*
G03*
X14901700Y-7437920I0J50000D01*
G01*
X14901700Y-7437920D02*
X14841700Y-7437920D01*
X14841700Y-7437920D02*
G75*
G03*
X14841700Y-7537920I0J-50000D01*
G01*
X14884400Y-6583400D02*
X14884400Y-6683400D01*
X14834400Y-6633400D02*
X14934400Y-6633400D01*
X14884400Y-6833400D02*
X14884400Y-6933400D01*
X14834400Y-6883400D02*
X14934400Y-6883400D01*
X15481300Y-7437920D02*
X15481300Y-7537920D01*
X15431300Y-7487920D02*
X15531300Y-7487920D01*
X15451300Y-7537920D02*
X15511300Y-7537920D01*
X15511300Y-7537920D02*
G75*
G03*
X15511300Y-7437920I0J50000D01*
G01*
X15511300Y-7437920D02*
X15451300Y-7437920D01*
X15451300Y-7437920D02*
G75*
G03*
X15451300Y-7537920I0J-50000D01*
G01*
X15506700Y-6583400D02*
X15506700Y-6683400D01*
X15456700Y-6633400D02*
X15556700Y-6633400D01*
X15506700Y-6833400D02*
X15506700Y-6933400D01*
X15456700Y-6883400D02*
X15556700Y-6883400D01*
X16103600Y-7432840D02*
X16103600Y-7532840D01*
X16053600Y-7482840D02*
X16153600Y-7482840D01*
X16073600Y-7532840D02*
X16133600Y-7532840D01*
X16133600Y-7532840D02*
G75*
G03*
X16133600Y-7432840I0J50000D01*
G01*
X16133600Y-7432840D02*
X16073600Y-7432840D01*
X16073600Y-7432840D02*
G75*
G03*
X16073600Y-7532840I0J-50000D01*
G01*
X16129000Y-6583400D02*
X16129000Y-6683400D01*
X16079000Y-6633400D02*
X16179000Y-6633400D01*
X16129000Y-6833400D02*
X16129000Y-6933400D01*
X16079000Y-6883400D02*
X16179000Y-6883400D01*
X16957000Y-7189000D02*
X16957000Y-7289000D01*
X16907000Y-7239000D02*
X17007000Y-7239000D01*
X16957000Y-7443000D02*
X16957000Y-7543000D01*
X16907000Y-7493000D02*
X17007000Y-7493000D01*
X16957000Y-7697000D02*
X16957000Y-7797000D01*
X16907000Y-7747000D02*
X17007000Y-7747000D01*
X16957000Y-7951000D02*
X16957000Y-8051000D01*
X16907000Y-8001000D02*
X17007000Y-8001000D01*
X16957000Y-8205000D02*
X16957000Y-8305000D01*
X16907000Y-8255000D02*
X17007000Y-8255000D01*
X16957000Y-8459000D02*
X16957000Y-8559000D01*
X16907000Y-8509000D02*
X17007000Y-8509000D01*
X16957000Y-8713000D02*
X16957000Y-8813000D01*
X16907000Y-8763000D02*
X17007000Y-8763000D01*
X16957000Y-8967000D02*
X16957000Y-9067000D01*
X16907000Y-9017000D02*
X17007000Y-9017000D01*
D10*
X13585777Y-10416742D02*
X13585777Y-10216742D01*
X13585777Y-10216742D02*
X13633396Y-10216742D01*
X13633396Y-10216742D02*
X13661967Y-10226266D01*
X13661967Y-10226266D02*
X13681015Y-10245314D01*
X13681015Y-10245314D02*
X13690539Y-10264361D01*
X13690539Y-10264361D02*
X13700062Y-10302456D01*
X13700062Y-10302456D02*
X13700062Y-10331028D01*
X13700062Y-10331028D02*
X13690539Y-10369123D01*
X13690539Y-10369123D02*
X13681015Y-10388171D01*
X13681015Y-10388171D02*
X13661967Y-10407218D01*
X13661967Y-10407218D02*
X13633396Y-10416742D01*
X13633396Y-10416742D02*
X13585777Y-10416742D01*
X13785777Y-10416742D02*
X13785777Y-10283409D01*
X13785777Y-10321504D02*
X13795301Y-10302456D01*
X13795301Y-10302456D02*
X13804824Y-10292933D01*
X13804824Y-10292933D02*
X13823872Y-10283409D01*
X13823872Y-10283409D02*
X13842920Y-10283409D01*
X13909586Y-10416742D02*
X13909586Y-10283409D01*
X13909586Y-10216742D02*
X13900062Y-10226266D01*
X13900062Y-10226266D02*
X13909586Y-10235790D01*
X13909586Y-10235790D02*
X13919110Y-10226266D01*
X13919110Y-10226266D02*
X13909586Y-10216742D01*
X13909586Y-10216742D02*
X13909586Y-10235790D01*
X14033396Y-10416742D02*
X14014348Y-10407218D01*
X14014348Y-10407218D02*
X14004824Y-10388171D01*
X14004824Y-10388171D02*
X14004824Y-10216742D01*
X14138158Y-10416742D02*
X14119110Y-10407218D01*
X14119110Y-10407218D02*
X14109586Y-10388171D01*
X14109586Y-10388171D02*
X14109586Y-10216742D01*
X14366729Y-10416742D02*
X14366729Y-10216742D01*
X14366729Y-10216742D02*
X14433396Y-10359599D01*
X14433396Y-10359599D02*
X14500062Y-10216742D01*
X14500062Y-10216742D02*
X14500062Y-10416742D01*
X14681015Y-10416742D02*
X14681015Y-10311980D01*
X14681015Y-10311980D02*
X14671491Y-10292933D01*
X14671491Y-10292933D02*
X14652443Y-10283409D01*
X14652443Y-10283409D02*
X14614348Y-10283409D01*
X14614348Y-10283409D02*
X14595301Y-10292933D01*
X14681015Y-10407218D02*
X14661967Y-10416742D01*
X14661967Y-10416742D02*
X14614348Y-10416742D01*
X14614348Y-10416742D02*
X14595301Y-10407218D01*
X14595301Y-10407218D02*
X14585777Y-10388171D01*
X14585777Y-10388171D02*
X14585777Y-10369123D01*
X14585777Y-10369123D02*
X14595301Y-10350076D01*
X14595301Y-10350076D02*
X14614348Y-10340552D01*
X14614348Y-10340552D02*
X14661967Y-10340552D01*
X14661967Y-10340552D02*
X14681015Y-10331028D01*
X14776253Y-10283409D02*
X14776253Y-10483409D01*
X14776253Y-10292933D02*
X14795301Y-10283409D01*
X14795301Y-10283409D02*
X14833396Y-10283409D01*
X14833396Y-10283409D02*
X14852443Y-10292933D01*
X14852443Y-10292933D02*
X14861967Y-10302456D01*
X14861967Y-10302456D02*
X14871491Y-10321504D01*
X14871491Y-10321504D02*
X14871491Y-10378647D01*
X14871491Y-10378647D02*
X14861967Y-10397695D01*
X14861967Y-10397695D02*
X14852443Y-10407218D01*
X14852443Y-10407218D02*
X14833396Y-10416742D01*
X14833396Y-10416742D02*
X14795301Y-10416742D01*
X14795301Y-10416742D02*
X14776253Y-10407218D01*
X14957205Y-10397695D02*
X14966729Y-10407218D01*
X14966729Y-10407218D02*
X14957205Y-10416742D01*
X14957205Y-10416742D02*
X14947682Y-10407218D01*
X14947682Y-10407218D02*
X14957205Y-10397695D01*
X14957205Y-10397695D02*
X14957205Y-10416742D01*
X14957205Y-10292933D02*
X14966729Y-10302456D01*
X14966729Y-10302456D02*
X14957205Y-10311980D01*
X14957205Y-10311980D02*
X14947682Y-10302456D01*
X14947682Y-10302456D02*
X14957205Y-10292933D01*
X14957205Y-10292933D02*
X14957205Y-10311980D01*
D11*
X13285000Y-10725258D02*
X13325000Y-10765258D01*
X13325000Y-10725258D02*
X13285000Y-10765258D01*
D10*
X13623872Y-10636742D02*
X13642920Y-10636742D01*
X13642920Y-10636742D02*
X13661967Y-10646266D01*
X13661967Y-10646266D02*
X13671491Y-10655790D01*
X13671491Y-10655790D02*
X13681015Y-10674837D01*
X13681015Y-10674837D02*
X13690539Y-10712933D01*
X13690539Y-10712933D02*
X13690539Y-10760552D01*
X13690539Y-10760552D02*
X13681015Y-10798647D01*
X13681015Y-10798647D02*
X13671491Y-10817695D01*
X13671491Y-10817695D02*
X13661967Y-10827218D01*
X13661967Y-10827218D02*
X13642920Y-10836742D01*
X13642920Y-10836742D02*
X13623872Y-10836742D01*
X13623872Y-10836742D02*
X13604824Y-10827218D01*
X13604824Y-10827218D02*
X13595301Y-10817695D01*
X13595301Y-10817695D02*
X13585777Y-10798647D01*
X13585777Y-10798647D02*
X13576253Y-10760552D01*
X13576253Y-10760552D02*
X13576253Y-10712933D01*
X13576253Y-10712933D02*
X13585777Y-10674837D01*
X13585777Y-10674837D02*
X13595301Y-10655790D01*
X13595301Y-10655790D02*
X13604824Y-10646266D01*
X13604824Y-10646266D02*
X13623872Y-10636742D01*
X13776253Y-10817695D02*
X13785777Y-10827218D01*
X13785777Y-10827218D02*
X13776253Y-10836742D01*
X13776253Y-10836742D02*
X13766729Y-10827218D01*
X13766729Y-10827218D02*
X13776253Y-10817695D01*
X13776253Y-10817695D02*
X13776253Y-10836742D01*
X13957205Y-10703409D02*
X13957205Y-10836742D01*
X13909586Y-10627218D02*
X13861967Y-10770076D01*
X13861967Y-10770076D02*
X13985777Y-10770076D01*
X14100062Y-10636742D02*
X14119110Y-10636742D01*
X14119110Y-10636742D02*
X14138158Y-10646266D01*
X14138158Y-10646266D02*
X14147682Y-10655790D01*
X14147682Y-10655790D02*
X14157205Y-10674837D01*
X14157205Y-10674837D02*
X14166729Y-10712933D01*
X14166729Y-10712933D02*
X14166729Y-10760552D01*
X14166729Y-10760552D02*
X14157205Y-10798647D01*
X14157205Y-10798647D02*
X14147682Y-10817695D01*
X14147682Y-10817695D02*
X14138158Y-10827218D01*
X14138158Y-10827218D02*
X14119110Y-10836742D01*
X14119110Y-10836742D02*
X14100062Y-10836742D01*
X14100062Y-10836742D02*
X14081015Y-10827218D01*
X14081015Y-10827218D02*
X14071491Y-10817695D01*
X14071491Y-10817695D02*
X14061967Y-10798647D01*
X14061967Y-10798647D02*
X14052443Y-10760552D01*
X14052443Y-10760552D02*
X14052443Y-10712933D01*
X14052443Y-10712933D02*
X14061967Y-10674837D01*
X14061967Y-10674837D02*
X14071491Y-10655790D01*
X14071491Y-10655790D02*
X14081015Y-10646266D01*
X14081015Y-10646266D02*
X14100062Y-10636742D01*
X14290539Y-10636742D02*
X14309586Y-10636742D01*
X14309586Y-10636742D02*
X14328634Y-10646266D01*
X14328634Y-10646266D02*
X14338158Y-10655790D01*
X14338158Y-10655790D02*
X14347682Y-10674837D01*
X14347682Y-10674837D02*
X14357205Y-10712933D01*
X14357205Y-10712933D02*
X14357205Y-10760552D01*
X14357205Y-10760552D02*
X14347682Y-10798647D01*
X14347682Y-10798647D02*
X14338158Y-10817695D01*
X14338158Y-10817695D02*
X14328634Y-10827218D01*
X14328634Y-10827218D02*
X14309586Y-10836742D01*
X14309586Y-10836742D02*
X14290539Y-10836742D01*
X14290539Y-10836742D02*
X14271491Y-10827218D01*
X14271491Y-10827218D02*
X14261967Y-10817695D01*
X14261967Y-10817695D02*
X14252443Y-10798647D01*
X14252443Y-10798647D02*
X14242920Y-10760552D01*
X14242920Y-10760552D02*
X14242920Y-10712933D01*
X14242920Y-10712933D02*
X14252443Y-10674837D01*
X14252443Y-10674837D02*
X14261967Y-10655790D01*
X14261967Y-10655790D02*
X14271491Y-10646266D01*
X14271491Y-10646266D02*
X14290539Y-10636742D01*
X14442920Y-10836742D02*
X14442920Y-10703409D01*
X14442920Y-10722456D02*
X14452443Y-10712933D01*
X14452443Y-10712933D02*
X14471491Y-10703409D01*
X14471491Y-10703409D02*
X14500063Y-10703409D01*
X14500063Y-10703409D02*
X14519110Y-10712933D01*
X14519110Y-10712933D02*
X14528634Y-10731980D01*
X14528634Y-10731980D02*
X14528634Y-10836742D01*
X14528634Y-10731980D02*
X14538158Y-10712933D01*
X14538158Y-10712933D02*
X14557205Y-10703409D01*
X14557205Y-10703409D02*
X14585777Y-10703409D01*
X14585777Y-10703409D02*
X14604824Y-10712933D01*
X14604824Y-10712933D02*
X14614348Y-10731980D01*
X14614348Y-10731980D02*
X14614348Y-10836742D01*
X14709586Y-10836742D02*
X14709586Y-10703409D01*
X14709586Y-10722456D02*
X14719110Y-10712933D01*
X14719110Y-10712933D02*
X14738158Y-10703409D01*
X14738158Y-10703409D02*
X14766729Y-10703409D01*
X14766729Y-10703409D02*
X14785777Y-10712933D01*
X14785777Y-10712933D02*
X14795301Y-10731980D01*
X14795301Y-10731980D02*
X14795301Y-10836742D01*
X14795301Y-10731980D02*
X14804824Y-10712933D01*
X14804824Y-10712933D02*
X14823872Y-10703409D01*
X14823872Y-10703409D02*
X14852443Y-10703409D01*
X14852443Y-10703409D02*
X14871491Y-10712933D01*
X14871491Y-10712933D02*
X14881015Y-10731980D01*
X14881015Y-10731980D02*
X14881015Y-10836742D01*
X15271491Y-10627218D02*
X15100063Y-10884361D01*
X15528634Y-10636742D02*
X15547682Y-10636742D01*
X15547682Y-10636742D02*
X15566729Y-10646266D01*
X15566729Y-10646266D02*
X15576253Y-10655790D01*
X15576253Y-10655790D02*
X15585777Y-10674837D01*
X15585777Y-10674837D02*
X15595301Y-10712933D01*
X15595301Y-10712933D02*
X15595301Y-10760552D01*
X15595301Y-10760552D02*
X15585777Y-10798647D01*
X15585777Y-10798647D02*
X15576253Y-10817695D01*
X15576253Y-10817695D02*
X15566729Y-10827218D01*
X15566729Y-10827218D02*
X15547682Y-10836742D01*
X15547682Y-10836742D02*
X15528634Y-10836742D01*
X15528634Y-10836742D02*
X15509586Y-10827218D01*
X15509586Y-10827218D02*
X15500063Y-10817695D01*
X15500063Y-10817695D02*
X15490539Y-10798647D01*
X15490539Y-10798647D02*
X15481015Y-10760552D01*
X15481015Y-10760552D02*
X15481015Y-10712933D01*
X15481015Y-10712933D02*
X15490539Y-10674837D01*
X15490539Y-10674837D02*
X15500063Y-10655790D01*
X15500063Y-10655790D02*
X15509586Y-10646266D01*
X15509586Y-10646266D02*
X15528634Y-10636742D01*
X15681015Y-10817695D02*
X15690539Y-10827218D01*
X15690539Y-10827218D02*
X15681015Y-10836742D01*
X15681015Y-10836742D02*
X15671491Y-10827218D01*
X15671491Y-10827218D02*
X15681015Y-10817695D01*
X15681015Y-10817695D02*
X15681015Y-10836742D01*
X15814348Y-10636742D02*
X15833396Y-10636742D01*
X15833396Y-10636742D02*
X15852444Y-10646266D01*
X15852444Y-10646266D02*
X15861967Y-10655790D01*
X15861967Y-10655790D02*
X15871491Y-10674837D01*
X15871491Y-10674837D02*
X15881015Y-10712933D01*
X15881015Y-10712933D02*
X15881015Y-10760552D01*
X15881015Y-10760552D02*
X15871491Y-10798647D01*
X15871491Y-10798647D02*
X15861967Y-10817695D01*
X15861967Y-10817695D02*
X15852444Y-10827218D01*
X15852444Y-10827218D02*
X15833396Y-10836742D01*
X15833396Y-10836742D02*
X15814348Y-10836742D01*
X15814348Y-10836742D02*
X15795301Y-10827218D01*
X15795301Y-10827218D02*
X15785777Y-10817695D01*
X15785777Y-10817695D02*
X15776253Y-10798647D01*
X15776253Y-10798647D02*
X15766729Y-10760552D01*
X15766729Y-10760552D02*
X15766729Y-10712933D01*
X15766729Y-10712933D02*
X15776253Y-10674837D01*
X15776253Y-10674837D02*
X15785777Y-10655790D01*
X15785777Y-10655790D02*
X15795301Y-10646266D01*
X15795301Y-10646266D02*
X15814348Y-10636742D01*
X16071491Y-10836742D02*
X15957206Y-10836742D01*
X16014348Y-10836742D02*
X16014348Y-10636742D01*
X16014348Y-10636742D02*
X15995301Y-10665314D01*
X15995301Y-10665314D02*
X15976253Y-10684361D01*
X15976253Y-10684361D02*
X15957206Y-10693885D01*
X16252444Y-10636742D02*
X16157206Y-10636742D01*
X16157206Y-10636742D02*
X16147682Y-10731980D01*
X16147682Y-10731980D02*
X16157206Y-10722456D01*
X16157206Y-10722456D02*
X16176253Y-10712933D01*
X16176253Y-10712933D02*
X16223872Y-10712933D01*
X16223872Y-10712933D02*
X16242920Y-10722456D01*
X16242920Y-10722456D02*
X16252444Y-10731980D01*
X16252444Y-10731980D02*
X16261967Y-10751028D01*
X16261967Y-10751028D02*
X16261967Y-10798647D01*
X16261967Y-10798647D02*
X16252444Y-10817695D01*
X16252444Y-10817695D02*
X16242920Y-10827218D01*
X16242920Y-10827218D02*
X16223872Y-10836742D01*
X16223872Y-10836742D02*
X16176253Y-10836742D01*
X16176253Y-10836742D02*
X16157206Y-10827218D01*
X16157206Y-10827218D02*
X16147682Y-10817695D01*
X16328634Y-10636742D02*
X16461967Y-10636742D01*
X16461967Y-10636742D02*
X16376253Y-10836742D01*
X16528634Y-10636742D02*
X16528634Y-10674837D01*
X16604825Y-10636742D02*
X16604825Y-10674837D01*
X16900063Y-10912933D02*
X16890539Y-10903409D01*
X16890539Y-10903409D02*
X16871491Y-10874837D01*
X16871491Y-10874837D02*
X16861968Y-10855790D01*
X16861968Y-10855790D02*
X16852444Y-10827218D01*
X16852444Y-10827218D02*
X16842920Y-10779599D01*
X16842920Y-10779599D02*
X16842920Y-10741504D01*
X16842920Y-10741504D02*
X16852444Y-10693885D01*
X16852444Y-10693885D02*
X16861968Y-10665314D01*
X16861968Y-10665314D02*
X16871491Y-10646266D01*
X16871491Y-10646266D02*
X16890539Y-10617695D01*
X16890539Y-10617695D02*
X16900063Y-10608171D01*
X17081015Y-10836742D02*
X16966730Y-10836742D01*
X17023872Y-10836742D02*
X17023872Y-10636742D01*
X17023872Y-10636742D02*
X17004825Y-10665314D01*
X17004825Y-10665314D02*
X16985777Y-10684361D01*
X16985777Y-10684361D02*
X16966730Y-10693885D01*
X17204825Y-10636742D02*
X17223872Y-10636742D01*
X17223872Y-10636742D02*
X17242920Y-10646266D01*
X17242920Y-10646266D02*
X17252444Y-10655790D01*
X17252444Y-10655790D02*
X17261968Y-10674837D01*
X17261968Y-10674837D02*
X17271491Y-10712933D01*
X17271491Y-10712933D02*
X17271491Y-10760552D01*
X17271491Y-10760552D02*
X17261968Y-10798647D01*
X17261968Y-10798647D02*
X17252444Y-10817695D01*
X17252444Y-10817695D02*
X17242920Y-10827218D01*
X17242920Y-10827218D02*
X17223872Y-10836742D01*
X17223872Y-10836742D02*
X17204825Y-10836742D01*
X17204825Y-10836742D02*
X17185777Y-10827218D01*
X17185777Y-10827218D02*
X17176253Y-10817695D01*
X17176253Y-10817695D02*
X17166730Y-10798647D01*
X17166730Y-10798647D02*
X17157206Y-10760552D01*
X17157206Y-10760552D02*
X17157206Y-10712933D01*
X17157206Y-10712933D02*
X17166730Y-10674837D01*
X17166730Y-10674837D02*
X17176253Y-10655790D01*
X17176253Y-10655790D02*
X17185777Y-10646266D01*
X17185777Y-10646266D02*
X17204825Y-10636742D01*
X17338158Y-10636742D02*
X17471491Y-10636742D01*
X17471491Y-10636742D02*
X17385777Y-10836742D01*
X17700063Y-10836742D02*
X17700063Y-10636742D01*
X17785777Y-10836742D02*
X17785777Y-10731980D01*
X17785777Y-10731980D02*
X17776253Y-10712933D01*
X17776253Y-10712933D02*
X17757206Y-10703409D01*
X17757206Y-10703409D02*
X17728634Y-10703409D01*
X17728634Y-10703409D02*
X17709587Y-10712933D01*
X17709587Y-10712933D02*
X17700063Y-10722456D01*
X17909587Y-10836742D02*
X17890539Y-10827218D01*
X17890539Y-10827218D02*
X17881015Y-10817695D01*
X17881015Y-10817695D02*
X17871492Y-10798647D01*
X17871492Y-10798647D02*
X17871492Y-10741504D01*
X17871492Y-10741504D02*
X17881015Y-10722456D01*
X17881015Y-10722456D02*
X17890539Y-10712933D01*
X17890539Y-10712933D02*
X17909587Y-10703409D01*
X17909587Y-10703409D02*
X17938158Y-10703409D01*
X17938158Y-10703409D02*
X17957206Y-10712933D01*
X17957206Y-10712933D02*
X17966730Y-10722456D01*
X17966730Y-10722456D02*
X17976253Y-10741504D01*
X17976253Y-10741504D02*
X17976253Y-10798647D01*
X17976253Y-10798647D02*
X17966730Y-10817695D01*
X17966730Y-10817695D02*
X17957206Y-10827218D01*
X17957206Y-10827218D02*
X17938158Y-10836742D01*
X17938158Y-10836742D02*
X17909587Y-10836742D01*
X18090539Y-10836742D02*
X18071492Y-10827218D01*
X18071492Y-10827218D02*
X18061968Y-10808171D01*
X18061968Y-10808171D02*
X18061968Y-10636742D01*
X18242920Y-10827218D02*
X18223873Y-10836742D01*
X18223873Y-10836742D02*
X18185777Y-10836742D01*
X18185777Y-10836742D02*
X18166730Y-10827218D01*
X18166730Y-10827218D02*
X18157206Y-10808171D01*
X18157206Y-10808171D02*
X18157206Y-10731980D01*
X18157206Y-10731980D02*
X18166730Y-10712933D01*
X18166730Y-10712933D02*
X18185777Y-10703409D01*
X18185777Y-10703409D02*
X18223873Y-10703409D01*
X18223873Y-10703409D02*
X18242920Y-10712933D01*
X18242920Y-10712933D02*
X18252444Y-10731980D01*
X18252444Y-10731980D02*
X18252444Y-10751028D01*
X18252444Y-10751028D02*
X18157206Y-10770076D01*
X18328634Y-10827218D02*
X18347682Y-10836742D01*
X18347682Y-10836742D02*
X18385777Y-10836742D01*
X18385777Y-10836742D02*
X18404825Y-10827218D01*
X18404825Y-10827218D02*
X18414349Y-10808171D01*
X18414349Y-10808171D02*
X18414349Y-10798647D01*
X18414349Y-10798647D02*
X18404825Y-10779599D01*
X18404825Y-10779599D02*
X18385777Y-10770076D01*
X18385777Y-10770076D02*
X18357206Y-10770076D01*
X18357206Y-10770076D02*
X18338158Y-10760552D01*
X18338158Y-10760552D02*
X18328634Y-10741504D01*
X18328634Y-10741504D02*
X18328634Y-10731980D01*
X18328634Y-10731980D02*
X18338158Y-10712933D01*
X18338158Y-10712933D02*
X18357206Y-10703409D01*
X18357206Y-10703409D02*
X18385777Y-10703409D01*
X18385777Y-10703409D02*
X18404825Y-10712933D01*
X18481015Y-10912933D02*
X18490539Y-10903409D01*
X18490539Y-10903409D02*
X18509587Y-10874837D01*
X18509587Y-10874837D02*
X18519111Y-10855790D01*
X18519111Y-10855790D02*
X18528634Y-10827218D01*
X18528634Y-10827218D02*
X18538158Y-10779599D01*
X18538158Y-10779599D02*
X18538158Y-10741504D01*
X18538158Y-10741504D02*
X18528634Y-10693885D01*
X18528634Y-10693885D02*
X18519111Y-10665314D01*
X18519111Y-10665314D02*
X18509587Y-10646266D01*
X18509587Y-10646266D02*
X18490539Y-10617695D01*
X18490539Y-10617695D02*
X18481015Y-10608171D01*
D11*
X13325000Y-11009258D02*
G75*
G03*
X13265000Y-11009258I-30000J0D01*
G01*
X13265000Y-11009258D02*
G75*
G03*
X13325000Y-11009258I30000J0D01*
G01*
D10*
X13623872Y-10900742D02*
X13642920Y-10900742D01*
X13642920Y-10900742D02*
X13661967Y-10910266D01*
X13661967Y-10910266D02*
X13671491Y-10919790D01*
X13671491Y-10919790D02*
X13681015Y-10938837D01*
X13681015Y-10938837D02*
X13690539Y-10976933D01*
X13690539Y-10976933D02*
X13690539Y-11024552D01*
X13690539Y-11024552D02*
X13681015Y-11062647D01*
X13681015Y-11062647D02*
X13671491Y-11081695D01*
X13671491Y-11081695D02*
X13661967Y-11091218D01*
X13661967Y-11091218D02*
X13642920Y-11100742D01*
X13642920Y-11100742D02*
X13623872Y-11100742D01*
X13623872Y-11100742D02*
X13604824Y-11091218D01*
X13604824Y-11091218D02*
X13595301Y-11081695D01*
X13595301Y-11081695D02*
X13585777Y-11062647D01*
X13585777Y-11062647D02*
X13576253Y-11024552D01*
X13576253Y-11024552D02*
X13576253Y-10976933D01*
X13576253Y-10976933D02*
X13585777Y-10938837D01*
X13585777Y-10938837D02*
X13595301Y-10919790D01*
X13595301Y-10919790D02*
X13604824Y-10910266D01*
X13604824Y-10910266D02*
X13623872Y-10900742D01*
X13776253Y-11081695D02*
X13785777Y-11091218D01*
X13785777Y-11091218D02*
X13776253Y-11100742D01*
X13776253Y-11100742D02*
X13766729Y-11091218D01*
X13766729Y-11091218D02*
X13776253Y-11081695D01*
X13776253Y-11081695D02*
X13776253Y-11100742D01*
X13957205Y-10900742D02*
X13919110Y-10900742D01*
X13919110Y-10900742D02*
X13900062Y-10910266D01*
X13900062Y-10910266D02*
X13890539Y-10919790D01*
X13890539Y-10919790D02*
X13871491Y-10948361D01*
X13871491Y-10948361D02*
X13861967Y-10986456D01*
X13861967Y-10986456D02*
X13861967Y-11062647D01*
X13861967Y-11062647D02*
X13871491Y-11081695D01*
X13871491Y-11081695D02*
X13881015Y-11091218D01*
X13881015Y-11091218D02*
X13900062Y-11100742D01*
X13900062Y-11100742D02*
X13938158Y-11100742D01*
X13938158Y-11100742D02*
X13957205Y-11091218D01*
X13957205Y-11091218D02*
X13966729Y-11081695D01*
X13966729Y-11081695D02*
X13976253Y-11062647D01*
X13976253Y-11062647D02*
X13976253Y-11015028D01*
X13976253Y-11015028D02*
X13966729Y-10995980D01*
X13966729Y-10995980D02*
X13957205Y-10986456D01*
X13957205Y-10986456D02*
X13938158Y-10976933D01*
X13938158Y-10976933D02*
X13900062Y-10976933D01*
X13900062Y-10976933D02*
X13881015Y-10986456D01*
X13881015Y-10986456D02*
X13871491Y-10995980D01*
X13871491Y-10995980D02*
X13861967Y-11015028D01*
X14100062Y-10900742D02*
X14119110Y-10900742D01*
X14119110Y-10900742D02*
X14138158Y-10910266D01*
X14138158Y-10910266D02*
X14147682Y-10919790D01*
X14147682Y-10919790D02*
X14157205Y-10938837D01*
X14157205Y-10938837D02*
X14166729Y-10976933D01*
X14166729Y-10976933D02*
X14166729Y-11024552D01*
X14166729Y-11024552D02*
X14157205Y-11062647D01*
X14157205Y-11062647D02*
X14147682Y-11081695D01*
X14147682Y-11081695D02*
X14138158Y-11091218D01*
X14138158Y-11091218D02*
X14119110Y-11100742D01*
X14119110Y-11100742D02*
X14100062Y-11100742D01*
X14100062Y-11100742D02*
X14081015Y-11091218D01*
X14081015Y-11091218D02*
X14071491Y-11081695D01*
X14071491Y-11081695D02*
X14061967Y-11062647D01*
X14061967Y-11062647D02*
X14052443Y-11024552D01*
X14052443Y-11024552D02*
X14052443Y-10976933D01*
X14052443Y-10976933D02*
X14061967Y-10938837D01*
X14061967Y-10938837D02*
X14071491Y-10919790D01*
X14071491Y-10919790D02*
X14081015Y-10910266D01*
X14081015Y-10910266D02*
X14100062Y-10900742D01*
X14290539Y-10900742D02*
X14309586Y-10900742D01*
X14309586Y-10900742D02*
X14328634Y-10910266D01*
X14328634Y-10910266D02*
X14338158Y-10919790D01*
X14338158Y-10919790D02*
X14347682Y-10938837D01*
X14347682Y-10938837D02*
X14357205Y-10976933D01*
X14357205Y-10976933D02*
X14357205Y-11024552D01*
X14357205Y-11024552D02*
X14347682Y-11062647D01*
X14347682Y-11062647D02*
X14338158Y-11081695D01*
X14338158Y-11081695D02*
X14328634Y-11091218D01*
X14328634Y-11091218D02*
X14309586Y-11100742D01*
X14309586Y-11100742D02*
X14290539Y-11100742D01*
X14290539Y-11100742D02*
X14271491Y-11091218D01*
X14271491Y-11091218D02*
X14261967Y-11081695D01*
X14261967Y-11081695D02*
X14252443Y-11062647D01*
X14252443Y-11062647D02*
X14242920Y-11024552D01*
X14242920Y-11024552D02*
X14242920Y-10976933D01*
X14242920Y-10976933D02*
X14252443Y-10938837D01*
X14252443Y-10938837D02*
X14261967Y-10919790D01*
X14261967Y-10919790D02*
X14271491Y-10910266D01*
X14271491Y-10910266D02*
X14290539Y-10900742D01*
X14442920Y-11100742D02*
X14442920Y-10967409D01*
X14442920Y-10986456D02*
X14452443Y-10976933D01*
X14452443Y-10976933D02*
X14471491Y-10967409D01*
X14471491Y-10967409D02*
X14500063Y-10967409D01*
X14500063Y-10967409D02*
X14519110Y-10976933D01*
X14519110Y-10976933D02*
X14528634Y-10995980D01*
X14528634Y-10995980D02*
X14528634Y-11100742D01*
X14528634Y-10995980D02*
X14538158Y-10976933D01*
X14538158Y-10976933D02*
X14557205Y-10967409D01*
X14557205Y-10967409D02*
X14585777Y-10967409D01*
X14585777Y-10967409D02*
X14604824Y-10976933D01*
X14604824Y-10976933D02*
X14614348Y-10995980D01*
X14614348Y-10995980D02*
X14614348Y-11100742D01*
X14709586Y-11100742D02*
X14709586Y-10967409D01*
X14709586Y-10986456D02*
X14719110Y-10976933D01*
X14719110Y-10976933D02*
X14738158Y-10967409D01*
X14738158Y-10967409D02*
X14766729Y-10967409D01*
X14766729Y-10967409D02*
X14785777Y-10976933D01*
X14785777Y-10976933D02*
X14795301Y-10995980D01*
X14795301Y-10995980D02*
X14795301Y-11100742D01*
X14795301Y-10995980D02*
X14804824Y-10976933D01*
X14804824Y-10976933D02*
X14823872Y-10967409D01*
X14823872Y-10967409D02*
X14852443Y-10967409D01*
X14852443Y-10967409D02*
X14871491Y-10976933D01*
X14871491Y-10976933D02*
X14881015Y-10995980D01*
X14881015Y-10995980D02*
X14881015Y-11100742D01*
X15271491Y-10891218D02*
X15100063Y-11148361D01*
X15528634Y-10900742D02*
X15547682Y-10900742D01*
X15547682Y-10900742D02*
X15566729Y-10910266D01*
X15566729Y-10910266D02*
X15576253Y-10919790D01*
X15576253Y-10919790D02*
X15585777Y-10938837D01*
X15585777Y-10938837D02*
X15595301Y-10976933D01*
X15595301Y-10976933D02*
X15595301Y-11024552D01*
X15595301Y-11024552D02*
X15585777Y-11062647D01*
X15585777Y-11062647D02*
X15576253Y-11081695D01*
X15576253Y-11081695D02*
X15566729Y-11091218D01*
X15566729Y-11091218D02*
X15547682Y-11100742D01*
X15547682Y-11100742D02*
X15528634Y-11100742D01*
X15528634Y-11100742D02*
X15509586Y-11091218D01*
X15509586Y-11091218D02*
X15500063Y-11081695D01*
X15500063Y-11081695D02*
X15490539Y-11062647D01*
X15490539Y-11062647D02*
X15481015Y-11024552D01*
X15481015Y-11024552D02*
X15481015Y-10976933D01*
X15481015Y-10976933D02*
X15490539Y-10938837D01*
X15490539Y-10938837D02*
X15500063Y-10919790D01*
X15500063Y-10919790D02*
X15509586Y-10910266D01*
X15509586Y-10910266D02*
X15528634Y-10900742D01*
X15681015Y-11081695D02*
X15690539Y-11091218D01*
X15690539Y-11091218D02*
X15681015Y-11100742D01*
X15681015Y-11100742D02*
X15671491Y-11091218D01*
X15671491Y-11091218D02*
X15681015Y-11081695D01*
X15681015Y-11081695D02*
X15681015Y-11100742D01*
X15814348Y-10900742D02*
X15833396Y-10900742D01*
X15833396Y-10900742D02*
X15852444Y-10910266D01*
X15852444Y-10910266D02*
X15861967Y-10919790D01*
X15861967Y-10919790D02*
X15871491Y-10938837D01*
X15871491Y-10938837D02*
X15881015Y-10976933D01*
X15881015Y-10976933D02*
X15881015Y-11024552D01*
X15881015Y-11024552D02*
X15871491Y-11062647D01*
X15871491Y-11062647D02*
X15861967Y-11081695D01*
X15861967Y-11081695D02*
X15852444Y-11091218D01*
X15852444Y-11091218D02*
X15833396Y-11100742D01*
X15833396Y-11100742D02*
X15814348Y-11100742D01*
X15814348Y-11100742D02*
X15795301Y-11091218D01*
X15795301Y-11091218D02*
X15785777Y-11081695D01*
X15785777Y-11081695D02*
X15776253Y-11062647D01*
X15776253Y-11062647D02*
X15766729Y-11024552D01*
X15766729Y-11024552D02*
X15766729Y-10976933D01*
X15766729Y-10976933D02*
X15776253Y-10938837D01*
X15776253Y-10938837D02*
X15785777Y-10919790D01*
X15785777Y-10919790D02*
X15795301Y-10910266D01*
X15795301Y-10910266D02*
X15814348Y-10900742D01*
X15957206Y-10919790D02*
X15966729Y-10910266D01*
X15966729Y-10910266D02*
X15985777Y-10900742D01*
X15985777Y-10900742D02*
X16033396Y-10900742D01*
X16033396Y-10900742D02*
X16052444Y-10910266D01*
X16052444Y-10910266D02*
X16061967Y-10919790D01*
X16061967Y-10919790D02*
X16071491Y-10938837D01*
X16071491Y-10938837D02*
X16071491Y-10957885D01*
X16071491Y-10957885D02*
X16061967Y-10986456D01*
X16061967Y-10986456D02*
X15947682Y-11100742D01*
X15947682Y-11100742D02*
X16071491Y-11100742D01*
X16138158Y-10900742D02*
X16261967Y-10900742D01*
X16261967Y-10900742D02*
X16195301Y-10976933D01*
X16195301Y-10976933D02*
X16223872Y-10976933D01*
X16223872Y-10976933D02*
X16242920Y-10986456D01*
X16242920Y-10986456D02*
X16252444Y-10995980D01*
X16252444Y-10995980D02*
X16261967Y-11015028D01*
X16261967Y-11015028D02*
X16261967Y-11062647D01*
X16261967Y-11062647D02*
X16252444Y-11081695D01*
X16252444Y-11081695D02*
X16242920Y-11091218D01*
X16242920Y-11091218D02*
X16223872Y-11100742D01*
X16223872Y-11100742D02*
X16166729Y-11100742D01*
X16166729Y-11100742D02*
X16147682Y-11091218D01*
X16147682Y-11091218D02*
X16138158Y-11081695D01*
X16433396Y-10900742D02*
X16395301Y-10900742D01*
X16395301Y-10900742D02*
X16376253Y-10910266D01*
X16376253Y-10910266D02*
X16366729Y-10919790D01*
X16366729Y-10919790D02*
X16347682Y-10948361D01*
X16347682Y-10948361D02*
X16338158Y-10986456D01*
X16338158Y-10986456D02*
X16338158Y-11062647D01*
X16338158Y-11062647D02*
X16347682Y-11081695D01*
X16347682Y-11081695D02*
X16357206Y-11091218D01*
X16357206Y-11091218D02*
X16376253Y-11100742D01*
X16376253Y-11100742D02*
X16414348Y-11100742D01*
X16414348Y-11100742D02*
X16433396Y-11091218D01*
X16433396Y-11091218D02*
X16442920Y-11081695D01*
X16442920Y-11081695D02*
X16452444Y-11062647D01*
X16452444Y-11062647D02*
X16452444Y-11015028D01*
X16452444Y-11015028D02*
X16442920Y-10995980D01*
X16442920Y-10995980D02*
X16433396Y-10986456D01*
X16433396Y-10986456D02*
X16414348Y-10976933D01*
X16414348Y-10976933D02*
X16376253Y-10976933D01*
X16376253Y-10976933D02*
X16357206Y-10986456D01*
X16357206Y-10986456D02*
X16347682Y-10995980D01*
X16347682Y-10995980D02*
X16338158Y-11015028D01*
X16528634Y-10900742D02*
X16528634Y-10938837D01*
X16604825Y-10900742D02*
X16604825Y-10938837D01*
X16900063Y-11176933D02*
X16890539Y-11167409D01*
X16890539Y-11167409D02*
X16871491Y-11138837D01*
X16871491Y-11138837D02*
X16861968Y-11119790D01*
X16861968Y-11119790D02*
X16852444Y-11091218D01*
X16852444Y-11091218D02*
X16842920Y-11043599D01*
X16842920Y-11043599D02*
X16842920Y-11005504D01*
X16842920Y-11005504D02*
X16852444Y-10957885D01*
X16852444Y-10957885D02*
X16861968Y-10929314D01*
X16861968Y-10929314D02*
X16871491Y-10910266D01*
X16871491Y-10910266D02*
X16890539Y-10881695D01*
X16890539Y-10881695D02*
X16900063Y-10872171D01*
X17014349Y-10900742D02*
X17033396Y-10900742D01*
X17033396Y-10900742D02*
X17052444Y-10910266D01*
X17052444Y-10910266D02*
X17061968Y-10919790D01*
X17061968Y-10919790D02*
X17071491Y-10938837D01*
X17071491Y-10938837D02*
X17081015Y-10976933D01*
X17081015Y-10976933D02*
X17081015Y-11024552D01*
X17081015Y-11024552D02*
X17071491Y-11062647D01*
X17071491Y-11062647D02*
X17061968Y-11081695D01*
X17061968Y-11081695D02*
X17052444Y-11091218D01*
X17052444Y-11091218D02*
X17033396Y-11100742D01*
X17033396Y-11100742D02*
X17014349Y-11100742D01*
X17014349Y-11100742D02*
X16995301Y-11091218D01*
X16995301Y-11091218D02*
X16985777Y-11081695D01*
X16985777Y-11081695D02*
X16976253Y-11062647D01*
X16976253Y-11062647D02*
X16966730Y-11024552D01*
X16966730Y-11024552D02*
X16966730Y-10976933D01*
X16966730Y-10976933D02*
X16976253Y-10938837D01*
X16976253Y-10938837D02*
X16985777Y-10919790D01*
X16985777Y-10919790D02*
X16995301Y-10910266D01*
X16995301Y-10910266D02*
X17014349Y-10900742D01*
X17319111Y-11100742D02*
X17319111Y-10900742D01*
X17404825Y-11100742D02*
X17404825Y-10995980D01*
X17404825Y-10995980D02*
X17395301Y-10976933D01*
X17395301Y-10976933D02*
X17376253Y-10967409D01*
X17376253Y-10967409D02*
X17347682Y-10967409D01*
X17347682Y-10967409D02*
X17328634Y-10976933D01*
X17328634Y-10976933D02*
X17319111Y-10986456D01*
X17528634Y-11100742D02*
X17509587Y-11091218D01*
X17509587Y-11091218D02*
X17500063Y-11081695D01*
X17500063Y-11081695D02*
X17490539Y-11062647D01*
X17490539Y-11062647D02*
X17490539Y-11005504D01*
X17490539Y-11005504D02*
X17500063Y-10986456D01*
X17500063Y-10986456D02*
X17509587Y-10976933D01*
X17509587Y-10976933D02*
X17528634Y-10967409D01*
X17528634Y-10967409D02*
X17557206Y-10967409D01*
X17557206Y-10967409D02*
X17576253Y-10976933D01*
X17576253Y-10976933D02*
X17585777Y-10986456D01*
X17585777Y-10986456D02*
X17595301Y-11005504D01*
X17595301Y-11005504D02*
X17595301Y-11062647D01*
X17595301Y-11062647D02*
X17585777Y-11081695D01*
X17585777Y-11081695D02*
X17576253Y-11091218D01*
X17576253Y-11091218D02*
X17557206Y-11100742D01*
X17557206Y-11100742D02*
X17528634Y-11100742D01*
X17709587Y-11100742D02*
X17690539Y-11091218D01*
X17690539Y-11091218D02*
X17681015Y-11072171D01*
X17681015Y-11072171D02*
X17681015Y-10900742D01*
X17861968Y-11091218D02*
X17842920Y-11100742D01*
X17842920Y-11100742D02*
X17804825Y-11100742D01*
X17804825Y-11100742D02*
X17785777Y-11091218D01*
X17785777Y-11091218D02*
X17776253Y-11072171D01*
X17776253Y-11072171D02*
X17776253Y-10995980D01*
X17776253Y-10995980D02*
X17785777Y-10976933D01*
X17785777Y-10976933D02*
X17804825Y-10967409D01*
X17804825Y-10967409D02*
X17842920Y-10967409D01*
X17842920Y-10967409D02*
X17861968Y-10976933D01*
X17861968Y-10976933D02*
X17871492Y-10995980D01*
X17871492Y-10995980D02*
X17871492Y-11015028D01*
X17871492Y-11015028D02*
X17776253Y-11034076D01*
X17947682Y-11091218D02*
X17966730Y-11100742D01*
X17966730Y-11100742D02*
X18004825Y-11100742D01*
X18004825Y-11100742D02*
X18023873Y-11091218D01*
X18023873Y-11091218D02*
X18033396Y-11072171D01*
X18033396Y-11072171D02*
X18033396Y-11062647D01*
X18033396Y-11062647D02*
X18023873Y-11043599D01*
X18023873Y-11043599D02*
X18004825Y-11034076D01*
X18004825Y-11034076D02*
X17976253Y-11034076D01*
X17976253Y-11034076D02*
X17957206Y-11024552D01*
X17957206Y-11024552D02*
X17947682Y-11005504D01*
X17947682Y-11005504D02*
X17947682Y-10995980D01*
X17947682Y-10995980D02*
X17957206Y-10976933D01*
X17957206Y-10976933D02*
X17976253Y-10967409D01*
X17976253Y-10967409D02*
X18004825Y-10967409D01*
X18004825Y-10967409D02*
X18023873Y-10976933D01*
X18271492Y-11024552D02*
X18423873Y-11024552D01*
X18347682Y-11100742D02*
X18347682Y-10948361D01*
X18757206Y-10967409D02*
X18757206Y-11100742D01*
X18709587Y-10891218D02*
X18661968Y-11034076D01*
X18661968Y-11034076D02*
X18785777Y-11034076D01*
X19004825Y-11091218D02*
X19023873Y-11100742D01*
X19023873Y-11100742D02*
X19061968Y-11100742D01*
X19061968Y-11100742D02*
X19081016Y-11091218D01*
X19081016Y-11091218D02*
X19090539Y-11072171D01*
X19090539Y-11072171D02*
X19090539Y-11062647D01*
X19090539Y-11062647D02*
X19081016Y-11043599D01*
X19081016Y-11043599D02*
X19061968Y-11034076D01*
X19061968Y-11034076D02*
X19033396Y-11034076D01*
X19033396Y-11034076D02*
X19014349Y-11024552D01*
X19014349Y-11024552D02*
X19004825Y-11005504D01*
X19004825Y-11005504D02*
X19004825Y-10995980D01*
X19004825Y-10995980D02*
X19014349Y-10976933D01*
X19014349Y-10976933D02*
X19033396Y-10967409D01*
X19033396Y-10967409D02*
X19061968Y-10967409D01*
X19061968Y-10967409D02*
X19081016Y-10976933D01*
X19204825Y-11100742D02*
X19185777Y-11091218D01*
X19185777Y-11091218D02*
X19176254Y-11072171D01*
X19176254Y-11072171D02*
X19176254Y-10900742D01*
X19309587Y-11100742D02*
X19290539Y-11091218D01*
X19290539Y-11091218D02*
X19281016Y-11081695D01*
X19281016Y-11081695D02*
X19271492Y-11062647D01*
X19271492Y-11062647D02*
X19271492Y-11005504D01*
X19271492Y-11005504D02*
X19281016Y-10986456D01*
X19281016Y-10986456D02*
X19290539Y-10976933D01*
X19290539Y-10976933D02*
X19309587Y-10967409D01*
X19309587Y-10967409D02*
X19338158Y-10967409D01*
X19338158Y-10967409D02*
X19357206Y-10976933D01*
X19357206Y-10976933D02*
X19366730Y-10986456D01*
X19366730Y-10986456D02*
X19376254Y-11005504D01*
X19376254Y-11005504D02*
X19376254Y-11062647D01*
X19376254Y-11062647D02*
X19366730Y-11081695D01*
X19366730Y-11081695D02*
X19357206Y-11091218D01*
X19357206Y-11091218D02*
X19338158Y-11100742D01*
X19338158Y-11100742D02*
X19309587Y-11100742D01*
X19433397Y-10967409D02*
X19509587Y-10967409D01*
X19461968Y-10900742D02*
X19461968Y-11072171D01*
X19461968Y-11072171D02*
X19471492Y-11091218D01*
X19471492Y-11091218D02*
X19490539Y-11100742D01*
X19490539Y-11100742D02*
X19509587Y-11100742D01*
X19566730Y-11091218D02*
X19585777Y-11100742D01*
X19585777Y-11100742D02*
X19623873Y-11100742D01*
X19623873Y-11100742D02*
X19642920Y-11091218D01*
X19642920Y-11091218D02*
X19652444Y-11072171D01*
X19652444Y-11072171D02*
X19652444Y-11062647D01*
X19652444Y-11062647D02*
X19642920Y-11043599D01*
X19642920Y-11043599D02*
X19623873Y-11034076D01*
X19623873Y-11034076D02*
X19595301Y-11034076D01*
X19595301Y-11034076D02*
X19576254Y-11024552D01*
X19576254Y-11024552D02*
X19566730Y-11005504D01*
X19566730Y-11005504D02*
X19566730Y-10995980D01*
X19566730Y-10995980D02*
X19576254Y-10976933D01*
X19576254Y-10976933D02*
X19595301Y-10967409D01*
X19595301Y-10967409D02*
X19623873Y-10967409D01*
X19623873Y-10967409D02*
X19642920Y-10976933D01*
X19719111Y-11176933D02*
X19728635Y-11167409D01*
X19728635Y-11167409D02*
X19747682Y-11138837D01*
X19747682Y-11138837D02*
X19757206Y-11119790D01*
X19757206Y-11119790D02*
X19766730Y-11091218D01*
X19766730Y-11091218D02*
X19776254Y-11043599D01*
X19776254Y-11043599D02*
X19776254Y-11005504D01*
X19776254Y-11005504D02*
X19766730Y-10957885D01*
X19766730Y-10957885D02*
X19757206Y-10929314D01*
X19757206Y-10929314D02*
X19747682Y-10910266D01*
X19747682Y-10910266D02*
X19728635Y-10881695D01*
X19728635Y-10881695D02*
X19719111Y-10872171D01*
D11*
X13275000Y-11223258D02*
X13275000Y-11323258D01*
X13225000Y-11273258D02*
X13325000Y-11273258D01*
D10*
X13690539Y-11364742D02*
X13576253Y-11364742D01*
X13633396Y-11364742D02*
X13633396Y-11164742D01*
X13633396Y-11164742D02*
X13614348Y-11193314D01*
X13614348Y-11193314D02*
X13595301Y-11212361D01*
X13595301Y-11212361D02*
X13576253Y-11221885D01*
X13776253Y-11345694D02*
X13785777Y-11355218D01*
X13785777Y-11355218D02*
X13776253Y-11364742D01*
X13776253Y-11364742D02*
X13766729Y-11355218D01*
X13766729Y-11355218D02*
X13776253Y-11345694D01*
X13776253Y-11345694D02*
X13776253Y-11364742D01*
X13909586Y-11164742D02*
X13928634Y-11164742D01*
X13928634Y-11164742D02*
X13947682Y-11174266D01*
X13947682Y-11174266D02*
X13957205Y-11183790D01*
X13957205Y-11183790D02*
X13966729Y-11202837D01*
X13966729Y-11202837D02*
X13976253Y-11240933D01*
X13976253Y-11240933D02*
X13976253Y-11288552D01*
X13976253Y-11288552D02*
X13966729Y-11326647D01*
X13966729Y-11326647D02*
X13957205Y-11345694D01*
X13957205Y-11345694D02*
X13947682Y-11355218D01*
X13947682Y-11355218D02*
X13928634Y-11364742D01*
X13928634Y-11364742D02*
X13909586Y-11364742D01*
X13909586Y-11364742D02*
X13890539Y-11355218D01*
X13890539Y-11355218D02*
X13881015Y-11345694D01*
X13881015Y-11345694D02*
X13871491Y-11326647D01*
X13871491Y-11326647D02*
X13861967Y-11288552D01*
X13861967Y-11288552D02*
X13861967Y-11240933D01*
X13861967Y-11240933D02*
X13871491Y-11202837D01*
X13871491Y-11202837D02*
X13881015Y-11183790D01*
X13881015Y-11183790D02*
X13890539Y-11174266D01*
X13890539Y-11174266D02*
X13909586Y-11164742D01*
X14100062Y-11164742D02*
X14119110Y-11164742D01*
X14119110Y-11164742D02*
X14138158Y-11174266D01*
X14138158Y-11174266D02*
X14147682Y-11183790D01*
X14147682Y-11183790D02*
X14157205Y-11202837D01*
X14157205Y-11202837D02*
X14166729Y-11240933D01*
X14166729Y-11240933D02*
X14166729Y-11288552D01*
X14166729Y-11288552D02*
X14157205Y-11326647D01*
X14157205Y-11326647D02*
X14147682Y-11345694D01*
X14147682Y-11345694D02*
X14138158Y-11355218D01*
X14138158Y-11355218D02*
X14119110Y-11364742D01*
X14119110Y-11364742D02*
X14100062Y-11364742D01*
X14100062Y-11364742D02*
X14081015Y-11355218D01*
X14081015Y-11355218D02*
X14071491Y-11345694D01*
X14071491Y-11345694D02*
X14061967Y-11326647D01*
X14061967Y-11326647D02*
X14052443Y-11288552D01*
X14052443Y-11288552D02*
X14052443Y-11240933D01*
X14052443Y-11240933D02*
X14061967Y-11202837D01*
X14061967Y-11202837D02*
X14071491Y-11183790D01*
X14071491Y-11183790D02*
X14081015Y-11174266D01*
X14081015Y-11174266D02*
X14100062Y-11164742D01*
X14290539Y-11164742D02*
X14309586Y-11164742D01*
X14309586Y-11164742D02*
X14328634Y-11174266D01*
X14328634Y-11174266D02*
X14338158Y-11183790D01*
X14338158Y-11183790D02*
X14347682Y-11202837D01*
X14347682Y-11202837D02*
X14357205Y-11240933D01*
X14357205Y-11240933D02*
X14357205Y-11288552D01*
X14357205Y-11288552D02*
X14347682Y-11326647D01*
X14347682Y-11326647D02*
X14338158Y-11345694D01*
X14338158Y-11345694D02*
X14328634Y-11355218D01*
X14328634Y-11355218D02*
X14309586Y-11364742D01*
X14309586Y-11364742D02*
X14290539Y-11364742D01*
X14290539Y-11364742D02*
X14271491Y-11355218D01*
X14271491Y-11355218D02*
X14261967Y-11345694D01*
X14261967Y-11345694D02*
X14252443Y-11326647D01*
X14252443Y-11326647D02*
X14242920Y-11288552D01*
X14242920Y-11288552D02*
X14242920Y-11240933D01*
X14242920Y-11240933D02*
X14252443Y-11202837D01*
X14252443Y-11202837D02*
X14261967Y-11183790D01*
X14261967Y-11183790D02*
X14271491Y-11174266D01*
X14271491Y-11174266D02*
X14290539Y-11164742D01*
X14442920Y-11364742D02*
X14442920Y-11231409D01*
X14442920Y-11250456D02*
X14452443Y-11240933D01*
X14452443Y-11240933D02*
X14471491Y-11231409D01*
X14471491Y-11231409D02*
X14500063Y-11231409D01*
X14500063Y-11231409D02*
X14519110Y-11240933D01*
X14519110Y-11240933D02*
X14528634Y-11259980D01*
X14528634Y-11259980D02*
X14528634Y-11364742D01*
X14528634Y-11259980D02*
X14538158Y-11240933D01*
X14538158Y-11240933D02*
X14557205Y-11231409D01*
X14557205Y-11231409D02*
X14585777Y-11231409D01*
X14585777Y-11231409D02*
X14604824Y-11240933D01*
X14604824Y-11240933D02*
X14614348Y-11259980D01*
X14614348Y-11259980D02*
X14614348Y-11364742D01*
X14709586Y-11364742D02*
X14709586Y-11231409D01*
X14709586Y-11250456D02*
X14719110Y-11240933D01*
X14719110Y-11240933D02*
X14738158Y-11231409D01*
X14738158Y-11231409D02*
X14766729Y-11231409D01*
X14766729Y-11231409D02*
X14785777Y-11240933D01*
X14785777Y-11240933D02*
X14795301Y-11259980D01*
X14795301Y-11259980D02*
X14795301Y-11364742D01*
X14795301Y-11259980D02*
X14804824Y-11240933D01*
X14804824Y-11240933D02*
X14823872Y-11231409D01*
X14823872Y-11231409D02*
X14852443Y-11231409D01*
X14852443Y-11231409D02*
X14871491Y-11240933D01*
X14871491Y-11240933D02*
X14881015Y-11259980D01*
X14881015Y-11259980D02*
X14881015Y-11364742D01*
X15271491Y-11155218D02*
X15100063Y-11412361D01*
X15528634Y-11164742D02*
X15547682Y-11164742D01*
X15547682Y-11164742D02*
X15566729Y-11174266D01*
X15566729Y-11174266D02*
X15576253Y-11183790D01*
X15576253Y-11183790D02*
X15585777Y-11202837D01*
X15585777Y-11202837D02*
X15595301Y-11240933D01*
X15595301Y-11240933D02*
X15595301Y-11288552D01*
X15595301Y-11288552D02*
X15585777Y-11326647D01*
X15585777Y-11326647D02*
X15576253Y-11345694D01*
X15576253Y-11345694D02*
X15566729Y-11355218D01*
X15566729Y-11355218D02*
X15547682Y-11364742D01*
X15547682Y-11364742D02*
X15528634Y-11364742D01*
X15528634Y-11364742D02*
X15509586Y-11355218D01*
X15509586Y-11355218D02*
X15500063Y-11345694D01*
X15500063Y-11345694D02*
X15490539Y-11326647D01*
X15490539Y-11326647D02*
X15481015Y-11288552D01*
X15481015Y-11288552D02*
X15481015Y-11240933D01*
X15481015Y-11240933D02*
X15490539Y-11202837D01*
X15490539Y-11202837D02*
X15500063Y-11183790D01*
X15500063Y-11183790D02*
X15509586Y-11174266D01*
X15509586Y-11174266D02*
X15528634Y-11164742D01*
X15681015Y-11345694D02*
X15690539Y-11355218D01*
X15690539Y-11355218D02*
X15681015Y-11364742D01*
X15681015Y-11364742D02*
X15671491Y-11355218D01*
X15671491Y-11355218D02*
X15681015Y-11345694D01*
X15681015Y-11345694D02*
X15681015Y-11364742D01*
X15814348Y-11164742D02*
X15833396Y-11164742D01*
X15833396Y-11164742D02*
X15852444Y-11174266D01*
X15852444Y-11174266D02*
X15861967Y-11183790D01*
X15861967Y-11183790D02*
X15871491Y-11202837D01*
X15871491Y-11202837D02*
X15881015Y-11240933D01*
X15881015Y-11240933D02*
X15881015Y-11288552D01*
X15881015Y-11288552D02*
X15871491Y-11326647D01*
X15871491Y-11326647D02*
X15861967Y-11345694D01*
X15861967Y-11345694D02*
X15852444Y-11355218D01*
X15852444Y-11355218D02*
X15833396Y-11364742D01*
X15833396Y-11364742D02*
X15814348Y-11364742D01*
X15814348Y-11364742D02*
X15795301Y-11355218D01*
X15795301Y-11355218D02*
X15785777Y-11345694D01*
X15785777Y-11345694D02*
X15776253Y-11326647D01*
X15776253Y-11326647D02*
X15766729Y-11288552D01*
X15766729Y-11288552D02*
X15766729Y-11240933D01*
X15766729Y-11240933D02*
X15776253Y-11202837D01*
X15776253Y-11202837D02*
X15785777Y-11183790D01*
X15785777Y-11183790D02*
X15795301Y-11174266D01*
X15795301Y-11174266D02*
X15814348Y-11164742D01*
X15947682Y-11164742D02*
X16071491Y-11164742D01*
X16071491Y-11164742D02*
X16004825Y-11240933D01*
X16004825Y-11240933D02*
X16033396Y-11240933D01*
X16033396Y-11240933D02*
X16052444Y-11250456D01*
X16052444Y-11250456D02*
X16061967Y-11259980D01*
X16061967Y-11259980D02*
X16071491Y-11279028D01*
X16071491Y-11279028D02*
X16071491Y-11326647D01*
X16071491Y-11326647D02*
X16061967Y-11345694D01*
X16061967Y-11345694D02*
X16052444Y-11355218D01*
X16052444Y-11355218D02*
X16033396Y-11364742D01*
X16033396Y-11364742D02*
X15976253Y-11364742D01*
X15976253Y-11364742D02*
X15957206Y-11355218D01*
X15957206Y-11355218D02*
X15947682Y-11345694D01*
X16166729Y-11364742D02*
X16204825Y-11364742D01*
X16204825Y-11364742D02*
X16223872Y-11355218D01*
X16223872Y-11355218D02*
X16233396Y-11345694D01*
X16233396Y-11345694D02*
X16252444Y-11317123D01*
X16252444Y-11317123D02*
X16261967Y-11279028D01*
X16261967Y-11279028D02*
X16261967Y-11202837D01*
X16261967Y-11202837D02*
X16252444Y-11183790D01*
X16252444Y-11183790D02*
X16242920Y-11174266D01*
X16242920Y-11174266D02*
X16223872Y-11164742D01*
X16223872Y-11164742D02*
X16185777Y-11164742D01*
X16185777Y-11164742D02*
X16166729Y-11174266D01*
X16166729Y-11174266D02*
X16157206Y-11183790D01*
X16157206Y-11183790D02*
X16147682Y-11202837D01*
X16147682Y-11202837D02*
X16147682Y-11250456D01*
X16147682Y-11250456D02*
X16157206Y-11269504D01*
X16157206Y-11269504D02*
X16166729Y-11279028D01*
X16166729Y-11279028D02*
X16185777Y-11288552D01*
X16185777Y-11288552D02*
X16223872Y-11288552D01*
X16223872Y-11288552D02*
X16242920Y-11279028D01*
X16242920Y-11279028D02*
X16252444Y-11269504D01*
X16252444Y-11269504D02*
X16261967Y-11250456D01*
X16433396Y-11231409D02*
X16433396Y-11364742D01*
X16385777Y-11155218D02*
X16338158Y-11298075D01*
X16338158Y-11298075D02*
X16461967Y-11298075D01*
X16528634Y-11164742D02*
X16528634Y-11202837D01*
X16604825Y-11164742D02*
X16604825Y-11202837D01*
X16900063Y-11440933D02*
X16890539Y-11431409D01*
X16890539Y-11431409D02*
X16871491Y-11402837D01*
X16871491Y-11402837D02*
X16861968Y-11383790D01*
X16861968Y-11383790D02*
X16852444Y-11355218D01*
X16852444Y-11355218D02*
X16842920Y-11307599D01*
X16842920Y-11307599D02*
X16842920Y-11269504D01*
X16842920Y-11269504D02*
X16852444Y-11221885D01*
X16852444Y-11221885D02*
X16861968Y-11193314D01*
X16861968Y-11193314D02*
X16871491Y-11174266D01*
X16871491Y-11174266D02*
X16890539Y-11145695D01*
X16890539Y-11145695D02*
X16900063Y-11136171D01*
X16966730Y-11183790D02*
X16976253Y-11174266D01*
X16976253Y-11174266D02*
X16995301Y-11164742D01*
X16995301Y-11164742D02*
X17042920Y-11164742D01*
X17042920Y-11164742D02*
X17061968Y-11174266D01*
X17061968Y-11174266D02*
X17071491Y-11183790D01*
X17071491Y-11183790D02*
X17081015Y-11202837D01*
X17081015Y-11202837D02*
X17081015Y-11221885D01*
X17081015Y-11221885D02*
X17071491Y-11250456D01*
X17071491Y-11250456D02*
X16957206Y-11364742D01*
X16957206Y-11364742D02*
X17081015Y-11364742D01*
X17252444Y-11231409D02*
X17252444Y-11364742D01*
X17204825Y-11155218D02*
X17157206Y-11298075D01*
X17157206Y-11298075D02*
X17281015Y-11298075D01*
X17509587Y-11364742D02*
X17509587Y-11164742D01*
X17595301Y-11364742D02*
X17595301Y-11259980D01*
X17595301Y-11259980D02*
X17585777Y-11240933D01*
X17585777Y-11240933D02*
X17566730Y-11231409D01*
X17566730Y-11231409D02*
X17538158Y-11231409D01*
X17538158Y-11231409D02*
X17519111Y-11240933D01*
X17519111Y-11240933D02*
X17509587Y-11250456D01*
X17719111Y-11364742D02*
X17700063Y-11355218D01*
X17700063Y-11355218D02*
X17690539Y-11345694D01*
X17690539Y-11345694D02*
X17681015Y-11326647D01*
X17681015Y-11326647D02*
X17681015Y-11269504D01*
X17681015Y-11269504D02*
X17690539Y-11250456D01*
X17690539Y-11250456D02*
X17700063Y-11240933D01*
X17700063Y-11240933D02*
X17719111Y-11231409D01*
X17719111Y-11231409D02*
X17747682Y-11231409D01*
X17747682Y-11231409D02*
X17766730Y-11240933D01*
X17766730Y-11240933D02*
X17776253Y-11250456D01*
X17776253Y-11250456D02*
X17785777Y-11269504D01*
X17785777Y-11269504D02*
X17785777Y-11326647D01*
X17785777Y-11326647D02*
X17776253Y-11345694D01*
X17776253Y-11345694D02*
X17766730Y-11355218D01*
X17766730Y-11355218D02*
X17747682Y-11364742D01*
X17747682Y-11364742D02*
X17719111Y-11364742D01*
X17900063Y-11364742D02*
X17881015Y-11355218D01*
X17881015Y-11355218D02*
X17871492Y-11336171D01*
X17871492Y-11336171D02*
X17871492Y-11164742D01*
X18052444Y-11355218D02*
X18033396Y-11364742D01*
X18033396Y-11364742D02*
X17995301Y-11364742D01*
X17995301Y-11364742D02*
X17976253Y-11355218D01*
X17976253Y-11355218D02*
X17966730Y-11336171D01*
X17966730Y-11336171D02*
X17966730Y-11259980D01*
X17966730Y-11259980D02*
X17976253Y-11240933D01*
X17976253Y-11240933D02*
X17995301Y-11231409D01*
X17995301Y-11231409D02*
X18033396Y-11231409D01*
X18033396Y-11231409D02*
X18052444Y-11240933D01*
X18052444Y-11240933D02*
X18061968Y-11259980D01*
X18061968Y-11259980D02*
X18061968Y-11279028D01*
X18061968Y-11279028D02*
X17966730Y-11298075D01*
X18138158Y-11355218D02*
X18157206Y-11364742D01*
X18157206Y-11364742D02*
X18195301Y-11364742D01*
X18195301Y-11364742D02*
X18214349Y-11355218D01*
X18214349Y-11355218D02*
X18223873Y-11336171D01*
X18223873Y-11336171D02*
X18223873Y-11326647D01*
X18223873Y-11326647D02*
X18214349Y-11307599D01*
X18214349Y-11307599D02*
X18195301Y-11298075D01*
X18195301Y-11298075D02*
X18166730Y-11298075D01*
X18166730Y-11298075D02*
X18147682Y-11288552D01*
X18147682Y-11288552D02*
X18138158Y-11269504D01*
X18138158Y-11269504D02*
X18138158Y-11259980D01*
X18138158Y-11259980D02*
X18147682Y-11240933D01*
X18147682Y-11240933D02*
X18166730Y-11231409D01*
X18166730Y-11231409D02*
X18195301Y-11231409D01*
X18195301Y-11231409D02*
X18214349Y-11240933D01*
X18461968Y-11288552D02*
X18614349Y-11288552D01*
X18538158Y-11364742D02*
X18538158Y-11212361D01*
X18947682Y-11231409D02*
X18947682Y-11364742D01*
X18900063Y-11155218D02*
X18852444Y-11298075D01*
X18852444Y-11298075D02*
X18976254Y-11298075D01*
X19195301Y-11355218D02*
X19214349Y-11364742D01*
X19214349Y-11364742D02*
X19252444Y-11364742D01*
X19252444Y-11364742D02*
X19271492Y-11355218D01*
X19271492Y-11355218D02*
X19281016Y-11336171D01*
X19281016Y-11336171D02*
X19281016Y-11326647D01*
X19281016Y-11326647D02*
X19271492Y-11307599D01*
X19271492Y-11307599D02*
X19252444Y-11298075D01*
X19252444Y-11298075D02*
X19223873Y-11298075D01*
X19223873Y-11298075D02*
X19204825Y-11288552D01*
X19204825Y-11288552D02*
X19195301Y-11269504D01*
X19195301Y-11269504D02*
X19195301Y-11259980D01*
X19195301Y-11259980D02*
X19204825Y-11240933D01*
X19204825Y-11240933D02*
X19223873Y-11231409D01*
X19223873Y-11231409D02*
X19252444Y-11231409D01*
X19252444Y-11231409D02*
X19271492Y-11240933D01*
X19395301Y-11364742D02*
X19376254Y-11355218D01*
X19376254Y-11355218D02*
X19366730Y-11336171D01*
X19366730Y-11336171D02*
X19366730Y-11164742D01*
X19500063Y-11364742D02*
X19481016Y-11355218D01*
X19481016Y-11355218D02*
X19471492Y-11345694D01*
X19471492Y-11345694D02*
X19461968Y-11326647D01*
X19461968Y-11326647D02*
X19461968Y-11269504D01*
X19461968Y-11269504D02*
X19471492Y-11250456D01*
X19471492Y-11250456D02*
X19481016Y-11240933D01*
X19481016Y-11240933D02*
X19500063Y-11231409D01*
X19500063Y-11231409D02*
X19528635Y-11231409D01*
X19528635Y-11231409D02*
X19547682Y-11240933D01*
X19547682Y-11240933D02*
X19557206Y-11250456D01*
X19557206Y-11250456D02*
X19566730Y-11269504D01*
X19566730Y-11269504D02*
X19566730Y-11326647D01*
X19566730Y-11326647D02*
X19557206Y-11345694D01*
X19557206Y-11345694D02*
X19547682Y-11355218D01*
X19547682Y-11355218D02*
X19528635Y-11364742D01*
X19528635Y-11364742D02*
X19500063Y-11364742D01*
X19623873Y-11231409D02*
X19700063Y-11231409D01*
X19652444Y-11164742D02*
X19652444Y-11336171D01*
X19652444Y-11336171D02*
X19661968Y-11355218D01*
X19661968Y-11355218D02*
X19681016Y-11364742D01*
X19681016Y-11364742D02*
X19700063Y-11364742D01*
X19757206Y-11355218D02*
X19776254Y-11364742D01*
X19776254Y-11364742D02*
X19814349Y-11364742D01*
X19814349Y-11364742D02*
X19833397Y-11355218D01*
X19833397Y-11355218D02*
X19842920Y-11336171D01*
X19842920Y-11336171D02*
X19842920Y-11326647D01*
X19842920Y-11326647D02*
X19833397Y-11307599D01*
X19833397Y-11307599D02*
X19814349Y-11298075D01*
X19814349Y-11298075D02*
X19785777Y-11298075D01*
X19785777Y-11298075D02*
X19766730Y-11288552D01*
X19766730Y-11288552D02*
X19757206Y-11269504D01*
X19757206Y-11269504D02*
X19757206Y-11259980D01*
X19757206Y-11259980D02*
X19766730Y-11240933D01*
X19766730Y-11240933D02*
X19785777Y-11231409D01*
X19785777Y-11231409D02*
X19814349Y-11231409D01*
X19814349Y-11231409D02*
X19833397Y-11240933D01*
X19909587Y-11440933D02*
X19919111Y-11431409D01*
X19919111Y-11431409D02*
X19938158Y-11402837D01*
X19938158Y-11402837D02*
X19947682Y-11383790D01*
X19947682Y-11383790D02*
X19957206Y-11355218D01*
X19957206Y-11355218D02*
X19966730Y-11307599D01*
X19966730Y-11307599D02*
X19966730Y-11269504D01*
X19966730Y-11269504D02*
X19957206Y-11221885D01*
X19957206Y-11221885D02*
X19947682Y-11193314D01*
X19947682Y-11193314D02*
X19938158Y-11174266D01*
X19938158Y-11174266D02*
X19919111Y-11145695D01*
X19919111Y-11145695D02*
X19909587Y-11136171D01*
M02*
