%TF.GenerationSoftware,KiCad,Pcbnew,7.0.11*%
%TF.CreationDate,2025-01-20T01:28:46+09:00*%
%TF.ProjectId,PSU,5053552e-6b69-4636-9164-5f7063625858,rev?*%
%TF.SameCoordinates,Original*%
%TF.FileFunction,Drillmap*%
%TF.FilePolarity,Positive*%
%FSLAX45Y45*%
G04 Gerber Fmt 4.5, Leading zero omitted, Abs format (unit mm)*
G04 Created by KiCad (PCBNEW 7.0.11) date 2025-01-20 01:28:46*
%MOMM*%
%LPD*%
G01*
G04 APERTURE LIST*
%ADD10C,0.200000*%
%ADD11C,0.100000*%
%ADD12C,0.220000*%
G04 APERTURE END LIST*
D10*
X13817843Y-8280160D02*
G75*
G03*
X13676421Y-8338736I-3J-200000D01*
G01*
X13676421Y-8338736D02*
X13393579Y-8621579D01*
X17045000Y-11800258D02*
G75*
G03*
X16825000Y-11800258I-110000J0D01*
G01*
X16825000Y-11800258D02*
G75*
G03*
X17045000Y-11800258I110000J0D01*
G01*
X17135000Y-8763000D02*
G75*
G03*
X17076421Y-8621579I-200000J0D01*
G01*
X13335002Y-11800258D02*
G75*
G03*
X13535000Y-12000258I199998J-2D01*
G01*
X17045000Y-8763000D02*
G75*
G03*
X16825000Y-8763000I-110000J0D01*
G01*
X16825000Y-8763000D02*
G75*
G03*
X17045000Y-8763000I110000J0D01*
G01*
X13645000Y-8763000D02*
G75*
G03*
X13425000Y-8763000I-110000J0D01*
G01*
X13425000Y-8763000D02*
G75*
G03*
X13645000Y-8763000I110000J0D01*
G01*
X16652157Y-8280157D02*
X13817843Y-8280157D01*
X17135000Y-11800258D02*
X17135000Y-8763000D01*
X16935000Y-12000260D02*
G75*
G03*
X17135000Y-11800258I0J200000D01*
G01*
X16793581Y-8338734D02*
G75*
G03*
X16652157Y-8280157I-141421J-141426D01*
G01*
X13645000Y-11800258D02*
G75*
G03*
X13425000Y-11800258I-110000J0D01*
G01*
X13425000Y-11800258D02*
G75*
G03*
X13645000Y-11800258I110000J0D01*
G01*
X17076421Y-8621579D02*
X16793579Y-8338736D01*
X13335000Y-8763000D02*
X13335000Y-11800258D01*
X13393579Y-8621579D02*
G75*
G03*
X13335000Y-8763000I141421J-141421D01*
G01*
X13535000Y-12000258D02*
X16935000Y-12000258D01*
D11*
X13928100Y-11340200D02*
X13993100Y-11405200D01*
X13993100Y-11340200D02*
X13928100Y-11405200D01*
X14506100Y-11340200D02*
X14571100Y-11405200D01*
X14571100Y-11340200D02*
X14506100Y-11405200D01*
D12*
X13644000Y-8763000D02*
G75*
G03*
X13424000Y-8763000I-110000J0D01*
G01*
X13424000Y-8763000D02*
G75*
G03*
X13644000Y-8763000I110000J0D01*
G01*
X13645000Y-11799000D02*
G75*
G03*
X13425000Y-11799000I-110000J0D01*
G01*
X13425000Y-11799000D02*
G75*
G03*
X13645000Y-11799000I110000J0D01*
G01*
X17046000Y-8764000D02*
G75*
G03*
X16826000Y-8764000I-110000J0D01*
G01*
X16826000Y-8764000D02*
G75*
G03*
X17046000Y-8764000I110000J0D01*
G01*
X17046000Y-11801000D02*
G75*
G03*
X16826000Y-11801000I-110000J0D01*
G01*
X16826000Y-11801000D02*
G75*
G03*
X17046000Y-11801000I110000J0D01*
G01*
D10*
X13585777Y-12321742D02*
X13585777Y-12121742D01*
X13585777Y-12121742D02*
X13633396Y-12121742D01*
X13633396Y-12121742D02*
X13661967Y-12131266D01*
X13661967Y-12131266D02*
X13681015Y-12150314D01*
X13681015Y-12150314D02*
X13690539Y-12169361D01*
X13690539Y-12169361D02*
X13700062Y-12207456D01*
X13700062Y-12207456D02*
X13700062Y-12236028D01*
X13700062Y-12236028D02*
X13690539Y-12274123D01*
X13690539Y-12274123D02*
X13681015Y-12293171D01*
X13681015Y-12293171D02*
X13661967Y-12312218D01*
X13661967Y-12312218D02*
X13633396Y-12321742D01*
X13633396Y-12321742D02*
X13585777Y-12321742D01*
X13785777Y-12321742D02*
X13785777Y-12188409D01*
X13785777Y-12226504D02*
X13795301Y-12207456D01*
X13795301Y-12207456D02*
X13804824Y-12197933D01*
X13804824Y-12197933D02*
X13823872Y-12188409D01*
X13823872Y-12188409D02*
X13842920Y-12188409D01*
X13909586Y-12321742D02*
X13909586Y-12188409D01*
X13909586Y-12121742D02*
X13900062Y-12131266D01*
X13900062Y-12131266D02*
X13909586Y-12140790D01*
X13909586Y-12140790D02*
X13919110Y-12131266D01*
X13919110Y-12131266D02*
X13909586Y-12121742D01*
X13909586Y-12121742D02*
X13909586Y-12140790D01*
X14033396Y-12321742D02*
X14014348Y-12312218D01*
X14014348Y-12312218D02*
X14004824Y-12293171D01*
X14004824Y-12293171D02*
X14004824Y-12121742D01*
X14138158Y-12321742D02*
X14119110Y-12312218D01*
X14119110Y-12312218D02*
X14109586Y-12293171D01*
X14109586Y-12293171D02*
X14109586Y-12121742D01*
X14366729Y-12321742D02*
X14366729Y-12121742D01*
X14366729Y-12121742D02*
X14433396Y-12264599D01*
X14433396Y-12264599D02*
X14500062Y-12121742D01*
X14500062Y-12121742D02*
X14500062Y-12321742D01*
X14681015Y-12321742D02*
X14681015Y-12216980D01*
X14681015Y-12216980D02*
X14671491Y-12197933D01*
X14671491Y-12197933D02*
X14652443Y-12188409D01*
X14652443Y-12188409D02*
X14614348Y-12188409D01*
X14614348Y-12188409D02*
X14595301Y-12197933D01*
X14681015Y-12312218D02*
X14661967Y-12321742D01*
X14661967Y-12321742D02*
X14614348Y-12321742D01*
X14614348Y-12321742D02*
X14595301Y-12312218D01*
X14595301Y-12312218D02*
X14585777Y-12293171D01*
X14585777Y-12293171D02*
X14585777Y-12274123D01*
X14585777Y-12274123D02*
X14595301Y-12255075D01*
X14595301Y-12255075D02*
X14614348Y-12245552D01*
X14614348Y-12245552D02*
X14661967Y-12245552D01*
X14661967Y-12245552D02*
X14681015Y-12236028D01*
X14776253Y-12188409D02*
X14776253Y-12388409D01*
X14776253Y-12197933D02*
X14795301Y-12188409D01*
X14795301Y-12188409D02*
X14833396Y-12188409D01*
X14833396Y-12188409D02*
X14852443Y-12197933D01*
X14852443Y-12197933D02*
X14861967Y-12207456D01*
X14861967Y-12207456D02*
X14871491Y-12226504D01*
X14871491Y-12226504D02*
X14871491Y-12283647D01*
X14871491Y-12283647D02*
X14861967Y-12302694D01*
X14861967Y-12302694D02*
X14852443Y-12312218D01*
X14852443Y-12312218D02*
X14833396Y-12321742D01*
X14833396Y-12321742D02*
X14795301Y-12321742D01*
X14795301Y-12321742D02*
X14776253Y-12312218D01*
X14957205Y-12302694D02*
X14966729Y-12312218D01*
X14966729Y-12312218D02*
X14957205Y-12321742D01*
X14957205Y-12321742D02*
X14947682Y-12312218D01*
X14947682Y-12312218D02*
X14957205Y-12302694D01*
X14957205Y-12302694D02*
X14957205Y-12321742D01*
X14957205Y-12197933D02*
X14966729Y-12207456D01*
X14966729Y-12207456D02*
X14957205Y-12216980D01*
X14957205Y-12216980D02*
X14947682Y-12207456D01*
X14947682Y-12207456D02*
X14957205Y-12197933D01*
X14957205Y-12197933D02*
X14957205Y-12216980D01*
D11*
X13260000Y-12617758D02*
X13325000Y-12682758D01*
X13325000Y-12617758D02*
X13260000Y-12682758D01*
D10*
X13623872Y-12541742D02*
X13642920Y-12541742D01*
X13642920Y-12541742D02*
X13661967Y-12551266D01*
X13661967Y-12551266D02*
X13671491Y-12560790D01*
X13671491Y-12560790D02*
X13681015Y-12579837D01*
X13681015Y-12579837D02*
X13690539Y-12617933D01*
X13690539Y-12617933D02*
X13690539Y-12665552D01*
X13690539Y-12665552D02*
X13681015Y-12703647D01*
X13681015Y-12703647D02*
X13671491Y-12722694D01*
X13671491Y-12722694D02*
X13661967Y-12732218D01*
X13661967Y-12732218D02*
X13642920Y-12741742D01*
X13642920Y-12741742D02*
X13623872Y-12741742D01*
X13623872Y-12741742D02*
X13604824Y-12732218D01*
X13604824Y-12732218D02*
X13595301Y-12722694D01*
X13595301Y-12722694D02*
X13585777Y-12703647D01*
X13585777Y-12703647D02*
X13576253Y-12665552D01*
X13576253Y-12665552D02*
X13576253Y-12617933D01*
X13576253Y-12617933D02*
X13585777Y-12579837D01*
X13585777Y-12579837D02*
X13595301Y-12560790D01*
X13595301Y-12560790D02*
X13604824Y-12551266D01*
X13604824Y-12551266D02*
X13623872Y-12541742D01*
X13776253Y-12722694D02*
X13785777Y-12732218D01*
X13785777Y-12732218D02*
X13776253Y-12741742D01*
X13776253Y-12741742D02*
X13766729Y-12732218D01*
X13766729Y-12732218D02*
X13776253Y-12722694D01*
X13776253Y-12722694D02*
X13776253Y-12741742D01*
X13957205Y-12541742D02*
X13919110Y-12541742D01*
X13919110Y-12541742D02*
X13900062Y-12551266D01*
X13900062Y-12551266D02*
X13890539Y-12560790D01*
X13890539Y-12560790D02*
X13871491Y-12589361D01*
X13871491Y-12589361D02*
X13861967Y-12627456D01*
X13861967Y-12627456D02*
X13861967Y-12703647D01*
X13861967Y-12703647D02*
X13871491Y-12722694D01*
X13871491Y-12722694D02*
X13881015Y-12732218D01*
X13881015Y-12732218D02*
X13900062Y-12741742D01*
X13900062Y-12741742D02*
X13938158Y-12741742D01*
X13938158Y-12741742D02*
X13957205Y-12732218D01*
X13957205Y-12732218D02*
X13966729Y-12722694D01*
X13966729Y-12722694D02*
X13976253Y-12703647D01*
X13976253Y-12703647D02*
X13976253Y-12656028D01*
X13976253Y-12656028D02*
X13966729Y-12636980D01*
X13966729Y-12636980D02*
X13957205Y-12627456D01*
X13957205Y-12627456D02*
X13938158Y-12617933D01*
X13938158Y-12617933D02*
X13900062Y-12617933D01*
X13900062Y-12617933D02*
X13881015Y-12627456D01*
X13881015Y-12627456D02*
X13871491Y-12636980D01*
X13871491Y-12636980D02*
X13861967Y-12656028D01*
X14157205Y-12541742D02*
X14061967Y-12541742D01*
X14061967Y-12541742D02*
X14052443Y-12636980D01*
X14052443Y-12636980D02*
X14061967Y-12627456D01*
X14061967Y-12627456D02*
X14081015Y-12617933D01*
X14081015Y-12617933D02*
X14128634Y-12617933D01*
X14128634Y-12617933D02*
X14147682Y-12627456D01*
X14147682Y-12627456D02*
X14157205Y-12636980D01*
X14157205Y-12636980D02*
X14166729Y-12656028D01*
X14166729Y-12656028D02*
X14166729Y-12703647D01*
X14166729Y-12703647D02*
X14157205Y-12722694D01*
X14157205Y-12722694D02*
X14147682Y-12732218D01*
X14147682Y-12732218D02*
X14128634Y-12741742D01*
X14128634Y-12741742D02*
X14081015Y-12741742D01*
X14081015Y-12741742D02*
X14061967Y-12732218D01*
X14061967Y-12732218D02*
X14052443Y-12722694D01*
X14290539Y-12541742D02*
X14309586Y-12541742D01*
X14309586Y-12541742D02*
X14328634Y-12551266D01*
X14328634Y-12551266D02*
X14338158Y-12560790D01*
X14338158Y-12560790D02*
X14347682Y-12579837D01*
X14347682Y-12579837D02*
X14357205Y-12617933D01*
X14357205Y-12617933D02*
X14357205Y-12665552D01*
X14357205Y-12665552D02*
X14347682Y-12703647D01*
X14347682Y-12703647D02*
X14338158Y-12722694D01*
X14338158Y-12722694D02*
X14328634Y-12732218D01*
X14328634Y-12732218D02*
X14309586Y-12741742D01*
X14309586Y-12741742D02*
X14290539Y-12741742D01*
X14290539Y-12741742D02*
X14271491Y-12732218D01*
X14271491Y-12732218D02*
X14261967Y-12722694D01*
X14261967Y-12722694D02*
X14252443Y-12703647D01*
X14252443Y-12703647D02*
X14242920Y-12665552D01*
X14242920Y-12665552D02*
X14242920Y-12617933D01*
X14242920Y-12617933D02*
X14252443Y-12579837D01*
X14252443Y-12579837D02*
X14261967Y-12560790D01*
X14261967Y-12560790D02*
X14271491Y-12551266D01*
X14271491Y-12551266D02*
X14290539Y-12541742D01*
X14442920Y-12741742D02*
X14442920Y-12608409D01*
X14442920Y-12627456D02*
X14452443Y-12617933D01*
X14452443Y-12617933D02*
X14471491Y-12608409D01*
X14471491Y-12608409D02*
X14500063Y-12608409D01*
X14500063Y-12608409D02*
X14519110Y-12617933D01*
X14519110Y-12617933D02*
X14528634Y-12636980D01*
X14528634Y-12636980D02*
X14528634Y-12741742D01*
X14528634Y-12636980D02*
X14538158Y-12617933D01*
X14538158Y-12617933D02*
X14557205Y-12608409D01*
X14557205Y-12608409D02*
X14585777Y-12608409D01*
X14585777Y-12608409D02*
X14604824Y-12617933D01*
X14604824Y-12617933D02*
X14614348Y-12636980D01*
X14614348Y-12636980D02*
X14614348Y-12741742D01*
X14709586Y-12741742D02*
X14709586Y-12608409D01*
X14709586Y-12627456D02*
X14719110Y-12617933D01*
X14719110Y-12617933D02*
X14738158Y-12608409D01*
X14738158Y-12608409D02*
X14766729Y-12608409D01*
X14766729Y-12608409D02*
X14785777Y-12617933D01*
X14785777Y-12617933D02*
X14795301Y-12636980D01*
X14795301Y-12636980D02*
X14795301Y-12741742D01*
X14795301Y-12636980D02*
X14804824Y-12617933D01*
X14804824Y-12617933D02*
X14823872Y-12608409D01*
X14823872Y-12608409D02*
X14852443Y-12608409D01*
X14852443Y-12608409D02*
X14871491Y-12617933D01*
X14871491Y-12617933D02*
X14881015Y-12636980D01*
X14881015Y-12636980D02*
X14881015Y-12741742D01*
X15271491Y-12532218D02*
X15100063Y-12789361D01*
X15528634Y-12541742D02*
X15547682Y-12541742D01*
X15547682Y-12541742D02*
X15566729Y-12551266D01*
X15566729Y-12551266D02*
X15576253Y-12560790D01*
X15576253Y-12560790D02*
X15585777Y-12579837D01*
X15585777Y-12579837D02*
X15595301Y-12617933D01*
X15595301Y-12617933D02*
X15595301Y-12665552D01*
X15595301Y-12665552D02*
X15585777Y-12703647D01*
X15585777Y-12703647D02*
X15576253Y-12722694D01*
X15576253Y-12722694D02*
X15566729Y-12732218D01*
X15566729Y-12732218D02*
X15547682Y-12741742D01*
X15547682Y-12741742D02*
X15528634Y-12741742D01*
X15528634Y-12741742D02*
X15509586Y-12732218D01*
X15509586Y-12732218D02*
X15500063Y-12722694D01*
X15500063Y-12722694D02*
X15490539Y-12703647D01*
X15490539Y-12703647D02*
X15481015Y-12665552D01*
X15481015Y-12665552D02*
X15481015Y-12617933D01*
X15481015Y-12617933D02*
X15490539Y-12579837D01*
X15490539Y-12579837D02*
X15500063Y-12560790D01*
X15500063Y-12560790D02*
X15509586Y-12551266D01*
X15509586Y-12551266D02*
X15528634Y-12541742D01*
X15681015Y-12722694D02*
X15690539Y-12732218D01*
X15690539Y-12732218D02*
X15681015Y-12741742D01*
X15681015Y-12741742D02*
X15671491Y-12732218D01*
X15671491Y-12732218D02*
X15681015Y-12722694D01*
X15681015Y-12722694D02*
X15681015Y-12741742D01*
X15814348Y-12541742D02*
X15833396Y-12541742D01*
X15833396Y-12541742D02*
X15852444Y-12551266D01*
X15852444Y-12551266D02*
X15861967Y-12560790D01*
X15861967Y-12560790D02*
X15871491Y-12579837D01*
X15871491Y-12579837D02*
X15881015Y-12617933D01*
X15881015Y-12617933D02*
X15881015Y-12665552D01*
X15881015Y-12665552D02*
X15871491Y-12703647D01*
X15871491Y-12703647D02*
X15861967Y-12722694D01*
X15861967Y-12722694D02*
X15852444Y-12732218D01*
X15852444Y-12732218D02*
X15833396Y-12741742D01*
X15833396Y-12741742D02*
X15814348Y-12741742D01*
X15814348Y-12741742D02*
X15795301Y-12732218D01*
X15795301Y-12732218D02*
X15785777Y-12722694D01*
X15785777Y-12722694D02*
X15776253Y-12703647D01*
X15776253Y-12703647D02*
X15766729Y-12665552D01*
X15766729Y-12665552D02*
X15766729Y-12617933D01*
X15766729Y-12617933D02*
X15776253Y-12579837D01*
X15776253Y-12579837D02*
X15785777Y-12560790D01*
X15785777Y-12560790D02*
X15795301Y-12551266D01*
X15795301Y-12551266D02*
X15814348Y-12541742D01*
X15957206Y-12560790D02*
X15966729Y-12551266D01*
X15966729Y-12551266D02*
X15985777Y-12541742D01*
X15985777Y-12541742D02*
X16033396Y-12541742D01*
X16033396Y-12541742D02*
X16052444Y-12551266D01*
X16052444Y-12551266D02*
X16061967Y-12560790D01*
X16061967Y-12560790D02*
X16071491Y-12579837D01*
X16071491Y-12579837D02*
X16071491Y-12598885D01*
X16071491Y-12598885D02*
X16061967Y-12627456D01*
X16061967Y-12627456D02*
X15947682Y-12741742D01*
X15947682Y-12741742D02*
X16071491Y-12741742D01*
X16252444Y-12541742D02*
X16157206Y-12541742D01*
X16157206Y-12541742D02*
X16147682Y-12636980D01*
X16147682Y-12636980D02*
X16157206Y-12627456D01*
X16157206Y-12627456D02*
X16176253Y-12617933D01*
X16176253Y-12617933D02*
X16223872Y-12617933D01*
X16223872Y-12617933D02*
X16242920Y-12627456D01*
X16242920Y-12627456D02*
X16252444Y-12636980D01*
X16252444Y-12636980D02*
X16261967Y-12656028D01*
X16261967Y-12656028D02*
X16261967Y-12703647D01*
X16261967Y-12703647D02*
X16252444Y-12722694D01*
X16252444Y-12722694D02*
X16242920Y-12732218D01*
X16242920Y-12732218D02*
X16223872Y-12741742D01*
X16223872Y-12741742D02*
X16176253Y-12741742D01*
X16176253Y-12741742D02*
X16157206Y-12732218D01*
X16157206Y-12732218D02*
X16147682Y-12722694D01*
X16433396Y-12541742D02*
X16395301Y-12541742D01*
X16395301Y-12541742D02*
X16376253Y-12551266D01*
X16376253Y-12551266D02*
X16366729Y-12560790D01*
X16366729Y-12560790D02*
X16347682Y-12589361D01*
X16347682Y-12589361D02*
X16338158Y-12627456D01*
X16338158Y-12627456D02*
X16338158Y-12703647D01*
X16338158Y-12703647D02*
X16347682Y-12722694D01*
X16347682Y-12722694D02*
X16357206Y-12732218D01*
X16357206Y-12732218D02*
X16376253Y-12741742D01*
X16376253Y-12741742D02*
X16414348Y-12741742D01*
X16414348Y-12741742D02*
X16433396Y-12732218D01*
X16433396Y-12732218D02*
X16442920Y-12722694D01*
X16442920Y-12722694D02*
X16452444Y-12703647D01*
X16452444Y-12703647D02*
X16452444Y-12656028D01*
X16452444Y-12656028D02*
X16442920Y-12636980D01*
X16442920Y-12636980D02*
X16433396Y-12627456D01*
X16433396Y-12627456D02*
X16414348Y-12617933D01*
X16414348Y-12617933D02*
X16376253Y-12617933D01*
X16376253Y-12617933D02*
X16357206Y-12627456D01*
X16357206Y-12627456D02*
X16347682Y-12636980D01*
X16347682Y-12636980D02*
X16338158Y-12656028D01*
X16528634Y-12541742D02*
X16528634Y-12579837D01*
X16604825Y-12541742D02*
X16604825Y-12579837D01*
X16900063Y-12817933D02*
X16890539Y-12808409D01*
X16890539Y-12808409D02*
X16871491Y-12779837D01*
X16871491Y-12779837D02*
X16861968Y-12760790D01*
X16861968Y-12760790D02*
X16852444Y-12732218D01*
X16852444Y-12732218D02*
X16842920Y-12684599D01*
X16842920Y-12684599D02*
X16842920Y-12646504D01*
X16842920Y-12646504D02*
X16852444Y-12598885D01*
X16852444Y-12598885D02*
X16861968Y-12570314D01*
X16861968Y-12570314D02*
X16871491Y-12551266D01*
X16871491Y-12551266D02*
X16890539Y-12522694D01*
X16890539Y-12522694D02*
X16900063Y-12513171D01*
X16966730Y-12560790D02*
X16976253Y-12551266D01*
X16976253Y-12551266D02*
X16995301Y-12541742D01*
X16995301Y-12541742D02*
X17042920Y-12541742D01*
X17042920Y-12541742D02*
X17061968Y-12551266D01*
X17061968Y-12551266D02*
X17071491Y-12560790D01*
X17071491Y-12560790D02*
X17081015Y-12579837D01*
X17081015Y-12579837D02*
X17081015Y-12598885D01*
X17081015Y-12598885D02*
X17071491Y-12627456D01*
X17071491Y-12627456D02*
X16957206Y-12741742D01*
X16957206Y-12741742D02*
X17081015Y-12741742D01*
X17319111Y-12741742D02*
X17319111Y-12541742D01*
X17404825Y-12741742D02*
X17404825Y-12636980D01*
X17404825Y-12636980D02*
X17395301Y-12617933D01*
X17395301Y-12617933D02*
X17376253Y-12608409D01*
X17376253Y-12608409D02*
X17347682Y-12608409D01*
X17347682Y-12608409D02*
X17328634Y-12617933D01*
X17328634Y-12617933D02*
X17319111Y-12627456D01*
X17528634Y-12741742D02*
X17509587Y-12732218D01*
X17509587Y-12732218D02*
X17500063Y-12722694D01*
X17500063Y-12722694D02*
X17490539Y-12703647D01*
X17490539Y-12703647D02*
X17490539Y-12646504D01*
X17490539Y-12646504D02*
X17500063Y-12627456D01*
X17500063Y-12627456D02*
X17509587Y-12617933D01*
X17509587Y-12617933D02*
X17528634Y-12608409D01*
X17528634Y-12608409D02*
X17557206Y-12608409D01*
X17557206Y-12608409D02*
X17576253Y-12617933D01*
X17576253Y-12617933D02*
X17585777Y-12627456D01*
X17585777Y-12627456D02*
X17595301Y-12646504D01*
X17595301Y-12646504D02*
X17595301Y-12703647D01*
X17595301Y-12703647D02*
X17585777Y-12722694D01*
X17585777Y-12722694D02*
X17576253Y-12732218D01*
X17576253Y-12732218D02*
X17557206Y-12741742D01*
X17557206Y-12741742D02*
X17528634Y-12741742D01*
X17709587Y-12741742D02*
X17690539Y-12732218D01*
X17690539Y-12732218D02*
X17681015Y-12713171D01*
X17681015Y-12713171D02*
X17681015Y-12541742D01*
X17861968Y-12732218D02*
X17842920Y-12741742D01*
X17842920Y-12741742D02*
X17804825Y-12741742D01*
X17804825Y-12741742D02*
X17785777Y-12732218D01*
X17785777Y-12732218D02*
X17776253Y-12713171D01*
X17776253Y-12713171D02*
X17776253Y-12636980D01*
X17776253Y-12636980D02*
X17785777Y-12617933D01*
X17785777Y-12617933D02*
X17804825Y-12608409D01*
X17804825Y-12608409D02*
X17842920Y-12608409D01*
X17842920Y-12608409D02*
X17861968Y-12617933D01*
X17861968Y-12617933D02*
X17871492Y-12636980D01*
X17871492Y-12636980D02*
X17871492Y-12656028D01*
X17871492Y-12656028D02*
X17776253Y-12675075D01*
X17947682Y-12732218D02*
X17966730Y-12741742D01*
X17966730Y-12741742D02*
X18004825Y-12741742D01*
X18004825Y-12741742D02*
X18023873Y-12732218D01*
X18023873Y-12732218D02*
X18033396Y-12713171D01*
X18033396Y-12713171D02*
X18033396Y-12703647D01*
X18033396Y-12703647D02*
X18023873Y-12684599D01*
X18023873Y-12684599D02*
X18004825Y-12675075D01*
X18004825Y-12675075D02*
X17976253Y-12675075D01*
X17976253Y-12675075D02*
X17957206Y-12665552D01*
X17957206Y-12665552D02*
X17947682Y-12646504D01*
X17947682Y-12646504D02*
X17947682Y-12636980D01*
X17947682Y-12636980D02*
X17957206Y-12617933D01*
X17957206Y-12617933D02*
X17976253Y-12608409D01*
X17976253Y-12608409D02*
X18004825Y-12608409D01*
X18004825Y-12608409D02*
X18023873Y-12617933D01*
X18100063Y-12817933D02*
X18109587Y-12808409D01*
X18109587Y-12808409D02*
X18128634Y-12779837D01*
X18128634Y-12779837D02*
X18138158Y-12760790D01*
X18138158Y-12760790D02*
X18147682Y-12732218D01*
X18147682Y-12732218D02*
X18157206Y-12684599D01*
X18157206Y-12684599D02*
X18157206Y-12646504D01*
X18157206Y-12646504D02*
X18147682Y-12598885D01*
X18147682Y-12598885D02*
X18138158Y-12570314D01*
X18138158Y-12570314D02*
X18128634Y-12551266D01*
X18128634Y-12551266D02*
X18109587Y-12522694D01*
X18109587Y-12522694D02*
X18100063Y-12513171D01*
X18461968Y-12817933D02*
X18452444Y-12808409D01*
X18452444Y-12808409D02*
X18433396Y-12779837D01*
X18433396Y-12779837D02*
X18423873Y-12760790D01*
X18423873Y-12760790D02*
X18414349Y-12732218D01*
X18414349Y-12732218D02*
X18404825Y-12684599D01*
X18404825Y-12684599D02*
X18404825Y-12646504D01*
X18404825Y-12646504D02*
X18414349Y-12598885D01*
X18414349Y-12598885D02*
X18423873Y-12570314D01*
X18423873Y-12570314D02*
X18433396Y-12551266D01*
X18433396Y-12551266D02*
X18452444Y-12522694D01*
X18452444Y-12522694D02*
X18461968Y-12513171D01*
X18538158Y-12608409D02*
X18538158Y-12741742D01*
X18538158Y-12627456D02*
X18547682Y-12617933D01*
X18547682Y-12617933D02*
X18566730Y-12608409D01*
X18566730Y-12608409D02*
X18595301Y-12608409D01*
X18595301Y-12608409D02*
X18614349Y-12617933D01*
X18614349Y-12617933D02*
X18623873Y-12636980D01*
X18623873Y-12636980D02*
X18623873Y-12741742D01*
X18747682Y-12741742D02*
X18728634Y-12732218D01*
X18728634Y-12732218D02*
X18719111Y-12722694D01*
X18719111Y-12722694D02*
X18709587Y-12703647D01*
X18709587Y-12703647D02*
X18709587Y-12646504D01*
X18709587Y-12646504D02*
X18719111Y-12627456D01*
X18719111Y-12627456D02*
X18728634Y-12617933D01*
X18728634Y-12617933D02*
X18747682Y-12608409D01*
X18747682Y-12608409D02*
X18776254Y-12608409D01*
X18776254Y-12608409D02*
X18795301Y-12617933D01*
X18795301Y-12617933D02*
X18804825Y-12627456D01*
X18804825Y-12627456D02*
X18814349Y-12646504D01*
X18814349Y-12646504D02*
X18814349Y-12703647D01*
X18814349Y-12703647D02*
X18804825Y-12722694D01*
X18804825Y-12722694D02*
X18795301Y-12732218D01*
X18795301Y-12732218D02*
X18776254Y-12741742D01*
X18776254Y-12741742D02*
X18747682Y-12741742D01*
X18871492Y-12608409D02*
X18947682Y-12608409D01*
X18900063Y-12541742D02*
X18900063Y-12713171D01*
X18900063Y-12713171D02*
X18909587Y-12732218D01*
X18909587Y-12732218D02*
X18928634Y-12741742D01*
X18928634Y-12741742D02*
X18947682Y-12741742D01*
X19166730Y-12608409D02*
X19166730Y-12808409D01*
X19166730Y-12617933D02*
X19185777Y-12608409D01*
X19185777Y-12608409D02*
X19223873Y-12608409D01*
X19223873Y-12608409D02*
X19242920Y-12617933D01*
X19242920Y-12617933D02*
X19252444Y-12627456D01*
X19252444Y-12627456D02*
X19261968Y-12646504D01*
X19261968Y-12646504D02*
X19261968Y-12703647D01*
X19261968Y-12703647D02*
X19252444Y-12722694D01*
X19252444Y-12722694D02*
X19242920Y-12732218D01*
X19242920Y-12732218D02*
X19223873Y-12741742D01*
X19223873Y-12741742D02*
X19185777Y-12741742D01*
X19185777Y-12741742D02*
X19166730Y-12732218D01*
X19376254Y-12741742D02*
X19357206Y-12732218D01*
X19357206Y-12732218D02*
X19347682Y-12713171D01*
X19347682Y-12713171D02*
X19347682Y-12541742D01*
X19538158Y-12741742D02*
X19538158Y-12636980D01*
X19538158Y-12636980D02*
X19528635Y-12617933D01*
X19528635Y-12617933D02*
X19509587Y-12608409D01*
X19509587Y-12608409D02*
X19471492Y-12608409D01*
X19471492Y-12608409D02*
X19452444Y-12617933D01*
X19538158Y-12732218D02*
X19519111Y-12741742D01*
X19519111Y-12741742D02*
X19471492Y-12741742D01*
X19471492Y-12741742D02*
X19452444Y-12732218D01*
X19452444Y-12732218D02*
X19442920Y-12713171D01*
X19442920Y-12713171D02*
X19442920Y-12694123D01*
X19442920Y-12694123D02*
X19452444Y-12675075D01*
X19452444Y-12675075D02*
X19471492Y-12665552D01*
X19471492Y-12665552D02*
X19519111Y-12665552D01*
X19519111Y-12665552D02*
X19538158Y-12656028D01*
X19604825Y-12608409D02*
X19681015Y-12608409D01*
X19633396Y-12541742D02*
X19633396Y-12713171D01*
X19633396Y-12713171D02*
X19642920Y-12732218D01*
X19642920Y-12732218D02*
X19661968Y-12741742D01*
X19661968Y-12741742D02*
X19681015Y-12741742D01*
X19823873Y-12732218D02*
X19804825Y-12741742D01*
X19804825Y-12741742D02*
X19766730Y-12741742D01*
X19766730Y-12741742D02*
X19747682Y-12732218D01*
X19747682Y-12732218D02*
X19738158Y-12713171D01*
X19738158Y-12713171D02*
X19738158Y-12636980D01*
X19738158Y-12636980D02*
X19747682Y-12617933D01*
X19747682Y-12617933D02*
X19766730Y-12608409D01*
X19766730Y-12608409D02*
X19804825Y-12608409D01*
X19804825Y-12608409D02*
X19823873Y-12617933D01*
X19823873Y-12617933D02*
X19833396Y-12636980D01*
X19833396Y-12636980D02*
X19833396Y-12656028D01*
X19833396Y-12656028D02*
X19738158Y-12675075D01*
X20004825Y-12741742D02*
X20004825Y-12541742D01*
X20004825Y-12732218D02*
X19985777Y-12741742D01*
X19985777Y-12741742D02*
X19947682Y-12741742D01*
X19947682Y-12741742D02*
X19928635Y-12732218D01*
X19928635Y-12732218D02*
X19919111Y-12722694D01*
X19919111Y-12722694D02*
X19909587Y-12703647D01*
X19909587Y-12703647D02*
X19909587Y-12646504D01*
X19909587Y-12646504D02*
X19919111Y-12627456D01*
X19919111Y-12627456D02*
X19928635Y-12617933D01*
X19928635Y-12617933D02*
X19947682Y-12608409D01*
X19947682Y-12608409D02*
X19985777Y-12608409D01*
X19985777Y-12608409D02*
X20004825Y-12617933D01*
X20081016Y-12817933D02*
X20090539Y-12808409D01*
X20090539Y-12808409D02*
X20109587Y-12779837D01*
X20109587Y-12779837D02*
X20119111Y-12760790D01*
X20119111Y-12760790D02*
X20128635Y-12732218D01*
X20128635Y-12732218D02*
X20138158Y-12684599D01*
X20138158Y-12684599D02*
X20138158Y-12646504D01*
X20138158Y-12646504D02*
X20128635Y-12598885D01*
X20128635Y-12598885D02*
X20119111Y-12570314D01*
X20119111Y-12570314D02*
X20109587Y-12551266D01*
X20109587Y-12551266D02*
X20090539Y-12522694D01*
X20090539Y-12522694D02*
X20081016Y-12513171D01*
X13325000Y-12914258D02*
G75*
G03*
X13125000Y-12914258I-100000J0D01*
G01*
X13125000Y-12914258D02*
G75*
G03*
X13325000Y-12914258I100000J0D01*
G01*
X13576253Y-12824790D02*
X13585777Y-12815266D01*
X13585777Y-12815266D02*
X13604824Y-12805742D01*
X13604824Y-12805742D02*
X13652443Y-12805742D01*
X13652443Y-12805742D02*
X13671491Y-12815266D01*
X13671491Y-12815266D02*
X13681015Y-12824790D01*
X13681015Y-12824790D02*
X13690539Y-12843837D01*
X13690539Y-12843837D02*
X13690539Y-12862885D01*
X13690539Y-12862885D02*
X13681015Y-12891456D01*
X13681015Y-12891456D02*
X13566729Y-13005742D01*
X13566729Y-13005742D02*
X13690539Y-13005742D01*
X13776253Y-12986694D02*
X13785777Y-12996218D01*
X13785777Y-12996218D02*
X13776253Y-13005742D01*
X13776253Y-13005742D02*
X13766729Y-12996218D01*
X13766729Y-12996218D02*
X13776253Y-12986694D01*
X13776253Y-12986694D02*
X13776253Y-13005742D01*
X13861967Y-12824790D02*
X13871491Y-12815266D01*
X13871491Y-12815266D02*
X13890539Y-12805742D01*
X13890539Y-12805742D02*
X13938158Y-12805742D01*
X13938158Y-12805742D02*
X13957205Y-12815266D01*
X13957205Y-12815266D02*
X13966729Y-12824790D01*
X13966729Y-12824790D02*
X13976253Y-12843837D01*
X13976253Y-12843837D02*
X13976253Y-12862885D01*
X13976253Y-12862885D02*
X13966729Y-12891456D01*
X13966729Y-12891456D02*
X13852443Y-13005742D01*
X13852443Y-13005742D02*
X13976253Y-13005742D01*
X14100062Y-12805742D02*
X14119110Y-12805742D01*
X14119110Y-12805742D02*
X14138158Y-12815266D01*
X14138158Y-12815266D02*
X14147682Y-12824790D01*
X14147682Y-12824790D02*
X14157205Y-12843837D01*
X14157205Y-12843837D02*
X14166729Y-12881933D01*
X14166729Y-12881933D02*
X14166729Y-12929552D01*
X14166729Y-12929552D02*
X14157205Y-12967647D01*
X14157205Y-12967647D02*
X14147682Y-12986694D01*
X14147682Y-12986694D02*
X14138158Y-12996218D01*
X14138158Y-12996218D02*
X14119110Y-13005742D01*
X14119110Y-13005742D02*
X14100062Y-13005742D01*
X14100062Y-13005742D02*
X14081015Y-12996218D01*
X14081015Y-12996218D02*
X14071491Y-12986694D01*
X14071491Y-12986694D02*
X14061967Y-12967647D01*
X14061967Y-12967647D02*
X14052443Y-12929552D01*
X14052443Y-12929552D02*
X14052443Y-12881933D01*
X14052443Y-12881933D02*
X14061967Y-12843837D01*
X14061967Y-12843837D02*
X14071491Y-12824790D01*
X14071491Y-12824790D02*
X14081015Y-12815266D01*
X14081015Y-12815266D02*
X14100062Y-12805742D01*
X14290539Y-12805742D02*
X14309586Y-12805742D01*
X14309586Y-12805742D02*
X14328634Y-12815266D01*
X14328634Y-12815266D02*
X14338158Y-12824790D01*
X14338158Y-12824790D02*
X14347682Y-12843837D01*
X14347682Y-12843837D02*
X14357205Y-12881933D01*
X14357205Y-12881933D02*
X14357205Y-12929552D01*
X14357205Y-12929552D02*
X14347682Y-12967647D01*
X14347682Y-12967647D02*
X14338158Y-12986694D01*
X14338158Y-12986694D02*
X14328634Y-12996218D01*
X14328634Y-12996218D02*
X14309586Y-13005742D01*
X14309586Y-13005742D02*
X14290539Y-13005742D01*
X14290539Y-13005742D02*
X14271491Y-12996218D01*
X14271491Y-12996218D02*
X14261967Y-12986694D01*
X14261967Y-12986694D02*
X14252443Y-12967647D01*
X14252443Y-12967647D02*
X14242920Y-12929552D01*
X14242920Y-12929552D02*
X14242920Y-12881933D01*
X14242920Y-12881933D02*
X14252443Y-12843837D01*
X14252443Y-12843837D02*
X14261967Y-12824790D01*
X14261967Y-12824790D02*
X14271491Y-12815266D01*
X14271491Y-12815266D02*
X14290539Y-12805742D01*
X14442920Y-13005742D02*
X14442920Y-12872409D01*
X14442920Y-12891456D02*
X14452443Y-12881933D01*
X14452443Y-12881933D02*
X14471491Y-12872409D01*
X14471491Y-12872409D02*
X14500063Y-12872409D01*
X14500063Y-12872409D02*
X14519110Y-12881933D01*
X14519110Y-12881933D02*
X14528634Y-12900980D01*
X14528634Y-12900980D02*
X14528634Y-13005742D01*
X14528634Y-12900980D02*
X14538158Y-12881933D01*
X14538158Y-12881933D02*
X14557205Y-12872409D01*
X14557205Y-12872409D02*
X14585777Y-12872409D01*
X14585777Y-12872409D02*
X14604824Y-12881933D01*
X14604824Y-12881933D02*
X14614348Y-12900980D01*
X14614348Y-12900980D02*
X14614348Y-13005742D01*
X14709586Y-13005742D02*
X14709586Y-12872409D01*
X14709586Y-12891456D02*
X14719110Y-12881933D01*
X14719110Y-12881933D02*
X14738158Y-12872409D01*
X14738158Y-12872409D02*
X14766729Y-12872409D01*
X14766729Y-12872409D02*
X14785777Y-12881933D01*
X14785777Y-12881933D02*
X14795301Y-12900980D01*
X14795301Y-12900980D02*
X14795301Y-13005742D01*
X14795301Y-12900980D02*
X14804824Y-12881933D01*
X14804824Y-12881933D02*
X14823872Y-12872409D01*
X14823872Y-12872409D02*
X14852443Y-12872409D01*
X14852443Y-12872409D02*
X14871491Y-12881933D01*
X14871491Y-12881933D02*
X14881015Y-12900980D01*
X14881015Y-12900980D02*
X14881015Y-13005742D01*
X15271491Y-12796218D02*
X15100063Y-13053361D01*
X15528634Y-12805742D02*
X15547682Y-12805742D01*
X15547682Y-12805742D02*
X15566729Y-12815266D01*
X15566729Y-12815266D02*
X15576253Y-12824790D01*
X15576253Y-12824790D02*
X15585777Y-12843837D01*
X15585777Y-12843837D02*
X15595301Y-12881933D01*
X15595301Y-12881933D02*
X15595301Y-12929552D01*
X15595301Y-12929552D02*
X15585777Y-12967647D01*
X15585777Y-12967647D02*
X15576253Y-12986694D01*
X15576253Y-12986694D02*
X15566729Y-12996218D01*
X15566729Y-12996218D02*
X15547682Y-13005742D01*
X15547682Y-13005742D02*
X15528634Y-13005742D01*
X15528634Y-13005742D02*
X15509586Y-12996218D01*
X15509586Y-12996218D02*
X15500063Y-12986694D01*
X15500063Y-12986694D02*
X15490539Y-12967647D01*
X15490539Y-12967647D02*
X15481015Y-12929552D01*
X15481015Y-12929552D02*
X15481015Y-12881933D01*
X15481015Y-12881933D02*
X15490539Y-12843837D01*
X15490539Y-12843837D02*
X15500063Y-12824790D01*
X15500063Y-12824790D02*
X15509586Y-12815266D01*
X15509586Y-12815266D02*
X15528634Y-12805742D01*
X15681015Y-12986694D02*
X15690539Y-12996218D01*
X15690539Y-12996218D02*
X15681015Y-13005742D01*
X15681015Y-13005742D02*
X15671491Y-12996218D01*
X15671491Y-12996218D02*
X15681015Y-12986694D01*
X15681015Y-12986694D02*
X15681015Y-13005742D01*
X15814348Y-12805742D02*
X15833396Y-12805742D01*
X15833396Y-12805742D02*
X15852444Y-12815266D01*
X15852444Y-12815266D02*
X15861967Y-12824790D01*
X15861967Y-12824790D02*
X15871491Y-12843837D01*
X15871491Y-12843837D02*
X15881015Y-12881933D01*
X15881015Y-12881933D02*
X15881015Y-12929552D01*
X15881015Y-12929552D02*
X15871491Y-12967647D01*
X15871491Y-12967647D02*
X15861967Y-12986694D01*
X15861967Y-12986694D02*
X15852444Y-12996218D01*
X15852444Y-12996218D02*
X15833396Y-13005742D01*
X15833396Y-13005742D02*
X15814348Y-13005742D01*
X15814348Y-13005742D02*
X15795301Y-12996218D01*
X15795301Y-12996218D02*
X15785777Y-12986694D01*
X15785777Y-12986694D02*
X15776253Y-12967647D01*
X15776253Y-12967647D02*
X15766729Y-12929552D01*
X15766729Y-12929552D02*
X15766729Y-12881933D01*
X15766729Y-12881933D02*
X15776253Y-12843837D01*
X15776253Y-12843837D02*
X15785777Y-12824790D01*
X15785777Y-12824790D02*
X15795301Y-12815266D01*
X15795301Y-12815266D02*
X15814348Y-12805742D01*
X15995301Y-12891456D02*
X15976253Y-12881933D01*
X15976253Y-12881933D02*
X15966729Y-12872409D01*
X15966729Y-12872409D02*
X15957206Y-12853361D01*
X15957206Y-12853361D02*
X15957206Y-12843837D01*
X15957206Y-12843837D02*
X15966729Y-12824790D01*
X15966729Y-12824790D02*
X15976253Y-12815266D01*
X15976253Y-12815266D02*
X15995301Y-12805742D01*
X15995301Y-12805742D02*
X16033396Y-12805742D01*
X16033396Y-12805742D02*
X16052444Y-12815266D01*
X16052444Y-12815266D02*
X16061967Y-12824790D01*
X16061967Y-12824790D02*
X16071491Y-12843837D01*
X16071491Y-12843837D02*
X16071491Y-12853361D01*
X16071491Y-12853361D02*
X16061967Y-12872409D01*
X16061967Y-12872409D02*
X16052444Y-12881933D01*
X16052444Y-12881933D02*
X16033396Y-12891456D01*
X16033396Y-12891456D02*
X15995301Y-12891456D01*
X15995301Y-12891456D02*
X15976253Y-12900980D01*
X15976253Y-12900980D02*
X15966729Y-12910504D01*
X15966729Y-12910504D02*
X15957206Y-12929552D01*
X15957206Y-12929552D02*
X15957206Y-12967647D01*
X15957206Y-12967647D02*
X15966729Y-12986694D01*
X15966729Y-12986694D02*
X15976253Y-12996218D01*
X15976253Y-12996218D02*
X15995301Y-13005742D01*
X15995301Y-13005742D02*
X16033396Y-13005742D01*
X16033396Y-13005742D02*
X16052444Y-12996218D01*
X16052444Y-12996218D02*
X16061967Y-12986694D01*
X16061967Y-12986694D02*
X16071491Y-12967647D01*
X16071491Y-12967647D02*
X16071491Y-12929552D01*
X16071491Y-12929552D02*
X16061967Y-12910504D01*
X16061967Y-12910504D02*
X16052444Y-12900980D01*
X16052444Y-12900980D02*
X16033396Y-12891456D01*
X16242920Y-12805742D02*
X16204825Y-12805742D01*
X16204825Y-12805742D02*
X16185777Y-12815266D01*
X16185777Y-12815266D02*
X16176253Y-12824790D01*
X16176253Y-12824790D02*
X16157206Y-12853361D01*
X16157206Y-12853361D02*
X16147682Y-12891456D01*
X16147682Y-12891456D02*
X16147682Y-12967647D01*
X16147682Y-12967647D02*
X16157206Y-12986694D01*
X16157206Y-12986694D02*
X16166729Y-12996218D01*
X16166729Y-12996218D02*
X16185777Y-13005742D01*
X16185777Y-13005742D02*
X16223872Y-13005742D01*
X16223872Y-13005742D02*
X16242920Y-12996218D01*
X16242920Y-12996218D02*
X16252444Y-12986694D01*
X16252444Y-12986694D02*
X16261967Y-12967647D01*
X16261967Y-12967647D02*
X16261967Y-12920028D01*
X16261967Y-12920028D02*
X16252444Y-12900980D01*
X16252444Y-12900980D02*
X16242920Y-12891456D01*
X16242920Y-12891456D02*
X16223872Y-12881933D01*
X16223872Y-12881933D02*
X16185777Y-12881933D01*
X16185777Y-12881933D02*
X16166729Y-12891456D01*
X16166729Y-12891456D02*
X16157206Y-12900980D01*
X16157206Y-12900980D02*
X16147682Y-12920028D01*
X16433396Y-12805742D02*
X16395301Y-12805742D01*
X16395301Y-12805742D02*
X16376253Y-12815266D01*
X16376253Y-12815266D02*
X16366729Y-12824790D01*
X16366729Y-12824790D02*
X16347682Y-12853361D01*
X16347682Y-12853361D02*
X16338158Y-12891456D01*
X16338158Y-12891456D02*
X16338158Y-12967647D01*
X16338158Y-12967647D02*
X16347682Y-12986694D01*
X16347682Y-12986694D02*
X16357206Y-12996218D01*
X16357206Y-12996218D02*
X16376253Y-13005742D01*
X16376253Y-13005742D02*
X16414348Y-13005742D01*
X16414348Y-13005742D02*
X16433396Y-12996218D01*
X16433396Y-12996218D02*
X16442920Y-12986694D01*
X16442920Y-12986694D02*
X16452444Y-12967647D01*
X16452444Y-12967647D02*
X16452444Y-12920028D01*
X16452444Y-12920028D02*
X16442920Y-12900980D01*
X16442920Y-12900980D02*
X16433396Y-12891456D01*
X16433396Y-12891456D02*
X16414348Y-12881933D01*
X16414348Y-12881933D02*
X16376253Y-12881933D01*
X16376253Y-12881933D02*
X16357206Y-12891456D01*
X16357206Y-12891456D02*
X16347682Y-12900980D01*
X16347682Y-12900980D02*
X16338158Y-12920028D01*
X16528634Y-12805742D02*
X16528634Y-12843837D01*
X16604825Y-12805742D02*
X16604825Y-12843837D01*
X16900063Y-13081933D02*
X16890539Y-13072409D01*
X16890539Y-13072409D02*
X16871491Y-13043837D01*
X16871491Y-13043837D02*
X16861968Y-13024790D01*
X16861968Y-13024790D02*
X16852444Y-12996218D01*
X16852444Y-12996218D02*
X16842920Y-12948599D01*
X16842920Y-12948599D02*
X16842920Y-12910504D01*
X16842920Y-12910504D02*
X16852444Y-12862885D01*
X16852444Y-12862885D02*
X16861968Y-12834314D01*
X16861968Y-12834314D02*
X16871491Y-12815266D01*
X16871491Y-12815266D02*
X16890539Y-12786694D01*
X16890539Y-12786694D02*
X16900063Y-12777171D01*
X17061968Y-12872409D02*
X17061968Y-13005742D01*
X17014349Y-12796218D02*
X16966730Y-12939075D01*
X16966730Y-12939075D02*
X17090539Y-12939075D01*
X17319111Y-13005742D02*
X17319111Y-12805742D01*
X17404825Y-13005742D02*
X17404825Y-12900980D01*
X17404825Y-12900980D02*
X17395301Y-12881933D01*
X17395301Y-12881933D02*
X17376253Y-12872409D01*
X17376253Y-12872409D02*
X17347682Y-12872409D01*
X17347682Y-12872409D02*
X17328634Y-12881933D01*
X17328634Y-12881933D02*
X17319111Y-12891456D01*
X17528634Y-13005742D02*
X17509587Y-12996218D01*
X17509587Y-12996218D02*
X17500063Y-12986694D01*
X17500063Y-12986694D02*
X17490539Y-12967647D01*
X17490539Y-12967647D02*
X17490539Y-12910504D01*
X17490539Y-12910504D02*
X17500063Y-12891456D01*
X17500063Y-12891456D02*
X17509587Y-12881933D01*
X17509587Y-12881933D02*
X17528634Y-12872409D01*
X17528634Y-12872409D02*
X17557206Y-12872409D01*
X17557206Y-12872409D02*
X17576253Y-12881933D01*
X17576253Y-12881933D02*
X17585777Y-12891456D01*
X17585777Y-12891456D02*
X17595301Y-12910504D01*
X17595301Y-12910504D02*
X17595301Y-12967647D01*
X17595301Y-12967647D02*
X17585777Y-12986694D01*
X17585777Y-12986694D02*
X17576253Y-12996218D01*
X17576253Y-12996218D02*
X17557206Y-13005742D01*
X17557206Y-13005742D02*
X17528634Y-13005742D01*
X17709587Y-13005742D02*
X17690539Y-12996218D01*
X17690539Y-12996218D02*
X17681015Y-12977171D01*
X17681015Y-12977171D02*
X17681015Y-12805742D01*
X17861968Y-12996218D02*
X17842920Y-13005742D01*
X17842920Y-13005742D02*
X17804825Y-13005742D01*
X17804825Y-13005742D02*
X17785777Y-12996218D01*
X17785777Y-12996218D02*
X17776253Y-12977171D01*
X17776253Y-12977171D02*
X17776253Y-12900980D01*
X17776253Y-12900980D02*
X17785777Y-12881933D01*
X17785777Y-12881933D02*
X17804825Y-12872409D01*
X17804825Y-12872409D02*
X17842920Y-12872409D01*
X17842920Y-12872409D02*
X17861968Y-12881933D01*
X17861968Y-12881933D02*
X17871492Y-12900980D01*
X17871492Y-12900980D02*
X17871492Y-12920028D01*
X17871492Y-12920028D02*
X17776253Y-12939075D01*
X17947682Y-12996218D02*
X17966730Y-13005742D01*
X17966730Y-13005742D02*
X18004825Y-13005742D01*
X18004825Y-13005742D02*
X18023873Y-12996218D01*
X18023873Y-12996218D02*
X18033396Y-12977171D01*
X18033396Y-12977171D02*
X18033396Y-12967647D01*
X18033396Y-12967647D02*
X18023873Y-12948599D01*
X18023873Y-12948599D02*
X18004825Y-12939075D01*
X18004825Y-12939075D02*
X17976253Y-12939075D01*
X17976253Y-12939075D02*
X17957206Y-12929552D01*
X17957206Y-12929552D02*
X17947682Y-12910504D01*
X17947682Y-12910504D02*
X17947682Y-12900980D01*
X17947682Y-12900980D02*
X17957206Y-12881933D01*
X17957206Y-12881933D02*
X17976253Y-12872409D01*
X17976253Y-12872409D02*
X18004825Y-12872409D01*
X18004825Y-12872409D02*
X18023873Y-12881933D01*
X18100063Y-13081933D02*
X18109587Y-13072409D01*
X18109587Y-13072409D02*
X18128634Y-13043837D01*
X18128634Y-13043837D02*
X18138158Y-13024790D01*
X18138158Y-13024790D02*
X18147682Y-12996218D01*
X18147682Y-12996218D02*
X18157206Y-12948599D01*
X18157206Y-12948599D02*
X18157206Y-12910504D01*
X18157206Y-12910504D02*
X18147682Y-12862885D01*
X18147682Y-12862885D02*
X18138158Y-12834314D01*
X18138158Y-12834314D02*
X18128634Y-12815266D01*
X18128634Y-12815266D02*
X18109587Y-12786694D01*
X18109587Y-12786694D02*
X18100063Y-12777171D01*
X18461968Y-13081933D02*
X18452444Y-13072409D01*
X18452444Y-13072409D02*
X18433396Y-13043837D01*
X18433396Y-13043837D02*
X18423873Y-13024790D01*
X18423873Y-13024790D02*
X18414349Y-12996218D01*
X18414349Y-12996218D02*
X18404825Y-12948599D01*
X18404825Y-12948599D02*
X18404825Y-12910504D01*
X18404825Y-12910504D02*
X18414349Y-12862885D01*
X18414349Y-12862885D02*
X18423873Y-12834314D01*
X18423873Y-12834314D02*
X18433396Y-12815266D01*
X18433396Y-12815266D02*
X18452444Y-12786694D01*
X18452444Y-12786694D02*
X18461968Y-12777171D01*
X18538158Y-12872409D02*
X18538158Y-13005742D01*
X18538158Y-12891456D02*
X18547682Y-12881933D01*
X18547682Y-12881933D02*
X18566730Y-12872409D01*
X18566730Y-12872409D02*
X18595301Y-12872409D01*
X18595301Y-12872409D02*
X18614349Y-12881933D01*
X18614349Y-12881933D02*
X18623873Y-12900980D01*
X18623873Y-12900980D02*
X18623873Y-13005742D01*
X18747682Y-13005742D02*
X18728634Y-12996218D01*
X18728634Y-12996218D02*
X18719111Y-12986694D01*
X18719111Y-12986694D02*
X18709587Y-12967647D01*
X18709587Y-12967647D02*
X18709587Y-12910504D01*
X18709587Y-12910504D02*
X18719111Y-12891456D01*
X18719111Y-12891456D02*
X18728634Y-12881933D01*
X18728634Y-12881933D02*
X18747682Y-12872409D01*
X18747682Y-12872409D02*
X18776254Y-12872409D01*
X18776254Y-12872409D02*
X18795301Y-12881933D01*
X18795301Y-12881933D02*
X18804825Y-12891456D01*
X18804825Y-12891456D02*
X18814349Y-12910504D01*
X18814349Y-12910504D02*
X18814349Y-12967647D01*
X18814349Y-12967647D02*
X18804825Y-12986694D01*
X18804825Y-12986694D02*
X18795301Y-12996218D01*
X18795301Y-12996218D02*
X18776254Y-13005742D01*
X18776254Y-13005742D02*
X18747682Y-13005742D01*
X18871492Y-12872409D02*
X18947682Y-12872409D01*
X18900063Y-12805742D02*
X18900063Y-12977171D01*
X18900063Y-12977171D02*
X18909587Y-12996218D01*
X18909587Y-12996218D02*
X18928634Y-13005742D01*
X18928634Y-13005742D02*
X18947682Y-13005742D01*
X19166730Y-12872409D02*
X19166730Y-13072409D01*
X19166730Y-12881933D02*
X19185777Y-12872409D01*
X19185777Y-12872409D02*
X19223873Y-12872409D01*
X19223873Y-12872409D02*
X19242920Y-12881933D01*
X19242920Y-12881933D02*
X19252444Y-12891456D01*
X19252444Y-12891456D02*
X19261968Y-12910504D01*
X19261968Y-12910504D02*
X19261968Y-12967647D01*
X19261968Y-12967647D02*
X19252444Y-12986694D01*
X19252444Y-12986694D02*
X19242920Y-12996218D01*
X19242920Y-12996218D02*
X19223873Y-13005742D01*
X19223873Y-13005742D02*
X19185777Y-13005742D01*
X19185777Y-13005742D02*
X19166730Y-12996218D01*
X19376254Y-13005742D02*
X19357206Y-12996218D01*
X19357206Y-12996218D02*
X19347682Y-12977171D01*
X19347682Y-12977171D02*
X19347682Y-12805742D01*
X19538158Y-13005742D02*
X19538158Y-12900980D01*
X19538158Y-12900980D02*
X19528635Y-12881933D01*
X19528635Y-12881933D02*
X19509587Y-12872409D01*
X19509587Y-12872409D02*
X19471492Y-12872409D01*
X19471492Y-12872409D02*
X19452444Y-12881933D01*
X19538158Y-12996218D02*
X19519111Y-13005742D01*
X19519111Y-13005742D02*
X19471492Y-13005742D01*
X19471492Y-13005742D02*
X19452444Y-12996218D01*
X19452444Y-12996218D02*
X19442920Y-12977171D01*
X19442920Y-12977171D02*
X19442920Y-12958123D01*
X19442920Y-12958123D02*
X19452444Y-12939075D01*
X19452444Y-12939075D02*
X19471492Y-12929552D01*
X19471492Y-12929552D02*
X19519111Y-12929552D01*
X19519111Y-12929552D02*
X19538158Y-12920028D01*
X19604825Y-12872409D02*
X19681015Y-12872409D01*
X19633396Y-12805742D02*
X19633396Y-12977171D01*
X19633396Y-12977171D02*
X19642920Y-12996218D01*
X19642920Y-12996218D02*
X19661968Y-13005742D01*
X19661968Y-13005742D02*
X19681015Y-13005742D01*
X19823873Y-12996218D02*
X19804825Y-13005742D01*
X19804825Y-13005742D02*
X19766730Y-13005742D01*
X19766730Y-13005742D02*
X19747682Y-12996218D01*
X19747682Y-12996218D02*
X19738158Y-12977171D01*
X19738158Y-12977171D02*
X19738158Y-12900980D01*
X19738158Y-12900980D02*
X19747682Y-12881933D01*
X19747682Y-12881933D02*
X19766730Y-12872409D01*
X19766730Y-12872409D02*
X19804825Y-12872409D01*
X19804825Y-12872409D02*
X19823873Y-12881933D01*
X19823873Y-12881933D02*
X19833396Y-12900980D01*
X19833396Y-12900980D02*
X19833396Y-12920028D01*
X19833396Y-12920028D02*
X19738158Y-12939075D01*
X20004825Y-13005742D02*
X20004825Y-12805742D01*
X20004825Y-12996218D02*
X19985777Y-13005742D01*
X19985777Y-13005742D02*
X19947682Y-13005742D01*
X19947682Y-13005742D02*
X19928635Y-12996218D01*
X19928635Y-12996218D02*
X19919111Y-12986694D01*
X19919111Y-12986694D02*
X19909587Y-12967647D01*
X19909587Y-12967647D02*
X19909587Y-12910504D01*
X19909587Y-12910504D02*
X19919111Y-12891456D01*
X19919111Y-12891456D02*
X19928635Y-12881933D01*
X19928635Y-12881933D02*
X19947682Y-12872409D01*
X19947682Y-12872409D02*
X19985777Y-12872409D01*
X19985777Y-12872409D02*
X20004825Y-12881933D01*
X20081016Y-13081933D02*
X20090539Y-13072409D01*
X20090539Y-13072409D02*
X20109587Y-13043837D01*
X20109587Y-13043837D02*
X20119111Y-13024790D01*
X20119111Y-13024790D02*
X20128635Y-12996218D01*
X20128635Y-12996218D02*
X20138158Y-12948599D01*
X20138158Y-12948599D02*
X20138158Y-12910504D01*
X20138158Y-12910504D02*
X20128635Y-12862885D01*
X20128635Y-12862885D02*
X20119111Y-12834314D01*
X20119111Y-12834314D02*
X20109587Y-12815266D01*
X20109587Y-12815266D02*
X20090539Y-12786694D01*
X20090539Y-12786694D02*
X20081016Y-12777171D01*
M02*
