%TF.GenerationSoftware,KiCad,Pcbnew,7.0.11*%
%TF.CreationDate,2025-01-20T01:28:44+09:00*%
%TF.ProjectId,PSU,5053552e-6b69-4636-9164-5f7063625858,rev?*%
%TF.SameCoordinates,Original*%
%TF.FileFunction,Legend,Top*%
%TF.FilePolarity,Positive*%
%FSLAX46Y46*%
G04 Gerber Fmt 4.6, Leading zero omitted, Abs format (unit mm)*
G04 Created by KiCad (PCBNEW 7.0.11) date 2025-01-20 01:28:44*
%MOMM*%
%LPD*%
G01*
G04 APERTURE LIST*
%ADD10C,0.150000*%
%ADD11C,0.120000*%
%ADD12C,0.400000*%
G04 APERTURE END LIST*
D10*
X150871009Y-108447333D02*
X150871009Y-108780666D01*
X151394819Y-108780666D02*
X150394819Y-108780666D01*
X150394819Y-108780666D02*
X150394819Y-108304476D01*
X151394819Y-107399714D02*
X151394819Y-107971142D01*
X151394819Y-107685428D02*
X150394819Y-107685428D01*
X150394819Y-107685428D02*
X150537676Y-107780666D01*
X150537676Y-107780666D02*
X150632914Y-107875904D01*
X150632914Y-107875904D02*
X150680533Y-107971142D01*
D11*
%TO.C,Y1*%
X143640000Y-94370000D02*
X143640000Y-97170000D01*
X143640000Y-97170000D02*
X146940000Y-97170000D01*
%TO.C,C2*%
X139880000Y-95902164D02*
X139880000Y-96117836D01*
X139160000Y-95902164D02*
X139160000Y-96117836D01*
%TO.C,J4*%
X142748000Y-88138000D02*
X142748000Y-86868000D01*
X144018000Y-88138000D02*
X142748000Y-88138000D01*
X146178000Y-85825071D02*
X146178000Y-85428000D01*
X146938000Y-85825071D02*
X146938000Y-85428000D01*
X148718000Y-85825071D02*
X148718000Y-85428000D01*
X149478000Y-85825071D02*
X149478000Y-85428000D01*
X151258000Y-85825071D02*
X151258000Y-85428000D01*
X152018000Y-85825071D02*
X152018000Y-85428000D01*
X143638000Y-85758000D02*
X143638000Y-85428000D01*
X144398000Y-85758000D02*
X144398000Y-85428000D01*
X142688000Y-85428000D02*
X152968000Y-85428000D01*
X145288000Y-85428000D02*
X145288000Y-82768000D01*
X147828000Y-85428000D02*
X147828000Y-82768000D01*
X150368000Y-85428000D02*
X150368000Y-82768000D01*
X152968000Y-85428000D02*
X152968000Y-82768000D01*
X142688000Y-82768000D02*
X142688000Y-85428000D01*
X143638000Y-82768000D02*
X143638000Y-76768000D01*
X143698000Y-82768000D02*
X143698000Y-76768000D01*
X143818000Y-82768000D02*
X143818000Y-76768000D01*
X143938000Y-82768000D02*
X143938000Y-76768000D01*
X144058000Y-82768000D02*
X144058000Y-76768000D01*
X144178000Y-82768000D02*
X144178000Y-76768000D01*
X144298000Y-82768000D02*
X144298000Y-76768000D01*
X146178000Y-82768000D02*
X146178000Y-76768000D01*
X148718000Y-82768000D02*
X148718000Y-76768000D01*
X151258000Y-82768000D02*
X151258000Y-76768000D01*
X152968000Y-82768000D02*
X142688000Y-82768000D01*
X143638000Y-76768000D02*
X144398000Y-76768000D01*
X144398000Y-76768000D02*
X144398000Y-82768000D01*
X146178000Y-76768000D02*
X146938000Y-76768000D01*
X146938000Y-76768000D02*
X146938000Y-82768000D01*
X148718000Y-76768000D02*
X149478000Y-76768000D01*
X149478000Y-76768000D02*
X149478000Y-82768000D01*
X151258000Y-76768000D02*
X152018000Y-76768000D01*
X152018000Y-76768000D02*
X152018000Y-82768000D01*
%TO.C,C8*%
X147175836Y-104770000D02*
X146960164Y-104770000D01*
X147175836Y-104050000D02*
X146960164Y-104050000D01*
%TO.C,R12*%
X139446000Y-107339641D02*
X139446000Y-107032359D01*
X140206000Y-107339641D02*
X140206000Y-107032359D01*
%TO.C,R2*%
X142594359Y-96021500D02*
X142901641Y-96021500D01*
X142594359Y-96781500D02*
X142901641Y-96781500D01*
%TO.C,J1*%
X137826000Y-116232000D02*
X137826000Y-114532000D01*
X147166000Y-116232000D02*
X147166000Y-114532000D01*
%TO.C,R16*%
X160656000Y-102261641D02*
X160656000Y-101954359D01*
X161416000Y-102261641D02*
X161416000Y-101954359D01*
%TO.C,C7*%
X136546000Y-104783836D02*
X136546000Y-104568164D01*
X137266000Y-104783836D02*
X137266000Y-104568164D01*
%TO.C,J2*%
X136458000Y-107950000D02*
X136458000Y-90110000D01*
X136458000Y-107950000D02*
X133798000Y-107950000D01*
X136458000Y-90110000D02*
X133798000Y-90110000D01*
X135128000Y-110550000D02*
X133798000Y-110550000D01*
X133798000Y-110550000D02*
X133798000Y-109220000D01*
X133798000Y-107950000D02*
X133798000Y-90110000D01*
D12*
%TO.C,BT1*%
X160960000Y-119610000D02*
X164110000Y-119610000D01*
X164110000Y-119610000D02*
X166710000Y-116760000D01*
X158410000Y-116760000D02*
X160960000Y-119610000D01*
X166710000Y-116760000D02*
X166710000Y-103910000D01*
X158410000Y-103910000D02*
X158410000Y-116760000D01*
X166710000Y-103910000D02*
X158410000Y-103910000D01*
D11*
%TO.C,C11*%
X137941778Y-107081138D02*
X137941778Y-107296810D01*
X137221778Y-107081138D02*
X137221778Y-107296810D01*
%TO.C,SW2*%
X149984000Y-93598000D02*
X149984000Y-90298000D01*
X150284000Y-93598000D02*
X149984000Y-93598000D01*
X152484000Y-93598000D02*
X152784000Y-93598000D01*
X152784000Y-93598000D02*
X152784000Y-90298000D01*
X149984000Y-90298000D02*
X150284000Y-90298000D01*
X152784000Y-90298000D02*
X152484000Y-90298000D01*
%TO.C,C9*%
X141584000Y-95904164D02*
X141584000Y-96119836D01*
X140864000Y-95904164D02*
X140864000Y-96119836D01*
%TO.C,C4*%
X147840000Y-95882164D02*
X147840000Y-96097836D01*
X147120000Y-95882164D02*
X147120000Y-96097836D01*
%TO.C,R10*%
X138812000Y-110643641D02*
X138812000Y-110336359D01*
X139572000Y-110643641D02*
X139572000Y-110336359D01*
%TO.C,C6*%
X147173836Y-100944000D02*
X146958164Y-100944000D01*
X147173836Y-100224000D02*
X146958164Y-100224000D01*
%TO.C,SW1*%
X146682000Y-93598000D02*
X146682000Y-90298000D01*
X146982000Y-93598000D02*
X146682000Y-93598000D01*
X149182000Y-93598000D02*
X149482000Y-93598000D01*
X149482000Y-93598000D02*
X149482000Y-90298000D01*
X146682000Y-90298000D02*
X146982000Y-90298000D01*
X149482000Y-90298000D02*
X149182000Y-90298000D01*
D10*
%TO.C,RV2*%
X158354000Y-93854000D02*
X158354000Y-97154000D01*
X158354000Y-93854000D02*
X167354000Y-93854000D01*
X158354000Y-97154000D02*
X167354000Y-97154000D01*
X167354000Y-93854000D02*
X167354000Y-97154000D01*
D11*
%TO.C,U1*%
X150045000Y-111691000D02*
X150045000Y-111431000D01*
X150045000Y-111431000D02*
X151720000Y-111431000D01*
X150045000Y-106241000D02*
X150045000Y-106501000D01*
X147320000Y-111691000D02*
X150045000Y-111691000D01*
X147320000Y-111691000D02*
X144595000Y-111691000D01*
X147320000Y-106241000D02*
X150045000Y-106241000D01*
X147320000Y-106241000D02*
X144595000Y-106241000D01*
X144595000Y-111691000D02*
X144595000Y-111431000D01*
X144595000Y-106241000D02*
X144595000Y-106501000D01*
%TO.C,F1*%
X152190000Y-117464000D02*
X153540000Y-117464000D01*
X157690000Y-117464000D02*
X156340000Y-117464000D01*
X152190000Y-113464000D02*
X152190000Y-117464000D01*
X152190000Y-113464000D02*
X153540000Y-113464000D01*
X157690000Y-113464000D02*
X157690000Y-117464000D01*
X157690000Y-113464000D02*
X156340000Y-113464000D01*
X152190000Y-102764000D02*
X153940000Y-102764000D01*
X152440000Y-102764000D02*
X152440000Y-113464000D01*
X157440000Y-102764000D02*
X157440000Y-113464000D01*
X157690000Y-102764000D02*
X155940000Y-102764000D01*
X157690000Y-102764000D02*
X157690000Y-98764000D01*
X152190000Y-98764000D02*
X152190000Y-102764000D01*
X153940000Y-98764000D02*
X152190000Y-98764000D01*
X155940000Y-98764000D02*
X157690000Y-98764000D01*
%TO.C,R4*%
X142114000Y-92861641D02*
X142114000Y-92554359D01*
X142874000Y-92861641D02*
X142874000Y-92554359D01*
%TO.C,D2*%
X141959000Y-90173000D02*
X140489000Y-90173000D01*
X140489000Y-90173000D02*
X140489000Y-92633000D01*
X141959000Y-92633000D02*
X141959000Y-90173000D01*
%TO.C,R13*%
X140463000Y-107341641D02*
X140463000Y-107034359D01*
X141223000Y-107341641D02*
X141223000Y-107034359D01*
%TO.C,U3*%
X165454000Y-102935000D02*
X165454000Y-97735000D01*
X165454000Y-97735000D02*
X160154000Y-97735000D01*
X163804000Y-102935000D02*
X165454000Y-102935000D01*
X160154000Y-102935000D02*
X161804000Y-102935000D01*
X160154000Y-97735000D02*
X160154000Y-102935000D01*
X163804000Y-102935000D02*
G75*
G03*
X161804000Y-102935000I-1000000J0D01*
G01*
%TO.C,R5*%
X139574000Y-92861641D02*
X139574000Y-92554359D01*
X140334000Y-92861641D02*
X140334000Y-92554359D01*
%TO.C,J5*%
X154856000Y-84876000D02*
X155556000Y-84876000D01*
X154856000Y-87096000D02*
X166376000Y-87096000D01*
X155556000Y-82826000D02*
X155556000Y-84876000D01*
X155556000Y-82826000D02*
X156086000Y-82826000D01*
X156086000Y-76826000D02*
X156086000Y-82826000D01*
X156086000Y-76826000D02*
X165116000Y-76826000D01*
X165146000Y-76826000D02*
X165146000Y-82826000D01*
X165146000Y-82826000D02*
X165676000Y-82826000D01*
X165676000Y-82826000D02*
X165676000Y-84876000D01*
X165676000Y-84876000D02*
X166376000Y-84876000D01*
X154966000Y-84876001D02*
G75*
G03*
X154794271Y-87082634I1J-1109999D01*
G01*
X166266000Y-87096000D02*
G75*
G03*
X166266000Y-84876000I0J1110000D01*
G01*
%TO.C,R11*%
X137796000Y-110643641D02*
X137796000Y-110336359D01*
X138556000Y-110643641D02*
X138556000Y-110336359D01*
%TO.C,D1*%
X144499000Y-90173000D02*
X143029000Y-90173000D01*
X143029000Y-90173000D02*
X143029000Y-92633000D01*
X144499000Y-92633000D02*
X144499000Y-90173000D01*
%TO.C,J3*%
X168240000Y-92710000D02*
X168240000Y-110550000D01*
X168240000Y-92710000D02*
X170900000Y-92710000D01*
X168240000Y-110550000D02*
X170900000Y-110550000D01*
X169570000Y-90110000D02*
X170900000Y-90110000D01*
X170900000Y-90110000D02*
X170900000Y-91440000D01*
X170900000Y-92710000D02*
X170900000Y-110550000D01*
%TO.C,R9*%
X146914359Y-102236000D02*
X147221641Y-102236000D01*
X146914359Y-102996000D02*
X147221641Y-102996000D01*
%TO.C,R15*%
X161699641Y-99440000D02*
X161392359Y-99440000D01*
X161699641Y-98680000D02*
X161392359Y-98680000D01*
%TO.C,C5*%
X142668164Y-94890000D02*
X142883836Y-94890000D01*
X142668164Y-95610000D02*
X142883836Y-95610000D01*
%TO.C,R1*%
X151850000Y-104196359D02*
X151850000Y-104503641D01*
X151090000Y-104196359D02*
X151090000Y-104503641D01*
%TO.C,D3*%
X139419000Y-90173000D02*
X137949000Y-90173000D01*
X137949000Y-90173000D02*
X137949000Y-92633000D01*
X139419000Y-92633000D02*
X139419000Y-90173000D01*
D10*
%TO.C,RV1*%
X151510000Y-111578000D02*
X148210000Y-111578000D01*
X151510000Y-111578000D02*
X151510000Y-120578000D01*
X148210000Y-111578000D02*
X148210000Y-120578000D01*
X151510000Y-120578000D02*
X148210000Y-120578000D01*
D11*
%TO.C,R14*%
X163930359Y-98680000D02*
X164237641Y-98680000D01*
X163930359Y-99440000D02*
X164237641Y-99440000D01*
%TO.C,U2*%
X145088000Y-97990000D02*
X145088000Y-98640000D01*
X144438000Y-105210000D02*
X145088000Y-105210000D01*
X144438000Y-97990000D02*
X145088000Y-97990000D01*
X138518000Y-105210000D02*
X137868000Y-105210000D01*
X138518000Y-97990000D02*
X137868000Y-97990000D01*
X137868000Y-105210000D02*
X137868000Y-104560000D01*
X137868000Y-97990000D02*
X137868000Y-98640000D01*
%TO.C,R3*%
X144654000Y-92861641D02*
X144654000Y-92554359D01*
X145414000Y-92861641D02*
X145414000Y-92554359D01*
%TO.C,R8*%
X147219641Y-101980000D02*
X146912359Y-101980000D01*
X147219641Y-101220000D02*
X146912359Y-101220000D01*
%TO.C,J6*%
X138878000Y-83506000D02*
X140208000Y-83506000D01*
X138878000Y-84836000D02*
X138878000Y-83506000D01*
X138878000Y-86106000D02*
X138878000Y-88706000D01*
X138878000Y-86106000D02*
X141538000Y-86106000D01*
X138878000Y-88706000D02*
X141538000Y-88706000D01*
X141538000Y-86106000D02*
X141538000Y-88706000D01*
%TO.C,C1*%
X138324000Y-107295836D02*
X138324000Y-107080164D01*
X139044000Y-107295836D02*
X139044000Y-107080164D01*
%TD*%
M02*
