%TF.GenerationSoftware,KiCad,Pcbnew,7.0.11*%
%TF.CreationDate,2025-01-20T01:28:46+09:00*%
%TF.ProjectId,PSU,5053552e-6b69-4636-9164-5f7063625858,rev?*%
%TF.SameCoordinates,Original*%
%TF.FileFunction,Drillmap*%
%TF.FilePolarity,Positive*%
%FSLAX45Y45*%
G04 Gerber Fmt 4.5, Leading zero omitted, Abs format (unit mm)*
G04 Created by KiCad (PCBNEW 7.0.11) date 2025-01-20 01:28:46*
%MOMM*%
%LPD*%
G01*
G04 APERTURE LIST*
%ADD10C,0.200000*%
%ADD11C,0.100000*%
%ADD12C,0.130000*%
%ADD13C,0.190000*%
%ADD14C,0.450000*%
G04 APERTURE END LIST*
D10*
X13817843Y-8280160D02*
G75*
G03*
X13676421Y-8338736I-3J-200000D01*
G01*
X13676421Y-8338736D02*
X13393579Y-8621579D01*
X17045000Y-11800258D02*
G75*
G03*
X16825000Y-11800258I-110000J0D01*
G01*
X16825000Y-11800258D02*
G75*
G03*
X17045000Y-11800258I110000J0D01*
G01*
X17135000Y-8763000D02*
G75*
G03*
X17076421Y-8621579I-200000J0D01*
G01*
X13335002Y-11800258D02*
G75*
G03*
X13535000Y-12000258I199998J-2D01*
G01*
X17045000Y-8763000D02*
G75*
G03*
X16825000Y-8763000I-110000J0D01*
G01*
X16825000Y-8763000D02*
G75*
G03*
X17045000Y-8763000I110000J0D01*
G01*
X13645000Y-8763000D02*
G75*
G03*
X13425000Y-8763000I-110000J0D01*
G01*
X13425000Y-8763000D02*
G75*
G03*
X13645000Y-8763000I110000J0D01*
G01*
X16652157Y-8280157D02*
X13817843Y-8280157D01*
X17135000Y-11800258D02*
X17135000Y-8763000D01*
X16935000Y-12000260D02*
G75*
G03*
X17135000Y-11800258I0J200000D01*
G01*
X16793581Y-8338734D02*
G75*
G03*
X16652157Y-8280157I-141421J-141426D01*
G01*
X13645000Y-11800258D02*
G75*
G03*
X13425000Y-11800258I-110000J0D01*
G01*
X13425000Y-11800258D02*
G75*
G03*
X13645000Y-11800258I110000J0D01*
G01*
X17076421Y-8621579D02*
X16793579Y-8338736D01*
X13335000Y-8763000D02*
X13335000Y-11800258D01*
X13393579Y-8621579D02*
G75*
G03*
X13335000Y-8763000I141421J-141421D01*
G01*
X13535000Y-12000258D02*
X16935000Y-12000258D01*
D11*
X13366000Y-8996000D02*
X13406000Y-9036000D01*
X13406000Y-8996000D02*
X13366000Y-9036000D01*
X13442000Y-11332000D02*
X13482000Y-11372000D01*
X13482000Y-11332000D02*
X13442000Y-11372000D01*
X13669929Y-10210000D02*
X13709929Y-10250000D01*
X13709929Y-10210000D02*
X13669929Y-10250000D01*
X13677000Y-10884000D02*
X13717000Y-10924000D01*
X13717000Y-10884000D02*
X13677000Y-10924000D01*
X13742000Y-8424000D02*
X13782000Y-8464000D01*
X13782000Y-8424000D02*
X13742000Y-8464000D01*
X13772200Y-10470200D02*
X13812200Y-10510200D01*
X13812200Y-10470200D02*
X13772200Y-10510200D01*
X13800000Y-8771000D02*
X13840000Y-8811000D01*
X13840000Y-8771000D02*
X13800000Y-8811000D01*
X13848000Y-10867000D02*
X13888000Y-10907000D01*
X13888000Y-10867000D02*
X13848000Y-10907000D01*
X13974000Y-8996000D02*
X14014000Y-9036000D01*
X14014000Y-8996000D02*
X13974000Y-9036000D01*
X13988000Y-11719000D02*
X14028000Y-11759000D01*
X14028000Y-11719000D02*
X13988000Y-11759000D01*
X14007000Y-11412000D02*
X14047000Y-11452000D01*
X14047000Y-11412000D02*
X14007000Y-11452000D01*
X14017080Y-9580790D02*
X14057080Y-9620790D01*
X14057080Y-9580790D02*
X14017080Y-9620790D01*
X14127000Y-10021000D02*
X14167000Y-10061000D01*
X14167000Y-10021000D02*
X14127000Y-10061000D01*
X14164000Y-9529000D02*
X14204000Y-9569000D01*
X14204000Y-9529000D02*
X14164000Y-9569000D01*
X14184000Y-8642000D02*
X14224000Y-8682000D01*
X14224000Y-8642000D02*
X14184000Y-8682000D01*
X14212000Y-8335000D02*
X14252000Y-8375000D01*
X14252000Y-8335000D02*
X14212000Y-8375000D01*
X14353000Y-9940000D02*
X14393000Y-9980000D01*
X14393000Y-9940000D02*
X14353000Y-9980000D01*
X14406000Y-9516000D02*
X14446000Y-9556000D01*
X14446000Y-9516000D02*
X14406000Y-9556000D01*
X14487000Y-9791000D02*
X14527000Y-9831000D01*
X14527000Y-9791000D02*
X14487000Y-9831000D01*
X14491000Y-11712000D02*
X14531000Y-11752000D01*
X14531000Y-11712000D02*
X14491000Y-11752000D01*
X14510000Y-11438000D02*
X14550000Y-11478000D01*
X14550000Y-11438000D02*
X14510000Y-11478000D01*
X14566000Y-9625000D02*
X14606000Y-9665000D01*
X14606000Y-9625000D02*
X14566000Y-9665000D01*
X14584000Y-9336000D02*
X14624000Y-9376000D01*
X14624000Y-9336000D02*
X14584000Y-9376000D01*
X14635800Y-10775000D02*
X14675800Y-10815000D01*
X14675800Y-10775000D02*
X14635800Y-10815000D01*
X14662000Y-11104000D02*
X14702000Y-11144000D01*
X14702000Y-11104000D02*
X14662000Y-11144000D01*
X14754000Y-10927000D02*
X14794000Y-10967000D01*
X14794000Y-10927000D02*
X14754000Y-10967000D01*
X14786000Y-10671000D02*
X14826000Y-10711000D01*
X14826000Y-10671000D02*
X14786000Y-10711000D01*
X14809000Y-11365000D02*
X14849000Y-11405000D01*
X14849000Y-11365000D02*
X14809000Y-11405000D01*
X14839000Y-10038400D02*
X14879000Y-10078400D01*
X14879000Y-10038400D02*
X14839000Y-10078400D01*
X14839000Y-10140000D02*
X14879000Y-10180000D01*
X14879000Y-10140000D02*
X14839000Y-10180000D01*
X14839000Y-10241600D02*
X14879000Y-10281600D01*
X14879000Y-10241600D02*
X14839000Y-10281600D01*
X14974000Y-11587000D02*
X15014000Y-11627000D01*
X15014000Y-11587000D02*
X14974000Y-11627000D01*
X15050000Y-8816000D02*
X15090000Y-8856000D01*
X15090000Y-8816000D02*
X15050000Y-8856000D01*
X15060616Y-10241871D02*
X15100616Y-10281871D01*
X15100616Y-10241871D02*
X15060616Y-10281871D01*
X15144000Y-11903000D02*
X15184000Y-11943000D01*
X15184000Y-11903000D02*
X15144000Y-11943000D01*
X15205000Y-11221000D02*
X15245000Y-11261000D01*
X15245000Y-11221000D02*
X15205000Y-11261000D01*
X15224000Y-8819000D02*
X15264000Y-8859000D01*
X15264000Y-8819000D02*
X15224000Y-8859000D01*
X15231000Y-10207000D02*
X15271000Y-10247000D01*
X15271000Y-10207000D02*
X15231000Y-10247000D01*
X15232000Y-10072000D02*
X15272000Y-10112000D01*
X15272000Y-10072000D02*
X15232000Y-10112000D01*
X15338000Y-11004000D02*
X15378000Y-11044000D01*
X15378000Y-11004000D02*
X15338000Y-11044000D01*
X15356000Y-10779000D02*
X15396000Y-10819000D01*
X15396000Y-10779000D02*
X15356000Y-10819000D01*
X15410000Y-8359000D02*
X15450000Y-8399000D01*
X15450000Y-8359000D02*
X15410000Y-8399000D01*
X15478000Y-11530000D02*
X15518000Y-11570000D01*
X15518000Y-11530000D02*
X15478000Y-11570000D01*
X15480000Y-8774000D02*
X15520000Y-8814000D01*
X15520000Y-8774000D02*
X15480000Y-8814000D01*
X15674000Y-10510000D02*
X15714000Y-10550000D01*
X15714000Y-10510000D02*
X15674000Y-10550000D01*
X15746000Y-11331000D02*
X15786000Y-11371000D01*
X15786000Y-11331000D02*
X15746000Y-11371000D01*
X15754000Y-11719000D02*
X15794000Y-11759000D01*
X15794000Y-11719000D02*
X15754000Y-11759000D01*
X15825000Y-9690000D02*
X15865000Y-9730000D01*
X15865000Y-9690000D02*
X15825000Y-9730000D01*
X15845000Y-10974000D02*
X15885000Y-11014000D01*
X15885000Y-10974000D02*
X15845000Y-11014000D01*
X16087000Y-8840000D02*
X16127000Y-8880000D01*
X16127000Y-8840000D02*
X16087000Y-8880000D01*
X16186000Y-10382000D02*
X16226000Y-10422000D01*
X16226000Y-10382000D02*
X16186000Y-10422000D01*
X16194000Y-11925000D02*
X16234000Y-11965000D01*
X16234000Y-11925000D02*
X16194000Y-11965000D01*
X16339000Y-9722000D02*
X16379000Y-9762000D01*
X16379000Y-9722000D02*
X16339000Y-9762000D01*
X16395000Y-10020000D02*
X16435000Y-10060000D01*
X16435000Y-10020000D02*
X16395000Y-10060000D01*
X16591000Y-11892000D02*
X16631000Y-11932000D01*
X16631000Y-11892000D02*
X16591000Y-11932000D01*
X16640000Y-9245000D02*
X16680000Y-9285000D01*
X16680000Y-9245000D02*
X16640000Y-9285000D01*
X16682000Y-8385000D02*
X16722000Y-8425000D01*
X16722000Y-8385000D02*
X16682000Y-8425000D01*
X16732000Y-10334000D02*
X16772000Y-10374000D01*
X16772000Y-10334000D02*
X16732000Y-10374000D01*
X16784000Y-9756000D02*
X16824000Y-9796000D01*
X16824000Y-9756000D02*
X16784000Y-9796000D01*
X16903000Y-11311000D02*
X16943000Y-11351000D01*
X16943000Y-11311000D02*
X16903000Y-11351000D01*
X13847600Y-11322700D02*
G75*
G03*
X13787600Y-11322700I-30000J0D01*
G01*
X13787600Y-11322700D02*
G75*
G03*
X13847600Y-11322700I30000J0D01*
G01*
X13787600Y-11267700D02*
X13787600Y-11377700D01*
X13787600Y-11377700D02*
G75*
G03*
X13847600Y-11377700I30000J0D01*
G01*
X13847600Y-11377700D02*
X13847600Y-11267700D01*
X13847600Y-11267700D02*
G75*
G03*
X13787600Y-11267700I-30000J0D01*
G01*
X13847600Y-11740700D02*
G75*
G03*
X13787600Y-11740700I-30000J0D01*
G01*
X13787600Y-11740700D02*
G75*
G03*
X13847600Y-11740700I30000J0D01*
G01*
X13787600Y-11700700D02*
X13787600Y-11780700D01*
X13787600Y-11780700D02*
G75*
G03*
X13847600Y-11780700I30000J0D01*
G01*
X13847600Y-11780700D02*
X13847600Y-11700700D01*
X13847600Y-11700700D02*
G75*
G03*
X13787600Y-11700700I-30000J0D01*
G01*
X14711600Y-11322700D02*
G75*
G03*
X14651600Y-11322700I-30000J0D01*
G01*
X14651600Y-11322700D02*
G75*
G03*
X14711600Y-11322700I30000J0D01*
G01*
X14651600Y-11267700D02*
X14651600Y-11377700D01*
X14651600Y-11377700D02*
G75*
G03*
X14711600Y-11377700I30000J0D01*
G01*
X14711600Y-11377700D02*
X14711600Y-11267700D01*
X14711600Y-11267700D02*
G75*
G03*
X14651600Y-11267700I-30000J0D01*
G01*
X14711600Y-11740700D02*
G75*
G03*
X14651600Y-11740700I-30000J0D01*
G01*
X14651600Y-11740700D02*
G75*
G03*
X14711600Y-11740700I30000J0D01*
G01*
X14651600Y-11700700D02*
X14651600Y-11780700D01*
X14651600Y-11780700D02*
G75*
G03*
X14711600Y-11780700I30000J0D01*
G01*
X14711600Y-11780700D02*
X14711600Y-11700700D01*
X14711600Y-11700700D02*
G75*
G03*
X14651600Y-11700700I-30000J0D01*
G01*
X14956000Y-11857800D02*
G75*
G03*
X14896000Y-11857800I-30000J0D01*
G01*
X14896000Y-11857800D02*
G75*
G03*
X14956000Y-11857800I30000J0D01*
G01*
X15076000Y-11357800D02*
G75*
G03*
X15016000Y-11357800I-30000J0D01*
G01*
X15016000Y-11357800D02*
G75*
G03*
X15076000Y-11357800I30000J0D01*
G01*
X16065400Y-9490400D02*
G75*
G03*
X16005400Y-9490400I-30000J0D01*
G01*
X16005400Y-9490400D02*
G75*
G03*
X16065400Y-9490400I30000J0D01*
G01*
X16565400Y-9610400D02*
G75*
G03*
X16505400Y-9610400I-30000J0D01*
G01*
X16505400Y-9610400D02*
G75*
G03*
X16565400Y-9610400I30000J0D01*
G01*
X15899400Y-9866500D02*
X15899400Y-9946500D01*
X15859400Y-9906500D02*
X15939400Y-9906500D01*
X15899400Y-10120500D02*
X15899400Y-10200500D01*
X15859400Y-10160500D02*
X15939400Y-10160500D01*
X16661400Y-9866500D02*
X16661400Y-9946500D01*
X16621400Y-9906500D02*
X16701400Y-9906500D01*
X16661400Y-10120500D02*
X16661400Y-10200500D01*
X16621400Y-10160500D02*
X16701400Y-10160500D01*
X13548156Y-9179356D02*
X13548156Y-9108644D01*
X13477444Y-9108644D01*
X13477444Y-9179356D01*
X13548156Y-9179356D01*
X13548156Y-9433356D02*
X13548156Y-9362644D01*
X13477444Y-9362644D01*
X13477444Y-9433356D01*
X13548156Y-9433356D01*
X13548156Y-9687356D02*
X13548156Y-9616644D01*
X13477444Y-9616644D01*
X13477444Y-9687356D01*
X13548156Y-9687356D01*
X13548156Y-9941356D02*
X13548156Y-9870644D01*
X13477444Y-9870644D01*
X13477444Y-9941356D01*
X13548156Y-9941356D01*
X13548156Y-10195356D02*
X13548156Y-10124644D01*
X13477444Y-10124644D01*
X13477444Y-10195356D01*
X13548156Y-10195356D01*
X13548156Y-10449356D02*
X13548156Y-10378644D01*
X13477444Y-10378644D01*
X13477444Y-10449356D01*
X13548156Y-10449356D01*
X13548156Y-10703356D02*
X13548156Y-10632644D01*
X13477444Y-10632644D01*
X13477444Y-10703356D01*
X13548156Y-10703356D01*
X13548156Y-10957356D02*
X13548156Y-10886644D01*
X13477444Y-10886644D01*
X13477444Y-10957356D01*
X13548156Y-10957356D01*
X14056156Y-8518956D02*
X14056156Y-8448244D01*
X13985444Y-8448244D01*
X13985444Y-8518956D01*
X14056156Y-8518956D01*
X14056156Y-8772956D02*
X14056156Y-8702244D01*
X13985444Y-8702244D01*
X13985444Y-8772956D01*
X14056156Y-8772956D01*
X14437156Y-8722156D02*
X14437156Y-8651444D01*
X14366444Y-8651444D01*
X14366444Y-8722156D01*
X14437156Y-8722156D01*
X14691156Y-8722156D02*
X14691156Y-8651444D01*
X14620444Y-8651444D01*
X14620444Y-8722156D01*
X14691156Y-8722156D01*
X14945156Y-8722156D02*
X14945156Y-8651444D01*
X14874444Y-8651444D01*
X14874444Y-8722156D01*
X14945156Y-8722156D01*
X15199156Y-8722156D02*
X15199156Y-8651444D01*
X15128444Y-8651444D01*
X15128444Y-8722156D01*
X15199156Y-8722156D01*
X15546956Y-8633956D02*
X15546956Y-8563244D01*
X15476244Y-8563244D01*
X15476244Y-8633956D01*
X15546956Y-8633956D01*
X16646956Y-8633956D02*
X16646956Y-8563244D01*
X16576244Y-8563244D01*
X16576244Y-8633956D01*
X16646956Y-8633956D01*
X16992356Y-9179356D02*
X16992356Y-9108644D01*
X16921644Y-9108644D01*
X16921644Y-9179356D01*
X16992356Y-9179356D01*
X16992356Y-9433356D02*
X16992356Y-9362644D01*
X16921644Y-9362644D01*
X16921644Y-9433356D01*
X16992356Y-9433356D01*
X16992356Y-9687356D02*
X16992356Y-9616644D01*
X16921644Y-9616644D01*
X16921644Y-9687356D01*
X16992356Y-9687356D01*
X16992356Y-9941356D02*
X16992356Y-9870644D01*
X16921644Y-9870644D01*
X16921644Y-9941356D01*
X16992356Y-9941356D01*
X16992356Y-10195356D02*
X16992356Y-10124644D01*
X16921644Y-10124644D01*
X16921644Y-10195356D01*
X16992356Y-10195356D01*
X16992356Y-10449356D02*
X16992356Y-10378644D01*
X16921644Y-10378644D01*
X16921644Y-10449356D01*
X16992356Y-10449356D01*
X16992356Y-10703356D02*
X16992356Y-10632644D01*
X16921644Y-10632644D01*
X16921644Y-10703356D01*
X16992356Y-10703356D01*
X16992356Y-10957356D02*
X16992356Y-10886644D01*
X16921644Y-10886644D01*
X16921644Y-10957356D01*
X16992356Y-10957356D01*
D12*
X15494000Y-9851400D02*
X15559000Y-9786400D01*
X15494000Y-9721400D01*
X15429000Y-9786400D01*
X15494000Y-9851400D01*
X15494000Y-10431400D02*
X15559000Y-10366400D01*
X15494000Y-10301400D01*
X15429000Y-10366400D01*
X15494000Y-10431400D01*
X15494000Y-11321400D02*
X15559000Y-11256400D01*
X15494000Y-11191400D01*
X15429000Y-11256400D01*
X15494000Y-11321400D01*
X15494000Y-11901400D02*
X15559000Y-11836400D01*
X15494000Y-11771400D01*
X15429000Y-11836400D01*
X15494000Y-11901400D01*
D13*
X15716600Y-9003600D02*
X15906600Y-9193600D01*
X15906600Y-9003600D02*
X15716600Y-9193600D01*
X15906600Y-9098600D02*
G75*
G03*
X15716600Y-9098600I-95000J0D01*
G01*
X15716600Y-9098600D02*
G75*
G03*
X15906600Y-9098600I95000J0D01*
G01*
X16216600Y-9003600D02*
X16406600Y-9193600D01*
X16406600Y-9003600D02*
X16216600Y-9193600D01*
X16406600Y-9098600D02*
G75*
G03*
X16216600Y-9098600I-95000J0D01*
G01*
X16216600Y-9098600D02*
G75*
G03*
X16406600Y-9098600I95000J0D01*
G01*
D14*
X16031000Y-10591000D02*
X16481000Y-11041000D01*
X16481000Y-10591000D02*
X16031000Y-11041000D01*
X16256000Y-10591000D02*
X16256000Y-11041000D01*
X16031000Y-10816000D02*
X16481000Y-10816000D01*
X16031000Y-11311000D02*
X16481000Y-11761000D01*
X16481000Y-11311000D02*
X16031000Y-11761000D01*
X16256000Y-11311000D02*
X16256000Y-11761000D01*
X16031000Y-11536000D02*
X16481000Y-11536000D01*
D10*
X13585777Y-12321742D02*
X13585777Y-12121742D01*
X13585777Y-12121742D02*
X13633396Y-12121742D01*
X13633396Y-12121742D02*
X13661967Y-12131266D01*
X13661967Y-12131266D02*
X13681015Y-12150314D01*
X13681015Y-12150314D02*
X13690539Y-12169361D01*
X13690539Y-12169361D02*
X13700062Y-12207456D01*
X13700062Y-12207456D02*
X13700062Y-12236028D01*
X13700062Y-12236028D02*
X13690539Y-12274123D01*
X13690539Y-12274123D02*
X13681015Y-12293171D01*
X13681015Y-12293171D02*
X13661967Y-12312218D01*
X13661967Y-12312218D02*
X13633396Y-12321742D01*
X13633396Y-12321742D02*
X13585777Y-12321742D01*
X13785777Y-12321742D02*
X13785777Y-12188409D01*
X13785777Y-12226504D02*
X13795301Y-12207456D01*
X13795301Y-12207456D02*
X13804824Y-12197933D01*
X13804824Y-12197933D02*
X13823872Y-12188409D01*
X13823872Y-12188409D02*
X13842920Y-12188409D01*
X13909586Y-12321742D02*
X13909586Y-12188409D01*
X13909586Y-12121742D02*
X13900062Y-12131266D01*
X13900062Y-12131266D02*
X13909586Y-12140790D01*
X13909586Y-12140790D02*
X13919110Y-12131266D01*
X13919110Y-12131266D02*
X13909586Y-12121742D01*
X13909586Y-12121742D02*
X13909586Y-12140790D01*
X14033396Y-12321742D02*
X14014348Y-12312218D01*
X14014348Y-12312218D02*
X14004824Y-12293171D01*
X14004824Y-12293171D02*
X14004824Y-12121742D01*
X14138158Y-12321742D02*
X14119110Y-12312218D01*
X14119110Y-12312218D02*
X14109586Y-12293171D01*
X14109586Y-12293171D02*
X14109586Y-12121742D01*
X14366729Y-12321742D02*
X14366729Y-12121742D01*
X14366729Y-12121742D02*
X14433396Y-12264599D01*
X14433396Y-12264599D02*
X14500062Y-12121742D01*
X14500062Y-12121742D02*
X14500062Y-12321742D01*
X14681015Y-12321742D02*
X14681015Y-12216980D01*
X14681015Y-12216980D02*
X14671491Y-12197933D01*
X14671491Y-12197933D02*
X14652443Y-12188409D01*
X14652443Y-12188409D02*
X14614348Y-12188409D01*
X14614348Y-12188409D02*
X14595301Y-12197933D01*
X14681015Y-12312218D02*
X14661967Y-12321742D01*
X14661967Y-12321742D02*
X14614348Y-12321742D01*
X14614348Y-12321742D02*
X14595301Y-12312218D01*
X14595301Y-12312218D02*
X14585777Y-12293171D01*
X14585777Y-12293171D02*
X14585777Y-12274123D01*
X14585777Y-12274123D02*
X14595301Y-12255075D01*
X14595301Y-12255075D02*
X14614348Y-12245552D01*
X14614348Y-12245552D02*
X14661967Y-12245552D01*
X14661967Y-12245552D02*
X14681015Y-12236028D01*
X14776253Y-12188409D02*
X14776253Y-12388409D01*
X14776253Y-12197933D02*
X14795301Y-12188409D01*
X14795301Y-12188409D02*
X14833396Y-12188409D01*
X14833396Y-12188409D02*
X14852443Y-12197933D01*
X14852443Y-12197933D02*
X14861967Y-12207456D01*
X14861967Y-12207456D02*
X14871491Y-12226504D01*
X14871491Y-12226504D02*
X14871491Y-12283647D01*
X14871491Y-12283647D02*
X14861967Y-12302694D01*
X14861967Y-12302694D02*
X14852443Y-12312218D01*
X14852443Y-12312218D02*
X14833396Y-12321742D01*
X14833396Y-12321742D02*
X14795301Y-12321742D01*
X14795301Y-12321742D02*
X14776253Y-12312218D01*
X14957205Y-12302694D02*
X14966729Y-12312218D01*
X14966729Y-12312218D02*
X14957205Y-12321742D01*
X14957205Y-12321742D02*
X14947682Y-12312218D01*
X14947682Y-12312218D02*
X14957205Y-12302694D01*
X14957205Y-12302694D02*
X14957205Y-12321742D01*
X14957205Y-12197933D02*
X14966729Y-12207456D01*
X14966729Y-12207456D02*
X14957205Y-12216980D01*
X14957205Y-12216980D02*
X14947682Y-12207456D01*
X14947682Y-12207456D02*
X14957205Y-12197933D01*
X14957205Y-12197933D02*
X14957205Y-12216980D01*
D11*
X13285000Y-12630258D02*
X13325000Y-12670258D01*
X13325000Y-12630258D02*
X13285000Y-12670258D01*
D10*
X13623872Y-12541742D02*
X13642920Y-12541742D01*
X13642920Y-12541742D02*
X13661967Y-12551266D01*
X13661967Y-12551266D02*
X13671491Y-12560790D01*
X13671491Y-12560790D02*
X13681015Y-12579837D01*
X13681015Y-12579837D02*
X13690539Y-12617933D01*
X13690539Y-12617933D02*
X13690539Y-12665552D01*
X13690539Y-12665552D02*
X13681015Y-12703647D01*
X13681015Y-12703647D02*
X13671491Y-12722694D01*
X13671491Y-12722694D02*
X13661967Y-12732218D01*
X13661967Y-12732218D02*
X13642920Y-12741742D01*
X13642920Y-12741742D02*
X13623872Y-12741742D01*
X13623872Y-12741742D02*
X13604824Y-12732218D01*
X13604824Y-12732218D02*
X13595301Y-12722694D01*
X13595301Y-12722694D02*
X13585777Y-12703647D01*
X13585777Y-12703647D02*
X13576253Y-12665552D01*
X13576253Y-12665552D02*
X13576253Y-12617933D01*
X13576253Y-12617933D02*
X13585777Y-12579837D01*
X13585777Y-12579837D02*
X13595301Y-12560790D01*
X13595301Y-12560790D02*
X13604824Y-12551266D01*
X13604824Y-12551266D02*
X13623872Y-12541742D01*
X13776253Y-12722694D02*
X13785777Y-12732218D01*
X13785777Y-12732218D02*
X13776253Y-12741742D01*
X13776253Y-12741742D02*
X13766729Y-12732218D01*
X13766729Y-12732218D02*
X13776253Y-12722694D01*
X13776253Y-12722694D02*
X13776253Y-12741742D01*
X13957205Y-12608409D02*
X13957205Y-12741742D01*
X13909586Y-12532218D02*
X13861967Y-12675075D01*
X13861967Y-12675075D02*
X13985777Y-12675075D01*
X14100062Y-12541742D02*
X14119110Y-12541742D01*
X14119110Y-12541742D02*
X14138158Y-12551266D01*
X14138158Y-12551266D02*
X14147682Y-12560790D01*
X14147682Y-12560790D02*
X14157205Y-12579837D01*
X14157205Y-12579837D02*
X14166729Y-12617933D01*
X14166729Y-12617933D02*
X14166729Y-12665552D01*
X14166729Y-12665552D02*
X14157205Y-12703647D01*
X14157205Y-12703647D02*
X14147682Y-12722694D01*
X14147682Y-12722694D02*
X14138158Y-12732218D01*
X14138158Y-12732218D02*
X14119110Y-12741742D01*
X14119110Y-12741742D02*
X14100062Y-12741742D01*
X14100062Y-12741742D02*
X14081015Y-12732218D01*
X14081015Y-12732218D02*
X14071491Y-12722694D01*
X14071491Y-12722694D02*
X14061967Y-12703647D01*
X14061967Y-12703647D02*
X14052443Y-12665552D01*
X14052443Y-12665552D02*
X14052443Y-12617933D01*
X14052443Y-12617933D02*
X14061967Y-12579837D01*
X14061967Y-12579837D02*
X14071491Y-12560790D01*
X14071491Y-12560790D02*
X14081015Y-12551266D01*
X14081015Y-12551266D02*
X14100062Y-12541742D01*
X14290539Y-12541742D02*
X14309586Y-12541742D01*
X14309586Y-12541742D02*
X14328634Y-12551266D01*
X14328634Y-12551266D02*
X14338158Y-12560790D01*
X14338158Y-12560790D02*
X14347682Y-12579837D01*
X14347682Y-12579837D02*
X14357205Y-12617933D01*
X14357205Y-12617933D02*
X14357205Y-12665552D01*
X14357205Y-12665552D02*
X14347682Y-12703647D01*
X14347682Y-12703647D02*
X14338158Y-12722694D01*
X14338158Y-12722694D02*
X14328634Y-12732218D01*
X14328634Y-12732218D02*
X14309586Y-12741742D01*
X14309586Y-12741742D02*
X14290539Y-12741742D01*
X14290539Y-12741742D02*
X14271491Y-12732218D01*
X14271491Y-12732218D02*
X14261967Y-12722694D01*
X14261967Y-12722694D02*
X14252443Y-12703647D01*
X14252443Y-12703647D02*
X14242920Y-12665552D01*
X14242920Y-12665552D02*
X14242920Y-12617933D01*
X14242920Y-12617933D02*
X14252443Y-12579837D01*
X14252443Y-12579837D02*
X14261967Y-12560790D01*
X14261967Y-12560790D02*
X14271491Y-12551266D01*
X14271491Y-12551266D02*
X14290539Y-12541742D01*
X14442920Y-12741742D02*
X14442920Y-12608409D01*
X14442920Y-12627456D02*
X14452443Y-12617933D01*
X14452443Y-12617933D02*
X14471491Y-12608409D01*
X14471491Y-12608409D02*
X14500063Y-12608409D01*
X14500063Y-12608409D02*
X14519110Y-12617933D01*
X14519110Y-12617933D02*
X14528634Y-12636980D01*
X14528634Y-12636980D02*
X14528634Y-12741742D01*
X14528634Y-12636980D02*
X14538158Y-12617933D01*
X14538158Y-12617933D02*
X14557205Y-12608409D01*
X14557205Y-12608409D02*
X14585777Y-12608409D01*
X14585777Y-12608409D02*
X14604824Y-12617933D01*
X14604824Y-12617933D02*
X14614348Y-12636980D01*
X14614348Y-12636980D02*
X14614348Y-12741742D01*
X14709586Y-12741742D02*
X14709586Y-12608409D01*
X14709586Y-12627456D02*
X14719110Y-12617933D01*
X14719110Y-12617933D02*
X14738158Y-12608409D01*
X14738158Y-12608409D02*
X14766729Y-12608409D01*
X14766729Y-12608409D02*
X14785777Y-12617933D01*
X14785777Y-12617933D02*
X14795301Y-12636980D01*
X14795301Y-12636980D02*
X14795301Y-12741742D01*
X14795301Y-12636980D02*
X14804824Y-12617933D01*
X14804824Y-12617933D02*
X14823872Y-12608409D01*
X14823872Y-12608409D02*
X14852443Y-12608409D01*
X14852443Y-12608409D02*
X14871491Y-12617933D01*
X14871491Y-12617933D02*
X14881015Y-12636980D01*
X14881015Y-12636980D02*
X14881015Y-12741742D01*
X15271491Y-12532218D02*
X15100063Y-12789361D01*
X15528634Y-12541742D02*
X15547682Y-12541742D01*
X15547682Y-12541742D02*
X15566729Y-12551266D01*
X15566729Y-12551266D02*
X15576253Y-12560790D01*
X15576253Y-12560790D02*
X15585777Y-12579837D01*
X15585777Y-12579837D02*
X15595301Y-12617933D01*
X15595301Y-12617933D02*
X15595301Y-12665552D01*
X15595301Y-12665552D02*
X15585777Y-12703647D01*
X15585777Y-12703647D02*
X15576253Y-12722694D01*
X15576253Y-12722694D02*
X15566729Y-12732218D01*
X15566729Y-12732218D02*
X15547682Y-12741742D01*
X15547682Y-12741742D02*
X15528634Y-12741742D01*
X15528634Y-12741742D02*
X15509586Y-12732218D01*
X15509586Y-12732218D02*
X15500063Y-12722694D01*
X15500063Y-12722694D02*
X15490539Y-12703647D01*
X15490539Y-12703647D02*
X15481015Y-12665552D01*
X15481015Y-12665552D02*
X15481015Y-12617933D01*
X15481015Y-12617933D02*
X15490539Y-12579837D01*
X15490539Y-12579837D02*
X15500063Y-12560790D01*
X15500063Y-12560790D02*
X15509586Y-12551266D01*
X15509586Y-12551266D02*
X15528634Y-12541742D01*
X15681015Y-12722694D02*
X15690539Y-12732218D01*
X15690539Y-12732218D02*
X15681015Y-12741742D01*
X15681015Y-12741742D02*
X15671491Y-12732218D01*
X15671491Y-12732218D02*
X15681015Y-12722694D01*
X15681015Y-12722694D02*
X15681015Y-12741742D01*
X15814348Y-12541742D02*
X15833396Y-12541742D01*
X15833396Y-12541742D02*
X15852444Y-12551266D01*
X15852444Y-12551266D02*
X15861967Y-12560790D01*
X15861967Y-12560790D02*
X15871491Y-12579837D01*
X15871491Y-12579837D02*
X15881015Y-12617933D01*
X15881015Y-12617933D02*
X15881015Y-12665552D01*
X15881015Y-12665552D02*
X15871491Y-12703647D01*
X15871491Y-12703647D02*
X15861967Y-12722694D01*
X15861967Y-12722694D02*
X15852444Y-12732218D01*
X15852444Y-12732218D02*
X15833396Y-12741742D01*
X15833396Y-12741742D02*
X15814348Y-12741742D01*
X15814348Y-12741742D02*
X15795301Y-12732218D01*
X15795301Y-12732218D02*
X15785777Y-12722694D01*
X15785777Y-12722694D02*
X15776253Y-12703647D01*
X15776253Y-12703647D02*
X15766729Y-12665552D01*
X15766729Y-12665552D02*
X15766729Y-12617933D01*
X15766729Y-12617933D02*
X15776253Y-12579837D01*
X15776253Y-12579837D02*
X15785777Y-12560790D01*
X15785777Y-12560790D02*
X15795301Y-12551266D01*
X15795301Y-12551266D02*
X15814348Y-12541742D01*
X16071491Y-12741742D02*
X15957206Y-12741742D01*
X16014348Y-12741742D02*
X16014348Y-12541742D01*
X16014348Y-12541742D02*
X15995301Y-12570314D01*
X15995301Y-12570314D02*
X15976253Y-12589361D01*
X15976253Y-12589361D02*
X15957206Y-12598885D01*
X16252444Y-12541742D02*
X16157206Y-12541742D01*
X16157206Y-12541742D02*
X16147682Y-12636980D01*
X16147682Y-12636980D02*
X16157206Y-12627456D01*
X16157206Y-12627456D02*
X16176253Y-12617933D01*
X16176253Y-12617933D02*
X16223872Y-12617933D01*
X16223872Y-12617933D02*
X16242920Y-12627456D01*
X16242920Y-12627456D02*
X16252444Y-12636980D01*
X16252444Y-12636980D02*
X16261967Y-12656028D01*
X16261967Y-12656028D02*
X16261967Y-12703647D01*
X16261967Y-12703647D02*
X16252444Y-12722694D01*
X16252444Y-12722694D02*
X16242920Y-12732218D01*
X16242920Y-12732218D02*
X16223872Y-12741742D01*
X16223872Y-12741742D02*
X16176253Y-12741742D01*
X16176253Y-12741742D02*
X16157206Y-12732218D01*
X16157206Y-12732218D02*
X16147682Y-12722694D01*
X16328634Y-12541742D02*
X16461967Y-12541742D01*
X16461967Y-12541742D02*
X16376253Y-12741742D01*
X16528634Y-12541742D02*
X16528634Y-12579837D01*
X16604825Y-12541742D02*
X16604825Y-12579837D01*
X16900063Y-12817933D02*
X16890539Y-12808409D01*
X16890539Y-12808409D02*
X16871491Y-12779837D01*
X16871491Y-12779837D02*
X16861968Y-12760790D01*
X16861968Y-12760790D02*
X16852444Y-12732218D01*
X16852444Y-12732218D02*
X16842920Y-12684599D01*
X16842920Y-12684599D02*
X16842920Y-12646504D01*
X16842920Y-12646504D02*
X16852444Y-12598885D01*
X16852444Y-12598885D02*
X16861968Y-12570314D01*
X16861968Y-12570314D02*
X16871491Y-12551266D01*
X16871491Y-12551266D02*
X16890539Y-12522694D01*
X16890539Y-12522694D02*
X16900063Y-12513171D01*
X17061968Y-12541742D02*
X17023872Y-12541742D01*
X17023872Y-12541742D02*
X17004825Y-12551266D01*
X17004825Y-12551266D02*
X16995301Y-12560790D01*
X16995301Y-12560790D02*
X16976253Y-12589361D01*
X16976253Y-12589361D02*
X16966730Y-12627456D01*
X16966730Y-12627456D02*
X16966730Y-12703647D01*
X16966730Y-12703647D02*
X16976253Y-12722694D01*
X16976253Y-12722694D02*
X16985777Y-12732218D01*
X16985777Y-12732218D02*
X17004825Y-12741742D01*
X17004825Y-12741742D02*
X17042920Y-12741742D01*
X17042920Y-12741742D02*
X17061968Y-12732218D01*
X17061968Y-12732218D02*
X17071491Y-12722694D01*
X17071491Y-12722694D02*
X17081015Y-12703647D01*
X17081015Y-12703647D02*
X17081015Y-12656028D01*
X17081015Y-12656028D02*
X17071491Y-12636980D01*
X17071491Y-12636980D02*
X17061968Y-12627456D01*
X17061968Y-12627456D02*
X17042920Y-12617933D01*
X17042920Y-12617933D02*
X17004825Y-12617933D01*
X17004825Y-12617933D02*
X16985777Y-12627456D01*
X16985777Y-12627456D02*
X16976253Y-12636980D01*
X16976253Y-12636980D02*
X16966730Y-12656028D01*
X17204825Y-12541742D02*
X17223872Y-12541742D01*
X17223872Y-12541742D02*
X17242920Y-12551266D01*
X17242920Y-12551266D02*
X17252444Y-12560790D01*
X17252444Y-12560790D02*
X17261968Y-12579837D01*
X17261968Y-12579837D02*
X17271491Y-12617933D01*
X17271491Y-12617933D02*
X17271491Y-12665552D01*
X17271491Y-12665552D02*
X17261968Y-12703647D01*
X17261968Y-12703647D02*
X17252444Y-12722694D01*
X17252444Y-12722694D02*
X17242920Y-12732218D01*
X17242920Y-12732218D02*
X17223872Y-12741742D01*
X17223872Y-12741742D02*
X17204825Y-12741742D01*
X17204825Y-12741742D02*
X17185777Y-12732218D01*
X17185777Y-12732218D02*
X17176253Y-12722694D01*
X17176253Y-12722694D02*
X17166730Y-12703647D01*
X17166730Y-12703647D02*
X17157206Y-12665552D01*
X17157206Y-12665552D02*
X17157206Y-12617933D01*
X17157206Y-12617933D02*
X17166730Y-12579837D01*
X17166730Y-12579837D02*
X17176253Y-12560790D01*
X17176253Y-12560790D02*
X17185777Y-12551266D01*
X17185777Y-12551266D02*
X17204825Y-12541742D01*
X17509587Y-12741742D02*
X17509587Y-12541742D01*
X17595301Y-12741742D02*
X17595301Y-12636980D01*
X17595301Y-12636980D02*
X17585777Y-12617933D01*
X17585777Y-12617933D02*
X17566730Y-12608409D01*
X17566730Y-12608409D02*
X17538158Y-12608409D01*
X17538158Y-12608409D02*
X17519111Y-12617933D01*
X17519111Y-12617933D02*
X17509587Y-12627456D01*
X17719111Y-12741742D02*
X17700063Y-12732218D01*
X17700063Y-12732218D02*
X17690539Y-12722694D01*
X17690539Y-12722694D02*
X17681015Y-12703647D01*
X17681015Y-12703647D02*
X17681015Y-12646504D01*
X17681015Y-12646504D02*
X17690539Y-12627456D01*
X17690539Y-12627456D02*
X17700063Y-12617933D01*
X17700063Y-12617933D02*
X17719111Y-12608409D01*
X17719111Y-12608409D02*
X17747682Y-12608409D01*
X17747682Y-12608409D02*
X17766730Y-12617933D01*
X17766730Y-12617933D02*
X17776253Y-12627456D01*
X17776253Y-12627456D02*
X17785777Y-12646504D01*
X17785777Y-12646504D02*
X17785777Y-12703647D01*
X17785777Y-12703647D02*
X17776253Y-12722694D01*
X17776253Y-12722694D02*
X17766730Y-12732218D01*
X17766730Y-12732218D02*
X17747682Y-12741742D01*
X17747682Y-12741742D02*
X17719111Y-12741742D01*
X17900063Y-12741742D02*
X17881015Y-12732218D01*
X17881015Y-12732218D02*
X17871492Y-12713171D01*
X17871492Y-12713171D02*
X17871492Y-12541742D01*
X18052444Y-12732218D02*
X18033396Y-12741742D01*
X18033396Y-12741742D02*
X17995301Y-12741742D01*
X17995301Y-12741742D02*
X17976253Y-12732218D01*
X17976253Y-12732218D02*
X17966730Y-12713171D01*
X17966730Y-12713171D02*
X17966730Y-12636980D01*
X17966730Y-12636980D02*
X17976253Y-12617933D01*
X17976253Y-12617933D02*
X17995301Y-12608409D01*
X17995301Y-12608409D02*
X18033396Y-12608409D01*
X18033396Y-12608409D02*
X18052444Y-12617933D01*
X18052444Y-12617933D02*
X18061968Y-12636980D01*
X18061968Y-12636980D02*
X18061968Y-12656028D01*
X18061968Y-12656028D02*
X17966730Y-12675075D01*
X18138158Y-12732218D02*
X18157206Y-12741742D01*
X18157206Y-12741742D02*
X18195301Y-12741742D01*
X18195301Y-12741742D02*
X18214349Y-12732218D01*
X18214349Y-12732218D02*
X18223873Y-12713171D01*
X18223873Y-12713171D02*
X18223873Y-12703647D01*
X18223873Y-12703647D02*
X18214349Y-12684599D01*
X18214349Y-12684599D02*
X18195301Y-12675075D01*
X18195301Y-12675075D02*
X18166730Y-12675075D01*
X18166730Y-12675075D02*
X18147682Y-12665552D01*
X18147682Y-12665552D02*
X18138158Y-12646504D01*
X18138158Y-12646504D02*
X18138158Y-12636980D01*
X18138158Y-12636980D02*
X18147682Y-12617933D01*
X18147682Y-12617933D02*
X18166730Y-12608409D01*
X18166730Y-12608409D02*
X18195301Y-12608409D01*
X18195301Y-12608409D02*
X18214349Y-12617933D01*
X18290539Y-12817933D02*
X18300063Y-12808409D01*
X18300063Y-12808409D02*
X18319111Y-12779837D01*
X18319111Y-12779837D02*
X18328634Y-12760790D01*
X18328634Y-12760790D02*
X18338158Y-12732218D01*
X18338158Y-12732218D02*
X18347682Y-12684599D01*
X18347682Y-12684599D02*
X18347682Y-12646504D01*
X18347682Y-12646504D02*
X18338158Y-12598885D01*
X18338158Y-12598885D02*
X18328634Y-12570314D01*
X18328634Y-12570314D02*
X18319111Y-12551266D01*
X18319111Y-12551266D02*
X18300063Y-12522694D01*
X18300063Y-12522694D02*
X18290539Y-12513171D01*
D11*
X13325000Y-12914258D02*
G75*
G03*
X13265000Y-12914258I-30000J0D01*
G01*
X13265000Y-12914258D02*
G75*
G03*
X13325000Y-12914258I30000J0D01*
G01*
D10*
X13623872Y-12805742D02*
X13642920Y-12805742D01*
X13642920Y-12805742D02*
X13661967Y-12815266D01*
X13661967Y-12815266D02*
X13671491Y-12824790D01*
X13671491Y-12824790D02*
X13681015Y-12843837D01*
X13681015Y-12843837D02*
X13690539Y-12881933D01*
X13690539Y-12881933D02*
X13690539Y-12929552D01*
X13690539Y-12929552D02*
X13681015Y-12967647D01*
X13681015Y-12967647D02*
X13671491Y-12986694D01*
X13671491Y-12986694D02*
X13661967Y-12996218D01*
X13661967Y-12996218D02*
X13642920Y-13005742D01*
X13642920Y-13005742D02*
X13623872Y-13005742D01*
X13623872Y-13005742D02*
X13604824Y-12996218D01*
X13604824Y-12996218D02*
X13595301Y-12986694D01*
X13595301Y-12986694D02*
X13585777Y-12967647D01*
X13585777Y-12967647D02*
X13576253Y-12929552D01*
X13576253Y-12929552D02*
X13576253Y-12881933D01*
X13576253Y-12881933D02*
X13585777Y-12843837D01*
X13585777Y-12843837D02*
X13595301Y-12824790D01*
X13595301Y-12824790D02*
X13604824Y-12815266D01*
X13604824Y-12815266D02*
X13623872Y-12805742D01*
X13776253Y-12986694D02*
X13785777Y-12996218D01*
X13785777Y-12996218D02*
X13776253Y-13005742D01*
X13776253Y-13005742D02*
X13766729Y-12996218D01*
X13766729Y-12996218D02*
X13776253Y-12986694D01*
X13776253Y-12986694D02*
X13776253Y-13005742D01*
X13957205Y-12805742D02*
X13919110Y-12805742D01*
X13919110Y-12805742D02*
X13900062Y-12815266D01*
X13900062Y-12815266D02*
X13890539Y-12824790D01*
X13890539Y-12824790D02*
X13871491Y-12853361D01*
X13871491Y-12853361D02*
X13861967Y-12891456D01*
X13861967Y-12891456D02*
X13861967Y-12967647D01*
X13861967Y-12967647D02*
X13871491Y-12986694D01*
X13871491Y-12986694D02*
X13881015Y-12996218D01*
X13881015Y-12996218D02*
X13900062Y-13005742D01*
X13900062Y-13005742D02*
X13938158Y-13005742D01*
X13938158Y-13005742D02*
X13957205Y-12996218D01*
X13957205Y-12996218D02*
X13966729Y-12986694D01*
X13966729Y-12986694D02*
X13976253Y-12967647D01*
X13976253Y-12967647D02*
X13976253Y-12920028D01*
X13976253Y-12920028D02*
X13966729Y-12900980D01*
X13966729Y-12900980D02*
X13957205Y-12891456D01*
X13957205Y-12891456D02*
X13938158Y-12881933D01*
X13938158Y-12881933D02*
X13900062Y-12881933D01*
X13900062Y-12881933D02*
X13881015Y-12891456D01*
X13881015Y-12891456D02*
X13871491Y-12900980D01*
X13871491Y-12900980D02*
X13861967Y-12920028D01*
X14100062Y-12805742D02*
X14119110Y-12805742D01*
X14119110Y-12805742D02*
X14138158Y-12815266D01*
X14138158Y-12815266D02*
X14147682Y-12824790D01*
X14147682Y-12824790D02*
X14157205Y-12843837D01*
X14157205Y-12843837D02*
X14166729Y-12881933D01*
X14166729Y-12881933D02*
X14166729Y-12929552D01*
X14166729Y-12929552D02*
X14157205Y-12967647D01*
X14157205Y-12967647D02*
X14147682Y-12986694D01*
X14147682Y-12986694D02*
X14138158Y-12996218D01*
X14138158Y-12996218D02*
X14119110Y-13005742D01*
X14119110Y-13005742D02*
X14100062Y-13005742D01*
X14100062Y-13005742D02*
X14081015Y-12996218D01*
X14081015Y-12996218D02*
X14071491Y-12986694D01*
X14071491Y-12986694D02*
X14061967Y-12967647D01*
X14061967Y-12967647D02*
X14052443Y-12929552D01*
X14052443Y-12929552D02*
X14052443Y-12881933D01*
X14052443Y-12881933D02*
X14061967Y-12843837D01*
X14061967Y-12843837D02*
X14071491Y-12824790D01*
X14071491Y-12824790D02*
X14081015Y-12815266D01*
X14081015Y-12815266D02*
X14100062Y-12805742D01*
X14290539Y-12805742D02*
X14309586Y-12805742D01*
X14309586Y-12805742D02*
X14328634Y-12815266D01*
X14328634Y-12815266D02*
X14338158Y-12824790D01*
X14338158Y-12824790D02*
X14347682Y-12843837D01*
X14347682Y-12843837D02*
X14357205Y-12881933D01*
X14357205Y-12881933D02*
X14357205Y-12929552D01*
X14357205Y-12929552D02*
X14347682Y-12967647D01*
X14347682Y-12967647D02*
X14338158Y-12986694D01*
X14338158Y-12986694D02*
X14328634Y-12996218D01*
X14328634Y-12996218D02*
X14309586Y-13005742D01*
X14309586Y-13005742D02*
X14290539Y-13005742D01*
X14290539Y-13005742D02*
X14271491Y-12996218D01*
X14271491Y-12996218D02*
X14261967Y-12986694D01*
X14261967Y-12986694D02*
X14252443Y-12967647D01*
X14252443Y-12967647D02*
X14242920Y-12929552D01*
X14242920Y-12929552D02*
X14242920Y-12881933D01*
X14242920Y-12881933D02*
X14252443Y-12843837D01*
X14252443Y-12843837D02*
X14261967Y-12824790D01*
X14261967Y-12824790D02*
X14271491Y-12815266D01*
X14271491Y-12815266D02*
X14290539Y-12805742D01*
X14442920Y-13005742D02*
X14442920Y-12872409D01*
X14442920Y-12891456D02*
X14452443Y-12881933D01*
X14452443Y-12881933D02*
X14471491Y-12872409D01*
X14471491Y-12872409D02*
X14500063Y-12872409D01*
X14500063Y-12872409D02*
X14519110Y-12881933D01*
X14519110Y-12881933D02*
X14528634Y-12900980D01*
X14528634Y-12900980D02*
X14528634Y-13005742D01*
X14528634Y-12900980D02*
X14538158Y-12881933D01*
X14538158Y-12881933D02*
X14557205Y-12872409D01*
X14557205Y-12872409D02*
X14585777Y-12872409D01*
X14585777Y-12872409D02*
X14604824Y-12881933D01*
X14604824Y-12881933D02*
X14614348Y-12900980D01*
X14614348Y-12900980D02*
X14614348Y-13005742D01*
X14709586Y-13005742D02*
X14709586Y-12872409D01*
X14709586Y-12891456D02*
X14719110Y-12881933D01*
X14719110Y-12881933D02*
X14738158Y-12872409D01*
X14738158Y-12872409D02*
X14766729Y-12872409D01*
X14766729Y-12872409D02*
X14785777Y-12881933D01*
X14785777Y-12881933D02*
X14795301Y-12900980D01*
X14795301Y-12900980D02*
X14795301Y-13005742D01*
X14795301Y-12900980D02*
X14804824Y-12881933D01*
X14804824Y-12881933D02*
X14823872Y-12872409D01*
X14823872Y-12872409D02*
X14852443Y-12872409D01*
X14852443Y-12872409D02*
X14871491Y-12881933D01*
X14871491Y-12881933D02*
X14881015Y-12900980D01*
X14881015Y-12900980D02*
X14881015Y-13005742D01*
X15271491Y-12796218D02*
X15100063Y-13053361D01*
X15528634Y-12805742D02*
X15547682Y-12805742D01*
X15547682Y-12805742D02*
X15566729Y-12815266D01*
X15566729Y-12815266D02*
X15576253Y-12824790D01*
X15576253Y-12824790D02*
X15585777Y-12843837D01*
X15585777Y-12843837D02*
X15595301Y-12881933D01*
X15595301Y-12881933D02*
X15595301Y-12929552D01*
X15595301Y-12929552D02*
X15585777Y-12967647D01*
X15585777Y-12967647D02*
X15576253Y-12986694D01*
X15576253Y-12986694D02*
X15566729Y-12996218D01*
X15566729Y-12996218D02*
X15547682Y-13005742D01*
X15547682Y-13005742D02*
X15528634Y-13005742D01*
X15528634Y-13005742D02*
X15509586Y-12996218D01*
X15509586Y-12996218D02*
X15500063Y-12986694D01*
X15500063Y-12986694D02*
X15490539Y-12967647D01*
X15490539Y-12967647D02*
X15481015Y-12929552D01*
X15481015Y-12929552D02*
X15481015Y-12881933D01*
X15481015Y-12881933D02*
X15490539Y-12843837D01*
X15490539Y-12843837D02*
X15500063Y-12824790D01*
X15500063Y-12824790D02*
X15509586Y-12815266D01*
X15509586Y-12815266D02*
X15528634Y-12805742D01*
X15681015Y-12986694D02*
X15690539Y-12996218D01*
X15690539Y-12996218D02*
X15681015Y-13005742D01*
X15681015Y-13005742D02*
X15671491Y-12996218D01*
X15671491Y-12996218D02*
X15681015Y-12986694D01*
X15681015Y-12986694D02*
X15681015Y-13005742D01*
X15814348Y-12805742D02*
X15833396Y-12805742D01*
X15833396Y-12805742D02*
X15852444Y-12815266D01*
X15852444Y-12815266D02*
X15861967Y-12824790D01*
X15861967Y-12824790D02*
X15871491Y-12843837D01*
X15871491Y-12843837D02*
X15881015Y-12881933D01*
X15881015Y-12881933D02*
X15881015Y-12929552D01*
X15881015Y-12929552D02*
X15871491Y-12967647D01*
X15871491Y-12967647D02*
X15861967Y-12986694D01*
X15861967Y-12986694D02*
X15852444Y-12996218D01*
X15852444Y-12996218D02*
X15833396Y-13005742D01*
X15833396Y-13005742D02*
X15814348Y-13005742D01*
X15814348Y-13005742D02*
X15795301Y-12996218D01*
X15795301Y-12996218D02*
X15785777Y-12986694D01*
X15785777Y-12986694D02*
X15776253Y-12967647D01*
X15776253Y-12967647D02*
X15766729Y-12929552D01*
X15766729Y-12929552D02*
X15766729Y-12881933D01*
X15766729Y-12881933D02*
X15776253Y-12843837D01*
X15776253Y-12843837D02*
X15785777Y-12824790D01*
X15785777Y-12824790D02*
X15795301Y-12815266D01*
X15795301Y-12815266D02*
X15814348Y-12805742D01*
X15957206Y-12824790D02*
X15966729Y-12815266D01*
X15966729Y-12815266D02*
X15985777Y-12805742D01*
X15985777Y-12805742D02*
X16033396Y-12805742D01*
X16033396Y-12805742D02*
X16052444Y-12815266D01*
X16052444Y-12815266D02*
X16061967Y-12824790D01*
X16061967Y-12824790D02*
X16071491Y-12843837D01*
X16071491Y-12843837D02*
X16071491Y-12862885D01*
X16071491Y-12862885D02*
X16061967Y-12891456D01*
X16061967Y-12891456D02*
X15947682Y-13005742D01*
X15947682Y-13005742D02*
X16071491Y-13005742D01*
X16138158Y-12805742D02*
X16261967Y-12805742D01*
X16261967Y-12805742D02*
X16195301Y-12881933D01*
X16195301Y-12881933D02*
X16223872Y-12881933D01*
X16223872Y-12881933D02*
X16242920Y-12891456D01*
X16242920Y-12891456D02*
X16252444Y-12900980D01*
X16252444Y-12900980D02*
X16261967Y-12920028D01*
X16261967Y-12920028D02*
X16261967Y-12967647D01*
X16261967Y-12967647D02*
X16252444Y-12986694D01*
X16252444Y-12986694D02*
X16242920Y-12996218D01*
X16242920Y-12996218D02*
X16223872Y-13005742D01*
X16223872Y-13005742D02*
X16166729Y-13005742D01*
X16166729Y-13005742D02*
X16147682Y-12996218D01*
X16147682Y-12996218D02*
X16138158Y-12986694D01*
X16433396Y-12805742D02*
X16395301Y-12805742D01*
X16395301Y-12805742D02*
X16376253Y-12815266D01*
X16376253Y-12815266D02*
X16366729Y-12824790D01*
X16366729Y-12824790D02*
X16347682Y-12853361D01*
X16347682Y-12853361D02*
X16338158Y-12891456D01*
X16338158Y-12891456D02*
X16338158Y-12967647D01*
X16338158Y-12967647D02*
X16347682Y-12986694D01*
X16347682Y-12986694D02*
X16357206Y-12996218D01*
X16357206Y-12996218D02*
X16376253Y-13005742D01*
X16376253Y-13005742D02*
X16414348Y-13005742D01*
X16414348Y-13005742D02*
X16433396Y-12996218D01*
X16433396Y-12996218D02*
X16442920Y-12986694D01*
X16442920Y-12986694D02*
X16452444Y-12967647D01*
X16452444Y-12967647D02*
X16452444Y-12920028D01*
X16452444Y-12920028D02*
X16442920Y-12900980D01*
X16442920Y-12900980D02*
X16433396Y-12891456D01*
X16433396Y-12891456D02*
X16414348Y-12881933D01*
X16414348Y-12881933D02*
X16376253Y-12881933D01*
X16376253Y-12881933D02*
X16357206Y-12891456D01*
X16357206Y-12891456D02*
X16347682Y-12900980D01*
X16347682Y-12900980D02*
X16338158Y-12920028D01*
X16528634Y-12805742D02*
X16528634Y-12843837D01*
X16604825Y-12805742D02*
X16604825Y-12843837D01*
X16900063Y-13081933D02*
X16890539Y-13072409D01*
X16890539Y-13072409D02*
X16871491Y-13043837D01*
X16871491Y-13043837D02*
X16861968Y-13024790D01*
X16861968Y-13024790D02*
X16852444Y-12996218D01*
X16852444Y-12996218D02*
X16842920Y-12948599D01*
X16842920Y-12948599D02*
X16842920Y-12910504D01*
X16842920Y-12910504D02*
X16852444Y-12862885D01*
X16852444Y-12862885D02*
X16861968Y-12834314D01*
X16861968Y-12834314D02*
X16871491Y-12815266D01*
X16871491Y-12815266D02*
X16890539Y-12786694D01*
X16890539Y-12786694D02*
X16900063Y-12777171D01*
X17061968Y-12872409D02*
X17061968Y-13005742D01*
X17014349Y-12796218D02*
X16966730Y-12939075D01*
X16966730Y-12939075D02*
X17090539Y-12939075D01*
X17319111Y-13005742D02*
X17319111Y-12805742D01*
X17404825Y-13005742D02*
X17404825Y-12900980D01*
X17404825Y-12900980D02*
X17395301Y-12881933D01*
X17395301Y-12881933D02*
X17376253Y-12872409D01*
X17376253Y-12872409D02*
X17347682Y-12872409D01*
X17347682Y-12872409D02*
X17328634Y-12881933D01*
X17328634Y-12881933D02*
X17319111Y-12891456D01*
X17528634Y-13005742D02*
X17509587Y-12996218D01*
X17509587Y-12996218D02*
X17500063Y-12986694D01*
X17500063Y-12986694D02*
X17490539Y-12967647D01*
X17490539Y-12967647D02*
X17490539Y-12910504D01*
X17490539Y-12910504D02*
X17500063Y-12891456D01*
X17500063Y-12891456D02*
X17509587Y-12881933D01*
X17509587Y-12881933D02*
X17528634Y-12872409D01*
X17528634Y-12872409D02*
X17557206Y-12872409D01*
X17557206Y-12872409D02*
X17576253Y-12881933D01*
X17576253Y-12881933D02*
X17585777Y-12891456D01*
X17585777Y-12891456D02*
X17595301Y-12910504D01*
X17595301Y-12910504D02*
X17595301Y-12967647D01*
X17595301Y-12967647D02*
X17585777Y-12986694D01*
X17585777Y-12986694D02*
X17576253Y-12996218D01*
X17576253Y-12996218D02*
X17557206Y-13005742D01*
X17557206Y-13005742D02*
X17528634Y-13005742D01*
X17709587Y-13005742D02*
X17690539Y-12996218D01*
X17690539Y-12996218D02*
X17681015Y-12977171D01*
X17681015Y-12977171D02*
X17681015Y-12805742D01*
X17861968Y-12996218D02*
X17842920Y-13005742D01*
X17842920Y-13005742D02*
X17804825Y-13005742D01*
X17804825Y-13005742D02*
X17785777Y-12996218D01*
X17785777Y-12996218D02*
X17776253Y-12977171D01*
X17776253Y-12977171D02*
X17776253Y-12900980D01*
X17776253Y-12900980D02*
X17785777Y-12881933D01*
X17785777Y-12881933D02*
X17804825Y-12872409D01*
X17804825Y-12872409D02*
X17842920Y-12872409D01*
X17842920Y-12872409D02*
X17861968Y-12881933D01*
X17861968Y-12881933D02*
X17871492Y-12900980D01*
X17871492Y-12900980D02*
X17871492Y-12920028D01*
X17871492Y-12920028D02*
X17776253Y-12939075D01*
X17947682Y-12996218D02*
X17966730Y-13005742D01*
X17966730Y-13005742D02*
X18004825Y-13005742D01*
X18004825Y-13005742D02*
X18023873Y-12996218D01*
X18023873Y-12996218D02*
X18033396Y-12977171D01*
X18033396Y-12977171D02*
X18033396Y-12967647D01*
X18033396Y-12967647D02*
X18023873Y-12948599D01*
X18023873Y-12948599D02*
X18004825Y-12939075D01*
X18004825Y-12939075D02*
X17976253Y-12939075D01*
X17976253Y-12939075D02*
X17957206Y-12929552D01*
X17957206Y-12929552D02*
X17947682Y-12910504D01*
X17947682Y-12910504D02*
X17947682Y-12900980D01*
X17947682Y-12900980D02*
X17957206Y-12881933D01*
X17957206Y-12881933D02*
X17976253Y-12872409D01*
X17976253Y-12872409D02*
X18004825Y-12872409D01*
X18004825Y-12872409D02*
X18023873Y-12881933D01*
X18271492Y-12929552D02*
X18423873Y-12929552D01*
X18347682Y-13005742D02*
X18347682Y-12853361D01*
X18757206Y-12872409D02*
X18757206Y-13005742D01*
X18709587Y-12796218D02*
X18661968Y-12939075D01*
X18661968Y-12939075D02*
X18785777Y-12939075D01*
X19004825Y-12996218D02*
X19023873Y-13005742D01*
X19023873Y-13005742D02*
X19061968Y-13005742D01*
X19061968Y-13005742D02*
X19081016Y-12996218D01*
X19081016Y-12996218D02*
X19090539Y-12977171D01*
X19090539Y-12977171D02*
X19090539Y-12967647D01*
X19090539Y-12967647D02*
X19081016Y-12948599D01*
X19081016Y-12948599D02*
X19061968Y-12939075D01*
X19061968Y-12939075D02*
X19033396Y-12939075D01*
X19033396Y-12939075D02*
X19014349Y-12929552D01*
X19014349Y-12929552D02*
X19004825Y-12910504D01*
X19004825Y-12910504D02*
X19004825Y-12900980D01*
X19004825Y-12900980D02*
X19014349Y-12881933D01*
X19014349Y-12881933D02*
X19033396Y-12872409D01*
X19033396Y-12872409D02*
X19061968Y-12872409D01*
X19061968Y-12872409D02*
X19081016Y-12881933D01*
X19204825Y-13005742D02*
X19185777Y-12996218D01*
X19185777Y-12996218D02*
X19176254Y-12977171D01*
X19176254Y-12977171D02*
X19176254Y-12805742D01*
X19309587Y-13005742D02*
X19290539Y-12996218D01*
X19290539Y-12996218D02*
X19281016Y-12986694D01*
X19281016Y-12986694D02*
X19271492Y-12967647D01*
X19271492Y-12967647D02*
X19271492Y-12910504D01*
X19271492Y-12910504D02*
X19281016Y-12891456D01*
X19281016Y-12891456D02*
X19290539Y-12881933D01*
X19290539Y-12881933D02*
X19309587Y-12872409D01*
X19309587Y-12872409D02*
X19338158Y-12872409D01*
X19338158Y-12872409D02*
X19357206Y-12881933D01*
X19357206Y-12881933D02*
X19366730Y-12891456D01*
X19366730Y-12891456D02*
X19376254Y-12910504D01*
X19376254Y-12910504D02*
X19376254Y-12967647D01*
X19376254Y-12967647D02*
X19366730Y-12986694D01*
X19366730Y-12986694D02*
X19357206Y-12996218D01*
X19357206Y-12996218D02*
X19338158Y-13005742D01*
X19338158Y-13005742D02*
X19309587Y-13005742D01*
X19433397Y-12872409D02*
X19509587Y-12872409D01*
X19461968Y-12805742D02*
X19461968Y-12977171D01*
X19461968Y-12977171D02*
X19471492Y-12996218D01*
X19471492Y-12996218D02*
X19490539Y-13005742D01*
X19490539Y-13005742D02*
X19509587Y-13005742D01*
X19566730Y-12996218D02*
X19585777Y-13005742D01*
X19585777Y-13005742D02*
X19623873Y-13005742D01*
X19623873Y-13005742D02*
X19642920Y-12996218D01*
X19642920Y-12996218D02*
X19652444Y-12977171D01*
X19652444Y-12977171D02*
X19652444Y-12967647D01*
X19652444Y-12967647D02*
X19642920Y-12948599D01*
X19642920Y-12948599D02*
X19623873Y-12939075D01*
X19623873Y-12939075D02*
X19595301Y-12939075D01*
X19595301Y-12939075D02*
X19576254Y-12929552D01*
X19576254Y-12929552D02*
X19566730Y-12910504D01*
X19566730Y-12910504D02*
X19566730Y-12900980D01*
X19566730Y-12900980D02*
X19576254Y-12881933D01*
X19576254Y-12881933D02*
X19595301Y-12872409D01*
X19595301Y-12872409D02*
X19623873Y-12872409D01*
X19623873Y-12872409D02*
X19642920Y-12881933D01*
X19719111Y-13081933D02*
X19728635Y-13072409D01*
X19728635Y-13072409D02*
X19747682Y-13043837D01*
X19747682Y-13043837D02*
X19757206Y-13024790D01*
X19757206Y-13024790D02*
X19766730Y-12996218D01*
X19766730Y-12996218D02*
X19776254Y-12948599D01*
X19776254Y-12948599D02*
X19776254Y-12910504D01*
X19776254Y-12910504D02*
X19766730Y-12862885D01*
X19766730Y-12862885D02*
X19757206Y-12834314D01*
X19757206Y-12834314D02*
X19747682Y-12815266D01*
X19747682Y-12815266D02*
X19728635Y-12786694D01*
X19728635Y-12786694D02*
X19719111Y-12777171D01*
D11*
X13285000Y-13138258D02*
X13285000Y-13218258D01*
X13245000Y-13178258D02*
X13325000Y-13178258D01*
D10*
X13623872Y-13069742D02*
X13642920Y-13069742D01*
X13642920Y-13069742D02*
X13661967Y-13079266D01*
X13661967Y-13079266D02*
X13671491Y-13088790D01*
X13671491Y-13088790D02*
X13681015Y-13107837D01*
X13681015Y-13107837D02*
X13690539Y-13145933D01*
X13690539Y-13145933D02*
X13690539Y-13193552D01*
X13690539Y-13193552D02*
X13681015Y-13231647D01*
X13681015Y-13231647D02*
X13671491Y-13250694D01*
X13671491Y-13250694D02*
X13661967Y-13260218D01*
X13661967Y-13260218D02*
X13642920Y-13269742D01*
X13642920Y-13269742D02*
X13623872Y-13269742D01*
X13623872Y-13269742D02*
X13604824Y-13260218D01*
X13604824Y-13260218D02*
X13595301Y-13250694D01*
X13595301Y-13250694D02*
X13585777Y-13231647D01*
X13585777Y-13231647D02*
X13576253Y-13193552D01*
X13576253Y-13193552D02*
X13576253Y-13145933D01*
X13576253Y-13145933D02*
X13585777Y-13107837D01*
X13585777Y-13107837D02*
X13595301Y-13088790D01*
X13595301Y-13088790D02*
X13604824Y-13079266D01*
X13604824Y-13079266D02*
X13623872Y-13069742D01*
X13776253Y-13250694D02*
X13785777Y-13260218D01*
X13785777Y-13260218D02*
X13776253Y-13269742D01*
X13776253Y-13269742D02*
X13766729Y-13260218D01*
X13766729Y-13260218D02*
X13776253Y-13250694D01*
X13776253Y-13250694D02*
X13776253Y-13269742D01*
X13900062Y-13155456D02*
X13881015Y-13145933D01*
X13881015Y-13145933D02*
X13871491Y-13136409D01*
X13871491Y-13136409D02*
X13861967Y-13117361D01*
X13861967Y-13117361D02*
X13861967Y-13107837D01*
X13861967Y-13107837D02*
X13871491Y-13088790D01*
X13871491Y-13088790D02*
X13881015Y-13079266D01*
X13881015Y-13079266D02*
X13900062Y-13069742D01*
X13900062Y-13069742D02*
X13938158Y-13069742D01*
X13938158Y-13069742D02*
X13957205Y-13079266D01*
X13957205Y-13079266D02*
X13966729Y-13088790D01*
X13966729Y-13088790D02*
X13976253Y-13107837D01*
X13976253Y-13107837D02*
X13976253Y-13117361D01*
X13976253Y-13117361D02*
X13966729Y-13136409D01*
X13966729Y-13136409D02*
X13957205Y-13145933D01*
X13957205Y-13145933D02*
X13938158Y-13155456D01*
X13938158Y-13155456D02*
X13900062Y-13155456D01*
X13900062Y-13155456D02*
X13881015Y-13164980D01*
X13881015Y-13164980D02*
X13871491Y-13174504D01*
X13871491Y-13174504D02*
X13861967Y-13193552D01*
X13861967Y-13193552D02*
X13861967Y-13231647D01*
X13861967Y-13231647D02*
X13871491Y-13250694D01*
X13871491Y-13250694D02*
X13881015Y-13260218D01*
X13881015Y-13260218D02*
X13900062Y-13269742D01*
X13900062Y-13269742D02*
X13938158Y-13269742D01*
X13938158Y-13269742D02*
X13957205Y-13260218D01*
X13957205Y-13260218D02*
X13966729Y-13250694D01*
X13966729Y-13250694D02*
X13976253Y-13231647D01*
X13976253Y-13231647D02*
X13976253Y-13193552D01*
X13976253Y-13193552D02*
X13966729Y-13174504D01*
X13966729Y-13174504D02*
X13957205Y-13164980D01*
X13957205Y-13164980D02*
X13938158Y-13155456D01*
X14100062Y-13069742D02*
X14119110Y-13069742D01*
X14119110Y-13069742D02*
X14138158Y-13079266D01*
X14138158Y-13079266D02*
X14147682Y-13088790D01*
X14147682Y-13088790D02*
X14157205Y-13107837D01*
X14157205Y-13107837D02*
X14166729Y-13145933D01*
X14166729Y-13145933D02*
X14166729Y-13193552D01*
X14166729Y-13193552D02*
X14157205Y-13231647D01*
X14157205Y-13231647D02*
X14147682Y-13250694D01*
X14147682Y-13250694D02*
X14138158Y-13260218D01*
X14138158Y-13260218D02*
X14119110Y-13269742D01*
X14119110Y-13269742D02*
X14100062Y-13269742D01*
X14100062Y-13269742D02*
X14081015Y-13260218D01*
X14081015Y-13260218D02*
X14071491Y-13250694D01*
X14071491Y-13250694D02*
X14061967Y-13231647D01*
X14061967Y-13231647D02*
X14052443Y-13193552D01*
X14052443Y-13193552D02*
X14052443Y-13145933D01*
X14052443Y-13145933D02*
X14061967Y-13107837D01*
X14061967Y-13107837D02*
X14071491Y-13088790D01*
X14071491Y-13088790D02*
X14081015Y-13079266D01*
X14081015Y-13079266D02*
X14100062Y-13069742D01*
X14290539Y-13069742D02*
X14309586Y-13069742D01*
X14309586Y-13069742D02*
X14328634Y-13079266D01*
X14328634Y-13079266D02*
X14338158Y-13088790D01*
X14338158Y-13088790D02*
X14347682Y-13107837D01*
X14347682Y-13107837D02*
X14357205Y-13145933D01*
X14357205Y-13145933D02*
X14357205Y-13193552D01*
X14357205Y-13193552D02*
X14347682Y-13231647D01*
X14347682Y-13231647D02*
X14338158Y-13250694D01*
X14338158Y-13250694D02*
X14328634Y-13260218D01*
X14328634Y-13260218D02*
X14309586Y-13269742D01*
X14309586Y-13269742D02*
X14290539Y-13269742D01*
X14290539Y-13269742D02*
X14271491Y-13260218D01*
X14271491Y-13260218D02*
X14261967Y-13250694D01*
X14261967Y-13250694D02*
X14252443Y-13231647D01*
X14252443Y-13231647D02*
X14242920Y-13193552D01*
X14242920Y-13193552D02*
X14242920Y-13145933D01*
X14242920Y-13145933D02*
X14252443Y-13107837D01*
X14252443Y-13107837D02*
X14261967Y-13088790D01*
X14261967Y-13088790D02*
X14271491Y-13079266D01*
X14271491Y-13079266D02*
X14290539Y-13069742D01*
X14442920Y-13269742D02*
X14442920Y-13136409D01*
X14442920Y-13155456D02*
X14452443Y-13145933D01*
X14452443Y-13145933D02*
X14471491Y-13136409D01*
X14471491Y-13136409D02*
X14500063Y-13136409D01*
X14500063Y-13136409D02*
X14519110Y-13145933D01*
X14519110Y-13145933D02*
X14528634Y-13164980D01*
X14528634Y-13164980D02*
X14528634Y-13269742D01*
X14528634Y-13164980D02*
X14538158Y-13145933D01*
X14538158Y-13145933D02*
X14557205Y-13136409D01*
X14557205Y-13136409D02*
X14585777Y-13136409D01*
X14585777Y-13136409D02*
X14604824Y-13145933D01*
X14604824Y-13145933D02*
X14614348Y-13164980D01*
X14614348Y-13164980D02*
X14614348Y-13269742D01*
X14709586Y-13269742D02*
X14709586Y-13136409D01*
X14709586Y-13155456D02*
X14719110Y-13145933D01*
X14719110Y-13145933D02*
X14738158Y-13136409D01*
X14738158Y-13136409D02*
X14766729Y-13136409D01*
X14766729Y-13136409D02*
X14785777Y-13145933D01*
X14785777Y-13145933D02*
X14795301Y-13164980D01*
X14795301Y-13164980D02*
X14795301Y-13269742D01*
X14795301Y-13164980D02*
X14804824Y-13145933D01*
X14804824Y-13145933D02*
X14823872Y-13136409D01*
X14823872Y-13136409D02*
X14852443Y-13136409D01*
X14852443Y-13136409D02*
X14871491Y-13145933D01*
X14871491Y-13145933D02*
X14881015Y-13164980D01*
X14881015Y-13164980D02*
X14881015Y-13269742D01*
X15271491Y-13060218D02*
X15100063Y-13317361D01*
X15528634Y-13069742D02*
X15547682Y-13069742D01*
X15547682Y-13069742D02*
X15566729Y-13079266D01*
X15566729Y-13079266D02*
X15576253Y-13088790D01*
X15576253Y-13088790D02*
X15585777Y-13107837D01*
X15585777Y-13107837D02*
X15595301Y-13145933D01*
X15595301Y-13145933D02*
X15595301Y-13193552D01*
X15595301Y-13193552D02*
X15585777Y-13231647D01*
X15585777Y-13231647D02*
X15576253Y-13250694D01*
X15576253Y-13250694D02*
X15566729Y-13260218D01*
X15566729Y-13260218D02*
X15547682Y-13269742D01*
X15547682Y-13269742D02*
X15528634Y-13269742D01*
X15528634Y-13269742D02*
X15509586Y-13260218D01*
X15509586Y-13260218D02*
X15500063Y-13250694D01*
X15500063Y-13250694D02*
X15490539Y-13231647D01*
X15490539Y-13231647D02*
X15481015Y-13193552D01*
X15481015Y-13193552D02*
X15481015Y-13145933D01*
X15481015Y-13145933D02*
X15490539Y-13107837D01*
X15490539Y-13107837D02*
X15500063Y-13088790D01*
X15500063Y-13088790D02*
X15509586Y-13079266D01*
X15509586Y-13079266D02*
X15528634Y-13069742D01*
X15681015Y-13250694D02*
X15690539Y-13260218D01*
X15690539Y-13260218D02*
X15681015Y-13269742D01*
X15681015Y-13269742D02*
X15671491Y-13260218D01*
X15671491Y-13260218D02*
X15681015Y-13250694D01*
X15681015Y-13250694D02*
X15681015Y-13269742D01*
X15814348Y-13069742D02*
X15833396Y-13069742D01*
X15833396Y-13069742D02*
X15852444Y-13079266D01*
X15852444Y-13079266D02*
X15861967Y-13088790D01*
X15861967Y-13088790D02*
X15871491Y-13107837D01*
X15871491Y-13107837D02*
X15881015Y-13145933D01*
X15881015Y-13145933D02*
X15881015Y-13193552D01*
X15881015Y-13193552D02*
X15871491Y-13231647D01*
X15871491Y-13231647D02*
X15861967Y-13250694D01*
X15861967Y-13250694D02*
X15852444Y-13260218D01*
X15852444Y-13260218D02*
X15833396Y-13269742D01*
X15833396Y-13269742D02*
X15814348Y-13269742D01*
X15814348Y-13269742D02*
X15795301Y-13260218D01*
X15795301Y-13260218D02*
X15785777Y-13250694D01*
X15785777Y-13250694D02*
X15776253Y-13231647D01*
X15776253Y-13231647D02*
X15766729Y-13193552D01*
X15766729Y-13193552D02*
X15766729Y-13145933D01*
X15766729Y-13145933D02*
X15776253Y-13107837D01*
X15776253Y-13107837D02*
X15785777Y-13088790D01*
X15785777Y-13088790D02*
X15795301Y-13079266D01*
X15795301Y-13079266D02*
X15814348Y-13069742D01*
X15947682Y-13069742D02*
X16071491Y-13069742D01*
X16071491Y-13069742D02*
X16004825Y-13145933D01*
X16004825Y-13145933D02*
X16033396Y-13145933D01*
X16033396Y-13145933D02*
X16052444Y-13155456D01*
X16052444Y-13155456D02*
X16061967Y-13164980D01*
X16061967Y-13164980D02*
X16071491Y-13184028D01*
X16071491Y-13184028D02*
X16071491Y-13231647D01*
X16071491Y-13231647D02*
X16061967Y-13250694D01*
X16061967Y-13250694D02*
X16052444Y-13260218D01*
X16052444Y-13260218D02*
X16033396Y-13269742D01*
X16033396Y-13269742D02*
X15976253Y-13269742D01*
X15976253Y-13269742D02*
X15957206Y-13260218D01*
X15957206Y-13260218D02*
X15947682Y-13250694D01*
X16261967Y-13269742D02*
X16147682Y-13269742D01*
X16204825Y-13269742D02*
X16204825Y-13069742D01*
X16204825Y-13069742D02*
X16185777Y-13098314D01*
X16185777Y-13098314D02*
X16166729Y-13117361D01*
X16166729Y-13117361D02*
X16147682Y-13126885D01*
X16442920Y-13069742D02*
X16347682Y-13069742D01*
X16347682Y-13069742D02*
X16338158Y-13164980D01*
X16338158Y-13164980D02*
X16347682Y-13155456D01*
X16347682Y-13155456D02*
X16366729Y-13145933D01*
X16366729Y-13145933D02*
X16414348Y-13145933D01*
X16414348Y-13145933D02*
X16433396Y-13155456D01*
X16433396Y-13155456D02*
X16442920Y-13164980D01*
X16442920Y-13164980D02*
X16452444Y-13184028D01*
X16452444Y-13184028D02*
X16452444Y-13231647D01*
X16452444Y-13231647D02*
X16442920Y-13250694D01*
X16442920Y-13250694D02*
X16433396Y-13260218D01*
X16433396Y-13260218D02*
X16414348Y-13269742D01*
X16414348Y-13269742D02*
X16366729Y-13269742D01*
X16366729Y-13269742D02*
X16347682Y-13260218D01*
X16347682Y-13260218D02*
X16338158Y-13250694D01*
X16528634Y-13069742D02*
X16528634Y-13107837D01*
X16604825Y-13069742D02*
X16604825Y-13107837D01*
X16900063Y-13345933D02*
X16890539Y-13336409D01*
X16890539Y-13336409D02*
X16871491Y-13307837D01*
X16871491Y-13307837D02*
X16861968Y-13288790D01*
X16861968Y-13288790D02*
X16852444Y-13260218D01*
X16852444Y-13260218D02*
X16842920Y-13212599D01*
X16842920Y-13212599D02*
X16842920Y-13174504D01*
X16842920Y-13174504D02*
X16852444Y-13126885D01*
X16852444Y-13126885D02*
X16861968Y-13098314D01*
X16861968Y-13098314D02*
X16871491Y-13079266D01*
X16871491Y-13079266D02*
X16890539Y-13050694D01*
X16890539Y-13050694D02*
X16900063Y-13041171D01*
X17061968Y-13136409D02*
X17061968Y-13269742D01*
X17014349Y-13060218D02*
X16966730Y-13203075D01*
X16966730Y-13203075D02*
X17090539Y-13203075D01*
X17319111Y-13269742D02*
X17319111Y-13069742D01*
X17404825Y-13269742D02*
X17404825Y-13164980D01*
X17404825Y-13164980D02*
X17395301Y-13145933D01*
X17395301Y-13145933D02*
X17376253Y-13136409D01*
X17376253Y-13136409D02*
X17347682Y-13136409D01*
X17347682Y-13136409D02*
X17328634Y-13145933D01*
X17328634Y-13145933D02*
X17319111Y-13155456D01*
X17528634Y-13269742D02*
X17509587Y-13260218D01*
X17509587Y-13260218D02*
X17500063Y-13250694D01*
X17500063Y-13250694D02*
X17490539Y-13231647D01*
X17490539Y-13231647D02*
X17490539Y-13174504D01*
X17490539Y-13174504D02*
X17500063Y-13155456D01*
X17500063Y-13155456D02*
X17509587Y-13145933D01*
X17509587Y-13145933D02*
X17528634Y-13136409D01*
X17528634Y-13136409D02*
X17557206Y-13136409D01*
X17557206Y-13136409D02*
X17576253Y-13145933D01*
X17576253Y-13145933D02*
X17585777Y-13155456D01*
X17585777Y-13155456D02*
X17595301Y-13174504D01*
X17595301Y-13174504D02*
X17595301Y-13231647D01*
X17595301Y-13231647D02*
X17585777Y-13250694D01*
X17585777Y-13250694D02*
X17576253Y-13260218D01*
X17576253Y-13260218D02*
X17557206Y-13269742D01*
X17557206Y-13269742D02*
X17528634Y-13269742D01*
X17709587Y-13269742D02*
X17690539Y-13260218D01*
X17690539Y-13260218D02*
X17681015Y-13241171D01*
X17681015Y-13241171D02*
X17681015Y-13069742D01*
X17861968Y-13260218D02*
X17842920Y-13269742D01*
X17842920Y-13269742D02*
X17804825Y-13269742D01*
X17804825Y-13269742D02*
X17785777Y-13260218D01*
X17785777Y-13260218D02*
X17776253Y-13241171D01*
X17776253Y-13241171D02*
X17776253Y-13164980D01*
X17776253Y-13164980D02*
X17785777Y-13145933D01*
X17785777Y-13145933D02*
X17804825Y-13136409D01*
X17804825Y-13136409D02*
X17842920Y-13136409D01*
X17842920Y-13136409D02*
X17861968Y-13145933D01*
X17861968Y-13145933D02*
X17871492Y-13164980D01*
X17871492Y-13164980D02*
X17871492Y-13184028D01*
X17871492Y-13184028D02*
X17776253Y-13203075D01*
X17947682Y-13260218D02*
X17966730Y-13269742D01*
X17966730Y-13269742D02*
X18004825Y-13269742D01*
X18004825Y-13269742D02*
X18023873Y-13260218D01*
X18023873Y-13260218D02*
X18033396Y-13241171D01*
X18033396Y-13241171D02*
X18033396Y-13231647D01*
X18033396Y-13231647D02*
X18023873Y-13212599D01*
X18023873Y-13212599D02*
X18004825Y-13203075D01*
X18004825Y-13203075D02*
X17976253Y-13203075D01*
X17976253Y-13203075D02*
X17957206Y-13193552D01*
X17957206Y-13193552D02*
X17947682Y-13174504D01*
X17947682Y-13174504D02*
X17947682Y-13164980D01*
X17947682Y-13164980D02*
X17957206Y-13145933D01*
X17957206Y-13145933D02*
X17976253Y-13136409D01*
X17976253Y-13136409D02*
X18004825Y-13136409D01*
X18004825Y-13136409D02*
X18023873Y-13145933D01*
X18100063Y-13345933D02*
X18109587Y-13336409D01*
X18109587Y-13336409D02*
X18128634Y-13307837D01*
X18128634Y-13307837D02*
X18138158Y-13288790D01*
X18138158Y-13288790D02*
X18147682Y-13260218D01*
X18147682Y-13260218D02*
X18157206Y-13212599D01*
X18157206Y-13212599D02*
X18157206Y-13174504D01*
X18157206Y-13174504D02*
X18147682Y-13126885D01*
X18147682Y-13126885D02*
X18138158Y-13098314D01*
X18138158Y-13098314D02*
X18128634Y-13079266D01*
X18128634Y-13079266D02*
X18109587Y-13050694D01*
X18109587Y-13050694D02*
X18100063Y-13041171D01*
D11*
X13310356Y-13477614D02*
X13310356Y-13406903D01*
X13239644Y-13406903D01*
X13239644Y-13477614D01*
X13310356Y-13477614D01*
D10*
X13690539Y-13533742D02*
X13576253Y-13533742D01*
X13633396Y-13533742D02*
X13633396Y-13333742D01*
X13633396Y-13333742D02*
X13614348Y-13362314D01*
X13614348Y-13362314D02*
X13595301Y-13381361D01*
X13595301Y-13381361D02*
X13576253Y-13390885D01*
X13776253Y-13514694D02*
X13785777Y-13524218D01*
X13785777Y-13524218D02*
X13776253Y-13533742D01*
X13776253Y-13533742D02*
X13766729Y-13524218D01*
X13766729Y-13524218D02*
X13776253Y-13514694D01*
X13776253Y-13514694D02*
X13776253Y-13533742D01*
X13909586Y-13333742D02*
X13928634Y-13333742D01*
X13928634Y-13333742D02*
X13947682Y-13343266D01*
X13947682Y-13343266D02*
X13957205Y-13352790D01*
X13957205Y-13352790D02*
X13966729Y-13371837D01*
X13966729Y-13371837D02*
X13976253Y-13409933D01*
X13976253Y-13409933D02*
X13976253Y-13457552D01*
X13976253Y-13457552D02*
X13966729Y-13495647D01*
X13966729Y-13495647D02*
X13957205Y-13514694D01*
X13957205Y-13514694D02*
X13947682Y-13524218D01*
X13947682Y-13524218D02*
X13928634Y-13533742D01*
X13928634Y-13533742D02*
X13909586Y-13533742D01*
X13909586Y-13533742D02*
X13890539Y-13524218D01*
X13890539Y-13524218D02*
X13881015Y-13514694D01*
X13881015Y-13514694D02*
X13871491Y-13495647D01*
X13871491Y-13495647D02*
X13861967Y-13457552D01*
X13861967Y-13457552D02*
X13861967Y-13409933D01*
X13861967Y-13409933D02*
X13871491Y-13371837D01*
X13871491Y-13371837D02*
X13881015Y-13352790D01*
X13881015Y-13352790D02*
X13890539Y-13343266D01*
X13890539Y-13343266D02*
X13909586Y-13333742D01*
X14100062Y-13333742D02*
X14119110Y-13333742D01*
X14119110Y-13333742D02*
X14138158Y-13343266D01*
X14138158Y-13343266D02*
X14147682Y-13352790D01*
X14147682Y-13352790D02*
X14157205Y-13371837D01*
X14157205Y-13371837D02*
X14166729Y-13409933D01*
X14166729Y-13409933D02*
X14166729Y-13457552D01*
X14166729Y-13457552D02*
X14157205Y-13495647D01*
X14157205Y-13495647D02*
X14147682Y-13514694D01*
X14147682Y-13514694D02*
X14138158Y-13524218D01*
X14138158Y-13524218D02*
X14119110Y-13533742D01*
X14119110Y-13533742D02*
X14100062Y-13533742D01*
X14100062Y-13533742D02*
X14081015Y-13524218D01*
X14081015Y-13524218D02*
X14071491Y-13514694D01*
X14071491Y-13514694D02*
X14061967Y-13495647D01*
X14061967Y-13495647D02*
X14052443Y-13457552D01*
X14052443Y-13457552D02*
X14052443Y-13409933D01*
X14052443Y-13409933D02*
X14061967Y-13371837D01*
X14061967Y-13371837D02*
X14071491Y-13352790D01*
X14071491Y-13352790D02*
X14081015Y-13343266D01*
X14081015Y-13343266D02*
X14100062Y-13333742D01*
X14290539Y-13333742D02*
X14309586Y-13333742D01*
X14309586Y-13333742D02*
X14328634Y-13343266D01*
X14328634Y-13343266D02*
X14338158Y-13352790D01*
X14338158Y-13352790D02*
X14347682Y-13371837D01*
X14347682Y-13371837D02*
X14357205Y-13409933D01*
X14357205Y-13409933D02*
X14357205Y-13457552D01*
X14357205Y-13457552D02*
X14347682Y-13495647D01*
X14347682Y-13495647D02*
X14338158Y-13514694D01*
X14338158Y-13514694D02*
X14328634Y-13524218D01*
X14328634Y-13524218D02*
X14309586Y-13533742D01*
X14309586Y-13533742D02*
X14290539Y-13533742D01*
X14290539Y-13533742D02*
X14271491Y-13524218D01*
X14271491Y-13524218D02*
X14261967Y-13514694D01*
X14261967Y-13514694D02*
X14252443Y-13495647D01*
X14252443Y-13495647D02*
X14242920Y-13457552D01*
X14242920Y-13457552D02*
X14242920Y-13409933D01*
X14242920Y-13409933D02*
X14252443Y-13371837D01*
X14252443Y-13371837D02*
X14261967Y-13352790D01*
X14261967Y-13352790D02*
X14271491Y-13343266D01*
X14271491Y-13343266D02*
X14290539Y-13333742D01*
X14442920Y-13533742D02*
X14442920Y-13400409D01*
X14442920Y-13419456D02*
X14452443Y-13409933D01*
X14452443Y-13409933D02*
X14471491Y-13400409D01*
X14471491Y-13400409D02*
X14500063Y-13400409D01*
X14500063Y-13400409D02*
X14519110Y-13409933D01*
X14519110Y-13409933D02*
X14528634Y-13428980D01*
X14528634Y-13428980D02*
X14528634Y-13533742D01*
X14528634Y-13428980D02*
X14538158Y-13409933D01*
X14538158Y-13409933D02*
X14557205Y-13400409D01*
X14557205Y-13400409D02*
X14585777Y-13400409D01*
X14585777Y-13400409D02*
X14604824Y-13409933D01*
X14604824Y-13409933D02*
X14614348Y-13428980D01*
X14614348Y-13428980D02*
X14614348Y-13533742D01*
X14709586Y-13533742D02*
X14709586Y-13400409D01*
X14709586Y-13419456D02*
X14719110Y-13409933D01*
X14719110Y-13409933D02*
X14738158Y-13400409D01*
X14738158Y-13400409D02*
X14766729Y-13400409D01*
X14766729Y-13400409D02*
X14785777Y-13409933D01*
X14785777Y-13409933D02*
X14795301Y-13428980D01*
X14795301Y-13428980D02*
X14795301Y-13533742D01*
X14795301Y-13428980D02*
X14804824Y-13409933D01*
X14804824Y-13409933D02*
X14823872Y-13400409D01*
X14823872Y-13400409D02*
X14852443Y-13400409D01*
X14852443Y-13400409D02*
X14871491Y-13409933D01*
X14871491Y-13409933D02*
X14881015Y-13428980D01*
X14881015Y-13428980D02*
X14881015Y-13533742D01*
X15271491Y-13324218D02*
X15100063Y-13581361D01*
X15528634Y-13333742D02*
X15547682Y-13333742D01*
X15547682Y-13333742D02*
X15566729Y-13343266D01*
X15566729Y-13343266D02*
X15576253Y-13352790D01*
X15576253Y-13352790D02*
X15585777Y-13371837D01*
X15585777Y-13371837D02*
X15595301Y-13409933D01*
X15595301Y-13409933D02*
X15595301Y-13457552D01*
X15595301Y-13457552D02*
X15585777Y-13495647D01*
X15585777Y-13495647D02*
X15576253Y-13514694D01*
X15576253Y-13514694D02*
X15566729Y-13524218D01*
X15566729Y-13524218D02*
X15547682Y-13533742D01*
X15547682Y-13533742D02*
X15528634Y-13533742D01*
X15528634Y-13533742D02*
X15509586Y-13524218D01*
X15509586Y-13524218D02*
X15500063Y-13514694D01*
X15500063Y-13514694D02*
X15490539Y-13495647D01*
X15490539Y-13495647D02*
X15481015Y-13457552D01*
X15481015Y-13457552D02*
X15481015Y-13409933D01*
X15481015Y-13409933D02*
X15490539Y-13371837D01*
X15490539Y-13371837D02*
X15500063Y-13352790D01*
X15500063Y-13352790D02*
X15509586Y-13343266D01*
X15509586Y-13343266D02*
X15528634Y-13333742D01*
X15681015Y-13514694D02*
X15690539Y-13524218D01*
X15690539Y-13524218D02*
X15681015Y-13533742D01*
X15681015Y-13533742D02*
X15671491Y-13524218D01*
X15671491Y-13524218D02*
X15681015Y-13514694D01*
X15681015Y-13514694D02*
X15681015Y-13533742D01*
X15814348Y-13333742D02*
X15833396Y-13333742D01*
X15833396Y-13333742D02*
X15852444Y-13343266D01*
X15852444Y-13343266D02*
X15861967Y-13352790D01*
X15861967Y-13352790D02*
X15871491Y-13371837D01*
X15871491Y-13371837D02*
X15881015Y-13409933D01*
X15881015Y-13409933D02*
X15881015Y-13457552D01*
X15881015Y-13457552D02*
X15871491Y-13495647D01*
X15871491Y-13495647D02*
X15861967Y-13514694D01*
X15861967Y-13514694D02*
X15852444Y-13524218D01*
X15852444Y-13524218D02*
X15833396Y-13533742D01*
X15833396Y-13533742D02*
X15814348Y-13533742D01*
X15814348Y-13533742D02*
X15795301Y-13524218D01*
X15795301Y-13524218D02*
X15785777Y-13514694D01*
X15785777Y-13514694D02*
X15776253Y-13495647D01*
X15776253Y-13495647D02*
X15766729Y-13457552D01*
X15766729Y-13457552D02*
X15766729Y-13409933D01*
X15766729Y-13409933D02*
X15776253Y-13371837D01*
X15776253Y-13371837D02*
X15785777Y-13352790D01*
X15785777Y-13352790D02*
X15795301Y-13343266D01*
X15795301Y-13343266D02*
X15814348Y-13333742D01*
X15947682Y-13333742D02*
X16071491Y-13333742D01*
X16071491Y-13333742D02*
X16004825Y-13409933D01*
X16004825Y-13409933D02*
X16033396Y-13409933D01*
X16033396Y-13409933D02*
X16052444Y-13419456D01*
X16052444Y-13419456D02*
X16061967Y-13428980D01*
X16061967Y-13428980D02*
X16071491Y-13448028D01*
X16071491Y-13448028D02*
X16071491Y-13495647D01*
X16071491Y-13495647D02*
X16061967Y-13514694D01*
X16061967Y-13514694D02*
X16052444Y-13524218D01*
X16052444Y-13524218D02*
X16033396Y-13533742D01*
X16033396Y-13533742D02*
X15976253Y-13533742D01*
X15976253Y-13533742D02*
X15957206Y-13524218D01*
X15957206Y-13524218D02*
X15947682Y-13514694D01*
X16166729Y-13533742D02*
X16204825Y-13533742D01*
X16204825Y-13533742D02*
X16223872Y-13524218D01*
X16223872Y-13524218D02*
X16233396Y-13514694D01*
X16233396Y-13514694D02*
X16252444Y-13486123D01*
X16252444Y-13486123D02*
X16261967Y-13448028D01*
X16261967Y-13448028D02*
X16261967Y-13371837D01*
X16261967Y-13371837D02*
X16252444Y-13352790D01*
X16252444Y-13352790D02*
X16242920Y-13343266D01*
X16242920Y-13343266D02*
X16223872Y-13333742D01*
X16223872Y-13333742D02*
X16185777Y-13333742D01*
X16185777Y-13333742D02*
X16166729Y-13343266D01*
X16166729Y-13343266D02*
X16157206Y-13352790D01*
X16157206Y-13352790D02*
X16147682Y-13371837D01*
X16147682Y-13371837D02*
X16147682Y-13419456D01*
X16147682Y-13419456D02*
X16157206Y-13438504D01*
X16157206Y-13438504D02*
X16166729Y-13448028D01*
X16166729Y-13448028D02*
X16185777Y-13457552D01*
X16185777Y-13457552D02*
X16223872Y-13457552D01*
X16223872Y-13457552D02*
X16242920Y-13448028D01*
X16242920Y-13448028D02*
X16252444Y-13438504D01*
X16252444Y-13438504D02*
X16261967Y-13419456D01*
X16433396Y-13400409D02*
X16433396Y-13533742D01*
X16385777Y-13324218D02*
X16338158Y-13467075D01*
X16338158Y-13467075D02*
X16461967Y-13467075D01*
X16528634Y-13333742D02*
X16528634Y-13371837D01*
X16604825Y-13333742D02*
X16604825Y-13371837D01*
X16900063Y-13609933D02*
X16890539Y-13600409D01*
X16890539Y-13600409D02*
X16871491Y-13571837D01*
X16871491Y-13571837D02*
X16861968Y-13552790D01*
X16861968Y-13552790D02*
X16852444Y-13524218D01*
X16852444Y-13524218D02*
X16842920Y-13476599D01*
X16842920Y-13476599D02*
X16842920Y-13438504D01*
X16842920Y-13438504D02*
X16852444Y-13390885D01*
X16852444Y-13390885D02*
X16861968Y-13362314D01*
X16861968Y-13362314D02*
X16871491Y-13343266D01*
X16871491Y-13343266D02*
X16890539Y-13314694D01*
X16890539Y-13314694D02*
X16900063Y-13305171D01*
X16966730Y-13352790D02*
X16976253Y-13343266D01*
X16976253Y-13343266D02*
X16995301Y-13333742D01*
X16995301Y-13333742D02*
X17042920Y-13333742D01*
X17042920Y-13333742D02*
X17061968Y-13343266D01*
X17061968Y-13343266D02*
X17071491Y-13352790D01*
X17071491Y-13352790D02*
X17081015Y-13371837D01*
X17081015Y-13371837D02*
X17081015Y-13390885D01*
X17081015Y-13390885D02*
X17071491Y-13419456D01*
X17071491Y-13419456D02*
X16957206Y-13533742D01*
X16957206Y-13533742D02*
X17081015Y-13533742D01*
X17252444Y-13400409D02*
X17252444Y-13533742D01*
X17204825Y-13324218D02*
X17157206Y-13467075D01*
X17157206Y-13467075D02*
X17281015Y-13467075D01*
X17509587Y-13533742D02*
X17509587Y-13333742D01*
X17595301Y-13533742D02*
X17595301Y-13428980D01*
X17595301Y-13428980D02*
X17585777Y-13409933D01*
X17585777Y-13409933D02*
X17566730Y-13400409D01*
X17566730Y-13400409D02*
X17538158Y-13400409D01*
X17538158Y-13400409D02*
X17519111Y-13409933D01*
X17519111Y-13409933D02*
X17509587Y-13419456D01*
X17719111Y-13533742D02*
X17700063Y-13524218D01*
X17700063Y-13524218D02*
X17690539Y-13514694D01*
X17690539Y-13514694D02*
X17681015Y-13495647D01*
X17681015Y-13495647D02*
X17681015Y-13438504D01*
X17681015Y-13438504D02*
X17690539Y-13419456D01*
X17690539Y-13419456D02*
X17700063Y-13409933D01*
X17700063Y-13409933D02*
X17719111Y-13400409D01*
X17719111Y-13400409D02*
X17747682Y-13400409D01*
X17747682Y-13400409D02*
X17766730Y-13409933D01*
X17766730Y-13409933D02*
X17776253Y-13419456D01*
X17776253Y-13419456D02*
X17785777Y-13438504D01*
X17785777Y-13438504D02*
X17785777Y-13495647D01*
X17785777Y-13495647D02*
X17776253Y-13514694D01*
X17776253Y-13514694D02*
X17766730Y-13524218D01*
X17766730Y-13524218D02*
X17747682Y-13533742D01*
X17747682Y-13533742D02*
X17719111Y-13533742D01*
X17900063Y-13533742D02*
X17881015Y-13524218D01*
X17881015Y-13524218D02*
X17871492Y-13505171D01*
X17871492Y-13505171D02*
X17871492Y-13333742D01*
X18052444Y-13524218D02*
X18033396Y-13533742D01*
X18033396Y-13533742D02*
X17995301Y-13533742D01*
X17995301Y-13533742D02*
X17976253Y-13524218D01*
X17976253Y-13524218D02*
X17966730Y-13505171D01*
X17966730Y-13505171D02*
X17966730Y-13428980D01*
X17966730Y-13428980D02*
X17976253Y-13409933D01*
X17976253Y-13409933D02*
X17995301Y-13400409D01*
X17995301Y-13400409D02*
X18033396Y-13400409D01*
X18033396Y-13400409D02*
X18052444Y-13409933D01*
X18052444Y-13409933D02*
X18061968Y-13428980D01*
X18061968Y-13428980D02*
X18061968Y-13448028D01*
X18061968Y-13448028D02*
X17966730Y-13467075D01*
X18138158Y-13524218D02*
X18157206Y-13533742D01*
X18157206Y-13533742D02*
X18195301Y-13533742D01*
X18195301Y-13533742D02*
X18214349Y-13524218D01*
X18214349Y-13524218D02*
X18223873Y-13505171D01*
X18223873Y-13505171D02*
X18223873Y-13495647D01*
X18223873Y-13495647D02*
X18214349Y-13476599D01*
X18214349Y-13476599D02*
X18195301Y-13467075D01*
X18195301Y-13467075D02*
X18166730Y-13467075D01*
X18166730Y-13467075D02*
X18147682Y-13457552D01*
X18147682Y-13457552D02*
X18138158Y-13438504D01*
X18138158Y-13438504D02*
X18138158Y-13428980D01*
X18138158Y-13428980D02*
X18147682Y-13409933D01*
X18147682Y-13409933D02*
X18166730Y-13400409D01*
X18166730Y-13400409D02*
X18195301Y-13400409D01*
X18195301Y-13400409D02*
X18214349Y-13409933D01*
X18290539Y-13609933D02*
X18300063Y-13600409D01*
X18300063Y-13600409D02*
X18319111Y-13571837D01*
X18319111Y-13571837D02*
X18328634Y-13552790D01*
X18328634Y-13552790D02*
X18338158Y-13524218D01*
X18338158Y-13524218D02*
X18347682Y-13476599D01*
X18347682Y-13476599D02*
X18347682Y-13438504D01*
X18347682Y-13438504D02*
X18338158Y-13390885D01*
X18338158Y-13390885D02*
X18328634Y-13362314D01*
X18328634Y-13362314D02*
X18319111Y-13343266D01*
X18319111Y-13343266D02*
X18300063Y-13314694D01*
X18300063Y-13314694D02*
X18290539Y-13305171D01*
D12*
X13260000Y-13771258D02*
X13325000Y-13706258D01*
X13260000Y-13641258D01*
X13195000Y-13706258D01*
X13260000Y-13771258D01*
D10*
X13690539Y-13797742D02*
X13576253Y-13797742D01*
X13633396Y-13797742D02*
X13633396Y-13597742D01*
X13633396Y-13597742D02*
X13614348Y-13626314D01*
X13614348Y-13626314D02*
X13595301Y-13645361D01*
X13595301Y-13645361D02*
X13576253Y-13654885D01*
X13776253Y-13778694D02*
X13785777Y-13788218D01*
X13785777Y-13788218D02*
X13776253Y-13797742D01*
X13776253Y-13797742D02*
X13766729Y-13788218D01*
X13766729Y-13788218D02*
X13776253Y-13778694D01*
X13776253Y-13778694D02*
X13776253Y-13797742D01*
X13852443Y-13597742D02*
X13976253Y-13597742D01*
X13976253Y-13597742D02*
X13909586Y-13673933D01*
X13909586Y-13673933D02*
X13938158Y-13673933D01*
X13938158Y-13673933D02*
X13957205Y-13683456D01*
X13957205Y-13683456D02*
X13966729Y-13692980D01*
X13966729Y-13692980D02*
X13976253Y-13712028D01*
X13976253Y-13712028D02*
X13976253Y-13759647D01*
X13976253Y-13759647D02*
X13966729Y-13778694D01*
X13966729Y-13778694D02*
X13957205Y-13788218D01*
X13957205Y-13788218D02*
X13938158Y-13797742D01*
X13938158Y-13797742D02*
X13881015Y-13797742D01*
X13881015Y-13797742D02*
X13861967Y-13788218D01*
X13861967Y-13788218D02*
X13852443Y-13778694D01*
X14100062Y-13597742D02*
X14119110Y-13597742D01*
X14119110Y-13597742D02*
X14138158Y-13607266D01*
X14138158Y-13607266D02*
X14147682Y-13616790D01*
X14147682Y-13616790D02*
X14157205Y-13635837D01*
X14157205Y-13635837D02*
X14166729Y-13673933D01*
X14166729Y-13673933D02*
X14166729Y-13721552D01*
X14166729Y-13721552D02*
X14157205Y-13759647D01*
X14157205Y-13759647D02*
X14147682Y-13778694D01*
X14147682Y-13778694D02*
X14138158Y-13788218D01*
X14138158Y-13788218D02*
X14119110Y-13797742D01*
X14119110Y-13797742D02*
X14100062Y-13797742D01*
X14100062Y-13797742D02*
X14081015Y-13788218D01*
X14081015Y-13788218D02*
X14071491Y-13778694D01*
X14071491Y-13778694D02*
X14061967Y-13759647D01*
X14061967Y-13759647D02*
X14052443Y-13721552D01*
X14052443Y-13721552D02*
X14052443Y-13673933D01*
X14052443Y-13673933D02*
X14061967Y-13635837D01*
X14061967Y-13635837D02*
X14071491Y-13616790D01*
X14071491Y-13616790D02*
X14081015Y-13607266D01*
X14081015Y-13607266D02*
X14100062Y-13597742D01*
X14290539Y-13597742D02*
X14309586Y-13597742D01*
X14309586Y-13597742D02*
X14328634Y-13607266D01*
X14328634Y-13607266D02*
X14338158Y-13616790D01*
X14338158Y-13616790D02*
X14347682Y-13635837D01*
X14347682Y-13635837D02*
X14357205Y-13673933D01*
X14357205Y-13673933D02*
X14357205Y-13721552D01*
X14357205Y-13721552D02*
X14347682Y-13759647D01*
X14347682Y-13759647D02*
X14338158Y-13778694D01*
X14338158Y-13778694D02*
X14328634Y-13788218D01*
X14328634Y-13788218D02*
X14309586Y-13797742D01*
X14309586Y-13797742D02*
X14290539Y-13797742D01*
X14290539Y-13797742D02*
X14271491Y-13788218D01*
X14271491Y-13788218D02*
X14261967Y-13778694D01*
X14261967Y-13778694D02*
X14252443Y-13759647D01*
X14252443Y-13759647D02*
X14242920Y-13721552D01*
X14242920Y-13721552D02*
X14242920Y-13673933D01*
X14242920Y-13673933D02*
X14252443Y-13635837D01*
X14252443Y-13635837D02*
X14261967Y-13616790D01*
X14261967Y-13616790D02*
X14271491Y-13607266D01*
X14271491Y-13607266D02*
X14290539Y-13597742D01*
X14442920Y-13797742D02*
X14442920Y-13664409D01*
X14442920Y-13683456D02*
X14452443Y-13673933D01*
X14452443Y-13673933D02*
X14471491Y-13664409D01*
X14471491Y-13664409D02*
X14500063Y-13664409D01*
X14500063Y-13664409D02*
X14519110Y-13673933D01*
X14519110Y-13673933D02*
X14528634Y-13692980D01*
X14528634Y-13692980D02*
X14528634Y-13797742D01*
X14528634Y-13692980D02*
X14538158Y-13673933D01*
X14538158Y-13673933D02*
X14557205Y-13664409D01*
X14557205Y-13664409D02*
X14585777Y-13664409D01*
X14585777Y-13664409D02*
X14604824Y-13673933D01*
X14604824Y-13673933D02*
X14614348Y-13692980D01*
X14614348Y-13692980D02*
X14614348Y-13797742D01*
X14709586Y-13797742D02*
X14709586Y-13664409D01*
X14709586Y-13683456D02*
X14719110Y-13673933D01*
X14719110Y-13673933D02*
X14738158Y-13664409D01*
X14738158Y-13664409D02*
X14766729Y-13664409D01*
X14766729Y-13664409D02*
X14785777Y-13673933D01*
X14785777Y-13673933D02*
X14795301Y-13692980D01*
X14795301Y-13692980D02*
X14795301Y-13797742D01*
X14795301Y-13692980D02*
X14804824Y-13673933D01*
X14804824Y-13673933D02*
X14823872Y-13664409D01*
X14823872Y-13664409D02*
X14852443Y-13664409D01*
X14852443Y-13664409D02*
X14871491Y-13673933D01*
X14871491Y-13673933D02*
X14881015Y-13692980D01*
X14881015Y-13692980D02*
X14881015Y-13797742D01*
X15271491Y-13588218D02*
X15100063Y-13845361D01*
X15528634Y-13597742D02*
X15547682Y-13597742D01*
X15547682Y-13597742D02*
X15566729Y-13607266D01*
X15566729Y-13607266D02*
X15576253Y-13616790D01*
X15576253Y-13616790D02*
X15585777Y-13635837D01*
X15585777Y-13635837D02*
X15595301Y-13673933D01*
X15595301Y-13673933D02*
X15595301Y-13721552D01*
X15595301Y-13721552D02*
X15585777Y-13759647D01*
X15585777Y-13759647D02*
X15576253Y-13778694D01*
X15576253Y-13778694D02*
X15566729Y-13788218D01*
X15566729Y-13788218D02*
X15547682Y-13797742D01*
X15547682Y-13797742D02*
X15528634Y-13797742D01*
X15528634Y-13797742D02*
X15509586Y-13788218D01*
X15509586Y-13788218D02*
X15500063Y-13778694D01*
X15500063Y-13778694D02*
X15490539Y-13759647D01*
X15490539Y-13759647D02*
X15481015Y-13721552D01*
X15481015Y-13721552D02*
X15481015Y-13673933D01*
X15481015Y-13673933D02*
X15490539Y-13635837D01*
X15490539Y-13635837D02*
X15500063Y-13616790D01*
X15500063Y-13616790D02*
X15509586Y-13607266D01*
X15509586Y-13607266D02*
X15528634Y-13597742D01*
X15681015Y-13778694D02*
X15690539Y-13788218D01*
X15690539Y-13788218D02*
X15681015Y-13797742D01*
X15681015Y-13797742D02*
X15671491Y-13788218D01*
X15671491Y-13788218D02*
X15681015Y-13778694D01*
X15681015Y-13778694D02*
X15681015Y-13797742D01*
X15814348Y-13597742D02*
X15833396Y-13597742D01*
X15833396Y-13597742D02*
X15852444Y-13607266D01*
X15852444Y-13607266D02*
X15861967Y-13616790D01*
X15861967Y-13616790D02*
X15871491Y-13635837D01*
X15871491Y-13635837D02*
X15881015Y-13673933D01*
X15881015Y-13673933D02*
X15881015Y-13721552D01*
X15881015Y-13721552D02*
X15871491Y-13759647D01*
X15871491Y-13759647D02*
X15861967Y-13778694D01*
X15861967Y-13778694D02*
X15852444Y-13788218D01*
X15852444Y-13788218D02*
X15833396Y-13797742D01*
X15833396Y-13797742D02*
X15814348Y-13797742D01*
X15814348Y-13797742D02*
X15795301Y-13788218D01*
X15795301Y-13788218D02*
X15785777Y-13778694D01*
X15785777Y-13778694D02*
X15776253Y-13759647D01*
X15776253Y-13759647D02*
X15766729Y-13721552D01*
X15766729Y-13721552D02*
X15766729Y-13673933D01*
X15766729Y-13673933D02*
X15776253Y-13635837D01*
X15776253Y-13635837D02*
X15785777Y-13616790D01*
X15785777Y-13616790D02*
X15795301Y-13607266D01*
X15795301Y-13607266D02*
X15814348Y-13597742D01*
X16061967Y-13597742D02*
X15966729Y-13597742D01*
X15966729Y-13597742D02*
X15957206Y-13692980D01*
X15957206Y-13692980D02*
X15966729Y-13683456D01*
X15966729Y-13683456D02*
X15985777Y-13673933D01*
X15985777Y-13673933D02*
X16033396Y-13673933D01*
X16033396Y-13673933D02*
X16052444Y-13683456D01*
X16052444Y-13683456D02*
X16061967Y-13692980D01*
X16061967Y-13692980D02*
X16071491Y-13712028D01*
X16071491Y-13712028D02*
X16071491Y-13759647D01*
X16071491Y-13759647D02*
X16061967Y-13778694D01*
X16061967Y-13778694D02*
X16052444Y-13788218D01*
X16052444Y-13788218D02*
X16033396Y-13797742D01*
X16033396Y-13797742D02*
X15985777Y-13797742D01*
X15985777Y-13797742D02*
X15966729Y-13788218D01*
X15966729Y-13788218D02*
X15957206Y-13778694D01*
X16261967Y-13797742D02*
X16147682Y-13797742D01*
X16204825Y-13797742D02*
X16204825Y-13597742D01*
X16204825Y-13597742D02*
X16185777Y-13626314D01*
X16185777Y-13626314D02*
X16166729Y-13645361D01*
X16166729Y-13645361D02*
X16147682Y-13654885D01*
X16338158Y-13616790D02*
X16347682Y-13607266D01*
X16347682Y-13607266D02*
X16366729Y-13597742D01*
X16366729Y-13597742D02*
X16414348Y-13597742D01*
X16414348Y-13597742D02*
X16433396Y-13607266D01*
X16433396Y-13607266D02*
X16442920Y-13616790D01*
X16442920Y-13616790D02*
X16452444Y-13635837D01*
X16452444Y-13635837D02*
X16452444Y-13654885D01*
X16452444Y-13654885D02*
X16442920Y-13683456D01*
X16442920Y-13683456D02*
X16328634Y-13797742D01*
X16328634Y-13797742D02*
X16452444Y-13797742D01*
X16528634Y-13597742D02*
X16528634Y-13635837D01*
X16604825Y-13597742D02*
X16604825Y-13635837D01*
X16900063Y-13873933D02*
X16890539Y-13864409D01*
X16890539Y-13864409D02*
X16871491Y-13835837D01*
X16871491Y-13835837D02*
X16861968Y-13816790D01*
X16861968Y-13816790D02*
X16852444Y-13788218D01*
X16852444Y-13788218D02*
X16842920Y-13740599D01*
X16842920Y-13740599D02*
X16842920Y-13702504D01*
X16842920Y-13702504D02*
X16852444Y-13654885D01*
X16852444Y-13654885D02*
X16861968Y-13626314D01*
X16861968Y-13626314D02*
X16871491Y-13607266D01*
X16871491Y-13607266D02*
X16890539Y-13578694D01*
X16890539Y-13578694D02*
X16900063Y-13569171D01*
X17061968Y-13664409D02*
X17061968Y-13797742D01*
X17014349Y-13588218D02*
X16966730Y-13731075D01*
X16966730Y-13731075D02*
X17090539Y-13731075D01*
X17319111Y-13797742D02*
X17319111Y-13597742D01*
X17404825Y-13797742D02*
X17404825Y-13692980D01*
X17404825Y-13692980D02*
X17395301Y-13673933D01*
X17395301Y-13673933D02*
X17376253Y-13664409D01*
X17376253Y-13664409D02*
X17347682Y-13664409D01*
X17347682Y-13664409D02*
X17328634Y-13673933D01*
X17328634Y-13673933D02*
X17319111Y-13683456D01*
X17528634Y-13797742D02*
X17509587Y-13788218D01*
X17509587Y-13788218D02*
X17500063Y-13778694D01*
X17500063Y-13778694D02*
X17490539Y-13759647D01*
X17490539Y-13759647D02*
X17490539Y-13702504D01*
X17490539Y-13702504D02*
X17500063Y-13683456D01*
X17500063Y-13683456D02*
X17509587Y-13673933D01*
X17509587Y-13673933D02*
X17528634Y-13664409D01*
X17528634Y-13664409D02*
X17557206Y-13664409D01*
X17557206Y-13664409D02*
X17576253Y-13673933D01*
X17576253Y-13673933D02*
X17585777Y-13683456D01*
X17585777Y-13683456D02*
X17595301Y-13702504D01*
X17595301Y-13702504D02*
X17595301Y-13759647D01*
X17595301Y-13759647D02*
X17585777Y-13778694D01*
X17585777Y-13778694D02*
X17576253Y-13788218D01*
X17576253Y-13788218D02*
X17557206Y-13797742D01*
X17557206Y-13797742D02*
X17528634Y-13797742D01*
X17709587Y-13797742D02*
X17690539Y-13788218D01*
X17690539Y-13788218D02*
X17681015Y-13769171D01*
X17681015Y-13769171D02*
X17681015Y-13597742D01*
X17861968Y-13788218D02*
X17842920Y-13797742D01*
X17842920Y-13797742D02*
X17804825Y-13797742D01*
X17804825Y-13797742D02*
X17785777Y-13788218D01*
X17785777Y-13788218D02*
X17776253Y-13769171D01*
X17776253Y-13769171D02*
X17776253Y-13692980D01*
X17776253Y-13692980D02*
X17785777Y-13673933D01*
X17785777Y-13673933D02*
X17804825Y-13664409D01*
X17804825Y-13664409D02*
X17842920Y-13664409D01*
X17842920Y-13664409D02*
X17861968Y-13673933D01*
X17861968Y-13673933D02*
X17871492Y-13692980D01*
X17871492Y-13692980D02*
X17871492Y-13712028D01*
X17871492Y-13712028D02*
X17776253Y-13731075D01*
X17947682Y-13788218D02*
X17966730Y-13797742D01*
X17966730Y-13797742D02*
X18004825Y-13797742D01*
X18004825Y-13797742D02*
X18023873Y-13788218D01*
X18023873Y-13788218D02*
X18033396Y-13769171D01*
X18033396Y-13769171D02*
X18033396Y-13759647D01*
X18033396Y-13759647D02*
X18023873Y-13740599D01*
X18023873Y-13740599D02*
X18004825Y-13731075D01*
X18004825Y-13731075D02*
X17976253Y-13731075D01*
X17976253Y-13731075D02*
X17957206Y-13721552D01*
X17957206Y-13721552D02*
X17947682Y-13702504D01*
X17947682Y-13702504D02*
X17947682Y-13692980D01*
X17947682Y-13692980D02*
X17957206Y-13673933D01*
X17957206Y-13673933D02*
X17976253Y-13664409D01*
X17976253Y-13664409D02*
X18004825Y-13664409D01*
X18004825Y-13664409D02*
X18023873Y-13673933D01*
X18100063Y-13873933D02*
X18109587Y-13864409D01*
X18109587Y-13864409D02*
X18128634Y-13835837D01*
X18128634Y-13835837D02*
X18138158Y-13816790D01*
X18138158Y-13816790D02*
X18147682Y-13788218D01*
X18147682Y-13788218D02*
X18157206Y-13740599D01*
X18157206Y-13740599D02*
X18157206Y-13702504D01*
X18157206Y-13702504D02*
X18147682Y-13654885D01*
X18147682Y-13654885D02*
X18138158Y-13626314D01*
X18138158Y-13626314D02*
X18128634Y-13607266D01*
X18128634Y-13607266D02*
X18109587Y-13578694D01*
X18109587Y-13578694D02*
X18100063Y-13569171D01*
D13*
X13135000Y-13875258D02*
X13325000Y-14065258D01*
X13325000Y-13875258D02*
X13135000Y-14065258D01*
X13325000Y-13970258D02*
G75*
G03*
X13135000Y-13970258I-95000J0D01*
G01*
X13135000Y-13970258D02*
G75*
G03*
X13325000Y-13970258I95000J0D01*
G01*
D10*
X13690539Y-14061742D02*
X13576253Y-14061742D01*
X13633396Y-14061742D02*
X13633396Y-13861742D01*
X13633396Y-13861742D02*
X13614348Y-13890314D01*
X13614348Y-13890314D02*
X13595301Y-13909361D01*
X13595301Y-13909361D02*
X13576253Y-13918885D01*
X13776253Y-14042694D02*
X13785777Y-14052218D01*
X13785777Y-14052218D02*
X13776253Y-14061742D01*
X13776253Y-14061742D02*
X13766729Y-14052218D01*
X13766729Y-14052218D02*
X13776253Y-14042694D01*
X13776253Y-14042694D02*
X13776253Y-14061742D01*
X13881015Y-14061742D02*
X13919110Y-14061742D01*
X13919110Y-14061742D02*
X13938158Y-14052218D01*
X13938158Y-14052218D02*
X13947682Y-14042694D01*
X13947682Y-14042694D02*
X13966729Y-14014123D01*
X13966729Y-14014123D02*
X13976253Y-13976028D01*
X13976253Y-13976028D02*
X13976253Y-13899837D01*
X13976253Y-13899837D02*
X13966729Y-13880790D01*
X13966729Y-13880790D02*
X13957205Y-13871266D01*
X13957205Y-13871266D02*
X13938158Y-13861742D01*
X13938158Y-13861742D02*
X13900062Y-13861742D01*
X13900062Y-13861742D02*
X13881015Y-13871266D01*
X13881015Y-13871266D02*
X13871491Y-13880790D01*
X13871491Y-13880790D02*
X13861967Y-13899837D01*
X13861967Y-13899837D02*
X13861967Y-13947456D01*
X13861967Y-13947456D02*
X13871491Y-13966504D01*
X13871491Y-13966504D02*
X13881015Y-13976028D01*
X13881015Y-13976028D02*
X13900062Y-13985552D01*
X13900062Y-13985552D02*
X13938158Y-13985552D01*
X13938158Y-13985552D02*
X13957205Y-13976028D01*
X13957205Y-13976028D02*
X13966729Y-13966504D01*
X13966729Y-13966504D02*
X13976253Y-13947456D01*
X14100062Y-13861742D02*
X14119110Y-13861742D01*
X14119110Y-13861742D02*
X14138158Y-13871266D01*
X14138158Y-13871266D02*
X14147682Y-13880790D01*
X14147682Y-13880790D02*
X14157205Y-13899837D01*
X14157205Y-13899837D02*
X14166729Y-13937933D01*
X14166729Y-13937933D02*
X14166729Y-13985552D01*
X14166729Y-13985552D02*
X14157205Y-14023647D01*
X14157205Y-14023647D02*
X14147682Y-14042694D01*
X14147682Y-14042694D02*
X14138158Y-14052218D01*
X14138158Y-14052218D02*
X14119110Y-14061742D01*
X14119110Y-14061742D02*
X14100062Y-14061742D01*
X14100062Y-14061742D02*
X14081015Y-14052218D01*
X14081015Y-14052218D02*
X14071491Y-14042694D01*
X14071491Y-14042694D02*
X14061967Y-14023647D01*
X14061967Y-14023647D02*
X14052443Y-13985552D01*
X14052443Y-13985552D02*
X14052443Y-13937933D01*
X14052443Y-13937933D02*
X14061967Y-13899837D01*
X14061967Y-13899837D02*
X14071491Y-13880790D01*
X14071491Y-13880790D02*
X14081015Y-13871266D01*
X14081015Y-13871266D02*
X14100062Y-13861742D01*
X14290539Y-13861742D02*
X14309586Y-13861742D01*
X14309586Y-13861742D02*
X14328634Y-13871266D01*
X14328634Y-13871266D02*
X14338158Y-13880790D01*
X14338158Y-13880790D02*
X14347682Y-13899837D01*
X14347682Y-13899837D02*
X14357205Y-13937933D01*
X14357205Y-13937933D02*
X14357205Y-13985552D01*
X14357205Y-13985552D02*
X14347682Y-14023647D01*
X14347682Y-14023647D02*
X14338158Y-14042694D01*
X14338158Y-14042694D02*
X14328634Y-14052218D01*
X14328634Y-14052218D02*
X14309586Y-14061742D01*
X14309586Y-14061742D02*
X14290539Y-14061742D01*
X14290539Y-14061742D02*
X14271491Y-14052218D01*
X14271491Y-14052218D02*
X14261967Y-14042694D01*
X14261967Y-14042694D02*
X14252443Y-14023647D01*
X14252443Y-14023647D02*
X14242920Y-13985552D01*
X14242920Y-13985552D02*
X14242920Y-13937933D01*
X14242920Y-13937933D02*
X14252443Y-13899837D01*
X14252443Y-13899837D02*
X14261967Y-13880790D01*
X14261967Y-13880790D02*
X14271491Y-13871266D01*
X14271491Y-13871266D02*
X14290539Y-13861742D01*
X14442920Y-14061742D02*
X14442920Y-13928409D01*
X14442920Y-13947456D02*
X14452443Y-13937933D01*
X14452443Y-13937933D02*
X14471491Y-13928409D01*
X14471491Y-13928409D02*
X14500063Y-13928409D01*
X14500063Y-13928409D02*
X14519110Y-13937933D01*
X14519110Y-13937933D02*
X14528634Y-13956980D01*
X14528634Y-13956980D02*
X14528634Y-14061742D01*
X14528634Y-13956980D02*
X14538158Y-13937933D01*
X14538158Y-13937933D02*
X14557205Y-13928409D01*
X14557205Y-13928409D02*
X14585777Y-13928409D01*
X14585777Y-13928409D02*
X14604824Y-13937933D01*
X14604824Y-13937933D02*
X14614348Y-13956980D01*
X14614348Y-13956980D02*
X14614348Y-14061742D01*
X14709586Y-14061742D02*
X14709586Y-13928409D01*
X14709586Y-13947456D02*
X14719110Y-13937933D01*
X14719110Y-13937933D02*
X14738158Y-13928409D01*
X14738158Y-13928409D02*
X14766729Y-13928409D01*
X14766729Y-13928409D02*
X14785777Y-13937933D01*
X14785777Y-13937933D02*
X14795301Y-13956980D01*
X14795301Y-13956980D02*
X14795301Y-14061742D01*
X14795301Y-13956980D02*
X14804824Y-13937933D01*
X14804824Y-13937933D02*
X14823872Y-13928409D01*
X14823872Y-13928409D02*
X14852443Y-13928409D01*
X14852443Y-13928409D02*
X14871491Y-13937933D01*
X14871491Y-13937933D02*
X14881015Y-13956980D01*
X14881015Y-13956980D02*
X14881015Y-14061742D01*
X15271491Y-13852218D02*
X15100063Y-14109361D01*
X15528634Y-13861742D02*
X15547682Y-13861742D01*
X15547682Y-13861742D02*
X15566729Y-13871266D01*
X15566729Y-13871266D02*
X15576253Y-13880790D01*
X15576253Y-13880790D02*
X15585777Y-13899837D01*
X15585777Y-13899837D02*
X15595301Y-13937933D01*
X15595301Y-13937933D02*
X15595301Y-13985552D01*
X15595301Y-13985552D02*
X15585777Y-14023647D01*
X15585777Y-14023647D02*
X15576253Y-14042694D01*
X15576253Y-14042694D02*
X15566729Y-14052218D01*
X15566729Y-14052218D02*
X15547682Y-14061742D01*
X15547682Y-14061742D02*
X15528634Y-14061742D01*
X15528634Y-14061742D02*
X15509586Y-14052218D01*
X15509586Y-14052218D02*
X15500063Y-14042694D01*
X15500063Y-14042694D02*
X15490539Y-14023647D01*
X15490539Y-14023647D02*
X15481015Y-13985552D01*
X15481015Y-13985552D02*
X15481015Y-13937933D01*
X15481015Y-13937933D02*
X15490539Y-13899837D01*
X15490539Y-13899837D02*
X15500063Y-13880790D01*
X15500063Y-13880790D02*
X15509586Y-13871266D01*
X15509586Y-13871266D02*
X15528634Y-13861742D01*
X15681015Y-14042694D02*
X15690539Y-14052218D01*
X15690539Y-14052218D02*
X15681015Y-14061742D01*
X15681015Y-14061742D02*
X15671491Y-14052218D01*
X15671491Y-14052218D02*
X15681015Y-14042694D01*
X15681015Y-14042694D02*
X15681015Y-14061742D01*
X15814348Y-13861742D02*
X15833396Y-13861742D01*
X15833396Y-13861742D02*
X15852444Y-13871266D01*
X15852444Y-13871266D02*
X15861967Y-13880790D01*
X15861967Y-13880790D02*
X15871491Y-13899837D01*
X15871491Y-13899837D02*
X15881015Y-13937933D01*
X15881015Y-13937933D02*
X15881015Y-13985552D01*
X15881015Y-13985552D02*
X15871491Y-14023647D01*
X15871491Y-14023647D02*
X15861967Y-14042694D01*
X15861967Y-14042694D02*
X15852444Y-14052218D01*
X15852444Y-14052218D02*
X15833396Y-14061742D01*
X15833396Y-14061742D02*
X15814348Y-14061742D01*
X15814348Y-14061742D02*
X15795301Y-14052218D01*
X15795301Y-14052218D02*
X15785777Y-14042694D01*
X15785777Y-14042694D02*
X15776253Y-14023647D01*
X15776253Y-14023647D02*
X15766729Y-13985552D01*
X15766729Y-13985552D02*
X15766729Y-13937933D01*
X15766729Y-13937933D02*
X15776253Y-13899837D01*
X15776253Y-13899837D02*
X15785777Y-13880790D01*
X15785777Y-13880790D02*
X15795301Y-13871266D01*
X15795301Y-13871266D02*
X15814348Y-13861742D01*
X15947682Y-13861742D02*
X16081015Y-13861742D01*
X16081015Y-13861742D02*
X15995301Y-14061742D01*
X16242920Y-13928409D02*
X16242920Y-14061742D01*
X16195301Y-13852218D02*
X16147682Y-13995075D01*
X16147682Y-13995075D02*
X16271491Y-13995075D01*
X16376253Y-13947456D02*
X16357206Y-13937933D01*
X16357206Y-13937933D02*
X16347682Y-13928409D01*
X16347682Y-13928409D02*
X16338158Y-13909361D01*
X16338158Y-13909361D02*
X16338158Y-13899837D01*
X16338158Y-13899837D02*
X16347682Y-13880790D01*
X16347682Y-13880790D02*
X16357206Y-13871266D01*
X16357206Y-13871266D02*
X16376253Y-13861742D01*
X16376253Y-13861742D02*
X16414348Y-13861742D01*
X16414348Y-13861742D02*
X16433396Y-13871266D01*
X16433396Y-13871266D02*
X16442920Y-13880790D01*
X16442920Y-13880790D02*
X16452444Y-13899837D01*
X16452444Y-13899837D02*
X16452444Y-13909361D01*
X16452444Y-13909361D02*
X16442920Y-13928409D01*
X16442920Y-13928409D02*
X16433396Y-13937933D01*
X16433396Y-13937933D02*
X16414348Y-13947456D01*
X16414348Y-13947456D02*
X16376253Y-13947456D01*
X16376253Y-13947456D02*
X16357206Y-13956980D01*
X16357206Y-13956980D02*
X16347682Y-13966504D01*
X16347682Y-13966504D02*
X16338158Y-13985552D01*
X16338158Y-13985552D02*
X16338158Y-14023647D01*
X16338158Y-14023647D02*
X16347682Y-14042694D01*
X16347682Y-14042694D02*
X16357206Y-14052218D01*
X16357206Y-14052218D02*
X16376253Y-14061742D01*
X16376253Y-14061742D02*
X16414348Y-14061742D01*
X16414348Y-14061742D02*
X16433396Y-14052218D01*
X16433396Y-14052218D02*
X16442920Y-14042694D01*
X16442920Y-14042694D02*
X16452444Y-14023647D01*
X16452444Y-14023647D02*
X16452444Y-13985552D01*
X16452444Y-13985552D02*
X16442920Y-13966504D01*
X16442920Y-13966504D02*
X16433396Y-13956980D01*
X16433396Y-13956980D02*
X16414348Y-13947456D01*
X16528634Y-13861742D02*
X16528634Y-13899837D01*
X16604825Y-13861742D02*
X16604825Y-13899837D01*
X16900063Y-14137933D02*
X16890539Y-14128409D01*
X16890539Y-14128409D02*
X16871491Y-14099837D01*
X16871491Y-14099837D02*
X16861968Y-14080790D01*
X16861968Y-14080790D02*
X16852444Y-14052218D01*
X16852444Y-14052218D02*
X16842920Y-14004599D01*
X16842920Y-14004599D02*
X16842920Y-13966504D01*
X16842920Y-13966504D02*
X16852444Y-13918885D01*
X16852444Y-13918885D02*
X16861968Y-13890314D01*
X16861968Y-13890314D02*
X16871491Y-13871266D01*
X16871491Y-13871266D02*
X16890539Y-13842694D01*
X16890539Y-13842694D02*
X16900063Y-13833171D01*
X16966730Y-13880790D02*
X16976253Y-13871266D01*
X16976253Y-13871266D02*
X16995301Y-13861742D01*
X16995301Y-13861742D02*
X17042920Y-13861742D01*
X17042920Y-13861742D02*
X17061968Y-13871266D01*
X17061968Y-13871266D02*
X17071491Y-13880790D01*
X17071491Y-13880790D02*
X17081015Y-13899837D01*
X17081015Y-13899837D02*
X17081015Y-13918885D01*
X17081015Y-13918885D02*
X17071491Y-13947456D01*
X17071491Y-13947456D02*
X16957206Y-14061742D01*
X16957206Y-14061742D02*
X17081015Y-14061742D01*
X17319111Y-14061742D02*
X17319111Y-13861742D01*
X17404825Y-14061742D02*
X17404825Y-13956980D01*
X17404825Y-13956980D02*
X17395301Y-13937933D01*
X17395301Y-13937933D02*
X17376253Y-13928409D01*
X17376253Y-13928409D02*
X17347682Y-13928409D01*
X17347682Y-13928409D02*
X17328634Y-13937933D01*
X17328634Y-13937933D02*
X17319111Y-13947456D01*
X17528634Y-14061742D02*
X17509587Y-14052218D01*
X17509587Y-14052218D02*
X17500063Y-14042694D01*
X17500063Y-14042694D02*
X17490539Y-14023647D01*
X17490539Y-14023647D02*
X17490539Y-13966504D01*
X17490539Y-13966504D02*
X17500063Y-13947456D01*
X17500063Y-13947456D02*
X17509587Y-13937933D01*
X17509587Y-13937933D02*
X17528634Y-13928409D01*
X17528634Y-13928409D02*
X17557206Y-13928409D01*
X17557206Y-13928409D02*
X17576253Y-13937933D01*
X17576253Y-13937933D02*
X17585777Y-13947456D01*
X17585777Y-13947456D02*
X17595301Y-13966504D01*
X17595301Y-13966504D02*
X17595301Y-14023647D01*
X17595301Y-14023647D02*
X17585777Y-14042694D01*
X17585777Y-14042694D02*
X17576253Y-14052218D01*
X17576253Y-14052218D02*
X17557206Y-14061742D01*
X17557206Y-14061742D02*
X17528634Y-14061742D01*
X17709587Y-14061742D02*
X17690539Y-14052218D01*
X17690539Y-14052218D02*
X17681015Y-14033171D01*
X17681015Y-14033171D02*
X17681015Y-13861742D01*
X17861968Y-14052218D02*
X17842920Y-14061742D01*
X17842920Y-14061742D02*
X17804825Y-14061742D01*
X17804825Y-14061742D02*
X17785777Y-14052218D01*
X17785777Y-14052218D02*
X17776253Y-14033171D01*
X17776253Y-14033171D02*
X17776253Y-13956980D01*
X17776253Y-13956980D02*
X17785777Y-13937933D01*
X17785777Y-13937933D02*
X17804825Y-13928409D01*
X17804825Y-13928409D02*
X17842920Y-13928409D01*
X17842920Y-13928409D02*
X17861968Y-13937933D01*
X17861968Y-13937933D02*
X17871492Y-13956980D01*
X17871492Y-13956980D02*
X17871492Y-13976028D01*
X17871492Y-13976028D02*
X17776253Y-13995075D01*
X17947682Y-14052218D02*
X17966730Y-14061742D01*
X17966730Y-14061742D02*
X18004825Y-14061742D01*
X18004825Y-14061742D02*
X18023873Y-14052218D01*
X18023873Y-14052218D02*
X18033396Y-14033171D01*
X18033396Y-14033171D02*
X18033396Y-14023647D01*
X18033396Y-14023647D02*
X18023873Y-14004599D01*
X18023873Y-14004599D02*
X18004825Y-13995075D01*
X18004825Y-13995075D02*
X17976253Y-13995075D01*
X17976253Y-13995075D02*
X17957206Y-13985552D01*
X17957206Y-13985552D02*
X17947682Y-13966504D01*
X17947682Y-13966504D02*
X17947682Y-13956980D01*
X17947682Y-13956980D02*
X17957206Y-13937933D01*
X17957206Y-13937933D02*
X17976253Y-13928409D01*
X17976253Y-13928409D02*
X18004825Y-13928409D01*
X18004825Y-13928409D02*
X18023873Y-13937933D01*
X18100063Y-14137933D02*
X18109587Y-14128409D01*
X18109587Y-14128409D02*
X18128634Y-14099837D01*
X18128634Y-14099837D02*
X18138158Y-14080790D01*
X18138158Y-14080790D02*
X18147682Y-14052218D01*
X18147682Y-14052218D02*
X18157206Y-14004599D01*
X18157206Y-14004599D02*
X18157206Y-13966504D01*
X18157206Y-13966504D02*
X18147682Y-13918885D01*
X18147682Y-13918885D02*
X18138158Y-13890314D01*
X18138158Y-13890314D02*
X18128634Y-13871266D01*
X18128634Y-13871266D02*
X18109587Y-13842694D01*
X18109587Y-13842694D02*
X18100063Y-13833171D01*
X13125000Y-14180258D02*
X13325000Y-14380258D01*
X13325000Y-14180258D02*
X13125000Y-14380258D01*
X13225000Y-14180258D02*
X13225000Y-14380258D01*
X13125000Y-14280258D02*
X13325000Y-14280258D01*
X13671491Y-14238409D02*
X13671491Y-14371742D01*
X13623872Y-14162218D02*
X13576253Y-14305075D01*
X13576253Y-14305075D02*
X13700062Y-14305075D01*
X13776253Y-14352694D02*
X13785777Y-14362218D01*
X13785777Y-14362218D02*
X13776253Y-14371742D01*
X13776253Y-14371742D02*
X13766729Y-14362218D01*
X13766729Y-14362218D02*
X13776253Y-14352694D01*
X13776253Y-14352694D02*
X13776253Y-14371742D01*
X13966729Y-14171742D02*
X13871491Y-14171742D01*
X13871491Y-14171742D02*
X13861967Y-14266980D01*
X13861967Y-14266980D02*
X13871491Y-14257456D01*
X13871491Y-14257456D02*
X13890539Y-14247933D01*
X13890539Y-14247933D02*
X13938158Y-14247933D01*
X13938158Y-14247933D02*
X13957205Y-14257456D01*
X13957205Y-14257456D02*
X13966729Y-14266980D01*
X13966729Y-14266980D02*
X13976253Y-14286028D01*
X13976253Y-14286028D02*
X13976253Y-14333647D01*
X13976253Y-14333647D02*
X13966729Y-14352694D01*
X13966729Y-14352694D02*
X13957205Y-14362218D01*
X13957205Y-14362218D02*
X13938158Y-14371742D01*
X13938158Y-14371742D02*
X13890539Y-14371742D01*
X13890539Y-14371742D02*
X13871491Y-14362218D01*
X13871491Y-14362218D02*
X13861967Y-14352694D01*
X14100062Y-14171742D02*
X14119110Y-14171742D01*
X14119110Y-14171742D02*
X14138158Y-14181266D01*
X14138158Y-14181266D02*
X14147682Y-14190790D01*
X14147682Y-14190790D02*
X14157205Y-14209837D01*
X14157205Y-14209837D02*
X14166729Y-14247933D01*
X14166729Y-14247933D02*
X14166729Y-14295552D01*
X14166729Y-14295552D02*
X14157205Y-14333647D01*
X14157205Y-14333647D02*
X14147682Y-14352694D01*
X14147682Y-14352694D02*
X14138158Y-14362218D01*
X14138158Y-14362218D02*
X14119110Y-14371742D01*
X14119110Y-14371742D02*
X14100062Y-14371742D01*
X14100062Y-14371742D02*
X14081015Y-14362218D01*
X14081015Y-14362218D02*
X14071491Y-14352694D01*
X14071491Y-14352694D02*
X14061967Y-14333647D01*
X14061967Y-14333647D02*
X14052443Y-14295552D01*
X14052443Y-14295552D02*
X14052443Y-14247933D01*
X14052443Y-14247933D02*
X14061967Y-14209837D01*
X14061967Y-14209837D02*
X14071491Y-14190790D01*
X14071491Y-14190790D02*
X14081015Y-14181266D01*
X14081015Y-14181266D02*
X14100062Y-14171742D01*
X14290539Y-14171742D02*
X14309586Y-14171742D01*
X14309586Y-14171742D02*
X14328634Y-14181266D01*
X14328634Y-14181266D02*
X14338158Y-14190790D01*
X14338158Y-14190790D02*
X14347682Y-14209837D01*
X14347682Y-14209837D02*
X14357205Y-14247933D01*
X14357205Y-14247933D02*
X14357205Y-14295552D01*
X14357205Y-14295552D02*
X14347682Y-14333647D01*
X14347682Y-14333647D02*
X14338158Y-14352694D01*
X14338158Y-14352694D02*
X14328634Y-14362218D01*
X14328634Y-14362218D02*
X14309586Y-14371742D01*
X14309586Y-14371742D02*
X14290539Y-14371742D01*
X14290539Y-14371742D02*
X14271491Y-14362218D01*
X14271491Y-14362218D02*
X14261967Y-14352694D01*
X14261967Y-14352694D02*
X14252443Y-14333647D01*
X14252443Y-14333647D02*
X14242920Y-14295552D01*
X14242920Y-14295552D02*
X14242920Y-14247933D01*
X14242920Y-14247933D02*
X14252443Y-14209837D01*
X14252443Y-14209837D02*
X14261967Y-14190790D01*
X14261967Y-14190790D02*
X14271491Y-14181266D01*
X14271491Y-14181266D02*
X14290539Y-14171742D01*
X14442920Y-14371742D02*
X14442920Y-14238409D01*
X14442920Y-14257456D02*
X14452443Y-14247933D01*
X14452443Y-14247933D02*
X14471491Y-14238409D01*
X14471491Y-14238409D02*
X14500063Y-14238409D01*
X14500063Y-14238409D02*
X14519110Y-14247933D01*
X14519110Y-14247933D02*
X14528634Y-14266980D01*
X14528634Y-14266980D02*
X14528634Y-14371742D01*
X14528634Y-14266980D02*
X14538158Y-14247933D01*
X14538158Y-14247933D02*
X14557205Y-14238409D01*
X14557205Y-14238409D02*
X14585777Y-14238409D01*
X14585777Y-14238409D02*
X14604824Y-14247933D01*
X14604824Y-14247933D02*
X14614348Y-14266980D01*
X14614348Y-14266980D02*
X14614348Y-14371742D01*
X14709586Y-14371742D02*
X14709586Y-14238409D01*
X14709586Y-14257456D02*
X14719110Y-14247933D01*
X14719110Y-14247933D02*
X14738158Y-14238409D01*
X14738158Y-14238409D02*
X14766729Y-14238409D01*
X14766729Y-14238409D02*
X14785777Y-14247933D01*
X14785777Y-14247933D02*
X14795301Y-14266980D01*
X14795301Y-14266980D02*
X14795301Y-14371742D01*
X14795301Y-14266980D02*
X14804824Y-14247933D01*
X14804824Y-14247933D02*
X14823872Y-14238409D01*
X14823872Y-14238409D02*
X14852443Y-14238409D01*
X14852443Y-14238409D02*
X14871491Y-14247933D01*
X14871491Y-14247933D02*
X14881015Y-14266980D01*
X14881015Y-14266980D02*
X14881015Y-14371742D01*
X15271491Y-14162218D02*
X15100063Y-14419361D01*
X15528634Y-14171742D02*
X15547682Y-14171742D01*
X15547682Y-14171742D02*
X15566729Y-14181266D01*
X15566729Y-14181266D02*
X15576253Y-14190790D01*
X15576253Y-14190790D02*
X15585777Y-14209837D01*
X15585777Y-14209837D02*
X15595301Y-14247933D01*
X15595301Y-14247933D02*
X15595301Y-14295552D01*
X15595301Y-14295552D02*
X15585777Y-14333647D01*
X15585777Y-14333647D02*
X15576253Y-14352694D01*
X15576253Y-14352694D02*
X15566729Y-14362218D01*
X15566729Y-14362218D02*
X15547682Y-14371742D01*
X15547682Y-14371742D02*
X15528634Y-14371742D01*
X15528634Y-14371742D02*
X15509586Y-14362218D01*
X15509586Y-14362218D02*
X15500063Y-14352694D01*
X15500063Y-14352694D02*
X15490539Y-14333647D01*
X15490539Y-14333647D02*
X15481015Y-14295552D01*
X15481015Y-14295552D02*
X15481015Y-14247933D01*
X15481015Y-14247933D02*
X15490539Y-14209837D01*
X15490539Y-14209837D02*
X15500063Y-14190790D01*
X15500063Y-14190790D02*
X15509586Y-14181266D01*
X15509586Y-14181266D02*
X15528634Y-14171742D01*
X15681015Y-14352694D02*
X15690539Y-14362218D01*
X15690539Y-14362218D02*
X15681015Y-14371742D01*
X15681015Y-14371742D02*
X15671491Y-14362218D01*
X15671491Y-14362218D02*
X15681015Y-14352694D01*
X15681015Y-14352694D02*
X15681015Y-14371742D01*
X15881015Y-14371742D02*
X15766729Y-14371742D01*
X15823872Y-14371742D02*
X15823872Y-14171742D01*
X15823872Y-14171742D02*
X15804825Y-14200314D01*
X15804825Y-14200314D02*
X15785777Y-14219361D01*
X15785777Y-14219361D02*
X15766729Y-14228885D01*
X15947682Y-14171742D02*
X16081015Y-14171742D01*
X16081015Y-14171742D02*
X15995301Y-14371742D01*
X16138158Y-14171742D02*
X16271491Y-14171742D01*
X16271491Y-14171742D02*
X16185777Y-14371742D01*
X16338158Y-14190790D02*
X16347682Y-14181266D01*
X16347682Y-14181266D02*
X16366729Y-14171742D01*
X16366729Y-14171742D02*
X16414348Y-14171742D01*
X16414348Y-14171742D02*
X16433396Y-14181266D01*
X16433396Y-14181266D02*
X16442920Y-14190790D01*
X16442920Y-14190790D02*
X16452444Y-14209837D01*
X16452444Y-14209837D02*
X16452444Y-14228885D01*
X16452444Y-14228885D02*
X16442920Y-14257456D01*
X16442920Y-14257456D02*
X16328634Y-14371742D01*
X16328634Y-14371742D02*
X16452444Y-14371742D01*
X16528634Y-14171742D02*
X16528634Y-14209837D01*
X16604825Y-14171742D02*
X16604825Y-14209837D01*
X16900063Y-14447933D02*
X16890539Y-14438409D01*
X16890539Y-14438409D02*
X16871491Y-14409837D01*
X16871491Y-14409837D02*
X16861968Y-14390790D01*
X16861968Y-14390790D02*
X16852444Y-14362218D01*
X16852444Y-14362218D02*
X16842920Y-14314599D01*
X16842920Y-14314599D02*
X16842920Y-14276504D01*
X16842920Y-14276504D02*
X16852444Y-14228885D01*
X16852444Y-14228885D02*
X16861968Y-14200314D01*
X16861968Y-14200314D02*
X16871491Y-14181266D01*
X16871491Y-14181266D02*
X16890539Y-14152694D01*
X16890539Y-14152694D02*
X16900063Y-14143171D01*
X16966730Y-14190790D02*
X16976253Y-14181266D01*
X16976253Y-14181266D02*
X16995301Y-14171742D01*
X16995301Y-14171742D02*
X17042920Y-14171742D01*
X17042920Y-14171742D02*
X17061968Y-14181266D01*
X17061968Y-14181266D02*
X17071491Y-14190790D01*
X17071491Y-14190790D02*
X17081015Y-14209837D01*
X17081015Y-14209837D02*
X17081015Y-14228885D01*
X17081015Y-14228885D02*
X17071491Y-14257456D01*
X17071491Y-14257456D02*
X16957206Y-14371742D01*
X16957206Y-14371742D02*
X17081015Y-14371742D01*
X17319111Y-14371742D02*
X17319111Y-14171742D01*
X17404825Y-14371742D02*
X17404825Y-14266980D01*
X17404825Y-14266980D02*
X17395301Y-14247933D01*
X17395301Y-14247933D02*
X17376253Y-14238409D01*
X17376253Y-14238409D02*
X17347682Y-14238409D01*
X17347682Y-14238409D02*
X17328634Y-14247933D01*
X17328634Y-14247933D02*
X17319111Y-14257456D01*
X17528634Y-14371742D02*
X17509587Y-14362218D01*
X17509587Y-14362218D02*
X17500063Y-14352694D01*
X17500063Y-14352694D02*
X17490539Y-14333647D01*
X17490539Y-14333647D02*
X17490539Y-14276504D01*
X17490539Y-14276504D02*
X17500063Y-14257456D01*
X17500063Y-14257456D02*
X17509587Y-14247933D01*
X17509587Y-14247933D02*
X17528634Y-14238409D01*
X17528634Y-14238409D02*
X17557206Y-14238409D01*
X17557206Y-14238409D02*
X17576253Y-14247933D01*
X17576253Y-14247933D02*
X17585777Y-14257456D01*
X17585777Y-14257456D02*
X17595301Y-14276504D01*
X17595301Y-14276504D02*
X17595301Y-14333647D01*
X17595301Y-14333647D02*
X17585777Y-14352694D01*
X17585777Y-14352694D02*
X17576253Y-14362218D01*
X17576253Y-14362218D02*
X17557206Y-14371742D01*
X17557206Y-14371742D02*
X17528634Y-14371742D01*
X17709587Y-14371742D02*
X17690539Y-14362218D01*
X17690539Y-14362218D02*
X17681015Y-14343171D01*
X17681015Y-14343171D02*
X17681015Y-14171742D01*
X17861968Y-14362218D02*
X17842920Y-14371742D01*
X17842920Y-14371742D02*
X17804825Y-14371742D01*
X17804825Y-14371742D02*
X17785777Y-14362218D01*
X17785777Y-14362218D02*
X17776253Y-14343171D01*
X17776253Y-14343171D02*
X17776253Y-14266980D01*
X17776253Y-14266980D02*
X17785777Y-14247933D01*
X17785777Y-14247933D02*
X17804825Y-14238409D01*
X17804825Y-14238409D02*
X17842920Y-14238409D01*
X17842920Y-14238409D02*
X17861968Y-14247933D01*
X17861968Y-14247933D02*
X17871492Y-14266980D01*
X17871492Y-14266980D02*
X17871492Y-14286028D01*
X17871492Y-14286028D02*
X17776253Y-14305075D01*
X17947682Y-14362218D02*
X17966730Y-14371742D01*
X17966730Y-14371742D02*
X18004825Y-14371742D01*
X18004825Y-14371742D02*
X18023873Y-14362218D01*
X18023873Y-14362218D02*
X18033396Y-14343171D01*
X18033396Y-14343171D02*
X18033396Y-14333647D01*
X18033396Y-14333647D02*
X18023873Y-14314599D01*
X18023873Y-14314599D02*
X18004825Y-14305075D01*
X18004825Y-14305075D02*
X17976253Y-14305075D01*
X17976253Y-14305075D02*
X17957206Y-14295552D01*
X17957206Y-14295552D02*
X17947682Y-14276504D01*
X17947682Y-14276504D02*
X17947682Y-14266980D01*
X17947682Y-14266980D02*
X17957206Y-14247933D01*
X17957206Y-14247933D02*
X17976253Y-14238409D01*
X17976253Y-14238409D02*
X18004825Y-14238409D01*
X18004825Y-14238409D02*
X18023873Y-14247933D01*
X18100063Y-14447933D02*
X18109587Y-14438409D01*
X18109587Y-14438409D02*
X18128634Y-14409837D01*
X18128634Y-14409837D02*
X18138158Y-14390790D01*
X18138158Y-14390790D02*
X18147682Y-14362218D01*
X18147682Y-14362218D02*
X18157206Y-14314599D01*
X18157206Y-14314599D02*
X18157206Y-14276504D01*
X18157206Y-14276504D02*
X18147682Y-14228885D01*
X18147682Y-14228885D02*
X18138158Y-14200314D01*
X18138158Y-14200314D02*
X18128634Y-14181266D01*
X18128634Y-14181266D02*
X18109587Y-14152694D01*
X18109587Y-14152694D02*
X18100063Y-14143171D01*
M02*
