%TF.GenerationSoftware,KiCad,Pcbnew,7.0.11*%
%TF.CreationDate,2025-01-11T04:22:47+09:00*%
%TF.ProjectId,PSU,5053552e-6b69-4636-9164-5f7063625858,rev?*%
%TF.SameCoordinates,Original*%
%TF.FileFunction,Paste,Top*%
%TF.FilePolarity,Positive*%
%FSLAX46Y46*%
G04 Gerber Fmt 4.6, Leading zero omitted, Abs format (unit mm)*
G04 Created by KiCad (PCBNEW 7.0.11) date 2025-01-11 04:22:47*
%MOMM*%
%LPD*%
G01*
G04 APERTURE LIST*
G04 Aperture macros list*
%AMRoundRect*
0 Rectangle with rounded corners*
0 $1 Rounding radius*
0 $2 $3 $4 $5 $6 $7 $8 $9 X,Y pos of 4 corners*
0 Add a 4 corners polygon primitive as box body*
4,1,4,$2,$3,$4,$5,$6,$7,$8,$9,$2,$3,0*
0 Add four circle primitives for the rounded corners*
1,1,$1+$1,$2,$3*
1,1,$1+$1,$4,$5*
1,1,$1+$1,$6,$7*
1,1,$1+$1,$8,$9*
0 Add four rect primitives between the rounded corners*
20,1,$1+$1,$2,$3,$4,$5,0*
20,1,$1+$1,$4,$5,$6,$7,0*
20,1,$1+$1,$6,$7,$8,$9,0*
20,1,$1+$1,$8,$9,$2,$3,0*%
G04 Aperture macros list end*
%ADD10RoundRect,0.150000X-0.150000X-0.425000X0.150000X-0.425000X0.150000X0.425000X-0.150000X0.425000X0*%
%ADD11RoundRect,0.075000X-0.075000X-0.500000X0.075000X-0.500000X0.075000X0.500000X-0.075000X0.500000X0*%
%ADD12O,1.000000X2.100000*%
%ADD13O,1.000000X1.800000*%
%ADD14R,1.700000X0.900000*%
%ADD15R,0.800000X0.900000*%
%ADD16RoundRect,0.140000X-0.170000X0.140000X-0.170000X-0.140000X0.170000X-0.140000X0.170000X0.140000X0*%
%ADD17RoundRect,0.140000X0.140000X0.170000X-0.140000X0.170000X-0.140000X-0.170000X0.140000X-0.170000X0*%
%ADD18RoundRect,0.135000X0.185000X-0.135000X0.185000X0.135000X-0.185000X0.135000X-0.185000X-0.135000X0*%
%ADD19RoundRect,0.135000X-0.135000X-0.185000X0.135000X-0.185000X0.135000X0.185000X-0.135000X0.185000X0*%
%ADD20RoundRect,0.140000X0.170000X-0.140000X0.170000X0.140000X-0.170000X0.140000X-0.170000X-0.140000X0*%
%ADD21RoundRect,0.150000X0.650000X0.150000X-0.650000X0.150000X-0.650000X-0.150000X0.650000X-0.150000X0*%
%ADD22RoundRect,0.237500X-0.237500X0.287500X-0.237500X-0.287500X0.237500X-0.287500X0.237500X0.287500X0*%
%ADD23RoundRect,0.135000X0.135000X0.185000X-0.135000X0.185000X-0.135000X-0.185000X0.135000X-0.185000X0*%
%ADD24RoundRect,0.140000X-0.140000X-0.170000X0.140000X-0.170000X0.140000X0.170000X-0.140000X0.170000X0*%
%ADD25RoundRect,0.135000X-0.185000X0.135000X-0.185000X-0.135000X0.185000X-0.135000X0.185000X0.135000X0*%
%ADD26RoundRect,0.249999X0.395001X0.395001X-0.395001X0.395001X-0.395001X-0.395001X0.395001X-0.395001X0*%
%ADD27RoundRect,0.050000X0.387500X0.050000X-0.387500X0.050000X-0.387500X-0.050000X0.387500X-0.050000X0*%
%ADD28RoundRect,0.050000X0.050000X0.387500X-0.050000X0.387500X-0.050000X-0.387500X0.050000X-0.387500X0*%
G04 APERTURE END LIST*
D10*
%TO.C,J1*%
X139296000Y-112652000D03*
X140096000Y-112652000D03*
D11*
X141246000Y-112652000D03*
X142246000Y-112652000D03*
X142746000Y-112652000D03*
X143746000Y-112652000D03*
D10*
X144896000Y-112652000D03*
X145696000Y-112652000D03*
X145696000Y-112652000D03*
X144896000Y-112652000D03*
D11*
X144246000Y-112652000D03*
X143246000Y-112652000D03*
X141746000Y-112652000D03*
X140746000Y-112652000D03*
D10*
X140096000Y-112652000D03*
X139296000Y-112652000D03*
D12*
X138176000Y-113227000D03*
D13*
X138176000Y-117407000D03*
D12*
X146816000Y-113227000D03*
D13*
X146816000Y-117407000D03*
%TD*%
D14*
%TO.C,SW2*%
X151384000Y-93648000D03*
X151384000Y-90248000D03*
%TD*%
%TO.C,SW1*%
X148082000Y-93648000D03*
X148082000Y-90248000D03*
%TD*%
D15*
%TO.C,Y1*%
X144484000Y-95058000D03*
X144484000Y-96458000D03*
X145584000Y-96458000D03*
X145584000Y-95058000D03*
%TD*%
D16*
%TO.C,C2*%
X139520000Y-95530000D03*
X139520000Y-96490000D03*
%TD*%
D17*
%TO.C,C8*%
X147548000Y-104410000D03*
X146588000Y-104410000D03*
%TD*%
D18*
%TO.C,R12*%
X139826000Y-107696000D03*
X139826000Y-106676000D03*
%TD*%
D19*
%TO.C,R2*%
X142238000Y-96401500D03*
X143258000Y-96401500D03*
%TD*%
D18*
%TO.C,R16*%
X161036000Y-102618000D03*
X161036000Y-101598000D03*
%TD*%
D20*
%TO.C,C7*%
X136906000Y-105156000D03*
X136906000Y-104196000D03*
%TD*%
D16*
%TO.C,C11*%
X137581778Y-106708974D03*
X137581778Y-107668974D03*
%TD*%
%TO.C,C9*%
X141224000Y-95532000D03*
X141224000Y-96492000D03*
%TD*%
D20*
%TO.C,C4*%
X146812000Y-96238000D03*
X146812000Y-95278000D03*
%TD*%
D18*
%TO.C,R10*%
X139192000Y-111000000D03*
X139192000Y-109980000D03*
%TD*%
D17*
%TO.C,C6*%
X147546000Y-100584000D03*
X146586000Y-100584000D03*
%TD*%
D21*
%TO.C,U1*%
X150920000Y-110871000D03*
X150920000Y-109601000D03*
X150920000Y-108331000D03*
X150920000Y-107061000D03*
X143720000Y-107061000D03*
X143720000Y-108331000D03*
X143720000Y-109601000D03*
X143720000Y-110871000D03*
%TD*%
D18*
%TO.C,R4*%
X142494000Y-93218000D03*
X142494000Y-92198000D03*
%TD*%
D22*
%TO.C,D2*%
X141224000Y-90958000D03*
X141224000Y-92708000D03*
%TD*%
D18*
%TO.C,R13*%
X140843000Y-107698000D03*
X140843000Y-106678000D03*
%TD*%
%TO.C,R5*%
X139954000Y-93218000D03*
X139954000Y-92198000D03*
%TD*%
%TO.C,R11*%
X138176000Y-111000000D03*
X138176000Y-109980000D03*
%TD*%
D22*
%TO.C,D1*%
X143764000Y-90958000D03*
X143764000Y-92708000D03*
%TD*%
D19*
%TO.C,R9*%
X146558000Y-102616000D03*
X147578000Y-102616000D03*
%TD*%
D23*
%TO.C,R15*%
X162056000Y-99060000D03*
X161036000Y-99060000D03*
%TD*%
D24*
%TO.C,C5*%
X142296000Y-95250000D03*
X143256000Y-95250000D03*
%TD*%
D25*
%TO.C,R1*%
X151470000Y-104860000D03*
X151470000Y-103840000D03*
%TD*%
D22*
%TO.C,D3*%
X138684000Y-90958000D03*
X138684000Y-92708000D03*
%TD*%
D19*
%TO.C,R14*%
X163574000Y-99060000D03*
X164594000Y-99060000D03*
%TD*%
D26*
%TO.C,U2*%
X142278000Y-102400000D03*
X142278000Y-100800000D03*
X140678000Y-102400000D03*
X140678000Y-100800000D03*
D27*
X144915500Y-104200000D03*
X144915500Y-103800000D03*
X144915500Y-103400000D03*
X144915500Y-103000000D03*
X144915500Y-102600000D03*
X144915500Y-102200000D03*
X144915500Y-101800000D03*
X144915500Y-101400000D03*
X144915500Y-101000000D03*
X144915500Y-100600000D03*
X144915500Y-100200000D03*
X144915500Y-99800000D03*
X144915500Y-99400000D03*
X144915500Y-99000000D03*
D28*
X144078000Y-98162500D03*
X143678000Y-98162500D03*
X143278000Y-98162500D03*
X142878000Y-98162500D03*
X142478000Y-98162500D03*
X142078000Y-98162500D03*
X141678000Y-98162500D03*
X141278000Y-98162500D03*
X140878000Y-98162500D03*
X140478000Y-98162500D03*
X140078000Y-98162500D03*
X139678000Y-98162500D03*
X139278000Y-98162500D03*
X138878000Y-98162500D03*
D27*
X138040500Y-99000000D03*
X138040500Y-99400000D03*
X138040500Y-99800000D03*
X138040500Y-100200000D03*
X138040500Y-100600000D03*
X138040500Y-101000000D03*
X138040500Y-101400000D03*
X138040500Y-101800000D03*
X138040500Y-102200000D03*
X138040500Y-102600000D03*
X138040500Y-103000000D03*
X138040500Y-103400000D03*
X138040500Y-103800000D03*
X138040500Y-104200000D03*
D28*
X138878000Y-105037500D03*
X139278000Y-105037500D03*
X139678000Y-105037500D03*
X140078000Y-105037500D03*
X140478000Y-105037500D03*
X140878000Y-105037500D03*
X141278000Y-105037500D03*
X141678000Y-105037500D03*
X142078000Y-105037500D03*
X142478000Y-105037500D03*
X142878000Y-105037500D03*
X143278000Y-105037500D03*
X143678000Y-105037500D03*
X144078000Y-105037500D03*
%TD*%
D18*
%TO.C,R3*%
X145034000Y-93218000D03*
X145034000Y-92198000D03*
%TD*%
D23*
%TO.C,R8*%
X147576000Y-101600000D03*
X146556000Y-101600000D03*
%TD*%
D20*
%TO.C,C1*%
X138684000Y-107668000D03*
X138684000Y-106708000D03*
%TD*%
M02*
