%TF.GenerationSoftware,KiCad,Pcbnew,7.0.11*%
%TF.CreationDate,2025-01-20T02:02:22+09:00*%
%TF.ProjectId,CAM,43414d2e-6b69-4636-9164-5f7063625858,rev?*%
%TF.SameCoordinates,Original*%
%TF.FileFunction,Soldermask,Bot*%
%TF.FilePolarity,Negative*%
%FSLAX46Y46*%
G04 Gerber Fmt 4.6, Leading zero omitted, Abs format (unit mm)*
G04 Created by KiCad (PCBNEW 7.0.11) date 2025-01-20 02:02:22*
%MOMM*%
%LPD*%
G01*
G04 APERTURE LIST*
G04 Aperture macros list*
%AMRoundRect*
0 Rectangle with rounded corners*
0 $1 Rounding radius*
0 $2 $3 $4 $5 $6 $7 $8 $9 X,Y pos of 4 corners*
0 Add a 4 corners polygon primitive as box body*
4,1,4,$2,$3,$4,$5,$6,$7,$8,$9,$2,$3,0*
0 Add four circle primitives for the rounded corners*
1,1,$1+$1,$2,$3*
1,1,$1+$1,$4,$5*
1,1,$1+$1,$6,$7*
1,1,$1+$1,$8,$9*
0 Add four rect primitives between the rounded corners*
20,1,$1+$1,$2,$3,$4,$5,0*
20,1,$1+$1,$4,$5,$6,$7,0*
20,1,$1+$1,$6,$7,$8,$9,0*
20,1,$1+$1,$8,$9,$2,$3,0*%
%AMHorizOval*
0 Thick line with rounded ends*
0 $1 width*
0 $2 $3 position (X,Y) of the first rounded end (center of the circle)*
0 $4 $5 position (X,Y) of the second rounded end (center of the circle)*
0 Add line between two ends*
20,1,$1,$2,$3,$4,$5,0*
0 Add two circle primitives to create the rounded ends*
1,1,$1,$2,$3*
1,1,$1,$4,$5*%
G04 Aperture macros list end*
%ADD10C,1.600000*%
%ADD11RoundRect,0.250200X0.649800X-0.649800X0.649800X0.649800X-0.649800X0.649800X-0.649800X-0.649800X0*%
%ADD12C,1.800000*%
%ADD13C,1.700000*%
%ADD14C,1.400000*%
%ADD15HorizOval,1.400000X0.000000X0.000000X0.000000X0.000000X0*%
%ADD16C,3.200000*%
%ADD17RoundRect,0.250000X0.600000X0.725000X-0.600000X0.725000X-0.600000X-0.725000X0.600000X-0.725000X0*%
%ADD18O,1.700000X1.950000*%
%ADD19O,1.400000X1.400000*%
%ADD20HorizOval,1.400000X0.000000X0.000000X0.000000X0.000000X0*%
%ADD21RoundRect,0.250200X-0.649800X0.649800X-0.649800X-0.649800X0.649800X-0.649800X0.649800X0.649800X0*%
%ADD22HorizOval,1.400000X0.000000X0.000000X0.000000X0.000000X0*%
%ADD23RoundRect,0.250000X-0.600000X-0.725000X0.600000X-0.725000X0.600000X0.725000X-0.600000X0.725000X0*%
%ADD24RoundRect,0.250000X0.927868X-0.157115X0.327868X0.882115X-0.927868X0.157115X-0.327868X-0.882115X0*%
%ADD25HorizOval,1.700000X0.108253X0.062500X-0.108253X-0.062500X0*%
%ADD26RoundRect,0.250000X-0.327868X0.882115X-0.927868X-0.157115X0.327868X-0.882115X0.927868X0.157115X0*%
%ADD27HorizOval,1.700000X-0.108253X0.062500X0.108253X-0.062500X0*%
%ADD28R,1.200000X1.200000*%
%ADD29C,1.200000*%
%ADD30HorizOval,1.400000X0.000000X0.000000X0.000000X0.000000X0*%
%ADD31RoundRect,0.250000X0.327868X-0.882115X0.927868X0.157115X-0.327868X0.882115X-0.927868X-0.157115X0*%
%ADD32RoundRect,0.250200X-0.898875X-0.191062X0.191062X-0.898875X0.898875X0.191062X-0.191062X0.898875X0*%
%ADD33RoundRect,0.250200X0.283973X0.873979X-0.873979X0.283973X-0.283973X-0.873979X0.873979X-0.283973X0*%
%ADD34RoundRect,0.250200X0.873979X0.283973X-0.283973X0.873979X-0.873979X-0.283973X0.283973X-0.873979X0*%
%ADD35RoundRect,0.250200X-0.191062X-0.898875X0.898875X-0.191062X0.191062X0.898875X-0.898875X0.191062X0*%
%ADD36RoundRect,0.250000X-0.927868X0.157115X-0.327868X-0.882115X0.927868X-0.157115X0.327868X0.882115X0*%
%ADD37HorizOval,1.700000X-0.108253X-0.062500X0.108253X0.062500X0*%
G04 APERTURE END LIST*
D10*
%TO.C,C3*%
X171990339Y-128097201D03*
X169893663Y-129458799D03*
%TD*%
D11*
%TO.C,U2*%
X190491000Y-104140000D03*
D12*
X190491000Y-101600000D03*
X190491000Y-99060000D03*
%TD*%
D13*
%TO.C,U8*%
X142240000Y-90630000D03*
X144780000Y-85550000D03*
X160020000Y-88090000D03*
X162560000Y-93170000D03*
X162560000Y-95710000D03*
X162560000Y-113490000D03*
X144780000Y-88090000D03*
X144780000Y-90630000D03*
X144780000Y-93170000D03*
X144780000Y-95710000D03*
X144780000Y-98250000D03*
X144780000Y-100790000D03*
X144780000Y-103330000D03*
X144780000Y-105870000D03*
X144780000Y-108410000D03*
X144780000Y-110950000D03*
X144780000Y-113490000D03*
X144780000Y-116030000D03*
X144780000Y-118570000D03*
X142240000Y-118570000D03*
X162560000Y-116030000D03*
X162560000Y-118570000D03*
X160020000Y-118570000D03*
X160020000Y-116030000D03*
X160020000Y-113490000D03*
X160020000Y-110950000D03*
X160020000Y-108410000D03*
X160020000Y-105870000D03*
X160020000Y-103330000D03*
X160020000Y-100790000D03*
X160020000Y-98250000D03*
X160020000Y-95710000D03*
X160020000Y-93170000D03*
X142240000Y-95710000D03*
X160020000Y-90630000D03*
X162560000Y-110950000D03*
X160020000Y-85550000D03*
X162560000Y-85550000D03*
X162560000Y-108410000D03*
X162560000Y-100790000D03*
X162560000Y-103330000D03*
X162560000Y-98250000D03*
X162560000Y-105870000D03*
X142240000Y-105870000D03*
X142240000Y-116030000D03*
X142240000Y-108410000D03*
X142240000Y-113490000D03*
X142240000Y-110950000D03*
X142240000Y-85550000D03*
X142240000Y-88090000D03*
X142240000Y-93170000D03*
X142240000Y-98250000D03*
X142240000Y-100790000D03*
X142240000Y-103330000D03*
X162560000Y-88090000D03*
X162560000Y-90630000D03*
%TD*%
D10*
%TO.C,C1*%
X166530000Y-71690000D03*
X168757516Y-72824976D03*
%TD*%
D14*
%TO.C,R4*%
X131040751Y-129826720D03*
D15*
X135301197Y-132593486D03*
%TD*%
D16*
%TO.C,REF\u002A\u002A*%
X136880000Y-137930000D03*
%TD*%
D17*
%TO.C,J7*%
X156150000Y-117242000D03*
D18*
X153650000Y-117242000D03*
X151150000Y-117242000D03*
X148650000Y-117242000D03*
%TD*%
D10*
%TO.C,C8*%
X139446000Y-103358000D03*
X139446000Y-100858000D03*
%TD*%
D14*
%TO.C,R5*%
X117094000Y-99060000D03*
D19*
X117094000Y-104140000D03*
%TD*%
D14*
%TO.C,R6*%
X138634568Y-68988988D03*
D20*
X134108255Y-71295260D03*
%TD*%
D16*
%TO.C,REF\u002A\u002A*%
X138060000Y-76780000D03*
%TD*%
%TO.C,REF\u002A\u002A*%
X138040000Y-126410000D03*
%TD*%
D21*
%TO.C,U5*%
X114309000Y-99060000D03*
D12*
X114309000Y-101600000D03*
X114309000Y-104140000D03*
%TD*%
D14*
%TO.C,R3*%
X169498803Y-132593486D03*
D22*
X173759249Y-129826720D03*
%TD*%
D23*
%TO.C,J4*%
X148630000Y-128016000D03*
D18*
X151130000Y-128016000D03*
X153630000Y-128016000D03*
X156130000Y-128016000D03*
%TD*%
D24*
%TO.C,J2*%
X177161927Y-91656916D03*
D25*
X175911927Y-89491852D03*
X174661927Y-87326789D03*
X173411927Y-85161725D03*
%TD*%
D26*
%TO.C,J6*%
X131422795Y-85135584D03*
D27*
X130172795Y-87300648D03*
X128922795Y-89465711D03*
X127672795Y-91630775D03*
%TD*%
D28*
%TO.C,C7*%
X138684000Y-118110000D03*
D29*
X136684000Y-118110000D03*
%TD*%
D16*
%TO.C,REF\u002A\u002A*%
X123720000Y-101590000D03*
%TD*%
D10*
%TO.C,C5*%
X119380000Y-104140000D03*
X119380000Y-101640000D03*
%TD*%
%TO.C,C4*%
X136546242Y-130676285D03*
X134449566Y-129314687D03*
%TD*%
D14*
%TO.C,R1*%
X171950000Y-71990000D03*
D30*
X167423687Y-69683728D03*
%TD*%
D31*
%TO.C,J3*%
X173391927Y-118072916D03*
D27*
X174641927Y-115907852D03*
X175891927Y-113742789D03*
X177141927Y-111577725D03*
%TD*%
D32*
%TO.C,U4*%
X129519030Y-132169965D03*
D12*
X131649253Y-133553348D03*
X133779476Y-134936731D03*
%TD*%
D16*
%TO.C,REF\u002A\u002A*%
X181020000Y-101570000D03*
%TD*%
%TO.C,REF\u002A\u002A*%
X166700000Y-76790000D03*
%TD*%
D33*
%TO.C,U6*%
X137370204Y-66507535D03*
D12*
X135107047Y-67660671D03*
X132843891Y-68813807D03*
%TD*%
D16*
%TO.C,REF\u002A\u002A*%
X128660000Y-70010000D03*
%TD*%
D34*
%TO.C,U1*%
X171956109Y-68813806D03*
D12*
X169692952Y-67660670D03*
X167429796Y-66507534D03*
%TD*%
D17*
%TO.C,J1*%
X156170000Y-75201000D03*
D18*
X153670000Y-75201000D03*
X151170000Y-75201000D03*
X148670000Y-75201000D03*
%TD*%
D16*
%TO.C,REF\u002A\u002A*%
X176100000Y-70010000D03*
%TD*%
D35*
%TO.C,U3*%
X171015622Y-134929184D03*
D12*
X173145845Y-133545801D03*
X175276068Y-132162418D03*
%TD*%
D14*
%TO.C,R2*%
X187706000Y-104140000D03*
D19*
X187706000Y-99060000D03*
%TD*%
D16*
%TO.C,REF\u002A\u002A*%
X166710000Y-126410000D03*
%TD*%
D10*
%TO.C,C6*%
X135146077Y-73332100D03*
X137373593Y-72197124D03*
%TD*%
D36*
%TO.C,J5*%
X127652795Y-111534584D03*
D37*
X128902795Y-113699648D03*
X130152795Y-115864711D03*
X131402795Y-118029775D03*
%TD*%
D16*
%TO.C,REF\u002A\u002A*%
X167880000Y-137940000D03*
%TD*%
D10*
%TO.C,C2*%
X185420000Y-99060000D03*
X185420000Y-101560000D03*
%TD*%
M02*
