%TF.GenerationSoftware,KiCad,Pcbnew,7.0.11*%
%TF.CreationDate,2025-01-20T02:02:22+09:00*%
%TF.ProjectId,CAM,43414d2e-6b69-4636-9164-5f7063625858,rev?*%
%TF.SameCoordinates,Original*%
%TF.FileFunction,Profile,NP*%
%FSLAX46Y46*%
G04 Gerber Fmt 4.6, Leading zero omitted, Abs format (unit mm)*
G04 Created by KiCad (PCBNEW 7.0.11) date 2025-01-20 02:02:22*
%MOMM*%
%LPD*%
G01*
G04 APERTURE LIST*
%TA.AperFunction,Profile*%
%ADD10C,0.200000*%
%TD*%
G04 APERTURE END LIST*
D10*
X110182099Y-106702822D02*
G75*
G03*
X114660347Y-108940714I2978301J360222D01*
G01*
X139874611Y-69600128D02*
X139874611Y-65268324D01*
X135697401Y-62508957D02*
G75*
G03*
X126859265Y-67611644I16677199J-39091243D01*
G01*
X139649217Y-76787562D02*
G75*
G03*
X136449219Y-76787562I-1599999J0D01*
G01*
X136449219Y-76787562D02*
G75*
G03*
X139649217Y-76787562I1599999J0D01*
G01*
X141874611Y-131600128D02*
X162874611Y-131600129D01*
X118411801Y-96425446D02*
G75*
G03*
X121143848Y-95693395I999999J1732046D01*
G01*
X173105374Y-125693397D02*
X183605374Y-107506861D01*
X126859262Y-135588613D02*
G75*
G03*
X135697399Y-140691310I25515238J33988313D01*
G01*
X118411801Y-96425446D02*
X114660346Y-94259544D01*
X169051831Y-62508941D02*
G75*
G03*
X164874611Y-65268325I-1177231J-2759359D01*
G01*
X194567194Y-96497428D02*
G75*
G03*
X190088877Y-94259545I-2978294J-360172D01*
G01*
X164874566Y-137931933D02*
G75*
G03*
X169051828Y-140691309I3000034J33D01*
G01*
X130260349Y-70010833D02*
G75*
G03*
X127060347Y-70010833I-1600001J0D01*
G01*
X127060347Y-70010833D02*
G75*
G03*
X130260349Y-70010833I1600001J0D01*
G01*
X173837456Y-74774863D02*
G75*
G03*
X173105374Y-77506863I999944J-1732037D01*
G01*
X139649001Y-126412564D02*
G75*
G03*
X136448999Y-126412564I-1600001J0D01*
G01*
X136448999Y-126412564D02*
G75*
G03*
X139649001Y-126412564I1600001J0D01*
G01*
X177688878Y-70010833D02*
G75*
G03*
X174488876Y-70010833I-1600001J0D01*
G01*
X174488876Y-70010833D02*
G75*
G03*
X177688878Y-70010833I1600001J0D01*
G01*
X110182050Y-96497429D02*
G75*
G03*
X110182050Y-106702828I42192560J-5102701D01*
G01*
X164874611Y-133600129D02*
X164874611Y-137931933D01*
X139874572Y-69600128D02*
G75*
G03*
X141874611Y-71600128I2000028J28D01*
G01*
X177889956Y-67611650D02*
G75*
G03*
X169051828Y-62508948I-25515356J-33988450D01*
G01*
X139874611Y-137931932D02*
X139874611Y-133600128D01*
X190088877Y-94259544D02*
X186337426Y-96425446D01*
X177889938Y-135588582D02*
G75*
G03*
X177588878Y-130591347I-1801038J2399182D01*
G01*
X114660347Y-108940714D02*
X118411799Y-106774809D01*
X164874611Y-65268325D02*
X164874611Y-69600129D01*
X148844000Y-81280000D02*
X157734000Y-81280000D01*
X157734000Y-95504000D01*
X148844000Y-95504000D01*
X148844000Y-81280000D01*
X182625619Y-101600258D02*
G75*
G03*
X179425619Y-101600258I-1600000J0D01*
G01*
X179425619Y-101600258D02*
G75*
G03*
X182625619Y-101600258I1600000J0D01*
G01*
X168300229Y-76787690D02*
G75*
G03*
X165100225Y-76787690I-1600002J0D01*
G01*
X165100225Y-76787690D02*
G75*
G03*
X168300229Y-76787690I1600002J0D01*
G01*
X194567176Y-106702828D02*
G75*
G03*
X194567176Y-96497430I-42192556J5102698D01*
G01*
X126859230Y-67611598D02*
G75*
G03*
X127160346Y-72608908I1801070J-2399202D01*
G01*
X173837425Y-74774809D02*
X177588878Y-72608908D01*
X177588878Y-130591346D02*
X173837427Y-128425446D01*
X121143848Y-107506862D02*
X131643851Y-125693397D01*
X190088908Y-108940660D02*
G75*
G03*
X194567176Y-106702828I1499992J2598060D01*
G01*
X162874611Y-71600111D02*
G75*
G03*
X164874611Y-69600129I-11J2000011D01*
G01*
X121143832Y-107506871D02*
G75*
G03*
X118411799Y-106774810I-1732032J-999929D01*
G01*
X127160346Y-72608908D02*
X130911800Y-74774808D01*
X162874611Y-71600128D02*
X141874611Y-71600128D01*
X186337401Y-106774852D02*
G75*
G03*
X183605374Y-107506861I-1000001J-1732048D01*
G01*
X139874573Y-65268324D02*
G75*
G03*
X135697396Y-62508947I-2999973J24D01*
G01*
X177588850Y-72608859D02*
G75*
G03*
X177889960Y-67611645I-1499950J2598059D01*
G01*
X138474612Y-137931934D02*
G75*
G03*
X135274612Y-137931934I-1600000J0D01*
G01*
X135274612Y-137931934D02*
G75*
G03*
X138474612Y-137931934I1600000J0D01*
G01*
X183605374Y-95693395D02*
X173105374Y-77506863D01*
X127160325Y-130591311D02*
G75*
G03*
X126859265Y-135588609I1500075J-2598089D01*
G01*
X135697404Y-140691298D02*
G75*
G03*
X139874611Y-137931932I1177196J2759398D01*
G01*
X169474615Y-137931934D02*
G75*
G03*
X166274611Y-137931934I-1600002J0D01*
G01*
X166274611Y-137931934D02*
G75*
G03*
X169474615Y-137931934I1600002J0D01*
G01*
X130911785Y-128425419D02*
G75*
G03*
X131643851Y-125693397I-999885J1732019D01*
G01*
X130911800Y-128425446D02*
X127160346Y-130591347D01*
X186337426Y-106774808D02*
X190088877Y-108940714D01*
X183605346Y-95693411D02*
G75*
G03*
X186337426Y-96425445I1732054J1000011D01*
G01*
X173105372Y-125693396D02*
G75*
G03*
X173837427Y-128425446I1732028J-1000004D01*
G01*
X114660318Y-94259592D02*
G75*
G03*
X110182049Y-96497429I-1500018J-2598008D01*
G01*
X164874571Y-133600129D02*
G75*
G03*
X162874611Y-131600129I-1999971J29D01*
G01*
X141874611Y-131600111D02*
G75*
G03*
X139874611Y-133600128I-11J-1999989D01*
G01*
X131643851Y-77506863D02*
X121143848Y-95693395D01*
X131643897Y-77506890D02*
G75*
G03*
X130911800Y-74774809I-1732097J999990D01*
G01*
X125323604Y-101600003D02*
G75*
G03*
X122123604Y-101600003I-1600000J0D01*
G01*
X122123604Y-101600003D02*
G75*
G03*
X125323604Y-101600003I1600000J0D01*
G01*
X169051827Y-140691308D02*
G75*
G03*
X177889960Y-135588611I-16677227J39091208D01*
G01*
X168300007Y-126412692D02*
G75*
G03*
X165100007Y-126412692I-1600000J0D01*
G01*
X165100007Y-126412692D02*
G75*
G03*
X168300007Y-126412692I1600000J0D01*
G01*
M02*
