%TF.GenerationSoftware,KiCad,Pcbnew,7.0.11*%
%TF.CreationDate,2025-01-20T02:02:24+09:00*%
%TF.ProjectId,CAM,43414d2e-6b69-4636-9164-5f7063625858,rev?*%
%TF.SameCoordinates,Original*%
%TF.FileFunction,Drillmap*%
%TF.FilePolarity,Positive*%
%FSLAX45Y45*%
G04 Gerber Fmt 4.5, Leading zero omitted, Abs format (unit mm)*
G04 Created by KiCad (PCBNEW 7.0.11) date 2025-01-20 02:02:24*
%MOMM*%
%LPD*%
G01*
G04 APERTURE LIST*
%ADD10C,0.200000*%
%ADD11C,0.100000*%
G04 APERTURE END LIST*
D10*
X11018210Y-10670282D02*
G75*
G03*
X11466035Y-10894071I297830J36022D01*
G01*
X13987461Y-6960013D02*
X13987461Y-6526832D01*
X13569740Y-6250896D02*
G75*
G03*
X12685926Y-6761164I1667720J-3909124D01*
G01*
X13964922Y-7678756D02*
G75*
G03*
X13644922Y-7678756I-160000J0D01*
G01*
X13644922Y-7678756D02*
G75*
G03*
X13964922Y-7678756I160000J0D01*
G01*
X14187461Y-13160013D02*
X16287461Y-13160013D01*
X11841180Y-9642545D02*
G75*
G03*
X12114385Y-9569340I100000J173205D01*
G01*
X17310537Y-12569340D02*
X18360537Y-10750686D01*
X12685926Y-13558861D02*
G75*
G03*
X13569740Y-14069131I2551524J3398831D01*
G01*
X11841180Y-9642545D02*
X11466035Y-9425954D01*
X16905183Y-6250894D02*
G75*
G03*
X16487461Y-6526832I-117723J-275936D01*
G01*
X19456719Y-9649743D02*
G75*
G03*
X19008888Y-9425955I-297829J-36017D01*
G01*
X16487457Y-13793193D02*
G75*
G03*
X16905183Y-14069131I300003J3D01*
G01*
X13026035Y-7001083D02*
G75*
G03*
X12706035Y-7001083I-160000J0D01*
G01*
X12706035Y-7001083D02*
G75*
G03*
X13026035Y-7001083I160000J0D01*
G01*
X17383746Y-7477486D02*
G75*
G03*
X17310537Y-7750686I99994J-173204D01*
G01*
X13964900Y-12641256D02*
G75*
G03*
X13644900Y-12641256I-160000J0D01*
G01*
X13644900Y-12641256D02*
G75*
G03*
X13964900Y-12641256I160000J0D01*
G01*
X17768888Y-7001083D02*
G75*
G03*
X17448888Y-7001083I-160000J0D01*
G01*
X17448888Y-7001083D02*
G75*
G03*
X17768888Y-7001083I160000J0D01*
G01*
X11018205Y-9649743D02*
G75*
G03*
X11018205Y-10670283I4219256J-510270D01*
G01*
X16487461Y-13360013D02*
X16487461Y-13793193D01*
X13987457Y-6960013D02*
G75*
G03*
X14187461Y-7160013I200003J3D01*
G01*
X17788996Y-6761165D02*
G75*
G03*
X16905183Y-6250895I-2551536J-3398845D01*
G01*
X13987461Y-13793193D02*
X13987461Y-13360013D01*
X19008888Y-9425954D02*
X18633743Y-9642545D01*
X17788994Y-13558858D02*
G75*
G03*
X17758888Y-13059135I-180104J239918D01*
G01*
X11466035Y-10894071D02*
X11841180Y-10677481D01*
X16487461Y-6526832D02*
X16487461Y-6960013D01*
X14884400Y-8128000D02*
X15773400Y-8128000D01*
X15773400Y-9550400D01*
X14884400Y-9550400D01*
X14884400Y-8128000D01*
X18262562Y-10160026D02*
G75*
G03*
X17942562Y-10160026I-160000J0D01*
G01*
X17942562Y-10160026D02*
G75*
G03*
X18262562Y-10160026I160000J0D01*
G01*
X16830023Y-7678769D02*
G75*
G03*
X16510022Y-7678769I-160000J0D01*
G01*
X16510022Y-7678769D02*
G75*
G03*
X16830023Y-7678769I160000J0D01*
G01*
X19456718Y-10670283D02*
G75*
G03*
X19456718Y-9649743I-4219256J510270D01*
G01*
X12685923Y-6761160D02*
G75*
G03*
X12716035Y-7260891I180107J-239920D01*
G01*
X17383743Y-7477481D02*
X17758888Y-7260891D01*
X17758888Y-13059135D02*
X17383743Y-12842545D01*
X12114385Y-10750686D02*
X13164385Y-12569340D01*
X19008891Y-10894066D02*
G75*
G03*
X19456718Y-10670283I149999J259806D01*
G01*
X16287461Y-7160011D02*
G75*
G03*
X16487461Y-6960013I-1J200001D01*
G01*
X12114383Y-10750687D02*
G75*
G03*
X11841180Y-10677481I-173203J-99993D01*
G01*
X12716035Y-7260891D02*
X13091180Y-7477481D01*
X16287461Y-7160013D02*
X14187461Y-7160013D01*
X18633740Y-10677485D02*
G75*
G03*
X18360537Y-10750686I-100000J-173205D01*
G01*
X13987457Y-6526832D02*
G75*
G03*
X13569740Y-6250895I-299997J2D01*
G01*
X17758885Y-7260886D02*
G75*
G03*
X17788996Y-6761164I-149995J259806D01*
G01*
X13847461Y-13793193D02*
G75*
G03*
X13527461Y-13793193I-160000J0D01*
G01*
X13527461Y-13793193D02*
G75*
G03*
X13847461Y-13793193I160000J0D01*
G01*
X18360537Y-9569340D02*
X17310537Y-7750686D01*
X12716032Y-13059131D02*
G75*
G03*
X12685926Y-13558861I150008J-259809D01*
G01*
X13569740Y-14069130D02*
G75*
G03*
X13987461Y-13793193I117720J275940D01*
G01*
X16947462Y-13793193D02*
G75*
G03*
X16627461Y-13793193I-160000J0D01*
G01*
X16627461Y-13793193D02*
G75*
G03*
X16947462Y-13793193I160000J0D01*
G01*
X13091178Y-12842542D02*
G75*
G03*
X13164385Y-12569340I-99989J173202D01*
G01*
X13091180Y-12842545D02*
X12716035Y-13059135D01*
X18633743Y-10677481D02*
X19008888Y-10894071D01*
X18360535Y-9569341D02*
G75*
G03*
X18633743Y-9642545I173205J100001D01*
G01*
X17310537Y-12569340D02*
G75*
G03*
X17383743Y-12842545I173203J-100000D01*
G01*
X11466032Y-9425959D02*
G75*
G03*
X11018205Y-9649743I-150002J-259801D01*
G01*
X16487457Y-13360013D02*
G75*
G03*
X16287461Y-13160013I-199997J3D01*
G01*
X14187461Y-13160011D02*
G75*
G03*
X13987461Y-13360013I-1J-199999D01*
G01*
X13164385Y-7750686D02*
X12114385Y-9569340D01*
X13164390Y-7750689D02*
G75*
G03*
X13091180Y-7477481I-173210J99999D01*
G01*
X12532360Y-10160000D02*
G75*
G03*
X12212360Y-10160000I-160000J0D01*
G01*
X12212360Y-10160000D02*
G75*
G03*
X12532360Y-10160000I160000J0D01*
G01*
X16905183Y-14069131D02*
G75*
G03*
X17788996Y-13558861I-1667723J3909121D01*
G01*
X16830001Y-12641269D02*
G75*
G03*
X16510001Y-12641269I-160000J0D01*
G01*
X16510001Y-12641269D02*
G75*
G03*
X16830001Y-12641269I160000J0D01*
G01*
D11*
X11291000Y-9633000D02*
X11331000Y-9673000D01*
X11331000Y-9633000D02*
X11291000Y-9673000D01*
X11297000Y-10652000D02*
X11337000Y-10692000D01*
X11337000Y-10652000D02*
X11297000Y-10692000D01*
X11760000Y-10234000D02*
X11800000Y-10274000D01*
X11800000Y-10234000D02*
X11760000Y-10274000D01*
X12328000Y-9752000D02*
X12368000Y-9792000D01*
X12368000Y-9752000D02*
X12328000Y-9792000D01*
X12361000Y-11036000D02*
X12401000Y-11076000D01*
X12401000Y-11036000D02*
X12361000Y-11076000D01*
X12492000Y-9419000D02*
X12532000Y-9459000D01*
X12532000Y-9419000D02*
X12492000Y-9459000D01*
X12620000Y-10727000D02*
X12660000Y-10767000D01*
X12660000Y-10727000D02*
X12620000Y-10767000D01*
X12703000Y-10249000D02*
X12743000Y-10289000D01*
X12743000Y-10249000D02*
X12703000Y-10289000D01*
X12935000Y-11022000D02*
X12975000Y-11062000D01*
X12975000Y-11022000D02*
X12935000Y-11062000D01*
X13036000Y-8091000D02*
X13076000Y-8131000D01*
X13076000Y-8091000D02*
X13036000Y-8131000D01*
X13085000Y-6602000D02*
X13125000Y-6642000D01*
X13125000Y-6602000D02*
X13085000Y-6642000D01*
X13100000Y-7346000D02*
X13140000Y-7386000D01*
X13140000Y-7346000D02*
X13100000Y-7386000D01*
X13112000Y-10260000D02*
X13152000Y-10300000D01*
X13152000Y-10260000D02*
X13112000Y-10300000D01*
X13209000Y-8896000D02*
X13249000Y-8936000D01*
X13249000Y-8896000D02*
X13209000Y-8936000D01*
X13280000Y-11080000D02*
X13320000Y-11120000D01*
X13320000Y-11080000D02*
X13280000Y-11120000D01*
X13295000Y-10583000D02*
X13335000Y-10623000D01*
X13335000Y-10583000D02*
X13295000Y-10623000D01*
X13309000Y-9665000D02*
X13349000Y-9705000D01*
X13349000Y-9665000D02*
X13309000Y-9705000D01*
X13324000Y-11924000D02*
X13364000Y-11964000D01*
X13364000Y-11924000D02*
X13324000Y-11964000D01*
X13382000Y-7611000D02*
X13422000Y-7651000D01*
X13422000Y-7611000D02*
X13382000Y-7651000D01*
X13386000Y-8085000D02*
X13426000Y-8125000D01*
X13426000Y-8085000D02*
X13386000Y-8125000D01*
X13424000Y-12310000D02*
X13464000Y-12350000D01*
X13464000Y-12310000D02*
X13424000Y-12350000D01*
X13503000Y-8389000D02*
X13543000Y-8429000D01*
X13543000Y-8389000D02*
X13503000Y-8429000D01*
X13519000Y-11654000D02*
X13559000Y-11694000D01*
X13559000Y-11654000D02*
X13519000Y-11694000D01*
X13600000Y-9758000D02*
X13640000Y-9798000D01*
X13640000Y-9758000D02*
X13600000Y-9798000D01*
X13607000Y-9424000D02*
X13647000Y-9464000D01*
X13647000Y-9424000D02*
X13607000Y-9464000D01*
X13616000Y-6988000D02*
X13656000Y-7028000D01*
X13656000Y-6988000D02*
X13616000Y-7028000D01*
X13696000Y-10573000D02*
X13736000Y-10613000D01*
X13736000Y-10573000D02*
X13696000Y-10613000D01*
X13712000Y-6337000D02*
X13752000Y-6377000D01*
X13752000Y-6337000D02*
X13712000Y-6377000D01*
X13795000Y-8052000D02*
X13835000Y-8092000D01*
X13835000Y-8052000D02*
X13795000Y-8092000D01*
X13812000Y-8393000D02*
X13852000Y-8433000D01*
X13852000Y-8393000D02*
X13812000Y-8433000D01*
X13932000Y-9435000D02*
X13972000Y-9475000D01*
X13972000Y-9435000D02*
X13932000Y-9475000D01*
X13949000Y-9775000D02*
X13989000Y-9815000D01*
X13989000Y-9775000D02*
X13949000Y-9815000D01*
X14008000Y-10777000D02*
X14048000Y-10817000D01*
X14048000Y-10777000D02*
X14008000Y-10817000D01*
X14025000Y-8901000D02*
X14065000Y-8941000D01*
X14065000Y-8901000D02*
X14025000Y-8941000D01*
X14028000Y-12906000D02*
X14068000Y-12946000D01*
X14068000Y-12906000D02*
X14028000Y-12946000D01*
X14037000Y-11713000D02*
X14077000Y-11753000D01*
X14077000Y-11713000D02*
X14037000Y-11753000D01*
X14076000Y-7257000D02*
X14116000Y-7297000D01*
X14116000Y-7257000D02*
X14076000Y-7297000D01*
X14328000Y-8395000D02*
X14368000Y-8435000D01*
X14368000Y-8395000D02*
X14328000Y-8435000D01*
X14586000Y-12308000D02*
X14626000Y-12348000D01*
X14626000Y-12308000D02*
X14586000Y-12348000D01*
X14650000Y-11818000D02*
X14690000Y-11858000D01*
X14690000Y-11818000D02*
X14650000Y-11858000D01*
X14655000Y-11330000D02*
X14695000Y-11370000D01*
X14695000Y-11330000D02*
X14655000Y-11370000D01*
X14788200Y-8362000D02*
X14828200Y-8402000D01*
X14828200Y-8362000D02*
X14788200Y-8402000D01*
X14835000Y-12111000D02*
X14875000Y-12151000D01*
X14875000Y-12111000D02*
X14835000Y-12151000D01*
X14989000Y-12939000D02*
X15029000Y-12979000D01*
X15029000Y-12939000D02*
X14989000Y-12979000D01*
X14991400Y-9606600D02*
X15031400Y-9646600D01*
X15031400Y-9606600D02*
X14991400Y-9646600D01*
X15088000Y-12350000D02*
X15128000Y-12390000D01*
X15128000Y-12350000D02*
X15088000Y-12390000D01*
X15092000Y-11911000D02*
X15132000Y-11951000D01*
X15132000Y-11911000D02*
X15092000Y-11951000D01*
X15217000Y-8015000D02*
X15257000Y-8055000D01*
X15257000Y-8015000D02*
X15217000Y-8055000D01*
X15221000Y-7263000D02*
X15261000Y-7303000D01*
X15261000Y-7263000D02*
X15221000Y-7303000D01*
X15224000Y-10784000D02*
X15264000Y-10824000D01*
X15264000Y-10784000D02*
X15224000Y-10824000D01*
X15296200Y-9784400D02*
X15336200Y-9824400D01*
X15336200Y-9784400D02*
X15296200Y-9824400D01*
X15585000Y-11989000D02*
X15625000Y-12029000D01*
X15625000Y-11989000D02*
X15585000Y-12029000D01*
X15601000Y-8031800D02*
X15641000Y-8071800D01*
X15641000Y-8031800D02*
X15601000Y-8071800D01*
X15601000Y-9606600D02*
X15641000Y-9646600D01*
X15641000Y-9606600D02*
X15601000Y-9646600D01*
X15817000Y-12975000D02*
X15857000Y-13015000D01*
X15857000Y-12975000D02*
X15817000Y-13015000D01*
X16085000Y-7226000D02*
X16125000Y-7266000D01*
X16125000Y-7226000D02*
X16085000Y-7266000D01*
X16108000Y-8915000D02*
X16148000Y-8955000D01*
X16148000Y-8915000D02*
X16108000Y-8955000D01*
X16110000Y-8663000D02*
X16150000Y-8703000D01*
X16150000Y-8663000D02*
X16110000Y-8703000D01*
X16428000Y-8432000D02*
X16468000Y-8472000D01*
X16468000Y-8432000D02*
X16428000Y-8472000D01*
X16449000Y-9046000D02*
X16489000Y-9086000D01*
X16489000Y-9046000D02*
X16449000Y-9086000D01*
X16452000Y-7280000D02*
X16492000Y-7320000D01*
X16492000Y-7280000D02*
X16452000Y-7320000D01*
X16508000Y-13227000D02*
X16548000Y-13267000D01*
X16548000Y-13227000D02*
X16508000Y-13267000D01*
X16524000Y-6822000D02*
X16564000Y-6862000D01*
X16564000Y-6822000D02*
X16524000Y-6862000D01*
X16597000Y-11337000D02*
X16637000Y-11377000D01*
X16637000Y-11337000D02*
X16597000Y-11377000D01*
X16713000Y-6392000D02*
X16753000Y-6432000D01*
X16753000Y-6392000D02*
X16713000Y-6432000D01*
X16824000Y-7091000D02*
X16864000Y-7131000D01*
X16864000Y-7091000D02*
X16824000Y-7131000D01*
X16954000Y-8100000D02*
X16994000Y-8140000D01*
X16994000Y-8100000D02*
X16954000Y-8140000D01*
X16955000Y-8438000D02*
X16995000Y-8478000D01*
X16995000Y-8438000D02*
X16955000Y-8478000D01*
X16959000Y-9264000D02*
X16999000Y-9304000D01*
X16999000Y-9264000D02*
X16959000Y-9304000D01*
X16992735Y-9909735D02*
X17032735Y-9949735D01*
X17032735Y-9909735D02*
X16992735Y-9949735D01*
X17044000Y-12405000D02*
X17084000Y-12445000D01*
X17084000Y-12405000D02*
X17044000Y-12445000D01*
X17099765Y-10007765D02*
X17139765Y-10047765D01*
X17139765Y-10007765D02*
X17099765Y-10047765D01*
X17160000Y-9885000D02*
X17200000Y-9925000D01*
X17200000Y-9885000D02*
X17160000Y-9925000D01*
X17162000Y-12973000D02*
X17202000Y-13013000D01*
X17202000Y-12973000D02*
X17162000Y-13013000D01*
X17178000Y-11337000D02*
X17218000Y-11377000D01*
X17218000Y-11337000D02*
X17178000Y-11377000D01*
X17183000Y-7792000D02*
X17223000Y-7832000D01*
X17223000Y-7792000D02*
X17183000Y-7832000D01*
X17260000Y-7395000D02*
X17300000Y-7435000D01*
X17300000Y-7395000D02*
X17260000Y-7435000D01*
X17297000Y-6609000D02*
X17337000Y-6649000D01*
X17337000Y-6609000D02*
X17297000Y-6649000D01*
X17458000Y-13582000D02*
X17498000Y-13622000D01*
X17498000Y-13582000D02*
X17458000Y-13622000D01*
X17567000Y-9876000D02*
X17607000Y-9916000D01*
X17607000Y-9876000D02*
X17567000Y-9916000D01*
X17582000Y-9593000D02*
X17622000Y-9633000D01*
X17622000Y-9593000D02*
X17582000Y-9633000D01*
X17582000Y-10476000D02*
X17622000Y-10516000D01*
X17622000Y-10476000D02*
X17582000Y-10516000D01*
X17788000Y-8933000D02*
X17828000Y-8973000D01*
X17828000Y-8933000D02*
X17788000Y-8973000D01*
X17837000Y-9323000D02*
X17877000Y-9363000D01*
X17877000Y-9323000D02*
X17837000Y-9363000D01*
X18013000Y-11131000D02*
X18053000Y-11171000D01*
X18053000Y-11131000D02*
X18013000Y-11171000D01*
X18150000Y-9611000D02*
X18190000Y-9651000D01*
X18190000Y-9611000D02*
X18150000Y-9651000D01*
X18753000Y-10134000D02*
X18793000Y-10174000D01*
X18793000Y-10134000D02*
X18753000Y-10174000D01*
X19128000Y-10635000D02*
X19168000Y-10675000D01*
X19168000Y-10635000D02*
X19128000Y-10675000D01*
X19163000Y-9613000D02*
X19203000Y-9653000D01*
X19203000Y-9613000D02*
X19163000Y-9653000D01*
X13698400Y-11811000D02*
G75*
G03*
X13638400Y-11811000I-30000J0D01*
G01*
X13638400Y-11811000D02*
G75*
G03*
X13698400Y-11811000I30000J0D01*
G01*
X13898400Y-11811000D02*
G75*
G03*
X13838400Y-11811000I-30000J0D01*
G01*
X13838400Y-11811000D02*
G75*
G03*
X13898400Y-11811000I30000J0D01*
G01*
X11709400Y-9871000D02*
X11709400Y-9941000D01*
X11674400Y-9906000D02*
X11744400Y-9906000D01*
X11709400Y-10379000D02*
X11709400Y-10449000D01*
X11674400Y-10414000D02*
X11744400Y-10414000D01*
X13104075Y-12947672D02*
X13104075Y-13017672D01*
X13069075Y-12982672D02*
X13139075Y-12982672D01*
X13410825Y-7094526D02*
X13410825Y-7164526D01*
X13375825Y-7129526D02*
X13445825Y-7129526D01*
X13530120Y-13224349D02*
X13530120Y-13294349D01*
X13495120Y-13259349D02*
X13565120Y-13259349D01*
X13863457Y-6863899D02*
X13863457Y-6933899D01*
X13828457Y-6898899D02*
X13898457Y-6898899D01*
X16742369Y-6933373D02*
X16742369Y-7003373D01*
X16707369Y-6968373D02*
X16777369Y-6968373D01*
X16949880Y-13224349D02*
X16949880Y-13294349D01*
X16914880Y-13259349D02*
X16984880Y-13259349D01*
X17195000Y-7164000D02*
X17195000Y-7234000D01*
X17160000Y-7199000D02*
X17230000Y-7199000D01*
X17375925Y-12947672D02*
X17375925Y-13017672D01*
X17340925Y-12982672D02*
X17410925Y-12982672D01*
X18770600Y-9871000D02*
X18770600Y-9941000D01*
X18735600Y-9906000D02*
X18805600Y-9906000D01*
X18770600Y-10379000D02*
X18770600Y-10449000D01*
X18735600Y-10414000D02*
X18805600Y-10414000D01*
X11966284Y-10192285D02*
X11966284Y-10135716D01*
X11909715Y-10135716D01*
X11909715Y-10192285D01*
X11966284Y-10192285D01*
X11966284Y-10442285D02*
X11966284Y-10385716D01*
X11909715Y-10385716D01*
X11909715Y-10442285D01*
X11966284Y-10442285D01*
X13473241Y-12959753D02*
X13473241Y-12903184D01*
X13416672Y-12903184D01*
X13416672Y-12959753D01*
X13473241Y-12959753D01*
X13542892Y-7361494D02*
X13542892Y-7304925D01*
X13486323Y-7304925D01*
X13486323Y-7361494D01*
X13542892Y-7361494D01*
X13682909Y-13095913D02*
X13682909Y-13039344D01*
X13626340Y-13039344D01*
X13626340Y-13095913D01*
X13682909Y-13095913D01*
X13765644Y-7247997D02*
X13765644Y-7191428D01*
X13709075Y-7191428D01*
X13709075Y-7247997D01*
X13765644Y-7247997D01*
X13972884Y-10114085D02*
X13972884Y-10057516D01*
X13916315Y-10057516D01*
X13916315Y-10114085D01*
X13972884Y-10114085D01*
X13972884Y-10364085D02*
X13972884Y-10307516D01*
X13916315Y-10307516D01*
X13916315Y-10364085D01*
X13972884Y-10364085D01*
X16681284Y-7197284D02*
X16681284Y-7140715D01*
X16624715Y-7140715D01*
X16624715Y-7197284D01*
X16681284Y-7197284D01*
X16904036Y-7310782D02*
X16904036Y-7254213D01*
X16847467Y-7254213D01*
X16847467Y-7310782D01*
X16904036Y-7310782D01*
X17017651Y-12974164D02*
X17017651Y-12917595D01*
X16961082Y-12917595D01*
X16961082Y-12974164D01*
X17017651Y-12974164D01*
X17227318Y-12838005D02*
X17227318Y-12781436D01*
X17170749Y-12781436D01*
X17170749Y-12838005D01*
X17227318Y-12838005D01*
X18570285Y-9934285D02*
X18570285Y-9877716D01*
X18513716Y-9877716D01*
X18513716Y-9934285D01*
X18570285Y-9934285D01*
X18570285Y-10184285D02*
X18570285Y-10127716D01*
X18513716Y-10127716D01*
X18513716Y-10184285D01*
X18570285Y-10184285D01*
X11430900Y-9951000D02*
X11475900Y-9906000D01*
X11430900Y-9861000D01*
X11385900Y-9906000D01*
X11430900Y-9951000D01*
X11430900Y-10205000D02*
X11475900Y-10160000D01*
X11430900Y-10115000D01*
X11385900Y-10160000D01*
X11430900Y-10205000D01*
X11430900Y-10459000D02*
X11475900Y-10414000D01*
X11430900Y-10369000D01*
X11385900Y-10414000D01*
X11430900Y-10459000D01*
X12951903Y-13261996D02*
X12996903Y-13216996D01*
X12951903Y-13171996D01*
X12906903Y-13216996D01*
X12951903Y-13261996D01*
X13164925Y-13400335D02*
X13209925Y-13355335D01*
X13164925Y-13310335D01*
X13119925Y-13355335D01*
X13164925Y-13400335D01*
X13284389Y-6926381D02*
X13329389Y-6881381D01*
X13284389Y-6836381D01*
X13239389Y-6881381D01*
X13284389Y-6926381D01*
X13377948Y-13538673D02*
X13422948Y-13493673D01*
X13377948Y-13448673D01*
X13332948Y-13493673D01*
X13377948Y-13538673D01*
X13510705Y-6811067D02*
X13555705Y-6766067D01*
X13510705Y-6721067D01*
X13465705Y-6766067D01*
X13510705Y-6811067D01*
X13737020Y-6695753D02*
X13782020Y-6650753D01*
X13737020Y-6605753D01*
X13692020Y-6650753D01*
X13737020Y-6695753D01*
X16742980Y-6695753D02*
X16787980Y-6650753D01*
X16742980Y-6605753D01*
X16697980Y-6650753D01*
X16742980Y-6695753D01*
X16969295Y-6811067D02*
X17014295Y-6766067D01*
X16969295Y-6721067D01*
X16924295Y-6766067D01*
X16969295Y-6811067D01*
X17101562Y-13537918D02*
X17146562Y-13492918D01*
X17101562Y-13447918D01*
X17056562Y-13492918D01*
X17101562Y-13537918D01*
X17195611Y-6926381D02*
X17240611Y-6881381D01*
X17195611Y-6836381D01*
X17150611Y-6881381D01*
X17195611Y-6926381D01*
X17314585Y-13399580D02*
X17359585Y-13354580D01*
X17314585Y-13309580D01*
X17269585Y-13354580D01*
X17314585Y-13399580D01*
X17527607Y-13261242D02*
X17572607Y-13216242D01*
X17527607Y-13171242D01*
X17482607Y-13216242D01*
X17527607Y-13261242D01*
X19049100Y-9951000D02*
X19094100Y-9906000D01*
X19049100Y-9861000D01*
X19004100Y-9906000D01*
X19049100Y-9951000D01*
X19049100Y-10205000D02*
X19094100Y-10160000D01*
X19049100Y-10115000D01*
X19004100Y-10160000D01*
X19049100Y-10205000D01*
X19049100Y-10459000D02*
X19094100Y-10414000D01*
X19049100Y-10369000D01*
X19004100Y-10414000D01*
X19049100Y-10459000D01*
X12717779Y-11105958D02*
X12812779Y-11200958D01*
X12812779Y-11105958D02*
X12717779Y-11200958D01*
X12812779Y-11153458D02*
G75*
G03*
X12717779Y-11153458I-47500J0D01*
G01*
X12717779Y-11153458D02*
G75*
G03*
X12812779Y-11153458I47500J0D01*
G01*
X12719779Y-9115578D02*
X12814779Y-9210578D01*
X12814779Y-9115578D02*
X12719779Y-9210578D01*
X12814779Y-9163078D02*
G75*
G03*
X12719779Y-9163078I-47500J0D01*
G01*
X12719779Y-9163078D02*
G75*
G03*
X12814779Y-9163078I47500J0D01*
G01*
X12842779Y-11322465D02*
X12937779Y-11417465D01*
X12937779Y-11322465D02*
X12842779Y-11417465D01*
X12937779Y-11369965D02*
G75*
G03*
X12842779Y-11369965I-47500J0D01*
G01*
X12842779Y-11369965D02*
G75*
G03*
X12937779Y-11369965I47500J0D01*
G01*
X12844779Y-8899071D02*
X12939779Y-8994071D01*
X12939779Y-8899071D02*
X12844779Y-8994071D01*
X12939779Y-8946571D02*
G75*
G03*
X12844779Y-8946571I-47500J0D01*
G01*
X12844779Y-8946571D02*
G75*
G03*
X12939779Y-8946571I47500J0D01*
G01*
X12967779Y-11538971D02*
X13062779Y-11633971D01*
X13062779Y-11538971D02*
X12967779Y-11633971D01*
X13062779Y-11586471D02*
G75*
G03*
X12967779Y-11586471I-47500J0D01*
G01*
X12967779Y-11586471D02*
G75*
G03*
X13062779Y-11586471I47500J0D01*
G01*
X12969779Y-8682565D02*
X13064779Y-8777565D01*
X13064779Y-8682565D02*
X12969779Y-8777565D01*
X13064779Y-8730065D02*
G75*
G03*
X12969779Y-8730065I-47500J0D01*
G01*
X12969779Y-8730065D02*
G75*
G03*
X13064779Y-8730065I47500J0D01*
G01*
X13092779Y-11755477D02*
X13187779Y-11850477D01*
X13187779Y-11755477D02*
X13092779Y-11850477D01*
X13187779Y-11802977D02*
G75*
G03*
X13092779Y-11802977I-47500J0D01*
G01*
X13092779Y-11802977D02*
G75*
G03*
X13187779Y-11802977I47500J0D01*
G01*
X13094779Y-8466058D02*
X13189779Y-8561058D01*
X13189779Y-8466058D02*
X13094779Y-8561058D01*
X13189779Y-8513558D02*
G75*
G03*
X13094779Y-8513558I-47500J0D01*
G01*
X13094779Y-8513558D02*
G75*
G03*
X13189779Y-8513558I47500J0D01*
G01*
X14815500Y-12754100D02*
X14910500Y-12849100D01*
X14910500Y-12754100D02*
X14815500Y-12849100D01*
X14910500Y-12801600D02*
G75*
G03*
X14815500Y-12801600I-47500J0D01*
G01*
X14815500Y-12801600D02*
G75*
G03*
X14910500Y-12801600I47500J0D01*
G01*
X14817500Y-11676700D02*
X14912500Y-11771700D01*
X14912500Y-11676700D02*
X14817500Y-11771700D01*
X14912500Y-11724200D02*
G75*
G03*
X14817500Y-11724200I-47500J0D01*
G01*
X14817500Y-11724200D02*
G75*
G03*
X14912500Y-11724200I47500J0D01*
G01*
X14819500Y-7472600D02*
X14914500Y-7567600D01*
X14914500Y-7472600D02*
X14819500Y-7567600D01*
X14914500Y-7520100D02*
G75*
G03*
X14819500Y-7520100I-47500J0D01*
G01*
X14819500Y-7520100D02*
G75*
G03*
X14914500Y-7520100I47500J0D01*
G01*
X15065500Y-12754100D02*
X15160500Y-12849100D01*
X15160500Y-12754100D02*
X15065500Y-12849100D01*
X15160500Y-12801600D02*
G75*
G03*
X15065500Y-12801600I-47500J0D01*
G01*
X15065500Y-12801600D02*
G75*
G03*
X15160500Y-12801600I47500J0D01*
G01*
X15067500Y-11676700D02*
X15162500Y-11771700D01*
X15162500Y-11676700D02*
X15067500Y-11771700D01*
X15162500Y-11724200D02*
G75*
G03*
X15067500Y-11724200I-47500J0D01*
G01*
X15067500Y-11724200D02*
G75*
G03*
X15162500Y-11724200I47500J0D01*
G01*
X15069500Y-7472600D02*
X15164500Y-7567600D01*
X15164500Y-7472600D02*
X15069500Y-7567600D01*
X15164500Y-7520100D02*
G75*
G03*
X15069500Y-7520100I-47500J0D01*
G01*
X15069500Y-7520100D02*
G75*
G03*
X15164500Y-7520100I47500J0D01*
G01*
X15315500Y-12754100D02*
X15410500Y-12849100D01*
X15410500Y-12754100D02*
X15315500Y-12849100D01*
X15410500Y-12801600D02*
G75*
G03*
X15315500Y-12801600I-47500J0D01*
G01*
X15315500Y-12801600D02*
G75*
G03*
X15410500Y-12801600I47500J0D01*
G01*
X15317500Y-11676700D02*
X15412500Y-11771700D01*
X15412500Y-11676700D02*
X15317500Y-11771700D01*
X15412500Y-11724200D02*
G75*
G03*
X15317500Y-11724200I-47500J0D01*
G01*
X15317500Y-11724200D02*
G75*
G03*
X15412500Y-11724200I47500J0D01*
G01*
X15319500Y-7472600D02*
X15414500Y-7567600D01*
X15414500Y-7472600D02*
X15319500Y-7567600D01*
X15414500Y-7520100D02*
G75*
G03*
X15319500Y-7520100I-47500J0D01*
G01*
X15319500Y-7520100D02*
G75*
G03*
X15414500Y-7520100I47500J0D01*
G01*
X15565500Y-12754100D02*
X15660500Y-12849100D01*
X15660500Y-12754100D02*
X15565500Y-12849100D01*
X15660500Y-12801600D02*
G75*
G03*
X15565500Y-12801600I-47500J0D01*
G01*
X15565500Y-12801600D02*
G75*
G03*
X15660500Y-12801600I47500J0D01*
G01*
X15567500Y-11676700D02*
X15662500Y-11771700D01*
X15662500Y-11676700D02*
X15567500Y-11771700D01*
X15662500Y-11724200D02*
G75*
G03*
X15567500Y-11724200I-47500J0D01*
G01*
X15567500Y-11724200D02*
G75*
G03*
X15662500Y-11724200I47500J0D01*
G01*
X15569500Y-7472600D02*
X15664500Y-7567600D01*
X15664500Y-7472600D02*
X15569500Y-7567600D01*
X15664500Y-7520100D02*
G75*
G03*
X15569500Y-7520100I-47500J0D01*
G01*
X15569500Y-7520100D02*
G75*
G03*
X15664500Y-7520100I47500J0D01*
G01*
X17291693Y-11759792D02*
X17386693Y-11854792D01*
X17386693Y-11759792D02*
X17291693Y-11854792D01*
X17386693Y-11807292D02*
G75*
G03*
X17291693Y-11807292I-47500J0D01*
G01*
X17291693Y-11807292D02*
G75*
G03*
X17386693Y-11807292I47500J0D01*
G01*
X17293693Y-8468673D02*
X17388693Y-8563673D01*
X17388693Y-8468673D02*
X17293693Y-8563673D01*
X17388693Y-8516173D02*
G75*
G03*
X17293693Y-8516173I-47500J0D01*
G01*
X17293693Y-8516173D02*
G75*
G03*
X17388693Y-8516173I47500J0D01*
G01*
X17416693Y-11543285D02*
X17511693Y-11638285D01*
X17511693Y-11543285D02*
X17416693Y-11638285D01*
X17511693Y-11590785D02*
G75*
G03*
X17416693Y-11590785I-47500J0D01*
G01*
X17416693Y-11590785D02*
G75*
G03*
X17511693Y-11590785I47500J0D01*
G01*
X17418693Y-8685179D02*
X17513693Y-8780179D01*
X17513693Y-8685179D02*
X17418693Y-8780179D01*
X17513693Y-8732679D02*
G75*
G03*
X17418693Y-8732679I-47500J0D01*
G01*
X17418693Y-8732679D02*
G75*
G03*
X17513693Y-8732679I47500J0D01*
G01*
X17541693Y-11326779D02*
X17636693Y-11421779D01*
X17636693Y-11326779D02*
X17541693Y-11421779D01*
X17636693Y-11374279D02*
G75*
G03*
X17541693Y-11374279I-47500J0D01*
G01*
X17541693Y-11374279D02*
G75*
G03*
X17636693Y-11374279I47500J0D01*
G01*
X17543693Y-8901685D02*
X17638693Y-8996685D01*
X17638693Y-8901685D02*
X17543693Y-8996685D01*
X17638693Y-8949185D02*
G75*
G03*
X17543693Y-8949185I-47500J0D01*
G01*
X17543693Y-8949185D02*
G75*
G03*
X17638693Y-8949185I47500J0D01*
G01*
X17666693Y-11110273D02*
X17761693Y-11205272D01*
X17761693Y-11110273D02*
X17666693Y-11205272D01*
X17761693Y-11157773D02*
G75*
G03*
X17666693Y-11157773I-47500J0D01*
G01*
X17666693Y-11157773D02*
G75*
G03*
X17761693Y-11157773I47500J0D01*
G01*
X17668693Y-9118192D02*
X17763693Y-9213192D01*
X17763693Y-9118192D02*
X17668693Y-9213192D01*
X17763693Y-9165692D02*
G75*
G03*
X17668693Y-9165692I-47500J0D01*
G01*
X17668693Y-9165692D02*
G75*
G03*
X17763693Y-9165692I47500J0D01*
G01*
X14174000Y-8505000D02*
X14274000Y-8605000D01*
X14274000Y-8505000D02*
X14174000Y-8605000D01*
X14224000Y-8505000D02*
X14224000Y-8605000D01*
X14174000Y-8555000D02*
X14274000Y-8555000D01*
X14174000Y-8759000D02*
X14274000Y-8859000D01*
X14274000Y-8759000D02*
X14174000Y-8859000D01*
X14224000Y-8759000D02*
X14224000Y-8859000D01*
X14174000Y-8809000D02*
X14274000Y-8809000D01*
X14174000Y-9013000D02*
X14274000Y-9113000D01*
X14274000Y-9013000D02*
X14174000Y-9113000D01*
X14224000Y-9013000D02*
X14224000Y-9113000D01*
X14174000Y-9063000D02*
X14274000Y-9063000D01*
X14174000Y-9267000D02*
X14274000Y-9367000D01*
X14274000Y-9267000D02*
X14174000Y-9367000D01*
X14224000Y-9267000D02*
X14224000Y-9367000D01*
X14174000Y-9317000D02*
X14274000Y-9317000D01*
X14174000Y-9521000D02*
X14274000Y-9621000D01*
X14274000Y-9521000D02*
X14174000Y-9621000D01*
X14224000Y-9521000D02*
X14224000Y-9621000D01*
X14174000Y-9571000D02*
X14274000Y-9571000D01*
X14174000Y-9775000D02*
X14274000Y-9875000D01*
X14274000Y-9775000D02*
X14174000Y-9875000D01*
X14224000Y-9775000D02*
X14224000Y-9875000D01*
X14174000Y-9825000D02*
X14274000Y-9825000D01*
X14174000Y-10029000D02*
X14274000Y-10129000D01*
X14274000Y-10029000D02*
X14174000Y-10129000D01*
X14224000Y-10029000D02*
X14224000Y-10129000D01*
X14174000Y-10079000D02*
X14274000Y-10079000D01*
X14174000Y-10283000D02*
X14274000Y-10383000D01*
X14274000Y-10283000D02*
X14174000Y-10383000D01*
X14224000Y-10283000D02*
X14224000Y-10383000D01*
X14174000Y-10333000D02*
X14274000Y-10333000D01*
X14174000Y-10537000D02*
X14274000Y-10637000D01*
X14274000Y-10537000D02*
X14174000Y-10637000D01*
X14224000Y-10537000D02*
X14224000Y-10637000D01*
X14174000Y-10587000D02*
X14274000Y-10587000D01*
X14174000Y-10791000D02*
X14274000Y-10891000D01*
X14274000Y-10791000D02*
X14174000Y-10891000D01*
X14224000Y-10791000D02*
X14224000Y-10891000D01*
X14174000Y-10841000D02*
X14274000Y-10841000D01*
X14174000Y-11045000D02*
X14274000Y-11145000D01*
X14274000Y-11045000D02*
X14174000Y-11145000D01*
X14224000Y-11045000D02*
X14224000Y-11145000D01*
X14174000Y-11095000D02*
X14274000Y-11095000D01*
X14174000Y-11299000D02*
X14274000Y-11399000D01*
X14274000Y-11299000D02*
X14174000Y-11399000D01*
X14224000Y-11299000D02*
X14224000Y-11399000D01*
X14174000Y-11349000D02*
X14274000Y-11349000D01*
X14174000Y-11553000D02*
X14274000Y-11653000D01*
X14274000Y-11553000D02*
X14174000Y-11653000D01*
X14224000Y-11553000D02*
X14224000Y-11653000D01*
X14174000Y-11603000D02*
X14274000Y-11603000D01*
X14174000Y-11807000D02*
X14274000Y-11907000D01*
X14274000Y-11807000D02*
X14174000Y-11907000D01*
X14224000Y-11807000D02*
X14224000Y-11907000D01*
X14174000Y-11857000D02*
X14274000Y-11857000D01*
X14428000Y-8505000D02*
X14528000Y-8605000D01*
X14528000Y-8505000D02*
X14428000Y-8605000D01*
X14478000Y-8505000D02*
X14478000Y-8605000D01*
X14428000Y-8555000D02*
X14528000Y-8555000D01*
X14428000Y-8759000D02*
X14528000Y-8859000D01*
X14528000Y-8759000D02*
X14428000Y-8859000D01*
X14478000Y-8759000D02*
X14478000Y-8859000D01*
X14428000Y-8809000D02*
X14528000Y-8809000D01*
X14428000Y-9013000D02*
X14528000Y-9113000D01*
X14528000Y-9013000D02*
X14428000Y-9113000D01*
X14478000Y-9013000D02*
X14478000Y-9113000D01*
X14428000Y-9063000D02*
X14528000Y-9063000D01*
X14428000Y-9267000D02*
X14528000Y-9367000D01*
X14528000Y-9267000D02*
X14428000Y-9367000D01*
X14478000Y-9267000D02*
X14478000Y-9367000D01*
X14428000Y-9317000D02*
X14528000Y-9317000D01*
X14428000Y-9521000D02*
X14528000Y-9621000D01*
X14528000Y-9521000D02*
X14428000Y-9621000D01*
X14478000Y-9521000D02*
X14478000Y-9621000D01*
X14428000Y-9571000D02*
X14528000Y-9571000D01*
X14428000Y-9775000D02*
X14528000Y-9875000D01*
X14528000Y-9775000D02*
X14428000Y-9875000D01*
X14478000Y-9775000D02*
X14478000Y-9875000D01*
X14428000Y-9825000D02*
X14528000Y-9825000D01*
X14428000Y-10029000D02*
X14528000Y-10129000D01*
X14528000Y-10029000D02*
X14428000Y-10129000D01*
X14478000Y-10029000D02*
X14478000Y-10129000D01*
X14428000Y-10079000D02*
X14528000Y-10079000D01*
X14428000Y-10283000D02*
X14528000Y-10383000D01*
X14528000Y-10283000D02*
X14428000Y-10383000D01*
X14478000Y-10283000D02*
X14478000Y-10383000D01*
X14428000Y-10333000D02*
X14528000Y-10333000D01*
X14428000Y-10537000D02*
X14528000Y-10637000D01*
X14528000Y-10537000D02*
X14428000Y-10637000D01*
X14478000Y-10537000D02*
X14478000Y-10637000D01*
X14428000Y-10587000D02*
X14528000Y-10587000D01*
X14428000Y-10791000D02*
X14528000Y-10891000D01*
X14528000Y-10791000D02*
X14428000Y-10891000D01*
X14478000Y-10791000D02*
X14478000Y-10891000D01*
X14428000Y-10841000D02*
X14528000Y-10841000D01*
X14428000Y-11045000D02*
X14528000Y-11145000D01*
X14528000Y-11045000D02*
X14428000Y-11145000D01*
X14478000Y-11045000D02*
X14478000Y-11145000D01*
X14428000Y-11095000D02*
X14528000Y-11095000D01*
X14428000Y-11299000D02*
X14528000Y-11399000D01*
X14528000Y-11299000D02*
X14428000Y-11399000D01*
X14478000Y-11299000D02*
X14478000Y-11399000D01*
X14428000Y-11349000D02*
X14528000Y-11349000D01*
X14428000Y-11553000D02*
X14528000Y-11653000D01*
X14528000Y-11553000D02*
X14428000Y-11653000D01*
X14478000Y-11553000D02*
X14478000Y-11653000D01*
X14428000Y-11603000D02*
X14528000Y-11603000D01*
X14428000Y-11807000D02*
X14528000Y-11907000D01*
X14528000Y-11807000D02*
X14428000Y-11907000D01*
X14478000Y-11807000D02*
X14478000Y-11907000D01*
X14428000Y-11857000D02*
X14528000Y-11857000D01*
X15952000Y-8505000D02*
X16052000Y-8605000D01*
X16052000Y-8505000D02*
X15952000Y-8605000D01*
X16002000Y-8505000D02*
X16002000Y-8605000D01*
X15952000Y-8555000D02*
X16052000Y-8555000D01*
X15952000Y-8759000D02*
X16052000Y-8859000D01*
X16052000Y-8759000D02*
X15952000Y-8859000D01*
X16002000Y-8759000D02*
X16002000Y-8859000D01*
X15952000Y-8809000D02*
X16052000Y-8809000D01*
X15952000Y-9013000D02*
X16052000Y-9113000D01*
X16052000Y-9013000D02*
X15952000Y-9113000D01*
X16002000Y-9013000D02*
X16002000Y-9113000D01*
X15952000Y-9063000D02*
X16052000Y-9063000D01*
X15952000Y-9267000D02*
X16052000Y-9367000D01*
X16052000Y-9267000D02*
X15952000Y-9367000D01*
X16002000Y-9267000D02*
X16002000Y-9367000D01*
X15952000Y-9317000D02*
X16052000Y-9317000D01*
X15952000Y-9521000D02*
X16052000Y-9621000D01*
X16052000Y-9521000D02*
X15952000Y-9621000D01*
X16002000Y-9521000D02*
X16002000Y-9621000D01*
X15952000Y-9571000D02*
X16052000Y-9571000D01*
X15952000Y-9775000D02*
X16052000Y-9875000D01*
X16052000Y-9775000D02*
X15952000Y-9875000D01*
X16002000Y-9775000D02*
X16002000Y-9875000D01*
X15952000Y-9825000D02*
X16052000Y-9825000D01*
X15952000Y-10029000D02*
X16052000Y-10129000D01*
X16052000Y-10029000D02*
X15952000Y-10129000D01*
X16002000Y-10029000D02*
X16002000Y-10129000D01*
X15952000Y-10079000D02*
X16052000Y-10079000D01*
X15952000Y-10283000D02*
X16052000Y-10383000D01*
X16052000Y-10283000D02*
X15952000Y-10383000D01*
X16002000Y-10283000D02*
X16002000Y-10383000D01*
X15952000Y-10333000D02*
X16052000Y-10333000D01*
X15952000Y-10537000D02*
X16052000Y-10637000D01*
X16052000Y-10537000D02*
X15952000Y-10637000D01*
X16002000Y-10537000D02*
X16002000Y-10637000D01*
X15952000Y-10587000D02*
X16052000Y-10587000D01*
X15952000Y-10791000D02*
X16052000Y-10891000D01*
X16052000Y-10791000D02*
X15952000Y-10891000D01*
X16002000Y-10791000D02*
X16002000Y-10891000D01*
X15952000Y-10841000D02*
X16052000Y-10841000D01*
X15952000Y-11045000D02*
X16052000Y-11145000D01*
X16052000Y-11045000D02*
X15952000Y-11145000D01*
X16002000Y-11045000D02*
X16002000Y-11145000D01*
X15952000Y-11095000D02*
X16052000Y-11095000D01*
X15952000Y-11299000D02*
X16052000Y-11399000D01*
X16052000Y-11299000D02*
X15952000Y-11399000D01*
X16002000Y-11299000D02*
X16002000Y-11399000D01*
X15952000Y-11349000D02*
X16052000Y-11349000D01*
X15952000Y-11553000D02*
X16052000Y-11653000D01*
X16052000Y-11553000D02*
X15952000Y-11653000D01*
X16002000Y-11553000D02*
X16002000Y-11653000D01*
X15952000Y-11603000D02*
X16052000Y-11603000D01*
X15952000Y-11807000D02*
X16052000Y-11907000D01*
X16052000Y-11807000D02*
X15952000Y-11907000D01*
X16002000Y-11807000D02*
X16002000Y-11907000D01*
X15952000Y-11857000D02*
X16052000Y-11857000D01*
X16206000Y-8505000D02*
X16306000Y-8605000D01*
X16306000Y-8505000D02*
X16206000Y-8605000D01*
X16256000Y-8505000D02*
X16256000Y-8605000D01*
X16206000Y-8555000D02*
X16306000Y-8555000D01*
X16206000Y-8759000D02*
X16306000Y-8859000D01*
X16306000Y-8759000D02*
X16206000Y-8859000D01*
X16256000Y-8759000D02*
X16256000Y-8859000D01*
X16206000Y-8809000D02*
X16306000Y-8809000D01*
X16206000Y-9013000D02*
X16306000Y-9113000D01*
X16306000Y-9013000D02*
X16206000Y-9113000D01*
X16256000Y-9013000D02*
X16256000Y-9113000D01*
X16206000Y-9063000D02*
X16306000Y-9063000D01*
X16206000Y-9267000D02*
X16306000Y-9367000D01*
X16306000Y-9267000D02*
X16206000Y-9367000D01*
X16256000Y-9267000D02*
X16256000Y-9367000D01*
X16206000Y-9317000D02*
X16306000Y-9317000D01*
X16206000Y-9521000D02*
X16306000Y-9621000D01*
X16306000Y-9521000D02*
X16206000Y-9621000D01*
X16256000Y-9521000D02*
X16256000Y-9621000D01*
X16206000Y-9571000D02*
X16306000Y-9571000D01*
X16206000Y-9775000D02*
X16306000Y-9875000D01*
X16306000Y-9775000D02*
X16206000Y-9875000D01*
X16256000Y-9775000D02*
X16256000Y-9875000D01*
X16206000Y-9825000D02*
X16306000Y-9825000D01*
X16206000Y-10029000D02*
X16306000Y-10129000D01*
X16306000Y-10029000D02*
X16206000Y-10129000D01*
X16256000Y-10029000D02*
X16256000Y-10129000D01*
X16206000Y-10079000D02*
X16306000Y-10079000D01*
X16206000Y-10283000D02*
X16306000Y-10383000D01*
X16306000Y-10283000D02*
X16206000Y-10383000D01*
X16256000Y-10283000D02*
X16256000Y-10383000D01*
X16206000Y-10333000D02*
X16306000Y-10333000D01*
X16206000Y-10537000D02*
X16306000Y-10637000D01*
X16306000Y-10537000D02*
X16206000Y-10637000D01*
X16256000Y-10537000D02*
X16256000Y-10637000D01*
X16206000Y-10587000D02*
X16306000Y-10587000D01*
X16206000Y-10791000D02*
X16306000Y-10891000D01*
X16306000Y-10791000D02*
X16206000Y-10891000D01*
X16256000Y-10791000D02*
X16256000Y-10891000D01*
X16206000Y-10841000D02*
X16306000Y-10841000D01*
X16206000Y-11045000D02*
X16306000Y-11145000D01*
X16306000Y-11045000D02*
X16206000Y-11145000D01*
X16256000Y-11045000D02*
X16256000Y-11145000D01*
X16206000Y-11095000D02*
X16306000Y-11095000D01*
X16206000Y-11299000D02*
X16306000Y-11399000D01*
X16306000Y-11299000D02*
X16206000Y-11399000D01*
X16256000Y-11299000D02*
X16256000Y-11399000D01*
X16206000Y-11349000D02*
X16306000Y-11349000D01*
X16206000Y-11553000D02*
X16306000Y-11653000D01*
X16306000Y-11553000D02*
X16206000Y-11653000D01*
X16256000Y-11553000D02*
X16256000Y-11653000D01*
X16206000Y-11603000D02*
X16306000Y-11603000D01*
X16206000Y-11807000D02*
X16306000Y-11907000D01*
X16306000Y-11807000D02*
X16206000Y-11907000D01*
X16256000Y-11807000D02*
X16256000Y-11907000D01*
X16206000Y-11857000D02*
X16306000Y-11857000D01*
D10*
X11238238Y-14414677D02*
X11238238Y-14214677D01*
X11238238Y-14214677D02*
X11285857Y-14214677D01*
X11285857Y-14214677D02*
X11314429Y-14224201D01*
X11314429Y-14224201D02*
X11333476Y-14243249D01*
X11333476Y-14243249D02*
X11343000Y-14262296D01*
X11343000Y-14262296D02*
X11352524Y-14300391D01*
X11352524Y-14300391D02*
X11352524Y-14328963D01*
X11352524Y-14328963D02*
X11343000Y-14367058D01*
X11343000Y-14367058D02*
X11333476Y-14386106D01*
X11333476Y-14386106D02*
X11314429Y-14405153D01*
X11314429Y-14405153D02*
X11285857Y-14414677D01*
X11285857Y-14414677D02*
X11238238Y-14414677D01*
X11438238Y-14414677D02*
X11438238Y-14281344D01*
X11438238Y-14319439D02*
X11447762Y-14300391D01*
X11447762Y-14300391D02*
X11457286Y-14290868D01*
X11457286Y-14290868D02*
X11476333Y-14281344D01*
X11476333Y-14281344D02*
X11495381Y-14281344D01*
X11562048Y-14414677D02*
X11562048Y-14281344D01*
X11562048Y-14214677D02*
X11552524Y-14224201D01*
X11552524Y-14224201D02*
X11562048Y-14233725D01*
X11562048Y-14233725D02*
X11571571Y-14224201D01*
X11571571Y-14224201D02*
X11562048Y-14214677D01*
X11562048Y-14214677D02*
X11562048Y-14233725D01*
X11685857Y-14414677D02*
X11666809Y-14405153D01*
X11666809Y-14405153D02*
X11657286Y-14386106D01*
X11657286Y-14386106D02*
X11657286Y-14214677D01*
X11790619Y-14414677D02*
X11771571Y-14405153D01*
X11771571Y-14405153D02*
X11762048Y-14386106D01*
X11762048Y-14386106D02*
X11762048Y-14214677D01*
X12019190Y-14414677D02*
X12019190Y-14214677D01*
X12019190Y-14214677D02*
X12085857Y-14357534D01*
X12085857Y-14357534D02*
X12152524Y-14214677D01*
X12152524Y-14214677D02*
X12152524Y-14414677D01*
X12333476Y-14414677D02*
X12333476Y-14309915D01*
X12333476Y-14309915D02*
X12323952Y-14290868D01*
X12323952Y-14290868D02*
X12304905Y-14281344D01*
X12304905Y-14281344D02*
X12266809Y-14281344D01*
X12266809Y-14281344D02*
X12247762Y-14290868D01*
X12333476Y-14405153D02*
X12314429Y-14414677D01*
X12314429Y-14414677D02*
X12266809Y-14414677D01*
X12266809Y-14414677D02*
X12247762Y-14405153D01*
X12247762Y-14405153D02*
X12238238Y-14386106D01*
X12238238Y-14386106D02*
X12238238Y-14367058D01*
X12238238Y-14367058D02*
X12247762Y-14348011D01*
X12247762Y-14348011D02*
X12266809Y-14338487D01*
X12266809Y-14338487D02*
X12314429Y-14338487D01*
X12314429Y-14338487D02*
X12333476Y-14328963D01*
X12428714Y-14281344D02*
X12428714Y-14481344D01*
X12428714Y-14290868D02*
X12447762Y-14281344D01*
X12447762Y-14281344D02*
X12485857Y-14281344D01*
X12485857Y-14281344D02*
X12504905Y-14290868D01*
X12504905Y-14290868D02*
X12514429Y-14300391D01*
X12514429Y-14300391D02*
X12523952Y-14319439D01*
X12523952Y-14319439D02*
X12523952Y-14376582D01*
X12523952Y-14376582D02*
X12514429Y-14395630D01*
X12514429Y-14395630D02*
X12504905Y-14405153D01*
X12504905Y-14405153D02*
X12485857Y-14414677D01*
X12485857Y-14414677D02*
X12447762Y-14414677D01*
X12447762Y-14414677D02*
X12428714Y-14405153D01*
X12609667Y-14395630D02*
X12619190Y-14405153D01*
X12619190Y-14405153D02*
X12609667Y-14414677D01*
X12609667Y-14414677D02*
X12600143Y-14405153D01*
X12600143Y-14405153D02*
X12609667Y-14395630D01*
X12609667Y-14395630D02*
X12609667Y-14414677D01*
X12609667Y-14290868D02*
X12619190Y-14300391D01*
X12619190Y-14300391D02*
X12609667Y-14309915D01*
X12609667Y-14309915D02*
X12600143Y-14300391D01*
X12600143Y-14300391D02*
X12609667Y-14290868D01*
X12609667Y-14290868D02*
X12609667Y-14309915D01*
D11*
X10937461Y-14723193D02*
X10977461Y-14763193D01*
X10977461Y-14723193D02*
X10937461Y-14763193D01*
D10*
X11276333Y-14634677D02*
X11295381Y-14634677D01*
X11295381Y-14634677D02*
X11314429Y-14644201D01*
X11314429Y-14644201D02*
X11323952Y-14653725D01*
X11323952Y-14653725D02*
X11333476Y-14672772D01*
X11333476Y-14672772D02*
X11343000Y-14710868D01*
X11343000Y-14710868D02*
X11343000Y-14758487D01*
X11343000Y-14758487D02*
X11333476Y-14796582D01*
X11333476Y-14796582D02*
X11323952Y-14815630D01*
X11323952Y-14815630D02*
X11314429Y-14825153D01*
X11314429Y-14825153D02*
X11295381Y-14834677D01*
X11295381Y-14834677D02*
X11276333Y-14834677D01*
X11276333Y-14834677D02*
X11257286Y-14825153D01*
X11257286Y-14825153D02*
X11247762Y-14815630D01*
X11247762Y-14815630D02*
X11238238Y-14796582D01*
X11238238Y-14796582D02*
X11228714Y-14758487D01*
X11228714Y-14758487D02*
X11228714Y-14710868D01*
X11228714Y-14710868D02*
X11238238Y-14672772D01*
X11238238Y-14672772D02*
X11247762Y-14653725D01*
X11247762Y-14653725D02*
X11257286Y-14644201D01*
X11257286Y-14644201D02*
X11276333Y-14634677D01*
X11428714Y-14815630D02*
X11438238Y-14825153D01*
X11438238Y-14825153D02*
X11428714Y-14834677D01*
X11428714Y-14834677D02*
X11419190Y-14825153D01*
X11419190Y-14825153D02*
X11428714Y-14815630D01*
X11428714Y-14815630D02*
X11428714Y-14834677D01*
X11609667Y-14701344D02*
X11609667Y-14834677D01*
X11562048Y-14625153D02*
X11514429Y-14768011D01*
X11514429Y-14768011D02*
X11638238Y-14768011D01*
X11752524Y-14634677D02*
X11771571Y-14634677D01*
X11771571Y-14634677D02*
X11790619Y-14644201D01*
X11790619Y-14644201D02*
X11800143Y-14653725D01*
X11800143Y-14653725D02*
X11809667Y-14672772D01*
X11809667Y-14672772D02*
X11819190Y-14710868D01*
X11819190Y-14710868D02*
X11819190Y-14758487D01*
X11819190Y-14758487D02*
X11809667Y-14796582D01*
X11809667Y-14796582D02*
X11800143Y-14815630D01*
X11800143Y-14815630D02*
X11790619Y-14825153D01*
X11790619Y-14825153D02*
X11771571Y-14834677D01*
X11771571Y-14834677D02*
X11752524Y-14834677D01*
X11752524Y-14834677D02*
X11733476Y-14825153D01*
X11733476Y-14825153D02*
X11723952Y-14815630D01*
X11723952Y-14815630D02*
X11714429Y-14796582D01*
X11714429Y-14796582D02*
X11704905Y-14758487D01*
X11704905Y-14758487D02*
X11704905Y-14710868D01*
X11704905Y-14710868D02*
X11714429Y-14672772D01*
X11714429Y-14672772D02*
X11723952Y-14653725D01*
X11723952Y-14653725D02*
X11733476Y-14644201D01*
X11733476Y-14644201D02*
X11752524Y-14634677D01*
X11943000Y-14634677D02*
X11962048Y-14634677D01*
X11962048Y-14634677D02*
X11981095Y-14644201D01*
X11981095Y-14644201D02*
X11990619Y-14653725D01*
X11990619Y-14653725D02*
X12000143Y-14672772D01*
X12000143Y-14672772D02*
X12009667Y-14710868D01*
X12009667Y-14710868D02*
X12009667Y-14758487D01*
X12009667Y-14758487D02*
X12000143Y-14796582D01*
X12000143Y-14796582D02*
X11990619Y-14815630D01*
X11990619Y-14815630D02*
X11981095Y-14825153D01*
X11981095Y-14825153D02*
X11962048Y-14834677D01*
X11962048Y-14834677D02*
X11943000Y-14834677D01*
X11943000Y-14834677D02*
X11923952Y-14825153D01*
X11923952Y-14825153D02*
X11914429Y-14815630D01*
X11914429Y-14815630D02*
X11904905Y-14796582D01*
X11904905Y-14796582D02*
X11895381Y-14758487D01*
X11895381Y-14758487D02*
X11895381Y-14710868D01*
X11895381Y-14710868D02*
X11904905Y-14672772D01*
X11904905Y-14672772D02*
X11914429Y-14653725D01*
X11914429Y-14653725D02*
X11923952Y-14644201D01*
X11923952Y-14644201D02*
X11943000Y-14634677D01*
X12095381Y-14834677D02*
X12095381Y-14701344D01*
X12095381Y-14720391D02*
X12104905Y-14710868D01*
X12104905Y-14710868D02*
X12123952Y-14701344D01*
X12123952Y-14701344D02*
X12152524Y-14701344D01*
X12152524Y-14701344D02*
X12171571Y-14710868D01*
X12171571Y-14710868D02*
X12181095Y-14729915D01*
X12181095Y-14729915D02*
X12181095Y-14834677D01*
X12181095Y-14729915D02*
X12190619Y-14710868D01*
X12190619Y-14710868D02*
X12209667Y-14701344D01*
X12209667Y-14701344D02*
X12238238Y-14701344D01*
X12238238Y-14701344D02*
X12257286Y-14710868D01*
X12257286Y-14710868D02*
X12266810Y-14729915D01*
X12266810Y-14729915D02*
X12266810Y-14834677D01*
X12362048Y-14834677D02*
X12362048Y-14701344D01*
X12362048Y-14720391D02*
X12371571Y-14710868D01*
X12371571Y-14710868D02*
X12390619Y-14701344D01*
X12390619Y-14701344D02*
X12419191Y-14701344D01*
X12419191Y-14701344D02*
X12438238Y-14710868D01*
X12438238Y-14710868D02*
X12447762Y-14729915D01*
X12447762Y-14729915D02*
X12447762Y-14834677D01*
X12447762Y-14729915D02*
X12457286Y-14710868D01*
X12457286Y-14710868D02*
X12476333Y-14701344D01*
X12476333Y-14701344D02*
X12504905Y-14701344D01*
X12504905Y-14701344D02*
X12523952Y-14710868D01*
X12523952Y-14710868D02*
X12533476Y-14729915D01*
X12533476Y-14729915D02*
X12533476Y-14834677D01*
X12923952Y-14625153D02*
X12752524Y-14882296D01*
X13181095Y-14634677D02*
X13200143Y-14634677D01*
X13200143Y-14634677D02*
X13219191Y-14644201D01*
X13219191Y-14644201D02*
X13228714Y-14653725D01*
X13228714Y-14653725D02*
X13238238Y-14672772D01*
X13238238Y-14672772D02*
X13247762Y-14710868D01*
X13247762Y-14710868D02*
X13247762Y-14758487D01*
X13247762Y-14758487D02*
X13238238Y-14796582D01*
X13238238Y-14796582D02*
X13228714Y-14815630D01*
X13228714Y-14815630D02*
X13219191Y-14825153D01*
X13219191Y-14825153D02*
X13200143Y-14834677D01*
X13200143Y-14834677D02*
X13181095Y-14834677D01*
X13181095Y-14834677D02*
X13162048Y-14825153D01*
X13162048Y-14825153D02*
X13152524Y-14815630D01*
X13152524Y-14815630D02*
X13143000Y-14796582D01*
X13143000Y-14796582D02*
X13133476Y-14758487D01*
X13133476Y-14758487D02*
X13133476Y-14710868D01*
X13133476Y-14710868D02*
X13143000Y-14672772D01*
X13143000Y-14672772D02*
X13152524Y-14653725D01*
X13152524Y-14653725D02*
X13162048Y-14644201D01*
X13162048Y-14644201D02*
X13181095Y-14634677D01*
X13333476Y-14815630D02*
X13343000Y-14825153D01*
X13343000Y-14825153D02*
X13333476Y-14834677D01*
X13333476Y-14834677D02*
X13323953Y-14825153D01*
X13323953Y-14825153D02*
X13333476Y-14815630D01*
X13333476Y-14815630D02*
X13333476Y-14834677D01*
X13466810Y-14634677D02*
X13485857Y-14634677D01*
X13485857Y-14634677D02*
X13504905Y-14644201D01*
X13504905Y-14644201D02*
X13514429Y-14653725D01*
X13514429Y-14653725D02*
X13523953Y-14672772D01*
X13523953Y-14672772D02*
X13533476Y-14710868D01*
X13533476Y-14710868D02*
X13533476Y-14758487D01*
X13533476Y-14758487D02*
X13523953Y-14796582D01*
X13523953Y-14796582D02*
X13514429Y-14815630D01*
X13514429Y-14815630D02*
X13504905Y-14825153D01*
X13504905Y-14825153D02*
X13485857Y-14834677D01*
X13485857Y-14834677D02*
X13466810Y-14834677D01*
X13466810Y-14834677D02*
X13447762Y-14825153D01*
X13447762Y-14825153D02*
X13438238Y-14815630D01*
X13438238Y-14815630D02*
X13428714Y-14796582D01*
X13428714Y-14796582D02*
X13419191Y-14758487D01*
X13419191Y-14758487D02*
X13419191Y-14710868D01*
X13419191Y-14710868D02*
X13428714Y-14672772D01*
X13428714Y-14672772D02*
X13438238Y-14653725D01*
X13438238Y-14653725D02*
X13447762Y-14644201D01*
X13447762Y-14644201D02*
X13466810Y-14634677D01*
X13723953Y-14834677D02*
X13609667Y-14834677D01*
X13666810Y-14834677D02*
X13666810Y-14634677D01*
X13666810Y-14634677D02*
X13647762Y-14663249D01*
X13647762Y-14663249D02*
X13628714Y-14682296D01*
X13628714Y-14682296D02*
X13609667Y-14691820D01*
X13904905Y-14634677D02*
X13809667Y-14634677D01*
X13809667Y-14634677D02*
X13800143Y-14729915D01*
X13800143Y-14729915D02*
X13809667Y-14720391D01*
X13809667Y-14720391D02*
X13828714Y-14710868D01*
X13828714Y-14710868D02*
X13876334Y-14710868D01*
X13876334Y-14710868D02*
X13895381Y-14720391D01*
X13895381Y-14720391D02*
X13904905Y-14729915D01*
X13904905Y-14729915D02*
X13914429Y-14748963D01*
X13914429Y-14748963D02*
X13914429Y-14796582D01*
X13914429Y-14796582D02*
X13904905Y-14815630D01*
X13904905Y-14815630D02*
X13895381Y-14825153D01*
X13895381Y-14825153D02*
X13876334Y-14834677D01*
X13876334Y-14834677D02*
X13828714Y-14834677D01*
X13828714Y-14834677D02*
X13809667Y-14825153D01*
X13809667Y-14825153D02*
X13800143Y-14815630D01*
X13981095Y-14634677D02*
X14114429Y-14634677D01*
X14114429Y-14634677D02*
X14028714Y-14834677D01*
X14181095Y-14634677D02*
X14181095Y-14672772D01*
X14257286Y-14634677D02*
X14257286Y-14672772D01*
X14552524Y-14910868D02*
X14543000Y-14901344D01*
X14543000Y-14901344D02*
X14523953Y-14872772D01*
X14523953Y-14872772D02*
X14514429Y-14853725D01*
X14514429Y-14853725D02*
X14504905Y-14825153D01*
X14504905Y-14825153D02*
X14495381Y-14777534D01*
X14495381Y-14777534D02*
X14495381Y-14739439D01*
X14495381Y-14739439D02*
X14504905Y-14691820D01*
X14504905Y-14691820D02*
X14514429Y-14663249D01*
X14514429Y-14663249D02*
X14523953Y-14644201D01*
X14523953Y-14644201D02*
X14543000Y-14615630D01*
X14543000Y-14615630D02*
X14552524Y-14606106D01*
X14657286Y-14720391D02*
X14638238Y-14710868D01*
X14638238Y-14710868D02*
X14628715Y-14701344D01*
X14628715Y-14701344D02*
X14619191Y-14682296D01*
X14619191Y-14682296D02*
X14619191Y-14672772D01*
X14619191Y-14672772D02*
X14628715Y-14653725D01*
X14628715Y-14653725D02*
X14638238Y-14644201D01*
X14638238Y-14644201D02*
X14657286Y-14634677D01*
X14657286Y-14634677D02*
X14695381Y-14634677D01*
X14695381Y-14634677D02*
X14714429Y-14644201D01*
X14714429Y-14644201D02*
X14723953Y-14653725D01*
X14723953Y-14653725D02*
X14733476Y-14672772D01*
X14733476Y-14672772D02*
X14733476Y-14682296D01*
X14733476Y-14682296D02*
X14723953Y-14701344D01*
X14723953Y-14701344D02*
X14714429Y-14710868D01*
X14714429Y-14710868D02*
X14695381Y-14720391D01*
X14695381Y-14720391D02*
X14657286Y-14720391D01*
X14657286Y-14720391D02*
X14638238Y-14729915D01*
X14638238Y-14729915D02*
X14628715Y-14739439D01*
X14628715Y-14739439D02*
X14619191Y-14758487D01*
X14619191Y-14758487D02*
X14619191Y-14796582D01*
X14619191Y-14796582D02*
X14628715Y-14815630D01*
X14628715Y-14815630D02*
X14638238Y-14825153D01*
X14638238Y-14825153D02*
X14657286Y-14834677D01*
X14657286Y-14834677D02*
X14695381Y-14834677D01*
X14695381Y-14834677D02*
X14714429Y-14825153D01*
X14714429Y-14825153D02*
X14723953Y-14815630D01*
X14723953Y-14815630D02*
X14733476Y-14796582D01*
X14733476Y-14796582D02*
X14733476Y-14758487D01*
X14733476Y-14758487D02*
X14723953Y-14739439D01*
X14723953Y-14739439D02*
X14714429Y-14729915D01*
X14714429Y-14729915D02*
X14695381Y-14720391D01*
X14828715Y-14834677D02*
X14866810Y-14834677D01*
X14866810Y-14834677D02*
X14885857Y-14825153D01*
X14885857Y-14825153D02*
X14895381Y-14815630D01*
X14895381Y-14815630D02*
X14914429Y-14787058D01*
X14914429Y-14787058D02*
X14923953Y-14748963D01*
X14923953Y-14748963D02*
X14923953Y-14672772D01*
X14923953Y-14672772D02*
X14914429Y-14653725D01*
X14914429Y-14653725D02*
X14904905Y-14644201D01*
X14904905Y-14644201D02*
X14885857Y-14634677D01*
X14885857Y-14634677D02*
X14847762Y-14634677D01*
X14847762Y-14634677D02*
X14828715Y-14644201D01*
X14828715Y-14644201D02*
X14819191Y-14653725D01*
X14819191Y-14653725D02*
X14809667Y-14672772D01*
X14809667Y-14672772D02*
X14809667Y-14720391D01*
X14809667Y-14720391D02*
X14819191Y-14739439D01*
X14819191Y-14739439D02*
X14828715Y-14748963D01*
X14828715Y-14748963D02*
X14847762Y-14758487D01*
X14847762Y-14758487D02*
X14885857Y-14758487D01*
X14885857Y-14758487D02*
X14904905Y-14748963D01*
X14904905Y-14748963D02*
X14914429Y-14739439D01*
X14914429Y-14739439D02*
X14923953Y-14720391D01*
X15162048Y-14834677D02*
X15162048Y-14634677D01*
X15247762Y-14834677D02*
X15247762Y-14729915D01*
X15247762Y-14729915D02*
X15238238Y-14710868D01*
X15238238Y-14710868D02*
X15219191Y-14701344D01*
X15219191Y-14701344D02*
X15190619Y-14701344D01*
X15190619Y-14701344D02*
X15171572Y-14710868D01*
X15171572Y-14710868D02*
X15162048Y-14720391D01*
X15371572Y-14834677D02*
X15352524Y-14825153D01*
X15352524Y-14825153D02*
X15343000Y-14815630D01*
X15343000Y-14815630D02*
X15333477Y-14796582D01*
X15333477Y-14796582D02*
X15333477Y-14739439D01*
X15333477Y-14739439D02*
X15343000Y-14720391D01*
X15343000Y-14720391D02*
X15352524Y-14710868D01*
X15352524Y-14710868D02*
X15371572Y-14701344D01*
X15371572Y-14701344D02*
X15400143Y-14701344D01*
X15400143Y-14701344D02*
X15419191Y-14710868D01*
X15419191Y-14710868D02*
X15428715Y-14720391D01*
X15428715Y-14720391D02*
X15438238Y-14739439D01*
X15438238Y-14739439D02*
X15438238Y-14796582D01*
X15438238Y-14796582D02*
X15428715Y-14815630D01*
X15428715Y-14815630D02*
X15419191Y-14825153D01*
X15419191Y-14825153D02*
X15400143Y-14834677D01*
X15400143Y-14834677D02*
X15371572Y-14834677D01*
X15552524Y-14834677D02*
X15533477Y-14825153D01*
X15533477Y-14825153D02*
X15523953Y-14806106D01*
X15523953Y-14806106D02*
X15523953Y-14634677D01*
X15704905Y-14825153D02*
X15685858Y-14834677D01*
X15685858Y-14834677D02*
X15647762Y-14834677D01*
X15647762Y-14834677D02*
X15628715Y-14825153D01*
X15628715Y-14825153D02*
X15619191Y-14806106D01*
X15619191Y-14806106D02*
X15619191Y-14729915D01*
X15619191Y-14729915D02*
X15628715Y-14710868D01*
X15628715Y-14710868D02*
X15647762Y-14701344D01*
X15647762Y-14701344D02*
X15685858Y-14701344D01*
X15685858Y-14701344D02*
X15704905Y-14710868D01*
X15704905Y-14710868D02*
X15714429Y-14729915D01*
X15714429Y-14729915D02*
X15714429Y-14748963D01*
X15714429Y-14748963D02*
X15619191Y-14768011D01*
X15790619Y-14825153D02*
X15809667Y-14834677D01*
X15809667Y-14834677D02*
X15847762Y-14834677D01*
X15847762Y-14834677D02*
X15866810Y-14825153D01*
X15866810Y-14825153D02*
X15876334Y-14806106D01*
X15876334Y-14806106D02*
X15876334Y-14796582D01*
X15876334Y-14796582D02*
X15866810Y-14777534D01*
X15866810Y-14777534D02*
X15847762Y-14768011D01*
X15847762Y-14768011D02*
X15819191Y-14768011D01*
X15819191Y-14768011D02*
X15800143Y-14758487D01*
X15800143Y-14758487D02*
X15790619Y-14739439D01*
X15790619Y-14739439D02*
X15790619Y-14729915D01*
X15790619Y-14729915D02*
X15800143Y-14710868D01*
X15800143Y-14710868D02*
X15819191Y-14701344D01*
X15819191Y-14701344D02*
X15847762Y-14701344D01*
X15847762Y-14701344D02*
X15866810Y-14710868D01*
X15943000Y-14910868D02*
X15952524Y-14901344D01*
X15952524Y-14901344D02*
X15971572Y-14872772D01*
X15971572Y-14872772D02*
X15981096Y-14853725D01*
X15981096Y-14853725D02*
X15990619Y-14825153D01*
X15990619Y-14825153D02*
X16000143Y-14777534D01*
X16000143Y-14777534D02*
X16000143Y-14739439D01*
X16000143Y-14739439D02*
X15990619Y-14691820D01*
X15990619Y-14691820D02*
X15981096Y-14663249D01*
X15981096Y-14663249D02*
X15971572Y-14644201D01*
X15971572Y-14644201D02*
X15952524Y-14615630D01*
X15952524Y-14615630D02*
X15943000Y-14606106D01*
D11*
X10977461Y-15007193D02*
G75*
G03*
X10917461Y-15007193I-30000J0D01*
G01*
X10917461Y-15007193D02*
G75*
G03*
X10977461Y-15007193I30000J0D01*
G01*
D10*
X11276333Y-14898677D02*
X11295381Y-14898677D01*
X11295381Y-14898677D02*
X11314429Y-14908201D01*
X11314429Y-14908201D02*
X11323952Y-14917725D01*
X11323952Y-14917725D02*
X11333476Y-14936772D01*
X11333476Y-14936772D02*
X11343000Y-14974868D01*
X11343000Y-14974868D02*
X11343000Y-15022487D01*
X11343000Y-15022487D02*
X11333476Y-15060582D01*
X11333476Y-15060582D02*
X11323952Y-15079630D01*
X11323952Y-15079630D02*
X11314429Y-15089153D01*
X11314429Y-15089153D02*
X11295381Y-15098677D01*
X11295381Y-15098677D02*
X11276333Y-15098677D01*
X11276333Y-15098677D02*
X11257286Y-15089153D01*
X11257286Y-15089153D02*
X11247762Y-15079630D01*
X11247762Y-15079630D02*
X11238238Y-15060582D01*
X11238238Y-15060582D02*
X11228714Y-15022487D01*
X11228714Y-15022487D02*
X11228714Y-14974868D01*
X11228714Y-14974868D02*
X11238238Y-14936772D01*
X11238238Y-14936772D02*
X11247762Y-14917725D01*
X11247762Y-14917725D02*
X11257286Y-14908201D01*
X11257286Y-14908201D02*
X11276333Y-14898677D01*
X11428714Y-15079630D02*
X11438238Y-15089153D01*
X11438238Y-15089153D02*
X11428714Y-15098677D01*
X11428714Y-15098677D02*
X11419190Y-15089153D01*
X11419190Y-15089153D02*
X11428714Y-15079630D01*
X11428714Y-15079630D02*
X11428714Y-15098677D01*
X11609667Y-14898677D02*
X11571571Y-14898677D01*
X11571571Y-14898677D02*
X11552524Y-14908201D01*
X11552524Y-14908201D02*
X11543000Y-14917725D01*
X11543000Y-14917725D02*
X11523952Y-14946296D01*
X11523952Y-14946296D02*
X11514429Y-14984391D01*
X11514429Y-14984391D02*
X11514429Y-15060582D01*
X11514429Y-15060582D02*
X11523952Y-15079630D01*
X11523952Y-15079630D02*
X11533476Y-15089153D01*
X11533476Y-15089153D02*
X11552524Y-15098677D01*
X11552524Y-15098677D02*
X11590619Y-15098677D01*
X11590619Y-15098677D02*
X11609667Y-15089153D01*
X11609667Y-15089153D02*
X11619190Y-15079630D01*
X11619190Y-15079630D02*
X11628714Y-15060582D01*
X11628714Y-15060582D02*
X11628714Y-15012963D01*
X11628714Y-15012963D02*
X11619190Y-14993915D01*
X11619190Y-14993915D02*
X11609667Y-14984391D01*
X11609667Y-14984391D02*
X11590619Y-14974868D01*
X11590619Y-14974868D02*
X11552524Y-14974868D01*
X11552524Y-14974868D02*
X11533476Y-14984391D01*
X11533476Y-14984391D02*
X11523952Y-14993915D01*
X11523952Y-14993915D02*
X11514429Y-15012963D01*
X11752524Y-14898677D02*
X11771571Y-14898677D01*
X11771571Y-14898677D02*
X11790619Y-14908201D01*
X11790619Y-14908201D02*
X11800143Y-14917725D01*
X11800143Y-14917725D02*
X11809667Y-14936772D01*
X11809667Y-14936772D02*
X11819190Y-14974868D01*
X11819190Y-14974868D02*
X11819190Y-15022487D01*
X11819190Y-15022487D02*
X11809667Y-15060582D01*
X11809667Y-15060582D02*
X11800143Y-15079630D01*
X11800143Y-15079630D02*
X11790619Y-15089153D01*
X11790619Y-15089153D02*
X11771571Y-15098677D01*
X11771571Y-15098677D02*
X11752524Y-15098677D01*
X11752524Y-15098677D02*
X11733476Y-15089153D01*
X11733476Y-15089153D02*
X11723952Y-15079630D01*
X11723952Y-15079630D02*
X11714429Y-15060582D01*
X11714429Y-15060582D02*
X11704905Y-15022487D01*
X11704905Y-15022487D02*
X11704905Y-14974868D01*
X11704905Y-14974868D02*
X11714429Y-14936772D01*
X11714429Y-14936772D02*
X11723952Y-14917725D01*
X11723952Y-14917725D02*
X11733476Y-14908201D01*
X11733476Y-14908201D02*
X11752524Y-14898677D01*
X11943000Y-14898677D02*
X11962048Y-14898677D01*
X11962048Y-14898677D02*
X11981095Y-14908201D01*
X11981095Y-14908201D02*
X11990619Y-14917725D01*
X11990619Y-14917725D02*
X12000143Y-14936772D01*
X12000143Y-14936772D02*
X12009667Y-14974868D01*
X12009667Y-14974868D02*
X12009667Y-15022487D01*
X12009667Y-15022487D02*
X12000143Y-15060582D01*
X12000143Y-15060582D02*
X11990619Y-15079630D01*
X11990619Y-15079630D02*
X11981095Y-15089153D01*
X11981095Y-15089153D02*
X11962048Y-15098677D01*
X11962048Y-15098677D02*
X11943000Y-15098677D01*
X11943000Y-15098677D02*
X11923952Y-15089153D01*
X11923952Y-15089153D02*
X11914429Y-15079630D01*
X11914429Y-15079630D02*
X11904905Y-15060582D01*
X11904905Y-15060582D02*
X11895381Y-15022487D01*
X11895381Y-15022487D02*
X11895381Y-14974868D01*
X11895381Y-14974868D02*
X11904905Y-14936772D01*
X11904905Y-14936772D02*
X11914429Y-14917725D01*
X11914429Y-14917725D02*
X11923952Y-14908201D01*
X11923952Y-14908201D02*
X11943000Y-14898677D01*
X12095381Y-15098677D02*
X12095381Y-14965344D01*
X12095381Y-14984391D02*
X12104905Y-14974868D01*
X12104905Y-14974868D02*
X12123952Y-14965344D01*
X12123952Y-14965344D02*
X12152524Y-14965344D01*
X12152524Y-14965344D02*
X12171571Y-14974868D01*
X12171571Y-14974868D02*
X12181095Y-14993915D01*
X12181095Y-14993915D02*
X12181095Y-15098677D01*
X12181095Y-14993915D02*
X12190619Y-14974868D01*
X12190619Y-14974868D02*
X12209667Y-14965344D01*
X12209667Y-14965344D02*
X12238238Y-14965344D01*
X12238238Y-14965344D02*
X12257286Y-14974868D01*
X12257286Y-14974868D02*
X12266810Y-14993915D01*
X12266810Y-14993915D02*
X12266810Y-15098677D01*
X12362048Y-15098677D02*
X12362048Y-14965344D01*
X12362048Y-14984391D02*
X12371571Y-14974868D01*
X12371571Y-14974868D02*
X12390619Y-14965344D01*
X12390619Y-14965344D02*
X12419191Y-14965344D01*
X12419191Y-14965344D02*
X12438238Y-14974868D01*
X12438238Y-14974868D02*
X12447762Y-14993915D01*
X12447762Y-14993915D02*
X12447762Y-15098677D01*
X12447762Y-14993915D02*
X12457286Y-14974868D01*
X12457286Y-14974868D02*
X12476333Y-14965344D01*
X12476333Y-14965344D02*
X12504905Y-14965344D01*
X12504905Y-14965344D02*
X12523952Y-14974868D01*
X12523952Y-14974868D02*
X12533476Y-14993915D01*
X12533476Y-14993915D02*
X12533476Y-15098677D01*
X12923952Y-14889153D02*
X12752524Y-15146296D01*
X13181095Y-14898677D02*
X13200143Y-14898677D01*
X13200143Y-14898677D02*
X13219191Y-14908201D01*
X13219191Y-14908201D02*
X13228714Y-14917725D01*
X13228714Y-14917725D02*
X13238238Y-14936772D01*
X13238238Y-14936772D02*
X13247762Y-14974868D01*
X13247762Y-14974868D02*
X13247762Y-15022487D01*
X13247762Y-15022487D02*
X13238238Y-15060582D01*
X13238238Y-15060582D02*
X13228714Y-15079630D01*
X13228714Y-15079630D02*
X13219191Y-15089153D01*
X13219191Y-15089153D02*
X13200143Y-15098677D01*
X13200143Y-15098677D02*
X13181095Y-15098677D01*
X13181095Y-15098677D02*
X13162048Y-15089153D01*
X13162048Y-15089153D02*
X13152524Y-15079630D01*
X13152524Y-15079630D02*
X13143000Y-15060582D01*
X13143000Y-15060582D02*
X13133476Y-15022487D01*
X13133476Y-15022487D02*
X13133476Y-14974868D01*
X13133476Y-14974868D02*
X13143000Y-14936772D01*
X13143000Y-14936772D02*
X13152524Y-14917725D01*
X13152524Y-14917725D02*
X13162048Y-14908201D01*
X13162048Y-14908201D02*
X13181095Y-14898677D01*
X13333476Y-15079630D02*
X13343000Y-15089153D01*
X13343000Y-15089153D02*
X13333476Y-15098677D01*
X13333476Y-15098677D02*
X13323953Y-15089153D01*
X13323953Y-15089153D02*
X13333476Y-15079630D01*
X13333476Y-15079630D02*
X13333476Y-15098677D01*
X13466810Y-14898677D02*
X13485857Y-14898677D01*
X13485857Y-14898677D02*
X13504905Y-14908201D01*
X13504905Y-14908201D02*
X13514429Y-14917725D01*
X13514429Y-14917725D02*
X13523953Y-14936772D01*
X13523953Y-14936772D02*
X13533476Y-14974868D01*
X13533476Y-14974868D02*
X13533476Y-15022487D01*
X13533476Y-15022487D02*
X13523953Y-15060582D01*
X13523953Y-15060582D02*
X13514429Y-15079630D01*
X13514429Y-15079630D02*
X13504905Y-15089153D01*
X13504905Y-15089153D02*
X13485857Y-15098677D01*
X13485857Y-15098677D02*
X13466810Y-15098677D01*
X13466810Y-15098677D02*
X13447762Y-15089153D01*
X13447762Y-15089153D02*
X13438238Y-15079630D01*
X13438238Y-15079630D02*
X13428714Y-15060582D01*
X13428714Y-15060582D02*
X13419191Y-15022487D01*
X13419191Y-15022487D02*
X13419191Y-14974868D01*
X13419191Y-14974868D02*
X13428714Y-14936772D01*
X13428714Y-14936772D02*
X13438238Y-14917725D01*
X13438238Y-14917725D02*
X13447762Y-14908201D01*
X13447762Y-14908201D02*
X13466810Y-14898677D01*
X13609667Y-14917725D02*
X13619191Y-14908201D01*
X13619191Y-14908201D02*
X13638238Y-14898677D01*
X13638238Y-14898677D02*
X13685857Y-14898677D01*
X13685857Y-14898677D02*
X13704905Y-14908201D01*
X13704905Y-14908201D02*
X13714429Y-14917725D01*
X13714429Y-14917725D02*
X13723953Y-14936772D01*
X13723953Y-14936772D02*
X13723953Y-14955820D01*
X13723953Y-14955820D02*
X13714429Y-14984391D01*
X13714429Y-14984391D02*
X13600143Y-15098677D01*
X13600143Y-15098677D02*
X13723953Y-15098677D01*
X13790619Y-14898677D02*
X13914429Y-14898677D01*
X13914429Y-14898677D02*
X13847762Y-14974868D01*
X13847762Y-14974868D02*
X13876334Y-14974868D01*
X13876334Y-14974868D02*
X13895381Y-14984391D01*
X13895381Y-14984391D02*
X13904905Y-14993915D01*
X13904905Y-14993915D02*
X13914429Y-15012963D01*
X13914429Y-15012963D02*
X13914429Y-15060582D01*
X13914429Y-15060582D02*
X13904905Y-15079630D01*
X13904905Y-15079630D02*
X13895381Y-15089153D01*
X13895381Y-15089153D02*
X13876334Y-15098677D01*
X13876334Y-15098677D02*
X13819191Y-15098677D01*
X13819191Y-15098677D02*
X13800143Y-15089153D01*
X13800143Y-15089153D02*
X13790619Y-15079630D01*
X14085857Y-14898677D02*
X14047762Y-14898677D01*
X14047762Y-14898677D02*
X14028714Y-14908201D01*
X14028714Y-14908201D02*
X14019191Y-14917725D01*
X14019191Y-14917725D02*
X14000143Y-14946296D01*
X14000143Y-14946296D02*
X13990619Y-14984391D01*
X13990619Y-14984391D02*
X13990619Y-15060582D01*
X13990619Y-15060582D02*
X14000143Y-15079630D01*
X14000143Y-15079630D02*
X14009667Y-15089153D01*
X14009667Y-15089153D02*
X14028714Y-15098677D01*
X14028714Y-15098677D02*
X14066810Y-15098677D01*
X14066810Y-15098677D02*
X14085857Y-15089153D01*
X14085857Y-15089153D02*
X14095381Y-15079630D01*
X14095381Y-15079630D02*
X14104905Y-15060582D01*
X14104905Y-15060582D02*
X14104905Y-15012963D01*
X14104905Y-15012963D02*
X14095381Y-14993915D01*
X14095381Y-14993915D02*
X14085857Y-14984391D01*
X14085857Y-14984391D02*
X14066810Y-14974868D01*
X14066810Y-14974868D02*
X14028714Y-14974868D01*
X14028714Y-14974868D02*
X14009667Y-14984391D01*
X14009667Y-14984391D02*
X14000143Y-14993915D01*
X14000143Y-14993915D02*
X13990619Y-15012963D01*
X14181095Y-14898677D02*
X14181095Y-14936772D01*
X14257286Y-14898677D02*
X14257286Y-14936772D01*
X14552524Y-15174868D02*
X14543000Y-15165344D01*
X14543000Y-15165344D02*
X14523953Y-15136772D01*
X14523953Y-15136772D02*
X14514429Y-15117725D01*
X14514429Y-15117725D02*
X14504905Y-15089153D01*
X14504905Y-15089153D02*
X14495381Y-15041534D01*
X14495381Y-15041534D02*
X14495381Y-15003439D01*
X14495381Y-15003439D02*
X14504905Y-14955820D01*
X14504905Y-14955820D02*
X14514429Y-14927249D01*
X14514429Y-14927249D02*
X14523953Y-14908201D01*
X14523953Y-14908201D02*
X14543000Y-14879630D01*
X14543000Y-14879630D02*
X14552524Y-14870106D01*
X14619191Y-14917725D02*
X14628715Y-14908201D01*
X14628715Y-14908201D02*
X14647762Y-14898677D01*
X14647762Y-14898677D02*
X14695381Y-14898677D01*
X14695381Y-14898677D02*
X14714429Y-14908201D01*
X14714429Y-14908201D02*
X14723953Y-14917725D01*
X14723953Y-14917725D02*
X14733476Y-14936772D01*
X14733476Y-14936772D02*
X14733476Y-14955820D01*
X14733476Y-14955820D02*
X14723953Y-14984391D01*
X14723953Y-14984391D02*
X14609667Y-15098677D01*
X14609667Y-15098677D02*
X14733476Y-15098677D01*
X14971572Y-15098677D02*
X14971572Y-14898677D01*
X15057286Y-15098677D02*
X15057286Y-14993915D01*
X15057286Y-14993915D02*
X15047762Y-14974868D01*
X15047762Y-14974868D02*
X15028715Y-14965344D01*
X15028715Y-14965344D02*
X15000143Y-14965344D01*
X15000143Y-14965344D02*
X14981096Y-14974868D01*
X14981096Y-14974868D02*
X14971572Y-14984391D01*
X15181096Y-15098677D02*
X15162048Y-15089153D01*
X15162048Y-15089153D02*
X15152524Y-15079630D01*
X15152524Y-15079630D02*
X15143000Y-15060582D01*
X15143000Y-15060582D02*
X15143000Y-15003439D01*
X15143000Y-15003439D02*
X15152524Y-14984391D01*
X15152524Y-14984391D02*
X15162048Y-14974868D01*
X15162048Y-14974868D02*
X15181096Y-14965344D01*
X15181096Y-14965344D02*
X15209667Y-14965344D01*
X15209667Y-14965344D02*
X15228715Y-14974868D01*
X15228715Y-14974868D02*
X15238238Y-14984391D01*
X15238238Y-14984391D02*
X15247762Y-15003439D01*
X15247762Y-15003439D02*
X15247762Y-15060582D01*
X15247762Y-15060582D02*
X15238238Y-15079630D01*
X15238238Y-15079630D02*
X15228715Y-15089153D01*
X15228715Y-15089153D02*
X15209667Y-15098677D01*
X15209667Y-15098677D02*
X15181096Y-15098677D01*
X15362048Y-15098677D02*
X15343000Y-15089153D01*
X15343000Y-15089153D02*
X15333477Y-15070106D01*
X15333477Y-15070106D02*
X15333477Y-14898677D01*
X15514429Y-15089153D02*
X15495381Y-15098677D01*
X15495381Y-15098677D02*
X15457286Y-15098677D01*
X15457286Y-15098677D02*
X15438238Y-15089153D01*
X15438238Y-15089153D02*
X15428715Y-15070106D01*
X15428715Y-15070106D02*
X15428715Y-14993915D01*
X15428715Y-14993915D02*
X15438238Y-14974868D01*
X15438238Y-14974868D02*
X15457286Y-14965344D01*
X15457286Y-14965344D02*
X15495381Y-14965344D01*
X15495381Y-14965344D02*
X15514429Y-14974868D01*
X15514429Y-14974868D02*
X15523953Y-14993915D01*
X15523953Y-14993915D02*
X15523953Y-15012963D01*
X15523953Y-15012963D02*
X15428715Y-15032011D01*
X15600143Y-15089153D02*
X15619191Y-15098677D01*
X15619191Y-15098677D02*
X15657286Y-15098677D01*
X15657286Y-15098677D02*
X15676334Y-15089153D01*
X15676334Y-15089153D02*
X15685858Y-15070106D01*
X15685858Y-15070106D02*
X15685858Y-15060582D01*
X15685858Y-15060582D02*
X15676334Y-15041534D01*
X15676334Y-15041534D02*
X15657286Y-15032011D01*
X15657286Y-15032011D02*
X15628715Y-15032011D01*
X15628715Y-15032011D02*
X15609667Y-15022487D01*
X15609667Y-15022487D02*
X15600143Y-15003439D01*
X15600143Y-15003439D02*
X15600143Y-14993915D01*
X15600143Y-14993915D02*
X15609667Y-14974868D01*
X15609667Y-14974868D02*
X15628715Y-14965344D01*
X15628715Y-14965344D02*
X15657286Y-14965344D01*
X15657286Y-14965344D02*
X15676334Y-14974868D01*
X15752524Y-15174868D02*
X15762048Y-15165344D01*
X15762048Y-15165344D02*
X15781096Y-15136772D01*
X15781096Y-15136772D02*
X15790619Y-15117725D01*
X15790619Y-15117725D02*
X15800143Y-15089153D01*
X15800143Y-15089153D02*
X15809667Y-15041534D01*
X15809667Y-15041534D02*
X15809667Y-15003439D01*
X15809667Y-15003439D02*
X15800143Y-14955820D01*
X15800143Y-14955820D02*
X15790619Y-14927249D01*
X15790619Y-14927249D02*
X15781096Y-14908201D01*
X15781096Y-14908201D02*
X15762048Y-14879630D01*
X15762048Y-14879630D02*
X15752524Y-14870106D01*
D11*
X10942461Y-15236193D02*
X10942461Y-15306193D01*
X10907461Y-15271193D02*
X10977461Y-15271193D01*
D10*
X11276333Y-15162677D02*
X11295381Y-15162677D01*
X11295381Y-15162677D02*
X11314429Y-15172201D01*
X11314429Y-15172201D02*
X11323952Y-15181725D01*
X11323952Y-15181725D02*
X11333476Y-15200772D01*
X11333476Y-15200772D02*
X11343000Y-15238868D01*
X11343000Y-15238868D02*
X11343000Y-15286487D01*
X11343000Y-15286487D02*
X11333476Y-15324582D01*
X11333476Y-15324582D02*
X11323952Y-15343630D01*
X11323952Y-15343630D02*
X11314429Y-15353153D01*
X11314429Y-15353153D02*
X11295381Y-15362677D01*
X11295381Y-15362677D02*
X11276333Y-15362677D01*
X11276333Y-15362677D02*
X11257286Y-15353153D01*
X11257286Y-15353153D02*
X11247762Y-15343630D01*
X11247762Y-15343630D02*
X11238238Y-15324582D01*
X11238238Y-15324582D02*
X11228714Y-15286487D01*
X11228714Y-15286487D02*
X11228714Y-15238868D01*
X11228714Y-15238868D02*
X11238238Y-15200772D01*
X11238238Y-15200772D02*
X11247762Y-15181725D01*
X11247762Y-15181725D02*
X11257286Y-15172201D01*
X11257286Y-15172201D02*
X11276333Y-15162677D01*
X11428714Y-15343630D02*
X11438238Y-15353153D01*
X11438238Y-15353153D02*
X11428714Y-15362677D01*
X11428714Y-15362677D02*
X11419190Y-15353153D01*
X11419190Y-15353153D02*
X11428714Y-15343630D01*
X11428714Y-15343630D02*
X11428714Y-15362677D01*
X11504905Y-15162677D02*
X11638238Y-15162677D01*
X11638238Y-15162677D02*
X11552524Y-15362677D01*
X11752524Y-15162677D02*
X11771571Y-15162677D01*
X11771571Y-15162677D02*
X11790619Y-15172201D01*
X11790619Y-15172201D02*
X11800143Y-15181725D01*
X11800143Y-15181725D02*
X11809667Y-15200772D01*
X11809667Y-15200772D02*
X11819190Y-15238868D01*
X11819190Y-15238868D02*
X11819190Y-15286487D01*
X11819190Y-15286487D02*
X11809667Y-15324582D01*
X11809667Y-15324582D02*
X11800143Y-15343630D01*
X11800143Y-15343630D02*
X11790619Y-15353153D01*
X11790619Y-15353153D02*
X11771571Y-15362677D01*
X11771571Y-15362677D02*
X11752524Y-15362677D01*
X11752524Y-15362677D02*
X11733476Y-15353153D01*
X11733476Y-15353153D02*
X11723952Y-15343630D01*
X11723952Y-15343630D02*
X11714429Y-15324582D01*
X11714429Y-15324582D02*
X11704905Y-15286487D01*
X11704905Y-15286487D02*
X11704905Y-15238868D01*
X11704905Y-15238868D02*
X11714429Y-15200772D01*
X11714429Y-15200772D02*
X11723952Y-15181725D01*
X11723952Y-15181725D02*
X11733476Y-15172201D01*
X11733476Y-15172201D02*
X11752524Y-15162677D01*
X11943000Y-15162677D02*
X11962048Y-15162677D01*
X11962048Y-15162677D02*
X11981095Y-15172201D01*
X11981095Y-15172201D02*
X11990619Y-15181725D01*
X11990619Y-15181725D02*
X12000143Y-15200772D01*
X12000143Y-15200772D02*
X12009667Y-15238868D01*
X12009667Y-15238868D02*
X12009667Y-15286487D01*
X12009667Y-15286487D02*
X12000143Y-15324582D01*
X12000143Y-15324582D02*
X11990619Y-15343630D01*
X11990619Y-15343630D02*
X11981095Y-15353153D01*
X11981095Y-15353153D02*
X11962048Y-15362677D01*
X11962048Y-15362677D02*
X11943000Y-15362677D01*
X11943000Y-15362677D02*
X11923952Y-15353153D01*
X11923952Y-15353153D02*
X11914429Y-15343630D01*
X11914429Y-15343630D02*
X11904905Y-15324582D01*
X11904905Y-15324582D02*
X11895381Y-15286487D01*
X11895381Y-15286487D02*
X11895381Y-15238868D01*
X11895381Y-15238868D02*
X11904905Y-15200772D01*
X11904905Y-15200772D02*
X11914429Y-15181725D01*
X11914429Y-15181725D02*
X11923952Y-15172201D01*
X11923952Y-15172201D02*
X11943000Y-15162677D01*
X12095381Y-15362677D02*
X12095381Y-15229344D01*
X12095381Y-15248391D02*
X12104905Y-15238868D01*
X12104905Y-15238868D02*
X12123952Y-15229344D01*
X12123952Y-15229344D02*
X12152524Y-15229344D01*
X12152524Y-15229344D02*
X12171571Y-15238868D01*
X12171571Y-15238868D02*
X12181095Y-15257915D01*
X12181095Y-15257915D02*
X12181095Y-15362677D01*
X12181095Y-15257915D02*
X12190619Y-15238868D01*
X12190619Y-15238868D02*
X12209667Y-15229344D01*
X12209667Y-15229344D02*
X12238238Y-15229344D01*
X12238238Y-15229344D02*
X12257286Y-15238868D01*
X12257286Y-15238868D02*
X12266810Y-15257915D01*
X12266810Y-15257915D02*
X12266810Y-15362677D01*
X12362048Y-15362677D02*
X12362048Y-15229344D01*
X12362048Y-15248391D02*
X12371571Y-15238868D01*
X12371571Y-15238868D02*
X12390619Y-15229344D01*
X12390619Y-15229344D02*
X12419191Y-15229344D01*
X12419191Y-15229344D02*
X12438238Y-15238868D01*
X12438238Y-15238868D02*
X12447762Y-15257915D01*
X12447762Y-15257915D02*
X12447762Y-15362677D01*
X12447762Y-15257915D02*
X12457286Y-15238868D01*
X12457286Y-15238868D02*
X12476333Y-15229344D01*
X12476333Y-15229344D02*
X12504905Y-15229344D01*
X12504905Y-15229344D02*
X12523952Y-15238868D01*
X12523952Y-15238868D02*
X12533476Y-15257915D01*
X12533476Y-15257915D02*
X12533476Y-15362677D01*
X12923952Y-15153153D02*
X12752524Y-15410296D01*
X13181095Y-15162677D02*
X13200143Y-15162677D01*
X13200143Y-15162677D02*
X13219191Y-15172201D01*
X13219191Y-15172201D02*
X13228714Y-15181725D01*
X13228714Y-15181725D02*
X13238238Y-15200772D01*
X13238238Y-15200772D02*
X13247762Y-15238868D01*
X13247762Y-15238868D02*
X13247762Y-15286487D01*
X13247762Y-15286487D02*
X13238238Y-15324582D01*
X13238238Y-15324582D02*
X13228714Y-15343630D01*
X13228714Y-15343630D02*
X13219191Y-15353153D01*
X13219191Y-15353153D02*
X13200143Y-15362677D01*
X13200143Y-15362677D02*
X13181095Y-15362677D01*
X13181095Y-15362677D02*
X13162048Y-15353153D01*
X13162048Y-15353153D02*
X13152524Y-15343630D01*
X13152524Y-15343630D02*
X13143000Y-15324582D01*
X13143000Y-15324582D02*
X13133476Y-15286487D01*
X13133476Y-15286487D02*
X13133476Y-15238868D01*
X13133476Y-15238868D02*
X13143000Y-15200772D01*
X13143000Y-15200772D02*
X13152524Y-15181725D01*
X13152524Y-15181725D02*
X13162048Y-15172201D01*
X13162048Y-15172201D02*
X13181095Y-15162677D01*
X13333476Y-15343630D02*
X13343000Y-15353153D01*
X13343000Y-15353153D02*
X13333476Y-15362677D01*
X13333476Y-15362677D02*
X13323953Y-15353153D01*
X13323953Y-15353153D02*
X13333476Y-15343630D01*
X13333476Y-15343630D02*
X13333476Y-15362677D01*
X13466810Y-15162677D02*
X13485857Y-15162677D01*
X13485857Y-15162677D02*
X13504905Y-15172201D01*
X13504905Y-15172201D02*
X13514429Y-15181725D01*
X13514429Y-15181725D02*
X13523953Y-15200772D01*
X13523953Y-15200772D02*
X13533476Y-15238868D01*
X13533476Y-15238868D02*
X13533476Y-15286487D01*
X13533476Y-15286487D02*
X13523953Y-15324582D01*
X13523953Y-15324582D02*
X13514429Y-15343630D01*
X13514429Y-15343630D02*
X13504905Y-15353153D01*
X13504905Y-15353153D02*
X13485857Y-15362677D01*
X13485857Y-15362677D02*
X13466810Y-15362677D01*
X13466810Y-15362677D02*
X13447762Y-15353153D01*
X13447762Y-15353153D02*
X13438238Y-15343630D01*
X13438238Y-15343630D02*
X13428714Y-15324582D01*
X13428714Y-15324582D02*
X13419191Y-15286487D01*
X13419191Y-15286487D02*
X13419191Y-15238868D01*
X13419191Y-15238868D02*
X13428714Y-15200772D01*
X13428714Y-15200772D02*
X13438238Y-15181725D01*
X13438238Y-15181725D02*
X13447762Y-15172201D01*
X13447762Y-15172201D02*
X13466810Y-15162677D01*
X13609667Y-15181725D02*
X13619191Y-15172201D01*
X13619191Y-15172201D02*
X13638238Y-15162677D01*
X13638238Y-15162677D02*
X13685857Y-15162677D01*
X13685857Y-15162677D02*
X13704905Y-15172201D01*
X13704905Y-15172201D02*
X13714429Y-15181725D01*
X13714429Y-15181725D02*
X13723953Y-15200772D01*
X13723953Y-15200772D02*
X13723953Y-15219820D01*
X13723953Y-15219820D02*
X13714429Y-15248391D01*
X13714429Y-15248391D02*
X13600143Y-15362677D01*
X13600143Y-15362677D02*
X13723953Y-15362677D01*
X13790619Y-15162677D02*
X13923953Y-15162677D01*
X13923953Y-15162677D02*
X13838238Y-15362677D01*
X14085857Y-15162677D02*
X14047762Y-15162677D01*
X14047762Y-15162677D02*
X14028714Y-15172201D01*
X14028714Y-15172201D02*
X14019191Y-15181725D01*
X14019191Y-15181725D02*
X14000143Y-15210296D01*
X14000143Y-15210296D02*
X13990619Y-15248391D01*
X13990619Y-15248391D02*
X13990619Y-15324582D01*
X13990619Y-15324582D02*
X14000143Y-15343630D01*
X14000143Y-15343630D02*
X14009667Y-15353153D01*
X14009667Y-15353153D02*
X14028714Y-15362677D01*
X14028714Y-15362677D02*
X14066810Y-15362677D01*
X14066810Y-15362677D02*
X14085857Y-15353153D01*
X14085857Y-15353153D02*
X14095381Y-15343630D01*
X14095381Y-15343630D02*
X14104905Y-15324582D01*
X14104905Y-15324582D02*
X14104905Y-15276963D01*
X14104905Y-15276963D02*
X14095381Y-15257915D01*
X14095381Y-15257915D02*
X14085857Y-15248391D01*
X14085857Y-15248391D02*
X14066810Y-15238868D01*
X14066810Y-15238868D02*
X14028714Y-15238868D01*
X14028714Y-15238868D02*
X14009667Y-15248391D01*
X14009667Y-15248391D02*
X14000143Y-15257915D01*
X14000143Y-15257915D02*
X13990619Y-15276963D01*
X14181095Y-15162677D02*
X14181095Y-15200772D01*
X14257286Y-15162677D02*
X14257286Y-15200772D01*
X14552524Y-15438868D02*
X14543000Y-15429344D01*
X14543000Y-15429344D02*
X14523953Y-15400772D01*
X14523953Y-15400772D02*
X14514429Y-15381725D01*
X14514429Y-15381725D02*
X14504905Y-15353153D01*
X14504905Y-15353153D02*
X14495381Y-15305534D01*
X14495381Y-15305534D02*
X14495381Y-15267439D01*
X14495381Y-15267439D02*
X14504905Y-15219820D01*
X14504905Y-15219820D02*
X14514429Y-15191249D01*
X14514429Y-15191249D02*
X14523953Y-15172201D01*
X14523953Y-15172201D02*
X14543000Y-15143630D01*
X14543000Y-15143630D02*
X14552524Y-15134106D01*
X14733476Y-15362677D02*
X14619191Y-15362677D01*
X14676334Y-15362677D02*
X14676334Y-15162677D01*
X14676334Y-15162677D02*
X14657286Y-15191249D01*
X14657286Y-15191249D02*
X14638238Y-15210296D01*
X14638238Y-15210296D02*
X14619191Y-15219820D01*
X14809667Y-15181725D02*
X14819191Y-15172201D01*
X14819191Y-15172201D02*
X14838238Y-15162677D01*
X14838238Y-15162677D02*
X14885857Y-15162677D01*
X14885857Y-15162677D02*
X14904905Y-15172201D01*
X14904905Y-15172201D02*
X14914429Y-15181725D01*
X14914429Y-15181725D02*
X14923953Y-15200772D01*
X14923953Y-15200772D02*
X14923953Y-15219820D01*
X14923953Y-15219820D02*
X14914429Y-15248391D01*
X14914429Y-15248391D02*
X14800143Y-15362677D01*
X14800143Y-15362677D02*
X14923953Y-15362677D01*
X15162048Y-15362677D02*
X15162048Y-15162677D01*
X15247762Y-15362677D02*
X15247762Y-15257915D01*
X15247762Y-15257915D02*
X15238238Y-15238868D01*
X15238238Y-15238868D02*
X15219191Y-15229344D01*
X15219191Y-15229344D02*
X15190619Y-15229344D01*
X15190619Y-15229344D02*
X15171572Y-15238868D01*
X15171572Y-15238868D02*
X15162048Y-15248391D01*
X15371572Y-15362677D02*
X15352524Y-15353153D01*
X15352524Y-15353153D02*
X15343000Y-15343630D01*
X15343000Y-15343630D02*
X15333477Y-15324582D01*
X15333477Y-15324582D02*
X15333477Y-15267439D01*
X15333477Y-15267439D02*
X15343000Y-15248391D01*
X15343000Y-15248391D02*
X15352524Y-15238868D01*
X15352524Y-15238868D02*
X15371572Y-15229344D01*
X15371572Y-15229344D02*
X15400143Y-15229344D01*
X15400143Y-15229344D02*
X15419191Y-15238868D01*
X15419191Y-15238868D02*
X15428715Y-15248391D01*
X15428715Y-15248391D02*
X15438238Y-15267439D01*
X15438238Y-15267439D02*
X15438238Y-15324582D01*
X15438238Y-15324582D02*
X15428715Y-15343630D01*
X15428715Y-15343630D02*
X15419191Y-15353153D01*
X15419191Y-15353153D02*
X15400143Y-15362677D01*
X15400143Y-15362677D02*
X15371572Y-15362677D01*
X15552524Y-15362677D02*
X15533477Y-15353153D01*
X15533477Y-15353153D02*
X15523953Y-15334106D01*
X15523953Y-15334106D02*
X15523953Y-15162677D01*
X15704905Y-15353153D02*
X15685858Y-15362677D01*
X15685858Y-15362677D02*
X15647762Y-15362677D01*
X15647762Y-15362677D02*
X15628715Y-15353153D01*
X15628715Y-15353153D02*
X15619191Y-15334106D01*
X15619191Y-15334106D02*
X15619191Y-15257915D01*
X15619191Y-15257915D02*
X15628715Y-15238868D01*
X15628715Y-15238868D02*
X15647762Y-15229344D01*
X15647762Y-15229344D02*
X15685858Y-15229344D01*
X15685858Y-15229344D02*
X15704905Y-15238868D01*
X15704905Y-15238868D02*
X15714429Y-15257915D01*
X15714429Y-15257915D02*
X15714429Y-15276963D01*
X15714429Y-15276963D02*
X15619191Y-15296011D01*
X15790619Y-15353153D02*
X15809667Y-15362677D01*
X15809667Y-15362677D02*
X15847762Y-15362677D01*
X15847762Y-15362677D02*
X15866810Y-15353153D01*
X15866810Y-15353153D02*
X15876334Y-15334106D01*
X15876334Y-15334106D02*
X15876334Y-15324582D01*
X15876334Y-15324582D02*
X15866810Y-15305534D01*
X15866810Y-15305534D02*
X15847762Y-15296011D01*
X15847762Y-15296011D02*
X15819191Y-15296011D01*
X15819191Y-15296011D02*
X15800143Y-15286487D01*
X15800143Y-15286487D02*
X15790619Y-15267439D01*
X15790619Y-15267439D02*
X15790619Y-15257915D01*
X15790619Y-15257915D02*
X15800143Y-15238868D01*
X15800143Y-15238868D02*
X15819191Y-15229344D01*
X15819191Y-15229344D02*
X15847762Y-15229344D01*
X15847762Y-15229344D02*
X15866810Y-15238868D01*
X15943000Y-15438868D02*
X15952524Y-15429344D01*
X15952524Y-15429344D02*
X15971572Y-15400772D01*
X15971572Y-15400772D02*
X15981096Y-15381725D01*
X15981096Y-15381725D02*
X15990619Y-15353153D01*
X15990619Y-15353153D02*
X16000143Y-15305534D01*
X16000143Y-15305534D02*
X16000143Y-15267439D01*
X16000143Y-15267439D02*
X15990619Y-15219820D01*
X15990619Y-15219820D02*
X15981096Y-15191249D01*
X15981096Y-15191249D02*
X15971572Y-15172201D01*
X15971572Y-15172201D02*
X15952524Y-15143630D01*
X15952524Y-15143630D02*
X15943000Y-15134106D01*
D11*
X10965746Y-15563478D02*
X10965746Y-15506909D01*
X10909177Y-15506909D01*
X10909177Y-15563478D01*
X10965746Y-15563478D01*
D10*
X11276333Y-15426677D02*
X11295381Y-15426677D01*
X11295381Y-15426677D02*
X11314429Y-15436201D01*
X11314429Y-15436201D02*
X11323952Y-15445725D01*
X11323952Y-15445725D02*
X11333476Y-15464772D01*
X11333476Y-15464772D02*
X11343000Y-15502868D01*
X11343000Y-15502868D02*
X11343000Y-15550487D01*
X11343000Y-15550487D02*
X11333476Y-15588582D01*
X11333476Y-15588582D02*
X11323952Y-15607630D01*
X11323952Y-15607630D02*
X11314429Y-15617153D01*
X11314429Y-15617153D02*
X11295381Y-15626677D01*
X11295381Y-15626677D02*
X11276333Y-15626677D01*
X11276333Y-15626677D02*
X11257286Y-15617153D01*
X11257286Y-15617153D02*
X11247762Y-15607630D01*
X11247762Y-15607630D02*
X11238238Y-15588582D01*
X11238238Y-15588582D02*
X11228714Y-15550487D01*
X11228714Y-15550487D02*
X11228714Y-15502868D01*
X11228714Y-15502868D02*
X11238238Y-15464772D01*
X11238238Y-15464772D02*
X11247762Y-15445725D01*
X11247762Y-15445725D02*
X11257286Y-15436201D01*
X11257286Y-15436201D02*
X11276333Y-15426677D01*
X11428714Y-15607630D02*
X11438238Y-15617153D01*
X11438238Y-15617153D02*
X11428714Y-15626677D01*
X11428714Y-15626677D02*
X11419190Y-15617153D01*
X11419190Y-15617153D02*
X11428714Y-15607630D01*
X11428714Y-15607630D02*
X11428714Y-15626677D01*
X11552524Y-15512391D02*
X11533476Y-15502868D01*
X11533476Y-15502868D02*
X11523952Y-15493344D01*
X11523952Y-15493344D02*
X11514429Y-15474296D01*
X11514429Y-15474296D02*
X11514429Y-15464772D01*
X11514429Y-15464772D02*
X11523952Y-15445725D01*
X11523952Y-15445725D02*
X11533476Y-15436201D01*
X11533476Y-15436201D02*
X11552524Y-15426677D01*
X11552524Y-15426677D02*
X11590619Y-15426677D01*
X11590619Y-15426677D02*
X11609667Y-15436201D01*
X11609667Y-15436201D02*
X11619190Y-15445725D01*
X11619190Y-15445725D02*
X11628714Y-15464772D01*
X11628714Y-15464772D02*
X11628714Y-15474296D01*
X11628714Y-15474296D02*
X11619190Y-15493344D01*
X11619190Y-15493344D02*
X11609667Y-15502868D01*
X11609667Y-15502868D02*
X11590619Y-15512391D01*
X11590619Y-15512391D02*
X11552524Y-15512391D01*
X11552524Y-15512391D02*
X11533476Y-15521915D01*
X11533476Y-15521915D02*
X11523952Y-15531439D01*
X11523952Y-15531439D02*
X11514429Y-15550487D01*
X11514429Y-15550487D02*
X11514429Y-15588582D01*
X11514429Y-15588582D02*
X11523952Y-15607630D01*
X11523952Y-15607630D02*
X11533476Y-15617153D01*
X11533476Y-15617153D02*
X11552524Y-15626677D01*
X11552524Y-15626677D02*
X11590619Y-15626677D01*
X11590619Y-15626677D02*
X11609667Y-15617153D01*
X11609667Y-15617153D02*
X11619190Y-15607630D01*
X11619190Y-15607630D02*
X11628714Y-15588582D01*
X11628714Y-15588582D02*
X11628714Y-15550487D01*
X11628714Y-15550487D02*
X11619190Y-15531439D01*
X11619190Y-15531439D02*
X11609667Y-15521915D01*
X11609667Y-15521915D02*
X11590619Y-15512391D01*
X11752524Y-15426677D02*
X11771571Y-15426677D01*
X11771571Y-15426677D02*
X11790619Y-15436201D01*
X11790619Y-15436201D02*
X11800143Y-15445725D01*
X11800143Y-15445725D02*
X11809667Y-15464772D01*
X11809667Y-15464772D02*
X11819190Y-15502868D01*
X11819190Y-15502868D02*
X11819190Y-15550487D01*
X11819190Y-15550487D02*
X11809667Y-15588582D01*
X11809667Y-15588582D02*
X11800143Y-15607630D01*
X11800143Y-15607630D02*
X11790619Y-15617153D01*
X11790619Y-15617153D02*
X11771571Y-15626677D01*
X11771571Y-15626677D02*
X11752524Y-15626677D01*
X11752524Y-15626677D02*
X11733476Y-15617153D01*
X11733476Y-15617153D02*
X11723952Y-15607630D01*
X11723952Y-15607630D02*
X11714429Y-15588582D01*
X11714429Y-15588582D02*
X11704905Y-15550487D01*
X11704905Y-15550487D02*
X11704905Y-15502868D01*
X11704905Y-15502868D02*
X11714429Y-15464772D01*
X11714429Y-15464772D02*
X11723952Y-15445725D01*
X11723952Y-15445725D02*
X11733476Y-15436201D01*
X11733476Y-15436201D02*
X11752524Y-15426677D01*
X11943000Y-15426677D02*
X11962048Y-15426677D01*
X11962048Y-15426677D02*
X11981095Y-15436201D01*
X11981095Y-15436201D02*
X11990619Y-15445725D01*
X11990619Y-15445725D02*
X12000143Y-15464772D01*
X12000143Y-15464772D02*
X12009667Y-15502868D01*
X12009667Y-15502868D02*
X12009667Y-15550487D01*
X12009667Y-15550487D02*
X12000143Y-15588582D01*
X12000143Y-15588582D02*
X11990619Y-15607630D01*
X11990619Y-15607630D02*
X11981095Y-15617153D01*
X11981095Y-15617153D02*
X11962048Y-15626677D01*
X11962048Y-15626677D02*
X11943000Y-15626677D01*
X11943000Y-15626677D02*
X11923952Y-15617153D01*
X11923952Y-15617153D02*
X11914429Y-15607630D01*
X11914429Y-15607630D02*
X11904905Y-15588582D01*
X11904905Y-15588582D02*
X11895381Y-15550487D01*
X11895381Y-15550487D02*
X11895381Y-15502868D01*
X11895381Y-15502868D02*
X11904905Y-15464772D01*
X11904905Y-15464772D02*
X11914429Y-15445725D01*
X11914429Y-15445725D02*
X11923952Y-15436201D01*
X11923952Y-15436201D02*
X11943000Y-15426677D01*
X12095381Y-15626677D02*
X12095381Y-15493344D01*
X12095381Y-15512391D02*
X12104905Y-15502868D01*
X12104905Y-15502868D02*
X12123952Y-15493344D01*
X12123952Y-15493344D02*
X12152524Y-15493344D01*
X12152524Y-15493344D02*
X12171571Y-15502868D01*
X12171571Y-15502868D02*
X12181095Y-15521915D01*
X12181095Y-15521915D02*
X12181095Y-15626677D01*
X12181095Y-15521915D02*
X12190619Y-15502868D01*
X12190619Y-15502868D02*
X12209667Y-15493344D01*
X12209667Y-15493344D02*
X12238238Y-15493344D01*
X12238238Y-15493344D02*
X12257286Y-15502868D01*
X12257286Y-15502868D02*
X12266810Y-15521915D01*
X12266810Y-15521915D02*
X12266810Y-15626677D01*
X12362048Y-15626677D02*
X12362048Y-15493344D01*
X12362048Y-15512391D02*
X12371571Y-15502868D01*
X12371571Y-15502868D02*
X12390619Y-15493344D01*
X12390619Y-15493344D02*
X12419191Y-15493344D01*
X12419191Y-15493344D02*
X12438238Y-15502868D01*
X12438238Y-15502868D02*
X12447762Y-15521915D01*
X12447762Y-15521915D02*
X12447762Y-15626677D01*
X12447762Y-15521915D02*
X12457286Y-15502868D01*
X12457286Y-15502868D02*
X12476333Y-15493344D01*
X12476333Y-15493344D02*
X12504905Y-15493344D01*
X12504905Y-15493344D02*
X12523952Y-15502868D01*
X12523952Y-15502868D02*
X12533476Y-15521915D01*
X12533476Y-15521915D02*
X12533476Y-15626677D01*
X12923952Y-15417153D02*
X12752524Y-15674296D01*
X13181095Y-15426677D02*
X13200143Y-15426677D01*
X13200143Y-15426677D02*
X13219191Y-15436201D01*
X13219191Y-15436201D02*
X13228714Y-15445725D01*
X13228714Y-15445725D02*
X13238238Y-15464772D01*
X13238238Y-15464772D02*
X13247762Y-15502868D01*
X13247762Y-15502868D02*
X13247762Y-15550487D01*
X13247762Y-15550487D02*
X13238238Y-15588582D01*
X13238238Y-15588582D02*
X13228714Y-15607630D01*
X13228714Y-15607630D02*
X13219191Y-15617153D01*
X13219191Y-15617153D02*
X13200143Y-15626677D01*
X13200143Y-15626677D02*
X13181095Y-15626677D01*
X13181095Y-15626677D02*
X13162048Y-15617153D01*
X13162048Y-15617153D02*
X13152524Y-15607630D01*
X13152524Y-15607630D02*
X13143000Y-15588582D01*
X13143000Y-15588582D02*
X13133476Y-15550487D01*
X13133476Y-15550487D02*
X13133476Y-15502868D01*
X13133476Y-15502868D02*
X13143000Y-15464772D01*
X13143000Y-15464772D02*
X13152524Y-15445725D01*
X13152524Y-15445725D02*
X13162048Y-15436201D01*
X13162048Y-15436201D02*
X13181095Y-15426677D01*
X13333476Y-15607630D02*
X13343000Y-15617153D01*
X13343000Y-15617153D02*
X13333476Y-15626677D01*
X13333476Y-15626677D02*
X13323953Y-15617153D01*
X13323953Y-15617153D02*
X13333476Y-15607630D01*
X13333476Y-15607630D02*
X13333476Y-15626677D01*
X13466810Y-15426677D02*
X13485857Y-15426677D01*
X13485857Y-15426677D02*
X13504905Y-15436201D01*
X13504905Y-15436201D02*
X13514429Y-15445725D01*
X13514429Y-15445725D02*
X13523953Y-15464772D01*
X13523953Y-15464772D02*
X13533476Y-15502868D01*
X13533476Y-15502868D02*
X13533476Y-15550487D01*
X13533476Y-15550487D02*
X13523953Y-15588582D01*
X13523953Y-15588582D02*
X13514429Y-15607630D01*
X13514429Y-15607630D02*
X13504905Y-15617153D01*
X13504905Y-15617153D02*
X13485857Y-15626677D01*
X13485857Y-15626677D02*
X13466810Y-15626677D01*
X13466810Y-15626677D02*
X13447762Y-15617153D01*
X13447762Y-15617153D02*
X13438238Y-15607630D01*
X13438238Y-15607630D02*
X13428714Y-15588582D01*
X13428714Y-15588582D02*
X13419191Y-15550487D01*
X13419191Y-15550487D02*
X13419191Y-15502868D01*
X13419191Y-15502868D02*
X13428714Y-15464772D01*
X13428714Y-15464772D02*
X13438238Y-15445725D01*
X13438238Y-15445725D02*
X13447762Y-15436201D01*
X13447762Y-15436201D02*
X13466810Y-15426677D01*
X13600143Y-15426677D02*
X13723953Y-15426677D01*
X13723953Y-15426677D02*
X13657286Y-15502868D01*
X13657286Y-15502868D02*
X13685857Y-15502868D01*
X13685857Y-15502868D02*
X13704905Y-15512391D01*
X13704905Y-15512391D02*
X13714429Y-15521915D01*
X13714429Y-15521915D02*
X13723953Y-15540963D01*
X13723953Y-15540963D02*
X13723953Y-15588582D01*
X13723953Y-15588582D02*
X13714429Y-15607630D01*
X13714429Y-15607630D02*
X13704905Y-15617153D01*
X13704905Y-15617153D02*
X13685857Y-15626677D01*
X13685857Y-15626677D02*
X13628714Y-15626677D01*
X13628714Y-15626677D02*
X13609667Y-15617153D01*
X13609667Y-15617153D02*
X13600143Y-15607630D01*
X13914429Y-15626677D02*
X13800143Y-15626677D01*
X13857286Y-15626677D02*
X13857286Y-15426677D01*
X13857286Y-15426677D02*
X13838238Y-15455249D01*
X13838238Y-15455249D02*
X13819191Y-15474296D01*
X13819191Y-15474296D02*
X13800143Y-15483820D01*
X14095381Y-15426677D02*
X14000143Y-15426677D01*
X14000143Y-15426677D02*
X13990619Y-15521915D01*
X13990619Y-15521915D02*
X14000143Y-15512391D01*
X14000143Y-15512391D02*
X14019191Y-15502868D01*
X14019191Y-15502868D02*
X14066810Y-15502868D01*
X14066810Y-15502868D02*
X14085857Y-15512391D01*
X14085857Y-15512391D02*
X14095381Y-15521915D01*
X14095381Y-15521915D02*
X14104905Y-15540963D01*
X14104905Y-15540963D02*
X14104905Y-15588582D01*
X14104905Y-15588582D02*
X14095381Y-15607630D01*
X14095381Y-15607630D02*
X14085857Y-15617153D01*
X14085857Y-15617153D02*
X14066810Y-15626677D01*
X14066810Y-15626677D02*
X14019191Y-15626677D01*
X14019191Y-15626677D02*
X14000143Y-15617153D01*
X14000143Y-15617153D02*
X13990619Y-15607630D01*
X14181095Y-15426677D02*
X14181095Y-15464772D01*
X14257286Y-15426677D02*
X14257286Y-15464772D01*
X14552524Y-15702868D02*
X14543000Y-15693344D01*
X14543000Y-15693344D02*
X14523953Y-15664772D01*
X14523953Y-15664772D02*
X14514429Y-15645725D01*
X14514429Y-15645725D02*
X14504905Y-15617153D01*
X14504905Y-15617153D02*
X14495381Y-15569534D01*
X14495381Y-15569534D02*
X14495381Y-15531439D01*
X14495381Y-15531439D02*
X14504905Y-15483820D01*
X14504905Y-15483820D02*
X14514429Y-15455249D01*
X14514429Y-15455249D02*
X14523953Y-15436201D01*
X14523953Y-15436201D02*
X14543000Y-15407630D01*
X14543000Y-15407630D02*
X14552524Y-15398106D01*
X14733476Y-15626677D02*
X14619191Y-15626677D01*
X14676334Y-15626677D02*
X14676334Y-15426677D01*
X14676334Y-15426677D02*
X14657286Y-15455249D01*
X14657286Y-15455249D02*
X14638238Y-15474296D01*
X14638238Y-15474296D02*
X14619191Y-15483820D01*
X14904905Y-15493344D02*
X14904905Y-15626677D01*
X14857286Y-15417153D02*
X14809667Y-15560011D01*
X14809667Y-15560011D02*
X14933476Y-15560011D01*
X15162048Y-15626677D02*
X15162048Y-15426677D01*
X15247762Y-15626677D02*
X15247762Y-15521915D01*
X15247762Y-15521915D02*
X15238238Y-15502868D01*
X15238238Y-15502868D02*
X15219191Y-15493344D01*
X15219191Y-15493344D02*
X15190619Y-15493344D01*
X15190619Y-15493344D02*
X15171572Y-15502868D01*
X15171572Y-15502868D02*
X15162048Y-15512391D01*
X15371572Y-15626677D02*
X15352524Y-15617153D01*
X15352524Y-15617153D02*
X15343000Y-15607630D01*
X15343000Y-15607630D02*
X15333477Y-15588582D01*
X15333477Y-15588582D02*
X15333477Y-15531439D01*
X15333477Y-15531439D02*
X15343000Y-15512391D01*
X15343000Y-15512391D02*
X15352524Y-15502868D01*
X15352524Y-15502868D02*
X15371572Y-15493344D01*
X15371572Y-15493344D02*
X15400143Y-15493344D01*
X15400143Y-15493344D02*
X15419191Y-15502868D01*
X15419191Y-15502868D02*
X15428715Y-15512391D01*
X15428715Y-15512391D02*
X15438238Y-15531439D01*
X15438238Y-15531439D02*
X15438238Y-15588582D01*
X15438238Y-15588582D02*
X15428715Y-15607630D01*
X15428715Y-15607630D02*
X15419191Y-15617153D01*
X15419191Y-15617153D02*
X15400143Y-15626677D01*
X15400143Y-15626677D02*
X15371572Y-15626677D01*
X15552524Y-15626677D02*
X15533477Y-15617153D01*
X15533477Y-15617153D02*
X15523953Y-15598106D01*
X15523953Y-15598106D02*
X15523953Y-15426677D01*
X15704905Y-15617153D02*
X15685858Y-15626677D01*
X15685858Y-15626677D02*
X15647762Y-15626677D01*
X15647762Y-15626677D02*
X15628715Y-15617153D01*
X15628715Y-15617153D02*
X15619191Y-15598106D01*
X15619191Y-15598106D02*
X15619191Y-15521915D01*
X15619191Y-15521915D02*
X15628715Y-15502868D01*
X15628715Y-15502868D02*
X15647762Y-15493344D01*
X15647762Y-15493344D02*
X15685858Y-15493344D01*
X15685858Y-15493344D02*
X15704905Y-15502868D01*
X15704905Y-15502868D02*
X15714429Y-15521915D01*
X15714429Y-15521915D02*
X15714429Y-15540963D01*
X15714429Y-15540963D02*
X15619191Y-15560011D01*
X15790619Y-15617153D02*
X15809667Y-15626677D01*
X15809667Y-15626677D02*
X15847762Y-15626677D01*
X15847762Y-15626677D02*
X15866810Y-15617153D01*
X15866810Y-15617153D02*
X15876334Y-15598106D01*
X15876334Y-15598106D02*
X15876334Y-15588582D01*
X15876334Y-15588582D02*
X15866810Y-15569534D01*
X15866810Y-15569534D02*
X15847762Y-15560011D01*
X15847762Y-15560011D02*
X15819191Y-15560011D01*
X15819191Y-15560011D02*
X15800143Y-15550487D01*
X15800143Y-15550487D02*
X15790619Y-15531439D01*
X15790619Y-15531439D02*
X15790619Y-15521915D01*
X15790619Y-15521915D02*
X15800143Y-15502868D01*
X15800143Y-15502868D02*
X15819191Y-15493344D01*
X15819191Y-15493344D02*
X15847762Y-15493344D01*
X15847762Y-15493344D02*
X15866810Y-15502868D01*
X15943000Y-15702868D02*
X15952524Y-15693344D01*
X15952524Y-15693344D02*
X15971572Y-15664772D01*
X15971572Y-15664772D02*
X15981096Y-15645725D01*
X15981096Y-15645725D02*
X15990619Y-15617153D01*
X15990619Y-15617153D02*
X16000143Y-15569534D01*
X16000143Y-15569534D02*
X16000143Y-15531439D01*
X16000143Y-15531439D02*
X15990619Y-15483820D01*
X15990619Y-15483820D02*
X15981096Y-15455249D01*
X15981096Y-15455249D02*
X15971572Y-15436201D01*
X15971572Y-15436201D02*
X15952524Y-15407630D01*
X15952524Y-15407630D02*
X15943000Y-15398106D01*
D11*
X10932461Y-15844193D02*
X10977461Y-15799193D01*
X10932461Y-15754193D01*
X10887461Y-15799193D01*
X10932461Y-15844193D01*
D10*
X11276333Y-15690677D02*
X11295381Y-15690677D01*
X11295381Y-15690677D02*
X11314429Y-15700201D01*
X11314429Y-15700201D02*
X11323952Y-15709725D01*
X11323952Y-15709725D02*
X11333476Y-15728772D01*
X11333476Y-15728772D02*
X11343000Y-15766868D01*
X11343000Y-15766868D02*
X11343000Y-15814487D01*
X11343000Y-15814487D02*
X11333476Y-15852582D01*
X11333476Y-15852582D02*
X11323952Y-15871630D01*
X11323952Y-15871630D02*
X11314429Y-15881153D01*
X11314429Y-15881153D02*
X11295381Y-15890677D01*
X11295381Y-15890677D02*
X11276333Y-15890677D01*
X11276333Y-15890677D02*
X11257286Y-15881153D01*
X11257286Y-15881153D02*
X11247762Y-15871630D01*
X11247762Y-15871630D02*
X11238238Y-15852582D01*
X11238238Y-15852582D02*
X11228714Y-15814487D01*
X11228714Y-15814487D02*
X11228714Y-15766868D01*
X11228714Y-15766868D02*
X11238238Y-15728772D01*
X11238238Y-15728772D02*
X11247762Y-15709725D01*
X11247762Y-15709725D02*
X11257286Y-15700201D01*
X11257286Y-15700201D02*
X11276333Y-15690677D01*
X11428714Y-15871630D02*
X11438238Y-15881153D01*
X11438238Y-15881153D02*
X11428714Y-15890677D01*
X11428714Y-15890677D02*
X11419190Y-15881153D01*
X11419190Y-15881153D02*
X11428714Y-15871630D01*
X11428714Y-15871630D02*
X11428714Y-15890677D01*
X11533476Y-15890677D02*
X11571571Y-15890677D01*
X11571571Y-15890677D02*
X11590619Y-15881153D01*
X11590619Y-15881153D02*
X11600143Y-15871630D01*
X11600143Y-15871630D02*
X11619190Y-15843058D01*
X11619190Y-15843058D02*
X11628714Y-15804963D01*
X11628714Y-15804963D02*
X11628714Y-15728772D01*
X11628714Y-15728772D02*
X11619190Y-15709725D01*
X11619190Y-15709725D02*
X11609667Y-15700201D01*
X11609667Y-15700201D02*
X11590619Y-15690677D01*
X11590619Y-15690677D02*
X11552524Y-15690677D01*
X11552524Y-15690677D02*
X11533476Y-15700201D01*
X11533476Y-15700201D02*
X11523952Y-15709725D01*
X11523952Y-15709725D02*
X11514429Y-15728772D01*
X11514429Y-15728772D02*
X11514429Y-15776391D01*
X11514429Y-15776391D02*
X11523952Y-15795439D01*
X11523952Y-15795439D02*
X11533476Y-15804963D01*
X11533476Y-15804963D02*
X11552524Y-15814487D01*
X11552524Y-15814487D02*
X11590619Y-15814487D01*
X11590619Y-15814487D02*
X11609667Y-15804963D01*
X11609667Y-15804963D02*
X11619190Y-15795439D01*
X11619190Y-15795439D02*
X11628714Y-15776391D01*
X11752524Y-15690677D02*
X11771571Y-15690677D01*
X11771571Y-15690677D02*
X11790619Y-15700201D01*
X11790619Y-15700201D02*
X11800143Y-15709725D01*
X11800143Y-15709725D02*
X11809667Y-15728772D01*
X11809667Y-15728772D02*
X11819190Y-15766868D01*
X11819190Y-15766868D02*
X11819190Y-15814487D01*
X11819190Y-15814487D02*
X11809667Y-15852582D01*
X11809667Y-15852582D02*
X11800143Y-15871630D01*
X11800143Y-15871630D02*
X11790619Y-15881153D01*
X11790619Y-15881153D02*
X11771571Y-15890677D01*
X11771571Y-15890677D02*
X11752524Y-15890677D01*
X11752524Y-15890677D02*
X11733476Y-15881153D01*
X11733476Y-15881153D02*
X11723952Y-15871630D01*
X11723952Y-15871630D02*
X11714429Y-15852582D01*
X11714429Y-15852582D02*
X11704905Y-15814487D01*
X11704905Y-15814487D02*
X11704905Y-15766868D01*
X11704905Y-15766868D02*
X11714429Y-15728772D01*
X11714429Y-15728772D02*
X11723952Y-15709725D01*
X11723952Y-15709725D02*
X11733476Y-15700201D01*
X11733476Y-15700201D02*
X11752524Y-15690677D01*
X11943000Y-15690677D02*
X11962048Y-15690677D01*
X11962048Y-15690677D02*
X11981095Y-15700201D01*
X11981095Y-15700201D02*
X11990619Y-15709725D01*
X11990619Y-15709725D02*
X12000143Y-15728772D01*
X12000143Y-15728772D02*
X12009667Y-15766868D01*
X12009667Y-15766868D02*
X12009667Y-15814487D01*
X12009667Y-15814487D02*
X12000143Y-15852582D01*
X12000143Y-15852582D02*
X11990619Y-15871630D01*
X11990619Y-15871630D02*
X11981095Y-15881153D01*
X11981095Y-15881153D02*
X11962048Y-15890677D01*
X11962048Y-15890677D02*
X11943000Y-15890677D01*
X11943000Y-15890677D02*
X11923952Y-15881153D01*
X11923952Y-15881153D02*
X11914429Y-15871630D01*
X11914429Y-15871630D02*
X11904905Y-15852582D01*
X11904905Y-15852582D02*
X11895381Y-15814487D01*
X11895381Y-15814487D02*
X11895381Y-15766868D01*
X11895381Y-15766868D02*
X11904905Y-15728772D01*
X11904905Y-15728772D02*
X11914429Y-15709725D01*
X11914429Y-15709725D02*
X11923952Y-15700201D01*
X11923952Y-15700201D02*
X11943000Y-15690677D01*
X12095381Y-15890677D02*
X12095381Y-15757344D01*
X12095381Y-15776391D02*
X12104905Y-15766868D01*
X12104905Y-15766868D02*
X12123952Y-15757344D01*
X12123952Y-15757344D02*
X12152524Y-15757344D01*
X12152524Y-15757344D02*
X12171571Y-15766868D01*
X12171571Y-15766868D02*
X12181095Y-15785915D01*
X12181095Y-15785915D02*
X12181095Y-15890677D01*
X12181095Y-15785915D02*
X12190619Y-15766868D01*
X12190619Y-15766868D02*
X12209667Y-15757344D01*
X12209667Y-15757344D02*
X12238238Y-15757344D01*
X12238238Y-15757344D02*
X12257286Y-15766868D01*
X12257286Y-15766868D02*
X12266810Y-15785915D01*
X12266810Y-15785915D02*
X12266810Y-15890677D01*
X12362048Y-15890677D02*
X12362048Y-15757344D01*
X12362048Y-15776391D02*
X12371571Y-15766868D01*
X12371571Y-15766868D02*
X12390619Y-15757344D01*
X12390619Y-15757344D02*
X12419191Y-15757344D01*
X12419191Y-15757344D02*
X12438238Y-15766868D01*
X12438238Y-15766868D02*
X12447762Y-15785915D01*
X12447762Y-15785915D02*
X12447762Y-15890677D01*
X12447762Y-15785915D02*
X12457286Y-15766868D01*
X12457286Y-15766868D02*
X12476333Y-15757344D01*
X12476333Y-15757344D02*
X12504905Y-15757344D01*
X12504905Y-15757344D02*
X12523952Y-15766868D01*
X12523952Y-15766868D02*
X12533476Y-15785915D01*
X12533476Y-15785915D02*
X12533476Y-15890677D01*
X12923952Y-15681153D02*
X12752524Y-15938296D01*
X13181095Y-15690677D02*
X13200143Y-15690677D01*
X13200143Y-15690677D02*
X13219191Y-15700201D01*
X13219191Y-15700201D02*
X13228714Y-15709725D01*
X13228714Y-15709725D02*
X13238238Y-15728772D01*
X13238238Y-15728772D02*
X13247762Y-15766868D01*
X13247762Y-15766868D02*
X13247762Y-15814487D01*
X13247762Y-15814487D02*
X13238238Y-15852582D01*
X13238238Y-15852582D02*
X13228714Y-15871630D01*
X13228714Y-15871630D02*
X13219191Y-15881153D01*
X13219191Y-15881153D02*
X13200143Y-15890677D01*
X13200143Y-15890677D02*
X13181095Y-15890677D01*
X13181095Y-15890677D02*
X13162048Y-15881153D01*
X13162048Y-15881153D02*
X13152524Y-15871630D01*
X13152524Y-15871630D02*
X13143000Y-15852582D01*
X13143000Y-15852582D02*
X13133476Y-15814487D01*
X13133476Y-15814487D02*
X13133476Y-15766868D01*
X13133476Y-15766868D02*
X13143000Y-15728772D01*
X13143000Y-15728772D02*
X13152524Y-15709725D01*
X13152524Y-15709725D02*
X13162048Y-15700201D01*
X13162048Y-15700201D02*
X13181095Y-15690677D01*
X13333476Y-15871630D02*
X13343000Y-15881153D01*
X13343000Y-15881153D02*
X13333476Y-15890677D01*
X13333476Y-15890677D02*
X13323953Y-15881153D01*
X13323953Y-15881153D02*
X13333476Y-15871630D01*
X13333476Y-15871630D02*
X13333476Y-15890677D01*
X13466810Y-15690677D02*
X13485857Y-15690677D01*
X13485857Y-15690677D02*
X13504905Y-15700201D01*
X13504905Y-15700201D02*
X13514429Y-15709725D01*
X13514429Y-15709725D02*
X13523953Y-15728772D01*
X13523953Y-15728772D02*
X13533476Y-15766868D01*
X13533476Y-15766868D02*
X13533476Y-15814487D01*
X13533476Y-15814487D02*
X13523953Y-15852582D01*
X13523953Y-15852582D02*
X13514429Y-15871630D01*
X13514429Y-15871630D02*
X13504905Y-15881153D01*
X13504905Y-15881153D02*
X13485857Y-15890677D01*
X13485857Y-15890677D02*
X13466810Y-15890677D01*
X13466810Y-15890677D02*
X13447762Y-15881153D01*
X13447762Y-15881153D02*
X13438238Y-15871630D01*
X13438238Y-15871630D02*
X13428714Y-15852582D01*
X13428714Y-15852582D02*
X13419191Y-15814487D01*
X13419191Y-15814487D02*
X13419191Y-15766868D01*
X13419191Y-15766868D02*
X13428714Y-15728772D01*
X13428714Y-15728772D02*
X13438238Y-15709725D01*
X13438238Y-15709725D02*
X13447762Y-15700201D01*
X13447762Y-15700201D02*
X13466810Y-15690677D01*
X13600143Y-15690677D02*
X13723953Y-15690677D01*
X13723953Y-15690677D02*
X13657286Y-15766868D01*
X13657286Y-15766868D02*
X13685857Y-15766868D01*
X13685857Y-15766868D02*
X13704905Y-15776391D01*
X13704905Y-15776391D02*
X13714429Y-15785915D01*
X13714429Y-15785915D02*
X13723953Y-15804963D01*
X13723953Y-15804963D02*
X13723953Y-15852582D01*
X13723953Y-15852582D02*
X13714429Y-15871630D01*
X13714429Y-15871630D02*
X13704905Y-15881153D01*
X13704905Y-15881153D02*
X13685857Y-15890677D01*
X13685857Y-15890677D02*
X13628714Y-15890677D01*
X13628714Y-15890677D02*
X13609667Y-15881153D01*
X13609667Y-15881153D02*
X13600143Y-15871630D01*
X13904905Y-15690677D02*
X13809667Y-15690677D01*
X13809667Y-15690677D02*
X13800143Y-15785915D01*
X13800143Y-15785915D02*
X13809667Y-15776391D01*
X13809667Y-15776391D02*
X13828714Y-15766868D01*
X13828714Y-15766868D02*
X13876334Y-15766868D01*
X13876334Y-15766868D02*
X13895381Y-15776391D01*
X13895381Y-15776391D02*
X13904905Y-15785915D01*
X13904905Y-15785915D02*
X13914429Y-15804963D01*
X13914429Y-15804963D02*
X13914429Y-15852582D01*
X13914429Y-15852582D02*
X13904905Y-15871630D01*
X13904905Y-15871630D02*
X13895381Y-15881153D01*
X13895381Y-15881153D02*
X13876334Y-15890677D01*
X13876334Y-15890677D02*
X13828714Y-15890677D01*
X13828714Y-15890677D02*
X13809667Y-15881153D01*
X13809667Y-15881153D02*
X13800143Y-15871630D01*
X14085857Y-15757344D02*
X14085857Y-15890677D01*
X14038238Y-15681153D02*
X13990619Y-15824011D01*
X13990619Y-15824011D02*
X14114429Y-15824011D01*
X14181095Y-15690677D02*
X14181095Y-15728772D01*
X14257286Y-15690677D02*
X14257286Y-15728772D01*
X14552524Y-15966868D02*
X14543000Y-15957344D01*
X14543000Y-15957344D02*
X14523953Y-15928772D01*
X14523953Y-15928772D02*
X14514429Y-15909725D01*
X14514429Y-15909725D02*
X14504905Y-15881153D01*
X14504905Y-15881153D02*
X14495381Y-15833534D01*
X14495381Y-15833534D02*
X14495381Y-15795439D01*
X14495381Y-15795439D02*
X14504905Y-15747820D01*
X14504905Y-15747820D02*
X14514429Y-15719249D01*
X14514429Y-15719249D02*
X14523953Y-15700201D01*
X14523953Y-15700201D02*
X14543000Y-15671630D01*
X14543000Y-15671630D02*
X14552524Y-15662106D01*
X14733476Y-15890677D02*
X14619191Y-15890677D01*
X14676334Y-15890677D02*
X14676334Y-15690677D01*
X14676334Y-15690677D02*
X14657286Y-15719249D01*
X14657286Y-15719249D02*
X14638238Y-15738296D01*
X14638238Y-15738296D02*
X14619191Y-15747820D01*
X14847762Y-15776391D02*
X14828715Y-15766868D01*
X14828715Y-15766868D02*
X14819191Y-15757344D01*
X14819191Y-15757344D02*
X14809667Y-15738296D01*
X14809667Y-15738296D02*
X14809667Y-15728772D01*
X14809667Y-15728772D02*
X14819191Y-15709725D01*
X14819191Y-15709725D02*
X14828715Y-15700201D01*
X14828715Y-15700201D02*
X14847762Y-15690677D01*
X14847762Y-15690677D02*
X14885857Y-15690677D01*
X14885857Y-15690677D02*
X14904905Y-15700201D01*
X14904905Y-15700201D02*
X14914429Y-15709725D01*
X14914429Y-15709725D02*
X14923953Y-15728772D01*
X14923953Y-15728772D02*
X14923953Y-15738296D01*
X14923953Y-15738296D02*
X14914429Y-15757344D01*
X14914429Y-15757344D02*
X14904905Y-15766868D01*
X14904905Y-15766868D02*
X14885857Y-15776391D01*
X14885857Y-15776391D02*
X14847762Y-15776391D01*
X14847762Y-15776391D02*
X14828715Y-15785915D01*
X14828715Y-15785915D02*
X14819191Y-15795439D01*
X14819191Y-15795439D02*
X14809667Y-15814487D01*
X14809667Y-15814487D02*
X14809667Y-15852582D01*
X14809667Y-15852582D02*
X14819191Y-15871630D01*
X14819191Y-15871630D02*
X14828715Y-15881153D01*
X14828715Y-15881153D02*
X14847762Y-15890677D01*
X14847762Y-15890677D02*
X14885857Y-15890677D01*
X14885857Y-15890677D02*
X14904905Y-15881153D01*
X14904905Y-15881153D02*
X14914429Y-15871630D01*
X14914429Y-15871630D02*
X14923953Y-15852582D01*
X14923953Y-15852582D02*
X14923953Y-15814487D01*
X14923953Y-15814487D02*
X14914429Y-15795439D01*
X14914429Y-15795439D02*
X14904905Y-15785915D01*
X14904905Y-15785915D02*
X14885857Y-15776391D01*
X15162048Y-15890677D02*
X15162048Y-15690677D01*
X15247762Y-15890677D02*
X15247762Y-15785915D01*
X15247762Y-15785915D02*
X15238238Y-15766868D01*
X15238238Y-15766868D02*
X15219191Y-15757344D01*
X15219191Y-15757344D02*
X15190619Y-15757344D01*
X15190619Y-15757344D02*
X15171572Y-15766868D01*
X15171572Y-15766868D02*
X15162048Y-15776391D01*
X15371572Y-15890677D02*
X15352524Y-15881153D01*
X15352524Y-15881153D02*
X15343000Y-15871630D01*
X15343000Y-15871630D02*
X15333477Y-15852582D01*
X15333477Y-15852582D02*
X15333477Y-15795439D01*
X15333477Y-15795439D02*
X15343000Y-15776391D01*
X15343000Y-15776391D02*
X15352524Y-15766868D01*
X15352524Y-15766868D02*
X15371572Y-15757344D01*
X15371572Y-15757344D02*
X15400143Y-15757344D01*
X15400143Y-15757344D02*
X15419191Y-15766868D01*
X15419191Y-15766868D02*
X15428715Y-15776391D01*
X15428715Y-15776391D02*
X15438238Y-15795439D01*
X15438238Y-15795439D02*
X15438238Y-15852582D01*
X15438238Y-15852582D02*
X15428715Y-15871630D01*
X15428715Y-15871630D02*
X15419191Y-15881153D01*
X15419191Y-15881153D02*
X15400143Y-15890677D01*
X15400143Y-15890677D02*
X15371572Y-15890677D01*
X15552524Y-15890677D02*
X15533477Y-15881153D01*
X15533477Y-15881153D02*
X15523953Y-15862106D01*
X15523953Y-15862106D02*
X15523953Y-15690677D01*
X15704905Y-15881153D02*
X15685858Y-15890677D01*
X15685858Y-15890677D02*
X15647762Y-15890677D01*
X15647762Y-15890677D02*
X15628715Y-15881153D01*
X15628715Y-15881153D02*
X15619191Y-15862106D01*
X15619191Y-15862106D02*
X15619191Y-15785915D01*
X15619191Y-15785915D02*
X15628715Y-15766868D01*
X15628715Y-15766868D02*
X15647762Y-15757344D01*
X15647762Y-15757344D02*
X15685858Y-15757344D01*
X15685858Y-15757344D02*
X15704905Y-15766868D01*
X15704905Y-15766868D02*
X15714429Y-15785915D01*
X15714429Y-15785915D02*
X15714429Y-15804963D01*
X15714429Y-15804963D02*
X15619191Y-15824011D01*
X15790619Y-15881153D02*
X15809667Y-15890677D01*
X15809667Y-15890677D02*
X15847762Y-15890677D01*
X15847762Y-15890677D02*
X15866810Y-15881153D01*
X15866810Y-15881153D02*
X15876334Y-15862106D01*
X15876334Y-15862106D02*
X15876334Y-15852582D01*
X15876334Y-15852582D02*
X15866810Y-15833534D01*
X15866810Y-15833534D02*
X15847762Y-15824011D01*
X15847762Y-15824011D02*
X15819191Y-15824011D01*
X15819191Y-15824011D02*
X15800143Y-15814487D01*
X15800143Y-15814487D02*
X15790619Y-15795439D01*
X15790619Y-15795439D02*
X15790619Y-15785915D01*
X15790619Y-15785915D02*
X15800143Y-15766868D01*
X15800143Y-15766868D02*
X15819191Y-15757344D01*
X15819191Y-15757344D02*
X15847762Y-15757344D01*
X15847762Y-15757344D02*
X15866810Y-15766868D01*
X15943000Y-15966868D02*
X15952524Y-15957344D01*
X15952524Y-15957344D02*
X15971572Y-15928772D01*
X15971572Y-15928772D02*
X15981096Y-15909725D01*
X15981096Y-15909725D02*
X15990619Y-15881153D01*
X15990619Y-15881153D02*
X16000143Y-15833534D01*
X16000143Y-15833534D02*
X16000143Y-15795439D01*
X16000143Y-15795439D02*
X15990619Y-15747820D01*
X15990619Y-15747820D02*
X15981096Y-15719249D01*
X15981096Y-15719249D02*
X15971572Y-15700201D01*
X15971572Y-15700201D02*
X15952524Y-15671630D01*
X15952524Y-15671630D02*
X15943000Y-15662106D01*
D11*
X10882461Y-16015693D02*
X10977461Y-16110693D01*
X10977461Y-16015693D02*
X10882461Y-16110693D01*
X10977461Y-16063193D02*
G75*
G03*
X10882461Y-16063193I-47500J0D01*
G01*
X10882461Y-16063193D02*
G75*
G03*
X10977461Y-16063193I47500J0D01*
G01*
D10*
X11276333Y-15954677D02*
X11295381Y-15954677D01*
X11295381Y-15954677D02*
X11314429Y-15964201D01*
X11314429Y-15964201D02*
X11323952Y-15973725D01*
X11323952Y-15973725D02*
X11333476Y-15992772D01*
X11333476Y-15992772D02*
X11343000Y-16030868D01*
X11343000Y-16030868D02*
X11343000Y-16078487D01*
X11343000Y-16078487D02*
X11333476Y-16116582D01*
X11333476Y-16116582D02*
X11323952Y-16135630D01*
X11323952Y-16135630D02*
X11314429Y-16145153D01*
X11314429Y-16145153D02*
X11295381Y-16154677D01*
X11295381Y-16154677D02*
X11276333Y-16154677D01*
X11276333Y-16154677D02*
X11257286Y-16145153D01*
X11257286Y-16145153D02*
X11247762Y-16135630D01*
X11247762Y-16135630D02*
X11238238Y-16116582D01*
X11238238Y-16116582D02*
X11228714Y-16078487D01*
X11228714Y-16078487D02*
X11228714Y-16030868D01*
X11228714Y-16030868D02*
X11238238Y-15992772D01*
X11238238Y-15992772D02*
X11247762Y-15973725D01*
X11247762Y-15973725D02*
X11257286Y-15964201D01*
X11257286Y-15964201D02*
X11276333Y-15954677D01*
X11428714Y-16135630D02*
X11438238Y-16145153D01*
X11438238Y-16145153D02*
X11428714Y-16154677D01*
X11428714Y-16154677D02*
X11419190Y-16145153D01*
X11419190Y-16145153D02*
X11428714Y-16135630D01*
X11428714Y-16135630D02*
X11428714Y-16154677D01*
X11533476Y-16154677D02*
X11571571Y-16154677D01*
X11571571Y-16154677D02*
X11590619Y-16145153D01*
X11590619Y-16145153D02*
X11600143Y-16135630D01*
X11600143Y-16135630D02*
X11619190Y-16107058D01*
X11619190Y-16107058D02*
X11628714Y-16068963D01*
X11628714Y-16068963D02*
X11628714Y-15992772D01*
X11628714Y-15992772D02*
X11619190Y-15973725D01*
X11619190Y-15973725D02*
X11609667Y-15964201D01*
X11609667Y-15964201D02*
X11590619Y-15954677D01*
X11590619Y-15954677D02*
X11552524Y-15954677D01*
X11552524Y-15954677D02*
X11533476Y-15964201D01*
X11533476Y-15964201D02*
X11523952Y-15973725D01*
X11523952Y-15973725D02*
X11514429Y-15992772D01*
X11514429Y-15992772D02*
X11514429Y-16040391D01*
X11514429Y-16040391D02*
X11523952Y-16059439D01*
X11523952Y-16059439D02*
X11533476Y-16068963D01*
X11533476Y-16068963D02*
X11552524Y-16078487D01*
X11552524Y-16078487D02*
X11590619Y-16078487D01*
X11590619Y-16078487D02*
X11609667Y-16068963D01*
X11609667Y-16068963D02*
X11619190Y-16059439D01*
X11619190Y-16059439D02*
X11628714Y-16040391D01*
X11809667Y-15954677D02*
X11714429Y-15954677D01*
X11714429Y-15954677D02*
X11704905Y-16049915D01*
X11704905Y-16049915D02*
X11714429Y-16040391D01*
X11714429Y-16040391D02*
X11733476Y-16030868D01*
X11733476Y-16030868D02*
X11781095Y-16030868D01*
X11781095Y-16030868D02*
X11800143Y-16040391D01*
X11800143Y-16040391D02*
X11809667Y-16049915D01*
X11809667Y-16049915D02*
X11819190Y-16068963D01*
X11819190Y-16068963D02*
X11819190Y-16116582D01*
X11819190Y-16116582D02*
X11809667Y-16135630D01*
X11809667Y-16135630D02*
X11800143Y-16145153D01*
X11800143Y-16145153D02*
X11781095Y-16154677D01*
X11781095Y-16154677D02*
X11733476Y-16154677D01*
X11733476Y-16154677D02*
X11714429Y-16145153D01*
X11714429Y-16145153D02*
X11704905Y-16135630D01*
X11943000Y-15954677D02*
X11962048Y-15954677D01*
X11962048Y-15954677D02*
X11981095Y-15964201D01*
X11981095Y-15964201D02*
X11990619Y-15973725D01*
X11990619Y-15973725D02*
X12000143Y-15992772D01*
X12000143Y-15992772D02*
X12009667Y-16030868D01*
X12009667Y-16030868D02*
X12009667Y-16078487D01*
X12009667Y-16078487D02*
X12000143Y-16116582D01*
X12000143Y-16116582D02*
X11990619Y-16135630D01*
X11990619Y-16135630D02*
X11981095Y-16145153D01*
X11981095Y-16145153D02*
X11962048Y-16154677D01*
X11962048Y-16154677D02*
X11943000Y-16154677D01*
X11943000Y-16154677D02*
X11923952Y-16145153D01*
X11923952Y-16145153D02*
X11914429Y-16135630D01*
X11914429Y-16135630D02*
X11904905Y-16116582D01*
X11904905Y-16116582D02*
X11895381Y-16078487D01*
X11895381Y-16078487D02*
X11895381Y-16030868D01*
X11895381Y-16030868D02*
X11904905Y-15992772D01*
X11904905Y-15992772D02*
X11914429Y-15973725D01*
X11914429Y-15973725D02*
X11923952Y-15964201D01*
X11923952Y-15964201D02*
X11943000Y-15954677D01*
X12095381Y-16154677D02*
X12095381Y-16021344D01*
X12095381Y-16040391D02*
X12104905Y-16030868D01*
X12104905Y-16030868D02*
X12123952Y-16021344D01*
X12123952Y-16021344D02*
X12152524Y-16021344D01*
X12152524Y-16021344D02*
X12171571Y-16030868D01*
X12171571Y-16030868D02*
X12181095Y-16049915D01*
X12181095Y-16049915D02*
X12181095Y-16154677D01*
X12181095Y-16049915D02*
X12190619Y-16030868D01*
X12190619Y-16030868D02*
X12209667Y-16021344D01*
X12209667Y-16021344D02*
X12238238Y-16021344D01*
X12238238Y-16021344D02*
X12257286Y-16030868D01*
X12257286Y-16030868D02*
X12266810Y-16049915D01*
X12266810Y-16049915D02*
X12266810Y-16154677D01*
X12362048Y-16154677D02*
X12362048Y-16021344D01*
X12362048Y-16040391D02*
X12371571Y-16030868D01*
X12371571Y-16030868D02*
X12390619Y-16021344D01*
X12390619Y-16021344D02*
X12419191Y-16021344D01*
X12419191Y-16021344D02*
X12438238Y-16030868D01*
X12438238Y-16030868D02*
X12447762Y-16049915D01*
X12447762Y-16049915D02*
X12447762Y-16154677D01*
X12447762Y-16049915D02*
X12457286Y-16030868D01*
X12457286Y-16030868D02*
X12476333Y-16021344D01*
X12476333Y-16021344D02*
X12504905Y-16021344D01*
X12504905Y-16021344D02*
X12523952Y-16030868D01*
X12523952Y-16030868D02*
X12533476Y-16049915D01*
X12533476Y-16049915D02*
X12533476Y-16154677D01*
X12923952Y-15945153D02*
X12752524Y-16202296D01*
X13181095Y-15954677D02*
X13200143Y-15954677D01*
X13200143Y-15954677D02*
X13219191Y-15964201D01*
X13219191Y-15964201D02*
X13228714Y-15973725D01*
X13228714Y-15973725D02*
X13238238Y-15992772D01*
X13238238Y-15992772D02*
X13247762Y-16030868D01*
X13247762Y-16030868D02*
X13247762Y-16078487D01*
X13247762Y-16078487D02*
X13238238Y-16116582D01*
X13238238Y-16116582D02*
X13228714Y-16135630D01*
X13228714Y-16135630D02*
X13219191Y-16145153D01*
X13219191Y-16145153D02*
X13200143Y-16154677D01*
X13200143Y-16154677D02*
X13181095Y-16154677D01*
X13181095Y-16154677D02*
X13162048Y-16145153D01*
X13162048Y-16145153D02*
X13152524Y-16135630D01*
X13152524Y-16135630D02*
X13143000Y-16116582D01*
X13143000Y-16116582D02*
X13133476Y-16078487D01*
X13133476Y-16078487D02*
X13133476Y-16030868D01*
X13133476Y-16030868D02*
X13143000Y-15992772D01*
X13143000Y-15992772D02*
X13152524Y-15973725D01*
X13152524Y-15973725D02*
X13162048Y-15964201D01*
X13162048Y-15964201D02*
X13181095Y-15954677D01*
X13333476Y-16135630D02*
X13343000Y-16145153D01*
X13343000Y-16145153D02*
X13333476Y-16154677D01*
X13333476Y-16154677D02*
X13323953Y-16145153D01*
X13323953Y-16145153D02*
X13333476Y-16135630D01*
X13333476Y-16135630D02*
X13333476Y-16154677D01*
X13466810Y-15954677D02*
X13485857Y-15954677D01*
X13485857Y-15954677D02*
X13504905Y-15964201D01*
X13504905Y-15964201D02*
X13514429Y-15973725D01*
X13514429Y-15973725D02*
X13523953Y-15992772D01*
X13523953Y-15992772D02*
X13533476Y-16030868D01*
X13533476Y-16030868D02*
X13533476Y-16078487D01*
X13533476Y-16078487D02*
X13523953Y-16116582D01*
X13523953Y-16116582D02*
X13514429Y-16135630D01*
X13514429Y-16135630D02*
X13504905Y-16145153D01*
X13504905Y-16145153D02*
X13485857Y-16154677D01*
X13485857Y-16154677D02*
X13466810Y-16154677D01*
X13466810Y-16154677D02*
X13447762Y-16145153D01*
X13447762Y-16145153D02*
X13438238Y-16135630D01*
X13438238Y-16135630D02*
X13428714Y-16116582D01*
X13428714Y-16116582D02*
X13419191Y-16078487D01*
X13419191Y-16078487D02*
X13419191Y-16030868D01*
X13419191Y-16030868D02*
X13428714Y-15992772D01*
X13428714Y-15992772D02*
X13438238Y-15973725D01*
X13438238Y-15973725D02*
X13447762Y-15964201D01*
X13447762Y-15964201D02*
X13466810Y-15954677D01*
X13600143Y-15954677D02*
X13723953Y-15954677D01*
X13723953Y-15954677D02*
X13657286Y-16030868D01*
X13657286Y-16030868D02*
X13685857Y-16030868D01*
X13685857Y-16030868D02*
X13704905Y-16040391D01*
X13704905Y-16040391D02*
X13714429Y-16049915D01*
X13714429Y-16049915D02*
X13723953Y-16068963D01*
X13723953Y-16068963D02*
X13723953Y-16116582D01*
X13723953Y-16116582D02*
X13714429Y-16135630D01*
X13714429Y-16135630D02*
X13704905Y-16145153D01*
X13704905Y-16145153D02*
X13685857Y-16154677D01*
X13685857Y-16154677D02*
X13628714Y-16154677D01*
X13628714Y-16154677D02*
X13609667Y-16145153D01*
X13609667Y-16145153D02*
X13600143Y-16135630D01*
X13790619Y-15954677D02*
X13923953Y-15954677D01*
X13923953Y-15954677D02*
X13838238Y-16154677D01*
X14085857Y-16021344D02*
X14085857Y-16154677D01*
X14038238Y-15945153D02*
X13990619Y-16088011D01*
X13990619Y-16088011D02*
X14114429Y-16088011D01*
X14181095Y-15954677D02*
X14181095Y-15992772D01*
X14257286Y-15954677D02*
X14257286Y-15992772D01*
X14552524Y-16230868D02*
X14543000Y-16221344D01*
X14543000Y-16221344D02*
X14523953Y-16192772D01*
X14523953Y-16192772D02*
X14514429Y-16173725D01*
X14514429Y-16173725D02*
X14504905Y-16145153D01*
X14504905Y-16145153D02*
X14495381Y-16097534D01*
X14495381Y-16097534D02*
X14495381Y-16059439D01*
X14495381Y-16059439D02*
X14504905Y-16011820D01*
X14504905Y-16011820D02*
X14514429Y-15983249D01*
X14514429Y-15983249D02*
X14523953Y-15964201D01*
X14523953Y-15964201D02*
X14543000Y-15935630D01*
X14543000Y-15935630D02*
X14552524Y-15926106D01*
X14619191Y-15973725D02*
X14628715Y-15964201D01*
X14628715Y-15964201D02*
X14647762Y-15954677D01*
X14647762Y-15954677D02*
X14695381Y-15954677D01*
X14695381Y-15954677D02*
X14714429Y-15964201D01*
X14714429Y-15964201D02*
X14723953Y-15973725D01*
X14723953Y-15973725D02*
X14733476Y-15992772D01*
X14733476Y-15992772D02*
X14733476Y-16011820D01*
X14733476Y-16011820D02*
X14723953Y-16040391D01*
X14723953Y-16040391D02*
X14609667Y-16154677D01*
X14609667Y-16154677D02*
X14733476Y-16154677D01*
X14847762Y-16040391D02*
X14828715Y-16030868D01*
X14828715Y-16030868D02*
X14819191Y-16021344D01*
X14819191Y-16021344D02*
X14809667Y-16002296D01*
X14809667Y-16002296D02*
X14809667Y-15992772D01*
X14809667Y-15992772D02*
X14819191Y-15973725D01*
X14819191Y-15973725D02*
X14828715Y-15964201D01*
X14828715Y-15964201D02*
X14847762Y-15954677D01*
X14847762Y-15954677D02*
X14885857Y-15954677D01*
X14885857Y-15954677D02*
X14904905Y-15964201D01*
X14904905Y-15964201D02*
X14914429Y-15973725D01*
X14914429Y-15973725D02*
X14923953Y-15992772D01*
X14923953Y-15992772D02*
X14923953Y-16002296D01*
X14923953Y-16002296D02*
X14914429Y-16021344D01*
X14914429Y-16021344D02*
X14904905Y-16030868D01*
X14904905Y-16030868D02*
X14885857Y-16040391D01*
X14885857Y-16040391D02*
X14847762Y-16040391D01*
X14847762Y-16040391D02*
X14828715Y-16049915D01*
X14828715Y-16049915D02*
X14819191Y-16059439D01*
X14819191Y-16059439D02*
X14809667Y-16078487D01*
X14809667Y-16078487D02*
X14809667Y-16116582D01*
X14809667Y-16116582D02*
X14819191Y-16135630D01*
X14819191Y-16135630D02*
X14828715Y-16145153D01*
X14828715Y-16145153D02*
X14847762Y-16154677D01*
X14847762Y-16154677D02*
X14885857Y-16154677D01*
X14885857Y-16154677D02*
X14904905Y-16145153D01*
X14904905Y-16145153D02*
X14914429Y-16135630D01*
X14914429Y-16135630D02*
X14923953Y-16116582D01*
X14923953Y-16116582D02*
X14923953Y-16078487D01*
X14923953Y-16078487D02*
X14914429Y-16059439D01*
X14914429Y-16059439D02*
X14904905Y-16049915D01*
X14904905Y-16049915D02*
X14885857Y-16040391D01*
X15162048Y-16154677D02*
X15162048Y-15954677D01*
X15247762Y-16154677D02*
X15247762Y-16049915D01*
X15247762Y-16049915D02*
X15238238Y-16030868D01*
X15238238Y-16030868D02*
X15219191Y-16021344D01*
X15219191Y-16021344D02*
X15190619Y-16021344D01*
X15190619Y-16021344D02*
X15171572Y-16030868D01*
X15171572Y-16030868D02*
X15162048Y-16040391D01*
X15371572Y-16154677D02*
X15352524Y-16145153D01*
X15352524Y-16145153D02*
X15343000Y-16135630D01*
X15343000Y-16135630D02*
X15333477Y-16116582D01*
X15333477Y-16116582D02*
X15333477Y-16059439D01*
X15333477Y-16059439D02*
X15343000Y-16040391D01*
X15343000Y-16040391D02*
X15352524Y-16030868D01*
X15352524Y-16030868D02*
X15371572Y-16021344D01*
X15371572Y-16021344D02*
X15400143Y-16021344D01*
X15400143Y-16021344D02*
X15419191Y-16030868D01*
X15419191Y-16030868D02*
X15428715Y-16040391D01*
X15428715Y-16040391D02*
X15438238Y-16059439D01*
X15438238Y-16059439D02*
X15438238Y-16116582D01*
X15438238Y-16116582D02*
X15428715Y-16135630D01*
X15428715Y-16135630D02*
X15419191Y-16145153D01*
X15419191Y-16145153D02*
X15400143Y-16154677D01*
X15400143Y-16154677D02*
X15371572Y-16154677D01*
X15552524Y-16154677D02*
X15533477Y-16145153D01*
X15533477Y-16145153D02*
X15523953Y-16126106D01*
X15523953Y-16126106D02*
X15523953Y-15954677D01*
X15704905Y-16145153D02*
X15685858Y-16154677D01*
X15685858Y-16154677D02*
X15647762Y-16154677D01*
X15647762Y-16154677D02*
X15628715Y-16145153D01*
X15628715Y-16145153D02*
X15619191Y-16126106D01*
X15619191Y-16126106D02*
X15619191Y-16049915D01*
X15619191Y-16049915D02*
X15628715Y-16030868D01*
X15628715Y-16030868D02*
X15647762Y-16021344D01*
X15647762Y-16021344D02*
X15685858Y-16021344D01*
X15685858Y-16021344D02*
X15704905Y-16030868D01*
X15704905Y-16030868D02*
X15714429Y-16049915D01*
X15714429Y-16049915D02*
X15714429Y-16068963D01*
X15714429Y-16068963D02*
X15619191Y-16088011D01*
X15790619Y-16145153D02*
X15809667Y-16154677D01*
X15809667Y-16154677D02*
X15847762Y-16154677D01*
X15847762Y-16154677D02*
X15866810Y-16145153D01*
X15866810Y-16145153D02*
X15876334Y-16126106D01*
X15876334Y-16126106D02*
X15876334Y-16116582D01*
X15876334Y-16116582D02*
X15866810Y-16097534D01*
X15866810Y-16097534D02*
X15847762Y-16088011D01*
X15847762Y-16088011D02*
X15819191Y-16088011D01*
X15819191Y-16088011D02*
X15800143Y-16078487D01*
X15800143Y-16078487D02*
X15790619Y-16059439D01*
X15790619Y-16059439D02*
X15790619Y-16049915D01*
X15790619Y-16049915D02*
X15800143Y-16030868D01*
X15800143Y-16030868D02*
X15819191Y-16021344D01*
X15819191Y-16021344D02*
X15847762Y-16021344D01*
X15847762Y-16021344D02*
X15866810Y-16030868D01*
X15943000Y-16230868D02*
X15952524Y-16221344D01*
X15952524Y-16221344D02*
X15971572Y-16192772D01*
X15971572Y-16192772D02*
X15981096Y-16173725D01*
X15981096Y-16173725D02*
X15990619Y-16145153D01*
X15990619Y-16145153D02*
X16000143Y-16097534D01*
X16000143Y-16097534D02*
X16000143Y-16059439D01*
X16000143Y-16059439D02*
X15990619Y-16011820D01*
X15990619Y-16011820D02*
X15981096Y-15983249D01*
X15981096Y-15983249D02*
X15971572Y-15964201D01*
X15971572Y-15964201D02*
X15952524Y-15935630D01*
X15952524Y-15935630D02*
X15943000Y-15926106D01*
D11*
X10877461Y-16277193D02*
X10977461Y-16377193D01*
X10977461Y-16277193D02*
X10877461Y-16377193D01*
X10927461Y-16277193D02*
X10927461Y-16377193D01*
X10877461Y-16327193D02*
X10977461Y-16327193D01*
D10*
X11343000Y-16418677D02*
X11228714Y-16418677D01*
X11285857Y-16418677D02*
X11285857Y-16218677D01*
X11285857Y-16218677D02*
X11266809Y-16247249D01*
X11266809Y-16247249D02*
X11247762Y-16266296D01*
X11247762Y-16266296D02*
X11228714Y-16275820D01*
X11428714Y-16399630D02*
X11438238Y-16409153D01*
X11438238Y-16409153D02*
X11428714Y-16418677D01*
X11428714Y-16418677D02*
X11419190Y-16409153D01*
X11419190Y-16409153D02*
X11428714Y-16399630D01*
X11428714Y-16399630D02*
X11428714Y-16418677D01*
X11562048Y-16218677D02*
X11581095Y-16218677D01*
X11581095Y-16218677D02*
X11600143Y-16228201D01*
X11600143Y-16228201D02*
X11609667Y-16237725D01*
X11609667Y-16237725D02*
X11619190Y-16256772D01*
X11619190Y-16256772D02*
X11628714Y-16294868D01*
X11628714Y-16294868D02*
X11628714Y-16342487D01*
X11628714Y-16342487D02*
X11619190Y-16380582D01*
X11619190Y-16380582D02*
X11609667Y-16399630D01*
X11609667Y-16399630D02*
X11600143Y-16409153D01*
X11600143Y-16409153D02*
X11581095Y-16418677D01*
X11581095Y-16418677D02*
X11562048Y-16418677D01*
X11562048Y-16418677D02*
X11543000Y-16409153D01*
X11543000Y-16409153D02*
X11533476Y-16399630D01*
X11533476Y-16399630D02*
X11523952Y-16380582D01*
X11523952Y-16380582D02*
X11514429Y-16342487D01*
X11514429Y-16342487D02*
X11514429Y-16294868D01*
X11514429Y-16294868D02*
X11523952Y-16256772D01*
X11523952Y-16256772D02*
X11533476Y-16237725D01*
X11533476Y-16237725D02*
X11543000Y-16228201D01*
X11543000Y-16228201D02*
X11562048Y-16218677D01*
X11752524Y-16218677D02*
X11771571Y-16218677D01*
X11771571Y-16218677D02*
X11790619Y-16228201D01*
X11790619Y-16228201D02*
X11800143Y-16237725D01*
X11800143Y-16237725D02*
X11809667Y-16256772D01*
X11809667Y-16256772D02*
X11819190Y-16294868D01*
X11819190Y-16294868D02*
X11819190Y-16342487D01*
X11819190Y-16342487D02*
X11809667Y-16380582D01*
X11809667Y-16380582D02*
X11800143Y-16399630D01*
X11800143Y-16399630D02*
X11790619Y-16409153D01*
X11790619Y-16409153D02*
X11771571Y-16418677D01*
X11771571Y-16418677D02*
X11752524Y-16418677D01*
X11752524Y-16418677D02*
X11733476Y-16409153D01*
X11733476Y-16409153D02*
X11723952Y-16399630D01*
X11723952Y-16399630D02*
X11714429Y-16380582D01*
X11714429Y-16380582D02*
X11704905Y-16342487D01*
X11704905Y-16342487D02*
X11704905Y-16294868D01*
X11704905Y-16294868D02*
X11714429Y-16256772D01*
X11714429Y-16256772D02*
X11723952Y-16237725D01*
X11723952Y-16237725D02*
X11733476Y-16228201D01*
X11733476Y-16228201D02*
X11752524Y-16218677D01*
X11943000Y-16218677D02*
X11962048Y-16218677D01*
X11962048Y-16218677D02*
X11981095Y-16228201D01*
X11981095Y-16228201D02*
X11990619Y-16237725D01*
X11990619Y-16237725D02*
X12000143Y-16256772D01*
X12000143Y-16256772D02*
X12009667Y-16294868D01*
X12009667Y-16294868D02*
X12009667Y-16342487D01*
X12009667Y-16342487D02*
X12000143Y-16380582D01*
X12000143Y-16380582D02*
X11990619Y-16399630D01*
X11990619Y-16399630D02*
X11981095Y-16409153D01*
X11981095Y-16409153D02*
X11962048Y-16418677D01*
X11962048Y-16418677D02*
X11943000Y-16418677D01*
X11943000Y-16418677D02*
X11923952Y-16409153D01*
X11923952Y-16409153D02*
X11914429Y-16399630D01*
X11914429Y-16399630D02*
X11904905Y-16380582D01*
X11904905Y-16380582D02*
X11895381Y-16342487D01*
X11895381Y-16342487D02*
X11895381Y-16294868D01*
X11895381Y-16294868D02*
X11904905Y-16256772D01*
X11904905Y-16256772D02*
X11914429Y-16237725D01*
X11914429Y-16237725D02*
X11923952Y-16228201D01*
X11923952Y-16228201D02*
X11943000Y-16218677D01*
X12095381Y-16418677D02*
X12095381Y-16285344D01*
X12095381Y-16304391D02*
X12104905Y-16294868D01*
X12104905Y-16294868D02*
X12123952Y-16285344D01*
X12123952Y-16285344D02*
X12152524Y-16285344D01*
X12152524Y-16285344D02*
X12171571Y-16294868D01*
X12171571Y-16294868D02*
X12181095Y-16313915D01*
X12181095Y-16313915D02*
X12181095Y-16418677D01*
X12181095Y-16313915D02*
X12190619Y-16294868D01*
X12190619Y-16294868D02*
X12209667Y-16285344D01*
X12209667Y-16285344D02*
X12238238Y-16285344D01*
X12238238Y-16285344D02*
X12257286Y-16294868D01*
X12257286Y-16294868D02*
X12266810Y-16313915D01*
X12266810Y-16313915D02*
X12266810Y-16418677D01*
X12362048Y-16418677D02*
X12362048Y-16285344D01*
X12362048Y-16304391D02*
X12371571Y-16294868D01*
X12371571Y-16294868D02*
X12390619Y-16285344D01*
X12390619Y-16285344D02*
X12419191Y-16285344D01*
X12419191Y-16285344D02*
X12438238Y-16294868D01*
X12438238Y-16294868D02*
X12447762Y-16313915D01*
X12447762Y-16313915D02*
X12447762Y-16418677D01*
X12447762Y-16313915D02*
X12457286Y-16294868D01*
X12457286Y-16294868D02*
X12476333Y-16285344D01*
X12476333Y-16285344D02*
X12504905Y-16285344D01*
X12504905Y-16285344D02*
X12523952Y-16294868D01*
X12523952Y-16294868D02*
X12533476Y-16313915D01*
X12533476Y-16313915D02*
X12533476Y-16418677D01*
X12923952Y-16209153D02*
X12752524Y-16466296D01*
X13181095Y-16218677D02*
X13200143Y-16218677D01*
X13200143Y-16218677D02*
X13219191Y-16228201D01*
X13219191Y-16228201D02*
X13228714Y-16237725D01*
X13228714Y-16237725D02*
X13238238Y-16256772D01*
X13238238Y-16256772D02*
X13247762Y-16294868D01*
X13247762Y-16294868D02*
X13247762Y-16342487D01*
X13247762Y-16342487D02*
X13238238Y-16380582D01*
X13238238Y-16380582D02*
X13228714Y-16399630D01*
X13228714Y-16399630D02*
X13219191Y-16409153D01*
X13219191Y-16409153D02*
X13200143Y-16418677D01*
X13200143Y-16418677D02*
X13181095Y-16418677D01*
X13181095Y-16418677D02*
X13162048Y-16409153D01*
X13162048Y-16409153D02*
X13152524Y-16399630D01*
X13152524Y-16399630D02*
X13143000Y-16380582D01*
X13143000Y-16380582D02*
X13133476Y-16342487D01*
X13133476Y-16342487D02*
X13133476Y-16294868D01*
X13133476Y-16294868D02*
X13143000Y-16256772D01*
X13143000Y-16256772D02*
X13152524Y-16237725D01*
X13152524Y-16237725D02*
X13162048Y-16228201D01*
X13162048Y-16228201D02*
X13181095Y-16218677D01*
X13333476Y-16399630D02*
X13343000Y-16409153D01*
X13343000Y-16409153D02*
X13333476Y-16418677D01*
X13333476Y-16418677D02*
X13323953Y-16409153D01*
X13323953Y-16409153D02*
X13333476Y-16399630D01*
X13333476Y-16399630D02*
X13333476Y-16418677D01*
X13466810Y-16218677D02*
X13485857Y-16218677D01*
X13485857Y-16218677D02*
X13504905Y-16228201D01*
X13504905Y-16228201D02*
X13514429Y-16237725D01*
X13514429Y-16237725D02*
X13523953Y-16256772D01*
X13523953Y-16256772D02*
X13533476Y-16294868D01*
X13533476Y-16294868D02*
X13533476Y-16342487D01*
X13533476Y-16342487D02*
X13523953Y-16380582D01*
X13523953Y-16380582D02*
X13514429Y-16399630D01*
X13514429Y-16399630D02*
X13504905Y-16409153D01*
X13504905Y-16409153D02*
X13485857Y-16418677D01*
X13485857Y-16418677D02*
X13466810Y-16418677D01*
X13466810Y-16418677D02*
X13447762Y-16409153D01*
X13447762Y-16409153D02*
X13438238Y-16399630D01*
X13438238Y-16399630D02*
X13428714Y-16380582D01*
X13428714Y-16380582D02*
X13419191Y-16342487D01*
X13419191Y-16342487D02*
X13419191Y-16294868D01*
X13419191Y-16294868D02*
X13428714Y-16256772D01*
X13428714Y-16256772D02*
X13438238Y-16237725D01*
X13438238Y-16237725D02*
X13447762Y-16228201D01*
X13447762Y-16228201D02*
X13466810Y-16218677D01*
X13600143Y-16218677D02*
X13723953Y-16218677D01*
X13723953Y-16218677D02*
X13657286Y-16294868D01*
X13657286Y-16294868D02*
X13685857Y-16294868D01*
X13685857Y-16294868D02*
X13704905Y-16304391D01*
X13704905Y-16304391D02*
X13714429Y-16313915D01*
X13714429Y-16313915D02*
X13723953Y-16332963D01*
X13723953Y-16332963D02*
X13723953Y-16380582D01*
X13723953Y-16380582D02*
X13714429Y-16399630D01*
X13714429Y-16399630D02*
X13704905Y-16409153D01*
X13704905Y-16409153D02*
X13685857Y-16418677D01*
X13685857Y-16418677D02*
X13628714Y-16418677D01*
X13628714Y-16418677D02*
X13609667Y-16409153D01*
X13609667Y-16409153D02*
X13600143Y-16399630D01*
X13819191Y-16418677D02*
X13857286Y-16418677D01*
X13857286Y-16418677D02*
X13876334Y-16409153D01*
X13876334Y-16409153D02*
X13885857Y-16399630D01*
X13885857Y-16399630D02*
X13904905Y-16371058D01*
X13904905Y-16371058D02*
X13914429Y-16332963D01*
X13914429Y-16332963D02*
X13914429Y-16256772D01*
X13914429Y-16256772D02*
X13904905Y-16237725D01*
X13904905Y-16237725D02*
X13895381Y-16228201D01*
X13895381Y-16228201D02*
X13876334Y-16218677D01*
X13876334Y-16218677D02*
X13838238Y-16218677D01*
X13838238Y-16218677D02*
X13819191Y-16228201D01*
X13819191Y-16228201D02*
X13809667Y-16237725D01*
X13809667Y-16237725D02*
X13800143Y-16256772D01*
X13800143Y-16256772D02*
X13800143Y-16304391D01*
X13800143Y-16304391D02*
X13809667Y-16323439D01*
X13809667Y-16323439D02*
X13819191Y-16332963D01*
X13819191Y-16332963D02*
X13838238Y-16342487D01*
X13838238Y-16342487D02*
X13876334Y-16342487D01*
X13876334Y-16342487D02*
X13895381Y-16332963D01*
X13895381Y-16332963D02*
X13904905Y-16323439D01*
X13904905Y-16323439D02*
X13914429Y-16304391D01*
X14085857Y-16285344D02*
X14085857Y-16418677D01*
X14038238Y-16209153D02*
X13990619Y-16352011D01*
X13990619Y-16352011D02*
X14114429Y-16352011D01*
X14181095Y-16218677D02*
X14181095Y-16256772D01*
X14257286Y-16218677D02*
X14257286Y-16256772D01*
X14552524Y-16494868D02*
X14543000Y-16485344D01*
X14543000Y-16485344D02*
X14523953Y-16456772D01*
X14523953Y-16456772D02*
X14514429Y-16437725D01*
X14514429Y-16437725D02*
X14504905Y-16409153D01*
X14504905Y-16409153D02*
X14495381Y-16361534D01*
X14495381Y-16361534D02*
X14495381Y-16323439D01*
X14495381Y-16323439D02*
X14504905Y-16275820D01*
X14504905Y-16275820D02*
X14514429Y-16247249D01*
X14514429Y-16247249D02*
X14523953Y-16228201D01*
X14523953Y-16228201D02*
X14543000Y-16199630D01*
X14543000Y-16199630D02*
X14552524Y-16190106D01*
X14723953Y-16218677D02*
X14628715Y-16218677D01*
X14628715Y-16218677D02*
X14619191Y-16313915D01*
X14619191Y-16313915D02*
X14628715Y-16304391D01*
X14628715Y-16304391D02*
X14647762Y-16294868D01*
X14647762Y-16294868D02*
X14695381Y-16294868D01*
X14695381Y-16294868D02*
X14714429Y-16304391D01*
X14714429Y-16304391D02*
X14723953Y-16313915D01*
X14723953Y-16313915D02*
X14733476Y-16332963D01*
X14733476Y-16332963D02*
X14733476Y-16380582D01*
X14733476Y-16380582D02*
X14723953Y-16399630D01*
X14723953Y-16399630D02*
X14714429Y-16409153D01*
X14714429Y-16409153D02*
X14695381Y-16418677D01*
X14695381Y-16418677D02*
X14647762Y-16418677D01*
X14647762Y-16418677D02*
X14628715Y-16409153D01*
X14628715Y-16409153D02*
X14619191Y-16399630D01*
X14904905Y-16218677D02*
X14866810Y-16218677D01*
X14866810Y-16218677D02*
X14847762Y-16228201D01*
X14847762Y-16228201D02*
X14838238Y-16237725D01*
X14838238Y-16237725D02*
X14819191Y-16266296D01*
X14819191Y-16266296D02*
X14809667Y-16304391D01*
X14809667Y-16304391D02*
X14809667Y-16380582D01*
X14809667Y-16380582D02*
X14819191Y-16399630D01*
X14819191Y-16399630D02*
X14828715Y-16409153D01*
X14828715Y-16409153D02*
X14847762Y-16418677D01*
X14847762Y-16418677D02*
X14885857Y-16418677D01*
X14885857Y-16418677D02*
X14904905Y-16409153D01*
X14904905Y-16409153D02*
X14914429Y-16399630D01*
X14914429Y-16399630D02*
X14923953Y-16380582D01*
X14923953Y-16380582D02*
X14923953Y-16332963D01*
X14923953Y-16332963D02*
X14914429Y-16313915D01*
X14914429Y-16313915D02*
X14904905Y-16304391D01*
X14904905Y-16304391D02*
X14885857Y-16294868D01*
X14885857Y-16294868D02*
X14847762Y-16294868D01*
X14847762Y-16294868D02*
X14828715Y-16304391D01*
X14828715Y-16304391D02*
X14819191Y-16313915D01*
X14819191Y-16313915D02*
X14809667Y-16332963D01*
X15162048Y-16418677D02*
X15162048Y-16218677D01*
X15247762Y-16418677D02*
X15247762Y-16313915D01*
X15247762Y-16313915D02*
X15238238Y-16294868D01*
X15238238Y-16294868D02*
X15219191Y-16285344D01*
X15219191Y-16285344D02*
X15190619Y-16285344D01*
X15190619Y-16285344D02*
X15171572Y-16294868D01*
X15171572Y-16294868D02*
X15162048Y-16304391D01*
X15371572Y-16418677D02*
X15352524Y-16409153D01*
X15352524Y-16409153D02*
X15343000Y-16399630D01*
X15343000Y-16399630D02*
X15333477Y-16380582D01*
X15333477Y-16380582D02*
X15333477Y-16323439D01*
X15333477Y-16323439D02*
X15343000Y-16304391D01*
X15343000Y-16304391D02*
X15352524Y-16294868D01*
X15352524Y-16294868D02*
X15371572Y-16285344D01*
X15371572Y-16285344D02*
X15400143Y-16285344D01*
X15400143Y-16285344D02*
X15419191Y-16294868D01*
X15419191Y-16294868D02*
X15428715Y-16304391D01*
X15428715Y-16304391D02*
X15438238Y-16323439D01*
X15438238Y-16323439D02*
X15438238Y-16380582D01*
X15438238Y-16380582D02*
X15428715Y-16399630D01*
X15428715Y-16399630D02*
X15419191Y-16409153D01*
X15419191Y-16409153D02*
X15400143Y-16418677D01*
X15400143Y-16418677D02*
X15371572Y-16418677D01*
X15552524Y-16418677D02*
X15533477Y-16409153D01*
X15533477Y-16409153D02*
X15523953Y-16390106D01*
X15523953Y-16390106D02*
X15523953Y-16218677D01*
X15704905Y-16409153D02*
X15685858Y-16418677D01*
X15685858Y-16418677D02*
X15647762Y-16418677D01*
X15647762Y-16418677D02*
X15628715Y-16409153D01*
X15628715Y-16409153D02*
X15619191Y-16390106D01*
X15619191Y-16390106D02*
X15619191Y-16313915D01*
X15619191Y-16313915D02*
X15628715Y-16294868D01*
X15628715Y-16294868D02*
X15647762Y-16285344D01*
X15647762Y-16285344D02*
X15685858Y-16285344D01*
X15685858Y-16285344D02*
X15704905Y-16294868D01*
X15704905Y-16294868D02*
X15714429Y-16313915D01*
X15714429Y-16313915D02*
X15714429Y-16332963D01*
X15714429Y-16332963D02*
X15619191Y-16352011D01*
X15790619Y-16409153D02*
X15809667Y-16418677D01*
X15809667Y-16418677D02*
X15847762Y-16418677D01*
X15847762Y-16418677D02*
X15866810Y-16409153D01*
X15866810Y-16409153D02*
X15876334Y-16390106D01*
X15876334Y-16390106D02*
X15876334Y-16380582D01*
X15876334Y-16380582D02*
X15866810Y-16361534D01*
X15866810Y-16361534D02*
X15847762Y-16352011D01*
X15847762Y-16352011D02*
X15819191Y-16352011D01*
X15819191Y-16352011D02*
X15800143Y-16342487D01*
X15800143Y-16342487D02*
X15790619Y-16323439D01*
X15790619Y-16323439D02*
X15790619Y-16313915D01*
X15790619Y-16313915D02*
X15800143Y-16294868D01*
X15800143Y-16294868D02*
X15819191Y-16285344D01*
X15819191Y-16285344D02*
X15847762Y-16285344D01*
X15847762Y-16285344D02*
X15866810Y-16294868D01*
X15943000Y-16494868D02*
X15952524Y-16485344D01*
X15952524Y-16485344D02*
X15971572Y-16456772D01*
X15971572Y-16456772D02*
X15981096Y-16437725D01*
X15981096Y-16437725D02*
X15990619Y-16409153D01*
X15990619Y-16409153D02*
X16000143Y-16361534D01*
X16000143Y-16361534D02*
X16000143Y-16323439D01*
X16000143Y-16323439D02*
X15990619Y-16275820D01*
X15990619Y-16275820D02*
X15981096Y-16247249D01*
X15981096Y-16247249D02*
X15971572Y-16228201D01*
X15971572Y-16228201D02*
X15952524Y-16199630D01*
X15952524Y-16199630D02*
X15943000Y-16190106D01*
M02*
