%TF.GenerationSoftware,KiCad,Pcbnew,7.0.11*%
%TF.CreationDate,2025-01-20T02:02:24+09:00*%
%TF.ProjectId,CAM,43414d2e-6b69-4636-9164-5f7063625858,rev?*%
%TF.SameCoordinates,Original*%
%TF.FileFunction,Drillmap*%
%TF.FilePolarity,Positive*%
%FSLAX45Y45*%
G04 Gerber Fmt 4.5, Leading zero omitted, Abs format (unit mm)*
G04 Created by KiCad (PCBNEW 7.0.11) date 2025-01-20 02:02:24*
%MOMM*%
%LPD*%
G01*
G04 APERTURE LIST*
%ADD10C,0.200000*%
%ADD11C,0.320000*%
G04 APERTURE END LIST*
D10*
X11018210Y-10670282D02*
G75*
G03*
X11466035Y-10894071I297830J36022D01*
G01*
X13987461Y-6960013D02*
X13987461Y-6526832D01*
X13569740Y-6250896D02*
G75*
G03*
X12685926Y-6761164I1667720J-3909124D01*
G01*
X13964922Y-7678756D02*
G75*
G03*
X13644922Y-7678756I-160000J0D01*
G01*
X13644922Y-7678756D02*
G75*
G03*
X13964922Y-7678756I160000J0D01*
G01*
X14187461Y-13160013D02*
X16287461Y-13160013D01*
X11841180Y-9642545D02*
G75*
G03*
X12114385Y-9569340I100000J173205D01*
G01*
X17310537Y-12569340D02*
X18360537Y-10750686D01*
X12685926Y-13558861D02*
G75*
G03*
X13569740Y-14069131I2551524J3398831D01*
G01*
X11841180Y-9642545D02*
X11466035Y-9425954D01*
X16905183Y-6250894D02*
G75*
G03*
X16487461Y-6526832I-117723J-275936D01*
G01*
X19456719Y-9649743D02*
G75*
G03*
X19008888Y-9425955I-297829J-36017D01*
G01*
X16487457Y-13793193D02*
G75*
G03*
X16905183Y-14069131I300003J3D01*
G01*
X13026035Y-7001083D02*
G75*
G03*
X12706035Y-7001083I-160000J0D01*
G01*
X12706035Y-7001083D02*
G75*
G03*
X13026035Y-7001083I160000J0D01*
G01*
X17383746Y-7477486D02*
G75*
G03*
X17310537Y-7750686I99994J-173204D01*
G01*
X13964900Y-12641256D02*
G75*
G03*
X13644900Y-12641256I-160000J0D01*
G01*
X13644900Y-12641256D02*
G75*
G03*
X13964900Y-12641256I160000J0D01*
G01*
X17768888Y-7001083D02*
G75*
G03*
X17448888Y-7001083I-160000J0D01*
G01*
X17448888Y-7001083D02*
G75*
G03*
X17768888Y-7001083I160000J0D01*
G01*
X11018205Y-9649743D02*
G75*
G03*
X11018205Y-10670283I4219256J-510270D01*
G01*
X16487461Y-13360013D02*
X16487461Y-13793193D01*
X13987457Y-6960013D02*
G75*
G03*
X14187461Y-7160013I200003J3D01*
G01*
X17788996Y-6761165D02*
G75*
G03*
X16905183Y-6250895I-2551536J-3398845D01*
G01*
X13987461Y-13793193D02*
X13987461Y-13360013D01*
X19008888Y-9425954D02*
X18633743Y-9642545D01*
X17788994Y-13558858D02*
G75*
G03*
X17758888Y-13059135I-180104J239918D01*
G01*
X11466035Y-10894071D02*
X11841180Y-10677481D01*
X16487461Y-6526832D02*
X16487461Y-6960013D01*
X14884400Y-8128000D02*
X15773400Y-8128000D01*
X15773400Y-9550400D01*
X14884400Y-9550400D01*
X14884400Y-8128000D01*
X18262562Y-10160026D02*
G75*
G03*
X17942562Y-10160026I-160000J0D01*
G01*
X17942562Y-10160026D02*
G75*
G03*
X18262562Y-10160026I160000J0D01*
G01*
X16830023Y-7678769D02*
G75*
G03*
X16510022Y-7678769I-160000J0D01*
G01*
X16510022Y-7678769D02*
G75*
G03*
X16830023Y-7678769I160000J0D01*
G01*
X19456718Y-10670283D02*
G75*
G03*
X19456718Y-9649743I-4219256J510270D01*
G01*
X12685923Y-6761160D02*
G75*
G03*
X12716035Y-7260891I180107J-239920D01*
G01*
X17383743Y-7477481D02*
X17758888Y-7260891D01*
X17758888Y-13059135D02*
X17383743Y-12842545D01*
X12114385Y-10750686D02*
X13164385Y-12569340D01*
X19008891Y-10894066D02*
G75*
G03*
X19456718Y-10670283I149999J259806D01*
G01*
X16287461Y-7160011D02*
G75*
G03*
X16487461Y-6960013I-1J200001D01*
G01*
X12114383Y-10750687D02*
G75*
G03*
X11841180Y-10677481I-173203J-99993D01*
G01*
X12716035Y-7260891D02*
X13091180Y-7477481D01*
X16287461Y-7160013D02*
X14187461Y-7160013D01*
X18633740Y-10677485D02*
G75*
G03*
X18360537Y-10750686I-100000J-173205D01*
G01*
X13987457Y-6526832D02*
G75*
G03*
X13569740Y-6250895I-299997J2D01*
G01*
X17758885Y-7260886D02*
G75*
G03*
X17788996Y-6761164I-149995J259806D01*
G01*
X13847461Y-13793193D02*
G75*
G03*
X13527461Y-13793193I-160000J0D01*
G01*
X13527461Y-13793193D02*
G75*
G03*
X13847461Y-13793193I160000J0D01*
G01*
X18360537Y-9569340D02*
X17310537Y-7750686D01*
X12716032Y-13059131D02*
G75*
G03*
X12685926Y-13558861I150008J-259809D01*
G01*
X13569740Y-14069130D02*
G75*
G03*
X13987461Y-13793193I117720J275940D01*
G01*
X16947462Y-13793193D02*
G75*
G03*
X16627461Y-13793193I-160000J0D01*
G01*
X16627461Y-13793193D02*
G75*
G03*
X16947462Y-13793193I160000J0D01*
G01*
X13091178Y-12842542D02*
G75*
G03*
X13164385Y-12569340I-99989J173202D01*
G01*
X13091180Y-12842545D02*
X12716035Y-13059135D01*
X18633743Y-10677481D02*
X19008888Y-10894071D01*
X18360535Y-9569341D02*
G75*
G03*
X18633743Y-9642545I173205J100001D01*
G01*
X17310537Y-12569340D02*
G75*
G03*
X17383743Y-12842545I173203J-100000D01*
G01*
X11466032Y-9425959D02*
G75*
G03*
X11018205Y-9649743I-150002J-259801D01*
G01*
X16487457Y-13360013D02*
G75*
G03*
X16287461Y-13160013I-199997J3D01*
G01*
X14187461Y-13160011D02*
G75*
G03*
X13987461Y-13360013I-1J-199999D01*
G01*
X13164385Y-7750686D02*
X12114385Y-9569340D01*
X13164390Y-7750689D02*
G75*
G03*
X13091180Y-7477481I-173210J99999D01*
G01*
X12532360Y-10160000D02*
G75*
G03*
X12212360Y-10160000I-160000J0D01*
G01*
X12212360Y-10160000D02*
G75*
G03*
X12532360Y-10160000I160000J0D01*
G01*
X16905183Y-14069131D02*
G75*
G03*
X17788996Y-13558861I-1667723J3909121D01*
G01*
X16830001Y-12641269D02*
G75*
G03*
X16510001Y-12641269I-160000J0D01*
G01*
X16510001Y-12641269D02*
G75*
G03*
X16830001Y-12641269I160000J0D01*
G01*
D11*
X12212000Y-9999000D02*
X12532000Y-10319000D01*
X12532000Y-9999000D02*
X12212000Y-10319000D01*
X12706000Y-6841000D02*
X13026000Y-7161000D01*
X13026000Y-6841000D02*
X12706000Y-7161000D01*
X13528000Y-13633000D02*
X13848000Y-13953000D01*
X13848000Y-13633000D02*
X13528000Y-13953000D01*
X13644000Y-12481000D02*
X13964000Y-12801000D01*
X13964000Y-12481000D02*
X13644000Y-12801000D01*
X13646000Y-7518000D02*
X13966000Y-7838000D01*
X13966000Y-7518000D02*
X13646000Y-7838000D01*
X16510000Y-7519000D02*
X16830000Y-7839000D01*
X16830000Y-7519000D02*
X16510000Y-7839000D01*
X16511000Y-12481000D02*
X16831000Y-12801000D01*
X16831000Y-12481000D02*
X16511000Y-12801000D01*
X16628000Y-13634000D02*
X16948000Y-13954000D01*
X16948000Y-13634000D02*
X16628000Y-13954000D01*
X17450000Y-6841000D02*
X17770000Y-7161000D01*
X17770000Y-6841000D02*
X17450000Y-7161000D01*
X17942000Y-9997000D02*
X18262000Y-10317000D01*
X18262000Y-9997000D02*
X17942000Y-10317000D01*
D10*
X11238238Y-14414677D02*
X11238238Y-14214677D01*
X11238238Y-14214677D02*
X11285857Y-14214677D01*
X11285857Y-14214677D02*
X11314429Y-14224201D01*
X11314429Y-14224201D02*
X11333476Y-14243249D01*
X11333476Y-14243249D02*
X11343000Y-14262296D01*
X11343000Y-14262296D02*
X11352524Y-14300391D01*
X11352524Y-14300391D02*
X11352524Y-14328963D01*
X11352524Y-14328963D02*
X11343000Y-14367058D01*
X11343000Y-14367058D02*
X11333476Y-14386106D01*
X11333476Y-14386106D02*
X11314429Y-14405153D01*
X11314429Y-14405153D02*
X11285857Y-14414677D01*
X11285857Y-14414677D02*
X11238238Y-14414677D01*
X11438238Y-14414677D02*
X11438238Y-14281344D01*
X11438238Y-14319439D02*
X11447762Y-14300391D01*
X11447762Y-14300391D02*
X11457286Y-14290868D01*
X11457286Y-14290868D02*
X11476333Y-14281344D01*
X11476333Y-14281344D02*
X11495381Y-14281344D01*
X11562048Y-14414677D02*
X11562048Y-14281344D01*
X11562048Y-14214677D02*
X11552524Y-14224201D01*
X11552524Y-14224201D02*
X11562048Y-14233725D01*
X11562048Y-14233725D02*
X11571571Y-14224201D01*
X11571571Y-14224201D02*
X11562048Y-14214677D01*
X11562048Y-14214677D02*
X11562048Y-14233725D01*
X11685857Y-14414677D02*
X11666809Y-14405153D01*
X11666809Y-14405153D02*
X11657286Y-14386106D01*
X11657286Y-14386106D02*
X11657286Y-14214677D01*
X11790619Y-14414677D02*
X11771571Y-14405153D01*
X11771571Y-14405153D02*
X11762048Y-14386106D01*
X11762048Y-14386106D02*
X11762048Y-14214677D01*
X12019190Y-14414677D02*
X12019190Y-14214677D01*
X12019190Y-14214677D02*
X12085857Y-14357534D01*
X12085857Y-14357534D02*
X12152524Y-14214677D01*
X12152524Y-14214677D02*
X12152524Y-14414677D01*
X12333476Y-14414677D02*
X12333476Y-14309915D01*
X12333476Y-14309915D02*
X12323952Y-14290868D01*
X12323952Y-14290868D02*
X12304905Y-14281344D01*
X12304905Y-14281344D02*
X12266809Y-14281344D01*
X12266809Y-14281344D02*
X12247762Y-14290868D01*
X12333476Y-14405153D02*
X12314429Y-14414677D01*
X12314429Y-14414677D02*
X12266809Y-14414677D01*
X12266809Y-14414677D02*
X12247762Y-14405153D01*
X12247762Y-14405153D02*
X12238238Y-14386106D01*
X12238238Y-14386106D02*
X12238238Y-14367058D01*
X12238238Y-14367058D02*
X12247762Y-14348011D01*
X12247762Y-14348011D02*
X12266809Y-14338487D01*
X12266809Y-14338487D02*
X12314429Y-14338487D01*
X12314429Y-14338487D02*
X12333476Y-14328963D01*
X12428714Y-14281344D02*
X12428714Y-14481344D01*
X12428714Y-14290868D02*
X12447762Y-14281344D01*
X12447762Y-14281344D02*
X12485857Y-14281344D01*
X12485857Y-14281344D02*
X12504905Y-14290868D01*
X12504905Y-14290868D02*
X12514429Y-14300391D01*
X12514429Y-14300391D02*
X12523952Y-14319439D01*
X12523952Y-14319439D02*
X12523952Y-14376582D01*
X12523952Y-14376582D02*
X12514429Y-14395630D01*
X12514429Y-14395630D02*
X12504905Y-14405153D01*
X12504905Y-14405153D02*
X12485857Y-14414677D01*
X12485857Y-14414677D02*
X12447762Y-14414677D01*
X12447762Y-14414677D02*
X12428714Y-14405153D01*
X12609667Y-14395630D02*
X12619190Y-14405153D01*
X12619190Y-14405153D02*
X12609667Y-14414677D01*
X12609667Y-14414677D02*
X12600143Y-14405153D01*
X12600143Y-14405153D02*
X12609667Y-14395630D01*
X12609667Y-14395630D02*
X12609667Y-14414677D01*
X12609667Y-14290868D02*
X12619190Y-14300391D01*
X12619190Y-14300391D02*
X12609667Y-14309915D01*
X12609667Y-14309915D02*
X12600143Y-14300391D01*
X12600143Y-14300391D02*
X12609667Y-14290868D01*
X12609667Y-14290868D02*
X12609667Y-14309915D01*
X10777461Y-14643193D02*
X10977461Y-14843193D01*
X10977461Y-14643193D02*
X10777461Y-14843193D01*
X11219190Y-14634677D02*
X11343000Y-14634677D01*
X11343000Y-14634677D02*
X11276333Y-14710868D01*
X11276333Y-14710868D02*
X11304905Y-14710868D01*
X11304905Y-14710868D02*
X11323952Y-14720391D01*
X11323952Y-14720391D02*
X11333476Y-14729915D01*
X11333476Y-14729915D02*
X11343000Y-14748963D01*
X11343000Y-14748963D02*
X11343000Y-14796582D01*
X11343000Y-14796582D02*
X11333476Y-14815630D01*
X11333476Y-14815630D02*
X11323952Y-14825153D01*
X11323952Y-14825153D02*
X11304905Y-14834677D01*
X11304905Y-14834677D02*
X11247762Y-14834677D01*
X11247762Y-14834677D02*
X11228714Y-14825153D01*
X11228714Y-14825153D02*
X11219190Y-14815630D01*
X11428714Y-14815630D02*
X11438238Y-14825153D01*
X11438238Y-14825153D02*
X11428714Y-14834677D01*
X11428714Y-14834677D02*
X11419190Y-14825153D01*
X11419190Y-14825153D02*
X11428714Y-14815630D01*
X11428714Y-14815630D02*
X11428714Y-14834677D01*
X11514429Y-14653725D02*
X11523952Y-14644201D01*
X11523952Y-14644201D02*
X11543000Y-14634677D01*
X11543000Y-14634677D02*
X11590619Y-14634677D01*
X11590619Y-14634677D02*
X11609667Y-14644201D01*
X11609667Y-14644201D02*
X11619190Y-14653725D01*
X11619190Y-14653725D02*
X11628714Y-14672772D01*
X11628714Y-14672772D02*
X11628714Y-14691820D01*
X11628714Y-14691820D02*
X11619190Y-14720391D01*
X11619190Y-14720391D02*
X11504905Y-14834677D01*
X11504905Y-14834677D02*
X11628714Y-14834677D01*
X11752524Y-14634677D02*
X11771571Y-14634677D01*
X11771571Y-14634677D02*
X11790619Y-14644201D01*
X11790619Y-14644201D02*
X11800143Y-14653725D01*
X11800143Y-14653725D02*
X11809667Y-14672772D01*
X11809667Y-14672772D02*
X11819190Y-14710868D01*
X11819190Y-14710868D02*
X11819190Y-14758487D01*
X11819190Y-14758487D02*
X11809667Y-14796582D01*
X11809667Y-14796582D02*
X11800143Y-14815630D01*
X11800143Y-14815630D02*
X11790619Y-14825153D01*
X11790619Y-14825153D02*
X11771571Y-14834677D01*
X11771571Y-14834677D02*
X11752524Y-14834677D01*
X11752524Y-14834677D02*
X11733476Y-14825153D01*
X11733476Y-14825153D02*
X11723952Y-14815630D01*
X11723952Y-14815630D02*
X11714429Y-14796582D01*
X11714429Y-14796582D02*
X11704905Y-14758487D01*
X11704905Y-14758487D02*
X11704905Y-14710868D01*
X11704905Y-14710868D02*
X11714429Y-14672772D01*
X11714429Y-14672772D02*
X11723952Y-14653725D01*
X11723952Y-14653725D02*
X11733476Y-14644201D01*
X11733476Y-14644201D02*
X11752524Y-14634677D01*
X11943000Y-14634677D02*
X11962048Y-14634677D01*
X11962048Y-14634677D02*
X11981095Y-14644201D01*
X11981095Y-14644201D02*
X11990619Y-14653725D01*
X11990619Y-14653725D02*
X12000143Y-14672772D01*
X12000143Y-14672772D02*
X12009667Y-14710868D01*
X12009667Y-14710868D02*
X12009667Y-14758487D01*
X12009667Y-14758487D02*
X12000143Y-14796582D01*
X12000143Y-14796582D02*
X11990619Y-14815630D01*
X11990619Y-14815630D02*
X11981095Y-14825153D01*
X11981095Y-14825153D02*
X11962048Y-14834677D01*
X11962048Y-14834677D02*
X11943000Y-14834677D01*
X11943000Y-14834677D02*
X11923952Y-14825153D01*
X11923952Y-14825153D02*
X11914429Y-14815630D01*
X11914429Y-14815630D02*
X11904905Y-14796582D01*
X11904905Y-14796582D02*
X11895381Y-14758487D01*
X11895381Y-14758487D02*
X11895381Y-14710868D01*
X11895381Y-14710868D02*
X11904905Y-14672772D01*
X11904905Y-14672772D02*
X11914429Y-14653725D01*
X11914429Y-14653725D02*
X11923952Y-14644201D01*
X11923952Y-14644201D02*
X11943000Y-14634677D01*
X12095381Y-14834677D02*
X12095381Y-14701344D01*
X12095381Y-14720391D02*
X12104905Y-14710868D01*
X12104905Y-14710868D02*
X12123952Y-14701344D01*
X12123952Y-14701344D02*
X12152524Y-14701344D01*
X12152524Y-14701344D02*
X12171571Y-14710868D01*
X12171571Y-14710868D02*
X12181095Y-14729915D01*
X12181095Y-14729915D02*
X12181095Y-14834677D01*
X12181095Y-14729915D02*
X12190619Y-14710868D01*
X12190619Y-14710868D02*
X12209667Y-14701344D01*
X12209667Y-14701344D02*
X12238238Y-14701344D01*
X12238238Y-14701344D02*
X12257286Y-14710868D01*
X12257286Y-14710868D02*
X12266810Y-14729915D01*
X12266810Y-14729915D02*
X12266810Y-14834677D01*
X12362048Y-14834677D02*
X12362048Y-14701344D01*
X12362048Y-14720391D02*
X12371571Y-14710868D01*
X12371571Y-14710868D02*
X12390619Y-14701344D01*
X12390619Y-14701344D02*
X12419191Y-14701344D01*
X12419191Y-14701344D02*
X12438238Y-14710868D01*
X12438238Y-14710868D02*
X12447762Y-14729915D01*
X12447762Y-14729915D02*
X12447762Y-14834677D01*
X12447762Y-14729915D02*
X12457286Y-14710868D01*
X12457286Y-14710868D02*
X12476333Y-14701344D01*
X12476333Y-14701344D02*
X12504905Y-14701344D01*
X12504905Y-14701344D02*
X12523952Y-14710868D01*
X12523952Y-14710868D02*
X12533476Y-14729915D01*
X12533476Y-14729915D02*
X12533476Y-14834677D01*
X12923952Y-14625153D02*
X12752524Y-14882296D01*
X13181095Y-14634677D02*
X13200143Y-14634677D01*
X13200143Y-14634677D02*
X13219191Y-14644201D01*
X13219191Y-14644201D02*
X13228714Y-14653725D01*
X13228714Y-14653725D02*
X13238238Y-14672772D01*
X13238238Y-14672772D02*
X13247762Y-14710868D01*
X13247762Y-14710868D02*
X13247762Y-14758487D01*
X13247762Y-14758487D02*
X13238238Y-14796582D01*
X13238238Y-14796582D02*
X13228714Y-14815630D01*
X13228714Y-14815630D02*
X13219191Y-14825153D01*
X13219191Y-14825153D02*
X13200143Y-14834677D01*
X13200143Y-14834677D02*
X13181095Y-14834677D01*
X13181095Y-14834677D02*
X13162048Y-14825153D01*
X13162048Y-14825153D02*
X13152524Y-14815630D01*
X13152524Y-14815630D02*
X13143000Y-14796582D01*
X13143000Y-14796582D02*
X13133476Y-14758487D01*
X13133476Y-14758487D02*
X13133476Y-14710868D01*
X13133476Y-14710868D02*
X13143000Y-14672772D01*
X13143000Y-14672772D02*
X13152524Y-14653725D01*
X13152524Y-14653725D02*
X13162048Y-14644201D01*
X13162048Y-14644201D02*
X13181095Y-14634677D01*
X13333476Y-14815630D02*
X13343000Y-14825153D01*
X13343000Y-14825153D02*
X13333476Y-14834677D01*
X13333476Y-14834677D02*
X13323953Y-14825153D01*
X13323953Y-14825153D02*
X13333476Y-14815630D01*
X13333476Y-14815630D02*
X13333476Y-14834677D01*
X13533476Y-14834677D02*
X13419191Y-14834677D01*
X13476333Y-14834677D02*
X13476333Y-14634677D01*
X13476333Y-14634677D02*
X13457286Y-14663249D01*
X13457286Y-14663249D02*
X13438238Y-14682296D01*
X13438238Y-14682296D02*
X13419191Y-14691820D01*
X13609667Y-14653725D02*
X13619191Y-14644201D01*
X13619191Y-14644201D02*
X13638238Y-14634677D01*
X13638238Y-14634677D02*
X13685857Y-14634677D01*
X13685857Y-14634677D02*
X13704905Y-14644201D01*
X13704905Y-14644201D02*
X13714429Y-14653725D01*
X13714429Y-14653725D02*
X13723953Y-14672772D01*
X13723953Y-14672772D02*
X13723953Y-14691820D01*
X13723953Y-14691820D02*
X13714429Y-14720391D01*
X13714429Y-14720391D02*
X13600143Y-14834677D01*
X13600143Y-14834677D02*
X13723953Y-14834677D01*
X13895381Y-14634677D02*
X13857286Y-14634677D01*
X13857286Y-14634677D02*
X13838238Y-14644201D01*
X13838238Y-14644201D02*
X13828714Y-14653725D01*
X13828714Y-14653725D02*
X13809667Y-14682296D01*
X13809667Y-14682296D02*
X13800143Y-14720391D01*
X13800143Y-14720391D02*
X13800143Y-14796582D01*
X13800143Y-14796582D02*
X13809667Y-14815630D01*
X13809667Y-14815630D02*
X13819191Y-14825153D01*
X13819191Y-14825153D02*
X13838238Y-14834677D01*
X13838238Y-14834677D02*
X13876334Y-14834677D01*
X13876334Y-14834677D02*
X13895381Y-14825153D01*
X13895381Y-14825153D02*
X13904905Y-14815630D01*
X13904905Y-14815630D02*
X13914429Y-14796582D01*
X13914429Y-14796582D02*
X13914429Y-14748963D01*
X13914429Y-14748963D02*
X13904905Y-14729915D01*
X13904905Y-14729915D02*
X13895381Y-14720391D01*
X13895381Y-14720391D02*
X13876334Y-14710868D01*
X13876334Y-14710868D02*
X13838238Y-14710868D01*
X13838238Y-14710868D02*
X13819191Y-14720391D01*
X13819191Y-14720391D02*
X13809667Y-14729915D01*
X13809667Y-14729915D02*
X13800143Y-14748963D01*
X14038238Y-14634677D02*
X14057286Y-14634677D01*
X14057286Y-14634677D02*
X14076334Y-14644201D01*
X14076334Y-14644201D02*
X14085857Y-14653725D01*
X14085857Y-14653725D02*
X14095381Y-14672772D01*
X14095381Y-14672772D02*
X14104905Y-14710868D01*
X14104905Y-14710868D02*
X14104905Y-14758487D01*
X14104905Y-14758487D02*
X14095381Y-14796582D01*
X14095381Y-14796582D02*
X14085857Y-14815630D01*
X14085857Y-14815630D02*
X14076334Y-14825153D01*
X14076334Y-14825153D02*
X14057286Y-14834677D01*
X14057286Y-14834677D02*
X14038238Y-14834677D01*
X14038238Y-14834677D02*
X14019191Y-14825153D01*
X14019191Y-14825153D02*
X14009667Y-14815630D01*
X14009667Y-14815630D02*
X14000143Y-14796582D01*
X14000143Y-14796582D02*
X13990619Y-14758487D01*
X13990619Y-14758487D02*
X13990619Y-14710868D01*
X13990619Y-14710868D02*
X14000143Y-14672772D01*
X14000143Y-14672772D02*
X14009667Y-14653725D01*
X14009667Y-14653725D02*
X14019191Y-14644201D01*
X14019191Y-14644201D02*
X14038238Y-14634677D01*
X14181095Y-14634677D02*
X14181095Y-14672772D01*
X14257286Y-14634677D02*
X14257286Y-14672772D01*
X14552524Y-14910868D02*
X14543000Y-14901344D01*
X14543000Y-14901344D02*
X14523953Y-14872772D01*
X14523953Y-14872772D02*
X14514429Y-14853725D01*
X14514429Y-14853725D02*
X14504905Y-14825153D01*
X14504905Y-14825153D02*
X14495381Y-14777534D01*
X14495381Y-14777534D02*
X14495381Y-14739439D01*
X14495381Y-14739439D02*
X14504905Y-14691820D01*
X14504905Y-14691820D02*
X14514429Y-14663249D01*
X14514429Y-14663249D02*
X14523953Y-14644201D01*
X14523953Y-14644201D02*
X14543000Y-14615630D01*
X14543000Y-14615630D02*
X14552524Y-14606106D01*
X14733476Y-14834677D02*
X14619191Y-14834677D01*
X14676334Y-14834677D02*
X14676334Y-14634677D01*
X14676334Y-14634677D02*
X14657286Y-14663249D01*
X14657286Y-14663249D02*
X14638238Y-14682296D01*
X14638238Y-14682296D02*
X14619191Y-14691820D01*
X14857286Y-14634677D02*
X14876334Y-14634677D01*
X14876334Y-14634677D02*
X14895381Y-14644201D01*
X14895381Y-14644201D02*
X14904905Y-14653725D01*
X14904905Y-14653725D02*
X14914429Y-14672772D01*
X14914429Y-14672772D02*
X14923953Y-14710868D01*
X14923953Y-14710868D02*
X14923953Y-14758487D01*
X14923953Y-14758487D02*
X14914429Y-14796582D01*
X14914429Y-14796582D02*
X14904905Y-14815630D01*
X14904905Y-14815630D02*
X14895381Y-14825153D01*
X14895381Y-14825153D02*
X14876334Y-14834677D01*
X14876334Y-14834677D02*
X14857286Y-14834677D01*
X14857286Y-14834677D02*
X14838238Y-14825153D01*
X14838238Y-14825153D02*
X14828715Y-14815630D01*
X14828715Y-14815630D02*
X14819191Y-14796582D01*
X14819191Y-14796582D02*
X14809667Y-14758487D01*
X14809667Y-14758487D02*
X14809667Y-14710868D01*
X14809667Y-14710868D02*
X14819191Y-14672772D01*
X14819191Y-14672772D02*
X14828715Y-14653725D01*
X14828715Y-14653725D02*
X14838238Y-14644201D01*
X14838238Y-14644201D02*
X14857286Y-14634677D01*
X15162048Y-14834677D02*
X15162048Y-14634677D01*
X15247762Y-14834677D02*
X15247762Y-14729915D01*
X15247762Y-14729915D02*
X15238238Y-14710868D01*
X15238238Y-14710868D02*
X15219191Y-14701344D01*
X15219191Y-14701344D02*
X15190619Y-14701344D01*
X15190619Y-14701344D02*
X15171572Y-14710868D01*
X15171572Y-14710868D02*
X15162048Y-14720391D01*
X15371572Y-14834677D02*
X15352524Y-14825153D01*
X15352524Y-14825153D02*
X15343000Y-14815630D01*
X15343000Y-14815630D02*
X15333477Y-14796582D01*
X15333477Y-14796582D02*
X15333477Y-14739439D01*
X15333477Y-14739439D02*
X15343000Y-14720391D01*
X15343000Y-14720391D02*
X15352524Y-14710868D01*
X15352524Y-14710868D02*
X15371572Y-14701344D01*
X15371572Y-14701344D02*
X15400143Y-14701344D01*
X15400143Y-14701344D02*
X15419191Y-14710868D01*
X15419191Y-14710868D02*
X15428715Y-14720391D01*
X15428715Y-14720391D02*
X15438238Y-14739439D01*
X15438238Y-14739439D02*
X15438238Y-14796582D01*
X15438238Y-14796582D02*
X15428715Y-14815630D01*
X15428715Y-14815630D02*
X15419191Y-14825153D01*
X15419191Y-14825153D02*
X15400143Y-14834677D01*
X15400143Y-14834677D02*
X15371572Y-14834677D01*
X15552524Y-14834677D02*
X15533477Y-14825153D01*
X15533477Y-14825153D02*
X15523953Y-14806106D01*
X15523953Y-14806106D02*
X15523953Y-14634677D01*
X15704905Y-14825153D02*
X15685858Y-14834677D01*
X15685858Y-14834677D02*
X15647762Y-14834677D01*
X15647762Y-14834677D02*
X15628715Y-14825153D01*
X15628715Y-14825153D02*
X15619191Y-14806106D01*
X15619191Y-14806106D02*
X15619191Y-14729915D01*
X15619191Y-14729915D02*
X15628715Y-14710868D01*
X15628715Y-14710868D02*
X15647762Y-14701344D01*
X15647762Y-14701344D02*
X15685858Y-14701344D01*
X15685858Y-14701344D02*
X15704905Y-14710868D01*
X15704905Y-14710868D02*
X15714429Y-14729915D01*
X15714429Y-14729915D02*
X15714429Y-14748963D01*
X15714429Y-14748963D02*
X15619191Y-14768011D01*
X15790619Y-14825153D02*
X15809667Y-14834677D01*
X15809667Y-14834677D02*
X15847762Y-14834677D01*
X15847762Y-14834677D02*
X15866810Y-14825153D01*
X15866810Y-14825153D02*
X15876334Y-14806106D01*
X15876334Y-14806106D02*
X15876334Y-14796582D01*
X15876334Y-14796582D02*
X15866810Y-14777534D01*
X15866810Y-14777534D02*
X15847762Y-14768011D01*
X15847762Y-14768011D02*
X15819191Y-14768011D01*
X15819191Y-14768011D02*
X15800143Y-14758487D01*
X15800143Y-14758487D02*
X15790619Y-14739439D01*
X15790619Y-14739439D02*
X15790619Y-14729915D01*
X15790619Y-14729915D02*
X15800143Y-14710868D01*
X15800143Y-14710868D02*
X15819191Y-14701344D01*
X15819191Y-14701344D02*
X15847762Y-14701344D01*
X15847762Y-14701344D02*
X15866810Y-14710868D01*
X15943000Y-14910868D02*
X15952524Y-14901344D01*
X15952524Y-14901344D02*
X15971572Y-14872772D01*
X15971572Y-14872772D02*
X15981096Y-14853725D01*
X15981096Y-14853725D02*
X15990619Y-14825153D01*
X15990619Y-14825153D02*
X16000143Y-14777534D01*
X16000143Y-14777534D02*
X16000143Y-14739439D01*
X16000143Y-14739439D02*
X15990619Y-14691820D01*
X15990619Y-14691820D02*
X15981096Y-14663249D01*
X15981096Y-14663249D02*
X15971572Y-14644201D01*
X15971572Y-14644201D02*
X15952524Y-14615630D01*
X15952524Y-14615630D02*
X15943000Y-14606106D01*
X16304905Y-14910868D02*
X16295381Y-14901344D01*
X16295381Y-14901344D02*
X16276334Y-14872772D01*
X16276334Y-14872772D02*
X16266810Y-14853725D01*
X16266810Y-14853725D02*
X16257286Y-14825153D01*
X16257286Y-14825153D02*
X16247762Y-14777534D01*
X16247762Y-14777534D02*
X16247762Y-14739439D01*
X16247762Y-14739439D02*
X16257286Y-14691820D01*
X16257286Y-14691820D02*
X16266810Y-14663249D01*
X16266810Y-14663249D02*
X16276334Y-14644201D01*
X16276334Y-14644201D02*
X16295381Y-14615630D01*
X16295381Y-14615630D02*
X16304905Y-14606106D01*
X16381096Y-14701344D02*
X16381096Y-14834677D01*
X16381096Y-14720391D02*
X16390619Y-14710868D01*
X16390619Y-14710868D02*
X16409667Y-14701344D01*
X16409667Y-14701344D02*
X16438239Y-14701344D01*
X16438239Y-14701344D02*
X16457286Y-14710868D01*
X16457286Y-14710868D02*
X16466810Y-14729915D01*
X16466810Y-14729915D02*
X16466810Y-14834677D01*
X16590619Y-14834677D02*
X16571572Y-14825153D01*
X16571572Y-14825153D02*
X16562048Y-14815630D01*
X16562048Y-14815630D02*
X16552524Y-14796582D01*
X16552524Y-14796582D02*
X16552524Y-14739439D01*
X16552524Y-14739439D02*
X16562048Y-14720391D01*
X16562048Y-14720391D02*
X16571572Y-14710868D01*
X16571572Y-14710868D02*
X16590619Y-14701344D01*
X16590619Y-14701344D02*
X16619191Y-14701344D01*
X16619191Y-14701344D02*
X16638239Y-14710868D01*
X16638239Y-14710868D02*
X16647762Y-14720391D01*
X16647762Y-14720391D02*
X16657286Y-14739439D01*
X16657286Y-14739439D02*
X16657286Y-14796582D01*
X16657286Y-14796582D02*
X16647762Y-14815630D01*
X16647762Y-14815630D02*
X16638239Y-14825153D01*
X16638239Y-14825153D02*
X16619191Y-14834677D01*
X16619191Y-14834677D02*
X16590619Y-14834677D01*
X16714429Y-14701344D02*
X16790620Y-14701344D01*
X16743000Y-14634677D02*
X16743000Y-14806106D01*
X16743000Y-14806106D02*
X16752524Y-14825153D01*
X16752524Y-14825153D02*
X16771572Y-14834677D01*
X16771572Y-14834677D02*
X16790620Y-14834677D01*
X17009667Y-14701344D02*
X17009667Y-14901344D01*
X17009667Y-14710868D02*
X17028715Y-14701344D01*
X17028715Y-14701344D02*
X17066810Y-14701344D01*
X17066810Y-14701344D02*
X17085858Y-14710868D01*
X17085858Y-14710868D02*
X17095382Y-14720391D01*
X17095382Y-14720391D02*
X17104905Y-14739439D01*
X17104905Y-14739439D02*
X17104905Y-14796582D01*
X17104905Y-14796582D02*
X17095382Y-14815630D01*
X17095382Y-14815630D02*
X17085858Y-14825153D01*
X17085858Y-14825153D02*
X17066810Y-14834677D01*
X17066810Y-14834677D02*
X17028715Y-14834677D01*
X17028715Y-14834677D02*
X17009667Y-14825153D01*
X17219191Y-14834677D02*
X17200143Y-14825153D01*
X17200143Y-14825153D02*
X17190620Y-14806106D01*
X17190620Y-14806106D02*
X17190620Y-14634677D01*
X17381096Y-14834677D02*
X17381096Y-14729915D01*
X17381096Y-14729915D02*
X17371572Y-14710868D01*
X17371572Y-14710868D02*
X17352524Y-14701344D01*
X17352524Y-14701344D02*
X17314429Y-14701344D01*
X17314429Y-14701344D02*
X17295382Y-14710868D01*
X17381096Y-14825153D02*
X17362048Y-14834677D01*
X17362048Y-14834677D02*
X17314429Y-14834677D01*
X17314429Y-14834677D02*
X17295382Y-14825153D01*
X17295382Y-14825153D02*
X17285858Y-14806106D01*
X17285858Y-14806106D02*
X17285858Y-14787058D01*
X17285858Y-14787058D02*
X17295382Y-14768011D01*
X17295382Y-14768011D02*
X17314429Y-14758487D01*
X17314429Y-14758487D02*
X17362048Y-14758487D01*
X17362048Y-14758487D02*
X17381096Y-14748963D01*
X17447763Y-14701344D02*
X17523953Y-14701344D01*
X17476334Y-14634677D02*
X17476334Y-14806106D01*
X17476334Y-14806106D02*
X17485858Y-14825153D01*
X17485858Y-14825153D02*
X17504905Y-14834677D01*
X17504905Y-14834677D02*
X17523953Y-14834677D01*
X17666810Y-14825153D02*
X17647763Y-14834677D01*
X17647763Y-14834677D02*
X17609667Y-14834677D01*
X17609667Y-14834677D02*
X17590620Y-14825153D01*
X17590620Y-14825153D02*
X17581096Y-14806106D01*
X17581096Y-14806106D02*
X17581096Y-14729915D01*
X17581096Y-14729915D02*
X17590620Y-14710868D01*
X17590620Y-14710868D02*
X17609667Y-14701344D01*
X17609667Y-14701344D02*
X17647763Y-14701344D01*
X17647763Y-14701344D02*
X17666810Y-14710868D01*
X17666810Y-14710868D02*
X17676334Y-14729915D01*
X17676334Y-14729915D02*
X17676334Y-14748963D01*
X17676334Y-14748963D02*
X17581096Y-14768011D01*
X17847763Y-14834677D02*
X17847763Y-14634677D01*
X17847763Y-14825153D02*
X17828715Y-14834677D01*
X17828715Y-14834677D02*
X17790620Y-14834677D01*
X17790620Y-14834677D02*
X17771572Y-14825153D01*
X17771572Y-14825153D02*
X17762048Y-14815630D01*
X17762048Y-14815630D02*
X17752524Y-14796582D01*
X17752524Y-14796582D02*
X17752524Y-14739439D01*
X17752524Y-14739439D02*
X17762048Y-14720391D01*
X17762048Y-14720391D02*
X17771572Y-14710868D01*
X17771572Y-14710868D02*
X17790620Y-14701344D01*
X17790620Y-14701344D02*
X17828715Y-14701344D01*
X17828715Y-14701344D02*
X17847763Y-14710868D01*
X17923953Y-14910868D02*
X17933477Y-14901344D01*
X17933477Y-14901344D02*
X17952524Y-14872772D01*
X17952524Y-14872772D02*
X17962048Y-14853725D01*
X17962048Y-14853725D02*
X17971572Y-14825153D01*
X17971572Y-14825153D02*
X17981096Y-14777534D01*
X17981096Y-14777534D02*
X17981096Y-14739439D01*
X17981096Y-14739439D02*
X17971572Y-14691820D01*
X17971572Y-14691820D02*
X17962048Y-14663249D01*
X17962048Y-14663249D02*
X17952524Y-14644201D01*
X17952524Y-14644201D02*
X17933477Y-14615630D01*
X17933477Y-14615630D02*
X17923953Y-14606106D01*
M02*
